<?xml version="1.0" encoding="utf-8" standalone="no"?>
<!DOCTYPE svg PUBLIC "-//W3C//DTD SVG 1.1//EN"
  "http://www.w3.org/Graphics/SVG/1.1/DTD/svg11.dtd">
<svg xmlns:xlink="http://www.w3.org/1999/xlink" width="432pt" height="288pt" viewBox="0 0 432 288" xmlns="http://www.w3.org/2000/svg" version="1.1">
 <metadata>
  <rdf:RDF xmlns:dc="http://purl.org/dc/elements/1.1/" xmlns:cc="http://creativecommons.org/ns#" xmlns:rdf="http://www.w3.org/1999/02/22-rdf-syntax-ns#">
   <cc:Work>
    <dc:type rdf:resource="http://purl.org/dc/dcmitype/StillImage"/>
    <dc:date>2022-11-08T16:00:09.187336</dc:date>
    <dc:format>image/svg+xml</dc:format>
    <dc:creator>
     <cc:Agent>
      <dc:title>Matplotlib v3.6.1, https://matplotlib.org/</dc:title>
     </cc:Agent>
    </dc:creator>
   </cc:Work>
  </rdf:RDF>
 </metadata>
 <defs>
  <style type="text/css">*{stroke-linejoin: round; stroke-linecap: butt}</style>
 </defs>
 <g id="figure_1">
  <g id="patch_1">
   <path d="M 0 288 
L 432 288 
L 432 0 
L 0 0 
z
" style="fill: #ffffff"/>
  </g>
  <g id="axes_1">
   <g id="patch_2">
    <path d="M 71.786518 242.124 
L 417.760168 242.124 
L 417.760168 10.8 
L 71.786518 10.8 
z
" style="fill: #ffffff"/>
   </g>
   <g id="matplotlib.axis_1">
    <g id="xtick_1">
     <g id="line2d_1">
      <defs>
       <path id="m4f6aadd725" d="M 0 0 
L 0 -3.5 
" style="stroke: #000000; stroke-width: 1.5"/>
      </defs>
      <g>
       <use xlink:href="#m4f6aadd725" x="80.471976" y="242.124" style="stroke: #000000; stroke-width: 1.5"/>
      </g>
     </g>
     <g id="line2d_2">
      <defs>
       <path id="mf11b52d5df" d="M 0 0 
L 0 3.5 
" style="stroke: #000000; stroke-width: 1.5"/>
      </defs>
      <g>
       <use xlink:href="#mf11b52d5df" x="80.471976" y="10.8" style="stroke: #000000; stroke-width: 1.5"/>
      </g>
     </g>
     <g id="text_1">
      <!-- 0 -->
      <g transform="translate(76.654476 254.742125) scale(0.12 -0.12)">
       <defs>
        <path id="DejaVuSans-30" d="M 2034 4250 
Q 1547 4250 1301 3770 
Q 1056 3291 1056 2328 
Q 1056 1369 1301 889 
Q 1547 409 2034 409 
Q 2525 409 2770 889 
Q 3016 1369 3016 2328 
Q 3016 3291 2770 3770 
Q 2525 4250 2034 4250 
z
M 2034 4750 
Q 2819 4750 3233 4129 
Q 3647 3509 3647 2328 
Q 3647 1150 3233 529 
Q 2819 -91 2034 -91 
Q 1250 -91 836 529 
Q 422 1150 422 2328 
Q 422 3509 836 4129 
Q 1250 4750 2034 4750 
z
" transform="scale(0.015625)"/>
       </defs>
       <use xlink:href="#DejaVuSans-30"/>
      </g>
     </g>
    </g>
    <g id="xtick_2">
     <g id="line2d_3">
      <g>
       <use xlink:href="#m4f6aadd725" x="135.977062" y="242.124" style="stroke: #000000; stroke-width: 1.5"/>
      </g>
     </g>
     <g id="line2d_4">
      <g>
       <use xlink:href="#mf11b52d5df" x="135.977062" y="10.8" style="stroke: #000000; stroke-width: 1.5"/>
      </g>
     </g>
     <g id="text_2">
      <!-- 10 -->
      <g transform="translate(128.342062 254.742125) scale(0.12 -0.12)">
       <defs>
        <path id="DejaVuSans-31" d="M 794 531 
L 1825 531 
L 1825 4091 
L 703 3866 
L 703 4441 
L 1819 4666 
L 2450 4666 
L 2450 531 
L 3481 531 
L 3481 0 
L 794 0 
L 794 531 
z
" transform="scale(0.015625)"/>
       </defs>
       <use xlink:href="#DejaVuSans-31"/>
       <use xlink:href="#DejaVuSans-30" x="63.623047"/>
      </g>
     </g>
    </g>
    <g id="xtick_3">
     <g id="line2d_5">
      <g>
       <use xlink:href="#m4f6aadd725" x="191.482148" y="242.124" style="stroke: #000000; stroke-width: 1.5"/>
      </g>
     </g>
     <g id="line2d_6">
      <g>
       <use xlink:href="#mf11b52d5df" x="191.482148" y="10.8" style="stroke: #000000; stroke-width: 1.5"/>
      </g>
     </g>
     <g id="text_3">
      <!-- 20 -->
      <g transform="translate(183.847148 254.742125) scale(0.12 -0.12)">
       <defs>
        <path id="DejaVuSans-32" d="M 1228 531 
L 3431 531 
L 3431 0 
L 469 0 
L 469 531 
Q 828 903 1448 1529 
Q 2069 2156 2228 2338 
Q 2531 2678 2651 2914 
Q 2772 3150 2772 3378 
Q 2772 3750 2511 3984 
Q 2250 4219 1831 4219 
Q 1534 4219 1204 4116 
Q 875 4013 500 3803 
L 500 4441 
Q 881 4594 1212 4672 
Q 1544 4750 1819 4750 
Q 2544 4750 2975 4387 
Q 3406 4025 3406 3419 
Q 3406 3131 3298 2873 
Q 3191 2616 2906 2266 
Q 2828 2175 2409 1742 
Q 1991 1309 1228 531 
z
" transform="scale(0.015625)"/>
       </defs>
       <use xlink:href="#DejaVuSans-32"/>
       <use xlink:href="#DejaVuSans-30" x="63.623047"/>
      </g>
     </g>
    </g>
    <g id="xtick_4">
     <g id="line2d_7">
      <g>
       <use xlink:href="#m4f6aadd725" x="246.987235" y="242.124" style="stroke: #000000; stroke-width: 1.5"/>
      </g>
     </g>
     <g id="line2d_8">
      <g>
       <use xlink:href="#mf11b52d5df" x="246.987235" y="10.8" style="stroke: #000000; stroke-width: 1.5"/>
      </g>
     </g>
     <g id="text_4">
      <!-- 30 -->
      <g transform="translate(239.352235 254.742125) scale(0.12 -0.12)">
       <defs>
        <path id="DejaVuSans-33" d="M 2597 2516 
Q 3050 2419 3304 2112 
Q 3559 1806 3559 1356 
Q 3559 666 3084 287 
Q 2609 -91 1734 -91 
Q 1441 -91 1130 -33 
Q 819 25 488 141 
L 488 750 
Q 750 597 1062 519 
Q 1375 441 1716 441 
Q 2309 441 2620 675 
Q 2931 909 2931 1356 
Q 2931 1769 2642 2001 
Q 2353 2234 1838 2234 
L 1294 2234 
L 1294 2753 
L 1863 2753 
Q 2328 2753 2575 2939 
Q 2822 3125 2822 3475 
Q 2822 3834 2567 4026 
Q 2313 4219 1838 4219 
Q 1578 4219 1281 4162 
Q 984 4106 628 3988 
L 628 4550 
Q 988 4650 1302 4700 
Q 1616 4750 1894 4750 
Q 2613 4750 3031 4423 
Q 3450 4097 3450 3541 
Q 3450 3153 3228 2886 
Q 3006 2619 2597 2516 
z
" transform="scale(0.015625)"/>
       </defs>
       <use xlink:href="#DejaVuSans-33"/>
       <use xlink:href="#DejaVuSans-30" x="63.623047"/>
      </g>
     </g>
    </g>
    <g id="xtick_5">
     <g id="line2d_9">
      <g>
       <use xlink:href="#m4f6aadd725" x="302.492321" y="242.124" style="stroke: #000000; stroke-width: 1.5"/>
      </g>
     </g>
     <g id="line2d_10">
      <g>
       <use xlink:href="#mf11b52d5df" x="302.492321" y="10.8" style="stroke: #000000; stroke-width: 1.5"/>
      </g>
     </g>
     <g id="text_5">
      <!-- 40 -->
      <g transform="translate(294.857321 254.742125) scale(0.12 -0.12)">
       <defs>
        <path id="DejaVuSans-34" d="M 2419 4116 
L 825 1625 
L 2419 1625 
L 2419 4116 
z
M 2253 4666 
L 3047 4666 
L 3047 1625 
L 3713 1625 
L 3713 1100 
L 3047 1100 
L 3047 0 
L 2419 0 
L 2419 1100 
L 313 1100 
L 313 1709 
L 2253 4666 
z
" transform="scale(0.015625)"/>
       </defs>
       <use xlink:href="#DejaVuSans-34"/>
       <use xlink:href="#DejaVuSans-30" x="63.623047"/>
      </g>
     </g>
    </g>
    <g id="xtick_6">
     <g id="line2d_11">
      <g>
       <use xlink:href="#m4f6aadd725" x="357.997407" y="242.124" style="stroke: #000000; stroke-width: 1.5"/>
      </g>
     </g>
     <g id="line2d_12">
      <g>
       <use xlink:href="#mf11b52d5df" x="357.997407" y="10.8" style="stroke: #000000; stroke-width: 1.5"/>
      </g>
     </g>
     <g id="text_6">
      <!-- 50 -->
      <g transform="translate(350.362407 254.742125) scale(0.12 -0.12)">
       <defs>
        <path id="DejaVuSans-35" d="M 691 4666 
L 3169 4666 
L 3169 4134 
L 1269 4134 
L 1269 2991 
Q 1406 3038 1543 3061 
Q 1681 3084 1819 3084 
Q 2600 3084 3056 2656 
Q 3513 2228 3513 1497 
Q 3513 744 3044 326 
Q 2575 -91 1722 -91 
Q 1428 -91 1123 -41 
Q 819 9 494 109 
L 494 744 
Q 775 591 1075 516 
Q 1375 441 1709 441 
Q 2250 441 2565 725 
Q 2881 1009 2881 1497 
Q 2881 1984 2565 2268 
Q 2250 2553 1709 2553 
Q 1456 2553 1204 2497 
Q 953 2441 691 2322 
L 691 4666 
z
" transform="scale(0.015625)"/>
       </defs>
       <use xlink:href="#DejaVuSans-35"/>
       <use xlink:href="#DejaVuSans-30" x="63.623047"/>
      </g>
     </g>
    </g>
    <g id="xtick_7">
     <g id="line2d_13">
      <g>
       <use xlink:href="#m4f6aadd725" x="413.502493" y="242.124" style="stroke: #000000; stroke-width: 1.5"/>
      </g>
     </g>
     <g id="line2d_14">
      <g>
       <use xlink:href="#mf11b52d5df" x="413.502493" y="10.8" style="stroke: #000000; stroke-width: 1.5"/>
      </g>
     </g>
     <g id="text_7">
      <!-- 60 -->
      <g transform="translate(405.867493 254.742125) scale(0.12 -0.12)">
       <defs>
        <path id="DejaVuSans-36" d="M 2113 2584 
Q 1688 2584 1439 2293 
Q 1191 2003 1191 1497 
Q 1191 994 1439 701 
Q 1688 409 2113 409 
Q 2538 409 2786 701 
Q 3034 994 3034 1497 
Q 3034 2003 2786 2293 
Q 2538 2584 2113 2584 
z
M 3366 4563 
L 3366 3988 
Q 3128 4100 2886 4159 
Q 2644 4219 2406 4219 
Q 1781 4219 1451 3797 
Q 1122 3375 1075 2522 
Q 1259 2794 1537 2939 
Q 1816 3084 2150 3084 
Q 2853 3084 3261 2657 
Q 3669 2231 3669 1497 
Q 3669 778 3244 343 
Q 2819 -91 2113 -91 
Q 1303 -91 875 529 
Q 447 1150 447 2328 
Q 447 3434 972 4092 
Q 1497 4750 2381 4750 
Q 2619 4750 2861 4703 
Q 3103 4656 3366 4563 
z
" transform="scale(0.015625)"/>
       </defs>
       <use xlink:href="#DejaVuSans-36"/>
       <use xlink:href="#DejaVuSans-30" x="63.623047"/>
      </g>
     </g>
    </g>
    <g id="xtick_8">
     <g id="line2d_15">
      <defs>
       <path id="m4eb30c0a1f" d="M 0 0 
L 0 -2 
" style="stroke: #000000; stroke-width: 1.5"/>
      </defs>
      <g>
       <use xlink:href="#m4eb30c0a1f" x="91.572993" y="242.124" style="stroke: #000000; stroke-width: 1.5"/>
      </g>
     </g>
     <g id="line2d_16">
      <defs>
       <path id="me0e19189a2" d="M 0 0 
L 0 2 
" style="stroke: #000000; stroke-width: 1.5"/>
      </defs>
      <g>
       <use xlink:href="#me0e19189a2" x="91.572993" y="10.8" style="stroke: #000000; stroke-width: 1.5"/>
      </g>
     </g>
    </g>
    <g id="xtick_9">
     <g id="line2d_17">
      <g>
       <use xlink:href="#m4eb30c0a1f" x="102.67401" y="242.124" style="stroke: #000000; stroke-width: 1.5"/>
      </g>
     </g>
     <g id="line2d_18">
      <g>
       <use xlink:href="#me0e19189a2" x="102.67401" y="10.8" style="stroke: #000000; stroke-width: 1.5"/>
      </g>
     </g>
    </g>
    <g id="xtick_10">
     <g id="line2d_19">
      <g>
       <use xlink:href="#m4eb30c0a1f" x="113.775028" y="242.124" style="stroke: #000000; stroke-width: 1.5"/>
      </g>
     </g>
     <g id="line2d_20">
      <g>
       <use xlink:href="#me0e19189a2" x="113.775028" y="10.8" style="stroke: #000000; stroke-width: 1.5"/>
      </g>
     </g>
    </g>
    <g id="xtick_11">
     <g id="line2d_21">
      <g>
       <use xlink:href="#m4eb30c0a1f" x="124.876045" y="242.124" style="stroke: #000000; stroke-width: 1.5"/>
      </g>
     </g>
     <g id="line2d_22">
      <g>
       <use xlink:href="#me0e19189a2" x="124.876045" y="10.8" style="stroke: #000000; stroke-width: 1.5"/>
      </g>
     </g>
    </g>
    <g id="xtick_12">
     <g id="line2d_23">
      <g>
       <use xlink:href="#m4eb30c0a1f" x="147.078079" y="242.124" style="stroke: #000000; stroke-width: 1.5"/>
      </g>
     </g>
     <g id="line2d_24">
      <g>
       <use xlink:href="#me0e19189a2" x="147.078079" y="10.8" style="stroke: #000000; stroke-width: 1.5"/>
      </g>
     </g>
    </g>
    <g id="xtick_13">
     <g id="line2d_25">
      <g>
       <use xlink:href="#m4eb30c0a1f" x="158.179097" y="242.124" style="stroke: #000000; stroke-width: 1.5"/>
      </g>
     </g>
     <g id="line2d_26">
      <g>
       <use xlink:href="#me0e19189a2" x="158.179097" y="10.8" style="stroke: #000000; stroke-width: 1.5"/>
      </g>
     </g>
    </g>
    <g id="xtick_14">
     <g id="line2d_27">
      <g>
       <use xlink:href="#m4eb30c0a1f" x="169.280114" y="242.124" style="stroke: #000000; stroke-width: 1.5"/>
      </g>
     </g>
     <g id="line2d_28">
      <g>
       <use xlink:href="#me0e19189a2" x="169.280114" y="10.8" style="stroke: #000000; stroke-width: 1.5"/>
      </g>
     </g>
    </g>
    <g id="xtick_15">
     <g id="line2d_29">
      <g>
       <use xlink:href="#m4eb30c0a1f" x="180.381131" y="242.124" style="stroke: #000000; stroke-width: 1.5"/>
      </g>
     </g>
     <g id="line2d_30">
      <g>
       <use xlink:href="#me0e19189a2" x="180.381131" y="10.8" style="stroke: #000000; stroke-width: 1.5"/>
      </g>
     </g>
    </g>
    <g id="xtick_16">
     <g id="line2d_31">
      <g>
       <use xlink:href="#m4eb30c0a1f" x="202.583166" y="242.124" style="stroke: #000000; stroke-width: 1.5"/>
      </g>
     </g>
     <g id="line2d_32">
      <g>
       <use xlink:href="#me0e19189a2" x="202.583166" y="10.8" style="stroke: #000000; stroke-width: 1.5"/>
      </g>
     </g>
    </g>
    <g id="xtick_17">
     <g id="line2d_33">
      <g>
       <use xlink:href="#m4eb30c0a1f" x="213.684183" y="242.124" style="stroke: #000000; stroke-width: 1.5"/>
      </g>
     </g>
     <g id="line2d_34">
      <g>
       <use xlink:href="#me0e19189a2" x="213.684183" y="10.8" style="stroke: #000000; stroke-width: 1.5"/>
      </g>
     </g>
    </g>
    <g id="xtick_18">
     <g id="line2d_35">
      <g>
       <use xlink:href="#m4eb30c0a1f" x="224.7852" y="242.124" style="stroke: #000000; stroke-width: 1.5"/>
      </g>
     </g>
     <g id="line2d_36">
      <g>
       <use xlink:href="#me0e19189a2" x="224.7852" y="10.8" style="stroke: #000000; stroke-width: 1.5"/>
      </g>
     </g>
    </g>
    <g id="xtick_19">
     <g id="line2d_37">
      <g>
       <use xlink:href="#m4eb30c0a1f" x="235.886217" y="242.124" style="stroke: #000000; stroke-width: 1.5"/>
      </g>
     </g>
     <g id="line2d_38">
      <g>
       <use xlink:href="#me0e19189a2" x="235.886217" y="10.8" style="stroke: #000000; stroke-width: 1.5"/>
      </g>
     </g>
    </g>
    <g id="xtick_20">
     <g id="line2d_39">
      <g>
       <use xlink:href="#m4eb30c0a1f" x="258.088252" y="242.124" style="stroke: #000000; stroke-width: 1.5"/>
      </g>
     </g>
     <g id="line2d_40">
      <g>
       <use xlink:href="#me0e19189a2" x="258.088252" y="10.8" style="stroke: #000000; stroke-width: 1.5"/>
      </g>
     </g>
    </g>
    <g id="xtick_21">
     <g id="line2d_41">
      <g>
       <use xlink:href="#m4eb30c0a1f" x="269.189269" y="242.124" style="stroke: #000000; stroke-width: 1.5"/>
      </g>
     </g>
     <g id="line2d_42">
      <g>
       <use xlink:href="#me0e19189a2" x="269.189269" y="10.8" style="stroke: #000000; stroke-width: 1.5"/>
      </g>
     </g>
    </g>
    <g id="xtick_22">
     <g id="line2d_43">
      <g>
       <use xlink:href="#m4eb30c0a1f" x="280.290286" y="242.124" style="stroke: #000000; stroke-width: 1.5"/>
      </g>
     </g>
     <g id="line2d_44">
      <g>
       <use xlink:href="#me0e19189a2" x="280.290286" y="10.8" style="stroke: #000000; stroke-width: 1.5"/>
      </g>
     </g>
    </g>
    <g id="xtick_23">
     <g id="line2d_45">
      <g>
       <use xlink:href="#m4eb30c0a1f" x="291.391303" y="242.124" style="stroke: #000000; stroke-width: 1.5"/>
      </g>
     </g>
     <g id="line2d_46">
      <g>
       <use xlink:href="#me0e19189a2" x="291.391303" y="10.8" style="stroke: #000000; stroke-width: 1.5"/>
      </g>
     </g>
    </g>
    <g id="xtick_24">
     <g id="line2d_47">
      <g>
       <use xlink:href="#m4eb30c0a1f" x="313.593338" y="242.124" style="stroke: #000000; stroke-width: 1.5"/>
      </g>
     </g>
     <g id="line2d_48">
      <g>
       <use xlink:href="#me0e19189a2" x="313.593338" y="10.8" style="stroke: #000000; stroke-width: 1.5"/>
      </g>
     </g>
    </g>
    <g id="xtick_25">
     <g id="line2d_49">
      <g>
       <use xlink:href="#m4eb30c0a1f" x="324.694355" y="242.124" style="stroke: #000000; stroke-width: 1.5"/>
      </g>
     </g>
     <g id="line2d_50">
      <g>
       <use xlink:href="#me0e19189a2" x="324.694355" y="10.8" style="stroke: #000000; stroke-width: 1.5"/>
      </g>
     </g>
    </g>
    <g id="xtick_26">
     <g id="line2d_51">
      <g>
       <use xlink:href="#m4eb30c0a1f" x="335.795372" y="242.124" style="stroke: #000000; stroke-width: 1.5"/>
      </g>
     </g>
     <g id="line2d_52">
      <g>
       <use xlink:href="#me0e19189a2" x="335.795372" y="10.8" style="stroke: #000000; stroke-width: 1.5"/>
      </g>
     </g>
    </g>
    <g id="xtick_27">
     <g id="line2d_53">
      <g>
       <use xlink:href="#m4eb30c0a1f" x="346.89639" y="242.124" style="stroke: #000000; stroke-width: 1.5"/>
      </g>
     </g>
     <g id="line2d_54">
      <g>
       <use xlink:href="#me0e19189a2" x="346.89639" y="10.8" style="stroke: #000000; stroke-width: 1.5"/>
      </g>
     </g>
    </g>
    <g id="xtick_28">
     <g id="line2d_55">
      <g>
       <use xlink:href="#m4eb30c0a1f" x="369.098424" y="242.124" style="stroke: #000000; stroke-width: 1.5"/>
      </g>
     </g>
     <g id="line2d_56">
      <g>
       <use xlink:href="#me0e19189a2" x="369.098424" y="10.8" style="stroke: #000000; stroke-width: 1.5"/>
      </g>
     </g>
    </g>
    <g id="xtick_29">
     <g id="line2d_57">
      <g>
       <use xlink:href="#m4eb30c0a1f" x="380.199441" y="242.124" style="stroke: #000000; stroke-width: 1.5"/>
      </g>
     </g>
     <g id="line2d_58">
      <g>
       <use xlink:href="#me0e19189a2" x="380.199441" y="10.8" style="stroke: #000000; stroke-width: 1.5"/>
      </g>
     </g>
    </g>
    <g id="xtick_30">
     <g id="line2d_59">
      <g>
       <use xlink:href="#m4eb30c0a1f" x="391.300459" y="242.124" style="stroke: #000000; stroke-width: 1.5"/>
      </g>
     </g>
     <g id="line2d_60">
      <g>
       <use xlink:href="#me0e19189a2" x="391.300459" y="10.8" style="stroke: #000000; stroke-width: 1.5"/>
      </g>
     </g>
    </g>
    <g id="xtick_31">
     <g id="line2d_61">
      <g>
       <use xlink:href="#m4eb30c0a1f" x="402.401476" y="242.124" style="stroke: #000000; stroke-width: 1.5"/>
      </g>
     </g>
     <g id="line2d_62">
      <g>
       <use xlink:href="#me0e19189a2" x="402.401476" y="10.8" style="stroke: #000000; stroke-width: 1.5"/>
      </g>
     </g>
    </g>
    <g id="text_8">
     <!-- Distance [R$_\odot$] -->
     <g transform="translate(202.533343 270.355875) scale(0.12 -0.12)">
      <defs>
       <path id="DejaVuSans-44" d="M 1259 4147 
L 1259 519 
L 2022 519 
Q 2988 519 3436 956 
Q 3884 1394 3884 2338 
Q 3884 3275 3436 3711 
Q 2988 4147 2022 4147 
L 1259 4147 
z
M 628 4666 
L 1925 4666 
Q 3281 4666 3915 4102 
Q 4550 3538 4550 2338 
Q 4550 1131 3912 565 
Q 3275 0 1925 0 
L 628 0 
L 628 4666 
z
" transform="scale(0.015625)"/>
       <path id="DejaVuSans-69" d="M 603 3500 
L 1178 3500 
L 1178 0 
L 603 0 
L 603 3500 
z
M 603 4863 
L 1178 4863 
L 1178 4134 
L 603 4134 
L 603 4863 
z
" transform="scale(0.015625)"/>
       <path id="DejaVuSans-73" d="M 2834 3397 
L 2834 2853 
Q 2591 2978 2328 3040 
Q 2066 3103 1784 3103 
Q 1356 3103 1142 2972 
Q 928 2841 928 2578 
Q 928 2378 1081 2264 
Q 1234 2150 1697 2047 
L 1894 2003 
Q 2506 1872 2764 1633 
Q 3022 1394 3022 966 
Q 3022 478 2636 193 
Q 2250 -91 1575 -91 
Q 1294 -91 989 -36 
Q 684 19 347 128 
L 347 722 
Q 666 556 975 473 
Q 1284 391 1588 391 
Q 1994 391 2212 530 
Q 2431 669 2431 922 
Q 2431 1156 2273 1281 
Q 2116 1406 1581 1522 
L 1381 1569 
Q 847 1681 609 1914 
Q 372 2147 372 2553 
Q 372 3047 722 3315 
Q 1072 3584 1716 3584 
Q 2034 3584 2315 3537 
Q 2597 3491 2834 3397 
z
" transform="scale(0.015625)"/>
       <path id="DejaVuSans-74" d="M 1172 4494 
L 1172 3500 
L 2356 3500 
L 2356 3053 
L 1172 3053 
L 1172 1153 
Q 1172 725 1289 603 
Q 1406 481 1766 481 
L 2356 481 
L 2356 0 
L 1766 0 
Q 1100 0 847 248 
Q 594 497 594 1153 
L 594 3053 
L 172 3053 
L 172 3500 
L 594 3500 
L 594 4494 
L 1172 4494 
z
" transform="scale(0.015625)"/>
       <path id="DejaVuSans-61" d="M 2194 1759 
Q 1497 1759 1228 1600 
Q 959 1441 959 1056 
Q 959 750 1161 570 
Q 1363 391 1709 391 
Q 2188 391 2477 730 
Q 2766 1069 2766 1631 
L 2766 1759 
L 2194 1759 
z
M 3341 1997 
L 3341 0 
L 2766 0 
L 2766 531 
Q 2569 213 2275 61 
Q 1981 -91 1556 -91 
Q 1019 -91 701 211 
Q 384 513 384 1019 
Q 384 1609 779 1909 
Q 1175 2209 1959 2209 
L 2766 2209 
L 2766 2266 
Q 2766 2663 2505 2880 
Q 2244 3097 1772 3097 
Q 1472 3097 1187 3025 
Q 903 2953 641 2809 
L 641 3341 
Q 956 3463 1253 3523 
Q 1550 3584 1831 3584 
Q 2591 3584 2966 3190 
Q 3341 2797 3341 1997 
z
" transform="scale(0.015625)"/>
       <path id="DejaVuSans-6e" d="M 3513 2113 
L 3513 0 
L 2938 0 
L 2938 2094 
Q 2938 2591 2744 2837 
Q 2550 3084 2163 3084 
Q 1697 3084 1428 2787 
Q 1159 2491 1159 1978 
L 1159 0 
L 581 0 
L 581 3500 
L 1159 3500 
L 1159 2956 
Q 1366 3272 1645 3428 
Q 1925 3584 2291 3584 
Q 2894 3584 3203 3211 
Q 3513 2838 3513 2113 
z
" transform="scale(0.015625)"/>
       <path id="DejaVuSans-63" d="M 3122 3366 
L 3122 2828 
Q 2878 2963 2633 3030 
Q 2388 3097 2138 3097 
Q 1578 3097 1268 2742 
Q 959 2388 959 1747 
Q 959 1106 1268 751 
Q 1578 397 2138 397 
Q 2388 397 2633 464 
Q 2878 531 3122 666 
L 3122 134 
Q 2881 22 2623 -34 
Q 2366 -91 2075 -91 
Q 1284 -91 818 406 
Q 353 903 353 1747 
Q 353 2603 823 3093 
Q 1294 3584 2113 3584 
Q 2378 3584 2631 3529 
Q 2884 3475 3122 3366 
z
" transform="scale(0.015625)"/>
       <path id="DejaVuSans-65" d="M 3597 1894 
L 3597 1613 
L 953 1613 
Q 991 1019 1311 708 
Q 1631 397 2203 397 
Q 2534 397 2845 478 
Q 3156 559 3463 722 
L 3463 178 
Q 3153 47 2828 -22 
Q 2503 -91 2169 -91 
Q 1331 -91 842 396 
Q 353 884 353 1716 
Q 353 2575 817 3079 
Q 1281 3584 2069 3584 
Q 2775 3584 3186 3129 
Q 3597 2675 3597 1894 
z
M 3022 2063 
Q 3016 2534 2758 2815 
Q 2500 3097 2075 3097 
Q 1594 3097 1305 2825 
Q 1016 2553 972 2059 
L 3022 2063 
z
" transform="scale(0.015625)"/>
       <path id="DejaVuSans-20" transform="scale(0.015625)"/>
       <path id="DejaVuSans-5b" d="M 550 4863 
L 1875 4863 
L 1875 4416 
L 1125 4416 
L 1125 -397 
L 1875 -397 
L 1875 -844 
L 550 -844 
L 550 4863 
z
" transform="scale(0.015625)"/>
       <path id="DejaVuSans-52" d="M 2841 2188 
Q 3044 2119 3236 1894 
Q 3428 1669 3622 1275 
L 4263 0 
L 3584 0 
L 2988 1197 
Q 2756 1666 2539 1819 
Q 2322 1972 1947 1972 
L 1259 1972 
L 1259 0 
L 628 0 
L 628 4666 
L 2053 4666 
Q 2853 4666 3247 4331 
Q 3641 3997 3641 3322 
Q 3641 2881 3436 2590 
Q 3231 2300 2841 2188 
z
M 1259 4147 
L 1259 2491 
L 2053 2491 
Q 2509 2491 2742 2702 
Q 2975 2913 2975 3322 
Q 2975 3731 2742 3939 
Q 2509 4147 2053 4147 
L 1259 4147 
z
" transform="scale(0.015625)"/>
       <path id="DejaVuSans-2299" d="M 2350 2403 
L 3013 2403 
L 3013 1609 
L 2350 1609 
L 2350 2403 
z
M 3306 3522 
Q 3016 3644 2681 3644 
Q 2347 3644 2056 3522 
Q 1769 3400 1531 3163 
Q 1291 2922 1172 2634 
Q 1053 2347 1053 2006 
Q 1053 1675 1172 1387 
Q 1291 1100 1531 859 
Q 1769 622 2056 500 
Q 2347 378 2681 378 
Q 3016 378 3306 500 
Q 3594 622 3831 859 
Q 4072 1100 4190 1387 
Q 4309 1675 4309 2006 
Q 4309 2347 4190 2634 
Q 4072 2922 3831 3163 
Q 3594 3400 3306 3522 
z
M 1878 3956 
Q 2250 4113 2681 4113 
Q 3113 4113 3484 3956 
Q 3856 3800 4163 3494 
Q 4472 3184 4625 2813 
Q 4778 2444 4778 2006 
Q 4778 1578 4625 1206 
Q 4472 838 4163 528 
Q 3856 222 3484 65 
Q 3113 -91 2681 -91 
Q 2250 -91 1878 65 
Q 1506 222 1200 528 
Q 891 838 738 1206 
Q 584 1578 584 2006 
Q 584 2444 738 2813 
Q 891 3184 1200 3494 
Q 1506 3800 1878 3956 
z
" transform="scale(0.015625)"/>
       <path id="DejaVuSans-5d" d="M 1947 4863 
L 1947 -844 
L 622 -844 
L 622 -397 
L 1369 -397 
L 1369 4416 
L 622 4416 
L 622 4863 
L 1947 4863 
z
" transform="scale(0.015625)"/>
      </defs>
      <use xlink:href="#DejaVuSans-44" transform="translate(0 0.015625)"/>
      <use xlink:href="#DejaVuSans-69" transform="translate(77.001953 0.015625)"/>
      <use xlink:href="#DejaVuSans-73" transform="translate(104.785156 0.015625)"/>
      <use xlink:href="#DejaVuSans-74" transform="translate(156.884766 0.015625)"/>
      <use xlink:href="#DejaVuSans-61" transform="translate(196.09375 0.015625)"/>
      <use xlink:href="#DejaVuSans-6e" transform="translate(257.373047 0.015625)"/>
      <use xlink:href="#DejaVuSans-63" transform="translate(320.751953 0.015625)"/>
      <use xlink:href="#DejaVuSans-65" transform="translate(375.732422 0.015625)"/>
      <use xlink:href="#DejaVuSans-20" transform="translate(437.255859 0.015625)"/>
      <use xlink:href="#DejaVuSans-5b" transform="translate(469.042969 0.015625)"/>
      <use xlink:href="#DejaVuSans-52" transform="translate(504.931641 0.015625)"/>
      <use xlink:href="#DejaVuSans-2299" transform="translate(589.008789 -16.390625) scale(0.7)"/>
      <use xlink:href="#DejaVuSans-5d" transform="translate(664.033203 0.015625)"/>
     </g>
    </g>
   </g>
   <g id="matplotlib.axis_2">
    <g id="ytick_1">
     <g id="line2d_63">
      <defs>
       <path id="m6c8a6e5e96" d="M 0 0 
L 3.5 0 
" style="stroke: #000000; stroke-width: 1.5"/>
      </defs>
      <g>
       <use xlink:href="#m6c8a6e5e96" x="71.786518" y="188.416062" style="stroke: #000000; stroke-width: 1.5"/>
      </g>
     </g>
     <g id="line2d_64">
      <defs>
       <path id="me27da03244" d="M 0 0 
L -3.5 0 
" style="stroke: #000000; stroke-width: 1.5"/>
      </defs>
      <g>
       <use xlink:href="#me27da03244" x="417.760168" y="188.416062" style="stroke: #000000; stroke-width: 1.5"/>
      </g>
     </g>
     <g id="text_9">
      <!-- $\mathdefault{10^{-16}}$ -->
      <g transform="translate(34.806518 192.975125) scale(0.12 -0.12)">
       <defs>
        <path id="DejaVuSans-2212" d="M 678 2272 
L 4684 2272 
L 4684 1741 
L 678 1741 
L 678 2272 
z
" transform="scale(0.015625)"/>
       </defs>
       <use xlink:href="#DejaVuSans-31" transform="translate(0 0.765625)"/>
       <use xlink:href="#DejaVuSans-30" transform="translate(63.623047 0.765625)"/>
       <use xlink:href="#DejaVuSans-2212" transform="translate(128.203125 39.046875) scale(0.7)"/>
       <use xlink:href="#DejaVuSans-31" transform="translate(186.855469 39.046875) scale(0.7)"/>
       <use xlink:href="#DejaVuSans-36" transform="translate(231.391602 39.046875) scale(0.7)"/>
      </g>
     </g>
    </g>
    <g id="ytick_2">
     <g id="line2d_65">
      <g>
       <use xlink:href="#m6c8a6e5e96" x="71.786518" y="132.134424" style="stroke: #000000; stroke-width: 1.5"/>
      </g>
     </g>
     <g id="line2d_66">
      <g>
       <use xlink:href="#me27da03244" x="417.760168" y="132.134424" style="stroke: #000000; stroke-width: 1.5"/>
      </g>
     </g>
     <g id="text_10">
      <!-- $\mathdefault{10^{-15}}$ -->
      <g transform="translate(34.806518 136.693486) scale(0.12 -0.12)">
       <use xlink:href="#DejaVuSans-31" transform="translate(0 0.684375)"/>
       <use xlink:href="#DejaVuSans-30" transform="translate(63.623047 0.684375)"/>
       <use xlink:href="#DejaVuSans-2212" transform="translate(128.203125 38.965625) scale(0.7)"/>
       <use xlink:href="#DejaVuSans-31" transform="translate(186.855469 38.965625) scale(0.7)"/>
       <use xlink:href="#DejaVuSans-35" transform="translate(231.391602 38.965625) scale(0.7)"/>
      </g>
     </g>
    </g>
    <g id="ytick_3">
     <g id="line2d_67">
      <g>
       <use xlink:href="#m6c8a6e5e96" x="71.786518" y="75.852786" style="stroke: #000000; stroke-width: 1.5"/>
      </g>
     </g>
     <g id="line2d_68">
      <g>
       <use xlink:href="#me27da03244" x="417.760168" y="75.852786" style="stroke: #000000; stroke-width: 1.5"/>
      </g>
     </g>
     <g id="text_11">
      <!-- $\mathdefault{10^{-14}}$ -->
      <g transform="translate(34.806518 80.411848) scale(0.12 -0.12)">
       <use xlink:href="#DejaVuSans-31" transform="translate(0 0.684375)"/>
       <use xlink:href="#DejaVuSans-30" transform="translate(63.623047 0.684375)"/>
       <use xlink:href="#DejaVuSans-2212" transform="translate(128.203125 38.965625) scale(0.7)"/>
       <use xlink:href="#DejaVuSans-31" transform="translate(186.855469 38.965625) scale(0.7)"/>
       <use xlink:href="#DejaVuSans-34" transform="translate(231.391602 38.965625) scale(0.7)"/>
      </g>
     </g>
    </g>
    <g id="ytick_4">
     <g id="line2d_69">
      <g>
       <use xlink:href="#m6c8a6e5e96" x="71.786518" y="19.571148" style="stroke: #000000; stroke-width: 1.5"/>
      </g>
     </g>
     <g id="line2d_70">
      <g>
       <use xlink:href="#me27da03244" x="417.760168" y="19.571148" style="stroke: #000000; stroke-width: 1.5"/>
      </g>
     </g>
     <g id="text_12">
      <!-- $\mathdefault{10^{-13}}$ -->
      <g transform="translate(34.806518 24.13021) scale(0.12 -0.12)">
       <use xlink:href="#DejaVuSans-31" transform="translate(0 0.765625)"/>
       <use xlink:href="#DejaVuSans-30" transform="translate(63.623047 0.765625)"/>
       <use xlink:href="#DejaVuSans-2212" transform="translate(128.203125 39.046875) scale(0.7)"/>
       <use xlink:href="#DejaVuSans-31" transform="translate(186.855469 39.046875) scale(0.7)"/>
       <use xlink:href="#DejaVuSans-33" transform="translate(231.391602 39.046875) scale(0.7)"/>
      </g>
     </g>
    </g>
    <g id="ytick_5">
     <g id="line2d_71">
      <defs>
       <path id="mc07472a1b5" d="M 0 0 
L 2 0 
" style="stroke: #000000; stroke-width: 1.5"/>
      </defs>
      <g>
       <use xlink:href="#mc07472a1b5" x="71.786518" y="227.755239" style="stroke: #000000; stroke-width: 1.5"/>
      </g>
     </g>
     <g id="line2d_72">
      <defs>
       <path id="m86eaefd41b" d="M 0 0 
L -2 0 
" style="stroke: #000000; stroke-width: 1.5"/>
      </defs>
      <g>
       <use xlink:href="#m86eaefd41b" x="417.760168" y="227.755239" style="stroke: #000000; stroke-width: 1.5"/>
      </g>
     </g>
    </g>
    <g id="ytick_6">
     <g id="line2d_73">
      <g>
       <use xlink:href="#mc07472a1b5" x="71.786518" y="217.844534" style="stroke: #000000; stroke-width: 1.5"/>
      </g>
     </g>
     <g id="line2d_74">
      <g>
       <use xlink:href="#m86eaefd41b" x="417.760168" y="217.844534" style="stroke: #000000; stroke-width: 1.5"/>
      </g>
     </g>
    </g>
    <g id="ytick_7">
     <g id="line2d_75">
      <g>
       <use xlink:href="#mc07472a1b5" x="71.786518" y="210.812778" style="stroke: #000000; stroke-width: 1.5"/>
      </g>
     </g>
     <g id="line2d_76">
      <g>
       <use xlink:href="#m86eaefd41b" x="417.760168" y="210.812778" style="stroke: #000000; stroke-width: 1.5"/>
      </g>
     </g>
    </g>
    <g id="ytick_8">
     <g id="line2d_77">
      <g>
       <use xlink:href="#mc07472a1b5" x="71.786518" y="205.358523" style="stroke: #000000; stroke-width: 1.5"/>
      </g>
     </g>
     <g id="line2d_78">
      <g>
       <use xlink:href="#m86eaefd41b" x="417.760168" y="205.358523" style="stroke: #000000; stroke-width: 1.5"/>
      </g>
     </g>
    </g>
    <g id="ytick_9">
     <g id="line2d_79">
      <g>
       <use xlink:href="#mc07472a1b5" x="71.786518" y="200.902073" style="stroke: #000000; stroke-width: 1.5"/>
      </g>
     </g>
     <g id="line2d_80">
      <g>
       <use xlink:href="#m86eaefd41b" x="417.760168" y="200.902073" style="stroke: #000000; stroke-width: 1.5"/>
      </g>
     </g>
    </g>
    <g id="ytick_10">
     <g id="line2d_81">
      <g>
       <use xlink:href="#mc07472a1b5" x="71.786518" y="197.134198" style="stroke: #000000; stroke-width: 1.5"/>
      </g>
     </g>
     <g id="line2d_82">
      <g>
       <use xlink:href="#m86eaefd41b" x="417.760168" y="197.134198" style="stroke: #000000; stroke-width: 1.5"/>
      </g>
     </g>
    </g>
    <g id="ytick_11">
     <g id="line2d_83">
      <g>
       <use xlink:href="#mc07472a1b5" x="71.786518" y="193.870316" style="stroke: #000000; stroke-width: 1.5"/>
      </g>
     </g>
     <g id="line2d_84">
      <g>
       <use xlink:href="#m86eaefd41b" x="417.760168" y="193.870316" style="stroke: #000000; stroke-width: 1.5"/>
      </g>
     </g>
    </g>
    <g id="ytick_12">
     <g id="line2d_85">
      <g>
       <use xlink:href="#mc07472a1b5" x="71.786518" y="190.991369" style="stroke: #000000; stroke-width: 1.5"/>
      </g>
     </g>
     <g id="line2d_86">
      <g>
       <use xlink:href="#m86eaefd41b" x="417.760168" y="190.991369" style="stroke: #000000; stroke-width: 1.5"/>
      </g>
     </g>
    </g>
    <g id="ytick_13">
     <g id="line2d_87">
      <g>
       <use xlink:href="#mc07472a1b5" x="71.786518" y="171.473601" style="stroke: #000000; stroke-width: 1.5"/>
      </g>
     </g>
     <g id="line2d_88">
      <g>
       <use xlink:href="#m86eaefd41b" x="417.760168" y="171.473601" style="stroke: #000000; stroke-width: 1.5"/>
      </g>
     </g>
    </g>
    <g id="ytick_14">
     <g id="line2d_89">
      <g>
       <use xlink:href="#mc07472a1b5" x="71.786518" y="161.562896" style="stroke: #000000; stroke-width: 1.5"/>
      </g>
     </g>
     <g id="line2d_90">
      <g>
       <use xlink:href="#m86eaefd41b" x="417.760168" y="161.562896" style="stroke: #000000; stroke-width: 1.5"/>
      </g>
     </g>
    </g>
    <g id="ytick_15">
     <g id="line2d_91">
      <g>
       <use xlink:href="#mc07472a1b5" x="71.786518" y="154.531139" style="stroke: #000000; stroke-width: 1.5"/>
      </g>
     </g>
     <g id="line2d_92">
      <g>
       <use xlink:href="#m86eaefd41b" x="417.760168" y="154.531139" style="stroke: #000000; stroke-width: 1.5"/>
      </g>
     </g>
    </g>
    <g id="ytick_16">
     <g id="line2d_93">
      <g>
       <use xlink:href="#mc07472a1b5" x="71.786518" y="149.076885" style="stroke: #000000; stroke-width: 1.5"/>
      </g>
     </g>
     <g id="line2d_94">
      <g>
       <use xlink:href="#m86eaefd41b" x="417.760168" y="149.076885" style="stroke: #000000; stroke-width: 1.5"/>
      </g>
     </g>
    </g>
    <g id="ytick_17">
     <g id="line2d_95">
      <g>
       <use xlink:href="#mc07472a1b5" x="71.786518" y="144.620435" style="stroke: #000000; stroke-width: 1.5"/>
      </g>
     </g>
     <g id="line2d_96">
      <g>
       <use xlink:href="#m86eaefd41b" x="417.760168" y="144.620435" style="stroke: #000000; stroke-width: 1.5"/>
      </g>
     </g>
    </g>
    <g id="ytick_18">
     <g id="line2d_97">
      <g>
       <use xlink:href="#mc07472a1b5" x="71.786518" y="140.85256" style="stroke: #000000; stroke-width: 1.5"/>
      </g>
     </g>
     <g id="line2d_98">
      <g>
       <use xlink:href="#m86eaefd41b" x="417.760168" y="140.85256" style="stroke: #000000; stroke-width: 1.5"/>
      </g>
     </g>
    </g>
    <g id="ytick_19">
     <g id="line2d_99">
      <g>
       <use xlink:href="#mc07472a1b5" x="71.786518" y="137.588678" style="stroke: #000000; stroke-width: 1.5"/>
      </g>
     </g>
     <g id="line2d_100">
      <g>
       <use xlink:href="#m86eaefd41b" x="417.760168" y="137.588678" style="stroke: #000000; stroke-width: 1.5"/>
      </g>
     </g>
    </g>
    <g id="ytick_20">
     <g id="line2d_101">
      <g>
       <use xlink:href="#mc07472a1b5" x="71.786518" y="134.70973" style="stroke: #000000; stroke-width: 1.5"/>
      </g>
     </g>
     <g id="line2d_102">
      <g>
       <use xlink:href="#m86eaefd41b" x="417.760168" y="134.70973" style="stroke: #000000; stroke-width: 1.5"/>
      </g>
     </g>
    </g>
    <g id="ytick_21">
     <g id="line2d_103">
      <g>
       <use xlink:href="#mc07472a1b5" x="71.786518" y="115.191963" style="stroke: #000000; stroke-width: 1.5"/>
      </g>
     </g>
     <g id="line2d_104">
      <g>
       <use xlink:href="#m86eaefd41b" x="417.760168" y="115.191963" style="stroke: #000000; stroke-width: 1.5"/>
      </g>
     </g>
    </g>
    <g id="ytick_22">
     <g id="line2d_105">
      <g>
       <use xlink:href="#mc07472a1b5" x="71.786518" y="105.281258" style="stroke: #000000; stroke-width: 1.5"/>
      </g>
     </g>
     <g id="line2d_106">
      <g>
       <use xlink:href="#m86eaefd41b" x="417.760168" y="105.281258" style="stroke: #000000; stroke-width: 1.5"/>
      </g>
     </g>
    </g>
    <g id="ytick_23">
     <g id="line2d_107">
      <g>
       <use xlink:href="#mc07472a1b5" x="71.786518" y="98.249501" style="stroke: #000000; stroke-width: 1.5"/>
      </g>
     </g>
     <g id="line2d_108">
      <g>
       <use xlink:href="#m86eaefd41b" x="417.760168" y="98.249501" style="stroke: #000000; stroke-width: 1.5"/>
      </g>
     </g>
    </g>
    <g id="ytick_24">
     <g id="line2d_109">
      <g>
       <use xlink:href="#mc07472a1b5" x="71.786518" y="92.795247" style="stroke: #000000; stroke-width: 1.5"/>
      </g>
     </g>
     <g id="line2d_110">
      <g>
       <use xlink:href="#m86eaefd41b" x="417.760168" y="92.795247" style="stroke: #000000; stroke-width: 1.5"/>
      </g>
     </g>
    </g>
    <g id="ytick_25">
     <g id="line2d_111">
      <g>
       <use xlink:href="#mc07472a1b5" x="71.786518" y="88.338797" style="stroke: #000000; stroke-width: 1.5"/>
      </g>
     </g>
     <g id="line2d_112">
      <g>
       <use xlink:href="#m86eaefd41b" x="417.760168" y="88.338797" style="stroke: #000000; stroke-width: 1.5"/>
      </g>
     </g>
    </g>
    <g id="ytick_26">
     <g id="line2d_113">
      <g>
       <use xlink:href="#mc07472a1b5" x="71.786518" y="84.570922" style="stroke: #000000; stroke-width: 1.5"/>
      </g>
     </g>
     <g id="line2d_114">
      <g>
       <use xlink:href="#m86eaefd41b" x="417.760168" y="84.570922" style="stroke: #000000; stroke-width: 1.5"/>
      </g>
     </g>
    </g>
    <g id="ytick_27">
     <g id="line2d_115">
      <g>
       <use xlink:href="#mc07472a1b5" x="71.786518" y="81.30704" style="stroke: #000000; stroke-width: 1.5"/>
      </g>
     </g>
     <g id="line2d_116">
      <g>
       <use xlink:href="#m86eaefd41b" x="417.760168" y="81.30704" style="stroke: #000000; stroke-width: 1.5"/>
      </g>
     </g>
    </g>
    <g id="ytick_28">
     <g id="line2d_117">
      <g>
       <use xlink:href="#mc07472a1b5" x="71.786518" y="78.428092" style="stroke: #000000; stroke-width: 1.5"/>
      </g>
     </g>
     <g id="line2d_118">
      <g>
       <use xlink:href="#m86eaefd41b" x="417.760168" y="78.428092" style="stroke: #000000; stroke-width: 1.5"/>
      </g>
     </g>
    </g>
    <g id="ytick_29">
     <g id="line2d_119">
      <g>
       <use xlink:href="#mc07472a1b5" x="71.786518" y="58.910325" style="stroke: #000000; stroke-width: 1.5"/>
      </g>
     </g>
     <g id="line2d_120">
      <g>
       <use xlink:href="#m86eaefd41b" x="417.760168" y="58.910325" style="stroke: #000000; stroke-width: 1.5"/>
      </g>
     </g>
    </g>
    <g id="ytick_30">
     <g id="line2d_121">
      <g>
       <use xlink:href="#mc07472a1b5" x="71.786518" y="48.99962" style="stroke: #000000; stroke-width: 1.5"/>
      </g>
     </g>
     <g id="line2d_122">
      <g>
       <use xlink:href="#m86eaefd41b" x="417.760168" y="48.99962" style="stroke: #000000; stroke-width: 1.5"/>
      </g>
     </g>
    </g>
    <g id="ytick_31">
     <g id="line2d_123">
      <g>
       <use xlink:href="#mc07472a1b5" x="71.786518" y="41.967863" style="stroke: #000000; stroke-width: 1.5"/>
      </g>
     </g>
     <g id="line2d_124">
      <g>
       <use xlink:href="#m86eaefd41b" x="417.760168" y="41.967863" style="stroke: #000000; stroke-width: 1.5"/>
      </g>
     </g>
    </g>
    <g id="ytick_32">
     <g id="line2d_125">
      <g>
       <use xlink:href="#mc07472a1b5" x="71.786518" y="36.513609" style="stroke: #000000; stroke-width: 1.5"/>
      </g>
     </g>
     <g id="line2d_126">
      <g>
       <use xlink:href="#m86eaefd41b" x="417.760168" y="36.513609" style="stroke: #000000; stroke-width: 1.5"/>
      </g>
     </g>
    </g>
    <g id="ytick_33">
     <g id="line2d_127">
      <g>
       <use xlink:href="#mc07472a1b5" x="71.786518" y="32.057159" style="stroke: #000000; stroke-width: 1.5"/>
      </g>
     </g>
     <g id="line2d_128">
      <g>
       <use xlink:href="#m86eaefd41b" x="417.760168" y="32.057159" style="stroke: #000000; stroke-width: 1.5"/>
      </g>
     </g>
    </g>
    <g id="ytick_34">
     <g id="line2d_129">
      <g>
       <use xlink:href="#mc07472a1b5" x="71.786518" y="28.289284" style="stroke: #000000; stroke-width: 1.5"/>
      </g>
     </g>
     <g id="line2d_130">
      <g>
       <use xlink:href="#m86eaefd41b" x="417.760168" y="28.289284" style="stroke: #000000; stroke-width: 1.5"/>
      </g>
     </g>
    </g>
    <g id="ytick_35">
     <g id="line2d_131">
      <g>
       <use xlink:href="#mc07472a1b5" x="71.786518" y="25.025402" style="stroke: #000000; stroke-width: 1.5"/>
      </g>
     </g>
     <g id="line2d_132">
      <g>
       <use xlink:href="#m86eaefd41b" x="417.760168" y="25.025402" style="stroke: #000000; stroke-width: 1.5"/>
      </g>
     </g>
    </g>
    <g id="ytick_36">
     <g id="line2d_133">
      <g>
       <use xlink:href="#mc07472a1b5" x="71.786518" y="22.146454" style="stroke: #000000; stroke-width: 1.5"/>
      </g>
     </g>
     <g id="line2d_134">
      <g>
       <use xlink:href="#m86eaefd41b" x="417.760168" y="22.146454" style="stroke: #000000; stroke-width: 1.5"/>
      </g>
     </g>
    </g>
    <g id="text_13">
     <!-- $\dot{M}$ [M$_\odot$ yr$^{-1}$] -->
     <g transform="translate(28.286518 163.122) rotate(-90) scale(0.12 -0.12)">
      <defs>
       <path id="DejaVuSans-307" d="M -1894 4863 
L -1319 4863 
L -1319 4134 
L -1894 4134 
L -1894 4863 
z
M -1600 3584 
L -1600 3584 
z
" transform="scale(0.015625)"/>
       <path id="DejaVuSans-Oblique-4d" d="M 1081 4666 
L 2028 4666 
L 2572 1522 
L 4378 4666 
L 5350 4666 
L 4441 0 
L 3828 0 
L 4622 4091 
L 2791 897 
L 2175 897 
L 1581 4103 
L 788 0 
L 172 0 
L 1081 4666 
z
" transform="scale(0.015625)"/>
       <path id="DejaVuSans-4d" d="M 628 4666 
L 1569 4666 
L 2759 1491 
L 3956 4666 
L 4897 4666 
L 4897 0 
L 4281 0 
L 4281 4097 
L 3078 897 
L 2444 897 
L 1241 4097 
L 1241 0 
L 628 0 
L 628 4666 
z
" transform="scale(0.015625)"/>
       <path id="DejaVuSans-79" d="M 2059 -325 
Q 1816 -950 1584 -1140 
Q 1353 -1331 966 -1331 
L 506 -1331 
L 506 -850 
L 844 -850 
Q 1081 -850 1212 -737 
Q 1344 -625 1503 -206 
L 1606 56 
L 191 3500 
L 800 3500 
L 1894 763 
L 2988 3500 
L 3597 3500 
L 2059 -325 
z
" transform="scale(0.015625)"/>
       <path id="DejaVuSans-72" d="M 2631 2963 
Q 2534 3019 2420 3045 
Q 2306 3072 2169 3072 
Q 1681 3072 1420 2755 
Q 1159 2438 1159 1844 
L 1159 0 
L 581 0 
L 581 3500 
L 1159 3500 
L 1159 2956 
Q 1341 3275 1631 3429 
Q 1922 3584 2338 3584 
Q 2397 3584 2469 3576 
Q 2541 3569 2628 3553 
L 2631 2963 
z
" transform="scale(0.015625)"/>
      </defs>
      <use xlink:href="#DejaVuSans-307" transform="translate(79.163574 30.015625)"/>
      <use xlink:href="#DejaVuSans-Oblique-4d" transform="translate(0 0.609375)"/>
      <use xlink:href="#DejaVuSans-20" transform="translate(86.279297 0.609375)"/>
      <use xlink:href="#DejaVuSans-5b" transform="translate(118.066406 0.609375)"/>
      <use xlink:href="#DejaVuSans-4d" transform="translate(157.080078 0.609375)"/>
      <use xlink:href="#DejaVuSans-2299" transform="translate(257.954102 -15.796875) scale(0.7)"/>
      <use xlink:href="#DejaVuSans-20" transform="translate(332.978516 0.609375)"/>
      <use xlink:href="#DejaVuSans-79" transform="translate(364.765625 0.609375)"/>
      <use xlink:href="#DejaVuSans-72" transform="translate(423.945312 0.609375)"/>
      <use xlink:href="#DejaVuSans-2212" transform="translate(466.015625 38.890625) scale(0.7)"/>
      <use xlink:href="#DejaVuSans-31" transform="translate(524.667969 38.890625) scale(0.7)"/>
      <use xlink:href="#DejaVuSans-5d" transform="translate(571.938477 0.609375)"/>
     </g>
    </g>
   </g>
   <g id="patch_3">
    <path d="M 71.786518 242.124 
L 71.786518 10.8 
" style="fill: none; stroke: #000000; stroke-width: 1.5; stroke-linejoin: miter; stroke-linecap: square"/>
   </g>
   <g id="patch_4">
    <path d="M 417.760168 242.124 
L 417.760168 10.8 
" style="fill: none; stroke: #000000; stroke-width: 1.5; stroke-linejoin: miter; stroke-linecap: square"/>
   </g>
   <g id="patch_5">
    <path d="M 71.786518 242.124 
L 417.760168 242.124 
" style="fill: none; stroke: #000000; stroke-width: 1.5; stroke-linejoin: miter; stroke-linecap: square"/>
   </g>
   <g id="patch_6">
    <path d="M 71.786518 10.8 
L 417.760168 10.8 
" style="fill: none; stroke: #000000; stroke-width: 1.5; stroke-linejoin: miter; stroke-linecap: square"/>
   </g>
   <g id="PolyCollection_1">
    <path d="M 169.188713 39.938455 
L 169.188713 77.505763 
L 169.522422 79.463349 
L 170.09947 102.220811 
L 170.65683 66.433304 
L 171.216959 67.275537 
L 171.757686 61.816933 
L 172.329081 60.00163 
L 172.884744 58.815653 
L 173.440206 61.318721 
L 173.995612 63.466988 
L 174.551017 66.552693 
L 175.106264 66.283862 
L 175.661487 66.061093 
L 176.216801 69.952876 
L 176.771933 71.697544 
L 177.327071 68.539484 
L 177.882253 73.414573 
L 178.437411 77.03329 
L 178.992568 83.888249 
L 179.547663 87.83117 
L 180.102798 75.519442 
L 180.65792 75.069874 
L 181.212933 71.917396 
L 181.768002 74.838448 
L 182.323228 81.501417 
L 182.878297 80.652317 
L 183.433148 85.919945 
L 183.988321 96.817471 
L 184.543434 55569.547922 
L 185.098517 55569.547922 
L 185.653678 55569.547922 
L 186.208885 55569.547922 
L 186.763961 55569.547922 
L 187.31893 55569.547922 
L 187.874351 55569.547922 
L 188.428968 55569.547922 
L 188.984034 55569.547922 
L 189.538976 55569.547922 
L 190.094122 55569.547922 
L 190.649252 55569.547922 
L 191.204349 55569.547922 
L 191.759406 55569.547922 
L 192.314432 55569.547922 
L 192.869445 55569.547922 
L 193.50719 72.747945 
L 193.960589 87.209205 
L 194.526585 84.003859 
L 195.085335 111.599625 
L 195.641561 55569.547922 
L 196.197195 55569.547922 
L 196.752833 55569.547922 
L 197.308415 55569.547922 
L 197.86367 133.327359 
L 198.418851 132.578337 
L 198.974028 118.712678 
L 199.529129 109.575407 
L 200.084447 85.67874 
L 200.639587 83.837936 
L 201.194649 84.096655 
L 201.749871 82.192355 
L 202.305047 84.787935 
L 202.860217 83.534398 
L 203.41521 86.091653 
L 203.970367 83.935473 
L 204.525447 87.8433 
L 205.080433 87.692861 
L 205.63537 87.481137 
L 206.190441 73.234625 
L 206.745759 86.25462 
L 207.30076 78.884909 
L 207.855617 84.692085 
L 208.4109 78.907613 
L 208.965996 76.271156 
L 209.520915 80.201034 
L 210.075385 82.739001 
L 210.632694 87.522523 
L 211.185251 91.395602 
L 211.740775 82.998138 
L 212.293803 83.925867 
L 212.85032 77.691708 
L 213.406807 71.681985 
L 213.959725 75.45292 
L 214.516622 69.068053 
L 215.071782 67.5345 
L 215.628281 70.710208 
L 216.181849 87.642783 
L 216.736943 78.510313 
L 217.290726 68.312744 
L 217.847037 68.295777 
L 218.401992 73.58151 
L 218.957045 77.724081 
L 219.512389 82.091921 
L 220.067151 87.906931 
L 220.622272 111.630362 
L 221.181318 95.572675 
L 221.771074 55569.547922 
L 222.289054 55569.547922 
L 222.842332 55569.547922 
L 223.397662 55569.547922 
L 223.964186 159.637896 
L 224.493161 55569.547922 
L 225.061295 55569.547922 
L 225.616635 55569.547922 
L 226.177007 55569.547922 
L 226.737007 55569.547922 
L 227.279536 55569.547922 
L 227.832572 55569.547922 
L 228.435948 123.335025 
L 228.947779 55569.547922 
L 229.496557 55569.547922 
L 230.085202 55569.547922 
L 230.619843 55569.547922 
L 231.189199 55569.547922 
L 231.723694 55569.547922 
L 232.260232 55569.547922 
L 232.785185 55569.547922 
L 233.390828 55569.547922 
L 233.970363 55569.547922 
L 234.522465 55569.547922 
L 235.071735 55569.547922 
L 235.589112 55569.547922 
L 236.134199 55569.547922 
L 236.720795 55569.547922 
L 237.274683 55569.547922 
L 237.826389 55569.547922 
L 238.37789 55569.547922 
L 238.972016 55569.547922 
L 239.484801 55569.547922 
L 240.0619 55569.547922 
L 240.60572 55569.547922 
L 241.151051 55569.547922 
L 241.722058 55569.547922 
L 242.276321 55569.547922 
L 242.808303 55569.547922 
L 243.375983 203.777284 
L 243.924103 55569.547922 
L 244.486065 55569.547922 
L 245.040878 55569.547922 
L 245.598302 55569.547922 
L 246.162254 55569.547922 
L 246.702763 55569.547922 
L 247.254442 55569.547922 
L 247.820682 55569.547922 
L 248.369141 55569.547922 
L 248.930177 55569.547922 
L 249.480575 55569.547922 
L 250.037565 55569.547922 
L 250.574233 55569.547922 
L 251.113954 55569.547922 
L 251.74861 55569.547922 
L 252.261086 55569.547922 
L 252.803541 55569.547922 
L 253.369332 55569.547922 
L 253.946179 55569.547922 
L 254.471959 55569.547922 
L 255.031099 55569.547922 
L 255.592203 55569.547922 
L 256.139358 55569.547922 
L 256.688018 55569.547922 
L 257.261155 55569.547922 
L 257.806969 139.770233 
L 258.362798 147.780065 
L 258.917154 55569.547922 
L 259.474089 55569.547922 
L 260.04281 55569.547922 
L 260.589946 164.48819 
L 261.138784 55569.547922 
L 261.693702 55569.547922 
L 262.26305 55569.547922 
L 262.802578 55569.547922 
L 263.354063 55569.547922 
L 263.905399 55569.547922 
L 264.468986 55569.547922 
L 265.022033 55569.547922 
L 265.590489 55569.547922 
L 266.141799 55569.547922 
L 266.698667 55569.547922 
L 267.234312 55569.547922 
L 267.796463 55569.547922 
L 268.352022 55569.547922 
L 268.909068 55569.547922 
L 269.467922 55569.547922 
L 270.022804 55569.547922 
L 270.572836 55569.547922 
L 271.138904 125.34703 
L 271.70783 231.609273 
L 272.242785 55569.547922 
L 272.795344 145.273225 
L 273.35349 55569.547922 
L 273.876968 55569.547922 
L 274.476555 55569.547922 
L 275.007571 55569.547922 
L 275.563563 55569.547922 
L 276.122437 55569.547922 
L 276.691053 148.068649 
L 277.236627 98.053582 
L 277.772804 94.625163 
L 278.342887 80.045255 
L 278.902739 95.270731 
L 279.439656 100.28228 
L 280.013719 101.849895 
L 280.560105 110.697273 
L 281.124357 106.439699 
L 281.691635 94.979145 
L 282.227961 100.573514 
L 282.799887 55569.547922 
L 283.32952 105.173339 
L 283.903771 55569.547922 
L 284.464739 55569.547922 
L 284.994943 115.497546 
L 285.542503 55569.547922 
L 286.121758 55569.547922 
L 286.642776 55569.547922 
L 287.242273 96.95725 
L 287.782783 96.333168 
L 288.3796 100.731425 
L 288.896769 94.013508 
L 289.448021 95.378947 
L 290.000709 97.380223 
L 290.555779 94.295563 
L 291.11976 111.275861 
L 291.677041 130.438601 
L 292.230802 118.459046 
L 292.772416 55569.547922 
L 293.321046 113.012426 
L 293.897924 128.81769 
L 294.445797 169.254053 
L 294.999683 55569.547922 
L 295.55849 55569.547922 
L 296.106468 55569.547922 
L 296.656342 137.075609 
L 297.225766 55569.547922 
L 297.764203 220.696921 
L 298.333231 97.495064 
L 298.887068 101.902424 
L 299.4362 55569.547922 
L 299.998684 55569.547922 
L 300.547829 55569.547922 
L 301.094941 55569.547922 
L 301.663507 92.712072 
L 302.221819 55569.547922 
L 302.770579 55569.547922 
L 303.32853 104.992594 
L 303.876995 100.396835 
L 304.430548 90.181753 
L 304.991566 89.503033 
L 305.546573 97.573457 
L 306.103207 83.124874 
L 306.623719 87.499698 
L 307.231684 84.570987 
L 307.737249 83.332718 
L 308.329671 86.196744 
L 308.880771 112.67331 
L 309.422212 114.896191 
L 309.97766 105.924367 
L 310.535391 131.116709 
L 311.097166 119.989776 
L 311.669239 93.67885 
L 312.202676 91.843991 
L 312.773446 90.580953 
L 313.308609 89.874573 
L 313.864292 83.217937 
L 314.430937 86.743487 
L 314.966631 101.623491 
L 315.540063 120.958507 
L 316.084144 94.274168 
L 316.652741 81.0017 
L 317.202048 78.731513 
L 317.74216 87.480531 
L 318.336689 94.41305 
L 318.862989 86.858196 
L 319.420053 86.445175 
L 319.971896 94.553371 
L 320.526814 84.861407 
L 321.08574 83.086074 
L 321.638577 81.307765 
L 322.205771 79.860676 
L 322.748154 81.212533 
L 323.306044 81.843318 
L 323.859698 83.389166 
L 324.418747 87.934611 
L 324.967409 88.496248 
L 325.53219 104.232965 
L 326.085572 109.85154 
L 326.638849 113.647798 
L 327.186641 153.809946 
L 327.742378 113.175006 
L 328.292313 96.253708 
L 328.852031 110.031145 
L 329.414094 118.114651 
L 329.967546 55569.547922 
L 330.527941 55569.547922 
L 331.079765 55569.547922 
L 331.629592 55569.547922 
L 332.197224 55569.547922 
L 332.719565 55569.547922 
L 333.303751 55569.547922 
L 333.867145 55569.547922 
L 334.399888 55569.547922 
L 334.961502 55569.547922 
L 335.508113 55569.547922 
L 336.074485 169.119275 
L 336.634683 55569.547922 
L 337.183229 99.494824 
L 337.754875 55569.547922 
L 338.281003 55569.547922 
L 338.849167 55569.547922 
L 339.420003 55569.547922 
L 339.959861 139.238944 
L 340.510212 134.180751 
L 341.062225 169.754985 
L 341.629617 55569.547922 
L 342.179901 55569.547922 
L 342.741698 55569.547922 
L 343.289913 55569.547922 
L 343.847192 55569.547922 
L 344.412328 135.890542 
L 344.941736 114.841841 
L 345.520388 55569.547922 
L 346.053247 95.920707 
L 346.625312 152.28151 
L 347.164138 55569.547922 
L 347.731268 55569.547922 
L 348.290504 55569.547922 
L 348.833729 149.158406 
L 349.403711 145.723565 
L 349.941292 135.364686 
L 350.503463 55569.547922 
L 351.070598 152.458681 
L 351.617019 128.637076 
L 352.163677 97.799826 
L 352.718874 93.201825 
L 353.285218 101.230006 
L 353.83583 123.008974 
L 354.389337 112.280384 
L 354.939355 111.133241 
L 355.500343 103.758753 
L 356.047109 99.658141 
L 356.615349 87.643607 
L 357.17089 84.958886 
L 357.709384 80.929674 
L 358.287965 78.468847 
L 358.816704 82.019661 
L 359.406673 77.98294 
L 359.939986 76.455587 
L 360.48486 76.470305 
L 361.051137 77.292248 
L 361.592138 75.994618 
L 362.166481 66.856149 
L 362.725728 75.283379 
L 363.274163 72.399704 
L 363.827823 81.248728 
L 364.380886 84.683981 
L 364.93362 72.114105 
L 365.489694 68.304529 
L 366.046992 65.381201 
L 366.598371 63.576313 
L 367.162255 73.126035 
L 367.710702 71.81348 
L 368.266166 68.201731 
L 368.818954 74.30861 
L 369.378576 76.241761 
L 369.931474 78.325639 
L 370.480252 83.45868 
L 371.037937 82.811016 
L 371.595045 76.171197 
L 372.153998 74.503174 
L 372.702021 71.935891 
L 373.260554 69.277202 
L 373.824565 69.101174 
L 374.371501 76.170799 
L 374.921301 78.17274 
L 375.482158 76.088658 
L 376.027945 74.999379 
L 376.591596 76.37044 
L 377.147487 75.304431 
L 377.707442 75.356185 
L 378.248782 74.393769 
L 378.829879 76.585511 
L 379.341386 75.675774 
L 379.920738 86.693794 
L 380.476483 85.908923 
L 381.033523 84.74444 
L 381.586673 81.084611 
L 382.135394 84.162713 
L 382.701875 84.344208 
L 383.251149 83.677816 
L 383.808372 75.753309 
L 384.362721 76.318614 
L 384.916339 72.319526 
L 385.471125 80.047686 
L 386.027527 84.046764 
L 386.582621 89.483021 
L 387.140011 76.310605 
L 387.695489 84.4991 
L 388.254638 89.102232 
L 388.802207 78.859415 
L 389.333592 87.148816 
L 389.912984 89.350133 
L 390.468348 90.986949 
L 391.023143 88.795966 
L 391.574686 82.921537 
L 392.117274 78.764529 
L 392.689021 76.116835 
L 393.243487 82.174662 
L 393.798395 79.927479 
L 394.353024 79.047889 
L 394.908391 80.266104 
L 395.409899 65.692098 
L 396.018604 43.560074 
L 396.57345 44.134879 
L 397.128575 42.869159 
L 397.683978 47.73459 
L 398.238682 52.51505 
L 398.793421 46.741443 
L 399.348677 44.446816 
L 399.903957 51.946626 
L 400.459025 54.115295 
L 401.014121 52.536206 
L 401.569248 53.737211 
L 402.034093 54.233487 
L 402.034093 31.158369 
L 402.034093 31.158369 
L 401.569248 31.234648 
L 401.014121 31.437845 
L 400.459025 32.396838 
L 399.903957 31.334266 
L 399.348677 25.734094 
L 398.793421 25.225884 
L 398.238682 26.674984 
L 397.683978 25.138748 
L 397.128575 23.671118 
L 396.57345 23.491428 
L 396.018604 23.588012 
L 395.409899 25.770025 
L 394.908391 27.438838 
L 394.353024 27.721893 
L 393.798395 27.817637 
L 393.243487 28.364341 
L 392.689021 28.355114 
L 392.117274 27.443267 
L 391.574686 28.363085 
L 391.023143 29.144599 
L 390.468348 28.901777 
L 389.912984 29.340835 
L 389.333592 29.442124 
L 388.802207 32.316342 
L 388.254638 33.941128 
L 387.695489 33.850846 
L 387.140011 34.732776 
L 386.582621 33.426404 
L 386.027527 33.98681 
L 385.471125 34.436275 
L 384.916339 33.593193 
L 384.362721 33.425549 
L 383.808372 33.836973 
L 383.251149 36.185215 
L 382.701875 35.482966 
L 382.135394 34.476592 
L 381.586673 35.430742 
L 381.033523 34.360408 
L 380.476483 35.276705 
L 379.920738 36.451088 
L 379.341386 42.150713 
L 378.829879 36.946345 
L 378.248782 37.124952 
L 377.707442 35.876637 
L 377.147487 33.699433 
L 376.591596 33.782346 
L 376.027945 34.633324 
L 375.482158 33.732007 
L 374.921301 34.428079 
L 374.371501 33.445502 
L 373.824565 33.57388 
L 373.260554 34.344784 
L 372.702021 32.873772 
L 372.153998 33.546306 
L 371.595045 33.731911 
L 371.037937 32.521629 
L 370.480252 32.532739 
L 369.931474 33.0441 
L 369.378576 32.907987 
L 368.818954 32.756603 
L 368.266166 34.655111 
L 367.710702 32.61017 
L 367.162255 35.203416 
L 366.598371 35.620885 
L 366.046992 30.864695 
L 365.489694 30.53327 
L 364.93362 31.126549 
L 364.380886 32.52189 
L 363.827823 32.550844 
L 363.274163 33.351005 
L 362.725728 32.978385 
L 362.166481 38.607608 
L 361.592138 33.866809 
L 361.051137 34.566377 
L 360.48486 32.78702 
L 359.939986 33.67998 
L 359.406673 35.334064 
L 358.816704 32.983277 
L 358.287965 30.448988 
L 357.709384 29.275791 
L 357.17089 31.225151 
L 356.615349 29.596382 
L 356.047109 30.509719 
L 355.500343 29.250206 
L 354.939355 28.511587 
L 354.389337 29.838613 
L 353.83583 31.304167 
L 353.285218 30.941628 
L 352.718874 30.274647 
L 352.163677 28.182575 
L 351.617019 27.626296 
L 351.070598 28.551987 
L 350.503463 26.139208 
L 349.941292 25.33331 
L 349.403711 25.589711 
L 348.833729 24.79167 
L 348.290504 23.188707 
L 347.731268 23.971459 
L 347.164138 25.625589 
L 346.625312 26.969433 
L 346.053247 27.66315 
L 345.520388 25.130931 
L 344.941736 27.083675 
L 344.412328 25.703919 
L 343.847192 25.314904 
L 343.289913 22.207948 
L 342.741698 22.401146 
L 342.179901 26.729263 
L 341.629617 24.77009 
L 341.062225 26.267667 
L 340.510212 26.619504 
L 339.959861 28.301653 
L 339.420003 29.179053 
L 338.849167 31.817043 
L 338.281003 34.319215 
L 337.754875 33.159148 
L 337.183229 40.803512 
L 336.634683 37.412337 
L 336.074485 42.591678 
L 335.508113 37.18971 
L 334.961502 36.911336 
L 334.399888 38.07 
L 333.867145 38.645452 
L 333.303751 40.620343 
L 332.719565 38.641294 
L 332.197224 42.152681 
L 331.629592 41.408533 
L 331.079765 35.557944 
L 330.527941 38.971455 
L 329.967546 39.934071 
L 329.414094 44.375095 
L 328.852031 47.939296 
L 328.292313 50.202065 
L 327.742378 46.774307 
L 327.186641 39.370687 
L 326.638849 41.472402 
L 326.085572 42.793826 
L 325.53219 43.986798 
L 324.967409 47.603215 
L 324.418747 47.74021 
L 323.859698 46.281294 
L 323.306044 46.884217 
L 322.748154 46.605843 
L 322.205771 45.885307 
L 321.638577 44.108881 
L 321.08574 44.360729 
L 320.526814 43.130479 
L 319.971896 40.133184 
L 319.420053 44.906269 
L 318.862989 40.956065 
L 318.336689 38.828542 
L 317.74216 39.182611 
L 317.202048 42.648888 
L 316.652741 46.865059 
L 316.084144 44.384513 
L 315.540063 39.739209 
L 314.966631 37.847993 
L 314.430937 35.196862 
L 313.864292 36.265045 
L 313.308609 38.422053 
L 312.773446 37.070245 
L 312.202676 36.636565 
L 311.669239 35.998595 
L 311.097166 39.77585 
L 310.535391 40.868652 
L 309.97766 45.805839 
L 309.422212 37.223923 
L 308.880771 40.909995 
L 308.329671 41.716872 
L 307.737249 47.081136 
L 307.231684 46.470188 
L 306.623719 44.205059 
L 306.103207 46.202786 
L 305.546573 40.11089 
L 304.991566 41.238074 
L 304.430548 39.360648 
L 303.876995 37.002185 
L 303.32853 43.043132 
L 302.770579 38.860767 
L 302.221819 38.04034 
L 301.663507 48.347488 
L 301.094941 37.921065 
L 300.547829 37.252232 
L 299.998684 39.807073 
L 299.4362 40.154814 
L 298.887068 48.597005 
L 298.333231 50.335685 
L 297.764203 43.173927 
L 297.225766 43.484966 
L 296.656342 47.125002 
L 296.106468 40.717721 
L 295.55849 38.67504 
L 294.999683 39.847086 
L 294.445797 40.587592 
L 293.897924 37.069048 
L 293.321046 37.956592 
L 292.772416 34.919101 
L 292.230802 39.065354 
L 291.677041 35.032939 
L 291.11976 36.506096 
L 290.555779 38.912141 
L 290.000709 36.520059 
L 289.448021 37.193774 
L 288.896769 37.804767 
L 288.3796 38.951394 
L 287.782783 43.043753 
L 287.242273 44.610222 
L 286.642776 35.772942 
L 286.121758 35.330433 
L 285.542503 28.165769 
L 284.994943 36.301661 
L 284.464739 32.866825 
L 283.903771 44.350424 
L 283.32952 47.217603 
L 282.799887 43.168265 
L 282.227961 43.821595 
L 281.691635 44.709637 
L 281.124357 46.363705 
L 280.560105 46.973972 
L 280.013719 47.927114 
L 279.439656 46.465092 
L 278.902739 46.789085 
L 278.342887 45.628118 
L 277.772804 44.238506 
L 277.236627 42.874918 
L 276.691053 46.305428 
L 276.122437 47.275244 
L 275.563563 47.148733 
L 275.007571 47.423084 
L 274.476555 48.901934 
L 273.876968 47.181363 
L 273.35349 46.086686 
L 272.795344 46.716041 
L 272.242785 44.409779 
L 271.70783 44.325404 
L 271.138904 42.027254 
L 270.572836 41.235488 
L 270.022804 42.778842 
L 269.467922 43.711899 
L 268.909068 44.951731 
L 268.352022 42.006906 
L 267.796463 40.171185 
L 267.234312 40.456485 
L 266.698667 40.602078 
L 266.141799 41.370692 
L 265.590489 39.767496 
L 265.022033 45.617946 
L 264.468986 44.33163 
L 263.905399 41.613963 
L 263.354063 43.27874 
L 262.802578 43.747023 
L 262.26305 37.39352 
L 261.693702 41.770437 
L 261.138784 44.93884 
L 260.589946 45.083457 
L 260.04281 44.166047 
L 259.474089 38.96799 
L 258.917154 42.562707 
L 258.362798 44.87738 
L 257.806969 46.450494 
L 257.261155 44.30383 
L 256.688018 42.530358 
L 256.139358 43.367202 
L 255.592203 43.43741 
L 255.031099 39.505982 
L 254.471959 42.897413 
L 253.946179 38.245618 
L 253.369332 31.462523 
L 252.803541 39.698919 
L 252.261086 41.302755 
L 251.74861 41.476603 
L 251.113954 30.717845 
L 250.574233 31.704137 
L 250.037565 36.887429 
L 249.480575 36.321935 
L 248.930177 37.053883 
L 248.369141 37.433639 
L 247.820682 37.272489 
L 247.254442 38.584696 
L 246.702763 39.308743 
L 246.162254 40.512244 
L 245.598302 39.464894 
L 245.040878 39.734951 
L 244.486065 38.372703 
L 243.924103 39.14223 
L 243.375983 44.001413 
L 242.808303 43.455666 
L 242.276321 43.409517 
L 241.722058 41.635683 
L 241.151051 44.375252 
L 240.60572 45.215955 
L 240.0619 42.49039 
L 239.484801 42.446901 
L 238.972016 41.586395 
L 238.37789 42.513806 
L 237.826389 38.995904 
L 237.274683 39.381551 
L 236.720795 37.80687 
L 236.134199 42.192688 
L 235.589112 43.816035 
L 235.071735 44.369128 
L 234.522465 45.038121 
L 233.970363 43.640093 
L 233.390828 42.051726 
L 232.785185 40.502896 
L 232.260232 43.932249 
L 231.723694 46.080229 
L 231.189199 42.399096 
L 230.619843 41.25937 
L 230.085202 42.443219 
L 229.496557 39.708761 
L 228.947779 41.549014 
L 228.435948 37.478611 
L 227.832572 38.881619 
L 227.279536 40.117757 
L 226.737007 40.680672 
L 226.177007 40.583368 
L 225.616635 41.630859 
L 225.061295 42.065518 
L 224.493161 37.26125 
L 223.964186 40.19835 
L 223.397662 41.167889 
L 222.842332 41.153586 
L 222.289054 41.613756 
L 221.771074 38.786897 
L 221.181318 35.429361 
L 220.622272 35.494317 
L 220.067151 37.567164 
L 219.512389 37.265521 
L 218.957045 35.367147 
L 218.401992 36.49997 
L 217.847037 36.716912 
L 217.290726 38.548237 
L 216.736943 38.436604 
L 216.181849 42.816763 
L 215.628281 37.629152 
L 215.071782 38.533081 
L 214.516622 36.885138 
L 213.959725 37.517913 
L 213.406807 40.703959 
L 212.85032 38.254299 
L 212.293803 37.538311 
L 211.740775 40.755775 
L 211.185251 38.682788 
L 210.632694 38.825511 
L 210.075385 38.659577 
L 209.520915 38.112885 
L 208.965996 35.516901 
L 208.4109 33.731496 
L 207.855617 33.931337 
L 207.30076 33.676786 
L 206.745759 33.629865 
L 206.190441 35.30366 
L 205.63537 36.441875 
L 205.080433 35.927594 
L 204.525447 36.865543 
L 203.970367 37.897158 
L 203.41521 37.335589 
L 202.860217 38.333765 
L 202.305047 38.878002 
L 201.749871 39.687467 
L 201.194649 41.062844 
L 200.639587 39.632175 
L 200.084447 40.884839 
L 199.529129 41.661232 
L 198.974028 39.49226 
L 198.418851 41.551649 
L 197.86367 40.847377 
L 197.308415 37.820222 
L 196.752833 36.460952 
L 196.197195 36.874449 
L 195.641561 39.140717 
L 195.085335 41.475011 
L 194.526585 42.057419 
L 193.960589 32.205386 
L 193.50719 36.856948 
L 192.869445 28.652933 
L 192.314432 26.395477 
L 191.759406 25.599337 
L 191.204349 24.383955 
L 190.649252 21.314727 
L 190.094122 24.527462 
L 189.538976 26.778189 
L 188.984034 25.98423 
L 188.428968 28.980442 
L 187.874351 34.571081 
L 187.31893 29.491121 
L 186.763961 26.333702 
L 186.208885 26.926063 
L 185.653678 28.650981 
L 185.098517 25.902535 
L 184.543434 26.18086 
L 183.988321 28.583133 
L 183.433148 35.123175 
L 182.878297 36.27064 
L 182.323228 36.126691 
L 181.768002 37.917217 
L 181.212933 37.867645 
L 180.65792 37.898419 
L 180.102798 34.549788 
L 179.547663 34.740677 
L 178.992568 39.786578 
L 178.437411 41.283505 
L 177.882253 43.799573 
L 177.327071 44.656823 
L 176.771933 43.709484 
L 176.216801 42.169091 
L 175.661487 43.583376 
L 175.106264 41.197654 
L 174.551017 39.655655 
L 173.995612 37.98271 
L 173.440206 38.198851 
L 172.884744 39.365416 
L 172.329081 37.908002 
L 171.757686 34.687477 
L 171.216959 35.804745 
L 170.65683 30.931038 
L 170.09947 38.337869 
L 169.522422 44.600291 
L 169.188713 39.938455 
z
" clip-path="url(#p41a5493635)" style="fill: #add8e6; stroke: #add8e6"/>
   </g>
   <g id="line2d_135">
    <path d="M 169.188713 52.12009 
L 169.522422 56.281019 
L 170.09947 53.551918 
L 170.65683 42.734265 
L 171.216959 46.790674 
L 171.757686 44.666962 
L 172.329081 46.539158 
L 172.884744 47.204844 
L 173.440206 47.121429 
L 173.995612 47.543939 
L 174.551017 49.577321 
L 175.106264 50.654501 
L 175.661487 52.324628 
L 176.216801 52.30915 
L 176.771933 53.89901 
L 177.327071 53.790378 
L 177.882253 54.372035 
L 178.437411 53.133475 
L 178.992568 53.004651 
L 179.547663 49.045545 
L 180.102798 47.300104 
L 180.65792 50.009528 
L 181.212933 49.388729 
L 181.768002 49.98326 
L 182.323228 49.520712 
L 182.878297 49.528092 
L 183.433148 49.183285 
L 183.988321 44.070839 
L 184.543434 43.311373 
L 185.098517 43.599224 
L 185.653678 46.362367 
L 186.208885 45.463728 
L 186.763961 44.074021 
L 187.31893 46.546209 
L 187.874351 52.125313 
L 188.984034 44.893985 
L 189.538976 45.039304 
L 190.649252 41.099689 
L 191.204349 44.326734 
L 191.759406 45.54458 
L 192.314432 44.787497 
L 192.869445 46.223175 
L 193.50719 48.733414 
L 193.960589 46.699234 
L 194.526585 54.959116 
L 195.085335 57.068048 
L 195.641561 56.799062 
L 196.197195 55.375077 
L 196.752833 54.412743 
L 197.308415 55.529529 
L 197.86367 57.240178 
L 198.418851 57.911176 
L 198.974028 55.496684 
L 199.529129 57.130324 
L 200.084447 54.199564 
L 200.639587 52.864932 
L 201.194649 54.127135 
L 201.749871 52.673436 
L 202.305047 52.343664 
L 203.41521 51.160095 
L 203.970367 51.379803 
L 204.525447 50.945719 
L 205.080433 50.093558 
L 205.63537 50.52884 
L 206.190441 47.549263 
L 206.745759 47.886683 
L 207.30076 47.048228 
L 207.855617 47.987437 
L 208.4109 47.098585 
L 208.965996 48.233143 
L 209.520915 51.036121 
L 210.632694 52.642938 
L 211.185251 52.948754 
L 211.740775 53.702331 
L 212.293803 51.066766 
L 212.85032 50.756654 
L 213.406807 51.582472 
L 214.516622 48.02333 
L 215.071782 48.963408 
L 215.628281 48.954457 
L 216.181849 56.135915 
L 216.736943 51.043514 
L 217.290726 49.154917 
L 217.847037 47.726174 
L 218.401992 48.594928 
L 218.957045 48.330948 
L 219.512389 50.584726 
L 220.067151 51.576015 
L 220.622272 51.375284 
L 221.181318 50.369085 
L 221.771074 56.160474 
L 222.289054 59.910111 
L 222.842332 58.816772 
L 223.397662 58.843013 
L 223.964186 56.957013 
L 224.493161 54.455874 
L 225.061295 59.623603 
L 225.616635 59.229022 
L 226.177007 57.984572 
L 227.279536 58.06362 
L 227.832572 56.723452 
L 228.435948 53.702822 
L 228.947779 59.80236 
L 229.496557 58.064569 
L 230.085202 60.478578 
L 230.619843 59.742348 
L 231.189199 60.64575 
L 231.723694 63.722607 
L 232.260232 61.716183 
L 232.785185 58.001823 
L 233.390828 60.774422 
L 234.522465 62.162112 
L 235.071735 62.471426 
L 235.589112 62.009385 
L 236.134199 60.08515 
L 236.720795 56.166527 
L 237.274683 58.218904 
L 237.826389 58.133971 
L 238.37789 61.562831 
L 238.972016 61.584991 
L 239.484801 62.006723 
L 240.0619 60.728673 
L 240.60572 62.178812 
L 241.151051 62.067698 
L 241.722058 59.950472 
L 242.276321 61.396364 
L 242.808303 61.080225 
L 243.375983 60.908477 
L 244.486065 58.470596 
L 245.040878 58.42301 
L 245.598302 57.489082 
L 246.162254 58.079896 
L 247.820682 57.444493 
L 248.369141 57.757427 
L 248.930177 57.913811 
L 249.480575 57.195969 
L 250.037565 57.528222 
L 250.574233 53.535564 
L 251.113954 52.249559 
L 251.74861 60.430182 
L 252.261086 62.502034 
L 252.803541 60.71633 
L 253.369332 53.958055 
L 253.946179 58.704082 
L 254.471959 61.766523 
L 255.031099 59.819588 
L 255.592203 62.629769 
L 256.139358 61.607958 
L 256.688018 61.502619 
L 257.261155 61.689558 
L 257.806969 62.861658 
L 258.362798 61.459599 
L 258.917154 59.67713 
L 259.474089 56.363003 
L 260.04281 61.388205 
L 260.589946 61.841859 
L 261.138784 63.853989 
L 261.693702 61.994398 
L 262.26305 57.777841 
L 262.802578 61.909925 
L 263.905399 59.143933 
L 264.468986 62.108492 
L 265.022033 62.713383 
L 265.590489 58.356491 
L 266.141799 59.822506 
L 266.698667 59.706605 
L 267.234312 59.466723 
L 267.796463 58.947806 
L 268.909068 62.874502 
L 269.467922 62.366356 
L 270.572836 58.361076 
L 271.138904 58.174185 
L 271.70783 61.256372 
L 272.242785 62.790995 
L 273.35349 63.704809 
L 274.476555 66.797769 
L 275.563563 65.445633 
L 276.122437 65.511315 
L 276.691053 62.870588 
L 277.236627 57.385379 
L 277.772804 58.252656 
L 278.342887 57.221845 
L 278.902739 60.580564 
L 279.439656 60.84331 
L 280.013719 62.315828 
L 280.560105 62.177089 
L 281.124357 61.298126 
L 281.691635 58.710532 
L 282.227961 58.476789 
L 282.799887 60.118947 
L 283.32952 61.977956 
L 283.903771 62.442176 
L 284.464739 50.968037 
L 284.994943 52.305162 
L 285.542503 45.482151 
L 286.121758 52.570709 
L 286.642776 52.747254 
L 287.242273 58.837994 
L 287.782783 57.368895 
L 288.3796 54.015979 
L 288.896769 52.410944 
L 290.000709 51.515421 
L 290.555779 53.441921 
L 291.11976 52.327417 
L 291.677041 51.487132 
L 292.230802 55.076281 
L 292.772416 51.900808 
L 293.321046 53.790666 
L 293.897924 53.445346 
L 294.445797 57.403896 
L 294.999683 57.385243 
L 295.55849 56.08992 
L 296.106468 57.801431 
L 296.656342 63.458617 
L 297.225766 60.922215 
L 297.764203 60.099256 
L 298.333231 63.963382 
L 298.887068 62.923771 
L 299.4362 57.799205 
L 299.998684 56.837302 
L 300.547829 54.584472 
L 301.094941 55.295269 
L 301.663507 61.602548 
L 302.221819 55.583627 
L 302.770579 56.392648 
L 303.32853 58.120205 
L 303.876995 52.182587 
L 304.430548 53.423463 
L 304.991566 55.003243 
L 305.546573 54.828734 
L 306.103207 58.268983 
L 306.623719 57.307444 
L 307.231684 58.745396 
L 307.737249 59.024697 
L 308.329671 54.988043 
L 308.880771 56.588311 
L 309.422212 53.168249 
L 309.97766 60.743612 
L 310.535391 57.209541 
L 311.097166 55.816957 
L 311.669239 50.7353 
L 312.202676 51.149749 
L 312.773446 51.417767 
L 313.308609 52.554241 
L 313.864292 49.866459 
L 314.430937 49.339254 
L 314.966631 53.054692 
L 316.084144 58.34204 
L 316.652741 58.403403 
L 317.202048 54.561111 
L 317.74216 52.951795 
L 318.336689 53.377151 
L 318.862989 54.420692 
L 319.420053 57.745427 
L 319.971896 54.570793 
L 320.526814 55.999214 
L 321.08574 56.743358 
L 321.638577 56.224907 
L 322.205771 57.391576 
L 322.748154 58.236709 
L 323.306044 58.583517 
L 323.859698 58.380987 
L 324.418747 60.366696 
L 324.967409 60.341439 
L 325.53219 58.934598 
L 326.085572 58.211982 
L 327.186641 56.08782 
L 327.742378 62.152236 
L 328.292313 63.686469 
L 328.852031 63.026803 
L 329.967546 57.31749 
L 330.527941 56.742398 
L 331.079765 54.040819 
L 331.629592 58.582102 
L 332.197224 59.979382 
L 332.719565 56.191551 
L 333.303751 58.130246 
L 333.867145 56.258389 
L 334.399888 56.311614 
L 334.961502 54.865062 
L 335.508113 55.240097 
L 336.074485 59.396478 
L 336.634683 54.380973 
L 337.183229 55.62583 
L 337.754875 50.245972 
L 338.281003 53.0346 
L 338.849167 51.02725 
L 339.420003 47.403401 
L 339.959861 44.984259 
L 340.510212 43.263856 
L 341.062225 43.141249 
L 341.629617 42.261214 
L 342.179901 44.641257 
L 342.741698 40.491864 
L 343.289913 40.430649 
L 343.847192 43.25333 
L 344.412328 42.378465 
L 344.941736 43.360925 
L 345.520388 42.280987 
L 346.053247 43.152197 
L 347.164138 44.2896 
L 347.731268 41.187803 
L 348.290504 40.550602 
L 348.833729 41.583785 
L 349.403711 42.353503 
L 349.941292 42.006159 
L 351.070598 45.341254 
L 351.617019 44.179754 
L 352.163677 43.748091 
L 352.718874 45.422244 
L 353.83583 47.67946 
L 354.389337 45.956934 
L 354.939355 44.63585 
L 355.500343 45.059757 
L 356.047109 46.04932 
L 356.615349 44.364536 
L 357.17089 45.595045 
L 357.709384 43.429769 
L 358.287965 44.184148 
L 358.816704 46.841186 
L 359.406673 48.341497 
L 359.939986 46.706217 
L 360.48486 45.945526 
L 361.051137 47.585245 
L 361.592138 46.796055 
L 362.166481 48.859759 
L 362.725728 45.934377 
L 363.274163 45.788363 
L 363.827823 46.368376 
L 364.380886 46.730156 
L 364.93362 43.879685 
L 365.489694 42.750877 
L 366.046992 42.47792 
L 366.598371 45.80253 
L 367.162255 47.447559 
L 367.710702 45.073484 
L 368.266166 46.075282 
L 368.818954 45.597786 
L 369.931474 46.425508 
L 370.480252 46.607184 
L 371.037937 46.524777 
L 371.595045 46.708065 
L 372.153998 46.294606 
L 372.702021 45.313388 
L 373.260554 46.03893 
L 373.824565 45.381851 
L 374.921301 47.595378 
L 375.482158 46.695766 
L 376.027945 47.287513 
L 376.591596 46.780732 
L 377.147487 46.548793 
L 377.707442 48.385988 
L 378.248782 49.253495 
L 378.829879 49.482099 
L 379.341386 53.566522 
L 379.920738 50.448943 
L 381.033523 48.374261 
L 381.586673 48.862297 
L 382.135394 48.410635 
L 382.701875 49.320045 
L 383.251149 49.854921 
L 383.808372 46.73408 
L 384.362721 46.469139 
L 384.916339 45.97599 
L 385.471125 47.862145 
L 386.582621 48.018675 
L 387.140011 47.577945 
L 387.695489 47.894391 
L 388.254638 48.449925 
L 388.802207 45.865014 
L 389.333592 44.181109 
L 389.912984 44.26999 
L 390.468348 43.988796 
L 391.023143 44.045261 
L 392.117274 41.561166 
L 392.689021 42.058383 
L 393.243487 42.741875 
L 393.798395 42.020368 
L 394.908391 41.71665 
L 395.409899 38.352225 
L 396.018604 31.588504 
L 396.57345 31.695669 
L 397.128575 31.43185 
L 398.238682 36.32845 
L 398.793421 33.689003 
L 399.348677 33.341809 
L 399.903957 39.529157 
L 400.459025 40.919258 
L 401.014121 39.777933 
L 402.034093 40.068421 
L 402.034093 40.068421 
" clip-path="url(#p41a5493635)" style="fill: none; stroke: #1f77b4; stroke-width: 1.5; stroke-linecap: square"/>
   </g>
   <g id="line2d_136">
    <path d="M 88.178978 289 
L 88.1795 158.94905 
L 88.624211 131.747 
L 89.291197 111.068399 
L 89.957386 95.349277 
L 90.846967 80.92469 
L 91.513156 73.293276 
L 92.180142 67.579092 
L 93.068926 62.001909 
L 93.957709 57.95794 
L 94.845695 54.854286 
L 95.957073 51.914953 
L 97.067654 49.68125 
L 98.400829 47.668195 
L 100.177598 45.694487 
L 101.066381 44.963948 
L 101.955165 44.314704 
L 103.954529 43.126826 
L 107.063675 41.885137 
L 108.175054 41.579182 
L 110.17362 41.083276 
L 111.062403 40.933916 
L 112.839172 40.62367 
L 114.394144 40.394822 
L 115.282928 40.26829 
L 115.949116 40.219326 
L 118.392872 39.988451 
L 119.725249 39.914162 
L 120.614033 39.816787 
L 121.280222 39.781193 
L 123.056991 39.683758 
L 128.609893 39.47408 
L 129.498676 39.487797 
L 131.275445 39.407486 
L 131.941634 39.433442 
L 136.384754 39.370071 
L 137.938928 39.370364 
L 138.38332 39.354012 
L 139.4939 39.35723 
L 140.160089 39.324557 
L 141.270669 39.361395 
L 142.159453 39.326464 
L 143.048236 39.359377 
L 144.380614 39.318964 
L 145.046802 39.33694 
L 146.824369 39.319331 
L 147.490558 39.359272 
L 151.710285 39.381756 
L 154.598432 39.401051 
L 155.042026 39.372713 
L 157.04139 39.410769 
L 157.485782 39.393147 
L 159.040754 39.429861 
L 159.706943 39.388515 
L 161.036926 39.430836 
L 161.707104 39.397959 
L 163.039482 39.461335 
L 163.925074 39.419302 
L 165.034059 39.472803 
L 165.927629 39.439747 
L 166.813221 39.474096 
L 167.706792 39.45286 
L 168.145598 39.47677 
L 169.039169 39.464414 
L 169.477976 39.492637 
L 170.586961 39.478092 
L 171.480531 39.536668 
L 173.259694 39.504506 
L 173.698501 39.54497 
L 175.924448 39.52375 
L 176.363255 39.571274 
L 180.144973 39.57218 
L 210.574238 39.844405 
L 211.236438 39.815807 
L 212.568815 39.873174 
L 213.238993 39.845383 
L 214.347978 39.88058 
L 215.010178 39.859566 
L 215.680355 39.893138 
L 216.565948 39.849027 
L 217.236125 39.885371 
L 217.898325 39.869443 
L 218.568503 39.908112 
L 219.454095 39.870661 
L 220.124273 39.912585 
L 221.009865 39.878607 
L 221.903435 39.900099 
L 223.235813 39.882737 
L 223.898012 39.933004 
L 225.006997 39.886967 
L 225.900567 39.917006 
L 227.232945 39.912201 
L 228.118537 39.950041 
L 229.227522 39.914733 
L 230.121092 39.953902 
L 231.892276 39.929446 
L 232.785847 39.973757 
L 234.118224 39.933942 
L 235.003816 39.984935 
L 236.559586 39.935452 
L 237.445179 39.990832 
L 239.000949 39.949528 
L 239.671126 39.964725 
L 240.780111 39.955899 
L 241.442311 39.975804 
L 242.559274 39.968296 
L 242.998081 40.002707 
L 244.553851 39.977813 
L 245.224029 39.999983 
L 246.779799 39.981358 
L 247.218605 40.019121 
L 248.997768 39.996572 
L 249.667946 40.023988 
L 252.9949 40.009811 
L 253.665078 40.041718 
L 257.66221 40.03042 
L 258.32441 40.069507 
L 261.659342 40.044028 
L 262.321542 40.087134 
L 266.765459 40.066232 
L 267.435637 40.112136 
L 276.100079 40.106416 
L 302.085427 40.252631 
L 302.085427 40.252631 
" clip-path="url(#p41a5493635)" style="fill: none; stroke: #000000; stroke-width: 2.5; stroke-linecap: square"/>
   </g>
   <g id="line2d_137">
    <path d="M 87.512593 53.716426 
L 87.734869 52.74526 
L 88.1795 52.789716 
L 88.624211 53.68947 
L 89.512994 55.484639 
L 90.179981 56.602291 
L 91.068764 57.74998 
L 91.957548 58.633537 
L 92.846331 59.211847 
L 93.735115 59.789504 
L 95.512681 60.728045 
L 98.622626 62.02695 
L 104.620717 63.660273 
L 106.841878 64.028378 
L 107.730662 64.223878 
L 112.172983 64.783679 
L 112.617375 64.802748 
L 113.727956 64.923753 
L 114.616739 64.984598 
L 115.282928 65.06852 
L 125.945138 65.655635 
L 126.611327 65.656319 
L 127.499312 65.711924 
L 129.276879 65.706819 
L 129.943068 65.758178 
L 138.827711 65.869896 
L 139.716495 65.901533 
L 140.604481 65.888947 
L 141.493264 65.94307 
L 142.825641 65.932087 
L 143.492628 65.962951 
L 146.157383 65.975204 
L 146.824369 66.033524 
L 170.586961 66.125607 
L 172.142731 66.116783 
L 172.812908 66.147693 
L 176.586648 66.121923 
L 183.918713 66.118443 
L 187.245667 66.117578 
L 187.915845 66.087332 
L 190.5806 66.105179 
L 191.027385 66.072601 
L 193.021962 66.082083 
L 193.69214 66.067884 
L 195.471302 66.079387 
L 196.356894 66.034761 
L 198.136057 66.064055 
L 199.021649 66.027897 
L 200.577419 66.054016 
L 201.239619 66.005368 
L 202.795389 66.043126 
L 203.465566 65.996171 
L 204.797944 66.022303 
L 205.460143 65.982762 
L 206.792521 66.017261 
L 207.462699 65.979125 
L 208.571683 65.996288 
L 209.241861 65.961354 
L 209.904061 65.987423 
L 210.574238 65.955111 
L 211.683223 65.982786 
L 212.345423 65.957231 
L 213.238993 65.958677 
L 213.901193 65.936 
L 215.010178 65.973986 
L 215.903748 65.925673 
L 216.78934 65.938632 
L 217.459518 65.919431 
L 218.34511 65.936381 
L 219.015288 65.919882 
L 219.454095 65.931085 
L 220.124273 65.916855 
L 221.009865 65.939801 
L 221.903435 65.905651 
L 222.342242 65.920008 
L 223.235813 65.888761 
L 223.67462 65.904912 
L 224.56819 65.876513 
L 225.006997 65.893669 
L 225.900567 65.868448 
L 226.339374 65.886965 
L 227.232945 65.864489 
L 228.118537 65.902369 
L 229.227522 65.867399 
L 229.8977 65.868976 
L 230.783292 65.856188 
L 231.45347 65.859655 
L 233.224654 65.841682 
L 233.894832 65.849 
L 235.003816 65.827763 
L 235.673994 65.837541 
L 237.668571 65.820998 
L 238.338749 65.834357 
L 239.671126 65.809881 
L 240.333326 65.828292 
L 241.889096 65.796366 
L 242.559274 65.815156 
L 245.447421 65.780062 
L 245.886228 65.816779 
L 248.112176 65.770297 
L 248.550983 65.809076 
L 251.215738 65.757769 
L 251.885915 65.787608 
L 254.774063 65.743987 
L 255.436262 65.780339 
L 259.433394 65.725411 
L 260.103572 65.764412 
L 266.765459 65.696872 
L 267.435637 65.743434 
L 278.764834 65.686195 
L 286.312313 65.684977 
L 286.982491 65.636005 
L 294.976755 65.660191 
L 295.638954 65.619444 
L 300.976442 65.639132 
L 301.415249 65.652634 
L 302.30882 65.620792 
L 302.30882 65.620792 
" clip-path="url(#p41a5493635)" style="fill: none; stroke-dasharray: 9.25,4; stroke-dashoffset: 0; stroke: #8b0000; stroke-width: 2.5"/>
   </g>
   <g id="legend_1">
    <g id="line2d_138">
     <path d="M 330.516418 198.188062 
L 340.516418 198.188062 
L 350.516418 198.188062 
" style="fill: none; stroke: #1f77b4; stroke-width: 1.5; stroke-linecap: square"/>
    </g>
    <g id="text_14">
     <!-- PSP -->
     <g transform="translate(358.516418 201.688062) scale(0.1 -0.1)">
      <defs>
       <path id="DejaVuSans-50" d="M 1259 4147 
L 1259 2394 
L 2053 2394 
Q 2494 2394 2734 2622 
Q 2975 2850 2975 3272 
Q 2975 3691 2734 3919 
Q 2494 4147 2053 4147 
L 1259 4147 
z
M 628 4666 
L 2053 4666 
Q 2838 4666 3239 4311 
Q 3641 3956 3641 3272 
Q 3641 2581 3239 2228 
Q 2838 1875 2053 1875 
L 1259 1875 
L 1259 0 
L 628 0 
L 628 4666 
z
" transform="scale(0.015625)"/>
       <path id="DejaVuSans-53" d="M 3425 4513 
L 3425 3897 
Q 3066 4069 2747 4153 
Q 2428 4238 2131 4238 
Q 1616 4238 1336 4038 
Q 1056 3838 1056 3469 
Q 1056 3159 1242 3001 
Q 1428 2844 1947 2747 
L 2328 2669 
Q 3034 2534 3370 2195 
Q 3706 1856 3706 1288 
Q 3706 609 3251 259 
Q 2797 -91 1919 -91 
Q 1588 -91 1214 -16 
Q 841 59 441 206 
L 441 856 
Q 825 641 1194 531 
Q 1563 422 1919 422 
Q 2459 422 2753 634 
Q 3047 847 3047 1241 
Q 3047 1584 2836 1778 
Q 2625 1972 2144 2069 
L 1759 2144 
Q 1053 2284 737 2584 
Q 422 2884 422 3419 
Q 422 4038 858 4394 
Q 1294 4750 2059 4750 
Q 2388 4750 2728 4690 
Q 3069 4631 3425 4513 
z
" transform="scale(0.015625)"/>
      </defs>
      <use xlink:href="#DejaVuSans-50"/>
      <use xlink:href="#DejaVuSans-53" x="60.302734"/>
      <use xlink:href="#DejaVuSans-50" x="123.779297"/>
     </g>
    </g>
    <g id="line2d_139">
     <path d="M 330.516418 212.866187 
L 340.516418 212.866187 
L 350.516418 212.866187 
" style="fill: none; stroke: #000000; stroke-width: 2.5; stroke-linecap: square"/>
    </g>
    <g id="text_15">
     <!-- Slow wind -->
     <g transform="translate(358.516418 216.366187) scale(0.1 -0.1)">
      <defs>
       <path id="DejaVuSans-6c" d="M 603 4863 
L 1178 4863 
L 1178 0 
L 603 0 
L 603 4863 
z
" transform="scale(0.015625)"/>
       <path id="DejaVuSans-6f" d="M 1959 3097 
Q 1497 3097 1228 2736 
Q 959 2375 959 1747 
Q 959 1119 1226 758 
Q 1494 397 1959 397 
Q 2419 397 2687 759 
Q 2956 1122 2956 1747 
Q 2956 2369 2687 2733 
Q 2419 3097 1959 3097 
z
M 1959 3584 
Q 2709 3584 3137 3096 
Q 3566 2609 3566 1747 
Q 3566 888 3137 398 
Q 2709 -91 1959 -91 
Q 1206 -91 779 398 
Q 353 888 353 1747 
Q 353 2609 779 3096 
Q 1206 3584 1959 3584 
z
" transform="scale(0.015625)"/>
       <path id="DejaVuSans-77" d="M 269 3500 
L 844 3500 
L 1563 769 
L 2278 3500 
L 2956 3500 
L 3675 769 
L 4391 3500 
L 4966 3500 
L 4050 0 
L 3372 0 
L 2619 2869 
L 1863 0 
L 1184 0 
L 269 3500 
z
" transform="scale(0.015625)"/>
       <path id="DejaVuSans-64" d="M 2906 2969 
L 2906 4863 
L 3481 4863 
L 3481 0 
L 2906 0 
L 2906 525 
Q 2725 213 2448 61 
Q 2172 -91 1784 -91 
Q 1150 -91 751 415 
Q 353 922 353 1747 
Q 353 2572 751 3078 
Q 1150 3584 1784 3584 
Q 2172 3584 2448 3432 
Q 2725 3281 2906 2969 
z
M 947 1747 
Q 947 1113 1208 752 
Q 1469 391 1925 391 
Q 2381 391 2643 752 
Q 2906 1113 2906 1747 
Q 2906 2381 2643 2742 
Q 2381 3103 1925 3103 
Q 1469 3103 1208 2742 
Q 947 2381 947 1747 
z
" transform="scale(0.015625)"/>
      </defs>
      <use xlink:href="#DejaVuSans-53"/>
      <use xlink:href="#DejaVuSans-6c" x="63.476562"/>
      <use xlink:href="#DejaVuSans-6f" x="91.259766"/>
      <use xlink:href="#DejaVuSans-77" x="152.441406"/>
      <use xlink:href="#DejaVuSans-20" x="234.228516"/>
      <use xlink:href="#DejaVuSans-77" x="266.015625"/>
      <use xlink:href="#DejaVuSans-69" x="347.802734"/>
      <use xlink:href="#DejaVuSans-6e" x="375.585938"/>
      <use xlink:href="#DejaVuSans-64" x="438.964844"/>
     </g>
    </g>
    <g id="line2d_140">
     <path d="M 330.516418 227.544312 
L 340.516418 227.544312 
L 350.516418 227.544312 
" style="fill: none; stroke-dasharray: 9.25,4; stroke-dashoffset: 0; stroke: #8b0000; stroke-width: 2.5"/>
    </g>
    <g id="text_16">
     <!-- Fast wind -->
     <g transform="translate(358.516418 231.044312) scale(0.1 -0.1)">
      <defs>
       <path id="DejaVuSans-46" d="M 628 4666 
L 3309 4666 
L 3309 4134 
L 1259 4134 
L 1259 2759 
L 3109 2759 
L 3109 2228 
L 1259 2228 
L 1259 0 
L 628 0 
L 628 4666 
z
" transform="scale(0.015625)"/>
      </defs>
      <use xlink:href="#DejaVuSans-46"/>
      <use xlink:href="#DejaVuSans-61" x="48.394531"/>
      <use xlink:href="#DejaVuSans-73" x="109.673828"/>
      <use xlink:href="#DejaVuSans-74" x="161.773438"/>
      <use xlink:href="#DejaVuSans-20" x="200.982422"/>
      <use xlink:href="#DejaVuSans-77" x="232.769531"/>
      <use xlink:href="#DejaVuSans-69" x="314.556641"/>
      <use xlink:href="#DejaVuSans-6e" x="342.339844"/>
      <use xlink:href="#DejaVuSans-64" x="405.71875"/>
     </g>
    </g>
   </g>
  </g>
 </g>
 <defs>
  <clipPath id="p41a5493635">
   <rect x="71.786518" y="10.8" width="345.97365" height="231.324"/>
  </clipPath>
 </defs>
</svg>
