<?xml version="1.0" encoding="utf-8" standalone="no"?>
<!DOCTYPE svg PUBLIC "-//W3C//DTD SVG 1.1//EN"
  "http://www.w3.org/Graphics/SVG/1.1/DTD/svg11.dtd">
<svg xmlns:xlink="http://www.w3.org/1999/xlink" width="432pt" height="288pt" viewBox="0 0 432 288" xmlns="http://www.w3.org/2000/svg" version="1.1">
 <metadata>
  <rdf:RDF xmlns:dc="http://purl.org/dc/elements/1.1/" xmlns:cc="http://creativecommons.org/ns#" xmlns:rdf="http://www.w3.org/1999/02/22-rdf-syntax-ns#">
   <cc:Work>
    <dc:type rdf:resource="http://purl.org/dc/dcmitype/StillImage"/>
    <dc:date>2022-11-23T14:47:59.398773</dc:date>
    <dc:format>image/svg+xml</dc:format>
    <dc:creator>
     <cc:Agent>
      <dc:title>Matplotlib v3.6.2, https://matplotlib.org/</dc:title>
     </cc:Agent>
    </dc:creator>
   </cc:Work>
  </rdf:RDF>
 </metadata>
 <defs>
  <style type="text/css">*{stroke-linejoin: round; stroke-linecap: butt}</style>
 </defs>
 <g id="figure_1">
  <g id="patch_1">
   <path d="M 0 288 
L 432 288 
L 432 0 
L 0 0 
z
" style="fill: #ffffff"/>
  </g>
  <g id="axes_1">
   <g id="patch_2">
    <path d="M 71.786518 242.124 
L 421.2 242.124 
L 421.2 10.8 
L 71.786518 10.8 
z
" style="fill: #ffffff"/>
   </g>
   <g id="patch_3">
    <path d="M 71.786518 242.124 
L 71.786518 10.8 
" style="fill: none; stroke: #000000; stroke-width: 1.5; stroke-linejoin: miter; stroke-linecap: square"/>
   </g>
   <g id="patch_4">
    <path d="M 421.2 242.124 
L 421.2 10.8 
" style="fill: none; stroke: #000000; stroke-width: 1.5; stroke-linejoin: miter; stroke-linecap: square"/>
   </g>
   <g id="patch_5">
    <path d="M 71.786518 242.124 
L 421.2 242.124 
" style="fill: none; stroke: #000000; stroke-width: 1.5; stroke-linejoin: miter; stroke-linecap: square"/>
   </g>
   <g id="patch_6">
    <path d="M 71.786518 10.8 
L 421.2 10.8 
" style="fill: none; stroke: #000000; stroke-width: 1.5; stroke-linejoin: miter; stroke-linecap: square"/>
   </g>
   <g id="PolyCollection_1">
    <path d="M 236.122556 26.593981 
L 236.122556 30.39259 
L 246.857042 30.774236 
L 247.593119 31.57434 
L 268.507451 34.564689 
L 269.963277 36.385951 
L 270.009878 36.174714 
L 271.029245 38.701353 
L 271.857968 37.565809 
L 272.589365 35.491705 
L 274.006195 49.940233 
L 274.267476 45.704514 
L 282.851024 48.640716 
L 283.47129 56.379594 
L 284.327586 105.302426 
L 285.482086 100.853934 
L 286.145357 176.752913 
L 286.813508 104.77352 
L 287.628733 102.318369 
L 288.44964 117.447857 
L 289.297261 165.217278 
L 290.056443 166.159016 
L 290.905784 101.392073 
L 291.726456 100.53671 
L 292.562382 101.189863 
L 293.396728 102.203143 
L 294.180619 103.810369 
L 294.994642 171.632997 
L 296.074496 109.610841 
L 296.649589 103.706105 
L 297.451092 102.552767 
L 298.358103 109.090713 
L 299.128814 119.719501 
L 299.983437 113.915515 
L 300.751861 104.906654 
L 301.531697 108.55793 
L 302.273291 102.396682 
L 303.218073 108.676343 
L 304.092971 126.858793 
L 304.899945 117.66867 
L 305.708757 114.827896 
L 306.453675 114.189428 
L 307.245017 127.679696 
L 308.137221 129.043692 
L 308.95445 128.096854 
L 309.765785 133.41847 
L 310.578653 123.413412 
L 311.484508 120.339607 
L 312.214101 119.995296 
L 313.077848 110.494149 
L 313.876239 110.665554 
L 314.677743 113.128115 
L 315.528051 112.575693 
L 316.347284 118.940014 
L 317.122475 115.798023 
L 317.967313 112.848795 
L 318.768816 136.409957 
L 319.605072 132.807184 
L 320.42506 151.269334 
L 321.250753 141.606474 
L 322.092267 124.304015 
L 322.878068 137.050271 
L 323.689969 143.758225 
L 324.536811 157.314424 
L 325.34178 126.657552 
L 326.17556 135.429914 
L 326.984561 131.511818 
L 327.809642 128.825549 
L 328.574883 139.77406 
L 329.276231 204.952465 
L 330.397699 63563.744722 
L 331.097727 63563.744722 
L 331.888125 112.877745 
L 332.73367 63563.744722 
L 333.607862 179.435385 
L 334.358415 112.798616 
L 335.187197 113.936471 
L 336.020294 114.166562 
L 336.824178 114.819192 
L 337.628841 115.703858 
L 338.48898 98.240275 
L 339.289729 100.210213 
L 340.111344 102.053968 
L 340.930035 107.276511 
L 341.753512 103.954356 
L 342.602429 101.144381 
L 343.40596 99.682826 
L 344.213405 101.168051 
L 345.033227 120.70266 
L 345.882993 63563.744722 
L 346.670869 107.919962 
L 347.483382 129.69062 
L 348.29493 138.871426 
L 349.133708 101.514749 
L 349.949523 128.263661 
L 350.801057 63563.744722 
L 351.611449 148.839809 
L 352.436647 110.220333 
L 353.209928 109.764124 
L 354.046845 201.544956 
L 354.868223 119.082703 
L 355.693162 97.08482 
L 356.522864 104.904796 
L 357.342286 102.206607 
L 358.150367 113.508438 
L 358.997303 94.791229 
L 359.844358 114.134547 
L 360.622142 126.064361 
L 361.43725 100.304798 
L 362.263297 126.914246 
L 363.017882 103.603658 
L 363.93048 109.045637 
L 364.700673 167.708455 
L 365.522193 116.108972 
L 366.350433 125.015536 
L 367.199892 103.796943 
L 367.999769 94.580252 
L 368.77885 96.984938 
L 369.631469 85.99559 
L 370.462372 98.303153 
L 371.243104 108.381646 
L 372.10447 102.974673 
L 372.90602 111.840773 
L 373.745766 107.616051 
L 374.592702 99.485549 
L 375.371949 105.57773 
L 376.227326 224.812606 
L 376.995774 118.471227 
L 377.856786 63563.744722 
L 378.686181 63563.744722 
L 379.45279 98.514909 
L 380.254718 98.82553 
L 381.133342 114.825217 
L 381.844686 111.537332 
L 382.819787 85.290482 
L 383.581941 88.267828 
L 384.518093 101.995706 
L 385.231441 93.677477 
L 386.04313 94.60285 
L 386.85819 96.967673 
L 387.678366 95.156126 
L 388.518678 108.187019 
L 389.342626 120.755046 
L 390.161647 125.475688 
L 390.950513 154.098163 
L 391.751333 103.426201 
L 392.624063 120.997261 
L 393.42922 143.91573 
L 394.246921 168.200677 
L 395.074383 149.405923 
L 395.880672 137.031324 
L 396.689626 132.133341 
L 397.539722 231.609273 
L 398.32531 176.661209 
L 399.17484 102.801414 
L 399.992164 112.076621 
L 400.800104 63563.744722 
L 401.635228 159.231398 
L 402.443568 144.794353 
L 403.247264 176.765746 
L 404.095545 95.329036 
L 404.921238 216.020835 
L 404.921238 49.433682 
L 404.921238 49.433682 
L 404.095545 68.846638 
L 403.247264 48.794443 
L 402.443568 48.07845 
L 401.635228 52.988588 
L 400.800104 51.921116 
L 399.992164 65.817585 
L 399.17484 70.963893 
L 398.32531 56.934054 
L 397.539722 57.747492 
L 396.689626 62.657922 
L 395.880672 53.491539 
L 395.074383 50.349769 
L 394.246921 52.339902 
L 393.42922 54.012268 
L 392.624063 49.211346 
L 391.751333 49.573882 
L 390.950513 44.635549 
L 390.161647 49.300667 
L 389.342626 44.851168 
L 388.518678 46.011032 
L 387.678366 51.059159 
L 386.85819 47.419148 
L 386.04313 48.4545 
L 385.231441 49.598275 
L 384.518093 50.089339 
L 383.581941 69.739251 
L 382.819787 69.638232 
L 381.844686 44.418357 
L 381.133342 43.601857 
L 380.254718 35.264843 
L 379.45279 46.155095 
L 378.686181 42.734982 
L 377.856786 58.975801 
L 376.995774 63.097595 
L 376.227326 57.926181 
L 375.371949 62.263256 
L 374.592702 64.182074 
L 373.745766 67.716505 
L 372.90602 68.653982 
L 372.10447 72.335103 
L 371.243104 66.68853 
L 370.462372 68.893298 
L 369.631469 66.526308 
L 368.77885 61.933329 
L 367.999769 60.226723 
L 367.199892 73.666407 
L 366.350433 76.550236 
L 365.522193 79.629205 
L 364.700673 72.197226 
L 363.93048 80.908169 
L 363.017882 80.263821 
L 362.263297 68.727777 
L 361.43725 75.321459 
L 360.622142 69.57755 
L 359.844358 69.667185 
L 358.997303 70.353367 
L 358.150367 62.952113 
L 357.342286 74.980781 
L 356.522864 80.866766 
L 355.693162 83.738344 
L 354.868223 72.141472 
L 354.046845 61.124781 
L 353.209928 72.212206 
L 352.436647 73.463065 
L 351.611449 63.595755 
L 350.801057 55.41614 
L 349.949523 68.925258 
L 349.133708 78.849831 
L 348.29493 64.56476 
L 347.483382 66.41078 
L 346.670869 73.710573 
L 345.882993 56.035803 
L 345.033227 72.49786 
L 344.213405 79.804122 
L 343.40596 74.786927 
L 342.602429 71.767716 
L 341.753512 61.50465 
L 340.930035 68.69666 
L 340.111344 71.359902 
L 339.289729 75.033649 
L 338.48898 78.403344 
L 337.628841 73.459582 
L 336.824178 70.64469 
L 336.020294 77.500921 
L 335.187197 73.640695 
L 334.358415 77.12234 
L 333.607862 70.002953 
L 332.73367 44.893792 
L 331.888125 81.18924 
L 331.097727 63.721882 
L 330.397699 62.635351 
L 329.276231 71.366405 
L 328.574883 72.12105 
L 327.809642 71.668564 
L 326.984561 74.104796 
L 326.17556 77.034493 
L 325.34178 70.357622 
L 324.536811 69.77542 
L 323.689969 70.170909 
L 322.878068 70.260211 
L 322.092267 69.106844 
L 321.250753 69.274716 
L 320.42506 71.715863 
L 319.605072 85.116915 
L 318.768816 78.940468 
L 317.967313 69.954693 
L 317.122475 70.678562 
L 316.347284 71.34888 
L 315.528051 70.942031 
L 314.677743 71.972007 
L 313.876239 71.816282 
L 313.077848 70.873476 
L 312.214101 75.310109 
L 311.484508 78.382339 
L 310.578653 78.558525 
L 309.765785 79.289823 
L 308.95445 77.202321 
L 308.137221 71.095903 
L 307.245017 73.663005 
L 306.453675 74.013694 
L 305.708757 74.945172 
L 304.899945 72.377069 
L 304.092971 73.582386 
L 303.218073 92.890171 
L 302.273291 71.923138 
L 301.531697 76.361987 
L 300.751861 81.104798 
L 299.983437 78.992602 
L 299.128814 75.425105 
L 298.358103 80.45505 
L 297.451092 88.980862 
L 296.649589 92.460246 
L 296.074496 90.425355 
L 294.994642 74.570064 
L 294.180619 92.794135 
L 293.396728 89.856764 
L 292.562382 89.729492 
L 291.726456 90.658888 
L 290.905784 95.247778 
L 290.056443 53.308124 
L 289.297261 58.488026 
L 288.44964 84.940506 
L 287.628733 94.002969 
L 286.813508 99.413713 
L 286.145357 81.053919 
L 285.482086 90.640674 
L 284.327586 77.670625 
L 283.47129 43.175766 
L 282.851024 46.154255 
L 274.267476 38.061662 
L 274.006195 43.71124 
L 272.589365 31.123878 
L 271.857968 21.314727 
L 271.029245 27.153765 
L 270.009878 31.24521 
L 269.963277 31.281589 
L 268.507451 32.819644 
L 247.593119 24.240308 
L 246.857042 23.193258 
L 236.122556 26.593981 
z
" clip-path="url(#pb98f5001c3)" style="fill: #add8e6; stroke: #add8e6"/>
   </g>
   <g id="line2d_1">
    <path d="M 236.122556 28.428816 
L 246.857042 26.727556 
L 247.593119 27.667505 
L 268.507451 33.678553 
L 269.963277 33.717433 
L 270.009878 33.601449 
L 271.029245 32.335509 
L 271.857968 28.275656 
L 272.589365 33.222574 
L 274.006195 46.652604 
L 274.267476 41.622711 
L 282.851024 47.36985 
L 283.47129 49.005279 
L 284.327586 88.203114 
L 286.145357 99.534354 
L 286.813508 101.965361 
L 287.628733 97.852627 
L 288.44964 96.713602 
L 289.297261 77.257755 
L 290.056443 72.196326 
L 290.905784 98.15146 
L 291.726456 95.163774 
L 292.562382 94.876476 
L 293.396728 95.353839 
L 294.180619 97.763095 
L 294.994642 93.092566 
L 296.074496 98.403588 
L 296.649589 97.521458 
L 297.451092 94.95117 
L 298.358103 91.256269 
L 299.128814 89.587953 
L 299.983437 91.322331 
L 300.751861 90.545583 
L 301.531697 88.060604 
L 302.273291 83.198278 
L 303.218073 99.683478 
L 304.092971 89.083997 
L 304.899945 86.707117 
L 305.708757 88.306427 
L 306.453675 87.431443 
L 307.245017 89.259355 
L 308.137221 87.160066 
L 308.95445 92.383896 
L 309.765785 94.900311 
L 310.578653 92.81596 
L 311.484508 92.133437 
L 312.214101 89.539073 
L 313.077848 84.183799 
L 313.876239 84.974432 
L 314.677743 85.575332 
L 315.528051 84.633855 
L 316.347284 86.04598 
L 317.967313 83.874251 
L 318.768816 94.950766 
L 319.605072 99.829274 
L 320.42506 89.514665 
L 321.250753 86.624713 
L 322.092267 84.849805 
L 322.878068 87.184694 
L 324.536811 87.958227 
L 325.34178 86.232717 
L 326.17556 93.148331 
L 326.984561 90.107999 
L 327.809642 87.643225 
L 329.276231 90.509752 
L 330.397699 84.733599 
L 331.097727 87.344321 
L 331.888125 92.765137 
L 332.73367 74.26512 
L 333.607862 88.828143 
L 334.358415 89.618195 
L 335.187197 87.081451 
L 336.020294 90.209692 
L 336.824178 84.7871 
L 337.628841 87.262782 
L 338.48898 86.598034 
L 339.289729 84.87862 
L 340.111344 82.690364 
L 340.930035 81.800863 
L 341.753512 75.344874 
L 342.602429 82.762796 
L 343.40596 84.550516 
L 344.213405 88.493091 
L 345.033227 87.288686 
L 345.882993 78.194836 
L 346.670869 85.87972 
L 347.483382 83.022827 
L 348.29493 82.048465 
L 349.133708 87.945643 
L 349.949523 85.141453 
L 350.801057 76.359886 
L 351.611449 81.678686 
L 352.436647 86.191257 
L 353.209928 85.106734 
L 354.046845 80.31873 
L 354.868223 86.737396 
L 355.693162 89.622558 
L 356.522864 90.377991 
L 357.342286 85.402575 
L 358.150367 78.086306 
L 358.997303 79.982893 
L 359.844358 83.859391 
L 360.622142 85.474586 
L 362.263297 84.818515 
L 363.017882 89.565597 
L 363.93048 91.576907 
L 364.700673 90.671712 
L 365.522193 92.298425 
L 366.350433 91.380324 
L 367.199892 84.854847 
L 367.999769 72.428566 
L 368.77885 74.291685 
L 369.631469 74.599252 
L 370.462372 79.896973 
L 371.243104 80.391286 
L 372.10447 83.651924 
L 372.90602 82.625228 
L 373.745766 81.081016 
L 374.592702 76.596158 
L 375.371949 76.256911 
L 376.227326 77.232279 
L 377.856786 80.811761 
L 378.686181 62.13296 
L 379.45279 61.536336 
L 380.254718 51.903222 
L 381.133342 60.872869 
L 381.844686 61.370322 
L 382.819787 76.382923 
L 383.581941 77.495787 
L 384.518093 65.409755 
L 385.231441 63.724388 
L 386.04313 62.924275 
L 386.85819 62.409198 
L 387.678366 65.188313 
L 388.518678 62.517233 
L 389.342626 62.436739 
L 390.161647 66.902996 
L 390.950513 63.461329 
L 391.751333 65.149384 
L 392.624063 66.522809 
L 393.42922 72.290081 
L 394.246921 71.27765 
L 395.074383 68.930274 
L 395.880672 71.495065 
L 396.689626 79.798324 
L 397.539722 77.069327 
L 398.32531 75.928207 
L 399.17484 82.576003 
L 399.992164 80.305151 
L 400.800104 71.533852 
L 401.635228 71.747767 
L 402.443568 66.590437 
L 403.247264 67.885986 
L 404.095545 79.062679 
L 404.921238 68.739013 
L 405.317569 82.495056 
L 405.317569 82.495056 
" clip-path="url(#pb98f5001c3)" style="fill: none; stroke: #1f77b4; stroke-width: 1.5; stroke-linecap: square"/>
   </g>
   <g id="line2d_2">
    <path d="M 88.653838 289 
L 88.654354 189.519961 
L 88.9829 170.133588 
L 89.639169 149.400534 
L 91.281313 116.779612 
L 92.266836 103.748642 
L 93.252359 94.121791 
L 94.236702 87.035064 
L 95.222225 81.579102 
L 96.206568 77.363644 
L 97.519812 73.051755 
L 98.504156 70.46467 
L 100.146301 67.102895 
L 101.459545 65.017461 
L 102.77161 63.317163 
L 103.757133 62.245792 
L 106.05472 60.244092 
L 107.367965 59.33305 
L 110.977618 57.452219 
L 112.947484 56.689381 
L 114.916171 56.107346 
L 119.183625 55.077051 
L 126.40411 53.99649 
L 128.045076 53.879659 
L 129.686041 53.72637 
L 132.311351 53.545289 
L 135.265561 53.377348 
L 136.578805 53.265978 
L 137.235427 53.25789 
L 139.204114 53.162184 
L 143.470389 53.020608 
L 145.440256 52.965983 
L 146.096878 52.940839 
L 147.081221 52.948324 
L 148.393287 52.874017 
L 149.049909 52.878686 
L 150.690874 52.820487 
L 151.347496 52.845439 
L 153.972806 52.81099 
L 161.849913 52.733065 
L 163.163157 52.760777 
L 164.147501 52.711509 
L 165.131844 52.736122 
L 166.116188 52.704224 
L 167.100532 52.745137 
L 168.413776 52.705185 
L 169.070398 52.722191 
L 170.383642 52.702689 
L 171.039085 52.730432 
L 173.008951 52.703691 
L 173.665573 52.743787 
L 177.275226 52.730329 
L 184.823433 52.772305 
L 186.793299 52.790492 
L 187.448742 52.758082 
L 189.418609 52.803277 
L 190.075231 52.779557 
L 191.387296 52.804198 
L 192.043918 52.786845 
L 193.357162 52.823443 
L 194.341506 52.776155 
L 195.658286 52.824285 
L 196.636736 52.789664 
L 197.957053 52.850316 
L 198.935502 52.825893 
L 199.92574 52.864104 
L 201.234269 52.819948 
L 202.212718 52.872556 
L 203.533036 52.834749 
L 204.511485 52.896782 
L 206.161882 52.849747 
L 206.810252 52.877093 
L 208.130569 52.862961 
L 208.778939 52.895241 
L 210.417547 52.878606 
L 211.077706 52.911422 
L 213.046393 52.894822 
L 213.706552 52.932996 
L 216.335398 52.913149 
L 216.983768 52.963865 
L 220.921142 52.953654 
L 221.581301 53.008115 
L 229.78613 53.012933 
L 277.376493 53.323721 
L 278.354943 53.302851 
L 279.345181 53.344419 
L 280.32363 53.326202 
L 281.313868 53.370428 
L 282.622397 53.327594 
L 283.612635 53.375544 
L 284.921163 53.336682 
L 285.911401 53.386922 
L 287.21993 53.35195 
L 287.880089 53.366242 
L 288.858538 53.358955 
L 289.518697 53.374606 
L 290.827225 53.346244 
L 291.817463 53.403826 
L 293.456071 53.356433 
L 294.446309 53.41716 
L 296.084917 53.374902 
L 296.733287 53.399301 
L 298.053605 53.379226 
L 298.701975 53.404422 
L 300.022292 53.387323 
L 300.670662 53.414647 
L 301.990979 53.400471 
L 302.651138 53.426294 
L 304.289746 53.39997 
L 304.938116 53.430347 
L 306.588512 53.40453 
L 307.236883 53.436506 
L 308.875491 53.41756 
L 309.535649 53.448935 
L 311.504337 53.417797 
L 312.164495 53.450278 
L 314.133182 53.425083 
L 314.793341 53.459988 
L 316.762028 53.439262 
L 317.410399 53.478619 
L 319.709165 53.450146 
L 320.369324 53.488632 
L 322.99817 53.454201 
L 323.64654 53.497391 
L 326.275386 53.471602 
L 326.935544 53.513414 
L 330.21276 53.478064 
L 330.872919 53.522856 
L 334.480214 53.490383 
L 335.140373 53.536916 
L 339.077748 53.510314 
L 339.726118 53.561874 
L 344.98381 53.525878 
L 345.643968 53.578707 
L 352.52848 53.551273 
L 353.188638 53.607875 
L 362.053626 53.607725 
L 404.716377 53.764461 
L 404.716377 53.764461 
" clip-path="url(#pb98f5001c3)" style="fill: none; stroke: #000000; stroke-width: 2.5; stroke-linecap: square"/>
   </g>
   <g id="line2d_3">
    <path d="M 87.668949 69.163277 
L 87.997378 68.052534 
L 88.654354 68.10338 
L 88.9829 68.513335 
L 89.968069 70.246836 
L 91.937936 72.848495 
L 94.236702 74.787076 
L 95.549946 75.448501 
L 96.535469 75.938109 
L 97.847534 76.531155 
L 100.474022 77.51907 
L 101.130644 77.75158 
L 102.443889 78.223413 
L 105.72582 79.086649 
L 106.711342 79.367255 
L 107.695686 79.539897 
L 108.68003 79.787051 
L 111.306518 80.27172 
L 113.275205 80.56802 
L 117.213759 81.087235 
L 118.199281 81.254576 
L 118.854725 81.281895 
L 121.152312 81.525056 
L 122.793278 81.685956 
L 130.999286 82.30607 
L 131.655908 82.307637 
L 133.624595 82.430799 
L 134.608939 82.455602 
L 135.265561 82.50351 
L 137.235427 82.563282 
L 137.89087 82.641926 
L 153.316184 82.981828 
L 153.972806 82.939484 
L 158.895703 83.04458 
L 159.881225 83.001006 
L 161.193291 83.064311 
L 162.177634 83.040701 
L 163.163157 83.088216 
L 164.147501 83.07994 
L 164.804123 83.09963 
L 166.116188 83.085235 
L 166.77281 83.114229 
L 168.086054 83.118193 
L 168.741497 83.157265 
L 171.367986 83.147775 
L 172.024608 83.20104 
L 175.961982 83.255735 
L 197.957053 83.357595 
L 198.935502 83.347838 
L 199.595661 83.360915 
L 200.57411 83.357186 
L 201.234269 83.374721 
L 202.542798 83.355424 
L 203.202956 83.377642 
L 204.841564 83.348266 
L 205.501723 83.376214 
L 207.47041 83.344325 
L 208.130569 83.378088 
L 210.747626 83.343558 
L 211.407785 83.384251 
L 215.675239 83.337139 
L 216.335398 83.388079 
L 272.118801 83.163333 
L 273.109039 83.19652 
L 274.417568 83.139051 
L 275.407806 83.175537 
L 276.386255 83.15236 
L 277.046414 83.156917 
L 278.036652 83.132712 
L 278.685022 83.142061 
L 279.67526 83.120101 
L 280.653709 83.167528 
L 281.974027 83.120616 
L 282.622397 83.13343 
L 283.612635 83.117154 
L 284.261005 83.131371 
L 285.581322 83.091185 
L 286.559771 83.146243 
L 288.210168 83.085022 
L 288.858538 83.103495 
L 290.178855 83.071014 
L 290.827225 83.090636 
L 292.147543 83.06179 
L 292.795913 83.082968 
L 294.11623 83.057262 
L 294.7646 83.080404 
L 296.084917 83.057346 
L 296.733287 83.081988 
L 298.383684 83.041499 
L 299.032054 83.06786 
L 300.670662 83.034649 
L 301.330821 83.059743 
L 302.969429 83.031178 
L 303.629587 83.057951 
L 305.598275 83.015258 
L 306.258433 83.044344 
L 308.227121 83.00719 
L 308.875491 83.040523 
L 311.174257 82.993306 
L 311.834416 83.025803 
L 314.133182 82.985522 
L 314.793341 83.019986 
L 317.410399 82.975384 
L 318.070557 83.012403 
L 321.029482 82.960702 
L 321.677852 83.002695 
L 324.966857 82.949533 
L 325.615227 82.993886 
L 329.552602 82.935204 
L 330.21276 82.979173 
L 334.810294 82.919442 
L 335.470452 82.966825 
L 345.643968 82.891045 
L 355.817484 82.897447 
L 405.046456 82.778542 
L 405.046456 82.778542 
" clip-path="url(#pb98f5001c3)" style="fill: none; stroke-dasharray: 9.25,4; stroke-dashoffset: 0; stroke: #8b0000; stroke-width: 2.5"/>
   </g>
   <g id="legend_1">
    <g id="line2d_4">
     <path d="M 333.95625 198.188062 
L 343.95625 198.188062 
L 353.95625 198.188062 
" style="fill: none; stroke: #1f77b4; stroke-width: 1.5; stroke-linecap: square"/>
    </g>
    <g id="text_1">
     <!-- PSP -->
     <g transform="translate(361.95625 201.688062) scale(0.1 -0.1)">
      <defs>
       <path id="DejaVuSans-50" d="M 1259 4147 
L 1259 2394 
L 2053 2394 
Q 2494 2394 2734 2622 
Q 2975 2850 2975 3272 
Q 2975 3691 2734 3919 
Q 2494 4147 2053 4147 
L 1259 4147 
z
M 628 4666 
L 2053 4666 
Q 2838 4666 3239 4311 
Q 3641 3956 3641 3272 
Q 3641 2581 3239 2228 
Q 2838 1875 2053 1875 
L 1259 1875 
L 1259 0 
L 628 0 
L 628 4666 
z
" transform="scale(0.015625)"/>
       <path id="DejaVuSans-53" d="M 3425 4513 
L 3425 3897 
Q 3066 4069 2747 4153 
Q 2428 4238 2131 4238 
Q 1616 4238 1336 4038 
Q 1056 3838 1056 3469 
Q 1056 3159 1242 3001 
Q 1428 2844 1947 2747 
L 2328 2669 
Q 3034 2534 3370 2195 
Q 3706 1856 3706 1288 
Q 3706 609 3251 259 
Q 2797 -91 1919 -91 
Q 1588 -91 1214 -16 
Q 841 59 441 206 
L 441 856 
Q 825 641 1194 531 
Q 1563 422 1919 422 
Q 2459 422 2753 634 
Q 3047 847 3047 1241 
Q 3047 1584 2836 1778 
Q 2625 1972 2144 2069 
L 1759 2144 
Q 1053 2284 737 2584 
Q 422 2884 422 3419 
Q 422 4038 858 4394 
Q 1294 4750 2059 4750 
Q 2388 4750 2728 4690 
Q 3069 4631 3425 4513 
z
" transform="scale(0.015625)"/>
      </defs>
      <use xlink:href="#DejaVuSans-50"/>
      <use xlink:href="#DejaVuSans-53" x="60.302734"/>
      <use xlink:href="#DejaVuSans-50" x="123.779297"/>
     </g>
    </g>
    <g id="line2d_5">
     <path d="M 333.95625 212.866187 
L 343.95625 212.866187 
L 353.95625 212.866187 
" style="fill: none; stroke: #000000; stroke-width: 2.5; stroke-linecap: square"/>
    </g>
    <g id="text_2">
     <!-- Slow wind -->
     <g transform="translate(361.95625 216.366187) scale(0.1 -0.1)">
      <defs>
       <path id="DejaVuSans-6c" d="M 603 4863 
L 1178 4863 
L 1178 0 
L 603 0 
L 603 4863 
z
" transform="scale(0.015625)"/>
       <path id="DejaVuSans-6f" d="M 1959 3097 
Q 1497 3097 1228 2736 
Q 959 2375 959 1747 
Q 959 1119 1226 758 
Q 1494 397 1959 397 
Q 2419 397 2687 759 
Q 2956 1122 2956 1747 
Q 2956 2369 2687 2733 
Q 2419 3097 1959 3097 
z
M 1959 3584 
Q 2709 3584 3137 3096 
Q 3566 2609 3566 1747 
Q 3566 888 3137 398 
Q 2709 -91 1959 -91 
Q 1206 -91 779 398 
Q 353 888 353 1747 
Q 353 2609 779 3096 
Q 1206 3584 1959 3584 
z
" transform="scale(0.015625)"/>
       <path id="DejaVuSans-77" d="M 269 3500 
L 844 3500 
L 1563 769 
L 2278 3500 
L 2956 3500 
L 3675 769 
L 4391 3500 
L 4966 3500 
L 4050 0 
L 3372 0 
L 2619 2869 
L 1863 0 
L 1184 0 
L 269 3500 
z
" transform="scale(0.015625)"/>
       <path id="DejaVuSans-20" transform="scale(0.015625)"/>
       <path id="DejaVuSans-69" d="M 603 3500 
L 1178 3500 
L 1178 0 
L 603 0 
L 603 3500 
z
M 603 4863 
L 1178 4863 
L 1178 4134 
L 603 4134 
L 603 4863 
z
" transform="scale(0.015625)"/>
       <path id="DejaVuSans-6e" d="M 3513 2113 
L 3513 0 
L 2938 0 
L 2938 2094 
Q 2938 2591 2744 2837 
Q 2550 3084 2163 3084 
Q 1697 3084 1428 2787 
Q 1159 2491 1159 1978 
L 1159 0 
L 581 0 
L 581 3500 
L 1159 3500 
L 1159 2956 
Q 1366 3272 1645 3428 
Q 1925 3584 2291 3584 
Q 2894 3584 3203 3211 
Q 3513 2838 3513 2113 
z
" transform="scale(0.015625)"/>
       <path id="DejaVuSans-64" d="M 2906 2969 
L 2906 4863 
L 3481 4863 
L 3481 0 
L 2906 0 
L 2906 525 
Q 2725 213 2448 61 
Q 2172 -91 1784 -91 
Q 1150 -91 751 415 
Q 353 922 353 1747 
Q 353 2572 751 3078 
Q 1150 3584 1784 3584 
Q 2172 3584 2448 3432 
Q 2725 3281 2906 2969 
z
M 947 1747 
Q 947 1113 1208 752 
Q 1469 391 1925 391 
Q 2381 391 2643 752 
Q 2906 1113 2906 1747 
Q 2906 2381 2643 2742 
Q 2381 3103 1925 3103 
Q 1469 3103 1208 2742 
Q 947 2381 947 1747 
z
" transform="scale(0.015625)"/>
      </defs>
      <use xlink:href="#DejaVuSans-53"/>
      <use xlink:href="#DejaVuSans-6c" x="63.476562"/>
      <use xlink:href="#DejaVuSans-6f" x="91.259766"/>
      <use xlink:href="#DejaVuSans-77" x="152.441406"/>
      <use xlink:href="#DejaVuSans-20" x="234.228516"/>
      <use xlink:href="#DejaVuSans-77" x="266.015625"/>
      <use xlink:href="#DejaVuSans-69" x="347.802734"/>
      <use xlink:href="#DejaVuSans-6e" x="375.585938"/>
      <use xlink:href="#DejaVuSans-64" x="438.964844"/>
     </g>
    </g>
    <g id="line2d_6">
     <path d="M 333.95625 227.544312 
L 343.95625 227.544312 
L 353.95625 227.544312 
" style="fill: none; stroke-dasharray: 9.25,4; stroke-dashoffset: 0; stroke: #8b0000; stroke-width: 2.5"/>
    </g>
    <g id="text_3">
     <!-- Fast wind -->
     <g transform="translate(361.95625 231.044312) scale(0.1 -0.1)">
      <defs>
       <path id="DejaVuSans-46" d="M 628 4666 
L 3309 4666 
L 3309 4134 
L 1259 4134 
L 1259 2759 
L 3109 2759 
L 3109 2228 
L 1259 2228 
L 1259 0 
L 628 0 
L 628 4666 
z
" transform="scale(0.015625)"/>
       <path id="DejaVuSans-61" d="M 2194 1759 
Q 1497 1759 1228 1600 
Q 959 1441 959 1056 
Q 959 750 1161 570 
Q 1363 391 1709 391 
Q 2188 391 2477 730 
Q 2766 1069 2766 1631 
L 2766 1759 
L 2194 1759 
z
M 3341 1997 
L 3341 0 
L 2766 0 
L 2766 531 
Q 2569 213 2275 61 
Q 1981 -91 1556 -91 
Q 1019 -91 701 211 
Q 384 513 384 1019 
Q 384 1609 779 1909 
Q 1175 2209 1959 2209 
L 2766 2209 
L 2766 2266 
Q 2766 2663 2505 2880 
Q 2244 3097 1772 3097 
Q 1472 3097 1187 3025 
Q 903 2953 641 2809 
L 641 3341 
Q 956 3463 1253 3523 
Q 1550 3584 1831 3584 
Q 2591 3584 2966 3190 
Q 3341 2797 3341 1997 
z
" transform="scale(0.015625)"/>
       <path id="DejaVuSans-73" d="M 2834 3397 
L 2834 2853 
Q 2591 2978 2328 3040 
Q 2066 3103 1784 3103 
Q 1356 3103 1142 2972 
Q 928 2841 928 2578 
Q 928 2378 1081 2264 
Q 1234 2150 1697 2047 
L 1894 2003 
Q 2506 1872 2764 1633 
Q 3022 1394 3022 966 
Q 3022 478 2636 193 
Q 2250 -91 1575 -91 
Q 1294 -91 989 -36 
Q 684 19 347 128 
L 347 722 
Q 666 556 975 473 
Q 1284 391 1588 391 
Q 1994 391 2212 530 
Q 2431 669 2431 922 
Q 2431 1156 2273 1281 
Q 2116 1406 1581 1522 
L 1381 1569 
Q 847 1681 609 1914 
Q 372 2147 372 2553 
Q 372 3047 722 3315 
Q 1072 3584 1716 3584 
Q 2034 3584 2315 3537 
Q 2597 3491 2834 3397 
z
" transform="scale(0.015625)"/>
       <path id="DejaVuSans-74" d="M 1172 4494 
L 1172 3500 
L 2356 3500 
L 2356 3053 
L 1172 3053 
L 1172 1153 
Q 1172 725 1289 603 
Q 1406 481 1766 481 
L 2356 481 
L 2356 0 
L 1766 0 
Q 1100 0 847 248 
Q 594 497 594 1153 
L 594 3053 
L 172 3053 
L 172 3500 
L 594 3500 
L 594 4494 
L 1172 4494 
z
" transform="scale(0.015625)"/>
      </defs>
      <use xlink:href="#DejaVuSans-46"/>
      <use xlink:href="#DejaVuSans-61" x="48.394531"/>
      <use xlink:href="#DejaVuSans-73" x="109.673828"/>
      <use xlink:href="#DejaVuSans-74" x="161.773438"/>
      <use xlink:href="#DejaVuSans-20" x="200.982422"/>
      <use xlink:href="#DejaVuSans-77" x="232.769531"/>
      <use xlink:href="#DejaVuSans-69" x="314.556641"/>
      <use xlink:href="#DejaVuSans-6e" x="342.339844"/>
      <use xlink:href="#DejaVuSans-64" x="405.71875"/>
     </g>
    </g>
   </g>
   <g id="matplotlib.axis_1">
    <g id="xtick_1">
     <g id="line2d_7">
      <defs>
       <path id="m08d51d4794" d="M 0 0 
L 0 -3.5 
" style="stroke: #000000; stroke-width: 1.5"/>
      </defs>
      <g>
       <use xlink:href="#m08d51d4794" x="77.26591" y="242.124" style="stroke: #000000; stroke-width: 1.5"/>
      </g>
     </g>
     <g id="line2d_8">
      <defs>
       <path id="mdc04c2f541" d="M 0 0 
L 0 3.5 
" style="stroke: #000000; stroke-width: 1.5"/>
      </defs>
      <g>
       <use xlink:href="#mdc04c2f541" x="77.26591" y="10.8" style="stroke: #000000; stroke-width: 1.5"/>
      </g>
     </g>
     <g id="text_4">
      <!-- 0 -->
      <g transform="translate(73.44841 254.742125) scale(0.12 -0.12)">
       <defs>
        <path id="DejaVuSans-30" d="M 2034 4250 
Q 1547 4250 1301 3770 
Q 1056 3291 1056 2328 
Q 1056 1369 1301 889 
Q 1547 409 2034 409 
Q 2525 409 2770 889 
Q 3016 1369 3016 2328 
Q 3016 3291 2770 3770 
Q 2525 4250 2034 4250 
z
M 2034 4750 
Q 2819 4750 3233 4129 
Q 3647 3509 3647 2328 
Q 3647 1150 3233 529 
Q 2819 -91 2034 -91 
Q 1250 -91 836 529 
Q 422 1150 422 2328 
Q 422 3509 836 4129 
Q 1250 4750 2034 4750 
z
" transform="scale(0.015625)"/>
       </defs>
       <use xlink:href="#DejaVuSans-30"/>
      </g>
     </g>
    </g>
    <g id="xtick_2">
     <g id="line2d_9">
      <g>
       <use xlink:href="#m08d51d4794" x="118.27237" y="242.124" style="stroke: #000000; stroke-width: 1.5"/>
      </g>
     </g>
     <g id="line2d_10">
      <g>
       <use xlink:href="#mdc04c2f541" x="118.27237" y="10.8" style="stroke: #000000; stroke-width: 1.5"/>
      </g>
     </g>
     <g id="text_5">
      <!-- 5 -->
      <g transform="translate(114.45487 254.742125) scale(0.12 -0.12)">
       <defs>
        <path id="DejaVuSans-35" d="M 691 4666 
L 3169 4666 
L 3169 4134 
L 1269 4134 
L 1269 2991 
Q 1406 3038 1543 3061 
Q 1681 3084 1819 3084 
Q 2600 3084 3056 2656 
Q 3513 2228 3513 1497 
Q 3513 744 3044 326 
Q 2575 -91 1722 -91 
Q 1428 -91 1123 -41 
Q 819 9 494 109 
L 494 744 
Q 775 591 1075 516 
Q 1375 441 1709 441 
Q 2250 441 2565 725 
Q 2881 1009 2881 1497 
Q 2881 1984 2565 2268 
Q 2250 2553 1709 2553 
Q 1456 2553 1204 2497 
Q 953 2441 691 2322 
L 691 4666 
z
" transform="scale(0.015625)"/>
       </defs>
       <use xlink:href="#DejaVuSans-35"/>
      </g>
     </g>
    </g>
    <g id="xtick_3">
     <g id="line2d_11">
      <g>
       <use xlink:href="#m08d51d4794" x="159.278831" y="242.124" style="stroke: #000000; stroke-width: 1.5"/>
      </g>
     </g>
     <g id="line2d_12">
      <g>
       <use xlink:href="#mdc04c2f541" x="159.278831" y="10.8" style="stroke: #000000; stroke-width: 1.5"/>
      </g>
     </g>
     <g id="text_6">
      <!-- 10 -->
      <g transform="translate(151.643831 254.742125) scale(0.12 -0.12)">
       <defs>
        <path id="DejaVuSans-31" d="M 794 531 
L 1825 531 
L 1825 4091 
L 703 3866 
L 703 4441 
L 1819 4666 
L 2450 4666 
L 2450 531 
L 3481 531 
L 3481 0 
L 794 0 
L 794 531 
z
" transform="scale(0.015625)"/>
       </defs>
       <use xlink:href="#DejaVuSans-31"/>
       <use xlink:href="#DejaVuSans-30" x="63.623047"/>
      </g>
     </g>
    </g>
    <g id="xtick_4">
     <g id="line2d_13">
      <g>
       <use xlink:href="#m08d51d4794" x="200.285291" y="242.124" style="stroke: #000000; stroke-width: 1.5"/>
      </g>
     </g>
     <g id="line2d_14">
      <g>
       <use xlink:href="#mdc04c2f541" x="200.285291" y="10.8" style="stroke: #000000; stroke-width: 1.5"/>
      </g>
     </g>
     <g id="text_7">
      <!-- 15 -->
      <g transform="translate(192.650291 254.742125) scale(0.12 -0.12)">
       <use xlink:href="#DejaVuSans-31"/>
       <use xlink:href="#DejaVuSans-35" x="63.623047"/>
      </g>
     </g>
    </g>
    <g id="xtick_5">
     <g id="line2d_15">
      <g>
       <use xlink:href="#m08d51d4794" x="241.291751" y="242.124" style="stroke: #000000; stroke-width: 1.5"/>
      </g>
     </g>
     <g id="line2d_16">
      <g>
       <use xlink:href="#mdc04c2f541" x="241.291751" y="10.8" style="stroke: #000000; stroke-width: 1.5"/>
      </g>
     </g>
     <g id="text_8">
      <!-- 20 -->
      <g transform="translate(233.656751 254.742125) scale(0.12 -0.12)">
       <defs>
        <path id="DejaVuSans-32" d="M 1228 531 
L 3431 531 
L 3431 0 
L 469 0 
L 469 531 
Q 828 903 1448 1529 
Q 2069 2156 2228 2338 
Q 2531 2678 2651 2914 
Q 2772 3150 2772 3378 
Q 2772 3750 2511 3984 
Q 2250 4219 1831 4219 
Q 1534 4219 1204 4116 
Q 875 4013 500 3803 
L 500 4441 
Q 881 4594 1212 4672 
Q 1544 4750 1819 4750 
Q 2544 4750 2975 4387 
Q 3406 4025 3406 3419 
Q 3406 3131 3298 2873 
Q 3191 2616 2906 2266 
Q 2828 2175 2409 1742 
Q 1991 1309 1228 531 
z
" transform="scale(0.015625)"/>
       </defs>
       <use xlink:href="#DejaVuSans-32"/>
       <use xlink:href="#DejaVuSans-30" x="63.623047"/>
      </g>
     </g>
    </g>
    <g id="xtick_6">
     <g id="line2d_17">
      <g>
       <use xlink:href="#m08d51d4794" x="282.298212" y="242.124" style="stroke: #000000; stroke-width: 1.5"/>
      </g>
     </g>
     <g id="line2d_18">
      <g>
       <use xlink:href="#mdc04c2f541" x="282.298212" y="10.8" style="stroke: #000000; stroke-width: 1.5"/>
      </g>
     </g>
     <g id="text_9">
      <!-- 25 -->
      <g transform="translate(274.663212 254.742125) scale(0.12 -0.12)">
       <use xlink:href="#DejaVuSans-32"/>
       <use xlink:href="#DejaVuSans-35" x="63.623047"/>
      </g>
     </g>
    </g>
    <g id="xtick_7">
     <g id="line2d_19">
      <g>
       <use xlink:href="#m08d51d4794" x="323.304672" y="242.124" style="stroke: #000000; stroke-width: 1.5"/>
      </g>
     </g>
     <g id="line2d_20">
      <g>
       <use xlink:href="#mdc04c2f541" x="323.304672" y="10.8" style="stroke: #000000; stroke-width: 1.5"/>
      </g>
     </g>
     <g id="text_10">
      <!-- 30 -->
      <g transform="translate(315.669672 254.742125) scale(0.12 -0.12)">
       <defs>
        <path id="DejaVuSans-33" d="M 2597 2516 
Q 3050 2419 3304 2112 
Q 3559 1806 3559 1356 
Q 3559 666 3084 287 
Q 2609 -91 1734 -91 
Q 1441 -91 1130 -33 
Q 819 25 488 141 
L 488 750 
Q 750 597 1062 519 
Q 1375 441 1716 441 
Q 2309 441 2620 675 
Q 2931 909 2931 1356 
Q 2931 1769 2642 2001 
Q 2353 2234 1838 2234 
L 1294 2234 
L 1294 2753 
L 1863 2753 
Q 2328 2753 2575 2939 
Q 2822 3125 2822 3475 
Q 2822 3834 2567 4026 
Q 2313 4219 1838 4219 
Q 1578 4219 1281 4162 
Q 984 4106 628 3988 
L 628 4550 
Q 988 4650 1302 4700 
Q 1616 4750 1894 4750 
Q 2613 4750 3031 4423 
Q 3450 4097 3450 3541 
Q 3450 3153 3228 2886 
Q 3006 2619 2597 2516 
z
" transform="scale(0.015625)"/>
       </defs>
       <use xlink:href="#DejaVuSans-33"/>
       <use xlink:href="#DejaVuSans-30" x="63.623047"/>
      </g>
     </g>
    </g>
    <g id="xtick_8">
     <g id="line2d_21">
      <g>
       <use xlink:href="#m08d51d4794" x="364.311132" y="242.124" style="stroke: #000000; stroke-width: 1.5"/>
      </g>
     </g>
     <g id="line2d_22">
      <g>
       <use xlink:href="#mdc04c2f541" x="364.311132" y="10.8" style="stroke: #000000; stroke-width: 1.5"/>
      </g>
     </g>
     <g id="text_11">
      <!-- 35 -->
      <g transform="translate(356.676132 254.742125) scale(0.12 -0.12)">
       <use xlink:href="#DejaVuSans-33"/>
       <use xlink:href="#DejaVuSans-35" x="63.623047"/>
      </g>
     </g>
    </g>
    <g id="xtick_9">
     <g id="line2d_23">
      <g>
       <use xlink:href="#m08d51d4794" x="405.317593" y="242.124" style="stroke: #000000; stroke-width: 1.5"/>
      </g>
     </g>
     <g id="line2d_24">
      <g>
       <use xlink:href="#mdc04c2f541" x="405.317593" y="10.8" style="stroke: #000000; stroke-width: 1.5"/>
      </g>
     </g>
     <g id="text_12">
      <!-- 40 -->
      <g transform="translate(397.682593 254.742125) scale(0.12 -0.12)">
       <defs>
        <path id="DejaVuSans-34" d="M 2419 4116 
L 825 1625 
L 2419 1625 
L 2419 4116 
z
M 2253 4666 
L 3047 4666 
L 3047 1625 
L 3713 1625 
L 3713 1100 
L 3047 1100 
L 3047 0 
L 2419 0 
L 2419 1100 
L 313 1100 
L 313 1709 
L 2253 4666 
z
" transform="scale(0.015625)"/>
       </defs>
       <use xlink:href="#DejaVuSans-34"/>
       <use xlink:href="#DejaVuSans-30" x="63.623047"/>
      </g>
     </g>
    </g>
    <g id="xtick_10">
     <g id="line2d_25">
      <defs>
       <path id="m57d1581943" d="M 0 0 
L 0 -2 
" style="stroke: #000000; stroke-width: 1.5"/>
      </defs>
      <g>
       <use xlink:href="#m57d1581943" x="85.467202" y="242.124" style="stroke: #000000; stroke-width: 1.5"/>
      </g>
     </g>
     <g id="line2d_26">
      <defs>
       <path id="m67b5d21d30" d="M 0 0 
L 0 2 
" style="stroke: #000000; stroke-width: 1.5"/>
      </defs>
      <g>
       <use xlink:href="#m67b5d21d30" x="85.467202" y="10.8" style="stroke: #000000; stroke-width: 1.5"/>
      </g>
     </g>
    </g>
    <g id="xtick_11">
     <g id="line2d_27">
      <g>
       <use xlink:href="#m57d1581943" x="93.668494" y="242.124" style="stroke: #000000; stroke-width: 1.5"/>
      </g>
     </g>
     <g id="line2d_28">
      <g>
       <use xlink:href="#m67b5d21d30" x="93.668494" y="10.8" style="stroke: #000000; stroke-width: 1.5"/>
      </g>
     </g>
    </g>
    <g id="xtick_12">
     <g id="line2d_29">
      <g>
       <use xlink:href="#m57d1581943" x="101.869786" y="242.124" style="stroke: #000000; stroke-width: 1.5"/>
      </g>
     </g>
     <g id="line2d_30">
      <g>
       <use xlink:href="#m67b5d21d30" x="101.869786" y="10.8" style="stroke: #000000; stroke-width: 1.5"/>
      </g>
     </g>
    </g>
    <g id="xtick_13">
     <g id="line2d_31">
      <g>
       <use xlink:href="#m57d1581943" x="110.071078" y="242.124" style="stroke: #000000; stroke-width: 1.5"/>
      </g>
     </g>
     <g id="line2d_32">
      <g>
       <use xlink:href="#m67b5d21d30" x="110.071078" y="10.8" style="stroke: #000000; stroke-width: 1.5"/>
      </g>
     </g>
    </g>
    <g id="xtick_14">
     <g id="line2d_33">
      <g>
       <use xlink:href="#m57d1581943" x="126.473662" y="242.124" style="stroke: #000000; stroke-width: 1.5"/>
      </g>
     </g>
     <g id="line2d_34">
      <g>
       <use xlink:href="#m67b5d21d30" x="126.473662" y="10.8" style="stroke: #000000; stroke-width: 1.5"/>
      </g>
     </g>
    </g>
    <g id="xtick_15">
     <g id="line2d_35">
      <g>
       <use xlink:href="#m57d1581943" x="134.674955" y="242.124" style="stroke: #000000; stroke-width: 1.5"/>
      </g>
     </g>
     <g id="line2d_36">
      <g>
       <use xlink:href="#m67b5d21d30" x="134.674955" y="10.8" style="stroke: #000000; stroke-width: 1.5"/>
      </g>
     </g>
    </g>
    <g id="xtick_16">
     <g id="line2d_37">
      <g>
       <use xlink:href="#m57d1581943" x="142.876247" y="242.124" style="stroke: #000000; stroke-width: 1.5"/>
      </g>
     </g>
     <g id="line2d_38">
      <g>
       <use xlink:href="#m67b5d21d30" x="142.876247" y="10.8" style="stroke: #000000; stroke-width: 1.5"/>
      </g>
     </g>
    </g>
    <g id="xtick_17">
     <g id="line2d_39">
      <g>
       <use xlink:href="#m57d1581943" x="151.077539" y="242.124" style="stroke: #000000; stroke-width: 1.5"/>
      </g>
     </g>
     <g id="line2d_40">
      <g>
       <use xlink:href="#m67b5d21d30" x="151.077539" y="10.8" style="stroke: #000000; stroke-width: 1.5"/>
      </g>
     </g>
    </g>
    <g id="xtick_18">
     <g id="line2d_41">
      <g>
       <use xlink:href="#m57d1581943" x="167.480123" y="242.124" style="stroke: #000000; stroke-width: 1.5"/>
      </g>
     </g>
     <g id="line2d_42">
      <g>
       <use xlink:href="#m67b5d21d30" x="167.480123" y="10.8" style="stroke: #000000; stroke-width: 1.5"/>
      </g>
     </g>
    </g>
    <g id="xtick_19">
     <g id="line2d_43">
      <g>
       <use xlink:href="#m57d1581943" x="175.681415" y="242.124" style="stroke: #000000; stroke-width: 1.5"/>
      </g>
     </g>
     <g id="line2d_44">
      <g>
       <use xlink:href="#m67b5d21d30" x="175.681415" y="10.8" style="stroke: #000000; stroke-width: 1.5"/>
      </g>
     </g>
    </g>
    <g id="xtick_20">
     <g id="line2d_45">
      <g>
       <use xlink:href="#m57d1581943" x="183.882707" y="242.124" style="stroke: #000000; stroke-width: 1.5"/>
      </g>
     </g>
     <g id="line2d_46">
      <g>
       <use xlink:href="#m67b5d21d30" x="183.882707" y="10.8" style="stroke: #000000; stroke-width: 1.5"/>
      </g>
     </g>
    </g>
    <g id="xtick_21">
     <g id="line2d_47">
      <g>
       <use xlink:href="#m57d1581943" x="192.083999" y="242.124" style="stroke: #000000; stroke-width: 1.5"/>
      </g>
     </g>
     <g id="line2d_48">
      <g>
       <use xlink:href="#m67b5d21d30" x="192.083999" y="10.8" style="stroke: #000000; stroke-width: 1.5"/>
      </g>
     </g>
    </g>
    <g id="xtick_22">
     <g id="line2d_49">
      <g>
       <use xlink:href="#m57d1581943" x="208.486583" y="242.124" style="stroke: #000000; stroke-width: 1.5"/>
      </g>
     </g>
     <g id="line2d_50">
      <g>
       <use xlink:href="#m67b5d21d30" x="208.486583" y="10.8" style="stroke: #000000; stroke-width: 1.5"/>
      </g>
     </g>
    </g>
    <g id="xtick_23">
     <g id="line2d_51">
      <g>
       <use xlink:href="#m57d1581943" x="216.687875" y="242.124" style="stroke: #000000; stroke-width: 1.5"/>
      </g>
     </g>
     <g id="line2d_52">
      <g>
       <use xlink:href="#m67b5d21d30" x="216.687875" y="10.8" style="stroke: #000000; stroke-width: 1.5"/>
      </g>
     </g>
    </g>
    <g id="xtick_24">
     <g id="line2d_53">
      <g>
       <use xlink:href="#m57d1581943" x="224.889167" y="242.124" style="stroke: #000000; stroke-width: 1.5"/>
      </g>
     </g>
     <g id="line2d_54">
      <g>
       <use xlink:href="#m67b5d21d30" x="224.889167" y="10.8" style="stroke: #000000; stroke-width: 1.5"/>
      </g>
     </g>
    </g>
    <g id="xtick_25">
     <g id="line2d_55">
      <g>
       <use xlink:href="#m57d1581943" x="233.090459" y="242.124" style="stroke: #000000; stroke-width: 1.5"/>
      </g>
     </g>
     <g id="line2d_56">
      <g>
       <use xlink:href="#m67b5d21d30" x="233.090459" y="10.8" style="stroke: #000000; stroke-width: 1.5"/>
      </g>
     </g>
    </g>
    <g id="xtick_26">
     <g id="line2d_57">
      <g>
       <use xlink:href="#m57d1581943" x="249.493043" y="242.124" style="stroke: #000000; stroke-width: 1.5"/>
      </g>
     </g>
     <g id="line2d_58">
      <g>
       <use xlink:href="#m67b5d21d30" x="249.493043" y="10.8" style="stroke: #000000; stroke-width: 1.5"/>
      </g>
     </g>
    </g>
    <g id="xtick_27">
     <g id="line2d_59">
      <g>
       <use xlink:href="#m57d1581943" x="257.694335" y="242.124" style="stroke: #000000; stroke-width: 1.5"/>
      </g>
     </g>
     <g id="line2d_60">
      <g>
       <use xlink:href="#m67b5d21d30" x="257.694335" y="10.8" style="stroke: #000000; stroke-width: 1.5"/>
      </g>
     </g>
    </g>
    <g id="xtick_28">
     <g id="line2d_61">
      <g>
       <use xlink:href="#m57d1581943" x="265.895628" y="242.124" style="stroke: #000000; stroke-width: 1.5"/>
      </g>
     </g>
     <g id="line2d_62">
      <g>
       <use xlink:href="#m67b5d21d30" x="265.895628" y="10.8" style="stroke: #000000; stroke-width: 1.5"/>
      </g>
     </g>
    </g>
    <g id="xtick_29">
     <g id="line2d_63">
      <g>
       <use xlink:href="#m57d1581943" x="274.09692" y="242.124" style="stroke: #000000; stroke-width: 1.5"/>
      </g>
     </g>
     <g id="line2d_64">
      <g>
       <use xlink:href="#m67b5d21d30" x="274.09692" y="10.8" style="stroke: #000000; stroke-width: 1.5"/>
      </g>
     </g>
    </g>
    <g id="xtick_30">
     <g id="line2d_65">
      <g>
       <use xlink:href="#m57d1581943" x="290.499504" y="242.124" style="stroke: #000000; stroke-width: 1.5"/>
      </g>
     </g>
     <g id="line2d_66">
      <g>
       <use xlink:href="#m67b5d21d30" x="290.499504" y="10.8" style="stroke: #000000; stroke-width: 1.5"/>
      </g>
     </g>
    </g>
    <g id="xtick_31">
     <g id="line2d_67">
      <g>
       <use xlink:href="#m57d1581943" x="298.700796" y="242.124" style="stroke: #000000; stroke-width: 1.5"/>
      </g>
     </g>
     <g id="line2d_68">
      <g>
       <use xlink:href="#m67b5d21d30" x="298.700796" y="10.8" style="stroke: #000000; stroke-width: 1.5"/>
      </g>
     </g>
    </g>
    <g id="xtick_32">
     <g id="line2d_69">
      <g>
       <use xlink:href="#m57d1581943" x="306.902088" y="242.124" style="stroke: #000000; stroke-width: 1.5"/>
      </g>
     </g>
     <g id="line2d_70">
      <g>
       <use xlink:href="#m67b5d21d30" x="306.902088" y="10.8" style="stroke: #000000; stroke-width: 1.5"/>
      </g>
     </g>
    </g>
    <g id="xtick_33">
     <g id="line2d_71">
      <g>
       <use xlink:href="#m57d1581943" x="315.10338" y="242.124" style="stroke: #000000; stroke-width: 1.5"/>
      </g>
     </g>
     <g id="line2d_72">
      <g>
       <use xlink:href="#m67b5d21d30" x="315.10338" y="10.8" style="stroke: #000000; stroke-width: 1.5"/>
      </g>
     </g>
    </g>
    <g id="xtick_34">
     <g id="line2d_73">
      <g>
       <use xlink:href="#m57d1581943" x="331.505964" y="242.124" style="stroke: #000000; stroke-width: 1.5"/>
      </g>
     </g>
     <g id="line2d_74">
      <g>
       <use xlink:href="#m67b5d21d30" x="331.505964" y="10.8" style="stroke: #000000; stroke-width: 1.5"/>
      </g>
     </g>
    </g>
    <g id="xtick_35">
     <g id="line2d_75">
      <g>
       <use xlink:href="#m57d1581943" x="339.707256" y="242.124" style="stroke: #000000; stroke-width: 1.5"/>
      </g>
     </g>
     <g id="line2d_76">
      <g>
       <use xlink:href="#m67b5d21d30" x="339.707256" y="10.8" style="stroke: #000000; stroke-width: 1.5"/>
      </g>
     </g>
    </g>
    <g id="xtick_36">
     <g id="line2d_77">
      <g>
       <use xlink:href="#m57d1581943" x="347.908548" y="242.124" style="stroke: #000000; stroke-width: 1.5"/>
      </g>
     </g>
     <g id="line2d_78">
      <g>
       <use xlink:href="#m67b5d21d30" x="347.908548" y="10.8" style="stroke: #000000; stroke-width: 1.5"/>
      </g>
     </g>
    </g>
    <g id="xtick_37">
     <g id="line2d_79">
      <g>
       <use xlink:href="#m57d1581943" x="356.10984" y="242.124" style="stroke: #000000; stroke-width: 1.5"/>
      </g>
     </g>
     <g id="line2d_80">
      <g>
       <use xlink:href="#m67b5d21d30" x="356.10984" y="10.8" style="stroke: #000000; stroke-width: 1.5"/>
      </g>
     </g>
    </g>
    <g id="xtick_38">
     <g id="line2d_81">
      <g>
       <use xlink:href="#m57d1581943" x="372.512424" y="242.124" style="stroke: #000000; stroke-width: 1.5"/>
      </g>
     </g>
     <g id="line2d_82">
      <g>
       <use xlink:href="#m67b5d21d30" x="372.512424" y="10.8" style="stroke: #000000; stroke-width: 1.5"/>
      </g>
     </g>
    </g>
    <g id="xtick_39">
     <g id="line2d_83">
      <g>
       <use xlink:href="#m57d1581943" x="380.713716" y="242.124" style="stroke: #000000; stroke-width: 1.5"/>
      </g>
     </g>
     <g id="line2d_84">
      <g>
       <use xlink:href="#m67b5d21d30" x="380.713716" y="10.8" style="stroke: #000000; stroke-width: 1.5"/>
      </g>
     </g>
    </g>
    <g id="xtick_40">
     <g id="line2d_85">
      <g>
       <use xlink:href="#m57d1581943" x="388.915008" y="242.124" style="stroke: #000000; stroke-width: 1.5"/>
      </g>
     </g>
     <g id="line2d_86">
      <g>
       <use xlink:href="#m67b5d21d30" x="388.915008" y="10.8" style="stroke: #000000; stroke-width: 1.5"/>
      </g>
     </g>
    </g>
    <g id="xtick_41">
     <g id="line2d_87">
      <g>
       <use xlink:href="#m57d1581943" x="397.116301" y="242.124" style="stroke: #000000; stroke-width: 1.5"/>
      </g>
     </g>
     <g id="line2d_88">
      <g>
       <use xlink:href="#m67b5d21d30" x="397.116301" y="10.8" style="stroke: #000000; stroke-width: 1.5"/>
      </g>
     </g>
    </g>
    <g id="xtick_42">
     <g id="line2d_89">
      <g>
       <use xlink:href="#m57d1581943" x="413.518885" y="242.124" style="stroke: #000000; stroke-width: 1.5"/>
      </g>
     </g>
     <g id="line2d_90">
      <g>
       <use xlink:href="#m67b5d21d30" x="413.518885" y="10.8" style="stroke: #000000; stroke-width: 1.5"/>
      </g>
     </g>
    </g>
    <g id="text_13">
     <!-- Distance [R$_\odot$] -->
     <g transform="translate(204.253259 270.355875) scale(0.12 -0.12)">
      <defs>
       <path id="DejaVuSans-44" d="M 1259 4147 
L 1259 519 
L 2022 519 
Q 2988 519 3436 956 
Q 3884 1394 3884 2338 
Q 3884 3275 3436 3711 
Q 2988 4147 2022 4147 
L 1259 4147 
z
M 628 4666 
L 1925 4666 
Q 3281 4666 3915 4102 
Q 4550 3538 4550 2338 
Q 4550 1131 3912 565 
Q 3275 0 1925 0 
L 628 0 
L 628 4666 
z
" transform="scale(0.015625)"/>
       <path id="DejaVuSans-63" d="M 3122 3366 
L 3122 2828 
Q 2878 2963 2633 3030 
Q 2388 3097 2138 3097 
Q 1578 3097 1268 2742 
Q 959 2388 959 1747 
Q 959 1106 1268 751 
Q 1578 397 2138 397 
Q 2388 397 2633 464 
Q 2878 531 3122 666 
L 3122 134 
Q 2881 22 2623 -34 
Q 2366 -91 2075 -91 
Q 1284 -91 818 406 
Q 353 903 353 1747 
Q 353 2603 823 3093 
Q 1294 3584 2113 3584 
Q 2378 3584 2631 3529 
Q 2884 3475 3122 3366 
z
" transform="scale(0.015625)"/>
       <path id="DejaVuSans-65" d="M 3597 1894 
L 3597 1613 
L 953 1613 
Q 991 1019 1311 708 
Q 1631 397 2203 397 
Q 2534 397 2845 478 
Q 3156 559 3463 722 
L 3463 178 
Q 3153 47 2828 -22 
Q 2503 -91 2169 -91 
Q 1331 -91 842 396 
Q 353 884 353 1716 
Q 353 2575 817 3079 
Q 1281 3584 2069 3584 
Q 2775 3584 3186 3129 
Q 3597 2675 3597 1894 
z
M 3022 2063 
Q 3016 2534 2758 2815 
Q 2500 3097 2075 3097 
Q 1594 3097 1305 2825 
Q 1016 2553 972 2059 
L 3022 2063 
z
" transform="scale(0.015625)"/>
       <path id="DejaVuSans-5b" d="M 550 4863 
L 1875 4863 
L 1875 4416 
L 1125 4416 
L 1125 -397 
L 1875 -397 
L 1875 -844 
L 550 -844 
L 550 4863 
z
" transform="scale(0.015625)"/>
       <path id="DejaVuSans-52" d="M 2841 2188 
Q 3044 2119 3236 1894 
Q 3428 1669 3622 1275 
L 4263 0 
L 3584 0 
L 2988 1197 
Q 2756 1666 2539 1819 
Q 2322 1972 1947 1972 
L 1259 1972 
L 1259 0 
L 628 0 
L 628 4666 
L 2053 4666 
Q 2853 4666 3247 4331 
Q 3641 3997 3641 3322 
Q 3641 2881 3436 2590 
Q 3231 2300 2841 2188 
z
M 1259 4147 
L 1259 2491 
L 2053 2491 
Q 2509 2491 2742 2702 
Q 2975 2913 2975 3322 
Q 2975 3731 2742 3939 
Q 2509 4147 2053 4147 
L 1259 4147 
z
" transform="scale(0.015625)"/>
       <path id="DejaVuSans-2299" d="M 2350 2403 
L 3013 2403 
L 3013 1609 
L 2350 1609 
L 2350 2403 
z
M 3306 3522 
Q 3016 3644 2681 3644 
Q 2347 3644 2056 3522 
Q 1769 3400 1531 3163 
Q 1291 2922 1172 2634 
Q 1053 2347 1053 2006 
Q 1053 1675 1172 1387 
Q 1291 1100 1531 859 
Q 1769 622 2056 500 
Q 2347 378 2681 378 
Q 3016 378 3306 500 
Q 3594 622 3831 859 
Q 4072 1100 4190 1387 
Q 4309 1675 4309 2006 
Q 4309 2347 4190 2634 
Q 4072 2922 3831 3163 
Q 3594 3400 3306 3522 
z
M 1878 3956 
Q 2250 4113 2681 4113 
Q 3113 4113 3484 3956 
Q 3856 3800 4163 3494 
Q 4472 3184 4625 2813 
Q 4778 2444 4778 2006 
Q 4778 1578 4625 1206 
Q 4472 838 4163 528 
Q 3856 222 3484 65 
Q 3113 -91 2681 -91 
Q 2250 -91 1878 65 
Q 1506 222 1200 528 
Q 891 838 738 1206 
Q 584 1578 584 2006 
Q 584 2444 738 2813 
Q 891 3184 1200 3494 
Q 1506 3800 1878 3956 
z
" transform="scale(0.015625)"/>
       <path id="DejaVuSans-5d" d="M 1947 4863 
L 1947 -844 
L 622 -844 
L 622 -397 
L 1369 -397 
L 1369 4416 
L 622 4416 
L 622 4863 
L 1947 4863 
z
" transform="scale(0.015625)"/>
      </defs>
      <use xlink:href="#DejaVuSans-44" transform="translate(0 0.015625)"/>
      <use xlink:href="#DejaVuSans-69" transform="translate(77.001953 0.015625)"/>
      <use xlink:href="#DejaVuSans-73" transform="translate(104.785156 0.015625)"/>
      <use xlink:href="#DejaVuSans-74" transform="translate(156.884766 0.015625)"/>
      <use xlink:href="#DejaVuSans-61" transform="translate(196.09375 0.015625)"/>
      <use xlink:href="#DejaVuSans-6e" transform="translate(257.373047 0.015625)"/>
      <use xlink:href="#DejaVuSans-63" transform="translate(320.751953 0.015625)"/>
      <use xlink:href="#DejaVuSans-65" transform="translate(375.732422 0.015625)"/>
      <use xlink:href="#DejaVuSans-20" transform="translate(437.255859 0.015625)"/>
      <use xlink:href="#DejaVuSans-5b" transform="translate(469.042969 0.015625)"/>
      <use xlink:href="#DejaVuSans-52" transform="translate(504.931641 0.015625)"/>
      <use xlink:href="#DejaVuSans-2299" transform="translate(589.008789 -16.390625) scale(0.7)"/>
      <use xlink:href="#DejaVuSans-5d" transform="translate(664.033203 0.015625)"/>
     </g>
    </g>
   </g>
   <g id="matplotlib.axis_2">
    <g id="ytick_1">
     <g id="line2d_91">
      <defs>
       <path id="m9dacdcf32e" d="M 0 0 
L 3.5 0 
" style="stroke: #000000; stroke-width: 1.5"/>
      </defs>
      <g>
       <use xlink:href="#m9dacdcf32e" x="71.786518" y="223.22198" style="stroke: #000000; stroke-width: 1.5"/>
      </g>
     </g>
     <g id="line2d_92">
      <defs>
       <path id="mf6230bf95b" d="M 0 0 
L -3.5 0 
" style="stroke: #000000; stroke-width: 1.5"/>
      </defs>
      <g>
       <use xlink:href="#mf6230bf95b" x="421.2" y="223.22198" style="stroke: #000000; stroke-width: 1.5"/>
      </g>
     </g>
     <g id="text_14">
      <!-- $\mathdefault{10^{-16}}$ -->
      <g transform="translate(34.806518 227.781042) scale(0.12 -0.12)">
       <defs>
        <path id="DejaVuSans-2212" d="M 678 2272 
L 4684 2272 
L 4684 1741 
L 678 1741 
L 678 2272 
z
" transform="scale(0.015625)"/>
        <path id="DejaVuSans-36" d="M 2113 2584 
Q 1688 2584 1439 2293 
Q 1191 2003 1191 1497 
Q 1191 994 1439 701 
Q 1688 409 2113 409 
Q 2538 409 2786 701 
Q 3034 994 3034 1497 
Q 3034 2003 2786 2293 
Q 2538 2584 2113 2584 
z
M 3366 4563 
L 3366 3988 
Q 3128 4100 2886 4159 
Q 2644 4219 2406 4219 
Q 1781 4219 1451 3797 
Q 1122 3375 1075 2522 
Q 1259 2794 1537 2939 
Q 1816 3084 2150 3084 
Q 2853 3084 3261 2657 
Q 3669 2231 3669 1497 
Q 3669 778 3244 343 
Q 2819 -91 2113 -91 
Q 1303 -91 875 529 
Q 447 1150 447 2328 
Q 447 3434 972 4092 
Q 1497 4750 2381 4750 
Q 2619 4750 2861 4703 
Q 3103 4656 3366 4563 
z
" transform="scale(0.015625)"/>
       </defs>
       <use xlink:href="#DejaVuSans-31" transform="translate(0 0.765625)"/>
       <use xlink:href="#DejaVuSans-30" transform="translate(63.623047 0.765625)"/>
       <use xlink:href="#DejaVuSans-2212" transform="translate(128.203125 39.046875) scale(0.7)"/>
       <use xlink:href="#DejaVuSans-31" transform="translate(186.855469 39.046875) scale(0.7)"/>
       <use xlink:href="#DejaVuSans-36" transform="translate(231.391602 39.046875) scale(0.7)"/>
      </g>
     </g>
    </g>
    <g id="ytick_2">
     <g id="line2d_93">
      <g>
       <use xlink:href="#m9dacdcf32e" x="71.786518" y="158.85153" style="stroke: #000000; stroke-width: 1.5"/>
      </g>
     </g>
     <g id="line2d_94">
      <g>
       <use xlink:href="#mf6230bf95b" x="421.2" y="158.85153" style="stroke: #000000; stroke-width: 1.5"/>
      </g>
     </g>
     <g id="text_15">
      <!-- $\mathdefault{10^{-15}}$ -->
      <g transform="translate(34.806518 163.410592) scale(0.12 -0.12)">
       <use xlink:href="#DejaVuSans-31" transform="translate(0 0.684375)"/>
       <use xlink:href="#DejaVuSans-30" transform="translate(63.623047 0.684375)"/>
       <use xlink:href="#DejaVuSans-2212" transform="translate(128.203125 38.965625) scale(0.7)"/>
       <use xlink:href="#DejaVuSans-31" transform="translate(186.855469 38.965625) scale(0.7)"/>
       <use xlink:href="#DejaVuSans-35" transform="translate(231.391602 38.965625) scale(0.7)"/>
      </g>
     </g>
    </g>
    <g id="ytick_3">
     <g id="line2d_95">
      <g>
       <use xlink:href="#m9dacdcf32e" x="71.786518" y="94.48108" style="stroke: #000000; stroke-width: 1.5"/>
      </g>
     </g>
     <g id="line2d_96">
      <g>
       <use xlink:href="#mf6230bf95b" x="421.2" y="94.48108" style="stroke: #000000; stroke-width: 1.5"/>
      </g>
     </g>
     <g id="text_16">
      <!-- $\mathdefault{10^{-14}}$ -->
      <g transform="translate(34.806518 99.040142) scale(0.12 -0.12)">
       <use xlink:href="#DejaVuSans-31" transform="translate(0 0.684375)"/>
       <use xlink:href="#DejaVuSans-30" transform="translate(63.623047 0.684375)"/>
       <use xlink:href="#DejaVuSans-2212" transform="translate(128.203125 38.965625) scale(0.7)"/>
       <use xlink:href="#DejaVuSans-31" transform="translate(186.855469 38.965625) scale(0.7)"/>
       <use xlink:href="#DejaVuSans-34" transform="translate(231.391602 38.965625) scale(0.7)"/>
      </g>
     </g>
    </g>
    <g id="ytick_4">
     <g id="line2d_97">
      <g>
       <use xlink:href="#m9dacdcf32e" x="71.786518" y="30.11063" style="stroke: #000000; stroke-width: 1.5"/>
      </g>
     </g>
     <g id="line2d_98">
      <g>
       <use xlink:href="#mf6230bf95b" x="421.2" y="30.11063" style="stroke: #000000; stroke-width: 1.5"/>
      </g>
     </g>
     <g id="text_17">
      <!-- $\mathdefault{10^{-13}}$ -->
      <g transform="translate(34.806518 34.669692) scale(0.12 -0.12)">
       <use xlink:href="#DejaVuSans-31" transform="translate(0 0.765625)"/>
       <use xlink:href="#DejaVuSans-30" transform="translate(63.623047 0.765625)"/>
       <use xlink:href="#DejaVuSans-2212" transform="translate(128.203125 39.046875) scale(0.7)"/>
       <use xlink:href="#DejaVuSans-31" transform="translate(186.855469 39.046875) scale(0.7)"/>
       <use xlink:href="#DejaVuSans-33" transform="translate(231.391602 39.046875) scale(0.7)"/>
      </g>
     </g>
    </g>
    <g id="ytick_5">
     <g id="line2d_99">
      <defs>
       <path id="m020e7c23d3" d="M 0 0 
L 2 0 
" style="stroke: #000000; stroke-width: 1.5"/>
      </defs>
      <g>
       <use xlink:href="#m020e7c23d3" x="71.786518" y="237.502484" style="stroke: #000000; stroke-width: 1.5"/>
      </g>
     </g>
     <g id="line2d_100">
      <defs>
       <path id="m56bb59968b" d="M 0 0 
L -2 0 
" style="stroke: #000000; stroke-width: 1.5"/>
      </defs>
      <g>
       <use xlink:href="#m56bb59968b" x="421.2" y="237.502484" style="stroke: #000000; stroke-width: 1.5"/>
      </g>
     </g>
    </g>
    <g id="ytick_6">
     <g id="line2d_101">
      <g>
       <use xlink:href="#m020e7c23d3" x="71.786518" y="233.193089" style="stroke: #000000; stroke-width: 1.5"/>
      </g>
     </g>
     <g id="line2d_102">
      <g>
       <use xlink:href="#m56bb59968b" x="421.2" y="233.193089" style="stroke: #000000; stroke-width: 1.5"/>
      </g>
     </g>
    </g>
    <g id="ytick_7">
     <g id="line2d_103">
      <g>
       <use xlink:href="#m020e7c23d3" x="71.786518" y="229.460121" style="stroke: #000000; stroke-width: 1.5"/>
      </g>
     </g>
     <g id="line2d_104">
      <g>
       <use xlink:href="#m56bb59968b" x="421.2" y="229.460121" style="stroke: #000000; stroke-width: 1.5"/>
      </g>
     </g>
    </g>
    <g id="ytick_8">
     <g id="line2d_105">
      <g>
       <use xlink:href="#m020e7c23d3" x="71.786518" y="226.16741" style="stroke: #000000; stroke-width: 1.5"/>
      </g>
     </g>
     <g id="line2d_106">
      <g>
       <use xlink:href="#m56bb59968b" x="421.2" y="226.16741" style="stroke: #000000; stroke-width: 1.5"/>
      </g>
     </g>
    </g>
    <g id="ytick_9">
     <g id="line2d_107">
      <g>
       <use xlink:href="#m020e7c23d3" x="71.786518" y="203.844544" style="stroke: #000000; stroke-width: 1.5"/>
      </g>
     </g>
     <g id="line2d_108">
      <g>
       <use xlink:href="#m56bb59968b" x="421.2" y="203.844544" style="stroke: #000000; stroke-width: 1.5"/>
      </g>
     </g>
    </g>
    <g id="ytick_10">
     <g id="line2d_109">
      <g>
       <use xlink:href="#m020e7c23d3" x="71.786518" y="192.50947" style="stroke: #000000; stroke-width: 1.5"/>
      </g>
     </g>
     <g id="line2d_110">
      <g>
       <use xlink:href="#m56bb59968b" x="421.2" y="192.50947" style="stroke: #000000; stroke-width: 1.5"/>
      </g>
     </g>
    </g>
    <g id="ytick_11">
     <g id="line2d_111">
      <g>
       <use xlink:href="#m020e7c23d3" x="71.786518" y="184.467107" style="stroke: #000000; stroke-width: 1.5"/>
      </g>
     </g>
     <g id="line2d_112">
      <g>
       <use xlink:href="#m56bb59968b" x="421.2" y="184.467107" style="stroke: #000000; stroke-width: 1.5"/>
      </g>
     </g>
    </g>
    <g id="ytick_12">
     <g id="line2d_113">
      <g>
       <use xlink:href="#m020e7c23d3" x="71.786518" y="178.228966" style="stroke: #000000; stroke-width: 1.5"/>
      </g>
     </g>
     <g id="line2d_114">
      <g>
       <use xlink:href="#m56bb59968b" x="421.2" y="178.228966" style="stroke: #000000; stroke-width: 1.5"/>
      </g>
     </g>
    </g>
    <g id="ytick_13">
     <g id="line2d_115">
      <g>
       <use xlink:href="#m020e7c23d3" x="71.786518" y="173.132034" style="stroke: #000000; stroke-width: 1.5"/>
      </g>
     </g>
     <g id="line2d_116">
      <g>
       <use xlink:href="#m56bb59968b" x="421.2" y="173.132034" style="stroke: #000000; stroke-width: 1.5"/>
      </g>
     </g>
    </g>
    <g id="ytick_14">
     <g id="line2d_117">
      <g>
       <use xlink:href="#m020e7c23d3" x="71.786518" y="168.822639" style="stroke: #000000; stroke-width: 1.5"/>
      </g>
     </g>
     <g id="line2d_118">
      <g>
       <use xlink:href="#m56bb59968b" x="421.2" y="168.822639" style="stroke: #000000; stroke-width: 1.5"/>
      </g>
     </g>
    </g>
    <g id="ytick_15">
     <g id="line2d_119">
      <g>
       <use xlink:href="#m020e7c23d3" x="71.786518" y="165.089671" style="stroke: #000000; stroke-width: 1.5"/>
      </g>
     </g>
     <g id="line2d_120">
      <g>
       <use xlink:href="#m56bb59968b" x="421.2" y="165.089671" style="stroke: #000000; stroke-width: 1.5"/>
      </g>
     </g>
    </g>
    <g id="ytick_16">
     <g id="line2d_121">
      <g>
       <use xlink:href="#m020e7c23d3" x="71.786518" y="161.79696" style="stroke: #000000; stroke-width: 1.5"/>
      </g>
     </g>
     <g id="line2d_122">
      <g>
       <use xlink:href="#m56bb59968b" x="421.2" y="161.79696" style="stroke: #000000; stroke-width: 1.5"/>
      </g>
     </g>
    </g>
    <g id="ytick_17">
     <g id="line2d_123">
      <g>
       <use xlink:href="#m020e7c23d3" x="71.786518" y="139.474094" style="stroke: #000000; stroke-width: 1.5"/>
      </g>
     </g>
     <g id="line2d_124">
      <g>
       <use xlink:href="#m56bb59968b" x="421.2" y="139.474094" style="stroke: #000000; stroke-width: 1.5"/>
      </g>
     </g>
    </g>
    <g id="ytick_18">
     <g id="line2d_125">
      <g>
       <use xlink:href="#m020e7c23d3" x="71.786518" y="128.13902" style="stroke: #000000; stroke-width: 1.5"/>
      </g>
     </g>
     <g id="line2d_126">
      <g>
       <use xlink:href="#m56bb59968b" x="421.2" y="128.13902" style="stroke: #000000; stroke-width: 1.5"/>
      </g>
     </g>
    </g>
    <g id="ytick_19">
     <g id="line2d_127">
      <g>
       <use xlink:href="#m020e7c23d3" x="71.786518" y="120.096657" style="stroke: #000000; stroke-width: 1.5"/>
      </g>
     </g>
     <g id="line2d_128">
      <g>
       <use xlink:href="#m56bb59968b" x="421.2" y="120.096657" style="stroke: #000000; stroke-width: 1.5"/>
      </g>
     </g>
    </g>
    <g id="ytick_20">
     <g id="line2d_129">
      <g>
       <use xlink:href="#m020e7c23d3" x="71.786518" y="113.858516" style="stroke: #000000; stroke-width: 1.5"/>
      </g>
     </g>
     <g id="line2d_130">
      <g>
       <use xlink:href="#m56bb59968b" x="421.2" y="113.858516" style="stroke: #000000; stroke-width: 1.5"/>
      </g>
     </g>
    </g>
    <g id="ytick_21">
     <g id="line2d_131">
      <g>
       <use xlink:href="#m020e7c23d3" x="71.786518" y="108.761584" style="stroke: #000000; stroke-width: 1.5"/>
      </g>
     </g>
     <g id="line2d_132">
      <g>
       <use xlink:href="#m56bb59968b" x="421.2" y="108.761584" style="stroke: #000000; stroke-width: 1.5"/>
      </g>
     </g>
    </g>
    <g id="ytick_22">
     <g id="line2d_133">
      <g>
       <use xlink:href="#m020e7c23d3" x="71.786518" y="104.452189" style="stroke: #000000; stroke-width: 1.5"/>
      </g>
     </g>
     <g id="line2d_134">
      <g>
       <use xlink:href="#m56bb59968b" x="421.2" y="104.452189" style="stroke: #000000; stroke-width: 1.5"/>
      </g>
     </g>
    </g>
    <g id="ytick_23">
     <g id="line2d_135">
      <g>
       <use xlink:href="#m020e7c23d3" x="71.786518" y="100.719221" style="stroke: #000000; stroke-width: 1.5"/>
      </g>
     </g>
     <g id="line2d_136">
      <g>
       <use xlink:href="#m56bb59968b" x="421.2" y="100.719221" style="stroke: #000000; stroke-width: 1.5"/>
      </g>
     </g>
    </g>
    <g id="ytick_24">
     <g id="line2d_137">
      <g>
       <use xlink:href="#m020e7c23d3" x="71.786518" y="97.42651" style="stroke: #000000; stroke-width: 1.5"/>
      </g>
     </g>
     <g id="line2d_138">
      <g>
       <use xlink:href="#m56bb59968b" x="421.2" y="97.42651" style="stroke: #000000; stroke-width: 1.5"/>
      </g>
     </g>
    </g>
    <g id="ytick_25">
     <g id="line2d_139">
      <g>
       <use xlink:href="#m020e7c23d3" x="71.786518" y="75.103644" style="stroke: #000000; stroke-width: 1.5"/>
      </g>
     </g>
     <g id="line2d_140">
      <g>
       <use xlink:href="#m56bb59968b" x="421.2" y="75.103644" style="stroke: #000000; stroke-width: 1.5"/>
      </g>
     </g>
    </g>
    <g id="ytick_26">
     <g id="line2d_141">
      <g>
       <use xlink:href="#m020e7c23d3" x="71.786518" y="63.76857" style="stroke: #000000; stroke-width: 1.5"/>
      </g>
     </g>
     <g id="line2d_142">
      <g>
       <use xlink:href="#m56bb59968b" x="421.2" y="63.76857" style="stroke: #000000; stroke-width: 1.5"/>
      </g>
     </g>
    </g>
    <g id="ytick_27">
     <g id="line2d_143">
      <g>
       <use xlink:href="#m020e7c23d3" x="71.786518" y="55.726207" style="stroke: #000000; stroke-width: 1.5"/>
      </g>
     </g>
     <g id="line2d_144">
      <g>
       <use xlink:href="#m56bb59968b" x="421.2" y="55.726207" style="stroke: #000000; stroke-width: 1.5"/>
      </g>
     </g>
    </g>
    <g id="ytick_28">
     <g id="line2d_145">
      <g>
       <use xlink:href="#m020e7c23d3" x="71.786518" y="49.488066" style="stroke: #000000; stroke-width: 1.5"/>
      </g>
     </g>
     <g id="line2d_146">
      <g>
       <use xlink:href="#m56bb59968b" x="421.2" y="49.488066" style="stroke: #000000; stroke-width: 1.5"/>
      </g>
     </g>
    </g>
    <g id="ytick_29">
     <g id="line2d_147">
      <g>
       <use xlink:href="#m020e7c23d3" x="71.786518" y="44.391134" style="stroke: #000000; stroke-width: 1.5"/>
      </g>
     </g>
     <g id="line2d_148">
      <g>
       <use xlink:href="#m56bb59968b" x="421.2" y="44.391134" style="stroke: #000000; stroke-width: 1.5"/>
      </g>
     </g>
    </g>
    <g id="ytick_30">
     <g id="line2d_149">
      <g>
       <use xlink:href="#m020e7c23d3" x="71.786518" y="40.081739" style="stroke: #000000; stroke-width: 1.5"/>
      </g>
     </g>
     <g id="line2d_150">
      <g>
       <use xlink:href="#m56bb59968b" x="421.2" y="40.081739" style="stroke: #000000; stroke-width: 1.5"/>
      </g>
     </g>
    </g>
    <g id="ytick_31">
     <g id="line2d_151">
      <g>
       <use xlink:href="#m020e7c23d3" x="71.786518" y="36.348771" style="stroke: #000000; stroke-width: 1.5"/>
      </g>
     </g>
     <g id="line2d_152">
      <g>
       <use xlink:href="#m56bb59968b" x="421.2" y="36.348771" style="stroke: #000000; stroke-width: 1.5"/>
      </g>
     </g>
    </g>
    <g id="ytick_32">
     <g id="line2d_153">
      <g>
       <use xlink:href="#m020e7c23d3" x="71.786518" y="33.05606" style="stroke: #000000; stroke-width: 1.5"/>
      </g>
     </g>
     <g id="line2d_154">
      <g>
       <use xlink:href="#m56bb59968b" x="421.2" y="33.05606" style="stroke: #000000; stroke-width: 1.5"/>
      </g>
     </g>
    </g>
    <g id="text_18">
     <!-- $\dot{M}$ [M$_\odot$ yr$^{-1}$] -->
     <g transform="translate(28.286518 163.122) rotate(-90) scale(0.12 -0.12)">
      <defs>
       <path id="DejaVuSans-307" d="M -1894 4863 
L -1319 4863 
L -1319 4134 
L -1894 4134 
L -1894 4863 
z
M -1600 3584 
L -1600 3584 
z
" transform="scale(0.015625)"/>
       <path id="DejaVuSans-Oblique-4d" d="M 1081 4666 
L 2028 4666 
L 2572 1522 
L 4378 4666 
L 5350 4666 
L 4441 0 
L 3828 0 
L 4622 4091 
L 2791 897 
L 2175 897 
L 1581 4103 
L 788 0 
L 172 0 
L 1081 4666 
z
" transform="scale(0.015625)"/>
       <path id="DejaVuSans-4d" d="M 628 4666 
L 1569 4666 
L 2759 1491 
L 3956 4666 
L 4897 4666 
L 4897 0 
L 4281 0 
L 4281 4097 
L 3078 897 
L 2444 897 
L 1241 4097 
L 1241 0 
L 628 0 
L 628 4666 
z
" transform="scale(0.015625)"/>
       <path id="DejaVuSans-79" d="M 2059 -325 
Q 1816 -950 1584 -1140 
Q 1353 -1331 966 -1331 
L 506 -1331 
L 506 -850 
L 844 -850 
Q 1081 -850 1212 -737 
Q 1344 -625 1503 -206 
L 1606 56 
L 191 3500 
L 800 3500 
L 1894 763 
L 2988 3500 
L 3597 3500 
L 2059 -325 
z
" transform="scale(0.015625)"/>
       <path id="DejaVuSans-72" d="M 2631 2963 
Q 2534 3019 2420 3045 
Q 2306 3072 2169 3072 
Q 1681 3072 1420 2755 
Q 1159 2438 1159 1844 
L 1159 0 
L 581 0 
L 581 3500 
L 1159 3500 
L 1159 2956 
Q 1341 3275 1631 3429 
Q 1922 3584 2338 3584 
Q 2397 3584 2469 3576 
Q 2541 3569 2628 3553 
L 2631 2963 
z
" transform="scale(0.015625)"/>
      </defs>
      <use xlink:href="#DejaVuSans-307" transform="translate(79.163574 30.015625)"/>
      <use xlink:href="#DejaVuSans-Oblique-4d" transform="translate(0 0.609375)"/>
      <use xlink:href="#DejaVuSans-20" transform="translate(86.279297 0.609375)"/>
      <use xlink:href="#DejaVuSans-5b" transform="translate(118.066406 0.609375)"/>
      <use xlink:href="#DejaVuSans-4d" transform="translate(157.080078 0.609375)"/>
      <use xlink:href="#DejaVuSans-2299" transform="translate(257.954102 -15.796875) scale(0.7)"/>
      <use xlink:href="#DejaVuSans-20" transform="translate(332.978516 0.609375)"/>
      <use xlink:href="#DejaVuSans-79" transform="translate(364.765625 0.609375)"/>
      <use xlink:href="#DejaVuSans-72" transform="translate(423.945312 0.609375)"/>
      <use xlink:href="#DejaVuSans-2212" transform="translate(466.015625 38.890625) scale(0.7)"/>
      <use xlink:href="#DejaVuSans-31" transform="translate(524.667969 38.890625) scale(0.7)"/>
      <use xlink:href="#DejaVuSans-5d" transform="translate(571.938477 0.609375)"/>
     </g>
    </g>
   </g>
  </g>
 </g>
 <defs>
  <clipPath id="pb98f5001c3">
   <rect x="71.786518" y="10.8" width="349.413482" height="231.324"/>
  </clipPath>
 </defs>
</svg>
