<?xml version="1.0" encoding="utf-8" standalone="no"?>
<!DOCTYPE svg PUBLIC "-//W3C//DTD SVG 1.1//EN"
  "http://www.w3.org/Graphics/SVG/1.1/DTD/svg11.dtd">
<svg xmlns:xlink="http://www.w3.org/1999/xlink" width="432pt" height="288pt" viewBox="0 0 432 288" xmlns="http://www.w3.org/2000/svg" version="1.1">
 <metadata>
  <rdf:RDF xmlns:dc="http://purl.org/dc/elements/1.1/" xmlns:cc="http://creativecommons.org/ns#" xmlns:rdf="http://www.w3.org/1999/02/22-rdf-syntax-ns#">
   <cc:Work>
    <dc:type rdf:resource="http://purl.org/dc/dcmitype/StillImage"/>
    <dc:date>2022-12-05T13:48:22.730856</dc:date>
    <dc:format>image/svg+xml</dc:format>
    <dc:creator>
     <cc:Agent>
      <dc:title>Matplotlib v3.6.1, https://matplotlib.org/</dc:title>
     </cc:Agent>
    </dc:creator>
   </cc:Work>
  </rdf:RDF>
 </metadata>
 <defs>
  <style type="text/css">*{stroke-linejoin: round; stroke-linecap: butt}</style>
 </defs>
 <g id="figure_1">
  <g id="patch_1">
   <path d="M 0 288 
L 432 288 
L 432 0 
L 0 0 
z
" style="fill: #ffffff"/>
  </g>
  <g id="axes_1">
   <g id="patch_2">
    <path d="M 71.786518 242.124 
L 421.2 242.124 
L 421.2 10.8 
L 71.786518 10.8 
z
" style="fill: #ffffff"/>
   </g>
   <g id="patch_3">
    <path d="M 71.786518 242.124 
L 71.786518 10.8 
" style="fill: none; stroke: #000000; stroke-width: 1.5; stroke-linejoin: miter; stroke-linecap: square"/>
   </g>
   <g id="patch_4">
    <path d="M 421.2 242.124 
L 421.2 10.8 
" style="fill: none; stroke: #000000; stroke-width: 1.5; stroke-linejoin: miter; stroke-linecap: square"/>
   </g>
   <g id="patch_5">
    <path d="M 71.786518 242.124 
L 421.2 242.124 
" style="fill: none; stroke: #000000; stroke-width: 1.5; stroke-linejoin: miter; stroke-linecap: square"/>
   </g>
   <g id="patch_6">
    <path d="M 71.786518 10.8 
L 421.2 10.8 
" style="fill: none; stroke: #000000; stroke-width: 1.5; stroke-linejoin: miter; stroke-linecap: square"/>
   </g>
   <g id="PolyCollection_1">
    <path d="M 208.454443 53.340711 
L 208.454443 93.905973 
L 208.936947 100.260503 
L 209.788492 129.187145 
L 210.621583 74.378803 
L 211.474032 78.585423 
L 212.258131 76.968843 
L 213.089932 76.482756 
L 213.899972 72.941615 
L 214.764708 75.17121 
L 215.555786 74.171391 
L 216.377325 76.977574 
L 217.245502 83.777513 
L 218.019877 83.122123 
L 218.832626 85.161979 
L 219.703421 86.458988 
L 220.476619 85.828777 
L 221.29512 85.23727 
L 222.119509 92.551423 
L 222.934755 96.219908 
L 223.79541 106.06602 
L 224.602136 96.836083 
L 225.396132 96.456471 
L 226.28365 92.300955 
L 227.027837 89.879734 
L 227.876705 93.211535 
L 228.704306 97.606764 
L 229.526541 92.191726 
L 230.345001 100.499357 
L 231.144342 101.680991 
L 232.006524 160.794725 
L 232.78998 103.83363 
L 233.630706 64939.180709 
L 234.41644 85.071527 
L 235.286284 76.888075 
L 236.105312 96.773533 
L 236.876374 94.386296 
L 237.726275 73.497394 
L 238.542867 61.610123 
L 239.422208 101.244282 
L 240.194219 64939.180709 
L 240.995833 64939.180709 
L 241.823439 70.591041 
L 242.682602 106.965527 
L 243.44636 141.927073 
L 244.4134 89.595485 
L 245.045815 96.396788 
L 245.932608 105.165189 
L 246.759693 140.288534 
L 247.57737 64939.180709 
L 248.423628 178.308772 
L 249.213467 64939.180709 
L 250.042678 231.609273 
L 250.843733 121.289488 
L 251.63493 103.320181 
L 252.480387 117.288717 
L 253.295073 108.092476 
L 254.133917 96.247653 
L 254.971768 90.338624 
L 255.76029 89.574309 
L 256.606834 91.093511 
L 257.426868 85.457923 
L 258.26672 88.794094 
L 259.033509 98.784359 
L 259.949008 84.789027 
L 260.688638 109.012653 
L 261.534678 83.166172 
L 262.355923 88.543921 
L 263.158879 82.943831 
L 263.990582 73.838959 
L 264.829573 78.554643 
L 265.658671 81.305404 
L 266.457184 83.662039 
L 267.349977 91.212778 
L 268.105329 101.904912 
L 268.952064 92.747742 
L 269.663342 91.587623 
L 270.560316 88.604196 
L 271.397021 83.819377 
L 272.206286 92.427012 
L 273.029112 76.882332 
L 273.761105 85.981903 
L 274.676078 88.776834 
L 275.487113 91.433887 
L 276.334291 82.084702 
L 277.153676 87.564937 
L 277.969952 98.738966 
L 278.797092 85.970138 
L 279.587813 78.294392 
L 280.36462 80.954782 
L 281.328662 75.276498 
L 282.084249 84.558098 
L 282.866421 78.800584 
L 283.698245 82.580843 
L 284.511463 73.733618 
L 285.349922 83.333456 
L 286.286101 64939.180709 
L 286.984963 64939.180709 
L 287.815026 64939.180709 
L 288.611263 64939.180709 
L 289.464657 64939.180709 
L 290.225713 64939.180709 
L 291.080379 64939.180709 
L 291.906996 64939.180709 
L 292.745973 64939.180709 
L 293.568456 64939.180709 
L 294.347956 64939.180709 
L 295.176551 64939.180709 
L 296.169527 64939.180709 
L 296.838038 64939.180709 
L 297.625597 64939.180709 
L 298.527652 64939.180709 
L 299.313208 64939.180709 
L 300.155346 64939.180709 
L 300.93522 213.660225 
L 301.71885 155.805791 
L 302.469423 128.026953 
L 303.403356 64939.180709 
L 304.266761 64939.180709 
L 305.083589 159.949892 
L 305.898049 64939.180709 
L 306.639457 184.968453 
L 307.441905 64939.180709 
L 308.315393 64939.180709 
L 309.137676 64939.180709 
L 309.955333 64939.180709 
L 310.765641 170.851802 
L 311.682232 64939.180709 
L 312.405539 64939.180709 
L 313.268848 64939.180709 
L 314.068688 138.62194 
L 314.874417 173.586482 
L 315.72086 64939.180709 
L 316.540652 190.387314 
L 317.319044 64939.180709 
L 318.165376 64939.180709 
L 318.95905 64939.180709 
L 319.805198 64939.180709 
L 320.623849 64939.180709 
L 321.440012 64939.180709 
L 322.29653 152.822775 
L 323.083063 64939.180709 
L 323.883434 64939.180709 
L 324.745872 64939.180709 
L 325.545859 64939.180709 
L 326.369648 64939.180709 
L 327.205777 64939.180709 
L 328.013922 64939.180709 
L 328.790257 64939.180709 
L 329.504201 64939.180709 
L 330.600225 64939.180709 
L 331.306373 64939.180709 
L 332.102256 64939.180709 
L 332.941583 64939.180709 
L 333.810515 64939.180709 
L 334.569859 140.781207 
L 335.394901 164.833703 
L 336.235972 130.387834 
L 337.038178 143.314682 
L 337.844508 149.953262 
L 338.700613 129.053057 
L 339.506439 112.950259 
L 340.328943 120.081359 
L 341.144887 143.728651 
L 341.966846 64939.180709 
L 342.817555 198.191234 
L 343.627437 197.743144 
L 344.433315 64939.180709 
L 345.249327 64939.180709 
L 346.103863 64939.180709 
L 346.888474 135.153537 
L 347.702745 131.415043 
L 348.516659 142.637362 
L 349.358087 123.054553 
L 350.166696 138.718981 
L 351.026008 64939.180709 
L 351.836555 149.089119 
L 352.665933 116.368112 
L 353.448797 115.114758 
L 354.271118 201.589982 
L 355.103967 126.854904 
L 355.922 110.203875 
L 356.764912 129.508001 
L 357.557955 132.981235 
L 358.382249 116.266358 
L 359.22543 98.763283 
L 360.072765 127.740466 
L 360.856001 187.270487 
L 361.673897 124.513014 
L 362.497809 136.857245 
L 363.253125 107.90426 
L 364.165673 112.910525 
L 364.945099 64939.180709 
L 365.754311 136.388405 
L 366.586034 143.927424 
L 367.441527 130.060506 
L 368.233446 97.885946 
L 369.018649 97.858361 
L 369.869672 88.036368 
L 370.70358 100.513697 
L 371.488528 109.863295 
L 372.345438 108.932518 
L 373.146713 114.000218 
L 373.990424 108.779398 
L 374.83762 103.267884 
L 375.617876 109.392227 
L 376.475358 64939.180709 
L 377.242361 119.310665 
L 378.104477 64939.180709 
L 378.933672 64939.180709 
L 379.700705 99.405676 
L 380.504999 99.379174 
L 381.386031 118.229429 
L 382.095254 112.478612 
L 383.079319 86.002938 
L 383.832614 95.49019 
L 384.770719 104.233192 
L 385.48784 93.894023 
L 386.296909 95.050387 
L 387.113152 98.580655 
L 387.934262 95.236208 
L 388.773234 108.548719 
L 389.600433 121.348005 
L 390.420033 126.206099 
L 391.20897 157.293754 
L 392.020679 106.102751 
L 392.880431 125.830074 
L 393.685383 148.717671 
L 394.508127 171.113329 
L 395.336993 150.537789 
L 396.145497 141.526886 
L 396.953771 133.345893 
L 397.803629 64939.180709 
L 398.590327 179.642851 
L 399.442716 103.679075 
L 400.257889 113.483064 
L 401.068834 64939.180709 
L 401.901623 170.79902 
L 402.709385 146.616781 
L 403.516714 178.420788 
L 404.366456 98.676609 
L 405.191769 201.997758 
L 405.191769 48.351312 
L 405.191769 48.351312 
L 404.366456 65.94435 
L 403.516714 47.748533 
L 402.709385 47.141264 
L 401.901623 51.511454 
L 401.068834 50.840128 
L 400.257889 64.63821 
L 399.442716 69.928866 
L 398.590327 55.865617 
L 397.803629 56.442915 
L 396.953771 61.824749 
L 396.145497 52.272106 
L 395.336993 49.334907 
L 394.508127 51.333338 
L 393.685383 52.325893 
L 392.880431 47.224197 
L 392.020679 47.906508 
L 391.20897 43.349889 
L 390.420033 48.235535 
L 389.600433 43.715475 
L 388.773234 44.915285 
L 387.934262 50.039769 
L 387.113152 46.296887 
L 386.296909 47.399763 
L 385.48784 48.549419 
L 384.770719 48.776624 
L 383.832614 64.476537 
L 383.079319 68.156479 
L 382.095254 43.257876 
L 381.386031 42.50873 
L 380.504999 33.947156 
L 379.700705 45.07681 
L 378.933672 41.499433 
L 378.104477 58.009066 
L 377.242361 62.225656 
L 376.475358 56.641012 
L 375.617876 59.836224 
L 374.83762 61.714378 
L 373.990424 66.695576 
L 373.146713 66.97231 
L 372.345438 68.158342 
L 371.488528 65.008151 
L 370.70358 66.925765 
L 369.869672 64.093171 
L 369.018649 60.670718 
L 368.233446 57.660356 
L 367.441527 64.243875 
L 366.586034 72.264833 
L 365.754311 73.366028 
L 364.945099 65.970918 
L 364.165673 78.727007 
L 363.253125 77.551014 
L 362.497809 66.044429 
L 361.673897 65.922588 
L 360.856001 62.852695 
L 360.072765 64.755814 
L 359.22543 66.706206 
L 358.382249 61.239391 
L 357.557955 64.395341 
L 356.764912 70.925261 
L 355.922 75.830357 
L 355.103967 68.639783 
L 354.271118 59.671822 
L 353.448797 67.471775 
L 352.665933 69.19159 
L 351.836555 62.687161 
L 351.026008 54.476629 
L 350.166696 65.975723 
L 349.358087 68.900168 
L 348.516659 62.377673 
L 347.702745 64.62204 
L 346.888474 65.51927 
L 346.103863 48.076216 
L 345.249327 54.284816 
L 344.433315 60.94486 
L 343.627437 58.948055 
L 342.817555 56.895779 
L 341.966846 49.391716 
L 341.144887 59.446282 
L 340.328943 64.162061 
L 339.506439 68.775722 
L 338.700613 65.835611 
L 337.844508 65.354673 
L 337.038178 64.066586 
L 336.235972 71.818134 
L 335.394901 64.572714 
L 334.569859 68.83388 
L 333.810515 57.359276 
L 332.941583 40.508809 
L 332.102256 52.616447 
L 331.306373 61.354124 
L 330.600225 61.249089 
L 329.504201 36.68633 
L 328.790257 43.189825 
L 328.013922 51.678583 
L 327.205777 52.268526 
L 326.369648 68.235093 
L 325.545859 59.912568 
L 324.745872 63.21218 
L 323.883434 59.816921 
L 323.083063 59.290773 
L 322.29653 63.996203 
L 321.440012 55.296456 
L 320.623849 60.063902 
L 319.805198 60.85556 
L 318.95905 53.760805 
L 318.165376 58.578731 
L 317.319044 59.067379 
L 316.540652 63.010461 
L 315.72086 55.010337 
L 314.874417 62.653763 
L 314.068688 64.460674 
L 313.268848 59.456318 
L 312.405539 57.433502 
L 311.682232 65.768326 
L 310.765641 70.747056 
L 309.955333 67.639425 
L 309.137676 64.116318 
L 308.315393 61.779952 
L 307.441905 63.808759 
L 306.639457 63.952635 
L 305.898049 62.43841 
L 305.083589 64.359426 
L 304.266761 58.012248 
L 303.403356 62.394093 
L 302.469423 62.929633 
L 301.71885 65.401124 
L 300.93522 64.345274 
L 300.155346 62.423507 
L 299.313208 60.644549 
L 298.527652 64.121625 
L 297.625597 55.818306 
L 296.838038 62.610635 
L 296.169527 54.196815 
L 295.176551 52.274059 
L 294.347956 54.545682 
L 293.568456 53.405317 
L 292.745973 54.336438 
L 291.906996 58.154998 
L 291.080379 59.125678 
L 290.225713 48.553188 
L 289.464657 53.884292 
L 288.611263 55.889376 
L 287.815026 55.039039 
L 286.984963 56.173216 
L 286.286101 52.454532 
L 285.349922 51.284499 
L 284.511463 57.62106 
L 283.698245 57.714738 
L 282.866421 57.301597 
L 282.084249 55.562826 
L 281.328662 59.426036 
L 280.36462 55.974102 
L 279.587813 60.581186 
L 278.797092 53.358325 
L 277.969952 52.482726 
L 277.153676 54.78856 
L 276.334291 55.777667 
L 275.487113 50.027918 
L 274.676078 50.380199 
L 273.761105 52.389401 
L 273.029112 55.431408 
L 272.206286 48.033944 
L 271.397021 53.911422 
L 270.560316 49.234172 
L 269.663342 51.541448 
L 268.952064 50.269003 
L 268.105329 50.829053 
L 267.349977 52.120128 
L 266.457184 49.038851 
L 265.658671 48.599218 
L 264.829573 50.801083 
L 263.990582 54.83698 
L 263.158879 52.241332 
L 262.355923 45.637978 
L 261.534678 48.685523 
L 260.688638 46.713347 
L 259.949008 53.061295 
L 259.033509 48.537081 
L 258.26672 53.151043 
L 257.426868 55.911639 
L 256.606834 54.745461 
L 255.76029 54.246051 
L 254.971768 52.877683 
L 254.133917 52.795731 
L 253.295073 49.110554 
L 252.480387 47.929734 
L 251.63493 48.782468 
L 250.843733 48.071975 
L 250.042678 44.970372 
L 249.213467 42.729705 
L 248.423628 43.138983 
L 247.57737 45.396596 
L 246.759693 43.714161 
L 245.932608 50.851011 
L 245.045815 45.783594 
L 244.4134 48.522627 
L 243.44636 37.986011 
L 242.682602 35.621588 
L 241.823439 44.63144 
L 240.995833 29.494968 
L 240.194219 21.314727 
L 239.422208 25.0881 
L 238.542867 29.41061 
L 237.726275 26.776689 
L 236.876374 30.651177 
L 236.105312 39.713532 
L 235.286284 31.475334 
L 234.41644 36.662175 
L 233.630706 38.987086 
L 232.78998 43.711055 
L 232.006524 37.477331 
L 231.144342 38.223153 
L 230.345001 39.331325 
L 229.526541 47.743788 
L 228.704306 49.789547 
L 227.876705 50.554337 
L 227.027837 51.664609 
L 226.28365 50.977689 
L 225.396132 52.117049 
L 224.602136 47.259842 
L 223.79541 47.23605 
L 222.934755 53.082232 
L 222.119509 54.056437 
L 221.29512 57.977838 
L 220.476619 58.771742 
L 219.703421 57.224805 
L 218.832626 54.885219 
L 218.019877 56.841294 
L 217.245502 54.219026 
L 216.377325 53.226902 
L 215.555786 50.924802 
L 214.764708 50.66007 
L 213.899972 52.677955 
L 213.089932 50.450831 
L 212.258131 46.227589 
L 211.474032 48.715813 
L 210.621583 41.158396 
L 209.788492 50.23773 
L 208.936947 58.087125 
L 208.454443 53.340711 
z
" clip-path="url(#p465e1ac1a0)" style="fill: #add8e6; stroke: #add8e6"/>
   </g>
   <g id="line2d_1">
    <path d="M 208.454443 66.956239 
L 208.936947 72.008607 
L 209.788492 68.289395 
L 210.621583 53.188676 
L 211.474032 59.911879 
L 212.258131 57.647765 
L 213.089932 60.598309 
L 213.899972 61.049192 
L 214.764708 60.363186 
L 215.555786 60.24555 
L 217.245502 65.333864 
L 218.019877 67.059913 
L 218.832626 66.186601 
L 219.703421 68.254274 
L 220.476619 69.209384 
L 221.29512 68.47189 
L 222.119509 67.257116 
L 222.934755 67.180574 
L 223.79541 63.606348 
L 224.602136 62.420415 
L 225.396132 66.42906 
L 226.28365 64.73917 
L 227.027837 64.807347 
L 227.876705 64.565165 
L 228.704306 64.679528 
L 229.526541 62.074732 
L 230.345001 55.956591 
L 231.144342 55.080663 
L 232.006524 56.896448 
L 232.78998 60.224609 
L 233.630706 60.530684 
L 234.41644 51.644823 
L 235.286284 45.97201 
L 236.105312 55.878111 
L 236.876374 47.53569 
L 237.726275 41.490744 
L 238.542867 41.194483 
L 239.422208 42.966312 
L 240.194219 43.383742 
L 240.995833 50.358818 
L 241.823439 54.758163 
L 242.682602 53.161195 
L 244.4134 62.236238 
L 245.045815 61.097179 
L 245.932608 66.673418 
L 246.759693 62.556472 
L 247.57737 65.617834 
L 248.423628 62.686014 
L 249.213467 63.0282 
L 250.042678 64.726303 
L 250.843733 65.749749 
L 251.63493 64.633818 
L 252.480387 65.313534 
L 253.295073 65.497993 
L 254.133917 66.950661 
L 254.971768 65.862023 
L 255.76029 66.764286 
L 256.606834 67.489969 
L 257.426868 67.023277 
L 258.26672 65.739797 
L 259.033509 63.797212 
L 259.949008 64.729026 
L 260.688638 63.455444 
L 261.534678 61.010864 
L 262.355923 59.694262 
L 263.158879 63.651652 
L 263.990582 62.786032 
L 264.829573 61.431646 
L 265.658671 60.506219 
L 266.457184 61.39694 
L 267.349977 65.443044 
L 268.105329 66.209392 
L 268.952064 64.24702 
L 269.663342 65.055209 
L 270.560316 62.61313 
L 271.397021 65.117454 
L 272.206286 62.355322 
L 273.029112 64.188678 
L 273.761105 64.507839 
L 274.676078 63.560567 
L 275.487113 63.805135 
L 276.334291 66.003751 
L 277.153676 66.712488 
L 277.969952 67.120538 
L 278.797092 65.242517 
L 279.587813 68.086084 
L 280.36462 65.816204 
L 282.084249 66.528948 
L 282.866421 66.074266 
L 283.698245 67.523074 
L 284.511463 64.555888 
L 285.349922 63.031466 
L 286.286101 76.188653 
L 286.984963 80.275047 
L 287.815026 77.301353 
L 288.611263 78.434772 
L 289.464657 73.730102 
L 290.225713 68.460044 
L 291.080379 83.477208 
L 291.906996 81.476108 
L 292.745973 76.786109 
L 293.568456 75.975342 
L 294.347956 77.670045 
L 295.176551 75.335382 
L 296.169527 77.874596 
L 296.838038 86.365228 
L 297.625597 79.701448 
L 298.527652 84.994026 
L 299.313208 82.409479 
L 300.93522 83.989827 
L 301.71885 84.01785 
L 302.469423 79.943413 
L 303.403356 86.88882 
L 304.266761 80.09566 
L 305.083589 83.168836 
L 305.898049 83.103044 
L 306.639457 83.340235 
L 307.441905 83.923221 
L 308.315393 81.959175 
L 309.955333 89.273169 
L 310.765641 89.698789 
L 311.682232 87.639063 
L 312.405539 80.777656 
L 313.268848 79.493191 
L 314.068688 82.204924 
L 314.874417 81.869628 
L 315.72086 76.909022 
L 316.540652 82.479408 
L 317.319044 79.487368 
L 318.165376 78.564917 
L 318.95905 79.616233 
L 319.805198 86.692153 
L 320.623849 82.900486 
L 321.440012 77.993891 
L 322.29653 82.547302 
L 323.083063 81.244064 
L 323.883434 81.893107 
L 324.745872 84.571356 
L 325.545859 81.057438 
L 326.369648 89.499866 
L 327.205777 78.759783 
L 328.013922 76.593546 
L 329.504201 63.840529 
L 330.600225 83.810966 
L 331.306373 86.043967 
L 332.102256 79.284639 
L 332.941583 69.102998 
L 333.810515 82.070005 
L 334.569859 86.418904 
L 335.394901 83.528992 
L 336.235972 88.158884 
L 337.038178 82.135874 
L 337.844508 83.711866 
L 338.700613 82.669518 
L 339.506439 83.058854 
L 340.328943 80.187979 
L 341.144887 77.787844 
L 341.966846 69.431571 
L 342.817555 76.490965 
L 343.627437 78.524814 
L 344.433315 81.887724 
L 345.249327 78.342666 
L 346.103863 71.916841 
L 346.888474 82.925278 
L 348.516659 80.505371 
L 349.358087 84.701764 
L 350.166696 83.619313 
L 351.026008 75.855913 
L 351.836555 81.130421 
L 352.665933 83.979466 
L 353.448797 82.33418 
L 354.271118 79.271354 
L 355.103967 84.939893 
L 355.922 88.131002 
L 356.764912 87.267497 
L 357.557955 81.71571 
L 358.382249 77.153405 
L 359.22543 78.455167 
L 360.072765 81.566693 
L 360.856001 82.286017 
L 361.673897 82.265699 
L 362.497809 83.54332 
L 363.253125 88.872056 
L 364.165673 90.983677 
L 364.945099 87.08625 
L 365.754311 90.180651 
L 366.586034 89.828536 
L 367.441527 81.323693 
L 368.233446 71.20946 
L 369.018649 73.596839 
L 369.869672 73.626016 
L 370.70358 79.043125 
L 371.488528 79.40961 
L 372.345438 81.814408 
L 373.146713 81.736225 
L 373.990424 80.600384 
L 374.83762 75.519575 
L 375.617876 74.993764 
L 376.475358 76.444868 
L 378.104477 80.338075 
L 378.933672 61.352311 
L 379.700705 60.901125 
L 380.504999 50.991852 
L 381.386031 60.358438 
L 382.095254 60.630448 
L 383.079319 75.70791 
L 383.832614 75.965712 
L 384.770719 64.744895 
L 385.48784 63.034543 
L 386.296909 62.26338 
L 387.113152 61.847198 
L 387.934262 64.499692 
L 388.773234 61.789922 
L 389.600433 61.687345 
L 390.420033 66.228219 
L 391.20897 62.62341 
L 392.020679 64.204441 
L 392.880431 65.255378 
L 393.685383 71.162181 
L 394.508127 70.702953 
L 395.336993 68.318086 
L 396.145497 70.841358 
L 396.953771 79.377787 
L 397.803629 76.389355 
L 398.590327 75.290736 
L 399.442716 82.084404 
L 400.257889 79.687984 
L 401.068834 70.919085 
L 401.901623 70.873686 
L 402.709385 66.074441 
L 403.516714 67.253086 
L 404.366456 77.857642 
L 405.191769 68.01732 
L 405.191769 68.01732 
" clip-path="url(#p465e1ac1a0)" style="fill: none; stroke: #1f77b4; stroke-width: 1.5; stroke-linecap: square"/>
   </g>
   <g id="line2d_2">
    <path d="M 88.654701 289 
L 88.655195 191.521173 
L 88.984023 171.714662 
L 89.640852 150.532284 
L 91.284399 117.204408 
L 92.270764 103.891033 
L 93.257128 94.055551 
L 94.242313 86.815242 
L 95.228677 81.241039 
L 96.213861 76.934224 
L 97.528227 72.528889 
L 98.513412 69.885736 
L 100.156959 66.451106 
L 101.471325 64.320477 
L 102.784511 62.58333 
L 103.770876 61.488741 
L 106.070426 59.443661 
L 107.384792 58.512874 
L 110.997529 56.591282 
L 112.969077 55.811912 
L 114.939446 55.217264 
L 119.210546 54.16464 
L 126.437199 53.060661 
L 128.079566 52.941298 
L 129.721934 52.784687 
L 132.349486 52.599682 
L 135.306219 52.428102 
L 136.620585 52.314318 
L 137.277768 52.306055 
L 139.248137 52.208275 
L 143.518057 52.06363 
L 145.489605 52.007822 
L 146.146788 51.982132 
L 147.131973 51.98978 
L 148.445159 51.913863 
L 149.102342 51.918633 
L 150.744709 51.859172 
L 151.401892 51.884665 
L 154.029444 51.849469 
L 161.91328 51.769856 
L 163.227646 51.798168 
L 164.212831 51.747832 
L 165.198015 51.772979 
L 166.1832 51.740389 
L 167.168384 51.782189 
L 168.48275 51.741371 
L 169.139933 51.758746 
L 170.454299 51.738821 
L 171.110302 51.767166 
L 173.081851 51.739845 
L 173.739034 51.78081 
L 177.351771 51.76706 
L 184.906425 51.809946 
L 186.877974 51.828527 
L 187.533977 51.795414 
L 189.505526 51.841589 
L 190.162709 51.817355 
L 191.475895 51.84253 
L 192.133078 51.824801 
L 193.447444 51.862192 
L 194.432628 51.813879 
L 195.750534 51.863052 
L 196.729819 51.827681 
L 198.051264 51.889647 
L 199.03055 51.864696 
L 200.021633 51.903734 
L 201.33128 51.858622 
L 202.310565 51.912369 
L 203.63201 51.873744 
L 204.611295 51.937121 
L 206.263102 51.889066 
L 206.912026 51.917005 
L 208.233471 51.902567 
L 208.882395 51.935546 
L 210.522402 51.918551 
L 211.183125 51.952078 
L 213.153494 51.935118 
L 213.814217 51.97412 
L 216.445308 51.953842 
L 217.094232 52.005657 
L 221.03497 51.995226 
L 221.695693 52.050867 
L 229.90753 52.055789 
L 277.538547 52.373312 
L 278.517832 52.35199 
L 279.508916 52.394458 
L 280.488201 52.375847 
L 281.479285 52.421032 
L 282.788932 52.37727 
L 283.780015 52.426258 
L 285.089662 52.386555 
L 286.080746 52.437883 
L 287.390392 52.402153 
L 288.051115 52.416755 
L 289.0304 52.40931 
L 289.691122 52.4253 
L 291.000769 52.396323 
L 291.991853 52.455154 
L 293.631861 52.406733 
L 294.622944 52.468777 
L 296.262952 52.425602 
L 296.911876 52.45053 
L 298.233321 52.43002 
L 298.882245 52.455762 
L 300.20369 52.438292 
L 300.852614 52.466209 
L 302.174059 52.451726 
L 302.834782 52.478108 
L 304.47479 52.451213 
L 305.123714 52.482249 
L 306.77552 52.455873 
L 307.424444 52.488541 
L 309.064452 52.469185 
L 309.725174 52.50124 
L 311.695543 52.469427 
L 312.356266 52.502612 
L 314.326635 52.476871 
L 314.987357 52.512532 
L 316.957726 52.491357 
L 317.60665 52.531567 
L 319.907381 52.502478 
L 320.568103 52.541797 
L 323.199195 52.506619 
L 323.848119 52.550746 
L 326.47921 52.524398 
L 327.139933 52.567116 
L 330.419948 52.531 
L 331.080671 52.576763 
L 334.691048 52.543587 
L 335.35177 52.591127 
L 339.292508 52.563949 
L 339.941432 52.616626 
L 345.203615 52.57985 
L 345.864338 52.633824 
L 352.75473 52.605795 
L 353.415453 52.663624 
L 361.957652 52.664923 
L 372.788782 52.727141 
L 404.987208 52.823604 
L 404.987208 52.823604 
" clip-path="url(#p465e1ac1a0)" style="fill: none; stroke: #000000; stroke-width: 2.5; stroke-linecap: square"/>
   </g>
   <g id="line2d_3">
    <path d="M 87.668949 68.55614 
L 87.997659 67.421326 
L 88.655195 67.473273 
L 88.984023 67.892113 
L 89.970033 69.663182 
L 91.941582 72.321223 
L 94.242313 74.301817 
L 95.556678 74.977576 
L 96.543043 75.477795 
L 97.856229 76.083694 
L 100.484961 77.093019 
L 101.142144 77.330567 
L 102.45651 77.812626 
L 105.084062 78.529663 
L 106.727609 78.981257 
L 107.712794 79.157641 
L 108.697978 79.410151 
L 110.997529 79.844761 
L 114.283443 80.33652 
L 118.225361 80.90948 
L 118.881364 80.937391 
L 121.180915 81.185821 
L 122.823282 81.350209 
L 131.0363 81.983761 
L 131.693483 81.985362 
L 133.006669 82.082769 
L 133.991853 82.096045 
L 134.978218 82.192142 
L 137.277768 82.246548 
L 137.933771 82.326896 
L 153.372261 82.674165 
L 154.029444 82.630902 
L 158.956547 82.738276 
L 159.942911 82.693758 
L 161.256097 82.758435 
L 162.241282 82.734313 
L 163.227646 82.782858 
L 164.212831 82.774403 
L 164.870014 82.79452 
L 166.1832 82.779812 
L 166.840383 82.809435 
L 168.154749 82.813484 
L 168.810752 82.853403 
L 171.439484 82.843708 
L 172.096667 82.898127 
L 176.037405 82.954008 
L 195.089811 83.057813 
L 196.069097 83.035836 
L 197.06018 83.077882 
L 198.369827 83.035974 
L 199.360911 83.08746 
L 200.670557 83.057657 
L 201.33128 83.075572 
L 202.640926 83.055857 
L 203.301649 83.078556 
L 204.941657 83.048544 
L 205.602379 83.077097 
L 207.572748 83.044517 
L 208.233471 83.079012 
L 210.852764 83.043734 
L 211.513486 83.085309 
L 215.784586 83.037175 
L 216.445308 83.08922 
L 272.276364 82.859603 
L 273.267448 82.893509 
L 274.577094 82.834795 
L 275.568178 82.872071 
L 276.547463 82.848392 
L 277.208186 82.853048 
L 278.19927 82.828318 
L 278.848193 82.83787 
L 279.839277 82.815434 
L 280.818562 82.863888 
L 282.140008 82.81596 
L 282.788932 82.829052 
L 283.780015 82.812424 
L 284.428939 82.826948 
L 285.750384 82.785891 
L 286.72967 82.842143 
L 288.381476 82.779595 
L 289.0304 82.798468 
L 290.351845 82.765283 
L 291.000769 82.785331 
L 292.322214 82.755859 
L 292.971138 82.777496 
L 294.292583 82.751233 
L 294.941507 82.774877 
L 296.262952 82.751319 
L 296.911876 82.776495 
L 298.563682 82.735128 
L 299.212606 82.76206 
L 300.852614 82.72813 
L 301.513337 82.753768 
L 303.153344 82.724584 
L 303.814067 82.751937 
L 305.784436 82.708319 
L 306.445159 82.738035 
L 308.415528 82.700076 
L 309.064452 82.734132 
L 311.365182 82.685891 
L 312.025904 82.719092 
L 314.326635 82.677938 
L 314.987357 82.713149 
L 317.60665 82.66758 
L 318.267373 82.705402 
L 321.228826 82.65258 
L 321.87775 82.695484 
L 325.169564 82.64117 
L 325.818488 82.686484 
L 329.759226 82.62653 
L 330.419948 82.671452 
L 335.021409 82.610427 
L 335.682132 82.658836 
L 343.893969 82.615337 
L 354.076175 82.60601 
L 405.317569 82.466472 
L 405.317569 82.466472 
" clip-path="url(#p465e1ac1a0)" style="fill: none; stroke-dasharray: 9.25,4; stroke-dashoffset: 0; stroke: #8b0000; stroke-width: 2.5"/>
   </g>
   <g id="legend_1">
    <g id="line2d_4">
     <path d="M 333.95625 198.188062 
L 343.95625 198.188062 
L 353.95625 198.188062 
" style="fill: none; stroke: #1f77b4; stroke-width: 1.5; stroke-linecap: square"/>
    </g>
    <g id="text_1">
     <!-- PSP -->
     <g transform="translate(361.95625 201.688062) scale(0.1 -0.1)">
      <defs>
       <path id="DejaVuSans-50" d="M 1259 4147 
L 1259 2394 
L 2053 2394 
Q 2494 2394 2734 2622 
Q 2975 2850 2975 3272 
Q 2975 3691 2734 3919 
Q 2494 4147 2053 4147 
L 1259 4147 
z
M 628 4666 
L 2053 4666 
Q 2838 4666 3239 4311 
Q 3641 3956 3641 3272 
Q 3641 2581 3239 2228 
Q 2838 1875 2053 1875 
L 1259 1875 
L 1259 0 
L 628 0 
L 628 4666 
z
" transform="scale(0.015625)"/>
       <path id="DejaVuSans-53" d="M 3425 4513 
L 3425 3897 
Q 3066 4069 2747 4153 
Q 2428 4238 2131 4238 
Q 1616 4238 1336 4038 
Q 1056 3838 1056 3469 
Q 1056 3159 1242 3001 
Q 1428 2844 1947 2747 
L 2328 2669 
Q 3034 2534 3370 2195 
Q 3706 1856 3706 1288 
Q 3706 609 3251 259 
Q 2797 -91 1919 -91 
Q 1588 -91 1214 -16 
Q 841 59 441 206 
L 441 856 
Q 825 641 1194 531 
Q 1563 422 1919 422 
Q 2459 422 2753 634 
Q 3047 847 3047 1241 
Q 3047 1584 2836 1778 
Q 2625 1972 2144 2069 
L 1759 2144 
Q 1053 2284 737 2584 
Q 422 2884 422 3419 
Q 422 4038 858 4394 
Q 1294 4750 2059 4750 
Q 2388 4750 2728 4690 
Q 3069 4631 3425 4513 
z
" transform="scale(0.015625)"/>
      </defs>
      <use xlink:href="#DejaVuSans-50"/>
      <use xlink:href="#DejaVuSans-53" x="60.302734"/>
      <use xlink:href="#DejaVuSans-50" x="123.779297"/>
     </g>
    </g>
    <g id="line2d_5">
     <path d="M 333.95625 212.866187 
L 343.95625 212.866187 
L 353.95625 212.866187 
" style="fill: none; stroke: #000000; stroke-width: 2.5; stroke-linecap: square"/>
    </g>
    <g id="text_2">
     <!-- Slow wind -->
     <g transform="translate(361.95625 216.366187) scale(0.1 -0.1)">
      <defs>
       <path id="DejaVuSans-6c" d="M 603 4863 
L 1178 4863 
L 1178 0 
L 603 0 
L 603 4863 
z
" transform="scale(0.015625)"/>
       <path id="DejaVuSans-6f" d="M 1959 3097 
Q 1497 3097 1228 2736 
Q 959 2375 959 1747 
Q 959 1119 1226 758 
Q 1494 397 1959 397 
Q 2419 397 2687 759 
Q 2956 1122 2956 1747 
Q 2956 2369 2687 2733 
Q 2419 3097 1959 3097 
z
M 1959 3584 
Q 2709 3584 3137 3096 
Q 3566 2609 3566 1747 
Q 3566 888 3137 398 
Q 2709 -91 1959 -91 
Q 1206 -91 779 398 
Q 353 888 353 1747 
Q 353 2609 779 3096 
Q 1206 3584 1959 3584 
z
" transform="scale(0.015625)"/>
       <path id="DejaVuSans-77" d="M 269 3500 
L 844 3500 
L 1563 769 
L 2278 3500 
L 2956 3500 
L 3675 769 
L 4391 3500 
L 4966 3500 
L 4050 0 
L 3372 0 
L 2619 2869 
L 1863 0 
L 1184 0 
L 269 3500 
z
" transform="scale(0.015625)"/>
       <path id="DejaVuSans-20" transform="scale(0.015625)"/>
       <path id="DejaVuSans-69" d="M 603 3500 
L 1178 3500 
L 1178 0 
L 603 0 
L 603 3500 
z
M 603 4863 
L 1178 4863 
L 1178 4134 
L 603 4134 
L 603 4863 
z
" transform="scale(0.015625)"/>
       <path id="DejaVuSans-6e" d="M 3513 2113 
L 3513 0 
L 2938 0 
L 2938 2094 
Q 2938 2591 2744 2837 
Q 2550 3084 2163 3084 
Q 1697 3084 1428 2787 
Q 1159 2491 1159 1978 
L 1159 0 
L 581 0 
L 581 3500 
L 1159 3500 
L 1159 2956 
Q 1366 3272 1645 3428 
Q 1925 3584 2291 3584 
Q 2894 3584 3203 3211 
Q 3513 2838 3513 2113 
z
" transform="scale(0.015625)"/>
       <path id="DejaVuSans-64" d="M 2906 2969 
L 2906 4863 
L 3481 4863 
L 3481 0 
L 2906 0 
L 2906 525 
Q 2725 213 2448 61 
Q 2172 -91 1784 -91 
Q 1150 -91 751 415 
Q 353 922 353 1747 
Q 353 2572 751 3078 
Q 1150 3584 1784 3584 
Q 2172 3584 2448 3432 
Q 2725 3281 2906 2969 
z
M 947 1747 
Q 947 1113 1208 752 
Q 1469 391 1925 391 
Q 2381 391 2643 752 
Q 2906 1113 2906 1747 
Q 2906 2381 2643 2742 
Q 2381 3103 1925 3103 
Q 1469 3103 1208 2742 
Q 947 2381 947 1747 
z
" transform="scale(0.015625)"/>
      </defs>
      <use xlink:href="#DejaVuSans-53"/>
      <use xlink:href="#DejaVuSans-6c" x="63.476562"/>
      <use xlink:href="#DejaVuSans-6f" x="91.259766"/>
      <use xlink:href="#DejaVuSans-77" x="152.441406"/>
      <use xlink:href="#DejaVuSans-20" x="234.228516"/>
      <use xlink:href="#DejaVuSans-77" x="266.015625"/>
      <use xlink:href="#DejaVuSans-69" x="347.802734"/>
      <use xlink:href="#DejaVuSans-6e" x="375.585938"/>
      <use xlink:href="#DejaVuSans-64" x="438.964844"/>
     </g>
    </g>
    <g id="line2d_6">
     <path d="M 333.95625 227.544312 
L 343.95625 227.544312 
L 353.95625 227.544312 
" style="fill: none; stroke-dasharray: 9.25,4; stroke-dashoffset: 0; stroke: #8b0000; stroke-width: 2.5"/>
    </g>
    <g id="text_3">
     <!-- Fast wind -->
     <g transform="translate(361.95625 231.044312) scale(0.1 -0.1)">
      <defs>
       <path id="DejaVuSans-46" d="M 628 4666 
L 3309 4666 
L 3309 4134 
L 1259 4134 
L 1259 2759 
L 3109 2759 
L 3109 2228 
L 1259 2228 
L 1259 0 
L 628 0 
L 628 4666 
z
" transform="scale(0.015625)"/>
       <path id="DejaVuSans-61" d="M 2194 1759 
Q 1497 1759 1228 1600 
Q 959 1441 959 1056 
Q 959 750 1161 570 
Q 1363 391 1709 391 
Q 2188 391 2477 730 
Q 2766 1069 2766 1631 
L 2766 1759 
L 2194 1759 
z
M 3341 1997 
L 3341 0 
L 2766 0 
L 2766 531 
Q 2569 213 2275 61 
Q 1981 -91 1556 -91 
Q 1019 -91 701 211 
Q 384 513 384 1019 
Q 384 1609 779 1909 
Q 1175 2209 1959 2209 
L 2766 2209 
L 2766 2266 
Q 2766 2663 2505 2880 
Q 2244 3097 1772 3097 
Q 1472 3097 1187 3025 
Q 903 2953 641 2809 
L 641 3341 
Q 956 3463 1253 3523 
Q 1550 3584 1831 3584 
Q 2591 3584 2966 3190 
Q 3341 2797 3341 1997 
z
" transform="scale(0.015625)"/>
       <path id="DejaVuSans-73" d="M 2834 3397 
L 2834 2853 
Q 2591 2978 2328 3040 
Q 2066 3103 1784 3103 
Q 1356 3103 1142 2972 
Q 928 2841 928 2578 
Q 928 2378 1081 2264 
Q 1234 2150 1697 2047 
L 1894 2003 
Q 2506 1872 2764 1633 
Q 3022 1394 3022 966 
Q 3022 478 2636 193 
Q 2250 -91 1575 -91 
Q 1294 -91 989 -36 
Q 684 19 347 128 
L 347 722 
Q 666 556 975 473 
Q 1284 391 1588 391 
Q 1994 391 2212 530 
Q 2431 669 2431 922 
Q 2431 1156 2273 1281 
Q 2116 1406 1581 1522 
L 1381 1569 
Q 847 1681 609 1914 
Q 372 2147 372 2553 
Q 372 3047 722 3315 
Q 1072 3584 1716 3584 
Q 2034 3584 2315 3537 
Q 2597 3491 2834 3397 
z
" transform="scale(0.015625)"/>
       <path id="DejaVuSans-74" d="M 1172 4494 
L 1172 3500 
L 2356 3500 
L 2356 3053 
L 1172 3053 
L 1172 1153 
Q 1172 725 1289 603 
Q 1406 481 1766 481 
L 2356 481 
L 2356 0 
L 1766 0 
Q 1100 0 847 248 
Q 594 497 594 1153 
L 594 3053 
L 172 3053 
L 172 3500 
L 594 3500 
L 594 4494 
L 1172 4494 
z
" transform="scale(0.015625)"/>
      </defs>
      <use xlink:href="#DejaVuSans-46"/>
      <use xlink:href="#DejaVuSans-61" x="48.394531"/>
      <use xlink:href="#DejaVuSans-73" x="109.673828"/>
      <use xlink:href="#DejaVuSans-74" x="161.773438"/>
      <use xlink:href="#DejaVuSans-20" x="200.982422"/>
      <use xlink:href="#DejaVuSans-77" x="232.769531"/>
      <use xlink:href="#DejaVuSans-69" x="314.556641"/>
      <use xlink:href="#DejaVuSans-6e" x="342.339844"/>
      <use xlink:href="#DejaVuSans-64" x="405.71875"/>
     </g>
    </g>
   </g>
   <g id="matplotlib.axis_1">
    <g id="xtick_1">
     <g id="line2d_7">
      <defs>
       <path id="mc91732e92c" d="M 0 0 
L 0 -3.5 
" style="stroke: #000000; stroke-width: 1.5"/>
      </defs>
      <g>
       <use xlink:href="#mc91732e92c" x="77.257024" y="242.124" style="stroke: #000000; stroke-width: 1.5"/>
      </g>
     </g>
     <g id="line2d_8">
      <defs>
       <path id="m5d37424309" d="M 0 0 
L 0 3.5 
" style="stroke: #000000; stroke-width: 1.5"/>
      </defs>
      <g>
       <use xlink:href="#m5d37424309" x="77.257024" y="10.8" style="stroke: #000000; stroke-width: 1.5"/>
      </g>
     </g>
     <g id="text_4">
      <!-- 0 -->
      <g transform="translate(73.439524 254.742125) scale(0.12 -0.12)">
       <defs>
        <path id="DejaVuSans-30" d="M 2034 4250 
Q 1547 4250 1301 3770 
Q 1056 3291 1056 2328 
Q 1056 1369 1301 889 
Q 1547 409 2034 409 
Q 2525 409 2770 889 
Q 3016 1369 3016 2328 
Q 3016 3291 2770 3770 
Q 2525 4250 2034 4250 
z
M 2034 4750 
Q 2819 4750 3233 4129 
Q 3647 3509 3647 2328 
Q 3647 1150 3233 529 
Q 2819 -91 2034 -91 
Q 1250 -91 836 529 
Q 422 1150 422 2328 
Q 422 3509 836 4129 
Q 1250 4750 2034 4750 
z
" transform="scale(0.015625)"/>
       </defs>
       <use xlink:href="#DejaVuSans-30"/>
      </g>
     </g>
    </g>
    <g id="xtick_2">
     <g id="line2d_9">
      <g>
       <use xlink:href="#mc91732e92c" x="118.298513" y="242.124" style="stroke: #000000; stroke-width: 1.5"/>
      </g>
     </g>
     <g id="line2d_10">
      <g>
       <use xlink:href="#m5d37424309" x="118.298513" y="10.8" style="stroke: #000000; stroke-width: 1.5"/>
      </g>
     </g>
     <g id="text_5">
      <!-- 5 -->
      <g transform="translate(114.481013 254.742125) scale(0.12 -0.12)">
       <defs>
        <path id="DejaVuSans-35" d="M 691 4666 
L 3169 4666 
L 3169 4134 
L 1269 4134 
L 1269 2991 
Q 1406 3038 1543 3061 
Q 1681 3084 1819 3084 
Q 2600 3084 3056 2656 
Q 3513 2228 3513 1497 
Q 3513 744 3044 326 
Q 2575 -91 1722 -91 
Q 1428 -91 1123 -41 
Q 819 9 494 109 
L 494 744 
Q 775 591 1075 516 
Q 1375 441 1709 441 
Q 2250 441 2565 725 
Q 2881 1009 2881 1497 
Q 2881 1984 2565 2268 
Q 2250 2553 1709 2553 
Q 1456 2553 1204 2497 
Q 953 2441 691 2322 
L 691 4666 
z
" transform="scale(0.015625)"/>
       </defs>
       <use xlink:href="#DejaVuSans-35"/>
      </g>
     </g>
    </g>
    <g id="xtick_3">
     <g id="line2d_11">
      <g>
       <use xlink:href="#mc91732e92c" x="159.340002" y="242.124" style="stroke: #000000; stroke-width: 1.5"/>
      </g>
     </g>
     <g id="line2d_12">
      <g>
       <use xlink:href="#m5d37424309" x="159.340002" y="10.8" style="stroke: #000000; stroke-width: 1.5"/>
      </g>
     </g>
     <g id="text_6">
      <!-- 10 -->
      <g transform="translate(151.705002 254.742125) scale(0.12 -0.12)">
       <defs>
        <path id="DejaVuSans-31" d="M 794 531 
L 1825 531 
L 1825 4091 
L 703 3866 
L 703 4441 
L 1819 4666 
L 2450 4666 
L 2450 531 
L 3481 531 
L 3481 0 
L 794 0 
L 794 531 
z
" transform="scale(0.015625)"/>
       </defs>
       <use xlink:href="#DejaVuSans-31"/>
       <use xlink:href="#DejaVuSans-30" x="63.623047"/>
      </g>
     </g>
    </g>
    <g id="xtick_4">
     <g id="line2d_13">
      <g>
       <use xlink:href="#mc91732e92c" x="200.381491" y="242.124" style="stroke: #000000; stroke-width: 1.5"/>
      </g>
     </g>
     <g id="line2d_14">
      <g>
       <use xlink:href="#m5d37424309" x="200.381491" y="10.8" style="stroke: #000000; stroke-width: 1.5"/>
      </g>
     </g>
     <g id="text_7">
      <!-- 15 -->
      <g transform="translate(192.746491 254.742125) scale(0.12 -0.12)">
       <use xlink:href="#DejaVuSans-31"/>
       <use xlink:href="#DejaVuSans-35" x="63.623047"/>
      </g>
     </g>
    </g>
    <g id="xtick_5">
     <g id="line2d_15">
      <g>
       <use xlink:href="#mc91732e92c" x="241.42298" y="242.124" style="stroke: #000000; stroke-width: 1.5"/>
      </g>
     </g>
     <g id="line2d_16">
      <g>
       <use xlink:href="#m5d37424309" x="241.42298" y="10.8" style="stroke: #000000; stroke-width: 1.5"/>
      </g>
     </g>
     <g id="text_8">
      <!-- 20 -->
      <g transform="translate(233.78798 254.742125) scale(0.12 -0.12)">
       <defs>
        <path id="DejaVuSans-32" d="M 1228 531 
L 3431 531 
L 3431 0 
L 469 0 
L 469 531 
Q 828 903 1448 1529 
Q 2069 2156 2228 2338 
Q 2531 2678 2651 2914 
Q 2772 3150 2772 3378 
Q 2772 3750 2511 3984 
Q 2250 4219 1831 4219 
Q 1534 4219 1204 4116 
Q 875 4013 500 3803 
L 500 4441 
Q 881 4594 1212 4672 
Q 1544 4750 1819 4750 
Q 2544 4750 2975 4387 
Q 3406 4025 3406 3419 
Q 3406 3131 3298 2873 
Q 3191 2616 2906 2266 
Q 2828 2175 2409 1742 
Q 1991 1309 1228 531 
z
" transform="scale(0.015625)"/>
       </defs>
       <use xlink:href="#DejaVuSans-32"/>
       <use xlink:href="#DejaVuSans-30" x="63.623047"/>
      </g>
     </g>
    </g>
    <g id="xtick_6">
     <g id="line2d_17">
      <g>
       <use xlink:href="#mc91732e92c" x="282.46447" y="242.124" style="stroke: #000000; stroke-width: 1.5"/>
      </g>
     </g>
     <g id="line2d_18">
      <g>
       <use xlink:href="#m5d37424309" x="282.46447" y="10.8" style="stroke: #000000; stroke-width: 1.5"/>
      </g>
     </g>
     <g id="text_9">
      <!-- 25 -->
      <g transform="translate(274.82947 254.742125) scale(0.12 -0.12)">
       <use xlink:href="#DejaVuSans-32"/>
       <use xlink:href="#DejaVuSans-35" x="63.623047"/>
      </g>
     </g>
    </g>
    <g id="xtick_7">
     <g id="line2d_19">
      <g>
       <use xlink:href="#mc91732e92c" x="323.505959" y="242.124" style="stroke: #000000; stroke-width: 1.5"/>
      </g>
     </g>
     <g id="line2d_20">
      <g>
       <use xlink:href="#m5d37424309" x="323.505959" y="10.8" style="stroke: #000000; stroke-width: 1.5"/>
      </g>
     </g>
     <g id="text_10">
      <!-- 30 -->
      <g transform="translate(315.870959 254.742125) scale(0.12 -0.12)">
       <defs>
        <path id="DejaVuSans-33" d="M 2597 2516 
Q 3050 2419 3304 2112 
Q 3559 1806 3559 1356 
Q 3559 666 3084 287 
Q 2609 -91 1734 -91 
Q 1441 -91 1130 -33 
Q 819 25 488 141 
L 488 750 
Q 750 597 1062 519 
Q 1375 441 1716 441 
Q 2309 441 2620 675 
Q 2931 909 2931 1356 
Q 2931 1769 2642 2001 
Q 2353 2234 1838 2234 
L 1294 2234 
L 1294 2753 
L 1863 2753 
Q 2328 2753 2575 2939 
Q 2822 3125 2822 3475 
Q 2822 3834 2567 4026 
Q 2313 4219 1838 4219 
Q 1578 4219 1281 4162 
Q 984 4106 628 3988 
L 628 4550 
Q 988 4650 1302 4700 
Q 1616 4750 1894 4750 
Q 2613 4750 3031 4423 
Q 3450 4097 3450 3541 
Q 3450 3153 3228 2886 
Q 3006 2619 2597 2516 
z
" transform="scale(0.015625)"/>
       </defs>
       <use xlink:href="#DejaVuSans-33"/>
       <use xlink:href="#DejaVuSans-30" x="63.623047"/>
      </g>
     </g>
    </g>
    <g id="xtick_8">
     <g id="line2d_21">
      <g>
       <use xlink:href="#mc91732e92c" x="364.547448" y="242.124" style="stroke: #000000; stroke-width: 1.5"/>
      </g>
     </g>
     <g id="line2d_22">
      <g>
       <use xlink:href="#m5d37424309" x="364.547448" y="10.8" style="stroke: #000000; stroke-width: 1.5"/>
      </g>
     </g>
     <g id="text_11">
      <!-- 35 -->
      <g transform="translate(356.912448 254.742125) scale(0.12 -0.12)">
       <use xlink:href="#DejaVuSans-33"/>
       <use xlink:href="#DejaVuSans-35" x="63.623047"/>
      </g>
     </g>
    </g>
    <g id="xtick_9">
     <g id="line2d_23">
      <g>
       <use xlink:href="#mc91732e92c" x="405.588937" y="242.124" style="stroke: #000000; stroke-width: 1.5"/>
      </g>
     </g>
     <g id="line2d_24">
      <g>
       <use xlink:href="#m5d37424309" x="405.588937" y="10.8" style="stroke: #000000; stroke-width: 1.5"/>
      </g>
     </g>
     <g id="text_12">
      <!-- 40 -->
      <g transform="translate(397.953937 254.742125) scale(0.12 -0.12)">
       <defs>
        <path id="DejaVuSans-34" d="M 2419 4116 
L 825 1625 
L 2419 1625 
L 2419 4116 
z
M 2253 4666 
L 3047 4666 
L 3047 1625 
L 3713 1625 
L 3713 1100 
L 3047 1100 
L 3047 0 
L 2419 0 
L 2419 1100 
L 313 1100 
L 313 1709 
L 2253 4666 
z
" transform="scale(0.015625)"/>
       </defs>
       <use xlink:href="#DejaVuSans-34"/>
       <use xlink:href="#DejaVuSans-30" x="63.623047"/>
      </g>
     </g>
    </g>
    <g id="xtick_10">
     <g id="line2d_25">
      <defs>
       <path id="m0cf66d1b69" d="M 0 0 
L 0 -2 
" style="stroke: #000000; stroke-width: 1.5"/>
      </defs>
      <g>
       <use xlink:href="#m0cf66d1b69" x="85.465321" y="242.124" style="stroke: #000000; stroke-width: 1.5"/>
      </g>
     </g>
     <g id="line2d_26">
      <defs>
       <path id="mcbf3f64b9f" d="M 0 0 
L 0 2 
" style="stroke: #000000; stroke-width: 1.5"/>
      </defs>
      <g>
       <use xlink:href="#mcbf3f64b9f" x="85.465321" y="10.8" style="stroke: #000000; stroke-width: 1.5"/>
      </g>
     </g>
    </g>
    <g id="xtick_11">
     <g id="line2d_27">
      <g>
       <use xlink:href="#m0cf66d1b69" x="93.673619" y="242.124" style="stroke: #000000; stroke-width: 1.5"/>
      </g>
     </g>
     <g id="line2d_28">
      <g>
       <use xlink:href="#mcbf3f64b9f" x="93.673619" y="10.8" style="stroke: #000000; stroke-width: 1.5"/>
      </g>
     </g>
    </g>
    <g id="xtick_12">
     <g id="line2d_29">
      <g>
       <use xlink:href="#m0cf66d1b69" x="101.881917" y="242.124" style="stroke: #000000; stroke-width: 1.5"/>
      </g>
     </g>
     <g id="line2d_30">
      <g>
       <use xlink:href="#mcbf3f64b9f" x="101.881917" y="10.8" style="stroke: #000000; stroke-width: 1.5"/>
      </g>
     </g>
    </g>
    <g id="xtick_13">
     <g id="line2d_31">
      <g>
       <use xlink:href="#m0cf66d1b69" x="110.090215" y="242.124" style="stroke: #000000; stroke-width: 1.5"/>
      </g>
     </g>
     <g id="line2d_32">
      <g>
       <use xlink:href="#mcbf3f64b9f" x="110.090215" y="10.8" style="stroke: #000000; stroke-width: 1.5"/>
      </g>
     </g>
    </g>
    <g id="xtick_14">
     <g id="line2d_33">
      <g>
       <use xlink:href="#m0cf66d1b69" x="126.506811" y="242.124" style="stroke: #000000; stroke-width: 1.5"/>
      </g>
     </g>
     <g id="line2d_34">
      <g>
       <use xlink:href="#mcbf3f64b9f" x="126.506811" y="10.8" style="stroke: #000000; stroke-width: 1.5"/>
      </g>
     </g>
    </g>
    <g id="xtick_15">
     <g id="line2d_35">
      <g>
       <use xlink:href="#m0cf66d1b69" x="134.715108" y="242.124" style="stroke: #000000; stroke-width: 1.5"/>
      </g>
     </g>
     <g id="line2d_36">
      <g>
       <use xlink:href="#mcbf3f64b9f" x="134.715108" y="10.8" style="stroke: #000000; stroke-width: 1.5"/>
      </g>
     </g>
    </g>
    <g id="xtick_16">
     <g id="line2d_37">
      <g>
       <use xlink:href="#m0cf66d1b69" x="142.923406" y="242.124" style="stroke: #000000; stroke-width: 1.5"/>
      </g>
     </g>
     <g id="line2d_38">
      <g>
       <use xlink:href="#mcbf3f64b9f" x="142.923406" y="10.8" style="stroke: #000000; stroke-width: 1.5"/>
      </g>
     </g>
    </g>
    <g id="xtick_17">
     <g id="line2d_39">
      <g>
       <use xlink:href="#m0cf66d1b69" x="151.131704" y="242.124" style="stroke: #000000; stroke-width: 1.5"/>
      </g>
     </g>
     <g id="line2d_40">
      <g>
       <use xlink:href="#mcbf3f64b9f" x="151.131704" y="10.8" style="stroke: #000000; stroke-width: 1.5"/>
      </g>
     </g>
    </g>
    <g id="xtick_18">
     <g id="line2d_41">
      <g>
       <use xlink:href="#m0cf66d1b69" x="167.5483" y="242.124" style="stroke: #000000; stroke-width: 1.5"/>
      </g>
     </g>
     <g id="line2d_42">
      <g>
       <use xlink:href="#mcbf3f64b9f" x="167.5483" y="10.8" style="stroke: #000000; stroke-width: 1.5"/>
      </g>
     </g>
    </g>
    <g id="xtick_19">
     <g id="line2d_43">
      <g>
       <use xlink:href="#m0cf66d1b69" x="175.756598" y="242.124" style="stroke: #000000; stroke-width: 1.5"/>
      </g>
     </g>
     <g id="line2d_44">
      <g>
       <use xlink:href="#mcbf3f64b9f" x="175.756598" y="10.8" style="stroke: #000000; stroke-width: 1.5"/>
      </g>
     </g>
    </g>
    <g id="xtick_20">
     <g id="line2d_45">
      <g>
       <use xlink:href="#m0cf66d1b69" x="183.964895" y="242.124" style="stroke: #000000; stroke-width: 1.5"/>
      </g>
     </g>
     <g id="line2d_46">
      <g>
       <use xlink:href="#mcbf3f64b9f" x="183.964895" y="10.8" style="stroke: #000000; stroke-width: 1.5"/>
      </g>
     </g>
    </g>
    <g id="xtick_21">
     <g id="line2d_47">
      <g>
       <use xlink:href="#m0cf66d1b69" x="192.173193" y="242.124" style="stroke: #000000; stroke-width: 1.5"/>
      </g>
     </g>
     <g id="line2d_48">
      <g>
       <use xlink:href="#mcbf3f64b9f" x="192.173193" y="10.8" style="stroke: #000000; stroke-width: 1.5"/>
      </g>
     </g>
    </g>
    <g id="xtick_22">
     <g id="line2d_49">
      <g>
       <use xlink:href="#m0cf66d1b69" x="208.589789" y="242.124" style="stroke: #000000; stroke-width: 1.5"/>
      </g>
     </g>
     <g id="line2d_50">
      <g>
       <use xlink:href="#mcbf3f64b9f" x="208.589789" y="10.8" style="stroke: #000000; stroke-width: 1.5"/>
      </g>
     </g>
    </g>
    <g id="xtick_23">
     <g id="line2d_51">
      <g>
       <use xlink:href="#m0cf66d1b69" x="216.798087" y="242.124" style="stroke: #000000; stroke-width: 1.5"/>
      </g>
     </g>
     <g id="line2d_52">
      <g>
       <use xlink:href="#mcbf3f64b9f" x="216.798087" y="10.8" style="stroke: #000000; stroke-width: 1.5"/>
      </g>
     </g>
    </g>
    <g id="xtick_24">
     <g id="line2d_53">
      <g>
       <use xlink:href="#m0cf66d1b69" x="225.006385" y="242.124" style="stroke: #000000; stroke-width: 1.5"/>
      </g>
     </g>
     <g id="line2d_54">
      <g>
       <use xlink:href="#mcbf3f64b9f" x="225.006385" y="10.8" style="stroke: #000000; stroke-width: 1.5"/>
      </g>
     </g>
    </g>
    <g id="xtick_25">
     <g id="line2d_55">
      <g>
       <use xlink:href="#m0cf66d1b69" x="233.214683" y="242.124" style="stroke: #000000; stroke-width: 1.5"/>
      </g>
     </g>
     <g id="line2d_56">
      <g>
       <use xlink:href="#mcbf3f64b9f" x="233.214683" y="10.8" style="stroke: #000000; stroke-width: 1.5"/>
      </g>
     </g>
    </g>
    <g id="xtick_26">
     <g id="line2d_57">
      <g>
       <use xlink:href="#m0cf66d1b69" x="249.631278" y="242.124" style="stroke: #000000; stroke-width: 1.5"/>
      </g>
     </g>
     <g id="line2d_58">
      <g>
       <use xlink:href="#mcbf3f64b9f" x="249.631278" y="10.8" style="stroke: #000000; stroke-width: 1.5"/>
      </g>
     </g>
    </g>
    <g id="xtick_27">
     <g id="line2d_59">
      <g>
       <use xlink:href="#m0cf66d1b69" x="257.839576" y="242.124" style="stroke: #000000; stroke-width: 1.5"/>
      </g>
     </g>
     <g id="line2d_60">
      <g>
       <use xlink:href="#mcbf3f64b9f" x="257.839576" y="10.8" style="stroke: #000000; stroke-width: 1.5"/>
      </g>
     </g>
    </g>
    <g id="xtick_28">
     <g id="line2d_61">
      <g>
       <use xlink:href="#m0cf66d1b69" x="266.047874" y="242.124" style="stroke: #000000; stroke-width: 1.5"/>
      </g>
     </g>
     <g id="line2d_62">
      <g>
       <use xlink:href="#mcbf3f64b9f" x="266.047874" y="10.8" style="stroke: #000000; stroke-width: 1.5"/>
      </g>
     </g>
    </g>
    <g id="xtick_29">
     <g id="line2d_63">
      <g>
       <use xlink:href="#m0cf66d1b69" x="274.256172" y="242.124" style="stroke: #000000; stroke-width: 1.5"/>
      </g>
     </g>
     <g id="line2d_64">
      <g>
       <use xlink:href="#mcbf3f64b9f" x="274.256172" y="10.8" style="stroke: #000000; stroke-width: 1.5"/>
      </g>
     </g>
    </g>
    <g id="xtick_30">
     <g id="line2d_65">
      <g>
       <use xlink:href="#m0cf66d1b69" x="290.672767" y="242.124" style="stroke: #000000; stroke-width: 1.5"/>
      </g>
     </g>
     <g id="line2d_66">
      <g>
       <use xlink:href="#mcbf3f64b9f" x="290.672767" y="10.8" style="stroke: #000000; stroke-width: 1.5"/>
      </g>
     </g>
    </g>
    <g id="xtick_31">
     <g id="line2d_67">
      <g>
       <use xlink:href="#m0cf66d1b69" x="298.881065" y="242.124" style="stroke: #000000; stroke-width: 1.5"/>
      </g>
     </g>
     <g id="line2d_68">
      <g>
       <use xlink:href="#mcbf3f64b9f" x="298.881065" y="10.8" style="stroke: #000000; stroke-width: 1.5"/>
      </g>
     </g>
    </g>
    <g id="xtick_32">
     <g id="line2d_69">
      <g>
       <use xlink:href="#m0cf66d1b69" x="307.089363" y="242.124" style="stroke: #000000; stroke-width: 1.5"/>
      </g>
     </g>
     <g id="line2d_70">
      <g>
       <use xlink:href="#mcbf3f64b9f" x="307.089363" y="10.8" style="stroke: #000000; stroke-width: 1.5"/>
      </g>
     </g>
    </g>
    <g id="xtick_33">
     <g id="line2d_71">
      <g>
       <use xlink:href="#m0cf66d1b69" x="315.297661" y="242.124" style="stroke: #000000; stroke-width: 1.5"/>
      </g>
     </g>
     <g id="line2d_72">
      <g>
       <use xlink:href="#mcbf3f64b9f" x="315.297661" y="10.8" style="stroke: #000000; stroke-width: 1.5"/>
      </g>
     </g>
    </g>
    <g id="xtick_34">
     <g id="line2d_73">
      <g>
       <use xlink:href="#m0cf66d1b69" x="331.714257" y="242.124" style="stroke: #000000; stroke-width: 1.5"/>
      </g>
     </g>
     <g id="line2d_74">
      <g>
       <use xlink:href="#mcbf3f64b9f" x="331.714257" y="10.8" style="stroke: #000000; stroke-width: 1.5"/>
      </g>
     </g>
    </g>
    <g id="xtick_35">
     <g id="line2d_75">
      <g>
       <use xlink:href="#m0cf66d1b69" x="339.922554" y="242.124" style="stroke: #000000; stroke-width: 1.5"/>
      </g>
     </g>
     <g id="line2d_76">
      <g>
       <use xlink:href="#mcbf3f64b9f" x="339.922554" y="10.8" style="stroke: #000000; stroke-width: 1.5"/>
      </g>
     </g>
    </g>
    <g id="xtick_36">
     <g id="line2d_77">
      <g>
       <use xlink:href="#m0cf66d1b69" x="348.130852" y="242.124" style="stroke: #000000; stroke-width: 1.5"/>
      </g>
     </g>
     <g id="line2d_78">
      <g>
       <use xlink:href="#mcbf3f64b9f" x="348.130852" y="10.8" style="stroke: #000000; stroke-width: 1.5"/>
      </g>
     </g>
    </g>
    <g id="xtick_37">
     <g id="line2d_79">
      <g>
       <use xlink:href="#m0cf66d1b69" x="356.33915" y="242.124" style="stroke: #000000; stroke-width: 1.5"/>
      </g>
     </g>
     <g id="line2d_80">
      <g>
       <use xlink:href="#mcbf3f64b9f" x="356.33915" y="10.8" style="stroke: #000000; stroke-width: 1.5"/>
      </g>
     </g>
    </g>
    <g id="xtick_38">
     <g id="line2d_81">
      <g>
       <use xlink:href="#m0cf66d1b69" x="372.755746" y="242.124" style="stroke: #000000; stroke-width: 1.5"/>
      </g>
     </g>
     <g id="line2d_82">
      <g>
       <use xlink:href="#mcbf3f64b9f" x="372.755746" y="10.8" style="stroke: #000000; stroke-width: 1.5"/>
      </g>
     </g>
    </g>
    <g id="xtick_39">
     <g id="line2d_83">
      <g>
       <use xlink:href="#m0cf66d1b69" x="380.964044" y="242.124" style="stroke: #000000; stroke-width: 1.5"/>
      </g>
     </g>
     <g id="line2d_84">
      <g>
       <use xlink:href="#mcbf3f64b9f" x="380.964044" y="10.8" style="stroke: #000000; stroke-width: 1.5"/>
      </g>
     </g>
    </g>
    <g id="xtick_40">
     <g id="line2d_85">
      <g>
       <use xlink:href="#m0cf66d1b69" x="389.172342" y="242.124" style="stroke: #000000; stroke-width: 1.5"/>
      </g>
     </g>
     <g id="line2d_86">
      <g>
       <use xlink:href="#mcbf3f64b9f" x="389.172342" y="10.8" style="stroke: #000000; stroke-width: 1.5"/>
      </g>
     </g>
    </g>
    <g id="xtick_41">
     <g id="line2d_87">
      <g>
       <use xlink:href="#m0cf66d1b69" x="397.380639" y="242.124" style="stroke: #000000; stroke-width: 1.5"/>
      </g>
     </g>
     <g id="line2d_88">
      <g>
       <use xlink:href="#mcbf3f64b9f" x="397.380639" y="10.8" style="stroke: #000000; stroke-width: 1.5"/>
      </g>
     </g>
    </g>
    <g id="xtick_42">
     <g id="line2d_89">
      <g>
       <use xlink:href="#m0cf66d1b69" x="413.797235" y="242.124" style="stroke: #000000; stroke-width: 1.5"/>
      </g>
     </g>
     <g id="line2d_90">
      <g>
       <use xlink:href="#mcbf3f64b9f" x="413.797235" y="10.8" style="stroke: #000000; stroke-width: 1.5"/>
      </g>
     </g>
    </g>
    <g id="text_13">
     <!-- Distance [R$_\odot$] -->
     <g transform="translate(204.253259 270.355875) scale(0.12 -0.12)">
      <defs>
       <path id="DejaVuSans-44" d="M 1259 4147 
L 1259 519 
L 2022 519 
Q 2988 519 3436 956 
Q 3884 1394 3884 2338 
Q 3884 3275 3436 3711 
Q 2988 4147 2022 4147 
L 1259 4147 
z
M 628 4666 
L 1925 4666 
Q 3281 4666 3915 4102 
Q 4550 3538 4550 2338 
Q 4550 1131 3912 565 
Q 3275 0 1925 0 
L 628 0 
L 628 4666 
z
" transform="scale(0.015625)"/>
       <path id="DejaVuSans-63" d="M 3122 3366 
L 3122 2828 
Q 2878 2963 2633 3030 
Q 2388 3097 2138 3097 
Q 1578 3097 1268 2742 
Q 959 2388 959 1747 
Q 959 1106 1268 751 
Q 1578 397 2138 397 
Q 2388 397 2633 464 
Q 2878 531 3122 666 
L 3122 134 
Q 2881 22 2623 -34 
Q 2366 -91 2075 -91 
Q 1284 -91 818 406 
Q 353 903 353 1747 
Q 353 2603 823 3093 
Q 1294 3584 2113 3584 
Q 2378 3584 2631 3529 
Q 2884 3475 3122 3366 
z
" transform="scale(0.015625)"/>
       <path id="DejaVuSans-65" d="M 3597 1894 
L 3597 1613 
L 953 1613 
Q 991 1019 1311 708 
Q 1631 397 2203 397 
Q 2534 397 2845 478 
Q 3156 559 3463 722 
L 3463 178 
Q 3153 47 2828 -22 
Q 2503 -91 2169 -91 
Q 1331 -91 842 396 
Q 353 884 353 1716 
Q 353 2575 817 3079 
Q 1281 3584 2069 3584 
Q 2775 3584 3186 3129 
Q 3597 2675 3597 1894 
z
M 3022 2063 
Q 3016 2534 2758 2815 
Q 2500 3097 2075 3097 
Q 1594 3097 1305 2825 
Q 1016 2553 972 2059 
L 3022 2063 
z
" transform="scale(0.015625)"/>
       <path id="DejaVuSans-5b" d="M 550 4863 
L 1875 4863 
L 1875 4416 
L 1125 4416 
L 1125 -397 
L 1875 -397 
L 1875 -844 
L 550 -844 
L 550 4863 
z
" transform="scale(0.015625)"/>
       <path id="DejaVuSans-52" d="M 2841 2188 
Q 3044 2119 3236 1894 
Q 3428 1669 3622 1275 
L 4263 0 
L 3584 0 
L 2988 1197 
Q 2756 1666 2539 1819 
Q 2322 1972 1947 1972 
L 1259 1972 
L 1259 0 
L 628 0 
L 628 4666 
L 2053 4666 
Q 2853 4666 3247 4331 
Q 3641 3997 3641 3322 
Q 3641 2881 3436 2590 
Q 3231 2300 2841 2188 
z
M 1259 4147 
L 1259 2491 
L 2053 2491 
Q 2509 2491 2742 2702 
Q 2975 2913 2975 3322 
Q 2975 3731 2742 3939 
Q 2509 4147 2053 4147 
L 1259 4147 
z
" transform="scale(0.015625)"/>
       <path id="DejaVuSans-2299" d="M 2350 2403 
L 3013 2403 
L 3013 1609 
L 2350 1609 
L 2350 2403 
z
M 3306 3522 
Q 3016 3644 2681 3644 
Q 2347 3644 2056 3522 
Q 1769 3400 1531 3163 
Q 1291 2922 1172 2634 
Q 1053 2347 1053 2006 
Q 1053 1675 1172 1387 
Q 1291 1100 1531 859 
Q 1769 622 2056 500 
Q 2347 378 2681 378 
Q 3016 378 3306 500 
Q 3594 622 3831 859 
Q 4072 1100 4190 1387 
Q 4309 1675 4309 2006 
Q 4309 2347 4190 2634 
Q 4072 2922 3831 3163 
Q 3594 3400 3306 3522 
z
M 1878 3956 
Q 2250 4113 2681 4113 
Q 3113 4113 3484 3956 
Q 3856 3800 4163 3494 
Q 4472 3184 4625 2813 
Q 4778 2444 4778 2006 
Q 4778 1578 4625 1206 
Q 4472 838 4163 528 
Q 3856 222 3484 65 
Q 3113 -91 2681 -91 
Q 2250 -91 1878 65 
Q 1506 222 1200 528 
Q 891 838 738 1206 
Q 584 1578 584 2006 
Q 584 2444 738 2813 
Q 891 3184 1200 3494 
Q 1506 3800 1878 3956 
z
" transform="scale(0.015625)"/>
       <path id="DejaVuSans-5d" d="M 1947 4863 
L 1947 -844 
L 622 -844 
L 622 -397 
L 1369 -397 
L 1369 4416 
L 622 4416 
L 622 4863 
L 1947 4863 
z
" transform="scale(0.015625)"/>
      </defs>
      <use xlink:href="#DejaVuSans-44" transform="translate(0 0.015625)"/>
      <use xlink:href="#DejaVuSans-69" transform="translate(77.001953 0.015625)"/>
      <use xlink:href="#DejaVuSans-73" transform="translate(104.785156 0.015625)"/>
      <use xlink:href="#DejaVuSans-74" transform="translate(156.884766 0.015625)"/>
      <use xlink:href="#DejaVuSans-61" transform="translate(196.09375 0.015625)"/>
      <use xlink:href="#DejaVuSans-6e" transform="translate(257.373047 0.015625)"/>
      <use xlink:href="#DejaVuSans-63" transform="translate(320.751953 0.015625)"/>
      <use xlink:href="#DejaVuSans-65" transform="translate(375.732422 0.015625)"/>
      <use xlink:href="#DejaVuSans-20" transform="translate(437.255859 0.015625)"/>
      <use xlink:href="#DejaVuSans-5b" transform="translate(469.042969 0.015625)"/>
      <use xlink:href="#DejaVuSans-52" transform="translate(504.931641 0.015625)"/>
      <use xlink:href="#DejaVuSans-2299" transform="translate(589.008789 -16.390625) scale(0.7)"/>
      <use xlink:href="#DejaVuSans-5d" transform="translate(664.033203 0.015625)"/>
     </g>
    </g>
   </g>
   <g id="matplotlib.axis_2">
    <g id="ytick_1">
     <g id="line2d_91">
      <defs>
       <path id="ma6975097b6" d="M 0 0 
L 3.5 0 
" style="stroke: #000000; stroke-width: 1.5"/>
      </defs>
      <g>
       <use xlink:href="#ma6975097b6" x="71.786518" y="225.953575" style="stroke: #000000; stroke-width: 1.5"/>
      </g>
     </g>
     <g id="line2d_92">
      <defs>
       <path id="m21996f30ef" d="M 0 0 
L -3.5 0 
" style="stroke: #000000; stroke-width: 1.5"/>
      </defs>
      <g>
       <use xlink:href="#m21996f30ef" x="421.2" y="225.953575" style="stroke: #000000; stroke-width: 1.5"/>
      </g>
     </g>
     <g id="text_14">
      <!-- $\mathdefault{10^{-16}}$ -->
      <g transform="translate(34.806518 230.512638) scale(0.12 -0.12)">
       <defs>
        <path id="DejaVuSans-2212" d="M 678 2272 
L 4684 2272 
L 4684 1741 
L 678 1741 
L 678 2272 
z
" transform="scale(0.015625)"/>
        <path id="DejaVuSans-36" d="M 2113 2584 
Q 1688 2584 1439 2293 
Q 1191 2003 1191 1497 
Q 1191 994 1439 701 
Q 1688 409 2113 409 
Q 2538 409 2786 701 
Q 3034 994 3034 1497 
Q 3034 2003 2786 2293 
Q 2538 2584 2113 2584 
z
M 3366 4563 
L 3366 3988 
Q 3128 4100 2886 4159 
Q 2644 4219 2406 4219 
Q 1781 4219 1451 3797 
Q 1122 3375 1075 2522 
Q 1259 2794 1537 2939 
Q 1816 3084 2150 3084 
Q 2853 3084 3261 2657 
Q 3669 2231 3669 1497 
Q 3669 778 3244 343 
Q 2819 -91 2113 -91 
Q 1303 -91 875 529 
Q 447 1150 447 2328 
Q 447 3434 972 4092 
Q 1497 4750 2381 4750 
Q 2619 4750 2861 4703 
Q 3103 4656 3366 4563 
z
" transform="scale(0.015625)"/>
       </defs>
       <use xlink:href="#DejaVuSans-31" transform="translate(0 0.765625)"/>
       <use xlink:href="#DejaVuSans-30" transform="translate(63.623047 0.765625)"/>
       <use xlink:href="#DejaVuSans-2212" transform="translate(128.203125 39.046875) scale(0.7)"/>
       <use xlink:href="#DejaVuSans-31" transform="translate(186.855469 39.046875) scale(0.7)"/>
       <use xlink:href="#DejaVuSans-36" transform="translate(231.391602 39.046875) scale(0.7)"/>
      </g>
     </g>
    </g>
    <g id="ytick_2">
     <g id="line2d_93">
      <g>
       <use xlink:href="#ma6975097b6" x="71.786518" y="160.188101" style="stroke: #000000; stroke-width: 1.5"/>
      </g>
     </g>
     <g id="line2d_94">
      <g>
       <use xlink:href="#m21996f30ef" x="421.2" y="160.188101" style="stroke: #000000; stroke-width: 1.5"/>
      </g>
     </g>
     <g id="text_15">
      <!-- $\mathdefault{10^{-15}}$ -->
      <g transform="translate(34.806518 164.747163) scale(0.12 -0.12)">
       <use xlink:href="#DejaVuSans-31" transform="translate(0 0.684375)"/>
       <use xlink:href="#DejaVuSans-30" transform="translate(63.623047 0.684375)"/>
       <use xlink:href="#DejaVuSans-2212" transform="translate(128.203125 38.965625) scale(0.7)"/>
       <use xlink:href="#DejaVuSans-31" transform="translate(186.855469 38.965625) scale(0.7)"/>
       <use xlink:href="#DejaVuSans-35" transform="translate(231.391602 38.965625) scale(0.7)"/>
      </g>
     </g>
    </g>
    <g id="ytick_3">
     <g id="line2d_95">
      <g>
       <use xlink:href="#ma6975097b6" x="71.786518" y="94.422626" style="stroke: #000000; stroke-width: 1.5"/>
      </g>
     </g>
     <g id="line2d_96">
      <g>
       <use xlink:href="#m21996f30ef" x="421.2" y="94.422626" style="stroke: #000000; stroke-width: 1.5"/>
      </g>
     </g>
     <g id="text_16">
      <!-- $\mathdefault{10^{-14}}$ -->
      <g transform="translate(34.806518 98.981688) scale(0.12 -0.12)">
       <use xlink:href="#DejaVuSans-31" transform="translate(0 0.684375)"/>
       <use xlink:href="#DejaVuSans-30" transform="translate(63.623047 0.684375)"/>
       <use xlink:href="#DejaVuSans-2212" transform="translate(128.203125 38.965625) scale(0.7)"/>
       <use xlink:href="#DejaVuSans-31" transform="translate(186.855469 38.965625) scale(0.7)"/>
       <use xlink:href="#DejaVuSans-34" transform="translate(231.391602 38.965625) scale(0.7)"/>
      </g>
     </g>
    </g>
    <g id="ytick_4">
     <g id="line2d_97">
      <g>
       <use xlink:href="#ma6975097b6" x="71.786518" y="28.657151" style="stroke: #000000; stroke-width: 1.5"/>
      </g>
     </g>
     <g id="line2d_98">
      <g>
       <use xlink:href="#m21996f30ef" x="421.2" y="28.657151" style="stroke: #000000; stroke-width: 1.5"/>
      </g>
     </g>
     <g id="text_17">
      <!-- $\mathdefault{10^{-13}}$ -->
      <g transform="translate(34.806518 33.216214) scale(0.12 -0.12)">
       <use xlink:href="#DejaVuSans-31" transform="translate(0 0.765625)"/>
       <use xlink:href="#DejaVuSans-30" transform="translate(63.623047 0.765625)"/>
       <use xlink:href="#DejaVuSans-2212" transform="translate(128.203125 39.046875) scale(0.7)"/>
       <use xlink:href="#DejaVuSans-31" transform="translate(186.855469 39.046875) scale(0.7)"/>
       <use xlink:href="#DejaVuSans-33" transform="translate(231.391602 39.046875) scale(0.7)"/>
      </g>
     </g>
    </g>
    <g id="ytick_5">
     <g id="line2d_99">
      <defs>
       <path id="m035dfe9235" d="M 0 0 
L 2 0 
" style="stroke: #000000; stroke-width: 1.5"/>
      </defs>
      <g>
       <use xlink:href="#m035dfe9235" x="71.786518" y="240.543564" style="stroke: #000000; stroke-width: 1.5"/>
      </g>
     </g>
     <g id="line2d_100">
      <defs>
       <path id="m256baa3a63" d="M 0 0 
L -2 0 
" style="stroke: #000000; stroke-width: 1.5"/>
      </defs>
      <g>
       <use xlink:href="#m256baa3a63" x="421.2" y="240.543564" style="stroke: #000000; stroke-width: 1.5"/>
      </g>
     </g>
    </g>
    <g id="ytick_6">
     <g id="line2d_101">
      <g>
       <use xlink:href="#m035dfe9235" x="71.786518" y="236.140776" style="stroke: #000000; stroke-width: 1.5"/>
      </g>
     </g>
     <g id="line2d_102">
      <g>
       <use xlink:href="#m256baa3a63" x="421.2" y="236.140776" style="stroke: #000000; stroke-width: 1.5"/>
      </g>
     </g>
    </g>
    <g id="ytick_7">
     <g id="line2d_103">
      <g>
       <use xlink:href="#m035dfe9235" x="71.786518" y="232.326908" style="stroke: #000000; stroke-width: 1.5"/>
      </g>
     </g>
     <g id="line2d_104">
      <g>
       <use xlink:href="#m256baa3a63" x="421.2" y="232.326908" style="stroke: #000000; stroke-width: 1.5"/>
      </g>
     </g>
    </g>
    <g id="ytick_8">
     <g id="line2d_105">
      <g>
       <use xlink:href="#m035dfe9235" x="71.786518" y="228.962839" style="stroke: #000000; stroke-width: 1.5"/>
      </g>
     </g>
     <g id="line2d_106">
      <g>
       <use xlink:href="#m256baa3a63" x="421.2" y="228.962839" style="stroke: #000000; stroke-width: 1.5"/>
      </g>
     </g>
    </g>
    <g id="ytick_9">
     <g id="line2d_107">
      <g>
       <use xlink:href="#m035dfe9235" x="71.786518" y="206.156195" style="stroke: #000000; stroke-width: 1.5"/>
      </g>
     </g>
     <g id="line2d_108">
      <g>
       <use xlink:href="#m256baa3a63" x="421.2" y="206.156195" style="stroke: #000000; stroke-width: 1.5"/>
      </g>
     </g>
    </g>
    <g id="ytick_10">
     <g id="line2d_109">
      <g>
       <use xlink:href="#m035dfe9235" x="71.786518" y="194.57547" style="stroke: #000000; stroke-width: 1.5"/>
      </g>
     </g>
     <g id="line2d_110">
      <g>
       <use xlink:href="#m256baa3a63" x="421.2" y="194.57547" style="stroke: #000000; stroke-width: 1.5"/>
      </g>
     </g>
    </g>
    <g id="ytick_11">
     <g id="line2d_111">
      <g>
       <use xlink:href="#m035dfe9235" x="71.786518" y="186.358814" style="stroke: #000000; stroke-width: 1.5"/>
      </g>
     </g>
     <g id="line2d_112">
      <g>
       <use xlink:href="#m256baa3a63" x="421.2" y="186.358814" style="stroke: #000000; stroke-width: 1.5"/>
      </g>
     </g>
    </g>
    <g id="ytick_12">
     <g id="line2d_113">
      <g>
       <use xlink:href="#m035dfe9235" x="71.786518" y="179.985481" style="stroke: #000000; stroke-width: 1.5"/>
      </g>
     </g>
     <g id="line2d_114">
      <g>
       <use xlink:href="#m256baa3a63" x="421.2" y="179.985481" style="stroke: #000000; stroke-width: 1.5"/>
      </g>
     </g>
    </g>
    <g id="ytick_13">
     <g id="line2d_115">
      <g>
       <use xlink:href="#m035dfe9235" x="71.786518" y="174.778089" style="stroke: #000000; stroke-width: 1.5"/>
      </g>
     </g>
     <g id="line2d_116">
      <g>
       <use xlink:href="#m256baa3a63" x="421.2" y="174.778089" style="stroke: #000000; stroke-width: 1.5"/>
      </g>
     </g>
    </g>
    <g id="ytick_14">
     <g id="line2d_117">
      <g>
       <use xlink:href="#m035dfe9235" x="71.786518" y="170.375302" style="stroke: #000000; stroke-width: 1.5"/>
      </g>
     </g>
     <g id="line2d_118">
      <g>
       <use xlink:href="#m256baa3a63" x="421.2" y="170.375302" style="stroke: #000000; stroke-width: 1.5"/>
      </g>
     </g>
    </g>
    <g id="ytick_15">
     <g id="line2d_119">
      <g>
       <use xlink:href="#m035dfe9235" x="71.786518" y="166.561434" style="stroke: #000000; stroke-width: 1.5"/>
      </g>
     </g>
     <g id="line2d_120">
      <g>
       <use xlink:href="#m256baa3a63" x="421.2" y="166.561434" style="stroke: #000000; stroke-width: 1.5"/>
      </g>
     </g>
    </g>
    <g id="ytick_16">
     <g id="line2d_121">
      <g>
       <use xlink:href="#m035dfe9235" x="71.786518" y="163.197364" style="stroke: #000000; stroke-width: 1.5"/>
      </g>
     </g>
     <g id="line2d_122">
      <g>
       <use xlink:href="#m256baa3a63" x="421.2" y="163.197364" style="stroke: #000000; stroke-width: 1.5"/>
      </g>
     </g>
    </g>
    <g id="ytick_17">
     <g id="line2d_123">
      <g>
       <use xlink:href="#m035dfe9235" x="71.786518" y="140.39072" style="stroke: #000000; stroke-width: 1.5"/>
      </g>
     </g>
     <g id="line2d_124">
      <g>
       <use xlink:href="#m256baa3a63" x="421.2" y="140.39072" style="stroke: #000000; stroke-width: 1.5"/>
      </g>
     </g>
    </g>
    <g id="ytick_18">
     <g id="line2d_125">
      <g>
       <use xlink:href="#m035dfe9235" x="71.786518" y="128.809995" style="stroke: #000000; stroke-width: 1.5"/>
      </g>
     </g>
     <g id="line2d_126">
      <g>
       <use xlink:href="#m256baa3a63" x="421.2" y="128.809995" style="stroke: #000000; stroke-width: 1.5"/>
      </g>
     </g>
    </g>
    <g id="ytick_19">
     <g id="line2d_127">
      <g>
       <use xlink:href="#m035dfe9235" x="71.786518" y="120.59334" style="stroke: #000000; stroke-width: 1.5"/>
      </g>
     </g>
     <g id="line2d_128">
      <g>
       <use xlink:href="#m256baa3a63" x="421.2" y="120.59334" style="stroke: #000000; stroke-width: 1.5"/>
      </g>
     </g>
    </g>
    <g id="ytick_20">
     <g id="line2d_129">
      <g>
       <use xlink:href="#m035dfe9235" x="71.786518" y="114.220007" style="stroke: #000000; stroke-width: 1.5"/>
      </g>
     </g>
     <g id="line2d_130">
      <g>
       <use xlink:href="#m256baa3a63" x="421.2" y="114.220007" style="stroke: #000000; stroke-width: 1.5"/>
      </g>
     </g>
    </g>
    <g id="ytick_21">
     <g id="line2d_131">
      <g>
       <use xlink:href="#m035dfe9235" x="71.786518" y="109.012614" style="stroke: #000000; stroke-width: 1.5"/>
      </g>
     </g>
     <g id="line2d_132">
      <g>
       <use xlink:href="#m256baa3a63" x="421.2" y="109.012614" style="stroke: #000000; stroke-width: 1.5"/>
      </g>
     </g>
    </g>
    <g id="ytick_22">
     <g id="line2d_133">
      <g>
       <use xlink:href="#m035dfe9235" x="71.786518" y="104.609827" style="stroke: #000000; stroke-width: 1.5"/>
      </g>
     </g>
     <g id="line2d_134">
      <g>
       <use xlink:href="#m256baa3a63" x="421.2" y="104.609827" style="stroke: #000000; stroke-width: 1.5"/>
      </g>
     </g>
    </g>
    <g id="ytick_23">
     <g id="line2d_135">
      <g>
       <use xlink:href="#m035dfe9235" x="71.786518" y="100.795959" style="stroke: #000000; stroke-width: 1.5"/>
      </g>
     </g>
     <g id="line2d_136">
      <g>
       <use xlink:href="#m256baa3a63" x="421.2" y="100.795959" style="stroke: #000000; stroke-width: 1.5"/>
      </g>
     </g>
    </g>
    <g id="ytick_24">
     <g id="line2d_137">
      <g>
       <use xlink:href="#m035dfe9235" x="71.786518" y="97.431889" style="stroke: #000000; stroke-width: 1.5"/>
      </g>
     </g>
     <g id="line2d_138">
      <g>
       <use xlink:href="#m256baa3a63" x="421.2" y="97.431889" style="stroke: #000000; stroke-width: 1.5"/>
      </g>
     </g>
    </g>
    <g id="ytick_25">
     <g id="line2d_139">
      <g>
       <use xlink:href="#m035dfe9235" x="71.786518" y="74.625245" style="stroke: #000000; stroke-width: 1.5"/>
      </g>
     </g>
     <g id="line2d_140">
      <g>
       <use xlink:href="#m256baa3a63" x="421.2" y="74.625245" style="stroke: #000000; stroke-width: 1.5"/>
      </g>
     </g>
    </g>
    <g id="ytick_26">
     <g id="line2d_141">
      <g>
       <use xlink:href="#m035dfe9235" x="71.786518" y="63.04452" style="stroke: #000000; stroke-width: 1.5"/>
      </g>
     </g>
     <g id="line2d_142">
      <g>
       <use xlink:href="#m256baa3a63" x="421.2" y="63.04452" style="stroke: #000000; stroke-width: 1.5"/>
      </g>
     </g>
    </g>
    <g id="ytick_27">
     <g id="line2d_143">
      <g>
       <use xlink:href="#m035dfe9235" x="71.786518" y="54.827865" style="stroke: #000000; stroke-width: 1.5"/>
      </g>
     </g>
     <g id="line2d_144">
      <g>
       <use xlink:href="#m256baa3a63" x="421.2" y="54.827865" style="stroke: #000000; stroke-width: 1.5"/>
      </g>
     </g>
    </g>
    <g id="ytick_28">
     <g id="line2d_145">
      <g>
       <use xlink:href="#m035dfe9235" x="71.786518" y="48.454532" style="stroke: #000000; stroke-width: 1.5"/>
      </g>
     </g>
     <g id="line2d_146">
      <g>
       <use xlink:href="#m256baa3a63" x="421.2" y="48.454532" style="stroke: #000000; stroke-width: 1.5"/>
      </g>
     </g>
    </g>
    <g id="ytick_29">
     <g id="line2d_147">
      <g>
       <use xlink:href="#m035dfe9235" x="71.786518" y="43.24714" style="stroke: #000000; stroke-width: 1.5"/>
      </g>
     </g>
     <g id="line2d_148">
      <g>
       <use xlink:href="#m256baa3a63" x="421.2" y="43.24714" style="stroke: #000000; stroke-width: 1.5"/>
      </g>
     </g>
    </g>
    <g id="ytick_30">
     <g id="line2d_149">
      <g>
       <use xlink:href="#m035dfe9235" x="71.786518" y="38.844352" style="stroke: #000000; stroke-width: 1.5"/>
      </g>
     </g>
     <g id="line2d_150">
      <g>
       <use xlink:href="#m256baa3a63" x="421.2" y="38.844352" style="stroke: #000000; stroke-width: 1.5"/>
      </g>
     </g>
    </g>
    <g id="ytick_31">
     <g id="line2d_151">
      <g>
       <use xlink:href="#m035dfe9235" x="71.786518" y="35.030484" style="stroke: #000000; stroke-width: 1.5"/>
      </g>
     </g>
     <g id="line2d_152">
      <g>
       <use xlink:href="#m256baa3a63" x="421.2" y="35.030484" style="stroke: #000000; stroke-width: 1.5"/>
      </g>
     </g>
    </g>
    <g id="ytick_32">
     <g id="line2d_153">
      <g>
       <use xlink:href="#m035dfe9235" x="71.786518" y="31.666414" style="stroke: #000000; stroke-width: 1.5"/>
      </g>
     </g>
     <g id="line2d_154">
      <g>
       <use xlink:href="#m256baa3a63" x="421.2" y="31.666414" style="stroke: #000000; stroke-width: 1.5"/>
      </g>
     </g>
    </g>
    <g id="text_18">
     <!-- $\dot{M}$ [M$_\odot$ yr$^{-1}$] -->
     <g transform="translate(28.286518 163.122) rotate(-90) scale(0.12 -0.12)">
      <defs>
       <path id="DejaVuSans-307" d="M -1894 4863 
L -1319 4863 
L -1319 4134 
L -1894 4134 
L -1894 4863 
z
M -1600 3584 
L -1600 3584 
z
" transform="scale(0.015625)"/>
       <path id="DejaVuSans-Oblique-4d" d="M 1081 4666 
L 2028 4666 
L 2572 1522 
L 4378 4666 
L 5350 4666 
L 4441 0 
L 3828 0 
L 4622 4091 
L 2791 897 
L 2175 897 
L 1581 4103 
L 788 0 
L 172 0 
L 1081 4666 
z
" transform="scale(0.015625)"/>
       <path id="DejaVuSans-4d" d="M 628 4666 
L 1569 4666 
L 2759 1491 
L 3956 4666 
L 4897 4666 
L 4897 0 
L 4281 0 
L 4281 4097 
L 3078 897 
L 2444 897 
L 1241 4097 
L 1241 0 
L 628 0 
L 628 4666 
z
" transform="scale(0.015625)"/>
       <path id="DejaVuSans-79" d="M 2059 -325 
Q 1816 -950 1584 -1140 
Q 1353 -1331 966 -1331 
L 506 -1331 
L 506 -850 
L 844 -850 
Q 1081 -850 1212 -737 
Q 1344 -625 1503 -206 
L 1606 56 
L 191 3500 
L 800 3500 
L 1894 763 
L 2988 3500 
L 3597 3500 
L 2059 -325 
z
" transform="scale(0.015625)"/>
       <path id="DejaVuSans-72" d="M 2631 2963 
Q 2534 3019 2420 3045 
Q 2306 3072 2169 3072 
Q 1681 3072 1420 2755 
Q 1159 2438 1159 1844 
L 1159 0 
L 581 0 
L 581 3500 
L 1159 3500 
L 1159 2956 
Q 1341 3275 1631 3429 
Q 1922 3584 2338 3584 
Q 2397 3584 2469 3576 
Q 2541 3569 2628 3553 
L 2631 2963 
z
" transform="scale(0.015625)"/>
      </defs>
      <use xlink:href="#DejaVuSans-307" transform="translate(79.163574 30.015625)"/>
      <use xlink:href="#DejaVuSans-Oblique-4d" transform="translate(0 0.609375)"/>
      <use xlink:href="#DejaVuSans-20" transform="translate(86.279297 0.609375)"/>
      <use xlink:href="#DejaVuSans-5b" transform="translate(118.066406 0.609375)"/>
      <use xlink:href="#DejaVuSans-4d" transform="translate(157.080078 0.609375)"/>
      <use xlink:href="#DejaVuSans-2299" transform="translate(257.954102 -15.796875) scale(0.7)"/>
      <use xlink:href="#DejaVuSans-20" transform="translate(332.978516 0.609375)"/>
      <use xlink:href="#DejaVuSans-79" transform="translate(364.765625 0.609375)"/>
      <use xlink:href="#DejaVuSans-72" transform="translate(423.945312 0.609375)"/>
      <use xlink:href="#DejaVuSans-2212" transform="translate(466.015625 38.890625) scale(0.7)"/>
      <use xlink:href="#DejaVuSans-31" transform="translate(524.667969 38.890625) scale(0.7)"/>
      <use xlink:href="#DejaVuSans-5d" transform="translate(571.938477 0.609375)"/>
     </g>
    </g>
   </g>
  </g>
 </g>
 <defs>
  <clipPath id="p465e1ac1a0">
   <rect x="71.786518" y="10.8" width="349.413482" height="231.324"/>
  </clipPath>
 </defs>
</svg>
