<?xml version="1.0" encoding="utf-8" standalone="no"?>
<!DOCTYPE svg PUBLIC "-//W3C//DTD SVG 1.1//EN"
  "http://www.w3.org/Graphics/SVG/1.1/DTD/svg11.dtd">
<svg xmlns:xlink="http://www.w3.org/1999/xlink" width="432pt" height="288pt" viewBox="0 0 432 288" xmlns="http://www.w3.org/2000/svg" version="1.1">
 <metadata>
  <rdf:RDF xmlns:dc="http://purl.org/dc/elements/1.1/" xmlns:cc="http://creativecommons.org/ns#" xmlns:rdf="http://www.w3.org/1999/02/22-rdf-syntax-ns#">
   <cc:Work>
    <dc:type rdf:resource="http://purl.org/dc/dcmitype/StillImage"/>
    <dc:date>2022-11-07T20:37:45.466441</dc:date>
    <dc:format>image/svg+xml</dc:format>
    <dc:creator>
     <cc:Agent>
      <dc:title>Matplotlib v3.6.1, https://matplotlib.org/</dc:title>
     </cc:Agent>
    </dc:creator>
   </cc:Work>
  </rdf:RDF>
 </metadata>
 <defs>
  <style type="text/css">*{stroke-linejoin: round; stroke-linecap: butt}</style>
 </defs>
 <g id="figure_1">
  <g id="patch_1">
   <path d="M 0 288 
L 432 288 
L 432 0 
L 0 0 
z
" style="fill: #ffffff"/>
  </g>
  <g id="axes_1">
   <g id="patch_2">
    <path d="M 71.786518 242.124 
L 417.760168 242.124 
L 417.760168 10.8 
L 71.786518 10.8 
z
" style="fill: #ffffff"/>
   </g>
   <g id="matplotlib.axis_1">
    <g id="xtick_1">
     <g id="line2d_1">
      <defs>
       <path id="m9a2d091c07" d="M 0 0 
L 0 -3.5 
" style="stroke: #000000; stroke-width: 1.5"/>
      </defs>
      <g>
       <use xlink:href="#m9a2d091c07" x="80.471976" y="242.124" style="stroke: #000000; stroke-width: 1.5"/>
      </g>
     </g>
     <g id="line2d_2">
      <defs>
       <path id="m98c2e981f0" d="M 0 0 
L 0 3.5 
" style="stroke: #000000; stroke-width: 1.5"/>
      </defs>
      <g>
       <use xlink:href="#m98c2e981f0" x="80.471976" y="10.8" style="stroke: #000000; stroke-width: 1.5"/>
      </g>
     </g>
     <g id="text_1">
      <!-- 0 -->
      <g transform="translate(76.654476 254.742125) scale(0.12 -0.12)">
       <defs>
        <path id="DejaVuSans-30" d="M 2034 4250 
Q 1547 4250 1301 3770 
Q 1056 3291 1056 2328 
Q 1056 1369 1301 889 
Q 1547 409 2034 409 
Q 2525 409 2770 889 
Q 3016 1369 3016 2328 
Q 3016 3291 2770 3770 
Q 2525 4250 2034 4250 
z
M 2034 4750 
Q 2819 4750 3233 4129 
Q 3647 3509 3647 2328 
Q 3647 1150 3233 529 
Q 2819 -91 2034 -91 
Q 1250 -91 836 529 
Q 422 1150 422 2328 
Q 422 3509 836 4129 
Q 1250 4750 2034 4750 
z
" transform="scale(0.015625)"/>
       </defs>
       <use xlink:href="#DejaVuSans-30"/>
      </g>
     </g>
    </g>
    <g id="xtick_2">
     <g id="line2d_3">
      <g>
       <use xlink:href="#m9a2d091c07" x="135.977062" y="242.124" style="stroke: #000000; stroke-width: 1.5"/>
      </g>
     </g>
     <g id="line2d_4">
      <g>
       <use xlink:href="#m98c2e981f0" x="135.977062" y="10.8" style="stroke: #000000; stroke-width: 1.5"/>
      </g>
     </g>
     <g id="text_2">
      <!-- 10 -->
      <g transform="translate(128.342062 254.742125) scale(0.12 -0.12)">
       <defs>
        <path id="DejaVuSans-31" d="M 794 531 
L 1825 531 
L 1825 4091 
L 703 3866 
L 703 4441 
L 1819 4666 
L 2450 4666 
L 2450 531 
L 3481 531 
L 3481 0 
L 794 0 
L 794 531 
z
" transform="scale(0.015625)"/>
       </defs>
       <use xlink:href="#DejaVuSans-31"/>
       <use xlink:href="#DejaVuSans-30" x="63.623047"/>
      </g>
     </g>
    </g>
    <g id="xtick_3">
     <g id="line2d_5">
      <g>
       <use xlink:href="#m9a2d091c07" x="191.482148" y="242.124" style="stroke: #000000; stroke-width: 1.5"/>
      </g>
     </g>
     <g id="line2d_6">
      <g>
       <use xlink:href="#m98c2e981f0" x="191.482148" y="10.8" style="stroke: #000000; stroke-width: 1.5"/>
      </g>
     </g>
     <g id="text_3">
      <!-- 20 -->
      <g transform="translate(183.847148 254.742125) scale(0.12 -0.12)">
       <defs>
        <path id="DejaVuSans-32" d="M 1228 531 
L 3431 531 
L 3431 0 
L 469 0 
L 469 531 
Q 828 903 1448 1529 
Q 2069 2156 2228 2338 
Q 2531 2678 2651 2914 
Q 2772 3150 2772 3378 
Q 2772 3750 2511 3984 
Q 2250 4219 1831 4219 
Q 1534 4219 1204 4116 
Q 875 4013 500 3803 
L 500 4441 
Q 881 4594 1212 4672 
Q 1544 4750 1819 4750 
Q 2544 4750 2975 4387 
Q 3406 4025 3406 3419 
Q 3406 3131 3298 2873 
Q 3191 2616 2906 2266 
Q 2828 2175 2409 1742 
Q 1991 1309 1228 531 
z
" transform="scale(0.015625)"/>
       </defs>
       <use xlink:href="#DejaVuSans-32"/>
       <use xlink:href="#DejaVuSans-30" x="63.623047"/>
      </g>
     </g>
    </g>
    <g id="xtick_4">
     <g id="line2d_7">
      <g>
       <use xlink:href="#m9a2d091c07" x="246.987235" y="242.124" style="stroke: #000000; stroke-width: 1.5"/>
      </g>
     </g>
     <g id="line2d_8">
      <g>
       <use xlink:href="#m98c2e981f0" x="246.987235" y="10.8" style="stroke: #000000; stroke-width: 1.5"/>
      </g>
     </g>
     <g id="text_4">
      <!-- 30 -->
      <g transform="translate(239.352235 254.742125) scale(0.12 -0.12)">
       <defs>
        <path id="DejaVuSans-33" d="M 2597 2516 
Q 3050 2419 3304 2112 
Q 3559 1806 3559 1356 
Q 3559 666 3084 287 
Q 2609 -91 1734 -91 
Q 1441 -91 1130 -33 
Q 819 25 488 141 
L 488 750 
Q 750 597 1062 519 
Q 1375 441 1716 441 
Q 2309 441 2620 675 
Q 2931 909 2931 1356 
Q 2931 1769 2642 2001 
Q 2353 2234 1838 2234 
L 1294 2234 
L 1294 2753 
L 1863 2753 
Q 2328 2753 2575 2939 
Q 2822 3125 2822 3475 
Q 2822 3834 2567 4026 
Q 2313 4219 1838 4219 
Q 1578 4219 1281 4162 
Q 984 4106 628 3988 
L 628 4550 
Q 988 4650 1302 4700 
Q 1616 4750 1894 4750 
Q 2613 4750 3031 4423 
Q 3450 4097 3450 3541 
Q 3450 3153 3228 2886 
Q 3006 2619 2597 2516 
z
" transform="scale(0.015625)"/>
       </defs>
       <use xlink:href="#DejaVuSans-33"/>
       <use xlink:href="#DejaVuSans-30" x="63.623047"/>
      </g>
     </g>
    </g>
    <g id="xtick_5">
     <g id="line2d_9">
      <g>
       <use xlink:href="#m9a2d091c07" x="302.492321" y="242.124" style="stroke: #000000; stroke-width: 1.5"/>
      </g>
     </g>
     <g id="line2d_10">
      <g>
       <use xlink:href="#m98c2e981f0" x="302.492321" y="10.8" style="stroke: #000000; stroke-width: 1.5"/>
      </g>
     </g>
     <g id="text_5">
      <!-- 40 -->
      <g transform="translate(294.857321 254.742125) scale(0.12 -0.12)">
       <defs>
        <path id="DejaVuSans-34" d="M 2419 4116 
L 825 1625 
L 2419 1625 
L 2419 4116 
z
M 2253 4666 
L 3047 4666 
L 3047 1625 
L 3713 1625 
L 3713 1100 
L 3047 1100 
L 3047 0 
L 2419 0 
L 2419 1100 
L 313 1100 
L 313 1709 
L 2253 4666 
z
" transform="scale(0.015625)"/>
       </defs>
       <use xlink:href="#DejaVuSans-34"/>
       <use xlink:href="#DejaVuSans-30" x="63.623047"/>
      </g>
     </g>
    </g>
    <g id="xtick_6">
     <g id="line2d_11">
      <g>
       <use xlink:href="#m9a2d091c07" x="357.997407" y="242.124" style="stroke: #000000; stroke-width: 1.5"/>
      </g>
     </g>
     <g id="line2d_12">
      <g>
       <use xlink:href="#m98c2e981f0" x="357.997407" y="10.8" style="stroke: #000000; stroke-width: 1.5"/>
      </g>
     </g>
     <g id="text_6">
      <!-- 50 -->
      <g transform="translate(350.362407 254.742125) scale(0.12 -0.12)">
       <defs>
        <path id="DejaVuSans-35" d="M 691 4666 
L 3169 4666 
L 3169 4134 
L 1269 4134 
L 1269 2991 
Q 1406 3038 1543 3061 
Q 1681 3084 1819 3084 
Q 2600 3084 3056 2656 
Q 3513 2228 3513 1497 
Q 3513 744 3044 326 
Q 2575 -91 1722 -91 
Q 1428 -91 1123 -41 
Q 819 9 494 109 
L 494 744 
Q 775 591 1075 516 
Q 1375 441 1709 441 
Q 2250 441 2565 725 
Q 2881 1009 2881 1497 
Q 2881 1984 2565 2268 
Q 2250 2553 1709 2553 
Q 1456 2553 1204 2497 
Q 953 2441 691 2322 
L 691 4666 
z
" transform="scale(0.015625)"/>
       </defs>
       <use xlink:href="#DejaVuSans-35"/>
       <use xlink:href="#DejaVuSans-30" x="63.623047"/>
      </g>
     </g>
    </g>
    <g id="xtick_7">
     <g id="line2d_13">
      <g>
       <use xlink:href="#m9a2d091c07" x="413.502493" y="242.124" style="stroke: #000000; stroke-width: 1.5"/>
      </g>
     </g>
     <g id="line2d_14">
      <g>
       <use xlink:href="#m98c2e981f0" x="413.502493" y="10.8" style="stroke: #000000; stroke-width: 1.5"/>
      </g>
     </g>
     <g id="text_7">
      <!-- 60 -->
      <g transform="translate(405.867493 254.742125) scale(0.12 -0.12)">
       <defs>
        <path id="DejaVuSans-36" d="M 2113 2584 
Q 1688 2584 1439 2293 
Q 1191 2003 1191 1497 
Q 1191 994 1439 701 
Q 1688 409 2113 409 
Q 2538 409 2786 701 
Q 3034 994 3034 1497 
Q 3034 2003 2786 2293 
Q 2538 2584 2113 2584 
z
M 3366 4563 
L 3366 3988 
Q 3128 4100 2886 4159 
Q 2644 4219 2406 4219 
Q 1781 4219 1451 3797 
Q 1122 3375 1075 2522 
Q 1259 2794 1537 2939 
Q 1816 3084 2150 3084 
Q 2853 3084 3261 2657 
Q 3669 2231 3669 1497 
Q 3669 778 3244 343 
Q 2819 -91 2113 -91 
Q 1303 -91 875 529 
Q 447 1150 447 2328 
Q 447 3434 972 4092 
Q 1497 4750 2381 4750 
Q 2619 4750 2861 4703 
Q 3103 4656 3366 4563 
z
" transform="scale(0.015625)"/>
       </defs>
       <use xlink:href="#DejaVuSans-36"/>
       <use xlink:href="#DejaVuSans-30" x="63.623047"/>
      </g>
     </g>
    </g>
    <g id="xtick_8">
     <g id="line2d_15">
      <defs>
       <path id="m349cb8521c" d="M 0 0 
L 0 -2 
" style="stroke: #000000; stroke-width: 1.5"/>
      </defs>
      <g>
       <use xlink:href="#m349cb8521c" x="91.572993" y="242.124" style="stroke: #000000; stroke-width: 1.5"/>
      </g>
     </g>
     <g id="line2d_16">
      <defs>
       <path id="md559cbef96" d="M 0 0 
L 0 2 
" style="stroke: #000000; stroke-width: 1.5"/>
      </defs>
      <g>
       <use xlink:href="#md559cbef96" x="91.572993" y="10.8" style="stroke: #000000; stroke-width: 1.5"/>
      </g>
     </g>
    </g>
    <g id="xtick_9">
     <g id="line2d_17">
      <g>
       <use xlink:href="#m349cb8521c" x="102.67401" y="242.124" style="stroke: #000000; stroke-width: 1.5"/>
      </g>
     </g>
     <g id="line2d_18">
      <g>
       <use xlink:href="#md559cbef96" x="102.67401" y="10.8" style="stroke: #000000; stroke-width: 1.5"/>
      </g>
     </g>
    </g>
    <g id="xtick_10">
     <g id="line2d_19">
      <g>
       <use xlink:href="#m349cb8521c" x="113.775028" y="242.124" style="stroke: #000000; stroke-width: 1.5"/>
      </g>
     </g>
     <g id="line2d_20">
      <g>
       <use xlink:href="#md559cbef96" x="113.775028" y="10.8" style="stroke: #000000; stroke-width: 1.5"/>
      </g>
     </g>
    </g>
    <g id="xtick_11">
     <g id="line2d_21">
      <g>
       <use xlink:href="#m349cb8521c" x="124.876045" y="242.124" style="stroke: #000000; stroke-width: 1.5"/>
      </g>
     </g>
     <g id="line2d_22">
      <g>
       <use xlink:href="#md559cbef96" x="124.876045" y="10.8" style="stroke: #000000; stroke-width: 1.5"/>
      </g>
     </g>
    </g>
    <g id="xtick_12">
     <g id="line2d_23">
      <g>
       <use xlink:href="#m349cb8521c" x="147.078079" y="242.124" style="stroke: #000000; stroke-width: 1.5"/>
      </g>
     </g>
     <g id="line2d_24">
      <g>
       <use xlink:href="#md559cbef96" x="147.078079" y="10.8" style="stroke: #000000; stroke-width: 1.5"/>
      </g>
     </g>
    </g>
    <g id="xtick_13">
     <g id="line2d_25">
      <g>
       <use xlink:href="#m349cb8521c" x="158.179097" y="242.124" style="stroke: #000000; stroke-width: 1.5"/>
      </g>
     </g>
     <g id="line2d_26">
      <g>
       <use xlink:href="#md559cbef96" x="158.179097" y="10.8" style="stroke: #000000; stroke-width: 1.5"/>
      </g>
     </g>
    </g>
    <g id="xtick_14">
     <g id="line2d_27">
      <g>
       <use xlink:href="#m349cb8521c" x="169.280114" y="242.124" style="stroke: #000000; stroke-width: 1.5"/>
      </g>
     </g>
     <g id="line2d_28">
      <g>
       <use xlink:href="#md559cbef96" x="169.280114" y="10.8" style="stroke: #000000; stroke-width: 1.5"/>
      </g>
     </g>
    </g>
    <g id="xtick_15">
     <g id="line2d_29">
      <g>
       <use xlink:href="#m349cb8521c" x="180.381131" y="242.124" style="stroke: #000000; stroke-width: 1.5"/>
      </g>
     </g>
     <g id="line2d_30">
      <g>
       <use xlink:href="#md559cbef96" x="180.381131" y="10.8" style="stroke: #000000; stroke-width: 1.5"/>
      </g>
     </g>
    </g>
    <g id="xtick_16">
     <g id="line2d_31">
      <g>
       <use xlink:href="#m349cb8521c" x="202.583166" y="242.124" style="stroke: #000000; stroke-width: 1.5"/>
      </g>
     </g>
     <g id="line2d_32">
      <g>
       <use xlink:href="#md559cbef96" x="202.583166" y="10.8" style="stroke: #000000; stroke-width: 1.5"/>
      </g>
     </g>
    </g>
    <g id="xtick_17">
     <g id="line2d_33">
      <g>
       <use xlink:href="#m349cb8521c" x="213.684183" y="242.124" style="stroke: #000000; stroke-width: 1.5"/>
      </g>
     </g>
     <g id="line2d_34">
      <g>
       <use xlink:href="#md559cbef96" x="213.684183" y="10.8" style="stroke: #000000; stroke-width: 1.5"/>
      </g>
     </g>
    </g>
    <g id="xtick_18">
     <g id="line2d_35">
      <g>
       <use xlink:href="#m349cb8521c" x="224.7852" y="242.124" style="stroke: #000000; stroke-width: 1.5"/>
      </g>
     </g>
     <g id="line2d_36">
      <g>
       <use xlink:href="#md559cbef96" x="224.7852" y="10.8" style="stroke: #000000; stroke-width: 1.5"/>
      </g>
     </g>
    </g>
    <g id="xtick_19">
     <g id="line2d_37">
      <g>
       <use xlink:href="#m349cb8521c" x="235.886217" y="242.124" style="stroke: #000000; stroke-width: 1.5"/>
      </g>
     </g>
     <g id="line2d_38">
      <g>
       <use xlink:href="#md559cbef96" x="235.886217" y="10.8" style="stroke: #000000; stroke-width: 1.5"/>
      </g>
     </g>
    </g>
    <g id="xtick_20">
     <g id="line2d_39">
      <g>
       <use xlink:href="#m349cb8521c" x="258.088252" y="242.124" style="stroke: #000000; stroke-width: 1.5"/>
      </g>
     </g>
     <g id="line2d_40">
      <g>
       <use xlink:href="#md559cbef96" x="258.088252" y="10.8" style="stroke: #000000; stroke-width: 1.5"/>
      </g>
     </g>
    </g>
    <g id="xtick_21">
     <g id="line2d_41">
      <g>
       <use xlink:href="#m349cb8521c" x="269.189269" y="242.124" style="stroke: #000000; stroke-width: 1.5"/>
      </g>
     </g>
     <g id="line2d_42">
      <g>
       <use xlink:href="#md559cbef96" x="269.189269" y="10.8" style="stroke: #000000; stroke-width: 1.5"/>
      </g>
     </g>
    </g>
    <g id="xtick_22">
     <g id="line2d_43">
      <g>
       <use xlink:href="#m349cb8521c" x="280.290286" y="242.124" style="stroke: #000000; stroke-width: 1.5"/>
      </g>
     </g>
     <g id="line2d_44">
      <g>
       <use xlink:href="#md559cbef96" x="280.290286" y="10.8" style="stroke: #000000; stroke-width: 1.5"/>
      </g>
     </g>
    </g>
    <g id="xtick_23">
     <g id="line2d_45">
      <g>
       <use xlink:href="#m349cb8521c" x="291.391303" y="242.124" style="stroke: #000000; stroke-width: 1.5"/>
      </g>
     </g>
     <g id="line2d_46">
      <g>
       <use xlink:href="#md559cbef96" x="291.391303" y="10.8" style="stroke: #000000; stroke-width: 1.5"/>
      </g>
     </g>
    </g>
    <g id="xtick_24">
     <g id="line2d_47">
      <g>
       <use xlink:href="#m349cb8521c" x="313.593338" y="242.124" style="stroke: #000000; stroke-width: 1.5"/>
      </g>
     </g>
     <g id="line2d_48">
      <g>
       <use xlink:href="#md559cbef96" x="313.593338" y="10.8" style="stroke: #000000; stroke-width: 1.5"/>
      </g>
     </g>
    </g>
    <g id="xtick_25">
     <g id="line2d_49">
      <g>
       <use xlink:href="#m349cb8521c" x="324.694355" y="242.124" style="stroke: #000000; stroke-width: 1.5"/>
      </g>
     </g>
     <g id="line2d_50">
      <g>
       <use xlink:href="#md559cbef96" x="324.694355" y="10.8" style="stroke: #000000; stroke-width: 1.5"/>
      </g>
     </g>
    </g>
    <g id="xtick_26">
     <g id="line2d_51">
      <g>
       <use xlink:href="#m349cb8521c" x="335.795372" y="242.124" style="stroke: #000000; stroke-width: 1.5"/>
      </g>
     </g>
     <g id="line2d_52">
      <g>
       <use xlink:href="#md559cbef96" x="335.795372" y="10.8" style="stroke: #000000; stroke-width: 1.5"/>
      </g>
     </g>
    </g>
    <g id="xtick_27">
     <g id="line2d_53">
      <g>
       <use xlink:href="#m349cb8521c" x="346.89639" y="242.124" style="stroke: #000000; stroke-width: 1.5"/>
      </g>
     </g>
     <g id="line2d_54">
      <g>
       <use xlink:href="#md559cbef96" x="346.89639" y="10.8" style="stroke: #000000; stroke-width: 1.5"/>
      </g>
     </g>
    </g>
    <g id="xtick_28">
     <g id="line2d_55">
      <g>
       <use xlink:href="#m349cb8521c" x="369.098424" y="242.124" style="stroke: #000000; stroke-width: 1.5"/>
      </g>
     </g>
     <g id="line2d_56">
      <g>
       <use xlink:href="#md559cbef96" x="369.098424" y="10.8" style="stroke: #000000; stroke-width: 1.5"/>
      </g>
     </g>
    </g>
    <g id="xtick_29">
     <g id="line2d_57">
      <g>
       <use xlink:href="#m349cb8521c" x="380.199441" y="242.124" style="stroke: #000000; stroke-width: 1.5"/>
      </g>
     </g>
     <g id="line2d_58">
      <g>
       <use xlink:href="#md559cbef96" x="380.199441" y="10.8" style="stroke: #000000; stroke-width: 1.5"/>
      </g>
     </g>
    </g>
    <g id="xtick_30">
     <g id="line2d_59">
      <g>
       <use xlink:href="#m349cb8521c" x="391.300459" y="242.124" style="stroke: #000000; stroke-width: 1.5"/>
      </g>
     </g>
     <g id="line2d_60">
      <g>
       <use xlink:href="#md559cbef96" x="391.300459" y="10.8" style="stroke: #000000; stroke-width: 1.5"/>
      </g>
     </g>
    </g>
    <g id="xtick_31">
     <g id="line2d_61">
      <g>
       <use xlink:href="#m349cb8521c" x="402.401476" y="242.124" style="stroke: #000000; stroke-width: 1.5"/>
      </g>
     </g>
     <g id="line2d_62">
      <g>
       <use xlink:href="#md559cbef96" x="402.401476" y="10.8" style="stroke: #000000; stroke-width: 1.5"/>
      </g>
     </g>
    </g>
    <g id="text_8">
     <!-- Distance [R$_\odot$] -->
     <g transform="translate(202.533343 270.355875) scale(0.12 -0.12)">
      <defs>
       <path id="DejaVuSans-44" d="M 1259 4147 
L 1259 519 
L 2022 519 
Q 2988 519 3436 956 
Q 3884 1394 3884 2338 
Q 3884 3275 3436 3711 
Q 2988 4147 2022 4147 
L 1259 4147 
z
M 628 4666 
L 1925 4666 
Q 3281 4666 3915 4102 
Q 4550 3538 4550 2338 
Q 4550 1131 3912 565 
Q 3275 0 1925 0 
L 628 0 
L 628 4666 
z
" transform="scale(0.015625)"/>
       <path id="DejaVuSans-69" d="M 603 3500 
L 1178 3500 
L 1178 0 
L 603 0 
L 603 3500 
z
M 603 4863 
L 1178 4863 
L 1178 4134 
L 603 4134 
L 603 4863 
z
" transform="scale(0.015625)"/>
       <path id="DejaVuSans-73" d="M 2834 3397 
L 2834 2853 
Q 2591 2978 2328 3040 
Q 2066 3103 1784 3103 
Q 1356 3103 1142 2972 
Q 928 2841 928 2578 
Q 928 2378 1081 2264 
Q 1234 2150 1697 2047 
L 1894 2003 
Q 2506 1872 2764 1633 
Q 3022 1394 3022 966 
Q 3022 478 2636 193 
Q 2250 -91 1575 -91 
Q 1294 -91 989 -36 
Q 684 19 347 128 
L 347 722 
Q 666 556 975 473 
Q 1284 391 1588 391 
Q 1994 391 2212 530 
Q 2431 669 2431 922 
Q 2431 1156 2273 1281 
Q 2116 1406 1581 1522 
L 1381 1569 
Q 847 1681 609 1914 
Q 372 2147 372 2553 
Q 372 3047 722 3315 
Q 1072 3584 1716 3584 
Q 2034 3584 2315 3537 
Q 2597 3491 2834 3397 
z
" transform="scale(0.015625)"/>
       <path id="DejaVuSans-74" d="M 1172 4494 
L 1172 3500 
L 2356 3500 
L 2356 3053 
L 1172 3053 
L 1172 1153 
Q 1172 725 1289 603 
Q 1406 481 1766 481 
L 2356 481 
L 2356 0 
L 1766 0 
Q 1100 0 847 248 
Q 594 497 594 1153 
L 594 3053 
L 172 3053 
L 172 3500 
L 594 3500 
L 594 4494 
L 1172 4494 
z
" transform="scale(0.015625)"/>
       <path id="DejaVuSans-61" d="M 2194 1759 
Q 1497 1759 1228 1600 
Q 959 1441 959 1056 
Q 959 750 1161 570 
Q 1363 391 1709 391 
Q 2188 391 2477 730 
Q 2766 1069 2766 1631 
L 2766 1759 
L 2194 1759 
z
M 3341 1997 
L 3341 0 
L 2766 0 
L 2766 531 
Q 2569 213 2275 61 
Q 1981 -91 1556 -91 
Q 1019 -91 701 211 
Q 384 513 384 1019 
Q 384 1609 779 1909 
Q 1175 2209 1959 2209 
L 2766 2209 
L 2766 2266 
Q 2766 2663 2505 2880 
Q 2244 3097 1772 3097 
Q 1472 3097 1187 3025 
Q 903 2953 641 2809 
L 641 3341 
Q 956 3463 1253 3523 
Q 1550 3584 1831 3584 
Q 2591 3584 2966 3190 
Q 3341 2797 3341 1997 
z
" transform="scale(0.015625)"/>
       <path id="DejaVuSans-6e" d="M 3513 2113 
L 3513 0 
L 2938 0 
L 2938 2094 
Q 2938 2591 2744 2837 
Q 2550 3084 2163 3084 
Q 1697 3084 1428 2787 
Q 1159 2491 1159 1978 
L 1159 0 
L 581 0 
L 581 3500 
L 1159 3500 
L 1159 2956 
Q 1366 3272 1645 3428 
Q 1925 3584 2291 3584 
Q 2894 3584 3203 3211 
Q 3513 2838 3513 2113 
z
" transform="scale(0.015625)"/>
       <path id="DejaVuSans-63" d="M 3122 3366 
L 3122 2828 
Q 2878 2963 2633 3030 
Q 2388 3097 2138 3097 
Q 1578 3097 1268 2742 
Q 959 2388 959 1747 
Q 959 1106 1268 751 
Q 1578 397 2138 397 
Q 2388 397 2633 464 
Q 2878 531 3122 666 
L 3122 134 
Q 2881 22 2623 -34 
Q 2366 -91 2075 -91 
Q 1284 -91 818 406 
Q 353 903 353 1747 
Q 353 2603 823 3093 
Q 1294 3584 2113 3584 
Q 2378 3584 2631 3529 
Q 2884 3475 3122 3366 
z
" transform="scale(0.015625)"/>
       <path id="DejaVuSans-65" d="M 3597 1894 
L 3597 1613 
L 953 1613 
Q 991 1019 1311 708 
Q 1631 397 2203 397 
Q 2534 397 2845 478 
Q 3156 559 3463 722 
L 3463 178 
Q 3153 47 2828 -22 
Q 2503 -91 2169 -91 
Q 1331 -91 842 396 
Q 353 884 353 1716 
Q 353 2575 817 3079 
Q 1281 3584 2069 3584 
Q 2775 3584 3186 3129 
Q 3597 2675 3597 1894 
z
M 3022 2063 
Q 3016 2534 2758 2815 
Q 2500 3097 2075 3097 
Q 1594 3097 1305 2825 
Q 1016 2553 972 2059 
L 3022 2063 
z
" transform="scale(0.015625)"/>
       <path id="DejaVuSans-20" transform="scale(0.015625)"/>
       <path id="DejaVuSans-5b" d="M 550 4863 
L 1875 4863 
L 1875 4416 
L 1125 4416 
L 1125 -397 
L 1875 -397 
L 1875 -844 
L 550 -844 
L 550 4863 
z
" transform="scale(0.015625)"/>
       <path id="DejaVuSans-52" d="M 2841 2188 
Q 3044 2119 3236 1894 
Q 3428 1669 3622 1275 
L 4263 0 
L 3584 0 
L 2988 1197 
Q 2756 1666 2539 1819 
Q 2322 1972 1947 1972 
L 1259 1972 
L 1259 0 
L 628 0 
L 628 4666 
L 2053 4666 
Q 2853 4666 3247 4331 
Q 3641 3997 3641 3322 
Q 3641 2881 3436 2590 
Q 3231 2300 2841 2188 
z
M 1259 4147 
L 1259 2491 
L 2053 2491 
Q 2509 2491 2742 2702 
Q 2975 2913 2975 3322 
Q 2975 3731 2742 3939 
Q 2509 4147 2053 4147 
L 1259 4147 
z
" transform="scale(0.015625)"/>
       <path id="DejaVuSans-2299" d="M 2350 2403 
L 3013 2403 
L 3013 1609 
L 2350 1609 
L 2350 2403 
z
M 3306 3522 
Q 3016 3644 2681 3644 
Q 2347 3644 2056 3522 
Q 1769 3400 1531 3163 
Q 1291 2922 1172 2634 
Q 1053 2347 1053 2006 
Q 1053 1675 1172 1387 
Q 1291 1100 1531 859 
Q 1769 622 2056 500 
Q 2347 378 2681 378 
Q 3016 378 3306 500 
Q 3594 622 3831 859 
Q 4072 1100 4190 1387 
Q 4309 1675 4309 2006 
Q 4309 2347 4190 2634 
Q 4072 2922 3831 3163 
Q 3594 3400 3306 3522 
z
M 1878 3956 
Q 2250 4113 2681 4113 
Q 3113 4113 3484 3956 
Q 3856 3800 4163 3494 
Q 4472 3184 4625 2813 
Q 4778 2444 4778 2006 
Q 4778 1578 4625 1206 
Q 4472 838 4163 528 
Q 3856 222 3484 65 
Q 3113 -91 2681 -91 
Q 2250 -91 1878 65 
Q 1506 222 1200 528 
Q 891 838 738 1206 
Q 584 1578 584 2006 
Q 584 2444 738 2813 
Q 891 3184 1200 3494 
Q 1506 3800 1878 3956 
z
" transform="scale(0.015625)"/>
       <path id="DejaVuSans-5d" d="M 1947 4863 
L 1947 -844 
L 622 -844 
L 622 -397 
L 1369 -397 
L 1369 4416 
L 622 4416 
L 622 4863 
L 1947 4863 
z
" transform="scale(0.015625)"/>
      </defs>
      <use xlink:href="#DejaVuSans-44" transform="translate(0 0.015625)"/>
      <use xlink:href="#DejaVuSans-69" transform="translate(77.001953 0.015625)"/>
      <use xlink:href="#DejaVuSans-73" transform="translate(104.785156 0.015625)"/>
      <use xlink:href="#DejaVuSans-74" transform="translate(156.884766 0.015625)"/>
      <use xlink:href="#DejaVuSans-61" transform="translate(196.09375 0.015625)"/>
      <use xlink:href="#DejaVuSans-6e" transform="translate(257.373047 0.015625)"/>
      <use xlink:href="#DejaVuSans-63" transform="translate(320.751953 0.015625)"/>
      <use xlink:href="#DejaVuSans-65" transform="translate(375.732422 0.015625)"/>
      <use xlink:href="#DejaVuSans-20" transform="translate(437.255859 0.015625)"/>
      <use xlink:href="#DejaVuSans-5b" transform="translate(469.042969 0.015625)"/>
      <use xlink:href="#DejaVuSans-52" transform="translate(504.931641 0.015625)"/>
      <use xlink:href="#DejaVuSans-2299" transform="translate(589.008789 -16.390625) scale(0.7)"/>
      <use xlink:href="#DejaVuSans-5d" transform="translate(664.033203 0.015625)"/>
     </g>
    </g>
   </g>
   <g id="matplotlib.axis_2">
    <g id="ytick_1">
     <g id="line2d_63">
      <defs>
       <path id="m55ad762cea" d="M 0 0 
L 3.5 0 
" style="stroke: #000000; stroke-width: 1.5"/>
      </defs>
      <g>
       <use xlink:href="#m55ad762cea" x="71.786518" y="200.617006" style="stroke: #000000; stroke-width: 1.5"/>
      </g>
     </g>
     <g id="line2d_64">
      <defs>
       <path id="mf57cf076d4" d="M 0 0 
L -3.5 0 
" style="stroke: #000000; stroke-width: 1.5"/>
      </defs>
      <g>
       <use xlink:href="#mf57cf076d4" x="417.760168" y="200.617006" style="stroke: #000000; stroke-width: 1.5"/>
      </g>
     </g>
     <g id="text_9">
      <!-- $\mathdefault{10^{-16}}$ -->
      <g transform="translate(34.806518 205.176068) scale(0.12 -0.12)">
       <defs>
        <path id="DejaVuSans-2212" d="M 678 2272 
L 4684 2272 
L 4684 1741 
L 678 1741 
L 678 2272 
z
" transform="scale(0.015625)"/>
       </defs>
       <use xlink:href="#DejaVuSans-31" transform="translate(0 0.765625)"/>
       <use xlink:href="#DejaVuSans-30" transform="translate(63.623047 0.765625)"/>
       <use xlink:href="#DejaVuSans-2212" transform="translate(128.203125 39.046875) scale(0.7)"/>
       <use xlink:href="#DejaVuSans-31" transform="translate(186.855469 39.046875) scale(0.7)"/>
       <use xlink:href="#DejaVuSans-36" transform="translate(231.391602 39.046875) scale(0.7)"/>
      </g>
     </g>
    </g>
    <g id="ytick_2">
     <g id="line2d_65">
      <g>
       <use xlink:href="#m55ad762cea" x="71.786518" y="139.781331" style="stroke: #000000; stroke-width: 1.5"/>
      </g>
     </g>
     <g id="line2d_66">
      <g>
       <use xlink:href="#mf57cf076d4" x="417.760168" y="139.781331" style="stroke: #000000; stroke-width: 1.5"/>
      </g>
     </g>
     <g id="text_10">
      <!-- $\mathdefault{10^{-15}}$ -->
      <g transform="translate(34.806518 144.340394) scale(0.12 -0.12)">
       <use xlink:href="#DejaVuSans-31" transform="translate(0 0.684375)"/>
       <use xlink:href="#DejaVuSans-30" transform="translate(63.623047 0.684375)"/>
       <use xlink:href="#DejaVuSans-2212" transform="translate(128.203125 38.965625) scale(0.7)"/>
       <use xlink:href="#DejaVuSans-31" transform="translate(186.855469 38.965625) scale(0.7)"/>
       <use xlink:href="#DejaVuSans-35" transform="translate(231.391602 38.965625) scale(0.7)"/>
      </g>
     </g>
    </g>
    <g id="ytick_3">
     <g id="line2d_67">
      <g>
       <use xlink:href="#m55ad762cea" x="71.786518" y="78.945657" style="stroke: #000000; stroke-width: 1.5"/>
      </g>
     </g>
     <g id="line2d_68">
      <g>
       <use xlink:href="#mf57cf076d4" x="417.760168" y="78.945657" style="stroke: #000000; stroke-width: 1.5"/>
      </g>
     </g>
     <g id="text_11">
      <!-- $\mathdefault{10^{-14}}$ -->
      <g transform="translate(34.806518 83.504719) scale(0.12 -0.12)">
       <use xlink:href="#DejaVuSans-31" transform="translate(0 0.684375)"/>
       <use xlink:href="#DejaVuSans-30" transform="translate(63.623047 0.684375)"/>
       <use xlink:href="#DejaVuSans-2212" transform="translate(128.203125 38.965625) scale(0.7)"/>
       <use xlink:href="#DejaVuSans-31" transform="translate(186.855469 38.965625) scale(0.7)"/>
       <use xlink:href="#DejaVuSans-34" transform="translate(231.391602 38.965625) scale(0.7)"/>
      </g>
     </g>
    </g>
    <g id="ytick_4">
     <g id="line2d_69">
      <g>
       <use xlink:href="#m55ad762cea" x="71.786518" y="18.109982" style="stroke: #000000; stroke-width: 1.5"/>
      </g>
     </g>
     <g id="line2d_70">
      <g>
       <use xlink:href="#mf57cf076d4" x="417.760168" y="18.109982" style="stroke: #000000; stroke-width: 1.5"/>
      </g>
     </g>
     <g id="text_12">
      <!-- $\mathdefault{10^{-13}}$ -->
      <g transform="translate(34.806518 22.669044) scale(0.12 -0.12)">
       <use xlink:href="#DejaVuSans-31" transform="translate(0 0.765625)"/>
       <use xlink:href="#DejaVuSans-30" transform="translate(63.623047 0.765625)"/>
       <use xlink:href="#DejaVuSans-2212" transform="translate(128.203125 39.046875) scale(0.7)"/>
       <use xlink:href="#DejaVuSans-31" transform="translate(186.855469 39.046875) scale(0.7)"/>
       <use xlink:href="#DejaVuSans-33" transform="translate(231.391602 39.046875) scale(0.7)"/>
      </g>
     </g>
    </g>
    <g id="ytick_5">
     <g id="line2d_71">
      <defs>
       <path id="mf7791d4a0f" d="M 0 0 
L 2 0 
" style="stroke: #000000; stroke-width: 1.5"/>
      </defs>
      <g>
       <use xlink:href="#mf7791d4a0f" x="71.786518" y="232.426687" style="stroke: #000000; stroke-width: 1.5"/>
      </g>
     </g>
     <g id="line2d_72">
      <defs>
       <path id="m6a9d6142c9" d="M 0 0 
L -2 0 
" style="stroke: #000000; stroke-width: 1.5"/>
      </defs>
      <g>
       <use xlink:href="#m6a9d6142c9" x="417.760168" y="232.426687" style="stroke: #000000; stroke-width: 1.5"/>
      </g>
     </g>
    </g>
    <g id="ytick_6">
     <g id="line2d_73">
      <g>
       <use xlink:href="#mf7791d4a0f" x="71.786518" y="224.825955" style="stroke: #000000; stroke-width: 1.5"/>
      </g>
     </g>
     <g id="line2d_74">
      <g>
       <use xlink:href="#m6a9d6142c9" x="417.760168" y="224.825955" style="stroke: #000000; stroke-width: 1.5"/>
      </g>
     </g>
    </g>
    <g id="ytick_7">
     <g id="line2d_75">
      <g>
       <use xlink:href="#mf7791d4a0f" x="71.786518" y="218.930369" style="stroke: #000000; stroke-width: 1.5"/>
      </g>
     </g>
     <g id="line2d_76">
      <g>
       <use xlink:href="#m6a9d6142c9" x="417.760168" y="218.930369" style="stroke: #000000; stroke-width: 1.5"/>
      </g>
     </g>
    </g>
    <g id="ytick_8">
     <g id="line2d_77">
      <g>
       <use xlink:href="#mf7791d4a0f" x="71.786518" y="214.113324" style="stroke: #000000; stroke-width: 1.5"/>
      </g>
     </g>
     <g id="line2d_78">
      <g>
       <use xlink:href="#m6a9d6142c9" x="417.760168" y="214.113324" style="stroke: #000000; stroke-width: 1.5"/>
      </g>
     </g>
    </g>
    <g id="ytick_9">
     <g id="line2d_79">
      <g>
       <use xlink:href="#mf7791d4a0f" x="71.786518" y="210.040571" style="stroke: #000000; stroke-width: 1.5"/>
      </g>
     </g>
     <g id="line2d_80">
      <g>
       <use xlink:href="#m6a9d6142c9" x="417.760168" y="210.040571" style="stroke: #000000; stroke-width: 1.5"/>
      </g>
     </g>
    </g>
    <g id="ytick_10">
     <g id="line2d_81">
      <g>
       <use xlink:href="#mf7791d4a0f" x="71.786518" y="206.512592" style="stroke: #000000; stroke-width: 1.5"/>
      </g>
     </g>
     <g id="line2d_82">
      <g>
       <use xlink:href="#m6a9d6142c9" x="417.760168" y="206.512592" style="stroke: #000000; stroke-width: 1.5"/>
      </g>
     </g>
    </g>
    <g id="ytick_11">
     <g id="line2d_83">
      <g>
       <use xlink:href="#mf7791d4a0f" x="71.786518" y="203.400694" style="stroke: #000000; stroke-width: 1.5"/>
      </g>
     </g>
     <g id="line2d_84">
      <g>
       <use xlink:href="#m6a9d6142c9" x="417.760168" y="203.400694" style="stroke: #000000; stroke-width: 1.5"/>
      </g>
     </g>
    </g>
    <g id="ytick_12">
     <g id="line2d_85">
      <g>
       <use xlink:href="#mf7791d4a0f" x="71.786518" y="182.303643" style="stroke: #000000; stroke-width: 1.5"/>
      </g>
     </g>
     <g id="line2d_86">
      <g>
       <use xlink:href="#m6a9d6142c9" x="417.760168" y="182.303643" style="stroke: #000000; stroke-width: 1.5"/>
      </g>
     </g>
    </g>
    <g id="ytick_13">
     <g id="line2d_87">
      <g>
       <use xlink:href="#mf7791d4a0f" x="71.786518" y="171.591012" style="stroke: #000000; stroke-width: 1.5"/>
      </g>
     </g>
     <g id="line2d_88">
      <g>
       <use xlink:href="#m6a9d6142c9" x="417.760168" y="171.591012" style="stroke: #000000; stroke-width: 1.5"/>
      </g>
     </g>
    </g>
    <g id="ytick_14">
     <g id="line2d_89">
      <g>
       <use xlink:href="#mf7791d4a0f" x="71.786518" y="163.99028" style="stroke: #000000; stroke-width: 1.5"/>
      </g>
     </g>
     <g id="line2d_90">
      <g>
       <use xlink:href="#m6a9d6142c9" x="417.760168" y="163.99028" style="stroke: #000000; stroke-width: 1.5"/>
      </g>
     </g>
    </g>
    <g id="ytick_15">
     <g id="line2d_91">
      <g>
       <use xlink:href="#mf7791d4a0f" x="71.786518" y="158.094694" style="stroke: #000000; stroke-width: 1.5"/>
      </g>
     </g>
     <g id="line2d_92">
      <g>
       <use xlink:href="#m6a9d6142c9" x="417.760168" y="158.094694" style="stroke: #000000; stroke-width: 1.5"/>
      </g>
     </g>
    </g>
    <g id="ytick_16">
     <g id="line2d_93">
      <g>
       <use xlink:href="#mf7791d4a0f" x="71.786518" y="153.277649" style="stroke: #000000; stroke-width: 1.5"/>
      </g>
     </g>
     <g id="line2d_94">
      <g>
       <use xlink:href="#m6a9d6142c9" x="417.760168" y="153.277649" style="stroke: #000000; stroke-width: 1.5"/>
      </g>
     </g>
    </g>
    <g id="ytick_17">
     <g id="line2d_95">
      <g>
       <use xlink:href="#mf7791d4a0f" x="71.786518" y="149.204896" style="stroke: #000000; stroke-width: 1.5"/>
      </g>
     </g>
     <g id="line2d_96">
      <g>
       <use xlink:href="#m6a9d6142c9" x="417.760168" y="149.204896" style="stroke: #000000; stroke-width: 1.5"/>
      </g>
     </g>
    </g>
    <g id="ytick_18">
     <g id="line2d_97">
      <g>
       <use xlink:href="#mf7791d4a0f" x="71.786518" y="145.676917" style="stroke: #000000; stroke-width: 1.5"/>
      </g>
     </g>
     <g id="line2d_98">
      <g>
       <use xlink:href="#m6a9d6142c9" x="417.760168" y="145.676917" style="stroke: #000000; stroke-width: 1.5"/>
      </g>
     </g>
    </g>
    <g id="ytick_19">
     <g id="line2d_99">
      <g>
       <use xlink:href="#mf7791d4a0f" x="71.786518" y="142.565019" style="stroke: #000000; stroke-width: 1.5"/>
      </g>
     </g>
     <g id="line2d_100">
      <g>
       <use xlink:href="#m6a9d6142c9" x="417.760168" y="142.565019" style="stroke: #000000; stroke-width: 1.5"/>
      </g>
     </g>
    </g>
    <g id="ytick_20">
     <g id="line2d_101">
      <g>
       <use xlink:href="#mf7791d4a0f" x="71.786518" y="121.467968" style="stroke: #000000; stroke-width: 1.5"/>
      </g>
     </g>
     <g id="line2d_102">
      <g>
       <use xlink:href="#m6a9d6142c9" x="417.760168" y="121.467968" style="stroke: #000000; stroke-width: 1.5"/>
      </g>
     </g>
    </g>
    <g id="ytick_21">
     <g id="line2d_103">
      <g>
       <use xlink:href="#mf7791d4a0f" x="71.786518" y="110.755338" style="stroke: #000000; stroke-width: 1.5"/>
      </g>
     </g>
     <g id="line2d_104">
      <g>
       <use xlink:href="#m6a9d6142c9" x="417.760168" y="110.755338" style="stroke: #000000; stroke-width: 1.5"/>
      </g>
     </g>
    </g>
    <g id="ytick_22">
     <g id="line2d_105">
      <g>
       <use xlink:href="#mf7791d4a0f" x="71.786518" y="103.154605" style="stroke: #000000; stroke-width: 1.5"/>
      </g>
     </g>
     <g id="line2d_106">
      <g>
       <use xlink:href="#m6a9d6142c9" x="417.760168" y="103.154605" style="stroke: #000000; stroke-width: 1.5"/>
      </g>
     </g>
    </g>
    <g id="ytick_23">
     <g id="line2d_107">
      <g>
       <use xlink:href="#mf7791d4a0f" x="71.786518" y="97.259019" style="stroke: #000000; stroke-width: 1.5"/>
      </g>
     </g>
     <g id="line2d_108">
      <g>
       <use xlink:href="#m6a9d6142c9" x="417.760168" y="97.259019" style="stroke: #000000; stroke-width: 1.5"/>
      </g>
     </g>
    </g>
    <g id="ytick_24">
     <g id="line2d_109">
      <g>
       <use xlink:href="#mf7791d4a0f" x="71.786518" y="92.441975" style="stroke: #000000; stroke-width: 1.5"/>
      </g>
     </g>
     <g id="line2d_110">
      <g>
       <use xlink:href="#m6a9d6142c9" x="417.760168" y="92.441975" style="stroke: #000000; stroke-width: 1.5"/>
      </g>
     </g>
    </g>
    <g id="ytick_25">
     <g id="line2d_111">
      <g>
       <use xlink:href="#mf7791d4a0f" x="71.786518" y="88.369222" style="stroke: #000000; stroke-width: 1.5"/>
      </g>
     </g>
     <g id="line2d_112">
      <g>
       <use xlink:href="#m6a9d6142c9" x="417.760168" y="88.369222" style="stroke: #000000; stroke-width: 1.5"/>
      </g>
     </g>
    </g>
    <g id="ytick_26">
     <g id="line2d_113">
      <g>
       <use xlink:href="#mf7791d4a0f" x="71.786518" y="84.841243" style="stroke: #000000; stroke-width: 1.5"/>
      </g>
     </g>
     <g id="line2d_114">
      <g>
       <use xlink:href="#m6a9d6142c9" x="417.760168" y="84.841243" style="stroke: #000000; stroke-width: 1.5"/>
      </g>
     </g>
    </g>
    <g id="ytick_27">
     <g id="line2d_115">
      <g>
       <use xlink:href="#mf7791d4a0f" x="71.786518" y="81.729344" style="stroke: #000000; stroke-width: 1.5"/>
      </g>
     </g>
     <g id="line2d_116">
      <g>
       <use xlink:href="#m6a9d6142c9" x="417.760168" y="81.729344" style="stroke: #000000; stroke-width: 1.5"/>
      </g>
     </g>
    </g>
    <g id="ytick_28">
     <g id="line2d_117">
      <g>
       <use xlink:href="#mf7791d4a0f" x="71.786518" y="60.632294" style="stroke: #000000; stroke-width: 1.5"/>
      </g>
     </g>
     <g id="line2d_118">
      <g>
       <use xlink:href="#m6a9d6142c9" x="417.760168" y="60.632294" style="stroke: #000000; stroke-width: 1.5"/>
      </g>
     </g>
    </g>
    <g id="ytick_29">
     <g id="line2d_119">
      <g>
       <use xlink:href="#mf7791d4a0f" x="71.786518" y="49.919663" style="stroke: #000000; stroke-width: 1.5"/>
      </g>
     </g>
     <g id="line2d_120">
      <g>
       <use xlink:href="#m6a9d6142c9" x="417.760168" y="49.919663" style="stroke: #000000; stroke-width: 1.5"/>
      </g>
     </g>
    </g>
    <g id="ytick_30">
     <g id="line2d_121">
      <g>
       <use xlink:href="#mf7791d4a0f" x="71.786518" y="42.318931" style="stroke: #000000; stroke-width: 1.5"/>
      </g>
     </g>
     <g id="line2d_122">
      <g>
       <use xlink:href="#m6a9d6142c9" x="417.760168" y="42.318931" style="stroke: #000000; stroke-width: 1.5"/>
      </g>
     </g>
    </g>
    <g id="ytick_31">
     <g id="line2d_123">
      <g>
       <use xlink:href="#mf7791d4a0f" x="71.786518" y="36.423345" style="stroke: #000000; stroke-width: 1.5"/>
      </g>
     </g>
     <g id="line2d_124">
      <g>
       <use xlink:href="#m6a9d6142c9" x="417.760168" y="36.423345" style="stroke: #000000; stroke-width: 1.5"/>
      </g>
     </g>
    </g>
    <g id="ytick_32">
     <g id="line2d_125">
      <g>
       <use xlink:href="#mf7791d4a0f" x="71.786518" y="31.6063" style="stroke: #000000; stroke-width: 1.5"/>
      </g>
     </g>
     <g id="line2d_126">
      <g>
       <use xlink:href="#m6a9d6142c9" x="417.760168" y="31.6063" style="stroke: #000000; stroke-width: 1.5"/>
      </g>
     </g>
    </g>
    <g id="ytick_33">
     <g id="line2d_127">
      <g>
       <use xlink:href="#mf7791d4a0f" x="71.786518" y="27.533547" style="stroke: #000000; stroke-width: 1.5"/>
      </g>
     </g>
     <g id="line2d_128">
      <g>
       <use xlink:href="#m6a9d6142c9" x="417.760168" y="27.533547" style="stroke: #000000; stroke-width: 1.5"/>
      </g>
     </g>
    </g>
    <g id="ytick_34">
     <g id="line2d_129">
      <g>
       <use xlink:href="#mf7791d4a0f" x="71.786518" y="24.005568" style="stroke: #000000; stroke-width: 1.5"/>
      </g>
     </g>
     <g id="line2d_130">
      <g>
       <use xlink:href="#m6a9d6142c9" x="417.760168" y="24.005568" style="stroke: #000000; stroke-width: 1.5"/>
      </g>
     </g>
    </g>
    <g id="ytick_35">
     <g id="line2d_131">
      <g>
       <use xlink:href="#mf7791d4a0f" x="71.786518" y="20.89367" style="stroke: #000000; stroke-width: 1.5"/>
      </g>
     </g>
     <g id="line2d_132">
      <g>
       <use xlink:href="#m6a9d6142c9" x="417.760168" y="20.89367" style="stroke: #000000; stroke-width: 1.5"/>
      </g>
     </g>
    </g>
    <g id="text_13">
     <!-- $\dot{M}$ [M$_\odot$ yr$^{-1}$] -->
     <g transform="translate(28.286518 163.122) rotate(-90) scale(0.12 -0.12)">
      <defs>
       <path id="DejaVuSans-307" d="M -1894 4863 
L -1319 4863 
L -1319 4134 
L -1894 4134 
L -1894 4863 
z
M -1600 3584 
L -1600 3584 
z
" transform="scale(0.015625)"/>
       <path id="DejaVuSans-Oblique-4d" d="M 1081 4666 
L 2028 4666 
L 2572 1522 
L 4378 4666 
L 5350 4666 
L 4441 0 
L 3828 0 
L 4622 4091 
L 2791 897 
L 2175 897 
L 1581 4103 
L 788 0 
L 172 0 
L 1081 4666 
z
" transform="scale(0.015625)"/>
       <path id="DejaVuSans-4d" d="M 628 4666 
L 1569 4666 
L 2759 1491 
L 3956 4666 
L 4897 4666 
L 4897 0 
L 4281 0 
L 4281 4097 
L 3078 897 
L 2444 897 
L 1241 4097 
L 1241 0 
L 628 0 
L 628 4666 
z
" transform="scale(0.015625)"/>
       <path id="DejaVuSans-79" d="M 2059 -325 
Q 1816 -950 1584 -1140 
Q 1353 -1331 966 -1331 
L 506 -1331 
L 506 -850 
L 844 -850 
Q 1081 -850 1212 -737 
Q 1344 -625 1503 -206 
L 1606 56 
L 191 3500 
L 800 3500 
L 1894 763 
L 2988 3500 
L 3597 3500 
L 2059 -325 
z
" transform="scale(0.015625)"/>
       <path id="DejaVuSans-72" d="M 2631 2963 
Q 2534 3019 2420 3045 
Q 2306 3072 2169 3072 
Q 1681 3072 1420 2755 
Q 1159 2438 1159 1844 
L 1159 0 
L 581 0 
L 581 3500 
L 1159 3500 
L 1159 2956 
Q 1341 3275 1631 3429 
Q 1922 3584 2338 3584 
Q 2397 3584 2469 3576 
Q 2541 3569 2628 3553 
L 2631 2963 
z
" transform="scale(0.015625)"/>
      </defs>
      <use xlink:href="#DejaVuSans-307" transform="translate(79.163574 30.015625)"/>
      <use xlink:href="#DejaVuSans-Oblique-4d" transform="translate(0 0.609375)"/>
      <use xlink:href="#DejaVuSans-20" transform="translate(86.279297 0.609375)"/>
      <use xlink:href="#DejaVuSans-5b" transform="translate(118.066406 0.609375)"/>
      <use xlink:href="#DejaVuSans-4d" transform="translate(157.080078 0.609375)"/>
      <use xlink:href="#DejaVuSans-2299" transform="translate(257.954102 -15.796875) scale(0.7)"/>
      <use xlink:href="#DejaVuSans-20" transform="translate(332.978516 0.609375)"/>
      <use xlink:href="#DejaVuSans-79" transform="translate(364.765625 0.609375)"/>
      <use xlink:href="#DejaVuSans-72" transform="translate(423.945312 0.609375)"/>
      <use xlink:href="#DejaVuSans-2212" transform="translate(466.015625 38.890625) scale(0.7)"/>
      <use xlink:href="#DejaVuSans-31" transform="translate(524.667969 38.890625) scale(0.7)"/>
      <use xlink:href="#DejaVuSans-5d" transform="translate(571.938477 0.609375)"/>
     </g>
    </g>
   </g>
   <g id="patch_3">
    <path d="M 71.786518 242.124 
L 71.786518 10.8 
" style="fill: none; stroke: #000000; stroke-width: 1.5; stroke-linejoin: miter; stroke-linecap: square"/>
   </g>
   <g id="patch_4">
    <path d="M 417.760168 242.124 
L 417.760168 10.8 
" style="fill: none; stroke: #000000; stroke-width: 1.5; stroke-linejoin: miter; stroke-linecap: square"/>
   </g>
   <g id="patch_5">
    <path d="M 71.786518 242.124 
L 417.760168 242.124 
" style="fill: none; stroke: #000000; stroke-width: 1.5; stroke-linejoin: miter; stroke-linecap: square"/>
   </g>
   <g id="patch_6">
    <path d="M 71.786518 10.8 
L 417.760168 10.8 
" style="fill: none; stroke: #000000; stroke-width: 1.5; stroke-linejoin: miter; stroke-linecap: square"/>
   </g>
   <g id="PolyCollection_1">
    <path d="M 169.188713 40.040275 
L 169.188713 81.131736 
L 169.522422 81.296922 
L 170.09947 99.764299 
L 170.65683 69.34092 
L 171.216959 70.249065 
L 171.757686 62.140848 
L 172.329081 60.55001 
L 172.884744 60.695478 
L 173.440206 62.687865 
L 173.995612 66.419271 
L 174.551017 68.864191 
L 175.106264 67.653976 
L 175.661487 67.732149 
L 176.216801 72.137951 
L 176.771933 71.078877 
L 177.327071 64.882964 
L 177.882253 70.620425 
L 178.437411 74.301254 
L 178.992568 79.089855 
L 179.547663 81.415077 
L 180.102798 72.172546 
L 180.65792 73.561358 
L 181.212933 69.444733 
L 181.768002 70.342257 
L 182.323228 77.430412 
L 182.878297 76.051371 
L 183.433148 81.751951 
L 183.988321 86.014928 
L 184.543434 108.410671 
L 185.098517 123.15959 
L 185.653678 117.774967 
L 186.208885 60062.920798 
L 186.763961 121.660917 
L 187.31893 107.899418 
L 187.874351 118.521807 
L 188.428968 60062.920798 
L 188.984034 60062.920798 
L 189.538976 129.258461 
L 190.094122 124.62685 
L 190.649252 60062.920798 
L 191.204349 60062.920798 
L 191.759406 60062.920798 
L 192.314432 126.981612 
L 192.869445 100.820972 
L 193.50719 71.668348 
L 193.960589 85.553062 
L 194.526585 82.504348 
L 195.085335 105.440305 
L 195.641561 167.052425 
L 196.197195 60062.920798 
L 196.752833 141.037926 
L 197.308415 130.878083 
L 197.86367 104.642304 
L 198.418851 105.537904 
L 198.974028 98.185756 
L 199.529129 94.605183 
L 200.084447 78.133894 
L 200.639587 77.647683 
L 201.194649 77.902179 
L 201.749871 75.355732 
L 202.305047 77.035076 
L 202.860217 76.148335 
L 203.41521 77.730043 
L 203.970367 76.543774 
L 204.525447 79.071193 
L 205.080433 77.594564 
L 205.63537 77.682158 
L 206.190441 66.950672 
L 206.745759 74.264711 
L 207.30076 70.283216 
L 207.855617 75.442649 
L 208.4109 72.778909 
L 208.965996 69.535816 
L 209.520915 73.281592 
L 210.075385 75.71789 
L 210.632694 77.538532 
L 211.185251 81.820249 
L 211.740775 76.792631 
L 212.293803 77.601595 
L 212.85032 71.415923 
L 213.406807 67.979992 
L 213.959725 69.811868 
L 214.516622 65.407508 
L 215.071782 62.80354 
L 215.628281 65.693335 
L 216.181849 81.036384 
L 216.736943 72.945696 
L 217.290726 64.222359 
L 217.847037 65.240533 
L 218.401992 68.208468 
L 218.957045 70.375278 
L 219.512389 74.95395 
L 220.067151 79.424566 
L 220.622272 91.954363 
L 221.181318 84.743798 
L 221.771074 142.975409 
L 222.289054 60062.920798 
L 222.842332 60062.920798 
L 223.397662 60062.920798 
L 223.964186 127.594795 
L 224.493161 149.360889 
L 225.061295 60062.920798 
L 225.616635 60062.920798 
L 226.177007 160.525576 
L 226.737007 158.636284 
L 227.279536 60062.920798 
L 227.832572 60062.920798 
L 228.435948 107.28982 
L 228.947779 60062.920798 
L 229.496557 60062.920798 
L 230.085202 60062.920798 
L 230.619843 60062.920798 
L 231.189199 60062.920798 
L 231.723694 60062.920798 
L 232.260232 60062.920798 
L 232.785185 198.818309 
L 233.390828 60062.920798 
L 233.970363 60062.920798 
L 234.522465 166.574814 
L 235.071735 60062.920798 
L 235.589112 60062.920798 
L 236.134199 60062.920798 
L 236.720795 60062.920798 
L 237.274683 60062.920798 
L 237.826389 60062.920798 
L 238.37789 60062.920798 
L 238.972016 60062.920798 
L 239.484801 60062.920798 
L 240.0619 60062.920798 
L 240.60572 147.86123 
L 241.151051 60062.920798 
L 241.722058 60062.920798 
L 242.276321 60062.920798 
L 242.808303 60062.920798 
L 243.375983 139.512372 
L 243.924103 60062.920798 
L 244.486065 60062.920798 
L 245.040878 60062.920798 
L 245.598302 60062.920798 
L 246.162254 177.920528 
L 246.702763 60062.920798 
L 247.254442 60062.920798 
L 247.820682 60062.920798 
L 248.369141 60062.920798 
L 248.930177 60062.920798 
L 249.480575 60062.920798 
L 250.037565 60062.920798 
L 250.574233 60062.920798 
L 251.113954 60062.920798 
L 251.74861 60062.920798 
L 252.261086 60062.920798 
L 252.803541 60062.920798 
L 253.369332 60062.920798 
L 253.946179 60062.920798 
L 254.471959 60062.920798 
L 255.031099 60062.920798 
L 255.592203 60062.920798 
L 256.139358 60062.920798 
L 256.688018 60062.920798 
L 257.261155 145.58838 
L 257.806969 121.385424 
L 258.362798 125.218856 
L 258.917154 145.424572 
L 259.474089 162.85173 
L 260.04281 139.420765 
L 260.589946 126.560409 
L 261.138784 60062.920798 
L 261.693702 60062.920798 
L 262.26305 60062.920798 
L 262.802578 60062.920798 
L 263.354063 138.519037 
L 263.905399 158.243833 
L 264.468986 231.609273 
L 265.022033 134.590041 
L 265.590489 60062.920798 
L 266.141799 60062.920798 
L 266.698667 60062.920798 
L 267.234312 60062.920798 
L 267.796463 60062.920798 
L 268.352022 60062.920798 
L 268.909068 148.665855 
L 269.467922 60062.920798 
L 270.022804 128.6769 
L 270.572836 124.668599 
L 271.138904 106.192123 
L 271.70783 132.034706 
L 272.242785 60062.920798 
L 272.795344 126.509096 
L 273.35349 172.558364 
L 273.876968 215.87488 
L 274.476555 193.913706 
L 275.007571 60062.920798 
L 275.563563 60062.920798 
L 276.122437 60062.920798 
L 276.691053 123.871805 
L 277.236627 94.517957 
L 277.772804 92.992905 
L 278.342887 78.144177 
L 278.902739 91.91645 
L 279.439656 95.81562 
L 280.013719 98.673005 
L 280.560105 105.946816 
L 281.124357 103.798736 
L 281.691635 92.093751 
L 282.227961 96.273855 
L 282.799887 140.747131 
L 283.32952 101.842594 
L 283.903771 60062.920798 
L 284.464739 60062.920798 
L 284.994943 104.954871 
L 285.542503 136.379404 
L 286.121758 129.214807 
L 286.642776 112.748601 
L 287.242273 89.475397 
L 287.782783 87.975439 
L 288.3796 92.003511 
L 288.896769 89.914014 
L 289.448021 90.577298 
L 290.000709 91.634532 
L 290.555779 88.299022 
L 291.11976 102.983659 
L 291.677041 115.315528 
L 292.230802 108.166083 
L 292.772416 136.164212 
L 293.321046 100.41727 
L 293.897924 113.009049 
L 294.445797 125.945127 
L 294.999683 156.883243 
L 295.55849 150.648766 
L 296.106468 135.696818 
L 296.656342 119.133648 
L 297.225766 154.566262 
L 297.764203 133.591169 
L 298.333231 95.514002 
L 298.887068 100.245878 
L 299.4362 60062.920798 
L 299.998684 136.837425 
L 300.547829 154.08357 
L 301.094941 152.469119 
L 301.663507 91.970348 
L 302.221819 60062.920798 
L 302.770579 172.75637 
L 303.32853 102.155621 
L 303.876995 98.515195 
L 304.430548 89.009288 
L 304.991566 86.833155 
L 305.546573 96.956939 
L 306.103207 83.318599 
L 306.623719 87.287159 
L 307.231684 82.175246 
L 307.737249 81.600941 
L 308.329671 83.320918 
L 308.880771 108.450705 
L 309.422212 108.50633 
L 309.97766 100.699904 
L 310.535391 114.585499 
L 311.097166 107.413909 
L 311.669239 91.447911 
L 312.202676 90.454896 
L 312.773446 89.571115 
L 313.308609 89.600162 
L 313.864292 83.432458 
L 314.430937 86.692758 
L 314.966631 99.05907 
L 315.540063 112.894284 
L 316.084144 94.439863 
L 316.652741 81.72154 
L 317.202048 78.545804 
L 317.74216 86.835251 
L 318.336689 93.997035 
L 318.862989 87.369057 
L 319.420053 87.55107 
L 319.971896 94.597463 
L 320.526814 85.977441 
L 321.08574 84.13506 
L 321.638577 82.222248 
L 322.205771 80.765531 
L 322.748154 82.356481 
L 323.306044 82.970433 
L 323.859698 84.628906 
L 324.418747 89.205744 
L 324.967409 89.733292 
L 325.53219 103.818469 
L 326.085572 108.665014 
L 326.638849 112.802868 
L 327.186641 131.669421 
L 327.742378 111.726954 
L 328.292313 96.531224 
L 328.852031 108.935668 
L 329.414094 115.951673 
L 329.967546 60062.920798 
L 330.527941 60062.920798 
L 331.079765 60062.920798 
L 331.629592 177.828616 
L 332.197224 60062.920798 
L 332.719565 60062.920798 
L 333.303751 60062.920798 
L 333.867145 60062.920798 
L 334.399888 60062.920798 
L 334.961502 60062.920798 
L 335.508113 60062.920798 
L 336.074485 131.885584 
L 336.634683 128.390019 
L 337.183229 97.215203 
L 337.754875 144.831176 
L 338.281003 60062.920798 
L 338.849167 60062.920798 
L 339.420003 60062.920798 
L 339.959861 124.398704 
L 340.510212 119.533683 
L 341.062225 131.512151 
L 341.629617 60062.920798 
L 342.179901 60062.920798 
L 342.741698 60062.920798 
L 343.289913 60062.920798 
L 343.847192 60062.920798 
L 344.412328 123.968892 
L 344.941736 112.095923 
L 345.520388 184.698615 
L 346.053247 94.89471 
L 346.625312 127.716602 
L 347.164138 60062.920798 
L 347.731268 184.272828 
L 348.290504 60062.920798 
L 348.833729 129.72387 
L 349.403711 132.030058 
L 349.941292 124.744287 
L 350.503463 60062.920798 
L 351.070598 135.747117 
L 351.617019 123.681756 
L 352.163677 97.704717 
L 352.718874 92.780166 
L 353.285218 101.038457 
L 353.83583 120.397017 
L 354.389337 110.668969 
L 354.939355 110.479095 
L 355.500343 103.861396 
L 356.047109 100.086533 
L 356.615349 88.168735 
L 357.17089 85.620146 
L 357.709384 81.462878 
L 358.287965 79.003904 
L 358.816704 83.147412 
L 359.406673 78.929327 
L 359.939986 77.435233 
L 360.48486 77.005724 
L 361.051137 77.928723 
L 361.592138 76.067307 
L 362.166481 67.488896 
L 362.725728 76.108347 
L 363.274163 73.335609 
L 363.827823 81.780222 
L 364.380886 85.74361 
L 364.93362 73.676818 
L 365.489694 69.491823 
L 366.046992 66.510833 
L 366.598371 64.580106 
L 367.162255 73.344063 
L 367.710702 72.03566 
L 368.266166 68.486913 
L 368.818954 74.051629 
L 369.378576 76.85443 
L 369.931474 78.629049 
L 370.480252 82.302112 
L 371.037937 82.469574 
L 371.595045 76.009657 
L 372.153998 74.842929 
L 372.702021 72.264834 
L 373.260554 69.918742 
L 373.824565 69.744121 
L 374.371501 77.008506 
L 374.921301 78.595285 
L 375.482158 77.019677 
L 376.027945 75.689831 
L 376.591596 77.1145 
L 377.147487 76.258921 
L 377.707442 76.097389 
L 378.248782 74.97772 
L 378.829879 77.104138 
L 379.341386 76.307589 
L 379.920738 86.932595 
L 380.476483 86.224278 
L 381.033523 83.969988 
L 381.586673 81.086135 
L 382.135394 84.011544 
L 382.701875 83.585661 
L 383.251149 84.555213 
L 383.808372 76.424334 
L 384.362721 76.639439 
L 384.916339 72.737321 
L 385.471125 80.78568 
L 386.027527 84.685178 
L 386.582621 85.721261 
L 387.140011 77.540804 
L 387.695489 80.564119 
L 388.254638 84.258822 
L 388.802207 76.97564 
L 389.333592 82.626051 
L 389.912984 81.462216 
L 390.468348 82.862522 
L 391.023143 81.48483 
L 391.574686 74.954329 
L 392.117274 75.543391 
L 392.689021 75.511242 
L 393.243487 80.112125 
L 393.798395 74.11175 
L 394.353024 74.167511 
L 394.908391 74.660041 
L 395.409899 61.607146 
L 396.018604 39.237052 
L 396.57345 39.63798 
L 397.128575 38.484441 
L 397.683978 43.49161 
L 398.238682 47.987767 
L 398.793421 43.056256 
L 399.348677 40.935966 
L 399.903957 48.768067 
L 400.459025 50.487318 
L 401.014121 48.688679 
L 401.569248 49.837187 
L 402.034093 50.263782 
L 402.034093 30.497766 
L 402.034093 30.497766 
L 401.569248 30.582018 
L 401.014121 30.810644 
L 400.459025 31.740593 
L 399.903957 30.350964 
L 399.348677 24.448811 
L 398.793421 23.865629 
L 398.238682 25.718631 
L 397.683978 24.009086 
L 397.128575 22.600192 
L 396.57345 22.419166 
L 396.018604 22.407541 
L 395.409899 25.058094 
L 394.908391 27.047169 
L 394.353024 27.288117 
L 393.798395 27.535968 
L 393.243487 27.507843 
L 392.689021 27.348304 
L 392.117274 26.59702 
L 391.574686 28.328545 
L 391.023143 28.895302 
L 390.468348 28.641657 
L 389.912984 29.145008 
L 389.333592 28.718299 
L 388.802207 31.640155 
L 388.254638 33.853562 
L 387.695489 33.649657 
L 387.140011 33.718996 
L 386.582621 33.044484 
L 386.027527 33.106746 
L 385.471125 33.583351 
L 384.916339 32.816272 
L 384.362721 32.700874 
L 383.808372 33.085613 
L 383.251149 36.173059 
L 382.701875 35.65894 
L 382.135394 34.44754 
L 381.586673 35.506028 
L 381.033523 34.41549 
L 380.476483 35.250618 
L 379.920738 36.571196 
L 379.341386 42.894168 
L 378.829879 37.417844 
L 378.248782 37.634563 
L 377.707442 36.219109 
L 377.147487 33.782212 
L 376.591596 33.913401 
L 376.027945 34.862903 
L 375.482158 33.821223 
L 374.921301 34.678046 
L 374.371501 33.525087 
L 373.824565 33.711222 
L 373.260554 34.560181 
L 372.702021 33.012771 
L 372.153998 33.741669 
L 371.595045 34.039631 
L 371.037937 32.665191 
L 370.480252 32.793883 
L 369.931474 33.174249 
L 369.378576 32.97688 
L 368.818954 32.996996 
L 368.266166 34.999292 
L 367.710702 32.746638 
L 367.162255 35.605111 
L 366.598371 35.81729 
L 366.046992 30.597537 
L 365.489694 30.24309 
L 364.93362 30.836372 
L 364.380886 32.453618 
L 363.827823 32.576942 
L 363.274163 33.40115 
L 362.725728 33.01542 
L 362.166481 39.257166 
L 361.592138 34.141219 
L 361.051137 34.793882 
L 360.48486 32.857581 
L 359.939986 33.754849 
L 359.406673 35.575643 
L 358.816704 32.957037 
L 358.287965 30.280618 
L 357.709384 28.982555 
L 357.17089 31.083246 
L 356.615349 29.299233 
L 356.047109 30.231065 
L 355.500343 28.849479 
L 354.939355 28.030377 
L 354.389337 29.513947 
L 353.83583 31.063237 
L 353.285218 30.736136 
L 352.718874 30.094701 
L 352.163677 27.736565 
L 351.617019 27.069903 
L 351.070598 28.096908 
L 350.503463 25.480027 
L 349.941292 24.637919 
L 349.403711 24.875802 
L 348.833729 24.070912 
L 348.290504 22.347144 
L 347.731268 23.221838 
L 347.164138 24.977018 
L 346.625312 26.516785 
L 346.053247 27.253231 
L 345.520388 24.405204 
L 344.941736 26.527635 
L 344.412328 25.06761 
L 343.847192 24.621979 
L 343.289913 21.314727 
L 342.741698 21.630278 
L 342.179901 26.270457 
L 341.629617 24.192361 
L 341.062225 25.752035 
L 340.510212 26.167225 
L 339.959861 27.942914 
L 339.420003 28.944007 
L 338.849167 31.870879 
L 338.281003 34.517209 
L 337.754875 33.339063 
L 337.183229 41.831664 
L 336.634683 38.281486 
L 336.074485 43.768197 
L 335.508113 37.755601 
L 334.961502 37.346321 
L 334.399888 38.593417 
L 333.867145 39.187507 
L 333.303751 41.366938 
L 332.719565 39.170185 
L 332.197224 42.954343 
L 331.629592 42.119001 
L 331.079765 35.766452 
L 330.527941 39.471435 
L 329.967546 40.579254 
L 329.414094 45.42802 
L 328.852031 49.408296 
L 328.292313 51.96941 
L 327.742378 48.099348 
L 327.186641 40.080374 
L 326.638849 42.204763 
L 326.085572 43.735172 
L 325.53219 45.058951 
L 324.967409 48.987375 
L 324.418747 49.134887 
L 323.859698 47.553152 
L 323.306044 48.254676 
L 322.748154 47.944432 
L 322.205771 47.218124 
L 321.638577 45.241293 
L 321.08574 45.478598 
L 320.526814 44.097459 
L 319.971896 40.878007 
L 319.420053 46.050458 
L 318.862989 41.798883 
L 318.336689 39.499476 
L 317.74216 40.027643 
L 317.202048 43.926796 
L 316.652741 48.350629 
L 316.084144 45.563867 
L 315.540063 40.63491 
L 314.966631 38.535563 
L 314.430937 35.53308 
L 313.864292 36.704202 
L 313.308609 39.091109 
L 312.773446 37.689907 
L 312.202676 37.238904 
L 311.669239 36.605956 
L 311.097166 41.034874 
L 310.535391 42.129872 
L 309.97766 47.626502 
L 309.422212 37.875677 
L 308.880771 41.851262 
L 308.329671 43.335319 
L 307.737249 49.250587 
L 307.231684 48.696577 
L 306.623719 45.532978 
L 306.103207 47.732767 
L 305.546573 40.897591 
L 304.991566 42.642594 
L 304.430548 40.262995 
L 303.876995 37.554336 
L 303.32853 44.26472 
L 302.770579 39.769139 
L 302.221819 38.710002 
L 301.663507 50.167284 
L 301.094941 38.765454 
L 300.547829 37.967765 
L 299.998684 40.765361 
L 299.4362 41.10176 
L 298.887068 50.383922 
L 298.333231 52.520843 
L 297.764203 44.494668 
L 297.225766 44.907427 
L 296.656342 49.033252 
L 296.106468 41.866838 
L 295.55849 39.663963 
L 294.999683 40.997301 
L 294.445797 41.759685 
L 293.897924 37.909145 
L 293.321046 39.275486 
L 292.772416 35.317032 
L 292.230802 40.111187 
L 291.677041 35.556223 
L 291.11976 37.317077 
L 290.555779 40.401829 
L 290.000709 37.531945 
L 289.448021 38.235466 
L 288.896769 38.867626 
L 288.3796 40.551561 
L 287.782783 45.470992 
L 287.242273 47.080953 
L 286.642776 37.123602 
L 286.121758 36.238962 
L 285.542503 28.240524 
L 284.994943 37.134481 
L 284.464739 33.10161 
L 283.903771 45.802148 
L 283.32952 48.986521 
L 282.799887 44.303051 
L 282.227961 45.452921 
L 281.691635 46.420229 
L 281.124357 47.906925 
L 280.560105 48.718077 
L 280.013719 49.86724 
L 279.439656 48.482976 
L 278.902739 48.850576 
L 278.342887 47.763367 
L 277.772804 45.685344 
L 277.236627 44.358434 
L 276.691053 48.056524 
L 276.122437 49.073009 
L 275.563563 48.966814 
L 275.007571 49.284152 
L 274.476555 50.962397 
L 273.876968 49.10688 
L 273.35349 47.734819 
L 272.795344 48.322517 
L 272.242785 45.87062 
L 271.70783 45.846294 
L 271.138904 43.914748 
L 270.572836 42.895069 
L 270.022804 44.758158 
L 269.467922 45.657844 
L 268.909068 47.164762 
L 268.352022 43.717626 
L 267.796463 41.562607 
L 267.234312 41.838262 
L 266.698667 42.039772 
L 266.141799 42.875596 
L 265.590489 41.087507 
L 265.022033 47.386079 
L 264.468986 45.799186 
L 263.905399 42.906074 
L 263.354063 44.863999 
L 262.802578 45.337231 
L 262.26305 38.084298 
L 261.693702 42.822035 
L 261.138784 46.551348 
L 260.589946 46.744484 
L 260.04281 45.749853 
L 259.474089 39.815211 
L 258.917154 43.704083 
L 258.362798 46.377435 
L 257.806969 48.196332 
L 257.261155 45.923856 
L 256.688018 43.766012 
L 256.139358 44.645495 
L 255.592203 44.737306 
L 255.031099 40.220762 
L 254.471959 44.127202 
L 253.946179 38.988859 
L 253.369332 31.591368 
L 252.803541 40.557895 
L 252.261086 42.302239 
L 251.74861 42.911596 
L 251.113954 31.204112 
L 250.574233 31.881377 
L 250.037565 37.44849 
L 249.480575 36.891468 
L 248.930177 37.638615 
L 248.369141 38.052155 
L 247.820682 37.898622 
L 247.254442 39.346343 
L 246.702763 40.158939 
L 246.162254 41.573444 
L 245.598302 40.401432 
L 245.040878 40.593996 
L 244.486065 39.230051 
L 243.924103 40.066998 
L 243.375983 45.213604 
L 242.808303 44.571875 
L 242.276321 44.499874 
L 241.722058 42.525543 
L 241.151051 45.450536 
L 240.60572 46.413909 
L 240.0619 43.461287 
L 239.484801 43.42909 
L 238.972016 42.49596 
L 238.37789 43.575211 
L 237.826389 39.812036 
L 237.274683 40.184155 
L 236.720795 38.385812 
L 236.134199 43.128015 
L 235.589112 44.854214 
L 235.071735 45.401699 
L 234.522465 46.10894 
L 233.970363 44.674713 
L 233.390828 43.169001 
L 232.785185 41.405132 
L 232.260232 45.043214 
L 231.723694 47.371957 
L 231.189199 43.549617 
L 230.619843 42.356172 
L 230.085202 43.610057 
L 229.496557 40.660015 
L 228.947779 42.50797 
L 228.435948 38.58429 
L 227.832572 39.737975 
L 227.279536 40.973824 
L 226.737007 41.687108 
L 226.177007 41.607486 
L 225.616635 42.627389 
L 225.061295 43.088445 
L 224.493161 37.888935 
L 223.964186 41.193957 
L 223.397662 41.998768 
L 222.842332 41.963547 
L 222.289054 42.583907 
L 221.771074 39.876776 
L 221.181318 37.118695 
L 220.622272 37.320261 
L 220.067151 39.690443 
L 219.512389 39.446178 
L 218.957045 37.594358 
L 218.401992 38.63773 
L 217.847037 38.391949 
L 217.290726 40.85236 
L 216.736943 40.631916 
L 216.181849 45.416834 
L 215.628281 39.971943 
L 215.071782 41.238759 
L 214.516622 38.773633 
L 213.959725 39.783094 
L 213.406807 43.101644 
L 212.85032 40.691831 
L 212.293803 39.435514 
L 211.740775 43.226185 
L 211.185251 40.979886 
L 210.632694 41.569805 
L 210.075385 41.006916 
L 209.520915 40.519568 
L 208.965996 37.70867 
L 208.4109 35.273647 
L 207.855617 35.84225 
L 207.30076 35.845051 
L 206.745759 35.972373 
L 206.190441 37.543236 
L 205.63537 38.703809 
L 205.080433 38.143019 
L 204.525447 38.940925 
L 203.970367 40.144979 
L 203.41521 39.529894 
L 202.860217 40.652697 
L 202.305047 41.30003 
L 201.749871 42.202353 
L 201.194649 43.508891 
L 200.639587 41.847308 
L 200.084447 43.539403 
L 199.529129 44.028809 
L 198.974028 41.561045 
L 198.418851 43.662219 
L 197.86367 42.957652 
L 197.308415 39.482794 
L 196.752833 37.986669 
L 196.197195 38.052435 
L 195.641561 40.253538 
L 195.085335 42.676114 
L 194.526585 43.480285 
L 193.960589 32.440426 
L 193.50719 37.786373 
L 192.869445 30.380985 
L 192.314432 27.661959 
L 191.759406 26.974304 
L 191.204349 25.653315 
L 190.649252 22.061928 
L 190.094122 25.89755 
L 189.538976 27.892721 
L 188.984034 26.947874 
L 188.428968 30.209167 
L 187.874351 36.128165 
L 187.31893 30.32034 
L 186.763961 27.006693 
L 186.208885 27.453989 
L 185.653678 29.680869 
L 185.098517 26.436137 
L 184.543434 26.630745 
L 183.988321 29.183568 
L 183.433148 36.19476 
L 182.878297 37.745745 
L 182.323228 37.422645 
L 181.768002 39.92633 
L 181.212933 39.373151 
L 180.65792 39.021311 
L 180.102798 35.698201 
L 179.547663 36.014504 
L 178.992568 41.678419 
L 178.437411 43.159656 
L 177.882253 46.263453 
L 177.327071 47.973666 
L 176.771933 45.369716 
L 176.216801 42.676102 
L 175.661487 44.323083 
L 175.106264 41.834684 
L 174.551017 39.827077 
L 173.995612 37.716097 
L 173.440206 38.460694 
L 172.884744 39.431502 
L 172.329081 38.45922 
L 171.757686 35.507325 
L 171.216959 36.191924 
L 170.65683 30.73595 
L 170.09947 39.056532 
L 169.522422 45.551046 
L 169.188713 40.040275 
z
" clip-path="url(#pa742a12db2)" style="fill: #add8e6; stroke: #add8e6"/>
   </g>
   <g id="line2d_133">
    <path d="M 169.188713 53.292672 
L 169.522422 57.790288 
L 170.09947 54.84009 
L 170.65683 43.537703 
L 171.216959 48.075402 
L 171.757686 45.601223 
L 172.329081 47.260072 
L 172.884744 47.979625 
L 173.440206 47.889464 
L 173.995612 48.347652 
L 174.551017 50.542487 
L 175.106264 51.70842 
L 175.661487 53.515628 
L 176.216801 53.497024 
L 176.771933 55.213292 
L 177.327071 55.098038 
L 177.882253 55.729226 
L 178.437411 54.385518 
L 178.992568 54.251285 
L 179.547663 49.969281 
L 180.102798 48.085432 
L 180.65792 51.008359 
L 181.212933 50.343325 
L 181.768002 50.979649 
L 182.323228 50.4829 
L 182.878297 50.490875 
L 183.433148 50.173296 
L 183.988321 44.588612 
L 184.543434 43.774557 
L 185.098517 44.078835 
L 185.653678 47.069002 
L 186.208885 46.097651 
L 186.763961 44.595496 
L 187.31893 47.267724 
L 187.874351 53.298258 
L 188.984034 45.478561 
L 189.538976 45.642344 
L 190.649252 41.380524 
L 191.204349 44.868686 
L 191.759406 46.181248 
L 192.314432 45.366707 
L 192.869445 46.918553 
L 193.50719 49.631913 
L 193.960589 47.432485 
L 194.526585 56.360442 
L 195.085335 58.640942 
L 195.641561 58.350192 
L 196.197195 56.810985 
L 196.752833 55.770786 
L 197.308415 56.977938 
L 197.86367 58.828925 
L 198.418851 59.550303 
L 198.974028 56.944473 
L 199.529129 58.708269 
L 200.084447 55.538035 
L 200.639587 54.097734 
L 201.194649 55.464621 
L 201.749871 53.887969 
L 202.305047 53.537047 
L 203.41521 52.254948 
L 203.970367 52.517012 
L 204.525447 52.023226 
L 205.080433 51.102113 
L 205.63537 51.575463 
L 206.190441 48.350712 
L 206.745759 48.714978 
L 207.30076 47.810372 
L 207.855617 48.828587 
L 208.4109 47.86481 
L 208.965996 49.094241 
L 209.520915 52.117855 
L 210.632694 53.854665 
L 211.185251 54.188338 
L 211.740775 55.002891 
L 212.293803 52.15407 
L 212.85032 51.818865 
L 213.406807 52.714742 
L 214.516622 48.867625 
L 215.071782 49.879464 
L 215.628281 49.818873 
L 216.181849 57.630081 
L 216.736943 52.128938 
L 217.290726 50.033495 
L 217.847037 48.543174 
L 218.401992 49.485497 
L 218.957045 49.196884 
L 219.512389 51.636341 
L 220.067151 52.701148 
L 220.622272 52.487551 
L 221.181318 51.399937 
L 221.771074 57.661831 
L 222.289054 61.712616 
L 222.842332 60.530194 
L 223.397662 60.559536 
L 223.964186 58.52198 
L 224.493161 55.816445 
L 225.061295 61.403288 
L 225.616635 60.977763 
L 226.177007 59.62924 
L 227.279536 59.715775 
L 227.832572 58.268469 
L 228.435948 55.005585 
L 228.947779 61.595248 
L 229.496557 59.71947 
L 230.085202 62.327443 
L 230.619843 61.530468 
L 231.189199 62.508142 
L 231.723694 65.833964 
L 232.260232 63.665959 
L 232.785185 59.650282 
L 233.390828 62.646014 
L 234.522465 64.1472 
L 235.071735 64.481543 
L 235.589112 63.982783 
L 236.134199 61.901272 
L 236.720795 57.667477 
L 237.274683 59.884926 
L 237.826389 59.793121 
L 238.37789 63.499429 
L 238.972016 63.522542 
L 239.484801 63.979238 
L 240.0619 62.598378 
L 240.60572 64.165252 
L 241.151051 64.044553 
L 241.722058 61.764628 
L 242.276321 63.320111 
L 242.808303 62.977165 
L 243.375983 62.792729 
L 244.486065 60.155862 
L 245.040878 60.105547 
L 245.598302 59.09605 
L 246.162254 59.735638 
L 247.820682 59.047855 
L 248.369141 59.385262 
L 248.930177 59.555147 
L 249.480575 58.780154 
L 250.037565 59.13748 
L 250.574233 54.824734 
L 251.113954 53.430759 
L 251.74861 62.27513 
L 252.261086 64.514629 
L 252.803541 62.585378 
L 253.369332 55.27833 
L 253.946179 60.410369 
L 254.471959 63.718753 
L 255.031099 61.615128 
L 255.592203 64.652697 
L 256.139358 63.548978 
L 256.688018 63.433395 
L 257.261155 63.636408 
L 257.806969 64.904165 
L 258.362798 63.387002 
L 258.917154 61.461146 
L 259.474089 57.878857 
L 260.04281 63.311569 
L 260.589946 63.80016 
L 261.138784 65.975976 
L 261.693702 63.966568 
L 262.26305 59.408296 
L 262.802578 63.87371 
L 263.905399 60.885774 
L 264.468986 64.089243 
L 265.022033 64.743076 
L 265.590489 60.033646 
L 266.141799 61.619388 
L 266.698667 61.49181 
L 267.234312 61.23485 
L 267.796463 60.671613 
L 268.909068 64.917234 
L 269.467922 64.369283 
L 270.572836 60.038605 
L 271.138904 59.83782 
L 271.70783 63.166511 
L 272.242785 64.826971 
L 273.35349 65.814725 
L 274.476555 69.157951 
L 275.563563 67.696407 
L 276.122437 67.768298 
L 276.691053 64.91216 
L 277.236627 58.983958 
L 277.772804 59.921409 
L 278.342887 58.808245 
L 278.902739 62.436715 
L 279.439656 62.722627 
L 280.013719 64.312419 
L 280.560105 64.164263 
L 281.124357 63.21246 
L 281.691635 60.416335 
L 282.227961 60.16368 
L 282.799887 61.93871 
L 283.32952 63.948143 
L 283.903771 64.449926 
L 284.464739 52.047355 
L 284.994943 53.493642 
L 285.542503 46.11658 
L 286.121758 53.780932 
L 286.642776 53.968989 
L 287.242273 60.555917 
L 287.782783 58.964332 
L 288.3796 55.341922 
L 288.896769 53.607017 
L 290.000709 52.639032 
L 290.555779 54.721412 
L 291.11976 53.516729 
L 291.677041 52.609263 
L 292.230802 56.486998 
L 292.772416 53.055601 
L 293.321046 55.098379 
L 293.897924 54.725884 
L 294.445797 59.003246 
L 294.999683 58.983811 
L 295.55849 57.584345 
L 296.106468 59.433003 
L 296.656342 65.548612 
L 297.225766 62.807741 
L 297.764203 61.916672 
L 298.333231 66.095055 
L 298.887068 64.970489 
L 299.4362 59.430575 
L 299.998684 58.391535 
L 300.547829 55.957089 
L 301.094941 56.724008 
L 301.663507 63.54236 
L 302.221819 57.036417 
L 302.770579 57.910899 
L 303.32853 59.778242 
L 303.876995 53.360903 
L 304.430548 54.700067 
L 304.991566 56.409741 
L 305.546573 56.221102 
L 306.103207 59.939058 
L 306.623719 58.899714 
L 307.231684 60.454019 
L 307.737249 60.755922 
L 308.329671 56.391576 
L 308.880771 58.121481 
L 309.422212 54.425597 
L 309.97766 62.613923 
L 310.535391 58.793892 
L 311.097166 57.288628 
L 311.669239 51.796499 
L 312.202676 52.243152 
L 312.773446 52.533474 
L 313.308609 53.761908 
L 313.864292 50.856642 
L 314.430937 50.286777 
L 314.966631 54.302242 
L 316.084144 60.0186 
L 316.652741 60.084353 
L 317.202048 55.930638 
L 317.74216 54.19163 
L 318.336689 54.651403 
L 318.862989 55.779383 
L 319.420053 59.373726 
L 319.971896 55.941027 
L 320.526814 57.485632 
L 321.08574 58.290039 
L 321.638577 57.729537 
L 322.205771 58.990655 
L 322.748154 59.904173 
L 323.306044 60.279042 
L 323.859698 60.060126 
L 324.418747 62.206506 
L 324.967409 62.179209 
L 325.53219 60.658533 
L 326.085572 59.877445 
L 327.186641 57.581404 
L 327.742378 64.136525 
L 328.292313 65.794899 
L 328.852031 65.081857 
L 329.967546 58.911032 
L 330.527941 58.288948 
L 331.079765 55.369192 
L 331.629592 60.277513 
L 332.197224 61.787854 
L 332.719565 57.685523 
L 333.303751 59.789696 
L 333.867145 57.765776 
L 334.399888 57.822206 
L 334.961502 56.260799 
L 335.508113 56.66509 
L 336.074485 61.157131 
L 336.634683 55.73645 
L 337.183229 57.082035 
L 337.754875 51.266865 
L 338.281003 54.281132 
L 338.849167 52.111923 
L 339.420003 48.193689 
L 339.959861 45.57887 
L 340.510212 43.720354 
L 341.062225 43.587262 
L 341.629617 42.635413 
L 342.179901 45.209221 
L 342.741698 40.7235 
L 343.289913 40.656762 
L 343.847192 43.708409 
L 344.412328 42.762757 
L 344.941736 43.824713 
L 345.520388 42.657391 
L 346.053247 43.599596 
L 347.164138 44.828531 
L 347.731268 41.475753 
L 348.290504 40.78699 
L 348.833729 41.904213 
L 349.403711 42.735395 
L 349.941292 42.360325 
L 351.070598 45.964868 
L 351.617019 44.709798 
L 352.163677 44.243204 
L 352.718874 46.052824 
L 353.83583 48.493079 
L 354.389337 46.630392 
L 354.939355 45.2028 
L 355.500343 45.661365 
L 356.047109 46.730241 
L 356.615349 44.909531 
L 357.17089 46.239607 
L 357.709384 43.899127 
L 358.287965 44.714548 
L 358.816704 47.586579 
L 359.406673 49.208719 
L 359.939986 47.440689 
L 360.48486 46.618018 
L 361.051137 48.391307 
L 361.592138 47.537228 
L 362.166481 49.768981 
L 362.725728 46.605989 
L 363.274163 46.448171 
L 363.827823 47.07591 
L 364.380886 47.466566 
L 364.93362 44.385447 
L 365.489694 43.164864 
L 366.046992 42.871078 
L 366.598371 46.46388 
L 367.162255 48.241619 
L 367.710702 45.675844 
L 368.266166 46.7587 
L 368.818954 46.24297 
L 369.931474 47.137266 
L 370.480252 47.333642 
L 371.037937 47.244177 
L 371.595045 47.443096 
L 372.153998 46.995774 
L 372.702021 45.935159 
L 373.260554 46.719409 
L 373.824565 46.009161 
L 374.921301 48.401797 
L 375.482158 47.429037 
L 376.027945 48.068994 
L 376.591596 47.521646 
L 377.147487 47.270925 
L 377.707442 49.25597 
L 378.248782 50.19408 
L 378.829879 50.419845 
L 379.341386 54.637258 
L 379.920738 51.222933 
L 381.033523 48.961403 
L 381.586673 49.488031 
L 382.135394 48.994716 
L 382.701875 49.982663 
L 383.251149 50.560144 
L 383.808372 46.71626 
L 384.362721 46.428025 
L 384.916339 45.860869 
L 385.471125 47.804342 
L 386.582621 47.98468 
L 387.140011 47.427507 
L 387.695489 47.829147 
L 388.254638 48.510971 
L 388.802207 45.585023 
L 389.333592 43.803047 
L 389.912984 44.041848 
L 390.468348 43.762235 
L 391.023143 43.825025 
L 392.117274 41.061305 
L 393.243487 42.43934 
L 393.798395 41.666136 
L 394.908391 41.32668 
L 395.409899 37.460317 
L 396.018604 29.504339 
L 396.57345 29.649988 
L 397.128575 29.366157 
L 398.238682 34.573281 
L 398.793421 31.755558 
L 399.348677 31.426676 
L 399.903957 37.986232 
L 400.459025 39.484991 
L 401.014121 38.265469 
L 402.034093 38.573897 
L 402.034093 38.573897 
" clip-path="url(#pa742a12db2)" style="fill: none; stroke: #1f77b4; stroke-width: 1.5; stroke-linecap: square"/>
   </g>
   <g id="line2d_134">
    <path d="M 88.179054 289 
L 88.1795 168.765666 
L 88.624211 139.362559 
L 89.291197 117.010746 
L 89.957386 100.019709 
L 90.846967 84.427954 
L 91.513156 76.179044 
L 92.180142 70.002495 
L 93.068926 63.974034 
L 93.957709 59.602847 
L 94.845695 56.24806 
L 95.957073 53.07089 
L 97.067654 50.656447 
L 98.400829 48.480505 
L 100.177598 46.347095 
L 101.066381 45.557445 
L 101.955165 44.855666 
L 103.954529 43.571671 
L 107.063675 42.229511 
L 108.175054 41.898799 
L 110.17362 41.362767 
L 111.062403 41.201321 
L 112.617375 40.892818 
L 120.614033 39.9938 
L 121.058425 39.986157 
L 122.612599 39.879027 
L 125.945138 39.727895 
L 126.611327 39.710279 
L 127.055719 39.686515 
L 127.721907 39.693589 
L 128.609893 39.623363 
L 129.054285 39.627776 
L 130.164865 39.572772 
L 130.609257 39.596354 
L 132.608621 39.55706 
L 141.493264 39.475333 
L 141.937656 39.48653 
L 142.825641 39.459208 
L 143.270033 39.480065 
L 144.380614 39.455696 
L 144.825005 39.487841 
L 146.824369 39.456092 
L 147.267963 39.504524 
L 151.266691 39.509635 
L 154.598432 39.544424 
L 155.042026 39.513794 
L 157.04139 39.554929 
L 157.485782 39.535881 
L 158.374565 39.563918 
L 158.818159 39.551334 
L 159.485146 39.565005 
L 159.928739 39.557326 
L 160.598119 39.576361 
L 161.707104 39.541083 
L 163.039482 39.609586 
L 163.925074 39.564153 
L 164.595252 39.606633 
L 165.257451 39.597289 
L 165.704236 39.609844 
L 166.366436 39.606564 
L 166.813221 39.62338 
L 167.706792 39.600425 
L 168.145598 39.62627 
L 169.039169 39.612914 
L 169.477976 39.643422 
L 170.586961 39.6277 
L 171.033746 39.658713 
L 172.366123 39.643025 
L 172.812908 39.679103 
L 174.592071 39.660346 
L 175.030878 39.708277 
L 177.695633 39.698627 
L 178.142418 39.750097 
L 183.918713 39.757222 
L 203.465566 39.97124 
L 203.904373 39.959838 
L 204.797944 39.993086 
L 205.244729 39.980317 
L 205.906929 39.996217 
L 206.353714 39.985122 
L 207.015913 40.004127 
L 207.462699 39.994682 
L 208.124898 40.016106 
L 208.795076 39.976128 
L 209.680668 40.030363 
L 210.350846 39.994353 
L 211.013045 40.024463 
L 211.459831 40.022655 
L 212.130008 40.051188 
L 212.792208 40.024092 
L 213.462386 40.055982 
L 214.124585 40.031537 
L 214.794763 40.066085 
L 215.456963 40.04424 
L 215.903748 40.048372 
L 216.565948 40.028648 
L 217.236125 40.067933 
L 217.898325 40.050717 
L 218.568503 40.092515 
L 219.454095 40.052033 
L 220.124273 40.097349 
L 221.009865 40.060622 
L 221.680043 40.108103 
L 222.565635 40.075051 
L 223.01242 40.088559 
L 223.67462 40.081672 
L 224.121405 40.096463 
L 225.006997 40.069658 
L 225.677175 40.124079 
L 226.78616 40.079288 
L 227.456337 40.136681 
L 228.565322 40.096743 
L 229.004129 40.119802 
L 229.8977 40.100829 
L 230.336506 40.124642 
L 231.230077 40.108481 
L 231.668884 40.134305 
L 232.562454 40.120908 
L 233.00924 40.145313 
L 234.118224 40.120434 
L 234.557031 40.149144 
L 235.673994 40.124744 
L 236.112801 40.154963 
L 237.221786 40.137058 
L 237.668571 40.16671 
L 239.000949 40.137282 
L 239.447734 40.167979 
L 240.780111 40.144168 
L 241.226896 40.177156 
L 242.559274 40.157569 
L 242.998081 40.194764 
L 244.553851 40.167855 
L 245.000636 40.204227 
L 246.779799 40.171687 
L 247.218605 40.212506 
L 248.997768 40.188133 
L 249.444553 40.227648 
L 251.662523 40.19424 
L 252.109308 40.236572 
L 254.55067 40.205883 
L 254.997455 40.24986 
L 257.66221 40.224719 
L 258.101017 40.273448 
L 261.659342 40.239428 
L 262.106127 40.289356 
L 268.991407 40.292809 
L 277.432456 40.305917 
L 277.871263 40.368403 
L 302.085427 40.46491 
L 302.085427 40.46491 
" clip-path="url(#pa742a12db2)" style="fill: none; stroke: #000000; stroke-width: 2.5; stroke-linecap: square"/>
   </g>
   <g id="line2d_135">
    <path d="M 87.512593 55.01813 
L 87.734869 53.968382 
L 88.1795 54.016436 
L 88.624211 54.988993 
L 89.512994 56.929418 
L 90.179981 58.137505 
L 90.846967 59.147446 
L 92.401939 60.6237 
L 94.401303 61.981416 
L 96.17887 62.915082 
L 96.845857 63.268659 
L 100.844584 64.782125 
L 101.73257 65.058521 
L 103.731934 65.579863 
L 104.398123 65.681535 
L 105.065109 65.830705 
L 110.840606 66.806089 
L 120.83583 67.679183 
L 122.390802 67.801345 
L 125.056355 67.902094 
L 125.500746 67.909521 
L 125.945138 67.923402 
L 126.611327 67.924142 
L 127.055719 67.950905 
L 127.943704 67.960139 
L 128.388096 68.002368 
L 130.38746 68.035904 
L 165.927629 68.432359 
L 166.813221 68.424179 
L 167.260006 68.450592 
L 168.592384 68.420454 
L 169.039169 68.452364 
L 172.142731 68.421863 
L 172.589516 68.464105 
L 176.139863 68.434879 
L 183.69532 68.418304 
L 187.245667 68.422723 
L 187.692452 68.380419 
L 190.5806 68.409321 
L 191.027385 68.374107 
L 192.359762 68.398226 
L 192.798569 68.369747 
L 193.915532 68.384861 
L 194.354339 68.359215 
L 195.471302 68.381442 
L 195.910109 68.358553 
L 196.80368 68.369479 
L 197.242486 68.349308 
L 198.136057 68.364869 
L 198.798256 68.305854 
L 199.907241 68.350903 
L 200.354026 68.332379 
L 201.024204 68.336593 
L 201.463011 68.323379 
L 202.133189 68.330287 
L 202.571996 68.318822 
L 203.242174 68.328376 
L 203.904373 68.282085 
L 204.797944 68.319739 
L 205.460143 68.276999 
L 206.353714 68.319383 
L 207.015913 68.280105 
L 207.686091 68.299797 
L 208.348291 68.263832 
L 209.018468 68.286426 
L 209.680668 68.253299 
L 210.350846 68.27915 
L 211.013045 68.248389 
L 211.683223 68.277025 
L 212.345423 68.249401 
L 213.015601 68.280766 
L 213.901193 68.226453 
L 214.571371 68.260935 
L 215.23357 68.23903 
L 215.680355 68.243337 
L 216.350533 68.220461 
L 216.78934 68.229297 
L 217.459518 68.208543 
L 218.121717 68.253365 
L 219.015288 68.20903 
L 219.454095 68.22114 
L 220.124273 68.205758 
L 220.56308 68.219194 
L 221.45665 68.181215 
L 222.11885 68.23325 
L 223.235813 68.175391 
L 223.67462 68.192849 
L 224.56819 68.162152 
L 225.006997 68.180696 
L 225.900567 68.153434 
L 226.339374 68.17345 
L 227.232945 68.149155 
L 227.671752 68.171026 
L 228.565322 68.149234 
L 229.004129 68.172523 
L 230.121092 68.134257 
L 230.559899 68.159171 
L 231.668884 68.127784 
L 232.115669 68.1515 
L 233.224654 68.124503 
L 233.671439 68.149806 
L 235.003816 68.109458 
L 235.450602 68.136946 
L 236.782979 68.101833 
L 237.221786 68.133335 
L 238.777556 68.088711 
L 239.224341 68.119423 
L 240.780111 68.081354 
L 241.226896 68.113925 
L 244.115044 68.068321 
L 244.553851 68.106866 
L 246.779799 68.050923 
L 247.218605 68.091734 
L 249.667946 68.036896 
L 250.106753 68.080083 
L 252.9949 68.023335 
L 253.441685 68.066722 
L 256.992032 68.00768 
L 257.438818 68.05416 
L 262.544934 67.984192 
L 262.99172 68.034743 
L 269.876999 67.989329 
L 285.203328 67.94168 
L 292.535393 67.935376 
L 292.9742 67.885361 
L 299.19728 67.915095 
L 299.644065 67.866076 
L 302.30882 67.88574 
L 302.30882 67.88574 
" clip-path="url(#pa742a12db2)" style="fill: none; stroke-dasharray: 9.25,4; stroke-dashoffset: 0; stroke: #8b0000; stroke-width: 2.5"/>
   </g>
   <g id="legend_1">
    <g id="line2d_136">
     <path d="M 330.516418 198.188062 
L 340.516418 198.188062 
L 350.516418 198.188062 
" style="fill: none; stroke: #1f77b4; stroke-width: 1.5; stroke-linecap: square"/>
    </g>
    <g id="text_14">
     <!-- PSP -->
     <g transform="translate(358.516418 201.688062) scale(0.1 -0.1)">
      <defs>
       <path id="DejaVuSans-50" d="M 1259 4147 
L 1259 2394 
L 2053 2394 
Q 2494 2394 2734 2622 
Q 2975 2850 2975 3272 
Q 2975 3691 2734 3919 
Q 2494 4147 2053 4147 
L 1259 4147 
z
M 628 4666 
L 2053 4666 
Q 2838 4666 3239 4311 
Q 3641 3956 3641 3272 
Q 3641 2581 3239 2228 
Q 2838 1875 2053 1875 
L 1259 1875 
L 1259 0 
L 628 0 
L 628 4666 
z
" transform="scale(0.015625)"/>
       <path id="DejaVuSans-53" d="M 3425 4513 
L 3425 3897 
Q 3066 4069 2747 4153 
Q 2428 4238 2131 4238 
Q 1616 4238 1336 4038 
Q 1056 3838 1056 3469 
Q 1056 3159 1242 3001 
Q 1428 2844 1947 2747 
L 2328 2669 
Q 3034 2534 3370 2195 
Q 3706 1856 3706 1288 
Q 3706 609 3251 259 
Q 2797 -91 1919 -91 
Q 1588 -91 1214 -16 
Q 841 59 441 206 
L 441 856 
Q 825 641 1194 531 
Q 1563 422 1919 422 
Q 2459 422 2753 634 
Q 3047 847 3047 1241 
Q 3047 1584 2836 1778 
Q 2625 1972 2144 2069 
L 1759 2144 
Q 1053 2284 737 2584 
Q 422 2884 422 3419 
Q 422 4038 858 4394 
Q 1294 4750 2059 4750 
Q 2388 4750 2728 4690 
Q 3069 4631 3425 4513 
z
" transform="scale(0.015625)"/>
      </defs>
      <use xlink:href="#DejaVuSans-50"/>
      <use xlink:href="#DejaVuSans-53" x="60.302734"/>
      <use xlink:href="#DejaVuSans-50" x="123.779297"/>
     </g>
    </g>
    <g id="line2d_137">
     <path d="M 330.516418 212.866187 
L 340.516418 212.866187 
L 350.516418 212.866187 
" style="fill: none; stroke: #000000; stroke-width: 2.5; stroke-linecap: square"/>
    </g>
    <g id="text_15">
     <!-- Slow wind -->
     <g transform="translate(358.516418 216.366187) scale(0.1 -0.1)">
      <defs>
       <path id="DejaVuSans-6c" d="M 603 4863 
L 1178 4863 
L 1178 0 
L 603 0 
L 603 4863 
z
" transform="scale(0.015625)"/>
       <path id="DejaVuSans-6f" d="M 1959 3097 
Q 1497 3097 1228 2736 
Q 959 2375 959 1747 
Q 959 1119 1226 758 
Q 1494 397 1959 397 
Q 2419 397 2687 759 
Q 2956 1122 2956 1747 
Q 2956 2369 2687 2733 
Q 2419 3097 1959 3097 
z
M 1959 3584 
Q 2709 3584 3137 3096 
Q 3566 2609 3566 1747 
Q 3566 888 3137 398 
Q 2709 -91 1959 -91 
Q 1206 -91 779 398 
Q 353 888 353 1747 
Q 353 2609 779 3096 
Q 1206 3584 1959 3584 
z
" transform="scale(0.015625)"/>
       <path id="DejaVuSans-77" d="M 269 3500 
L 844 3500 
L 1563 769 
L 2278 3500 
L 2956 3500 
L 3675 769 
L 4391 3500 
L 4966 3500 
L 4050 0 
L 3372 0 
L 2619 2869 
L 1863 0 
L 1184 0 
L 269 3500 
z
" transform="scale(0.015625)"/>
       <path id="DejaVuSans-64" d="M 2906 2969 
L 2906 4863 
L 3481 4863 
L 3481 0 
L 2906 0 
L 2906 525 
Q 2725 213 2448 61 
Q 2172 -91 1784 -91 
Q 1150 -91 751 415 
Q 353 922 353 1747 
Q 353 2572 751 3078 
Q 1150 3584 1784 3584 
Q 2172 3584 2448 3432 
Q 2725 3281 2906 2969 
z
M 947 1747 
Q 947 1113 1208 752 
Q 1469 391 1925 391 
Q 2381 391 2643 752 
Q 2906 1113 2906 1747 
Q 2906 2381 2643 2742 
Q 2381 3103 1925 3103 
Q 1469 3103 1208 2742 
Q 947 2381 947 1747 
z
" transform="scale(0.015625)"/>
      </defs>
      <use xlink:href="#DejaVuSans-53"/>
      <use xlink:href="#DejaVuSans-6c" x="63.476562"/>
      <use xlink:href="#DejaVuSans-6f" x="91.259766"/>
      <use xlink:href="#DejaVuSans-77" x="152.441406"/>
      <use xlink:href="#DejaVuSans-20" x="234.228516"/>
      <use xlink:href="#DejaVuSans-77" x="266.015625"/>
      <use xlink:href="#DejaVuSans-69" x="347.802734"/>
      <use xlink:href="#DejaVuSans-6e" x="375.585938"/>
      <use xlink:href="#DejaVuSans-64" x="438.964844"/>
     </g>
    </g>
    <g id="line2d_138">
     <path d="M 330.516418 227.544312 
L 340.516418 227.544312 
L 350.516418 227.544312 
" style="fill: none; stroke-dasharray: 9.25,4; stroke-dashoffset: 0; stroke: #8b0000; stroke-width: 2.5"/>
    </g>
    <g id="text_16">
     <!-- Fast wind -->
     <g transform="translate(358.516418 231.044312) scale(0.1 -0.1)">
      <defs>
       <path id="DejaVuSans-46" d="M 628 4666 
L 3309 4666 
L 3309 4134 
L 1259 4134 
L 1259 2759 
L 3109 2759 
L 3109 2228 
L 1259 2228 
L 1259 0 
L 628 0 
L 628 4666 
z
" transform="scale(0.015625)"/>
      </defs>
      <use xlink:href="#DejaVuSans-46"/>
      <use xlink:href="#DejaVuSans-61" x="48.394531"/>
      <use xlink:href="#DejaVuSans-73" x="109.673828"/>
      <use xlink:href="#DejaVuSans-74" x="161.773438"/>
      <use xlink:href="#DejaVuSans-20" x="200.982422"/>
      <use xlink:href="#DejaVuSans-77" x="232.769531"/>
      <use xlink:href="#DejaVuSans-69" x="314.556641"/>
      <use xlink:href="#DejaVuSans-6e" x="342.339844"/>
      <use xlink:href="#DejaVuSans-64" x="405.71875"/>
     </g>
    </g>
   </g>
  </g>
 </g>
 <defs>
  <clipPath id="pa742a12db2">
   <rect x="71.786518" y="10.8" width="345.97365" height="231.324"/>
  </clipPath>
 </defs>
</svg>
