<?xml version="1.0" encoding="utf-8" standalone="no"?>
<!DOCTYPE svg PUBLIC "-//W3C//DTD SVG 1.1//EN"
  "http://www.w3.org/Graphics/SVG/1.1/DTD/svg11.dtd">
<svg xmlns:xlink="http://www.w3.org/1999/xlink" width="432pt" height="288pt" viewBox="0 0 432 288" xmlns="http://www.w3.org/2000/svg" version="1.1">
 <metadata>
  <rdf:RDF xmlns:dc="http://purl.org/dc/elements/1.1/" xmlns:cc="http://creativecommons.org/ns#" xmlns:rdf="http://www.w3.org/1999/02/22-rdf-syntax-ns#">
   <cc:Work>
    <dc:type rdf:resource="http://purl.org/dc/dcmitype/StillImage"/>
    <dc:date>2022-11-22T12:39:45.173744</dc:date>
    <dc:format>image/svg+xml</dc:format>
    <dc:creator>
     <cc:Agent>
      <dc:title>Matplotlib v3.6.2, https://matplotlib.org/</dc:title>
     </cc:Agent>
    </dc:creator>
   </cc:Work>
  </rdf:RDF>
 </metadata>
 <defs>
  <style type="text/css">*{stroke-linejoin: round; stroke-linecap: butt}</style>
 </defs>
 <g id="figure_1">
  <g id="patch_1">
   <path d="M 0 288 
L 432 288 
L 432 0 
L 0 0 
z
" style="fill: #ffffff"/>
  </g>
  <g id="axes_1">
   <g id="patch_2">
    <path d="M 71.786518 242.124 
L 421.2 242.124 
L 421.2 10.8 
L 71.786518 10.8 
z
" style="fill: #ffffff"/>
   </g>
   <g id="patch_3">
    <path d="M 71.786518 242.124 
L 71.786518 10.8 
" style="fill: none; stroke: #000000; stroke-width: 1.5; stroke-linejoin: miter; stroke-linecap: square"/>
   </g>
   <g id="patch_4">
    <path d="M 421.2 242.124 
L 421.2 10.8 
" style="fill: none; stroke: #000000; stroke-width: 1.5; stroke-linejoin: miter; stroke-linecap: square"/>
   </g>
   <g id="patch_5">
    <path d="M 71.786518 242.124 
L 421.2 242.124 
" style="fill: none; stroke: #000000; stroke-width: 1.5; stroke-linejoin: miter; stroke-linecap: square"/>
   </g>
   <g id="patch_6">
    <path d="M 71.786518 10.8 
L 421.2 10.8 
" style="fill: none; stroke: #000000; stroke-width: 1.5; stroke-linejoin: miter; stroke-linecap: square"/>
   </g>
   <g id="PolyCollection_1">
    <path d="M 208.454622 43.767078 
L 208.454622 89.057389 
L 208.948123 91.417411 
L 209.801483 118.8533 
L 210.625728 75.708678 
L 211.454067 76.724056 
L 212.253715 70.143284 
L 213.098715 67.954795 
L 213.92045 66.525008 
L 214.741888 69.542651 
L 215.563243 72.132554 
L 216.384596 75.852612 
L 217.205716 75.528515 
L 218.0268 75.259949 
L 218.848019 79.951796 
L 219.668969 82.055129 
L 220.489927 78.247842 
L 221.310952 84.125141 
L 222.131939 88.487785 
L 222.952926 96.751972 
L 223.773821 101.505469 
L 224.594776 86.662724 
L 225.41571 86.120735 
L 226.236484 82.320177 
L 227.057341 85.841734 
L 227.878429 93.874461 
L 228.699286 92.850804 
L 229.51982 99.20134 
L 230.340831 112.339154 
L 231.161753 66989.027616 
L 231.98263 66989.027616 
L 232.803622 66989.027616 
L 233.624684 66989.027616 
L 234.445551 66989.027616 
L 235.266259 66989.027616 
L 236.087636 66989.027616 
L 236.907824 66989.027616 
L 237.728676 66989.027616 
L 238.549345 66989.027616 
L 239.370315 66989.027616 
L 240.191262 66989.027616 
L 241.01216 66989.027616 
L 241.832999 66989.027616 
L 242.653792 66989.027616 
L 243.474566 66989.027616 
L 244.417687 83.321469 
L 245.088191 100.755643 
L 245.925206 96.891349 
L 246.751506 130.16019 
L 247.574074 66989.027616 
L 248.395766 66989.027616 
L 249.217464 66989.027616 
L 250.039079 66989.027616 
L 250.860211 156.354662 
L 251.681233 155.451658 
L 252.502249 138.735528 
L 253.323154 127.719837 
L 254.144379 98.910547 
L 254.96534 96.691315 
L 255.786186 97.003221 
L 256.607269 94.707439 
L 257.428284 97.836613 
L 258.24929 96.325377 
L 259.070034 99.408346 
L 259.891021 96.808903 
L 260.711894 101.520093 
L 261.532628 101.338727 
L 262.353289 101.083477 
L 263.174148 83.908199 
L 263.995373 99.604816 
L 264.816129 90.720056 
L 265.636673 97.721058 
L 266.457845 90.747427 
L 267.278742 87.568974 
L 268.099376 92.306747 
L 268.919348 95.366464 
L 269.743518 101.133371 
L 270.560658 105.802669 
L 271.382188 95.678874 
L 272.200027 96.797323 
L 273.023024 89.281559 
L 273.845978 82.036372 
L 274.663653 86.582527 
L 275.487214 78.885073 
L 276.308205 77.036256 
L 277.131176 80.864818 
L 277.949814 101.278354 
L 278.770706 90.268452 
L 279.589661 77.97449 
L 280.412354 77.954035 
L 281.233043 84.326396 
L 282.053875 89.320588 
L 282.875139 94.586358 
L 283.695542 101.596805 
L 284.516476 130.197245 
L 285.343213 110.838455 
L 286.215366 66989.027616 
L 286.981374 66989.027616 
L 287.799582 66989.027616 
L 288.620824 66989.027616 
L 289.458621 188.074059 
L 290.24089 66989.027616 
L 291.081067 66989.027616 
L 291.902324 66989.027616 
L 292.731023 66989.027616 
L 293.559172 66989.027616 
L 294.361483 66989.027616 
L 295.179334 66989.027616 
L 296.071629 144.308126 
L 296.828543 66989.027616 
L 297.640097 66989.027616 
L 298.510607 66989.027616 
L 299.30944 113.668026 
L 300.164802 107.550131 
L 300.933883 98.054033 
L 301.714504 101.896549 
L 302.456707 95.415713 
L 303.4022 102.027604 
L 304.277944 121.186392 
L 305.085585 111.509646 
L 305.895012 108.511858 
L 306.640568 107.838857 
L 307.432601 122.058739 
L 308.325549 123.496506 
L 309.143484 122.498458 
L 309.955506 128.107894 
L 310.769068 117.561718 
L 311.67568 114.321673 
L 312.405898 113.958737 
L 313.270412 103.94372 
L 314.069475 104.124396 
L 314.871664 106.720145 
L 315.722678 106.137851 
L 316.542619 112.846379 
L 317.318487 109.534454 
L 318.164055 106.425714 
L 318.966218 131.261174 
L 319.803211 127.463543 
L 320.624038 146.92508 
L 321.45042 136.728986 
L 322.29251 118.500488 
L 323.078982 131.936118 
L 323.891588 139.006867 
L 324.739142 153.29625 
L 325.544797 120.981315 
L 326.379307 130.228122 
L 327.188978 126.098122 
L 328.014777 123.266566 
L 328.780668 134.807224 
L 329.482622 203.510757 
L 330.605175 66989.027616 
L 331.305753 66989.027616 
L 332.096756 106.456232 
L 332.943016 66989.027616 
L 333.817942 176.613612 
L 334.569136 106.37283 
L 335.398626 107.572225 
L 336.232441 107.814754 
L 337.037025 108.50268 
L 337.842363 109.435195 
L 338.70323 91.027106 
L 339.504669 93.103588 
L 340.326991 95.047057 
L 341.146371 100.552062 
L 341.970552 97.050232 
L 342.820214 94.088273 
L 343.624404 92.547679 
L 344.432562 94.113226 
L 345.25308 114.704353 
L 346.103556 66989.027616 
L 346.892109 101.230311 
L 347.705327 124.178423 
L 348.517551 133.855766 
L 349.357076 94.478673 
L 350.17357 122.674292 
L 351.025824 66989.027616 
L 351.83691 144.363288 
L 352.662816 103.655099 
L 353.436773 103.174212 
L 354.274399 199.918968 
L 355.096481 112.996781 
L 355.922101 89.809162 
L 356.75253 98.05207 
L 357.572656 95.207952 
L 358.381416 107.121038 
L 359.229082 87.391518 
L 360.076868 107.781007 
L 360.8553 120.356043 
L 361.671102 93.203288 
L 362.497863 121.251893 
L 363.253094 96.680563 
L 364.166459 102.41687 
L 364.937325 164.252433 
L 365.75953 109.862222 
L 366.588489 119.250491 
L 367.438667 96.884305 
L 368.239237 87.169133 
L 369.018971 89.703876 
L 369.872332 78.120174 
L 370.703923 91.093388 
L 371.485343 101.716967 
L 372.347549 96.014176 
L 373.149784 105.368518 
L 373.990161 100.909961 
L 374.837796 92.33973 
L 375.617716 98.7614 
L 376.473834 224.445054 
L 377.242934 112.352236 
L 378.104656 66989.027616 
L 378.934784 66989.027616 
L 379.702057 91.31659 
L 380.50463 91.644019 
L 381.384029 108.509032 
L 382.095972 105.043326 
L 383.071932 77.376927 
L 383.834711 80.515304 
L 384.771662 94.985646 
L 385.485629 86.217527 
L 386.298031 87.19295 
L 387.113754 89.685676 
L 387.934652 87.776149 
L 388.77566 101.511817 
L 389.600333 114.759574 
L 390.420041 119.735531 
L 391.209584 149.906033 
L 392.011251 96.508858 
L 392.88465 115.006609 
L 393.690409 139.172896 
L 394.508799 164.771278 
L 395.336993 144.960017 
L 396.143945 131.91615 
L 396.953589 126.75326 
L 397.804409 231.609273 
L 398.590684 173.689385 
L 399.440937 95.834931 
L 400.258949 105.611785 
L 401.067574 66989.027616 
L 401.903417 155.316896 
L 402.712457 140.099033 
L 403.516835 173.799589 
L 404.365844 87.958411 
L 405.192317 215.080551 
L 405.192317 39.583109 
L 405.192317 39.583109 
L 404.365844 60.043728 
L 403.516835 38.907025 
L 402.712457 38.152306 
L 401.903417 43.328006 
L 401.067574 42.202803 
L 400.258949 56.850854 
L 399.440937 62.275495 
L 398.590684 47.486858 
L 397.804409 48.344294 
L 396.953589 53.520301 
L 396.143945 43.858161 
L 395.336993 40.546466 
L 394.508799 42.644238 
L 393.690409 44.407053 
L 392.88465 39.344058 
L 392.011251 39.73245 
L 391.209584 34.523198 
L 390.420041 39.440627 
L 389.600333 34.750477 
L 388.77566 35.973076 
L 387.934652 41.294223 
L 387.113754 37.457348 
L 386.298031 38.548692 
L 385.485629 39.754328 
L 384.771662 40.271954 
L 383.834711 60.98462 
L 383.071932 60.878134 
L 382.095972 34.29426 
L 381.384029 33.433598 
L 380.50463 24.645688 
L 379.702057 36.124924 
L 378.934784 32.519838 
L 378.104656 49.639039 
L 377.242934 53.983752 
L 376.473834 48.532644 
L 375.617716 53.104287 
L 374.837796 55.126887 
L 373.990161 58.85247 
L 373.149784 59.839249 
L 372.347549 63.721958 
L 371.485343 57.768902 
L 370.703923 60.092918 
L 369.872332 57.597907 
L 369.018971 52.75652 
L 368.239237 50.957612 
L 367.438667 65.124176 
L 366.588489 68.163972 
L 365.75953 71.409467 
L 364.937325 63.575532 
L 364.166459 72.757603 
L 363.253094 72.078404 
L 362.497863 59.918441 
L 361.671102 66.868739 
L 360.8553 60.814175 
L 360.076868 60.908652 
L 359.229082 61.631948 
L 358.381416 53.830404 
L 357.572656 66.509632 
L 356.75253 72.713957 
L 355.922101 75.74085 
L 355.096481 63.51676 
L 354.274399 51.90424 
L 353.436773 63.59132 
L 352.662816 64.909834 
L 351.83691 54.508857 
L 351.025824 45.886853 
L 350.17357 60.126605 
L 349.357076 70.587935 
L 348.517551 55.53027 
L 347.705327 57.476129 
L 346.892109 65.170728 
L 346.103556 46.54003 
L 345.25308 63.892424 
L 344.432562 71.593841 
L 343.624404 66.305299 
L 342.820214 63.122788 
L 341.970552 52.304657 
L 341.146371 59.885642 
L 340.326991 62.69292 
L 339.504669 66.565364 
L 338.70323 70.117306 
L 337.842363 64.906161 
L 337.037025 61.939025 
L 336.232441 69.166073 
L 335.398626 65.097074 
L 334.569136 68.767022 
L 333.817942 61.262585 
L 332.943016 34.795406 
L 332.096756 73.053872 
L 331.305753 54.639456 
L 330.605175 53.501515 
L 329.482622 62.699776 
L 328.780668 63.495239 
L 328.014777 63.018278 
L 327.188978 65.586275 
L 326.379307 68.674418 
L 325.544797 61.636436 
L 324.739142 61.022747 
L 323.891588 61.439622 
L 323.078982 61.533756 
L 322.29251 60.31801 
L 321.45042 60.491373 
L 320.624038 63.071657 
L 319.803211 77.193972 
L 318.966218 70.683481 
L 318.164055 61.211709 
L 317.318487 61.974732 
L 316.542619 62.681306 
L 315.722678 62.252455 
L 314.871664 63.338132 
L 314.069475 63.173984 
L 313.270412 62.180185 
L 312.405898 66.856778 
L 311.67568 70.09517 
L 310.769068 70.280879 
L 309.955506 71.051729 
L 309.143484 68.851324 
L 308.325549 62.414645 
L 307.432601 65.120584 
L 306.640568 65.490243 
L 305.895012 66.4721 
L 305.085585 63.764419 
L 304.277944 65.035349 
L 303.4022 85.387645 
L 302.456707 63.288968 
L 301.714504 67.962074 
L 300.933883 72.964866 
L 300.164802 70.738432 
L 299.30944 66.977992 
L 298.510607 46.786766 
L 297.640097 43.490164 
L 296.828543 45.708733 
L 296.071629 40.801546 
L 295.179334 42.492981 
L 294.361483 43.983241 
L 293.559172 44.661879 
L 292.731023 44.544572 
L 291.902324 45.807403 
L 291.081067 46.331418 
L 290.24089 40.5395 
L 289.458621 44.080402 
L 288.620824 45.249257 
L 287.799582 45.232013 
L 286.981374 45.786784 
L 286.215366 42.378786 
L 285.343213 38.331015 
L 284.516476 38.409325 
L 283.695542 40.908303 
L 282.875139 40.544649 
L 282.053875 38.256011 
L 281.233043 39.621718 
L 280.412354 39.883258 
L 279.589661 42.091063 
L 278.770706 41.95648 
L 277.949814 47.237102 
L 277.131176 40.983034 
L 276.308205 42.072791 
L 275.487214 40.086068 
L 274.663653 40.848927 
L 273.845978 44.689953 
L 273.023024 41.736697 
L 272.200027 40.873518 
L 271.382188 44.752421 
L 270.560658 42.253274 
L 269.743518 42.425338 
L 268.919348 42.225292 
L 268.099376 41.566212 
L 267.278742 38.436552 
L 266.457845 36.284107 
L 265.636673 36.525031 
L 264.816129 36.21815 
L 263.995373 36.161584 
L 263.174148 38.179473 
L 262.353289 39.551679 
L 261.532628 38.931674 
L 260.711894 40.062444 
L 259.891021 41.306137 
L 259.070034 40.629121 
L 258.24929 41.8325 
L 257.428284 42.488621 
L 256.607269 43.464493 
L 255.786186 45.122617 
L 254.96534 43.397834 
L 254.144379 44.908018 
L 253.323154 45.844021 
L 252.502249 43.229155 
L 251.681233 45.711909 
L 250.860211 44.862855 
L 250.039079 41.213385 
L 249.217464 39.574679 
L 248.395766 40.073181 
L 247.574074 42.805344 
L 246.751506 45.619517 
L 245.925206 46.321655 
L 245.088191 34.444263 
L 244.417687 40.052083 
L 243.474566 30.161504 
L 242.653792 27.439966 
L 241.832999 26.480157 
L 241.01216 25.01492 
L 240.191262 21.314727 
L 239.370315 25.187929 
L 238.549345 27.901355 
L 237.728676 26.944176 
L 236.907824 30.556342 
L 236.087636 37.296292 
L 235.266259 31.172006 
L 234.445551 27.365491 
L 233.624684 28.079628 
L 232.803622 30.159151 
L 231.98263 26.845687 
L 231.161753 27.181228 
L 230.340831 30.077355 
L 229.51982 37.961884 
L 228.699286 39.345243 
L 227.878429 39.171701 
L 227.057341 41.330319 
L 226.236484 41.270556 
L 225.41571 41.307657 
L 224.594776 37.270622 
L 223.773821 37.500753 
L 222.952926 43.583979 
L 222.131939 45.388641 
L 221.310952 48.421957 
L 220.489927 49.455438 
L 219.668969 48.313347 
L 218.848019 46.456284 
L 218.0268 48.161314 
L 217.205716 45.285141 
L 216.384596 43.426142 
L 215.563243 41.409276 
L 214.741888 41.669851 
L 213.92045 43.076236 
L 213.098715 41.31921 
L 212.253715 37.436616 
L 211.454067 38.78357 
L 210.625728 32.907937 
L 209.801483 41.837448 
L 208.948123 49.387284 
L 208.454622 43.767078 
z
" clip-path="url(#ped713f2d2a)" style="fill: #add8e6; stroke: #add8e6"/>
   </g>
   <g id="line2d_1">
    <path d="M 208.454622 58.452987 
L 208.948123 63.469309 
L 209.801483 60.179167 
L 210.625728 47.137645 
L 211.454067 52.027961 
L 212.253715 49.467661 
L 213.098715 51.724739 
L 213.92045 52.527276 
L 214.741888 52.426712 
L 215.563243 52.93608 
L 216.384596 55.38748 
L 217.205716 56.686105 
L 218.0268 58.699573 
L 218.848019 58.680913 
L 219.668969 60.597613 
L 220.489927 60.466648 
L 221.310952 61.167881 
L 222.131939 59.674701 
L 222.952926 59.519393 
L 223.773821 54.746383 
L 224.594776 52.642119 
L 225.41571 55.90854 
L 226.236484 55.160119 
L 227.057341 55.876871 
L 227.878429 55.319235 
L 228.699286 55.328132 
L 229.51982 54.91244 
L 230.340831 48.748988 
L 231.161753 47.833393 
L 231.98263 48.180421 
L 232.803622 51.511604 
L 233.624684 50.428225 
L 234.445551 48.752825 
L 235.266259 51.73324 
L 236.087636 58.459283 
L 236.907824 53.640302 
L 237.728676 49.741355 
L 238.549345 49.916548 
L 240.191262 45.167037 
L 241.01216 49.05749 
L 241.832999 50.525698 
L 242.653792 49.612975 
L 243.474566 51.343797 
L 244.417687 54.370086 
L 245.088191 51.917723 
L 245.925206 61.875653 
L 246.751506 64.418134 
L 247.574074 64.09385 
L 248.395766 62.377126 
L 249.217464 61.216958 
L 250.039079 62.563331 
L 250.860211 64.625651 
L 251.681233 65.434591 
L 252.502249 62.523734 
L 253.323154 64.493213 
L 254.144379 60.959954 
L 254.96534 59.350952 
L 255.786186 60.872635 
L 256.607269 59.120089 
L 257.428284 58.722522 
L 259.070034 57.295638 
L 259.891021 57.560513 
L 260.711894 57.037191 
L 261.532628 56.009844 
L 262.353289 56.534611 
L 263.174148 52.942499 
L 263.995373 53.349286 
L 264.816129 52.338463 
L 265.636673 53.470753 
L 266.457845 52.399172 
L 267.278742 53.766969 
L 268.099376 57.146177 
L 269.743518 59.08332 
L 270.560658 59.452005 
L 271.382188 60.360501 
L 272.200027 57.183122 
L 273.023024 56.809259 
L 273.845978 57.804846 
L 275.487214 53.514024 
L 276.308205 54.647361 
L 277.131176 54.636569 
L 277.949814 63.294376 
L 278.770706 57.155091 
L 279.589661 54.878241 
L 280.412354 53.155779 
L 281.233043 54.20313 
L 282.053875 53.884881 
L 282.875139 56.601986 
L 283.695542 57.797062 
L 284.516476 57.555065 
L 285.343213 56.342013 
L 286.215366 63.323983 
L 286.981374 67.844463 
L 287.799582 66.526358 
L 288.620824 66.557993 
L 289.458621 64.284273 
L 290.24089 61.268956 
L 291.081067 67.499055 
L 291.902324 67.023357 
L 292.731023 65.523075 
L 294.361483 65.618374 
L 295.179334 64.002698 
L 296.071629 60.361093 
L 296.828543 67.71456 
L 297.640097 65.619518 
L 298.510607 68.529794 
L 299.30944 81.90683 
L 300.164802 83.735008 
L 300.933883 82.916251 
L 301.714504 80.29274 
L 302.456707 75.17519 
L 303.4022 92.548364 
L 304.277944 81.374476 
L 305.085585 78.870169 
L 305.895012 80.55599 
L 306.640568 79.633683 
L 307.432601 81.560454 
L 308.325549 79.347629 
L 309.143484 84.853985 
L 309.955506 87.506501 
L 310.769068 85.30942 
L 311.67568 84.589987 
L 312.405898 81.855307 
L 313.270412 76.21039 
L 314.069475 77.043785 
L 314.871664 77.677185 
L 315.722678 76.684794 
L 316.542619 78.17329 
L 318.164055 75.884098 
L 318.966218 87.559687 
L 319.803211 92.702041 
L 320.624038 81.832952 
L 321.45042 78.779303 
L 322.29251 76.91242 
L 323.078982 79.37359 
L 324.739142 80.188961 
L 325.544797 78.370126 
L 326.379307 85.659764 
L 327.188978 82.455001 
L 328.014777 79.856919 
L 329.482622 82.87848 
L 330.605175 76.796068 
L 331.305753 79.539251 
L 332.096756 85.255844 
L 332.943016 65.755266 
L 333.817942 81.105925 
L 334.569136 81.938709 
L 335.398626 79.264766 
L 336.232441 82.562191 
L 337.037025 76.84632 
L 337.842363 79.455899 
L 338.70323 78.755201 
L 339.504669 76.942795 
L 340.326991 74.636183 
L 341.146371 73.698578 
L 341.970552 66.893423 
L 342.820214 74.712531 
L 343.624404 76.596946 
L 344.432562 80.752748 
L 345.25308 79.483204 
L 346.103556 69.897522 
L 346.892109 77.998036 
L 347.705327 74.98663 
L 348.517551 73.959571 
L 349.357076 80.17569 
L 350.17357 77.219843 
L 351.025824 67.963329 
L 351.83691 73.569793 
L 352.662816 78.326423 
L 353.436773 77.183241 
L 354.274399 72.136283 
L 355.096481 78.902096 
L 355.922101 81.943308 
L 356.75253 82.739591 
L 357.572656 77.495083 
L 358.381416 69.78312 
L 359.229082 71.782281 
L 360.076868 75.868436 
L 360.8553 77.570993 
L 362.497863 76.879438 
L 363.253094 81.883261 
L 364.166459 84.003353 
L 364.937325 83.0492 
L 365.75953 84.763896 
L 366.588489 83.796137 
L 367.438667 76.917737 
L 368.239237 63.819385 
L 369.018971 65.783271 
L 369.872332 66.107472 
L 370.703923 71.69172 
L 371.485343 72.212764 
L 372.347549 75.649721 
L 373.149784 74.567307 
L 373.990161 72.939793 
L 374.837796 68.212379 
L 375.617716 67.854781 
L 376.473834 68.882901 
L 378.104656 72.655984 
L 378.934784 52.966945 
L 379.702057 52.338051 
L 380.50463 42.183944 
L 381.384029 51.638702 
L 382.095972 52.163062 
L 383.071932 67.987608 
L 383.834711 69.160664 
L 384.771662 56.420965 
L 385.485629 54.644443 
L 386.298031 53.801056 
L 387.113754 53.258127 
L 387.934652 56.187544 
L 388.77566 53.372007 
L 389.600333 53.287154 
L 390.420041 57.994967 
L 391.209584 54.367159 
L 392.011251 56.151809 
L 392.88465 57.591384 
L 393.690409 63.673411 
L 394.508799 62.606223 
L 395.336993 60.131887 
L 396.143945 62.835399 
L 396.953589 71.587732 
L 397.804409 68.71114 
L 398.590684 67.508299 
L 399.440937 74.51564 
L 400.258949 72.121972 
L 401.067574 62.876284 
L 401.903417 63.101765 
L 402.712457 57.665503 
L 403.516835 59.031124 
L 404.365844 70.812298 
L 405.192317 59.932301 
L 405.192317 59.932301 
" clip-path="url(#ped713f2d2a)" style="fill: none; stroke: #1f77b4; stroke-width: 1.5; stroke-linecap: square"/>
   </g>
   <g id="line2d_2">
    <path d="M 88.654695 289 
L 88.655195 187.243602 
L 88.984023 166.808728 
L 89.640852 144.954338 
L 91.284399 110.569132 
L 92.270764 96.833389 
L 93.257128 86.685876 
L 94.242313 79.215867 
L 95.228677 73.464822 
L 96.213861 69.021373 
L 97.528227 64.476278 
L 98.513412 61.749272 
L 100.156959 58.205678 
L 101.471325 56.007454 
L 102.784511 54.215196 
L 103.770876 53.085881 
L 106.070426 50.97592 
L 107.384792 50.015605 
L 110.997529 48.03305 
L 112.969077 47.228954 
L 114.939446 46.615441 
L 119.210546 45.529422 
L 125.780016 44.482547 
L 127.422383 44.317264 
L 128.736749 44.164721 
L 129.393932 44.144092 
L 132.021484 43.927021 
L 136.291404 43.663308 
L 137.933771 43.546638 
L 138.590954 43.557919 
L 141.875689 43.418315 
L 145.489605 43.304179 
L 146.146788 43.277675 
L 147.131973 43.285564 
L 148.445159 43.207239 
L 149.102342 43.212161 
L 150.744709 43.150813 
L 151.401892 43.177115 
L 154.029444 43.140803 
L 161.91328 43.058664 
L 163.227646 43.087874 
L 164.212831 43.035941 
L 165.198015 43.061886 
L 166.1832 43.028262 
L 167.168384 43.071388 
L 168.48275 43.029275 
L 169.139933 43.047201 
L 170.454299 43.026644 
L 171.110302 43.055888 
L 173.081851 43.027701 
L 173.739034 43.069965 
L 177.023769 43.058996 
L 184.578424 43.088001 
L 186.877974 43.119196 
L 187.533977 43.085033 
L 189.505526 43.132673 
L 190.162709 43.10767 
L 191.475895 43.133644 
L 192.133078 43.115352 
L 193.447444 43.153929 
L 194.432628 43.104084 
L 195.750534 43.154816 
L 196.729819 43.118323 
L 198.051264 43.182255 
L 199.03055 43.156512 
L 200.021633 43.196789 
L 201.33128 43.150246 
L 202.310565 43.205698 
L 203.63201 43.165847 
L 204.611295 43.231235 
L 206.263102 43.181656 
L 206.912026 43.210481 
L 208.233471 43.195585 
L 208.882395 43.229611 
L 210.522402 43.212076 
L 211.183125 43.246666 
L 213.153494 43.229168 
L 213.814217 43.269408 
L 216.445308 43.248487 
L 217.094232 43.301946 
L 221.03497 43.291183 
L 221.695693 43.348589 
L 229.577169 43.350342 
L 264.394888 43.631917 
L 265.05561 43.621382 
L 266.034895 43.645277 
L 267.025979 43.600688 
L 268.335626 43.661178 
L 269.32671 43.621015 
L 270.305995 43.654598 
L 270.966717 43.652582 
L 271.957801 43.684405 
L 272.937086 43.654184 
L 273.92817 43.689752 
L 274.907455 43.662488 
L 275.898539 43.70102 
L 276.877824 43.676655 
L 277.538547 43.681264 
L 278.517832 43.659266 
L 279.508916 43.703082 
L 280.488201 43.68388 
L 281.479285 43.730498 
L 282.788932 43.685348 
L 283.780015 43.73589 
L 285.089662 43.694927 
L 286.080746 43.747884 
L 287.390392 43.711021 
L 288.051115 43.726086 
L 289.0304 43.718405 
L 289.691122 43.734902 
L 291.000769 43.705005 
L 291.991853 43.765702 
L 293.631861 43.715746 
L 294.622944 43.779758 
L 296.262952 43.735214 
L 296.911876 43.760932 
L 298.233321 43.739772 
L 298.882245 43.76633 
L 300.20369 43.748306 
L 300.852614 43.777109 
L 302.174059 43.762166 
L 302.834782 43.789385 
L 304.47479 43.761637 
L 305.123714 43.793658 
L 306.77552 43.766444 
L 307.424444 43.800149 
L 309.064452 43.780179 
L 309.725174 43.813251 
L 311.695543 43.780429 
L 312.356266 43.814666 
L 314.326635 43.788108 
L 314.987357 43.824901 
L 316.957726 43.803055 
L 317.60665 43.84454 
L 319.907381 43.814528 
L 320.568103 43.855094 
L 323.199195 43.818801 
L 323.848119 43.864328 
L 326.47921 43.837144 
L 327.139933 43.881217 
L 330.419948 43.843955 
L 331.080671 43.89117 
L 334.691048 43.856941 
L 335.35177 43.90599 
L 339.292508 43.87795 
L 339.941432 43.932298 
L 345.203615 43.894355 
L 345.864338 43.950042 
L 352.75473 43.921123 
L 353.415453 43.980787 
L 361.62729 43.98441 
L 369.839128 44.038667 
L 397.105732 44.114992 
L 401.695394 44.14133 
L 402.356116 44.086583 
L 404.987208 44.145842 
L 404.987208 44.145842 
" clip-path="url(#ped713f2d2a)" style="fill: none; stroke: #000000; stroke-width: 2.5; stroke-linecap: square"/>
   </g>
   <g id="line2d_3">
    <path d="M 87.668949 60.377494 
L 87.997659 59.206678 
L 88.655195 59.260273 
L 88.984023 59.692401 
L 89.970033 61.519656 
L 91.941582 64.262025 
L 94.242313 66.305453 
L 95.556678 67.002651 
L 96.543043 67.518739 
L 97.856229 68.14386 
L 100.484961 69.185206 
L 101.142144 69.43029 
L 102.45651 69.927642 
L 105.084062 70.667427 
L 106.727609 71.133349 
L 107.712794 71.315328 
L 108.697978 71.575849 
L 110.997529 72.024248 
L 113.954262 72.482912 
L 120.19573 73.322502 
L 121.510096 73.41983 
L 122.167279 73.524965 
L 136.620585 74.496387 
L 138.920136 74.619558 
L 143.190055 74.747373 
L 143.847238 74.755657 
L 144.504421 74.771138 
L 145.489605 74.771963 
L 146.146788 74.801814 
L 147.459974 74.812112 
L 148.117157 74.859212 
L 150.744709 74.895812 
L 161.585279 74.998162 
L 162.570463 75.04332 
L 163.555648 75.029447 
L 164.540832 75.091116 
L 166.1832 75.052413 
L 166.840383 75.082976 
L 168.154749 75.087153 
L 168.810752 75.128339 
L 171.439484 75.118336 
L 172.096667 75.174482 
L 175.709403 75.22886 
L 194.432628 75.336168 
L 195.420173 75.306647 
L 196.399458 75.353184 
L 197.390542 75.330065 
L 198.051264 75.339504 
L 199.03055 75.329219 
L 199.691272 75.343003 
L 200.670557 75.339072 
L 201.33128 75.357556 
L 202.640926 75.337216 
L 203.301649 75.360635 
L 204.941657 75.329671 
L 205.602379 75.359129 
L 207.572748 75.325516 
L 208.233471 75.361105 
L 210.852764 75.324707 
L 211.513486 75.367602 
L 215.784586 75.317941 
L 216.445308 75.371637 
L 271.62744 75.131299 
L 272.606725 75.168845 
L 273.92817 75.103408 
L 274.907455 75.144412 
L 275.898539 75.115512 
L 276.877824 75.159415 
L 278.19927 75.102458 
L 278.848193 75.112313 
L 279.839277 75.089165 
L 280.818562 75.139157 
L 282.140008 75.089708 
L 282.788932 75.103215 
L 283.780015 75.086059 
L 284.428939 75.101045 
L 285.750384 75.058685 
L 286.72967 75.116721 
L 288.381476 75.052189 
L 289.0304 75.071661 
L 290.351845 75.037423 
L 291.000769 75.058107 
L 292.322214 75.0277 
L 292.971138 75.050024 
L 294.292583 75.022927 
L 294.941507 75.047321 
L 296.262952 75.023016 
L 296.911876 75.048991 
L 298.563682 75.006312 
L 299.212606 75.034098 
L 300.852614 74.999092 
L 301.513337 75.025543 
L 303.153344 74.995433 
L 303.814067 75.023653 
L 305.784436 74.978652 
L 306.445159 75.009311 
L 308.415528 74.970148 
L 309.064452 75.005284 
L 311.365182 74.955513 
L 312.025904 74.989767 
L 314.326635 74.947307 
L 314.987357 74.983635 
L 317.60665 74.936621 
L 318.267373 74.975643 
L 321.228826 74.921145 
L 321.87775 74.965409 
L 325.169564 74.909372 
L 325.818488 74.956124 
L 329.759226 74.894268 
L 330.419948 74.940615 
L 335.021409 74.877654 
L 335.682132 74.927599 
L 341.911801 74.855259 
L 342.572524 74.90913 
L 351.445084 74.835281 
L 360.317644 74.824582 
L 386.593164 74.792935 
L 387.242088 74.735017 
L 397.754656 74.77063 
L 398.415378 74.714847 
L 403.3472 74.751242 
L 403.665763 74.692791 
L 404.326485 74.774457 
L 404.987208 74.721563 
L 405.317569 74.729133 
L 405.317569 74.729133 
" clip-path="url(#ped713f2d2a)" style="fill: none; stroke-dasharray: 9.25,4; stroke-dashoffset: 0; stroke: #8b0000; stroke-width: 2.5"/>
   </g>
   <g id="legend_1">
    <g id="line2d_4">
     <path d="M 333.95625 198.188062 
L 343.95625 198.188062 
L 353.95625 198.188062 
" style="fill: none; stroke: #1f77b4; stroke-width: 1.5; stroke-linecap: square"/>
    </g>
    <g id="text_1">
     <!-- PSP -->
     <g transform="translate(361.95625 201.688062) scale(0.1 -0.1)">
      <defs>
       <path id="DejaVuSans-50" d="M 1259 4147 
L 1259 2394 
L 2053 2394 
Q 2494 2394 2734 2622 
Q 2975 2850 2975 3272 
Q 2975 3691 2734 3919 
Q 2494 4147 2053 4147 
L 1259 4147 
z
M 628 4666 
L 2053 4666 
Q 2838 4666 3239 4311 
Q 3641 3956 3641 3272 
Q 3641 2581 3239 2228 
Q 2838 1875 2053 1875 
L 1259 1875 
L 1259 0 
L 628 0 
L 628 4666 
z
" transform="scale(0.015625)"/>
       <path id="DejaVuSans-53" d="M 3425 4513 
L 3425 3897 
Q 3066 4069 2747 4153 
Q 2428 4238 2131 4238 
Q 1616 4238 1336 4038 
Q 1056 3838 1056 3469 
Q 1056 3159 1242 3001 
Q 1428 2844 1947 2747 
L 2328 2669 
Q 3034 2534 3370 2195 
Q 3706 1856 3706 1288 
Q 3706 609 3251 259 
Q 2797 -91 1919 -91 
Q 1588 -91 1214 -16 
Q 841 59 441 206 
L 441 856 
Q 825 641 1194 531 
Q 1563 422 1919 422 
Q 2459 422 2753 634 
Q 3047 847 3047 1241 
Q 3047 1584 2836 1778 
Q 2625 1972 2144 2069 
L 1759 2144 
Q 1053 2284 737 2584 
Q 422 2884 422 3419 
Q 422 4038 858 4394 
Q 1294 4750 2059 4750 
Q 2388 4750 2728 4690 
Q 3069 4631 3425 4513 
z
" transform="scale(0.015625)"/>
      </defs>
      <use xlink:href="#DejaVuSans-50"/>
      <use xlink:href="#DejaVuSans-53" x="60.302734"/>
      <use xlink:href="#DejaVuSans-50" x="123.779297"/>
     </g>
    </g>
    <g id="line2d_5">
     <path d="M 333.95625 212.866187 
L 343.95625 212.866187 
L 353.95625 212.866187 
" style="fill: none; stroke: #000000; stroke-width: 2.5; stroke-linecap: square"/>
    </g>
    <g id="text_2">
     <!-- Slow wind -->
     <g transform="translate(361.95625 216.366187) scale(0.1 -0.1)">
      <defs>
       <path id="DejaVuSans-6c" d="M 603 4863 
L 1178 4863 
L 1178 0 
L 603 0 
L 603 4863 
z
" transform="scale(0.015625)"/>
       <path id="DejaVuSans-6f" d="M 1959 3097 
Q 1497 3097 1228 2736 
Q 959 2375 959 1747 
Q 959 1119 1226 758 
Q 1494 397 1959 397 
Q 2419 397 2687 759 
Q 2956 1122 2956 1747 
Q 2956 2369 2687 2733 
Q 2419 3097 1959 3097 
z
M 1959 3584 
Q 2709 3584 3137 3096 
Q 3566 2609 3566 1747 
Q 3566 888 3137 398 
Q 2709 -91 1959 -91 
Q 1206 -91 779 398 
Q 353 888 353 1747 
Q 353 2609 779 3096 
Q 1206 3584 1959 3584 
z
" transform="scale(0.015625)"/>
       <path id="DejaVuSans-77" d="M 269 3500 
L 844 3500 
L 1563 769 
L 2278 3500 
L 2956 3500 
L 3675 769 
L 4391 3500 
L 4966 3500 
L 4050 0 
L 3372 0 
L 2619 2869 
L 1863 0 
L 1184 0 
L 269 3500 
z
" transform="scale(0.015625)"/>
       <path id="DejaVuSans-20" transform="scale(0.015625)"/>
       <path id="DejaVuSans-69" d="M 603 3500 
L 1178 3500 
L 1178 0 
L 603 0 
L 603 3500 
z
M 603 4863 
L 1178 4863 
L 1178 4134 
L 603 4134 
L 603 4863 
z
" transform="scale(0.015625)"/>
       <path id="DejaVuSans-6e" d="M 3513 2113 
L 3513 0 
L 2938 0 
L 2938 2094 
Q 2938 2591 2744 2837 
Q 2550 3084 2163 3084 
Q 1697 3084 1428 2787 
Q 1159 2491 1159 1978 
L 1159 0 
L 581 0 
L 581 3500 
L 1159 3500 
L 1159 2956 
Q 1366 3272 1645 3428 
Q 1925 3584 2291 3584 
Q 2894 3584 3203 3211 
Q 3513 2838 3513 2113 
z
" transform="scale(0.015625)"/>
       <path id="DejaVuSans-64" d="M 2906 2969 
L 2906 4863 
L 3481 4863 
L 3481 0 
L 2906 0 
L 2906 525 
Q 2725 213 2448 61 
Q 2172 -91 1784 -91 
Q 1150 -91 751 415 
Q 353 922 353 1747 
Q 353 2572 751 3078 
Q 1150 3584 1784 3584 
Q 2172 3584 2448 3432 
Q 2725 3281 2906 2969 
z
M 947 1747 
Q 947 1113 1208 752 
Q 1469 391 1925 391 
Q 2381 391 2643 752 
Q 2906 1113 2906 1747 
Q 2906 2381 2643 2742 
Q 2381 3103 1925 3103 
Q 1469 3103 1208 2742 
Q 947 2381 947 1747 
z
" transform="scale(0.015625)"/>
      </defs>
      <use xlink:href="#DejaVuSans-53"/>
      <use xlink:href="#DejaVuSans-6c" x="63.476562"/>
      <use xlink:href="#DejaVuSans-6f" x="91.259766"/>
      <use xlink:href="#DejaVuSans-77" x="152.441406"/>
      <use xlink:href="#DejaVuSans-20" x="234.228516"/>
      <use xlink:href="#DejaVuSans-77" x="266.015625"/>
      <use xlink:href="#DejaVuSans-69" x="347.802734"/>
      <use xlink:href="#DejaVuSans-6e" x="375.585938"/>
      <use xlink:href="#DejaVuSans-64" x="438.964844"/>
     </g>
    </g>
    <g id="line2d_6">
     <path d="M 333.95625 227.544312 
L 343.95625 227.544312 
L 353.95625 227.544312 
" style="fill: none; stroke-dasharray: 9.25,4; stroke-dashoffset: 0; stroke: #8b0000; stroke-width: 2.5"/>
    </g>
    <g id="text_3">
     <!-- Fast wind -->
     <g transform="translate(361.95625 231.044312) scale(0.1 -0.1)">
      <defs>
       <path id="DejaVuSans-46" d="M 628 4666 
L 3309 4666 
L 3309 4134 
L 1259 4134 
L 1259 2759 
L 3109 2759 
L 3109 2228 
L 1259 2228 
L 1259 0 
L 628 0 
L 628 4666 
z
" transform="scale(0.015625)"/>
       <path id="DejaVuSans-61" d="M 2194 1759 
Q 1497 1759 1228 1600 
Q 959 1441 959 1056 
Q 959 750 1161 570 
Q 1363 391 1709 391 
Q 2188 391 2477 730 
Q 2766 1069 2766 1631 
L 2766 1759 
L 2194 1759 
z
M 3341 1997 
L 3341 0 
L 2766 0 
L 2766 531 
Q 2569 213 2275 61 
Q 1981 -91 1556 -91 
Q 1019 -91 701 211 
Q 384 513 384 1019 
Q 384 1609 779 1909 
Q 1175 2209 1959 2209 
L 2766 2209 
L 2766 2266 
Q 2766 2663 2505 2880 
Q 2244 3097 1772 3097 
Q 1472 3097 1187 3025 
Q 903 2953 641 2809 
L 641 3341 
Q 956 3463 1253 3523 
Q 1550 3584 1831 3584 
Q 2591 3584 2966 3190 
Q 3341 2797 3341 1997 
z
" transform="scale(0.015625)"/>
       <path id="DejaVuSans-73" d="M 2834 3397 
L 2834 2853 
Q 2591 2978 2328 3040 
Q 2066 3103 1784 3103 
Q 1356 3103 1142 2972 
Q 928 2841 928 2578 
Q 928 2378 1081 2264 
Q 1234 2150 1697 2047 
L 1894 2003 
Q 2506 1872 2764 1633 
Q 3022 1394 3022 966 
Q 3022 478 2636 193 
Q 2250 -91 1575 -91 
Q 1294 -91 989 -36 
Q 684 19 347 128 
L 347 722 
Q 666 556 975 473 
Q 1284 391 1588 391 
Q 1994 391 2212 530 
Q 2431 669 2431 922 
Q 2431 1156 2273 1281 
Q 2116 1406 1581 1522 
L 1381 1569 
Q 847 1681 609 1914 
Q 372 2147 372 2553 
Q 372 3047 722 3315 
Q 1072 3584 1716 3584 
Q 2034 3584 2315 3537 
Q 2597 3491 2834 3397 
z
" transform="scale(0.015625)"/>
       <path id="DejaVuSans-74" d="M 1172 4494 
L 1172 3500 
L 2356 3500 
L 2356 3053 
L 1172 3053 
L 1172 1153 
Q 1172 725 1289 603 
Q 1406 481 1766 481 
L 2356 481 
L 2356 0 
L 1766 0 
Q 1100 0 847 248 
Q 594 497 594 1153 
L 594 3053 
L 172 3053 
L 172 3500 
L 594 3500 
L 594 4494 
L 1172 4494 
z
" transform="scale(0.015625)"/>
      </defs>
      <use xlink:href="#DejaVuSans-46"/>
      <use xlink:href="#DejaVuSans-61" x="48.394531"/>
      <use xlink:href="#DejaVuSans-73" x="109.673828"/>
      <use xlink:href="#DejaVuSans-74" x="161.773438"/>
      <use xlink:href="#DejaVuSans-20" x="200.982422"/>
      <use xlink:href="#DejaVuSans-77" x="232.769531"/>
      <use xlink:href="#DejaVuSans-69" x="314.556641"/>
      <use xlink:href="#DejaVuSans-6e" x="342.339844"/>
      <use xlink:href="#DejaVuSans-64" x="405.71875"/>
     </g>
    </g>
   </g>
   <g id="matplotlib.axis_1">
    <g id="xtick_1">
     <g id="line2d_7">
      <defs>
       <path id="meebcf9bdcc" d="M 0 0 
L 0 -3.5 
" style="stroke: #000000; stroke-width: 1.5"/>
      </defs>
      <g>
       <use xlink:href="#meebcf9bdcc" x="77.257024" y="242.124" style="stroke: #000000; stroke-width: 1.5"/>
      </g>
     </g>
     <g id="line2d_8">
      <defs>
       <path id="m3cd786ff3f" d="M 0 0 
L 0 3.5 
" style="stroke: #000000; stroke-width: 1.5"/>
      </defs>
      <g>
       <use xlink:href="#m3cd786ff3f" x="77.257024" y="10.8" style="stroke: #000000; stroke-width: 1.5"/>
      </g>
     </g>
     <g id="text_4">
      <!-- 0 -->
      <g transform="translate(73.439524 254.742125) scale(0.12 -0.12)">
       <defs>
        <path id="DejaVuSans-30" d="M 2034 4250 
Q 1547 4250 1301 3770 
Q 1056 3291 1056 2328 
Q 1056 1369 1301 889 
Q 1547 409 2034 409 
Q 2525 409 2770 889 
Q 3016 1369 3016 2328 
Q 3016 3291 2770 3770 
Q 2525 4250 2034 4250 
z
M 2034 4750 
Q 2819 4750 3233 4129 
Q 3647 3509 3647 2328 
Q 3647 1150 3233 529 
Q 2819 -91 2034 -91 
Q 1250 -91 836 529 
Q 422 1150 422 2328 
Q 422 3509 836 4129 
Q 1250 4750 2034 4750 
z
" transform="scale(0.015625)"/>
       </defs>
       <use xlink:href="#DejaVuSans-30"/>
      </g>
     </g>
    </g>
    <g id="xtick_2">
     <g id="line2d_9">
      <g>
       <use xlink:href="#meebcf9bdcc" x="118.298513" y="242.124" style="stroke: #000000; stroke-width: 1.5"/>
      </g>
     </g>
     <g id="line2d_10">
      <g>
       <use xlink:href="#m3cd786ff3f" x="118.298513" y="10.8" style="stroke: #000000; stroke-width: 1.5"/>
      </g>
     </g>
     <g id="text_5">
      <!-- 5 -->
      <g transform="translate(114.481013 254.742125) scale(0.12 -0.12)">
       <defs>
        <path id="DejaVuSans-35" d="M 691 4666 
L 3169 4666 
L 3169 4134 
L 1269 4134 
L 1269 2991 
Q 1406 3038 1543 3061 
Q 1681 3084 1819 3084 
Q 2600 3084 3056 2656 
Q 3513 2228 3513 1497 
Q 3513 744 3044 326 
Q 2575 -91 1722 -91 
Q 1428 -91 1123 -41 
Q 819 9 494 109 
L 494 744 
Q 775 591 1075 516 
Q 1375 441 1709 441 
Q 2250 441 2565 725 
Q 2881 1009 2881 1497 
Q 2881 1984 2565 2268 
Q 2250 2553 1709 2553 
Q 1456 2553 1204 2497 
Q 953 2441 691 2322 
L 691 4666 
z
" transform="scale(0.015625)"/>
       </defs>
       <use xlink:href="#DejaVuSans-35"/>
      </g>
     </g>
    </g>
    <g id="xtick_3">
     <g id="line2d_11">
      <g>
       <use xlink:href="#meebcf9bdcc" x="159.340002" y="242.124" style="stroke: #000000; stroke-width: 1.5"/>
      </g>
     </g>
     <g id="line2d_12">
      <g>
       <use xlink:href="#m3cd786ff3f" x="159.340002" y="10.8" style="stroke: #000000; stroke-width: 1.5"/>
      </g>
     </g>
     <g id="text_6">
      <!-- 10 -->
      <g transform="translate(151.705002 254.742125) scale(0.12 -0.12)">
       <defs>
        <path id="DejaVuSans-31" d="M 794 531 
L 1825 531 
L 1825 4091 
L 703 3866 
L 703 4441 
L 1819 4666 
L 2450 4666 
L 2450 531 
L 3481 531 
L 3481 0 
L 794 0 
L 794 531 
z
" transform="scale(0.015625)"/>
       </defs>
       <use xlink:href="#DejaVuSans-31"/>
       <use xlink:href="#DejaVuSans-30" x="63.623047"/>
      </g>
     </g>
    </g>
    <g id="xtick_4">
     <g id="line2d_13">
      <g>
       <use xlink:href="#meebcf9bdcc" x="200.381491" y="242.124" style="stroke: #000000; stroke-width: 1.5"/>
      </g>
     </g>
     <g id="line2d_14">
      <g>
       <use xlink:href="#m3cd786ff3f" x="200.381491" y="10.8" style="stroke: #000000; stroke-width: 1.5"/>
      </g>
     </g>
     <g id="text_7">
      <!-- 15 -->
      <g transform="translate(192.746491 254.742125) scale(0.12 -0.12)">
       <use xlink:href="#DejaVuSans-31"/>
       <use xlink:href="#DejaVuSans-35" x="63.623047"/>
      </g>
     </g>
    </g>
    <g id="xtick_5">
     <g id="line2d_15">
      <g>
       <use xlink:href="#meebcf9bdcc" x="241.42298" y="242.124" style="stroke: #000000; stroke-width: 1.5"/>
      </g>
     </g>
     <g id="line2d_16">
      <g>
       <use xlink:href="#m3cd786ff3f" x="241.42298" y="10.8" style="stroke: #000000; stroke-width: 1.5"/>
      </g>
     </g>
     <g id="text_8">
      <!-- 20 -->
      <g transform="translate(233.78798 254.742125) scale(0.12 -0.12)">
       <defs>
        <path id="DejaVuSans-32" d="M 1228 531 
L 3431 531 
L 3431 0 
L 469 0 
L 469 531 
Q 828 903 1448 1529 
Q 2069 2156 2228 2338 
Q 2531 2678 2651 2914 
Q 2772 3150 2772 3378 
Q 2772 3750 2511 3984 
Q 2250 4219 1831 4219 
Q 1534 4219 1204 4116 
Q 875 4013 500 3803 
L 500 4441 
Q 881 4594 1212 4672 
Q 1544 4750 1819 4750 
Q 2544 4750 2975 4387 
Q 3406 4025 3406 3419 
Q 3406 3131 3298 2873 
Q 3191 2616 2906 2266 
Q 2828 2175 2409 1742 
Q 1991 1309 1228 531 
z
" transform="scale(0.015625)"/>
       </defs>
       <use xlink:href="#DejaVuSans-32"/>
       <use xlink:href="#DejaVuSans-30" x="63.623047"/>
      </g>
     </g>
    </g>
    <g id="xtick_6">
     <g id="line2d_17">
      <g>
       <use xlink:href="#meebcf9bdcc" x="282.46447" y="242.124" style="stroke: #000000; stroke-width: 1.5"/>
      </g>
     </g>
     <g id="line2d_18">
      <g>
       <use xlink:href="#m3cd786ff3f" x="282.46447" y="10.8" style="stroke: #000000; stroke-width: 1.5"/>
      </g>
     </g>
     <g id="text_9">
      <!-- 25 -->
      <g transform="translate(274.82947 254.742125) scale(0.12 -0.12)">
       <use xlink:href="#DejaVuSans-32"/>
       <use xlink:href="#DejaVuSans-35" x="63.623047"/>
      </g>
     </g>
    </g>
    <g id="xtick_7">
     <g id="line2d_19">
      <g>
       <use xlink:href="#meebcf9bdcc" x="323.505959" y="242.124" style="stroke: #000000; stroke-width: 1.5"/>
      </g>
     </g>
     <g id="line2d_20">
      <g>
       <use xlink:href="#m3cd786ff3f" x="323.505959" y="10.8" style="stroke: #000000; stroke-width: 1.5"/>
      </g>
     </g>
     <g id="text_10">
      <!-- 30 -->
      <g transform="translate(315.870959 254.742125) scale(0.12 -0.12)">
       <defs>
        <path id="DejaVuSans-33" d="M 2597 2516 
Q 3050 2419 3304 2112 
Q 3559 1806 3559 1356 
Q 3559 666 3084 287 
Q 2609 -91 1734 -91 
Q 1441 -91 1130 -33 
Q 819 25 488 141 
L 488 750 
Q 750 597 1062 519 
Q 1375 441 1716 441 
Q 2309 441 2620 675 
Q 2931 909 2931 1356 
Q 2931 1769 2642 2001 
Q 2353 2234 1838 2234 
L 1294 2234 
L 1294 2753 
L 1863 2753 
Q 2328 2753 2575 2939 
Q 2822 3125 2822 3475 
Q 2822 3834 2567 4026 
Q 2313 4219 1838 4219 
Q 1578 4219 1281 4162 
Q 984 4106 628 3988 
L 628 4550 
Q 988 4650 1302 4700 
Q 1616 4750 1894 4750 
Q 2613 4750 3031 4423 
Q 3450 4097 3450 3541 
Q 3450 3153 3228 2886 
Q 3006 2619 2597 2516 
z
" transform="scale(0.015625)"/>
       </defs>
       <use xlink:href="#DejaVuSans-33"/>
       <use xlink:href="#DejaVuSans-30" x="63.623047"/>
      </g>
     </g>
    </g>
    <g id="xtick_8">
     <g id="line2d_21">
      <g>
       <use xlink:href="#meebcf9bdcc" x="364.547448" y="242.124" style="stroke: #000000; stroke-width: 1.5"/>
      </g>
     </g>
     <g id="line2d_22">
      <g>
       <use xlink:href="#m3cd786ff3f" x="364.547448" y="10.8" style="stroke: #000000; stroke-width: 1.5"/>
      </g>
     </g>
     <g id="text_11">
      <!-- 35 -->
      <g transform="translate(356.912448 254.742125) scale(0.12 -0.12)">
       <use xlink:href="#DejaVuSans-33"/>
       <use xlink:href="#DejaVuSans-35" x="63.623047"/>
      </g>
     </g>
    </g>
    <g id="xtick_9">
     <g id="line2d_23">
      <g>
       <use xlink:href="#meebcf9bdcc" x="405.588937" y="242.124" style="stroke: #000000; stroke-width: 1.5"/>
      </g>
     </g>
     <g id="line2d_24">
      <g>
       <use xlink:href="#m3cd786ff3f" x="405.588937" y="10.8" style="stroke: #000000; stroke-width: 1.5"/>
      </g>
     </g>
     <g id="text_12">
      <!-- 40 -->
      <g transform="translate(397.953937 254.742125) scale(0.12 -0.12)">
       <defs>
        <path id="DejaVuSans-34" d="M 2419 4116 
L 825 1625 
L 2419 1625 
L 2419 4116 
z
M 2253 4666 
L 3047 4666 
L 3047 1625 
L 3713 1625 
L 3713 1100 
L 3047 1100 
L 3047 0 
L 2419 0 
L 2419 1100 
L 313 1100 
L 313 1709 
L 2253 4666 
z
" transform="scale(0.015625)"/>
       </defs>
       <use xlink:href="#DejaVuSans-34"/>
       <use xlink:href="#DejaVuSans-30" x="63.623047"/>
      </g>
     </g>
    </g>
    <g id="xtick_10">
     <g id="line2d_25">
      <defs>
       <path id="mdb65ebc137" d="M 0 0 
L 0 -2 
" style="stroke: #000000; stroke-width: 1.5"/>
      </defs>
      <g>
       <use xlink:href="#mdb65ebc137" x="85.465321" y="242.124" style="stroke: #000000; stroke-width: 1.5"/>
      </g>
     </g>
     <g id="line2d_26">
      <defs>
       <path id="m03626c6059" d="M 0 0 
L 0 2 
" style="stroke: #000000; stroke-width: 1.5"/>
      </defs>
      <g>
       <use xlink:href="#m03626c6059" x="85.465321" y="10.8" style="stroke: #000000; stroke-width: 1.5"/>
      </g>
     </g>
    </g>
    <g id="xtick_11">
     <g id="line2d_27">
      <g>
       <use xlink:href="#mdb65ebc137" x="93.673619" y="242.124" style="stroke: #000000; stroke-width: 1.5"/>
      </g>
     </g>
     <g id="line2d_28">
      <g>
       <use xlink:href="#m03626c6059" x="93.673619" y="10.8" style="stroke: #000000; stroke-width: 1.5"/>
      </g>
     </g>
    </g>
    <g id="xtick_12">
     <g id="line2d_29">
      <g>
       <use xlink:href="#mdb65ebc137" x="101.881917" y="242.124" style="stroke: #000000; stroke-width: 1.5"/>
      </g>
     </g>
     <g id="line2d_30">
      <g>
       <use xlink:href="#m03626c6059" x="101.881917" y="10.8" style="stroke: #000000; stroke-width: 1.5"/>
      </g>
     </g>
    </g>
    <g id="xtick_13">
     <g id="line2d_31">
      <g>
       <use xlink:href="#mdb65ebc137" x="110.090215" y="242.124" style="stroke: #000000; stroke-width: 1.5"/>
      </g>
     </g>
     <g id="line2d_32">
      <g>
       <use xlink:href="#m03626c6059" x="110.090215" y="10.8" style="stroke: #000000; stroke-width: 1.5"/>
      </g>
     </g>
    </g>
    <g id="xtick_14">
     <g id="line2d_33">
      <g>
       <use xlink:href="#mdb65ebc137" x="126.506811" y="242.124" style="stroke: #000000; stroke-width: 1.5"/>
      </g>
     </g>
     <g id="line2d_34">
      <g>
       <use xlink:href="#m03626c6059" x="126.506811" y="10.8" style="stroke: #000000; stroke-width: 1.5"/>
      </g>
     </g>
    </g>
    <g id="xtick_15">
     <g id="line2d_35">
      <g>
       <use xlink:href="#mdb65ebc137" x="134.715108" y="242.124" style="stroke: #000000; stroke-width: 1.5"/>
      </g>
     </g>
     <g id="line2d_36">
      <g>
       <use xlink:href="#m03626c6059" x="134.715108" y="10.8" style="stroke: #000000; stroke-width: 1.5"/>
      </g>
     </g>
    </g>
    <g id="xtick_16">
     <g id="line2d_37">
      <g>
       <use xlink:href="#mdb65ebc137" x="142.923406" y="242.124" style="stroke: #000000; stroke-width: 1.5"/>
      </g>
     </g>
     <g id="line2d_38">
      <g>
       <use xlink:href="#m03626c6059" x="142.923406" y="10.8" style="stroke: #000000; stroke-width: 1.5"/>
      </g>
     </g>
    </g>
    <g id="xtick_17">
     <g id="line2d_39">
      <g>
       <use xlink:href="#mdb65ebc137" x="151.131704" y="242.124" style="stroke: #000000; stroke-width: 1.5"/>
      </g>
     </g>
     <g id="line2d_40">
      <g>
       <use xlink:href="#m03626c6059" x="151.131704" y="10.8" style="stroke: #000000; stroke-width: 1.5"/>
      </g>
     </g>
    </g>
    <g id="xtick_18">
     <g id="line2d_41">
      <g>
       <use xlink:href="#mdb65ebc137" x="167.5483" y="242.124" style="stroke: #000000; stroke-width: 1.5"/>
      </g>
     </g>
     <g id="line2d_42">
      <g>
       <use xlink:href="#m03626c6059" x="167.5483" y="10.8" style="stroke: #000000; stroke-width: 1.5"/>
      </g>
     </g>
    </g>
    <g id="xtick_19">
     <g id="line2d_43">
      <g>
       <use xlink:href="#mdb65ebc137" x="175.756598" y="242.124" style="stroke: #000000; stroke-width: 1.5"/>
      </g>
     </g>
     <g id="line2d_44">
      <g>
       <use xlink:href="#m03626c6059" x="175.756598" y="10.8" style="stroke: #000000; stroke-width: 1.5"/>
      </g>
     </g>
    </g>
    <g id="xtick_20">
     <g id="line2d_45">
      <g>
       <use xlink:href="#mdb65ebc137" x="183.964895" y="242.124" style="stroke: #000000; stroke-width: 1.5"/>
      </g>
     </g>
     <g id="line2d_46">
      <g>
       <use xlink:href="#m03626c6059" x="183.964895" y="10.8" style="stroke: #000000; stroke-width: 1.5"/>
      </g>
     </g>
    </g>
    <g id="xtick_21">
     <g id="line2d_47">
      <g>
       <use xlink:href="#mdb65ebc137" x="192.173193" y="242.124" style="stroke: #000000; stroke-width: 1.5"/>
      </g>
     </g>
     <g id="line2d_48">
      <g>
       <use xlink:href="#m03626c6059" x="192.173193" y="10.8" style="stroke: #000000; stroke-width: 1.5"/>
      </g>
     </g>
    </g>
    <g id="xtick_22">
     <g id="line2d_49">
      <g>
       <use xlink:href="#mdb65ebc137" x="208.589789" y="242.124" style="stroke: #000000; stroke-width: 1.5"/>
      </g>
     </g>
     <g id="line2d_50">
      <g>
       <use xlink:href="#m03626c6059" x="208.589789" y="10.8" style="stroke: #000000; stroke-width: 1.5"/>
      </g>
     </g>
    </g>
    <g id="xtick_23">
     <g id="line2d_51">
      <g>
       <use xlink:href="#mdb65ebc137" x="216.798087" y="242.124" style="stroke: #000000; stroke-width: 1.5"/>
      </g>
     </g>
     <g id="line2d_52">
      <g>
       <use xlink:href="#m03626c6059" x="216.798087" y="10.8" style="stroke: #000000; stroke-width: 1.5"/>
      </g>
     </g>
    </g>
    <g id="xtick_24">
     <g id="line2d_53">
      <g>
       <use xlink:href="#mdb65ebc137" x="225.006385" y="242.124" style="stroke: #000000; stroke-width: 1.5"/>
      </g>
     </g>
     <g id="line2d_54">
      <g>
       <use xlink:href="#m03626c6059" x="225.006385" y="10.8" style="stroke: #000000; stroke-width: 1.5"/>
      </g>
     </g>
    </g>
    <g id="xtick_25">
     <g id="line2d_55">
      <g>
       <use xlink:href="#mdb65ebc137" x="233.214683" y="242.124" style="stroke: #000000; stroke-width: 1.5"/>
      </g>
     </g>
     <g id="line2d_56">
      <g>
       <use xlink:href="#m03626c6059" x="233.214683" y="10.8" style="stroke: #000000; stroke-width: 1.5"/>
      </g>
     </g>
    </g>
    <g id="xtick_26">
     <g id="line2d_57">
      <g>
       <use xlink:href="#mdb65ebc137" x="249.631278" y="242.124" style="stroke: #000000; stroke-width: 1.5"/>
      </g>
     </g>
     <g id="line2d_58">
      <g>
       <use xlink:href="#m03626c6059" x="249.631278" y="10.8" style="stroke: #000000; stroke-width: 1.5"/>
      </g>
     </g>
    </g>
    <g id="xtick_27">
     <g id="line2d_59">
      <g>
       <use xlink:href="#mdb65ebc137" x="257.839576" y="242.124" style="stroke: #000000; stroke-width: 1.5"/>
      </g>
     </g>
     <g id="line2d_60">
      <g>
       <use xlink:href="#m03626c6059" x="257.839576" y="10.8" style="stroke: #000000; stroke-width: 1.5"/>
      </g>
     </g>
    </g>
    <g id="xtick_28">
     <g id="line2d_61">
      <g>
       <use xlink:href="#mdb65ebc137" x="266.047874" y="242.124" style="stroke: #000000; stroke-width: 1.5"/>
      </g>
     </g>
     <g id="line2d_62">
      <g>
       <use xlink:href="#m03626c6059" x="266.047874" y="10.8" style="stroke: #000000; stroke-width: 1.5"/>
      </g>
     </g>
    </g>
    <g id="xtick_29">
     <g id="line2d_63">
      <g>
       <use xlink:href="#mdb65ebc137" x="274.256172" y="242.124" style="stroke: #000000; stroke-width: 1.5"/>
      </g>
     </g>
     <g id="line2d_64">
      <g>
       <use xlink:href="#m03626c6059" x="274.256172" y="10.8" style="stroke: #000000; stroke-width: 1.5"/>
      </g>
     </g>
    </g>
    <g id="xtick_30">
     <g id="line2d_65">
      <g>
       <use xlink:href="#mdb65ebc137" x="290.672767" y="242.124" style="stroke: #000000; stroke-width: 1.5"/>
      </g>
     </g>
     <g id="line2d_66">
      <g>
       <use xlink:href="#m03626c6059" x="290.672767" y="10.8" style="stroke: #000000; stroke-width: 1.5"/>
      </g>
     </g>
    </g>
    <g id="xtick_31">
     <g id="line2d_67">
      <g>
       <use xlink:href="#mdb65ebc137" x="298.881065" y="242.124" style="stroke: #000000; stroke-width: 1.5"/>
      </g>
     </g>
     <g id="line2d_68">
      <g>
       <use xlink:href="#m03626c6059" x="298.881065" y="10.8" style="stroke: #000000; stroke-width: 1.5"/>
      </g>
     </g>
    </g>
    <g id="xtick_32">
     <g id="line2d_69">
      <g>
       <use xlink:href="#mdb65ebc137" x="307.089363" y="242.124" style="stroke: #000000; stroke-width: 1.5"/>
      </g>
     </g>
     <g id="line2d_70">
      <g>
       <use xlink:href="#m03626c6059" x="307.089363" y="10.8" style="stroke: #000000; stroke-width: 1.5"/>
      </g>
     </g>
    </g>
    <g id="xtick_33">
     <g id="line2d_71">
      <g>
       <use xlink:href="#mdb65ebc137" x="315.297661" y="242.124" style="stroke: #000000; stroke-width: 1.5"/>
      </g>
     </g>
     <g id="line2d_72">
      <g>
       <use xlink:href="#m03626c6059" x="315.297661" y="10.8" style="stroke: #000000; stroke-width: 1.5"/>
      </g>
     </g>
    </g>
    <g id="xtick_34">
     <g id="line2d_73">
      <g>
       <use xlink:href="#mdb65ebc137" x="331.714257" y="242.124" style="stroke: #000000; stroke-width: 1.5"/>
      </g>
     </g>
     <g id="line2d_74">
      <g>
       <use xlink:href="#m03626c6059" x="331.714257" y="10.8" style="stroke: #000000; stroke-width: 1.5"/>
      </g>
     </g>
    </g>
    <g id="xtick_35">
     <g id="line2d_75">
      <g>
       <use xlink:href="#mdb65ebc137" x="339.922554" y="242.124" style="stroke: #000000; stroke-width: 1.5"/>
      </g>
     </g>
     <g id="line2d_76">
      <g>
       <use xlink:href="#m03626c6059" x="339.922554" y="10.8" style="stroke: #000000; stroke-width: 1.5"/>
      </g>
     </g>
    </g>
    <g id="xtick_36">
     <g id="line2d_77">
      <g>
       <use xlink:href="#mdb65ebc137" x="348.130852" y="242.124" style="stroke: #000000; stroke-width: 1.5"/>
      </g>
     </g>
     <g id="line2d_78">
      <g>
       <use xlink:href="#m03626c6059" x="348.130852" y="10.8" style="stroke: #000000; stroke-width: 1.5"/>
      </g>
     </g>
    </g>
    <g id="xtick_37">
     <g id="line2d_79">
      <g>
       <use xlink:href="#mdb65ebc137" x="356.33915" y="242.124" style="stroke: #000000; stroke-width: 1.5"/>
      </g>
     </g>
     <g id="line2d_80">
      <g>
       <use xlink:href="#m03626c6059" x="356.33915" y="10.8" style="stroke: #000000; stroke-width: 1.5"/>
      </g>
     </g>
    </g>
    <g id="xtick_38">
     <g id="line2d_81">
      <g>
       <use xlink:href="#mdb65ebc137" x="372.755746" y="242.124" style="stroke: #000000; stroke-width: 1.5"/>
      </g>
     </g>
     <g id="line2d_82">
      <g>
       <use xlink:href="#m03626c6059" x="372.755746" y="10.8" style="stroke: #000000; stroke-width: 1.5"/>
      </g>
     </g>
    </g>
    <g id="xtick_39">
     <g id="line2d_83">
      <g>
       <use xlink:href="#mdb65ebc137" x="380.964044" y="242.124" style="stroke: #000000; stroke-width: 1.5"/>
      </g>
     </g>
     <g id="line2d_84">
      <g>
       <use xlink:href="#m03626c6059" x="380.964044" y="10.8" style="stroke: #000000; stroke-width: 1.5"/>
      </g>
     </g>
    </g>
    <g id="xtick_40">
     <g id="line2d_85">
      <g>
       <use xlink:href="#mdb65ebc137" x="389.172342" y="242.124" style="stroke: #000000; stroke-width: 1.5"/>
      </g>
     </g>
     <g id="line2d_86">
      <g>
       <use xlink:href="#m03626c6059" x="389.172342" y="10.8" style="stroke: #000000; stroke-width: 1.5"/>
      </g>
     </g>
    </g>
    <g id="xtick_41">
     <g id="line2d_87">
      <g>
       <use xlink:href="#mdb65ebc137" x="397.380639" y="242.124" style="stroke: #000000; stroke-width: 1.5"/>
      </g>
     </g>
     <g id="line2d_88">
      <g>
       <use xlink:href="#m03626c6059" x="397.380639" y="10.8" style="stroke: #000000; stroke-width: 1.5"/>
      </g>
     </g>
    </g>
    <g id="xtick_42">
     <g id="line2d_89">
      <g>
       <use xlink:href="#mdb65ebc137" x="413.797235" y="242.124" style="stroke: #000000; stroke-width: 1.5"/>
      </g>
     </g>
     <g id="line2d_90">
      <g>
       <use xlink:href="#m03626c6059" x="413.797235" y="10.8" style="stroke: #000000; stroke-width: 1.5"/>
      </g>
     </g>
    </g>
    <g id="text_13">
     <!-- Distance [R$_\odot$] -->
     <g transform="translate(204.253259 270.355875) scale(0.12 -0.12)">
      <defs>
       <path id="DejaVuSans-44" d="M 1259 4147 
L 1259 519 
L 2022 519 
Q 2988 519 3436 956 
Q 3884 1394 3884 2338 
Q 3884 3275 3436 3711 
Q 2988 4147 2022 4147 
L 1259 4147 
z
M 628 4666 
L 1925 4666 
Q 3281 4666 3915 4102 
Q 4550 3538 4550 2338 
Q 4550 1131 3912 565 
Q 3275 0 1925 0 
L 628 0 
L 628 4666 
z
" transform="scale(0.015625)"/>
       <path id="DejaVuSans-63" d="M 3122 3366 
L 3122 2828 
Q 2878 2963 2633 3030 
Q 2388 3097 2138 3097 
Q 1578 3097 1268 2742 
Q 959 2388 959 1747 
Q 959 1106 1268 751 
Q 1578 397 2138 397 
Q 2388 397 2633 464 
Q 2878 531 3122 666 
L 3122 134 
Q 2881 22 2623 -34 
Q 2366 -91 2075 -91 
Q 1284 -91 818 406 
Q 353 903 353 1747 
Q 353 2603 823 3093 
Q 1294 3584 2113 3584 
Q 2378 3584 2631 3529 
Q 2884 3475 3122 3366 
z
" transform="scale(0.015625)"/>
       <path id="DejaVuSans-65" d="M 3597 1894 
L 3597 1613 
L 953 1613 
Q 991 1019 1311 708 
Q 1631 397 2203 397 
Q 2534 397 2845 478 
Q 3156 559 3463 722 
L 3463 178 
Q 3153 47 2828 -22 
Q 2503 -91 2169 -91 
Q 1331 -91 842 396 
Q 353 884 353 1716 
Q 353 2575 817 3079 
Q 1281 3584 2069 3584 
Q 2775 3584 3186 3129 
Q 3597 2675 3597 1894 
z
M 3022 2063 
Q 3016 2534 2758 2815 
Q 2500 3097 2075 3097 
Q 1594 3097 1305 2825 
Q 1016 2553 972 2059 
L 3022 2063 
z
" transform="scale(0.015625)"/>
       <path id="DejaVuSans-5b" d="M 550 4863 
L 1875 4863 
L 1875 4416 
L 1125 4416 
L 1125 -397 
L 1875 -397 
L 1875 -844 
L 550 -844 
L 550 4863 
z
" transform="scale(0.015625)"/>
       <path id="DejaVuSans-52" d="M 2841 2188 
Q 3044 2119 3236 1894 
Q 3428 1669 3622 1275 
L 4263 0 
L 3584 0 
L 2988 1197 
Q 2756 1666 2539 1819 
Q 2322 1972 1947 1972 
L 1259 1972 
L 1259 0 
L 628 0 
L 628 4666 
L 2053 4666 
Q 2853 4666 3247 4331 
Q 3641 3997 3641 3322 
Q 3641 2881 3436 2590 
Q 3231 2300 2841 2188 
z
M 1259 4147 
L 1259 2491 
L 2053 2491 
Q 2509 2491 2742 2702 
Q 2975 2913 2975 3322 
Q 2975 3731 2742 3939 
Q 2509 4147 2053 4147 
L 1259 4147 
z
" transform="scale(0.015625)"/>
       <path id="DejaVuSans-2299" d="M 2350 2403 
L 3013 2403 
L 3013 1609 
L 2350 1609 
L 2350 2403 
z
M 3306 3522 
Q 3016 3644 2681 3644 
Q 2347 3644 2056 3522 
Q 1769 3400 1531 3163 
Q 1291 2922 1172 2634 
Q 1053 2347 1053 2006 
Q 1053 1675 1172 1387 
Q 1291 1100 1531 859 
Q 1769 622 2056 500 
Q 2347 378 2681 378 
Q 3016 378 3306 500 
Q 3594 622 3831 859 
Q 4072 1100 4190 1387 
Q 4309 1675 4309 2006 
Q 4309 2347 4190 2634 
Q 4072 2922 3831 3163 
Q 3594 3400 3306 3522 
z
M 1878 3956 
Q 2250 4113 2681 4113 
Q 3113 4113 3484 3956 
Q 3856 3800 4163 3494 
Q 4472 3184 4625 2813 
Q 4778 2444 4778 2006 
Q 4778 1578 4625 1206 
Q 4472 838 4163 528 
Q 3856 222 3484 65 
Q 3113 -91 2681 -91 
Q 2250 -91 1878 65 
Q 1506 222 1200 528 
Q 891 838 738 1206 
Q 584 1578 584 2006 
Q 584 2444 738 2813 
Q 891 3184 1200 3494 
Q 1506 3800 1878 3956 
z
" transform="scale(0.015625)"/>
       <path id="DejaVuSans-5d" d="M 1947 4863 
L 1947 -844 
L 622 -844 
L 622 -397 
L 1369 -397 
L 1369 4416 
L 622 4416 
L 622 4863 
L 1947 4863 
z
" transform="scale(0.015625)"/>
      </defs>
      <use xlink:href="#DejaVuSans-44" transform="translate(0 0.015625)"/>
      <use xlink:href="#DejaVuSans-69" transform="translate(77.001953 0.015625)"/>
      <use xlink:href="#DejaVuSans-73" transform="translate(104.785156 0.015625)"/>
      <use xlink:href="#DejaVuSans-74" transform="translate(156.884766 0.015625)"/>
      <use xlink:href="#DejaVuSans-61" transform="translate(196.09375 0.015625)"/>
      <use xlink:href="#DejaVuSans-6e" transform="translate(257.373047 0.015625)"/>
      <use xlink:href="#DejaVuSans-63" transform="translate(320.751953 0.015625)"/>
      <use xlink:href="#DejaVuSans-65" transform="translate(375.732422 0.015625)"/>
      <use xlink:href="#DejaVuSans-20" transform="translate(437.255859 0.015625)"/>
      <use xlink:href="#DejaVuSans-5b" transform="translate(469.042969 0.015625)"/>
      <use xlink:href="#DejaVuSans-52" transform="translate(504.931641 0.015625)"/>
      <use xlink:href="#DejaVuSans-2299" transform="translate(589.008789 -16.390625) scale(0.7)"/>
      <use xlink:href="#DejaVuSans-5d" transform="translate(664.033203 0.015625)"/>
     </g>
    </g>
   </g>
   <g id="matplotlib.axis_2">
    <g id="ytick_1">
     <g id="line2d_91">
      <defs>
       <path id="m9197a476a2" d="M 0 0 
L 3.5 0 
" style="stroke: #000000; stroke-width: 1.5"/>
      </defs>
      <g>
       <use xlink:href="#m9197a476a2" x="71.786518" y="222.768375" style="stroke: #000000; stroke-width: 1.5"/>
      </g>
     </g>
     <g id="line2d_92">
      <defs>
       <path id="mecade89e8b" d="M 0 0 
L -3.5 0 
" style="stroke: #000000; stroke-width: 1.5"/>
      </defs>
      <g>
       <use xlink:href="#mecade89e8b" x="421.2" y="222.768375" style="stroke: #000000; stroke-width: 1.5"/>
      </g>
     </g>
     <g id="text_14">
      <!-- $\mathdefault{10^{-16}}$ -->
      <g transform="translate(34.806518 227.327438) scale(0.12 -0.12)">
       <defs>
        <path id="DejaVuSans-2212" d="M 678 2272 
L 4684 2272 
L 4684 1741 
L 678 1741 
L 678 2272 
z
" transform="scale(0.015625)"/>
        <path id="DejaVuSans-36" d="M 2113 2584 
Q 1688 2584 1439 2293 
Q 1191 2003 1191 1497 
Q 1191 994 1439 701 
Q 1688 409 2113 409 
Q 2538 409 2786 701 
Q 3034 994 3034 1497 
Q 3034 2003 2786 2293 
Q 2538 2584 2113 2584 
z
M 3366 4563 
L 3366 3988 
Q 3128 4100 2886 4159 
Q 2644 4219 2406 4219 
Q 1781 4219 1451 3797 
Q 1122 3375 1075 2522 
Q 1259 2794 1537 2939 
Q 1816 3084 2150 3084 
Q 2853 3084 3261 2657 
Q 3669 2231 3669 1497 
Q 3669 778 3244 343 
Q 2819 -91 2113 -91 
Q 1303 -91 875 529 
Q 447 1150 447 2328 
Q 447 3434 972 4092 
Q 1497 4750 2381 4750 
Q 2619 4750 2861 4703 
Q 3103 4656 3366 4563 
z
" transform="scale(0.015625)"/>
       </defs>
       <use xlink:href="#DejaVuSans-31" transform="translate(0 0.765625)"/>
       <use xlink:href="#DejaVuSans-30" transform="translate(63.623047 0.765625)"/>
       <use xlink:href="#DejaVuSans-2212" transform="translate(128.203125 39.046875) scale(0.7)"/>
       <use xlink:href="#DejaVuSans-31" transform="translate(186.855469 39.046875) scale(0.7)"/>
       <use xlink:href="#DejaVuSans-36" transform="translate(231.391602 39.046875) scale(0.7)"/>
      </g>
     </g>
    </g>
    <g id="ytick_2">
     <g id="line2d_93">
      <g>
       <use xlink:href="#m9197a476a2" x="71.786518" y="154.916486" style="stroke: #000000; stroke-width: 1.5"/>
      </g>
     </g>
     <g id="line2d_94">
      <g>
       <use xlink:href="#mecade89e8b" x="421.2" y="154.916486" style="stroke: #000000; stroke-width: 1.5"/>
      </g>
     </g>
     <g id="text_15">
      <!-- $\mathdefault{10^{-15}}$ -->
      <g transform="translate(34.806518 159.475548) scale(0.12 -0.12)">
       <use xlink:href="#DejaVuSans-31" transform="translate(0 0.684375)"/>
       <use xlink:href="#DejaVuSans-30" transform="translate(63.623047 0.684375)"/>
       <use xlink:href="#DejaVuSans-2212" transform="translate(128.203125 38.965625) scale(0.7)"/>
       <use xlink:href="#DejaVuSans-31" transform="translate(186.855469 38.965625) scale(0.7)"/>
       <use xlink:href="#DejaVuSans-35" transform="translate(231.391602 38.965625) scale(0.7)"/>
      </g>
     </g>
    </g>
    <g id="ytick_3">
     <g id="line2d_95">
      <g>
       <use xlink:href="#m9197a476a2" x="71.786518" y="87.064596" style="stroke: #000000; stroke-width: 1.5"/>
      </g>
     </g>
     <g id="line2d_96">
      <g>
       <use xlink:href="#mecade89e8b" x="421.2" y="87.064596" style="stroke: #000000; stroke-width: 1.5"/>
      </g>
     </g>
     <g id="text_16">
      <!-- $\mathdefault{10^{-14}}$ -->
      <g transform="translate(34.806518 91.623659) scale(0.12 -0.12)">
       <use xlink:href="#DejaVuSans-31" transform="translate(0 0.684375)"/>
       <use xlink:href="#DejaVuSans-30" transform="translate(63.623047 0.684375)"/>
       <use xlink:href="#DejaVuSans-2212" transform="translate(128.203125 38.965625) scale(0.7)"/>
       <use xlink:href="#DejaVuSans-31" transform="translate(186.855469 38.965625) scale(0.7)"/>
       <use xlink:href="#DejaVuSans-34" transform="translate(231.391602 38.965625) scale(0.7)"/>
      </g>
     </g>
    </g>
    <g id="ytick_4">
     <g id="line2d_97">
      <g>
       <use xlink:href="#m9197a476a2" x="71.786518" y="19.212707" style="stroke: #000000; stroke-width: 1.5"/>
      </g>
     </g>
     <g id="line2d_98">
      <g>
       <use xlink:href="#mecade89e8b" x="421.2" y="19.212707" style="stroke: #000000; stroke-width: 1.5"/>
      </g>
     </g>
     <g id="text_17">
      <!-- $\mathdefault{10^{-13}}$ -->
      <g transform="translate(34.806518 23.771769) scale(0.12 -0.12)">
       <use xlink:href="#DejaVuSans-31" transform="translate(0 0.765625)"/>
       <use xlink:href="#DejaVuSans-30" transform="translate(63.623047 0.765625)"/>
       <use xlink:href="#DejaVuSans-2212" transform="translate(128.203125 39.046875) scale(0.7)"/>
       <use xlink:href="#DejaVuSans-31" transform="translate(186.855469 39.046875) scale(0.7)"/>
       <use xlink:href="#DejaVuSans-33" transform="translate(231.391602 39.046875) scale(0.7)"/>
      </g>
     </g>
    </g>
    <g id="ytick_5">
     <g id="line2d_99">
      <defs>
       <path id="me40aa13820" d="M 0 0 
L 2 0 
" style="stroke: #000000; stroke-width: 1.5"/>
      </defs>
      <g>
       <use xlink:href="#me40aa13820" x="71.786518" y="237.821232" style="stroke: #000000; stroke-width: 1.5"/>
      </g>
     </g>
     <g id="line2d_100">
      <defs>
       <path id="md7024c115e" d="M 0 0 
L -2 0 
" style="stroke: #000000; stroke-width: 1.5"/>
      </defs>
      <g>
       <use xlink:href="#md7024c115e" x="421.2" y="237.821232" style="stroke: #000000; stroke-width: 1.5"/>
      </g>
     </g>
    </g>
    <g id="ytick_6">
     <g id="line2d_101">
      <g>
       <use xlink:href="#me40aa13820" x="71.786518" y="233.278766" style="stroke: #000000; stroke-width: 1.5"/>
      </g>
     </g>
     <g id="line2d_102">
      <g>
       <use xlink:href="#md7024c115e" x="421.2" y="233.278766" style="stroke: #000000; stroke-width: 1.5"/>
      </g>
     </g>
    </g>
    <g id="ytick_7">
     <g id="line2d_103">
      <g>
       <use xlink:href="#me40aa13820" x="71.786518" y="229.343903" style="stroke: #000000; stroke-width: 1.5"/>
      </g>
     </g>
     <g id="line2d_104">
      <g>
       <use xlink:href="#md7024c115e" x="421.2" y="229.343903" style="stroke: #000000; stroke-width: 1.5"/>
      </g>
     </g>
    </g>
    <g id="ytick_8">
     <g id="line2d_105">
      <g>
       <use xlink:href="#me40aa13820" x="71.786518" y="225.873107" style="stroke: #000000; stroke-width: 1.5"/>
      </g>
     </g>
     <g id="line2d_106">
      <g>
       <use xlink:href="#md7024c115e" x="421.2" y="225.873107" style="stroke: #000000; stroke-width: 1.5"/>
      </g>
     </g>
    </g>
    <g id="ytick_9">
     <g id="line2d_107">
      <g>
       <use xlink:href="#me40aa13820" x="71.786518" y="202.342921" style="stroke: #000000; stroke-width: 1.5"/>
      </g>
     </g>
     <g id="line2d_108">
      <g>
       <use xlink:href="#md7024c115e" x="421.2" y="202.342921" style="stroke: #000000; stroke-width: 1.5"/>
      </g>
     </g>
    </g>
    <g id="ytick_10">
     <g id="line2d_109">
      <g>
       <use xlink:href="#me40aa13820" x="71.786518" y="190.394796" style="stroke: #000000; stroke-width: 1.5"/>
      </g>
     </g>
     <g id="line2d_110">
      <g>
       <use xlink:href="#md7024c115e" x="421.2" y="190.394796" style="stroke: #000000; stroke-width: 1.5"/>
      </g>
     </g>
    </g>
    <g id="ytick_11">
     <g id="line2d_111">
      <g>
       <use xlink:href="#me40aa13820" x="71.786518" y="181.917467" style="stroke: #000000; stroke-width: 1.5"/>
      </g>
     </g>
     <g id="line2d_112">
      <g>
       <use xlink:href="#md7024c115e" x="421.2" y="181.917467" style="stroke: #000000; stroke-width: 1.5"/>
      </g>
     </g>
    </g>
    <g id="ytick_12">
     <g id="line2d_113">
      <g>
       <use xlink:href="#me40aa13820" x="71.786518" y="175.34194" style="stroke: #000000; stroke-width: 1.5"/>
      </g>
     </g>
     <g id="line2d_114">
      <g>
       <use xlink:href="#md7024c115e" x="421.2" y="175.34194" style="stroke: #000000; stroke-width: 1.5"/>
      </g>
     </g>
    </g>
    <g id="ytick_13">
     <g id="line2d_115">
      <g>
       <use xlink:href="#me40aa13820" x="71.786518" y="169.969342" style="stroke: #000000; stroke-width: 1.5"/>
      </g>
     </g>
     <g id="line2d_116">
      <g>
       <use xlink:href="#md7024c115e" x="421.2" y="169.969342" style="stroke: #000000; stroke-width: 1.5"/>
      </g>
     </g>
    </g>
    <g id="ytick_14">
     <g id="line2d_117">
      <g>
       <use xlink:href="#me40aa13820" x="71.786518" y="165.426876" style="stroke: #000000; stroke-width: 1.5"/>
      </g>
     </g>
     <g id="line2d_118">
      <g>
       <use xlink:href="#md7024c115e" x="421.2" y="165.426876" style="stroke: #000000; stroke-width: 1.5"/>
      </g>
     </g>
    </g>
    <g id="ytick_15">
     <g id="line2d_119">
      <g>
       <use xlink:href="#me40aa13820" x="71.786518" y="161.492013" style="stroke: #000000; stroke-width: 1.5"/>
      </g>
     </g>
     <g id="line2d_120">
      <g>
       <use xlink:href="#md7024c115e" x="421.2" y="161.492013" style="stroke: #000000; stroke-width: 1.5"/>
      </g>
     </g>
    </g>
    <g id="ytick_16">
     <g id="line2d_121">
      <g>
       <use xlink:href="#me40aa13820" x="71.786518" y="158.021218" style="stroke: #000000; stroke-width: 1.5"/>
      </g>
     </g>
     <g id="line2d_122">
      <g>
       <use xlink:href="#md7024c115e" x="421.2" y="158.021218" style="stroke: #000000; stroke-width: 1.5"/>
      </g>
     </g>
    </g>
    <g id="ytick_17">
     <g id="line2d_123">
      <g>
       <use xlink:href="#me40aa13820" x="71.786518" y="134.491032" style="stroke: #000000; stroke-width: 1.5"/>
      </g>
     </g>
     <g id="line2d_124">
      <g>
       <use xlink:href="#md7024c115e" x="421.2" y="134.491032" style="stroke: #000000; stroke-width: 1.5"/>
      </g>
     </g>
    </g>
    <g id="ytick_18">
     <g id="line2d_125">
      <g>
       <use xlink:href="#me40aa13820" x="71.786518" y="122.542907" style="stroke: #000000; stroke-width: 1.5"/>
      </g>
     </g>
     <g id="line2d_126">
      <g>
       <use xlink:href="#md7024c115e" x="421.2" y="122.542907" style="stroke: #000000; stroke-width: 1.5"/>
      </g>
     </g>
    </g>
    <g id="ytick_19">
     <g id="line2d_127">
      <g>
       <use xlink:href="#me40aa13820" x="71.786518" y="114.065578" style="stroke: #000000; stroke-width: 1.5"/>
      </g>
     </g>
     <g id="line2d_128">
      <g>
       <use xlink:href="#md7024c115e" x="421.2" y="114.065578" style="stroke: #000000; stroke-width: 1.5"/>
      </g>
     </g>
    </g>
    <g id="ytick_20">
     <g id="line2d_129">
      <g>
       <use xlink:href="#me40aa13820" x="71.786518" y="107.49005" style="stroke: #000000; stroke-width: 1.5"/>
      </g>
     </g>
     <g id="line2d_130">
      <g>
       <use xlink:href="#md7024c115e" x="421.2" y="107.49005" style="stroke: #000000; stroke-width: 1.5"/>
      </g>
     </g>
    </g>
    <g id="ytick_21">
     <g id="line2d_131">
      <g>
       <use xlink:href="#me40aa13820" x="71.786518" y="102.117453" style="stroke: #000000; stroke-width: 1.5"/>
      </g>
     </g>
     <g id="line2d_132">
      <g>
       <use xlink:href="#md7024c115e" x="421.2" y="102.117453" style="stroke: #000000; stroke-width: 1.5"/>
      </g>
     </g>
    </g>
    <g id="ytick_22">
     <g id="line2d_133">
      <g>
       <use xlink:href="#me40aa13820" x="71.786518" y="97.574987" style="stroke: #000000; stroke-width: 1.5"/>
      </g>
     </g>
     <g id="line2d_134">
      <g>
       <use xlink:href="#md7024c115e" x="421.2" y="97.574987" style="stroke: #000000; stroke-width: 1.5"/>
      </g>
     </g>
    </g>
    <g id="ytick_23">
     <g id="line2d_135">
      <g>
       <use xlink:href="#me40aa13820" x="71.786518" y="93.640124" style="stroke: #000000; stroke-width: 1.5"/>
      </g>
     </g>
     <g id="line2d_136">
      <g>
       <use xlink:href="#md7024c115e" x="421.2" y="93.640124" style="stroke: #000000; stroke-width: 1.5"/>
      </g>
     </g>
    </g>
    <g id="ytick_24">
     <g id="line2d_137">
      <g>
       <use xlink:href="#me40aa13820" x="71.786518" y="90.169328" style="stroke: #000000; stroke-width: 1.5"/>
      </g>
     </g>
     <g id="line2d_138">
      <g>
       <use xlink:href="#md7024c115e" x="421.2" y="90.169328" style="stroke: #000000; stroke-width: 1.5"/>
      </g>
     </g>
    </g>
    <g id="ytick_25">
     <g id="line2d_139">
      <g>
       <use xlink:href="#me40aa13820" x="71.786518" y="66.639142" style="stroke: #000000; stroke-width: 1.5"/>
      </g>
     </g>
     <g id="line2d_140">
      <g>
       <use xlink:href="#md7024c115e" x="421.2" y="66.639142" style="stroke: #000000; stroke-width: 1.5"/>
      </g>
     </g>
    </g>
    <g id="ytick_26">
     <g id="line2d_141">
      <g>
       <use xlink:href="#me40aa13820" x="71.786518" y="54.691018" style="stroke: #000000; stroke-width: 1.5"/>
      </g>
     </g>
     <g id="line2d_142">
      <g>
       <use xlink:href="#md7024c115e" x="421.2" y="54.691018" style="stroke: #000000; stroke-width: 1.5"/>
      </g>
     </g>
    </g>
    <g id="ytick_27">
     <g id="line2d_143">
      <g>
       <use xlink:href="#me40aa13820" x="71.786518" y="46.213688" style="stroke: #000000; stroke-width: 1.5"/>
      </g>
     </g>
     <g id="line2d_144">
      <g>
       <use xlink:href="#md7024c115e" x="421.2" y="46.213688" style="stroke: #000000; stroke-width: 1.5"/>
      </g>
     </g>
    </g>
    <g id="ytick_28">
     <g id="line2d_145">
      <g>
       <use xlink:href="#me40aa13820" x="71.786518" y="39.638161" style="stroke: #000000; stroke-width: 1.5"/>
      </g>
     </g>
     <g id="line2d_146">
      <g>
       <use xlink:href="#md7024c115e" x="421.2" y="39.638161" style="stroke: #000000; stroke-width: 1.5"/>
      </g>
     </g>
    </g>
    <g id="ytick_29">
     <g id="line2d_147">
      <g>
       <use xlink:href="#me40aa13820" x="71.786518" y="34.265564" style="stroke: #000000; stroke-width: 1.5"/>
      </g>
     </g>
     <g id="line2d_148">
      <g>
       <use xlink:href="#md7024c115e" x="421.2" y="34.265564" style="stroke: #000000; stroke-width: 1.5"/>
      </g>
     </g>
    </g>
    <g id="ytick_30">
     <g id="line2d_149">
      <g>
       <use xlink:href="#me40aa13820" x="71.786518" y="29.723097" style="stroke: #000000; stroke-width: 1.5"/>
      </g>
     </g>
     <g id="line2d_150">
      <g>
       <use xlink:href="#md7024c115e" x="421.2" y="29.723097" style="stroke: #000000; stroke-width: 1.5"/>
      </g>
     </g>
    </g>
    <g id="ytick_31">
     <g id="line2d_151">
      <g>
       <use xlink:href="#me40aa13820" x="71.786518" y="25.788234" style="stroke: #000000; stroke-width: 1.5"/>
      </g>
     </g>
     <g id="line2d_152">
      <g>
       <use xlink:href="#md7024c115e" x="421.2" y="25.788234" style="stroke: #000000; stroke-width: 1.5"/>
      </g>
     </g>
    </g>
    <g id="ytick_32">
     <g id="line2d_153">
      <g>
       <use xlink:href="#me40aa13820" x="71.786518" y="22.317439" style="stroke: #000000; stroke-width: 1.5"/>
      </g>
     </g>
     <g id="line2d_154">
      <g>
       <use xlink:href="#md7024c115e" x="421.2" y="22.317439" style="stroke: #000000; stroke-width: 1.5"/>
      </g>
     </g>
    </g>
    <g id="text_18">
     <!-- $\dot{M}$ [M$_\odot$ yr$^{-1}$] -->
     <g transform="translate(28.286518 163.122) rotate(-90) scale(0.12 -0.12)">
      <defs>
       <path id="DejaVuSans-307" d="M -1894 4863 
L -1319 4863 
L -1319 4134 
L -1894 4134 
L -1894 4863 
z
M -1600 3584 
L -1600 3584 
z
" transform="scale(0.015625)"/>
       <path id="DejaVuSans-Oblique-4d" d="M 1081 4666 
L 2028 4666 
L 2572 1522 
L 4378 4666 
L 5350 4666 
L 4441 0 
L 3828 0 
L 4622 4091 
L 2791 897 
L 2175 897 
L 1581 4103 
L 788 0 
L 172 0 
L 1081 4666 
z
" transform="scale(0.015625)"/>
       <path id="DejaVuSans-4d" d="M 628 4666 
L 1569 4666 
L 2759 1491 
L 3956 4666 
L 4897 4666 
L 4897 0 
L 4281 0 
L 4281 4097 
L 3078 897 
L 2444 897 
L 1241 4097 
L 1241 0 
L 628 0 
L 628 4666 
z
" transform="scale(0.015625)"/>
       <path id="DejaVuSans-79" d="M 2059 -325 
Q 1816 -950 1584 -1140 
Q 1353 -1331 966 -1331 
L 506 -1331 
L 506 -850 
L 844 -850 
Q 1081 -850 1212 -737 
Q 1344 -625 1503 -206 
L 1606 56 
L 191 3500 
L 800 3500 
L 1894 763 
L 2988 3500 
L 3597 3500 
L 2059 -325 
z
" transform="scale(0.015625)"/>
       <path id="DejaVuSans-72" d="M 2631 2963 
Q 2534 3019 2420 3045 
Q 2306 3072 2169 3072 
Q 1681 3072 1420 2755 
Q 1159 2438 1159 1844 
L 1159 0 
L 581 0 
L 581 3500 
L 1159 3500 
L 1159 2956 
Q 1341 3275 1631 3429 
Q 1922 3584 2338 3584 
Q 2397 3584 2469 3576 
Q 2541 3569 2628 3553 
L 2631 2963 
z
" transform="scale(0.015625)"/>
      </defs>
      <use xlink:href="#DejaVuSans-307" transform="translate(79.163574 30.015625)"/>
      <use xlink:href="#DejaVuSans-Oblique-4d" transform="translate(0 0.609375)"/>
      <use xlink:href="#DejaVuSans-20" transform="translate(86.279297 0.609375)"/>
      <use xlink:href="#DejaVuSans-5b" transform="translate(118.066406 0.609375)"/>
      <use xlink:href="#DejaVuSans-4d" transform="translate(157.080078 0.609375)"/>
      <use xlink:href="#DejaVuSans-2299" transform="translate(257.954102 -15.796875) scale(0.7)"/>
      <use xlink:href="#DejaVuSans-20" transform="translate(332.978516 0.609375)"/>
      <use xlink:href="#DejaVuSans-79" transform="translate(364.765625 0.609375)"/>
      <use xlink:href="#DejaVuSans-72" transform="translate(423.945312 0.609375)"/>
      <use xlink:href="#DejaVuSans-2212" transform="translate(466.015625 38.890625) scale(0.7)"/>
      <use xlink:href="#DejaVuSans-31" transform="translate(524.667969 38.890625) scale(0.7)"/>
      <use xlink:href="#DejaVuSans-5d" transform="translate(571.938477 0.609375)"/>
     </g>
    </g>
   </g>
  </g>
 </g>
 <defs>
  <clipPath id="ped713f2d2a">
   <rect x="71.786518" y="10.8" width="349.413482" height="231.324"/>
  </clipPath>
 </defs>
</svg>
