<?xml version="1.0" encoding="utf-8" standalone="no"?>
<!DOCTYPE svg PUBLIC "-//W3C//DTD SVG 1.1//EN"
  "http://www.w3.org/Graphics/SVG/1.1/DTD/svg11.dtd">
<svg xmlns:xlink="http://www.w3.org/1999/xlink" width="432pt" height="288pt" viewBox="0 0 432 288" xmlns="http://www.w3.org/2000/svg" version="1.1">
 <metadata>
  <rdf:RDF xmlns:dc="http://purl.org/dc/elements/1.1/" xmlns:cc="http://creativecommons.org/ns#" xmlns:rdf="http://www.w3.org/1999/02/22-rdf-syntax-ns#">
   <cc:Work>
    <dc:type rdf:resource="http://purl.org/dc/dcmitype/StillImage"/>
    <dc:date>2022-12-06T13:11:30.178095</dc:date>
    <dc:format>image/svg+xml</dc:format>
    <dc:creator>
     <cc:Agent>
      <dc:title>Matplotlib v3.6.1, https://matplotlib.org/</dc:title>
     </cc:Agent>
    </dc:creator>
   </cc:Work>
  </rdf:RDF>
 </metadata>
 <defs>
  <style type="text/css">*{stroke-linejoin: round; stroke-linecap: butt}</style>
 </defs>
 <g id="figure_1">
  <g id="patch_1">
   <path d="M 0 288 
L 432 288 
L 432 0 
L 0 0 
z
" style="fill: #ffffff"/>
  </g>
  <g id="axes_1">
   <g id="patch_2">
    <path d="M 71.786518 242.124 
L 421.2 242.124 
L 421.2 10.8 
L 71.786518 10.8 
z
" style="fill: #ffffff"/>
   </g>
   <g id="patch_3">
    <path d="M 71.786518 242.124 
L 71.786518 10.8 
" style="fill: none; stroke: #000000; stroke-width: 1.5; stroke-linejoin: miter; stroke-linecap: square"/>
   </g>
   <g id="patch_4">
    <path d="M 421.2 242.124 
L 421.2 10.8 
" style="fill: none; stroke: #000000; stroke-width: 1.5; stroke-linejoin: miter; stroke-linecap: square"/>
   </g>
   <g id="patch_5">
    <path d="M 71.786518 242.124 
L 421.2 242.124 
" style="fill: none; stroke: #000000; stroke-width: 1.5; stroke-linejoin: miter; stroke-linecap: square"/>
   </g>
   <g id="patch_6">
    <path d="M 71.786518 10.8 
L 421.2 10.8 
" style="fill: none; stroke: #000000; stroke-width: 1.5; stroke-linejoin: miter; stroke-linecap: square"/>
   </g>
   <g id="PolyCollection_1">
    <path d="M 208.455704 44.937267 
L 208.455704 81.815314 
L 208.935707 80.490747 
L 209.794829 91.316289 
L 210.633964 62.139696 
L 211.468371 67.380316 
L 212.278404 66.249916 
L 213.091922 67.221068 
L 213.900766 64.317164 
L 214.766467 66.161534 
L 215.554473 65.615658 
L 216.37682 67.872871 
L 217.238545 73.132967 
L 218.023019 72.777778 
L 218.832071 74.815035 
L 219.700699 75.798624 
L 220.480028 75.033173 
L 221.295517 74.833333 
L 222.120294 80.853971 
L 222.934358 83.763649 
L 223.79355 91.947932 
L 224.602159 84.00387 
L 225.401121 83.42588 
L 226.280774 80.233801 
L 227.029385 78.611659 
L 227.880931 81.740863 
L 228.702934 85.065747 
L 229.530351 80.646626 
L 230.342408 89.033991 
L 231.146732 91.520587 
L 232.004541 152.223596 
L 232.792524 92.077786 
L 233.636741 54395.657863 
L 234.419518 76.457796 
L 235.272717 73.394987 
L 236.099557 89.313012 
L 236.876727 85.33597 
L 237.727671 68.859332 
L 238.543417 57.653699 
L 239.422192 97.560445 
L 240.198011 54395.657863 
L 240.990868 54395.657863 
L 241.826841 63.784687 
L 242.681308 94.394663 
L 243.449211 126.463077 
L 244.414105 78.044738 
L 245.045758 83.599218 
L 245.93034 91.273793 
L 246.758317 120.514159 
L 247.57484 54395.657863 
L 248.425314 186.535441 
L 249.214196 54395.657863 
L 250.041367 54395.657863 
L 250.843063 109.331604 
L 251.634828 92.934315 
L 252.478696 101.447502 
L 253.299958 95.786397 
L 254.132663 83.784673 
L 254.968954 79.200294 
L 255.760598 79.371954 
L 256.608085 80.006738 
L 257.427484 75.540553 
L 258.268123 78.158442 
L 259.032406 86.318138 
L 259.949085 75.386879 
L 260.694027 93.807381 
L 261.533829 73.162598 
L 262.351747 77.928935 
L 263.156463 73.095436 
L 263.991686 64.653075 
L 264.829366 70.156976 
L 265.658049 72.075392 
L 266.452261 73.95518 
L 267.34323 79.845577 
L 268.107494 88.201186 
L 268.939759 80.299916 
L 269.662404 80.708901 
L 270.568699 78.468596 
L 271.387323 74.645314 
L 272.215492 77.867942 
L 273.027657 67.304447 
L 273.777251 75.636647 
L 274.678202 78.096366 
L 275.486268 79.206608 
L 276.331575 72.705832 
L 277.153703 77.046906 
L 277.965147 83.341111 
L 278.800167 75.867032 
L 279.59013 69.568309 
L 280.359812 71.036862 
L 281.319418 66.34461 
L 282.084025 75.007942 
L 282.86469 69.427372 
L 283.69035 72.816851 
L 284.508938 66.787114 
L 285.340297 69.35609 
L 286.223912 106.624578 
L 286.984478 114.214486 
L 287.838219 95.487496 
L 288.591741 101.471961 
L 289.445587 102.474079 
L 290.220135 105.256372 
L 291.08054 54395.657863 
L 291.927511 54395.657863 
L 292.750931 109.539982 
L 293.555071 111.192946 
L 294.334864 113.671917 
L 295.192051 118.148318 
L 295.994686 140.447965 
L 296.86905 54395.657863 
L 297.628312 54395.657863 
L 298.497883 54395.657863 
L 299.325101 54395.657863 
L 300.10801 139.577957 
L 300.939368 54395.657863 
L 301.75876 54395.657863 
L 302.560924 54395.657863 
L 303.391286 54395.657863 
L 304.226424 54395.657863 
L 305.064191 54395.657863 
L 305.894586 54395.657863 
L 306.658104 54395.657863 
L 307.468148 137.787079 
L 308.292916 159.610488 
L 309.117615 134.457659 
L 309.942047 54395.657863 
L 310.743092 54395.657863 
L 311.710327 54395.657863 
L 312.411974 54395.657863 
L 313.255154 54395.657863 
L 314.064583 54395.657863 
L 314.893015 54395.657863 
L 315.712522 54395.657863 
L 316.524266 54395.657863 
L 317.336266 54395.657863 
L 318.172199 54395.657863 
L 318.943037 54395.657863 
L 319.796568 54395.657863 
L 320.626199 54395.657863 
L 321.425272 54395.657863 
L 322.294254 54395.657863 
L 323.098226 54395.657863 
L 323.868843 54395.657863 
L 324.754359 54395.657863 
L 325.556324 54395.657863 
L 326.323322 54395.657863 
L 327.253526 54395.657863 
L 328.015302 54395.657863 
L 328.820742 54395.657863 
L 329.583972 54395.657863 
L 330.564541 54395.657863 
L 331.308258 54395.657863 
L 332.117046 54395.657863 
L 332.952662 54395.657863 
L 333.777088 54395.657863 
L 334.579155 193.822046 
L 335.39681 54395.657863 
L 336.238295 128.817693 
L 337.061062 125.971627 
L 337.858686 126.210095 
L 338.68983 131.218487 
L 339.520759 107.143923 
L 340.339121 100.019287 
L 341.143183 107.693785 
L 341.967031 153.653106 
L 342.789524 54395.657863 
L 343.632053 54395.657863 
L 344.435581 54395.657863 
L 345.237094 54395.657863 
L 346.099857 54395.657863 
L 346.870697 179.622552 
L 347.71445 104.997823 
L 348.526545 108.308112 
L 349.34946 110.503287 
L 350.139988 129.406165 
L 351.023444 54395.657863 
L 351.810855 147.896034 
L 352.693807 102.904152 
L 353.487615 101.271175 
L 354.255862 131.345925 
L 355.121407 126.400757 
L 355.907997 109.77703 
L 356.825232 140.423763 
L 357.505493 54395.657863 
L 358.403222 110.248318 
L 359.19792 93.662019 
L 360.046571 117.942153 
L 360.861582 54395.657863 
L 361.68615 136.579472 
L 362.495329 231.609273 
L 363.276117 99.380855 
L 364.149435 113.539587 
L 364.981285 54395.657863 
L 365.740191 124.042528 
L 366.576555 137.140772 
L 367.444181 119.018418 
L 368.218981 88.813017 
L 369.032343 87.630003 
L 369.868363 74.936766 
L 370.703522 89.539878 
L 371.520877 94.218674 
L 372.329144 95.973852 
L 373.139895 102.60134 
L 373.998547 98.957854 
L 374.82783 91.470033 
L 375.625264 93.1116 
L 376.466097 54395.657863 
L 377.261455 98.690181 
L 378.117058 54395.657863 
L 378.92817 98.971262 
L 379.718752 88.48751 
L 380.520097 93.375636 
L 381.395598 114.196018 
L 382.11782 96.945018 
L 383.079696 78.692803 
L 383.829281 86.884345 
L 384.722154 88.309669 
L 385.487805 77.560537 
L 386.30267 78.952867 
L 387.111784 79.414159 
L 387.927496 75.631479 
L 388.746905 81.368226 
L 389.603365 85.784392 
L 390.410686 87.289366 
L 391.195243 92.523996 
L 392.064378 85.892552 
L 392.864174 94.836549 
L 393.659699 113.056421 
L 394.503918 116.218742 
L 395.332322 104.824187 
L 396.160601 110.73528 
L 396.953676 54395.657863 
L 397.796443 54395.657863 
L 398.58771 196.652033 
L 399.442681 99.389496 
L 400.256184 133.938811 
L 401.070622 54395.657863 
L 401.910039 160.965483 
L 402.692243 108.874267 
L 403.505611 116.339024 
L 404.375585 93.757347 
L 405.189841 116.371953 
L 405.189841 39.137157 
L 405.189841 39.137157 
L 404.375585 49.305579 
L 403.505611 37.484029 
L 402.692243 37.299291 
L 401.910039 39.274181 
L 401.070622 37.139521 
L 400.256184 47.512561 
L 399.442681 54.120145 
L 398.58771 41.632708 
L 397.796443 42.579216 
L 396.953676 45.762474 
L 396.160601 40.058172 
L 395.332322 38.047978 
L 394.503918 39.668589 
L 393.659699 41.322184 
L 392.864174 39.461811 
L 392.064378 39.409661 
L 391.195243 37.091823 
L 390.410686 39.479442 
L 389.603365 37.737179 
L 388.746905 40.155528 
L 387.927496 44.010798 
L 387.111784 40.608638 
L 386.30267 41.435638 
L 385.487805 42.509975 
L 384.722154 42.434834 
L 383.829281 51.198756 
L 383.079696 52.802981 
L 382.11782 36.288517 
L 381.395598 35.88378 
L 380.520097 30.437471 
L 379.718752 38.531744 
L 378.92817 33.65915 
L 378.117058 45.361782 
L 377.261455 49.002728 
L 376.466097 42.470582 
L 375.625264 48.099343 
L 374.82783 48.304934 
L 373.998547 51.342489 
L 373.139895 50.718738 
L 372.329144 51.529288 
L 371.520877 47.794208 
L 370.703522 50.967665 
L 369.868363 51.374731 
L 369.032343 43.590626 
L 368.218981 43.116388 
L 367.444181 47.496758 
L 366.576555 52.086162 
L 365.740191 52.845991 
L 364.981285 47.524958 
L 364.149435 57.103002 
L 363.276117 57.599897 
L 362.495329 47.03157 
L 361.68615 44.790377 
L 360.861582 42.383267 
L 360.046571 47.742135 
L 359.19792 48.770933 
L 358.403222 47.409409 
L 357.505493 44.951116 
L 356.825232 48.922736 
L 355.907997 55.021643 
L 355.121407 48.973 
L 354.255862 44.853515 
L 353.487615 50.443106 
L 352.693807 50.54099 
L 351.810855 44.531626 
L 351.023444 39.465196 
L 350.139988 48.465653 
L 349.34946 51.54504 
L 348.526545 47.72196 
L 347.71445 47.769271 
L 346.870697 44.972294 
L 346.099857 34.152486 
L 345.237094 37.761795 
L 344.435581 42.252517 
L 343.632053 41.162265 
L 342.789524 39.489549 
L 341.967031 37.222606 
L 341.143183 40.586884 
L 340.339121 43.355626 
L 339.520759 46.48451 
L 338.68983 46.566068 
L 337.858686 47.81886 
L 337.061062 43.881305 
L 336.238295 48.42884 
L 335.39681 45.016976 
L 334.579155 48.989318 
L 333.777088 39.260034 
L 332.952662 31.388674 
L 332.117046 33.815821 
L 331.308258 41.520945 
L 330.564541 46.599253 
L 329.583972 30.450255 
L 328.820742 33.395092 
L 328.015302 36.884228 
L 327.253526 34.668063 
L 326.323322 48.803247 
L 325.556324 45.244745 
L 324.754359 45.936382 
L 323.868843 44.154068 
L 323.098226 44.141212 
L 322.294254 47.185047 
L 321.425272 41.758167 
L 320.626199 44.810044 
L 319.796568 44.076172 
L 318.943037 40.334081 
L 318.172199 41.578924 
L 317.336266 42.095658 
L 316.524266 45.027744 
L 315.712522 38.98738 
L 314.893015 44.545942 
L 314.064583 46.928946 
L 313.255154 41.299061 
L 312.411974 40.842413 
L 311.710327 43.28576 
L 310.743092 50.630888 
L 309.942047 46.680309 
L 309.117615 46.364675 
L 308.292916 44.262529 
L 307.468148 46.236969 
L 306.658104 44.889149 
L 305.894586 43.00601 
L 305.064191 45.673501 
L 304.226424 41.872639 
L 303.391286 42.584419 
L 302.560924 45.260187 
L 301.75876 44.749279 
L 300.939368 44.738171 
L 300.10801 45.329091 
L 299.325101 42.567958 
L 298.497883 42.914387 
L 297.628312 39.665834 
L 296.86905 41.472949 
L 295.994686 41.953615 
L 295.192051 41.321473 
L 294.334864 42.799322 
L 293.555071 43.325309 
L 292.750931 44.179762 
L 291.927511 42.072062 
L 291.08054 41.016977 
L 290.220135 39.907144 
L 289.445587 41.649553 
L 288.591741 42.811113 
L 287.838219 43.163309 
L 286.984478 43.108027 
L 286.223912 42.528845 
L 285.340297 47.719864 
L 284.508938 50.344542 
L 283.69035 51.188378 
L 282.86469 51.182817 
L 282.084025 49.418425 
L 281.319418 53.131731 
L 280.359812 49.910026 
L 279.59013 53.37998 
L 278.800167 47.604415 
L 277.965147 47.773503 
L 277.153703 48.831974 
L 276.331575 49.569731 
L 275.486268 45.420572 
L 274.678202 45.427353 
L 273.777251 47.155116 
L 273.027657 50.451927 
L 272.215492 45.76847 
L 271.387323 47.857021 
L 270.568699 44.374506 
L 269.662404 46.28297 
L 268.939759 45.808731 
L 268.107494 45.652352 
L 267.34323 46.65337 
L 266.452261 44.141649 
L 265.658049 43.720154 
L 264.829366 45.400111 
L 263.991686 49.30618 
L 263.156463 46.690009 
L 262.351747 41.391986 
L 261.533829 43.911412 
L 260.694027 42.340264 
L 259.949085 47.053619 
L 259.032406 43.873418 
L 258.268123 47.517923 
L 257.427484 49.726627 
L 256.608085 48.831692 
L 255.760598 48.434413 
L 254.968954 47.530607 
L 254.132663 47.599537 
L 253.299958 44.387028 
L 252.478696 43.72087 
L 251.634828 44.009965 
L 250.843063 43.753983 
L 250.041367 41.270759 
L 249.214196 39.749976 
L 248.425314 39.77962 
L 247.57484 41.89222 
L 246.758317 41.120111 
L 245.93034 46.214649 
L 245.045758 42.037744 
L 244.414105 44.252281 
L 243.449211 35.038405 
L 242.681308 33.194726 
L 241.826841 40.145542 
L 240.990868 28.113271 
L 240.198011 21.314727 
L 239.422192 24.356731 
L 238.543417 27.42379 
L 237.727671 25.638267 
L 236.876727 29.107558 
L 236.099557 36.117208 
L 235.272717 29.436867 
L 234.419518 33.894503 
L 233.636741 35.339353 
L 232.792524 39.426583 
L 232.004541 34.456307 
L 231.146732 35.008923 
L 230.342408 36.165239 
L 229.530351 43.165581 
L 228.702934 44.670113 
L 227.880931 45.229602 
L 227.029385 46.501423 
L 226.280774 45.857251 
L 225.401121 46.651214 
L 224.602159 42.680389 
L 223.79355 42.770066 
L 222.934358 47.575525 
L 222.120294 48.536329 
L 221.295517 51.784397 
L 220.480028 52.382479 
L 219.700699 51.213576 
L 218.832071 49.30279 
L 218.023019 50.864391 
L 217.238545 48.75813 
L 216.37682 47.84492 
L 215.554473 45.912453 
L 214.766467 45.722269 
L 213.900766 47.425479 
L 213.091922 45.523826 
L 212.278404 41.196484 
L 211.468371 43.149901 
L 210.633964 37.106941 
L 209.794829 42.795415 
L 208.935707 48.997328 
L 208.455704 44.937267 
z
" clip-path="url(#p1e157f3bcf)" style="fill: #add8e6; stroke: #add8e6"/>
   </g>
   <g id="line2d_1">
    <path d="M 208.455704 56.879188 
L 208.935707 59.897556 
L 209.794829 56.42049 
L 210.633964 46.488361 
L 211.468371 52.320177 
L 212.278404 50.583277 
L 213.091922 53.99257 
L 213.900766 54.410421 
L 214.766467 53.822366 
L 215.554473 53.790445 
L 217.238545 57.966798 
L 218.023019 59.395103 
L 218.832071 58.807917 
L 219.700699 60.477822 
L 220.480028 61.121585 
L 221.295517 60.634157 
L 222.120294 59.608454 
L 222.934358 59.39435 
L 223.79355 56.47061 
L 224.602159 55.348489 
L 225.401121 58.574875 
L 226.280774 57.338705 
L 227.029385 57.530732 
L 227.880931 57.106445 
L 228.702934 57.195851 
L 229.530351 55.21272 
L 230.342408 50.257095 
L 231.146732 49.437189 
L 232.004541 50.864884 
L 232.792524 53.496845 
L 233.636741 53.371886 
L 234.419518 46.745654 
L 235.272717 42.484481 
L 236.099557 50.241198 
L 236.876727 43.511304 
L 237.727671 38.583293 
L 238.543417 38.051283 
L 239.422192 39.842608 
L 240.198011 40.01311 
L 240.990868 45.726021 
L 241.826841 49.156857 
L 242.681308 47.992388 
L 243.449211 51.102416 
L 244.414105 55.620468 
L 245.045758 54.741612 
L 245.93034 59.410519 
L 246.758317 56.85153 
L 247.57484 58.899145 
L 248.425314 56.309919 
L 249.214196 56.713399 
L 250.843063 58.840928 
L 251.634828 57.681605 
L 252.478696 58.251348 
L 253.299958 58.329536 
L 254.132663 59.417823 
L 254.968954 58.467992 
L 255.760598 59.216042 
L 256.608085 59.66426 
L 257.427484 59.308648 
L 258.268123 58.235289 
L 259.032406 56.70741 
L 259.949085 57.250082 
L 260.694027 56.28984 
L 261.533829 54.31978 
L 262.351747 53.273413 
L 263.156463 56.420706 
L 263.991686 55.76951 
L 264.829366 54.709517 
L 265.658049 53.921763 
L 266.452261 54.676769 
L 267.34323 57.902818 
L 268.107494 58.501415 
L 268.939759 57.312154 
L 269.662404 57.773898 
L 270.568699 55.801464 
L 271.387323 57.682493 
L 272.215492 56.795549 
L 273.027657 57.423919 
L 273.777251 57.386232 
L 274.678202 56.571342 
L 275.486268 56.787502 
L 276.331575 58.443532 
L 277.965147 59.479104 
L 278.800167 57.784309 
L 279.59013 60.130193 
L 280.359812 58.213312 
L 281.319418 58.837331 
L 282.084025 58.943317 
L 282.86469 58.606424 
L 283.69035 59.637323 
L 284.508938 57.180134 
L 285.340297 56.171043 
L 286.984478 58.495932 
L 287.838219 57.200775 
L 288.591741 57.417008 
L 289.445587 56.420034 
L 290.220135 54.980189 
L 291.08054 58.347346 
L 291.927511 59.05331 
L 292.750931 59.253479 
L 293.555071 58.544928 
L 294.334864 58.175787 
L 295.192051 56.958409 
L 296.86905 59.48168 
L 297.628312 56.616044 
L 298.497883 60.582804 
L 299.325101 59.772654 
L 300.10801 61.450237 
L 300.939368 61.609354 
L 301.75876 62.119163 
L 302.560924 62.055981 
L 303.391286 60.5849 
L 304.226424 58.526404 
L 305.064191 62.323087 
L 305.894586 60.598631 
L 306.658104 61.982971 
L 307.468148 62.30366 
L 308.292916 60.652716 
L 309.942047 64.0513 
L 310.743092 68.003068 
L 311.710327 63.175691 
L 312.411974 58.876517 
L 313.255154 59.975067 
L 314.064583 64.5381 
L 314.893015 62.719428 
L 315.712522 56.844898 
L 316.524266 62.863182 
L 317.336266 59.749438 
L 318.172199 59.181868 
L 318.943037 58.972244 
L 319.796568 63.458494 
L 320.626199 62.278546 
L 321.425272 58.867669 
L 322.294254 63.802359 
L 323.098226 61.494794 
L 323.868843 60.943053 
L 324.754359 63.096991 
L 325.556324 62.653666 
L 326.323322 66.814341 
L 327.253526 54.385463 
L 328.015302 56.058986 
L 329.583972 48.824903 
L 330.564541 65.101052 
L 331.308258 62.632724 
L 332.117046 52.997768 
L 332.952662 51.08465 
L 334.579155 65.515287 
L 335.39681 62.27833 
L 336.238295 64.194323 
L 337.061062 59.701967 
L 337.858686 63.51453 
L 339.520759 61.242911 
L 340.339121 57.796941 
L 341.967031 53.62125 
L 342.789524 56.142733 
L 343.632053 58.092956 
L 344.435581 60.290411 
L 345.237094 56.672829 
L 346.099857 51.513269 
L 346.870697 61.468548 
L 347.71445 62.258421 
L 348.526545 62.474976 
L 349.34946 66.17438 
L 350.139988 64.249443 
L 351.023444 56.058283 
L 351.810855 60.797858 
L 352.693807 64.582386 
L 353.487615 64.32529 
L 354.255862 60.800468 
L 355.121407 64.632935 
L 355.907997 69.293522 
L 357.505493 61.721139 
L 358.403222 62.321201 
L 359.19792 61.944553 
L 360.046571 63.085099 
L 360.861582 59.873958 
L 361.68615 60.862137 
L 362.495329 63.602982 
L 363.276117 70.336483 
L 364.149435 71.524795 
L 364.981285 65.156116 
L 365.740191 68.238275 
L 366.576555 67.994322 
L 367.444181 62.904714 
L 368.218981 56.395429 
L 369.032343 56.649384 
L 369.868363 60.365104 
L 370.703522 63.199708 
L 371.520877 61.165878 
L 372.329144 64.643132 
L 373.998547 64.860502 
L 374.82783 61.242058 
L 375.625264 61.289018 
L 376.466097 59.442882 
L 377.261455 62.760558 
L 378.117058 62.880432 
L 378.92817 48.729925 
L 379.718752 52.319302 
L 380.520097 45.355944 
L 381.395598 51.576572 
L 382.11782 51.046704 
L 383.079696 62.404233 
L 383.829281 62.92607 
L 384.722154 55.736783 
L 385.487805 54.119385 
L 387.111784 52.879314 
L 387.927496 54.937874 
L 388.746905 52.806875 
L 389.603365 51.306697 
L 390.410686 53.020761 
L 391.195243 51.425207 
L 392.064378 52.788661 
L 392.864174 53.790037 
L 393.659699 56.740278 
L 394.503918 55.294746 
L 395.332322 53.205856 
L 396.160601 55.424991 
L 396.953676 62.418003 
L 397.796443 59.959086 
L 398.58771 58.178118 
L 399.442681 67.343653 
L 400.256184 63.457779 
L 401.070622 53.755858 
L 401.910039 55.708924 
L 402.692243 52.709798 
L 403.505611 53.196411 
L 404.375585 62.420394 
L 405.189841 54.789767 
L 405.189841 54.789767 
" clip-path="url(#p1e157f3bcf)" style="fill: none; stroke: #1f77b4; stroke-width: 1.5; stroke-linecap: square"/>
   </g>
   <g id="line2d_2">
    <path d="M 88.654436 289 
L 88.655195 163.703868 
L 88.984023 147.114144 
L 89.640852 129.372009 
L 91.284399 101.456933 
L 92.270764 90.305791 
L 93.257128 82.067695 
L 94.242313 76.003289 
L 95.228677 71.334396 
L 96.213861 67.727053 
L 97.528227 64.037191 
L 98.513412 61.823315 
L 100.156959 58.946505 
L 101.471325 57.161913 
L 102.784511 55.706897 
L 104.098877 54.532291 
L 105.413243 53.519762 
L 108.040795 51.952794 
L 113.62626 49.854203 
L 114.939446 49.537157 
L 119.538547 48.610098 
L 127.751565 47.621177 
L 129.064751 47.56588 
L 132.021484 47.354607 
L 137.277768 47.09876 
L 139.576139 47.001758 
L 145.817607 46.810171 
L 147.459974 46.802611 
L 148.445159 46.770264 
L 149.759525 46.783688 
L 152.387077 46.705085 
L 153.372261 46.730489 
L 159.942911 46.668467 
L 162.241282 46.668753 
L 162.898465 46.652749 
L 164.540832 46.655898 
L 165.526017 46.62392 
L 167.168384 46.659975 
L 168.48275 46.625787 
L 169.797116 46.658 
L 171.767485 46.618447 
L 172.75267 46.63604 
L 175.381402 46.618806 
L 176.366586 46.657897 
L 182.606875 46.679903 
L 186.877974 46.698787 
L 187.863159 46.68547 
L 190.490711 46.708299 
L 191.475895 46.710516 
L 192.462259 46.716438 
L 193.447444 46.726985 
L 194.432628 46.686519 
L 196.399458 46.727939 
L 197.390542 46.695762 
L 199.360911 46.757789 
L 200.670557 46.716651 
L 202.310565 46.769013 
L 203.63201 46.73666 
L 204.941657 46.770279 
L 206.263102 46.749494 
L 206.912026 46.772896 
L 208.233471 46.760802 
L 208.882395 46.788426 
L 210.522402 46.77419 
L 211.843848 46.83152 
L 214.474939 46.800042 
L 215.123863 46.839645 
L 218.415677 46.818877 
L 219.064601 46.865389 
L 224.657146 46.866276 
L 269.657071 47.132711 
L 270.636356 47.104721 
L 272.606725 47.160868 
L 273.597809 47.133669 
L 275.237817 47.168117 
L 276.217102 47.14755 
L 277.538547 47.155094 
L 278.517832 47.137234 
L 280.169639 47.179184 
L 282.140008 47.147865 
L 283.119293 47.190324 
L 284.428939 47.156103 
L 286.080746 47.209178 
L 287.390392 47.179251 
L 288.700039 47.206849 
L 290.021484 47.177966 
L 291.33113 47.208652 
L 292.640777 47.186627 
L 293.962222 47.218271 
L 295.271868 47.199784 
L 296.593313 47.235532 
L 299.212606 47.206565 
L 300.534051 47.247439 
L 303.483706 47.212789 
L 304.805151 47.259594 
L 308.085166 47.221821 
L 309.394813 47.276023 
L 312.356266 47.263393 
L 314.656996 47.283973 
L 316.957726 47.253967 
L 317.60665 47.287646 
L 319.907381 47.263281 
L 320.898464 47.28498 
L 323.199195 47.26675 
L 323.848119 47.303711 
L 326.47921 47.281641 
L 327.470294 47.308474 
L 332.390317 47.294599 
L 333.381401 47.325827 
L 339.292508 47.314769 
L 340.271794 47.353025 
L 345.203615 47.328088 
L 346.182901 47.370277 
L 352.75473 47.349819 
L 353.745814 47.394747 
L 366.877675 47.390188 
L 386.593164 47.48414 
L 401.695394 47.52859 
L 402.686477 47.489826 
L 404.987208 47.532253 
L 404.987208 47.532253 
" clip-path="url(#p1e157f3bcf)" style="fill: none; stroke: #000000; stroke-width: 2.5; stroke-linecap: square"/>
   </g>
   <g id="line2d_3">
    <path d="M 87.668949 60.709659 
L 87.997659 59.759151 
L 88.655195 59.802661 
L 88.984023 60.153477 
L 89.970033 61.636905 
L 91.941582 63.863253 
L 94.242313 65.522177 
L 95.556678 66.088186 
L 96.871044 66.653555 
L 99.499776 67.572133 
L 104.098877 68.843408 
L 112.969077 70.441989 
L 116.253812 70.802264 
L 117.568178 70.993605 
L 125.122833 71.601488 
L 125.780016 71.635032 
L 127.094382 71.731134 
L 129.393932 71.848833 
L 139.248137 72.284389 
L 143.190055 72.375614 
L 143.847238 72.382339 
L 145.160424 72.412884 
L 146.47479 72.40702 
L 147.789156 72.473912 
L 151.401892 72.49953 
L 190.162709 72.848547 
L 191.147893 72.864761 
L 192.462259 72.85553 
L 193.447444 72.82531 
L 195.089811 72.856107 
L 196.069097 72.837699 
L 197.720903 72.879857 
L 199.03055 72.847976 
L 200.340196 72.876719 
L 201.661641 72.851261 
L 202.971288 72.891161 
L 204.941657 72.848343 
L 205.93274 72.856771 
L 207.572748 72.84497 
L 208.552033 72.865144 
L 210.852764 72.844314 
L 211.843848 72.869442 
L 215.784586 72.838821 
L 216.763871 72.880929 
L 225.636431 72.849383 
L 236.809721 72.835446 
L 237.458645 72.80273 
L 241.399383 72.830048 
L 242.390467 72.811803 
L 245.021559 72.812741 
L 245.670482 72.78952 
L 248.301574 72.805086 
L 249.292658 72.798814 
L 250.602304 72.759705 
L 252.903035 72.777843 
L 253.563757 72.760075 
L 254.873404 72.784814 
L 255.852689 72.737201 
L 258.153419 72.774156 
L 259.144503 72.7282 
L 261.114872 72.753776 
L 262.094157 72.715076 
L 264.064526 72.748842 
L 265.716333 72.705361 
L 266.695618 72.728314 
L 267.686702 72.694124 
L 268.665987 72.719638 
L 269.987432 72.714602 
L 271.62744 72.687298 
L 273.267448 72.718487 
L 274.577094 72.669309 
L 276.217102 72.706487 
L 277.538547 72.659201 
L 278.848193 72.671885 
L 280.169639 72.683807 
L 282.140008 72.653533 
L 282.788932 72.664498 
L 284.110377 72.682773 
L 286.411107 72.639605 
L 287.060031 72.653657 
L 288.381476 72.623074 
L 289.0304 72.638882 
L 290.351845 72.611087 
L 291.000769 72.627878 
L 292.322214 72.603193 
L 292.971138 72.621316 
L 294.622944 72.635224 
L 297.242237 72.602167 
L 298.233321 72.60371 
L 299.542968 72.591194 
L 300.534051 72.594588 
L 303.153344 72.576997 
L 304.144428 72.58416 
L 305.784436 72.563374 
L 306.77552 72.572945 
L 309.725174 72.556753 
L 310.716258 72.569828 
L 312.686627 72.545872 
L 313.665912 72.563892 
L 315.966643 72.532645 
L 316.957726 72.551035 
L 321.228826 72.516688 
L 321.87775 72.552623 
L 325.169564 72.507131 
L 325.818488 72.545085 
L 329.759226 72.494869 
L 330.75031 72.524073 
L 335.021409 72.481381 
L 336.000694 72.516959 
L 341.911801 72.463199 
L 342.902885 72.50137 
L 352.75473 72.435268 
L 353.745814 72.480839 
L 370.818413 72.427216 
L 403.3472 72.378755 
L 403.996124 72.39197 
L 405.317569 72.360806 
L 405.317569 72.360806 
" clip-path="url(#p1e157f3bcf)" style="fill: none; stroke-dasharray: 9.25,4; stroke-dashoffset: 0; stroke: #8b0000; stroke-width: 2.5"/>
   </g>
   <g id="legend_1">
    <g id="line2d_4">
     <path d="M 333.95625 198.188062 
L 343.95625 198.188062 
L 353.95625 198.188062 
" style="fill: none; stroke: #1f77b4; stroke-width: 1.5; stroke-linecap: square"/>
    </g>
    <g id="text_1">
     <!-- PSP -->
     <g transform="translate(361.95625 201.688062) scale(0.1 -0.1)">
      <defs>
       <path id="DejaVuSans-50" d="M 1259 4147 
L 1259 2394 
L 2053 2394 
Q 2494 2394 2734 2622 
Q 2975 2850 2975 3272 
Q 2975 3691 2734 3919 
Q 2494 4147 2053 4147 
L 1259 4147 
z
M 628 4666 
L 2053 4666 
Q 2838 4666 3239 4311 
Q 3641 3956 3641 3272 
Q 3641 2581 3239 2228 
Q 2838 1875 2053 1875 
L 1259 1875 
L 1259 0 
L 628 0 
L 628 4666 
z
" transform="scale(0.015625)"/>
       <path id="DejaVuSans-53" d="M 3425 4513 
L 3425 3897 
Q 3066 4069 2747 4153 
Q 2428 4238 2131 4238 
Q 1616 4238 1336 4038 
Q 1056 3838 1056 3469 
Q 1056 3159 1242 3001 
Q 1428 2844 1947 2747 
L 2328 2669 
Q 3034 2534 3370 2195 
Q 3706 1856 3706 1288 
Q 3706 609 3251 259 
Q 2797 -91 1919 -91 
Q 1588 -91 1214 -16 
Q 841 59 441 206 
L 441 856 
Q 825 641 1194 531 
Q 1563 422 1919 422 
Q 2459 422 2753 634 
Q 3047 847 3047 1241 
Q 3047 1584 2836 1778 
Q 2625 1972 2144 2069 
L 1759 2144 
Q 1053 2284 737 2584 
Q 422 2884 422 3419 
Q 422 4038 858 4394 
Q 1294 4750 2059 4750 
Q 2388 4750 2728 4690 
Q 3069 4631 3425 4513 
z
" transform="scale(0.015625)"/>
      </defs>
      <use xlink:href="#DejaVuSans-50"/>
      <use xlink:href="#DejaVuSans-53" x="60.302734"/>
      <use xlink:href="#DejaVuSans-50" x="123.779297"/>
     </g>
    </g>
    <g id="line2d_5">
     <path d="M 333.95625 212.866187 
L 343.95625 212.866187 
L 353.95625 212.866187 
" style="fill: none; stroke: #000000; stroke-width: 2.5; stroke-linecap: square"/>
    </g>
    <g id="text_2">
     <!-- Slow wind -->
     <g transform="translate(361.95625 216.366187) scale(0.1 -0.1)">
      <defs>
       <path id="DejaVuSans-6c" d="M 603 4863 
L 1178 4863 
L 1178 0 
L 603 0 
L 603 4863 
z
" transform="scale(0.015625)"/>
       <path id="DejaVuSans-6f" d="M 1959 3097 
Q 1497 3097 1228 2736 
Q 959 2375 959 1747 
Q 959 1119 1226 758 
Q 1494 397 1959 397 
Q 2419 397 2687 759 
Q 2956 1122 2956 1747 
Q 2956 2369 2687 2733 
Q 2419 3097 1959 3097 
z
M 1959 3584 
Q 2709 3584 3137 3096 
Q 3566 2609 3566 1747 
Q 3566 888 3137 398 
Q 2709 -91 1959 -91 
Q 1206 -91 779 398 
Q 353 888 353 1747 
Q 353 2609 779 3096 
Q 1206 3584 1959 3584 
z
" transform="scale(0.015625)"/>
       <path id="DejaVuSans-77" d="M 269 3500 
L 844 3500 
L 1563 769 
L 2278 3500 
L 2956 3500 
L 3675 769 
L 4391 3500 
L 4966 3500 
L 4050 0 
L 3372 0 
L 2619 2869 
L 1863 0 
L 1184 0 
L 269 3500 
z
" transform="scale(0.015625)"/>
       <path id="DejaVuSans-20" transform="scale(0.015625)"/>
       <path id="DejaVuSans-69" d="M 603 3500 
L 1178 3500 
L 1178 0 
L 603 0 
L 603 3500 
z
M 603 4863 
L 1178 4863 
L 1178 4134 
L 603 4134 
L 603 4863 
z
" transform="scale(0.015625)"/>
       <path id="DejaVuSans-6e" d="M 3513 2113 
L 3513 0 
L 2938 0 
L 2938 2094 
Q 2938 2591 2744 2837 
Q 2550 3084 2163 3084 
Q 1697 3084 1428 2787 
Q 1159 2491 1159 1978 
L 1159 0 
L 581 0 
L 581 3500 
L 1159 3500 
L 1159 2956 
Q 1366 3272 1645 3428 
Q 1925 3584 2291 3584 
Q 2894 3584 3203 3211 
Q 3513 2838 3513 2113 
z
" transform="scale(0.015625)"/>
       <path id="DejaVuSans-64" d="M 2906 2969 
L 2906 4863 
L 3481 4863 
L 3481 0 
L 2906 0 
L 2906 525 
Q 2725 213 2448 61 
Q 2172 -91 1784 -91 
Q 1150 -91 751 415 
Q 353 922 353 1747 
Q 353 2572 751 3078 
Q 1150 3584 1784 3584 
Q 2172 3584 2448 3432 
Q 2725 3281 2906 2969 
z
M 947 1747 
Q 947 1113 1208 752 
Q 1469 391 1925 391 
Q 2381 391 2643 752 
Q 2906 1113 2906 1747 
Q 2906 2381 2643 2742 
Q 2381 3103 1925 3103 
Q 1469 3103 1208 2742 
Q 947 2381 947 1747 
z
" transform="scale(0.015625)"/>
      </defs>
      <use xlink:href="#DejaVuSans-53"/>
      <use xlink:href="#DejaVuSans-6c" x="63.476562"/>
      <use xlink:href="#DejaVuSans-6f" x="91.259766"/>
      <use xlink:href="#DejaVuSans-77" x="152.441406"/>
      <use xlink:href="#DejaVuSans-20" x="234.228516"/>
      <use xlink:href="#DejaVuSans-77" x="266.015625"/>
      <use xlink:href="#DejaVuSans-69" x="347.802734"/>
      <use xlink:href="#DejaVuSans-6e" x="375.585938"/>
      <use xlink:href="#DejaVuSans-64" x="438.964844"/>
     </g>
    </g>
    <g id="line2d_6">
     <path d="M 333.95625 227.544312 
L 343.95625 227.544312 
L 353.95625 227.544312 
" style="fill: none; stroke-dasharray: 9.25,4; stroke-dashoffset: 0; stroke: #8b0000; stroke-width: 2.5"/>
    </g>
    <g id="text_3">
     <!-- Fast wind -->
     <g transform="translate(361.95625 231.044312) scale(0.1 -0.1)">
      <defs>
       <path id="DejaVuSans-46" d="M 628 4666 
L 3309 4666 
L 3309 4134 
L 1259 4134 
L 1259 2759 
L 3109 2759 
L 3109 2228 
L 1259 2228 
L 1259 0 
L 628 0 
L 628 4666 
z
" transform="scale(0.015625)"/>
       <path id="DejaVuSans-61" d="M 2194 1759 
Q 1497 1759 1228 1600 
Q 959 1441 959 1056 
Q 959 750 1161 570 
Q 1363 391 1709 391 
Q 2188 391 2477 730 
Q 2766 1069 2766 1631 
L 2766 1759 
L 2194 1759 
z
M 3341 1997 
L 3341 0 
L 2766 0 
L 2766 531 
Q 2569 213 2275 61 
Q 1981 -91 1556 -91 
Q 1019 -91 701 211 
Q 384 513 384 1019 
Q 384 1609 779 1909 
Q 1175 2209 1959 2209 
L 2766 2209 
L 2766 2266 
Q 2766 2663 2505 2880 
Q 2244 3097 1772 3097 
Q 1472 3097 1187 3025 
Q 903 2953 641 2809 
L 641 3341 
Q 956 3463 1253 3523 
Q 1550 3584 1831 3584 
Q 2591 3584 2966 3190 
Q 3341 2797 3341 1997 
z
" transform="scale(0.015625)"/>
       <path id="DejaVuSans-73" d="M 2834 3397 
L 2834 2853 
Q 2591 2978 2328 3040 
Q 2066 3103 1784 3103 
Q 1356 3103 1142 2972 
Q 928 2841 928 2578 
Q 928 2378 1081 2264 
Q 1234 2150 1697 2047 
L 1894 2003 
Q 2506 1872 2764 1633 
Q 3022 1394 3022 966 
Q 3022 478 2636 193 
Q 2250 -91 1575 -91 
Q 1294 -91 989 -36 
Q 684 19 347 128 
L 347 722 
Q 666 556 975 473 
Q 1284 391 1588 391 
Q 1994 391 2212 530 
Q 2431 669 2431 922 
Q 2431 1156 2273 1281 
Q 2116 1406 1581 1522 
L 1381 1569 
Q 847 1681 609 1914 
Q 372 2147 372 2553 
Q 372 3047 722 3315 
Q 1072 3584 1716 3584 
Q 2034 3584 2315 3537 
Q 2597 3491 2834 3397 
z
" transform="scale(0.015625)"/>
       <path id="DejaVuSans-74" d="M 1172 4494 
L 1172 3500 
L 2356 3500 
L 2356 3053 
L 1172 3053 
L 1172 1153 
Q 1172 725 1289 603 
Q 1406 481 1766 481 
L 2356 481 
L 2356 0 
L 1766 0 
Q 1100 0 847 248 
Q 594 497 594 1153 
L 594 3053 
L 172 3053 
L 172 3500 
L 594 3500 
L 594 4494 
L 1172 4494 
z
" transform="scale(0.015625)"/>
      </defs>
      <use xlink:href="#DejaVuSans-46"/>
      <use xlink:href="#DejaVuSans-61" x="48.394531"/>
      <use xlink:href="#DejaVuSans-73" x="109.673828"/>
      <use xlink:href="#DejaVuSans-74" x="161.773438"/>
      <use xlink:href="#DejaVuSans-20" x="200.982422"/>
      <use xlink:href="#DejaVuSans-77" x="232.769531"/>
      <use xlink:href="#DejaVuSans-69" x="314.556641"/>
      <use xlink:href="#DejaVuSans-6e" x="342.339844"/>
      <use xlink:href="#DejaVuSans-64" x="405.71875"/>
     </g>
    </g>
   </g>
   <g id="matplotlib.axis_1">
    <g id="xtick_1">
     <g id="line2d_7">
      <defs>
       <path id="m5576810402" d="M 0 0 
L 0 -3.5 
" style="stroke: #000000; stroke-width: 1.5"/>
      </defs>
      <g>
       <use xlink:href="#m5576810402" x="77.257024" y="242.124" style="stroke: #000000; stroke-width: 1.5"/>
      </g>
     </g>
     <g id="line2d_8">
      <defs>
       <path id="m63c090ee54" d="M 0 0 
L 0 3.5 
" style="stroke: #000000; stroke-width: 1.5"/>
      </defs>
      <g>
       <use xlink:href="#m63c090ee54" x="77.257024" y="10.8" style="stroke: #000000; stroke-width: 1.5"/>
      </g>
     </g>
     <g id="text_4">
      <!-- 0 -->
      <g transform="translate(73.439524 254.742125) scale(0.12 -0.12)">
       <defs>
        <path id="DejaVuSans-30" d="M 2034 4250 
Q 1547 4250 1301 3770 
Q 1056 3291 1056 2328 
Q 1056 1369 1301 889 
Q 1547 409 2034 409 
Q 2525 409 2770 889 
Q 3016 1369 3016 2328 
Q 3016 3291 2770 3770 
Q 2525 4250 2034 4250 
z
M 2034 4750 
Q 2819 4750 3233 4129 
Q 3647 3509 3647 2328 
Q 3647 1150 3233 529 
Q 2819 -91 2034 -91 
Q 1250 -91 836 529 
Q 422 1150 422 2328 
Q 422 3509 836 4129 
Q 1250 4750 2034 4750 
z
" transform="scale(0.015625)"/>
       </defs>
       <use xlink:href="#DejaVuSans-30"/>
      </g>
     </g>
    </g>
    <g id="xtick_2">
     <g id="line2d_9">
      <g>
       <use xlink:href="#m5576810402" x="118.298513" y="242.124" style="stroke: #000000; stroke-width: 1.5"/>
      </g>
     </g>
     <g id="line2d_10">
      <g>
       <use xlink:href="#m63c090ee54" x="118.298513" y="10.8" style="stroke: #000000; stroke-width: 1.5"/>
      </g>
     </g>
     <g id="text_5">
      <!-- 5 -->
      <g transform="translate(114.481013 254.742125) scale(0.12 -0.12)">
       <defs>
        <path id="DejaVuSans-35" d="M 691 4666 
L 3169 4666 
L 3169 4134 
L 1269 4134 
L 1269 2991 
Q 1406 3038 1543 3061 
Q 1681 3084 1819 3084 
Q 2600 3084 3056 2656 
Q 3513 2228 3513 1497 
Q 3513 744 3044 326 
Q 2575 -91 1722 -91 
Q 1428 -91 1123 -41 
Q 819 9 494 109 
L 494 744 
Q 775 591 1075 516 
Q 1375 441 1709 441 
Q 2250 441 2565 725 
Q 2881 1009 2881 1497 
Q 2881 1984 2565 2268 
Q 2250 2553 1709 2553 
Q 1456 2553 1204 2497 
Q 953 2441 691 2322 
L 691 4666 
z
" transform="scale(0.015625)"/>
       </defs>
       <use xlink:href="#DejaVuSans-35"/>
      </g>
     </g>
    </g>
    <g id="xtick_3">
     <g id="line2d_11">
      <g>
       <use xlink:href="#m5576810402" x="159.340002" y="242.124" style="stroke: #000000; stroke-width: 1.5"/>
      </g>
     </g>
     <g id="line2d_12">
      <g>
       <use xlink:href="#m63c090ee54" x="159.340002" y="10.8" style="stroke: #000000; stroke-width: 1.5"/>
      </g>
     </g>
     <g id="text_6">
      <!-- 10 -->
      <g transform="translate(151.705002 254.742125) scale(0.12 -0.12)">
       <defs>
        <path id="DejaVuSans-31" d="M 794 531 
L 1825 531 
L 1825 4091 
L 703 3866 
L 703 4441 
L 1819 4666 
L 2450 4666 
L 2450 531 
L 3481 531 
L 3481 0 
L 794 0 
L 794 531 
z
" transform="scale(0.015625)"/>
       </defs>
       <use xlink:href="#DejaVuSans-31"/>
       <use xlink:href="#DejaVuSans-30" x="63.623047"/>
      </g>
     </g>
    </g>
    <g id="xtick_4">
     <g id="line2d_13">
      <g>
       <use xlink:href="#m5576810402" x="200.381491" y="242.124" style="stroke: #000000; stroke-width: 1.5"/>
      </g>
     </g>
     <g id="line2d_14">
      <g>
       <use xlink:href="#m63c090ee54" x="200.381491" y="10.8" style="stroke: #000000; stroke-width: 1.5"/>
      </g>
     </g>
     <g id="text_7">
      <!-- 15 -->
      <g transform="translate(192.746491 254.742125) scale(0.12 -0.12)">
       <use xlink:href="#DejaVuSans-31"/>
       <use xlink:href="#DejaVuSans-35" x="63.623047"/>
      </g>
     </g>
    </g>
    <g id="xtick_5">
     <g id="line2d_15">
      <g>
       <use xlink:href="#m5576810402" x="241.42298" y="242.124" style="stroke: #000000; stroke-width: 1.5"/>
      </g>
     </g>
     <g id="line2d_16">
      <g>
       <use xlink:href="#m63c090ee54" x="241.42298" y="10.8" style="stroke: #000000; stroke-width: 1.5"/>
      </g>
     </g>
     <g id="text_8">
      <!-- 20 -->
      <g transform="translate(233.78798 254.742125) scale(0.12 -0.12)">
       <defs>
        <path id="DejaVuSans-32" d="M 1228 531 
L 3431 531 
L 3431 0 
L 469 0 
L 469 531 
Q 828 903 1448 1529 
Q 2069 2156 2228 2338 
Q 2531 2678 2651 2914 
Q 2772 3150 2772 3378 
Q 2772 3750 2511 3984 
Q 2250 4219 1831 4219 
Q 1534 4219 1204 4116 
Q 875 4013 500 3803 
L 500 4441 
Q 881 4594 1212 4672 
Q 1544 4750 1819 4750 
Q 2544 4750 2975 4387 
Q 3406 4025 3406 3419 
Q 3406 3131 3298 2873 
Q 3191 2616 2906 2266 
Q 2828 2175 2409 1742 
Q 1991 1309 1228 531 
z
" transform="scale(0.015625)"/>
       </defs>
       <use xlink:href="#DejaVuSans-32"/>
       <use xlink:href="#DejaVuSans-30" x="63.623047"/>
      </g>
     </g>
    </g>
    <g id="xtick_6">
     <g id="line2d_17">
      <g>
       <use xlink:href="#m5576810402" x="282.46447" y="242.124" style="stroke: #000000; stroke-width: 1.5"/>
      </g>
     </g>
     <g id="line2d_18">
      <g>
       <use xlink:href="#m63c090ee54" x="282.46447" y="10.8" style="stroke: #000000; stroke-width: 1.5"/>
      </g>
     </g>
     <g id="text_9">
      <!-- 25 -->
      <g transform="translate(274.82947 254.742125) scale(0.12 -0.12)">
       <use xlink:href="#DejaVuSans-32"/>
       <use xlink:href="#DejaVuSans-35" x="63.623047"/>
      </g>
     </g>
    </g>
    <g id="xtick_7">
     <g id="line2d_19">
      <g>
       <use xlink:href="#m5576810402" x="323.505959" y="242.124" style="stroke: #000000; stroke-width: 1.5"/>
      </g>
     </g>
     <g id="line2d_20">
      <g>
       <use xlink:href="#m63c090ee54" x="323.505959" y="10.8" style="stroke: #000000; stroke-width: 1.5"/>
      </g>
     </g>
     <g id="text_10">
      <!-- 30 -->
      <g transform="translate(315.870959 254.742125) scale(0.12 -0.12)">
       <defs>
        <path id="DejaVuSans-33" d="M 2597 2516 
Q 3050 2419 3304 2112 
Q 3559 1806 3559 1356 
Q 3559 666 3084 287 
Q 2609 -91 1734 -91 
Q 1441 -91 1130 -33 
Q 819 25 488 141 
L 488 750 
Q 750 597 1062 519 
Q 1375 441 1716 441 
Q 2309 441 2620 675 
Q 2931 909 2931 1356 
Q 2931 1769 2642 2001 
Q 2353 2234 1838 2234 
L 1294 2234 
L 1294 2753 
L 1863 2753 
Q 2328 2753 2575 2939 
Q 2822 3125 2822 3475 
Q 2822 3834 2567 4026 
Q 2313 4219 1838 4219 
Q 1578 4219 1281 4162 
Q 984 4106 628 3988 
L 628 4550 
Q 988 4650 1302 4700 
Q 1616 4750 1894 4750 
Q 2613 4750 3031 4423 
Q 3450 4097 3450 3541 
Q 3450 3153 3228 2886 
Q 3006 2619 2597 2516 
z
" transform="scale(0.015625)"/>
       </defs>
       <use xlink:href="#DejaVuSans-33"/>
       <use xlink:href="#DejaVuSans-30" x="63.623047"/>
      </g>
     </g>
    </g>
    <g id="xtick_8">
     <g id="line2d_21">
      <g>
       <use xlink:href="#m5576810402" x="364.547448" y="242.124" style="stroke: #000000; stroke-width: 1.5"/>
      </g>
     </g>
     <g id="line2d_22">
      <g>
       <use xlink:href="#m63c090ee54" x="364.547448" y="10.8" style="stroke: #000000; stroke-width: 1.5"/>
      </g>
     </g>
     <g id="text_11">
      <!-- 35 -->
      <g transform="translate(356.912448 254.742125) scale(0.12 -0.12)">
       <use xlink:href="#DejaVuSans-33"/>
       <use xlink:href="#DejaVuSans-35" x="63.623047"/>
      </g>
     </g>
    </g>
    <g id="xtick_9">
     <g id="line2d_23">
      <g>
       <use xlink:href="#m5576810402" x="405.588937" y="242.124" style="stroke: #000000; stroke-width: 1.5"/>
      </g>
     </g>
     <g id="line2d_24">
      <g>
       <use xlink:href="#m63c090ee54" x="405.588937" y="10.8" style="stroke: #000000; stroke-width: 1.5"/>
      </g>
     </g>
     <g id="text_12">
      <!-- 40 -->
      <g transform="translate(397.953937 254.742125) scale(0.12 -0.12)">
       <defs>
        <path id="DejaVuSans-34" d="M 2419 4116 
L 825 1625 
L 2419 1625 
L 2419 4116 
z
M 2253 4666 
L 3047 4666 
L 3047 1625 
L 3713 1625 
L 3713 1100 
L 3047 1100 
L 3047 0 
L 2419 0 
L 2419 1100 
L 313 1100 
L 313 1709 
L 2253 4666 
z
" transform="scale(0.015625)"/>
       </defs>
       <use xlink:href="#DejaVuSans-34"/>
       <use xlink:href="#DejaVuSans-30" x="63.623047"/>
      </g>
     </g>
    </g>
    <g id="xtick_10">
     <g id="line2d_25">
      <defs>
       <path id="m6f80be235f" d="M 0 0 
L 0 -2 
" style="stroke: #000000; stroke-width: 1.5"/>
      </defs>
      <g>
       <use xlink:href="#m6f80be235f" x="85.465321" y="242.124" style="stroke: #000000; stroke-width: 1.5"/>
      </g>
     </g>
     <g id="line2d_26">
      <defs>
       <path id="m4f6c571b0a" d="M 0 0 
L 0 2 
" style="stroke: #000000; stroke-width: 1.5"/>
      </defs>
      <g>
       <use xlink:href="#m4f6c571b0a" x="85.465321" y="10.8" style="stroke: #000000; stroke-width: 1.5"/>
      </g>
     </g>
    </g>
    <g id="xtick_11">
     <g id="line2d_27">
      <g>
       <use xlink:href="#m6f80be235f" x="93.673619" y="242.124" style="stroke: #000000; stroke-width: 1.5"/>
      </g>
     </g>
     <g id="line2d_28">
      <g>
       <use xlink:href="#m4f6c571b0a" x="93.673619" y="10.8" style="stroke: #000000; stroke-width: 1.5"/>
      </g>
     </g>
    </g>
    <g id="xtick_12">
     <g id="line2d_29">
      <g>
       <use xlink:href="#m6f80be235f" x="101.881917" y="242.124" style="stroke: #000000; stroke-width: 1.5"/>
      </g>
     </g>
     <g id="line2d_30">
      <g>
       <use xlink:href="#m4f6c571b0a" x="101.881917" y="10.8" style="stroke: #000000; stroke-width: 1.5"/>
      </g>
     </g>
    </g>
    <g id="xtick_13">
     <g id="line2d_31">
      <g>
       <use xlink:href="#m6f80be235f" x="110.090215" y="242.124" style="stroke: #000000; stroke-width: 1.5"/>
      </g>
     </g>
     <g id="line2d_32">
      <g>
       <use xlink:href="#m4f6c571b0a" x="110.090215" y="10.8" style="stroke: #000000; stroke-width: 1.5"/>
      </g>
     </g>
    </g>
    <g id="xtick_14">
     <g id="line2d_33">
      <g>
       <use xlink:href="#m6f80be235f" x="126.506811" y="242.124" style="stroke: #000000; stroke-width: 1.5"/>
      </g>
     </g>
     <g id="line2d_34">
      <g>
       <use xlink:href="#m4f6c571b0a" x="126.506811" y="10.8" style="stroke: #000000; stroke-width: 1.5"/>
      </g>
     </g>
    </g>
    <g id="xtick_15">
     <g id="line2d_35">
      <g>
       <use xlink:href="#m6f80be235f" x="134.715108" y="242.124" style="stroke: #000000; stroke-width: 1.5"/>
      </g>
     </g>
     <g id="line2d_36">
      <g>
       <use xlink:href="#m4f6c571b0a" x="134.715108" y="10.8" style="stroke: #000000; stroke-width: 1.5"/>
      </g>
     </g>
    </g>
    <g id="xtick_16">
     <g id="line2d_37">
      <g>
       <use xlink:href="#m6f80be235f" x="142.923406" y="242.124" style="stroke: #000000; stroke-width: 1.5"/>
      </g>
     </g>
     <g id="line2d_38">
      <g>
       <use xlink:href="#m4f6c571b0a" x="142.923406" y="10.8" style="stroke: #000000; stroke-width: 1.5"/>
      </g>
     </g>
    </g>
    <g id="xtick_17">
     <g id="line2d_39">
      <g>
       <use xlink:href="#m6f80be235f" x="151.131704" y="242.124" style="stroke: #000000; stroke-width: 1.5"/>
      </g>
     </g>
     <g id="line2d_40">
      <g>
       <use xlink:href="#m4f6c571b0a" x="151.131704" y="10.8" style="stroke: #000000; stroke-width: 1.5"/>
      </g>
     </g>
    </g>
    <g id="xtick_18">
     <g id="line2d_41">
      <g>
       <use xlink:href="#m6f80be235f" x="167.5483" y="242.124" style="stroke: #000000; stroke-width: 1.5"/>
      </g>
     </g>
     <g id="line2d_42">
      <g>
       <use xlink:href="#m4f6c571b0a" x="167.5483" y="10.8" style="stroke: #000000; stroke-width: 1.5"/>
      </g>
     </g>
    </g>
    <g id="xtick_19">
     <g id="line2d_43">
      <g>
       <use xlink:href="#m6f80be235f" x="175.756598" y="242.124" style="stroke: #000000; stroke-width: 1.5"/>
      </g>
     </g>
     <g id="line2d_44">
      <g>
       <use xlink:href="#m4f6c571b0a" x="175.756598" y="10.8" style="stroke: #000000; stroke-width: 1.5"/>
      </g>
     </g>
    </g>
    <g id="xtick_20">
     <g id="line2d_45">
      <g>
       <use xlink:href="#m6f80be235f" x="183.964895" y="242.124" style="stroke: #000000; stroke-width: 1.5"/>
      </g>
     </g>
     <g id="line2d_46">
      <g>
       <use xlink:href="#m4f6c571b0a" x="183.964895" y="10.8" style="stroke: #000000; stroke-width: 1.5"/>
      </g>
     </g>
    </g>
    <g id="xtick_21">
     <g id="line2d_47">
      <g>
       <use xlink:href="#m6f80be235f" x="192.173193" y="242.124" style="stroke: #000000; stroke-width: 1.5"/>
      </g>
     </g>
     <g id="line2d_48">
      <g>
       <use xlink:href="#m4f6c571b0a" x="192.173193" y="10.8" style="stroke: #000000; stroke-width: 1.5"/>
      </g>
     </g>
    </g>
    <g id="xtick_22">
     <g id="line2d_49">
      <g>
       <use xlink:href="#m6f80be235f" x="208.589789" y="242.124" style="stroke: #000000; stroke-width: 1.5"/>
      </g>
     </g>
     <g id="line2d_50">
      <g>
       <use xlink:href="#m4f6c571b0a" x="208.589789" y="10.8" style="stroke: #000000; stroke-width: 1.5"/>
      </g>
     </g>
    </g>
    <g id="xtick_23">
     <g id="line2d_51">
      <g>
       <use xlink:href="#m6f80be235f" x="216.798087" y="242.124" style="stroke: #000000; stroke-width: 1.5"/>
      </g>
     </g>
     <g id="line2d_52">
      <g>
       <use xlink:href="#m4f6c571b0a" x="216.798087" y="10.8" style="stroke: #000000; stroke-width: 1.5"/>
      </g>
     </g>
    </g>
    <g id="xtick_24">
     <g id="line2d_53">
      <g>
       <use xlink:href="#m6f80be235f" x="225.006385" y="242.124" style="stroke: #000000; stroke-width: 1.5"/>
      </g>
     </g>
     <g id="line2d_54">
      <g>
       <use xlink:href="#m4f6c571b0a" x="225.006385" y="10.8" style="stroke: #000000; stroke-width: 1.5"/>
      </g>
     </g>
    </g>
    <g id="xtick_25">
     <g id="line2d_55">
      <g>
       <use xlink:href="#m6f80be235f" x="233.214683" y="242.124" style="stroke: #000000; stroke-width: 1.5"/>
      </g>
     </g>
     <g id="line2d_56">
      <g>
       <use xlink:href="#m4f6c571b0a" x="233.214683" y="10.8" style="stroke: #000000; stroke-width: 1.5"/>
      </g>
     </g>
    </g>
    <g id="xtick_26">
     <g id="line2d_57">
      <g>
       <use xlink:href="#m6f80be235f" x="249.631278" y="242.124" style="stroke: #000000; stroke-width: 1.5"/>
      </g>
     </g>
     <g id="line2d_58">
      <g>
       <use xlink:href="#m4f6c571b0a" x="249.631278" y="10.8" style="stroke: #000000; stroke-width: 1.5"/>
      </g>
     </g>
    </g>
    <g id="xtick_27">
     <g id="line2d_59">
      <g>
       <use xlink:href="#m6f80be235f" x="257.839576" y="242.124" style="stroke: #000000; stroke-width: 1.5"/>
      </g>
     </g>
     <g id="line2d_60">
      <g>
       <use xlink:href="#m4f6c571b0a" x="257.839576" y="10.8" style="stroke: #000000; stroke-width: 1.5"/>
      </g>
     </g>
    </g>
    <g id="xtick_28">
     <g id="line2d_61">
      <g>
       <use xlink:href="#m6f80be235f" x="266.047874" y="242.124" style="stroke: #000000; stroke-width: 1.5"/>
      </g>
     </g>
     <g id="line2d_62">
      <g>
       <use xlink:href="#m4f6c571b0a" x="266.047874" y="10.8" style="stroke: #000000; stroke-width: 1.5"/>
      </g>
     </g>
    </g>
    <g id="xtick_29">
     <g id="line2d_63">
      <g>
       <use xlink:href="#m6f80be235f" x="274.256172" y="242.124" style="stroke: #000000; stroke-width: 1.5"/>
      </g>
     </g>
     <g id="line2d_64">
      <g>
       <use xlink:href="#m4f6c571b0a" x="274.256172" y="10.8" style="stroke: #000000; stroke-width: 1.5"/>
      </g>
     </g>
    </g>
    <g id="xtick_30">
     <g id="line2d_65">
      <g>
       <use xlink:href="#m6f80be235f" x="290.672767" y="242.124" style="stroke: #000000; stroke-width: 1.5"/>
      </g>
     </g>
     <g id="line2d_66">
      <g>
       <use xlink:href="#m4f6c571b0a" x="290.672767" y="10.8" style="stroke: #000000; stroke-width: 1.5"/>
      </g>
     </g>
    </g>
    <g id="xtick_31">
     <g id="line2d_67">
      <g>
       <use xlink:href="#m6f80be235f" x="298.881065" y="242.124" style="stroke: #000000; stroke-width: 1.5"/>
      </g>
     </g>
     <g id="line2d_68">
      <g>
       <use xlink:href="#m4f6c571b0a" x="298.881065" y="10.8" style="stroke: #000000; stroke-width: 1.5"/>
      </g>
     </g>
    </g>
    <g id="xtick_32">
     <g id="line2d_69">
      <g>
       <use xlink:href="#m6f80be235f" x="307.089363" y="242.124" style="stroke: #000000; stroke-width: 1.5"/>
      </g>
     </g>
     <g id="line2d_70">
      <g>
       <use xlink:href="#m4f6c571b0a" x="307.089363" y="10.8" style="stroke: #000000; stroke-width: 1.5"/>
      </g>
     </g>
    </g>
    <g id="xtick_33">
     <g id="line2d_71">
      <g>
       <use xlink:href="#m6f80be235f" x="315.297661" y="242.124" style="stroke: #000000; stroke-width: 1.5"/>
      </g>
     </g>
     <g id="line2d_72">
      <g>
       <use xlink:href="#m4f6c571b0a" x="315.297661" y="10.8" style="stroke: #000000; stroke-width: 1.5"/>
      </g>
     </g>
    </g>
    <g id="xtick_34">
     <g id="line2d_73">
      <g>
       <use xlink:href="#m6f80be235f" x="331.714257" y="242.124" style="stroke: #000000; stroke-width: 1.5"/>
      </g>
     </g>
     <g id="line2d_74">
      <g>
       <use xlink:href="#m4f6c571b0a" x="331.714257" y="10.8" style="stroke: #000000; stroke-width: 1.5"/>
      </g>
     </g>
    </g>
    <g id="xtick_35">
     <g id="line2d_75">
      <g>
       <use xlink:href="#m6f80be235f" x="339.922554" y="242.124" style="stroke: #000000; stroke-width: 1.5"/>
      </g>
     </g>
     <g id="line2d_76">
      <g>
       <use xlink:href="#m4f6c571b0a" x="339.922554" y="10.8" style="stroke: #000000; stroke-width: 1.5"/>
      </g>
     </g>
    </g>
    <g id="xtick_36">
     <g id="line2d_77">
      <g>
       <use xlink:href="#m6f80be235f" x="348.130852" y="242.124" style="stroke: #000000; stroke-width: 1.5"/>
      </g>
     </g>
     <g id="line2d_78">
      <g>
       <use xlink:href="#m4f6c571b0a" x="348.130852" y="10.8" style="stroke: #000000; stroke-width: 1.5"/>
      </g>
     </g>
    </g>
    <g id="xtick_37">
     <g id="line2d_79">
      <g>
       <use xlink:href="#m6f80be235f" x="356.33915" y="242.124" style="stroke: #000000; stroke-width: 1.5"/>
      </g>
     </g>
     <g id="line2d_80">
      <g>
       <use xlink:href="#m4f6c571b0a" x="356.33915" y="10.8" style="stroke: #000000; stroke-width: 1.5"/>
      </g>
     </g>
    </g>
    <g id="xtick_38">
     <g id="line2d_81">
      <g>
       <use xlink:href="#m6f80be235f" x="372.755746" y="242.124" style="stroke: #000000; stroke-width: 1.5"/>
      </g>
     </g>
     <g id="line2d_82">
      <g>
       <use xlink:href="#m4f6c571b0a" x="372.755746" y="10.8" style="stroke: #000000; stroke-width: 1.5"/>
      </g>
     </g>
    </g>
    <g id="xtick_39">
     <g id="line2d_83">
      <g>
       <use xlink:href="#m6f80be235f" x="380.964044" y="242.124" style="stroke: #000000; stroke-width: 1.5"/>
      </g>
     </g>
     <g id="line2d_84">
      <g>
       <use xlink:href="#m4f6c571b0a" x="380.964044" y="10.8" style="stroke: #000000; stroke-width: 1.5"/>
      </g>
     </g>
    </g>
    <g id="xtick_40">
     <g id="line2d_85">
      <g>
       <use xlink:href="#m6f80be235f" x="389.172342" y="242.124" style="stroke: #000000; stroke-width: 1.5"/>
      </g>
     </g>
     <g id="line2d_86">
      <g>
       <use xlink:href="#m4f6c571b0a" x="389.172342" y="10.8" style="stroke: #000000; stroke-width: 1.5"/>
      </g>
     </g>
    </g>
    <g id="xtick_41">
     <g id="line2d_87">
      <g>
       <use xlink:href="#m6f80be235f" x="397.380639" y="242.124" style="stroke: #000000; stroke-width: 1.5"/>
      </g>
     </g>
     <g id="line2d_88">
      <g>
       <use xlink:href="#m4f6c571b0a" x="397.380639" y="10.8" style="stroke: #000000; stroke-width: 1.5"/>
      </g>
     </g>
    </g>
    <g id="xtick_42">
     <g id="line2d_89">
      <g>
       <use xlink:href="#m6f80be235f" x="413.797235" y="242.124" style="stroke: #000000; stroke-width: 1.5"/>
      </g>
     </g>
     <g id="line2d_90">
      <g>
       <use xlink:href="#m4f6c571b0a" x="413.797235" y="10.8" style="stroke: #000000; stroke-width: 1.5"/>
      </g>
     </g>
    </g>
    <g id="text_13">
     <!-- Distance [R$_\odot$] -->
     <g transform="translate(204.253259 270.355875) scale(0.12 -0.12)">
      <defs>
       <path id="DejaVuSans-44" d="M 1259 4147 
L 1259 519 
L 2022 519 
Q 2988 519 3436 956 
Q 3884 1394 3884 2338 
Q 3884 3275 3436 3711 
Q 2988 4147 2022 4147 
L 1259 4147 
z
M 628 4666 
L 1925 4666 
Q 3281 4666 3915 4102 
Q 4550 3538 4550 2338 
Q 4550 1131 3912 565 
Q 3275 0 1925 0 
L 628 0 
L 628 4666 
z
" transform="scale(0.015625)"/>
       <path id="DejaVuSans-63" d="M 3122 3366 
L 3122 2828 
Q 2878 2963 2633 3030 
Q 2388 3097 2138 3097 
Q 1578 3097 1268 2742 
Q 959 2388 959 1747 
Q 959 1106 1268 751 
Q 1578 397 2138 397 
Q 2388 397 2633 464 
Q 2878 531 3122 666 
L 3122 134 
Q 2881 22 2623 -34 
Q 2366 -91 2075 -91 
Q 1284 -91 818 406 
Q 353 903 353 1747 
Q 353 2603 823 3093 
Q 1294 3584 2113 3584 
Q 2378 3584 2631 3529 
Q 2884 3475 3122 3366 
z
" transform="scale(0.015625)"/>
       <path id="DejaVuSans-65" d="M 3597 1894 
L 3597 1613 
L 953 1613 
Q 991 1019 1311 708 
Q 1631 397 2203 397 
Q 2534 397 2845 478 
Q 3156 559 3463 722 
L 3463 178 
Q 3153 47 2828 -22 
Q 2503 -91 2169 -91 
Q 1331 -91 842 396 
Q 353 884 353 1716 
Q 353 2575 817 3079 
Q 1281 3584 2069 3584 
Q 2775 3584 3186 3129 
Q 3597 2675 3597 1894 
z
M 3022 2063 
Q 3016 2534 2758 2815 
Q 2500 3097 2075 3097 
Q 1594 3097 1305 2825 
Q 1016 2553 972 2059 
L 3022 2063 
z
" transform="scale(0.015625)"/>
       <path id="DejaVuSans-5b" d="M 550 4863 
L 1875 4863 
L 1875 4416 
L 1125 4416 
L 1125 -397 
L 1875 -397 
L 1875 -844 
L 550 -844 
L 550 4863 
z
" transform="scale(0.015625)"/>
       <path id="DejaVuSans-52" d="M 2841 2188 
Q 3044 2119 3236 1894 
Q 3428 1669 3622 1275 
L 4263 0 
L 3584 0 
L 2988 1197 
Q 2756 1666 2539 1819 
Q 2322 1972 1947 1972 
L 1259 1972 
L 1259 0 
L 628 0 
L 628 4666 
L 2053 4666 
Q 2853 4666 3247 4331 
Q 3641 3997 3641 3322 
Q 3641 2881 3436 2590 
Q 3231 2300 2841 2188 
z
M 1259 4147 
L 1259 2491 
L 2053 2491 
Q 2509 2491 2742 2702 
Q 2975 2913 2975 3322 
Q 2975 3731 2742 3939 
Q 2509 4147 2053 4147 
L 1259 4147 
z
" transform="scale(0.015625)"/>
       <path id="DejaVuSans-2299" d="M 2350 2403 
L 3013 2403 
L 3013 1609 
L 2350 1609 
L 2350 2403 
z
M 3306 3522 
Q 3016 3644 2681 3644 
Q 2347 3644 2056 3522 
Q 1769 3400 1531 3163 
Q 1291 2922 1172 2634 
Q 1053 2347 1053 2006 
Q 1053 1675 1172 1387 
Q 1291 1100 1531 859 
Q 1769 622 2056 500 
Q 2347 378 2681 378 
Q 3016 378 3306 500 
Q 3594 622 3831 859 
Q 4072 1100 4190 1387 
Q 4309 1675 4309 2006 
Q 4309 2347 4190 2634 
Q 4072 2922 3831 3163 
Q 3594 3400 3306 3522 
z
M 1878 3956 
Q 2250 4113 2681 4113 
Q 3113 4113 3484 3956 
Q 3856 3800 4163 3494 
Q 4472 3184 4625 2813 
Q 4778 2444 4778 2006 
Q 4778 1578 4625 1206 
Q 4472 838 4163 528 
Q 3856 222 3484 65 
Q 3113 -91 2681 -91 
Q 2250 -91 1878 65 
Q 1506 222 1200 528 
Q 891 838 738 1206 
Q 584 1578 584 2006 
Q 584 2444 738 2813 
Q 891 3184 1200 3494 
Q 1506 3800 1878 3956 
z
" transform="scale(0.015625)"/>
       <path id="DejaVuSans-5d" d="M 1947 4863 
L 1947 -844 
L 622 -844 
L 622 -397 
L 1369 -397 
L 1369 4416 
L 622 4416 
L 622 4863 
L 1947 4863 
z
" transform="scale(0.015625)"/>
      </defs>
      <use xlink:href="#DejaVuSans-44" transform="translate(0 0.015625)"/>
      <use xlink:href="#DejaVuSans-69" transform="translate(77.001953 0.015625)"/>
      <use xlink:href="#DejaVuSans-73" transform="translate(104.785156 0.015625)"/>
      <use xlink:href="#DejaVuSans-74" transform="translate(156.884766 0.015625)"/>
      <use xlink:href="#DejaVuSans-61" transform="translate(196.09375 0.015625)"/>
      <use xlink:href="#DejaVuSans-6e" transform="translate(257.373047 0.015625)"/>
      <use xlink:href="#DejaVuSans-63" transform="translate(320.751953 0.015625)"/>
      <use xlink:href="#DejaVuSans-65" transform="translate(375.732422 0.015625)"/>
      <use xlink:href="#DejaVuSans-20" transform="translate(437.255859 0.015625)"/>
      <use xlink:href="#DejaVuSans-5b" transform="translate(469.042969 0.015625)"/>
      <use xlink:href="#DejaVuSans-52" transform="translate(504.931641 0.015625)"/>
      <use xlink:href="#DejaVuSans-2299" transform="translate(589.008789 -16.390625) scale(0.7)"/>
      <use xlink:href="#DejaVuSans-5d" transform="translate(664.033203 0.015625)"/>
     </g>
    </g>
   </g>
   <g id="matplotlib.axis_2">
    <g id="ytick_1">
     <g id="line2d_91">
      <defs>
       <path id="m5382568edb" d="M 0 0 
L 3.5 0 
" style="stroke: #000000; stroke-width: 1.5"/>
      </defs>
      <g>
       <use xlink:href="#m5382568edb" x="71.786518" y="192.544084" style="stroke: #000000; stroke-width: 1.5"/>
      </g>
     </g>
     <g id="line2d_92">
      <defs>
       <path id="m0a785b6b77" d="M 0 0 
L -3.5 0 
" style="stroke: #000000; stroke-width: 1.5"/>
      </defs>
      <g>
       <use xlink:href="#m0a785b6b77" x="421.2" y="192.544084" style="stroke: #000000; stroke-width: 1.5"/>
      </g>
     </g>
     <g id="text_14">
      <!-- $\mathdefault{10^{-16}}$ -->
      <g transform="translate(34.806518 197.103147) scale(0.12 -0.12)">
       <defs>
        <path id="DejaVuSans-2212" d="M 678 2272 
L 4684 2272 
L 4684 1741 
L 678 1741 
L 678 2272 
z
" transform="scale(0.015625)"/>
        <path id="DejaVuSans-36" d="M 2113 2584 
Q 1688 2584 1439 2293 
Q 1191 2003 1191 1497 
Q 1191 994 1439 701 
Q 1688 409 2113 409 
Q 2538 409 2786 701 
Q 3034 994 3034 1497 
Q 3034 2003 2786 2293 
Q 2538 2584 2113 2584 
z
M 3366 4563 
L 3366 3988 
Q 3128 4100 2886 4159 
Q 2644 4219 2406 4219 
Q 1781 4219 1451 3797 
Q 1122 3375 1075 2522 
Q 1259 2794 1537 2939 
Q 1816 3084 2150 3084 
Q 2853 3084 3261 2657 
Q 3669 2231 3669 1497 
Q 3669 778 3244 343 
Q 2819 -91 2113 -91 
Q 1303 -91 875 529 
Q 447 1150 447 2328 
Q 447 3434 972 4092 
Q 1497 4750 2381 4750 
Q 2619 4750 2861 4703 
Q 3103 4656 3366 4563 
z
" transform="scale(0.015625)"/>
       </defs>
       <use xlink:href="#DejaVuSans-31" transform="translate(0 0.765625)"/>
       <use xlink:href="#DejaVuSans-30" transform="translate(63.623047 0.765625)"/>
       <use xlink:href="#DejaVuSans-2212" transform="translate(128.203125 39.046875) scale(0.7)"/>
       <use xlink:href="#DejaVuSans-31" transform="translate(186.855469 39.046875) scale(0.7)"/>
       <use xlink:href="#DejaVuSans-36" transform="translate(231.391602 39.046875) scale(0.7)"/>
      </g>
     </g>
    </g>
    <g id="ytick_2">
     <g id="line2d_93">
      <g>
       <use xlink:href="#m5382568edb" x="71.786518" y="137.459619" style="stroke: #000000; stroke-width: 1.5"/>
      </g>
     </g>
     <g id="line2d_94">
      <g>
       <use xlink:href="#m0a785b6b77" x="421.2" y="137.459619" style="stroke: #000000; stroke-width: 1.5"/>
      </g>
     </g>
     <g id="text_15">
      <!-- $\mathdefault{10^{-15}}$ -->
      <g transform="translate(34.806518 142.018681) scale(0.12 -0.12)">
       <use xlink:href="#DejaVuSans-31" transform="translate(0 0.684375)"/>
       <use xlink:href="#DejaVuSans-30" transform="translate(63.623047 0.684375)"/>
       <use xlink:href="#DejaVuSans-2212" transform="translate(128.203125 38.965625) scale(0.7)"/>
       <use xlink:href="#DejaVuSans-31" transform="translate(186.855469 38.965625) scale(0.7)"/>
       <use xlink:href="#DejaVuSans-35" transform="translate(231.391602 38.965625) scale(0.7)"/>
      </g>
     </g>
    </g>
    <g id="ytick_3">
     <g id="line2d_95">
      <g>
       <use xlink:href="#m5382568edb" x="71.786518" y="82.375154" style="stroke: #000000; stroke-width: 1.5"/>
      </g>
     </g>
     <g id="line2d_96">
      <g>
       <use xlink:href="#m0a785b6b77" x="421.2" y="82.375154" style="stroke: #000000; stroke-width: 1.5"/>
      </g>
     </g>
     <g id="text_16">
      <!-- $\mathdefault{10^{-14}}$ -->
      <g transform="translate(34.806518 86.934216) scale(0.12 -0.12)">
       <use xlink:href="#DejaVuSans-31" transform="translate(0 0.684375)"/>
       <use xlink:href="#DejaVuSans-30" transform="translate(63.623047 0.684375)"/>
       <use xlink:href="#DejaVuSans-2212" transform="translate(128.203125 38.965625) scale(0.7)"/>
       <use xlink:href="#DejaVuSans-31" transform="translate(186.855469 38.965625) scale(0.7)"/>
       <use xlink:href="#DejaVuSans-34" transform="translate(231.391602 38.965625) scale(0.7)"/>
      </g>
     </g>
    </g>
    <g id="ytick_4">
     <g id="line2d_97">
      <g>
       <use xlink:href="#m5382568edb" x="71.786518" y="27.290688" style="stroke: #000000; stroke-width: 1.5"/>
      </g>
     </g>
     <g id="line2d_98">
      <g>
       <use xlink:href="#m0a785b6b77" x="421.2" y="27.290688" style="stroke: #000000; stroke-width: 1.5"/>
      </g>
     </g>
     <g id="text_17">
      <!-- $\mathdefault{10^{-13}}$ -->
      <g transform="translate(34.806518 31.849751) scale(0.12 -0.12)">
       <use xlink:href="#DejaVuSans-31" transform="translate(0 0.765625)"/>
       <use xlink:href="#DejaVuSans-30" transform="translate(63.623047 0.765625)"/>
       <use xlink:href="#DejaVuSans-2212" transform="translate(128.203125 39.046875) scale(0.7)"/>
       <use xlink:href="#DejaVuSans-31" transform="translate(186.855469 39.046875) scale(0.7)"/>
       <use xlink:href="#DejaVuSans-33" transform="translate(231.391602 39.046875) scale(0.7)"/>
      </g>
     </g>
    </g>
    <g id="ytick_5">
     <g id="line2d_99">
      <defs>
       <path id="mf21b8cd607" d="M 0 0 
L 2 0 
" style="stroke: #000000; stroke-width: 1.5"/>
      </defs>
      <g>
       <use xlink:href="#mf21b8cd607" x="71.786518" y="231.046473" style="stroke: #000000; stroke-width: 1.5"/>
      </g>
     </g>
     <g id="line2d_100">
      <defs>
       <path id="m495e4b26bd" d="M 0 0 
L -2 0 
" style="stroke: #000000; stroke-width: 1.5"/>
      </defs>
      <g>
       <use xlink:href="#m495e4b26bd" x="421.2" y="231.046473" style="stroke: #000000; stroke-width: 1.5"/>
      </g>
     </g>
    </g>
    <g id="ytick_6">
     <g id="line2d_101">
      <g>
       <use xlink:href="#mf21b8cd607" x="71.786518" y="221.34658" style="stroke: #000000; stroke-width: 1.5"/>
      </g>
     </g>
     <g id="line2d_102">
      <g>
       <use xlink:href="#m495e4b26bd" x="421.2" y="221.34658" style="stroke: #000000; stroke-width: 1.5"/>
      </g>
     </g>
    </g>
    <g id="ytick_7">
     <g id="line2d_103">
      <g>
       <use xlink:href="#mf21b8cd607" x="71.786518" y="214.464397" style="stroke: #000000; stroke-width: 1.5"/>
      </g>
     </g>
     <g id="line2d_104">
      <g>
       <use xlink:href="#m495e4b26bd" x="421.2" y="214.464397" style="stroke: #000000; stroke-width: 1.5"/>
      </g>
     </g>
    </g>
    <g id="ytick_8">
     <g id="line2d_105">
      <g>
       <use xlink:href="#mf21b8cd607" x="71.786518" y="209.12616" style="stroke: #000000; stroke-width: 1.5"/>
      </g>
     </g>
     <g id="line2d_106">
      <g>
       <use xlink:href="#m495e4b26bd" x="421.2" y="209.12616" style="stroke: #000000; stroke-width: 1.5"/>
      </g>
     </g>
    </g>
    <g id="ytick_9">
     <g id="line2d_107">
      <g>
       <use xlink:href="#mf21b8cd607" x="71.786518" y="204.764504" style="stroke: #000000; stroke-width: 1.5"/>
      </g>
     </g>
     <g id="line2d_108">
      <g>
       <use xlink:href="#m495e4b26bd" x="421.2" y="204.764504" style="stroke: #000000; stroke-width: 1.5"/>
      </g>
     </g>
    </g>
    <g id="ytick_10">
     <g id="line2d_109">
      <g>
       <use xlink:href="#mf21b8cd607" x="71.786518" y="201.076776" style="stroke: #000000; stroke-width: 1.5"/>
      </g>
     </g>
     <g id="line2d_110">
      <g>
       <use xlink:href="#m495e4b26bd" x="421.2" y="201.076776" style="stroke: #000000; stroke-width: 1.5"/>
      </g>
     </g>
    </g>
    <g id="ytick_11">
     <g id="line2d_111">
      <g>
       <use xlink:href="#mf21b8cd607" x="71.786518" y="197.88232" style="stroke: #000000; stroke-width: 1.5"/>
      </g>
     </g>
     <g id="line2d_112">
      <g>
       <use xlink:href="#m495e4b26bd" x="421.2" y="197.88232" style="stroke: #000000; stroke-width: 1.5"/>
      </g>
     </g>
    </g>
    <g id="ytick_12">
     <g id="line2d_113">
      <g>
       <use xlink:href="#mf21b8cd607" x="71.786518" y="195.064611" style="stroke: #000000; stroke-width: 1.5"/>
      </g>
     </g>
     <g id="line2d_114">
      <g>
       <use xlink:href="#m495e4b26bd" x="421.2" y="195.064611" style="stroke: #000000; stroke-width: 1.5"/>
      </g>
     </g>
    </g>
    <g id="ytick_13">
     <g id="line2d_115">
      <g>
       <use xlink:href="#mf21b8cd607" x="71.786518" y="175.962008" style="stroke: #000000; stroke-width: 1.5"/>
      </g>
     </g>
     <g id="line2d_116">
      <g>
       <use xlink:href="#m495e4b26bd" x="421.2" y="175.962008" style="stroke: #000000; stroke-width: 1.5"/>
      </g>
     </g>
    </g>
    <g id="ytick_14">
     <g id="line2d_117">
      <g>
       <use xlink:href="#mf21b8cd607" x="71.786518" y="166.262115" style="stroke: #000000; stroke-width: 1.5"/>
      </g>
     </g>
     <g id="line2d_118">
      <g>
       <use xlink:href="#m495e4b26bd" x="421.2" y="166.262115" style="stroke: #000000; stroke-width: 1.5"/>
      </g>
     </g>
    </g>
    <g id="ytick_15">
     <g id="line2d_119">
      <g>
       <use xlink:href="#mf21b8cd607" x="71.786518" y="159.379931" style="stroke: #000000; stroke-width: 1.5"/>
      </g>
     </g>
     <g id="line2d_120">
      <g>
       <use xlink:href="#m495e4b26bd" x="421.2" y="159.379931" style="stroke: #000000; stroke-width: 1.5"/>
      </g>
     </g>
    </g>
    <g id="ytick_16">
     <g id="line2d_121">
      <g>
       <use xlink:href="#mf21b8cd607" x="71.786518" y="154.041695" style="stroke: #000000; stroke-width: 1.5"/>
      </g>
     </g>
     <g id="line2d_122">
      <g>
       <use xlink:href="#m495e4b26bd" x="421.2" y="154.041695" style="stroke: #000000; stroke-width: 1.5"/>
      </g>
     </g>
    </g>
    <g id="ytick_17">
     <g id="line2d_123">
      <g>
       <use xlink:href="#mf21b8cd607" x="71.786518" y="149.680039" style="stroke: #000000; stroke-width: 1.5"/>
      </g>
     </g>
     <g id="line2d_124">
      <g>
       <use xlink:href="#m495e4b26bd" x="421.2" y="149.680039" style="stroke: #000000; stroke-width: 1.5"/>
      </g>
     </g>
    </g>
    <g id="ytick_18">
     <g id="line2d_125">
      <g>
       <use xlink:href="#mf21b8cd607" x="71.786518" y="145.99231" style="stroke: #000000; stroke-width: 1.5"/>
      </g>
     </g>
     <g id="line2d_126">
      <g>
       <use xlink:href="#m495e4b26bd" x="421.2" y="145.99231" style="stroke: #000000; stroke-width: 1.5"/>
      </g>
     </g>
    </g>
    <g id="ytick_19">
     <g id="line2d_127">
      <g>
       <use xlink:href="#mf21b8cd607" x="71.786518" y="142.797855" style="stroke: #000000; stroke-width: 1.5"/>
      </g>
     </g>
     <g id="line2d_128">
      <g>
       <use xlink:href="#m495e4b26bd" x="421.2" y="142.797855" style="stroke: #000000; stroke-width: 1.5"/>
      </g>
     </g>
    </g>
    <g id="ytick_20">
     <g id="line2d_129">
      <g>
       <use xlink:href="#mf21b8cd607" x="71.786518" y="139.980146" style="stroke: #000000; stroke-width: 1.5"/>
      </g>
     </g>
     <g id="line2d_130">
      <g>
       <use xlink:href="#m495e4b26bd" x="421.2" y="139.980146" style="stroke: #000000; stroke-width: 1.5"/>
      </g>
     </g>
    </g>
    <g id="ytick_21">
     <g id="line2d_131">
      <g>
       <use xlink:href="#mf21b8cd607" x="71.786518" y="120.877543" style="stroke: #000000; stroke-width: 1.5"/>
      </g>
     </g>
     <g id="line2d_132">
      <g>
       <use xlink:href="#m495e4b26bd" x="421.2" y="120.877543" style="stroke: #000000; stroke-width: 1.5"/>
      </g>
     </g>
    </g>
    <g id="ytick_22">
     <g id="line2d_133">
      <g>
       <use xlink:href="#mf21b8cd607" x="71.786518" y="111.17765" style="stroke: #000000; stroke-width: 1.5"/>
      </g>
     </g>
     <g id="line2d_134">
      <g>
       <use xlink:href="#m495e4b26bd" x="421.2" y="111.17765" style="stroke: #000000; stroke-width: 1.5"/>
      </g>
     </g>
    </g>
    <g id="ytick_23">
     <g id="line2d_135">
      <g>
       <use xlink:href="#mf21b8cd607" x="71.786518" y="104.295466" style="stroke: #000000; stroke-width: 1.5"/>
      </g>
     </g>
     <g id="line2d_136">
      <g>
       <use xlink:href="#m495e4b26bd" x="421.2" y="104.295466" style="stroke: #000000; stroke-width: 1.5"/>
      </g>
     </g>
    </g>
    <g id="ytick_24">
     <g id="line2d_137">
      <g>
       <use xlink:href="#mf21b8cd607" x="71.786518" y="98.95723" style="stroke: #000000; stroke-width: 1.5"/>
      </g>
     </g>
     <g id="line2d_138">
      <g>
       <use xlink:href="#m495e4b26bd" x="421.2" y="98.95723" style="stroke: #000000; stroke-width: 1.5"/>
      </g>
     </g>
    </g>
    <g id="ytick_25">
     <g id="line2d_139">
      <g>
       <use xlink:href="#mf21b8cd607" x="71.786518" y="94.595573" style="stroke: #000000; stroke-width: 1.5"/>
      </g>
     </g>
     <g id="line2d_140">
      <g>
       <use xlink:href="#m495e4b26bd" x="421.2" y="94.595573" style="stroke: #000000; stroke-width: 1.5"/>
      </g>
     </g>
    </g>
    <g id="ytick_26">
     <g id="line2d_141">
      <g>
       <use xlink:href="#mf21b8cd607" x="71.786518" y="90.907845" style="stroke: #000000; stroke-width: 1.5"/>
      </g>
     </g>
     <g id="line2d_142">
      <g>
       <use xlink:href="#m495e4b26bd" x="421.2" y="90.907845" style="stroke: #000000; stroke-width: 1.5"/>
      </g>
     </g>
    </g>
    <g id="ytick_27">
     <g id="line2d_143">
      <g>
       <use xlink:href="#mf21b8cd607" x="71.786518" y="87.71339" style="stroke: #000000; stroke-width: 1.5"/>
      </g>
     </g>
     <g id="line2d_144">
      <g>
       <use xlink:href="#m495e4b26bd" x="421.2" y="87.71339" style="stroke: #000000; stroke-width: 1.5"/>
      </g>
     </g>
    </g>
    <g id="ytick_28">
     <g id="line2d_145">
      <g>
       <use xlink:href="#mf21b8cd607" x="71.786518" y="84.895681" style="stroke: #000000; stroke-width: 1.5"/>
      </g>
     </g>
     <g id="line2d_146">
      <g>
       <use xlink:href="#m495e4b26bd" x="421.2" y="84.895681" style="stroke: #000000; stroke-width: 1.5"/>
      </g>
     </g>
    </g>
    <g id="ytick_29">
     <g id="line2d_147">
      <g>
       <use xlink:href="#mf21b8cd607" x="71.786518" y="65.793077" style="stroke: #000000; stroke-width: 1.5"/>
      </g>
     </g>
     <g id="line2d_148">
      <g>
       <use xlink:href="#m495e4b26bd" x="421.2" y="65.793077" style="stroke: #000000; stroke-width: 1.5"/>
      </g>
     </g>
    </g>
    <g id="ytick_30">
     <g id="line2d_149">
      <g>
       <use xlink:href="#mf21b8cd607" x="71.786518" y="56.093184" style="stroke: #000000; stroke-width: 1.5"/>
      </g>
     </g>
     <g id="line2d_150">
      <g>
       <use xlink:href="#m495e4b26bd" x="421.2" y="56.093184" style="stroke: #000000; stroke-width: 1.5"/>
      </g>
     </g>
    </g>
    <g id="ytick_31">
     <g id="line2d_151">
      <g>
       <use xlink:href="#mf21b8cd607" x="71.786518" y="49.211001" style="stroke: #000000; stroke-width: 1.5"/>
      </g>
     </g>
     <g id="line2d_152">
      <g>
       <use xlink:href="#m495e4b26bd" x="421.2" y="49.211001" style="stroke: #000000; stroke-width: 1.5"/>
      </g>
     </g>
    </g>
    <g id="ytick_32">
     <g id="line2d_153">
      <g>
       <use xlink:href="#mf21b8cd607" x="71.786518" y="43.872765" style="stroke: #000000; stroke-width: 1.5"/>
      </g>
     </g>
     <g id="line2d_154">
      <g>
       <use xlink:href="#m495e4b26bd" x="421.2" y="43.872765" style="stroke: #000000; stroke-width: 1.5"/>
      </g>
     </g>
    </g>
    <g id="ytick_33">
     <g id="line2d_155">
      <g>
       <use xlink:href="#mf21b8cd607" x="71.786518" y="39.511108" style="stroke: #000000; stroke-width: 1.5"/>
      </g>
     </g>
     <g id="line2d_156">
      <g>
       <use xlink:href="#m495e4b26bd" x="421.2" y="39.511108" style="stroke: #000000; stroke-width: 1.5"/>
      </g>
     </g>
    </g>
    <g id="ytick_34">
     <g id="line2d_157">
      <g>
       <use xlink:href="#mf21b8cd607" x="71.786518" y="35.82338" style="stroke: #000000; stroke-width: 1.5"/>
      </g>
     </g>
     <g id="line2d_158">
      <g>
       <use xlink:href="#m495e4b26bd" x="421.2" y="35.82338" style="stroke: #000000; stroke-width: 1.5"/>
      </g>
     </g>
    </g>
    <g id="ytick_35">
     <g id="line2d_159">
      <g>
       <use xlink:href="#mf21b8cd607" x="71.786518" y="32.628925" style="stroke: #000000; stroke-width: 1.5"/>
      </g>
     </g>
     <g id="line2d_160">
      <g>
       <use xlink:href="#m495e4b26bd" x="421.2" y="32.628925" style="stroke: #000000; stroke-width: 1.5"/>
      </g>
     </g>
    </g>
    <g id="ytick_36">
     <g id="line2d_161">
      <g>
       <use xlink:href="#mf21b8cd607" x="71.786518" y="29.811215" style="stroke: #000000; stroke-width: 1.5"/>
      </g>
     </g>
     <g id="line2d_162">
      <g>
       <use xlink:href="#m495e4b26bd" x="421.2" y="29.811215" style="stroke: #000000; stroke-width: 1.5"/>
      </g>
     </g>
    </g>
    <g id="text_18">
     <!-- $\dot{M}$ [M$_\odot$ yr$^{-1}$] -->
     <g transform="translate(28.286518 163.122) rotate(-90) scale(0.12 -0.12)">
      <defs>
       <path id="DejaVuSans-307" d="M -1894 4863 
L -1319 4863 
L -1319 4134 
L -1894 4134 
L -1894 4863 
z
M -1600 3584 
L -1600 3584 
z
" transform="scale(0.015625)"/>
       <path id="DejaVuSans-Oblique-4d" d="M 1081 4666 
L 2028 4666 
L 2572 1522 
L 4378 4666 
L 5350 4666 
L 4441 0 
L 3828 0 
L 4622 4091 
L 2791 897 
L 2175 897 
L 1581 4103 
L 788 0 
L 172 0 
L 1081 4666 
z
" transform="scale(0.015625)"/>
       <path id="DejaVuSans-4d" d="M 628 4666 
L 1569 4666 
L 2759 1491 
L 3956 4666 
L 4897 4666 
L 4897 0 
L 4281 0 
L 4281 4097 
L 3078 897 
L 2444 897 
L 1241 4097 
L 1241 0 
L 628 0 
L 628 4666 
z
" transform="scale(0.015625)"/>
       <path id="DejaVuSans-79" d="M 2059 -325 
Q 1816 -950 1584 -1140 
Q 1353 -1331 966 -1331 
L 506 -1331 
L 506 -850 
L 844 -850 
Q 1081 -850 1212 -737 
Q 1344 -625 1503 -206 
L 1606 56 
L 191 3500 
L 800 3500 
L 1894 763 
L 2988 3500 
L 3597 3500 
L 2059 -325 
z
" transform="scale(0.015625)"/>
       <path id="DejaVuSans-72" d="M 2631 2963 
Q 2534 3019 2420 3045 
Q 2306 3072 2169 3072 
Q 1681 3072 1420 2755 
Q 1159 2438 1159 1844 
L 1159 0 
L 581 0 
L 581 3500 
L 1159 3500 
L 1159 2956 
Q 1341 3275 1631 3429 
Q 1922 3584 2338 3584 
Q 2397 3584 2469 3576 
Q 2541 3569 2628 3553 
L 2631 2963 
z
" transform="scale(0.015625)"/>
      </defs>
      <use xlink:href="#DejaVuSans-307" transform="translate(79.163574 30.015625)"/>
      <use xlink:href="#DejaVuSans-Oblique-4d" transform="translate(0 0.609375)"/>
      <use xlink:href="#DejaVuSans-20" transform="translate(86.279297 0.609375)"/>
      <use xlink:href="#DejaVuSans-5b" transform="translate(118.066406 0.609375)"/>
      <use xlink:href="#DejaVuSans-4d" transform="translate(157.080078 0.609375)"/>
      <use xlink:href="#DejaVuSans-2299" transform="translate(257.954102 -15.796875) scale(0.7)"/>
      <use xlink:href="#DejaVuSans-20" transform="translate(332.978516 0.609375)"/>
      <use xlink:href="#DejaVuSans-79" transform="translate(364.765625 0.609375)"/>
      <use xlink:href="#DejaVuSans-72" transform="translate(423.945312 0.609375)"/>
      <use xlink:href="#DejaVuSans-2212" transform="translate(466.015625 38.890625) scale(0.7)"/>
      <use xlink:href="#DejaVuSans-31" transform="translate(524.667969 38.890625) scale(0.7)"/>
      <use xlink:href="#DejaVuSans-5d" transform="translate(571.938477 0.609375)"/>
     </g>
    </g>
   </g>
  </g>
 </g>
 <defs>
  <clipPath id="p1e157f3bcf">
   <rect x="71.786518" y="10.8" width="349.413482" height="231.324"/>
  </clipPath>
 </defs>
</svg>
