<?xml version="1.0" encoding="utf-8" standalone="no"?>
<!DOCTYPE svg PUBLIC "-//W3C//DTD SVG 1.1//EN"
  "http://www.w3.org/Graphics/SVG/1.1/DTD/svg11.dtd">
<svg xmlns:xlink="http://www.w3.org/1999/xlink" width="432pt" height="288pt" viewBox="0 0 432 288" xmlns="http://www.w3.org/2000/svg" version="1.1">
 <metadata>
  <rdf:RDF xmlns:dc="http://purl.org/dc/elements/1.1/" xmlns:cc="http://creativecommons.org/ns#" xmlns:rdf="http://www.w3.org/1999/02/22-rdf-syntax-ns#">
   <cc:Work>
    <dc:type rdf:resource="http://purl.org/dc/dcmitype/StillImage"/>
    <dc:date>2022-11-14T15:53:21.035858</dc:date>
    <dc:format>image/svg+xml</dc:format>
    <dc:creator>
     <cc:Agent>
      <dc:title>Matplotlib v3.6.1, https://matplotlib.org/</dc:title>
     </cc:Agent>
    </dc:creator>
   </cc:Work>
  </rdf:RDF>
 </metadata>
 <defs>
  <style type="text/css">*{stroke-linejoin: round; stroke-linecap: butt}</style>
 </defs>
 <g id="figure_1">
  <g id="patch_1">
   <path d="M 0 288 
L 432 288 
L 432 0 
L 0 0 
z
" style="fill: #ffffff"/>
  </g>
  <g id="axes_1">
   <g id="patch_2">
    <path d="M 71.786518 242.124 
L 421.2 242.124 
L 421.2 10.8 
L 71.786518 10.8 
z
" style="fill: #ffffff"/>
   </g>
   <g id="patch_3">
    <path d="M 71.786518 242.124 
L 71.786518 10.8 
" style="fill: none; stroke: #000000; stroke-width: 1.5; stroke-linejoin: miter; stroke-linecap: square"/>
   </g>
   <g id="patch_4">
    <path d="M 421.2 242.124 
L 421.2 10.8 
" style="fill: none; stroke: #000000; stroke-width: 1.5; stroke-linejoin: miter; stroke-linecap: square"/>
   </g>
   <g id="patch_5">
    <path d="M 71.786518 242.124 
L 421.2 242.124 
" style="fill: none; stroke: #000000; stroke-width: 1.5; stroke-linejoin: miter; stroke-linecap: square"/>
   </g>
   <g id="patch_6">
    <path d="M 71.786518 10.8 
L 421.2 10.8 
" style="fill: none; stroke: #000000; stroke-width: 1.5; stroke-linejoin: miter; stroke-linecap: square"/>
   </g>
   <g id="PolyCollection_1">
    <path d="M 208.454622 39.938455 
L 208.454622 77.505763 
L 208.948123 79.463349 
L 209.801483 102.220811 
L 210.625728 66.433304 
L 211.454067 67.275537 
L 212.253715 61.816933 
L 213.098715 60.00163 
L 213.92045 58.815653 
L 214.741888 61.318721 
L 215.563243 63.466988 
L 216.384596 66.552693 
L 217.205716 66.283862 
L 218.0268 66.061093 
L 218.848019 69.952876 
L 219.668969 71.697544 
L 220.489927 68.539484 
L 221.310952 73.414573 
L 222.131939 77.03329 
L 222.952926 83.888249 
L 223.773821 87.83117 
L 224.594776 75.519442 
L 225.41571 75.069874 
L 226.236484 71.917396 
L 227.057341 74.838448 
L 227.878429 81.501417 
L 228.699286 80.652317 
L 229.51982 85.919945 
L 230.340831 96.817471 
L 231.161753 55569.547922 
L 231.98263 55569.547922 
L 232.803622 55569.547922 
L 233.624684 55569.547922 
L 234.445551 55569.547922 
L 235.266259 55569.547922 
L 236.087636 55569.547922 
L 236.907824 55569.547922 
L 237.728676 55569.547922 
L 238.549345 55569.547922 
L 239.370315 55569.547922 
L 240.191262 55569.547922 
L 241.01216 55569.547922 
L 241.832999 55569.547922 
L 242.653792 55569.547922 
L 243.474566 55569.547922 
L 244.417687 72.747945 
L 245.088191 87.209205 
L 245.925206 84.003859 
L 246.751506 111.599625 
L 247.574074 55569.547922 
L 248.395766 55569.547922 
L 249.217464 55569.547922 
L 250.039079 55569.547922 
L 250.860211 133.327359 
L 251.681233 132.578337 
L 252.502249 118.712678 
L 253.323154 109.575407 
L 254.144379 85.67874 
L 254.96534 83.837936 
L 255.786186 84.096655 
L 256.607269 82.192355 
L 257.428284 84.787935 
L 258.24929 83.534398 
L 259.070034 86.091653 
L 259.891021 83.935473 
L 260.711894 87.8433 
L 261.532628 87.692861 
L 262.353289 87.481137 
L 263.174148 73.234625 
L 263.995373 86.25462 
L 264.816129 78.884909 
L 265.636673 84.692085 
L 266.457845 78.907613 
L 267.278742 76.271156 
L 268.099376 80.201034 
L 268.919348 82.739001 
L 269.743518 87.522523 
L 270.560658 91.395602 
L 271.382188 82.998138 
L 272.200027 83.925867 
L 273.023024 77.691708 
L 273.845978 71.681985 
L 274.663653 75.45292 
L 275.487214 69.068053 
L 276.308205 67.5345 
L 277.131176 70.710208 
L 277.949814 87.642783 
L 278.770706 78.510313 
L 279.589661 68.312744 
L 280.412354 68.295777 
L 281.233043 73.58151 
L 282.053875 77.724081 
L 282.875139 82.091921 
L 283.695542 87.906931 
L 284.516476 111.630362 
L 285.343213 95.572675 
L 286.215366 55569.547922 
L 286.981374 55569.547922 
L 287.799582 55569.547922 
L 288.620824 55569.547922 
L 289.458621 159.637896 
L 290.24089 55569.547922 
L 291.081067 55569.547922 
L 291.902324 55569.547922 
L 292.731023 55569.547922 
L 293.559172 55569.547922 
L 294.361483 55569.547922 
L 295.179334 55569.547922 
L 296.071629 123.335025 
L 296.828543 55569.547922 
L 297.640097 55569.547922 
L 298.510607 55569.547922 
L 299.301254 55569.547922 
L 300.143238 55569.547922 
L 300.93367 55569.547922 
L 301.727122 55569.547922 
L 302.503442 55569.547922 
L 303.399089 55569.547922 
L 304.256127 55569.547922 
L 305.072596 55569.547922 
L 305.884877 55569.547922 
L 306.649992 55569.547922 
L 307.456087 55569.547922 
L 308.323567 55569.547922 
L 309.142678 55569.547922 
L 309.958561 55569.547922 
L 310.774141 55569.547922 
L 311.652757 55569.547922 
L 312.411083 55569.547922 
L 313.264517 55569.547922 
L 314.068738 55569.547922 
L 314.875194 55569.547922 
L 315.719621 55569.547922 
L 316.539285 55569.547922 
L 317.326 55569.547922 
L 318.165507 203.777284 
L 318.976086 55569.547922 
L 319.807137 55569.547922 
L 320.627615 55569.547922 
L 321.451954 55569.547922 
L 322.285947 55569.547922 
L 323.085272 55569.547922 
L 323.901115 55569.547922 
L 324.738492 55569.547922 
L 325.549574 55569.547922 
L 326.379254 55569.547922 
L 327.193203 55569.547922 
L 328.0169 55569.547922 
L 328.810545 55569.547922 
L 329.608704 55569.547922 
L 330.547258 55569.547922 
L 331.305126 55569.547922 
L 332.107328 55569.547922 
L 332.944041 55569.547922 
L 333.797104 55569.547922 
L 334.574646 55569.547922 
L 335.401523 55569.547922 
L 336.231305 55569.547922 
L 337.040458 55569.547922 
L 337.851837 55569.547922 
L 338.699413 55569.547922 
L 339.506583 139.770233 
L 340.328564 147.780065 
L 341.148366 55569.547922 
L 341.971983 55569.547922 
L 342.813027 55569.547922 
L 343.622153 164.48819 
L 344.433795 55569.547922 
L 345.254427 55569.547922 
L 346.0964 55569.547922 
L 346.894275 55569.547922 
L 347.709832 55569.547922 
L 348.525167 55569.547922 
L 349.358621 55569.547922 
L 350.176486 55569.547922 
L 351.017141 55569.547922 
L 351.832438 55569.547922 
L 352.655956 55569.547922 
L 353.448087 55569.547922 
L 354.279416 55569.547922 
L 355.100998 55569.547922 
L 355.924779 55569.547922 
L 356.751232 55569.547922 
L 357.571813 55569.547922 
L 358.38522 55569.547922 
L 359.222342 125.34703 
L 360.063691 231.609273 
L 360.854802 55569.547922 
L 361.671947 145.273225 
L 362.497354 55569.547922 
L 363.271493 55569.547922 
L 364.158184 55569.547922 
L 364.94347 55569.547922 
L 365.765693 55569.547922 
L 366.592177 55569.547922 
L 367.433067 148.068649 
L 368.239881 98.053582 
L 369.0328 94.625163 
L 369.87586 80.045255 
L 370.703789 95.270731 
L 371.497802 100.28228 
L 372.346748 101.849895 
L 373.154763 110.697273 
L 373.989201 106.439699 
L 374.828112 94.979145 
L 375.621251 100.573514 
L 376.467037 55569.547922 
L 377.250277 105.173339 
L 378.099501 55569.547922 
L 378.929082 55569.547922 
L 379.713167 115.497546 
L 380.522918 55569.547922 
L 381.379543 55569.547922 
L 382.150044 55569.547922 
L 383.036602 96.95725 
L 383.835928 96.333168 
L 384.718524 100.731425 
L 385.483331 94.013508 
L 386.298544 95.378947 
L 387.115878 97.380223 
L 387.936736 94.295563 
L 388.770773 111.275861 
L 389.594901 130.438601 
L 390.413823 118.459046 
L 391.214782 55569.547922 
L 392.026116 113.012426 
L 392.879225 128.81769 
L 393.689439 169.254053 
L 394.508546 55569.547922 
L 395.334931 55569.547922 
L 396.145302 55569.547922 
L 396.958476 137.075609 
L 397.800561 55569.547922 
L 398.596822 220.696921 
L 399.438321 97.495064 
L 400.257356 101.902424 
L 401.069432 55569.547922 
L 401.901254 55569.547922 
L 402.71335 55569.547922 
L 403.52244 55569.547922 
L 404.363256 92.712072 
L 405.188909 55569.547922 
L 405.188909 38.04034 
L 405.188909 38.04034 
L 404.363256 48.347488 
L 403.52244 37.921065 
L 402.71335 37.252232 
L 401.901254 39.807073 
L 401.069432 40.154814 
L 400.257356 48.597005 
L 399.438321 50.335685 
L 398.596822 43.173927 
L 397.800561 43.484966 
L 396.958476 47.125002 
L 396.145302 40.717721 
L 395.334931 38.67504 
L 394.508546 39.847086 
L 393.689439 40.587592 
L 392.879225 37.069048 
L 392.026116 37.956592 
L 391.214782 34.919101 
L 390.413823 39.065354 
L 389.594901 35.032939 
L 388.770773 36.506096 
L 387.936736 38.912141 
L 387.115878 36.520059 
L 386.298544 37.193774 
L 385.483331 37.804767 
L 384.718524 38.951394 
L 383.835928 43.043753 
L 383.036602 44.610222 
L 382.150044 35.772942 
L 381.379543 35.330433 
L 380.522918 28.165769 
L 379.713167 36.301661 
L 378.929082 32.866825 
L 378.099501 44.350424 
L 377.250277 47.217603 
L 376.467037 43.168265 
L 375.621251 43.821595 
L 374.828112 44.709637 
L 373.989201 46.363705 
L 373.154763 46.973972 
L 372.346748 47.927114 
L 371.497802 46.465092 
L 370.703789 46.789085 
L 369.87586 45.628118 
L 369.0328 44.238506 
L 368.239881 42.874918 
L 367.433067 46.305428 
L 366.592177 47.275244 
L 365.765693 47.148733 
L 364.94347 47.423084 
L 364.158184 48.901934 
L 363.271493 47.181363 
L 362.497354 46.086686 
L 361.671947 46.716041 
L 360.854802 44.409779 
L 360.063691 44.325404 
L 359.222342 42.027254 
L 358.38522 41.235488 
L 357.571813 42.778842 
L 356.751232 43.711899 
L 355.924779 44.951731 
L 355.100998 42.006906 
L 354.279416 40.171185 
L 353.448087 40.456485 
L 352.655956 40.602078 
L 351.832438 41.370692 
L 351.017141 39.767496 
L 350.176486 45.617946 
L 349.358621 44.33163 
L 348.525167 41.613963 
L 347.709832 43.27874 
L 346.894275 43.747023 
L 346.0964 37.39352 
L 345.254427 41.770437 
L 344.433795 44.93884 
L 343.622153 45.083457 
L 342.813027 44.166047 
L 341.971983 38.96799 
L 341.148366 42.562707 
L 340.328564 44.87738 
L 339.506583 46.450494 
L 338.699413 44.30383 
L 337.851837 42.530358 
L 337.040458 43.367202 
L 336.231305 43.43741 
L 335.401523 39.505982 
L 334.574646 42.897413 
L 333.797104 38.245618 
L 332.944041 31.462523 
L 332.107328 39.698919 
L 331.305126 41.302755 
L 330.547258 41.476603 
L 329.608704 30.717845 
L 328.810545 31.704137 
L 328.0169 36.887429 
L 327.193203 36.321935 
L 326.379254 37.053883 
L 325.549574 37.433639 
L 324.738492 37.272489 
L 323.901115 38.584696 
L 323.085272 39.308743 
L 322.285947 40.512244 
L 321.451954 39.464894 
L 320.627615 39.734951 
L 319.807137 38.372703 
L 318.976086 39.14223 
L 318.165507 44.001413 
L 317.326 43.455666 
L 316.539285 43.409517 
L 315.719621 41.635683 
L 314.875194 44.375252 
L 314.068738 45.215955 
L 313.264517 42.49039 
L 312.411083 42.446901 
L 311.652757 41.586395 
L 310.774141 42.513806 
L 309.958561 38.995904 
L 309.142678 39.381551 
L 308.323567 37.80687 
L 307.456087 42.192688 
L 306.649992 43.816035 
L 305.884877 44.369128 
L 305.072596 45.038121 
L 304.256127 43.640093 
L 303.399089 42.051726 
L 302.503442 40.502896 
L 301.727122 43.932249 
L 300.93367 46.080229 
L 300.143238 42.399096 
L 299.301254 41.25937 
L 298.510607 42.443219 
L 297.640097 39.708761 
L 296.828543 41.549014 
L 296.071629 37.478611 
L 295.179334 38.881619 
L 294.361483 40.117757 
L 293.559172 40.680672 
L 292.731023 40.583368 
L 291.902324 41.630859 
L 291.081067 42.065518 
L 290.24089 37.26125 
L 289.458621 40.19835 
L 288.620824 41.167889 
L 287.799582 41.153586 
L 286.981374 41.613756 
L 286.215366 38.786897 
L 285.343213 35.429361 
L 284.516476 35.494317 
L 283.695542 37.567164 
L 282.875139 37.265521 
L 282.053875 35.367147 
L 281.233043 36.49997 
L 280.412354 36.716912 
L 279.589661 38.548237 
L 278.770706 38.436604 
L 277.949814 42.816763 
L 277.131176 37.629152 
L 276.308205 38.533081 
L 275.487214 36.885138 
L 274.663653 37.517913 
L 273.845978 40.703959 
L 273.023024 38.254299 
L 272.200027 37.538311 
L 271.382188 40.755775 
L 270.560658 38.682788 
L 269.743518 38.825511 
L 268.919348 38.659577 
L 268.099376 38.112885 
L 267.278742 35.516901 
L 266.457845 33.731496 
L 265.636673 33.931337 
L 264.816129 33.676786 
L 263.995373 33.629865 
L 263.174148 35.30366 
L 262.353289 36.441875 
L 261.532628 35.927594 
L 260.711894 36.865543 
L 259.891021 37.897158 
L 259.070034 37.335589 
L 258.24929 38.333765 
L 257.428284 38.878002 
L 256.607269 39.687467 
L 255.786186 41.062844 
L 254.96534 39.632175 
L 254.144379 40.884839 
L 253.323154 41.661232 
L 252.502249 39.49226 
L 251.681233 41.551649 
L 250.860211 40.847377 
L 250.039079 37.820222 
L 249.217464 36.460952 
L 248.395766 36.874449 
L 247.574074 39.140717 
L 246.751506 41.475011 
L 245.925206 42.057419 
L 245.088191 32.205386 
L 244.417687 36.856948 
L 243.474566 28.652933 
L 242.653792 26.395477 
L 241.832999 25.599337 
L 241.01216 24.383955 
L 240.191262 21.314727 
L 239.370315 24.527462 
L 238.549345 26.778189 
L 237.728676 25.98423 
L 236.907824 28.980442 
L 236.087636 34.571081 
L 235.266259 29.491121 
L 234.445551 26.333702 
L 233.624684 26.926063 
L 232.803622 28.650981 
L 231.98263 25.902535 
L 231.161753 26.18086 
L 230.340831 28.583133 
L 229.51982 35.123175 
L 228.699286 36.27064 
L 227.878429 36.126691 
L 227.057341 37.917217 
L 226.236484 37.867645 
L 225.41571 37.898419 
L 224.594776 34.549788 
L 223.773821 34.740677 
L 222.952926 39.786578 
L 222.131939 41.283505 
L 221.310952 43.799573 
L 220.489927 44.656823 
L 219.668969 43.709484 
L 218.848019 42.169091 
L 218.0268 43.583376 
L 217.205716 41.197654 
L 216.384596 39.655655 
L 215.563243 37.98271 
L 214.741888 38.198851 
L 213.92045 39.365416 
L 213.098715 37.908002 
L 212.253715 34.687477 
L 211.454067 35.804745 
L 210.625728 30.931038 
L 209.801483 38.337869 
L 208.948123 44.600291 
L 208.454622 39.938455 
z
" clip-path="url(#p47aad30101)" style="fill: #add8e6; stroke: #add8e6"/>
   </g>
   <g id="line2d_1">
    <path d="M 208.454622 52.12009 
L 208.948123 56.281019 
L 209.801483 53.551918 
L 210.625728 42.734265 
L 211.454067 46.790674 
L 212.253715 44.666962 
L 213.098715 46.539158 
L 213.92045 47.204844 
L 214.741888 47.121429 
L 215.563243 47.543939 
L 216.384596 49.577321 
L 217.205716 50.654501 
L 218.0268 52.324628 
L 218.848019 52.30915 
L 219.668969 53.89901 
L 220.489927 53.790378 
L 221.310952 54.372035 
L 222.131939 53.133475 
L 222.952926 53.004651 
L 223.773821 49.045545 
L 224.594776 47.300104 
L 225.41571 50.009528 
L 226.236484 49.388729 
L 227.057341 49.98326 
L 227.878429 49.520712 
L 228.699286 49.528092 
L 229.51982 49.183285 
L 230.340831 44.070839 
L 231.161753 43.311373 
L 231.98263 43.599224 
L 232.803622 46.362367 
L 233.624684 45.463728 
L 234.445551 44.074021 
L 235.266259 46.546209 
L 236.087636 52.125313 
L 236.907824 48.128075 
L 237.728676 44.893985 
L 238.549345 45.039304 
L 240.191262 41.099689 
L 241.01216 44.326734 
L 241.832999 45.54458 
L 242.653792 44.787497 
L 243.474566 46.223175 
L 244.417687 48.733414 
L 245.088191 46.699234 
L 245.925206 54.959116 
L 246.751506 57.068048 
L 247.574074 56.799062 
L 248.395766 55.375077 
L 249.217464 54.412743 
L 250.039079 55.529529 
L 250.860211 57.240178 
L 251.681233 57.911176 
L 252.502249 55.496684 
L 253.323154 57.130324 
L 254.144379 54.199564 
L 254.96534 52.864932 
L 255.786186 54.127135 
L 256.607269 52.673436 
L 257.428284 52.343664 
L 259.070034 51.160095 
L 259.891021 51.379803 
L 260.711894 50.945719 
L 261.532628 50.093558 
L 262.353289 50.52884 
L 263.174148 47.549263 
L 263.995373 47.886683 
L 264.816129 47.048228 
L 265.636673 47.987437 
L 266.457845 47.098585 
L 267.278742 48.233143 
L 268.099376 51.036121 
L 269.743518 52.642938 
L 270.560658 52.948754 
L 271.382188 53.702331 
L 272.200027 51.066766 
L 273.023024 50.756654 
L 273.845978 51.582472 
L 275.487214 48.02333 
L 276.308205 48.963408 
L 277.131176 48.954457 
L 277.949814 56.135915 
L 278.770706 51.043514 
L 279.589661 49.154917 
L 280.412354 47.726174 
L 281.233043 48.594928 
L 282.053875 48.330948 
L 282.875139 50.584726 
L 283.695542 51.576015 
L 284.516476 51.375284 
L 285.343213 50.369085 
L 286.215366 56.160474 
L 286.981374 59.910111 
L 287.799582 58.816772 
L 288.620824 58.843013 
L 289.458621 56.957013 
L 290.24089 54.455874 
L 291.081067 59.623603 
L 291.902324 59.229022 
L 292.731023 57.984572 
L 294.361483 58.06362 
L 295.179334 56.723452 
L 296.071629 53.702822 
L 296.828543 59.80236 
L 297.640097 58.064569 
L 298.510607 60.478578 
L 299.301254 59.742348 
L 300.143238 60.64575 
L 300.93367 63.722607 
L 301.727122 61.716183 
L 302.503442 58.001823 
L 303.399089 60.774422 
L 305.072596 62.162112 
L 305.884877 62.471426 
L 306.649992 62.009385 
L 307.456087 60.08515 
L 308.323567 56.166527 
L 309.142678 58.218904 
L 309.958561 58.133971 
L 310.774141 61.562831 
L 311.652757 61.584991 
L 312.411083 62.006723 
L 313.264517 60.728673 
L 314.068738 62.178812 
L 314.875194 62.067698 
L 315.719621 59.950472 
L 316.539285 61.396364 
L 317.326 61.080225 
L 318.165507 60.908477 
L 319.807137 58.470596 
L 320.627615 58.42301 
L 321.451954 57.489082 
L 322.285947 58.079896 
L 324.738492 57.444493 
L 325.549574 57.757427 
L 326.379254 57.913811 
L 327.193203 57.195969 
L 328.0169 57.528222 
L 328.810545 53.535564 
L 329.608704 52.249559 
L 330.547258 60.430182 
L 331.305126 62.502034 
L 332.107328 60.71633 
L 332.944041 53.958055 
L 333.797104 58.704082 
L 334.574646 61.766523 
L 335.401523 59.819588 
L 336.231305 62.629769 
L 337.040458 61.607958 
L 337.851837 61.502619 
L 338.699413 61.689558 
L 339.506583 62.861658 
L 340.328564 61.459599 
L 341.148366 59.67713 
L 341.971983 56.363003 
L 342.813027 61.388205 
L 343.622153 61.841859 
L 344.433795 63.853989 
L 345.254427 61.994398 
L 346.0964 57.777841 
L 346.894275 61.909925 
L 348.525167 59.143933 
L 349.358621 62.108492 
L 350.176486 62.713383 
L 351.017141 58.356491 
L 351.832438 59.822506 
L 352.655956 59.706605 
L 353.448087 59.466723 
L 354.279416 58.947806 
L 355.924779 62.874502 
L 356.751232 62.366356 
L 357.571813 60.168651 
L 358.38522 58.361076 
L 359.222342 58.174185 
L 360.063691 61.256372 
L 360.854802 62.790995 
L 362.497354 63.704809 
L 364.158184 66.797769 
L 365.765693 65.445633 
L 366.592177 65.511315 
L 367.433067 62.870588 
L 368.239881 57.385379 
L 369.0328 58.252656 
L 369.87586 57.221845 
L 370.703789 60.580564 
L 371.497802 60.84331 
L 372.346748 62.315828 
L 373.154763 62.177089 
L 373.989201 61.298126 
L 374.828112 58.710532 
L 375.621251 58.476789 
L 376.467037 60.118947 
L 377.250277 61.977956 
L 378.099501 62.442176 
L 378.929082 50.968037 
L 379.713167 52.305162 
L 380.522918 45.482151 
L 381.379543 52.570709 
L 382.150044 52.747254 
L 383.036602 58.837994 
L 383.835928 57.368895 
L 384.718524 54.015979 
L 385.483331 52.410944 
L 387.115878 51.515421 
L 387.936736 53.441921 
L 388.770773 52.327417 
L 389.594901 51.487132 
L 390.413823 55.076281 
L 391.214782 51.900808 
L 392.026116 53.790666 
L 392.879225 53.445346 
L 393.689439 57.403896 
L 394.508546 57.385243 
L 395.334931 56.08992 
L 396.145302 57.801431 
L 396.958476 63.458617 
L 397.800561 60.922215 
L 398.596822 60.099256 
L 399.438321 63.963382 
L 400.257356 62.923771 
L 401.069432 57.799205 
L 401.901254 56.837302 
L 402.71335 54.584472 
L 403.52244 55.295269 
L 404.363256 61.602548 
L 405.188909 55.583627 
L 405.188909 55.583627 
" clip-path="url(#p47aad30101)" style="fill: none; stroke: #1f77b4; stroke-width: 1.5; stroke-linecap: square"/>
   </g>
   <g id="line2d_2">
    <path d="M 88.654424 289 
L 88.655195 158.94905 
L 88.984023 141.998775 
L 89.640852 123.871043 
L 91.284399 95.349277 
L 92.270764 83.955783 
L 93.257128 75.538646 
L 94.242313 69.342439 
L 95.228677 64.572075 
L 96.213861 60.886332 
L 97.528227 57.116277 
L 98.513412 54.854286 
L 100.156959 51.914953 
L 101.471325 50.091575 
L 102.784511 48.604937 
L 104.098877 47.404803 
L 105.413243 46.370269 
L 108.040795 44.769245 
L 109.355161 44.171967 
L 110.012344 43.867969 
L 111.32671 43.350443 
L 113.954262 42.518722 
L 115.268628 42.225671 
L 115.925811 42.039207 
L 118.225361 41.579182 
L 121.180915 41.083276 
L 122.495281 40.933916 
L 125.122833 40.62367 
L 127.422383 40.394822 
L 128.736749 40.26829 
L 129.721934 40.219326 
L 133.33585 39.988451 
L 135.306219 39.914162 
L 136.620585 39.816787 
L 137.60577 39.781193 
L 140.233322 39.683758 
L 148.445159 39.47408 
L 149.759525 39.487797 
L 152.387077 39.407486 
L 153.372261 39.433442 
L 159.942911 39.370071 
L 162.241282 39.370364 
L 162.898465 39.354012 
L 164.540832 39.35723 
L 165.526017 39.324557 
L 167.168384 39.361395 
L 168.48275 39.326464 
L 169.797116 39.359377 
L 171.767485 39.318964 
L 172.75267 39.33694 
L 175.381402 39.319331 
L 176.366586 39.359272 
L 182.606875 39.381756 
L 186.877974 39.401051 
L 187.533977 39.372713 
L 190.490711 39.410769 
L 191.147893 39.393147 
L 193.447444 39.429861 
L 194.432628 39.388515 
L 196.399458 39.430836 
L 197.390542 39.397959 
L 199.360911 39.461335 
L 200.670557 39.419302 
L 202.310565 39.472803 
L 203.63201 39.439747 
L 204.941657 39.474096 
L 206.263102 39.45286 
L 206.912026 39.47677 
L 208.233471 39.464414 
L 208.882395 39.492637 
L 210.522402 39.478092 
L 211.843848 39.536668 
L 214.474939 39.504506 
L 215.123863 39.54497 
L 218.415677 39.52375 
L 219.064601 39.571274 
L 224.657146 39.57218 
L 269.657071 39.844405 
L 270.636356 39.815807 
L 272.606725 39.873174 
L 273.597809 39.845383 
L 275.237817 39.88058 
L 276.217102 39.859566 
L 277.208186 39.893138 
L 278.517832 39.849027 
L 279.508916 39.885371 
L 280.488201 39.869443 
L 281.479285 39.908112 
L 282.788932 39.870661 
L 283.780015 39.912585 
L 285.089662 39.878607 
L 286.411107 39.900099 
L 288.381476 39.882737 
L 289.360761 39.933004 
L 291.000769 39.886967 
L 292.322214 39.917006 
L 294.292583 39.912201 
L 295.60223 39.950041 
L 297.242237 39.914733 
L 297.90296 39.934098 
L 299.212606 39.919864 
L 299.873329 39.94053 
L 301.182975 39.929446 
L 301.843698 39.95139 
L 303.483706 39.926224 
L 304.805151 39.974045 
L 308.085166 39.935452 
L 309.394813 39.990832 
L 311.695543 39.949528 
L 312.686627 39.964725 
L 314.326635 39.955899 
L 315.30592 39.975804 
L 316.957726 39.968296 
L 317.60665 40.002707 
L 319.907381 39.977813 
L 320.898464 39.999983 
L 323.199195 39.981358 
L 323.848119 40.019121 
L 326.47921 39.996572 
L 327.470294 40.023988 
L 332.390317 40.009811 
L 333.05104 40.049958 
L 336.991778 40.01949 
L 337.971063 40.056966 
L 342.242163 40.034973 
L 342.902885 40.079819 
L 348.813992 40.052408 
L 349.805076 40.095767 
L 368.529481 40.105539 
L 369.178405 40.163348 
L 404.987208 40.252631 
L 404.987208 40.252631 
" clip-path="url(#p47aad30101)" style="fill: none; stroke: #000000; stroke-width: 2.5; stroke-linecap: square"/>
   </g>
   <g id="line2d_3">
    <path d="M 87.668949 53.716426 
L 87.997659 52.74526 
L 88.655195 52.789716 
L 88.984023 53.148156 
L 89.970033 54.663825 
L 91.941582 56.938558 
L 94.242313 58.633537 
L 95.556678 59.211847 
L 96.871044 59.789504 
L 99.499776 60.728045 
L 104.098877 62.02695 
L 112.311894 63.563942 
L 113.954262 63.757602 
L 120.852913 64.516323 
L 122.823282 64.665502 
L 131.0363 65.207691 
L 131.693483 65.209061 
L 133.663852 65.316747 
L 134.649036 65.338433 
L 135.963402 65.428896 
L 138.920136 65.529903 
L 144.504421 65.655635 
L 145.489605 65.656319 
L 146.802792 65.711924 
L 149.431523 65.706819 
L 150.416708 65.758178 
L 163.555648 65.869896 
L 164.870014 65.901533 
L 166.1832 65.888947 
L 167.497566 65.94307 
L 169.467935 65.932087 
L 170.454299 65.962951 
L 174.395037 65.975204 
L 175.381402 66.033524 
L 210.522402 66.125607 
L 212.823133 66.116783 
L 213.814217 66.147693 
L 219.394962 66.121923 
L 230.237891 66.118443 
L 235.157915 66.117578 
L 235.818637 66.078441 
L 240.089737 66.105179 
L 240.750459 66.072601 
L 243.700113 66.082083 
L 244.360836 66.053793 
L 247.322289 66.079387 
L 248.631935 66.034761 
L 251.263027 66.064055 
L 252.572673 66.027897 
L 254.873404 66.054016 
L 255.852689 66.005368 
L 258.153419 66.043126 
L 259.144503 65.996171 
L 261.114872 66.022303 
L 262.094157 65.982762 
L 264.064526 66.017261 
L 265.05561 65.979125 
L 266.695618 65.996288 
L 267.686702 65.961354 
L 268.665987 65.987423 
L 269.657071 65.955111 
L 271.297079 65.982786 
L 272.276364 65.957231 
L 273.267448 65.986247 
L 274.577094 65.936 
L 275.568178 65.967901 
L 276.547463 65.947636 
L 277.208186 65.951621 
L 278.19927 65.930457 
L 278.848193 65.938632 
L 279.839277 65.919431 
L 281.148924 65.936381 
L 282.140008 65.919882 
L 282.788932 65.931085 
L 283.780015 65.916855 
L 285.089662 65.939801 
L 286.411107 65.905651 
L 287.060031 65.920008 
L 288.381476 65.888761 
L 289.0304 65.904912 
L 290.351845 65.876513 
L 291.000769 65.893669 
L 292.322214 65.868448 
L 292.971138 65.886965 
L 294.292583 65.864489 
L 295.60223 65.902369 
L 297.242237 65.867399 
L 297.90296 65.886974 
L 299.542968 65.856188 
L 300.534051 65.859655 
L 303.153344 65.841682 
L 303.814067 65.865091 
L 305.784436 65.827763 
L 306.445159 65.853194 
L 308.415528 65.820709 
L 309.394813 65.835376 
L 311.365182 65.80857 
L 312.025904 65.836983 
L 314.326635 65.801763 
L 315.30592 65.821576 
L 317.60665 65.792899 
L 318.267373 65.825267 
L 321.228826 65.780062 
L 321.87775 65.816779 
L 325.169564 65.770297 
L 325.818488 65.809076 
L 329.759226 65.757769 
L 330.75031 65.787608 
L 335.021409 65.743987 
L 336.000694 65.780339 
L 341.911801 65.725411 
L 342.902885 65.764412 
L 352.75473 65.696872 
L 353.745814 65.743434 
L 370.49985 65.686195 
L 381.661342 65.684977 
L 382.652426 65.636005 
L 394.47464 65.660191 
L 395.453925 65.619444 
L 403.3472 65.639132 
L 403.996124 65.652634 
L 405.317569 65.620792 
L 405.317569 65.620792 
" clip-path="url(#p47aad30101)" style="fill: none; stroke-dasharray: 9.25,4; stroke-dashoffset: 0; stroke: #8b0000; stroke-width: 2.5"/>
   </g>
   <g id="legend_1">
    <g id="line2d_4">
     <path d="M 333.95625 198.188062 
L 343.95625 198.188062 
L 353.95625 198.188062 
" style="fill: none; stroke: #1f77b4; stroke-width: 1.5; stroke-linecap: square"/>
    </g>
    <g id="text_1">
     <!-- PSP -->
     <g transform="translate(361.95625 201.688062) scale(0.1 -0.1)">
      <defs>
       <path id="DejaVuSans-50" d="M 1259 4147 
L 1259 2394 
L 2053 2394 
Q 2494 2394 2734 2622 
Q 2975 2850 2975 3272 
Q 2975 3691 2734 3919 
Q 2494 4147 2053 4147 
L 1259 4147 
z
M 628 4666 
L 2053 4666 
Q 2838 4666 3239 4311 
Q 3641 3956 3641 3272 
Q 3641 2581 3239 2228 
Q 2838 1875 2053 1875 
L 1259 1875 
L 1259 0 
L 628 0 
L 628 4666 
z
" transform="scale(0.015625)"/>
       <path id="DejaVuSans-53" d="M 3425 4513 
L 3425 3897 
Q 3066 4069 2747 4153 
Q 2428 4238 2131 4238 
Q 1616 4238 1336 4038 
Q 1056 3838 1056 3469 
Q 1056 3159 1242 3001 
Q 1428 2844 1947 2747 
L 2328 2669 
Q 3034 2534 3370 2195 
Q 3706 1856 3706 1288 
Q 3706 609 3251 259 
Q 2797 -91 1919 -91 
Q 1588 -91 1214 -16 
Q 841 59 441 206 
L 441 856 
Q 825 641 1194 531 
Q 1563 422 1919 422 
Q 2459 422 2753 634 
Q 3047 847 3047 1241 
Q 3047 1584 2836 1778 
Q 2625 1972 2144 2069 
L 1759 2144 
Q 1053 2284 737 2584 
Q 422 2884 422 3419 
Q 422 4038 858 4394 
Q 1294 4750 2059 4750 
Q 2388 4750 2728 4690 
Q 3069 4631 3425 4513 
z
" transform="scale(0.015625)"/>
      </defs>
      <use xlink:href="#DejaVuSans-50"/>
      <use xlink:href="#DejaVuSans-53" x="60.302734"/>
      <use xlink:href="#DejaVuSans-50" x="123.779297"/>
     </g>
    </g>
    <g id="line2d_5">
     <path d="M 333.95625 212.866187 
L 343.95625 212.866187 
L 353.95625 212.866187 
" style="fill: none; stroke: #000000; stroke-width: 2.5; stroke-linecap: square"/>
    </g>
    <g id="text_2">
     <!-- Slow wind -->
     <g transform="translate(361.95625 216.366187) scale(0.1 -0.1)">
      <defs>
       <path id="DejaVuSans-6c" d="M 603 4863 
L 1178 4863 
L 1178 0 
L 603 0 
L 603 4863 
z
" transform="scale(0.015625)"/>
       <path id="DejaVuSans-6f" d="M 1959 3097 
Q 1497 3097 1228 2736 
Q 959 2375 959 1747 
Q 959 1119 1226 758 
Q 1494 397 1959 397 
Q 2419 397 2687 759 
Q 2956 1122 2956 1747 
Q 2956 2369 2687 2733 
Q 2419 3097 1959 3097 
z
M 1959 3584 
Q 2709 3584 3137 3096 
Q 3566 2609 3566 1747 
Q 3566 888 3137 398 
Q 2709 -91 1959 -91 
Q 1206 -91 779 398 
Q 353 888 353 1747 
Q 353 2609 779 3096 
Q 1206 3584 1959 3584 
z
" transform="scale(0.015625)"/>
       <path id="DejaVuSans-77" d="M 269 3500 
L 844 3500 
L 1563 769 
L 2278 3500 
L 2956 3500 
L 3675 769 
L 4391 3500 
L 4966 3500 
L 4050 0 
L 3372 0 
L 2619 2869 
L 1863 0 
L 1184 0 
L 269 3500 
z
" transform="scale(0.015625)"/>
       <path id="DejaVuSans-20" transform="scale(0.015625)"/>
       <path id="DejaVuSans-69" d="M 603 3500 
L 1178 3500 
L 1178 0 
L 603 0 
L 603 3500 
z
M 603 4863 
L 1178 4863 
L 1178 4134 
L 603 4134 
L 603 4863 
z
" transform="scale(0.015625)"/>
       <path id="DejaVuSans-6e" d="M 3513 2113 
L 3513 0 
L 2938 0 
L 2938 2094 
Q 2938 2591 2744 2837 
Q 2550 3084 2163 3084 
Q 1697 3084 1428 2787 
Q 1159 2491 1159 1978 
L 1159 0 
L 581 0 
L 581 3500 
L 1159 3500 
L 1159 2956 
Q 1366 3272 1645 3428 
Q 1925 3584 2291 3584 
Q 2894 3584 3203 3211 
Q 3513 2838 3513 2113 
z
" transform="scale(0.015625)"/>
       <path id="DejaVuSans-64" d="M 2906 2969 
L 2906 4863 
L 3481 4863 
L 3481 0 
L 2906 0 
L 2906 525 
Q 2725 213 2448 61 
Q 2172 -91 1784 -91 
Q 1150 -91 751 415 
Q 353 922 353 1747 
Q 353 2572 751 3078 
Q 1150 3584 1784 3584 
Q 2172 3584 2448 3432 
Q 2725 3281 2906 2969 
z
M 947 1747 
Q 947 1113 1208 752 
Q 1469 391 1925 391 
Q 2381 391 2643 752 
Q 2906 1113 2906 1747 
Q 2906 2381 2643 2742 
Q 2381 3103 1925 3103 
Q 1469 3103 1208 2742 
Q 947 2381 947 1747 
z
" transform="scale(0.015625)"/>
      </defs>
      <use xlink:href="#DejaVuSans-53"/>
      <use xlink:href="#DejaVuSans-6c" x="63.476562"/>
      <use xlink:href="#DejaVuSans-6f" x="91.259766"/>
      <use xlink:href="#DejaVuSans-77" x="152.441406"/>
      <use xlink:href="#DejaVuSans-20" x="234.228516"/>
      <use xlink:href="#DejaVuSans-77" x="266.015625"/>
      <use xlink:href="#DejaVuSans-69" x="347.802734"/>
      <use xlink:href="#DejaVuSans-6e" x="375.585938"/>
      <use xlink:href="#DejaVuSans-64" x="438.964844"/>
     </g>
    </g>
    <g id="line2d_6">
     <path d="M 333.95625 227.544312 
L 343.95625 227.544312 
L 353.95625 227.544312 
" style="fill: none; stroke-dasharray: 9.25,4; stroke-dashoffset: 0; stroke: #8b0000; stroke-width: 2.5"/>
    </g>
    <g id="text_3">
     <!-- Fast wind -->
     <g transform="translate(361.95625 231.044312) scale(0.1 -0.1)">
      <defs>
       <path id="DejaVuSans-46" d="M 628 4666 
L 3309 4666 
L 3309 4134 
L 1259 4134 
L 1259 2759 
L 3109 2759 
L 3109 2228 
L 1259 2228 
L 1259 0 
L 628 0 
L 628 4666 
z
" transform="scale(0.015625)"/>
       <path id="DejaVuSans-61" d="M 2194 1759 
Q 1497 1759 1228 1600 
Q 959 1441 959 1056 
Q 959 750 1161 570 
Q 1363 391 1709 391 
Q 2188 391 2477 730 
Q 2766 1069 2766 1631 
L 2766 1759 
L 2194 1759 
z
M 3341 1997 
L 3341 0 
L 2766 0 
L 2766 531 
Q 2569 213 2275 61 
Q 1981 -91 1556 -91 
Q 1019 -91 701 211 
Q 384 513 384 1019 
Q 384 1609 779 1909 
Q 1175 2209 1959 2209 
L 2766 2209 
L 2766 2266 
Q 2766 2663 2505 2880 
Q 2244 3097 1772 3097 
Q 1472 3097 1187 3025 
Q 903 2953 641 2809 
L 641 3341 
Q 956 3463 1253 3523 
Q 1550 3584 1831 3584 
Q 2591 3584 2966 3190 
Q 3341 2797 3341 1997 
z
" transform="scale(0.015625)"/>
       <path id="DejaVuSans-73" d="M 2834 3397 
L 2834 2853 
Q 2591 2978 2328 3040 
Q 2066 3103 1784 3103 
Q 1356 3103 1142 2972 
Q 928 2841 928 2578 
Q 928 2378 1081 2264 
Q 1234 2150 1697 2047 
L 1894 2003 
Q 2506 1872 2764 1633 
Q 3022 1394 3022 966 
Q 3022 478 2636 193 
Q 2250 -91 1575 -91 
Q 1294 -91 989 -36 
Q 684 19 347 128 
L 347 722 
Q 666 556 975 473 
Q 1284 391 1588 391 
Q 1994 391 2212 530 
Q 2431 669 2431 922 
Q 2431 1156 2273 1281 
Q 2116 1406 1581 1522 
L 1381 1569 
Q 847 1681 609 1914 
Q 372 2147 372 2553 
Q 372 3047 722 3315 
Q 1072 3584 1716 3584 
Q 2034 3584 2315 3537 
Q 2597 3491 2834 3397 
z
" transform="scale(0.015625)"/>
       <path id="DejaVuSans-74" d="M 1172 4494 
L 1172 3500 
L 2356 3500 
L 2356 3053 
L 1172 3053 
L 1172 1153 
Q 1172 725 1289 603 
Q 1406 481 1766 481 
L 2356 481 
L 2356 0 
L 1766 0 
Q 1100 0 847 248 
Q 594 497 594 1153 
L 594 3053 
L 172 3053 
L 172 3500 
L 594 3500 
L 594 4494 
L 1172 4494 
z
" transform="scale(0.015625)"/>
      </defs>
      <use xlink:href="#DejaVuSans-46"/>
      <use xlink:href="#DejaVuSans-61" x="48.394531"/>
      <use xlink:href="#DejaVuSans-73" x="109.673828"/>
      <use xlink:href="#DejaVuSans-74" x="161.773438"/>
      <use xlink:href="#DejaVuSans-20" x="200.982422"/>
      <use xlink:href="#DejaVuSans-77" x="232.769531"/>
      <use xlink:href="#DejaVuSans-69" x="314.556641"/>
      <use xlink:href="#DejaVuSans-6e" x="342.339844"/>
      <use xlink:href="#DejaVuSans-64" x="405.71875"/>
     </g>
    </g>
   </g>
   <g id="matplotlib.axis_1">
    <g id="xtick_1">
     <g id="line2d_7">
      <defs>
       <path id="m1966725822" d="M 0 0 
L 0 -3.5 
" style="stroke: #000000; stroke-width: 1.5"/>
      </defs>
      <g>
       <use xlink:href="#m1966725822" x="77.257024" y="242.124" style="stroke: #000000; stroke-width: 1.5"/>
      </g>
     </g>
     <g id="line2d_8">
      <defs>
       <path id="m9be57b1f11" d="M 0 0 
L 0 3.5 
" style="stroke: #000000; stroke-width: 1.5"/>
      </defs>
      <g>
       <use xlink:href="#m9be57b1f11" x="77.257024" y="10.8" style="stroke: #000000; stroke-width: 1.5"/>
      </g>
     </g>
     <g id="text_4">
      <!-- 0 -->
      <g transform="translate(73.439524 254.742125) scale(0.12 -0.12)">
       <defs>
        <path id="DejaVuSans-30" d="M 2034 4250 
Q 1547 4250 1301 3770 
Q 1056 3291 1056 2328 
Q 1056 1369 1301 889 
Q 1547 409 2034 409 
Q 2525 409 2770 889 
Q 3016 1369 3016 2328 
Q 3016 3291 2770 3770 
Q 2525 4250 2034 4250 
z
M 2034 4750 
Q 2819 4750 3233 4129 
Q 3647 3509 3647 2328 
Q 3647 1150 3233 529 
Q 2819 -91 2034 -91 
Q 1250 -91 836 529 
Q 422 1150 422 2328 
Q 422 3509 836 4129 
Q 1250 4750 2034 4750 
z
" transform="scale(0.015625)"/>
       </defs>
       <use xlink:href="#DejaVuSans-30"/>
      </g>
     </g>
    </g>
    <g id="xtick_2">
     <g id="line2d_9">
      <g>
       <use xlink:href="#m1966725822" x="118.298513" y="242.124" style="stroke: #000000; stroke-width: 1.5"/>
      </g>
     </g>
     <g id="line2d_10">
      <g>
       <use xlink:href="#m9be57b1f11" x="118.298513" y="10.8" style="stroke: #000000; stroke-width: 1.5"/>
      </g>
     </g>
     <g id="text_5">
      <!-- 5 -->
      <g transform="translate(114.481013 254.742125) scale(0.12 -0.12)">
       <defs>
        <path id="DejaVuSans-35" d="M 691 4666 
L 3169 4666 
L 3169 4134 
L 1269 4134 
L 1269 2991 
Q 1406 3038 1543 3061 
Q 1681 3084 1819 3084 
Q 2600 3084 3056 2656 
Q 3513 2228 3513 1497 
Q 3513 744 3044 326 
Q 2575 -91 1722 -91 
Q 1428 -91 1123 -41 
Q 819 9 494 109 
L 494 744 
Q 775 591 1075 516 
Q 1375 441 1709 441 
Q 2250 441 2565 725 
Q 2881 1009 2881 1497 
Q 2881 1984 2565 2268 
Q 2250 2553 1709 2553 
Q 1456 2553 1204 2497 
Q 953 2441 691 2322 
L 691 4666 
z
" transform="scale(0.015625)"/>
       </defs>
       <use xlink:href="#DejaVuSans-35"/>
      </g>
     </g>
    </g>
    <g id="xtick_3">
     <g id="line2d_11">
      <g>
       <use xlink:href="#m1966725822" x="159.340002" y="242.124" style="stroke: #000000; stroke-width: 1.5"/>
      </g>
     </g>
     <g id="line2d_12">
      <g>
       <use xlink:href="#m9be57b1f11" x="159.340002" y="10.8" style="stroke: #000000; stroke-width: 1.5"/>
      </g>
     </g>
     <g id="text_6">
      <!-- 10 -->
      <g transform="translate(151.705002 254.742125) scale(0.12 -0.12)">
       <defs>
        <path id="DejaVuSans-31" d="M 794 531 
L 1825 531 
L 1825 4091 
L 703 3866 
L 703 4441 
L 1819 4666 
L 2450 4666 
L 2450 531 
L 3481 531 
L 3481 0 
L 794 0 
L 794 531 
z
" transform="scale(0.015625)"/>
       </defs>
       <use xlink:href="#DejaVuSans-31"/>
       <use xlink:href="#DejaVuSans-30" x="63.623047"/>
      </g>
     </g>
    </g>
    <g id="xtick_4">
     <g id="line2d_13">
      <g>
       <use xlink:href="#m1966725822" x="200.381491" y="242.124" style="stroke: #000000; stroke-width: 1.5"/>
      </g>
     </g>
     <g id="line2d_14">
      <g>
       <use xlink:href="#m9be57b1f11" x="200.381491" y="10.8" style="stroke: #000000; stroke-width: 1.5"/>
      </g>
     </g>
     <g id="text_7">
      <!-- 15 -->
      <g transform="translate(192.746491 254.742125) scale(0.12 -0.12)">
       <use xlink:href="#DejaVuSans-31"/>
       <use xlink:href="#DejaVuSans-35" x="63.623047"/>
      </g>
     </g>
    </g>
    <g id="xtick_5">
     <g id="line2d_15">
      <g>
       <use xlink:href="#m1966725822" x="241.42298" y="242.124" style="stroke: #000000; stroke-width: 1.5"/>
      </g>
     </g>
     <g id="line2d_16">
      <g>
       <use xlink:href="#m9be57b1f11" x="241.42298" y="10.8" style="stroke: #000000; stroke-width: 1.5"/>
      </g>
     </g>
     <g id="text_8">
      <!-- 20 -->
      <g transform="translate(233.78798 254.742125) scale(0.12 -0.12)">
       <defs>
        <path id="DejaVuSans-32" d="M 1228 531 
L 3431 531 
L 3431 0 
L 469 0 
L 469 531 
Q 828 903 1448 1529 
Q 2069 2156 2228 2338 
Q 2531 2678 2651 2914 
Q 2772 3150 2772 3378 
Q 2772 3750 2511 3984 
Q 2250 4219 1831 4219 
Q 1534 4219 1204 4116 
Q 875 4013 500 3803 
L 500 4441 
Q 881 4594 1212 4672 
Q 1544 4750 1819 4750 
Q 2544 4750 2975 4387 
Q 3406 4025 3406 3419 
Q 3406 3131 3298 2873 
Q 3191 2616 2906 2266 
Q 2828 2175 2409 1742 
Q 1991 1309 1228 531 
z
" transform="scale(0.015625)"/>
       </defs>
       <use xlink:href="#DejaVuSans-32"/>
       <use xlink:href="#DejaVuSans-30" x="63.623047"/>
      </g>
     </g>
    </g>
    <g id="xtick_6">
     <g id="line2d_17">
      <g>
       <use xlink:href="#m1966725822" x="282.46447" y="242.124" style="stroke: #000000; stroke-width: 1.5"/>
      </g>
     </g>
     <g id="line2d_18">
      <g>
       <use xlink:href="#m9be57b1f11" x="282.46447" y="10.8" style="stroke: #000000; stroke-width: 1.5"/>
      </g>
     </g>
     <g id="text_9">
      <!-- 25 -->
      <g transform="translate(274.82947 254.742125) scale(0.12 -0.12)">
       <use xlink:href="#DejaVuSans-32"/>
       <use xlink:href="#DejaVuSans-35" x="63.623047"/>
      </g>
     </g>
    </g>
    <g id="xtick_7">
     <g id="line2d_19">
      <g>
       <use xlink:href="#m1966725822" x="323.505959" y="242.124" style="stroke: #000000; stroke-width: 1.5"/>
      </g>
     </g>
     <g id="line2d_20">
      <g>
       <use xlink:href="#m9be57b1f11" x="323.505959" y="10.8" style="stroke: #000000; stroke-width: 1.5"/>
      </g>
     </g>
     <g id="text_10">
      <!-- 30 -->
      <g transform="translate(315.870959 254.742125) scale(0.12 -0.12)">
       <defs>
        <path id="DejaVuSans-33" d="M 2597 2516 
Q 3050 2419 3304 2112 
Q 3559 1806 3559 1356 
Q 3559 666 3084 287 
Q 2609 -91 1734 -91 
Q 1441 -91 1130 -33 
Q 819 25 488 141 
L 488 750 
Q 750 597 1062 519 
Q 1375 441 1716 441 
Q 2309 441 2620 675 
Q 2931 909 2931 1356 
Q 2931 1769 2642 2001 
Q 2353 2234 1838 2234 
L 1294 2234 
L 1294 2753 
L 1863 2753 
Q 2328 2753 2575 2939 
Q 2822 3125 2822 3475 
Q 2822 3834 2567 4026 
Q 2313 4219 1838 4219 
Q 1578 4219 1281 4162 
Q 984 4106 628 3988 
L 628 4550 
Q 988 4650 1302 4700 
Q 1616 4750 1894 4750 
Q 2613 4750 3031 4423 
Q 3450 4097 3450 3541 
Q 3450 3153 3228 2886 
Q 3006 2619 2597 2516 
z
" transform="scale(0.015625)"/>
       </defs>
       <use xlink:href="#DejaVuSans-33"/>
       <use xlink:href="#DejaVuSans-30" x="63.623047"/>
      </g>
     </g>
    </g>
    <g id="xtick_8">
     <g id="line2d_21">
      <g>
       <use xlink:href="#m1966725822" x="364.547448" y="242.124" style="stroke: #000000; stroke-width: 1.5"/>
      </g>
     </g>
     <g id="line2d_22">
      <g>
       <use xlink:href="#m9be57b1f11" x="364.547448" y="10.8" style="stroke: #000000; stroke-width: 1.5"/>
      </g>
     </g>
     <g id="text_11">
      <!-- 35 -->
      <g transform="translate(356.912448 254.742125) scale(0.12 -0.12)">
       <use xlink:href="#DejaVuSans-33"/>
       <use xlink:href="#DejaVuSans-35" x="63.623047"/>
      </g>
     </g>
    </g>
    <g id="xtick_9">
     <g id="line2d_23">
      <g>
       <use xlink:href="#m1966725822" x="405.588937" y="242.124" style="stroke: #000000; stroke-width: 1.5"/>
      </g>
     </g>
     <g id="line2d_24">
      <g>
       <use xlink:href="#m9be57b1f11" x="405.588937" y="10.8" style="stroke: #000000; stroke-width: 1.5"/>
      </g>
     </g>
     <g id="text_12">
      <!-- 40 -->
      <g transform="translate(397.953937 254.742125) scale(0.12 -0.12)">
       <defs>
        <path id="DejaVuSans-34" d="M 2419 4116 
L 825 1625 
L 2419 1625 
L 2419 4116 
z
M 2253 4666 
L 3047 4666 
L 3047 1625 
L 3713 1625 
L 3713 1100 
L 3047 1100 
L 3047 0 
L 2419 0 
L 2419 1100 
L 313 1100 
L 313 1709 
L 2253 4666 
z
" transform="scale(0.015625)"/>
       </defs>
       <use xlink:href="#DejaVuSans-34"/>
       <use xlink:href="#DejaVuSans-30" x="63.623047"/>
      </g>
     </g>
    </g>
    <g id="xtick_10">
     <g id="line2d_25">
      <defs>
       <path id="m642d024b89" d="M 0 0 
L 0 -2 
" style="stroke: #000000; stroke-width: 1.5"/>
      </defs>
      <g>
       <use xlink:href="#m642d024b89" x="85.465321" y="242.124" style="stroke: #000000; stroke-width: 1.5"/>
      </g>
     </g>
     <g id="line2d_26">
      <defs>
       <path id="ma404b3f99a" d="M 0 0 
L 0 2 
" style="stroke: #000000; stroke-width: 1.5"/>
      </defs>
      <g>
       <use xlink:href="#ma404b3f99a" x="85.465321" y="10.8" style="stroke: #000000; stroke-width: 1.5"/>
      </g>
     </g>
    </g>
    <g id="xtick_11">
     <g id="line2d_27">
      <g>
       <use xlink:href="#m642d024b89" x="93.673619" y="242.124" style="stroke: #000000; stroke-width: 1.5"/>
      </g>
     </g>
     <g id="line2d_28">
      <g>
       <use xlink:href="#ma404b3f99a" x="93.673619" y="10.8" style="stroke: #000000; stroke-width: 1.5"/>
      </g>
     </g>
    </g>
    <g id="xtick_12">
     <g id="line2d_29">
      <g>
       <use xlink:href="#m642d024b89" x="101.881917" y="242.124" style="stroke: #000000; stroke-width: 1.5"/>
      </g>
     </g>
     <g id="line2d_30">
      <g>
       <use xlink:href="#ma404b3f99a" x="101.881917" y="10.8" style="stroke: #000000; stroke-width: 1.5"/>
      </g>
     </g>
    </g>
    <g id="xtick_13">
     <g id="line2d_31">
      <g>
       <use xlink:href="#m642d024b89" x="110.090215" y="242.124" style="stroke: #000000; stroke-width: 1.5"/>
      </g>
     </g>
     <g id="line2d_32">
      <g>
       <use xlink:href="#ma404b3f99a" x="110.090215" y="10.8" style="stroke: #000000; stroke-width: 1.5"/>
      </g>
     </g>
    </g>
    <g id="xtick_14">
     <g id="line2d_33">
      <g>
       <use xlink:href="#m642d024b89" x="126.506811" y="242.124" style="stroke: #000000; stroke-width: 1.5"/>
      </g>
     </g>
     <g id="line2d_34">
      <g>
       <use xlink:href="#ma404b3f99a" x="126.506811" y="10.8" style="stroke: #000000; stroke-width: 1.5"/>
      </g>
     </g>
    </g>
    <g id="xtick_15">
     <g id="line2d_35">
      <g>
       <use xlink:href="#m642d024b89" x="134.715108" y="242.124" style="stroke: #000000; stroke-width: 1.5"/>
      </g>
     </g>
     <g id="line2d_36">
      <g>
       <use xlink:href="#ma404b3f99a" x="134.715108" y="10.8" style="stroke: #000000; stroke-width: 1.5"/>
      </g>
     </g>
    </g>
    <g id="xtick_16">
     <g id="line2d_37">
      <g>
       <use xlink:href="#m642d024b89" x="142.923406" y="242.124" style="stroke: #000000; stroke-width: 1.5"/>
      </g>
     </g>
     <g id="line2d_38">
      <g>
       <use xlink:href="#ma404b3f99a" x="142.923406" y="10.8" style="stroke: #000000; stroke-width: 1.5"/>
      </g>
     </g>
    </g>
    <g id="xtick_17">
     <g id="line2d_39">
      <g>
       <use xlink:href="#m642d024b89" x="151.131704" y="242.124" style="stroke: #000000; stroke-width: 1.5"/>
      </g>
     </g>
     <g id="line2d_40">
      <g>
       <use xlink:href="#ma404b3f99a" x="151.131704" y="10.8" style="stroke: #000000; stroke-width: 1.5"/>
      </g>
     </g>
    </g>
    <g id="xtick_18">
     <g id="line2d_41">
      <g>
       <use xlink:href="#m642d024b89" x="167.5483" y="242.124" style="stroke: #000000; stroke-width: 1.5"/>
      </g>
     </g>
     <g id="line2d_42">
      <g>
       <use xlink:href="#ma404b3f99a" x="167.5483" y="10.8" style="stroke: #000000; stroke-width: 1.5"/>
      </g>
     </g>
    </g>
    <g id="xtick_19">
     <g id="line2d_43">
      <g>
       <use xlink:href="#m642d024b89" x="175.756598" y="242.124" style="stroke: #000000; stroke-width: 1.5"/>
      </g>
     </g>
     <g id="line2d_44">
      <g>
       <use xlink:href="#ma404b3f99a" x="175.756598" y="10.8" style="stroke: #000000; stroke-width: 1.5"/>
      </g>
     </g>
    </g>
    <g id="xtick_20">
     <g id="line2d_45">
      <g>
       <use xlink:href="#m642d024b89" x="183.964895" y="242.124" style="stroke: #000000; stroke-width: 1.5"/>
      </g>
     </g>
     <g id="line2d_46">
      <g>
       <use xlink:href="#ma404b3f99a" x="183.964895" y="10.8" style="stroke: #000000; stroke-width: 1.5"/>
      </g>
     </g>
    </g>
    <g id="xtick_21">
     <g id="line2d_47">
      <g>
       <use xlink:href="#m642d024b89" x="192.173193" y="242.124" style="stroke: #000000; stroke-width: 1.5"/>
      </g>
     </g>
     <g id="line2d_48">
      <g>
       <use xlink:href="#ma404b3f99a" x="192.173193" y="10.8" style="stroke: #000000; stroke-width: 1.5"/>
      </g>
     </g>
    </g>
    <g id="xtick_22">
     <g id="line2d_49">
      <g>
       <use xlink:href="#m642d024b89" x="208.589789" y="242.124" style="stroke: #000000; stroke-width: 1.5"/>
      </g>
     </g>
     <g id="line2d_50">
      <g>
       <use xlink:href="#ma404b3f99a" x="208.589789" y="10.8" style="stroke: #000000; stroke-width: 1.5"/>
      </g>
     </g>
    </g>
    <g id="xtick_23">
     <g id="line2d_51">
      <g>
       <use xlink:href="#m642d024b89" x="216.798087" y="242.124" style="stroke: #000000; stroke-width: 1.5"/>
      </g>
     </g>
     <g id="line2d_52">
      <g>
       <use xlink:href="#ma404b3f99a" x="216.798087" y="10.8" style="stroke: #000000; stroke-width: 1.5"/>
      </g>
     </g>
    </g>
    <g id="xtick_24">
     <g id="line2d_53">
      <g>
       <use xlink:href="#m642d024b89" x="225.006385" y="242.124" style="stroke: #000000; stroke-width: 1.5"/>
      </g>
     </g>
     <g id="line2d_54">
      <g>
       <use xlink:href="#ma404b3f99a" x="225.006385" y="10.8" style="stroke: #000000; stroke-width: 1.5"/>
      </g>
     </g>
    </g>
    <g id="xtick_25">
     <g id="line2d_55">
      <g>
       <use xlink:href="#m642d024b89" x="233.214683" y="242.124" style="stroke: #000000; stroke-width: 1.5"/>
      </g>
     </g>
     <g id="line2d_56">
      <g>
       <use xlink:href="#ma404b3f99a" x="233.214683" y="10.8" style="stroke: #000000; stroke-width: 1.5"/>
      </g>
     </g>
    </g>
    <g id="xtick_26">
     <g id="line2d_57">
      <g>
       <use xlink:href="#m642d024b89" x="249.631278" y="242.124" style="stroke: #000000; stroke-width: 1.5"/>
      </g>
     </g>
     <g id="line2d_58">
      <g>
       <use xlink:href="#ma404b3f99a" x="249.631278" y="10.8" style="stroke: #000000; stroke-width: 1.5"/>
      </g>
     </g>
    </g>
    <g id="xtick_27">
     <g id="line2d_59">
      <g>
       <use xlink:href="#m642d024b89" x="257.839576" y="242.124" style="stroke: #000000; stroke-width: 1.5"/>
      </g>
     </g>
     <g id="line2d_60">
      <g>
       <use xlink:href="#ma404b3f99a" x="257.839576" y="10.8" style="stroke: #000000; stroke-width: 1.5"/>
      </g>
     </g>
    </g>
    <g id="xtick_28">
     <g id="line2d_61">
      <g>
       <use xlink:href="#m642d024b89" x="266.047874" y="242.124" style="stroke: #000000; stroke-width: 1.5"/>
      </g>
     </g>
     <g id="line2d_62">
      <g>
       <use xlink:href="#ma404b3f99a" x="266.047874" y="10.8" style="stroke: #000000; stroke-width: 1.5"/>
      </g>
     </g>
    </g>
    <g id="xtick_29">
     <g id="line2d_63">
      <g>
       <use xlink:href="#m642d024b89" x="274.256172" y="242.124" style="stroke: #000000; stroke-width: 1.5"/>
      </g>
     </g>
     <g id="line2d_64">
      <g>
       <use xlink:href="#ma404b3f99a" x="274.256172" y="10.8" style="stroke: #000000; stroke-width: 1.5"/>
      </g>
     </g>
    </g>
    <g id="xtick_30">
     <g id="line2d_65">
      <g>
       <use xlink:href="#m642d024b89" x="290.672767" y="242.124" style="stroke: #000000; stroke-width: 1.5"/>
      </g>
     </g>
     <g id="line2d_66">
      <g>
       <use xlink:href="#ma404b3f99a" x="290.672767" y="10.8" style="stroke: #000000; stroke-width: 1.5"/>
      </g>
     </g>
    </g>
    <g id="xtick_31">
     <g id="line2d_67">
      <g>
       <use xlink:href="#m642d024b89" x="298.881065" y="242.124" style="stroke: #000000; stroke-width: 1.5"/>
      </g>
     </g>
     <g id="line2d_68">
      <g>
       <use xlink:href="#ma404b3f99a" x="298.881065" y="10.8" style="stroke: #000000; stroke-width: 1.5"/>
      </g>
     </g>
    </g>
    <g id="xtick_32">
     <g id="line2d_69">
      <g>
       <use xlink:href="#m642d024b89" x="307.089363" y="242.124" style="stroke: #000000; stroke-width: 1.5"/>
      </g>
     </g>
     <g id="line2d_70">
      <g>
       <use xlink:href="#ma404b3f99a" x="307.089363" y="10.8" style="stroke: #000000; stroke-width: 1.5"/>
      </g>
     </g>
    </g>
    <g id="xtick_33">
     <g id="line2d_71">
      <g>
       <use xlink:href="#m642d024b89" x="315.297661" y="242.124" style="stroke: #000000; stroke-width: 1.5"/>
      </g>
     </g>
     <g id="line2d_72">
      <g>
       <use xlink:href="#ma404b3f99a" x="315.297661" y="10.8" style="stroke: #000000; stroke-width: 1.5"/>
      </g>
     </g>
    </g>
    <g id="xtick_34">
     <g id="line2d_73">
      <g>
       <use xlink:href="#m642d024b89" x="331.714257" y="242.124" style="stroke: #000000; stroke-width: 1.5"/>
      </g>
     </g>
     <g id="line2d_74">
      <g>
       <use xlink:href="#ma404b3f99a" x="331.714257" y="10.8" style="stroke: #000000; stroke-width: 1.5"/>
      </g>
     </g>
    </g>
    <g id="xtick_35">
     <g id="line2d_75">
      <g>
       <use xlink:href="#m642d024b89" x="339.922554" y="242.124" style="stroke: #000000; stroke-width: 1.5"/>
      </g>
     </g>
     <g id="line2d_76">
      <g>
       <use xlink:href="#ma404b3f99a" x="339.922554" y="10.8" style="stroke: #000000; stroke-width: 1.5"/>
      </g>
     </g>
    </g>
    <g id="xtick_36">
     <g id="line2d_77">
      <g>
       <use xlink:href="#m642d024b89" x="348.130852" y="242.124" style="stroke: #000000; stroke-width: 1.5"/>
      </g>
     </g>
     <g id="line2d_78">
      <g>
       <use xlink:href="#ma404b3f99a" x="348.130852" y="10.8" style="stroke: #000000; stroke-width: 1.5"/>
      </g>
     </g>
    </g>
    <g id="xtick_37">
     <g id="line2d_79">
      <g>
       <use xlink:href="#m642d024b89" x="356.33915" y="242.124" style="stroke: #000000; stroke-width: 1.5"/>
      </g>
     </g>
     <g id="line2d_80">
      <g>
       <use xlink:href="#ma404b3f99a" x="356.33915" y="10.8" style="stroke: #000000; stroke-width: 1.5"/>
      </g>
     </g>
    </g>
    <g id="xtick_38">
     <g id="line2d_81">
      <g>
       <use xlink:href="#m642d024b89" x="372.755746" y="242.124" style="stroke: #000000; stroke-width: 1.5"/>
      </g>
     </g>
     <g id="line2d_82">
      <g>
       <use xlink:href="#ma404b3f99a" x="372.755746" y="10.8" style="stroke: #000000; stroke-width: 1.5"/>
      </g>
     </g>
    </g>
    <g id="xtick_39">
     <g id="line2d_83">
      <g>
       <use xlink:href="#m642d024b89" x="380.964044" y="242.124" style="stroke: #000000; stroke-width: 1.5"/>
      </g>
     </g>
     <g id="line2d_84">
      <g>
       <use xlink:href="#ma404b3f99a" x="380.964044" y="10.8" style="stroke: #000000; stroke-width: 1.5"/>
      </g>
     </g>
    </g>
    <g id="xtick_40">
     <g id="line2d_85">
      <g>
       <use xlink:href="#m642d024b89" x="389.172342" y="242.124" style="stroke: #000000; stroke-width: 1.5"/>
      </g>
     </g>
     <g id="line2d_86">
      <g>
       <use xlink:href="#ma404b3f99a" x="389.172342" y="10.8" style="stroke: #000000; stroke-width: 1.5"/>
      </g>
     </g>
    </g>
    <g id="xtick_41">
     <g id="line2d_87">
      <g>
       <use xlink:href="#m642d024b89" x="397.380639" y="242.124" style="stroke: #000000; stroke-width: 1.5"/>
      </g>
     </g>
     <g id="line2d_88">
      <g>
       <use xlink:href="#ma404b3f99a" x="397.380639" y="10.8" style="stroke: #000000; stroke-width: 1.5"/>
      </g>
     </g>
    </g>
    <g id="xtick_42">
     <g id="line2d_89">
      <g>
       <use xlink:href="#m642d024b89" x="413.797235" y="242.124" style="stroke: #000000; stroke-width: 1.5"/>
      </g>
     </g>
     <g id="line2d_90">
      <g>
       <use xlink:href="#ma404b3f99a" x="413.797235" y="10.8" style="stroke: #000000; stroke-width: 1.5"/>
      </g>
     </g>
    </g>
    <g id="text_13">
     <!-- Distance [R$_\odot$] -->
     <g transform="translate(204.253259 270.355875) scale(0.12 -0.12)">
      <defs>
       <path id="DejaVuSans-44" d="M 1259 4147 
L 1259 519 
L 2022 519 
Q 2988 519 3436 956 
Q 3884 1394 3884 2338 
Q 3884 3275 3436 3711 
Q 2988 4147 2022 4147 
L 1259 4147 
z
M 628 4666 
L 1925 4666 
Q 3281 4666 3915 4102 
Q 4550 3538 4550 2338 
Q 4550 1131 3912 565 
Q 3275 0 1925 0 
L 628 0 
L 628 4666 
z
" transform="scale(0.015625)"/>
       <path id="DejaVuSans-63" d="M 3122 3366 
L 3122 2828 
Q 2878 2963 2633 3030 
Q 2388 3097 2138 3097 
Q 1578 3097 1268 2742 
Q 959 2388 959 1747 
Q 959 1106 1268 751 
Q 1578 397 2138 397 
Q 2388 397 2633 464 
Q 2878 531 3122 666 
L 3122 134 
Q 2881 22 2623 -34 
Q 2366 -91 2075 -91 
Q 1284 -91 818 406 
Q 353 903 353 1747 
Q 353 2603 823 3093 
Q 1294 3584 2113 3584 
Q 2378 3584 2631 3529 
Q 2884 3475 3122 3366 
z
" transform="scale(0.015625)"/>
       <path id="DejaVuSans-65" d="M 3597 1894 
L 3597 1613 
L 953 1613 
Q 991 1019 1311 708 
Q 1631 397 2203 397 
Q 2534 397 2845 478 
Q 3156 559 3463 722 
L 3463 178 
Q 3153 47 2828 -22 
Q 2503 -91 2169 -91 
Q 1331 -91 842 396 
Q 353 884 353 1716 
Q 353 2575 817 3079 
Q 1281 3584 2069 3584 
Q 2775 3584 3186 3129 
Q 3597 2675 3597 1894 
z
M 3022 2063 
Q 3016 2534 2758 2815 
Q 2500 3097 2075 3097 
Q 1594 3097 1305 2825 
Q 1016 2553 972 2059 
L 3022 2063 
z
" transform="scale(0.015625)"/>
       <path id="DejaVuSans-5b" d="M 550 4863 
L 1875 4863 
L 1875 4416 
L 1125 4416 
L 1125 -397 
L 1875 -397 
L 1875 -844 
L 550 -844 
L 550 4863 
z
" transform="scale(0.015625)"/>
       <path id="DejaVuSans-52" d="M 2841 2188 
Q 3044 2119 3236 1894 
Q 3428 1669 3622 1275 
L 4263 0 
L 3584 0 
L 2988 1197 
Q 2756 1666 2539 1819 
Q 2322 1972 1947 1972 
L 1259 1972 
L 1259 0 
L 628 0 
L 628 4666 
L 2053 4666 
Q 2853 4666 3247 4331 
Q 3641 3997 3641 3322 
Q 3641 2881 3436 2590 
Q 3231 2300 2841 2188 
z
M 1259 4147 
L 1259 2491 
L 2053 2491 
Q 2509 2491 2742 2702 
Q 2975 2913 2975 3322 
Q 2975 3731 2742 3939 
Q 2509 4147 2053 4147 
L 1259 4147 
z
" transform="scale(0.015625)"/>
       <path id="DejaVuSans-2299" d="M 2350 2403 
L 3013 2403 
L 3013 1609 
L 2350 1609 
L 2350 2403 
z
M 3306 3522 
Q 3016 3644 2681 3644 
Q 2347 3644 2056 3522 
Q 1769 3400 1531 3163 
Q 1291 2922 1172 2634 
Q 1053 2347 1053 2006 
Q 1053 1675 1172 1387 
Q 1291 1100 1531 859 
Q 1769 622 2056 500 
Q 2347 378 2681 378 
Q 3016 378 3306 500 
Q 3594 622 3831 859 
Q 4072 1100 4190 1387 
Q 4309 1675 4309 2006 
Q 4309 2347 4190 2634 
Q 4072 2922 3831 3163 
Q 3594 3400 3306 3522 
z
M 1878 3956 
Q 2250 4113 2681 4113 
Q 3113 4113 3484 3956 
Q 3856 3800 4163 3494 
Q 4472 3184 4625 2813 
Q 4778 2444 4778 2006 
Q 4778 1578 4625 1206 
Q 4472 838 4163 528 
Q 3856 222 3484 65 
Q 3113 -91 2681 -91 
Q 2250 -91 1878 65 
Q 1506 222 1200 528 
Q 891 838 738 1206 
Q 584 1578 584 2006 
Q 584 2444 738 2813 
Q 891 3184 1200 3494 
Q 1506 3800 1878 3956 
z
" transform="scale(0.015625)"/>
       <path id="DejaVuSans-5d" d="M 1947 4863 
L 1947 -844 
L 622 -844 
L 622 -397 
L 1369 -397 
L 1369 4416 
L 622 4416 
L 622 4863 
L 1947 4863 
z
" transform="scale(0.015625)"/>
      </defs>
      <use xlink:href="#DejaVuSans-44" transform="translate(0 0.015625)"/>
      <use xlink:href="#DejaVuSans-69" transform="translate(77.001953 0.015625)"/>
      <use xlink:href="#DejaVuSans-73" transform="translate(104.785156 0.015625)"/>
      <use xlink:href="#DejaVuSans-74" transform="translate(156.884766 0.015625)"/>
      <use xlink:href="#DejaVuSans-61" transform="translate(196.09375 0.015625)"/>
      <use xlink:href="#DejaVuSans-6e" transform="translate(257.373047 0.015625)"/>
      <use xlink:href="#DejaVuSans-63" transform="translate(320.751953 0.015625)"/>
      <use xlink:href="#DejaVuSans-65" transform="translate(375.732422 0.015625)"/>
      <use xlink:href="#DejaVuSans-20" transform="translate(437.255859 0.015625)"/>
      <use xlink:href="#DejaVuSans-5b" transform="translate(469.042969 0.015625)"/>
      <use xlink:href="#DejaVuSans-52" transform="translate(504.931641 0.015625)"/>
      <use xlink:href="#DejaVuSans-2299" transform="translate(589.008789 -16.390625) scale(0.7)"/>
      <use xlink:href="#DejaVuSans-5d" transform="translate(664.033203 0.015625)"/>
     </g>
    </g>
   </g>
   <g id="matplotlib.axis_2">
    <g id="ytick_1">
     <g id="line2d_91">
      <defs>
       <path id="m10995319a6" d="M 0 0 
L 3.5 0 
" style="stroke: #000000; stroke-width: 1.5"/>
      </defs>
      <g>
       <use xlink:href="#m10995319a6" x="71.786518" y="188.416062" style="stroke: #000000; stroke-width: 1.5"/>
      </g>
     </g>
     <g id="line2d_92">
      <defs>
       <path id="m9ce53c047f" d="M 0 0 
L -3.5 0 
" style="stroke: #000000; stroke-width: 1.5"/>
      </defs>
      <g>
       <use xlink:href="#m9ce53c047f" x="421.2" y="188.416062" style="stroke: #000000; stroke-width: 1.5"/>
      </g>
     </g>
     <g id="text_14">
      <!-- $\mathdefault{10^{-16}}$ -->
      <g transform="translate(34.806518 192.975125) scale(0.12 -0.12)">
       <defs>
        <path id="DejaVuSans-2212" d="M 678 2272 
L 4684 2272 
L 4684 1741 
L 678 1741 
L 678 2272 
z
" transform="scale(0.015625)"/>
        <path id="DejaVuSans-36" d="M 2113 2584 
Q 1688 2584 1439 2293 
Q 1191 2003 1191 1497 
Q 1191 994 1439 701 
Q 1688 409 2113 409 
Q 2538 409 2786 701 
Q 3034 994 3034 1497 
Q 3034 2003 2786 2293 
Q 2538 2584 2113 2584 
z
M 3366 4563 
L 3366 3988 
Q 3128 4100 2886 4159 
Q 2644 4219 2406 4219 
Q 1781 4219 1451 3797 
Q 1122 3375 1075 2522 
Q 1259 2794 1537 2939 
Q 1816 3084 2150 3084 
Q 2853 3084 3261 2657 
Q 3669 2231 3669 1497 
Q 3669 778 3244 343 
Q 2819 -91 2113 -91 
Q 1303 -91 875 529 
Q 447 1150 447 2328 
Q 447 3434 972 4092 
Q 1497 4750 2381 4750 
Q 2619 4750 2861 4703 
Q 3103 4656 3366 4563 
z
" transform="scale(0.015625)"/>
       </defs>
       <use xlink:href="#DejaVuSans-31" transform="translate(0 0.765625)"/>
       <use xlink:href="#DejaVuSans-30" transform="translate(63.623047 0.765625)"/>
       <use xlink:href="#DejaVuSans-2212" transform="translate(128.203125 39.046875) scale(0.7)"/>
       <use xlink:href="#DejaVuSans-31" transform="translate(186.855469 39.046875) scale(0.7)"/>
       <use xlink:href="#DejaVuSans-36" transform="translate(231.391602 39.046875) scale(0.7)"/>
      </g>
     </g>
    </g>
    <g id="ytick_2">
     <g id="line2d_93">
      <g>
       <use xlink:href="#m10995319a6" x="71.786518" y="132.134424" style="stroke: #000000; stroke-width: 1.5"/>
      </g>
     </g>
     <g id="line2d_94">
      <g>
       <use xlink:href="#m9ce53c047f" x="421.2" y="132.134424" style="stroke: #000000; stroke-width: 1.5"/>
      </g>
     </g>
     <g id="text_15">
      <!-- $\mathdefault{10^{-15}}$ -->
      <g transform="translate(34.806518 136.693486) scale(0.12 -0.12)">
       <use xlink:href="#DejaVuSans-31" transform="translate(0 0.684375)"/>
       <use xlink:href="#DejaVuSans-30" transform="translate(63.623047 0.684375)"/>
       <use xlink:href="#DejaVuSans-2212" transform="translate(128.203125 38.965625) scale(0.7)"/>
       <use xlink:href="#DejaVuSans-31" transform="translate(186.855469 38.965625) scale(0.7)"/>
       <use xlink:href="#DejaVuSans-35" transform="translate(231.391602 38.965625) scale(0.7)"/>
      </g>
     </g>
    </g>
    <g id="ytick_3">
     <g id="line2d_95">
      <g>
       <use xlink:href="#m10995319a6" x="71.786518" y="75.852786" style="stroke: #000000; stroke-width: 1.5"/>
      </g>
     </g>
     <g id="line2d_96">
      <g>
       <use xlink:href="#m9ce53c047f" x="421.2" y="75.852786" style="stroke: #000000; stroke-width: 1.5"/>
      </g>
     </g>
     <g id="text_16">
      <!-- $\mathdefault{10^{-14}}$ -->
      <g transform="translate(34.806518 80.411848) scale(0.12 -0.12)">
       <use xlink:href="#DejaVuSans-31" transform="translate(0 0.684375)"/>
       <use xlink:href="#DejaVuSans-30" transform="translate(63.623047 0.684375)"/>
       <use xlink:href="#DejaVuSans-2212" transform="translate(128.203125 38.965625) scale(0.7)"/>
       <use xlink:href="#DejaVuSans-31" transform="translate(186.855469 38.965625) scale(0.7)"/>
       <use xlink:href="#DejaVuSans-34" transform="translate(231.391602 38.965625) scale(0.7)"/>
      </g>
     </g>
    </g>
    <g id="ytick_4">
     <g id="line2d_97">
      <g>
       <use xlink:href="#m10995319a6" x="71.786518" y="19.571148" style="stroke: #000000; stroke-width: 1.5"/>
      </g>
     </g>
     <g id="line2d_98">
      <g>
       <use xlink:href="#m9ce53c047f" x="421.2" y="19.571148" style="stroke: #000000; stroke-width: 1.5"/>
      </g>
     </g>
     <g id="text_17">
      <!-- $\mathdefault{10^{-13}}$ -->
      <g transform="translate(34.806518 24.13021) scale(0.12 -0.12)">
       <use xlink:href="#DejaVuSans-31" transform="translate(0 0.765625)"/>
       <use xlink:href="#DejaVuSans-30" transform="translate(63.623047 0.765625)"/>
       <use xlink:href="#DejaVuSans-2212" transform="translate(128.203125 39.046875) scale(0.7)"/>
       <use xlink:href="#DejaVuSans-31" transform="translate(186.855469 39.046875) scale(0.7)"/>
       <use xlink:href="#DejaVuSans-33" transform="translate(231.391602 39.046875) scale(0.7)"/>
      </g>
     </g>
    </g>
    <g id="ytick_5">
     <g id="line2d_99">
      <defs>
       <path id="m67a9f9cc66" d="M 0 0 
L 2 0 
" style="stroke: #000000; stroke-width: 1.5"/>
      </defs>
      <g>
       <use xlink:href="#m67a9f9cc66" x="71.786518" y="227.755239" style="stroke: #000000; stroke-width: 1.5"/>
      </g>
     </g>
     <g id="line2d_100">
      <defs>
       <path id="m4bcf6ce8a7" d="M 0 0 
L -2 0 
" style="stroke: #000000; stroke-width: 1.5"/>
      </defs>
      <g>
       <use xlink:href="#m4bcf6ce8a7" x="421.2" y="227.755239" style="stroke: #000000; stroke-width: 1.5"/>
      </g>
     </g>
    </g>
    <g id="ytick_6">
     <g id="line2d_101">
      <g>
       <use xlink:href="#m67a9f9cc66" x="71.786518" y="217.844534" style="stroke: #000000; stroke-width: 1.5"/>
      </g>
     </g>
     <g id="line2d_102">
      <g>
       <use xlink:href="#m4bcf6ce8a7" x="421.2" y="217.844534" style="stroke: #000000; stroke-width: 1.5"/>
      </g>
     </g>
    </g>
    <g id="ytick_7">
     <g id="line2d_103">
      <g>
       <use xlink:href="#m67a9f9cc66" x="71.786518" y="210.812778" style="stroke: #000000; stroke-width: 1.5"/>
      </g>
     </g>
     <g id="line2d_104">
      <g>
       <use xlink:href="#m4bcf6ce8a7" x="421.2" y="210.812778" style="stroke: #000000; stroke-width: 1.5"/>
      </g>
     </g>
    </g>
    <g id="ytick_8">
     <g id="line2d_105">
      <g>
       <use xlink:href="#m67a9f9cc66" x="71.786518" y="205.358523" style="stroke: #000000; stroke-width: 1.5"/>
      </g>
     </g>
     <g id="line2d_106">
      <g>
       <use xlink:href="#m4bcf6ce8a7" x="421.2" y="205.358523" style="stroke: #000000; stroke-width: 1.5"/>
      </g>
     </g>
    </g>
    <g id="ytick_9">
     <g id="line2d_107">
      <g>
       <use xlink:href="#m67a9f9cc66" x="71.786518" y="200.902073" style="stroke: #000000; stroke-width: 1.5"/>
      </g>
     </g>
     <g id="line2d_108">
      <g>
       <use xlink:href="#m4bcf6ce8a7" x="421.2" y="200.902073" style="stroke: #000000; stroke-width: 1.5"/>
      </g>
     </g>
    </g>
    <g id="ytick_10">
     <g id="line2d_109">
      <g>
       <use xlink:href="#m67a9f9cc66" x="71.786518" y="197.134198" style="stroke: #000000; stroke-width: 1.5"/>
      </g>
     </g>
     <g id="line2d_110">
      <g>
       <use xlink:href="#m4bcf6ce8a7" x="421.2" y="197.134198" style="stroke: #000000; stroke-width: 1.5"/>
      </g>
     </g>
    </g>
    <g id="ytick_11">
     <g id="line2d_111">
      <g>
       <use xlink:href="#m67a9f9cc66" x="71.786518" y="193.870316" style="stroke: #000000; stroke-width: 1.5"/>
      </g>
     </g>
     <g id="line2d_112">
      <g>
       <use xlink:href="#m4bcf6ce8a7" x="421.2" y="193.870316" style="stroke: #000000; stroke-width: 1.5"/>
      </g>
     </g>
    </g>
    <g id="ytick_12">
     <g id="line2d_113">
      <g>
       <use xlink:href="#m67a9f9cc66" x="71.786518" y="190.991369" style="stroke: #000000; stroke-width: 1.5"/>
      </g>
     </g>
     <g id="line2d_114">
      <g>
       <use xlink:href="#m4bcf6ce8a7" x="421.2" y="190.991369" style="stroke: #000000; stroke-width: 1.5"/>
      </g>
     </g>
    </g>
    <g id="ytick_13">
     <g id="line2d_115">
      <g>
       <use xlink:href="#m67a9f9cc66" x="71.786518" y="171.473601" style="stroke: #000000; stroke-width: 1.5"/>
      </g>
     </g>
     <g id="line2d_116">
      <g>
       <use xlink:href="#m4bcf6ce8a7" x="421.2" y="171.473601" style="stroke: #000000; stroke-width: 1.5"/>
      </g>
     </g>
    </g>
    <g id="ytick_14">
     <g id="line2d_117">
      <g>
       <use xlink:href="#m67a9f9cc66" x="71.786518" y="161.562896" style="stroke: #000000; stroke-width: 1.5"/>
      </g>
     </g>
     <g id="line2d_118">
      <g>
       <use xlink:href="#m4bcf6ce8a7" x="421.2" y="161.562896" style="stroke: #000000; stroke-width: 1.5"/>
      </g>
     </g>
    </g>
    <g id="ytick_15">
     <g id="line2d_119">
      <g>
       <use xlink:href="#m67a9f9cc66" x="71.786518" y="154.531139" style="stroke: #000000; stroke-width: 1.5"/>
      </g>
     </g>
     <g id="line2d_120">
      <g>
       <use xlink:href="#m4bcf6ce8a7" x="421.2" y="154.531139" style="stroke: #000000; stroke-width: 1.5"/>
      </g>
     </g>
    </g>
    <g id="ytick_16">
     <g id="line2d_121">
      <g>
       <use xlink:href="#m67a9f9cc66" x="71.786518" y="149.076885" style="stroke: #000000; stroke-width: 1.5"/>
      </g>
     </g>
     <g id="line2d_122">
      <g>
       <use xlink:href="#m4bcf6ce8a7" x="421.2" y="149.076885" style="stroke: #000000; stroke-width: 1.5"/>
      </g>
     </g>
    </g>
    <g id="ytick_17">
     <g id="line2d_123">
      <g>
       <use xlink:href="#m67a9f9cc66" x="71.786518" y="144.620435" style="stroke: #000000; stroke-width: 1.5"/>
      </g>
     </g>
     <g id="line2d_124">
      <g>
       <use xlink:href="#m4bcf6ce8a7" x="421.2" y="144.620435" style="stroke: #000000; stroke-width: 1.5"/>
      </g>
     </g>
    </g>
    <g id="ytick_18">
     <g id="line2d_125">
      <g>
       <use xlink:href="#m67a9f9cc66" x="71.786518" y="140.85256" style="stroke: #000000; stroke-width: 1.5"/>
      </g>
     </g>
     <g id="line2d_126">
      <g>
       <use xlink:href="#m4bcf6ce8a7" x="421.2" y="140.85256" style="stroke: #000000; stroke-width: 1.5"/>
      </g>
     </g>
    </g>
    <g id="ytick_19">
     <g id="line2d_127">
      <g>
       <use xlink:href="#m67a9f9cc66" x="71.786518" y="137.588678" style="stroke: #000000; stroke-width: 1.5"/>
      </g>
     </g>
     <g id="line2d_128">
      <g>
       <use xlink:href="#m4bcf6ce8a7" x="421.2" y="137.588678" style="stroke: #000000; stroke-width: 1.5"/>
      </g>
     </g>
    </g>
    <g id="ytick_20">
     <g id="line2d_129">
      <g>
       <use xlink:href="#m67a9f9cc66" x="71.786518" y="134.70973" style="stroke: #000000; stroke-width: 1.5"/>
      </g>
     </g>
     <g id="line2d_130">
      <g>
       <use xlink:href="#m4bcf6ce8a7" x="421.2" y="134.70973" style="stroke: #000000; stroke-width: 1.5"/>
      </g>
     </g>
    </g>
    <g id="ytick_21">
     <g id="line2d_131">
      <g>
       <use xlink:href="#m67a9f9cc66" x="71.786518" y="115.191963" style="stroke: #000000; stroke-width: 1.5"/>
      </g>
     </g>
     <g id="line2d_132">
      <g>
       <use xlink:href="#m4bcf6ce8a7" x="421.2" y="115.191963" style="stroke: #000000; stroke-width: 1.5"/>
      </g>
     </g>
    </g>
    <g id="ytick_22">
     <g id="line2d_133">
      <g>
       <use xlink:href="#m67a9f9cc66" x="71.786518" y="105.281258" style="stroke: #000000; stroke-width: 1.5"/>
      </g>
     </g>
     <g id="line2d_134">
      <g>
       <use xlink:href="#m4bcf6ce8a7" x="421.2" y="105.281258" style="stroke: #000000; stroke-width: 1.5"/>
      </g>
     </g>
    </g>
    <g id="ytick_23">
     <g id="line2d_135">
      <g>
       <use xlink:href="#m67a9f9cc66" x="71.786518" y="98.249501" style="stroke: #000000; stroke-width: 1.5"/>
      </g>
     </g>
     <g id="line2d_136">
      <g>
       <use xlink:href="#m4bcf6ce8a7" x="421.2" y="98.249501" style="stroke: #000000; stroke-width: 1.5"/>
      </g>
     </g>
    </g>
    <g id="ytick_24">
     <g id="line2d_137">
      <g>
       <use xlink:href="#m67a9f9cc66" x="71.786518" y="92.795247" style="stroke: #000000; stroke-width: 1.5"/>
      </g>
     </g>
     <g id="line2d_138">
      <g>
       <use xlink:href="#m4bcf6ce8a7" x="421.2" y="92.795247" style="stroke: #000000; stroke-width: 1.5"/>
      </g>
     </g>
    </g>
    <g id="ytick_25">
     <g id="line2d_139">
      <g>
       <use xlink:href="#m67a9f9cc66" x="71.786518" y="88.338797" style="stroke: #000000; stroke-width: 1.5"/>
      </g>
     </g>
     <g id="line2d_140">
      <g>
       <use xlink:href="#m4bcf6ce8a7" x="421.2" y="88.338797" style="stroke: #000000; stroke-width: 1.5"/>
      </g>
     </g>
    </g>
    <g id="ytick_26">
     <g id="line2d_141">
      <g>
       <use xlink:href="#m67a9f9cc66" x="71.786518" y="84.570922" style="stroke: #000000; stroke-width: 1.5"/>
      </g>
     </g>
     <g id="line2d_142">
      <g>
       <use xlink:href="#m4bcf6ce8a7" x="421.2" y="84.570922" style="stroke: #000000; stroke-width: 1.5"/>
      </g>
     </g>
    </g>
    <g id="ytick_27">
     <g id="line2d_143">
      <g>
       <use xlink:href="#m67a9f9cc66" x="71.786518" y="81.30704" style="stroke: #000000; stroke-width: 1.5"/>
      </g>
     </g>
     <g id="line2d_144">
      <g>
       <use xlink:href="#m4bcf6ce8a7" x="421.2" y="81.30704" style="stroke: #000000; stroke-width: 1.5"/>
      </g>
     </g>
    </g>
    <g id="ytick_28">
     <g id="line2d_145">
      <g>
       <use xlink:href="#m67a9f9cc66" x="71.786518" y="78.428092" style="stroke: #000000; stroke-width: 1.5"/>
      </g>
     </g>
     <g id="line2d_146">
      <g>
       <use xlink:href="#m4bcf6ce8a7" x="421.2" y="78.428092" style="stroke: #000000; stroke-width: 1.5"/>
      </g>
     </g>
    </g>
    <g id="ytick_29">
     <g id="line2d_147">
      <g>
       <use xlink:href="#m67a9f9cc66" x="71.786518" y="58.910325" style="stroke: #000000; stroke-width: 1.5"/>
      </g>
     </g>
     <g id="line2d_148">
      <g>
       <use xlink:href="#m4bcf6ce8a7" x="421.2" y="58.910325" style="stroke: #000000; stroke-width: 1.5"/>
      </g>
     </g>
    </g>
    <g id="ytick_30">
     <g id="line2d_149">
      <g>
       <use xlink:href="#m67a9f9cc66" x="71.786518" y="48.99962" style="stroke: #000000; stroke-width: 1.5"/>
      </g>
     </g>
     <g id="line2d_150">
      <g>
       <use xlink:href="#m4bcf6ce8a7" x="421.2" y="48.99962" style="stroke: #000000; stroke-width: 1.5"/>
      </g>
     </g>
    </g>
    <g id="ytick_31">
     <g id="line2d_151">
      <g>
       <use xlink:href="#m67a9f9cc66" x="71.786518" y="41.967863" style="stroke: #000000; stroke-width: 1.5"/>
      </g>
     </g>
     <g id="line2d_152">
      <g>
       <use xlink:href="#m4bcf6ce8a7" x="421.2" y="41.967863" style="stroke: #000000; stroke-width: 1.5"/>
      </g>
     </g>
    </g>
    <g id="ytick_32">
     <g id="line2d_153">
      <g>
       <use xlink:href="#m67a9f9cc66" x="71.786518" y="36.513609" style="stroke: #000000; stroke-width: 1.5"/>
      </g>
     </g>
     <g id="line2d_154">
      <g>
       <use xlink:href="#m4bcf6ce8a7" x="421.2" y="36.513609" style="stroke: #000000; stroke-width: 1.5"/>
      </g>
     </g>
    </g>
    <g id="ytick_33">
     <g id="line2d_155">
      <g>
       <use xlink:href="#m67a9f9cc66" x="71.786518" y="32.057159" style="stroke: #000000; stroke-width: 1.5"/>
      </g>
     </g>
     <g id="line2d_156">
      <g>
       <use xlink:href="#m4bcf6ce8a7" x="421.2" y="32.057159" style="stroke: #000000; stroke-width: 1.5"/>
      </g>
     </g>
    </g>
    <g id="ytick_34">
     <g id="line2d_157">
      <g>
       <use xlink:href="#m67a9f9cc66" x="71.786518" y="28.289284" style="stroke: #000000; stroke-width: 1.5"/>
      </g>
     </g>
     <g id="line2d_158">
      <g>
       <use xlink:href="#m4bcf6ce8a7" x="421.2" y="28.289284" style="stroke: #000000; stroke-width: 1.5"/>
      </g>
     </g>
    </g>
    <g id="ytick_35">
     <g id="line2d_159">
      <g>
       <use xlink:href="#m67a9f9cc66" x="71.786518" y="25.025402" style="stroke: #000000; stroke-width: 1.5"/>
      </g>
     </g>
     <g id="line2d_160">
      <g>
       <use xlink:href="#m4bcf6ce8a7" x="421.2" y="25.025402" style="stroke: #000000; stroke-width: 1.5"/>
      </g>
     </g>
    </g>
    <g id="ytick_36">
     <g id="line2d_161">
      <g>
       <use xlink:href="#m67a9f9cc66" x="71.786518" y="22.146454" style="stroke: #000000; stroke-width: 1.5"/>
      </g>
     </g>
     <g id="line2d_162">
      <g>
       <use xlink:href="#m4bcf6ce8a7" x="421.2" y="22.146454" style="stroke: #000000; stroke-width: 1.5"/>
      </g>
     </g>
    </g>
    <g id="text_18">
     <!-- $\dot{M}$ [M$_\odot$ yr$^{-1}$] -->
     <g transform="translate(28.286518 163.122) rotate(-90) scale(0.12 -0.12)">
      <defs>
       <path id="DejaVuSans-307" d="M -1894 4863 
L -1319 4863 
L -1319 4134 
L -1894 4134 
L -1894 4863 
z
M -1600 3584 
L -1600 3584 
z
" transform="scale(0.015625)"/>
       <path id="DejaVuSans-Oblique-4d" d="M 1081 4666 
L 2028 4666 
L 2572 1522 
L 4378 4666 
L 5350 4666 
L 4441 0 
L 3828 0 
L 4622 4091 
L 2791 897 
L 2175 897 
L 1581 4103 
L 788 0 
L 172 0 
L 1081 4666 
z
" transform="scale(0.015625)"/>
       <path id="DejaVuSans-4d" d="M 628 4666 
L 1569 4666 
L 2759 1491 
L 3956 4666 
L 4897 4666 
L 4897 0 
L 4281 0 
L 4281 4097 
L 3078 897 
L 2444 897 
L 1241 4097 
L 1241 0 
L 628 0 
L 628 4666 
z
" transform="scale(0.015625)"/>
       <path id="DejaVuSans-79" d="M 2059 -325 
Q 1816 -950 1584 -1140 
Q 1353 -1331 966 -1331 
L 506 -1331 
L 506 -850 
L 844 -850 
Q 1081 -850 1212 -737 
Q 1344 -625 1503 -206 
L 1606 56 
L 191 3500 
L 800 3500 
L 1894 763 
L 2988 3500 
L 3597 3500 
L 2059 -325 
z
" transform="scale(0.015625)"/>
       <path id="DejaVuSans-72" d="M 2631 2963 
Q 2534 3019 2420 3045 
Q 2306 3072 2169 3072 
Q 1681 3072 1420 2755 
Q 1159 2438 1159 1844 
L 1159 0 
L 581 0 
L 581 3500 
L 1159 3500 
L 1159 2956 
Q 1341 3275 1631 3429 
Q 1922 3584 2338 3584 
Q 2397 3584 2469 3576 
Q 2541 3569 2628 3553 
L 2631 2963 
z
" transform="scale(0.015625)"/>
      </defs>
      <use xlink:href="#DejaVuSans-307" transform="translate(79.163574 30.015625)"/>
      <use xlink:href="#DejaVuSans-Oblique-4d" transform="translate(0 0.609375)"/>
      <use xlink:href="#DejaVuSans-20" transform="translate(86.279297 0.609375)"/>
      <use xlink:href="#DejaVuSans-5b" transform="translate(118.066406 0.609375)"/>
      <use xlink:href="#DejaVuSans-4d" transform="translate(157.080078 0.609375)"/>
      <use xlink:href="#DejaVuSans-2299" transform="translate(257.954102 -15.796875) scale(0.7)"/>
      <use xlink:href="#DejaVuSans-20" transform="translate(332.978516 0.609375)"/>
      <use xlink:href="#DejaVuSans-79" transform="translate(364.765625 0.609375)"/>
      <use xlink:href="#DejaVuSans-72" transform="translate(423.945312 0.609375)"/>
      <use xlink:href="#DejaVuSans-2212" transform="translate(466.015625 38.890625) scale(0.7)"/>
      <use xlink:href="#DejaVuSans-31" transform="translate(524.667969 38.890625) scale(0.7)"/>
      <use xlink:href="#DejaVuSans-5d" transform="translate(571.938477 0.609375)"/>
     </g>
    </g>
   </g>
  </g>
 </g>
 <defs>
  <clipPath id="p47aad30101">
   <rect x="71.786518" y="10.8" width="349.413482" height="231.324"/>
  </clipPath>
 </defs>
</svg>
