<?xml version="1.0" encoding="utf-8" standalone="no"?>
<!DOCTYPE svg PUBLIC "-//W3C//DTD SVG 1.1//EN"
  "http://www.w3.org/Graphics/SVG/1.1/DTD/svg11.dtd">
<svg xmlns:xlink="http://www.w3.org/1999/xlink" width="432pt" height="288pt" viewBox="0 0 432 288" xmlns="http://www.w3.org/2000/svg" version="1.1">
 <metadata>
  <rdf:RDF xmlns:dc="http://purl.org/dc/elements/1.1/" xmlns:cc="http://creativecommons.org/ns#" xmlns:rdf="http://www.w3.org/1999/02/22-rdf-syntax-ns#">
   <cc:Work>
    <dc:type rdf:resource="http://purl.org/dc/dcmitype/StillImage"/>
    <dc:date>2022-11-22T12:39:44.337783</dc:date>
    <dc:format>image/svg+xml</dc:format>
    <dc:creator>
     <cc:Agent>
      <dc:title>Matplotlib v3.6.2, https://matplotlib.org/</dc:title>
     </cc:Agent>
    </dc:creator>
   </cc:Work>
  </rdf:RDF>
 </metadata>
 <defs>
  <style type="text/css">*{stroke-linejoin: round; stroke-linecap: butt}</style>
 </defs>
 <g id="figure_1">
  <g id="patch_1">
   <path d="M 0 288 
L 432 288 
L 432 0 
L 0 0 
z
" style="fill: #ffffff"/>
  </g>
  <g id="axes_1">
   <g id="patch_2">
    <path d="M 58.848357 242.124 
L 421.2 242.124 
L 421.2 10.8 
L 58.848357 10.8 
z
" style="fill: #ffffff"/>
   </g>
   <g id="patch_3">
    <path d="M 58.848357 242.124 
L 58.848357 10.8 
" style="fill: none; stroke: #000000; stroke-width: 1.5; stroke-linejoin: miter; stroke-linecap: square"/>
   </g>
   <g id="patch_4">
    <path d="M 421.2 242.124 
L 421.2 10.8 
" style="fill: none; stroke: #000000; stroke-width: 1.5; stroke-linejoin: miter; stroke-linecap: square"/>
   </g>
   <g id="patch_5">
    <path d="M 58.848357 242.124 
L 421.2 242.124 
" style="fill: none; stroke: #000000; stroke-width: 1.5; stroke-linejoin: miter; stroke-linecap: square"/>
   </g>
   <g id="patch_6">
    <path d="M 58.848357 10.8 
L 421.2 10.8 
" style="fill: none; stroke: #000000; stroke-width: 1.5; stroke-linejoin: miter; stroke-linecap: square"/>
   </g>
   <g id="PolyCollection_1">
    <path d="M 200.577038 119.715647 
L 200.577038 138.815533 
L 201.088813 139.003698 
L 201.973772 146.315814 
L 202.828537 133.395641 
L 203.687548 132.010789 
L 204.516805 127.923493 
L 205.393094 128.95038 
L 206.245256 127.762858 
L 207.097111 129.773253 
L 207.948879 133.097135 
L 208.800646 134.597794 
L 209.65217 134.715551 
L 210.503657 134.492383 
L 211.355285 137.080064 
L 212.206633 137.721424 
L 213.05799 135.234904 
L 213.909415 139.039019 
L 214.760803 140.22777 
L 215.612189 142.386127 
L 216.46348 141.557518 
L 217.314834 137.422094 
L 218.166166 138.723429 
L 219.017332 138.28208 
L 219.868583 139.052953 
L 220.720075 141.904712 
L 221.571327 141.674988 
L 222.422243 144.365098 
L 223.273655 144.647629 
L 224.124974 148.381921 
L 224.976247 148.240891 
L 225.827639 150.049315 
L 226.679103 157.280175 
L 227.530365 156.813592 
L 228.381462 161.66558 
L 229.233254 167.080807 
L 230.083812 188.009417 
L 230.935059 184.149681 
L 231.786115 172.382758 
L 232.637485 170.342891 
L 233.48883 176.377452 
L 234.340124 173.277063 
L 235.191358 175.724161 
L 236.042543 161.25954 
L 236.893709 155.800631 
L 237.871752 149.073877 
L 238.567083 156.088837 
L 239.435091 157.334094 
L 240.291988 166.375046 
L 241.145015 177.614275 
L 241.997132 184.266985 
L 242.849256 173.295235 
L 243.701294 172.135606 
L 244.552831 167.901429 
L 245.404254 168.941815 
L 246.255671 162.503574 
L 247.106973 162.251047 
L 247.958606 153.905538 
L 248.809966 152.325929 
L 249.661207 152.064903 
L 250.512692 149.022203 
L 251.364108 150.073778 
L 252.215515 150.692186 
L 253.06665 150.862111 
L 253.918036 151.730746 
L 254.769304 152.386088 
L 255.620429 153.233781 
L 256.471477 154.267652 
L 257.322732 146.682229 
L 258.174365 152.068841 
L 259.025512 148.010564 
L 259.876439 151.607026 
L 260.728018 150.355835 
L 261.579311 148.939907 
L 262.430332 151.503238 
L 263.280666 153.41057 
L 264.135353 155.428655 
L 264.982751 157.354619 
L 265.8347 155.580529 
L 266.682823 155.426822 
L 267.536294 152.713505 
L 268.38972 151.610753 
L 269.237673 151.899635 
L 270.091728 148.75931 
L 270.943119 148.853265 
L 271.796563 149.449844 
L 272.645514 160.822829 
L 273.496803 155.746818 
L 274.346081 150.367183 
L 275.199238 150.23242 
L 276.050316 152.506102 
L 276.901541 152.783962 
L 277.753215 156.649076 
L 278.603996 158.08631 
L 279.455328 162.505902 
L 280.312677 160.732805 
L 281.217125 180.766063 
L 282.011497 196.822031 
L 282.860001 189.728648 
L 283.711653 189.721372 
L 284.580472 184.404536 
L 285.391707 183.370453 
L 286.262994 191.187872 
L 287.114661 189.851237 
L 287.974044 186.288089 
L 288.832859 186.440603 
L 289.664878 191.179704 
L 290.513013 188.134344 
L 291.438348 173.688846 
L 292.223289 196.529086 
L 293.064893 194.175303 
L 293.967637 198.155551 
L 294.796049 188.65861 
L 295.683084 184.03414 
L 296.480642 181.663724 
L 297.290168 184.11056 
L 298.059854 181.807926 
L 299.040357 186.488955 
L 299.948528 184.84264 
L 300.786075 180.502327 
L 301.625473 181.436573 
L 302.398636 181.248945 
L 303.219997 189.255661 
L 304.146008 193.788535 
L 304.99423 196.024755 
L 305.83632 199.037188 
L 306.680006 188.804818 
L 307.620189 186.809167 
L 308.377446 185.828482 
L 309.273971 181.548827 
L 310.102622 181.380522 
L 310.934514 182.329644 
L 311.81704 183.298742 
L 312.667342 187.270505 
L 313.47194 186.218078 
L 314.348817 184.820675 
L 315.180682 200.771331 
L 316.048668 203.086986 
L 316.899889 203.718129 
L 317.756871 199.294124 
L 318.630142 193.973371 
L 319.445735 198.964866 
L 320.288431 201.831756 
L 321.167367 204.710105 
L 322.002855 195.693606 
L 322.868266 202.457351 
L 323.707917 199.525337 
L 324.564294 196.491735 
L 325.358544 204.316062 
L 326.08649 214.187759 
L 327.25061 43351.239469 
L 327.977129 43351.239469 
L 328.797422 190.226728 
L 329.675017 43351.239469 
L 330.58234 210.216069 
L 331.361349 188.248031 
L 332.221554 188.65547 
L 333.086243 190.169399 
L 333.920619 189.591127 
L 334.755778 188.985616 
L 335.648521 179.464012 
L 336.479636 180.786968 
L 337.332407 180.963703 
L 338.182127 181.277015 
L 339.036826 178.334844 
L 339.917949 180.091567 
L 340.751918 178.10593 
L 341.59 182.971757 
L 342.440901 191.800811 
L 343.322868 43351.239469 
L 344.14062 184.526909 
L 344.98395 195.604074 
L 345.826249 194.681423 
L 346.69686 181.62811 
L 347.543588 196.401115 
L 348.427399 43351.239469 
L 349.268518 205.33225 
L 350.125006 187.030355 
L 350.927621 186.162662 
L 351.796263 210.612207 
L 352.648785 192.633692 
L 353.504976 180.546732 
L 354.366155 186.339364 
L 355.216649 182.041161 
L 356.055356 186.976572 
L 356.934409 177.660902 
L 357.813587 190.422027 
L 358.620843 199.540542 
L 359.466853 184.775601 
L 360.324227 200.801465 
L 361.107423 188.414993 
L 362.054608 191.489747 
L 362.854018 216.92558 
L 363.706668 195.096738 
L 364.566321 199.121634 
L 365.44798 186.909062 
L 366.278194 181.505263 
L 367.0868 180.202833 
L 367.971759 172.523196 
L 368.834143 181.644466 
L 369.644498 188.619305 
L 370.538629 186.428304 
L 371.37057 190.159532 
L 372.242065 187.151544 
L 373.121086 183.68435 
L 373.929885 185.755001 
L 374.817704 208.979498 
L 375.615282 193.759096 
L 376.508912 43351.239469 
L 377.369778 205.256808 
L 378.165462 181.840874 
L 378.997752 179.514925 
L 379.909714 189.567157 
L 380.648019 188.051924 
L 381.660117 178.199308 
L 382.451141 180.153981 
L 383.422785 181.729599 
L 384.16319 177.730566 
L 385.005673 177.934201 
L 385.851601 180.956402 
L 386.702895 181.254761 
L 387.575045 186.245709 
L 388.430254 190.660111 
L 389.280314 192.376738 
L 390.099092 195.836879 
L 390.930443 187.002259 
L 391.836183 194.866117 
L 392.671777 206.379795 
L 393.520471 216.155966 
L 394.379332 209.458847 
L 395.216163 208.727649 
L 396.055788 207.992059 
L 396.938111 231.609273 
L 397.753501 220.975405 
L 398.635238 191.689779 
L 399.483539 196.746649 
L 400.322106 227.853821 
L 401.188899 213.916629 
L 402.027897 206.934417 
L 402.862058 211.556221 
L 403.742506 186.887987 
L 404.599581 207.460674 
L 404.599581 160.270347 
L 404.599581 160.270347 
L 403.742506 173.73077 
L 402.862058 159.666832 
L 402.027897 158.52336 
L 401.188899 161.866158 
L 400.322106 161.098786 
L 399.483539 171.285556 
L 398.635238 173.619882 
L 397.753501 163.690342 
L 396.938111 163.957026 
L 396.055788 166.927906 
L 395.216163 160.640894 
L 394.379332 158.23397 
L 393.520471 159.642812 
L 392.671777 161.559853 
L 391.836183 158.768726 
L 390.930443 158.503169 
L 390.099092 158.487279 
L 389.280314 159.088527 
L 388.430254 156.045664 
L 387.575045 155.416261 
L 386.702895 156.308865 
L 385.851601 154.69532 
L 385.005673 155.836518 
L 384.16319 156.887546 
L 383.422785 156.564908 
L 382.451141 170.443626 
L 381.660117 170.410524 
L 380.648019 153.046768 
L 379.909714 153.422468 
L 378.997752 147.849606 
L 378.165462 154.778439 
L 377.369778 152.692907 
L 376.508912 164.261585 
L 375.615282 165.303217 
L 374.817704 162.871542 
L 373.929885 163.99407 
L 373.121086 165.223759 
L 372.242065 169.511053 
L 371.37057 168.272005 
L 370.538629 170.26838 
L 369.644498 165.583977 
L 368.834143 167.231621 
L 367.971759 164.112756 
L 367.0868 164.010926 
L 366.278194 163.143003 
L 365.44798 171.997875 
L 364.566321 173.883213 
L 363.706668 175.471768 
L 362.854018 169.329279 
L 362.054608 175.400132 
L 361.107423 175.107668 
L 360.324227 167.129633 
L 359.466853 172.877233 
L 358.620843 168.702078 
L 357.813587 167.921475 
L 356.934409 164.516622 
L 356.055356 160.210512 
L 355.216649 168.303194 
L 354.366155 173.06568 
L 353.504976 173.566771 
L 352.648785 166.675552 
L 351.796263 159.780213 
L 350.927621 167.428498 
L 350.125006 167.782441 
L 349.268518 159.479214 
L 348.427399 155.269091 
L 347.543588 164.001671 
L 346.69686 172.541206 
L 345.826249 162.077491 
L 344.98395 161.718272 
L 344.14062 166.596655 
L 343.322868 157.135476 
L 342.440901 169.499719 
L 341.59 171.763401 
L 340.751918 167.394851 
L 339.917949 164.920999 
L 339.036826 161.16054 
L 338.182127 163.140504 
L 337.332407 164.451373 
L 336.479636 166.155081 
L 335.648521 168.999944 
L 334.755778 167.991702 
L 333.920619 165.555544 
L 333.086243 169.960132 
L 332.221554 170.786675 
L 331.361349 170.238238 
L 330.58234 168.195753 
L 329.675017 150.311142 
L 328.797422 175.535826 
L 327.977129 160.792366 
L 327.25061 159.930162 
L 326.08649 170.80153 
L 325.358544 171.601545 
L 324.564294 168.3646 
L 323.707917 170.154008 
L 322.868266 172.985771 
L 322.002855 167.686722 
L 321.167367 166.838977 
L 320.288431 166.844835 
L 319.445735 166.67155 
L 318.630142 164.896714 
L 317.756871 165.027001 
L 316.899889 166.854645 
L 316.048668 175.776208 
L 315.180682 171.775038 
L 314.348817 163.936704 
L 313.47194 165.052502 
L 312.667342 165.809787 
L 311.81704 165.513214 
L 310.934514 165.985221 
L 310.102622 165.21301 
L 309.273971 164.959174 
L 308.377446 167.21412 
L 307.620189 169.666802 
L 306.680006 169.989222 
L 305.83632 171.10177 
L 304.99423 168.616466 
L 304.146008 164.873075 
L 303.219997 165.371887 
L 302.398636 164.339635 
L 301.625473 164.768132 
L 300.786075 162.558839 
L 299.948528 164.328829 
L 299.040357 177.74284 
L 298.059854 165.518778 
L 297.290168 166.95191 
L 296.480642 169.050249 
L 295.683084 167.672364 
L 294.796049 165.435517 
L 293.967637 150.499591 
L 293.064893 148.575491 
L 292.223289 149.728957 
L 291.438348 145.3938 
L 290.513013 147.460395 
L 289.664878 147.827043 
L 288.832859 148.1031 
L 287.974044 147.647876 
L 287.114661 148.395678 
L 286.262994 148.220388 
L 285.391707 144.276855 
L 284.580472 146.202944 
L 283.711653 146.8897 
L 282.860001 146.334746 
L 282.011497 145.948603 
L 281.217125 143.08599 
L 280.312677 139.079323 
L 279.455328 139.351189 
L 278.603996 140.256802 
L 277.753215 140.026909 
L 276.901541 138.579878 
L 276.050316 139.385502 
L 275.199238 139.319697 
L 274.346081 139.718383 
L 273.496803 139.412583 
L 272.645514 142.304084 
L 271.796563 138.002568 
L 270.943119 138.786725 
L 270.091728 138.128371 
L 269.237673 137.743076 
L 268.38972 140.060149 
L 267.536294 137.990304 
L 266.682823 137.075965 
L 265.8347 139.43223 
L 264.982751 138.608262 
L 264.135353 138.118247 
L 263.280666 137.953656 
L 262.430332 137.539189 
L 261.579311 135.282035 
L 260.728018 134.282115 
L 259.876439 133.43369 
L 259.025512 133.011456 
L 258.174365 133.240844 
L 257.322732 133.502431 
L 256.471477 134.512372 
L 255.620429 133.365031 
L 254.769304 135.028991 
L 253.918036 135.044495 
L 253.06665 134.899196 
L 252.215515 135.178021 
L 251.364108 135.111958 
L 250.512692 134.989997 
L 249.661207 136.767751 
L 248.809966 136.583599 
L 247.958606 136.774586 
L 247.106973 137.438371 
L 246.255671 136.832651 
L 245.404254 137.167552 
L 244.552831 136.638384 
L 243.701294 134.204069 
L 242.849256 133.226151 
L 241.997132 133.158434 
L 241.145015 134.148409 
L 240.291988 135.850804 
L 239.435091 136.306127 
L 238.567083 129.960105 
L 237.871752 131.308438 
L 236.893709 126.516531 
L 236.042543 124.641457 
L 235.191358 123.826479 
L 234.340124 122.816627 
L 233.48883 120.556649 
L 232.637485 121.233516 
L 231.786115 123.665169 
L 230.935059 123.453594 
L 230.083812 124.474629 
L 229.233254 129.468471 
L 228.381462 125.830181 
L 227.530365 123.030998 
L 226.679103 123.948907 
L 225.827639 122.803987 
L 224.976247 120.444894 
L 224.124974 119.750007 
L 223.273655 120.145138 
L 222.422243 124.826755 
L 221.571327 124.938607 
L 220.720075 125.722337 
L 219.868583 125.917477 
L 219.017332 126.064074 
L 218.166166 126.46265 
L 217.314834 123.97601 
L 216.46348 123.270378 
L 215.612189 127.748918 
L 214.760803 127.867278 
L 213.909415 129.011491 
L 213.05799 128.787319 
L 212.206633 128.170125 
L 211.355285 126.840287 
L 210.503657 127.857141 
L 209.65217 124.921766 
L 208.800646 123.569562 
L 207.948879 122.212767 
L 207.097111 120.968805 
L 206.245256 120.488694 
L 205.393094 118.346194 
L 204.516805 116.110071 
L 203.687548 118.190912 
L 202.828537 115.254544 
L 201.973772 120.238696 
L 201.088813 122.119052 
L 200.577038 119.715647 
z
" clip-path="url(#p318ae99876)" style="fill: #add8e6; stroke: #add8e6"/>
   </g>
   <g id="line2d_1">
    <path d="M 200.577038 126.926982 
L 201.088813 128.717722 
L 201.973772 129.059643 
L 202.828537 122.207141 
L 203.687548 123.852649 
L 204.516805 121.099343 
L 205.393094 122.906742 
L 206.245256 123.774408 
L 207.097111 124.857755 
L 207.948879 126.874246 
L 208.800646 128.282491 
L 209.65217 129.184912 
L 210.503657 130.882102 
L 211.355285 131.268113 
L 212.206633 132.342693 
L 213.05799 131.734691 
L 213.909415 133.361253 
L 214.760803 133.044668 
L 215.612189 133.670991 
L 216.46348 130.263013 
L 217.314834 129.516091 
L 218.166166 131.606021 
L 219.017332 131.192816 
L 219.868583 131.355214 
L 220.720075 132.11567 
L 221.571327 131.494379 
L 222.422243 132.153209 
L 223.273655 128.642364 
L 224.124974 129.051746 
L 224.976247 129.595157 
L 226.679103 134.004967 
L 227.530365 133.151419 
L 228.381462 136.227022 
L 229.233254 140.084156 
L 230.083812 136.824796 
L 230.935059 135.704677 
L 231.786115 135.296948 
L 232.637485 132.892012 
L 233.48883 132.599917 
L 234.340124 134.563354 
L 235.191358 135.660737 
L 236.042543 135.136941 
L 236.893709 135.93265 
L 237.871752 138.157003 
L 238.567083 138.7913 
L 239.435091 144.009043 
L 240.291988 145.475511 
L 241.145015 145.367262 
L 241.997132 144.945415 
L 242.849256 144.115706 
L 243.701294 144.857166 
L 244.552831 146.381975 
L 245.404254 146.991125 
L 246.255671 145.572153 
L 247.106973 146.001087 
L 247.958606 143.443987 
L 248.809966 142.845471 
L 249.661207 142.894412 
L 250.512692 140.720111 
L 251.364108 141.135286 
L 252.215515 141.370874 
L 253.06665 141.227238 
L 253.918036 141.585708 
L 254.769304 141.762751 
L 255.620429 140.776926 
L 256.471477 141.895051 
L 257.322732 138.954842 
L 258.174365 140.379789 
L 259.025512 139.046337 
L 259.876439 140.395146 
L 261.579311 140.891247 
L 262.430332 143.247411 
L 263.280666 144.129098 
L 264.135353 144.838764 
L 264.982751 145.725319 
L 265.8347 145.81546 
L 266.682823 144.085998 
L 267.536294 143.939318 
L 268.38972 144.95776 
L 269.237673 143.512992 
L 270.091728 142.698598 
L 270.943119 143.150878 
L 271.796563 142.863912 
L 272.645514 149.359749 
L 273.496803 145.850782 
L 274.346081 144.295067 
L 275.199238 143.991337 
L 276.050316 144.818309 
L 276.901541 144.364958 
L 277.753215 146.54947 
L 278.603996 147.123217 
L 279.455328 147.553753 
L 280.312677 146.933723 
L 281.217125 153.709661 
L 282.011497 157.721132 
L 282.860001 157.547169 
L 283.711653 158.051106 
L 284.580472 156.887255 
L 285.391707 155.061477 
L 286.262994 159.394246 
L 287.114661 159.426191 
L 287.974044 158.382043 
L 288.832859 158.802971 
L 289.664878 159.035771 
L 290.513013 158.4126 
L 291.438348 154.635162 
L 292.223289 161.222203 
L 293.064893 159.975089 
L 293.967637 162.056299 
L 294.796049 173.653432 
L 295.683084 174.118672 
L 296.480642 174.313414 
L 297.290168 173.629224 
L 298.059854 171.943682 
L 299.040357 181.609341 
L 299.948528 171.904332 
L 300.786075 169.4569 
L 301.625473 171.304166 
L 302.398636 170.945417 
L 303.219997 173.735902 
L 304.146008 174.224947 
L 304.99423 177.694575 
L 305.83632 180.277684 
L 306.680006 177.124847 
L 307.620189 176.339465 
L 308.377446 174.295642 
L 309.273971 171.472255 
L 310.102622 171.601938 
L 310.934514 172.42642 
L 311.81704 172.367381 
L 312.667342 173.617913 
L 313.47194 172.789073 
L 314.348817 171.604201 
L 315.180682 181.141087 
L 316.048668 184.835976 
L 316.899889 177.380321 
L 317.756871 175.215049 
L 318.630142 174.276808 
L 319.445735 176.574461 
L 320.288431 177.130598 
L 321.167367 177.485037 
L 322.002855 176.875724 
L 322.868266 182.434165 
L 323.707917 179.585177 
L 324.564294 177.575532 
L 325.358544 181.567478 
L 326.08649 182.013266 
L 327.25061 173.503399 
L 327.977129 175.531943 
L 328.797422 181.474731 
L 329.675017 168.918287 
L 330.58234 179.281041 
L 331.361349 177.154645 
L 332.221554 177.664014 
L 333.086243 177.458917 
L 333.920619 173.952565 
L 334.755778 175.68626 
L 335.648521 173.509654 
L 336.479636 172.075484 
L 337.332407 170.941861 
L 338.182127 170.091841 
L 339.036826 167.842321 
L 339.917949 171.008804 
L 340.751918 171.99402 
L 341.59 176.540388 
L 342.440901 177.506947 
L 343.322868 170.410938 
L 344.14062 173.491049 
L 344.98395 171.853225 
L 345.826249 172.026995 
L 346.69686 176.538245 
L 347.543588 173.920575 
L 348.427399 168.299098 
L 349.268518 170.899032 
L 350.125006 175.032863 
L 350.927621 174.54228 
L 351.796263 171.550177 
L 352.648785 175.47279 
L 353.504976 176.733071 
L 354.366155 178.549097 
L 356.055356 169.166395 
L 356.934409 169.957276 
L 357.813587 175.974963 
L 358.620843 178.37783 
L 359.466853 177.895952 
L 360.324227 177.234382 
L 361.107423 180.602169 
L 362.054608 181.765934 
L 362.854018 180.88165 
L 363.706668 182.820731 
L 364.566321 182.534431 
L 365.44798 178.005488 
L 366.278194 170.156144 
L 367.0868 170.407082 
L 367.971759 167.849242 
L 368.834143 173.083001 
L 369.644498 173.759634 
L 370.538629 176.655058 
L 371.37057 176.182104 
L 372.242065 176.32468 
L 373.121086 172.263652 
L 373.929885 171.874108 
L 374.817704 174.311463 
L 375.615282 174.573516 
L 376.508912 177.961848 
L 377.369778 164.565643 
L 378.165462 163.791148 
L 378.997752 157.656288 
L 379.909714 163.858721 
L 380.648019 163.334965 
L 381.660117 173.902439 
L 382.451141 174.67569 
L 383.422785 165.200913 
L 385.005673 163.796179 
L 385.851601 163.55269 
L 386.702895 164.899446 
L 387.575045 165.090558 
L 388.430254 166.281268 
L 389.280314 169.138377 
L 390.099092 169.071745 
L 390.930443 167.781208 
L 391.836183 169.198988 
L 392.671777 172.895574 
L 393.520471 171.718839 
L 394.379332 170.028039 
L 395.216163 172.228542 
L 396.055788 177.919573 
L 396.938111 176.427356 
L 397.753501 175.801555 
L 398.635238 180.552878 
L 399.483539 179.98243 
L 400.322106 173.545076 
L 401.188899 173.709355 
L 402.027897 170.133868 
L 402.862058 171.500603 
L 403.742506 179.175708 
L 404.599581 171.792861 
L 404.599581 171.792861 
" clip-path="url(#p318ae99876)" style="fill: none; stroke: #1f77b4; stroke-width: 1.5; stroke-linecap: square"/>
   </g>
   <g id="line2d_2">
    <path d="M 75.318887 21.314727 
L 76.000771 25.794392 
L 76.682655 28.034224 
L 77.363806 29.584877 
L 79.409581 33.676878 
L 81.113986 37.768879 
L 84.180202 45.651366 
L 86.224754 50.518693 
L 88.269306 54.955284 
L 90.654004 59.607243 
L 94.060367 65.422192 
L 97.808101 70.935626 
L 103.940533 78.516596 
L 105.983861 80.713355 
L 107.687042 82.479376 
L 110.753258 85.451461 
L 117.225837 91.051042 
L 125.401597 97.124433 
L 136.302203 103.930077 
L 138.345532 105.049993 
L 140.048713 105.997615 
L 153.675388 112.760185 
L 155.37857 113.492438 
L 157.081751 114.267764 
L 159.125079 115.129238 
L 160.488114 115.73227 
L 163.894477 117.110628 
L 164.916141 117.541365 
L 179.563257 123.011725 
L 180.584921 123.356314 
L 182.969619 124.174714 
L 184.332654 124.605451 
L 186.717353 125.423852 
L 188.418087 125.940736 
L 190.461415 126.629915 
L 192.504744 127.232947 
L 194.205478 127.792905 
L 196.248806 128.395937 
L 197.619182 128.826674 
L 200.347698 129.602 
L 201.705839 130.032737 
L 205.449901 131.066506 
L 206.477683 131.368022 
L 210.906934 132.574085 
L 211.92248 132.875601 
L 237.470202 139.207434 
L 238.497984 139.422803 
L 241.899452 140.198129 
L 242.927234 140.413498 
L 245.986109 141.102677 
L 247.356485 141.361119 
L 250.41536 142.050298 
L 251.7735 142.308741 
L 254.159422 142.825625 
L 255.529798 143.084067 
L 257.91572 143.600952 
L 259.273861 143.859394 
L 260.974595 144.203983 
L 262.332735 144.462425 
L 264.045705 144.807015 
L 265.403846 145.065457 
L 267.10458 145.410047 
L 268.805314 145.711563 
L 270.518284 146.056152 
L 272.561612 146.400742 
L 274.262347 146.745331 
L 275.963081 147.046847 
L 277.321222 147.305289 
L 279.36455 147.649879 
L 281.07752 147.994469 
L 283.463442 148.382132 
L 284.821582 148.640574 
L 286.864911 148.985164 
L 288.223051 149.243606 
L 290.608973 149.631269 
L 291.979349 149.889711 
L 294.69563 150.320448 
L 296.066006 150.57889 
L 299.12488 151.052701 
L 300.495256 151.311143 
L 303.896725 151.828028 
L 305.254865 152.08647 
L 309.011163 152.646428 
L 310.02671 152.818723 
L 313.09782 153.292533 
L 314.113366 153.464828 
L 317.857429 154.024786 
L 318.885211 154.197081 
L 322.971868 154.800113 
L 323.99965 154.972407 
L 331.487775 156.04925 
L 332.515557 156.221545 
L 342.389604 157.599903 
L 343.405151 157.772198 
L 356.01995 159.452072 
L 357.035496 159.624367 
L 400.973173 165.051652 
L 402.000955 165.1378 
L 404.386877 165.439316 
L 404.386877 165.439316 
" clip-path="url(#p318ae99876)" style="fill: none; stroke: #000000; stroke-width: 2.5; stroke-linecap: square"/>
   </g>
   <g id="line2d_3">
    <path d="M 75.318887 22.176201 
L 76.341652 34.882942 
L 77.363806 44.660671 
L 78.046546 49.786441 
L 79.068211 55.902906 
L 80.432469 62.536255 
L 82.13565 69.341899 
L 83.840055 74.941479 
L 86.224754 81.273313 
L 87.927935 85.149945 
L 89.972487 89.28502 
L 92.017039 92.989358 
L 95.083255 97.89976 
L 100.192799 104.834625 
L 107.006749 112.415595 
L 108.70993 114.052396 
L 110.753258 115.990712 
L 115.522656 120.082713 
L 124.379933 126.672989 
L 133.917505 132.617159 
L 136.302203 133.90937 
L 138.005385 134.856991 
L 148.224473 139.939687 
L 149.587508 140.542719 
L 151.630836 141.49034 
L 153.334018 142.222593 
L 155.037199 142.99792 
L 157.762045 144.117836 
L 159.125079 144.720868 
L 165.256288 147.132995 
L 166.279176 147.563732 
L 174.113565 150.449669 
L 175.13523 150.794259 
L 177.860075 151.74188 
L 179.22311 152.172617 
L 181.607808 152.991017 
L 182.969619 153.421754 
L 184.672801 153.981712 
L 186.375982 154.498597 
L 188.075493 155.058555 
L 190.118821 155.661587 
L 191.489197 156.092323 
L 193.532526 156.695355 
L 194.890666 157.126092 
L 198.30437 158.073714 
L 199.319917 158.375229 
L 203.063979 159.408998 
L 204.091761 159.710514 
L 231.682811 166.559232 
L 232.698357 166.7746 
L 236.112061 167.549927 
L 237.470202 167.808369 
L 240.883906 168.583695 
L 242.242046 168.842138 
L 244.970563 169.445169 
L 246.328703 169.703612 
L 248.714625 170.220496 
L 250.072766 170.478938 
L 252.116094 170.909675 
L 253.816828 171.211191 
L 255.872392 171.641928 
L 257.230532 171.90037 
L 258.931267 172.24496 
L 260.632001 172.546476 
L 262.332735 172.891065 
L 264.045705 173.192581 
L 265.74644 173.537171 
L 267.447174 173.838686 
L 268.805314 174.097129 
L 270.518284 174.398644 
L 271.876425 174.657087 
L 273.919753 175.001676 
L 275.620487 175.346266 
L 278.006409 175.733929 
L 279.36455 175.992371 
L 281.420114 176.336961 
L 282.778254 176.595403 
L 285.50677 177.02614 
L 286.864911 177.284582 
L 289.593427 177.715319 
L 290.951567 177.973761 
L 294.022677 178.447572 
L 295.380818 178.706014 
L 298.782286 179.222898 
L 299.810068 179.395193 
L 302.868943 179.869004 
L 303.896725 180.041299 
L 307.298194 180.558183 
L 308.325976 180.730478 
L 312.070038 181.290436 
L 313.09782 181.462731 
L 319.570399 182.410352 
L 320.585945 182.582647 
L 326.373336 183.401047 
L 327.401118 183.573342 
L 335.231837 184.650184 
L 336.259619 184.822479 
L 350.220324 186.674648 
L 351.248105 186.846943 
L 389.740985 191.585049 
L 390.756531 191.671197 
L 399.957626 192.748039 
L 400.973173 192.834187 
L 404.729471 193.264924 
L 404.729471 193.264924 
" clip-path="url(#p318ae99876)" style="fill: none; stroke-dasharray: 9.25,4; stroke-dashoffset: 0; stroke: #8b0000; stroke-width: 2.5"/>
   </g>
   <g id="legend_1">
    <g id="line2d_4">
     <path d="M 333.95625 23.898438 
L 343.95625 23.898438 
L 353.95625 23.898438 
" style="fill: none; stroke: #1f77b4; stroke-width: 1.5; stroke-linecap: square"/>
    </g>
    <g id="text_1">
     <!-- PSP -->
     <g transform="translate(361.95625 27.398438) scale(0.1 -0.1)">
      <defs>
       <path id="DejaVuSans-50" d="M 1259 4147 
L 1259 2394 
L 2053 2394 
Q 2494 2394 2734 2622 
Q 2975 2850 2975 3272 
Q 2975 3691 2734 3919 
Q 2494 4147 2053 4147 
L 1259 4147 
z
M 628 4666 
L 2053 4666 
Q 2838 4666 3239 4311 
Q 3641 3956 3641 3272 
Q 3641 2581 3239 2228 
Q 2838 1875 2053 1875 
L 1259 1875 
L 1259 0 
L 628 0 
L 628 4666 
z
" transform="scale(0.015625)"/>
       <path id="DejaVuSans-53" d="M 3425 4513 
L 3425 3897 
Q 3066 4069 2747 4153 
Q 2428 4238 2131 4238 
Q 1616 4238 1336 4038 
Q 1056 3838 1056 3469 
Q 1056 3159 1242 3001 
Q 1428 2844 1947 2747 
L 2328 2669 
Q 3034 2534 3370 2195 
Q 3706 1856 3706 1288 
Q 3706 609 3251 259 
Q 2797 -91 1919 -91 
Q 1588 -91 1214 -16 
Q 841 59 441 206 
L 441 856 
Q 825 641 1194 531 
Q 1563 422 1919 422 
Q 2459 422 2753 634 
Q 3047 847 3047 1241 
Q 3047 1584 2836 1778 
Q 2625 1972 2144 2069 
L 1759 2144 
Q 1053 2284 737 2584 
Q 422 2884 422 3419 
Q 422 4038 858 4394 
Q 1294 4750 2059 4750 
Q 2388 4750 2728 4690 
Q 3069 4631 3425 4513 
z
" transform="scale(0.015625)"/>
      </defs>
      <use xlink:href="#DejaVuSans-50"/>
      <use xlink:href="#DejaVuSans-53" x="60.302734"/>
      <use xlink:href="#DejaVuSans-50" x="123.779297"/>
     </g>
    </g>
    <g id="line2d_5">
     <path d="M 333.95625 38.576562 
L 343.95625 38.576562 
L 353.95625 38.576562 
" style="fill: none; stroke: #000000; stroke-width: 2.5; stroke-linecap: square"/>
    </g>
    <g id="text_2">
     <!-- Slow wind -->
     <g transform="translate(361.95625 42.076562) scale(0.1 -0.1)">
      <defs>
       <path id="DejaVuSans-6c" d="M 603 4863 
L 1178 4863 
L 1178 0 
L 603 0 
L 603 4863 
z
" transform="scale(0.015625)"/>
       <path id="DejaVuSans-6f" d="M 1959 3097 
Q 1497 3097 1228 2736 
Q 959 2375 959 1747 
Q 959 1119 1226 758 
Q 1494 397 1959 397 
Q 2419 397 2687 759 
Q 2956 1122 2956 1747 
Q 2956 2369 2687 2733 
Q 2419 3097 1959 3097 
z
M 1959 3584 
Q 2709 3584 3137 3096 
Q 3566 2609 3566 1747 
Q 3566 888 3137 398 
Q 2709 -91 1959 -91 
Q 1206 -91 779 398 
Q 353 888 353 1747 
Q 353 2609 779 3096 
Q 1206 3584 1959 3584 
z
" transform="scale(0.015625)"/>
       <path id="DejaVuSans-77" d="M 269 3500 
L 844 3500 
L 1563 769 
L 2278 3500 
L 2956 3500 
L 3675 769 
L 4391 3500 
L 4966 3500 
L 4050 0 
L 3372 0 
L 2619 2869 
L 1863 0 
L 1184 0 
L 269 3500 
z
" transform="scale(0.015625)"/>
       <path id="DejaVuSans-20" transform="scale(0.015625)"/>
       <path id="DejaVuSans-69" d="M 603 3500 
L 1178 3500 
L 1178 0 
L 603 0 
L 603 3500 
z
M 603 4863 
L 1178 4863 
L 1178 4134 
L 603 4134 
L 603 4863 
z
" transform="scale(0.015625)"/>
       <path id="DejaVuSans-6e" d="M 3513 2113 
L 3513 0 
L 2938 0 
L 2938 2094 
Q 2938 2591 2744 2837 
Q 2550 3084 2163 3084 
Q 1697 3084 1428 2787 
Q 1159 2491 1159 1978 
L 1159 0 
L 581 0 
L 581 3500 
L 1159 3500 
L 1159 2956 
Q 1366 3272 1645 3428 
Q 1925 3584 2291 3584 
Q 2894 3584 3203 3211 
Q 3513 2838 3513 2113 
z
" transform="scale(0.015625)"/>
       <path id="DejaVuSans-64" d="M 2906 2969 
L 2906 4863 
L 3481 4863 
L 3481 0 
L 2906 0 
L 2906 525 
Q 2725 213 2448 61 
Q 2172 -91 1784 -91 
Q 1150 -91 751 415 
Q 353 922 353 1747 
Q 353 2572 751 3078 
Q 1150 3584 1784 3584 
Q 2172 3584 2448 3432 
Q 2725 3281 2906 2969 
z
M 947 1747 
Q 947 1113 1208 752 
Q 1469 391 1925 391 
Q 2381 391 2643 752 
Q 2906 1113 2906 1747 
Q 2906 2381 2643 2742 
Q 2381 3103 1925 3103 
Q 1469 3103 1208 2742 
Q 947 2381 947 1747 
z
" transform="scale(0.015625)"/>
      </defs>
      <use xlink:href="#DejaVuSans-53"/>
      <use xlink:href="#DejaVuSans-6c" x="63.476562"/>
      <use xlink:href="#DejaVuSans-6f" x="91.259766"/>
      <use xlink:href="#DejaVuSans-77" x="152.441406"/>
      <use xlink:href="#DejaVuSans-20" x="234.228516"/>
      <use xlink:href="#DejaVuSans-77" x="266.015625"/>
      <use xlink:href="#DejaVuSans-69" x="347.802734"/>
      <use xlink:href="#DejaVuSans-6e" x="375.585938"/>
      <use xlink:href="#DejaVuSans-64" x="438.964844"/>
     </g>
    </g>
    <g id="line2d_6">
     <path d="M 333.95625 53.254687 
L 343.95625 53.254687 
L 353.95625 53.254687 
" style="fill: none; stroke-dasharray: 9.25,4; stroke-dashoffset: 0; stroke: #8b0000; stroke-width: 2.5"/>
    </g>
    <g id="text_3">
     <!-- Fast wind -->
     <g transform="translate(361.95625 56.754687) scale(0.1 -0.1)">
      <defs>
       <path id="DejaVuSans-46" d="M 628 4666 
L 3309 4666 
L 3309 4134 
L 1259 4134 
L 1259 2759 
L 3109 2759 
L 3109 2228 
L 1259 2228 
L 1259 0 
L 628 0 
L 628 4666 
z
" transform="scale(0.015625)"/>
       <path id="DejaVuSans-61" d="M 2194 1759 
Q 1497 1759 1228 1600 
Q 959 1441 959 1056 
Q 959 750 1161 570 
Q 1363 391 1709 391 
Q 2188 391 2477 730 
Q 2766 1069 2766 1631 
L 2766 1759 
L 2194 1759 
z
M 3341 1997 
L 3341 0 
L 2766 0 
L 2766 531 
Q 2569 213 2275 61 
Q 1981 -91 1556 -91 
Q 1019 -91 701 211 
Q 384 513 384 1019 
Q 384 1609 779 1909 
Q 1175 2209 1959 2209 
L 2766 2209 
L 2766 2266 
Q 2766 2663 2505 2880 
Q 2244 3097 1772 3097 
Q 1472 3097 1187 3025 
Q 903 2953 641 2809 
L 641 3341 
Q 956 3463 1253 3523 
Q 1550 3584 1831 3584 
Q 2591 3584 2966 3190 
Q 3341 2797 3341 1997 
z
" transform="scale(0.015625)"/>
       <path id="DejaVuSans-73" d="M 2834 3397 
L 2834 2853 
Q 2591 2978 2328 3040 
Q 2066 3103 1784 3103 
Q 1356 3103 1142 2972 
Q 928 2841 928 2578 
Q 928 2378 1081 2264 
Q 1234 2150 1697 2047 
L 1894 2003 
Q 2506 1872 2764 1633 
Q 3022 1394 3022 966 
Q 3022 478 2636 193 
Q 2250 -91 1575 -91 
Q 1294 -91 989 -36 
Q 684 19 347 128 
L 347 722 
Q 666 556 975 473 
Q 1284 391 1588 391 
Q 1994 391 2212 530 
Q 2431 669 2431 922 
Q 2431 1156 2273 1281 
Q 2116 1406 1581 1522 
L 1381 1569 
Q 847 1681 609 1914 
Q 372 2147 372 2553 
Q 372 3047 722 3315 
Q 1072 3584 1716 3584 
Q 2034 3584 2315 3537 
Q 2597 3491 2834 3397 
z
" transform="scale(0.015625)"/>
       <path id="DejaVuSans-74" d="M 1172 4494 
L 1172 3500 
L 2356 3500 
L 2356 3053 
L 1172 3053 
L 1172 1153 
Q 1172 725 1289 603 
Q 1406 481 1766 481 
L 2356 481 
L 2356 0 
L 1766 0 
Q 1100 0 847 248 
Q 594 497 594 1153 
L 594 3053 
L 172 3053 
L 172 3500 
L 594 3500 
L 594 4494 
L 1172 4494 
z
" transform="scale(0.015625)"/>
      </defs>
      <use xlink:href="#DejaVuSans-46"/>
      <use xlink:href="#DejaVuSans-61" x="48.394531"/>
      <use xlink:href="#DejaVuSans-73" x="109.673828"/>
      <use xlink:href="#DejaVuSans-74" x="161.773438"/>
      <use xlink:href="#DejaVuSans-20" x="200.982422"/>
      <use xlink:href="#DejaVuSans-77" x="232.769531"/>
      <use xlink:href="#DejaVuSans-69" x="314.556641"/>
      <use xlink:href="#DejaVuSans-6e" x="342.339844"/>
      <use xlink:href="#DejaVuSans-64" x="405.71875"/>
     </g>
    </g>
   </g>
   <g id="matplotlib.axis_1">
    <g id="xtick_1">
     <g id="line2d_7">
      <defs>
       <path id="m45a02ff7eb" d="M 0 0 
L 0 -3.5 
" style="stroke: #000000; stroke-width: 1.5"/>
      </defs>
      <g>
       <use xlink:href="#m45a02ff7eb" x="64.521426" y="242.124" style="stroke: #000000; stroke-width: 1.5"/>
      </g>
     </g>
     <g id="line2d_8">
      <defs>
       <path id="mc4214bb166" d="M 0 0 
L 0 3.5 
" style="stroke: #000000; stroke-width: 1.5"/>
      </defs>
      <g>
       <use xlink:href="#mc4214bb166" x="64.521426" y="10.8" style="stroke: #000000; stroke-width: 1.5"/>
      </g>
     </g>
     <g id="text_4">
      <!-- 0 -->
      <g transform="translate(60.703926 254.742125) scale(0.12 -0.12)">
       <defs>
        <path id="DejaVuSans-30" d="M 2034 4250 
Q 1547 4250 1301 3770 
Q 1056 3291 1056 2328 
Q 1056 1369 1301 889 
Q 1547 409 2034 409 
Q 2525 409 2770 889 
Q 3016 1369 3016 2328 
Q 3016 3291 2770 3770 
Q 2525 4250 2034 4250 
z
M 2034 4750 
Q 2819 4750 3233 4129 
Q 3647 3509 3647 2328 
Q 3647 1150 3233 529 
Q 2819 -91 2034 -91 
Q 1250 -91 836 529 
Q 422 1150 422 2328 
Q 422 3509 836 4129 
Q 1250 4750 2034 4750 
z
" transform="scale(0.015625)"/>
       </defs>
       <use xlink:href="#DejaVuSans-30"/>
      </g>
     </g>
    </g>
    <g id="xtick_2">
     <g id="line2d_9">
      <g>
       <use xlink:href="#m45a02ff7eb" x="107.082609" y="242.124" style="stroke: #000000; stroke-width: 1.5"/>
      </g>
     </g>
     <g id="line2d_10">
      <g>
       <use xlink:href="#mc4214bb166" x="107.082609" y="10.8" style="stroke: #000000; stroke-width: 1.5"/>
      </g>
     </g>
     <g id="text_5">
      <!-- 5 -->
      <g transform="translate(103.265109 254.742125) scale(0.12 -0.12)">
       <defs>
        <path id="DejaVuSans-35" d="M 691 4666 
L 3169 4666 
L 3169 4134 
L 1269 4134 
L 1269 2991 
Q 1406 3038 1543 3061 
Q 1681 3084 1819 3084 
Q 2600 3084 3056 2656 
Q 3513 2228 3513 1497 
Q 3513 744 3044 326 
Q 2575 -91 1722 -91 
Q 1428 -91 1123 -41 
Q 819 9 494 109 
L 494 744 
Q 775 591 1075 516 
Q 1375 441 1709 441 
Q 2250 441 2565 725 
Q 2881 1009 2881 1497 
Q 2881 1984 2565 2268 
Q 2250 2553 1709 2553 
Q 1456 2553 1204 2497 
Q 953 2441 691 2322 
L 691 4666 
z
" transform="scale(0.015625)"/>
       </defs>
       <use xlink:href="#DejaVuSans-35"/>
      </g>
     </g>
    </g>
    <g id="xtick_3">
     <g id="line2d_11">
      <g>
       <use xlink:href="#m45a02ff7eb" x="149.643791" y="242.124" style="stroke: #000000; stroke-width: 1.5"/>
      </g>
     </g>
     <g id="line2d_12">
      <g>
       <use xlink:href="#mc4214bb166" x="149.643791" y="10.8" style="stroke: #000000; stroke-width: 1.5"/>
      </g>
     </g>
     <g id="text_6">
      <!-- 10 -->
      <g transform="translate(142.008791 254.742125) scale(0.12 -0.12)">
       <defs>
        <path id="DejaVuSans-31" d="M 794 531 
L 1825 531 
L 1825 4091 
L 703 3866 
L 703 4441 
L 1819 4666 
L 2450 4666 
L 2450 531 
L 3481 531 
L 3481 0 
L 794 0 
L 794 531 
z
" transform="scale(0.015625)"/>
       </defs>
       <use xlink:href="#DejaVuSans-31"/>
       <use xlink:href="#DejaVuSans-30" x="63.623047"/>
      </g>
     </g>
    </g>
    <g id="xtick_4">
     <g id="line2d_13">
      <g>
       <use xlink:href="#m45a02ff7eb" x="192.204974" y="242.124" style="stroke: #000000; stroke-width: 1.5"/>
      </g>
     </g>
     <g id="line2d_14">
      <g>
       <use xlink:href="#mc4214bb166" x="192.204974" y="10.8" style="stroke: #000000; stroke-width: 1.5"/>
      </g>
     </g>
     <g id="text_7">
      <!-- 15 -->
      <g transform="translate(184.569974 254.742125) scale(0.12 -0.12)">
       <use xlink:href="#DejaVuSans-31"/>
       <use xlink:href="#DejaVuSans-35" x="63.623047"/>
      </g>
     </g>
    </g>
    <g id="xtick_5">
     <g id="line2d_15">
      <g>
       <use xlink:href="#m45a02ff7eb" x="234.766157" y="242.124" style="stroke: #000000; stroke-width: 1.5"/>
      </g>
     </g>
     <g id="line2d_16">
      <g>
       <use xlink:href="#mc4214bb166" x="234.766157" y="10.8" style="stroke: #000000; stroke-width: 1.5"/>
      </g>
     </g>
     <g id="text_8">
      <!-- 20 -->
      <g transform="translate(227.131157 254.742125) scale(0.12 -0.12)">
       <defs>
        <path id="DejaVuSans-32" d="M 1228 531 
L 3431 531 
L 3431 0 
L 469 0 
L 469 531 
Q 828 903 1448 1529 
Q 2069 2156 2228 2338 
Q 2531 2678 2651 2914 
Q 2772 3150 2772 3378 
Q 2772 3750 2511 3984 
Q 2250 4219 1831 4219 
Q 1534 4219 1204 4116 
Q 875 4013 500 3803 
L 500 4441 
Q 881 4594 1212 4672 
Q 1544 4750 1819 4750 
Q 2544 4750 2975 4387 
Q 3406 4025 3406 3419 
Q 3406 3131 3298 2873 
Q 3191 2616 2906 2266 
Q 2828 2175 2409 1742 
Q 1991 1309 1228 531 
z
" transform="scale(0.015625)"/>
       </defs>
       <use xlink:href="#DejaVuSans-32"/>
       <use xlink:href="#DejaVuSans-30" x="63.623047"/>
      </g>
     </g>
    </g>
    <g id="xtick_6">
     <g id="line2d_17">
      <g>
       <use xlink:href="#m45a02ff7eb" x="277.327339" y="242.124" style="stroke: #000000; stroke-width: 1.5"/>
      </g>
     </g>
     <g id="line2d_18">
      <g>
       <use xlink:href="#mc4214bb166" x="277.327339" y="10.8" style="stroke: #000000; stroke-width: 1.5"/>
      </g>
     </g>
     <g id="text_9">
      <!-- 25 -->
      <g transform="translate(269.692339 254.742125) scale(0.12 -0.12)">
       <use xlink:href="#DejaVuSans-32"/>
       <use xlink:href="#DejaVuSans-35" x="63.623047"/>
      </g>
     </g>
    </g>
    <g id="xtick_7">
     <g id="line2d_19">
      <g>
       <use xlink:href="#m45a02ff7eb" x="319.888522" y="242.124" style="stroke: #000000; stroke-width: 1.5"/>
      </g>
     </g>
     <g id="line2d_20">
      <g>
       <use xlink:href="#mc4214bb166" x="319.888522" y="10.8" style="stroke: #000000; stroke-width: 1.5"/>
      </g>
     </g>
     <g id="text_10">
      <!-- 30 -->
      <g transform="translate(312.253522 254.742125) scale(0.12 -0.12)">
       <defs>
        <path id="DejaVuSans-33" d="M 2597 2516 
Q 3050 2419 3304 2112 
Q 3559 1806 3559 1356 
Q 3559 666 3084 287 
Q 2609 -91 1734 -91 
Q 1441 -91 1130 -33 
Q 819 25 488 141 
L 488 750 
Q 750 597 1062 519 
Q 1375 441 1716 441 
Q 2309 441 2620 675 
Q 2931 909 2931 1356 
Q 2931 1769 2642 2001 
Q 2353 2234 1838 2234 
L 1294 2234 
L 1294 2753 
L 1863 2753 
Q 2328 2753 2575 2939 
Q 2822 3125 2822 3475 
Q 2822 3834 2567 4026 
Q 2313 4219 1838 4219 
Q 1578 4219 1281 4162 
Q 984 4106 628 3988 
L 628 4550 
Q 988 4650 1302 4700 
Q 1616 4750 1894 4750 
Q 2613 4750 3031 4423 
Q 3450 4097 3450 3541 
Q 3450 3153 3228 2886 
Q 3006 2619 2597 2516 
z
" transform="scale(0.015625)"/>
       </defs>
       <use xlink:href="#DejaVuSans-33"/>
       <use xlink:href="#DejaVuSans-30" x="63.623047"/>
      </g>
     </g>
    </g>
    <g id="xtick_8">
     <g id="line2d_21">
      <g>
       <use xlink:href="#m45a02ff7eb" x="362.449705" y="242.124" style="stroke: #000000; stroke-width: 1.5"/>
      </g>
     </g>
     <g id="line2d_22">
      <g>
       <use xlink:href="#mc4214bb166" x="362.449705" y="10.8" style="stroke: #000000; stroke-width: 1.5"/>
      </g>
     </g>
     <g id="text_11">
      <!-- 35 -->
      <g transform="translate(354.814705 254.742125) scale(0.12 -0.12)">
       <use xlink:href="#DejaVuSans-33"/>
       <use xlink:href="#DejaVuSans-35" x="63.623047"/>
      </g>
     </g>
    </g>
    <g id="xtick_9">
     <g id="line2d_23">
      <g>
       <use xlink:href="#m45a02ff7eb" x="405.010887" y="242.124" style="stroke: #000000; stroke-width: 1.5"/>
      </g>
     </g>
     <g id="line2d_24">
      <g>
       <use xlink:href="#mc4214bb166" x="405.010887" y="10.8" style="stroke: #000000; stroke-width: 1.5"/>
      </g>
     </g>
     <g id="text_12">
      <!-- 40 -->
      <g transform="translate(397.375887 254.742125) scale(0.12 -0.12)">
       <defs>
        <path id="DejaVuSans-34" d="M 2419 4116 
L 825 1625 
L 2419 1625 
L 2419 4116 
z
M 2253 4666 
L 3047 4666 
L 3047 1625 
L 3713 1625 
L 3713 1100 
L 3047 1100 
L 3047 0 
L 2419 0 
L 2419 1100 
L 313 1100 
L 313 1709 
L 2253 4666 
z
" transform="scale(0.015625)"/>
       </defs>
       <use xlink:href="#DejaVuSans-34"/>
       <use xlink:href="#DejaVuSans-30" x="63.623047"/>
      </g>
     </g>
    </g>
    <g id="xtick_10">
     <g id="line2d_25">
      <defs>
       <path id="mff4a398242" d="M 0 0 
L 0 -2 
" style="stroke: #000000; stroke-width: 1.5"/>
      </defs>
      <g>
       <use xlink:href="#mff4a398242" x="73.033663" y="242.124" style="stroke: #000000; stroke-width: 1.5"/>
      </g>
     </g>
     <g id="line2d_26">
      <defs>
       <path id="mcb3993b2b3" d="M 0 0 
L 0 2 
" style="stroke: #000000; stroke-width: 1.5"/>
      </defs>
      <g>
       <use xlink:href="#mcb3993b2b3" x="73.033663" y="10.8" style="stroke: #000000; stroke-width: 1.5"/>
      </g>
     </g>
    </g>
    <g id="xtick_11">
     <g id="line2d_27">
      <g>
       <use xlink:href="#mff4a398242" x="81.545899" y="242.124" style="stroke: #000000; stroke-width: 1.5"/>
      </g>
     </g>
     <g id="line2d_28">
      <g>
       <use xlink:href="#mcb3993b2b3" x="81.545899" y="10.8" style="stroke: #000000; stroke-width: 1.5"/>
      </g>
     </g>
    </g>
    <g id="xtick_12">
     <g id="line2d_29">
      <g>
       <use xlink:href="#mff4a398242" x="90.058136" y="242.124" style="stroke: #000000; stroke-width: 1.5"/>
      </g>
     </g>
     <g id="line2d_30">
      <g>
       <use xlink:href="#mcb3993b2b3" x="90.058136" y="10.8" style="stroke: #000000; stroke-width: 1.5"/>
      </g>
     </g>
    </g>
    <g id="xtick_13">
     <g id="line2d_31">
      <g>
       <use xlink:href="#mff4a398242" x="98.570372" y="242.124" style="stroke: #000000; stroke-width: 1.5"/>
      </g>
     </g>
     <g id="line2d_32">
      <g>
       <use xlink:href="#mcb3993b2b3" x="98.570372" y="10.8" style="stroke: #000000; stroke-width: 1.5"/>
      </g>
     </g>
    </g>
    <g id="xtick_14">
     <g id="line2d_33">
      <g>
       <use xlink:href="#mff4a398242" x="115.594845" y="242.124" style="stroke: #000000; stroke-width: 1.5"/>
      </g>
     </g>
     <g id="line2d_34">
      <g>
       <use xlink:href="#mcb3993b2b3" x="115.594845" y="10.8" style="stroke: #000000; stroke-width: 1.5"/>
      </g>
     </g>
    </g>
    <g id="xtick_15">
     <g id="line2d_35">
      <g>
       <use xlink:href="#mff4a398242" x="124.107082" y="242.124" style="stroke: #000000; stroke-width: 1.5"/>
      </g>
     </g>
     <g id="line2d_36">
      <g>
       <use xlink:href="#mcb3993b2b3" x="124.107082" y="10.8" style="stroke: #000000; stroke-width: 1.5"/>
      </g>
     </g>
    </g>
    <g id="xtick_16">
     <g id="line2d_37">
      <g>
       <use xlink:href="#mff4a398242" x="132.619318" y="242.124" style="stroke: #000000; stroke-width: 1.5"/>
      </g>
     </g>
     <g id="line2d_38">
      <g>
       <use xlink:href="#mcb3993b2b3" x="132.619318" y="10.8" style="stroke: #000000; stroke-width: 1.5"/>
      </g>
     </g>
    </g>
    <g id="xtick_17">
     <g id="line2d_39">
      <g>
       <use xlink:href="#mff4a398242" x="141.131555" y="242.124" style="stroke: #000000; stroke-width: 1.5"/>
      </g>
     </g>
     <g id="line2d_40">
      <g>
       <use xlink:href="#mcb3993b2b3" x="141.131555" y="10.8" style="stroke: #000000; stroke-width: 1.5"/>
      </g>
     </g>
    </g>
    <g id="xtick_18">
     <g id="line2d_41">
      <g>
       <use xlink:href="#mff4a398242" x="158.156028" y="242.124" style="stroke: #000000; stroke-width: 1.5"/>
      </g>
     </g>
     <g id="line2d_42">
      <g>
       <use xlink:href="#mcb3993b2b3" x="158.156028" y="10.8" style="stroke: #000000; stroke-width: 1.5"/>
      </g>
     </g>
    </g>
    <g id="xtick_19">
     <g id="line2d_43">
      <g>
       <use xlink:href="#mff4a398242" x="166.668264" y="242.124" style="stroke: #000000; stroke-width: 1.5"/>
      </g>
     </g>
     <g id="line2d_44">
      <g>
       <use xlink:href="#mcb3993b2b3" x="166.668264" y="10.8" style="stroke: #000000; stroke-width: 1.5"/>
      </g>
     </g>
    </g>
    <g id="xtick_20">
     <g id="line2d_45">
      <g>
       <use xlink:href="#mff4a398242" x="175.180501" y="242.124" style="stroke: #000000; stroke-width: 1.5"/>
      </g>
     </g>
     <g id="line2d_46">
      <g>
       <use xlink:href="#mcb3993b2b3" x="175.180501" y="10.8" style="stroke: #000000; stroke-width: 1.5"/>
      </g>
     </g>
    </g>
    <g id="xtick_21">
     <g id="line2d_47">
      <g>
       <use xlink:href="#mff4a398242" x="183.692737" y="242.124" style="stroke: #000000; stroke-width: 1.5"/>
      </g>
     </g>
     <g id="line2d_48">
      <g>
       <use xlink:href="#mcb3993b2b3" x="183.692737" y="10.8" style="stroke: #000000; stroke-width: 1.5"/>
      </g>
     </g>
    </g>
    <g id="xtick_22">
     <g id="line2d_49">
      <g>
       <use xlink:href="#mff4a398242" x="200.71721" y="242.124" style="stroke: #000000; stroke-width: 1.5"/>
      </g>
     </g>
     <g id="line2d_50">
      <g>
       <use xlink:href="#mcb3993b2b3" x="200.71721" y="10.8" style="stroke: #000000; stroke-width: 1.5"/>
      </g>
     </g>
    </g>
    <g id="xtick_23">
     <g id="line2d_51">
      <g>
       <use xlink:href="#mff4a398242" x="209.229447" y="242.124" style="stroke: #000000; stroke-width: 1.5"/>
      </g>
     </g>
     <g id="line2d_52">
      <g>
       <use xlink:href="#mcb3993b2b3" x="209.229447" y="10.8" style="stroke: #000000; stroke-width: 1.5"/>
      </g>
     </g>
    </g>
    <g id="xtick_24">
     <g id="line2d_53">
      <g>
       <use xlink:href="#mff4a398242" x="217.741684" y="242.124" style="stroke: #000000; stroke-width: 1.5"/>
      </g>
     </g>
     <g id="line2d_54">
      <g>
       <use xlink:href="#mcb3993b2b3" x="217.741684" y="10.8" style="stroke: #000000; stroke-width: 1.5"/>
      </g>
     </g>
    </g>
    <g id="xtick_25">
     <g id="line2d_55">
      <g>
       <use xlink:href="#mff4a398242" x="226.25392" y="242.124" style="stroke: #000000; stroke-width: 1.5"/>
      </g>
     </g>
     <g id="line2d_56">
      <g>
       <use xlink:href="#mcb3993b2b3" x="226.25392" y="10.8" style="stroke: #000000; stroke-width: 1.5"/>
      </g>
     </g>
    </g>
    <g id="xtick_26">
     <g id="line2d_57">
      <g>
       <use xlink:href="#mff4a398242" x="243.278393" y="242.124" style="stroke: #000000; stroke-width: 1.5"/>
      </g>
     </g>
     <g id="line2d_58">
      <g>
       <use xlink:href="#mcb3993b2b3" x="243.278393" y="10.8" style="stroke: #000000; stroke-width: 1.5"/>
      </g>
     </g>
    </g>
    <g id="xtick_27">
     <g id="line2d_59">
      <g>
       <use xlink:href="#mff4a398242" x="251.79063" y="242.124" style="stroke: #000000; stroke-width: 1.5"/>
      </g>
     </g>
     <g id="line2d_60">
      <g>
       <use xlink:href="#mcb3993b2b3" x="251.79063" y="10.8" style="stroke: #000000; stroke-width: 1.5"/>
      </g>
     </g>
    </g>
    <g id="xtick_28">
     <g id="line2d_61">
      <g>
       <use xlink:href="#mff4a398242" x="260.302866" y="242.124" style="stroke: #000000; stroke-width: 1.5"/>
      </g>
     </g>
     <g id="line2d_62">
      <g>
       <use xlink:href="#mcb3993b2b3" x="260.302866" y="10.8" style="stroke: #000000; stroke-width: 1.5"/>
      </g>
     </g>
    </g>
    <g id="xtick_29">
     <g id="line2d_63">
      <g>
       <use xlink:href="#mff4a398242" x="268.815103" y="242.124" style="stroke: #000000; stroke-width: 1.5"/>
      </g>
     </g>
     <g id="line2d_64">
      <g>
       <use xlink:href="#mcb3993b2b3" x="268.815103" y="10.8" style="stroke: #000000; stroke-width: 1.5"/>
      </g>
     </g>
    </g>
    <g id="xtick_30">
     <g id="line2d_65">
      <g>
       <use xlink:href="#mff4a398242" x="285.839576" y="242.124" style="stroke: #000000; stroke-width: 1.5"/>
      </g>
     </g>
     <g id="line2d_66">
      <g>
       <use xlink:href="#mcb3993b2b3" x="285.839576" y="10.8" style="stroke: #000000; stroke-width: 1.5"/>
      </g>
     </g>
    </g>
    <g id="xtick_31">
     <g id="line2d_67">
      <g>
       <use xlink:href="#mff4a398242" x="294.351812" y="242.124" style="stroke: #000000; stroke-width: 1.5"/>
      </g>
     </g>
     <g id="line2d_68">
      <g>
       <use xlink:href="#mcb3993b2b3" x="294.351812" y="10.8" style="stroke: #000000; stroke-width: 1.5"/>
      </g>
     </g>
    </g>
    <g id="xtick_32">
     <g id="line2d_69">
      <g>
       <use xlink:href="#mff4a398242" x="302.864049" y="242.124" style="stroke: #000000; stroke-width: 1.5"/>
      </g>
     </g>
     <g id="line2d_70">
      <g>
       <use xlink:href="#mcb3993b2b3" x="302.864049" y="10.8" style="stroke: #000000; stroke-width: 1.5"/>
      </g>
     </g>
    </g>
    <g id="xtick_33">
     <g id="line2d_71">
      <g>
       <use xlink:href="#mff4a398242" x="311.376285" y="242.124" style="stroke: #000000; stroke-width: 1.5"/>
      </g>
     </g>
     <g id="line2d_72">
      <g>
       <use xlink:href="#mcb3993b2b3" x="311.376285" y="10.8" style="stroke: #000000; stroke-width: 1.5"/>
      </g>
     </g>
    </g>
    <g id="xtick_34">
     <g id="line2d_73">
      <g>
       <use xlink:href="#mff4a398242" x="328.400758" y="242.124" style="stroke: #000000; stroke-width: 1.5"/>
      </g>
     </g>
     <g id="line2d_74">
      <g>
       <use xlink:href="#mcb3993b2b3" x="328.400758" y="10.8" style="stroke: #000000; stroke-width: 1.5"/>
      </g>
     </g>
    </g>
    <g id="xtick_35">
     <g id="line2d_75">
      <g>
       <use xlink:href="#mff4a398242" x="336.912995" y="242.124" style="stroke: #000000; stroke-width: 1.5"/>
      </g>
     </g>
     <g id="line2d_76">
      <g>
       <use xlink:href="#mcb3993b2b3" x="336.912995" y="10.8" style="stroke: #000000; stroke-width: 1.5"/>
      </g>
     </g>
    </g>
    <g id="xtick_36">
     <g id="line2d_77">
      <g>
       <use xlink:href="#mff4a398242" x="345.425232" y="242.124" style="stroke: #000000; stroke-width: 1.5"/>
      </g>
     </g>
     <g id="line2d_78">
      <g>
       <use xlink:href="#mcb3993b2b3" x="345.425232" y="10.8" style="stroke: #000000; stroke-width: 1.5"/>
      </g>
     </g>
    </g>
    <g id="xtick_37">
     <g id="line2d_79">
      <g>
       <use xlink:href="#mff4a398242" x="353.937468" y="242.124" style="stroke: #000000; stroke-width: 1.5"/>
      </g>
     </g>
     <g id="line2d_80">
      <g>
       <use xlink:href="#mcb3993b2b3" x="353.937468" y="10.8" style="stroke: #000000; stroke-width: 1.5"/>
      </g>
     </g>
    </g>
    <g id="xtick_38">
     <g id="line2d_81">
      <g>
       <use xlink:href="#mff4a398242" x="370.961941" y="242.124" style="stroke: #000000; stroke-width: 1.5"/>
      </g>
     </g>
     <g id="line2d_82">
      <g>
       <use xlink:href="#mcb3993b2b3" x="370.961941" y="10.8" style="stroke: #000000; stroke-width: 1.5"/>
      </g>
     </g>
    </g>
    <g id="xtick_39">
     <g id="line2d_83">
      <g>
       <use xlink:href="#mff4a398242" x="379.474178" y="242.124" style="stroke: #000000; stroke-width: 1.5"/>
      </g>
     </g>
     <g id="line2d_84">
      <g>
       <use xlink:href="#mcb3993b2b3" x="379.474178" y="10.8" style="stroke: #000000; stroke-width: 1.5"/>
      </g>
     </g>
    </g>
    <g id="xtick_40">
     <g id="line2d_85">
      <g>
       <use xlink:href="#mff4a398242" x="387.986414" y="242.124" style="stroke: #000000; stroke-width: 1.5"/>
      </g>
     </g>
     <g id="line2d_86">
      <g>
       <use xlink:href="#mcb3993b2b3" x="387.986414" y="10.8" style="stroke: #000000; stroke-width: 1.5"/>
      </g>
     </g>
    </g>
    <g id="xtick_41">
     <g id="line2d_87">
      <g>
       <use xlink:href="#mff4a398242" x="396.498651" y="242.124" style="stroke: #000000; stroke-width: 1.5"/>
      </g>
     </g>
     <g id="line2d_88">
      <g>
       <use xlink:href="#mcb3993b2b3" x="396.498651" y="10.8" style="stroke: #000000; stroke-width: 1.5"/>
      </g>
     </g>
    </g>
    <g id="xtick_42">
     <g id="line2d_89">
      <g>
       <use xlink:href="#mff4a398242" x="413.523124" y="242.124" style="stroke: #000000; stroke-width: 1.5"/>
      </g>
     </g>
     <g id="line2d_90">
      <g>
       <use xlink:href="#mcb3993b2b3" x="413.523124" y="10.8" style="stroke: #000000; stroke-width: 1.5"/>
      </g>
     </g>
    </g>
    <g id="text_13">
     <!-- Distance [R$_\odot$] -->
     <g transform="translate(197.784179 270.355875) scale(0.12 -0.12)">
      <defs>
       <path id="DejaVuSans-44" d="M 1259 4147 
L 1259 519 
L 2022 519 
Q 2988 519 3436 956 
Q 3884 1394 3884 2338 
Q 3884 3275 3436 3711 
Q 2988 4147 2022 4147 
L 1259 4147 
z
M 628 4666 
L 1925 4666 
Q 3281 4666 3915 4102 
Q 4550 3538 4550 2338 
Q 4550 1131 3912 565 
Q 3275 0 1925 0 
L 628 0 
L 628 4666 
z
" transform="scale(0.015625)"/>
       <path id="DejaVuSans-63" d="M 3122 3366 
L 3122 2828 
Q 2878 2963 2633 3030 
Q 2388 3097 2138 3097 
Q 1578 3097 1268 2742 
Q 959 2388 959 1747 
Q 959 1106 1268 751 
Q 1578 397 2138 397 
Q 2388 397 2633 464 
Q 2878 531 3122 666 
L 3122 134 
Q 2881 22 2623 -34 
Q 2366 -91 2075 -91 
Q 1284 -91 818 406 
Q 353 903 353 1747 
Q 353 2603 823 3093 
Q 1294 3584 2113 3584 
Q 2378 3584 2631 3529 
Q 2884 3475 3122 3366 
z
" transform="scale(0.015625)"/>
       <path id="DejaVuSans-65" d="M 3597 1894 
L 3597 1613 
L 953 1613 
Q 991 1019 1311 708 
Q 1631 397 2203 397 
Q 2534 397 2845 478 
Q 3156 559 3463 722 
L 3463 178 
Q 3153 47 2828 -22 
Q 2503 -91 2169 -91 
Q 1331 -91 842 396 
Q 353 884 353 1716 
Q 353 2575 817 3079 
Q 1281 3584 2069 3584 
Q 2775 3584 3186 3129 
Q 3597 2675 3597 1894 
z
M 3022 2063 
Q 3016 2534 2758 2815 
Q 2500 3097 2075 3097 
Q 1594 3097 1305 2825 
Q 1016 2553 972 2059 
L 3022 2063 
z
" transform="scale(0.015625)"/>
       <path id="DejaVuSans-5b" d="M 550 4863 
L 1875 4863 
L 1875 4416 
L 1125 4416 
L 1125 -397 
L 1875 -397 
L 1875 -844 
L 550 -844 
L 550 4863 
z
" transform="scale(0.015625)"/>
       <path id="DejaVuSans-52" d="M 2841 2188 
Q 3044 2119 3236 1894 
Q 3428 1669 3622 1275 
L 4263 0 
L 3584 0 
L 2988 1197 
Q 2756 1666 2539 1819 
Q 2322 1972 1947 1972 
L 1259 1972 
L 1259 0 
L 628 0 
L 628 4666 
L 2053 4666 
Q 2853 4666 3247 4331 
Q 3641 3997 3641 3322 
Q 3641 2881 3436 2590 
Q 3231 2300 2841 2188 
z
M 1259 4147 
L 1259 2491 
L 2053 2491 
Q 2509 2491 2742 2702 
Q 2975 2913 2975 3322 
Q 2975 3731 2742 3939 
Q 2509 4147 2053 4147 
L 1259 4147 
z
" transform="scale(0.015625)"/>
       <path id="DejaVuSans-2299" d="M 2350 2403 
L 3013 2403 
L 3013 1609 
L 2350 1609 
L 2350 2403 
z
M 3306 3522 
Q 3016 3644 2681 3644 
Q 2347 3644 2056 3522 
Q 1769 3400 1531 3163 
Q 1291 2922 1172 2634 
Q 1053 2347 1053 2006 
Q 1053 1675 1172 1387 
Q 1291 1100 1531 859 
Q 1769 622 2056 500 
Q 2347 378 2681 378 
Q 3016 378 3306 500 
Q 3594 622 3831 859 
Q 4072 1100 4190 1387 
Q 4309 1675 4309 2006 
Q 4309 2347 4190 2634 
Q 4072 2922 3831 3163 
Q 3594 3400 3306 3522 
z
M 1878 3956 
Q 2250 4113 2681 4113 
Q 3113 4113 3484 3956 
Q 3856 3800 4163 3494 
Q 4472 3184 4625 2813 
Q 4778 2444 4778 2006 
Q 4778 1578 4625 1206 
Q 4472 838 4163 528 
Q 3856 222 3484 65 
Q 3113 -91 2681 -91 
Q 2250 -91 1878 65 
Q 1506 222 1200 528 
Q 891 838 738 1206 
Q 584 1578 584 2006 
Q 584 2444 738 2813 
Q 891 3184 1200 3494 
Q 1506 3800 1878 3956 
z
" transform="scale(0.015625)"/>
       <path id="DejaVuSans-5d" d="M 1947 4863 
L 1947 -844 
L 622 -844 
L 622 -397 
L 1369 -397 
L 1369 4416 
L 622 4416 
L 622 4863 
L 1947 4863 
z
" transform="scale(0.015625)"/>
      </defs>
      <use xlink:href="#DejaVuSans-44" transform="translate(0 0.015625)"/>
      <use xlink:href="#DejaVuSans-69" transform="translate(77.001953 0.015625)"/>
      <use xlink:href="#DejaVuSans-73" transform="translate(104.785156 0.015625)"/>
      <use xlink:href="#DejaVuSans-74" transform="translate(156.884766 0.015625)"/>
      <use xlink:href="#DejaVuSans-61" transform="translate(196.09375 0.015625)"/>
      <use xlink:href="#DejaVuSans-6e" transform="translate(257.373047 0.015625)"/>
      <use xlink:href="#DejaVuSans-63" transform="translate(320.751953 0.015625)"/>
      <use xlink:href="#DejaVuSans-65" transform="translate(375.732422 0.015625)"/>
      <use xlink:href="#DejaVuSans-20" transform="translate(437.255859 0.015625)"/>
      <use xlink:href="#DejaVuSans-5b" transform="translate(469.042969 0.015625)"/>
      <use xlink:href="#DejaVuSans-52" transform="translate(504.931641 0.015625)"/>
      <use xlink:href="#DejaVuSans-2299" transform="translate(589.008789 -16.390625) scale(0.7)"/>
      <use xlink:href="#DejaVuSans-5d" transform="translate(664.033203 0.015625)"/>
     </g>
    </g>
   </g>
   <g id="matplotlib.axis_2">
    <g id="ytick_1">
     <g id="line2d_91">
      <defs>
       <path id="ma6a3933345" d="M 0 0 
L 3.5 0 
" style="stroke: #000000; stroke-width: 1.5"/>
      </defs>
      <g>
       <use xlink:href="#ma6a3933345" x="58.848357" y="234.469317" style="stroke: #000000; stroke-width: 1.5"/>
      </g>
     </g>
     <g id="line2d_92">
      <defs>
       <path id="m4a876c7645" d="M 0 0 
L -3.5 0 
" style="stroke: #000000; stroke-width: 1.5"/>
      </defs>
      <g>
       <use xlink:href="#m4a876c7645" x="421.2" y="234.469317" style="stroke: #000000; stroke-width: 1.5"/>
      </g>
     </g>
     <g id="text_14">
      <!-- $\mathdefault{10^{1}}$ -->
      <g transform="translate(34.228357 239.028379) scale(0.12 -0.12)">
       <use xlink:href="#DejaVuSans-31" transform="translate(0 0.684375)"/>
       <use xlink:href="#DejaVuSans-30" transform="translate(63.623047 0.684375)"/>
       <use xlink:href="#DejaVuSans-31" transform="translate(128.203125 38.965625) scale(0.7)"/>
      </g>
     </g>
    </g>
    <g id="ytick_2">
     <g id="line2d_93">
      <g>
       <use xlink:href="#ma6a3933345" x="58.848357" y="191.395621" style="stroke: #000000; stroke-width: 1.5"/>
      </g>
     </g>
     <g id="line2d_94">
      <g>
       <use xlink:href="#m4a876c7645" x="421.2" y="191.395621" style="stroke: #000000; stroke-width: 1.5"/>
      </g>
     </g>
     <g id="text_15">
      <!-- $\mathdefault{10^{2}}$ -->
      <g transform="translate(34.228357 195.954683) scale(0.12 -0.12)">
       <use xlink:href="#DejaVuSans-31" transform="translate(0 0.765625)"/>
       <use xlink:href="#DejaVuSans-30" transform="translate(63.623047 0.765625)"/>
       <use xlink:href="#DejaVuSans-32" transform="translate(128.203125 39.046875) scale(0.7)"/>
      </g>
     </g>
    </g>
    <g id="ytick_3">
     <g id="line2d_95">
      <g>
       <use xlink:href="#ma6a3933345" x="58.848357" y="148.321924" style="stroke: #000000; stroke-width: 1.5"/>
      </g>
     </g>
     <g id="line2d_96">
      <g>
       <use xlink:href="#m4a876c7645" x="421.2" y="148.321924" style="stroke: #000000; stroke-width: 1.5"/>
      </g>
     </g>
     <g id="text_16">
      <!-- $\mathdefault{10^{3}}$ -->
      <g transform="translate(34.228357 152.880987) scale(0.12 -0.12)">
       <use xlink:href="#DejaVuSans-31" transform="translate(0 0.765625)"/>
       <use xlink:href="#DejaVuSans-30" transform="translate(63.623047 0.765625)"/>
       <use xlink:href="#DejaVuSans-33" transform="translate(128.203125 39.046875) scale(0.7)"/>
      </g>
     </g>
    </g>
    <g id="ytick_4">
     <g id="line2d_97">
      <g>
       <use xlink:href="#ma6a3933345" x="58.848357" y="105.248228" style="stroke: #000000; stroke-width: 1.5"/>
      </g>
     </g>
     <g id="line2d_98">
      <g>
       <use xlink:href="#m4a876c7645" x="421.2" y="105.248228" style="stroke: #000000; stroke-width: 1.5"/>
      </g>
     </g>
     <g id="text_17">
      <!-- $\mathdefault{10^{4}}$ -->
      <g transform="translate(34.228357 109.80729) scale(0.12 -0.12)">
       <use xlink:href="#DejaVuSans-31" transform="translate(0 0.684375)"/>
       <use xlink:href="#DejaVuSans-30" transform="translate(63.623047 0.684375)"/>
       <use xlink:href="#DejaVuSans-34" transform="translate(128.203125 38.965625) scale(0.7)"/>
      </g>
     </g>
    </g>
    <g id="ytick_5">
     <g id="line2d_99">
      <g>
       <use xlink:href="#ma6a3933345" x="58.848357" y="62.174531" style="stroke: #000000; stroke-width: 1.5"/>
      </g>
     </g>
     <g id="line2d_100">
      <g>
       <use xlink:href="#m4a876c7645" x="421.2" y="62.174531" style="stroke: #000000; stroke-width: 1.5"/>
      </g>
     </g>
     <g id="text_18">
      <!-- $\mathdefault{10^{5}}$ -->
      <g transform="translate(34.228357 66.733594) scale(0.12 -0.12)">
       <use xlink:href="#DejaVuSans-31" transform="translate(0 0.684375)"/>
       <use xlink:href="#DejaVuSans-30" transform="translate(63.623047 0.684375)"/>
       <use xlink:href="#DejaVuSans-35" transform="translate(128.203125 38.965625) scale(0.7)"/>
      </g>
     </g>
    </g>
    <g id="ytick_6">
     <g id="line2d_101">
      <g>
       <use xlink:href="#ma6a3933345" x="58.848357" y="19.100835" style="stroke: #000000; stroke-width: 1.5"/>
      </g>
     </g>
     <g id="line2d_102">
      <g>
       <use xlink:href="#m4a876c7645" x="421.2" y="19.100835" style="stroke: #000000; stroke-width: 1.5"/>
      </g>
     </g>
     <g id="text_19">
      <!-- $\mathdefault{10^{6}}$ -->
      <g transform="translate(34.228357 23.659897) scale(0.12 -0.12)">
       <defs>
        <path id="DejaVuSans-36" d="M 2113 2584 
Q 1688 2584 1439 2293 
Q 1191 2003 1191 1497 
Q 1191 994 1439 701 
Q 1688 409 2113 409 
Q 2538 409 2786 701 
Q 3034 994 3034 1497 
Q 3034 2003 2786 2293 
Q 2538 2584 2113 2584 
z
M 3366 4563 
L 3366 3988 
Q 3128 4100 2886 4159 
Q 2644 4219 2406 4219 
Q 1781 4219 1451 3797 
Q 1122 3375 1075 2522 
Q 1259 2794 1537 2939 
Q 1816 3084 2150 3084 
Q 2853 3084 3261 2657 
Q 3669 2231 3669 1497 
Q 3669 778 3244 343 
Q 2819 -91 2113 -91 
Q 1303 -91 875 529 
Q 447 1150 447 2328 
Q 447 3434 972 4092 
Q 1497 4750 2381 4750 
Q 2619 4750 2861 4703 
Q 3103 4656 3366 4563 
z
" transform="scale(0.015625)"/>
       </defs>
       <use xlink:href="#DejaVuSans-31" transform="translate(0 0.765625)"/>
       <use xlink:href="#DejaVuSans-30" transform="translate(63.623047 0.765625)"/>
       <use xlink:href="#DejaVuSans-36" transform="translate(128.203125 39.046875) scale(0.7)"/>
      </g>
     </g>
    </g>
    <g id="ytick_7">
     <g id="line2d_103">
      <defs>
       <path id="mc11be3b62b" d="M 0 0 
L 2 0 
" style="stroke: #000000; stroke-width: 1.5"/>
      </defs>
      <g>
       <use xlink:href="#mc11be3b62b" x="58.848357" y="241.141517" style="stroke: #000000; stroke-width: 1.5"/>
      </g>
     </g>
     <g id="line2d_104">
      <defs>
       <path id="m9326dcfee8" d="M 0 0 
L -2 0 
" style="stroke: #000000; stroke-width: 1.5"/>
      </defs>
      <g>
       <use xlink:href="#m9326dcfee8" x="421.2" y="241.141517" style="stroke: #000000; stroke-width: 1.5"/>
      </g>
     </g>
    </g>
    <g id="ytick_8">
     <g id="line2d_105">
      <g>
       <use xlink:href="#mc11be3b62b" x="58.848357" y="238.643589" style="stroke: #000000; stroke-width: 1.5"/>
      </g>
     </g>
     <g id="line2d_106">
      <g>
       <use xlink:href="#m9326dcfee8" x="421.2" y="238.643589" style="stroke: #000000; stroke-width: 1.5"/>
      </g>
     </g>
    </g>
    <g id="ytick_9">
     <g id="line2d_107">
      <g>
       <use xlink:href="#mc11be3b62b" x="58.848357" y="236.440261" style="stroke: #000000; stroke-width: 1.5"/>
      </g>
     </g>
     <g id="line2d_108">
      <g>
       <use xlink:href="#m9326dcfee8" x="421.2" y="236.440261" style="stroke: #000000; stroke-width: 1.5"/>
      </g>
     </g>
    </g>
    <g id="ytick_10">
     <g id="line2d_109">
      <g>
       <use xlink:href="#mc11be3b62b" x="58.848357" y="221.502842" style="stroke: #000000; stroke-width: 1.5"/>
      </g>
     </g>
     <g id="line2d_110">
      <g>
       <use xlink:href="#m9326dcfee8" x="421.2" y="221.502842" style="stroke: #000000; stroke-width: 1.5"/>
      </g>
     </g>
    </g>
    <g id="ytick_11">
     <g id="line2d_111">
      <g>
       <use xlink:href="#mc11be3b62b" x="58.848357" y="213.917941" style="stroke: #000000; stroke-width: 1.5"/>
      </g>
     </g>
     <g id="line2d_112">
      <g>
       <use xlink:href="#m9326dcfee8" x="421.2" y="213.917941" style="stroke: #000000; stroke-width: 1.5"/>
      </g>
     </g>
    </g>
    <g id="ytick_12">
     <g id="line2d_113">
      <g>
       <use xlink:href="#mc11be3b62b" x="58.848357" y="208.536368" style="stroke: #000000; stroke-width: 1.5"/>
      </g>
     </g>
     <g id="line2d_114">
      <g>
       <use xlink:href="#m9326dcfee8" x="421.2" y="208.536368" style="stroke: #000000; stroke-width: 1.5"/>
      </g>
     </g>
    </g>
    <g id="ytick_13">
     <g id="line2d_115">
      <g>
       <use xlink:href="#mc11be3b62b" x="58.848357" y="204.362095" style="stroke: #000000; stroke-width: 1.5"/>
      </g>
     </g>
     <g id="line2d_116">
      <g>
       <use xlink:href="#m9326dcfee8" x="421.2" y="204.362095" style="stroke: #000000; stroke-width: 1.5"/>
      </g>
     </g>
    </g>
    <g id="ytick_14">
     <g id="line2d_117">
      <g>
       <use xlink:href="#mc11be3b62b" x="58.848357" y="200.951466" style="stroke: #000000; stroke-width: 1.5"/>
      </g>
     </g>
     <g id="line2d_118">
      <g>
       <use xlink:href="#m9326dcfee8" x="421.2" y="200.951466" style="stroke: #000000; stroke-width: 1.5"/>
      </g>
     </g>
    </g>
    <g id="ytick_15">
     <g id="line2d_119">
      <g>
       <use xlink:href="#mc11be3b62b" x="58.848357" y="198.067821" style="stroke: #000000; stroke-width: 1.5"/>
      </g>
     </g>
     <g id="line2d_120">
      <g>
       <use xlink:href="#m9326dcfee8" x="421.2" y="198.067821" style="stroke: #000000; stroke-width: 1.5"/>
      </g>
     </g>
    </g>
    <g id="ytick_16">
     <g id="line2d_121">
      <g>
       <use xlink:href="#mc11be3b62b" x="58.848357" y="195.569893" style="stroke: #000000; stroke-width: 1.5"/>
      </g>
     </g>
     <g id="line2d_122">
      <g>
       <use xlink:href="#m9326dcfee8" x="421.2" y="195.569893" style="stroke: #000000; stroke-width: 1.5"/>
      </g>
     </g>
    </g>
    <g id="ytick_17">
     <g id="line2d_123">
      <g>
       <use xlink:href="#mc11be3b62b" x="58.848357" y="193.366565" style="stroke: #000000; stroke-width: 1.5"/>
      </g>
     </g>
     <g id="line2d_124">
      <g>
       <use xlink:href="#m9326dcfee8" x="421.2" y="193.366565" style="stroke: #000000; stroke-width: 1.5"/>
      </g>
     </g>
    </g>
    <g id="ytick_18">
     <g id="line2d_125">
      <g>
       <use xlink:href="#mc11be3b62b" x="58.848357" y="178.429146" style="stroke: #000000; stroke-width: 1.5"/>
      </g>
     </g>
     <g id="line2d_126">
      <g>
       <use xlink:href="#m9326dcfee8" x="421.2" y="178.429146" style="stroke: #000000; stroke-width: 1.5"/>
      </g>
     </g>
    </g>
    <g id="ytick_19">
     <g id="line2d_127">
      <g>
       <use xlink:href="#mc11be3b62b" x="58.848357" y="170.844244" style="stroke: #000000; stroke-width: 1.5"/>
      </g>
     </g>
     <g id="line2d_128">
      <g>
       <use xlink:href="#m9326dcfee8" x="421.2" y="170.844244" style="stroke: #000000; stroke-width: 1.5"/>
      </g>
     </g>
    </g>
    <g id="ytick_20">
     <g id="line2d_129">
      <g>
       <use xlink:href="#mc11be3b62b" x="58.848357" y="165.462671" style="stroke: #000000; stroke-width: 1.5"/>
      </g>
     </g>
     <g id="line2d_130">
      <g>
       <use xlink:href="#m9326dcfee8" x="421.2" y="165.462671" style="stroke: #000000; stroke-width: 1.5"/>
      </g>
     </g>
    </g>
    <g id="ytick_21">
     <g id="line2d_131">
      <g>
       <use xlink:href="#mc11be3b62b" x="58.848357" y="161.288399" style="stroke: #000000; stroke-width: 1.5"/>
      </g>
     </g>
     <g id="line2d_132">
      <g>
       <use xlink:href="#m9326dcfee8" x="421.2" y="161.288399" style="stroke: #000000; stroke-width: 1.5"/>
      </g>
     </g>
    </g>
    <g id="ytick_22">
     <g id="line2d_133">
      <g>
       <use xlink:href="#mc11be3b62b" x="58.848357" y="157.87777" style="stroke: #000000; stroke-width: 1.5"/>
      </g>
     </g>
     <g id="line2d_134">
      <g>
       <use xlink:href="#m9326dcfee8" x="421.2" y="157.87777" style="stroke: #000000; stroke-width: 1.5"/>
      </g>
     </g>
    </g>
    <g id="ytick_23">
     <g id="line2d_135">
      <g>
       <use xlink:href="#mc11be3b62b" x="58.848357" y="154.994124" style="stroke: #000000; stroke-width: 1.5"/>
      </g>
     </g>
     <g id="line2d_136">
      <g>
       <use xlink:href="#m9326dcfee8" x="421.2" y="154.994124" style="stroke: #000000; stroke-width: 1.5"/>
      </g>
     </g>
    </g>
    <g id="ytick_24">
     <g id="line2d_137">
      <g>
       <use xlink:href="#mc11be3b62b" x="58.848357" y="152.496197" style="stroke: #000000; stroke-width: 1.5"/>
      </g>
     </g>
     <g id="line2d_138">
      <g>
       <use xlink:href="#m9326dcfee8" x="421.2" y="152.496197" style="stroke: #000000; stroke-width: 1.5"/>
      </g>
     </g>
    </g>
    <g id="ytick_25">
     <g id="line2d_139">
      <g>
       <use xlink:href="#mc11be3b62b" x="58.848357" y="150.292868" style="stroke: #000000; stroke-width: 1.5"/>
      </g>
     </g>
     <g id="line2d_140">
      <g>
       <use xlink:href="#m9326dcfee8" x="421.2" y="150.292868" style="stroke: #000000; stroke-width: 1.5"/>
      </g>
     </g>
    </g>
    <g id="ytick_26">
     <g id="line2d_141">
      <g>
       <use xlink:href="#mc11be3b62b" x="58.848357" y="135.355449" style="stroke: #000000; stroke-width: 1.5"/>
      </g>
     </g>
     <g id="line2d_142">
      <g>
       <use xlink:href="#m9326dcfee8" x="421.2" y="135.355449" style="stroke: #000000; stroke-width: 1.5"/>
      </g>
     </g>
    </g>
    <g id="ytick_27">
     <g id="line2d_143">
      <g>
       <use xlink:href="#mc11be3b62b" x="58.848357" y="127.770548" style="stroke: #000000; stroke-width: 1.5"/>
      </g>
     </g>
     <g id="line2d_144">
      <g>
       <use xlink:href="#m9326dcfee8" x="421.2" y="127.770548" style="stroke: #000000; stroke-width: 1.5"/>
      </g>
     </g>
    </g>
    <g id="ytick_28">
     <g id="line2d_145">
      <g>
       <use xlink:href="#mc11be3b62b" x="58.848357" y="122.388975" style="stroke: #000000; stroke-width: 1.5"/>
      </g>
     </g>
     <g id="line2d_146">
      <g>
       <use xlink:href="#m9326dcfee8" x="421.2" y="122.388975" style="stroke: #000000; stroke-width: 1.5"/>
      </g>
     </g>
    </g>
    <g id="ytick_29">
     <g id="line2d_147">
      <g>
       <use xlink:href="#mc11be3b62b" x="58.848357" y="118.214702" style="stroke: #000000; stroke-width: 1.5"/>
      </g>
     </g>
     <g id="line2d_148">
      <g>
       <use xlink:href="#m9326dcfee8" x="421.2" y="118.214702" style="stroke: #000000; stroke-width: 1.5"/>
      </g>
     </g>
    </g>
    <g id="ytick_30">
     <g id="line2d_149">
      <g>
       <use xlink:href="#mc11be3b62b" x="58.848357" y="114.804073" style="stroke: #000000; stroke-width: 1.5"/>
      </g>
     </g>
     <g id="line2d_150">
      <g>
       <use xlink:href="#m9326dcfee8" x="421.2" y="114.804073" style="stroke: #000000; stroke-width: 1.5"/>
      </g>
     </g>
    </g>
    <g id="ytick_31">
     <g id="line2d_151">
      <g>
       <use xlink:href="#mc11be3b62b" x="58.848357" y="111.920428" style="stroke: #000000; stroke-width: 1.5"/>
      </g>
     </g>
     <g id="line2d_152">
      <g>
       <use xlink:href="#m9326dcfee8" x="421.2" y="111.920428" style="stroke: #000000; stroke-width: 1.5"/>
      </g>
     </g>
    </g>
    <g id="ytick_32">
     <g id="line2d_153">
      <g>
       <use xlink:href="#mc11be3b62b" x="58.848357" y="109.4225" style="stroke: #000000; stroke-width: 1.5"/>
      </g>
     </g>
     <g id="line2d_154">
      <g>
       <use xlink:href="#m9326dcfee8" x="421.2" y="109.4225" style="stroke: #000000; stroke-width: 1.5"/>
      </g>
     </g>
    </g>
    <g id="ytick_33">
     <g id="line2d_155">
      <g>
       <use xlink:href="#mc11be3b62b" x="58.848357" y="107.219172" style="stroke: #000000; stroke-width: 1.5"/>
      </g>
     </g>
     <g id="line2d_156">
      <g>
       <use xlink:href="#m9326dcfee8" x="421.2" y="107.219172" style="stroke: #000000; stroke-width: 1.5"/>
      </g>
     </g>
    </g>
    <g id="ytick_34">
     <g id="line2d_157">
      <g>
       <use xlink:href="#mc11be3b62b" x="58.848357" y="92.281753" style="stroke: #000000; stroke-width: 1.5"/>
      </g>
     </g>
     <g id="line2d_158">
      <g>
       <use xlink:href="#m9326dcfee8" x="421.2" y="92.281753" style="stroke: #000000; stroke-width: 1.5"/>
      </g>
     </g>
    </g>
    <g id="ytick_35">
     <g id="line2d_159">
      <g>
       <use xlink:href="#mc11be3b62b" x="58.848357" y="84.696851" style="stroke: #000000; stroke-width: 1.5"/>
      </g>
     </g>
     <g id="line2d_160">
      <g>
       <use xlink:href="#m9326dcfee8" x="421.2" y="84.696851" style="stroke: #000000; stroke-width: 1.5"/>
      </g>
     </g>
    </g>
    <g id="ytick_36">
     <g id="line2d_161">
      <g>
       <use xlink:href="#mc11be3b62b" x="58.848357" y="79.315278" style="stroke: #000000; stroke-width: 1.5"/>
      </g>
     </g>
     <g id="line2d_162">
      <g>
       <use xlink:href="#m9326dcfee8" x="421.2" y="79.315278" style="stroke: #000000; stroke-width: 1.5"/>
      </g>
     </g>
    </g>
    <g id="ytick_37">
     <g id="line2d_163">
      <g>
       <use xlink:href="#mc11be3b62b" x="58.848357" y="75.141006" style="stroke: #000000; stroke-width: 1.5"/>
      </g>
     </g>
     <g id="line2d_164">
      <g>
       <use xlink:href="#m9326dcfee8" x="421.2" y="75.141006" style="stroke: #000000; stroke-width: 1.5"/>
      </g>
     </g>
    </g>
    <g id="ytick_38">
     <g id="line2d_165">
      <g>
       <use xlink:href="#mc11be3b62b" x="58.848357" y="71.730377" style="stroke: #000000; stroke-width: 1.5"/>
      </g>
     </g>
     <g id="line2d_166">
      <g>
       <use xlink:href="#m9326dcfee8" x="421.2" y="71.730377" style="stroke: #000000; stroke-width: 1.5"/>
      </g>
     </g>
    </g>
    <g id="ytick_39">
     <g id="line2d_167">
      <g>
       <use xlink:href="#mc11be3b62b" x="58.848357" y="68.846731" style="stroke: #000000; stroke-width: 1.5"/>
      </g>
     </g>
     <g id="line2d_168">
      <g>
       <use xlink:href="#m9326dcfee8" x="421.2" y="68.846731" style="stroke: #000000; stroke-width: 1.5"/>
      </g>
     </g>
    </g>
    <g id="ytick_40">
     <g id="line2d_169">
      <g>
       <use xlink:href="#mc11be3b62b" x="58.848357" y="66.348804" style="stroke: #000000; stroke-width: 1.5"/>
      </g>
     </g>
     <g id="line2d_170">
      <g>
       <use xlink:href="#m9326dcfee8" x="421.2" y="66.348804" style="stroke: #000000; stroke-width: 1.5"/>
      </g>
     </g>
    </g>
    <g id="ytick_41">
     <g id="line2d_171">
      <g>
       <use xlink:href="#mc11be3b62b" x="58.848357" y="64.145475" style="stroke: #000000; stroke-width: 1.5"/>
      </g>
     </g>
     <g id="line2d_172">
      <g>
       <use xlink:href="#m9326dcfee8" x="421.2" y="64.145475" style="stroke: #000000; stroke-width: 1.5"/>
      </g>
     </g>
    </g>
    <g id="ytick_42">
     <g id="line2d_173">
      <g>
       <use xlink:href="#mc11be3b62b" x="58.848357" y="49.208056" style="stroke: #000000; stroke-width: 1.5"/>
      </g>
     </g>
     <g id="line2d_174">
      <g>
       <use xlink:href="#m9326dcfee8" x="421.2" y="49.208056" style="stroke: #000000; stroke-width: 1.5"/>
      </g>
     </g>
    </g>
    <g id="ytick_43">
     <g id="line2d_175">
      <g>
       <use xlink:href="#mc11be3b62b" x="58.848357" y="41.623155" style="stroke: #000000; stroke-width: 1.5"/>
      </g>
     </g>
     <g id="line2d_176">
      <g>
       <use xlink:href="#m9326dcfee8" x="421.2" y="41.623155" style="stroke: #000000; stroke-width: 1.5"/>
      </g>
     </g>
    </g>
    <g id="ytick_44">
     <g id="line2d_177">
      <g>
       <use xlink:href="#mc11be3b62b" x="58.848357" y="36.241582" style="stroke: #000000; stroke-width: 1.5"/>
      </g>
     </g>
     <g id="line2d_178">
      <g>
       <use xlink:href="#m9326dcfee8" x="421.2" y="36.241582" style="stroke: #000000; stroke-width: 1.5"/>
      </g>
     </g>
    </g>
    <g id="ytick_45">
     <g id="line2d_179">
      <g>
       <use xlink:href="#mc11be3b62b" x="58.848357" y="32.067309" style="stroke: #000000; stroke-width: 1.5"/>
      </g>
     </g>
     <g id="line2d_180">
      <g>
       <use xlink:href="#m9326dcfee8" x="421.2" y="32.067309" style="stroke: #000000; stroke-width: 1.5"/>
      </g>
     </g>
    </g>
    <g id="ytick_46">
     <g id="line2d_181">
      <g>
       <use xlink:href="#mc11be3b62b" x="58.848357" y="28.65668" style="stroke: #000000; stroke-width: 1.5"/>
      </g>
     </g>
     <g id="line2d_182">
      <g>
       <use xlink:href="#m9326dcfee8" x="421.2" y="28.65668" style="stroke: #000000; stroke-width: 1.5"/>
      </g>
     </g>
    </g>
    <g id="ytick_47">
     <g id="line2d_183">
      <g>
       <use xlink:href="#mc11be3b62b" x="58.848357" y="25.773035" style="stroke: #000000; stroke-width: 1.5"/>
      </g>
     </g>
     <g id="line2d_184">
      <g>
       <use xlink:href="#m9326dcfee8" x="421.2" y="25.773035" style="stroke: #000000; stroke-width: 1.5"/>
      </g>
     </g>
    </g>
    <g id="ytick_48">
     <g id="line2d_185">
      <g>
       <use xlink:href="#mc11be3b62b" x="58.848357" y="23.275107" style="stroke: #000000; stroke-width: 1.5"/>
      </g>
     </g>
     <g id="line2d_186">
      <g>
       <use xlink:href="#m9326dcfee8" x="421.2" y="23.275107" style="stroke: #000000; stroke-width: 1.5"/>
      </g>
     </g>
    </g>
    <g id="ytick_49">
     <g id="line2d_187">
      <g>
       <use xlink:href="#mc11be3b62b" x="58.848357" y="21.071779" style="stroke: #000000; stroke-width: 1.5"/>
      </g>
     </g>
     <g id="line2d_188">
      <g>
       <use xlink:href="#m9326dcfee8" x="421.2" y="21.071779" style="stroke: #000000; stroke-width: 1.5"/>
      </g>
     </g>
    </g>
    <g id="text_20">
     <!-- $n_p$ [cm$^{-3}$] -->
     <g transform="translate(26.508357 155.262) rotate(-90) scale(0.12 -0.12)">
      <defs>
       <path id="DejaVuSans-Oblique-6e" d="M 3566 2113 
L 3156 0 
L 2578 0 
L 2988 2091 
Q 3016 2238 3031 2350 
Q 3047 2463 3047 2528 
Q 3047 2791 2881 2937 
Q 2716 3084 2419 3084 
Q 1956 3084 1622 2776 
Q 1288 2469 1184 1941 
L 800 0 
L 225 0 
L 903 3500 
L 1478 3500 
L 1363 2950 
Q 1603 3253 1940 3418 
Q 2278 3584 2650 3584 
Q 3113 3584 3367 3334 
Q 3622 3084 3622 2631 
Q 3622 2519 3608 2391 
Q 3594 2263 3566 2113 
z
" transform="scale(0.015625)"/>
       <path id="DejaVuSans-Oblique-70" d="M 3175 2156 
Q 3175 2616 2975 2859 
Q 2775 3103 2400 3103 
Q 2144 3103 1911 2972 
Q 1678 2841 1497 2591 
Q 1319 2344 1212 1994 
Q 1106 1644 1106 1300 
Q 1106 863 1306 627 
Q 1506 391 1875 391 
Q 2147 391 2380 519 
Q 2613 647 2778 891 
Q 2956 1147 3065 1494 
Q 3175 1841 3175 2156 
z
M 1394 2969 
Q 1625 3272 1939 3428 
Q 2253 3584 2638 3584 
Q 3175 3584 3472 3232 
Q 3769 2881 3769 2247 
Q 3769 1728 3584 1258 
Q 3400 788 3053 416 
Q 2822 169 2531 39 
Q 2241 -91 1919 -91 
Q 1547 -91 1294 64 
Q 1041 219 916 525 
L 556 -1331 
L -19 -1331 
L 922 3500 
L 1497 3500 
L 1394 2969 
z
" transform="scale(0.015625)"/>
       <path id="DejaVuSans-6d" d="M 3328 2828 
Q 3544 3216 3844 3400 
Q 4144 3584 4550 3584 
Q 5097 3584 5394 3201 
Q 5691 2819 5691 2113 
L 5691 0 
L 5113 0 
L 5113 2094 
Q 5113 2597 4934 2840 
Q 4756 3084 4391 3084 
Q 3944 3084 3684 2787 
Q 3425 2491 3425 1978 
L 3425 0 
L 2847 0 
L 2847 2094 
Q 2847 2600 2669 2842 
Q 2491 3084 2119 3084 
Q 1678 3084 1418 2786 
Q 1159 2488 1159 1978 
L 1159 0 
L 581 0 
L 581 3500 
L 1159 3500 
L 1159 2956 
Q 1356 3278 1631 3431 
Q 1906 3584 2284 3584 
Q 2666 3584 2933 3390 
Q 3200 3197 3328 2828 
z
" transform="scale(0.015625)"/>
       <path id="DejaVuSans-2212" d="M 678 2272 
L 4684 2272 
L 4684 1741 
L 678 1741 
L 678 2272 
z
" transform="scale(0.015625)"/>
      </defs>
      <use xlink:href="#DejaVuSans-Oblique-6e" transform="translate(0 0.765625)"/>
      <use xlink:href="#DejaVuSans-Oblique-70" transform="translate(63.378906 -15.640625) scale(0.7)"/>
      <use xlink:href="#DejaVuSans-20" transform="translate(110.546875 0.765625)"/>
      <use xlink:href="#DejaVuSans-5b" transform="translate(142.333984 0.765625)"/>
      <use xlink:href="#DejaVuSans-63" transform="translate(181.347656 0.765625)"/>
      <use xlink:href="#DejaVuSans-6d" transform="translate(236.328125 0.765625)"/>
      <use xlink:href="#DejaVuSans-2212" transform="translate(334.697266 39.046875) scale(0.7)"/>
      <use xlink:href="#DejaVuSans-33" transform="translate(393.349609 39.046875) scale(0.7)"/>
      <use xlink:href="#DejaVuSans-5d" transform="translate(440.620117 0.765625)"/>
     </g>
    </g>
   </g>
  </g>
 </g>
 <defs>
  <clipPath id="p318ae99876">
   <rect x="58.848357" y="10.8" width="362.351643" height="231.324"/>
  </clipPath>
 </defs>
</svg>
