<?xml version="1.0" encoding="utf-8" standalone="no"?>
<!DOCTYPE svg PUBLIC "-//W3C//DTD SVG 1.1//EN"
  "http://www.w3.org/Graphics/SVG/1.1/DTD/svg11.dtd">
<svg xmlns:xlink="http://www.w3.org/1999/xlink" width="432pt" height="288pt" viewBox="0 0 432 288" xmlns="http://www.w3.org/2000/svg" version="1.1">
 <metadata>
  <rdf:RDF xmlns:dc="http://purl.org/dc/elements/1.1/" xmlns:cc="http://creativecommons.org/ns#" xmlns:rdf="http://www.w3.org/1999/02/22-rdf-syntax-ns#">
   <cc:Work>
    <dc:type rdf:resource="http://purl.org/dc/dcmitype/StillImage"/>
    <dc:date>2022-11-14T15:53:19.796300</dc:date>
    <dc:format>image/svg+xml</dc:format>
    <dc:creator>
     <cc:Agent>
      <dc:title>Matplotlib v3.6.1, https://matplotlib.org/</dc:title>
     </cc:Agent>
    </dc:creator>
   </cc:Work>
  </rdf:RDF>
 </metadata>
 <defs>
  <style type="text/css">*{stroke-linejoin: round; stroke-linecap: butt}</style>
 </defs>
 <g id="figure_1">
  <g id="patch_1">
   <path d="M 0 288 
L 432 288 
L 432 0 
L 0 0 
z
" style="fill: #ffffff"/>
  </g>
  <g id="axes_1">
   <g id="patch_2">
    <path d="M 58.848357 242.124 
L 421.2 242.124 
L 421.2 10.8 
L 58.848357 10.8 
z
" style="fill: #ffffff"/>
   </g>
   <g id="patch_3">
    <path d="M 58.848357 242.124 
L 58.848357 10.8 
" style="fill: none; stroke: #000000; stroke-width: 1.5; stroke-linejoin: miter; stroke-linecap: square"/>
   </g>
   <g id="patch_4">
    <path d="M 421.2 242.124 
L 421.2 10.8 
" style="fill: none; stroke: #000000; stroke-width: 1.5; stroke-linejoin: miter; stroke-linecap: square"/>
   </g>
   <g id="patch_5">
    <path d="M 58.848357 242.124 
L 421.2 242.124 
" style="fill: none; stroke: #000000; stroke-width: 1.5; stroke-linejoin: miter; stroke-linecap: square"/>
   </g>
   <g id="patch_6">
    <path d="M 58.848357 10.8 
L 421.2 10.8 
" style="fill: none; stroke: #000000; stroke-width: 1.5; stroke-linejoin: miter; stroke-linecap: square"/>
   </g>
   <g id="PolyCollection_1">
    <path d="M 200.577038 99.912206 
L 200.577038 115.16819 
L 201.088813 115.318486 
L 201.973772 121.15902 
L 202.828537 110.839065 
L 203.687548 109.732918 
L 204.516805 106.468201 
L 205.393094 107.288425 
L 206.245256 106.339894 
L 207.097111 107.945692 
L 207.948879 110.600635 
L 208.800646 111.799282 
L 209.65217 111.89334 
L 210.503657 111.715085 
L 211.355285 113.781989 
L 212.206633 114.294274 
L 213.05799 112.308172 
L 213.909415 115.346699 
L 214.760803 116.296211 
L 215.612189 118.020193 
L 216.46348 117.358343 
L 217.314834 114.055185 
L 218.166166 115.094622 
L 219.017332 114.742096 
L 219.868583 115.357829 
L 220.720075 117.635664 
L 221.571327 117.452172 
L 222.422243 119.60089 
L 223.273655 119.826562 
L 224.124974 122.809317 
L 224.976247 122.696671 
L 225.827639 124.141144 
L 226.679103 129.916774 
L 227.530365 129.544093 
L 228.381462 133.419606 
L 229.233254 137.745004 
L 230.083812 154.461677 
L 230.935059 151.378723 
L 231.786115 141.979924 
L 232.637485 140.350585 
L 233.48883 145.170675 
L 234.340124 142.694247 
L 235.191358 144.648861 
L 236.042543 133.095282 
L 236.893709 128.734993 
L 237.871752 123.362016 
L 238.567083 128.965197 
L 239.435091 129.959843 
L 240.291988 137.181279 
L 241.145015 146.158584 
L 241.997132 151.472419 
L 242.849256 142.708762 
L 243.701294 141.782511 
L 244.552831 138.400473 
L 245.404254 139.23148 
L 246.255671 134.088951 
L 247.106973 133.887246 
L 247.958606 127.221292 
L 248.809966 125.959584 
L 249.661207 125.75109 
L 250.512692 123.320741 
L 251.364108 124.160684 
L 252.215515 124.654635 
L 253.06665 124.790363 
L 253.918036 125.484183 
L 254.769304 126.007636 
L 255.620429 126.684728 
L 256.471477 127.51053 
L 257.322732 121.451693 
L 258.174365 125.754235 
L 259.025512 122.512697 
L 259.876439 125.385362 
L 260.728018 124.385976 
L 261.579311 123.255008 
L 262.430332 125.302461 
L 263.280666 126.825938 
L 264.135353 128.437878 
L 264.982751 129.976236 
L 265.8347 128.559187 
L 266.682823 128.436414 
L 267.536294 126.269159 
L 268.38972 125.388339 
L 269.237673 125.619083 
L 270.091728 123.110756 
L 270.943119 123.185802 
L 271.796563 123.662318 
L 272.645514 132.74646 
L 273.496803 128.69201 
L 274.346081 124.395041 
L 275.199238 124.287399 
L 276.050316 126.103496 
L 276.901541 126.325436 
L 277.753215 129.412686 
L 278.603996 130.560673 
L 279.455328 134.09081 
L 280.312677 132.674554 
L 281.217125 148.676066 
L 282.011497 161.500729 
L 282.860001 155.834908 
L 283.711653 155.829096 
L 284.580472 151.582287 
L 285.391707 150.756316 
L 286.262994 157.00046 
L 287.114661 155.932826 
L 287.974044 153.08677 
L 288.832859 153.208591 
L 289.664878 156.993935 
L 290.513013 154.561462 
L 291.438348 143.023158 
L 292.223289 161.26674 
L 293.064893 159.386662 
L 293.967637 162.565875 
L 294.78756 164.200424 
L 295.660721 161.674942 
L 296.480422 165.433481 
L 297.303254 163.69041 
L 298.108319 156.811438 
L 299.037131 167.108933 
L 299.925903 158.389843 
L 300.772605 156.823142 
L 301.614963 165.552982 
L 302.408409 165.551248 
L 303.244352 162.042819 
L 304.143954 164.340841 
L 304.993395 173.497122 
L 305.839488 171.750086 
L 306.685267 172.475036 
L 307.596417 208.279658 
L 308.382822 183.447784 
L 309.267858 164.270447 
L 310.101858 157.620699 
L 310.938175 160.830603 
L 311.813869 165.898549 
L 312.663885 164.416552 
L 313.47973 162.968233 
L 314.350322 159.574215 
L 315.190916 34630.979349 
L 316.052739 231.609273 
L 316.903598 167.109962 
L 317.758461 160.37251 
L 318.623335 160.162014 
L 319.452258 167.280994 
L 320.29831 173.654061 
L 321.166694 34630.979349 
L 322.007808 34630.979349 
L 322.86821 34630.979349 
L 323.712298 34630.979349 
L 324.566496 34630.979349 
L 325.389527 34630.979349 
L 326.217241 34630.979349 
L 327.190548 172.009631 
L 327.976479 34630.979349 
L 328.808385 34630.979349 
L 329.676079 34630.979349 
L 330.56073 34630.979349 
L 331.367063 182.248966 
L 332.224558 34630.979349 
L 333.085065 208.408897 
L 333.924179 174.443796 
L 334.765603 179.928787 
L 335.644563 164.815982 
L 336.481621 161.934071 
L 337.334038 161.398288 
L 338.184196 160.578511 
L 339.03831 156.786463 
L 339.910497 162.619285 
L 340.749583 158.752995 
L 341.591279 187.984153 
L 342.442298 34630.979349 
L 343.315447 34630.979349 
L 344.142866 171.594587 
L 344.988621 164.712971 
L 345.834147 161.955824 
L 346.698462 167.211091 
L 347.546612 165.849059 
L 348.418394 177.19103 
L 349.263881 179.07722 
L 350.117892 192.201111 
L 350.939354 182.595005 
L 351.801466 177.49782 
L 352.653469 183.087845 
L 353.507753 171.331865 
L 354.364809 178.449397 
L 355.215774 163.075417 
L 356.0593 161.410839 
L 356.92742 155.445756 
L 357.799922 164.569959 
L 358.620327 181.289706 
L 359.467729 165.064036 
L 360.323699 175.575115 
L 361.126503 176.914576 
L 362.046027 177.28772 
L 362.860391 187.620511 
L 363.713059 179.39462 
L 364.570146 177.452435 
L 365.442173 163.875575 
L 366.278862 154.760474 
L 367.101141 152.674759 
L 367.975418 145.396934 
L 368.834004 152.577822 
L 369.657418 155.272083 
L 370.537799 156.367056 
L 371.375734 158.1179 
L 372.241069 156.090371 
L 373.111044 152.796638 
L 373.933551 153.873116 
L 374.810655 165.128561 
L 375.622897 157.976986 
L 376.503566 173.676071 
L 377.363865 174.255967 
L 378.176983 156.578197 
L 379.016718 159.083915 
L 379.905062 161.940004 
L 380.704093 157.942064 
L 381.623479 151.243878 
L 382.452403 150.201678 
L 383.367679 151.282742 
L 384.160806 150.614298 
L 385.006205 150.967503 
L 385.853804 152.457738 
L 386.705057 152.05613 
L 387.569976 156.188856 
L 388.424621 158.546504 
L 389.273865 157.367216 
L 390.104483 159.209722 
L 390.945859 155.927906 
L 391.830557 160.220374 
L 392.670772 165.923367 
L 393.520209 173.034255 
L 394.377193 172.000442 
L 395.217571 171.318417 
L 396.060855 168.019182 
L 396.934121 174.034079 
L 397.759867 170.44521 
L 398.632525 158.760442 
L 399.481887 160.297679 
L 400.324033 174.726539 
L 401.186656 168.40666 
L 402.028823 170.084147 
L 402.867872 169.804432 
L 403.739822 156.494092 
L 404.596047 169.860153 
L 404.596047 133.308086 
L 404.596047 133.308086 
L 403.739822 140.014671 
L 402.867872 133.211202 
L 402.028823 132.345053 
L 401.186656 133.970693 
L 400.324033 134.093571 
L 399.481887 139.934555 
L 398.632525 140.313529 
L 397.759867 135.443962 
L 396.934121 135.541818 
L 396.060855 137.688188 
L 395.217571 133.575837 
L 394.377193 131.955122 
L 393.520209 132.85738 
L 392.670772 133.712914 
L 391.830557 131.733776 
L 390.945859 131.882794 
L 390.104483 131.928372 
L 389.273865 132.795999 
L 388.424621 130.429946 
L 387.569976 130.346901 
L 386.705057 130.644788 
L 385.853804 129.499183 
L 385.006205 130.166182 
L 384.160806 130.647975 
L 383.367679 131.027801 
L 382.452403 134.135351 
L 381.623479 135.270343 
L 380.704093 129.265341 
L 379.905062 129.471564 
L 379.016718 124.960212 
L 378.176983 129.795488 
L 377.363865 127.729526 
L 376.503566 135.27826 
L 375.622897 135.990314 
L 374.810655 133.992939 
L 373.933551 133.233604 
L 373.111044 133.7049 
L 372.241069 135.823 
L 371.375734 135.126476 
L 370.537799 135.366133 
L 369.657418 134.050192 
L 368.834004 134.355725 
L 367.975418 132.727515 
L 367.101141 133.336022 
L 366.278862 133.004744 
L 365.442173 134.831434 
L 364.570146 135.353032 
L 363.713059 134.994605 
L 362.860391 134.566761 
L 362.046027 135.71827 
L 361.126503 134.739779 
L 360.323699 133.903986 
L 359.467729 134.742382 
L 358.620327 133.410682 
L 357.799922 132.599341 
L 356.92742 129.570584 
L 356.0593 128.838667 
L 355.215774 129.614051 
L 354.364809 130.82926 
L 353.507753 130.732488 
L 352.653469 129.387876 
L 351.801466 128.417328 
L 350.939354 128.518565 
L 350.117892 128.209919 
L 349.263881 128.01913 
L 348.418394 127.719287 
L 347.546612 130.955511 
L 346.698462 130.874576 
L 345.834147 128.984809 
L 344.988621 129.070857 
L 344.142866 129.176824 
L 343.315447 126.792124 
L 342.442298 130.152722 
L 341.591279 130.663065 
L 340.749583 129.90393 
L 339.910497 129.227229 
L 339.03831 127.759072 
L 338.184196 128.123144 
L 337.334038 129.429842 
L 336.481621 130.141853 
L 335.644563 129.179034 
L 334.765603 129.21562 
L 333.924179 129.601161 
L 333.085065 129.495046 
L 332.224558 128.828015 
L 331.367063 129.247079 
L 330.56073 127.980613 
L 329.676079 123.328234 
L 328.808385 128.550482 
L 327.976479 128.084855 
L 327.190548 128.244503 
L 326.217241 123.182344 
L 325.389527 124.818348 
L 324.566496 126.579001 
L 323.712298 126.37301 
L 322.86821 127.109134 
L 322.007808 127.027585 
L 321.166694 126.585302 
L 320.29831 127.234346 
L 319.452258 127.626069 
L 318.623335 127.810271 
L 317.758461 127.039326 
L 316.903598 127.10205 
L 316.052739 126.312508 
L 315.190916 126.801082 
L 314.350322 128.877209 
L 313.47973 128.855263 
L 312.663885 128.960611 
L 311.813869 127.708028 
L 310.938175 129.195102 
L 310.101858 129.302625 
L 309.267858 127.877728 
L 308.382822 127.104172 
L 307.596417 126.576724 
L 306.685267 127.361669 
L 305.839488 125.679697 
L 304.993395 125.332679 
L 304.143954 124.563072 
L 303.244352 126.381544 
L 302.408409 126.499413 
L 301.614963 126.584075 
L 300.772605 126.689046 
L 299.925903 126.208625 
L 299.037131 125.750739 
L 298.108319 126.406206 
L 297.303254 127.485524 
L 296.480422 128.151936 
L 295.660721 125.239289 
L 294.78756 124.637754 
L 293.967637 124.500801 
L 293.064893 122.963931 
L 292.223289 123.885259 
L 291.438348 120.422564 
L 290.513013 122.073251 
L 289.664878 122.36611 
L 288.832859 122.58661 
L 287.974044 122.223001 
L 287.114661 122.820306 
L 286.262994 122.680293 
L 285.391707 119.530407 
L 284.580472 121.068865 
L 283.711653 121.61741 
L 282.860001 121.174142 
L 282.011497 120.865712 
L 281.217125 118.579206 
L 280.312677 115.378891 
L 279.455328 115.596044 
L 278.603996 116.3194 
L 277.753215 116.135773 
L 276.901541 114.979961 
L 276.050316 115.623451 
L 275.199238 115.57089 
L 274.346081 115.889339 
L 273.496803 115.645083 
L 272.645514 117.954661 
L 271.796563 114.518836 
L 270.943119 115.145179 
L 270.091728 114.619321 
L 269.237673 114.311568 
L 268.38972 116.162324 
L 267.536294 114.50904 
L 266.682823 113.778715 
L 265.8347 115.660775 
L 264.982751 115.002633 
L 264.135353 114.611235 
L 263.280666 114.479768 
L 262.430332 114.148714 
L 261.579311 112.345818 
L 260.728018 111.547134 
L 259.876439 110.869457 
L 259.025512 110.532198 
L 258.174365 110.715422 
L 257.322732 110.924364 
L 256.471477 111.731052 
L 255.620429 110.814616 
L 254.769304 112.1437 
L 253.918036 112.156083 
L 253.06665 112.040026 
L 252.215515 112.262737 
L 251.364108 112.209969 
L 250.512692 112.112553 
L 249.661207 113.532529 
L 248.809966 113.385438 
L 247.958606 113.537989 
L 247.106973 114.068185 
L 246.255671 113.584368 
L 245.404254 113.85187 
L 244.552831 113.429198 
L 243.701294 111.484795 
L 242.849256 110.703685 
L 241.997132 110.649597 
L 241.145015 111.440337 
L 240.291988 112.800121 
L 239.435091 113.163809 
L 238.567083 108.09494 
L 237.871752 109.171918 
L 236.893709 105.344394 
L 236.042543 103.846684 
L 235.191358 103.195722 
L 234.340124 102.389105 
L 233.48883 100.583954 
L 232.637485 101.124599 
L 231.786115 103.066877 
L 230.935059 102.897881 
L 230.083812 103.71343 
L 229.233254 107.702249 
L 228.381462 104.796174 
L 227.530365 102.560334 
L 226.679103 103.293511 
L 225.827639 102.37901 
L 224.976247 100.49469 
L 224.124974 99.939651 
L 223.273655 100.255261 
L 222.422243 103.99469 
L 221.571327 104.084031 
L 220.720075 104.710034 
L 219.868583 104.865901 
L 219.017332 104.982995 
L 218.166166 105.301357 
L 217.314834 103.31516 
L 216.46348 102.751538 
L 215.612189 106.32876 
L 214.760803 106.4233 
L 213.909415 107.337237 
L 213.05799 107.15818 
L 212.206633 106.665198 
L 211.355285 105.602993 
L 210.503657 106.415203 
L 209.65217 104.07058 
L 208.800646 102.990511 
L 207.948879 101.906774 
L 207.097111 100.913162 
L 206.245256 100.529675 
L 205.393094 98.818359 
L 204.516805 97.032261 
L 203.687548 98.694328 
L 202.828537 96.348911 
L 201.973772 100.32999 
L 201.088813 101.83192 
L 200.577038 99.912206 
z
" clip-path="url(#p93c2a45741)" style="fill: #add8e6; stroke: #add8e6"/>
   </g>
   <g id="line2d_1">
    <path d="M 200.577038 105.672241 
L 201.088813 107.10259 
L 201.973772 107.375698 
L 202.828537 101.90228 
L 203.687548 103.216626 
L 204.516805 101.017429 
L 205.393094 102.461085 
L 206.245256 103.154131 
L 207.097111 104.019451 
L 207.948879 105.630118 
L 208.800646 106.75495 
L 209.65217 107.475756 
L 210.503657 108.831382 
L 211.355285 109.139708 
L 212.206633 109.998026 
L 213.05799 109.512386 
L 213.909415 110.811598 
L 214.760803 110.558727 
L 215.612189 111.059 
L 216.46348 108.336887 
L 217.314834 107.740285 
L 218.166166 109.409611 
L 219.017332 109.079564 
L 219.868583 109.20928 
L 220.720075 109.816692 
L 221.571327 109.320437 
L 222.422243 109.846676 
L 223.273655 107.042398 
L 224.976247 107.803439 
L 226.679103 111.325763 
L 227.530365 110.643994 
L 228.381462 113.100624 
L 229.233254 116.1815 
L 230.083812 113.578094 
L 230.935059 112.683402 
L 231.786115 112.357729 
L 232.637485 110.436793 
L 233.48883 110.203483 
L 234.340124 111.771773 
L 235.191358 112.648305 
L 236.042543 112.229924 
L 236.893709 112.865495 
L 237.871752 114.642191 
L 238.567083 115.148834 
L 239.435091 119.316493 
L 240.291988 120.48783 
L 241.145015 120.401366 
L 241.997132 120.064418 
L 242.849256 119.401689 
L 243.701294 119.993929 
L 244.552831 121.211866 
L 245.404254 121.698423 
L 246.255671 120.565023 
L 247.106973 120.907633 
L 247.958606 118.865156 
L 248.809966 118.387092 
L 249.661207 118.426184 
L 250.512692 116.689467 
L 251.364108 117.021086 
L 252.215515 117.209262 
L 253.06665 117.094533 
L 253.918036 117.38086 
L 254.769304 117.522273 
L 255.620429 116.734848 
L 256.471477 117.627947 
L 257.322732 115.279463 
L 258.174365 116.417635 
L 259.025512 115.352544 
L 259.876439 116.429902 
L 261.579311 116.826161 
L 262.430332 118.708141 
L 264.982751 120.687364 
L 265.8347 120.759364 
L 266.682823 119.37796 
L 267.536294 119.2608 
L 268.38972 120.074278 
L 269.237673 118.920273 
L 270.091728 118.269778 
L 270.943119 118.631035 
L 271.796563 118.401822 
L 272.645514 123.590356 
L 273.496803 120.787576 
L 274.346081 119.544954 
L 275.199238 119.30235 
L 276.050316 119.962892 
L 276.901541 119.600779 
L 277.753215 121.345652 
L 279.455328 122.14782 
L 280.312677 121.652573 
L 281.217125 127.064836 
L 282.011497 130.268988 
L 282.860001 130.130035 
L 283.711653 130.532554 
L 284.580472 129.602931 
L 285.391707 128.144596 
L 286.262994 131.605383 
L 287.114661 131.6309 
L 287.974044 130.796889 
L 288.832859 131.133104 
L 289.664878 131.319052 
L 290.513013 130.821296 
L 291.438348 127.804077 
L 292.223289 133.06546 
L 293.064893 132.069331 
L 293.967637 133.731692 
L 294.78756 133.972447 
L 295.660721 134.345726 
L 296.480422 137.324545 
L 297.303254 136.573302 
L 298.108319 134.927807 
L 299.037131 135.197729 
L 299.925903 134.925041 
L 300.772605 135.179054 
L 301.614963 135.878768 
L 302.408409 135.799782 
L 303.244352 135.424307 
L 304.143954 133.911894 
L 304.993395 135.106206 
L 305.839488 135.367393 
L 306.685267 137.006138 
L 307.596417 136.870748 
L 308.382822 137.120863 
L 309.267858 136.980713 
L 310.101858 137.567532 
L 310.938175 137.853837 
L 311.813869 136.947989 
L 312.663885 137.985976 
L 315.190916 137.376045 
L 316.052739 136.656453 
L 316.903598 136.465779 
L 317.758461 135.871471 
L 318.623335 136.544328 
L 319.452258 136.966845 
L 320.29831 136.937173 
L 321.166694 137.071388 
L 322.007808 137.612639 
L 322.86821 137.971699 
L 323.712298 137.384368 
L 324.566496 137.378398 
L 325.389527 135.914883 
L 326.217241 133.726903 
L 327.190548 137.823417 
L 327.976479 139.588463 
L 328.808385 139.68386 
L 329.676079 135.492647 
L 330.56073 138.669093 
L 331.367063 139.179694 
L 333.085065 139.77619 
L 333.924179 139.232914 
L 334.765603 139.079146 
L 335.644563 138.219748 
L 336.481621 138.817346 
L 337.334038 138.123992 
L 338.184196 136.867834 
L 339.03831 136.114762 
L 339.910497 138.065075 
L 340.749583 138.237149 
L 341.591279 140.701074 
L 342.442298 140.727869 
L 343.315447 137.51194 
L 344.142866 138.684369 
L 344.988621 138.112006 
L 345.834147 137.781431 
L 346.698462 139.973029 
L 347.546612 139.932092 
L 348.418394 137.540824 
L 350.939354 138.480239 
L 351.801466 138.224918 
L 352.653469 139.339599 
L 353.507753 140.133559 
L 354.364809 140.581575 
L 355.215774 138.458583 
L 356.0593 137.595262 
L 356.92742 137.492712 
L 357.799922 141.29372 
L 358.620327 143.173179 
L 360.323699 143.369283 
L 362.046027 145.177659 
L 362.860391 144.500826 
L 363.713059 144.60509 
L 364.570146 144.842806 
L 365.442173 143.189223 
L 366.278862 140.230133 
L 367.101141 140.073432 
L 367.975418 137.757803 
L 368.834004 140.845765 
L 369.657418 141.173171 
L 370.537799 142.445852 
L 372.241069 142.755374 
L 373.111044 140.388827 
L 373.933551 140.24145 
L 374.810655 142.597162 
L 375.622897 143.259096 
L 376.503566 144.533057 
L 377.363865 137.436909 
L 378.176983 137.850608 
L 379.016718 133.867242 
L 379.905062 138.21759 
L 380.704093 137.57662 
L 381.623479 141.217076 
L 382.452403 140.105746 
L 383.367679 137.957628 
L 384.160806 137.518191 
L 385.853804 136.944698 
L 386.705057 137.80445 
L 388.424621 138.66837 
L 389.273865 140.514636 
L 390.945859 139.515008 
L 391.830557 140.020593 
L 392.670772 142.432367 
L 393.520209 142.231918 
L 394.377193 141.321255 
L 395.217571 142.783082 
L 396.060855 146.201189 
L 396.934121 144.803311 
L 397.759867 144.430016 
L 398.632525 146.854533 
L 399.481887 146.886492 
L 400.324033 143.496721 
L 401.186656 142.906327 
L 402.028823 141.552039 
L 402.867872 142.330228 
L 403.739822 146.089082 
L 404.596047 142.423835 
L 404.596047 142.423835 
" clip-path="url(#p93c2a45741)" style="fill: none; stroke: #1f77b4; stroke-width: 1.5; stroke-linecap: square"/>
   </g>
   <g id="line2d_2">
    <path d="M 75.318887 21.314727 
L 76.000771 24.892848 
L 76.682655 26.681908 
L 77.363806 27.920488 
L 79.409581 31.188963 
L 81.113986 34.457438 
L 84.521572 41.441654 
L 87.246418 46.464784 
L 89.63234 50.35255 
L 92.357186 54.309125 
L 95.764772 58.60975 
L 97.808101 60.949291 
L 103.940533 67.004571 
L 112.45644 73.782357 
L 117.225837 77.016427 
L 125.401597 81.867532 
L 136.983721 87.613168 
L 140.73023 89.230203 
L 142.093265 89.815088 
L 152.6525 93.978093 
L 154.697052 94.700599 
L 157.081751 95.560724 
L 160.146743 96.592874 
L 161.849925 97.177759 
L 182.969619 103.473874 
L 184.672801 103.921139 
L 187.402541 104.643644 
L 189.445869 105.159719 
L 191.831791 105.77901 
L 194.548072 106.432705 
L 196.5914 106.94878 
L 200.347698 107.808905 
L 201.705839 108.152955 
L 206.820277 109.28832 
L 208.178418 109.597965 
L 217.379513 111.55905 
L 229.982077 114.070615 
L 237.470202 115.48122 
L 238.840578 115.722055 
L 241.899452 116.272535 
L 243.600187 116.547775 
L 248.029437 117.33909 
L 249.730172 117.614331 
L 253.143876 118.199216 
L 254.84461 118.474456 
L 257.91572 118.990531 
L 259.959049 119.300176 
L 262.002377 119.644226 
L 264.388299 119.988276 
L 266.431628 120.332326 
L 268.805314 120.676376 
L 271.191237 121.054831 
L 273.919753 121.433286 
L 276.305675 121.811741 
L 279.36455 122.224601 
L 281.420114 122.534246 
L 284.136394 122.912701 
L 285.837129 123.153536 
L 288.908239 123.566396 
L 290.951567 123.876041 
L 294.69563 124.357711 
L 296.396364 124.598546 
L 300.152662 125.080216 
L 301.853397 125.321051 
L 306.282647 125.871531 
L 307.983382 126.112366 
L 313.09782 126.731656 
L 314.45596 126.903681 
L 319.570399 127.522971 
L 320.928539 127.694996 
L 327.058524 128.417501 
L 328.416665 128.589526 
L 336.259619 129.484057 
L 337.61776 129.656082 
L 350.220324 131.032282 
L 351.590699 131.204307 
L 387.012468 134.782427 
L 404.386877 136.433867 
L 404.386877 136.433867 
" clip-path="url(#p93c2a45741)" style="fill: none; stroke: #000000; stroke-width: 2.5; stroke-linecap: square"/>
   </g>
   <g id="line2d_3">
    <path d="M 75.318887 22.002827 
L 76.341652 32.152303 
L 77.363806 39.962239 
L 78.046546 44.056434 
L 79.068211 48.941945 
L 80.432469 54.240315 
L 82.13565 59.676306 
L 83.840055 64.148956 
L 86.224754 69.206491 
L 87.927935 72.302942 
L 89.972487 75.605822 
L 92.017039 78.564652 
L 95.423402 82.865278 
L 97.467954 85.204818 
L 102.918868 90.571998 
L 106.325231 93.530828 
L 110.071741 96.420849 
L 116.54432 100.859094 
L 124.379933 105.469364 
L 134.258875 110.354875 
L 137.323868 111.69667 
L 138.686902 112.281555 
L 149.246138 116.44456 
L 151.290689 117.167065 
L 153.675388 118.027191 
L 156.740381 119.059341 
L 158.443562 119.644226 
L 165.256288 121.811741 
L 166.619322 122.259006 
L 175.475376 124.839381 
L 177.178558 125.286646 
L 180.926291 126.318796 
L 182.969619 126.834871 
L 185.354318 127.454161 
L 187.732899 128.039046 
L 189.788463 128.555121 
L 192.504744 129.208817 
L 194.205478 129.621677 
L 198.30437 130.550612 
L 199.66251 130.860257 
L 201.020651 131.169902 
L 208.178418 132.718127 
L 209.536558 133.027772 
L 228.269107 136.709107 
L 229.639483 136.949942 
L 234.741686 137.878877 
L 236.454655 138.154117 
L 239.51353 138.704597 
L 241.214265 138.979837 
L 244.970563 139.633532 
L 247.013891 139.943177 
L 250.41536 140.528062 
L 252.458688 140.837708 
L 255.187204 141.284973 
L 257.230532 141.594618 
L 259.616455 141.973073 
L 262.002377 142.317123 
L 263.703111 142.592363 
L 266.089034 142.936413 
L 268.132362 143.246058 
L 270.518284 143.590108 
L 272.219019 143.830943 
L 274.262347 144.140588 
L 276.990863 144.519043 
L 278.691597 144.759878 
L 280.392332 145.000713 
L 283.463442 145.413573 
L 285.164176 145.654408 
L 288.565645 146.101673 
L 290.266379 146.342508 
L 294.022677 146.824178 
L 295.723412 147.065013 
L 300.152662 147.615493 
L 301.853397 147.856328 
L 307.298194 148.510023 
L 309.011163 148.750858 
L 315.483742 149.507768 
L 316.841883 149.679793 
L 323.99965 150.505513 
L 325.35779 150.677538 
L 335.231837 151.778498 
L 336.602213 151.950523 
L 382.925812 156.664009 
L 396.886516 157.971399 
L 398.256892 158.074614 
L 404.729471 158.659499 
L 404.729471 158.659499 
" clip-path="url(#p93c2a45741)" style="fill: none; stroke-dasharray: 9.25,4; stroke-dashoffset: 0; stroke: #8b0000; stroke-width: 2.5"/>
   </g>
   <g id="legend_1">
    <g id="line2d_4">
     <path d="M 333.95625 23.898438 
L 343.95625 23.898438 
L 353.95625 23.898438 
" style="fill: none; stroke: #1f77b4; stroke-width: 1.5; stroke-linecap: square"/>
    </g>
    <g id="text_1">
     <!-- PSP -->
     <g transform="translate(361.95625 27.398438) scale(0.1 -0.1)">
      <defs>
       <path id="DejaVuSans-50" d="M 1259 4147 
L 1259 2394 
L 2053 2394 
Q 2494 2394 2734 2622 
Q 2975 2850 2975 3272 
Q 2975 3691 2734 3919 
Q 2494 4147 2053 4147 
L 1259 4147 
z
M 628 4666 
L 2053 4666 
Q 2838 4666 3239 4311 
Q 3641 3956 3641 3272 
Q 3641 2581 3239 2228 
Q 2838 1875 2053 1875 
L 1259 1875 
L 1259 0 
L 628 0 
L 628 4666 
z
" transform="scale(0.015625)"/>
       <path id="DejaVuSans-53" d="M 3425 4513 
L 3425 3897 
Q 3066 4069 2747 4153 
Q 2428 4238 2131 4238 
Q 1616 4238 1336 4038 
Q 1056 3838 1056 3469 
Q 1056 3159 1242 3001 
Q 1428 2844 1947 2747 
L 2328 2669 
Q 3034 2534 3370 2195 
Q 3706 1856 3706 1288 
Q 3706 609 3251 259 
Q 2797 -91 1919 -91 
Q 1588 -91 1214 -16 
Q 841 59 441 206 
L 441 856 
Q 825 641 1194 531 
Q 1563 422 1919 422 
Q 2459 422 2753 634 
Q 3047 847 3047 1241 
Q 3047 1584 2836 1778 
Q 2625 1972 2144 2069 
L 1759 2144 
Q 1053 2284 737 2584 
Q 422 2884 422 3419 
Q 422 4038 858 4394 
Q 1294 4750 2059 4750 
Q 2388 4750 2728 4690 
Q 3069 4631 3425 4513 
z
" transform="scale(0.015625)"/>
      </defs>
      <use xlink:href="#DejaVuSans-50"/>
      <use xlink:href="#DejaVuSans-53" x="60.302734"/>
      <use xlink:href="#DejaVuSans-50" x="123.779297"/>
     </g>
    </g>
    <g id="line2d_5">
     <path d="M 333.95625 38.576562 
L 343.95625 38.576562 
L 353.95625 38.576562 
" style="fill: none; stroke: #000000; stroke-width: 2.5; stroke-linecap: square"/>
    </g>
    <g id="text_2">
     <!-- Slow wind -->
     <g transform="translate(361.95625 42.076562) scale(0.1 -0.1)">
      <defs>
       <path id="DejaVuSans-6c" d="M 603 4863 
L 1178 4863 
L 1178 0 
L 603 0 
L 603 4863 
z
" transform="scale(0.015625)"/>
       <path id="DejaVuSans-6f" d="M 1959 3097 
Q 1497 3097 1228 2736 
Q 959 2375 959 1747 
Q 959 1119 1226 758 
Q 1494 397 1959 397 
Q 2419 397 2687 759 
Q 2956 1122 2956 1747 
Q 2956 2369 2687 2733 
Q 2419 3097 1959 3097 
z
M 1959 3584 
Q 2709 3584 3137 3096 
Q 3566 2609 3566 1747 
Q 3566 888 3137 398 
Q 2709 -91 1959 -91 
Q 1206 -91 779 398 
Q 353 888 353 1747 
Q 353 2609 779 3096 
Q 1206 3584 1959 3584 
z
" transform="scale(0.015625)"/>
       <path id="DejaVuSans-77" d="M 269 3500 
L 844 3500 
L 1563 769 
L 2278 3500 
L 2956 3500 
L 3675 769 
L 4391 3500 
L 4966 3500 
L 4050 0 
L 3372 0 
L 2619 2869 
L 1863 0 
L 1184 0 
L 269 3500 
z
" transform="scale(0.015625)"/>
       <path id="DejaVuSans-20" transform="scale(0.015625)"/>
       <path id="DejaVuSans-69" d="M 603 3500 
L 1178 3500 
L 1178 0 
L 603 0 
L 603 3500 
z
M 603 4863 
L 1178 4863 
L 1178 4134 
L 603 4134 
L 603 4863 
z
" transform="scale(0.015625)"/>
       <path id="DejaVuSans-6e" d="M 3513 2113 
L 3513 0 
L 2938 0 
L 2938 2094 
Q 2938 2591 2744 2837 
Q 2550 3084 2163 3084 
Q 1697 3084 1428 2787 
Q 1159 2491 1159 1978 
L 1159 0 
L 581 0 
L 581 3500 
L 1159 3500 
L 1159 2956 
Q 1366 3272 1645 3428 
Q 1925 3584 2291 3584 
Q 2894 3584 3203 3211 
Q 3513 2838 3513 2113 
z
" transform="scale(0.015625)"/>
       <path id="DejaVuSans-64" d="M 2906 2969 
L 2906 4863 
L 3481 4863 
L 3481 0 
L 2906 0 
L 2906 525 
Q 2725 213 2448 61 
Q 2172 -91 1784 -91 
Q 1150 -91 751 415 
Q 353 922 353 1747 
Q 353 2572 751 3078 
Q 1150 3584 1784 3584 
Q 2172 3584 2448 3432 
Q 2725 3281 2906 2969 
z
M 947 1747 
Q 947 1113 1208 752 
Q 1469 391 1925 391 
Q 2381 391 2643 752 
Q 2906 1113 2906 1747 
Q 2906 2381 2643 2742 
Q 2381 3103 1925 3103 
Q 1469 3103 1208 2742 
Q 947 2381 947 1747 
z
" transform="scale(0.015625)"/>
      </defs>
      <use xlink:href="#DejaVuSans-53"/>
      <use xlink:href="#DejaVuSans-6c" x="63.476562"/>
      <use xlink:href="#DejaVuSans-6f" x="91.259766"/>
      <use xlink:href="#DejaVuSans-77" x="152.441406"/>
      <use xlink:href="#DejaVuSans-20" x="234.228516"/>
      <use xlink:href="#DejaVuSans-77" x="266.015625"/>
      <use xlink:href="#DejaVuSans-69" x="347.802734"/>
      <use xlink:href="#DejaVuSans-6e" x="375.585938"/>
      <use xlink:href="#DejaVuSans-64" x="438.964844"/>
     </g>
    </g>
    <g id="line2d_6">
     <path d="M 333.95625 53.254687 
L 343.95625 53.254687 
L 353.95625 53.254687 
" style="fill: none; stroke-dasharray: 9.25,4; stroke-dashoffset: 0; stroke: #8b0000; stroke-width: 2.5"/>
    </g>
    <g id="text_3">
     <!-- Fast wind -->
     <g transform="translate(361.95625 56.754687) scale(0.1 -0.1)">
      <defs>
       <path id="DejaVuSans-46" d="M 628 4666 
L 3309 4666 
L 3309 4134 
L 1259 4134 
L 1259 2759 
L 3109 2759 
L 3109 2228 
L 1259 2228 
L 1259 0 
L 628 0 
L 628 4666 
z
" transform="scale(0.015625)"/>
       <path id="DejaVuSans-61" d="M 2194 1759 
Q 1497 1759 1228 1600 
Q 959 1441 959 1056 
Q 959 750 1161 570 
Q 1363 391 1709 391 
Q 2188 391 2477 730 
Q 2766 1069 2766 1631 
L 2766 1759 
L 2194 1759 
z
M 3341 1997 
L 3341 0 
L 2766 0 
L 2766 531 
Q 2569 213 2275 61 
Q 1981 -91 1556 -91 
Q 1019 -91 701 211 
Q 384 513 384 1019 
Q 384 1609 779 1909 
Q 1175 2209 1959 2209 
L 2766 2209 
L 2766 2266 
Q 2766 2663 2505 2880 
Q 2244 3097 1772 3097 
Q 1472 3097 1187 3025 
Q 903 2953 641 2809 
L 641 3341 
Q 956 3463 1253 3523 
Q 1550 3584 1831 3584 
Q 2591 3584 2966 3190 
Q 3341 2797 3341 1997 
z
" transform="scale(0.015625)"/>
       <path id="DejaVuSans-73" d="M 2834 3397 
L 2834 2853 
Q 2591 2978 2328 3040 
Q 2066 3103 1784 3103 
Q 1356 3103 1142 2972 
Q 928 2841 928 2578 
Q 928 2378 1081 2264 
Q 1234 2150 1697 2047 
L 1894 2003 
Q 2506 1872 2764 1633 
Q 3022 1394 3022 966 
Q 3022 478 2636 193 
Q 2250 -91 1575 -91 
Q 1294 -91 989 -36 
Q 684 19 347 128 
L 347 722 
Q 666 556 975 473 
Q 1284 391 1588 391 
Q 1994 391 2212 530 
Q 2431 669 2431 922 
Q 2431 1156 2273 1281 
Q 2116 1406 1581 1522 
L 1381 1569 
Q 847 1681 609 1914 
Q 372 2147 372 2553 
Q 372 3047 722 3315 
Q 1072 3584 1716 3584 
Q 2034 3584 2315 3537 
Q 2597 3491 2834 3397 
z
" transform="scale(0.015625)"/>
       <path id="DejaVuSans-74" d="M 1172 4494 
L 1172 3500 
L 2356 3500 
L 2356 3053 
L 1172 3053 
L 1172 1153 
Q 1172 725 1289 603 
Q 1406 481 1766 481 
L 2356 481 
L 2356 0 
L 1766 0 
Q 1100 0 847 248 
Q 594 497 594 1153 
L 594 3053 
L 172 3053 
L 172 3500 
L 594 3500 
L 594 4494 
L 1172 4494 
z
" transform="scale(0.015625)"/>
      </defs>
      <use xlink:href="#DejaVuSans-46"/>
      <use xlink:href="#DejaVuSans-61" x="48.394531"/>
      <use xlink:href="#DejaVuSans-73" x="109.673828"/>
      <use xlink:href="#DejaVuSans-74" x="161.773438"/>
      <use xlink:href="#DejaVuSans-20" x="200.982422"/>
      <use xlink:href="#DejaVuSans-77" x="232.769531"/>
      <use xlink:href="#DejaVuSans-69" x="314.556641"/>
      <use xlink:href="#DejaVuSans-6e" x="342.339844"/>
      <use xlink:href="#DejaVuSans-64" x="405.71875"/>
     </g>
    </g>
   </g>
   <g id="matplotlib.axis_1">
    <g id="xtick_1">
     <g id="line2d_7">
      <defs>
       <path id="ma9933ee4bd" d="M 0 0 
L 0 -3.5 
" style="stroke: #000000; stroke-width: 1.5"/>
      </defs>
      <g>
       <use xlink:href="#ma9933ee4bd" x="64.521426" y="242.124" style="stroke: #000000; stroke-width: 1.5"/>
      </g>
     </g>
     <g id="line2d_8">
      <defs>
       <path id="m0ddbb1e063" d="M 0 0 
L 0 3.5 
" style="stroke: #000000; stroke-width: 1.5"/>
      </defs>
      <g>
       <use xlink:href="#m0ddbb1e063" x="64.521426" y="10.8" style="stroke: #000000; stroke-width: 1.5"/>
      </g>
     </g>
     <g id="text_4">
      <!-- 0 -->
      <g transform="translate(60.703926 254.742125) scale(0.12 -0.12)">
       <defs>
        <path id="DejaVuSans-30" d="M 2034 4250 
Q 1547 4250 1301 3770 
Q 1056 3291 1056 2328 
Q 1056 1369 1301 889 
Q 1547 409 2034 409 
Q 2525 409 2770 889 
Q 3016 1369 3016 2328 
Q 3016 3291 2770 3770 
Q 2525 4250 2034 4250 
z
M 2034 4750 
Q 2819 4750 3233 4129 
Q 3647 3509 3647 2328 
Q 3647 1150 3233 529 
Q 2819 -91 2034 -91 
Q 1250 -91 836 529 
Q 422 1150 422 2328 
Q 422 3509 836 4129 
Q 1250 4750 2034 4750 
z
" transform="scale(0.015625)"/>
       </defs>
       <use xlink:href="#DejaVuSans-30"/>
      </g>
     </g>
    </g>
    <g id="xtick_2">
     <g id="line2d_9">
      <g>
       <use xlink:href="#ma9933ee4bd" x="107.082609" y="242.124" style="stroke: #000000; stroke-width: 1.5"/>
      </g>
     </g>
     <g id="line2d_10">
      <g>
       <use xlink:href="#m0ddbb1e063" x="107.082609" y="10.8" style="stroke: #000000; stroke-width: 1.5"/>
      </g>
     </g>
     <g id="text_5">
      <!-- 5 -->
      <g transform="translate(103.265109 254.742125) scale(0.12 -0.12)">
       <defs>
        <path id="DejaVuSans-35" d="M 691 4666 
L 3169 4666 
L 3169 4134 
L 1269 4134 
L 1269 2991 
Q 1406 3038 1543 3061 
Q 1681 3084 1819 3084 
Q 2600 3084 3056 2656 
Q 3513 2228 3513 1497 
Q 3513 744 3044 326 
Q 2575 -91 1722 -91 
Q 1428 -91 1123 -41 
Q 819 9 494 109 
L 494 744 
Q 775 591 1075 516 
Q 1375 441 1709 441 
Q 2250 441 2565 725 
Q 2881 1009 2881 1497 
Q 2881 1984 2565 2268 
Q 2250 2553 1709 2553 
Q 1456 2553 1204 2497 
Q 953 2441 691 2322 
L 691 4666 
z
" transform="scale(0.015625)"/>
       </defs>
       <use xlink:href="#DejaVuSans-35"/>
      </g>
     </g>
    </g>
    <g id="xtick_3">
     <g id="line2d_11">
      <g>
       <use xlink:href="#ma9933ee4bd" x="149.643791" y="242.124" style="stroke: #000000; stroke-width: 1.5"/>
      </g>
     </g>
     <g id="line2d_12">
      <g>
       <use xlink:href="#m0ddbb1e063" x="149.643791" y="10.8" style="stroke: #000000; stroke-width: 1.5"/>
      </g>
     </g>
     <g id="text_6">
      <!-- 10 -->
      <g transform="translate(142.008791 254.742125) scale(0.12 -0.12)">
       <defs>
        <path id="DejaVuSans-31" d="M 794 531 
L 1825 531 
L 1825 4091 
L 703 3866 
L 703 4441 
L 1819 4666 
L 2450 4666 
L 2450 531 
L 3481 531 
L 3481 0 
L 794 0 
L 794 531 
z
" transform="scale(0.015625)"/>
       </defs>
       <use xlink:href="#DejaVuSans-31"/>
       <use xlink:href="#DejaVuSans-30" x="63.623047"/>
      </g>
     </g>
    </g>
    <g id="xtick_4">
     <g id="line2d_13">
      <g>
       <use xlink:href="#ma9933ee4bd" x="192.204974" y="242.124" style="stroke: #000000; stroke-width: 1.5"/>
      </g>
     </g>
     <g id="line2d_14">
      <g>
       <use xlink:href="#m0ddbb1e063" x="192.204974" y="10.8" style="stroke: #000000; stroke-width: 1.5"/>
      </g>
     </g>
     <g id="text_7">
      <!-- 15 -->
      <g transform="translate(184.569974 254.742125) scale(0.12 -0.12)">
       <use xlink:href="#DejaVuSans-31"/>
       <use xlink:href="#DejaVuSans-35" x="63.623047"/>
      </g>
     </g>
    </g>
    <g id="xtick_5">
     <g id="line2d_15">
      <g>
       <use xlink:href="#ma9933ee4bd" x="234.766157" y="242.124" style="stroke: #000000; stroke-width: 1.5"/>
      </g>
     </g>
     <g id="line2d_16">
      <g>
       <use xlink:href="#m0ddbb1e063" x="234.766157" y="10.8" style="stroke: #000000; stroke-width: 1.5"/>
      </g>
     </g>
     <g id="text_8">
      <!-- 20 -->
      <g transform="translate(227.131157 254.742125) scale(0.12 -0.12)">
       <defs>
        <path id="DejaVuSans-32" d="M 1228 531 
L 3431 531 
L 3431 0 
L 469 0 
L 469 531 
Q 828 903 1448 1529 
Q 2069 2156 2228 2338 
Q 2531 2678 2651 2914 
Q 2772 3150 2772 3378 
Q 2772 3750 2511 3984 
Q 2250 4219 1831 4219 
Q 1534 4219 1204 4116 
Q 875 4013 500 3803 
L 500 4441 
Q 881 4594 1212 4672 
Q 1544 4750 1819 4750 
Q 2544 4750 2975 4387 
Q 3406 4025 3406 3419 
Q 3406 3131 3298 2873 
Q 3191 2616 2906 2266 
Q 2828 2175 2409 1742 
Q 1991 1309 1228 531 
z
" transform="scale(0.015625)"/>
       </defs>
       <use xlink:href="#DejaVuSans-32"/>
       <use xlink:href="#DejaVuSans-30" x="63.623047"/>
      </g>
     </g>
    </g>
    <g id="xtick_6">
     <g id="line2d_17">
      <g>
       <use xlink:href="#ma9933ee4bd" x="277.327339" y="242.124" style="stroke: #000000; stroke-width: 1.5"/>
      </g>
     </g>
     <g id="line2d_18">
      <g>
       <use xlink:href="#m0ddbb1e063" x="277.327339" y="10.8" style="stroke: #000000; stroke-width: 1.5"/>
      </g>
     </g>
     <g id="text_9">
      <!-- 25 -->
      <g transform="translate(269.692339 254.742125) scale(0.12 -0.12)">
       <use xlink:href="#DejaVuSans-32"/>
       <use xlink:href="#DejaVuSans-35" x="63.623047"/>
      </g>
     </g>
    </g>
    <g id="xtick_7">
     <g id="line2d_19">
      <g>
       <use xlink:href="#ma9933ee4bd" x="319.888522" y="242.124" style="stroke: #000000; stroke-width: 1.5"/>
      </g>
     </g>
     <g id="line2d_20">
      <g>
       <use xlink:href="#m0ddbb1e063" x="319.888522" y="10.8" style="stroke: #000000; stroke-width: 1.5"/>
      </g>
     </g>
     <g id="text_10">
      <!-- 30 -->
      <g transform="translate(312.253522 254.742125) scale(0.12 -0.12)">
       <defs>
        <path id="DejaVuSans-33" d="M 2597 2516 
Q 3050 2419 3304 2112 
Q 3559 1806 3559 1356 
Q 3559 666 3084 287 
Q 2609 -91 1734 -91 
Q 1441 -91 1130 -33 
Q 819 25 488 141 
L 488 750 
Q 750 597 1062 519 
Q 1375 441 1716 441 
Q 2309 441 2620 675 
Q 2931 909 2931 1356 
Q 2931 1769 2642 2001 
Q 2353 2234 1838 2234 
L 1294 2234 
L 1294 2753 
L 1863 2753 
Q 2328 2753 2575 2939 
Q 2822 3125 2822 3475 
Q 2822 3834 2567 4026 
Q 2313 4219 1838 4219 
Q 1578 4219 1281 4162 
Q 984 4106 628 3988 
L 628 4550 
Q 988 4650 1302 4700 
Q 1616 4750 1894 4750 
Q 2613 4750 3031 4423 
Q 3450 4097 3450 3541 
Q 3450 3153 3228 2886 
Q 3006 2619 2597 2516 
z
" transform="scale(0.015625)"/>
       </defs>
       <use xlink:href="#DejaVuSans-33"/>
       <use xlink:href="#DejaVuSans-30" x="63.623047"/>
      </g>
     </g>
    </g>
    <g id="xtick_8">
     <g id="line2d_21">
      <g>
       <use xlink:href="#ma9933ee4bd" x="362.449705" y="242.124" style="stroke: #000000; stroke-width: 1.5"/>
      </g>
     </g>
     <g id="line2d_22">
      <g>
       <use xlink:href="#m0ddbb1e063" x="362.449705" y="10.8" style="stroke: #000000; stroke-width: 1.5"/>
      </g>
     </g>
     <g id="text_11">
      <!-- 35 -->
      <g transform="translate(354.814705 254.742125) scale(0.12 -0.12)">
       <use xlink:href="#DejaVuSans-33"/>
       <use xlink:href="#DejaVuSans-35" x="63.623047"/>
      </g>
     </g>
    </g>
    <g id="xtick_9">
     <g id="line2d_23">
      <g>
       <use xlink:href="#ma9933ee4bd" x="405.010887" y="242.124" style="stroke: #000000; stroke-width: 1.5"/>
      </g>
     </g>
     <g id="line2d_24">
      <g>
       <use xlink:href="#m0ddbb1e063" x="405.010887" y="10.8" style="stroke: #000000; stroke-width: 1.5"/>
      </g>
     </g>
     <g id="text_12">
      <!-- 40 -->
      <g transform="translate(397.375887 254.742125) scale(0.12 -0.12)">
       <defs>
        <path id="DejaVuSans-34" d="M 2419 4116 
L 825 1625 
L 2419 1625 
L 2419 4116 
z
M 2253 4666 
L 3047 4666 
L 3047 1625 
L 3713 1625 
L 3713 1100 
L 3047 1100 
L 3047 0 
L 2419 0 
L 2419 1100 
L 313 1100 
L 313 1709 
L 2253 4666 
z
" transform="scale(0.015625)"/>
       </defs>
       <use xlink:href="#DejaVuSans-34"/>
       <use xlink:href="#DejaVuSans-30" x="63.623047"/>
      </g>
     </g>
    </g>
    <g id="xtick_10">
     <g id="line2d_25">
      <defs>
       <path id="m268be934e8" d="M 0 0 
L 0 -2 
" style="stroke: #000000; stroke-width: 1.5"/>
      </defs>
      <g>
       <use xlink:href="#m268be934e8" x="73.033663" y="242.124" style="stroke: #000000; stroke-width: 1.5"/>
      </g>
     </g>
     <g id="line2d_26">
      <defs>
       <path id="m6cd299ce1a" d="M 0 0 
L 0 2 
" style="stroke: #000000; stroke-width: 1.5"/>
      </defs>
      <g>
       <use xlink:href="#m6cd299ce1a" x="73.033663" y="10.8" style="stroke: #000000; stroke-width: 1.5"/>
      </g>
     </g>
    </g>
    <g id="xtick_11">
     <g id="line2d_27">
      <g>
       <use xlink:href="#m268be934e8" x="81.545899" y="242.124" style="stroke: #000000; stroke-width: 1.5"/>
      </g>
     </g>
     <g id="line2d_28">
      <g>
       <use xlink:href="#m6cd299ce1a" x="81.545899" y="10.8" style="stroke: #000000; stroke-width: 1.5"/>
      </g>
     </g>
    </g>
    <g id="xtick_12">
     <g id="line2d_29">
      <g>
       <use xlink:href="#m268be934e8" x="90.058136" y="242.124" style="stroke: #000000; stroke-width: 1.5"/>
      </g>
     </g>
     <g id="line2d_30">
      <g>
       <use xlink:href="#m6cd299ce1a" x="90.058136" y="10.8" style="stroke: #000000; stroke-width: 1.5"/>
      </g>
     </g>
    </g>
    <g id="xtick_13">
     <g id="line2d_31">
      <g>
       <use xlink:href="#m268be934e8" x="98.570372" y="242.124" style="stroke: #000000; stroke-width: 1.5"/>
      </g>
     </g>
     <g id="line2d_32">
      <g>
       <use xlink:href="#m6cd299ce1a" x="98.570372" y="10.8" style="stroke: #000000; stroke-width: 1.5"/>
      </g>
     </g>
    </g>
    <g id="xtick_14">
     <g id="line2d_33">
      <g>
       <use xlink:href="#m268be934e8" x="115.594845" y="242.124" style="stroke: #000000; stroke-width: 1.5"/>
      </g>
     </g>
     <g id="line2d_34">
      <g>
       <use xlink:href="#m6cd299ce1a" x="115.594845" y="10.8" style="stroke: #000000; stroke-width: 1.5"/>
      </g>
     </g>
    </g>
    <g id="xtick_15">
     <g id="line2d_35">
      <g>
       <use xlink:href="#m268be934e8" x="124.107082" y="242.124" style="stroke: #000000; stroke-width: 1.5"/>
      </g>
     </g>
     <g id="line2d_36">
      <g>
       <use xlink:href="#m6cd299ce1a" x="124.107082" y="10.8" style="stroke: #000000; stroke-width: 1.5"/>
      </g>
     </g>
    </g>
    <g id="xtick_16">
     <g id="line2d_37">
      <g>
       <use xlink:href="#m268be934e8" x="132.619318" y="242.124" style="stroke: #000000; stroke-width: 1.5"/>
      </g>
     </g>
     <g id="line2d_38">
      <g>
       <use xlink:href="#m6cd299ce1a" x="132.619318" y="10.8" style="stroke: #000000; stroke-width: 1.5"/>
      </g>
     </g>
    </g>
    <g id="xtick_17">
     <g id="line2d_39">
      <g>
       <use xlink:href="#m268be934e8" x="141.131555" y="242.124" style="stroke: #000000; stroke-width: 1.5"/>
      </g>
     </g>
     <g id="line2d_40">
      <g>
       <use xlink:href="#m6cd299ce1a" x="141.131555" y="10.8" style="stroke: #000000; stroke-width: 1.5"/>
      </g>
     </g>
    </g>
    <g id="xtick_18">
     <g id="line2d_41">
      <g>
       <use xlink:href="#m268be934e8" x="158.156028" y="242.124" style="stroke: #000000; stroke-width: 1.5"/>
      </g>
     </g>
     <g id="line2d_42">
      <g>
       <use xlink:href="#m6cd299ce1a" x="158.156028" y="10.8" style="stroke: #000000; stroke-width: 1.5"/>
      </g>
     </g>
    </g>
    <g id="xtick_19">
     <g id="line2d_43">
      <g>
       <use xlink:href="#m268be934e8" x="166.668264" y="242.124" style="stroke: #000000; stroke-width: 1.5"/>
      </g>
     </g>
     <g id="line2d_44">
      <g>
       <use xlink:href="#m6cd299ce1a" x="166.668264" y="10.8" style="stroke: #000000; stroke-width: 1.5"/>
      </g>
     </g>
    </g>
    <g id="xtick_20">
     <g id="line2d_45">
      <g>
       <use xlink:href="#m268be934e8" x="175.180501" y="242.124" style="stroke: #000000; stroke-width: 1.5"/>
      </g>
     </g>
     <g id="line2d_46">
      <g>
       <use xlink:href="#m6cd299ce1a" x="175.180501" y="10.8" style="stroke: #000000; stroke-width: 1.5"/>
      </g>
     </g>
    </g>
    <g id="xtick_21">
     <g id="line2d_47">
      <g>
       <use xlink:href="#m268be934e8" x="183.692737" y="242.124" style="stroke: #000000; stroke-width: 1.5"/>
      </g>
     </g>
     <g id="line2d_48">
      <g>
       <use xlink:href="#m6cd299ce1a" x="183.692737" y="10.8" style="stroke: #000000; stroke-width: 1.5"/>
      </g>
     </g>
    </g>
    <g id="xtick_22">
     <g id="line2d_49">
      <g>
       <use xlink:href="#m268be934e8" x="200.71721" y="242.124" style="stroke: #000000; stroke-width: 1.5"/>
      </g>
     </g>
     <g id="line2d_50">
      <g>
       <use xlink:href="#m6cd299ce1a" x="200.71721" y="10.8" style="stroke: #000000; stroke-width: 1.5"/>
      </g>
     </g>
    </g>
    <g id="xtick_23">
     <g id="line2d_51">
      <g>
       <use xlink:href="#m268be934e8" x="209.229447" y="242.124" style="stroke: #000000; stroke-width: 1.5"/>
      </g>
     </g>
     <g id="line2d_52">
      <g>
       <use xlink:href="#m6cd299ce1a" x="209.229447" y="10.8" style="stroke: #000000; stroke-width: 1.5"/>
      </g>
     </g>
    </g>
    <g id="xtick_24">
     <g id="line2d_53">
      <g>
       <use xlink:href="#m268be934e8" x="217.741684" y="242.124" style="stroke: #000000; stroke-width: 1.5"/>
      </g>
     </g>
     <g id="line2d_54">
      <g>
       <use xlink:href="#m6cd299ce1a" x="217.741684" y="10.8" style="stroke: #000000; stroke-width: 1.5"/>
      </g>
     </g>
    </g>
    <g id="xtick_25">
     <g id="line2d_55">
      <g>
       <use xlink:href="#m268be934e8" x="226.25392" y="242.124" style="stroke: #000000; stroke-width: 1.5"/>
      </g>
     </g>
     <g id="line2d_56">
      <g>
       <use xlink:href="#m6cd299ce1a" x="226.25392" y="10.8" style="stroke: #000000; stroke-width: 1.5"/>
      </g>
     </g>
    </g>
    <g id="xtick_26">
     <g id="line2d_57">
      <g>
       <use xlink:href="#m268be934e8" x="243.278393" y="242.124" style="stroke: #000000; stroke-width: 1.5"/>
      </g>
     </g>
     <g id="line2d_58">
      <g>
       <use xlink:href="#m6cd299ce1a" x="243.278393" y="10.8" style="stroke: #000000; stroke-width: 1.5"/>
      </g>
     </g>
    </g>
    <g id="xtick_27">
     <g id="line2d_59">
      <g>
       <use xlink:href="#m268be934e8" x="251.79063" y="242.124" style="stroke: #000000; stroke-width: 1.5"/>
      </g>
     </g>
     <g id="line2d_60">
      <g>
       <use xlink:href="#m6cd299ce1a" x="251.79063" y="10.8" style="stroke: #000000; stroke-width: 1.5"/>
      </g>
     </g>
    </g>
    <g id="xtick_28">
     <g id="line2d_61">
      <g>
       <use xlink:href="#m268be934e8" x="260.302866" y="242.124" style="stroke: #000000; stroke-width: 1.5"/>
      </g>
     </g>
     <g id="line2d_62">
      <g>
       <use xlink:href="#m6cd299ce1a" x="260.302866" y="10.8" style="stroke: #000000; stroke-width: 1.5"/>
      </g>
     </g>
    </g>
    <g id="xtick_29">
     <g id="line2d_63">
      <g>
       <use xlink:href="#m268be934e8" x="268.815103" y="242.124" style="stroke: #000000; stroke-width: 1.5"/>
      </g>
     </g>
     <g id="line2d_64">
      <g>
       <use xlink:href="#m6cd299ce1a" x="268.815103" y="10.8" style="stroke: #000000; stroke-width: 1.5"/>
      </g>
     </g>
    </g>
    <g id="xtick_30">
     <g id="line2d_65">
      <g>
       <use xlink:href="#m268be934e8" x="285.839576" y="242.124" style="stroke: #000000; stroke-width: 1.5"/>
      </g>
     </g>
     <g id="line2d_66">
      <g>
       <use xlink:href="#m6cd299ce1a" x="285.839576" y="10.8" style="stroke: #000000; stroke-width: 1.5"/>
      </g>
     </g>
    </g>
    <g id="xtick_31">
     <g id="line2d_67">
      <g>
       <use xlink:href="#m268be934e8" x="294.351812" y="242.124" style="stroke: #000000; stroke-width: 1.5"/>
      </g>
     </g>
     <g id="line2d_68">
      <g>
       <use xlink:href="#m6cd299ce1a" x="294.351812" y="10.8" style="stroke: #000000; stroke-width: 1.5"/>
      </g>
     </g>
    </g>
    <g id="xtick_32">
     <g id="line2d_69">
      <g>
       <use xlink:href="#m268be934e8" x="302.864049" y="242.124" style="stroke: #000000; stroke-width: 1.5"/>
      </g>
     </g>
     <g id="line2d_70">
      <g>
       <use xlink:href="#m6cd299ce1a" x="302.864049" y="10.8" style="stroke: #000000; stroke-width: 1.5"/>
      </g>
     </g>
    </g>
    <g id="xtick_33">
     <g id="line2d_71">
      <g>
       <use xlink:href="#m268be934e8" x="311.376285" y="242.124" style="stroke: #000000; stroke-width: 1.5"/>
      </g>
     </g>
     <g id="line2d_72">
      <g>
       <use xlink:href="#m6cd299ce1a" x="311.376285" y="10.8" style="stroke: #000000; stroke-width: 1.5"/>
      </g>
     </g>
    </g>
    <g id="xtick_34">
     <g id="line2d_73">
      <g>
       <use xlink:href="#m268be934e8" x="328.400758" y="242.124" style="stroke: #000000; stroke-width: 1.5"/>
      </g>
     </g>
     <g id="line2d_74">
      <g>
       <use xlink:href="#m6cd299ce1a" x="328.400758" y="10.8" style="stroke: #000000; stroke-width: 1.5"/>
      </g>
     </g>
    </g>
    <g id="xtick_35">
     <g id="line2d_75">
      <g>
       <use xlink:href="#m268be934e8" x="336.912995" y="242.124" style="stroke: #000000; stroke-width: 1.5"/>
      </g>
     </g>
     <g id="line2d_76">
      <g>
       <use xlink:href="#m6cd299ce1a" x="336.912995" y="10.8" style="stroke: #000000; stroke-width: 1.5"/>
      </g>
     </g>
    </g>
    <g id="xtick_36">
     <g id="line2d_77">
      <g>
       <use xlink:href="#m268be934e8" x="345.425232" y="242.124" style="stroke: #000000; stroke-width: 1.5"/>
      </g>
     </g>
     <g id="line2d_78">
      <g>
       <use xlink:href="#m6cd299ce1a" x="345.425232" y="10.8" style="stroke: #000000; stroke-width: 1.5"/>
      </g>
     </g>
    </g>
    <g id="xtick_37">
     <g id="line2d_79">
      <g>
       <use xlink:href="#m268be934e8" x="353.937468" y="242.124" style="stroke: #000000; stroke-width: 1.5"/>
      </g>
     </g>
     <g id="line2d_80">
      <g>
       <use xlink:href="#m6cd299ce1a" x="353.937468" y="10.8" style="stroke: #000000; stroke-width: 1.5"/>
      </g>
     </g>
    </g>
    <g id="xtick_38">
     <g id="line2d_81">
      <g>
       <use xlink:href="#m268be934e8" x="370.961941" y="242.124" style="stroke: #000000; stroke-width: 1.5"/>
      </g>
     </g>
     <g id="line2d_82">
      <g>
       <use xlink:href="#m6cd299ce1a" x="370.961941" y="10.8" style="stroke: #000000; stroke-width: 1.5"/>
      </g>
     </g>
    </g>
    <g id="xtick_39">
     <g id="line2d_83">
      <g>
       <use xlink:href="#m268be934e8" x="379.474178" y="242.124" style="stroke: #000000; stroke-width: 1.5"/>
      </g>
     </g>
     <g id="line2d_84">
      <g>
       <use xlink:href="#m6cd299ce1a" x="379.474178" y="10.8" style="stroke: #000000; stroke-width: 1.5"/>
      </g>
     </g>
    </g>
    <g id="xtick_40">
     <g id="line2d_85">
      <g>
       <use xlink:href="#m268be934e8" x="387.986414" y="242.124" style="stroke: #000000; stroke-width: 1.5"/>
      </g>
     </g>
     <g id="line2d_86">
      <g>
       <use xlink:href="#m6cd299ce1a" x="387.986414" y="10.8" style="stroke: #000000; stroke-width: 1.5"/>
      </g>
     </g>
    </g>
    <g id="xtick_41">
     <g id="line2d_87">
      <g>
       <use xlink:href="#m268be934e8" x="396.498651" y="242.124" style="stroke: #000000; stroke-width: 1.5"/>
      </g>
     </g>
     <g id="line2d_88">
      <g>
       <use xlink:href="#m6cd299ce1a" x="396.498651" y="10.8" style="stroke: #000000; stroke-width: 1.5"/>
      </g>
     </g>
    </g>
    <g id="xtick_42">
     <g id="line2d_89">
      <g>
       <use xlink:href="#m268be934e8" x="413.523124" y="242.124" style="stroke: #000000; stroke-width: 1.5"/>
      </g>
     </g>
     <g id="line2d_90">
      <g>
       <use xlink:href="#m6cd299ce1a" x="413.523124" y="10.8" style="stroke: #000000; stroke-width: 1.5"/>
      </g>
     </g>
    </g>
    <g id="text_13">
     <!-- Distance [R$_\odot$] -->
     <g transform="translate(197.784179 270.355875) scale(0.12 -0.12)">
      <defs>
       <path id="DejaVuSans-44" d="M 1259 4147 
L 1259 519 
L 2022 519 
Q 2988 519 3436 956 
Q 3884 1394 3884 2338 
Q 3884 3275 3436 3711 
Q 2988 4147 2022 4147 
L 1259 4147 
z
M 628 4666 
L 1925 4666 
Q 3281 4666 3915 4102 
Q 4550 3538 4550 2338 
Q 4550 1131 3912 565 
Q 3275 0 1925 0 
L 628 0 
L 628 4666 
z
" transform="scale(0.015625)"/>
       <path id="DejaVuSans-63" d="M 3122 3366 
L 3122 2828 
Q 2878 2963 2633 3030 
Q 2388 3097 2138 3097 
Q 1578 3097 1268 2742 
Q 959 2388 959 1747 
Q 959 1106 1268 751 
Q 1578 397 2138 397 
Q 2388 397 2633 464 
Q 2878 531 3122 666 
L 3122 134 
Q 2881 22 2623 -34 
Q 2366 -91 2075 -91 
Q 1284 -91 818 406 
Q 353 903 353 1747 
Q 353 2603 823 3093 
Q 1294 3584 2113 3584 
Q 2378 3584 2631 3529 
Q 2884 3475 3122 3366 
z
" transform="scale(0.015625)"/>
       <path id="DejaVuSans-65" d="M 3597 1894 
L 3597 1613 
L 953 1613 
Q 991 1019 1311 708 
Q 1631 397 2203 397 
Q 2534 397 2845 478 
Q 3156 559 3463 722 
L 3463 178 
Q 3153 47 2828 -22 
Q 2503 -91 2169 -91 
Q 1331 -91 842 396 
Q 353 884 353 1716 
Q 353 2575 817 3079 
Q 1281 3584 2069 3584 
Q 2775 3584 3186 3129 
Q 3597 2675 3597 1894 
z
M 3022 2063 
Q 3016 2534 2758 2815 
Q 2500 3097 2075 3097 
Q 1594 3097 1305 2825 
Q 1016 2553 972 2059 
L 3022 2063 
z
" transform="scale(0.015625)"/>
       <path id="DejaVuSans-5b" d="M 550 4863 
L 1875 4863 
L 1875 4416 
L 1125 4416 
L 1125 -397 
L 1875 -397 
L 1875 -844 
L 550 -844 
L 550 4863 
z
" transform="scale(0.015625)"/>
       <path id="DejaVuSans-52" d="M 2841 2188 
Q 3044 2119 3236 1894 
Q 3428 1669 3622 1275 
L 4263 0 
L 3584 0 
L 2988 1197 
Q 2756 1666 2539 1819 
Q 2322 1972 1947 1972 
L 1259 1972 
L 1259 0 
L 628 0 
L 628 4666 
L 2053 4666 
Q 2853 4666 3247 4331 
Q 3641 3997 3641 3322 
Q 3641 2881 3436 2590 
Q 3231 2300 2841 2188 
z
M 1259 4147 
L 1259 2491 
L 2053 2491 
Q 2509 2491 2742 2702 
Q 2975 2913 2975 3322 
Q 2975 3731 2742 3939 
Q 2509 4147 2053 4147 
L 1259 4147 
z
" transform="scale(0.015625)"/>
       <path id="DejaVuSans-2299" d="M 2350 2403 
L 3013 2403 
L 3013 1609 
L 2350 1609 
L 2350 2403 
z
M 3306 3522 
Q 3016 3644 2681 3644 
Q 2347 3644 2056 3522 
Q 1769 3400 1531 3163 
Q 1291 2922 1172 2634 
Q 1053 2347 1053 2006 
Q 1053 1675 1172 1387 
Q 1291 1100 1531 859 
Q 1769 622 2056 500 
Q 2347 378 2681 378 
Q 3016 378 3306 500 
Q 3594 622 3831 859 
Q 4072 1100 4190 1387 
Q 4309 1675 4309 2006 
Q 4309 2347 4190 2634 
Q 4072 2922 3831 3163 
Q 3594 3400 3306 3522 
z
M 1878 3956 
Q 2250 4113 2681 4113 
Q 3113 4113 3484 3956 
Q 3856 3800 4163 3494 
Q 4472 3184 4625 2813 
Q 4778 2444 4778 2006 
Q 4778 1578 4625 1206 
Q 4472 838 4163 528 
Q 3856 222 3484 65 
Q 3113 -91 2681 -91 
Q 2250 -91 1878 65 
Q 1506 222 1200 528 
Q 891 838 738 1206 
Q 584 1578 584 2006 
Q 584 2444 738 2813 
Q 891 3184 1200 3494 
Q 1506 3800 1878 3956 
z
" transform="scale(0.015625)"/>
       <path id="DejaVuSans-5d" d="M 1947 4863 
L 1947 -844 
L 622 -844 
L 622 -397 
L 1369 -397 
L 1369 4416 
L 622 4416 
L 622 4863 
L 1947 4863 
z
" transform="scale(0.015625)"/>
      </defs>
      <use xlink:href="#DejaVuSans-44" transform="translate(0 0.015625)"/>
      <use xlink:href="#DejaVuSans-69" transform="translate(77.001953 0.015625)"/>
      <use xlink:href="#DejaVuSans-73" transform="translate(104.785156 0.015625)"/>
      <use xlink:href="#DejaVuSans-74" transform="translate(156.884766 0.015625)"/>
      <use xlink:href="#DejaVuSans-61" transform="translate(196.09375 0.015625)"/>
      <use xlink:href="#DejaVuSans-6e" transform="translate(257.373047 0.015625)"/>
      <use xlink:href="#DejaVuSans-63" transform="translate(320.751953 0.015625)"/>
      <use xlink:href="#DejaVuSans-65" transform="translate(375.732422 0.015625)"/>
      <use xlink:href="#DejaVuSans-20" transform="translate(437.255859 0.015625)"/>
      <use xlink:href="#DejaVuSans-5b" transform="translate(469.042969 0.015625)"/>
      <use xlink:href="#DejaVuSans-52" transform="translate(504.931641 0.015625)"/>
      <use xlink:href="#DejaVuSans-2299" transform="translate(589.008789 -16.390625) scale(0.7)"/>
      <use xlink:href="#DejaVuSans-5d" transform="translate(664.033203 0.015625)"/>
     </g>
    </g>
   </g>
   <g id="matplotlib.axis_2">
    <g id="ytick_1">
     <g id="line2d_91">
      <defs>
       <path id="mf2e81f5800" d="M 0 0 
L 3.5 0 
" style="stroke: #000000; stroke-width: 1.5"/>
      </defs>
      <g>
       <use xlink:href="#mf2e81f5800" x="58.848357" y="225.976404" style="stroke: #000000; stroke-width: 1.5"/>
      </g>
     </g>
     <g id="line2d_92">
      <defs>
       <path id="maff702ffc1" d="M 0 0 
L -3.5 0 
" style="stroke: #000000; stroke-width: 1.5"/>
      </defs>
      <g>
       <use xlink:href="#maff702ffc1" x="421.2" y="225.976404" style="stroke: #000000; stroke-width: 1.5"/>
      </g>
     </g>
     <g id="text_14">
      <!-- $\mathdefault{10^{0}}$ -->
      <g transform="translate(34.228357 230.535466) scale(0.12 -0.12)">
       <use xlink:href="#DejaVuSans-31" transform="translate(0 0.765625)"/>
       <use xlink:href="#DejaVuSans-30" transform="translate(63.623047 0.765625)"/>
       <use xlink:href="#DejaVuSans-30" transform="translate(128.203125 39.046875) scale(0.7)"/>
      </g>
     </g>
    </g>
    <g id="ytick_2">
     <g id="line2d_93">
      <g>
       <use xlink:href="#mf2e81f5800" x="58.848357" y="191.571401" style="stroke: #000000; stroke-width: 1.5"/>
      </g>
     </g>
     <g id="line2d_94">
      <g>
       <use xlink:href="#maff702ffc1" x="421.2" y="191.571401" style="stroke: #000000; stroke-width: 1.5"/>
      </g>
     </g>
     <g id="text_15">
      <!-- $\mathdefault{10^{1}}$ -->
      <g transform="translate(34.228357 196.130464) scale(0.12 -0.12)">
       <use xlink:href="#DejaVuSans-31" transform="translate(0 0.684375)"/>
       <use xlink:href="#DejaVuSans-30" transform="translate(63.623047 0.684375)"/>
       <use xlink:href="#DejaVuSans-31" transform="translate(128.203125 38.965625) scale(0.7)"/>
      </g>
     </g>
    </g>
    <g id="ytick_3">
     <g id="line2d_95">
      <g>
       <use xlink:href="#mf2e81f5800" x="58.848357" y="157.166398" style="stroke: #000000; stroke-width: 1.5"/>
      </g>
     </g>
     <g id="line2d_96">
      <g>
       <use xlink:href="#maff702ffc1" x="421.2" y="157.166398" style="stroke: #000000; stroke-width: 1.5"/>
      </g>
     </g>
     <g id="text_16">
      <!-- $\mathdefault{10^{2}}$ -->
      <g transform="translate(34.228357 161.725461) scale(0.12 -0.12)">
       <use xlink:href="#DejaVuSans-31" transform="translate(0 0.765625)"/>
       <use xlink:href="#DejaVuSans-30" transform="translate(63.623047 0.765625)"/>
       <use xlink:href="#DejaVuSans-32" transform="translate(128.203125 39.046875) scale(0.7)"/>
      </g>
     </g>
    </g>
    <g id="ytick_4">
     <g id="line2d_97">
      <g>
       <use xlink:href="#mf2e81f5800" x="58.848357" y="122.761395" style="stroke: #000000; stroke-width: 1.5"/>
      </g>
     </g>
     <g id="line2d_98">
      <g>
       <use xlink:href="#maff702ffc1" x="421.2" y="122.761395" style="stroke: #000000; stroke-width: 1.5"/>
      </g>
     </g>
     <g id="text_17">
      <!-- $\mathdefault{10^{3}}$ -->
      <g transform="translate(34.228357 127.320458) scale(0.12 -0.12)">
       <use xlink:href="#DejaVuSans-31" transform="translate(0 0.765625)"/>
       <use xlink:href="#DejaVuSans-30" transform="translate(63.623047 0.765625)"/>
       <use xlink:href="#DejaVuSans-33" transform="translate(128.203125 39.046875) scale(0.7)"/>
      </g>
     </g>
    </g>
    <g id="ytick_5">
     <g id="line2d_99">
      <g>
       <use xlink:href="#mf2e81f5800" x="58.848357" y="88.356392" style="stroke: #000000; stroke-width: 1.5"/>
      </g>
     </g>
     <g id="line2d_100">
      <g>
       <use xlink:href="#maff702ffc1" x="421.2" y="88.356392" style="stroke: #000000; stroke-width: 1.5"/>
      </g>
     </g>
     <g id="text_18">
      <!-- $\mathdefault{10^{4}}$ -->
      <g transform="translate(34.228357 92.915455) scale(0.12 -0.12)">
       <use xlink:href="#DejaVuSans-31" transform="translate(0 0.684375)"/>
       <use xlink:href="#DejaVuSans-30" transform="translate(63.623047 0.684375)"/>
       <use xlink:href="#DejaVuSans-34" transform="translate(128.203125 38.965625) scale(0.7)"/>
      </g>
     </g>
    </g>
    <g id="ytick_6">
     <g id="line2d_101">
      <g>
       <use xlink:href="#mf2e81f5800" x="58.848357" y="53.951389" style="stroke: #000000; stroke-width: 1.5"/>
      </g>
     </g>
     <g id="line2d_102">
      <g>
       <use xlink:href="#maff702ffc1" x="421.2" y="53.951389" style="stroke: #000000; stroke-width: 1.5"/>
      </g>
     </g>
     <g id="text_19">
      <!-- $\mathdefault{10^{5}}$ -->
      <g transform="translate(34.228357 58.510452) scale(0.12 -0.12)">
       <use xlink:href="#DejaVuSans-31" transform="translate(0 0.684375)"/>
       <use xlink:href="#DejaVuSans-30" transform="translate(63.623047 0.684375)"/>
       <use xlink:href="#DejaVuSans-35" transform="translate(128.203125 38.965625) scale(0.7)"/>
      </g>
     </g>
    </g>
    <g id="ytick_7">
     <g id="line2d_103">
      <g>
       <use xlink:href="#mf2e81f5800" x="58.848357" y="19.546386" style="stroke: #000000; stroke-width: 1.5"/>
      </g>
     </g>
     <g id="line2d_104">
      <g>
       <use xlink:href="#maff702ffc1" x="421.2" y="19.546386" style="stroke: #000000; stroke-width: 1.5"/>
      </g>
     </g>
     <g id="text_20">
      <!-- $\mathdefault{10^{6}}$ -->
      <g transform="translate(34.228357 24.105449) scale(0.12 -0.12)">
       <defs>
        <path id="DejaVuSans-36" d="M 2113 2584 
Q 1688 2584 1439 2293 
Q 1191 2003 1191 1497 
Q 1191 994 1439 701 
Q 1688 409 2113 409 
Q 2538 409 2786 701 
Q 3034 994 3034 1497 
Q 3034 2003 2786 2293 
Q 2538 2584 2113 2584 
z
M 3366 4563 
L 3366 3988 
Q 3128 4100 2886 4159 
Q 2644 4219 2406 4219 
Q 1781 4219 1451 3797 
Q 1122 3375 1075 2522 
Q 1259 2794 1537 2939 
Q 1816 3084 2150 3084 
Q 2853 3084 3261 2657 
Q 3669 2231 3669 1497 
Q 3669 778 3244 343 
Q 2819 -91 2113 -91 
Q 1303 -91 875 529 
Q 447 1150 447 2328 
Q 447 3434 972 4092 
Q 1497 4750 2381 4750 
Q 2619 4750 2861 4703 
Q 3103 4656 3366 4563 
z
" transform="scale(0.015625)"/>
       </defs>
       <use xlink:href="#DejaVuSans-31" transform="translate(0 0.765625)"/>
       <use xlink:href="#DejaVuSans-30" transform="translate(63.623047 0.765625)"/>
       <use xlink:href="#DejaVuSans-36" transform="translate(128.203125 39.046875) scale(0.7)"/>
      </g>
     </g>
    </g>
    <g id="ytick_8">
     <g id="line2d_105">
      <defs>
       <path id="me742c81bda" d="M 0 0 
L 2 0 
" style="stroke: #000000; stroke-width: 1.5"/>
      </defs>
      <g>
       <use xlink:href="#me742c81bda" x="58.848357" y="239.667531" style="stroke: #000000; stroke-width: 1.5"/>
      </g>
     </g>
     <g id="line2d_106">
      <defs>
       <path id="m3a7998c2ea" d="M 0 0 
L -2 0 
" style="stroke: #000000; stroke-width: 1.5"/>
      </defs>
      <g>
       <use xlink:href="#m3a7998c2ea" x="421.2" y="239.667531" style="stroke: #000000; stroke-width: 1.5"/>
      </g>
     </g>
    </g>
    <g id="ytick_9">
     <g id="line2d_107">
      <g>
       <use xlink:href="#me742c81bda" x="58.848357" y="236.333342" style="stroke: #000000; stroke-width: 1.5"/>
      </g>
     </g>
     <g id="line2d_108">
      <g>
       <use xlink:href="#m3a7998c2ea" x="421.2" y="236.333342" style="stroke: #000000; stroke-width: 1.5"/>
      </g>
     </g>
    </g>
    <g id="ytick_10">
     <g id="line2d_109">
      <g>
       <use xlink:href="#me742c81bda" x="58.848357" y="233.609111" style="stroke: #000000; stroke-width: 1.5"/>
      </g>
     </g>
     <g id="line2d_110">
      <g>
       <use xlink:href="#m3a7998c2ea" x="421.2" y="233.609111" style="stroke: #000000; stroke-width: 1.5"/>
      </g>
     </g>
    </g>
    <g id="ytick_11">
     <g id="line2d_111">
      <g>
       <use xlink:href="#me742c81bda" x="58.848357" y="231.305806" style="stroke: #000000; stroke-width: 1.5"/>
      </g>
     </g>
     <g id="line2d_112">
      <g>
       <use xlink:href="#m3a7998c2ea" x="421.2" y="231.305806" style="stroke: #000000; stroke-width: 1.5"/>
      </g>
     </g>
    </g>
    <g id="ytick_12">
     <g id="line2d_113">
      <g>
       <use xlink:href="#me742c81bda" x="58.848357" y="229.310593" style="stroke: #000000; stroke-width: 1.5"/>
      </g>
     </g>
     <g id="line2d_114">
      <g>
       <use xlink:href="#m3a7998c2ea" x="421.2" y="229.310593" style="stroke: #000000; stroke-width: 1.5"/>
      </g>
     </g>
    </g>
    <g id="ytick_13">
     <g id="line2d_115">
      <g>
       <use xlink:href="#me742c81bda" x="58.848357" y="227.550691" style="stroke: #000000; stroke-width: 1.5"/>
      </g>
     </g>
     <g id="line2d_116">
      <g>
       <use xlink:href="#m3a7998c2ea" x="421.2" y="227.550691" style="stroke: #000000; stroke-width: 1.5"/>
      </g>
     </g>
    </g>
    <g id="ytick_14">
     <g id="line2d_117">
      <g>
       <use xlink:href="#me742c81bda" x="58.848357" y="215.619466" style="stroke: #000000; stroke-width: 1.5"/>
      </g>
     </g>
     <g id="line2d_118">
      <g>
       <use xlink:href="#m3a7998c2ea" x="421.2" y="215.619466" style="stroke: #000000; stroke-width: 1.5"/>
      </g>
     </g>
    </g>
    <g id="ytick_15">
     <g id="line2d_119">
      <g>
       <use xlink:href="#me742c81bda" x="58.848357" y="209.561046" style="stroke: #000000; stroke-width: 1.5"/>
      </g>
     </g>
     <g id="line2d_120">
      <g>
       <use xlink:href="#m3a7998c2ea" x="421.2" y="209.561046" style="stroke: #000000; stroke-width: 1.5"/>
      </g>
     </g>
    </g>
    <g id="ytick_16">
     <g id="line2d_121">
      <g>
       <use xlink:href="#me742c81bda" x="58.848357" y="205.262528" style="stroke: #000000; stroke-width: 1.5"/>
      </g>
     </g>
     <g id="line2d_122">
      <g>
       <use xlink:href="#m3a7998c2ea" x="421.2" y="205.262528" style="stroke: #000000; stroke-width: 1.5"/>
      </g>
     </g>
    </g>
    <g id="ytick_17">
     <g id="line2d_123">
      <g>
       <use xlink:href="#me742c81bda" x="58.848357" y="201.928339" style="stroke: #000000; stroke-width: 1.5"/>
      </g>
     </g>
     <g id="line2d_124">
      <g>
       <use xlink:href="#m3a7998c2ea" x="421.2" y="201.928339" style="stroke: #000000; stroke-width: 1.5"/>
      </g>
     </g>
    </g>
    <g id="ytick_18">
     <g id="line2d_125">
      <g>
       <use xlink:href="#me742c81bda" x="58.848357" y="199.204108" style="stroke: #000000; stroke-width: 1.5"/>
      </g>
     </g>
     <g id="line2d_126">
      <g>
       <use xlink:href="#m3a7998c2ea" x="421.2" y="199.204108" style="stroke: #000000; stroke-width: 1.5"/>
      </g>
     </g>
    </g>
    <g id="ytick_19">
     <g id="line2d_127">
      <g>
       <use xlink:href="#me742c81bda" x="58.848357" y="196.900803" style="stroke: #000000; stroke-width: 1.5"/>
      </g>
     </g>
     <g id="line2d_128">
      <g>
       <use xlink:href="#m3a7998c2ea" x="421.2" y="196.900803" style="stroke: #000000; stroke-width: 1.5"/>
      </g>
     </g>
    </g>
    <g id="ytick_20">
     <g id="line2d_129">
      <g>
       <use xlink:href="#me742c81bda" x="58.848357" y="194.90559" style="stroke: #000000; stroke-width: 1.5"/>
      </g>
     </g>
     <g id="line2d_130">
      <g>
       <use xlink:href="#m3a7998c2ea" x="421.2" y="194.90559" style="stroke: #000000; stroke-width: 1.5"/>
      </g>
     </g>
    </g>
    <g id="ytick_21">
     <g id="line2d_131">
      <g>
       <use xlink:href="#me742c81bda" x="58.848357" y="193.145688" style="stroke: #000000; stroke-width: 1.5"/>
      </g>
     </g>
     <g id="line2d_132">
      <g>
       <use xlink:href="#m3a7998c2ea" x="421.2" y="193.145688" style="stroke: #000000; stroke-width: 1.5"/>
      </g>
     </g>
    </g>
    <g id="ytick_22">
     <g id="line2d_133">
      <g>
       <use xlink:href="#me742c81bda" x="58.848357" y="181.214463" style="stroke: #000000; stroke-width: 1.5"/>
      </g>
     </g>
     <g id="line2d_134">
      <g>
       <use xlink:href="#m3a7998c2ea" x="421.2" y="181.214463" style="stroke: #000000; stroke-width: 1.5"/>
      </g>
     </g>
    </g>
    <g id="ytick_23">
     <g id="line2d_135">
      <g>
       <use xlink:href="#me742c81bda" x="58.848357" y="175.156043" style="stroke: #000000; stroke-width: 1.5"/>
      </g>
     </g>
     <g id="line2d_136">
      <g>
       <use xlink:href="#m3a7998c2ea" x="421.2" y="175.156043" style="stroke: #000000; stroke-width: 1.5"/>
      </g>
     </g>
    </g>
    <g id="ytick_24">
     <g id="line2d_137">
      <g>
       <use xlink:href="#me742c81bda" x="58.848357" y="170.857525" style="stroke: #000000; stroke-width: 1.5"/>
      </g>
     </g>
     <g id="line2d_138">
      <g>
       <use xlink:href="#m3a7998c2ea" x="421.2" y="170.857525" style="stroke: #000000; stroke-width: 1.5"/>
      </g>
     </g>
    </g>
    <g id="ytick_25">
     <g id="line2d_139">
      <g>
       <use xlink:href="#me742c81bda" x="58.848357" y="167.523336" style="stroke: #000000; stroke-width: 1.5"/>
      </g>
     </g>
     <g id="line2d_140">
      <g>
       <use xlink:href="#m3a7998c2ea" x="421.2" y="167.523336" style="stroke: #000000; stroke-width: 1.5"/>
      </g>
     </g>
    </g>
    <g id="ytick_26">
     <g id="line2d_141">
      <g>
       <use xlink:href="#me742c81bda" x="58.848357" y="164.799105" style="stroke: #000000; stroke-width: 1.5"/>
      </g>
     </g>
     <g id="line2d_142">
      <g>
       <use xlink:href="#m3a7998c2ea" x="421.2" y="164.799105" style="stroke: #000000; stroke-width: 1.5"/>
      </g>
     </g>
    </g>
    <g id="ytick_27">
     <g id="line2d_143">
      <g>
       <use xlink:href="#me742c81bda" x="58.848357" y="162.4958" style="stroke: #000000; stroke-width: 1.5"/>
      </g>
     </g>
     <g id="line2d_144">
      <g>
       <use xlink:href="#m3a7998c2ea" x="421.2" y="162.4958" style="stroke: #000000; stroke-width: 1.5"/>
      </g>
     </g>
    </g>
    <g id="ytick_28">
     <g id="line2d_145">
      <g>
       <use xlink:href="#me742c81bda" x="58.848357" y="160.500587" style="stroke: #000000; stroke-width: 1.5"/>
      </g>
     </g>
     <g id="line2d_146">
      <g>
       <use xlink:href="#m3a7998c2ea" x="421.2" y="160.500587" style="stroke: #000000; stroke-width: 1.5"/>
      </g>
     </g>
    </g>
    <g id="ytick_29">
     <g id="line2d_147">
      <g>
       <use xlink:href="#me742c81bda" x="58.848357" y="158.740685" style="stroke: #000000; stroke-width: 1.5"/>
      </g>
     </g>
     <g id="line2d_148">
      <g>
       <use xlink:href="#m3a7998c2ea" x="421.2" y="158.740685" style="stroke: #000000; stroke-width: 1.5"/>
      </g>
     </g>
    </g>
    <g id="ytick_30">
     <g id="line2d_149">
      <g>
       <use xlink:href="#me742c81bda" x="58.848357" y="146.80946" style="stroke: #000000; stroke-width: 1.5"/>
      </g>
     </g>
     <g id="line2d_150">
      <g>
       <use xlink:href="#m3a7998c2ea" x="421.2" y="146.80946" style="stroke: #000000; stroke-width: 1.5"/>
      </g>
     </g>
    </g>
    <g id="ytick_31">
     <g id="line2d_151">
      <g>
       <use xlink:href="#me742c81bda" x="58.848357" y="140.75104" style="stroke: #000000; stroke-width: 1.5"/>
      </g>
     </g>
     <g id="line2d_152">
      <g>
       <use xlink:href="#m3a7998c2ea" x="421.2" y="140.75104" style="stroke: #000000; stroke-width: 1.5"/>
      </g>
     </g>
    </g>
    <g id="ytick_32">
     <g id="line2d_153">
      <g>
       <use xlink:href="#me742c81bda" x="58.848357" y="136.452522" style="stroke: #000000; stroke-width: 1.5"/>
      </g>
     </g>
     <g id="line2d_154">
      <g>
       <use xlink:href="#m3a7998c2ea" x="421.2" y="136.452522" style="stroke: #000000; stroke-width: 1.5"/>
      </g>
     </g>
    </g>
    <g id="ytick_33">
     <g id="line2d_155">
      <g>
       <use xlink:href="#me742c81bda" x="58.848357" y="133.118333" style="stroke: #000000; stroke-width: 1.5"/>
      </g>
     </g>
     <g id="line2d_156">
      <g>
       <use xlink:href="#m3a7998c2ea" x="421.2" y="133.118333" style="stroke: #000000; stroke-width: 1.5"/>
      </g>
     </g>
    </g>
    <g id="ytick_34">
     <g id="line2d_157">
      <g>
       <use xlink:href="#me742c81bda" x="58.848357" y="130.394102" style="stroke: #000000; stroke-width: 1.5"/>
      </g>
     </g>
     <g id="line2d_158">
      <g>
       <use xlink:href="#m3a7998c2ea" x="421.2" y="130.394102" style="stroke: #000000; stroke-width: 1.5"/>
      </g>
     </g>
    </g>
    <g id="ytick_35">
     <g id="line2d_159">
      <g>
       <use xlink:href="#me742c81bda" x="58.848357" y="128.090798" style="stroke: #000000; stroke-width: 1.5"/>
      </g>
     </g>
     <g id="line2d_160">
      <g>
       <use xlink:href="#m3a7998c2ea" x="421.2" y="128.090798" style="stroke: #000000; stroke-width: 1.5"/>
      </g>
     </g>
    </g>
    <g id="ytick_36">
     <g id="line2d_161">
      <g>
       <use xlink:href="#me742c81bda" x="58.848357" y="126.095584" style="stroke: #000000; stroke-width: 1.5"/>
      </g>
     </g>
     <g id="line2d_162">
      <g>
       <use xlink:href="#m3a7998c2ea" x="421.2" y="126.095584" style="stroke: #000000; stroke-width: 1.5"/>
      </g>
     </g>
    </g>
    <g id="ytick_37">
     <g id="line2d_163">
      <g>
       <use xlink:href="#me742c81bda" x="58.848357" y="124.335682" style="stroke: #000000; stroke-width: 1.5"/>
      </g>
     </g>
     <g id="line2d_164">
      <g>
       <use xlink:href="#m3a7998c2ea" x="421.2" y="124.335682" style="stroke: #000000; stroke-width: 1.5"/>
      </g>
     </g>
    </g>
    <g id="ytick_38">
     <g id="line2d_165">
      <g>
       <use xlink:href="#me742c81bda" x="58.848357" y="112.404457" style="stroke: #000000; stroke-width: 1.5"/>
      </g>
     </g>
     <g id="line2d_166">
      <g>
       <use xlink:href="#m3a7998c2ea" x="421.2" y="112.404457" style="stroke: #000000; stroke-width: 1.5"/>
      </g>
     </g>
    </g>
    <g id="ytick_39">
     <g id="line2d_167">
      <g>
       <use xlink:href="#me742c81bda" x="58.848357" y="106.346037" style="stroke: #000000; stroke-width: 1.5"/>
      </g>
     </g>
     <g id="line2d_168">
      <g>
       <use xlink:href="#m3a7998c2ea" x="421.2" y="106.346037" style="stroke: #000000; stroke-width: 1.5"/>
      </g>
     </g>
    </g>
    <g id="ytick_40">
     <g id="line2d_169">
      <g>
       <use xlink:href="#me742c81bda" x="58.848357" y="102.047519" style="stroke: #000000; stroke-width: 1.5"/>
      </g>
     </g>
     <g id="line2d_170">
      <g>
       <use xlink:href="#m3a7998c2ea" x="421.2" y="102.047519" style="stroke: #000000; stroke-width: 1.5"/>
      </g>
     </g>
    </g>
    <g id="ytick_41">
     <g id="line2d_171">
      <g>
       <use xlink:href="#me742c81bda" x="58.848357" y="98.71333" style="stroke: #000000; stroke-width: 1.5"/>
      </g>
     </g>
     <g id="line2d_172">
      <g>
       <use xlink:href="#m3a7998c2ea" x="421.2" y="98.71333" style="stroke: #000000; stroke-width: 1.5"/>
      </g>
     </g>
    </g>
    <g id="ytick_42">
     <g id="line2d_173">
      <g>
       <use xlink:href="#me742c81bda" x="58.848357" y="95.989099" style="stroke: #000000; stroke-width: 1.5"/>
      </g>
     </g>
     <g id="line2d_174">
      <g>
       <use xlink:href="#m3a7998c2ea" x="421.2" y="95.989099" style="stroke: #000000; stroke-width: 1.5"/>
      </g>
     </g>
    </g>
    <g id="ytick_43">
     <g id="line2d_175">
      <g>
       <use xlink:href="#me742c81bda" x="58.848357" y="93.685795" style="stroke: #000000; stroke-width: 1.5"/>
      </g>
     </g>
     <g id="line2d_176">
      <g>
       <use xlink:href="#m3a7998c2ea" x="421.2" y="93.685795" style="stroke: #000000; stroke-width: 1.5"/>
      </g>
     </g>
    </g>
    <g id="ytick_44">
     <g id="line2d_177">
      <g>
       <use xlink:href="#me742c81bda" x="58.848357" y="91.690582" style="stroke: #000000; stroke-width: 1.5"/>
      </g>
     </g>
     <g id="line2d_178">
      <g>
       <use xlink:href="#m3a7998c2ea" x="421.2" y="91.690582" style="stroke: #000000; stroke-width: 1.5"/>
      </g>
     </g>
    </g>
    <g id="ytick_45">
     <g id="line2d_179">
      <g>
       <use xlink:href="#me742c81bda" x="58.848357" y="89.930679" style="stroke: #000000; stroke-width: 1.5"/>
      </g>
     </g>
     <g id="line2d_180">
      <g>
       <use xlink:href="#m3a7998c2ea" x="421.2" y="89.930679" style="stroke: #000000; stroke-width: 1.5"/>
      </g>
     </g>
    </g>
    <g id="ytick_46">
     <g id="line2d_181">
      <g>
       <use xlink:href="#me742c81bda" x="58.848357" y="77.999454" style="stroke: #000000; stroke-width: 1.5"/>
      </g>
     </g>
     <g id="line2d_182">
      <g>
       <use xlink:href="#m3a7998c2ea" x="421.2" y="77.999454" style="stroke: #000000; stroke-width: 1.5"/>
      </g>
     </g>
    </g>
    <g id="ytick_47">
     <g id="line2d_183">
      <g>
       <use xlink:href="#me742c81bda" x="58.848357" y="71.941034" style="stroke: #000000; stroke-width: 1.5"/>
      </g>
     </g>
     <g id="line2d_184">
      <g>
       <use xlink:href="#m3a7998c2ea" x="421.2" y="71.941034" style="stroke: #000000; stroke-width: 1.5"/>
      </g>
     </g>
    </g>
    <g id="ytick_48">
     <g id="line2d_185">
      <g>
       <use xlink:href="#me742c81bda" x="58.848357" y="67.642516" style="stroke: #000000; stroke-width: 1.5"/>
      </g>
     </g>
     <g id="line2d_186">
      <g>
       <use xlink:href="#m3a7998c2ea" x="421.2" y="67.642516" style="stroke: #000000; stroke-width: 1.5"/>
      </g>
     </g>
    </g>
    <g id="ytick_49">
     <g id="line2d_187">
      <g>
       <use xlink:href="#me742c81bda" x="58.848357" y="64.308327" style="stroke: #000000; stroke-width: 1.5"/>
      </g>
     </g>
     <g id="line2d_188">
      <g>
       <use xlink:href="#m3a7998c2ea" x="421.2" y="64.308327" style="stroke: #000000; stroke-width: 1.5"/>
      </g>
     </g>
    </g>
    <g id="ytick_50">
     <g id="line2d_189">
      <g>
       <use xlink:href="#me742c81bda" x="58.848357" y="61.584096" style="stroke: #000000; stroke-width: 1.5"/>
      </g>
     </g>
     <g id="line2d_190">
      <g>
       <use xlink:href="#m3a7998c2ea" x="421.2" y="61.584096" style="stroke: #000000; stroke-width: 1.5"/>
      </g>
     </g>
    </g>
    <g id="ytick_51">
     <g id="line2d_191">
      <g>
       <use xlink:href="#me742c81bda" x="58.848357" y="59.280792" style="stroke: #000000; stroke-width: 1.5"/>
      </g>
     </g>
     <g id="line2d_192">
      <g>
       <use xlink:href="#m3a7998c2ea" x="421.2" y="59.280792" style="stroke: #000000; stroke-width: 1.5"/>
      </g>
     </g>
    </g>
    <g id="ytick_52">
     <g id="line2d_193">
      <g>
       <use xlink:href="#me742c81bda" x="58.848357" y="57.285579" style="stroke: #000000; stroke-width: 1.5"/>
      </g>
     </g>
     <g id="line2d_194">
      <g>
       <use xlink:href="#m3a7998c2ea" x="421.2" y="57.285579" style="stroke: #000000; stroke-width: 1.5"/>
      </g>
     </g>
    </g>
    <g id="ytick_53">
     <g id="line2d_195">
      <g>
       <use xlink:href="#me742c81bda" x="58.848357" y="55.525676" style="stroke: #000000; stroke-width: 1.5"/>
      </g>
     </g>
     <g id="line2d_196">
      <g>
       <use xlink:href="#m3a7998c2ea" x="421.2" y="55.525676" style="stroke: #000000; stroke-width: 1.5"/>
      </g>
     </g>
    </g>
    <g id="ytick_54">
     <g id="line2d_197">
      <g>
       <use xlink:href="#me742c81bda" x="58.848357" y="43.594451" style="stroke: #000000; stroke-width: 1.5"/>
      </g>
     </g>
     <g id="line2d_198">
      <g>
       <use xlink:href="#m3a7998c2ea" x="421.2" y="43.594451" style="stroke: #000000; stroke-width: 1.5"/>
      </g>
     </g>
    </g>
    <g id="ytick_55">
     <g id="line2d_199">
      <g>
       <use xlink:href="#me742c81bda" x="58.848357" y="37.536031" style="stroke: #000000; stroke-width: 1.5"/>
      </g>
     </g>
     <g id="line2d_200">
      <g>
       <use xlink:href="#m3a7998c2ea" x="421.2" y="37.536031" style="stroke: #000000; stroke-width: 1.5"/>
      </g>
     </g>
    </g>
    <g id="ytick_56">
     <g id="line2d_201">
      <g>
       <use xlink:href="#me742c81bda" x="58.848357" y="33.237514" style="stroke: #000000; stroke-width: 1.5"/>
      </g>
     </g>
     <g id="line2d_202">
      <g>
       <use xlink:href="#m3a7998c2ea" x="421.2" y="33.237514" style="stroke: #000000; stroke-width: 1.5"/>
      </g>
     </g>
    </g>
    <g id="ytick_57">
     <g id="line2d_203">
      <g>
       <use xlink:href="#me742c81bda" x="58.848357" y="29.903324" style="stroke: #000000; stroke-width: 1.5"/>
      </g>
     </g>
     <g id="line2d_204">
      <g>
       <use xlink:href="#m3a7998c2ea" x="421.2" y="29.903324" style="stroke: #000000; stroke-width: 1.5"/>
      </g>
     </g>
    </g>
    <g id="ytick_58">
     <g id="line2d_205">
      <g>
       <use xlink:href="#me742c81bda" x="58.848357" y="27.179093" style="stroke: #000000; stroke-width: 1.5"/>
      </g>
     </g>
     <g id="line2d_206">
      <g>
       <use xlink:href="#m3a7998c2ea" x="421.2" y="27.179093" style="stroke: #000000; stroke-width: 1.5"/>
      </g>
     </g>
    </g>
    <g id="ytick_59">
     <g id="line2d_207">
      <g>
       <use xlink:href="#me742c81bda" x="58.848357" y="24.875789" style="stroke: #000000; stroke-width: 1.5"/>
      </g>
     </g>
     <g id="line2d_208">
      <g>
       <use xlink:href="#m3a7998c2ea" x="421.2" y="24.875789" style="stroke: #000000; stroke-width: 1.5"/>
      </g>
     </g>
    </g>
    <g id="ytick_60">
     <g id="line2d_209">
      <g>
       <use xlink:href="#me742c81bda" x="58.848357" y="22.880576" style="stroke: #000000; stroke-width: 1.5"/>
      </g>
     </g>
     <g id="line2d_210">
      <g>
       <use xlink:href="#m3a7998c2ea" x="421.2" y="22.880576" style="stroke: #000000; stroke-width: 1.5"/>
      </g>
     </g>
    </g>
    <g id="ytick_61">
     <g id="line2d_211">
      <g>
       <use xlink:href="#me742c81bda" x="58.848357" y="21.120673" style="stroke: #000000; stroke-width: 1.5"/>
      </g>
     </g>
     <g id="line2d_212">
      <g>
       <use xlink:href="#m3a7998c2ea" x="421.2" y="21.120673" style="stroke: #000000; stroke-width: 1.5"/>
      </g>
     </g>
    </g>
    <g id="text_21">
     <!-- $n_p$ [cm$^{-3}$] -->
     <g transform="translate(26.508357 155.262) rotate(-90) scale(0.12 -0.12)">
      <defs>
       <path id="DejaVuSans-Oblique-6e" d="M 3566 2113 
L 3156 0 
L 2578 0 
L 2988 2091 
Q 3016 2238 3031 2350 
Q 3047 2463 3047 2528 
Q 3047 2791 2881 2937 
Q 2716 3084 2419 3084 
Q 1956 3084 1622 2776 
Q 1288 2469 1184 1941 
L 800 0 
L 225 0 
L 903 3500 
L 1478 3500 
L 1363 2950 
Q 1603 3253 1940 3418 
Q 2278 3584 2650 3584 
Q 3113 3584 3367 3334 
Q 3622 3084 3622 2631 
Q 3622 2519 3608 2391 
Q 3594 2263 3566 2113 
z
" transform="scale(0.015625)"/>
       <path id="DejaVuSans-Oblique-70" d="M 3175 2156 
Q 3175 2616 2975 2859 
Q 2775 3103 2400 3103 
Q 2144 3103 1911 2972 
Q 1678 2841 1497 2591 
Q 1319 2344 1212 1994 
Q 1106 1644 1106 1300 
Q 1106 863 1306 627 
Q 1506 391 1875 391 
Q 2147 391 2380 519 
Q 2613 647 2778 891 
Q 2956 1147 3065 1494 
Q 3175 1841 3175 2156 
z
M 1394 2969 
Q 1625 3272 1939 3428 
Q 2253 3584 2638 3584 
Q 3175 3584 3472 3232 
Q 3769 2881 3769 2247 
Q 3769 1728 3584 1258 
Q 3400 788 3053 416 
Q 2822 169 2531 39 
Q 2241 -91 1919 -91 
Q 1547 -91 1294 64 
Q 1041 219 916 525 
L 556 -1331 
L -19 -1331 
L 922 3500 
L 1497 3500 
L 1394 2969 
z
" transform="scale(0.015625)"/>
       <path id="DejaVuSans-6d" d="M 3328 2828 
Q 3544 3216 3844 3400 
Q 4144 3584 4550 3584 
Q 5097 3584 5394 3201 
Q 5691 2819 5691 2113 
L 5691 0 
L 5113 0 
L 5113 2094 
Q 5113 2597 4934 2840 
Q 4756 3084 4391 3084 
Q 3944 3084 3684 2787 
Q 3425 2491 3425 1978 
L 3425 0 
L 2847 0 
L 2847 2094 
Q 2847 2600 2669 2842 
Q 2491 3084 2119 3084 
Q 1678 3084 1418 2786 
Q 1159 2488 1159 1978 
L 1159 0 
L 581 0 
L 581 3500 
L 1159 3500 
L 1159 2956 
Q 1356 3278 1631 3431 
Q 1906 3584 2284 3584 
Q 2666 3584 2933 3390 
Q 3200 3197 3328 2828 
z
" transform="scale(0.015625)"/>
       <path id="DejaVuSans-2212" d="M 678 2272 
L 4684 2272 
L 4684 1741 
L 678 1741 
L 678 2272 
z
" transform="scale(0.015625)"/>
      </defs>
      <use xlink:href="#DejaVuSans-Oblique-6e" transform="translate(0 0.765625)"/>
      <use xlink:href="#DejaVuSans-Oblique-70" transform="translate(63.378906 -15.640625) scale(0.7)"/>
      <use xlink:href="#DejaVuSans-20" transform="translate(110.546875 0.765625)"/>
      <use xlink:href="#DejaVuSans-5b" transform="translate(142.333984 0.765625)"/>
      <use xlink:href="#DejaVuSans-63" transform="translate(181.347656 0.765625)"/>
      <use xlink:href="#DejaVuSans-6d" transform="translate(236.328125 0.765625)"/>
      <use xlink:href="#DejaVuSans-2212" transform="translate(334.697266 39.046875) scale(0.7)"/>
      <use xlink:href="#DejaVuSans-33" transform="translate(393.349609 39.046875) scale(0.7)"/>
      <use xlink:href="#DejaVuSans-5d" transform="translate(440.620117 0.765625)"/>
     </g>
    </g>
   </g>
  </g>
 </g>
 <defs>
  <clipPath id="p93c2a45741">
   <rect x="58.848357" y="10.8" width="362.351643" height="231.324"/>
  </clipPath>
 </defs>
</svg>
