<?xml version="1.0" encoding="utf-8" standalone="no"?>
<!DOCTYPE svg PUBLIC "-//W3C//DTD SVG 1.1//EN"
  "http://www.w3.org/Graphics/SVG/1.1/DTD/svg11.dtd">
<svg xmlns:xlink="http://www.w3.org/1999/xlink" width="432pt" height="288pt" viewBox="0 0 432 288" xmlns="http://www.w3.org/2000/svg" version="1.1">
 <metadata>
  <rdf:RDF xmlns:dc="http://purl.org/dc/elements/1.1/" xmlns:cc="http://creativecommons.org/ns#" xmlns:rdf="http://www.w3.org/1999/02/22-rdf-syntax-ns#">
   <cc:Work>
    <dc:type rdf:resource="http://purl.org/dc/dcmitype/StillImage"/>
    <dc:date>2022-11-23T14:47:58.580890</dc:date>
    <dc:format>image/svg+xml</dc:format>
    <dc:creator>
     <cc:Agent>
      <dc:title>Matplotlib v3.6.2, https://matplotlib.org/</dc:title>
     </cc:Agent>
    </dc:creator>
   </cc:Work>
  </rdf:RDF>
 </metadata>
 <defs>
  <style type="text/css">*{stroke-linejoin: round; stroke-linecap: butt}</style>
 </defs>
 <g id="figure_1">
  <g id="patch_1">
   <path d="M 0 288 
L 432 288 
L 432 0 
L 0 0 
z
" style="fill: #ffffff"/>
  </g>
  <g id="axes_1">
   <g id="patch_2">
    <path d="M 58.848357 242.124 
L 421.2 242.124 
L 421.2 10.8 
L 58.848357 10.8 
z
" style="fill: #ffffff"/>
   </g>
   <g id="patch_3">
    <path d="M 58.848357 242.124 
L 58.848357 10.8 
" style="fill: none; stroke: #000000; stroke-width: 1.5; stroke-linejoin: miter; stroke-linecap: square"/>
   </g>
   <g id="patch_4">
    <path d="M 421.2 242.124 
L 421.2 10.8 
" style="fill: none; stroke: #000000; stroke-width: 1.5; stroke-linejoin: miter; stroke-linecap: square"/>
   </g>
   <g id="patch_5">
    <path d="M 58.848357 242.124 
L 421.2 242.124 
" style="fill: none; stroke: #000000; stroke-width: 1.5; stroke-linejoin: miter; stroke-linecap: square"/>
   </g>
   <g id="patch_6">
    <path d="M 58.848357 10.8 
L 421.2 10.8 
" style="fill: none; stroke: #000000; stroke-width: 1.5; stroke-linejoin: miter; stroke-linecap: square"/>
   </g>
   <g id="PolyCollection_1">
    <path d="M 229.269467 113.466746 
L 229.269467 115.354085 
L 240.401432 118.447021 
L 241.164764 118.947662 
L 262.853517 124.475181 
L 264.36325 126.022818 
L 264.411576 125.917566 
L 265.468689 127.119533 
L 266.328098 125.95718 
L 267.086577 126.433195 
L 268.55587 131.919239 
L 268.826826 129.36117 
L 277.728207 134.869273 
L 278.37144 138.046923 
L 279.259444 175.477334 
L 280.456693 175.923995 
L 281.144523 219.014095 
L 281.837415 178.643406 
L 282.682826 177.629754 
L 283.53413 187.04904 
L 284.413136 197.176659 
L 285.20043 189.602102 
L 286.081221 178.193348 
L 286.93228 178.100061 
L 287.799159 178.370183 
L 288.6644 179.210673 
L 289.477317 180.597294 
L 290.321481 212.933389 
L 291.441321 185.204323 
L 292.037708 181.424079 
L 292.86889 180.914717 
L 293.809485 181.797413 
L 294.608735 188.65861 
L 295.495003 184.03414 
L 296.291881 181.663724 
L 297.100593 184.113811 
L 297.869647 181.803565 
L 298.849411 186.488955 
L 299.756706 184.847806 
L 300.59356 180.4998 
L 301.432321 181.436573 
L 302.204822 181.248945 
L 303.025466 189.255661 
L 303.950707 193.788535 
L 304.798197 196.024755 
L 305.639574 199.037188 
L 306.482541 188.804818 
L 307.421938 186.809167 
L 308.178547 185.828482 
L 309.074277 181.548827 
L 309.902231 181.380522 
L 310.733413 182.329644 
L 311.615206 183.298742 
L 312.464774 187.270505 
L 313.268669 186.218078 
L 314.14479 184.820675 
L 314.975972 200.771331 
L 315.843193 203.086986 
L 316.693543 203.714649 
L 317.54981 199.300333 
L 318.422484 193.973371 
L 319.237382 198.964866 
L 320.079346 201.831756 
L 320.957545 204.710105 
L 321.79232 195.693606 
L 322.656974 202.457351 
L 323.495931 199.525337 
L 324.351562 196.491735 
L 325.14514 204.316062 
L 325.872457 214.187759 
L 327.035451 43351.239469 
L 327.761399 43351.239469 
L 328.581065 190.226728 
L 329.457919 43351.239469 
L 330.364481 210.216069 
L 331.142825 188.248031 
L 332.002296 188.65547 
L 332.866241 190.169399 
L 333.699892 189.591127 
L 334.534349 188.985616 
L 335.426338 179.464012 
L 336.256737 180.786968 
L 337.108775 180.963703 
L 337.957781 181.277015 
L 338.81175 178.334844 
L 339.6921 180.091567 
L 340.525385 178.10593 
L 341.362728 182.971757 
L 342.212907 191.800811 
L 343.094138 43351.239469 
L 343.911187 184.526909 
L 344.753787 195.604074 
L 345.595384 194.681423 
L 346.465221 181.62811 
L 347.311244 196.401115 
L 348.194309 43351.239469 
L 349.034708 205.33225 
L 349.890462 187.030355 
L 350.692377 186.162662 
L 351.560282 210.612207 
L 352.412075 192.633692 
L 353.26756 180.546732 
L 354.127984 186.339364 
L 354.977748 182.041161 
L 355.815751 186.976572 
L 356.694048 177.660902 
L 357.572467 190.422027 
L 358.379052 199.540542 
L 359.224341 184.775601 
L 360.080975 200.801465 
L 360.863501 188.414993 
L 361.809891 191.489747 
L 362.608603 216.92558 
L 363.460543 195.096738 
L 364.319451 199.121634 
L 365.200364 186.909062 
L 366.029859 181.505263 
L 366.837788 180.202833 
L 367.721977 172.523196 
L 368.583648 181.644466 
L 369.393289 188.619305 
L 370.28655 186.429599 
L 371.11778 190.157731 
L 371.98862 187.151544 
L 372.866917 183.68435 
L 373.675017 185.755001 
L 374.562067 208.979498 
L 375.35897 193.759096 
L 376.251863 43351.239469 
L 377.111969 205.256808 
L 377.906965 181.840874 
L 378.738586 179.514925 
L 379.649744 189.567157 
L 380.387429 188.051924 
L 381.398636 178.199308 
L 382.189011 180.153981 
L 383.159827 181.729599 
L 383.899589 177.730566 
L 384.741333 177.934201 
L 385.586574 180.956402 
L 386.43712 181.254761 
L 387.308546 186.245709 
L 388.163004 190.660111 
L 389.012352 192.376738 
L 389.830429 195.836879 
L 390.660901 186.993146 
L 391.565946 194.870828 
L 392.400918 206.379795 
L 393.248896 216.155966 
L 394.106998 209.458847 
L 394.943142 208.727649 
L 395.78205 207.992059 
L 396.663623 231.609273 
L 397.478301 220.975405 
L 398.359288 191.689779 
L 399.206875 196.746649 
L 400.044732 227.853821 
L 400.910779 213.916629 
L 401.749051 206.934417 
L 402.582506 211.556221 
L 403.462197 186.887987 
L 404.318464 207.460623 
L 404.318464 160.269147 
L 404.318464 160.269147 
L 403.462197 173.73077 
L 402.582506 159.666832 
L 401.749051 158.52336 
L 400.910779 161.866158 
L 400.044732 161.098786 
L 399.206875 171.285556 
L 398.359288 173.619882 
L 397.478301 163.690342 
L 396.663623 163.957026 
L 395.78205 166.927906 
L 394.943142 160.640894 
L 394.106998 158.23397 
L 393.248896 159.642812 
L 392.400918 161.559853 
L 391.565946 158.770347 
L 390.660901 158.500331 
L 389.830429 158.487279 
L 389.012352 159.088527 
L 388.163004 156.045664 
L 387.308546 155.416261 
L 386.43712 156.308865 
L 385.586574 154.69532 
L 384.741333 155.836518 
L 383.899589 156.887546 
L 383.159827 156.564908 
L 382.189011 170.443626 
L 381.398636 170.410524 
L 380.387429 153.046768 
L 379.649744 153.422468 
L 378.738586 147.849606 
L 377.906965 154.778439 
L 377.111969 152.692907 
L 376.251863 164.261585 
L 375.35897 165.303217 
L 374.562067 162.871542 
L 373.675017 163.99407 
L 372.866917 165.223759 
L 371.98862 169.511053 
L 371.11778 168.272912 
L 370.28655 170.267583 
L 369.393289 165.583977 
L 368.583648 167.231621 
L 367.721977 164.112756 
L 366.837788 164.010926 
L 366.029859 163.143003 
L 365.200364 171.997875 
L 364.319451 173.883213 
L 363.460543 175.471768 
L 362.608603 169.329279 
L 361.809891 175.400132 
L 360.863501 175.107668 
L 360.080975 167.129633 
L 359.224341 172.877233 
L 358.379052 168.702078 
L 357.572467 167.921475 
L 356.694048 164.516622 
L 355.815751 160.210512 
L 354.977748 168.303194 
L 354.127984 173.06568 
L 353.26756 173.566771 
L 352.412075 166.675552 
L 351.560282 159.780213 
L 350.692377 167.428498 
L 349.890462 167.782441 
L 349.034708 159.479214 
L 348.194309 155.269091 
L 347.311244 164.001671 
L 346.465221 172.541206 
L 345.595384 162.077491 
L 344.753787 161.718272 
L 343.911187 166.596655 
L 343.094138 157.135476 
L 342.212907 169.499719 
L 341.362728 171.763401 
L 340.525385 167.394851 
L 339.6921 164.920999 
L 338.81175 161.16054 
L 337.957781 163.140504 
L 337.108775 164.451373 
L 336.256737 166.155081 
L 335.426338 168.999944 
L 334.534349 167.991702 
L 333.699892 165.555544 
L 332.866241 169.960132 
L 332.002296 170.786675 
L 331.142825 170.238238 
L 330.364481 168.195753 
L 329.457919 150.311142 
L 328.581065 175.535826 
L 327.761399 160.794201 
L 327.035451 159.926134 
L 325.872457 170.80153 
L 325.14514 171.601545 
L 324.351562 168.3646 
L 323.495931 170.154008 
L 322.656974 172.985771 
L 321.79232 167.686722 
L 320.957545 166.838977 
L 320.079346 166.844835 
L 319.237382 166.67155 
L 318.422484 164.896714 
L 317.54981 165.02964 
L 316.693543 166.852145 
L 315.843193 175.776208 
L 314.975972 171.775038 
L 314.14479 163.936704 
L 313.268669 165.052502 
L 312.464774 165.809787 
L 311.615206 165.513214 
L 310.733413 165.985221 
L 309.902231 165.21301 
L 309.074277 164.959174 
L 308.178547 167.21412 
L 307.421938 169.666802 
L 306.482541 169.989222 
L 305.639574 171.10177 
L 304.798197 168.616466 
L 303.950707 164.873075 
L 303.025466 165.371887 
L 302.204822 164.339635 
L 301.432321 164.768132 
L 300.59356 162.558654 
L 299.756706 164.329978 
L 298.849411 177.74284 
L 297.869647 165.516911 
L 297.100593 166.954064 
L 296.291881 169.050249 
L 295.495003 167.672364 
L 294.608735 165.435517 
L 293.809485 167.466001 
L 292.86889 173.581402 
L 292.037708 175.698587 
L 291.441321 173.488372 
L 290.321481 163.31295 
L 289.477317 175.050974 
L 288.6644 172.920515 
L 287.799159 172.319943 
L 286.93228 172.758103 
L 286.081221 175.203728 
L 285.20043 146.468549 
L 284.413136 149.341946 
L 283.53413 167.792075 
L 282.682826 173.446095 
L 281.837415 176.020627 
L 281.144523 163.158106 
L 280.456693 169.833199 
L 279.259444 168.184602 
L 278.37144 131.439251 
L 277.728207 133.616656 
L 268.826826 124.9149 
L 268.55587 127.92216 
L 267.086577 124.301642 
L 266.328098 119.733665 
L 265.468689 122.091322 
L 264.411576 123.529038 
L 264.36325 122.95907 
L 262.853517 123.561279 
L 241.164764 115.139464 
L 240.401432 114.415629 
L 229.269467 113.466746 
z
" clip-path="url(#p0fbfce8b88)" style="fill: #add8e6; stroke: #add8e6"/>
   </g>
   <g id="line2d_1">
    <path d="M 229.269467 114.386624 
L 240.401432 116.322936 
L 241.164764 116.946823 
L 264.36325 124.428292 
L 264.411576 124.685206 
L 265.468689 124.436991 
L 266.328098 122.587795 
L 267.086577 125.337075 
L 268.55587 129.814144 
L 268.826826 127.006244 
L 277.728207 134.232482 
L 278.37144 134.452842 
L 279.259444 171.477815 
L 280.456693 172.631793 
L 281.144523 175.203068 
L 281.837415 177.286088 
L 282.682826 175.42121 
L 283.53413 175.04488 
L 284.413136 160.911573 
L 285.20043 157.657522 
L 286.081221 176.638878 
L 286.93228 175.239042 
L 287.799159 175.10152 
L 288.6644 175.802445 
L 289.477317 177.619329 
L 290.321481 175.005523 
L 291.441321 178.443748 
L 292.037708 178.343135 
L 292.86889 176.89099 
L 293.809485 173.291579 
L 296.291881 174.313414 
L 297.100593 173.631691 
L 297.869647 171.941079 
L 298.849411 181.609341 
L 299.756706 171.906487 
L 300.59356 169.456066 
L 301.432321 171.304166 
L 302.204822 170.945417 
L 303.025466 173.735902 
L 303.950707 174.224947 
L 304.798197 177.694575 
L 305.639574 180.277684 
L 306.482541 177.124847 
L 307.421938 176.339465 
L 308.178547 174.295642 
L 309.074277 171.472255 
L 309.902231 171.601938 
L 310.733413 172.42642 
L 311.615206 172.367381 
L 312.464774 173.617913 
L 313.268669 172.789073 
L 314.14479 171.604201 
L 314.975972 181.141087 
L 315.843193 184.835976 
L 316.693543 177.3777 
L 317.54981 175.21818 
L 318.422484 174.276808 
L 319.237382 176.574461 
L 320.079346 177.130598 
L 320.957545 177.485037 
L 321.79232 176.875724 
L 322.656974 182.434165 
L 323.495931 179.585177 
L 324.351562 177.575532 
L 325.14514 181.567478 
L 325.872457 182.013266 
L 327.035451 173.498451 
L 327.761399 175.534009 
L 328.581065 181.474731 
L 329.457919 168.918287 
L 330.364481 179.281041 
L 331.142825 177.154645 
L 332.002296 177.664014 
L 332.866241 177.458917 
L 333.699892 173.952565 
L 334.534349 175.68626 
L 335.426338 173.509654 
L 336.256737 172.075484 
L 337.108775 170.941861 
L 337.957781 170.091841 
L 338.81175 167.842321 
L 339.6921 171.008804 
L 340.525385 171.99402 
L 341.362728 176.540388 
L 342.212907 177.506947 
L 343.094138 170.410938 
L 343.911187 173.491049 
L 344.753787 171.853225 
L 345.595384 172.026995 
L 346.465221 176.538245 
L 347.311244 173.920575 
L 348.194309 168.299098 
L 349.034708 170.899032 
L 349.890462 175.032863 
L 350.692377 174.54228 
L 351.560282 171.550177 
L 352.412075 175.47279 
L 353.26756 176.733071 
L 354.127984 178.549097 
L 355.815751 169.166395 
L 356.694048 169.957276 
L 357.572467 175.974963 
L 358.379052 178.37783 
L 359.224341 177.895952 
L 360.080975 177.234382 
L 360.863501 180.602169 
L 361.809891 181.765934 
L 362.608603 180.88165 
L 363.460543 182.820731 
L 364.319451 182.534431 
L 365.200364 178.005488 
L 366.029859 170.156144 
L 366.837788 170.407082 
L 367.721977 167.849242 
L 368.583648 173.083001 
L 369.393289 173.759634 
L 370.28655 176.654882 
L 371.11778 176.182369 
L 371.98862 176.32468 
L 372.866917 172.263652 
L 373.675017 171.874108 
L 374.562067 174.311463 
L 375.35897 174.573516 
L 376.251863 177.961848 
L 377.111969 164.565643 
L 377.906965 163.791148 
L 378.738586 157.656288 
L 379.649744 163.858721 
L 380.387429 163.334965 
L 381.398636 173.902439 
L 382.189011 174.67569 
L 383.159827 165.200913 
L 384.741333 163.796179 
L 385.586574 163.55269 
L 386.43712 164.899446 
L 387.308546 165.090558 
L 388.163004 166.281268 
L 389.012352 169.138377 
L 389.830429 169.071745 
L 390.660901 167.777247 
L 391.565946 169.201001 
L 392.400918 172.895574 
L 393.248896 171.718839 
L 394.106998 170.028039 
L 394.943142 172.228542 
L 395.78205 177.919573 
L 396.663623 176.427356 
L 397.478301 175.801555 
L 398.359288 180.552878 
L 399.206875 179.98243 
L 400.044732 173.545076 
L 400.910779 173.709355 
L 401.749051 170.133868 
L 402.582506 171.500603 
L 403.462197 179.175708 
L 404.318464 171.791746 
L 404.729471 179.974158 
L 404.729471 179.974158 
" clip-path="url(#p0fbfce8b88)" style="fill: none; stroke: #1f77b4; stroke-width: 1.5; stroke-linecap: square"/>
   </g>
   <g id="line2d_2">
    <path d="M 75.318887 21.314727 
L 76.000189 25.794392 
L 76.681491 28.034224 
L 77.36206 29.584877 
L 79.40609 33.676878 
L 81.10904 37.768879 
L 84.172639 45.651366 
L 86.215446 50.518693 
L 88.258252 54.955284 
L 90.640916 59.607243 
L 94.044371 65.422192 
L 97.788906 70.935626 
L 103.916104 78.516596 
L 105.957688 80.713355 
L 107.659416 82.479376 
L 110.723015 85.451461 
L 117.19007 91.051042 
L 125.358852 97.124433 
L 136.250154 103.930077 
L 138.291738 105.049993 
L 139.993466 105.997615 
L 153.608511 112.760185 
L 155.310239 113.492438 
L 157.011966 114.267764 
L 159.053551 115.129238 
L 160.415422 115.73227 
L 163.818878 117.110628 
L 164.83967 117.541365 
L 179.474284 123.011725 
L 180.495076 123.356314 
L 182.87774 124.174714 
L 184.239611 124.605451 
L 186.622274 125.423852 
L 188.321557 125.940736 
L 190.363141 126.629915 
L 192.404726 127.232947 
L 194.104008 127.792905 
L 196.145593 128.395937 
L 197.514799 128.826674 
L 200.240986 129.602 
L 201.597968 130.032737 
L 205.338835 131.066506 
L 206.365739 131.368022 
L 210.79121 132.574085 
L 211.805889 132.875601 
L 237.331806 139.207434 
L 238.35871 139.422803 
L 241.757276 140.198129 
L 242.784181 140.413498 
L 245.840445 141.102677 
L 247.209651 141.361119 
L 250.265915 142.050298 
L 251.622896 142.308741 
L 254.006782 142.825625 
L 255.375988 143.084067 
L 257.759874 143.600952 
L 259.116855 143.859394 
L 260.816138 144.203983 
L 262.173119 144.462425 
L 263.884627 144.807015 
L 265.241608 145.065457 
L 266.940891 145.410047 
L 268.640174 145.711563 
L 270.351682 146.056152 
L 272.393266 146.400742 
L 274.092549 146.745331 
L 275.791831 147.046847 
L 277.148813 147.305289 
L 279.190397 147.649879 
L 280.901905 147.994469 
L 283.285791 148.382132 
L 284.642772 148.640574 
L 286.684356 148.985164 
L 288.041337 149.243606 
L 290.425223 149.631269 
L 291.794429 149.889711 
L 294.508392 150.320448 
L 295.877598 150.57889 
L 298.933862 151.052701 
L 300.303068 151.311143 
L 303.701634 151.828028 
L 305.058615 152.08647 
L 308.811707 152.646428 
L 309.826387 152.818723 
L 312.894876 153.292533 
L 313.909555 153.464828 
L 317.650423 154.024786 
L 318.677327 154.197081 
L 322.760496 154.800113 
L 323.787401 154.972407 
L 331.269135 156.04925 
L 332.296039 156.221545 
L 342.16166 157.599903 
L 343.176339 157.772198 
L 355.780372 159.452072 
L 356.795051 159.624367 
L 400.695227 165.051652 
L 401.722132 165.1378 
L 404.106017 165.439316 
L 404.106017 165.439316 
" clip-path="url(#p0fbfce8b88)" style="fill: none; stroke: #000000; stroke-width: 2.5; stroke-linecap: square"/>
   </g>
   <g id="line2d_3">
    <path d="M 75.318887 22.176201 
L 76.340779 34.882942 
L 77.36206 44.660671 
L 78.044218 49.786441 
L 79.06501 55.902906 
L 80.428104 62.536255 
L 82.129832 69.341899 
L 83.832782 74.941479 
L 86.215446 81.273313 
L 87.917173 85.149945 
L 89.95998 89.28502 
L 92.002787 92.989358 
L 95.066386 97.89976 
L 100.171569 104.834625 
L 106.979703 112.415595 
L 108.681431 114.052396 
L 110.723015 115.990712 
L 115.488342 120.082713 
L 124.33806 126.672989 
L 133.867491 132.617159 
L 136.250154 133.90937 
L 137.951882 134.856991 
L 148.162249 139.939687 
L 149.52412 140.542719 
L 151.565704 141.49034 
L 153.267432 142.222593 
L 154.96916 142.99792 
L 157.69168 144.117836 
L 159.053551 144.720868 
L 165.179526 147.132995 
L 166.201541 147.563732 
L 174.029244 150.449669 
L 175.050036 150.794259 
L 177.772556 151.74188 
L 179.134427 152.172617 
L 181.517091 152.991017 
L 182.87774 153.421754 
L 184.579467 153.981712 
L 186.281195 154.498597 
L 187.979255 155.058555 
L 190.02084 155.661587 
L 191.390046 156.092323 
L 193.43163 156.695355 
L 194.788611 157.126092 
L 198.199402 158.073714 
L 199.214082 158.375229 
L 202.954949 159.408998 
L 203.981853 159.710514 
L 231.549354 166.559232 
L 232.564034 166.7746 
L 235.974825 167.549927 
L 237.331806 167.808369 
L 240.742596 168.583695 
L 242.099578 168.842138 
L 244.825765 169.445169 
L 246.182746 169.703612 
L 248.566632 170.220496 
L 249.923613 170.478938 
L 251.965198 170.909675 
L 253.66448 171.211191 
L 255.71829 171.641928 
L 257.075271 171.90037 
L 258.774554 172.24496 
L 260.473836 172.546476 
L 262.173119 172.891065 
L 263.884627 173.192581 
L 265.58391 173.537171 
L 267.283193 173.838686 
L 268.640174 174.097129 
L 270.351682 174.398644 
L 271.708663 174.657087 
L 273.750247 175.001676 
L 275.44953 175.346266 
L 277.833416 175.733929 
L 279.190397 175.992371 
L 281.244206 176.336961 
L 282.601188 176.595403 
L 285.327375 177.02614 
L 286.684356 177.284582 
L 289.410544 177.715319 
L 290.767525 177.973761 
L 293.836014 178.447572 
L 295.192995 178.706014 
L 298.591561 179.222898 
L 299.618465 179.395193 
L 302.674729 179.869004 
L 303.701634 180.041299 
L 307.100199 180.558183 
L 308.127104 180.730478 
L 311.867971 181.290436 
L 312.894876 181.462731 
L 319.36193 182.410352 
L 320.37661 182.582647 
L 326.159061 183.401047 
L 327.185966 183.573342 
L 335.010002 184.650184 
L 336.036907 184.822479 
L 349.985695 186.674648 
L 351.0126 186.846943 
L 389.472626 191.585049 
L 390.487305 191.671197 
L 399.680547 192.748039 
L 400.695227 192.834187 
L 404.448319 193.264924 
L 404.448319 193.264924 
" clip-path="url(#p0fbfce8b88)" style="fill: none; stroke-dasharray: 9.25,4; stroke-dashoffset: 0; stroke: #8b0000; stroke-width: 2.5"/>
   </g>
   <g id="legend_1">
    <g id="line2d_4">
     <path d="M 333.95625 23.898438 
L 343.95625 23.898438 
L 353.95625 23.898438 
" style="fill: none; stroke: #1f77b4; stroke-width: 1.5; stroke-linecap: square"/>
    </g>
    <g id="text_1">
     <!-- PSP -->
     <g transform="translate(361.95625 27.398438) scale(0.1 -0.1)">
      <defs>
       <path id="DejaVuSans-50" d="M 1259 4147 
L 1259 2394 
L 2053 2394 
Q 2494 2394 2734 2622 
Q 2975 2850 2975 3272 
Q 2975 3691 2734 3919 
Q 2494 4147 2053 4147 
L 1259 4147 
z
M 628 4666 
L 2053 4666 
Q 2838 4666 3239 4311 
Q 3641 3956 3641 3272 
Q 3641 2581 3239 2228 
Q 2838 1875 2053 1875 
L 1259 1875 
L 1259 0 
L 628 0 
L 628 4666 
z
" transform="scale(0.015625)"/>
       <path id="DejaVuSans-53" d="M 3425 4513 
L 3425 3897 
Q 3066 4069 2747 4153 
Q 2428 4238 2131 4238 
Q 1616 4238 1336 4038 
Q 1056 3838 1056 3469 
Q 1056 3159 1242 3001 
Q 1428 2844 1947 2747 
L 2328 2669 
Q 3034 2534 3370 2195 
Q 3706 1856 3706 1288 
Q 3706 609 3251 259 
Q 2797 -91 1919 -91 
Q 1588 -91 1214 -16 
Q 841 59 441 206 
L 441 856 
Q 825 641 1194 531 
Q 1563 422 1919 422 
Q 2459 422 2753 634 
Q 3047 847 3047 1241 
Q 3047 1584 2836 1778 
Q 2625 1972 2144 2069 
L 1759 2144 
Q 1053 2284 737 2584 
Q 422 2884 422 3419 
Q 422 4038 858 4394 
Q 1294 4750 2059 4750 
Q 2388 4750 2728 4690 
Q 3069 4631 3425 4513 
z
" transform="scale(0.015625)"/>
      </defs>
      <use xlink:href="#DejaVuSans-50"/>
      <use xlink:href="#DejaVuSans-53" x="60.302734"/>
      <use xlink:href="#DejaVuSans-50" x="123.779297"/>
     </g>
    </g>
    <g id="line2d_5">
     <path d="M 333.95625 38.576562 
L 343.95625 38.576562 
L 353.95625 38.576562 
" style="fill: none; stroke: #000000; stroke-width: 2.5; stroke-linecap: square"/>
    </g>
    <g id="text_2">
     <!-- Slow wind -->
     <g transform="translate(361.95625 42.076562) scale(0.1 -0.1)">
      <defs>
       <path id="DejaVuSans-6c" d="M 603 4863 
L 1178 4863 
L 1178 0 
L 603 0 
L 603 4863 
z
" transform="scale(0.015625)"/>
       <path id="DejaVuSans-6f" d="M 1959 3097 
Q 1497 3097 1228 2736 
Q 959 2375 959 1747 
Q 959 1119 1226 758 
Q 1494 397 1959 397 
Q 2419 397 2687 759 
Q 2956 1122 2956 1747 
Q 2956 2369 2687 2733 
Q 2419 3097 1959 3097 
z
M 1959 3584 
Q 2709 3584 3137 3096 
Q 3566 2609 3566 1747 
Q 3566 888 3137 398 
Q 2709 -91 1959 -91 
Q 1206 -91 779 398 
Q 353 888 353 1747 
Q 353 2609 779 3096 
Q 1206 3584 1959 3584 
z
" transform="scale(0.015625)"/>
       <path id="DejaVuSans-77" d="M 269 3500 
L 844 3500 
L 1563 769 
L 2278 3500 
L 2956 3500 
L 3675 769 
L 4391 3500 
L 4966 3500 
L 4050 0 
L 3372 0 
L 2619 2869 
L 1863 0 
L 1184 0 
L 269 3500 
z
" transform="scale(0.015625)"/>
       <path id="DejaVuSans-20" transform="scale(0.015625)"/>
       <path id="DejaVuSans-69" d="M 603 3500 
L 1178 3500 
L 1178 0 
L 603 0 
L 603 3500 
z
M 603 4863 
L 1178 4863 
L 1178 4134 
L 603 4134 
L 603 4863 
z
" transform="scale(0.015625)"/>
       <path id="DejaVuSans-6e" d="M 3513 2113 
L 3513 0 
L 2938 0 
L 2938 2094 
Q 2938 2591 2744 2837 
Q 2550 3084 2163 3084 
Q 1697 3084 1428 2787 
Q 1159 2491 1159 1978 
L 1159 0 
L 581 0 
L 581 3500 
L 1159 3500 
L 1159 2956 
Q 1366 3272 1645 3428 
Q 1925 3584 2291 3584 
Q 2894 3584 3203 3211 
Q 3513 2838 3513 2113 
z
" transform="scale(0.015625)"/>
       <path id="DejaVuSans-64" d="M 2906 2969 
L 2906 4863 
L 3481 4863 
L 3481 0 
L 2906 0 
L 2906 525 
Q 2725 213 2448 61 
Q 2172 -91 1784 -91 
Q 1150 -91 751 415 
Q 353 922 353 1747 
Q 353 2572 751 3078 
Q 1150 3584 1784 3584 
Q 2172 3584 2448 3432 
Q 2725 3281 2906 2969 
z
M 947 1747 
Q 947 1113 1208 752 
Q 1469 391 1925 391 
Q 2381 391 2643 752 
Q 2906 1113 2906 1747 
Q 2906 2381 2643 2742 
Q 2381 3103 1925 3103 
Q 1469 3103 1208 2742 
Q 947 2381 947 1747 
z
" transform="scale(0.015625)"/>
      </defs>
      <use xlink:href="#DejaVuSans-53"/>
      <use xlink:href="#DejaVuSans-6c" x="63.476562"/>
      <use xlink:href="#DejaVuSans-6f" x="91.259766"/>
      <use xlink:href="#DejaVuSans-77" x="152.441406"/>
      <use xlink:href="#DejaVuSans-20" x="234.228516"/>
      <use xlink:href="#DejaVuSans-77" x="266.015625"/>
      <use xlink:href="#DejaVuSans-69" x="347.802734"/>
      <use xlink:href="#DejaVuSans-6e" x="375.585938"/>
      <use xlink:href="#DejaVuSans-64" x="438.964844"/>
     </g>
    </g>
    <g id="line2d_6">
     <path d="M 333.95625 53.254687 
L 343.95625 53.254687 
L 353.95625 53.254687 
" style="fill: none; stroke-dasharray: 9.25,4; stroke-dashoffset: 0; stroke: #8b0000; stroke-width: 2.5"/>
    </g>
    <g id="text_3">
     <!-- Fast wind -->
     <g transform="translate(361.95625 56.754687) scale(0.1 -0.1)">
      <defs>
       <path id="DejaVuSans-46" d="M 628 4666 
L 3309 4666 
L 3309 4134 
L 1259 4134 
L 1259 2759 
L 3109 2759 
L 3109 2228 
L 1259 2228 
L 1259 0 
L 628 0 
L 628 4666 
z
" transform="scale(0.015625)"/>
       <path id="DejaVuSans-61" d="M 2194 1759 
Q 1497 1759 1228 1600 
Q 959 1441 959 1056 
Q 959 750 1161 570 
Q 1363 391 1709 391 
Q 2188 391 2477 730 
Q 2766 1069 2766 1631 
L 2766 1759 
L 2194 1759 
z
M 3341 1997 
L 3341 0 
L 2766 0 
L 2766 531 
Q 2569 213 2275 61 
Q 1981 -91 1556 -91 
Q 1019 -91 701 211 
Q 384 513 384 1019 
Q 384 1609 779 1909 
Q 1175 2209 1959 2209 
L 2766 2209 
L 2766 2266 
Q 2766 2663 2505 2880 
Q 2244 3097 1772 3097 
Q 1472 3097 1187 3025 
Q 903 2953 641 2809 
L 641 3341 
Q 956 3463 1253 3523 
Q 1550 3584 1831 3584 
Q 2591 3584 2966 3190 
Q 3341 2797 3341 1997 
z
" transform="scale(0.015625)"/>
       <path id="DejaVuSans-73" d="M 2834 3397 
L 2834 2853 
Q 2591 2978 2328 3040 
Q 2066 3103 1784 3103 
Q 1356 3103 1142 2972 
Q 928 2841 928 2578 
Q 928 2378 1081 2264 
Q 1234 2150 1697 2047 
L 1894 2003 
Q 2506 1872 2764 1633 
Q 3022 1394 3022 966 
Q 3022 478 2636 193 
Q 2250 -91 1575 -91 
Q 1294 -91 989 -36 
Q 684 19 347 128 
L 347 722 
Q 666 556 975 473 
Q 1284 391 1588 391 
Q 1994 391 2212 530 
Q 2431 669 2431 922 
Q 2431 1156 2273 1281 
Q 2116 1406 1581 1522 
L 1381 1569 
Q 847 1681 609 1914 
Q 372 2147 372 2553 
Q 372 3047 722 3315 
Q 1072 3584 1716 3584 
Q 2034 3584 2315 3537 
Q 2597 3491 2834 3397 
z
" transform="scale(0.015625)"/>
       <path id="DejaVuSans-74" d="M 1172 4494 
L 1172 3500 
L 2356 3500 
L 2356 3053 
L 1172 3053 
L 1172 1153 
Q 1172 725 1289 603 
Q 1406 481 1766 481 
L 2356 481 
L 2356 0 
L 1766 0 
Q 1100 0 847 248 
Q 594 497 594 1153 
L 594 3053 
L 172 3053 
L 172 3500 
L 594 3500 
L 594 4494 
L 1172 4494 
z
" transform="scale(0.015625)"/>
      </defs>
      <use xlink:href="#DejaVuSans-46"/>
      <use xlink:href="#DejaVuSans-61" x="48.394531"/>
      <use xlink:href="#DejaVuSans-73" x="109.673828"/>
      <use xlink:href="#DejaVuSans-74" x="161.773438"/>
      <use xlink:href="#DejaVuSans-20" x="200.982422"/>
      <use xlink:href="#DejaVuSans-77" x="232.769531"/>
      <use xlink:href="#DejaVuSans-69" x="314.556641"/>
      <use xlink:href="#DejaVuSans-6e" x="342.339844"/>
      <use xlink:href="#DejaVuSans-64" x="405.71875"/>
     </g>
    </g>
   </g>
   <g id="matplotlib.axis_1">
    <g id="xtick_1">
     <g id="line2d_7">
      <defs>
       <path id="mb3a8bc6f25" d="M 0 0 
L 0 -3.5 
" style="stroke: #000000; stroke-width: 1.5"/>
      </defs>
      <g>
       <use xlink:href="#mb3a8bc6f25" x="64.530642" y="242.124" style="stroke: #000000; stroke-width: 1.5"/>
      </g>
     </g>
     <g id="line2d_8">
      <defs>
       <path id="m20eb41335e" d="M 0 0 
L 0 3.5 
" style="stroke: #000000; stroke-width: 1.5"/>
      </defs>
      <g>
       <use xlink:href="#m20eb41335e" x="64.530642" y="10.8" style="stroke: #000000; stroke-width: 1.5"/>
      </g>
     </g>
     <g id="text_4">
      <!-- 0 -->
      <g transform="translate(60.713142 254.742125) scale(0.12 -0.12)">
       <defs>
        <path id="DejaVuSans-30" d="M 2034 4250 
Q 1547 4250 1301 3770 
Q 1056 3291 1056 2328 
Q 1056 1369 1301 889 
Q 1547 409 2034 409 
Q 2525 409 2770 889 
Q 3016 1369 3016 2328 
Q 3016 3291 2770 3770 
Q 2525 4250 2034 4250 
z
M 2034 4750 
Q 2819 4750 3233 4129 
Q 3647 3509 3647 2328 
Q 3647 1150 3233 529 
Q 2819 -91 2034 -91 
Q 1250 -91 836 529 
Q 422 1150 422 2328 
Q 422 3509 836 4129 
Q 1250 4750 2034 4750 
z
" transform="scale(0.015625)"/>
       </defs>
       <use xlink:href="#DejaVuSans-30"/>
      </g>
     </g>
    </g>
    <g id="xtick_2">
     <g id="line2d_9">
      <g>
       <use xlink:href="#mb3a8bc6f25" x="107.055498" y="242.124" style="stroke: #000000; stroke-width: 1.5"/>
      </g>
     </g>
     <g id="line2d_10">
      <g>
       <use xlink:href="#m20eb41335e" x="107.055498" y="10.8" style="stroke: #000000; stroke-width: 1.5"/>
      </g>
     </g>
     <g id="text_5">
      <!-- 5 -->
      <g transform="translate(103.237998 254.742125) scale(0.12 -0.12)">
       <defs>
        <path id="DejaVuSans-35" d="M 691 4666 
L 3169 4666 
L 3169 4134 
L 1269 4134 
L 1269 2991 
Q 1406 3038 1543 3061 
Q 1681 3084 1819 3084 
Q 2600 3084 3056 2656 
Q 3513 2228 3513 1497 
Q 3513 744 3044 326 
Q 2575 -91 1722 -91 
Q 1428 -91 1123 -41 
Q 819 9 494 109 
L 494 744 
Q 775 591 1075 516 
Q 1375 441 1709 441 
Q 2250 441 2565 725 
Q 2881 1009 2881 1497 
Q 2881 1984 2565 2268 
Q 2250 2553 1709 2553 
Q 1456 2553 1204 2497 
Q 953 2441 691 2322 
L 691 4666 
z
" transform="scale(0.015625)"/>
       </defs>
       <use xlink:href="#DejaVuSans-35"/>
      </g>
     </g>
    </g>
    <g id="xtick_3">
     <g id="line2d_11">
      <g>
       <use xlink:href="#mb3a8bc6f25" x="149.580355" y="242.124" style="stroke: #000000; stroke-width: 1.5"/>
      </g>
     </g>
     <g id="line2d_12">
      <g>
       <use xlink:href="#m20eb41335e" x="149.580355" y="10.8" style="stroke: #000000; stroke-width: 1.5"/>
      </g>
     </g>
     <g id="text_6">
      <!-- 10 -->
      <g transform="translate(141.945355 254.742125) scale(0.12 -0.12)">
       <defs>
        <path id="DejaVuSans-31" d="M 794 531 
L 1825 531 
L 1825 4091 
L 703 3866 
L 703 4441 
L 1819 4666 
L 2450 4666 
L 2450 531 
L 3481 531 
L 3481 0 
L 794 0 
L 794 531 
z
" transform="scale(0.015625)"/>
       </defs>
       <use xlink:href="#DejaVuSans-31"/>
       <use xlink:href="#DejaVuSans-30" x="63.623047"/>
      </g>
     </g>
    </g>
    <g id="xtick_4">
     <g id="line2d_13">
      <g>
       <use xlink:href="#mb3a8bc6f25" x="192.105212" y="242.124" style="stroke: #000000; stroke-width: 1.5"/>
      </g>
     </g>
     <g id="line2d_14">
      <g>
       <use xlink:href="#m20eb41335e" x="192.105212" y="10.8" style="stroke: #000000; stroke-width: 1.5"/>
      </g>
     </g>
     <g id="text_7">
      <!-- 15 -->
      <g transform="translate(184.470212 254.742125) scale(0.12 -0.12)">
       <use xlink:href="#DejaVuSans-31"/>
       <use xlink:href="#DejaVuSans-35" x="63.623047"/>
      </g>
     </g>
    </g>
    <g id="xtick_5">
     <g id="line2d_15">
      <g>
       <use xlink:href="#mb3a8bc6f25" x="234.630068" y="242.124" style="stroke: #000000; stroke-width: 1.5"/>
      </g>
     </g>
     <g id="line2d_16">
      <g>
       <use xlink:href="#m20eb41335e" x="234.630068" y="10.8" style="stroke: #000000; stroke-width: 1.5"/>
      </g>
     </g>
     <g id="text_8">
      <!-- 20 -->
      <g transform="translate(226.995068 254.742125) scale(0.12 -0.12)">
       <defs>
        <path id="DejaVuSans-32" d="M 1228 531 
L 3431 531 
L 3431 0 
L 469 0 
L 469 531 
Q 828 903 1448 1529 
Q 2069 2156 2228 2338 
Q 2531 2678 2651 2914 
Q 2772 3150 2772 3378 
Q 2772 3750 2511 3984 
Q 2250 4219 1831 4219 
Q 1534 4219 1204 4116 
Q 875 4013 500 3803 
L 500 4441 
Q 881 4594 1212 4672 
Q 1544 4750 1819 4750 
Q 2544 4750 2975 4387 
Q 3406 4025 3406 3419 
Q 3406 3131 3298 2873 
Q 3191 2616 2906 2266 
Q 2828 2175 2409 1742 
Q 1991 1309 1228 531 
z
" transform="scale(0.015625)"/>
       </defs>
       <use xlink:href="#DejaVuSans-32"/>
       <use xlink:href="#DejaVuSans-30" x="63.623047"/>
      </g>
     </g>
    </g>
    <g id="xtick_6">
     <g id="line2d_17">
      <g>
       <use xlink:href="#mb3a8bc6f25" x="277.154925" y="242.124" style="stroke: #000000; stroke-width: 1.5"/>
      </g>
     </g>
     <g id="line2d_18">
      <g>
       <use xlink:href="#m20eb41335e" x="277.154925" y="10.8" style="stroke: #000000; stroke-width: 1.5"/>
      </g>
     </g>
     <g id="text_9">
      <!-- 25 -->
      <g transform="translate(269.519925 254.742125) scale(0.12 -0.12)">
       <use xlink:href="#DejaVuSans-32"/>
       <use xlink:href="#DejaVuSans-35" x="63.623047"/>
      </g>
     </g>
    </g>
    <g id="xtick_7">
     <g id="line2d_19">
      <g>
       <use xlink:href="#mb3a8bc6f25" x="319.679782" y="242.124" style="stroke: #000000; stroke-width: 1.5"/>
      </g>
     </g>
     <g id="line2d_20">
      <g>
       <use xlink:href="#m20eb41335e" x="319.679782" y="10.8" style="stroke: #000000; stroke-width: 1.5"/>
      </g>
     </g>
     <g id="text_10">
      <!-- 30 -->
      <g transform="translate(312.044782 254.742125) scale(0.12 -0.12)">
       <defs>
        <path id="DejaVuSans-33" d="M 2597 2516 
Q 3050 2419 3304 2112 
Q 3559 1806 3559 1356 
Q 3559 666 3084 287 
Q 2609 -91 1734 -91 
Q 1441 -91 1130 -33 
Q 819 25 488 141 
L 488 750 
Q 750 597 1062 519 
Q 1375 441 1716 441 
Q 2309 441 2620 675 
Q 2931 909 2931 1356 
Q 2931 1769 2642 2001 
Q 2353 2234 1838 2234 
L 1294 2234 
L 1294 2753 
L 1863 2753 
Q 2328 2753 2575 2939 
Q 2822 3125 2822 3475 
Q 2822 3834 2567 4026 
Q 2313 4219 1838 4219 
Q 1578 4219 1281 4162 
Q 984 4106 628 3988 
L 628 4550 
Q 988 4650 1302 4700 
Q 1616 4750 1894 4750 
Q 2613 4750 3031 4423 
Q 3450 4097 3450 3541 
Q 3450 3153 3228 2886 
Q 3006 2619 2597 2516 
z
" transform="scale(0.015625)"/>
       </defs>
       <use xlink:href="#DejaVuSans-33"/>
       <use xlink:href="#DejaVuSans-30" x="63.623047"/>
      </g>
     </g>
    </g>
    <g id="xtick_8">
     <g id="line2d_21">
      <g>
       <use xlink:href="#mb3a8bc6f25" x="362.204639" y="242.124" style="stroke: #000000; stroke-width: 1.5"/>
      </g>
     </g>
     <g id="line2d_22">
      <g>
       <use xlink:href="#m20eb41335e" x="362.204639" y="10.8" style="stroke: #000000; stroke-width: 1.5"/>
      </g>
     </g>
     <g id="text_11">
      <!-- 35 -->
      <g transform="translate(354.569639 254.742125) scale(0.12 -0.12)">
       <use xlink:href="#DejaVuSans-33"/>
       <use xlink:href="#DejaVuSans-35" x="63.623047"/>
      </g>
     </g>
    </g>
    <g id="xtick_9">
     <g id="line2d_23">
      <g>
       <use xlink:href="#mb3a8bc6f25" x="404.729495" y="242.124" style="stroke: #000000; stroke-width: 1.5"/>
      </g>
     </g>
     <g id="line2d_24">
      <g>
       <use xlink:href="#m20eb41335e" x="404.729495" y="10.8" style="stroke: #000000; stroke-width: 1.5"/>
      </g>
     </g>
     <g id="text_12">
      <!-- 40 -->
      <g transform="translate(397.094495 254.742125) scale(0.12 -0.12)">
       <defs>
        <path id="DejaVuSans-34" d="M 2419 4116 
L 825 1625 
L 2419 1625 
L 2419 4116 
z
M 2253 4666 
L 3047 4666 
L 3047 1625 
L 3713 1625 
L 3713 1100 
L 3047 1100 
L 3047 0 
L 2419 0 
L 2419 1100 
L 313 1100 
L 313 1709 
L 2253 4666 
z
" transform="scale(0.015625)"/>
       </defs>
       <use xlink:href="#DejaVuSans-34"/>
       <use xlink:href="#DejaVuSans-30" x="63.623047"/>
      </g>
     </g>
    </g>
    <g id="xtick_10">
     <g id="line2d_25">
      <defs>
       <path id="m750d79c0df" d="M 0 0 
L 0 -2 
" style="stroke: #000000; stroke-width: 1.5"/>
      </defs>
      <g>
       <use xlink:href="#m750d79c0df" x="73.035613" y="242.124" style="stroke: #000000; stroke-width: 1.5"/>
      </g>
     </g>
     <g id="line2d_26">
      <defs>
       <path id="md04776d137" d="M 0 0 
L 0 2 
" style="stroke: #000000; stroke-width: 1.5"/>
      </defs>
      <g>
       <use xlink:href="#md04776d137" x="73.035613" y="10.8" style="stroke: #000000; stroke-width: 1.5"/>
      </g>
     </g>
    </g>
    <g id="xtick_11">
     <g id="line2d_27">
      <g>
       <use xlink:href="#m750d79c0df" x="81.540584" y="242.124" style="stroke: #000000; stroke-width: 1.5"/>
      </g>
     </g>
     <g id="line2d_28">
      <g>
       <use xlink:href="#md04776d137" x="81.540584" y="10.8" style="stroke: #000000; stroke-width: 1.5"/>
      </g>
     </g>
    </g>
    <g id="xtick_12">
     <g id="line2d_29">
      <g>
       <use xlink:href="#m750d79c0df" x="90.045556" y="242.124" style="stroke: #000000; stroke-width: 1.5"/>
      </g>
     </g>
     <g id="line2d_30">
      <g>
       <use xlink:href="#md04776d137" x="90.045556" y="10.8" style="stroke: #000000; stroke-width: 1.5"/>
      </g>
     </g>
    </g>
    <g id="xtick_13">
     <g id="line2d_31">
      <g>
       <use xlink:href="#m750d79c0df" x="98.550527" y="242.124" style="stroke: #000000; stroke-width: 1.5"/>
      </g>
     </g>
     <g id="line2d_32">
      <g>
       <use xlink:href="#md04776d137" x="98.550527" y="10.8" style="stroke: #000000; stroke-width: 1.5"/>
      </g>
     </g>
    </g>
    <g id="xtick_14">
     <g id="line2d_33">
      <g>
       <use xlink:href="#m750d79c0df" x="115.56047" y="242.124" style="stroke: #000000; stroke-width: 1.5"/>
      </g>
     </g>
     <g id="line2d_34">
      <g>
       <use xlink:href="#md04776d137" x="115.56047" y="10.8" style="stroke: #000000; stroke-width: 1.5"/>
      </g>
     </g>
    </g>
    <g id="xtick_15">
     <g id="line2d_35">
      <g>
       <use xlink:href="#m750d79c0df" x="124.065441" y="242.124" style="stroke: #000000; stroke-width: 1.5"/>
      </g>
     </g>
     <g id="line2d_36">
      <g>
       <use xlink:href="#md04776d137" x="124.065441" y="10.8" style="stroke: #000000; stroke-width: 1.5"/>
      </g>
     </g>
    </g>
    <g id="xtick_16">
     <g id="line2d_37">
      <g>
       <use xlink:href="#m750d79c0df" x="132.570412" y="242.124" style="stroke: #000000; stroke-width: 1.5"/>
      </g>
     </g>
     <g id="line2d_38">
      <g>
       <use xlink:href="#md04776d137" x="132.570412" y="10.8" style="stroke: #000000; stroke-width: 1.5"/>
      </g>
     </g>
    </g>
    <g id="xtick_17">
     <g id="line2d_39">
      <g>
       <use xlink:href="#m750d79c0df" x="141.075384" y="242.124" style="stroke: #000000; stroke-width: 1.5"/>
      </g>
     </g>
     <g id="line2d_40">
      <g>
       <use xlink:href="#md04776d137" x="141.075384" y="10.8" style="stroke: #000000; stroke-width: 1.5"/>
      </g>
     </g>
    </g>
    <g id="xtick_18">
     <g id="line2d_41">
      <g>
       <use xlink:href="#m750d79c0df" x="158.085326" y="242.124" style="stroke: #000000; stroke-width: 1.5"/>
      </g>
     </g>
     <g id="line2d_42">
      <g>
       <use xlink:href="#md04776d137" x="158.085326" y="10.8" style="stroke: #000000; stroke-width: 1.5"/>
      </g>
     </g>
    </g>
    <g id="xtick_19">
     <g id="line2d_43">
      <g>
       <use xlink:href="#m750d79c0df" x="166.590298" y="242.124" style="stroke: #000000; stroke-width: 1.5"/>
      </g>
     </g>
     <g id="line2d_44">
      <g>
       <use xlink:href="#md04776d137" x="166.590298" y="10.8" style="stroke: #000000; stroke-width: 1.5"/>
      </g>
     </g>
    </g>
    <g id="xtick_20">
     <g id="line2d_45">
      <g>
       <use xlink:href="#m750d79c0df" x="175.095269" y="242.124" style="stroke: #000000; stroke-width: 1.5"/>
      </g>
     </g>
     <g id="line2d_46">
      <g>
       <use xlink:href="#md04776d137" x="175.095269" y="10.8" style="stroke: #000000; stroke-width: 1.5"/>
      </g>
     </g>
    </g>
    <g id="xtick_21">
     <g id="line2d_47">
      <g>
       <use xlink:href="#m750d79c0df" x="183.60024" y="242.124" style="stroke: #000000; stroke-width: 1.5"/>
      </g>
     </g>
     <g id="line2d_48">
      <g>
       <use xlink:href="#md04776d137" x="183.60024" y="10.8" style="stroke: #000000; stroke-width: 1.5"/>
      </g>
     </g>
    </g>
    <g id="xtick_22">
     <g id="line2d_49">
      <g>
       <use xlink:href="#m750d79c0df" x="200.610183" y="242.124" style="stroke: #000000; stroke-width: 1.5"/>
      </g>
     </g>
     <g id="line2d_50">
      <g>
       <use xlink:href="#md04776d137" x="200.610183" y="10.8" style="stroke: #000000; stroke-width: 1.5"/>
      </g>
     </g>
    </g>
    <g id="xtick_23">
     <g id="line2d_51">
      <g>
       <use xlink:href="#m750d79c0df" x="209.115154" y="242.124" style="stroke: #000000; stroke-width: 1.5"/>
      </g>
     </g>
     <g id="line2d_52">
      <g>
       <use xlink:href="#md04776d137" x="209.115154" y="10.8" style="stroke: #000000; stroke-width: 1.5"/>
      </g>
     </g>
    </g>
    <g id="xtick_24">
     <g id="line2d_53">
      <g>
       <use xlink:href="#m750d79c0df" x="217.620126" y="242.124" style="stroke: #000000; stroke-width: 1.5"/>
      </g>
     </g>
     <g id="line2d_54">
      <g>
       <use xlink:href="#md04776d137" x="217.620126" y="10.8" style="stroke: #000000; stroke-width: 1.5"/>
      </g>
     </g>
    </g>
    <g id="xtick_25">
     <g id="line2d_55">
      <g>
       <use xlink:href="#m750d79c0df" x="226.125097" y="242.124" style="stroke: #000000; stroke-width: 1.5"/>
      </g>
     </g>
     <g id="line2d_56">
      <g>
       <use xlink:href="#md04776d137" x="226.125097" y="10.8" style="stroke: #000000; stroke-width: 1.5"/>
      </g>
     </g>
    </g>
    <g id="xtick_26">
     <g id="line2d_57">
      <g>
       <use xlink:href="#m750d79c0df" x="243.13504" y="242.124" style="stroke: #000000; stroke-width: 1.5"/>
      </g>
     </g>
     <g id="line2d_58">
      <g>
       <use xlink:href="#md04776d137" x="243.13504" y="10.8" style="stroke: #000000; stroke-width: 1.5"/>
      </g>
     </g>
    </g>
    <g id="xtick_27">
     <g id="line2d_59">
      <g>
       <use xlink:href="#m750d79c0df" x="251.640011" y="242.124" style="stroke: #000000; stroke-width: 1.5"/>
      </g>
     </g>
     <g id="line2d_60">
      <g>
       <use xlink:href="#md04776d137" x="251.640011" y="10.8" style="stroke: #000000; stroke-width: 1.5"/>
      </g>
     </g>
    </g>
    <g id="xtick_28">
     <g id="line2d_61">
      <g>
       <use xlink:href="#m750d79c0df" x="260.144982" y="242.124" style="stroke: #000000; stroke-width: 1.5"/>
      </g>
     </g>
     <g id="line2d_62">
      <g>
       <use xlink:href="#md04776d137" x="260.144982" y="10.8" style="stroke: #000000; stroke-width: 1.5"/>
      </g>
     </g>
    </g>
    <g id="xtick_29">
     <g id="line2d_63">
      <g>
       <use xlink:href="#m750d79c0df" x="268.649954" y="242.124" style="stroke: #000000; stroke-width: 1.5"/>
      </g>
     </g>
     <g id="line2d_64">
      <g>
       <use xlink:href="#md04776d137" x="268.649954" y="10.8" style="stroke: #000000; stroke-width: 1.5"/>
      </g>
     </g>
    </g>
    <g id="xtick_30">
     <g id="line2d_65">
      <g>
       <use xlink:href="#m750d79c0df" x="285.659896" y="242.124" style="stroke: #000000; stroke-width: 1.5"/>
      </g>
     </g>
     <g id="line2d_66">
      <g>
       <use xlink:href="#md04776d137" x="285.659896" y="10.8" style="stroke: #000000; stroke-width: 1.5"/>
      </g>
     </g>
    </g>
    <g id="xtick_31">
     <g id="line2d_67">
      <g>
       <use xlink:href="#m750d79c0df" x="294.164868" y="242.124" style="stroke: #000000; stroke-width: 1.5"/>
      </g>
     </g>
     <g id="line2d_68">
      <g>
       <use xlink:href="#md04776d137" x="294.164868" y="10.8" style="stroke: #000000; stroke-width: 1.5"/>
      </g>
     </g>
    </g>
    <g id="xtick_32">
     <g id="line2d_69">
      <g>
       <use xlink:href="#m750d79c0df" x="302.669839" y="242.124" style="stroke: #000000; stroke-width: 1.5"/>
      </g>
     </g>
     <g id="line2d_70">
      <g>
       <use xlink:href="#md04776d137" x="302.669839" y="10.8" style="stroke: #000000; stroke-width: 1.5"/>
      </g>
     </g>
    </g>
    <g id="xtick_33">
     <g id="line2d_71">
      <g>
       <use xlink:href="#m750d79c0df" x="311.17481" y="242.124" style="stroke: #000000; stroke-width: 1.5"/>
      </g>
     </g>
     <g id="line2d_72">
      <g>
       <use xlink:href="#md04776d137" x="311.17481" y="10.8" style="stroke: #000000; stroke-width: 1.5"/>
      </g>
     </g>
    </g>
    <g id="xtick_34">
     <g id="line2d_73">
      <g>
       <use xlink:href="#m750d79c0df" x="328.184753" y="242.124" style="stroke: #000000; stroke-width: 1.5"/>
      </g>
     </g>
     <g id="line2d_74">
      <g>
       <use xlink:href="#md04776d137" x="328.184753" y="10.8" style="stroke: #000000; stroke-width: 1.5"/>
      </g>
     </g>
    </g>
    <g id="xtick_35">
     <g id="line2d_75">
      <g>
       <use xlink:href="#m750d79c0df" x="336.689725" y="242.124" style="stroke: #000000; stroke-width: 1.5"/>
      </g>
     </g>
     <g id="line2d_76">
      <g>
       <use xlink:href="#md04776d137" x="336.689725" y="10.8" style="stroke: #000000; stroke-width: 1.5"/>
      </g>
     </g>
    </g>
    <g id="xtick_36">
     <g id="line2d_77">
      <g>
       <use xlink:href="#m750d79c0df" x="345.194696" y="242.124" style="stroke: #000000; stroke-width: 1.5"/>
      </g>
     </g>
     <g id="line2d_78">
      <g>
       <use xlink:href="#md04776d137" x="345.194696" y="10.8" style="stroke: #000000; stroke-width: 1.5"/>
      </g>
     </g>
    </g>
    <g id="xtick_37">
     <g id="line2d_79">
      <g>
       <use xlink:href="#m750d79c0df" x="353.699667" y="242.124" style="stroke: #000000; stroke-width: 1.5"/>
      </g>
     </g>
     <g id="line2d_80">
      <g>
       <use xlink:href="#md04776d137" x="353.699667" y="10.8" style="stroke: #000000; stroke-width: 1.5"/>
      </g>
     </g>
    </g>
    <g id="xtick_38">
     <g id="line2d_81">
      <g>
       <use xlink:href="#m750d79c0df" x="370.70961" y="242.124" style="stroke: #000000; stroke-width: 1.5"/>
      </g>
     </g>
     <g id="line2d_82">
      <g>
       <use xlink:href="#md04776d137" x="370.70961" y="10.8" style="stroke: #000000; stroke-width: 1.5"/>
      </g>
     </g>
    </g>
    <g id="xtick_39">
     <g id="line2d_83">
      <g>
       <use xlink:href="#m750d79c0df" x="379.214581" y="242.124" style="stroke: #000000; stroke-width: 1.5"/>
      </g>
     </g>
     <g id="line2d_84">
      <g>
       <use xlink:href="#md04776d137" x="379.214581" y="10.8" style="stroke: #000000; stroke-width: 1.5"/>
      </g>
     </g>
    </g>
    <g id="xtick_40">
     <g id="line2d_85">
      <g>
       <use xlink:href="#m750d79c0df" x="387.719553" y="242.124" style="stroke: #000000; stroke-width: 1.5"/>
      </g>
     </g>
     <g id="line2d_86">
      <g>
       <use xlink:href="#md04776d137" x="387.719553" y="10.8" style="stroke: #000000; stroke-width: 1.5"/>
      </g>
     </g>
    </g>
    <g id="xtick_41">
     <g id="line2d_87">
      <g>
       <use xlink:href="#m750d79c0df" x="396.224524" y="242.124" style="stroke: #000000; stroke-width: 1.5"/>
      </g>
     </g>
     <g id="line2d_88">
      <g>
       <use xlink:href="#md04776d137" x="396.224524" y="10.8" style="stroke: #000000; stroke-width: 1.5"/>
      </g>
     </g>
    </g>
    <g id="xtick_42">
     <g id="line2d_89">
      <g>
       <use xlink:href="#m750d79c0df" x="413.234467" y="242.124" style="stroke: #000000; stroke-width: 1.5"/>
      </g>
     </g>
     <g id="line2d_90">
      <g>
       <use xlink:href="#md04776d137" x="413.234467" y="10.8" style="stroke: #000000; stroke-width: 1.5"/>
      </g>
     </g>
    </g>
    <g id="text_13">
     <!-- Distance [R$_\odot$] -->
     <g transform="translate(197.784179 270.355875) scale(0.12 -0.12)">
      <defs>
       <path id="DejaVuSans-44" d="M 1259 4147 
L 1259 519 
L 2022 519 
Q 2988 519 3436 956 
Q 3884 1394 3884 2338 
Q 3884 3275 3436 3711 
Q 2988 4147 2022 4147 
L 1259 4147 
z
M 628 4666 
L 1925 4666 
Q 3281 4666 3915 4102 
Q 4550 3538 4550 2338 
Q 4550 1131 3912 565 
Q 3275 0 1925 0 
L 628 0 
L 628 4666 
z
" transform="scale(0.015625)"/>
       <path id="DejaVuSans-63" d="M 3122 3366 
L 3122 2828 
Q 2878 2963 2633 3030 
Q 2388 3097 2138 3097 
Q 1578 3097 1268 2742 
Q 959 2388 959 1747 
Q 959 1106 1268 751 
Q 1578 397 2138 397 
Q 2388 397 2633 464 
Q 2878 531 3122 666 
L 3122 134 
Q 2881 22 2623 -34 
Q 2366 -91 2075 -91 
Q 1284 -91 818 406 
Q 353 903 353 1747 
Q 353 2603 823 3093 
Q 1294 3584 2113 3584 
Q 2378 3584 2631 3529 
Q 2884 3475 3122 3366 
z
" transform="scale(0.015625)"/>
       <path id="DejaVuSans-65" d="M 3597 1894 
L 3597 1613 
L 953 1613 
Q 991 1019 1311 708 
Q 1631 397 2203 397 
Q 2534 397 2845 478 
Q 3156 559 3463 722 
L 3463 178 
Q 3153 47 2828 -22 
Q 2503 -91 2169 -91 
Q 1331 -91 842 396 
Q 353 884 353 1716 
Q 353 2575 817 3079 
Q 1281 3584 2069 3584 
Q 2775 3584 3186 3129 
Q 3597 2675 3597 1894 
z
M 3022 2063 
Q 3016 2534 2758 2815 
Q 2500 3097 2075 3097 
Q 1594 3097 1305 2825 
Q 1016 2553 972 2059 
L 3022 2063 
z
" transform="scale(0.015625)"/>
       <path id="DejaVuSans-5b" d="M 550 4863 
L 1875 4863 
L 1875 4416 
L 1125 4416 
L 1125 -397 
L 1875 -397 
L 1875 -844 
L 550 -844 
L 550 4863 
z
" transform="scale(0.015625)"/>
       <path id="DejaVuSans-52" d="M 2841 2188 
Q 3044 2119 3236 1894 
Q 3428 1669 3622 1275 
L 4263 0 
L 3584 0 
L 2988 1197 
Q 2756 1666 2539 1819 
Q 2322 1972 1947 1972 
L 1259 1972 
L 1259 0 
L 628 0 
L 628 4666 
L 2053 4666 
Q 2853 4666 3247 4331 
Q 3641 3997 3641 3322 
Q 3641 2881 3436 2590 
Q 3231 2300 2841 2188 
z
M 1259 4147 
L 1259 2491 
L 2053 2491 
Q 2509 2491 2742 2702 
Q 2975 2913 2975 3322 
Q 2975 3731 2742 3939 
Q 2509 4147 2053 4147 
L 1259 4147 
z
" transform="scale(0.015625)"/>
       <path id="DejaVuSans-2299" d="M 2350 2403 
L 3013 2403 
L 3013 1609 
L 2350 1609 
L 2350 2403 
z
M 3306 3522 
Q 3016 3644 2681 3644 
Q 2347 3644 2056 3522 
Q 1769 3400 1531 3163 
Q 1291 2922 1172 2634 
Q 1053 2347 1053 2006 
Q 1053 1675 1172 1387 
Q 1291 1100 1531 859 
Q 1769 622 2056 500 
Q 2347 378 2681 378 
Q 3016 378 3306 500 
Q 3594 622 3831 859 
Q 4072 1100 4190 1387 
Q 4309 1675 4309 2006 
Q 4309 2347 4190 2634 
Q 4072 2922 3831 3163 
Q 3594 3400 3306 3522 
z
M 1878 3956 
Q 2250 4113 2681 4113 
Q 3113 4113 3484 3956 
Q 3856 3800 4163 3494 
Q 4472 3184 4625 2813 
Q 4778 2444 4778 2006 
Q 4778 1578 4625 1206 
Q 4472 838 4163 528 
Q 3856 222 3484 65 
Q 3113 -91 2681 -91 
Q 2250 -91 1878 65 
Q 1506 222 1200 528 
Q 891 838 738 1206 
Q 584 1578 584 2006 
Q 584 2444 738 2813 
Q 891 3184 1200 3494 
Q 1506 3800 1878 3956 
z
" transform="scale(0.015625)"/>
       <path id="DejaVuSans-5d" d="M 1947 4863 
L 1947 -844 
L 622 -844 
L 622 -397 
L 1369 -397 
L 1369 4416 
L 622 4416 
L 622 4863 
L 1947 4863 
z
" transform="scale(0.015625)"/>
      </defs>
      <use xlink:href="#DejaVuSans-44" transform="translate(0 0.015625)"/>
      <use xlink:href="#DejaVuSans-69" transform="translate(77.001953 0.015625)"/>
      <use xlink:href="#DejaVuSans-73" transform="translate(104.785156 0.015625)"/>
      <use xlink:href="#DejaVuSans-74" transform="translate(156.884766 0.015625)"/>
      <use xlink:href="#DejaVuSans-61" transform="translate(196.09375 0.015625)"/>
      <use xlink:href="#DejaVuSans-6e" transform="translate(257.373047 0.015625)"/>
      <use xlink:href="#DejaVuSans-63" transform="translate(320.751953 0.015625)"/>
      <use xlink:href="#DejaVuSans-65" transform="translate(375.732422 0.015625)"/>
      <use xlink:href="#DejaVuSans-20" transform="translate(437.255859 0.015625)"/>
      <use xlink:href="#DejaVuSans-5b" transform="translate(469.042969 0.015625)"/>
      <use xlink:href="#DejaVuSans-52" transform="translate(504.931641 0.015625)"/>
      <use xlink:href="#DejaVuSans-2299" transform="translate(589.008789 -16.390625) scale(0.7)"/>
      <use xlink:href="#DejaVuSans-5d" transform="translate(664.033203 0.015625)"/>
     </g>
    </g>
   </g>
   <g id="matplotlib.axis_2">
    <g id="ytick_1">
     <g id="line2d_91">
      <defs>
       <path id="m9cdf422efe" d="M 0 0 
L 3.5 0 
" style="stroke: #000000; stroke-width: 1.5"/>
      </defs>
      <g>
       <use xlink:href="#m9cdf422efe" x="58.848357" y="234.469317" style="stroke: #000000; stroke-width: 1.5"/>
      </g>
     </g>
     <g id="line2d_92">
      <defs>
       <path id="m7cbfdced4a" d="M 0 0 
L -3.5 0 
" style="stroke: #000000; stroke-width: 1.5"/>
      </defs>
      <g>
       <use xlink:href="#m7cbfdced4a" x="421.2" y="234.469317" style="stroke: #000000; stroke-width: 1.5"/>
      </g>
     </g>
     <g id="text_14">
      <!-- $\mathdefault{10^{1}}$ -->
      <g transform="translate(34.228357 239.028379) scale(0.12 -0.12)">
       <use xlink:href="#DejaVuSans-31" transform="translate(0 0.684375)"/>
       <use xlink:href="#DejaVuSans-30" transform="translate(63.623047 0.684375)"/>
       <use xlink:href="#DejaVuSans-31" transform="translate(128.203125 38.965625) scale(0.7)"/>
      </g>
     </g>
    </g>
    <g id="ytick_2">
     <g id="line2d_93">
      <g>
       <use xlink:href="#m9cdf422efe" x="58.848357" y="191.395621" style="stroke: #000000; stroke-width: 1.5"/>
      </g>
     </g>
     <g id="line2d_94">
      <g>
       <use xlink:href="#m7cbfdced4a" x="421.2" y="191.395621" style="stroke: #000000; stroke-width: 1.5"/>
      </g>
     </g>
     <g id="text_15">
      <!-- $\mathdefault{10^{2}}$ -->
      <g transform="translate(34.228357 195.954683) scale(0.12 -0.12)">
       <use xlink:href="#DejaVuSans-31" transform="translate(0 0.765625)"/>
       <use xlink:href="#DejaVuSans-30" transform="translate(63.623047 0.765625)"/>
       <use xlink:href="#DejaVuSans-32" transform="translate(128.203125 39.046875) scale(0.7)"/>
      </g>
     </g>
    </g>
    <g id="ytick_3">
     <g id="line2d_95">
      <g>
       <use xlink:href="#m9cdf422efe" x="58.848357" y="148.321924" style="stroke: #000000; stroke-width: 1.5"/>
      </g>
     </g>
     <g id="line2d_96">
      <g>
       <use xlink:href="#m7cbfdced4a" x="421.2" y="148.321924" style="stroke: #000000; stroke-width: 1.5"/>
      </g>
     </g>
     <g id="text_16">
      <!-- $\mathdefault{10^{3}}$ -->
      <g transform="translate(34.228357 152.880987) scale(0.12 -0.12)">
       <use xlink:href="#DejaVuSans-31" transform="translate(0 0.765625)"/>
       <use xlink:href="#DejaVuSans-30" transform="translate(63.623047 0.765625)"/>
       <use xlink:href="#DejaVuSans-33" transform="translate(128.203125 39.046875) scale(0.7)"/>
      </g>
     </g>
    </g>
    <g id="ytick_4">
     <g id="line2d_97">
      <g>
       <use xlink:href="#m9cdf422efe" x="58.848357" y="105.248228" style="stroke: #000000; stroke-width: 1.5"/>
      </g>
     </g>
     <g id="line2d_98">
      <g>
       <use xlink:href="#m7cbfdced4a" x="421.2" y="105.248228" style="stroke: #000000; stroke-width: 1.5"/>
      </g>
     </g>
     <g id="text_17">
      <!-- $\mathdefault{10^{4}}$ -->
      <g transform="translate(34.228357 109.80729) scale(0.12 -0.12)">
       <use xlink:href="#DejaVuSans-31" transform="translate(0 0.684375)"/>
       <use xlink:href="#DejaVuSans-30" transform="translate(63.623047 0.684375)"/>
       <use xlink:href="#DejaVuSans-34" transform="translate(128.203125 38.965625) scale(0.7)"/>
      </g>
     </g>
    </g>
    <g id="ytick_5">
     <g id="line2d_99">
      <g>
       <use xlink:href="#m9cdf422efe" x="58.848357" y="62.174531" style="stroke: #000000; stroke-width: 1.5"/>
      </g>
     </g>
     <g id="line2d_100">
      <g>
       <use xlink:href="#m7cbfdced4a" x="421.2" y="62.174531" style="stroke: #000000; stroke-width: 1.5"/>
      </g>
     </g>
     <g id="text_18">
      <!-- $\mathdefault{10^{5}}$ -->
      <g transform="translate(34.228357 66.733594) scale(0.12 -0.12)">
       <use xlink:href="#DejaVuSans-31" transform="translate(0 0.684375)"/>
       <use xlink:href="#DejaVuSans-30" transform="translate(63.623047 0.684375)"/>
       <use xlink:href="#DejaVuSans-35" transform="translate(128.203125 38.965625) scale(0.7)"/>
      </g>
     </g>
    </g>
    <g id="ytick_6">
     <g id="line2d_101">
      <g>
       <use xlink:href="#m9cdf422efe" x="58.848357" y="19.100835" style="stroke: #000000; stroke-width: 1.5"/>
      </g>
     </g>
     <g id="line2d_102">
      <g>
       <use xlink:href="#m7cbfdced4a" x="421.2" y="19.100835" style="stroke: #000000; stroke-width: 1.5"/>
      </g>
     </g>
     <g id="text_19">
      <!-- $\mathdefault{10^{6}}$ -->
      <g transform="translate(34.228357 23.659897) scale(0.12 -0.12)">
       <defs>
        <path id="DejaVuSans-36" d="M 2113 2584 
Q 1688 2584 1439 2293 
Q 1191 2003 1191 1497 
Q 1191 994 1439 701 
Q 1688 409 2113 409 
Q 2538 409 2786 701 
Q 3034 994 3034 1497 
Q 3034 2003 2786 2293 
Q 2538 2584 2113 2584 
z
M 3366 4563 
L 3366 3988 
Q 3128 4100 2886 4159 
Q 2644 4219 2406 4219 
Q 1781 4219 1451 3797 
Q 1122 3375 1075 2522 
Q 1259 2794 1537 2939 
Q 1816 3084 2150 3084 
Q 2853 3084 3261 2657 
Q 3669 2231 3669 1497 
Q 3669 778 3244 343 
Q 2819 -91 2113 -91 
Q 1303 -91 875 529 
Q 447 1150 447 2328 
Q 447 3434 972 4092 
Q 1497 4750 2381 4750 
Q 2619 4750 2861 4703 
Q 3103 4656 3366 4563 
z
" transform="scale(0.015625)"/>
       </defs>
       <use xlink:href="#DejaVuSans-31" transform="translate(0 0.765625)"/>
       <use xlink:href="#DejaVuSans-30" transform="translate(63.623047 0.765625)"/>
       <use xlink:href="#DejaVuSans-36" transform="translate(128.203125 39.046875) scale(0.7)"/>
      </g>
     </g>
    </g>
    <g id="ytick_7">
     <g id="line2d_103">
      <defs>
       <path id="m6139003f48" d="M 0 0 
L 2 0 
" style="stroke: #000000; stroke-width: 1.5"/>
      </defs>
      <g>
       <use xlink:href="#m6139003f48" x="58.848357" y="241.141517" style="stroke: #000000; stroke-width: 1.5"/>
      </g>
     </g>
     <g id="line2d_104">
      <defs>
       <path id="md2a56143d8" d="M 0 0 
L -2 0 
" style="stroke: #000000; stroke-width: 1.5"/>
      </defs>
      <g>
       <use xlink:href="#md2a56143d8" x="421.2" y="241.141517" style="stroke: #000000; stroke-width: 1.5"/>
      </g>
     </g>
    </g>
    <g id="ytick_8">
     <g id="line2d_105">
      <g>
       <use xlink:href="#m6139003f48" x="58.848357" y="238.643589" style="stroke: #000000; stroke-width: 1.5"/>
      </g>
     </g>
     <g id="line2d_106">
      <g>
       <use xlink:href="#md2a56143d8" x="421.2" y="238.643589" style="stroke: #000000; stroke-width: 1.5"/>
      </g>
     </g>
    </g>
    <g id="ytick_9">
     <g id="line2d_107">
      <g>
       <use xlink:href="#m6139003f48" x="58.848357" y="236.440261" style="stroke: #000000; stroke-width: 1.5"/>
      </g>
     </g>
     <g id="line2d_108">
      <g>
       <use xlink:href="#md2a56143d8" x="421.2" y="236.440261" style="stroke: #000000; stroke-width: 1.5"/>
      </g>
     </g>
    </g>
    <g id="ytick_10">
     <g id="line2d_109">
      <g>
       <use xlink:href="#m6139003f48" x="58.848357" y="221.502842" style="stroke: #000000; stroke-width: 1.5"/>
      </g>
     </g>
     <g id="line2d_110">
      <g>
       <use xlink:href="#md2a56143d8" x="421.2" y="221.502842" style="stroke: #000000; stroke-width: 1.5"/>
      </g>
     </g>
    </g>
    <g id="ytick_11">
     <g id="line2d_111">
      <g>
       <use xlink:href="#m6139003f48" x="58.848357" y="213.917941" style="stroke: #000000; stroke-width: 1.5"/>
      </g>
     </g>
     <g id="line2d_112">
      <g>
       <use xlink:href="#md2a56143d8" x="421.2" y="213.917941" style="stroke: #000000; stroke-width: 1.5"/>
      </g>
     </g>
    </g>
    <g id="ytick_12">
     <g id="line2d_113">
      <g>
       <use xlink:href="#m6139003f48" x="58.848357" y="208.536368" style="stroke: #000000; stroke-width: 1.5"/>
      </g>
     </g>
     <g id="line2d_114">
      <g>
       <use xlink:href="#md2a56143d8" x="421.2" y="208.536368" style="stroke: #000000; stroke-width: 1.5"/>
      </g>
     </g>
    </g>
    <g id="ytick_13">
     <g id="line2d_115">
      <g>
       <use xlink:href="#m6139003f48" x="58.848357" y="204.362095" style="stroke: #000000; stroke-width: 1.5"/>
      </g>
     </g>
     <g id="line2d_116">
      <g>
       <use xlink:href="#md2a56143d8" x="421.2" y="204.362095" style="stroke: #000000; stroke-width: 1.5"/>
      </g>
     </g>
    </g>
    <g id="ytick_14">
     <g id="line2d_117">
      <g>
       <use xlink:href="#m6139003f48" x="58.848357" y="200.951466" style="stroke: #000000; stroke-width: 1.5"/>
      </g>
     </g>
     <g id="line2d_118">
      <g>
       <use xlink:href="#md2a56143d8" x="421.2" y="200.951466" style="stroke: #000000; stroke-width: 1.5"/>
      </g>
     </g>
    </g>
    <g id="ytick_15">
     <g id="line2d_119">
      <g>
       <use xlink:href="#m6139003f48" x="58.848357" y="198.067821" style="stroke: #000000; stroke-width: 1.5"/>
      </g>
     </g>
     <g id="line2d_120">
      <g>
       <use xlink:href="#md2a56143d8" x="421.2" y="198.067821" style="stroke: #000000; stroke-width: 1.5"/>
      </g>
     </g>
    </g>
    <g id="ytick_16">
     <g id="line2d_121">
      <g>
       <use xlink:href="#m6139003f48" x="58.848357" y="195.569893" style="stroke: #000000; stroke-width: 1.5"/>
      </g>
     </g>
     <g id="line2d_122">
      <g>
       <use xlink:href="#md2a56143d8" x="421.2" y="195.569893" style="stroke: #000000; stroke-width: 1.5"/>
      </g>
     </g>
    </g>
    <g id="ytick_17">
     <g id="line2d_123">
      <g>
       <use xlink:href="#m6139003f48" x="58.848357" y="193.366565" style="stroke: #000000; stroke-width: 1.5"/>
      </g>
     </g>
     <g id="line2d_124">
      <g>
       <use xlink:href="#md2a56143d8" x="421.2" y="193.366565" style="stroke: #000000; stroke-width: 1.5"/>
      </g>
     </g>
    </g>
    <g id="ytick_18">
     <g id="line2d_125">
      <g>
       <use xlink:href="#m6139003f48" x="58.848357" y="178.429146" style="stroke: #000000; stroke-width: 1.5"/>
      </g>
     </g>
     <g id="line2d_126">
      <g>
       <use xlink:href="#md2a56143d8" x="421.2" y="178.429146" style="stroke: #000000; stroke-width: 1.5"/>
      </g>
     </g>
    </g>
    <g id="ytick_19">
     <g id="line2d_127">
      <g>
       <use xlink:href="#m6139003f48" x="58.848357" y="170.844244" style="stroke: #000000; stroke-width: 1.5"/>
      </g>
     </g>
     <g id="line2d_128">
      <g>
       <use xlink:href="#md2a56143d8" x="421.2" y="170.844244" style="stroke: #000000; stroke-width: 1.5"/>
      </g>
     </g>
    </g>
    <g id="ytick_20">
     <g id="line2d_129">
      <g>
       <use xlink:href="#m6139003f48" x="58.848357" y="165.462671" style="stroke: #000000; stroke-width: 1.5"/>
      </g>
     </g>
     <g id="line2d_130">
      <g>
       <use xlink:href="#md2a56143d8" x="421.2" y="165.462671" style="stroke: #000000; stroke-width: 1.5"/>
      </g>
     </g>
    </g>
    <g id="ytick_21">
     <g id="line2d_131">
      <g>
       <use xlink:href="#m6139003f48" x="58.848357" y="161.288399" style="stroke: #000000; stroke-width: 1.5"/>
      </g>
     </g>
     <g id="line2d_132">
      <g>
       <use xlink:href="#md2a56143d8" x="421.2" y="161.288399" style="stroke: #000000; stroke-width: 1.5"/>
      </g>
     </g>
    </g>
    <g id="ytick_22">
     <g id="line2d_133">
      <g>
       <use xlink:href="#m6139003f48" x="58.848357" y="157.87777" style="stroke: #000000; stroke-width: 1.5"/>
      </g>
     </g>
     <g id="line2d_134">
      <g>
       <use xlink:href="#md2a56143d8" x="421.2" y="157.87777" style="stroke: #000000; stroke-width: 1.5"/>
      </g>
     </g>
    </g>
    <g id="ytick_23">
     <g id="line2d_135">
      <g>
       <use xlink:href="#m6139003f48" x="58.848357" y="154.994124" style="stroke: #000000; stroke-width: 1.5"/>
      </g>
     </g>
     <g id="line2d_136">
      <g>
       <use xlink:href="#md2a56143d8" x="421.2" y="154.994124" style="stroke: #000000; stroke-width: 1.5"/>
      </g>
     </g>
    </g>
    <g id="ytick_24">
     <g id="line2d_137">
      <g>
       <use xlink:href="#m6139003f48" x="58.848357" y="152.496197" style="stroke: #000000; stroke-width: 1.5"/>
      </g>
     </g>
     <g id="line2d_138">
      <g>
       <use xlink:href="#md2a56143d8" x="421.2" y="152.496197" style="stroke: #000000; stroke-width: 1.5"/>
      </g>
     </g>
    </g>
    <g id="ytick_25">
     <g id="line2d_139">
      <g>
       <use xlink:href="#m6139003f48" x="58.848357" y="150.292868" style="stroke: #000000; stroke-width: 1.5"/>
      </g>
     </g>
     <g id="line2d_140">
      <g>
       <use xlink:href="#md2a56143d8" x="421.2" y="150.292868" style="stroke: #000000; stroke-width: 1.5"/>
      </g>
     </g>
    </g>
    <g id="ytick_26">
     <g id="line2d_141">
      <g>
       <use xlink:href="#m6139003f48" x="58.848357" y="135.355449" style="stroke: #000000; stroke-width: 1.5"/>
      </g>
     </g>
     <g id="line2d_142">
      <g>
       <use xlink:href="#md2a56143d8" x="421.2" y="135.355449" style="stroke: #000000; stroke-width: 1.5"/>
      </g>
     </g>
    </g>
    <g id="ytick_27">
     <g id="line2d_143">
      <g>
       <use xlink:href="#m6139003f48" x="58.848357" y="127.770548" style="stroke: #000000; stroke-width: 1.5"/>
      </g>
     </g>
     <g id="line2d_144">
      <g>
       <use xlink:href="#md2a56143d8" x="421.2" y="127.770548" style="stroke: #000000; stroke-width: 1.5"/>
      </g>
     </g>
    </g>
    <g id="ytick_28">
     <g id="line2d_145">
      <g>
       <use xlink:href="#m6139003f48" x="58.848357" y="122.388975" style="stroke: #000000; stroke-width: 1.5"/>
      </g>
     </g>
     <g id="line2d_146">
      <g>
       <use xlink:href="#md2a56143d8" x="421.2" y="122.388975" style="stroke: #000000; stroke-width: 1.5"/>
      </g>
     </g>
    </g>
    <g id="ytick_29">
     <g id="line2d_147">
      <g>
       <use xlink:href="#m6139003f48" x="58.848357" y="118.214702" style="stroke: #000000; stroke-width: 1.5"/>
      </g>
     </g>
     <g id="line2d_148">
      <g>
       <use xlink:href="#md2a56143d8" x="421.2" y="118.214702" style="stroke: #000000; stroke-width: 1.5"/>
      </g>
     </g>
    </g>
    <g id="ytick_30">
     <g id="line2d_149">
      <g>
       <use xlink:href="#m6139003f48" x="58.848357" y="114.804073" style="stroke: #000000; stroke-width: 1.5"/>
      </g>
     </g>
     <g id="line2d_150">
      <g>
       <use xlink:href="#md2a56143d8" x="421.2" y="114.804073" style="stroke: #000000; stroke-width: 1.5"/>
      </g>
     </g>
    </g>
    <g id="ytick_31">
     <g id="line2d_151">
      <g>
       <use xlink:href="#m6139003f48" x="58.848357" y="111.920428" style="stroke: #000000; stroke-width: 1.5"/>
      </g>
     </g>
     <g id="line2d_152">
      <g>
       <use xlink:href="#md2a56143d8" x="421.2" y="111.920428" style="stroke: #000000; stroke-width: 1.5"/>
      </g>
     </g>
    </g>
    <g id="ytick_32">
     <g id="line2d_153">
      <g>
       <use xlink:href="#m6139003f48" x="58.848357" y="109.4225" style="stroke: #000000; stroke-width: 1.5"/>
      </g>
     </g>
     <g id="line2d_154">
      <g>
       <use xlink:href="#md2a56143d8" x="421.2" y="109.4225" style="stroke: #000000; stroke-width: 1.5"/>
      </g>
     </g>
    </g>
    <g id="ytick_33">
     <g id="line2d_155">
      <g>
       <use xlink:href="#m6139003f48" x="58.848357" y="107.219172" style="stroke: #000000; stroke-width: 1.5"/>
      </g>
     </g>
     <g id="line2d_156">
      <g>
       <use xlink:href="#md2a56143d8" x="421.2" y="107.219172" style="stroke: #000000; stroke-width: 1.5"/>
      </g>
     </g>
    </g>
    <g id="ytick_34">
     <g id="line2d_157">
      <g>
       <use xlink:href="#m6139003f48" x="58.848357" y="92.281753" style="stroke: #000000; stroke-width: 1.5"/>
      </g>
     </g>
     <g id="line2d_158">
      <g>
       <use xlink:href="#md2a56143d8" x="421.2" y="92.281753" style="stroke: #000000; stroke-width: 1.5"/>
      </g>
     </g>
    </g>
    <g id="ytick_35">
     <g id="line2d_159">
      <g>
       <use xlink:href="#m6139003f48" x="58.848357" y="84.696851" style="stroke: #000000; stroke-width: 1.5"/>
      </g>
     </g>
     <g id="line2d_160">
      <g>
       <use xlink:href="#md2a56143d8" x="421.2" y="84.696851" style="stroke: #000000; stroke-width: 1.5"/>
      </g>
     </g>
    </g>
    <g id="ytick_36">
     <g id="line2d_161">
      <g>
       <use xlink:href="#m6139003f48" x="58.848357" y="79.315278" style="stroke: #000000; stroke-width: 1.5"/>
      </g>
     </g>
     <g id="line2d_162">
      <g>
       <use xlink:href="#md2a56143d8" x="421.2" y="79.315278" style="stroke: #000000; stroke-width: 1.5"/>
      </g>
     </g>
    </g>
    <g id="ytick_37">
     <g id="line2d_163">
      <g>
       <use xlink:href="#m6139003f48" x="58.848357" y="75.141006" style="stroke: #000000; stroke-width: 1.5"/>
      </g>
     </g>
     <g id="line2d_164">
      <g>
       <use xlink:href="#md2a56143d8" x="421.2" y="75.141006" style="stroke: #000000; stroke-width: 1.5"/>
      </g>
     </g>
    </g>
    <g id="ytick_38">
     <g id="line2d_165">
      <g>
       <use xlink:href="#m6139003f48" x="58.848357" y="71.730377" style="stroke: #000000; stroke-width: 1.5"/>
      </g>
     </g>
     <g id="line2d_166">
      <g>
       <use xlink:href="#md2a56143d8" x="421.2" y="71.730377" style="stroke: #000000; stroke-width: 1.5"/>
      </g>
     </g>
    </g>
    <g id="ytick_39">
     <g id="line2d_167">
      <g>
       <use xlink:href="#m6139003f48" x="58.848357" y="68.846731" style="stroke: #000000; stroke-width: 1.5"/>
      </g>
     </g>
     <g id="line2d_168">
      <g>
       <use xlink:href="#md2a56143d8" x="421.2" y="68.846731" style="stroke: #000000; stroke-width: 1.5"/>
      </g>
     </g>
    </g>
    <g id="ytick_40">
     <g id="line2d_169">
      <g>
       <use xlink:href="#m6139003f48" x="58.848357" y="66.348804" style="stroke: #000000; stroke-width: 1.5"/>
      </g>
     </g>
     <g id="line2d_170">
      <g>
       <use xlink:href="#md2a56143d8" x="421.2" y="66.348804" style="stroke: #000000; stroke-width: 1.5"/>
      </g>
     </g>
    </g>
    <g id="ytick_41">
     <g id="line2d_171">
      <g>
       <use xlink:href="#m6139003f48" x="58.848357" y="64.145475" style="stroke: #000000; stroke-width: 1.5"/>
      </g>
     </g>
     <g id="line2d_172">
      <g>
       <use xlink:href="#md2a56143d8" x="421.2" y="64.145475" style="stroke: #000000; stroke-width: 1.5"/>
      </g>
     </g>
    </g>
    <g id="ytick_42">
     <g id="line2d_173">
      <g>
       <use xlink:href="#m6139003f48" x="58.848357" y="49.208056" style="stroke: #000000; stroke-width: 1.5"/>
      </g>
     </g>
     <g id="line2d_174">
      <g>
       <use xlink:href="#md2a56143d8" x="421.2" y="49.208056" style="stroke: #000000; stroke-width: 1.5"/>
      </g>
     </g>
    </g>
    <g id="ytick_43">
     <g id="line2d_175">
      <g>
       <use xlink:href="#m6139003f48" x="58.848357" y="41.623155" style="stroke: #000000; stroke-width: 1.5"/>
      </g>
     </g>
     <g id="line2d_176">
      <g>
       <use xlink:href="#md2a56143d8" x="421.2" y="41.623155" style="stroke: #000000; stroke-width: 1.5"/>
      </g>
     </g>
    </g>
    <g id="ytick_44">
     <g id="line2d_177">
      <g>
       <use xlink:href="#m6139003f48" x="58.848357" y="36.241582" style="stroke: #000000; stroke-width: 1.5"/>
      </g>
     </g>
     <g id="line2d_178">
      <g>
       <use xlink:href="#md2a56143d8" x="421.2" y="36.241582" style="stroke: #000000; stroke-width: 1.5"/>
      </g>
     </g>
    </g>
    <g id="ytick_45">
     <g id="line2d_179">
      <g>
       <use xlink:href="#m6139003f48" x="58.848357" y="32.067309" style="stroke: #000000; stroke-width: 1.5"/>
      </g>
     </g>
     <g id="line2d_180">
      <g>
       <use xlink:href="#md2a56143d8" x="421.2" y="32.067309" style="stroke: #000000; stroke-width: 1.5"/>
      </g>
     </g>
    </g>
    <g id="ytick_46">
     <g id="line2d_181">
      <g>
       <use xlink:href="#m6139003f48" x="58.848357" y="28.65668" style="stroke: #000000; stroke-width: 1.5"/>
      </g>
     </g>
     <g id="line2d_182">
      <g>
       <use xlink:href="#md2a56143d8" x="421.2" y="28.65668" style="stroke: #000000; stroke-width: 1.5"/>
      </g>
     </g>
    </g>
    <g id="ytick_47">
     <g id="line2d_183">
      <g>
       <use xlink:href="#m6139003f48" x="58.848357" y="25.773035" style="stroke: #000000; stroke-width: 1.5"/>
      </g>
     </g>
     <g id="line2d_184">
      <g>
       <use xlink:href="#md2a56143d8" x="421.2" y="25.773035" style="stroke: #000000; stroke-width: 1.5"/>
      </g>
     </g>
    </g>
    <g id="ytick_48">
     <g id="line2d_185">
      <g>
       <use xlink:href="#m6139003f48" x="58.848357" y="23.275107" style="stroke: #000000; stroke-width: 1.5"/>
      </g>
     </g>
     <g id="line2d_186">
      <g>
       <use xlink:href="#md2a56143d8" x="421.2" y="23.275107" style="stroke: #000000; stroke-width: 1.5"/>
      </g>
     </g>
    </g>
    <g id="ytick_49">
     <g id="line2d_187">
      <g>
       <use xlink:href="#m6139003f48" x="58.848357" y="21.071779" style="stroke: #000000; stroke-width: 1.5"/>
      </g>
     </g>
     <g id="line2d_188">
      <g>
       <use xlink:href="#md2a56143d8" x="421.2" y="21.071779" style="stroke: #000000; stroke-width: 1.5"/>
      </g>
     </g>
    </g>
    <g id="text_20">
     <!-- $n_p$ [cm$^{-3}$] -->
     <g transform="translate(26.508357 155.262) rotate(-90) scale(0.12 -0.12)">
      <defs>
       <path id="DejaVuSans-Oblique-6e" d="M 3566 2113 
L 3156 0 
L 2578 0 
L 2988 2091 
Q 3016 2238 3031 2350 
Q 3047 2463 3047 2528 
Q 3047 2791 2881 2937 
Q 2716 3084 2419 3084 
Q 1956 3084 1622 2776 
Q 1288 2469 1184 1941 
L 800 0 
L 225 0 
L 903 3500 
L 1478 3500 
L 1363 2950 
Q 1603 3253 1940 3418 
Q 2278 3584 2650 3584 
Q 3113 3584 3367 3334 
Q 3622 3084 3622 2631 
Q 3622 2519 3608 2391 
Q 3594 2263 3566 2113 
z
" transform="scale(0.015625)"/>
       <path id="DejaVuSans-Oblique-70" d="M 3175 2156 
Q 3175 2616 2975 2859 
Q 2775 3103 2400 3103 
Q 2144 3103 1911 2972 
Q 1678 2841 1497 2591 
Q 1319 2344 1212 1994 
Q 1106 1644 1106 1300 
Q 1106 863 1306 627 
Q 1506 391 1875 391 
Q 2147 391 2380 519 
Q 2613 647 2778 891 
Q 2956 1147 3065 1494 
Q 3175 1841 3175 2156 
z
M 1394 2969 
Q 1625 3272 1939 3428 
Q 2253 3584 2638 3584 
Q 3175 3584 3472 3232 
Q 3769 2881 3769 2247 
Q 3769 1728 3584 1258 
Q 3400 788 3053 416 
Q 2822 169 2531 39 
Q 2241 -91 1919 -91 
Q 1547 -91 1294 64 
Q 1041 219 916 525 
L 556 -1331 
L -19 -1331 
L 922 3500 
L 1497 3500 
L 1394 2969 
z
" transform="scale(0.015625)"/>
       <path id="DejaVuSans-6d" d="M 3328 2828 
Q 3544 3216 3844 3400 
Q 4144 3584 4550 3584 
Q 5097 3584 5394 3201 
Q 5691 2819 5691 2113 
L 5691 0 
L 5113 0 
L 5113 2094 
Q 5113 2597 4934 2840 
Q 4756 3084 4391 3084 
Q 3944 3084 3684 2787 
Q 3425 2491 3425 1978 
L 3425 0 
L 2847 0 
L 2847 2094 
Q 2847 2600 2669 2842 
Q 2491 3084 2119 3084 
Q 1678 3084 1418 2786 
Q 1159 2488 1159 1978 
L 1159 0 
L 581 0 
L 581 3500 
L 1159 3500 
L 1159 2956 
Q 1356 3278 1631 3431 
Q 1906 3584 2284 3584 
Q 2666 3584 2933 3390 
Q 3200 3197 3328 2828 
z
" transform="scale(0.015625)"/>
       <path id="DejaVuSans-2212" d="M 678 2272 
L 4684 2272 
L 4684 1741 
L 678 1741 
L 678 2272 
z
" transform="scale(0.015625)"/>
      </defs>
      <use xlink:href="#DejaVuSans-Oblique-6e" transform="translate(0 0.765625)"/>
      <use xlink:href="#DejaVuSans-Oblique-70" transform="translate(63.378906 -15.640625) scale(0.7)"/>
      <use xlink:href="#DejaVuSans-20" transform="translate(110.546875 0.765625)"/>
      <use xlink:href="#DejaVuSans-5b" transform="translate(142.333984 0.765625)"/>
      <use xlink:href="#DejaVuSans-63" transform="translate(181.347656 0.765625)"/>
      <use xlink:href="#DejaVuSans-6d" transform="translate(236.328125 0.765625)"/>
      <use xlink:href="#DejaVuSans-2212" transform="translate(334.697266 39.046875) scale(0.7)"/>
      <use xlink:href="#DejaVuSans-33" transform="translate(393.349609 39.046875) scale(0.7)"/>
      <use xlink:href="#DejaVuSans-5d" transform="translate(440.620117 0.765625)"/>
     </g>
    </g>
   </g>
  </g>
 </g>
 <defs>
  <clipPath id="p0fbfce8b88">
   <rect x="58.848357" y="10.8" width="362.351643" height="231.324"/>
  </clipPath>
 </defs>
</svg>
