<?xml version="1.0" encoding="utf-8" standalone="no"?>
<!DOCTYPE svg PUBLIC "-//W3C//DTD SVG 1.1//EN"
  "http://www.w3.org/Graphics/SVG/1.1/DTD/svg11.dtd">
<svg xmlns:xlink="http://www.w3.org/1999/xlink" width="432pt" height="288pt" viewBox="0 0 432 288" xmlns="http://www.w3.org/2000/svg" version="1.1">
 <metadata>
  <rdf:RDF xmlns:dc="http://purl.org/dc/elements/1.1/" xmlns:cc="http://creativecommons.org/ns#" xmlns:rdf="http://www.w3.org/1999/02/22-rdf-syntax-ns#">
   <cc:Work>
    <dc:type rdf:resource="http://purl.org/dc/dcmitype/StillImage"/>
    <dc:date>2022-12-05T13:48:21.340486</dc:date>
    <dc:format>image/svg+xml</dc:format>
    <dc:creator>
     <cc:Agent>
      <dc:title>Matplotlib v3.6.1, https://matplotlib.org/</dc:title>
     </cc:Agent>
    </dc:creator>
   </cc:Work>
  </rdf:RDF>
 </metadata>
 <defs>
  <style type="text/css">*{stroke-linejoin: round; stroke-linecap: butt}</style>
 </defs>
 <g id="figure_1">
  <g id="patch_1">
   <path d="M 0 288 
L 432 288 
L 432 0 
L 0 0 
z
" style="fill: #ffffff"/>
  </g>
  <g id="axes_1">
   <g id="patch_2">
    <path d="M 58.848357 242.124 
L 421.2 242.124 
L 421.2 10.8 
L 58.848357 10.8 
z
" style="fill: #ffffff"/>
   </g>
   <g id="patch_3">
    <path d="M 58.848357 242.124 
L 58.848357 10.8 
" style="fill: none; stroke: #000000; stroke-width: 1.5; stroke-linejoin: miter; stroke-linecap: square"/>
   </g>
   <g id="patch_4">
    <path d="M 421.2 242.124 
L 421.2 10.8 
" style="fill: none; stroke: #000000; stroke-width: 1.5; stroke-linejoin: miter; stroke-linecap: square"/>
   </g>
   <g id="patch_5">
    <path d="M 58.848357 242.124 
L 421.2 242.124 
" style="fill: none; stroke: #000000; stroke-width: 1.5; stroke-linejoin: miter; stroke-linecap: square"/>
   </g>
   <g id="patch_6">
    <path d="M 58.848357 10.8 
L 421.2 10.8 
" style="fill: none; stroke: #000000; stroke-width: 1.5; stroke-linejoin: miter; stroke-linecap: square"/>
   </g>
   <g id="PolyCollection_1">
    <path d="M 200.576853 102.117337 
L 200.576853 117.825518 
L 201.077223 118.538086 
L 201.960299 124.180586 
L 202.824238 109.420591 
L 203.708252 110.089357 
L 204.521384 108.608211 
L 205.383986 110.231275 
L 206.22402 108.137926 
L 207.120775 109.236174 
L 207.941146 110.158005 
L 208.793105 111.150678 
L 209.69343 114.207361 
L 210.496478 114.38072 
L 211.339321 114.736865 
L 212.24236 114.949958 
L 213.044188 114.455615 
L 213.892998 113.44129 
L 214.747912 116.102809 
L 215.593345 115.803623 
L 216.485869 117.529562 
L 217.322466 115.97356 
L 218.145863 116.776784 
L 219.066244 116.1375 
L 219.837986 115.551855 
L 220.718287 115.677775 
L 221.576532 118.265809 
L 222.429213 116.766242 
L 223.277979 117.367067 
L 224.106918 115.458841 
L 225.001025 120.192157 
L 225.813491 116.691464 
L 226.685348 127.129707 
L 227.500177 115.769318 
L 228.40223 116.045367 
L 229.251584 122.022507 
L 230.051198 120.681564 
L 230.932569 113.940611 
L 231.779397 108.817817 
L 232.691299 117.296823 
L 233.491896 127.707178 
L 234.323192 121.676773 
L 235.181444 111.24643 
L 236.07242 118.985797 
L 236.864458 122.52292 
L 237.867307 124.609635 
L 238.523138 127.842329 
L 239.442768 131.648019 
L 240.300479 132.520029 
L 241.148432 140.508336 
L 242.026025 134.427079 
L 242.845111 136.987777 
L 243.705026 134.007367 
L 244.535743 129.365828 
L 245.356236 125.049307 
L 246.233 128.31659 
L 247.077852 125.865729 
L 247.947757 125.248836 
L 248.816632 123.384679 
L 249.634351 122.968866 
L 250.512241 121.853909 
L 251.362639 120.773291 
L 252.23359 121.643812 
L 253.028772 122.604466 
L 253.97817 119.342178 
L 254.745188 123.519675 
L 255.622555 118.576635 
L 256.474209 120.459324 
L 257.306897 119.487166 
L 258.169397 116.424697 
L 259.039454 119.512849 
L 259.899252 119.193672 
L 260.727333 121.526488 
L 261.653184 123.434807 
L 262.436505 125.764464 
L 263.314593 123.574721 
L 264.052209 122.991528 
L 264.982396 124.060548 
L 265.850083 122.636143 
L 266.689313 125.546775 
L 267.542607 122.004223 
L 268.301705 124.941265 
L 269.250557 124.233993 
L 270.091624 125.266502 
L 270.970171 123.355271 
L 271.819897 123.577173 
L 272.666398 129.198094 
L 273.524165 124.25111 
L 274.344165 122.581263 
L 275.149736 123.612334 
L 276.149475 121.58407 
L 276.93304 122.958003 
L 277.744174 122.544658 
L 278.606799 122.552833 
L 279.450129 119.259039 
L 280.319635 123.219607 
L 281.290479 35729.8879 
L 282.015218 35729.8879 
L 282.876017 188.750871 
L 283.701737 220.609807 
L 284.586731 164.882881 
L 285.375968 155.709292 
L 286.262281 35729.8879 
L 287.119506 35729.8879 
L 287.989549 177.754607 
L 288.842486 176.069086 
L 289.65085 231.609273 
L 290.510126 194.574398 
L 291.539871 35729.8879 
L 292.233136 35729.8879 
L 293.049856 35729.8879 
L 293.985313 182.819162 
L 294.799957 196.201286 
L 295.673278 173.388829 
L 296.482029 170.418422 
L 297.294675 168.165943 
L 298.073041 160.182061 
L 299.041556 35729.8879 
L 299.936931 172.938348 
L 300.784005 159.685236 
L 301.628622 170.711069 
L 302.397483 164.341974 
L 303.229645 168.943667 
L 304.135476 173.42175 
L 304.988207 199.883658 
L 305.83614 199.714463 
L 306.676453 167.49138 
L 307.626983 185.576527 
L 308.377073 35729.8879 
L 309.272349 164.715092 
L 310.101806 158.500095 
L 310.937369 162.071136 
L 311.815155 176.577679 
L 312.665303 166.434265 
L 313.472517 169.008409 
L 314.350187 167.936134 
L 315.173249 35729.8879 
L 316.050728 35729.8879 
L 316.899692 214.001134 
L 317.746077 194.438704 
L 318.63431 167.721728 
L 319.449967 183.894221 
L 320.279974 191.054637 
L 321.174347 184.100892 
L 322.003956 175.792459 
L 322.858248 191.270954 
L 323.725338 35729.8879 
L 324.563407 35729.8879 
L 325.368488 35729.8879 
L 326.108868 35729.8879 
L 327.245476 35729.8879 
L 327.977771 35729.8879 
L 328.803125 35729.8879 
L 329.673531 35729.8879 
L 330.574637 35729.8879 
L 331.362099 164.538399 
L 332.217691 166.997418 
L 333.089905 164.249508 
L 333.921815 166.04715 
L 334.758002 163.58761 
L 335.645808 159.843453 
L 336.481472 157.99822 
L 337.334431 159.42502 
L 338.180588 161.677322 
L 339.032983 158.629369 
L 339.915192 167.824821 
L 340.755063 166.393255 
L 341.590781 182.683305 
L 342.437009 35729.8879 
L 343.323187 35729.8879 
L 344.13685 164.814248 
L 344.981272 164.583827 
L 345.825324 163.513968 
L 346.697909 159.062733 
L 347.536459 166.217411 
L 348.42759 35729.8879 
L 349.26815 172.45603 
L 350.128239 159.52311 
L 350.940091 157.909518 
L 351.792861 172.659806 
L 352.656548 163.751258 
L 353.504871 157.99029 
L 354.378995 165.699998 
L 355.201403 163.127946 
L 356.056219 158.443882 
L 356.930622 151.141187 
L 357.809332 163.847514 
L 358.62157 177.750135 
L 359.469751 164.395401 
L 360.324171 170.879763 
L 361.107456 160.500965 
L 362.053793 162.717098 
L 362.86208 199.145284 
L 363.701255 170.634444 
L 364.563775 173.173734 
L 365.450946 164.798409 
L 366.272189 154.017297 
L 367.086467 152.486351 
L 367.969001 146.199243 
L 368.833787 153.744164 
L 369.647801 159.112417 
L 370.53644 158.209368 
L 371.367385 160.685095 
L 372.242337 158.209356 
L 373.120904 155.280476 
L 373.93005 156.294056 
L 374.819284 174.819197 
L 375.614687 163.380802 
L 376.508726 35729.8879 
L 377.368625 172.244888 
L 378.16406 153.805793 
L 378.998135 151.81957 
L 379.911791 160.165714 
L 380.647274 158.597783 
L 381.667778 150.781213 
L 382.448966 153.190355 
L 383.421808 153.864948 
L 384.165482 150.13456 
L 385.00451 150.237902 
L 385.850976 152.537452 
L 386.702491 153.076398 
L 387.572528 157.060864 
L 388.430357 160.833586 
L 389.280305 162.194328 
L 390.098456 164.160094 
L 390.940221 157.006746 
L 391.831808 161.119478 
L 392.666566 170.811608 
L 393.519774 181.625312 
L 394.379332 176.365956 
L 395.217774 175.073004 
L 396.055976 175.094713 
L 396.937303 192.448341 
L 397.753131 184.663636 
L 398.637083 161.853557 
L 399.482439 165.90507 
L 400.323413 190.663916 
L 401.187038 177.846292 
L 402.02471 173.928069 
L 402.861933 178.074958 
L 403.743139 158.289958 
L 404.599013 172.744944 
L 404.599013 135.761881 
L 404.599013 135.761881 
L 403.743139 145.68475 
L 402.861933 135.333107 
L 402.02471 134.464828 
L 401.187038 136.93761 
L 400.323413 136.477028 
L 399.482439 144.658606 
L 398.637083 146.604735 
L 397.753131 138.558794 
L 396.937303 138.715506 
L 396.055976 141.285092 
L 395.217774 136.069629 
L 394.379332 134.151083 
L 393.519774 135.304054 
L 392.666566 136.510483 
L 391.831808 134.040754 
L 390.940221 134.083096 
L 390.098456 134.23404 
L 389.280305 134.837223 
L 388.430357 132.347143 
L 387.572528 131.830131 
L 386.702491 132.561706 
L 385.850976 131.257275 
L 385.00451 132.174676 
L 384.165482 133.033099 
L 383.421808 132.960901 
L 382.448966 142.113719 
L 381.667778 144.224921 
L 380.647274 129.883166 
L 379.911791 130.287332 
L 378.998135 125.616003 
L 378.16406 131.339197 
L 377.368625 129.568683 
L 376.508726 139.051752 
L 375.614687 139.909475 
L 374.819284 137.719482 
L 373.93005 138.028219 
L 373.120904 139.03356 
L 372.242337 143.222912 
L 371.367385 141.823513 
L 370.53644 142.103938 
L 369.647801 139.718119 
L 368.833787 140.838758 
L 367.969001 137.972111 
L 367.086467 138.621801 
L 366.272189 137.268172 
L 365.450946 140.485327 
L 364.563775 144.902769 
L 363.701255 145.142331 
L 362.86208 140.226553 
L 362.053793 147.392594 
L 361.107456 146.879433 
L 360.324171 140.451471 
L 359.469751 141.158911 
L 358.62157 139.43589 
L 357.809332 139.672253 
L 356.930622 137.680158 
L 356.056219 135.230909 
L 355.201403 136.762465 
L 354.378995 141.150928 
L 353.504871 142.717478 
L 352.656548 139.585657 
L 351.792861 135.050323 
L 350.940091 139.563143 
L 350.128239 139.930199 
L 349.26815 135.081457 
L 348.42759 131.686131 
L 347.536459 137.722089 
L 346.697909 140.42574 
L 345.825324 136.496609 
L 344.981272 136.39118 
L 344.13685 136.724529 
L 343.323187 129.115314 
L 342.437009 133.168704 
L 341.590781 135.097177 
L 340.755063 132.797588 
L 339.915192 131.635421 
L 339.032983 129.639953 
L 338.180588 133.198627 
L 337.334431 135.593201 
L 336.481472 137.576161 
L 335.645808 136.530104 
L 334.758002 137.968557 
L 333.921815 136.971444 
L 333.089905 141.170675 
L 332.217691 139.555063 
L 331.362099 139.760485 
L 330.574637 135.508931 
L 329.673531 125.700565 
L 328.803125 132.293029 
L 327.977771 135.407842 
L 327.245476 135.253477 
L 326.108868 124.556754 
L 325.368488 128.69247 
L 324.563407 131.376803 
L 323.725338 132.016193 
L 322.858248 141.704861 
L 322.003956 136.439326 
L 321.174347 137.927337 
L 320.279974 135.760749 
L 319.449967 135.267945 
L 318.63431 137.313453 
L 317.746077 132.089021 
L 316.899692 134.99416 
L 316.050728 135.387251 
L 315.173249 131.180193 
L 314.350187 132.708398 
L 313.472517 133.422802 
L 312.665303 135.945376 
L 311.815155 131.086973 
L 310.937369 135.310178 
L 310.101806 135.944777 
L 309.272349 133.392947 
L 308.377073 131.19471 
L 307.626983 136.347921 
L 306.676453 139.459851 
L 305.83614 138.424361 
L 304.988207 135.598951 
L 304.135476 134.756503 
L 303.229645 134.571149 
L 302.397483 133.523871 
L 301.628622 132.433276 
L 300.784005 133.249147 
L 299.936931 130.119686 
L 299.041556 133.602615 
L 298.073041 135.618666 
L 297.294675 135.547317 
L 296.482029 134.008359 
L 295.673278 132.674385 
L 294.799957 132.055892 
L 293.985313 132.743245 
L 293.049856 128.663691 
L 292.233136 132.266812 
L 291.539871 126.800624 
L 290.510126 125.963109 
L 289.65085 126.651214 
L 288.842486 125.78452 
L 287.989549 125.953685 
L 287.119506 128.469078 
L 286.262281 128.475898 
L 285.375968 122.116504 
L 284.586731 124.695162 
L 283.701737 125.941548 
L 282.876017 125.041971 
L 282.015218 124.903255 
L 281.290479 122.251687 
L 280.319635 115.249856 
L 279.450129 116.570575 
L 278.606799 116.92048 
L 277.744174 118.086063 
L 276.93304 117.103503 
L 276.149475 117.784952 
L 275.149736 118.307252 
L 274.344165 118.713697 
L 273.524165 117.866193 
L 272.666398 119.183494 
L 271.819897 117.657796 
L 270.970171 118.560577 
L 270.091624 118.045041 
L 269.250557 115.313892 
L 268.301705 117.296506 
L 267.542607 115.86798 
L 266.689313 113.36984 
L 265.850083 116.215153 
L 264.982396 115.883234 
L 264.052209 114.846556 
L 263.314593 115.218355 
L 262.436505 116.602438 
L 261.653184 114.983065 
L 260.727333 114.118723 
L 259.899252 111.979033 
L 259.039454 112.382041 
L 258.169397 112.607349 
L 257.306897 113.494477 
L 256.474209 112.779911 
L 255.622555 111.707548 
L 254.745188 112.922234 
L 253.97817 113.247325 
L 253.028772 113.465559 
L 252.23359 114.373391 
L 251.362639 114.737592 
L 250.512241 114.439898 
L 249.634351 115.21769 
L 248.816632 115.363743 
L 247.947757 115.075164 
L 247.077852 112.810283 
L 246.233 113.528216 
L 245.356236 111.034865 
L 244.535743 112.036142 
L 243.705026 110.850953 
L 242.845111 110.345657 
L 242.026025 108.962966 
L 241.148432 110.181995 
L 240.300479 109.970197 
L 239.442768 113.565605 
L 238.523138 111.550216 
L 237.867307 111.457391 
L 236.864458 105.990459 
L 236.07242 103.558008 
L 235.181444 102.668613 
L 234.323192 100.653957 
L 233.491896 98.365215 
L 232.691299 97.937188 
L 231.779397 99.15879 
L 230.932569 99.353994 
L 230.051198 100.859227 
L 229.251584 105.872791 
L 228.40223 101.802333 
L 227.500177 102.337323 
L 226.685348 105.121226 
L 225.813491 104.112578 
L 225.001025 102.294866 
L 224.106918 101.217743 
L 223.277979 101.971203 
L 222.429213 106.020831 
L 221.576532 106.931339 
L 220.718287 107.164446 
L 219.837986 107.246785 
L 219.066244 107.485328 
L 218.145863 108.219347 
L 217.322466 105.507689 
L 216.485869 104.586122 
L 215.593345 108.003868 
L 214.747912 108.264185 
L 213.892998 109.382756 
L 213.044188 109.698144 
L 212.24236 109.026997 
L 211.339321 107.904593 
L 210.496478 109.026276 
L 209.69343 106.190338 
L 208.793105 105.36154 
L 207.941146 103.921931 
L 207.120775 103.225374 
L 206.22402 102.871693 
L 205.383986 101.26245 
L 204.521384 99.316167 
L 203.708252 100.777563 
L 202.824238 97.782388 
L 201.960299 102.142991 
L 201.077223 104.183365 
L 200.576853 102.117337 
z
" clip-path="url(#p06e040a567)" style="fill: #add8e6; stroke: #add8e6"/>
   </g>
   <g id="line2d_1">
    <path d="M 200.576853 108.051727 
L 201.077223 109.747032 
L 201.960299 109.519645 
L 202.824238 102.52837 
L 203.708252 104.740829 
L 204.521384 103.27245 
L 205.383986 105.103629 
L 206.22402 105.281026 
L 207.120775 105.939661 
L 207.941146 106.726775 
L 208.793105 107.985949 
L 209.69343 109.683477 
L 210.496478 111.472192 
L 211.339321 110.945292 
L 212.24236 111.705759 
L 213.044188 111.894084 
L 213.892998 111.27885 
L 214.747912 111.690568 
L 215.593345 111.415641 
L 216.485869 109.737558 
L 217.322466 109.869037 
L 218.145863 111.911768 
L 219.066244 111.21223 
L 219.837986 110.846692 
L 220.718287 110.840767 
L 221.576532 111.57955 
L 222.429213 110.475682 
L 223.277979 107.822137 
L 224.106918 106.749204 
L 225.001025 108.780276 
L 225.813491 109.153146 
L 226.685348 112.492251 
L 227.500177 107.634494 
L 228.40223 107.334345 
L 229.251584 111.923065 
L 230.051198 107.782406 
L 230.932569 104.982863 
L 231.779397 103.243885 
L 232.691299 104.758977 
L 233.491896 106.908786 
L 234.323192 107.829303 
L 235.181444 106.368463 
L 236.864458 112.139218 
L 237.867307 116.671509 
L 238.523138 117.637342 
L 239.442768 120.094965 
L 240.300479 117.444486 
L 241.148432 118.849781 
L 242.026025 116.944871 
L 242.845111 118.511097 
L 244.535743 118.38427 
L 245.356236 116.501573 
L 246.233 119.213243 
L 247.077852 117.995416 
L 247.947757 119.337564 
L 248.816632 118.858341 
L 249.634351 118.611173 
L 250.512241 117.705441 
L 251.362639 117.461927 
L 252.23359 117.58392 
L 253.028772 117.367501 
L 253.97817 115.995493 
L 254.745188 117.327731 
L 255.622555 114.762631 
L 256.474209 116.146308 
L 257.306897 116.201449 
L 258.169397 114.398169 
L 259.039454 115.538775 
L 259.899252 115.168104 
L 260.727333 117.381879 
L 261.653184 118.636857 
L 262.436505 120.512607 
L 263.314593 118.837144 
L 264.052209 118.387276 
L 264.982396 119.435942 
L 265.850083 119.093739 
L 266.689313 118.286042 
L 267.542607 118.632791 
L 268.301705 120.649796 
L 269.250557 119.137585 
L 270.091624 121.236739 
L 271.819897 120.335107 
L 272.666398 123.391505 
L 273.524165 120.730436 
L 274.344165 120.526513 
L 275.149736 120.732711 
L 276.149475 119.567777 
L 276.93304 119.754494 
L 277.744174 120.154734 
L 278.606799 119.480852 
L 279.450129 117.856276 
L 280.319635 118.725353 
L 281.290479 133.261416 
L 282.015218 136.352778 
L 282.876017 135.482414 
L 283.701737 136.594175 
L 284.586731 134.283705 
L 285.375968 131.149751 
L 286.262281 140.355826 
L 287.119506 139.514772 
L 287.989549 136.11314 
L 288.842486 135.890584 
L 289.65085 137.31998 
L 290.510126 136.469997 
L 291.539871 137.879584 
L 292.233136 143.978707 
L 293.049856 140.085839 
L 293.985313 142.841558 
L 294.799957 142.503132 
L 295.673278 142.298544 
L 297.294675 144.478684 
L 298.073041 143.452072 
L 299.041556 145.548628 
L 299.936931 139.875295 
L 300.784005 141.383337 
L 302.397483 142.251157 
L 303.229645 143.681879 
L 304.135476 144.235502 
L 304.988207 146.04832 
L 305.83614 148.823512 
L 306.676453 147.826992 
L 307.626983 146.4137 
L 308.377073 141.913898 
L 309.272349 142.179508 
L 310.101806 143.420098 
L 310.937369 143.493483 
L 311.815155 140.986902 
L 312.665303 144.633015 
L 313.472517 142.647252 
L 314.350187 141.900139 
L 315.173249 143.342385 
L 316.050728 147.712331 
L 316.899692 145.588539 
L 317.746077 142.507047 
L 318.63431 145.991269 
L 319.449967 145.30953 
L 320.279974 146.025471 
L 321.174347 147.860498 
L 322.003956 145.969064 
L 322.858248 151.783806 
L 323.725338 145.144369 
L 325.368488 140.972686 
L 326.108868 136.924842 
L 327.245476 146.288143 
L 327.977771 147.808374 
L 328.803125 145.333359 
L 329.673531 139.913657 
L 330.574637 147.447786 
L 332.217691 147.838568 
L 333.089905 148.743067 
L 333.921815 145.480212 
L 334.758002 145.975282 
L 335.645808 144.145116 
L 336.481472 144.627254 
L 337.334431 143.300571 
L 338.180588 141.627436 
L 339.032983 138.137329 
L 339.915192 140.913514 
L 340.755063 141.831128 
L 341.590781 145.094787 
L 342.437009 144.507327 
L 343.323187 140.449324 
L 344.13685 145.099782 
L 344.981272 144.780718 
L 345.825324 144.718062 
L 346.697909 147.084372 
L 347.536459 146.153161 
L 348.42759 142.408767 
L 350.128239 146.803401 
L 350.940091 146.154477 
L 351.792861 144.447263 
L 352.656548 147.351145 
L 353.504871 148.535189 
L 354.378995 148.981914 
L 355.201403 144.885863 
L 356.056219 142.827744 
L 356.930622 142.985888 
L 357.809332 147.439408 
L 358.62157 148.888181 
L 359.469751 148.760014 
L 360.324171 149.13173 
L 361.107456 152.232272 
L 362.053793 153.224284 
L 362.86208 150.578553 
L 363.701255 153.128737 
L 364.563775 153.303121 
L 366.272189 143.471881 
L 367.086467 144.045312 
L 367.969001 141.543253 
L 368.833787 145.978712 
L 369.647801 146.547586 
L 370.53644 148.142699 
L 372.242337 148.962555 
L 373.120904 145.109017 
L 373.93005 144.60073 
L 374.819284 147.074909 
L 375.614687 147.552899 
L 376.508726 150.3154 
L 377.368625 139.315914 
L 378.16406 138.797799 
L 378.998135 133.714496 
L 379.911791 138.899451 
L 380.647274 138.343893 
L 381.667778 147.157128 
L 382.448966 146.677907 
L 383.421808 140.111986 
L 384.165482 139.324941 
L 385.00451 138.699499 
L 385.850976 138.484684 
L 386.702491 139.632209 
L 387.572528 139.774252 
L 388.430357 140.777006 
L 389.280305 143.108398 
L 390.098456 142.85215 
L 390.940221 141.626993 
L 391.831808 142.271257 
L 392.666566 145.614264 
L 393.519774 145.244221 
L 394.379332 143.870679 
L 395.217774 145.573831 
L 396.055976 150.340242 
L 396.937303 148.936028 
L 397.753131 148.488675 
L 398.637083 152.415946 
L 399.482439 151.879234 
L 400.323413 146.710857 
L 401.187038 146.574619 
L 402.02471 144.002494 
L 402.861933 145.084208 
L 403.743139 150.733384 
L 404.599013 145.10763 
L 404.599013 145.10763 
" clip-path="url(#p06e040a567)" style="fill: none; stroke: #1f77b4; stroke-width: 1.5; stroke-linecap: square"/>
   </g>
   <g id="line2d_2">
    <path d="M 75.318887 21.314727 
L 76.000771 25.006458 
L 76.682655 26.852324 
L 77.363806 28.130231 
L 79.409581 31.502485 
L 81.113986 34.874739 
L 84.521572 42.080714 
L 87.246418 47.263336 
L 89.63234 51.274544 
L 92.357186 55.356747 
L 95.764772 59.793923 
L 97.808101 62.207747 
L 103.940533 68.455292 
L 112.45644 75.448282 
L 117.225837 78.785039 
L 125.401597 83.790174 
L 136.983721 89.718242 
L 140.73023 91.386621 
L 142.093265 91.990077 
L 152.6525 96.285264 
L 154.697052 97.03071 
L 157.081751 97.918145 
L 160.146743 98.983067 
L 161.849925 99.586523 
L 182.969619 106.08255 
L 184.672801 106.544016 
L 187.402541 107.289462 
L 189.445869 107.821923 
L 191.831791 108.460877 
L 194.548072 109.135327 
L 196.5914 109.667789 
L 200.347698 110.555224 
L 201.705839 110.910198 
L 206.820277 112.081613 
L 207.835824 112.330095 
L 213.623215 113.608002 
L 214.993591 113.927478 
L 235.426874 118.080676 
L 236.785014 118.329157 
L 241.899452 119.287588 
L 243.600187 119.571567 
L 248.029437 120.388007 
L 249.730172 120.671987 
L 253.143876 121.275443 
L 254.84461 121.559422 
L 257.91572 122.091883 
L 259.959049 122.41136 
L 262.002377 122.766334 
L 264.388299 123.121308 
L 266.431628 123.476282 
L 268.805314 123.831257 
L 271.191237 124.221728 
L 273.919753 124.6122 
L 276.305675 125.002671 
L 279.36455 125.42864 
L 281.420114 125.748117 
L 284.136394 126.138588 
L 285.837129 126.38707 
L 288.908239 126.813039 
L 290.951567 127.132516 
L 294.69563 127.62948 
L 296.396364 127.877962 
L 300.152662 128.374925 
L 301.853397 128.623407 
L 306.282647 129.191366 
L 307.983382 129.439848 
L 313.09782 130.078801 
L 314.113366 130.220791 
L 319.570399 130.895242 
L 320.585945 131.037231 
L 327.058524 131.818175 
L 328.416665 131.995662 
L 336.259619 132.918594 
L 337.61776 133.096081 
L 347.161449 134.196501 
L 392.126907 138.917657 
L 393.485047 139.024149 
L 404.386877 140.089072 
L 404.386877 140.089072 
" clip-path="url(#p06e040a567)" style="fill: none; stroke: #000000; stroke-width: 2.5; stroke-linecap: square"/>
   </g>
   <g id="line2d_3">
    <path d="M 75.318887 22.024676 
L 76.341652 32.496412 
L 77.363806 40.554325 
L 78.046546 44.778517 
L 79.068211 49.81915 
L 80.432469 55.285752 
L 82.13565 60.894343 
L 83.840055 65.509007 
L 86.224754 70.727126 
L 87.927935 73.921894 
L 89.972487 77.329645 
L 92.017039 80.382423 
L 95.423402 84.819599 
L 97.467954 87.233424 
L 102.918868 92.77102 
L 106.325231 95.823798 
L 109.731594 98.557098 
L 116.204173 103.171762 
L 123.698416 107.750928 
L 134.939169 113.501509 
L 139.368419 115.453867 
L 140.73023 116.057323 
L 148.224473 119.074603 
L 150.269025 119.820049 
L 152.993871 120.849474 
L 155.718716 121.807904 
L 157.421898 122.41136 
L 162.191295 124.008744 
L 163.553106 124.47021 
L 176.838411 128.516915 
L 178.541592 128.978381 
L 181.607808 129.830319 
L 183.651137 130.362781 
L 186.035835 131.001734 
L 188.418087 131.60519 
L 190.461415 132.137651 
L 193.532526 132.883097 
L 195.23326 133.309066 
L 199.66251 134.338491 
L 201.020651 134.657968 
L 206.820277 135.971372 
L 223.852092 139.521113 
L 225.210232 139.769595 
L 231.682811 141.012005 
L 233.040951 141.260486 
L 237.127608 142.005932 
L 238.840578 142.289911 
L 241.899452 142.85787 
L 243.600187 143.141849 
L 246.671297 143.674311 
L 248.372031 143.95829 
L 251.100548 144.419756 
L 253.143876 144.739233 
L 255.872392 145.200699 
L 257.91572 145.520176 
L 259.616455 145.804155 
L 262.002377 146.159129 
L 263.703111 146.443109 
L 266.089034 146.798083 
L 268.132362 147.11756 
L 270.518284 147.472534 
L 271.876425 147.685518 
L 274.604941 148.07599 
L 276.648269 148.395466 
L 279.707144 148.821435 
L 281.750472 149.140912 
L 285.50677 149.637876 
L 286.864911 149.85086 
L 290.608973 150.347824 
L 292.309708 150.596306 
L 296.396364 151.128767 
L 298.109334 151.377249 
L 302.868943 151.980705 
L 304.581913 152.229187 
L 310.369304 152.939135 
L 311.727444 153.116622 
L 317.527071 153.826571 
L 318.542617 153.96856 
L 326.373336 154.891493 
L 327.743712 155.06898 
L 336.602213 156.098405 
L 381.89803 160.855058 
L 396.886516 162.310452 
L 398.256892 162.416945 
L 404.729471 163.020401 
L 404.729471 163.020401 
" clip-path="url(#p06e040a567)" style="fill: none; stroke-dasharray: 9.25,4; stroke-dashoffset: 0; stroke: #8b0000; stroke-width: 2.5"/>
   </g>
   <g id="legend_1">
    <g id="line2d_4">
     <path d="M 333.95625 23.898438 
L 343.95625 23.898438 
L 353.95625 23.898438 
" style="fill: none; stroke: #1f77b4; stroke-width: 1.5; stroke-linecap: square"/>
    </g>
    <g id="text_1">
     <!-- PSP -->
     <g transform="translate(361.95625 27.398438) scale(0.1 -0.1)">
      <defs>
       <path id="DejaVuSans-50" d="M 1259 4147 
L 1259 2394 
L 2053 2394 
Q 2494 2394 2734 2622 
Q 2975 2850 2975 3272 
Q 2975 3691 2734 3919 
Q 2494 4147 2053 4147 
L 1259 4147 
z
M 628 4666 
L 2053 4666 
Q 2838 4666 3239 4311 
Q 3641 3956 3641 3272 
Q 3641 2581 3239 2228 
Q 2838 1875 2053 1875 
L 1259 1875 
L 1259 0 
L 628 0 
L 628 4666 
z
" transform="scale(0.015625)"/>
       <path id="DejaVuSans-53" d="M 3425 4513 
L 3425 3897 
Q 3066 4069 2747 4153 
Q 2428 4238 2131 4238 
Q 1616 4238 1336 4038 
Q 1056 3838 1056 3469 
Q 1056 3159 1242 3001 
Q 1428 2844 1947 2747 
L 2328 2669 
Q 3034 2534 3370 2195 
Q 3706 1856 3706 1288 
Q 3706 609 3251 259 
Q 2797 -91 1919 -91 
Q 1588 -91 1214 -16 
Q 841 59 441 206 
L 441 856 
Q 825 641 1194 531 
Q 1563 422 1919 422 
Q 2459 422 2753 634 
Q 3047 847 3047 1241 
Q 3047 1584 2836 1778 
Q 2625 1972 2144 2069 
L 1759 2144 
Q 1053 2284 737 2584 
Q 422 2884 422 3419 
Q 422 4038 858 4394 
Q 1294 4750 2059 4750 
Q 2388 4750 2728 4690 
Q 3069 4631 3425 4513 
z
" transform="scale(0.015625)"/>
      </defs>
      <use xlink:href="#DejaVuSans-50"/>
      <use xlink:href="#DejaVuSans-53" x="60.302734"/>
      <use xlink:href="#DejaVuSans-50" x="123.779297"/>
     </g>
    </g>
    <g id="line2d_5">
     <path d="M 333.95625 38.576562 
L 343.95625 38.576562 
L 353.95625 38.576562 
" style="fill: none; stroke: #000000; stroke-width: 2.5; stroke-linecap: square"/>
    </g>
    <g id="text_2">
     <!-- Slow wind -->
     <g transform="translate(361.95625 42.076562) scale(0.1 -0.1)">
      <defs>
       <path id="DejaVuSans-6c" d="M 603 4863 
L 1178 4863 
L 1178 0 
L 603 0 
L 603 4863 
z
" transform="scale(0.015625)"/>
       <path id="DejaVuSans-6f" d="M 1959 3097 
Q 1497 3097 1228 2736 
Q 959 2375 959 1747 
Q 959 1119 1226 758 
Q 1494 397 1959 397 
Q 2419 397 2687 759 
Q 2956 1122 2956 1747 
Q 2956 2369 2687 2733 
Q 2419 3097 1959 3097 
z
M 1959 3584 
Q 2709 3584 3137 3096 
Q 3566 2609 3566 1747 
Q 3566 888 3137 398 
Q 2709 -91 1959 -91 
Q 1206 -91 779 398 
Q 353 888 353 1747 
Q 353 2609 779 3096 
Q 1206 3584 1959 3584 
z
" transform="scale(0.015625)"/>
       <path id="DejaVuSans-77" d="M 269 3500 
L 844 3500 
L 1563 769 
L 2278 3500 
L 2956 3500 
L 3675 769 
L 4391 3500 
L 4966 3500 
L 4050 0 
L 3372 0 
L 2619 2869 
L 1863 0 
L 1184 0 
L 269 3500 
z
" transform="scale(0.015625)"/>
       <path id="DejaVuSans-20" transform="scale(0.015625)"/>
       <path id="DejaVuSans-69" d="M 603 3500 
L 1178 3500 
L 1178 0 
L 603 0 
L 603 3500 
z
M 603 4863 
L 1178 4863 
L 1178 4134 
L 603 4134 
L 603 4863 
z
" transform="scale(0.015625)"/>
       <path id="DejaVuSans-6e" d="M 3513 2113 
L 3513 0 
L 2938 0 
L 2938 2094 
Q 2938 2591 2744 2837 
Q 2550 3084 2163 3084 
Q 1697 3084 1428 2787 
Q 1159 2491 1159 1978 
L 1159 0 
L 581 0 
L 581 3500 
L 1159 3500 
L 1159 2956 
Q 1366 3272 1645 3428 
Q 1925 3584 2291 3584 
Q 2894 3584 3203 3211 
Q 3513 2838 3513 2113 
z
" transform="scale(0.015625)"/>
       <path id="DejaVuSans-64" d="M 2906 2969 
L 2906 4863 
L 3481 4863 
L 3481 0 
L 2906 0 
L 2906 525 
Q 2725 213 2448 61 
Q 2172 -91 1784 -91 
Q 1150 -91 751 415 
Q 353 922 353 1747 
Q 353 2572 751 3078 
Q 1150 3584 1784 3584 
Q 2172 3584 2448 3432 
Q 2725 3281 2906 2969 
z
M 947 1747 
Q 947 1113 1208 752 
Q 1469 391 1925 391 
Q 2381 391 2643 752 
Q 2906 1113 2906 1747 
Q 2906 2381 2643 2742 
Q 2381 3103 1925 3103 
Q 1469 3103 1208 2742 
Q 947 2381 947 1747 
z
" transform="scale(0.015625)"/>
      </defs>
      <use xlink:href="#DejaVuSans-53"/>
      <use xlink:href="#DejaVuSans-6c" x="63.476562"/>
      <use xlink:href="#DejaVuSans-6f" x="91.259766"/>
      <use xlink:href="#DejaVuSans-77" x="152.441406"/>
      <use xlink:href="#DejaVuSans-20" x="234.228516"/>
      <use xlink:href="#DejaVuSans-77" x="266.015625"/>
      <use xlink:href="#DejaVuSans-69" x="347.802734"/>
      <use xlink:href="#DejaVuSans-6e" x="375.585938"/>
      <use xlink:href="#DejaVuSans-64" x="438.964844"/>
     </g>
    </g>
    <g id="line2d_6">
     <path d="M 333.95625 53.254687 
L 343.95625 53.254687 
L 353.95625 53.254687 
" style="fill: none; stroke-dasharray: 9.25,4; stroke-dashoffset: 0; stroke: #8b0000; stroke-width: 2.5"/>
    </g>
    <g id="text_3">
     <!-- Fast wind -->
     <g transform="translate(361.95625 56.754687) scale(0.1 -0.1)">
      <defs>
       <path id="DejaVuSans-46" d="M 628 4666 
L 3309 4666 
L 3309 4134 
L 1259 4134 
L 1259 2759 
L 3109 2759 
L 3109 2228 
L 1259 2228 
L 1259 0 
L 628 0 
L 628 4666 
z
" transform="scale(0.015625)"/>
       <path id="DejaVuSans-61" d="M 2194 1759 
Q 1497 1759 1228 1600 
Q 959 1441 959 1056 
Q 959 750 1161 570 
Q 1363 391 1709 391 
Q 2188 391 2477 730 
Q 2766 1069 2766 1631 
L 2766 1759 
L 2194 1759 
z
M 3341 1997 
L 3341 0 
L 2766 0 
L 2766 531 
Q 2569 213 2275 61 
Q 1981 -91 1556 -91 
Q 1019 -91 701 211 
Q 384 513 384 1019 
Q 384 1609 779 1909 
Q 1175 2209 1959 2209 
L 2766 2209 
L 2766 2266 
Q 2766 2663 2505 2880 
Q 2244 3097 1772 3097 
Q 1472 3097 1187 3025 
Q 903 2953 641 2809 
L 641 3341 
Q 956 3463 1253 3523 
Q 1550 3584 1831 3584 
Q 2591 3584 2966 3190 
Q 3341 2797 3341 1997 
z
" transform="scale(0.015625)"/>
       <path id="DejaVuSans-73" d="M 2834 3397 
L 2834 2853 
Q 2591 2978 2328 3040 
Q 2066 3103 1784 3103 
Q 1356 3103 1142 2972 
Q 928 2841 928 2578 
Q 928 2378 1081 2264 
Q 1234 2150 1697 2047 
L 1894 2003 
Q 2506 1872 2764 1633 
Q 3022 1394 3022 966 
Q 3022 478 2636 193 
Q 2250 -91 1575 -91 
Q 1294 -91 989 -36 
Q 684 19 347 128 
L 347 722 
Q 666 556 975 473 
Q 1284 391 1588 391 
Q 1994 391 2212 530 
Q 2431 669 2431 922 
Q 2431 1156 2273 1281 
Q 2116 1406 1581 1522 
L 1381 1569 
Q 847 1681 609 1914 
Q 372 2147 372 2553 
Q 372 3047 722 3315 
Q 1072 3584 1716 3584 
Q 2034 3584 2315 3537 
Q 2597 3491 2834 3397 
z
" transform="scale(0.015625)"/>
       <path id="DejaVuSans-74" d="M 1172 4494 
L 1172 3500 
L 2356 3500 
L 2356 3053 
L 1172 3053 
L 1172 1153 
Q 1172 725 1289 603 
Q 1406 481 1766 481 
L 2356 481 
L 2356 0 
L 1766 0 
Q 1100 0 847 248 
Q 594 497 594 1153 
L 594 3053 
L 172 3053 
L 172 3500 
L 594 3500 
L 594 4494 
L 1172 4494 
z
" transform="scale(0.015625)"/>
      </defs>
      <use xlink:href="#DejaVuSans-46"/>
      <use xlink:href="#DejaVuSans-61" x="48.394531"/>
      <use xlink:href="#DejaVuSans-73" x="109.673828"/>
      <use xlink:href="#DejaVuSans-74" x="161.773438"/>
      <use xlink:href="#DejaVuSans-20" x="200.982422"/>
      <use xlink:href="#DejaVuSans-77" x="232.769531"/>
      <use xlink:href="#DejaVuSans-69" x="314.556641"/>
      <use xlink:href="#DejaVuSans-6e" x="342.339844"/>
      <use xlink:href="#DejaVuSans-64" x="405.71875"/>
     </g>
    </g>
   </g>
   <g id="matplotlib.axis_1">
    <g id="xtick_1">
     <g id="line2d_7">
      <defs>
       <path id="mee121baf61" d="M 0 0 
L 0 -3.5 
" style="stroke: #000000; stroke-width: 1.5"/>
      </defs>
      <g>
       <use xlink:href="#mee121baf61" x="64.521426" y="242.124" style="stroke: #000000; stroke-width: 1.5"/>
      </g>
     </g>
     <g id="line2d_8">
      <defs>
       <path id="m6e1e8d9bec" d="M 0 0 
L 0 3.5 
" style="stroke: #000000; stroke-width: 1.5"/>
      </defs>
      <g>
       <use xlink:href="#m6e1e8d9bec" x="64.521426" y="10.8" style="stroke: #000000; stroke-width: 1.5"/>
      </g>
     </g>
     <g id="text_4">
      <!-- 0 -->
      <g transform="translate(60.703926 254.742125) scale(0.12 -0.12)">
       <defs>
        <path id="DejaVuSans-30" d="M 2034 4250 
Q 1547 4250 1301 3770 
Q 1056 3291 1056 2328 
Q 1056 1369 1301 889 
Q 1547 409 2034 409 
Q 2525 409 2770 889 
Q 3016 1369 3016 2328 
Q 3016 3291 2770 3770 
Q 2525 4250 2034 4250 
z
M 2034 4750 
Q 2819 4750 3233 4129 
Q 3647 3509 3647 2328 
Q 3647 1150 3233 529 
Q 2819 -91 2034 -91 
Q 1250 -91 836 529 
Q 422 1150 422 2328 
Q 422 3509 836 4129 
Q 1250 4750 2034 4750 
z
" transform="scale(0.015625)"/>
       </defs>
       <use xlink:href="#DejaVuSans-30"/>
      </g>
     </g>
    </g>
    <g id="xtick_2">
     <g id="line2d_9">
      <g>
       <use xlink:href="#mee121baf61" x="107.082609" y="242.124" style="stroke: #000000; stroke-width: 1.5"/>
      </g>
     </g>
     <g id="line2d_10">
      <g>
       <use xlink:href="#m6e1e8d9bec" x="107.082609" y="10.8" style="stroke: #000000; stroke-width: 1.5"/>
      </g>
     </g>
     <g id="text_5">
      <!-- 5 -->
      <g transform="translate(103.265109 254.742125) scale(0.12 -0.12)">
       <defs>
        <path id="DejaVuSans-35" d="M 691 4666 
L 3169 4666 
L 3169 4134 
L 1269 4134 
L 1269 2991 
Q 1406 3038 1543 3061 
Q 1681 3084 1819 3084 
Q 2600 3084 3056 2656 
Q 3513 2228 3513 1497 
Q 3513 744 3044 326 
Q 2575 -91 1722 -91 
Q 1428 -91 1123 -41 
Q 819 9 494 109 
L 494 744 
Q 775 591 1075 516 
Q 1375 441 1709 441 
Q 2250 441 2565 725 
Q 2881 1009 2881 1497 
Q 2881 1984 2565 2268 
Q 2250 2553 1709 2553 
Q 1456 2553 1204 2497 
Q 953 2441 691 2322 
L 691 4666 
z
" transform="scale(0.015625)"/>
       </defs>
       <use xlink:href="#DejaVuSans-35"/>
      </g>
     </g>
    </g>
    <g id="xtick_3">
     <g id="line2d_11">
      <g>
       <use xlink:href="#mee121baf61" x="149.643791" y="242.124" style="stroke: #000000; stroke-width: 1.5"/>
      </g>
     </g>
     <g id="line2d_12">
      <g>
       <use xlink:href="#m6e1e8d9bec" x="149.643791" y="10.8" style="stroke: #000000; stroke-width: 1.5"/>
      </g>
     </g>
     <g id="text_6">
      <!-- 10 -->
      <g transform="translate(142.008791 254.742125) scale(0.12 -0.12)">
       <defs>
        <path id="DejaVuSans-31" d="M 794 531 
L 1825 531 
L 1825 4091 
L 703 3866 
L 703 4441 
L 1819 4666 
L 2450 4666 
L 2450 531 
L 3481 531 
L 3481 0 
L 794 0 
L 794 531 
z
" transform="scale(0.015625)"/>
       </defs>
       <use xlink:href="#DejaVuSans-31"/>
       <use xlink:href="#DejaVuSans-30" x="63.623047"/>
      </g>
     </g>
    </g>
    <g id="xtick_4">
     <g id="line2d_13">
      <g>
       <use xlink:href="#mee121baf61" x="192.204974" y="242.124" style="stroke: #000000; stroke-width: 1.5"/>
      </g>
     </g>
     <g id="line2d_14">
      <g>
       <use xlink:href="#m6e1e8d9bec" x="192.204974" y="10.8" style="stroke: #000000; stroke-width: 1.5"/>
      </g>
     </g>
     <g id="text_7">
      <!-- 15 -->
      <g transform="translate(184.569974 254.742125) scale(0.12 -0.12)">
       <use xlink:href="#DejaVuSans-31"/>
       <use xlink:href="#DejaVuSans-35" x="63.623047"/>
      </g>
     </g>
    </g>
    <g id="xtick_5">
     <g id="line2d_15">
      <g>
       <use xlink:href="#mee121baf61" x="234.766157" y="242.124" style="stroke: #000000; stroke-width: 1.5"/>
      </g>
     </g>
     <g id="line2d_16">
      <g>
       <use xlink:href="#m6e1e8d9bec" x="234.766157" y="10.8" style="stroke: #000000; stroke-width: 1.5"/>
      </g>
     </g>
     <g id="text_8">
      <!-- 20 -->
      <g transform="translate(227.131157 254.742125) scale(0.12 -0.12)">
       <defs>
        <path id="DejaVuSans-32" d="M 1228 531 
L 3431 531 
L 3431 0 
L 469 0 
L 469 531 
Q 828 903 1448 1529 
Q 2069 2156 2228 2338 
Q 2531 2678 2651 2914 
Q 2772 3150 2772 3378 
Q 2772 3750 2511 3984 
Q 2250 4219 1831 4219 
Q 1534 4219 1204 4116 
Q 875 4013 500 3803 
L 500 4441 
Q 881 4594 1212 4672 
Q 1544 4750 1819 4750 
Q 2544 4750 2975 4387 
Q 3406 4025 3406 3419 
Q 3406 3131 3298 2873 
Q 3191 2616 2906 2266 
Q 2828 2175 2409 1742 
Q 1991 1309 1228 531 
z
" transform="scale(0.015625)"/>
       </defs>
       <use xlink:href="#DejaVuSans-32"/>
       <use xlink:href="#DejaVuSans-30" x="63.623047"/>
      </g>
     </g>
    </g>
    <g id="xtick_6">
     <g id="line2d_17">
      <g>
       <use xlink:href="#mee121baf61" x="277.327339" y="242.124" style="stroke: #000000; stroke-width: 1.5"/>
      </g>
     </g>
     <g id="line2d_18">
      <g>
       <use xlink:href="#m6e1e8d9bec" x="277.327339" y="10.8" style="stroke: #000000; stroke-width: 1.5"/>
      </g>
     </g>
     <g id="text_9">
      <!-- 25 -->
      <g transform="translate(269.692339 254.742125) scale(0.12 -0.12)">
       <use xlink:href="#DejaVuSans-32"/>
       <use xlink:href="#DejaVuSans-35" x="63.623047"/>
      </g>
     </g>
    </g>
    <g id="xtick_7">
     <g id="line2d_19">
      <g>
       <use xlink:href="#mee121baf61" x="319.888522" y="242.124" style="stroke: #000000; stroke-width: 1.5"/>
      </g>
     </g>
     <g id="line2d_20">
      <g>
       <use xlink:href="#m6e1e8d9bec" x="319.888522" y="10.8" style="stroke: #000000; stroke-width: 1.5"/>
      </g>
     </g>
     <g id="text_10">
      <!-- 30 -->
      <g transform="translate(312.253522 254.742125) scale(0.12 -0.12)">
       <defs>
        <path id="DejaVuSans-33" d="M 2597 2516 
Q 3050 2419 3304 2112 
Q 3559 1806 3559 1356 
Q 3559 666 3084 287 
Q 2609 -91 1734 -91 
Q 1441 -91 1130 -33 
Q 819 25 488 141 
L 488 750 
Q 750 597 1062 519 
Q 1375 441 1716 441 
Q 2309 441 2620 675 
Q 2931 909 2931 1356 
Q 2931 1769 2642 2001 
Q 2353 2234 1838 2234 
L 1294 2234 
L 1294 2753 
L 1863 2753 
Q 2328 2753 2575 2939 
Q 2822 3125 2822 3475 
Q 2822 3834 2567 4026 
Q 2313 4219 1838 4219 
Q 1578 4219 1281 4162 
Q 984 4106 628 3988 
L 628 4550 
Q 988 4650 1302 4700 
Q 1616 4750 1894 4750 
Q 2613 4750 3031 4423 
Q 3450 4097 3450 3541 
Q 3450 3153 3228 2886 
Q 3006 2619 2597 2516 
z
" transform="scale(0.015625)"/>
       </defs>
       <use xlink:href="#DejaVuSans-33"/>
       <use xlink:href="#DejaVuSans-30" x="63.623047"/>
      </g>
     </g>
    </g>
    <g id="xtick_8">
     <g id="line2d_21">
      <g>
       <use xlink:href="#mee121baf61" x="362.449705" y="242.124" style="stroke: #000000; stroke-width: 1.5"/>
      </g>
     </g>
     <g id="line2d_22">
      <g>
       <use xlink:href="#m6e1e8d9bec" x="362.449705" y="10.8" style="stroke: #000000; stroke-width: 1.5"/>
      </g>
     </g>
     <g id="text_11">
      <!-- 35 -->
      <g transform="translate(354.814705 254.742125) scale(0.12 -0.12)">
       <use xlink:href="#DejaVuSans-33"/>
       <use xlink:href="#DejaVuSans-35" x="63.623047"/>
      </g>
     </g>
    </g>
    <g id="xtick_9">
     <g id="line2d_23">
      <g>
       <use xlink:href="#mee121baf61" x="405.010887" y="242.124" style="stroke: #000000; stroke-width: 1.5"/>
      </g>
     </g>
     <g id="line2d_24">
      <g>
       <use xlink:href="#m6e1e8d9bec" x="405.010887" y="10.8" style="stroke: #000000; stroke-width: 1.5"/>
      </g>
     </g>
     <g id="text_12">
      <!-- 40 -->
      <g transform="translate(397.375887 254.742125) scale(0.12 -0.12)">
       <defs>
        <path id="DejaVuSans-34" d="M 2419 4116 
L 825 1625 
L 2419 1625 
L 2419 4116 
z
M 2253 4666 
L 3047 4666 
L 3047 1625 
L 3713 1625 
L 3713 1100 
L 3047 1100 
L 3047 0 
L 2419 0 
L 2419 1100 
L 313 1100 
L 313 1709 
L 2253 4666 
z
" transform="scale(0.015625)"/>
       </defs>
       <use xlink:href="#DejaVuSans-34"/>
       <use xlink:href="#DejaVuSans-30" x="63.623047"/>
      </g>
     </g>
    </g>
    <g id="xtick_10">
     <g id="line2d_25">
      <defs>
       <path id="m7cb4027bd2" d="M 0 0 
L 0 -2 
" style="stroke: #000000; stroke-width: 1.5"/>
      </defs>
      <g>
       <use xlink:href="#m7cb4027bd2" x="73.033663" y="242.124" style="stroke: #000000; stroke-width: 1.5"/>
      </g>
     </g>
     <g id="line2d_26">
      <defs>
       <path id="mb80a2a790f" d="M 0 0 
L 0 2 
" style="stroke: #000000; stroke-width: 1.5"/>
      </defs>
      <g>
       <use xlink:href="#mb80a2a790f" x="73.033663" y="10.8" style="stroke: #000000; stroke-width: 1.5"/>
      </g>
     </g>
    </g>
    <g id="xtick_11">
     <g id="line2d_27">
      <g>
       <use xlink:href="#m7cb4027bd2" x="81.545899" y="242.124" style="stroke: #000000; stroke-width: 1.5"/>
      </g>
     </g>
     <g id="line2d_28">
      <g>
       <use xlink:href="#mb80a2a790f" x="81.545899" y="10.8" style="stroke: #000000; stroke-width: 1.5"/>
      </g>
     </g>
    </g>
    <g id="xtick_12">
     <g id="line2d_29">
      <g>
       <use xlink:href="#m7cb4027bd2" x="90.058136" y="242.124" style="stroke: #000000; stroke-width: 1.5"/>
      </g>
     </g>
     <g id="line2d_30">
      <g>
       <use xlink:href="#mb80a2a790f" x="90.058136" y="10.8" style="stroke: #000000; stroke-width: 1.5"/>
      </g>
     </g>
    </g>
    <g id="xtick_13">
     <g id="line2d_31">
      <g>
       <use xlink:href="#m7cb4027bd2" x="98.570372" y="242.124" style="stroke: #000000; stroke-width: 1.5"/>
      </g>
     </g>
     <g id="line2d_32">
      <g>
       <use xlink:href="#mb80a2a790f" x="98.570372" y="10.8" style="stroke: #000000; stroke-width: 1.5"/>
      </g>
     </g>
    </g>
    <g id="xtick_14">
     <g id="line2d_33">
      <g>
       <use xlink:href="#m7cb4027bd2" x="115.594845" y="242.124" style="stroke: #000000; stroke-width: 1.5"/>
      </g>
     </g>
     <g id="line2d_34">
      <g>
       <use xlink:href="#mb80a2a790f" x="115.594845" y="10.8" style="stroke: #000000; stroke-width: 1.5"/>
      </g>
     </g>
    </g>
    <g id="xtick_15">
     <g id="line2d_35">
      <g>
       <use xlink:href="#m7cb4027bd2" x="124.107082" y="242.124" style="stroke: #000000; stroke-width: 1.5"/>
      </g>
     </g>
     <g id="line2d_36">
      <g>
       <use xlink:href="#mb80a2a790f" x="124.107082" y="10.8" style="stroke: #000000; stroke-width: 1.5"/>
      </g>
     </g>
    </g>
    <g id="xtick_16">
     <g id="line2d_37">
      <g>
       <use xlink:href="#m7cb4027bd2" x="132.619318" y="242.124" style="stroke: #000000; stroke-width: 1.5"/>
      </g>
     </g>
     <g id="line2d_38">
      <g>
       <use xlink:href="#mb80a2a790f" x="132.619318" y="10.8" style="stroke: #000000; stroke-width: 1.5"/>
      </g>
     </g>
    </g>
    <g id="xtick_17">
     <g id="line2d_39">
      <g>
       <use xlink:href="#m7cb4027bd2" x="141.131555" y="242.124" style="stroke: #000000; stroke-width: 1.5"/>
      </g>
     </g>
     <g id="line2d_40">
      <g>
       <use xlink:href="#mb80a2a790f" x="141.131555" y="10.8" style="stroke: #000000; stroke-width: 1.5"/>
      </g>
     </g>
    </g>
    <g id="xtick_18">
     <g id="line2d_41">
      <g>
       <use xlink:href="#m7cb4027bd2" x="158.156028" y="242.124" style="stroke: #000000; stroke-width: 1.5"/>
      </g>
     </g>
     <g id="line2d_42">
      <g>
       <use xlink:href="#mb80a2a790f" x="158.156028" y="10.8" style="stroke: #000000; stroke-width: 1.5"/>
      </g>
     </g>
    </g>
    <g id="xtick_19">
     <g id="line2d_43">
      <g>
       <use xlink:href="#m7cb4027bd2" x="166.668264" y="242.124" style="stroke: #000000; stroke-width: 1.5"/>
      </g>
     </g>
     <g id="line2d_44">
      <g>
       <use xlink:href="#mb80a2a790f" x="166.668264" y="10.8" style="stroke: #000000; stroke-width: 1.5"/>
      </g>
     </g>
    </g>
    <g id="xtick_20">
     <g id="line2d_45">
      <g>
       <use xlink:href="#m7cb4027bd2" x="175.180501" y="242.124" style="stroke: #000000; stroke-width: 1.5"/>
      </g>
     </g>
     <g id="line2d_46">
      <g>
       <use xlink:href="#mb80a2a790f" x="175.180501" y="10.8" style="stroke: #000000; stroke-width: 1.5"/>
      </g>
     </g>
    </g>
    <g id="xtick_21">
     <g id="line2d_47">
      <g>
       <use xlink:href="#m7cb4027bd2" x="183.692737" y="242.124" style="stroke: #000000; stroke-width: 1.5"/>
      </g>
     </g>
     <g id="line2d_48">
      <g>
       <use xlink:href="#mb80a2a790f" x="183.692737" y="10.8" style="stroke: #000000; stroke-width: 1.5"/>
      </g>
     </g>
    </g>
    <g id="xtick_22">
     <g id="line2d_49">
      <g>
       <use xlink:href="#m7cb4027bd2" x="200.71721" y="242.124" style="stroke: #000000; stroke-width: 1.5"/>
      </g>
     </g>
     <g id="line2d_50">
      <g>
       <use xlink:href="#mb80a2a790f" x="200.71721" y="10.8" style="stroke: #000000; stroke-width: 1.5"/>
      </g>
     </g>
    </g>
    <g id="xtick_23">
     <g id="line2d_51">
      <g>
       <use xlink:href="#m7cb4027bd2" x="209.229447" y="242.124" style="stroke: #000000; stroke-width: 1.5"/>
      </g>
     </g>
     <g id="line2d_52">
      <g>
       <use xlink:href="#mb80a2a790f" x="209.229447" y="10.8" style="stroke: #000000; stroke-width: 1.5"/>
      </g>
     </g>
    </g>
    <g id="xtick_24">
     <g id="line2d_53">
      <g>
       <use xlink:href="#m7cb4027bd2" x="217.741684" y="242.124" style="stroke: #000000; stroke-width: 1.5"/>
      </g>
     </g>
     <g id="line2d_54">
      <g>
       <use xlink:href="#mb80a2a790f" x="217.741684" y="10.8" style="stroke: #000000; stroke-width: 1.5"/>
      </g>
     </g>
    </g>
    <g id="xtick_25">
     <g id="line2d_55">
      <g>
       <use xlink:href="#m7cb4027bd2" x="226.25392" y="242.124" style="stroke: #000000; stroke-width: 1.5"/>
      </g>
     </g>
     <g id="line2d_56">
      <g>
       <use xlink:href="#mb80a2a790f" x="226.25392" y="10.8" style="stroke: #000000; stroke-width: 1.5"/>
      </g>
     </g>
    </g>
    <g id="xtick_26">
     <g id="line2d_57">
      <g>
       <use xlink:href="#m7cb4027bd2" x="243.278393" y="242.124" style="stroke: #000000; stroke-width: 1.5"/>
      </g>
     </g>
     <g id="line2d_58">
      <g>
       <use xlink:href="#mb80a2a790f" x="243.278393" y="10.8" style="stroke: #000000; stroke-width: 1.5"/>
      </g>
     </g>
    </g>
    <g id="xtick_27">
     <g id="line2d_59">
      <g>
       <use xlink:href="#m7cb4027bd2" x="251.79063" y="242.124" style="stroke: #000000; stroke-width: 1.5"/>
      </g>
     </g>
     <g id="line2d_60">
      <g>
       <use xlink:href="#mb80a2a790f" x="251.79063" y="10.8" style="stroke: #000000; stroke-width: 1.5"/>
      </g>
     </g>
    </g>
    <g id="xtick_28">
     <g id="line2d_61">
      <g>
       <use xlink:href="#m7cb4027bd2" x="260.302866" y="242.124" style="stroke: #000000; stroke-width: 1.5"/>
      </g>
     </g>
     <g id="line2d_62">
      <g>
       <use xlink:href="#mb80a2a790f" x="260.302866" y="10.8" style="stroke: #000000; stroke-width: 1.5"/>
      </g>
     </g>
    </g>
    <g id="xtick_29">
     <g id="line2d_63">
      <g>
       <use xlink:href="#m7cb4027bd2" x="268.815103" y="242.124" style="stroke: #000000; stroke-width: 1.5"/>
      </g>
     </g>
     <g id="line2d_64">
      <g>
       <use xlink:href="#mb80a2a790f" x="268.815103" y="10.8" style="stroke: #000000; stroke-width: 1.5"/>
      </g>
     </g>
    </g>
    <g id="xtick_30">
     <g id="line2d_65">
      <g>
       <use xlink:href="#m7cb4027bd2" x="285.839576" y="242.124" style="stroke: #000000; stroke-width: 1.5"/>
      </g>
     </g>
     <g id="line2d_66">
      <g>
       <use xlink:href="#mb80a2a790f" x="285.839576" y="10.8" style="stroke: #000000; stroke-width: 1.5"/>
      </g>
     </g>
    </g>
    <g id="xtick_31">
     <g id="line2d_67">
      <g>
       <use xlink:href="#m7cb4027bd2" x="294.351812" y="242.124" style="stroke: #000000; stroke-width: 1.5"/>
      </g>
     </g>
     <g id="line2d_68">
      <g>
       <use xlink:href="#mb80a2a790f" x="294.351812" y="10.8" style="stroke: #000000; stroke-width: 1.5"/>
      </g>
     </g>
    </g>
    <g id="xtick_32">
     <g id="line2d_69">
      <g>
       <use xlink:href="#m7cb4027bd2" x="302.864049" y="242.124" style="stroke: #000000; stroke-width: 1.5"/>
      </g>
     </g>
     <g id="line2d_70">
      <g>
       <use xlink:href="#mb80a2a790f" x="302.864049" y="10.8" style="stroke: #000000; stroke-width: 1.5"/>
      </g>
     </g>
    </g>
    <g id="xtick_33">
     <g id="line2d_71">
      <g>
       <use xlink:href="#m7cb4027bd2" x="311.376285" y="242.124" style="stroke: #000000; stroke-width: 1.5"/>
      </g>
     </g>
     <g id="line2d_72">
      <g>
       <use xlink:href="#mb80a2a790f" x="311.376285" y="10.8" style="stroke: #000000; stroke-width: 1.5"/>
      </g>
     </g>
    </g>
    <g id="xtick_34">
     <g id="line2d_73">
      <g>
       <use xlink:href="#m7cb4027bd2" x="328.400758" y="242.124" style="stroke: #000000; stroke-width: 1.5"/>
      </g>
     </g>
     <g id="line2d_74">
      <g>
       <use xlink:href="#mb80a2a790f" x="328.400758" y="10.8" style="stroke: #000000; stroke-width: 1.5"/>
      </g>
     </g>
    </g>
    <g id="xtick_35">
     <g id="line2d_75">
      <g>
       <use xlink:href="#m7cb4027bd2" x="336.912995" y="242.124" style="stroke: #000000; stroke-width: 1.5"/>
      </g>
     </g>
     <g id="line2d_76">
      <g>
       <use xlink:href="#mb80a2a790f" x="336.912995" y="10.8" style="stroke: #000000; stroke-width: 1.5"/>
      </g>
     </g>
    </g>
    <g id="xtick_36">
     <g id="line2d_77">
      <g>
       <use xlink:href="#m7cb4027bd2" x="345.425232" y="242.124" style="stroke: #000000; stroke-width: 1.5"/>
      </g>
     </g>
     <g id="line2d_78">
      <g>
       <use xlink:href="#mb80a2a790f" x="345.425232" y="10.8" style="stroke: #000000; stroke-width: 1.5"/>
      </g>
     </g>
    </g>
    <g id="xtick_37">
     <g id="line2d_79">
      <g>
       <use xlink:href="#m7cb4027bd2" x="353.937468" y="242.124" style="stroke: #000000; stroke-width: 1.5"/>
      </g>
     </g>
     <g id="line2d_80">
      <g>
       <use xlink:href="#mb80a2a790f" x="353.937468" y="10.8" style="stroke: #000000; stroke-width: 1.5"/>
      </g>
     </g>
    </g>
    <g id="xtick_38">
     <g id="line2d_81">
      <g>
       <use xlink:href="#m7cb4027bd2" x="370.961941" y="242.124" style="stroke: #000000; stroke-width: 1.5"/>
      </g>
     </g>
     <g id="line2d_82">
      <g>
       <use xlink:href="#mb80a2a790f" x="370.961941" y="10.8" style="stroke: #000000; stroke-width: 1.5"/>
      </g>
     </g>
    </g>
    <g id="xtick_39">
     <g id="line2d_83">
      <g>
       <use xlink:href="#m7cb4027bd2" x="379.474178" y="242.124" style="stroke: #000000; stroke-width: 1.5"/>
      </g>
     </g>
     <g id="line2d_84">
      <g>
       <use xlink:href="#mb80a2a790f" x="379.474178" y="10.8" style="stroke: #000000; stroke-width: 1.5"/>
      </g>
     </g>
    </g>
    <g id="xtick_40">
     <g id="line2d_85">
      <g>
       <use xlink:href="#m7cb4027bd2" x="387.986414" y="242.124" style="stroke: #000000; stroke-width: 1.5"/>
      </g>
     </g>
     <g id="line2d_86">
      <g>
       <use xlink:href="#mb80a2a790f" x="387.986414" y="10.8" style="stroke: #000000; stroke-width: 1.5"/>
      </g>
     </g>
    </g>
    <g id="xtick_41">
     <g id="line2d_87">
      <g>
       <use xlink:href="#m7cb4027bd2" x="396.498651" y="242.124" style="stroke: #000000; stroke-width: 1.5"/>
      </g>
     </g>
     <g id="line2d_88">
      <g>
       <use xlink:href="#mb80a2a790f" x="396.498651" y="10.8" style="stroke: #000000; stroke-width: 1.5"/>
      </g>
     </g>
    </g>
    <g id="xtick_42">
     <g id="line2d_89">
      <g>
       <use xlink:href="#m7cb4027bd2" x="413.523124" y="242.124" style="stroke: #000000; stroke-width: 1.5"/>
      </g>
     </g>
     <g id="line2d_90">
      <g>
       <use xlink:href="#mb80a2a790f" x="413.523124" y="10.8" style="stroke: #000000; stroke-width: 1.5"/>
      </g>
     </g>
    </g>
    <g id="text_13">
     <!-- Distance [R$_\odot$] -->
     <g transform="translate(197.784179 270.355875) scale(0.12 -0.12)">
      <defs>
       <path id="DejaVuSans-44" d="M 1259 4147 
L 1259 519 
L 2022 519 
Q 2988 519 3436 956 
Q 3884 1394 3884 2338 
Q 3884 3275 3436 3711 
Q 2988 4147 2022 4147 
L 1259 4147 
z
M 628 4666 
L 1925 4666 
Q 3281 4666 3915 4102 
Q 4550 3538 4550 2338 
Q 4550 1131 3912 565 
Q 3275 0 1925 0 
L 628 0 
L 628 4666 
z
" transform="scale(0.015625)"/>
       <path id="DejaVuSans-63" d="M 3122 3366 
L 3122 2828 
Q 2878 2963 2633 3030 
Q 2388 3097 2138 3097 
Q 1578 3097 1268 2742 
Q 959 2388 959 1747 
Q 959 1106 1268 751 
Q 1578 397 2138 397 
Q 2388 397 2633 464 
Q 2878 531 3122 666 
L 3122 134 
Q 2881 22 2623 -34 
Q 2366 -91 2075 -91 
Q 1284 -91 818 406 
Q 353 903 353 1747 
Q 353 2603 823 3093 
Q 1294 3584 2113 3584 
Q 2378 3584 2631 3529 
Q 2884 3475 3122 3366 
z
" transform="scale(0.015625)"/>
       <path id="DejaVuSans-65" d="M 3597 1894 
L 3597 1613 
L 953 1613 
Q 991 1019 1311 708 
Q 1631 397 2203 397 
Q 2534 397 2845 478 
Q 3156 559 3463 722 
L 3463 178 
Q 3153 47 2828 -22 
Q 2503 -91 2169 -91 
Q 1331 -91 842 396 
Q 353 884 353 1716 
Q 353 2575 817 3079 
Q 1281 3584 2069 3584 
Q 2775 3584 3186 3129 
Q 3597 2675 3597 1894 
z
M 3022 2063 
Q 3016 2534 2758 2815 
Q 2500 3097 2075 3097 
Q 1594 3097 1305 2825 
Q 1016 2553 972 2059 
L 3022 2063 
z
" transform="scale(0.015625)"/>
       <path id="DejaVuSans-5b" d="M 550 4863 
L 1875 4863 
L 1875 4416 
L 1125 4416 
L 1125 -397 
L 1875 -397 
L 1875 -844 
L 550 -844 
L 550 4863 
z
" transform="scale(0.015625)"/>
       <path id="DejaVuSans-52" d="M 2841 2188 
Q 3044 2119 3236 1894 
Q 3428 1669 3622 1275 
L 4263 0 
L 3584 0 
L 2988 1197 
Q 2756 1666 2539 1819 
Q 2322 1972 1947 1972 
L 1259 1972 
L 1259 0 
L 628 0 
L 628 4666 
L 2053 4666 
Q 2853 4666 3247 4331 
Q 3641 3997 3641 3322 
Q 3641 2881 3436 2590 
Q 3231 2300 2841 2188 
z
M 1259 4147 
L 1259 2491 
L 2053 2491 
Q 2509 2491 2742 2702 
Q 2975 2913 2975 3322 
Q 2975 3731 2742 3939 
Q 2509 4147 2053 4147 
L 1259 4147 
z
" transform="scale(0.015625)"/>
       <path id="DejaVuSans-2299" d="M 2350 2403 
L 3013 2403 
L 3013 1609 
L 2350 1609 
L 2350 2403 
z
M 3306 3522 
Q 3016 3644 2681 3644 
Q 2347 3644 2056 3522 
Q 1769 3400 1531 3163 
Q 1291 2922 1172 2634 
Q 1053 2347 1053 2006 
Q 1053 1675 1172 1387 
Q 1291 1100 1531 859 
Q 1769 622 2056 500 
Q 2347 378 2681 378 
Q 3016 378 3306 500 
Q 3594 622 3831 859 
Q 4072 1100 4190 1387 
Q 4309 1675 4309 2006 
Q 4309 2347 4190 2634 
Q 4072 2922 3831 3163 
Q 3594 3400 3306 3522 
z
M 1878 3956 
Q 2250 4113 2681 4113 
Q 3113 4113 3484 3956 
Q 3856 3800 4163 3494 
Q 4472 3184 4625 2813 
Q 4778 2444 4778 2006 
Q 4778 1578 4625 1206 
Q 4472 838 4163 528 
Q 3856 222 3484 65 
Q 3113 -91 2681 -91 
Q 2250 -91 1878 65 
Q 1506 222 1200 528 
Q 891 838 738 1206 
Q 584 1578 584 2006 
Q 584 2444 738 2813 
Q 891 3184 1200 3494 
Q 1506 3800 1878 3956 
z
" transform="scale(0.015625)"/>
       <path id="DejaVuSans-5d" d="M 1947 4863 
L 1947 -844 
L 622 -844 
L 622 -397 
L 1369 -397 
L 1369 4416 
L 622 4416 
L 622 4863 
L 1947 4863 
z
" transform="scale(0.015625)"/>
      </defs>
      <use xlink:href="#DejaVuSans-44" transform="translate(0 0.015625)"/>
      <use xlink:href="#DejaVuSans-69" transform="translate(77.001953 0.015625)"/>
      <use xlink:href="#DejaVuSans-73" transform="translate(104.785156 0.015625)"/>
      <use xlink:href="#DejaVuSans-74" transform="translate(156.884766 0.015625)"/>
      <use xlink:href="#DejaVuSans-61" transform="translate(196.09375 0.015625)"/>
      <use xlink:href="#DejaVuSans-6e" transform="translate(257.373047 0.015625)"/>
      <use xlink:href="#DejaVuSans-63" transform="translate(320.751953 0.015625)"/>
      <use xlink:href="#DejaVuSans-65" transform="translate(375.732422 0.015625)"/>
      <use xlink:href="#DejaVuSans-20" transform="translate(437.255859 0.015625)"/>
      <use xlink:href="#DejaVuSans-5b" transform="translate(469.042969 0.015625)"/>
      <use xlink:href="#DejaVuSans-52" transform="translate(504.931641 0.015625)"/>
      <use xlink:href="#DejaVuSans-2299" transform="translate(589.008789 -16.390625) scale(0.7)"/>
      <use xlink:href="#DejaVuSans-5d" transform="translate(664.033203 0.015625)"/>
     </g>
    </g>
   </g>
   <g id="matplotlib.axis_2">
    <g id="ytick_1">
     <g id="line2d_91">
      <defs>
       <path id="m7285b14d12" d="M 0 0 
L 3.5 0 
" style="stroke: #000000; stroke-width: 1.5"/>
      </defs>
      <g>
       <use xlink:href="#m7285b14d12" x="58.848357" y="232.474718" style="stroke: #000000; stroke-width: 1.5"/>
      </g>
     </g>
     <g id="line2d_92">
      <defs>
       <path id="mb86011f2e6" d="M 0 0 
L -3.5 0 
" style="stroke: #000000; stroke-width: 1.5"/>
      </defs>
      <g>
       <use xlink:href="#mb86011f2e6" x="421.2" y="232.474718" style="stroke: #000000; stroke-width: 1.5"/>
      </g>
     </g>
     <g id="text_14">
      <!-- $\mathdefault{10^{0}}$ -->
      <g transform="translate(34.228357 237.03378) scale(0.12 -0.12)">
       <use xlink:href="#DejaVuSans-31" transform="translate(0 0.765625)"/>
       <use xlink:href="#DejaVuSans-30" transform="translate(63.623047 0.765625)"/>
       <use xlink:href="#DejaVuSans-30" transform="translate(128.203125 39.046875) scale(0.7)"/>
      </g>
     </g>
    </g>
    <g id="ytick_2">
     <g id="line2d_93">
      <g>
       <use xlink:href="#m7285b14d12" x="58.848357" y="196.977305" style="stroke: #000000; stroke-width: 1.5"/>
      </g>
     </g>
     <g id="line2d_94">
      <g>
       <use xlink:href="#mb86011f2e6" x="421.2" y="196.977305" style="stroke: #000000; stroke-width: 1.5"/>
      </g>
     </g>
     <g id="text_15">
      <!-- $\mathdefault{10^{1}}$ -->
      <g transform="translate(34.228357 201.536367) scale(0.12 -0.12)">
       <use xlink:href="#DejaVuSans-31" transform="translate(0 0.684375)"/>
       <use xlink:href="#DejaVuSans-30" transform="translate(63.623047 0.684375)"/>
       <use xlink:href="#DejaVuSans-31" transform="translate(128.203125 38.965625) scale(0.7)"/>
      </g>
     </g>
    </g>
    <g id="ytick_3">
     <g id="line2d_95">
      <g>
       <use xlink:href="#m7285b14d12" x="58.848357" y="161.479892" style="stroke: #000000; stroke-width: 1.5"/>
      </g>
     </g>
     <g id="line2d_96">
      <g>
       <use xlink:href="#mb86011f2e6" x="421.2" y="161.479892" style="stroke: #000000; stroke-width: 1.5"/>
      </g>
     </g>
     <g id="text_16">
      <!-- $\mathdefault{10^{2}}$ -->
      <g transform="translate(34.228357 166.038954) scale(0.12 -0.12)">
       <use xlink:href="#DejaVuSans-31" transform="translate(0 0.765625)"/>
       <use xlink:href="#DejaVuSans-30" transform="translate(63.623047 0.765625)"/>
       <use xlink:href="#DejaVuSans-32" transform="translate(128.203125 39.046875) scale(0.7)"/>
      </g>
     </g>
    </g>
    <g id="ytick_4">
     <g id="line2d_97">
      <g>
       <use xlink:href="#m7285b14d12" x="58.848357" y="125.982478" style="stroke: #000000; stroke-width: 1.5"/>
      </g>
     </g>
     <g id="line2d_98">
      <g>
       <use xlink:href="#mb86011f2e6" x="421.2" y="125.982478" style="stroke: #000000; stroke-width: 1.5"/>
      </g>
     </g>
     <g id="text_17">
      <!-- $\mathdefault{10^{3}}$ -->
      <g transform="translate(34.228357 130.541541) scale(0.12 -0.12)">
       <use xlink:href="#DejaVuSans-31" transform="translate(0 0.765625)"/>
       <use xlink:href="#DejaVuSans-30" transform="translate(63.623047 0.765625)"/>
       <use xlink:href="#DejaVuSans-33" transform="translate(128.203125 39.046875) scale(0.7)"/>
      </g>
     </g>
    </g>
    <g id="ytick_5">
     <g id="line2d_99">
      <g>
       <use xlink:href="#m7285b14d12" x="58.848357" y="90.485065" style="stroke: #000000; stroke-width: 1.5"/>
      </g>
     </g>
     <g id="line2d_100">
      <g>
       <use xlink:href="#mb86011f2e6" x="421.2" y="90.485065" style="stroke: #000000; stroke-width: 1.5"/>
      </g>
     </g>
     <g id="text_18">
      <!-- $\mathdefault{10^{4}}$ -->
      <g transform="translate(34.228357 95.044128) scale(0.12 -0.12)">
       <use xlink:href="#DejaVuSans-31" transform="translate(0 0.684375)"/>
       <use xlink:href="#DejaVuSans-30" transform="translate(63.623047 0.684375)"/>
       <use xlink:href="#DejaVuSans-34" transform="translate(128.203125 38.965625) scale(0.7)"/>
      </g>
     </g>
    </g>
    <g id="ytick_6">
     <g id="line2d_101">
      <g>
       <use xlink:href="#m7285b14d12" x="58.848357" y="54.987652" style="stroke: #000000; stroke-width: 1.5"/>
      </g>
     </g>
     <g id="line2d_102">
      <g>
       <use xlink:href="#mb86011f2e6" x="421.2" y="54.987652" style="stroke: #000000; stroke-width: 1.5"/>
      </g>
     </g>
     <g id="text_19">
      <!-- $\mathdefault{10^{5}}$ -->
      <g transform="translate(34.228357 59.546715) scale(0.12 -0.12)">
       <use xlink:href="#DejaVuSans-31" transform="translate(0 0.684375)"/>
       <use xlink:href="#DejaVuSans-30" transform="translate(63.623047 0.684375)"/>
       <use xlink:href="#DejaVuSans-35" transform="translate(128.203125 38.965625) scale(0.7)"/>
      </g>
     </g>
    </g>
    <g id="ytick_7">
     <g id="line2d_103">
      <g>
       <use xlink:href="#m7285b14d12" x="58.848357" y="19.490239" style="stroke: #000000; stroke-width: 1.5"/>
      </g>
     </g>
     <g id="line2d_104">
      <g>
       <use xlink:href="#mb86011f2e6" x="421.2" y="19.490239" style="stroke: #000000; stroke-width: 1.5"/>
      </g>
     </g>
     <g id="text_20">
      <!-- $\mathdefault{10^{6}}$ -->
      <g transform="translate(34.228357 24.049301) scale(0.12 -0.12)">
       <defs>
        <path id="DejaVuSans-36" d="M 2113 2584 
Q 1688 2584 1439 2293 
Q 1191 2003 1191 1497 
Q 1191 994 1439 701 
Q 1688 409 2113 409 
Q 2538 409 2786 701 
Q 3034 994 3034 1497 
Q 3034 2003 2786 2293 
Q 2538 2584 2113 2584 
z
M 3366 4563 
L 3366 3988 
Q 3128 4100 2886 4159 
Q 2644 4219 2406 4219 
Q 1781 4219 1451 3797 
Q 1122 3375 1075 2522 
Q 1259 2794 1537 2939 
Q 1816 3084 2150 3084 
Q 2853 3084 3261 2657 
Q 3669 2231 3669 1497 
Q 3669 778 3244 343 
Q 2819 -91 2113 -91 
Q 1303 -91 875 529 
Q 447 1150 447 2328 
Q 447 3434 972 4092 
Q 1497 4750 2381 4750 
Q 2619 4750 2861 4703 
Q 3103 4656 3366 4563 
z
" transform="scale(0.015625)"/>
       </defs>
       <use xlink:href="#DejaVuSans-31" transform="translate(0 0.765625)"/>
       <use xlink:href="#DejaVuSans-30" transform="translate(63.623047 0.765625)"/>
       <use xlink:href="#DejaVuSans-36" transform="translate(128.203125 39.046875) scale(0.7)"/>
      </g>
     </g>
    </g>
    <g id="ytick_8">
     <g id="line2d_105">
      <defs>
       <path id="m854e29d252" d="M 0 0 
L 2 0 
" style="stroke: #000000; stroke-width: 1.5"/>
      </defs>
      <g>
       <use xlink:href="#m854e29d252" x="58.848357" y="240.349775" style="stroke: #000000; stroke-width: 1.5"/>
      </g>
     </g>
     <g id="line2d_106">
      <defs>
       <path id="m3cb895f8ac" d="M 0 0 
L -2 0 
" style="stroke: #000000; stroke-width: 1.5"/>
      </defs>
      <g>
       <use xlink:href="#m3cb895f8ac" x="421.2" y="240.349775" style="stroke: #000000; stroke-width: 1.5"/>
      </g>
     </g>
    </g>
    <g id="ytick_9">
     <g id="line2d_107">
      <g>
       <use xlink:href="#m854e29d252" x="58.848357" y="237.973337" style="stroke: #000000; stroke-width: 1.5"/>
      </g>
     </g>
     <g id="line2d_108">
      <g>
       <use xlink:href="#m3cb895f8ac" x="421.2" y="237.973337" style="stroke: #000000; stroke-width: 1.5"/>
      </g>
     </g>
    </g>
    <g id="ytick_10">
     <g id="line2d_109">
      <g>
       <use xlink:href="#m854e29d252" x="58.848357" y="235.914773" style="stroke: #000000; stroke-width: 1.5"/>
      </g>
     </g>
     <g id="line2d_110">
      <g>
       <use xlink:href="#m3cb895f8ac" x="421.2" y="235.914773" style="stroke: #000000; stroke-width: 1.5"/>
      </g>
     </g>
    </g>
    <g id="ytick_11">
     <g id="line2d_111">
      <g>
       <use xlink:href="#m854e29d252" x="58.848357" y="234.098991" style="stroke: #000000; stroke-width: 1.5"/>
      </g>
     </g>
     <g id="line2d_112">
      <g>
       <use xlink:href="#m3cb895f8ac" x="421.2" y="234.098991" style="stroke: #000000; stroke-width: 1.5"/>
      </g>
     </g>
    </g>
    <g id="ytick_12">
     <g id="line2d_113">
      <g>
       <use xlink:href="#m854e29d252" x="58.848357" y="221.788932" style="stroke: #000000; stroke-width: 1.5"/>
      </g>
     </g>
     <g id="line2d_114">
      <g>
       <use xlink:href="#m3cb895f8ac" x="421.2" y="221.788932" style="stroke: #000000; stroke-width: 1.5"/>
      </g>
     </g>
    </g>
    <g id="ytick_13">
     <g id="line2d_115">
      <g>
       <use xlink:href="#m854e29d252" x="58.848357" y="215.538148" style="stroke: #000000; stroke-width: 1.5"/>
      </g>
     </g>
     <g id="line2d_116">
      <g>
       <use xlink:href="#m3cb895f8ac" x="421.2" y="215.538148" style="stroke: #000000; stroke-width: 1.5"/>
      </g>
     </g>
    </g>
    <g id="ytick_14">
     <g id="line2d_117">
      <g>
       <use xlink:href="#m854e29d252" x="58.848357" y="211.103146" style="stroke: #000000; stroke-width: 1.5"/>
      </g>
     </g>
     <g id="line2d_118">
      <g>
       <use xlink:href="#m3cb895f8ac" x="421.2" y="211.103146" style="stroke: #000000; stroke-width: 1.5"/>
      </g>
     </g>
    </g>
    <g id="ytick_15">
     <g id="line2d_119">
      <g>
       <use xlink:href="#m854e29d252" x="58.848357" y="207.663091" style="stroke: #000000; stroke-width: 1.5"/>
      </g>
     </g>
     <g id="line2d_120">
      <g>
       <use xlink:href="#m3cb895f8ac" x="421.2" y="207.663091" style="stroke: #000000; stroke-width: 1.5"/>
      </g>
     </g>
    </g>
    <g id="ytick_16">
     <g id="line2d_121">
      <g>
       <use xlink:href="#m854e29d252" x="58.848357" y="204.852362" style="stroke: #000000; stroke-width: 1.5"/>
      </g>
     </g>
     <g id="line2d_122">
      <g>
       <use xlink:href="#m3cb895f8ac" x="421.2" y="204.852362" style="stroke: #000000; stroke-width: 1.5"/>
      </g>
     </g>
    </g>
    <g id="ytick_17">
     <g id="line2d_123">
      <g>
       <use xlink:href="#m854e29d252" x="58.848357" y="202.475924" style="stroke: #000000; stroke-width: 1.5"/>
      </g>
     </g>
     <g id="line2d_124">
      <g>
       <use xlink:href="#m3cb895f8ac" x="421.2" y="202.475924" style="stroke: #000000; stroke-width: 1.5"/>
      </g>
     </g>
    </g>
    <g id="ytick_18">
     <g id="line2d_125">
      <g>
       <use xlink:href="#m854e29d252" x="58.848357" y="200.41736" style="stroke: #000000; stroke-width: 1.5"/>
      </g>
     </g>
     <g id="line2d_126">
      <g>
       <use xlink:href="#m3cb895f8ac" x="421.2" y="200.41736" style="stroke: #000000; stroke-width: 1.5"/>
      </g>
     </g>
    </g>
    <g id="ytick_19">
     <g id="line2d_127">
      <g>
       <use xlink:href="#m854e29d252" x="58.848357" y="198.601577" style="stroke: #000000; stroke-width: 1.5"/>
      </g>
     </g>
     <g id="line2d_128">
      <g>
       <use xlink:href="#m3cb895f8ac" x="421.2" y="198.601577" style="stroke: #000000; stroke-width: 1.5"/>
      </g>
     </g>
    </g>
    <g id="ytick_20">
     <g id="line2d_129">
      <g>
       <use xlink:href="#m854e29d252" x="58.848357" y="186.291519" style="stroke: #000000; stroke-width: 1.5"/>
      </g>
     </g>
     <g id="line2d_130">
      <g>
       <use xlink:href="#m3cb895f8ac" x="421.2" y="186.291519" style="stroke: #000000; stroke-width: 1.5"/>
      </g>
     </g>
    </g>
    <g id="ytick_21">
     <g id="line2d_131">
      <g>
       <use xlink:href="#m854e29d252" x="58.848357" y="180.040734" style="stroke: #000000; stroke-width: 1.5"/>
      </g>
     </g>
     <g id="line2d_132">
      <g>
       <use xlink:href="#m3cb895f8ac" x="421.2" y="180.040734" style="stroke: #000000; stroke-width: 1.5"/>
      </g>
     </g>
    </g>
    <g id="ytick_22">
     <g id="line2d_133">
      <g>
       <use xlink:href="#m854e29d252" x="58.848357" y="175.605733" style="stroke: #000000; stroke-width: 1.5"/>
      </g>
     </g>
     <g id="line2d_134">
      <g>
       <use xlink:href="#m3cb895f8ac" x="421.2" y="175.605733" style="stroke: #000000; stroke-width: 1.5"/>
      </g>
     </g>
    </g>
    <g id="ytick_23">
     <g id="line2d_135">
      <g>
       <use xlink:href="#m854e29d252" x="58.848357" y="172.165678" style="stroke: #000000; stroke-width: 1.5"/>
      </g>
     </g>
     <g id="line2d_136">
      <g>
       <use xlink:href="#m3cb895f8ac" x="421.2" y="172.165678" style="stroke: #000000; stroke-width: 1.5"/>
      </g>
     </g>
    </g>
    <g id="ytick_24">
     <g id="line2d_137">
      <g>
       <use xlink:href="#m854e29d252" x="58.848357" y="169.354948" style="stroke: #000000; stroke-width: 1.5"/>
      </g>
     </g>
     <g id="line2d_138">
      <g>
       <use xlink:href="#m3cb895f8ac" x="421.2" y="169.354948" style="stroke: #000000; stroke-width: 1.5"/>
      </g>
     </g>
    </g>
    <g id="ytick_25">
     <g id="line2d_139">
      <g>
       <use xlink:href="#m854e29d252" x="58.848357" y="166.97851" style="stroke: #000000; stroke-width: 1.5"/>
      </g>
     </g>
     <g id="line2d_140">
      <g>
       <use xlink:href="#m3cb895f8ac" x="421.2" y="166.97851" style="stroke: #000000; stroke-width: 1.5"/>
      </g>
     </g>
    </g>
    <g id="ytick_26">
     <g id="line2d_141">
      <g>
       <use xlink:href="#m854e29d252" x="58.848357" y="164.919946" style="stroke: #000000; stroke-width: 1.5"/>
      </g>
     </g>
     <g id="line2d_142">
      <g>
       <use xlink:href="#m3cb895f8ac" x="421.2" y="164.919946" style="stroke: #000000; stroke-width: 1.5"/>
      </g>
     </g>
    </g>
    <g id="ytick_27">
     <g id="line2d_143">
      <g>
       <use xlink:href="#m854e29d252" x="58.848357" y="163.104164" style="stroke: #000000; stroke-width: 1.5"/>
      </g>
     </g>
     <g id="line2d_144">
      <g>
       <use xlink:href="#m3cb895f8ac" x="421.2" y="163.104164" style="stroke: #000000; stroke-width: 1.5"/>
      </g>
     </g>
    </g>
    <g id="ytick_28">
     <g id="line2d_145">
      <g>
       <use xlink:href="#m854e29d252" x="58.848357" y="150.794105" style="stroke: #000000; stroke-width: 1.5"/>
      </g>
     </g>
     <g id="line2d_146">
      <g>
       <use xlink:href="#m3cb895f8ac" x="421.2" y="150.794105" style="stroke: #000000; stroke-width: 1.5"/>
      </g>
     </g>
    </g>
    <g id="ytick_29">
     <g id="line2d_147">
      <g>
       <use xlink:href="#m854e29d252" x="58.848357" y="144.543321" style="stroke: #000000; stroke-width: 1.5"/>
      </g>
     </g>
     <g id="line2d_148">
      <g>
       <use xlink:href="#m3cb895f8ac" x="421.2" y="144.543321" style="stroke: #000000; stroke-width: 1.5"/>
      </g>
     </g>
    </g>
    <g id="ytick_30">
     <g id="line2d_149">
      <g>
       <use xlink:href="#m854e29d252" x="58.848357" y="140.108319" style="stroke: #000000; stroke-width: 1.5"/>
      </g>
     </g>
     <g id="line2d_150">
      <g>
       <use xlink:href="#m3cb895f8ac" x="421.2" y="140.108319" style="stroke: #000000; stroke-width: 1.5"/>
      </g>
     </g>
    </g>
    <g id="ytick_31">
     <g id="line2d_151">
      <g>
       <use xlink:href="#m854e29d252" x="58.848357" y="136.668265" style="stroke: #000000; stroke-width: 1.5"/>
      </g>
     </g>
     <g id="line2d_152">
      <g>
       <use xlink:href="#m3cb895f8ac" x="421.2" y="136.668265" style="stroke: #000000; stroke-width: 1.5"/>
      </g>
     </g>
    </g>
    <g id="ytick_32">
     <g id="line2d_153">
      <g>
       <use xlink:href="#m854e29d252" x="58.848357" y="133.857535" style="stroke: #000000; stroke-width: 1.5"/>
      </g>
     </g>
     <g id="line2d_154">
      <g>
       <use xlink:href="#m3cb895f8ac" x="421.2" y="133.857535" style="stroke: #000000; stroke-width: 1.5"/>
      </g>
     </g>
    </g>
    <g id="ytick_33">
     <g id="line2d_155">
      <g>
       <use xlink:href="#m854e29d252" x="58.848357" y="131.481097" style="stroke: #000000; stroke-width: 1.5"/>
      </g>
     </g>
     <g id="line2d_156">
      <g>
       <use xlink:href="#m3cb895f8ac" x="421.2" y="131.481097" style="stroke: #000000; stroke-width: 1.5"/>
      </g>
     </g>
    </g>
    <g id="ytick_34">
     <g id="line2d_157">
      <g>
       <use xlink:href="#m854e29d252" x="58.848357" y="129.422533" style="stroke: #000000; stroke-width: 1.5"/>
      </g>
     </g>
     <g id="line2d_158">
      <g>
       <use xlink:href="#m3cb895f8ac" x="421.2" y="129.422533" style="stroke: #000000; stroke-width: 1.5"/>
      </g>
     </g>
    </g>
    <g id="ytick_35">
     <g id="line2d_159">
      <g>
       <use xlink:href="#m854e29d252" x="58.848357" y="127.606751" style="stroke: #000000; stroke-width: 1.5"/>
      </g>
     </g>
     <g id="line2d_160">
      <g>
       <use xlink:href="#m3cb895f8ac" x="421.2" y="127.606751" style="stroke: #000000; stroke-width: 1.5"/>
      </g>
     </g>
    </g>
    <g id="ytick_36">
     <g id="line2d_161">
      <g>
       <use xlink:href="#m854e29d252" x="58.848357" y="115.296692" style="stroke: #000000; stroke-width: 1.5"/>
      </g>
     </g>
     <g id="line2d_162">
      <g>
       <use xlink:href="#m3cb895f8ac" x="421.2" y="115.296692" style="stroke: #000000; stroke-width: 1.5"/>
      </g>
     </g>
    </g>
    <g id="ytick_37">
     <g id="line2d_163">
      <g>
       <use xlink:href="#m854e29d252" x="58.848357" y="109.045908" style="stroke: #000000; stroke-width: 1.5"/>
      </g>
     </g>
     <g id="line2d_164">
      <g>
       <use xlink:href="#m3cb895f8ac" x="421.2" y="109.045908" style="stroke: #000000; stroke-width: 1.5"/>
      </g>
     </g>
    </g>
    <g id="ytick_38">
     <g id="line2d_165">
      <g>
       <use xlink:href="#m854e29d252" x="58.848357" y="104.610906" style="stroke: #000000; stroke-width: 1.5"/>
      </g>
     </g>
     <g id="line2d_166">
      <g>
       <use xlink:href="#m3cb895f8ac" x="421.2" y="104.610906" style="stroke: #000000; stroke-width: 1.5"/>
      </g>
     </g>
    </g>
    <g id="ytick_39">
     <g id="line2d_167">
      <g>
       <use xlink:href="#m854e29d252" x="58.848357" y="101.170851" style="stroke: #000000; stroke-width: 1.5"/>
      </g>
     </g>
     <g id="line2d_168">
      <g>
       <use xlink:href="#m3cb895f8ac" x="421.2" y="101.170851" style="stroke: #000000; stroke-width: 1.5"/>
      </g>
     </g>
    </g>
    <g id="ytick_40">
     <g id="line2d_169">
      <g>
       <use xlink:href="#m854e29d252" x="58.848357" y="98.360122" style="stroke: #000000; stroke-width: 1.5"/>
      </g>
     </g>
     <g id="line2d_170">
      <g>
       <use xlink:href="#m3cb895f8ac" x="421.2" y="98.360122" style="stroke: #000000; stroke-width: 1.5"/>
      </g>
     </g>
    </g>
    <g id="ytick_41">
     <g id="line2d_171">
      <g>
       <use xlink:href="#m854e29d252" x="58.848357" y="95.983684" style="stroke: #000000; stroke-width: 1.5"/>
      </g>
     </g>
     <g id="line2d_172">
      <g>
       <use xlink:href="#m3cb895f8ac" x="421.2" y="95.983684" style="stroke: #000000; stroke-width: 1.5"/>
      </g>
     </g>
    </g>
    <g id="ytick_42">
     <g id="line2d_173">
      <g>
       <use xlink:href="#m854e29d252" x="58.848357" y="93.92512" style="stroke: #000000; stroke-width: 1.5"/>
      </g>
     </g>
     <g id="line2d_174">
      <g>
       <use xlink:href="#m3cb895f8ac" x="421.2" y="93.92512" style="stroke: #000000; stroke-width: 1.5"/>
      </g>
     </g>
    </g>
    <g id="ytick_43">
     <g id="line2d_175">
      <g>
       <use xlink:href="#m854e29d252" x="58.848357" y="92.109338" style="stroke: #000000; stroke-width: 1.5"/>
      </g>
     </g>
     <g id="line2d_176">
      <g>
       <use xlink:href="#m3cb895f8ac" x="421.2" y="92.109338" style="stroke: #000000; stroke-width: 1.5"/>
      </g>
     </g>
    </g>
    <g id="ytick_44">
     <g id="line2d_177">
      <g>
       <use xlink:href="#m854e29d252" x="58.848357" y="79.799279" style="stroke: #000000; stroke-width: 1.5"/>
      </g>
     </g>
     <g id="line2d_178">
      <g>
       <use xlink:href="#m3cb895f8ac" x="421.2" y="79.799279" style="stroke: #000000; stroke-width: 1.5"/>
      </g>
     </g>
    </g>
    <g id="ytick_45">
     <g id="line2d_179">
      <g>
       <use xlink:href="#m854e29d252" x="58.848357" y="73.548495" style="stroke: #000000; stroke-width: 1.5"/>
      </g>
     </g>
     <g id="line2d_180">
      <g>
       <use xlink:href="#m3cb895f8ac" x="421.2" y="73.548495" style="stroke: #000000; stroke-width: 1.5"/>
      </g>
     </g>
    </g>
    <g id="ytick_46">
     <g id="line2d_181">
      <g>
       <use xlink:href="#m854e29d252" x="58.848357" y="69.113493" style="stroke: #000000; stroke-width: 1.5"/>
      </g>
     </g>
     <g id="line2d_182">
      <g>
       <use xlink:href="#m3cb895f8ac" x="421.2" y="69.113493" style="stroke: #000000; stroke-width: 1.5"/>
      </g>
     </g>
    </g>
    <g id="ytick_47">
     <g id="line2d_183">
      <g>
       <use xlink:href="#m854e29d252" x="58.848357" y="65.673438" style="stroke: #000000; stroke-width: 1.5"/>
      </g>
     </g>
     <g id="line2d_184">
      <g>
       <use xlink:href="#m3cb895f8ac" x="421.2" y="65.673438" style="stroke: #000000; stroke-width: 1.5"/>
      </g>
     </g>
    </g>
    <g id="ytick_48">
     <g id="line2d_185">
      <g>
       <use xlink:href="#m854e29d252" x="58.848357" y="62.862709" style="stroke: #000000; stroke-width: 1.5"/>
      </g>
     </g>
     <g id="line2d_186">
      <g>
       <use xlink:href="#m3cb895f8ac" x="421.2" y="62.862709" style="stroke: #000000; stroke-width: 1.5"/>
      </g>
     </g>
    </g>
    <g id="ytick_49">
     <g id="line2d_187">
      <g>
       <use xlink:href="#m854e29d252" x="58.848357" y="60.486271" style="stroke: #000000; stroke-width: 1.5"/>
      </g>
     </g>
     <g id="line2d_188">
      <g>
       <use xlink:href="#m3cb895f8ac" x="421.2" y="60.486271" style="stroke: #000000; stroke-width: 1.5"/>
      </g>
     </g>
    </g>
    <g id="ytick_50">
     <g id="line2d_189">
      <g>
       <use xlink:href="#m854e29d252" x="58.848357" y="58.427707" style="stroke: #000000; stroke-width: 1.5"/>
      </g>
     </g>
     <g id="line2d_190">
      <g>
       <use xlink:href="#m3cb895f8ac" x="421.2" y="58.427707" style="stroke: #000000; stroke-width: 1.5"/>
      </g>
     </g>
    </g>
    <g id="ytick_51">
     <g id="line2d_191">
      <g>
       <use xlink:href="#m854e29d252" x="58.848357" y="56.611925" style="stroke: #000000; stroke-width: 1.5"/>
      </g>
     </g>
     <g id="line2d_192">
      <g>
       <use xlink:href="#m3cb895f8ac" x="421.2" y="56.611925" style="stroke: #000000; stroke-width: 1.5"/>
      </g>
     </g>
    </g>
    <g id="ytick_52">
     <g id="line2d_193">
      <g>
       <use xlink:href="#m854e29d252" x="58.848357" y="44.301866" style="stroke: #000000; stroke-width: 1.5"/>
      </g>
     </g>
     <g id="line2d_194">
      <g>
       <use xlink:href="#m3cb895f8ac" x="421.2" y="44.301866" style="stroke: #000000; stroke-width: 1.5"/>
      </g>
     </g>
    </g>
    <g id="ytick_53">
     <g id="line2d_195">
      <g>
       <use xlink:href="#m854e29d252" x="58.848357" y="38.051082" style="stroke: #000000; stroke-width: 1.5"/>
      </g>
     </g>
     <g id="line2d_196">
      <g>
       <use xlink:href="#m3cb895f8ac" x="421.2" y="38.051082" style="stroke: #000000; stroke-width: 1.5"/>
      </g>
     </g>
    </g>
    <g id="ytick_54">
     <g id="line2d_197">
      <g>
       <use xlink:href="#m854e29d252" x="58.848357" y="33.61608" style="stroke: #000000; stroke-width: 1.5"/>
      </g>
     </g>
     <g id="line2d_198">
      <g>
       <use xlink:href="#m3cb895f8ac" x="421.2" y="33.61608" style="stroke: #000000; stroke-width: 1.5"/>
      </g>
     </g>
    </g>
    <g id="ytick_55">
     <g id="line2d_199">
      <g>
       <use xlink:href="#m854e29d252" x="58.848357" y="30.176025" style="stroke: #000000; stroke-width: 1.5"/>
      </g>
     </g>
     <g id="line2d_200">
      <g>
       <use xlink:href="#m3cb895f8ac" x="421.2" y="30.176025" style="stroke: #000000; stroke-width: 1.5"/>
      </g>
     </g>
    </g>
    <g id="ytick_56">
     <g id="line2d_201">
      <g>
       <use xlink:href="#m854e29d252" x="58.848357" y="27.365296" style="stroke: #000000; stroke-width: 1.5"/>
      </g>
     </g>
     <g id="line2d_202">
      <g>
       <use xlink:href="#m3cb895f8ac" x="421.2" y="27.365296" style="stroke: #000000; stroke-width: 1.5"/>
      </g>
     </g>
    </g>
    <g id="ytick_57">
     <g id="line2d_203">
      <g>
       <use xlink:href="#m854e29d252" x="58.848357" y="24.988858" style="stroke: #000000; stroke-width: 1.5"/>
      </g>
     </g>
     <g id="line2d_204">
      <g>
       <use xlink:href="#m3cb895f8ac" x="421.2" y="24.988858" style="stroke: #000000; stroke-width: 1.5"/>
      </g>
     </g>
    </g>
    <g id="ytick_58">
     <g id="line2d_205">
      <g>
       <use xlink:href="#m854e29d252" x="58.848357" y="22.930294" style="stroke: #000000; stroke-width: 1.5"/>
      </g>
     </g>
     <g id="line2d_206">
      <g>
       <use xlink:href="#m3cb895f8ac" x="421.2" y="22.930294" style="stroke: #000000; stroke-width: 1.5"/>
      </g>
     </g>
    </g>
    <g id="ytick_59">
     <g id="line2d_207">
      <g>
       <use xlink:href="#m854e29d252" x="58.848357" y="21.114511" style="stroke: #000000; stroke-width: 1.5"/>
      </g>
     </g>
     <g id="line2d_208">
      <g>
       <use xlink:href="#m3cb895f8ac" x="421.2" y="21.114511" style="stroke: #000000; stroke-width: 1.5"/>
      </g>
     </g>
    </g>
    <g id="text_21">
     <!-- $n_p$ [cm$^{-3}$] -->
     <g transform="translate(26.508357 155.262) rotate(-90) scale(0.12 -0.12)">
      <defs>
       <path id="DejaVuSans-Oblique-6e" d="M 3566 2113 
L 3156 0 
L 2578 0 
L 2988 2091 
Q 3016 2238 3031 2350 
Q 3047 2463 3047 2528 
Q 3047 2791 2881 2937 
Q 2716 3084 2419 3084 
Q 1956 3084 1622 2776 
Q 1288 2469 1184 1941 
L 800 0 
L 225 0 
L 903 3500 
L 1478 3500 
L 1363 2950 
Q 1603 3253 1940 3418 
Q 2278 3584 2650 3584 
Q 3113 3584 3367 3334 
Q 3622 3084 3622 2631 
Q 3622 2519 3608 2391 
Q 3594 2263 3566 2113 
z
" transform="scale(0.015625)"/>
       <path id="DejaVuSans-Oblique-70" d="M 3175 2156 
Q 3175 2616 2975 2859 
Q 2775 3103 2400 3103 
Q 2144 3103 1911 2972 
Q 1678 2841 1497 2591 
Q 1319 2344 1212 1994 
Q 1106 1644 1106 1300 
Q 1106 863 1306 627 
Q 1506 391 1875 391 
Q 2147 391 2380 519 
Q 2613 647 2778 891 
Q 2956 1147 3065 1494 
Q 3175 1841 3175 2156 
z
M 1394 2969 
Q 1625 3272 1939 3428 
Q 2253 3584 2638 3584 
Q 3175 3584 3472 3232 
Q 3769 2881 3769 2247 
Q 3769 1728 3584 1258 
Q 3400 788 3053 416 
Q 2822 169 2531 39 
Q 2241 -91 1919 -91 
Q 1547 -91 1294 64 
Q 1041 219 916 525 
L 556 -1331 
L -19 -1331 
L 922 3500 
L 1497 3500 
L 1394 2969 
z
" transform="scale(0.015625)"/>
       <path id="DejaVuSans-6d" d="M 3328 2828 
Q 3544 3216 3844 3400 
Q 4144 3584 4550 3584 
Q 5097 3584 5394 3201 
Q 5691 2819 5691 2113 
L 5691 0 
L 5113 0 
L 5113 2094 
Q 5113 2597 4934 2840 
Q 4756 3084 4391 3084 
Q 3944 3084 3684 2787 
Q 3425 2491 3425 1978 
L 3425 0 
L 2847 0 
L 2847 2094 
Q 2847 2600 2669 2842 
Q 2491 3084 2119 3084 
Q 1678 3084 1418 2786 
Q 1159 2488 1159 1978 
L 1159 0 
L 581 0 
L 581 3500 
L 1159 3500 
L 1159 2956 
Q 1356 3278 1631 3431 
Q 1906 3584 2284 3584 
Q 2666 3584 2933 3390 
Q 3200 3197 3328 2828 
z
" transform="scale(0.015625)"/>
       <path id="DejaVuSans-2212" d="M 678 2272 
L 4684 2272 
L 4684 1741 
L 678 1741 
L 678 2272 
z
" transform="scale(0.015625)"/>
      </defs>
      <use xlink:href="#DejaVuSans-Oblique-6e" transform="translate(0 0.765625)"/>
      <use xlink:href="#DejaVuSans-Oblique-70" transform="translate(63.378906 -15.640625) scale(0.7)"/>
      <use xlink:href="#DejaVuSans-20" transform="translate(110.546875 0.765625)"/>
      <use xlink:href="#DejaVuSans-5b" transform="translate(142.333984 0.765625)"/>
      <use xlink:href="#DejaVuSans-63" transform="translate(181.347656 0.765625)"/>
      <use xlink:href="#DejaVuSans-6d" transform="translate(236.328125 0.765625)"/>
      <use xlink:href="#DejaVuSans-2212" transform="translate(334.697266 39.046875) scale(0.7)"/>
      <use xlink:href="#DejaVuSans-33" transform="translate(393.349609 39.046875) scale(0.7)"/>
      <use xlink:href="#DejaVuSans-5d" transform="translate(440.620117 0.765625)"/>
     </g>
    </g>
   </g>
  </g>
 </g>
 <defs>
  <clipPath id="p06e040a567">
   <rect x="58.848357" y="10.8" width="362.351643" height="231.324"/>
  </clipPath>
 </defs>
</svg>
