<?xml version="1.0" encoding="utf-8" standalone="no"?>
<!DOCTYPE svg PUBLIC "-//W3C//DTD SVG 1.1//EN"
  "http://www.w3.org/Graphics/SVG/1.1/DTD/svg11.dtd">
<svg xmlns:xlink="http://www.w3.org/1999/xlink" width="432pt" height="288pt" viewBox="0 0 432 288" xmlns="http://www.w3.org/2000/svg" version="1.1">
 <metadata>
  <rdf:RDF xmlns:dc="http://purl.org/dc/elements/1.1/" xmlns:cc="http://creativecommons.org/ns#" xmlns:rdf="http://www.w3.org/1999/02/22-rdf-syntax-ns#">
   <cc:Work>
    <dc:type rdf:resource="http://purl.org/dc/dcmitype/StillImage"/>
    <dc:date>2022-12-06T13:11:28.492795</dc:date>
    <dc:format>image/svg+xml</dc:format>
    <dc:creator>
     <cc:Agent>
      <dc:title>Matplotlib v3.6.1, https://matplotlib.org/</dc:title>
     </cc:Agent>
    </dc:creator>
   </cc:Work>
  </rdf:RDF>
 </metadata>
 <defs>
  <style type="text/css">*{stroke-linejoin: round; stroke-linecap: butt}</style>
 </defs>
 <g id="figure_1">
  <g id="patch_1">
   <path d="M 0 288 
L 432 288 
L 432 0 
L 0 0 
z
" style="fill: #ffffff"/>
  </g>
  <g id="axes_1">
   <g id="patch_2">
    <path d="M 58.848357 242.124 
L 421.2 242.124 
L 421.2 10.8 
L 58.848357 10.8 
z
" style="fill: #ffffff"/>
   </g>
   <g id="patch_3">
    <path d="M 58.848357 242.124 
L 58.848357 10.8 
" style="fill: none; stroke: #000000; stroke-width: 1.5; stroke-linejoin: miter; stroke-linecap: square"/>
   </g>
   <g id="patch_4">
    <path d="M 421.2 242.124 
L 421.2 10.8 
" style="fill: none; stroke: #000000; stroke-width: 1.5; stroke-linejoin: miter; stroke-linecap: square"/>
   </g>
   <g id="patch_5">
    <path d="M 58.848357 242.124 
L 421.2 242.124 
" style="fill: none; stroke: #000000; stroke-width: 1.5; stroke-linejoin: miter; stroke-linecap: square"/>
   </g>
   <g id="patch_6">
    <path d="M 58.848357 10.8 
L 421.2 10.8 
" style="fill: none; stroke: #000000; stroke-width: 1.5; stroke-linejoin: miter; stroke-linecap: square"/>
   </g>
   <g id="PolyCollection_1">
    <path d="M 200.57816 117.312576 
L 200.57816 137.433316 
L 201.075937 135.940612 
L 201.966871 139.468533 
L 202.837077 125.564083 
L 203.702382 127.206105 
L 204.542408 125.883243 
L 205.386049 129.103562 
L 206.224843 126.629433 
L 207.1226 127.956042 
L 207.939785 129.352641 
L 208.792582 130.520287 
L 209.686215 134.015098 
L 210.499736 134.228333 
L 211.338746 134.993685 
L 212.239538 135.140787 
L 213.047724 134.381898 
L 213.893409 133.311515 
L 214.748726 136.629173 
L 215.592934 136.409225 
L 216.48394 138.203346 
L 217.32249 136.306863 
L 218.151036 137.194318 
L 219.063262 136.345846 
L 219.839592 135.793216 
L 220.72267 136.188444 
L 221.57511 139.160738 
L 222.433165 137.312288 
L 223.27529 138.584109 
L 224.109397 136.460531 
L 224.998969 141.964562 
L 225.81613 137.49851 
L 226.691607 150.40193 
L 227.503369 136.756002 
L 228.388159 139.103511 
L 229.245616 145.537689 
L 230.051564 143.285445 
L 230.934017 135.743328 
L 231.779969 128.965444 
L 232.691283 140.489917 
L 233.495828 152.827706 
L 234.318044 144.256136 
L 235.184971 130.761503 
L 236.071078 140.42278 
L 236.867415 144.618878 
L 237.868037 146.749837 
L 238.52308 150.698454 
L 239.440416 155.443609 
L 240.299051 157.578747 
L 241.145809 167.412561 
L 242.027775 160.279548 
L 242.845867 162.341409 
L 243.703666 159.103799 
L 244.535048 154.404681 
L 245.356131 148.796016 
L 246.231246 151.803978 
L 247.082918 149.235612 
L 247.946456 147.581086 
L 248.813714 145.521986 
L 249.63467 145.173444 
L 250.513538 143.637431 
L 251.363279 142.313663 
L 252.235044 143.28539 
L 253.027628 144.386312 
L 253.97825 140.683633 
L 254.750776 145.314023 
L 255.621675 139.426953 
L 256.469879 141.95267 
L 257.304391 140.618599 
L 258.170541 136.578911 
L 259.039239 140.734068 
L 259.898607 140.367928 
L 260.722227 143.228652 
L 261.646187 145.26063 
L 262.43875 148.297468 
L 263.301833 145.185606 
L 264.051236 145.003277 
L 264.99109 146.252084 
L 265.840025 144.654843 
L 266.69886 146.663134 
L 267.541099 143.017807 
L 268.318449 147.479289 
L 269.25276 146.465669 
L 270.090748 147.150972 
L 270.967355 145.391842 
L 271.819925 145.599135 
L 272.661415 151.173006 
L 273.527354 146.475793 
L 274.346568 144.397043 
L 275.14475 145.39984 
L 276.139888 142.898283 
L 276.932808 145.073535 
L 277.742379 144.457669 
L 278.598612 144.463121 
L 279.447511 140.761606 
L 280.309654 143.614057 
L 281.225987 159.073209 
L 282.014716 162.490115 
L 282.900069 160.359726 
L 283.681493 162.455165 
L 284.566955 167.828168 
L 285.370183 161.878873 
L 286.262447 173.570253 
L 287.14078 168.273924 
L 287.994691 162.232831 
L 288.828606 161.170991 
L 289.637274 163.350805 
L 290.5262 162.943215 
L 291.358556 167.863224 
L 292.265296 183.135383 
L 293.052672 169.510479 
L 293.954442 187.759718 
L 294.81229 180.677879 
L 295.624189 175.7577 
L 296.486331 179.251145 
L 297.336063 189.992363 
L 298.16793 184.465061 
L 299.029039 180.507683 
L 299.895101 171.697547 
L 300.763888 180.463577 
L 301.625032 187.099624 
L 302.416821 185.506463 
L 303.25686 179.110982 
L 304.112168 181.884319 
L 304.967404 182.343752 
L 305.822363 189.158822 
L 306.653069 191.243621 
L 307.656119 228.737997 
L 308.383747 182.160682 
L 309.258148 185.428094 
L 310.097549 183.764801 
L 310.956656 184.515322 
L 311.806508 178.228668 
L 312.648309 186.458681 
L 313.490377 179.911013 
L 314.357263 182.613667 
L 315.156644 180.007449 
L 316.041779 187.142101 
L 316.90213 180.206028 
L 317.730791 175.866594 
L 318.63195 187.151744 
L 319.465691 179.394011 
L 320.264843 179.164445 
L 321.183149 185.698498 
L 322.014808 180.175844 
L 322.810207 195.862264 
L 323.774855 231.609273 
L 324.564838 183.027862 
L 325.400102 172.987579 
L 326.191594 169.755993 
L 327.208471 216.498393 
L 327.979727 43329.431518 
L 328.818463 193.408243 
L 329.68502 220.302898 
L 330.539972 207.589603 
L 331.371738 183.354787 
L 332.21967 183.932343 
L 333.092314 184.360599 
L 333.945547 181.10497 
L 334.772705 177.39875 
L 335.634625 178.009649 
L 336.496322 184.243262 
L 337.344987 178.992888 
L 338.178821 175.331603 
L 339.033175 170.900456 
L 339.886123 180.111699 
L 340.75985 181.969577 
L 341.593131 190.526752 
L 342.424322 191.398928 
L 343.319032 181.559925 
L 344.118415 193.581061 
L 344.993411 185.210494 
L 345.835576 182.112083 
L 346.688962 179.501595 
L 347.508762 187.401209 
L 348.424931 200.899733 
L 349.241499 202.480585 
L 350.157145 185.131418 
L 350.980345 183.165272 
L 351.77704 186.835077 
L 352.674634 190.114685 
L 353.49035 189.095663 
L 354.441548 191.097463 
L 355.146998 190.20935 
L 356.077969 189.192632 
L 356.902093 178.408654 
L 357.782168 188.011287 
L 358.627358 197.959695 
L 359.482458 189.241719 
L 360.321599 198.671177 
L 361.131299 188.9294 
L 362.036954 196.624771 
L 362.899606 203.535809 
L 363.686613 193.241205 
L 364.553946 198.229032 
L 365.453698 185.793251 
L 366.257188 179.162346 
L 367.100667 178.121059 
L 367.967643 167.711932 
L 368.833728 178.4538 
L 369.681347 181.687513 
L 370.519543 180.725156 
L 371.360314 186.394425 
L 372.250761 185.286788 
L 373.110751 177.19309 
L 373.937713 177.292932 
L 374.80968 196.514607 
L 375.634488 187.605902 
L 376.521773 218.157611 
L 377.362919 182.672998 
L 378.182775 180.849938 
L 379.013793 182.024208 
L 379.921711 189.290609 
L 380.670676 184.487058 
L 381.668169 178.377653 
L 382.44551 177.609653 
L 383.371444 178.272753 
L 384.165446 173.30089 
L 385.010483 173.439895 
L 385.849558 173.168871 
L 386.695474 174.32205 
L 387.545224 176.831082 
L 388.433397 180.043197 
L 389.270612 178.563323 
L 390.08422 176.673643 
L 390.985537 176.364804 
L 391.814948 176.68185 
L 392.639931 187.206331 
L 393.51541 199.061521 
L 394.374487 194.968478 
L 395.233436 193.739912 
L 396.055878 221.450524 
L 396.929851 218.130976 
L 397.750418 210.02163 
L 398.637046 194.887791 
L 399.480672 204.619328 
L 400.325266 207.245724 
L 401.195766 195.764536 
L 402.006933 194.681295 
L 402.850419 199.414964 
L 403.752606 184.61536 
L 404.597013 188.358075 
L 404.597013 155.144227 
L 404.597013 155.144227 
L 403.752606 163.617491 
L 402.850419 154.366128 
L 402.006933 153.769423 
L 401.195766 155.302535 
L 400.325266 153.812198 
L 399.480672 162.594887 
L 398.637046 166.829146 
L 397.750418 156.552843 
L 396.929851 157.290602 
L 396.055878 159.386887 
L 395.233436 155.040173 
L 394.374487 152.827583 
L 393.51541 154.266395 
L 392.639931 156.06747 
L 391.814948 154.251917 
L 390.985537 154.051746 
L 390.08422 154.237009 
L 389.270612 154.079342 
L 388.433397 153.392439 
L 387.545224 153.658107 
L 386.695474 154.895317 
L 385.849558 153.031355 
L 385.010483 154.344984 
L 384.165446 155.192402 
L 383.371444 155.517074 
L 382.44551 162.543378 
L 381.668169 164.890033 
L 380.670676 150.52389 
L 379.921711 151.00667 
L 379.013793 146.612667 
L 378.182775 152.397438 
L 377.362919 148.700794 
L 376.521773 159.157643 
L 375.634488 159.821799 
L 374.80968 155.360781 
L 373.937713 157.918963 
L 373.110751 157.84436 
L 372.250761 162.843609 
L 371.360314 160.273282 
L 370.519543 159.741071 
L 369.681347 156.665258 
L 368.833728 159.105675 
L 367.967643 157.686951 
L 367.100667 154.000771 
L 366.257188 154.39218 
L 365.453698 156.712502 
L 364.553946 160.75285 
L 363.686613 160.825307 
L 362.899606 155.523623 
L 362.036954 164.694626 
L 361.131299 165.139086 
L 360.321599 155.992676 
L 359.482458 154.448371 
L 358.627358 153.442006 
L 357.782168 156.060659 
L 356.902093 154.368758 
L 356.077969 153.914933 
L 355.146998 150.747699 
L 354.441548 154.403942 
L 353.49035 159.063776 
L 352.674634 155.01205 
L 351.77704 151.604921 
L 350.980345 157.291842 
L 350.157145 156.09096 
L 349.241499 150.935169 
L 348.424931 147.526356 
L 347.508762 153.843255 
L 346.688962 156.839501 
L 345.835576 154.328948 
L 344.993411 152.900924 
L 344.118415 150.189546 
L 343.319032 142.887999 
L 342.424322 145.772961 
L 341.593131 147.975083 
L 340.75985 146.444342 
L 339.886123 145.423161 
L 339.033175 144.930713 
L 338.178821 146.498831 
L 337.344987 148.923198 
L 336.496322 150.873098 
L 335.634625 150.574343 
L 334.772705 153.415678 
L 333.945547 150.408829 
L 333.092314 154.629663 
L 332.21967 153.301182 
L 331.371738 154.357704 
L 330.539972 148.44955 
L 329.68502 141.180939 
L 328.818463 142.885715 
L 327.979727 149.140795 
L 327.208471 152.942753 
L 326.191594 139.487574 
L 325.400102 142.162945 
L 324.564838 143.959699 
L 323.774855 144.274892 
L 322.810207 156.477781 
L 322.014808 152.005096 
L 321.183149 152.845427 
L 320.264843 150.554964 
L 319.465691 150.422349 
L 318.63195 153.87877 
L 317.730791 147.05139 
L 316.90213 149.651611 
L 316.041779 148.432473 
L 315.156644 144.628677 
L 314.357263 146.35654 
L 313.490377 146.967922 
L 312.648309 150.422481 
L 311.806508 143.87598 
L 310.956656 149.351557 
L 310.097549 151.246948 
L 309.258148 146.940486 
L 308.383747 143.985671 
L 307.656119 147.517896 
L 306.653069 153.822044 
L 305.822363 151.070131 
L 304.967404 149.496177 
L 304.112168 149.465806 
L 303.25686 149.122346 
L 302.416821 146.603162 
L 301.625032 144.80984 
L 300.763888 146.858609 
L 299.895101 143.527191 
L 299.029039 144.713036 
L 298.16793 150.599884 
L 297.336063 148.392195 
L 296.486331 146.320588 
L 295.624189 146.603304 
L 294.81229 144.410708 
L 293.954442 143.797259 
L 293.052672 140.634273 
L 292.265296 142.603664 
L 291.358556 141.297324 
L 290.5262 141.058113 
L 289.637274 141.008452 
L 288.828606 140.979371 
L 287.994691 140.788179 
L 287.14078 140.257796 
L 286.262447 139.4926 
L 285.370183 138.148404 
L 284.566955 140.115303 
L 283.681493 139.575794 
L 282.900069 139.291312 
L 282.014716 137.906861 
L 281.225987 136.492081 
L 280.309654 135.530921 
L 279.447511 136.525604 
L 278.598612 137.168429 
L 277.742379 138.717534 
L 276.932808 137.51503 
L 276.139888 138.325439 
L 275.14475 138.991514 
L 274.346568 139.398675 
L 273.527354 138.490274 
L 272.661415 140.608969 
L 271.819925 138.221958 
L 270.967355 139.257697 
L 270.090748 138.62788 
L 269.25276 135.48811 
L 268.318449 138.050957 
L 267.541099 136.43649 
L 266.69886 134.842653 
L 265.840025 136.088615 
L 264.99109 136.067242 
L 264.051236 134.922079 
L 263.301833 135.623821 
L 262.43875 136.830971 
L 261.646187 134.840093 
L 260.722227 133.898968 
L 259.898607 131.288276 
L 259.039239 131.771246 
L 258.170541 132.066837 
L 257.304391 133.037517 
L 256.469879 132.15585 
L 255.621675 130.937293 
L 254.750776 132.401905 
L 253.97825 132.719002 
L 253.027628 133.105821 
L 252.235044 134.176097 
L 251.363279 134.636288 
L 250.513538 134.336899 
L 249.63467 135.266786 
L 248.813714 135.534403 
L 247.946456 135.140506 
L 247.082918 132.696339 
L 246.231246 133.540719 
L 245.356131 130.655686 
L 244.535048 131.991824 
L 243.703666 130.329748 
L 242.845867 129.820901 
L 242.027775 128.17228 
L 241.145809 129.728168 
L 240.299051 129.924582 
L 239.440416 133.574333 
L 238.52308 131.018943 
L 237.868037 130.906429 
L 236.867415 124.112273 
L 236.071078 121.22969 
L 235.184971 120.001117 
L 234.318044 117.796143 
L 233.495828 115.06786 
L 232.691283 114.636704 
L 231.779969 115.701767 
L 230.934017 116.239342 
L 230.051564 118.118836 
L 229.245616 123.981855 
L 228.388159 119.256928 
L 227.503369 119.767888 
L 226.691607 122.8995 
L 225.81613 121.731978 
L 224.998969 119.622347 
L 224.109397 118.301183 
L 223.27529 119.225949 
L 222.433165 124.036784 
L 221.57511 125.013939 
L 220.72267 125.295306 
L 219.839592 125.553369 
L 219.063262 125.774957 
L 218.151036 126.607201 
L 217.32249 123.449187 
L 216.48394 122.393819 
L 215.592934 126.617159 
L 214.748726 126.895997 
L 213.893409 128.175971 
L 213.047724 128.555046 
L 212.239538 127.758446 
L 211.338746 126.416887 
L 210.499736 127.736297 
L 209.686215 124.366374 
L 208.792582 123.317091 
L 207.939785 121.571015 
L 207.1226 120.691087 
L 206.224843 120.264224 
L 205.386049 118.268797 
L 204.542408 115.485021 
L 203.702382 117.09384 
L 202.837077 113.482534 
L 201.966871 117.172502 
L 201.075937 119.857086 
L 200.57816 117.312576 
z
" clip-path="url(#pe720eda69e)" style="fill: #add8e6; stroke: #add8e6"/>
   </g>
   <g id="line2d_1">
    <path d="M 200.57816 124.787697 
L 201.075937 126.220281 
L 201.966871 125.177135 
L 202.837077 118.56399 
L 203.702382 121.474503 
L 204.542408 119.970406 
L 205.386049 122.912099 
L 206.224843 123.177259 
L 207.1226 123.972906 
L 207.939785 125.059886 
L 208.792582 126.57393 
L 209.686215 128.575119 
L 210.499736 130.70195 
L 211.338746 130.217745 
L 212.239538 131.087608 
L 213.047724 131.242398 
L 213.893409 130.567973 
L 214.748726 131.136263 
L 215.592934 130.879353 
L 216.48394 128.675135 
L 217.32249 128.793899 
L 218.151036 131.161207 
L 219.063262 130.323085 
L 219.839592 129.98088 
L 220.72267 129.959546 
L 221.57511 130.78011 
L 222.433165 129.520243 
L 223.27529 126.504225 
L 224.109397 125.257805 
L 224.998969 127.637722 
L 225.81613 128.00037 
L 226.691607 131.993249 
L 227.503369 126.395472 
L 228.388159 126.661966 
L 229.245616 131.811522 
L 230.051564 126.753508 
L 230.934017 123.555722 
L 231.779969 121.181327 
L 232.691283 123.411125 
L 233.495828 125.69778 
L 234.318044 126.690698 
L 235.184971 124.617679 
L 236.867415 131.684744 
L 237.868037 137.197916 
L 238.52308 138.380896 
L 239.440416 141.478737 
L 240.299051 139.046582 
L 241.145809 140.349231 
L 242.027775 138.044458 
L 242.845867 139.7554 
L 243.703666 139.654561 
L 244.535048 140.023591 
L 245.356131 137.607083 
L 246.231246 140.525822 
L 247.082918 139.193869 
L 247.946456 140.34464 
L 248.813714 139.869088 
L 249.63467 139.571525 
L 250.513538 138.414738 
L 251.363279 138.083658 
L 252.235044 138.18139 
L 253.027628 137.907941 
L 253.97825 136.28039 
L 254.750776 137.764813 
L 255.621675 134.704355 
L 256.469879 136.419813 
L 257.304391 136.446428 
L 258.170541 134.187095 
L 259.039239 135.720663 
L 259.898607 135.282283 
L 260.722227 137.987825 
L 261.646187 139.333607 
L 262.43875 141.698648 
L 263.301833 139.800022 
L 264.051236 139.291304 
L 264.99109 140.47458 
L 265.840025 139.885379 
L 266.69886 139.833928 
L 267.541099 139.439058 
L 268.318449 142.17702 
L 269.25276 140.182557 
L 270.090748 142.40792 
L 270.967355 142.07433 
L 271.819925 141.549041 
L 272.661415 145.154614 
L 273.527354 142.059912 
L 274.346568 141.731326 
L 275.14475 141.92246 
L 276.139888 140.472409 
L 277.742379 141.368181 
L 278.598612 140.462258 
L 279.447511 138.523899 
L 280.309654 139.139039 
L 281.225987 144.562702 
L 282.014716 146.419556 
L 282.900069 147.002853 
L 283.681493 147.714622 
L 284.566955 149.248182 
L 285.370183 146.477304 
L 286.262447 149.651655 
L 287.14078 149.446439 
L 287.994691 148.591107 
L 288.828606 148.472488 
L 289.637274 149.023859 
L 290.5262 148.966265 
L 291.358556 150.212528 
L 292.265296 153.537891 
L 293.052672 149.977095 
L 293.954442 155.056128 
L 294.81229 154.859446 
L 295.624189 155.994759 
L 296.486331 156.31578 
L 297.336063 159.43336 
L 298.16793 160.729234 
L 299.029039 155.101728 
L 299.895101 152.74391 
L 300.763888 156.951183 
L 301.625032 155.917158 
L 302.416821 157.363496 
L 303.25686 158.656103 
L 304.112168 159.385032 
L 304.967404 159.479178 
L 305.822363 161.738283 
L 306.653069 164.412012 
L 307.656119 160.236624 
L 308.383747 154.66376 
L 309.258148 157.654225 
L 310.097549 161.181051 
L 310.956656 159.657988 
L 311.806508 154.073057 
L 312.648309 160.842034 
L 313.490377 156.964951 
L 314.357263 156.804015 
L 315.156644 154.963414 
L 316.041779 159.171213 
L 316.90213 159.278916 
L 317.730791 156.383468 
L 318.63195 163.923781 
L 319.465691 159.781926 
L 320.264843 159.850594 
L 321.183149 162.829237 
L 322.014808 161.221886 
L 322.810207 167.290913 
L 323.774855 157.06059 
L 324.564838 154.738259 
L 326.191594 149.067887 
L 327.208471 165.288414 
L 327.979727 163.985885 
L 328.818463 154.63204 
L 329.68502 153.871226 
L 330.539972 160.634925 
L 331.371738 163.721731 
L 332.21967 162.940994 
L 333.092314 164.120024 
L 333.945547 160.059198 
L 334.772705 161.799707 
L 335.634625 159.655535 
L 336.496322 160.932108 
L 339.033175 153.728449 
L 339.886123 155.666017 
L 340.75985 156.7982 
L 341.593131 159.106949 
L 342.424322 157.170763 
L 343.319032 153.622511 
L 344.118415 161.398066 
L 344.993411 162.803758 
L 345.835576 163.474814 
L 346.688962 164.928722 
L 347.508762 163.929137 
L 348.424931 159.439602 
L 349.241499 162.744159 
L 350.157145 165.462569 
L 350.980345 166.070316 
L 351.77704 161.920123 
L 353.49035 168.604769 
L 354.441548 164.905733 
L 355.146998 161.569187 
L 356.077969 164.236399 
L 356.902093 162.765107 
L 357.782168 165.908907 
L 358.627358 164.748511 
L 359.482458 164.705369 
L 360.321599 167.13632 
L 361.131299 173.481099 
L 362.036954 174.539732 
L 362.899606 167.101856 
L 363.686613 170.744141 
L 364.553946 171.34931 
L 365.453698 166.091141 
L 366.257188 162.944285 
L 367.100667 162.414502 
L 367.967643 162.035447 
L 368.833728 166.381322 
L 369.681347 165.270026 
L 370.519543 167.431938 
L 372.250761 170.882397 
L 373.110751 165.120165 
L 373.937713 165.201381 
L 374.80968 166.357941 
L 375.634488 168.967843 
L 376.521773 171.337313 
L 377.362919 158.845144 
L 378.182775 161.665033 
L 379.013793 156.951694 
L 379.921711 161.697242 
L 380.670676 160.666976 
L 381.668169 170.443139 
L 382.44551 168.598325 
L 383.371444 163.627716 
L 384.165446 162.135043 
L 385.010483 161.553917 
L 385.849558 160.510741 
L 386.695474 162.191539 
L 387.545224 161.863264 
L 388.433397 162.324121 
L 389.270612 162.570978 
L 390.985537 162.060342 
L 391.814948 162.287639 
L 392.639931 165.788952 
L 393.51541 165.596223 
L 394.374487 163.920804 
L 395.233436 165.777804 
L 396.055878 171.682416 
L 396.929851 169.542049 
L 397.750418 168.471271 
L 398.637046 176.025547 
L 399.480672 173.677013 
L 400.325266 165.728714 
L 401.195766 166.229591 
L 402.006933 164.74233 
L 402.850419 165.717007 
L 403.752606 171.311742 
L 404.597013 165.180691 
L 404.597013 165.180691 
" clip-path="url(#pe720eda69e)" style="fill: none; stroke: #1f77b4; stroke-width: 1.5; stroke-linecap: square"/>
   </g>
   <g id="line2d_2">
    <path d="M 75.318887 21.314727 
L 76.000771 25.792137 
L 76.682655 28.030842 
L 77.363806 29.580715 
L 79.409581 33.670656 
L 81.113986 37.760598 
L 84.180202 45.639117 
L 86.224754 50.503995 
L 88.269306 54.938353 
L 90.654004 59.587971 
L 94.060367 65.399993 
L 97.808101 70.910651 
L 103.940533 78.487806 
L 105.983861 80.683459 
L 107.687042 82.448592 
L 110.753258 85.419181 
L 117.225837 91.015944 
L 125.401597 97.086278 
L 136.302203 103.888497 
L 138.345532 105.007849 
L 140.048713 105.954994 
L 153.675388 112.71416 
L 155.37857 113.446045 
L 157.081751 114.220981 
L 159.125079 115.082021 
L 160.488114 115.68475 
L 163.894477 117.062414 
L 164.916141 117.492934 
L 179.563257 122.960541 
L 180.584921 123.304957 
L 182.969619 124.122945 
L 184.332654 124.553465 
L 186.717353 125.371453 
L 188.418087 125.888078 
L 190.461415 126.57691 
L 192.504744 127.179638 
L 194.205478 127.739314 
L 196.248806 128.342043 
L 197.619182 128.772563 
L 200.347698 129.547499 
L 201.705839 129.978019 
L 205.449901 131.011268 
L 206.477683 131.312632 
L 210.906934 132.518088 
L 211.92248 132.819453 
L 237.470202 139.148099 
L 238.497984 139.363359 
L 241.899452 140.138295 
L 242.927234 140.353556 
L 245.986109 141.042388 
L 247.356485 141.3007 
L 250.41536 141.989532 
L 251.7735 142.247844 
L 254.159422 142.764469 
L 255.529798 143.022781 
L 257.91572 143.539405 
L 259.273861 143.797717 
L 260.974595 144.142133 
L 262.332735 144.400445 
L 264.045705 144.744861 
L 265.403846 145.003173 
L 267.10458 145.34759 
L 268.805314 145.648954 
L 270.518284 145.99337 
L 272.561612 146.337786 
L 274.262347 146.682202 
L 275.963081 146.983566 
L 277.321222 147.241878 
L 279.36455 147.586294 
L 281.07752 147.930711 
L 283.463442 148.318179 
L 284.821582 148.576491 
L 286.864911 148.920907 
L 288.223051 149.179219 
L 290.608973 149.566687 
L 291.979349 149.824999 
L 294.69563 150.25552 
L 296.066006 150.513832 
L 299.12488 150.987404 
L 300.495256 151.245716 
L 303.896725 151.76234 
L 305.254865 152.020652 
L 309.011163 152.580329 
L 310.02671 152.752537 
L 313.09782 153.226109 
L 314.113366 153.398317 
L 317.857429 153.957993 
L 318.885211 154.130201 
L 322.971868 154.732929 
L 323.99965 154.905137 
L 331.487775 155.981438 
L 332.515557 156.153646 
L 342.389604 157.531311 
L 343.405151 157.703519 
L 356.01995 159.382547 
L 357.035496 159.554755 
L 400.973173 164.97931 
L 402.000955 165.065414 
L 404.386877 165.366778 
L 404.386877 165.366778 
" clip-path="url(#pe720eda69e)" style="fill: none; stroke: #000000; stroke-width: 2.5; stroke-linecap: square"/>
   </g>
   <g id="line2d_3">
    <path d="M 75.318887 22.175768 
L 76.341652 34.876113 
L 77.363806 44.648921 
L 78.046546 49.772111 
L 79.068211 55.885497 
L 80.432469 62.515508 
L 82.13565 69.317727 
L 83.840055 74.914489 
L 86.224754 81.243136 
L 87.927935 85.117817 
L 89.972487 89.250811 
L 92.017039 92.953284 
L 95.083255 97.861214 
L 100.192799 104.792589 
L 107.006749 112.369744 
L 108.70993 114.005721 
L 110.753258 115.943062 
L 115.522656 120.033003 
L 124.379933 126.619962 
L 133.917505 132.56114 
L 136.302203 133.852701 
L 138.005385 134.799845 
L 148.224473 139.879983 
L 149.587508 140.482712 
L 151.630836 141.429856 
L 153.334018 142.16174 
L 155.037199 142.936677 
L 157.762045 144.056029 
L 159.125079 144.658757 
L 165.256288 147.06967 
L 166.279176 147.50019 
L 174.113565 150.384676 
L 175.13523 150.729092 
L 177.860075 151.676236 
L 179.22311 152.106756 
L 181.607808 152.924745 
L 182.969619 153.355265 
L 184.672801 153.914941 
L 186.375982 154.431565 
L 188.075493 154.991241 
L 190.118821 155.59397 
L 191.489197 156.02449 
L 193.532526 156.627218 
L 194.890666 157.057738 
L 198.30437 158.004883 
L 199.319917 158.306247 
L 203.063979 159.339495 
L 204.091761 159.640859 
L 231.682811 166.48613 
L 232.698357 166.70139 
L 236.112061 167.476327 
L 237.470202 167.734639 
L 240.883906 168.509575 
L 242.242046 168.767887 
L 244.970563 169.370615 
L 246.328703 169.628927 
L 248.714625 170.145552 
L 250.072766 170.403864 
L 252.116094 170.834384 
L 253.816828 171.135748 
L 255.872392 171.566268 
L 257.230532 171.82458 
L 258.931267 172.168996 
L 260.632001 172.470361 
L 262.332735 172.814777 
L 264.045705 173.116141 
L 265.74644 173.460557 
L 267.447174 173.761921 
L 268.805314 174.020233 
L 270.518284 174.321597 
L 271.876425 174.579909 
L 273.919753 174.924326 
L 275.620487 175.268742 
L 278.006409 175.65621 
L 279.36455 175.914522 
L 281.420114 176.258938 
L 282.778254 176.51725 
L 285.50677 176.94777 
L 286.864911 177.206083 
L 289.593427 177.636603 
L 290.951567 177.894915 
L 294.022677 178.368487 
L 295.380818 178.626799 
L 298.782286 179.143423 
L 299.810068 179.315631 
L 302.868943 179.789204 
L 303.896725 179.961412 
L 307.298194 180.478036 
L 308.325976 180.650244 
L 312.070038 181.20992 
L 313.09782 181.382128 
L 319.570399 182.329273 
L 320.585945 182.501481 
L 326.373336 183.319469 
L 327.401118 183.491677 
L 335.231837 184.567977 
L 336.259619 184.740186 
L 350.220324 186.591422 
L 351.248105 186.76363 
L 389.740985 191.499352 
L 390.756531 191.585456 
L 399.957626 192.661757 
L 400.973173 192.747861 
L 404.729471 193.178381 
L 404.729471 193.178381 
" clip-path="url(#pe720eda69e)" style="fill: none; stroke-dasharray: 9.25,4; stroke-dashoffset: 0; stroke: #8b0000; stroke-width: 2.5"/>
   </g>
   <g id="legend_1">
    <g id="line2d_4">
     <path d="M 333.95625 23.898438 
L 343.95625 23.898438 
L 353.95625 23.898438 
" style="fill: none; stroke: #1f77b4; stroke-width: 1.5; stroke-linecap: square"/>
    </g>
    <g id="text_1">
     <!-- PSP -->
     <g transform="translate(361.95625 27.398438) scale(0.1 -0.1)">
      <defs>
       <path id="DejaVuSans-50" d="M 1259 4147 
L 1259 2394 
L 2053 2394 
Q 2494 2394 2734 2622 
Q 2975 2850 2975 3272 
Q 2975 3691 2734 3919 
Q 2494 4147 2053 4147 
L 1259 4147 
z
M 628 4666 
L 2053 4666 
Q 2838 4666 3239 4311 
Q 3641 3956 3641 3272 
Q 3641 2581 3239 2228 
Q 2838 1875 2053 1875 
L 1259 1875 
L 1259 0 
L 628 0 
L 628 4666 
z
" transform="scale(0.015625)"/>
       <path id="DejaVuSans-53" d="M 3425 4513 
L 3425 3897 
Q 3066 4069 2747 4153 
Q 2428 4238 2131 4238 
Q 1616 4238 1336 4038 
Q 1056 3838 1056 3469 
Q 1056 3159 1242 3001 
Q 1428 2844 1947 2747 
L 2328 2669 
Q 3034 2534 3370 2195 
Q 3706 1856 3706 1288 
Q 3706 609 3251 259 
Q 2797 -91 1919 -91 
Q 1588 -91 1214 -16 
Q 841 59 441 206 
L 441 856 
Q 825 641 1194 531 
Q 1563 422 1919 422 
Q 2459 422 2753 634 
Q 3047 847 3047 1241 
Q 3047 1584 2836 1778 
Q 2625 1972 2144 2069 
L 1759 2144 
Q 1053 2284 737 2584 
Q 422 2884 422 3419 
Q 422 4038 858 4394 
Q 1294 4750 2059 4750 
Q 2388 4750 2728 4690 
Q 3069 4631 3425 4513 
z
" transform="scale(0.015625)"/>
      </defs>
      <use xlink:href="#DejaVuSans-50"/>
      <use xlink:href="#DejaVuSans-53" x="60.302734"/>
      <use xlink:href="#DejaVuSans-50" x="123.779297"/>
     </g>
    </g>
    <g id="line2d_5">
     <path d="M 333.95625 38.576562 
L 343.95625 38.576562 
L 353.95625 38.576562 
" style="fill: none; stroke: #000000; stroke-width: 2.5; stroke-linecap: square"/>
    </g>
    <g id="text_2">
     <!-- Slow wind -->
     <g transform="translate(361.95625 42.076562) scale(0.1 -0.1)">
      <defs>
       <path id="DejaVuSans-6c" d="M 603 4863 
L 1178 4863 
L 1178 0 
L 603 0 
L 603 4863 
z
" transform="scale(0.015625)"/>
       <path id="DejaVuSans-6f" d="M 1959 3097 
Q 1497 3097 1228 2736 
Q 959 2375 959 1747 
Q 959 1119 1226 758 
Q 1494 397 1959 397 
Q 2419 397 2687 759 
Q 2956 1122 2956 1747 
Q 2956 2369 2687 2733 
Q 2419 3097 1959 3097 
z
M 1959 3584 
Q 2709 3584 3137 3096 
Q 3566 2609 3566 1747 
Q 3566 888 3137 398 
Q 2709 -91 1959 -91 
Q 1206 -91 779 398 
Q 353 888 353 1747 
Q 353 2609 779 3096 
Q 1206 3584 1959 3584 
z
" transform="scale(0.015625)"/>
       <path id="DejaVuSans-77" d="M 269 3500 
L 844 3500 
L 1563 769 
L 2278 3500 
L 2956 3500 
L 3675 769 
L 4391 3500 
L 4966 3500 
L 4050 0 
L 3372 0 
L 2619 2869 
L 1863 0 
L 1184 0 
L 269 3500 
z
" transform="scale(0.015625)"/>
       <path id="DejaVuSans-20" transform="scale(0.015625)"/>
       <path id="DejaVuSans-69" d="M 603 3500 
L 1178 3500 
L 1178 0 
L 603 0 
L 603 3500 
z
M 603 4863 
L 1178 4863 
L 1178 4134 
L 603 4134 
L 603 4863 
z
" transform="scale(0.015625)"/>
       <path id="DejaVuSans-6e" d="M 3513 2113 
L 3513 0 
L 2938 0 
L 2938 2094 
Q 2938 2591 2744 2837 
Q 2550 3084 2163 3084 
Q 1697 3084 1428 2787 
Q 1159 2491 1159 1978 
L 1159 0 
L 581 0 
L 581 3500 
L 1159 3500 
L 1159 2956 
Q 1366 3272 1645 3428 
Q 1925 3584 2291 3584 
Q 2894 3584 3203 3211 
Q 3513 2838 3513 2113 
z
" transform="scale(0.015625)"/>
       <path id="DejaVuSans-64" d="M 2906 2969 
L 2906 4863 
L 3481 4863 
L 3481 0 
L 2906 0 
L 2906 525 
Q 2725 213 2448 61 
Q 2172 -91 1784 -91 
Q 1150 -91 751 415 
Q 353 922 353 1747 
Q 353 2572 751 3078 
Q 1150 3584 1784 3584 
Q 2172 3584 2448 3432 
Q 2725 3281 2906 2969 
z
M 947 1747 
Q 947 1113 1208 752 
Q 1469 391 1925 391 
Q 2381 391 2643 752 
Q 2906 1113 2906 1747 
Q 2906 2381 2643 2742 
Q 2381 3103 1925 3103 
Q 1469 3103 1208 2742 
Q 947 2381 947 1747 
z
" transform="scale(0.015625)"/>
      </defs>
      <use xlink:href="#DejaVuSans-53"/>
      <use xlink:href="#DejaVuSans-6c" x="63.476562"/>
      <use xlink:href="#DejaVuSans-6f" x="91.259766"/>
      <use xlink:href="#DejaVuSans-77" x="152.441406"/>
      <use xlink:href="#DejaVuSans-20" x="234.228516"/>
      <use xlink:href="#DejaVuSans-77" x="266.015625"/>
      <use xlink:href="#DejaVuSans-69" x="347.802734"/>
      <use xlink:href="#DejaVuSans-6e" x="375.585938"/>
      <use xlink:href="#DejaVuSans-64" x="438.964844"/>
     </g>
    </g>
    <g id="line2d_6">
     <path d="M 333.95625 53.254687 
L 343.95625 53.254687 
L 353.95625 53.254687 
" style="fill: none; stroke-dasharray: 9.25,4; stroke-dashoffset: 0; stroke: #8b0000; stroke-width: 2.5"/>
    </g>
    <g id="text_3">
     <!-- Fast wind -->
     <g transform="translate(361.95625 56.754687) scale(0.1 -0.1)">
      <defs>
       <path id="DejaVuSans-46" d="M 628 4666 
L 3309 4666 
L 3309 4134 
L 1259 4134 
L 1259 2759 
L 3109 2759 
L 3109 2228 
L 1259 2228 
L 1259 0 
L 628 0 
L 628 4666 
z
" transform="scale(0.015625)"/>
       <path id="DejaVuSans-61" d="M 2194 1759 
Q 1497 1759 1228 1600 
Q 959 1441 959 1056 
Q 959 750 1161 570 
Q 1363 391 1709 391 
Q 2188 391 2477 730 
Q 2766 1069 2766 1631 
L 2766 1759 
L 2194 1759 
z
M 3341 1997 
L 3341 0 
L 2766 0 
L 2766 531 
Q 2569 213 2275 61 
Q 1981 -91 1556 -91 
Q 1019 -91 701 211 
Q 384 513 384 1019 
Q 384 1609 779 1909 
Q 1175 2209 1959 2209 
L 2766 2209 
L 2766 2266 
Q 2766 2663 2505 2880 
Q 2244 3097 1772 3097 
Q 1472 3097 1187 3025 
Q 903 2953 641 2809 
L 641 3341 
Q 956 3463 1253 3523 
Q 1550 3584 1831 3584 
Q 2591 3584 2966 3190 
Q 3341 2797 3341 1997 
z
" transform="scale(0.015625)"/>
       <path id="DejaVuSans-73" d="M 2834 3397 
L 2834 2853 
Q 2591 2978 2328 3040 
Q 2066 3103 1784 3103 
Q 1356 3103 1142 2972 
Q 928 2841 928 2578 
Q 928 2378 1081 2264 
Q 1234 2150 1697 2047 
L 1894 2003 
Q 2506 1872 2764 1633 
Q 3022 1394 3022 966 
Q 3022 478 2636 193 
Q 2250 -91 1575 -91 
Q 1294 -91 989 -36 
Q 684 19 347 128 
L 347 722 
Q 666 556 975 473 
Q 1284 391 1588 391 
Q 1994 391 2212 530 
Q 2431 669 2431 922 
Q 2431 1156 2273 1281 
Q 2116 1406 1581 1522 
L 1381 1569 
Q 847 1681 609 1914 
Q 372 2147 372 2553 
Q 372 3047 722 3315 
Q 1072 3584 1716 3584 
Q 2034 3584 2315 3537 
Q 2597 3491 2834 3397 
z
" transform="scale(0.015625)"/>
       <path id="DejaVuSans-74" d="M 1172 4494 
L 1172 3500 
L 2356 3500 
L 2356 3053 
L 1172 3053 
L 1172 1153 
Q 1172 725 1289 603 
Q 1406 481 1766 481 
L 2356 481 
L 2356 0 
L 1766 0 
Q 1100 0 847 248 
Q 594 497 594 1153 
L 594 3053 
L 172 3053 
L 172 3500 
L 594 3500 
L 594 4494 
L 1172 4494 
z
" transform="scale(0.015625)"/>
      </defs>
      <use xlink:href="#DejaVuSans-46"/>
      <use xlink:href="#DejaVuSans-61" x="48.394531"/>
      <use xlink:href="#DejaVuSans-73" x="109.673828"/>
      <use xlink:href="#DejaVuSans-74" x="161.773438"/>
      <use xlink:href="#DejaVuSans-20" x="200.982422"/>
      <use xlink:href="#DejaVuSans-77" x="232.769531"/>
      <use xlink:href="#DejaVuSans-69" x="314.556641"/>
      <use xlink:href="#DejaVuSans-6e" x="342.339844"/>
      <use xlink:href="#DejaVuSans-64" x="405.71875"/>
     </g>
    </g>
   </g>
   <g id="matplotlib.axis_1">
    <g id="xtick_1">
     <g id="line2d_7">
      <defs>
       <path id="m31b093c071" d="M 0 0 
L 0 -3.5 
" style="stroke: #000000; stroke-width: 1.5"/>
      </defs>
      <g>
       <use xlink:href="#m31b093c071" x="64.521426" y="242.124" style="stroke: #000000; stroke-width: 1.5"/>
      </g>
     </g>
     <g id="line2d_8">
      <defs>
       <path id="m143110d2f4" d="M 0 0 
L 0 3.5 
" style="stroke: #000000; stroke-width: 1.5"/>
      </defs>
      <g>
       <use xlink:href="#m143110d2f4" x="64.521426" y="10.8" style="stroke: #000000; stroke-width: 1.5"/>
      </g>
     </g>
     <g id="text_4">
      <!-- 0 -->
      <g transform="translate(60.703926 254.742125) scale(0.12 -0.12)">
       <defs>
        <path id="DejaVuSans-30" d="M 2034 4250 
Q 1547 4250 1301 3770 
Q 1056 3291 1056 2328 
Q 1056 1369 1301 889 
Q 1547 409 2034 409 
Q 2525 409 2770 889 
Q 3016 1369 3016 2328 
Q 3016 3291 2770 3770 
Q 2525 4250 2034 4250 
z
M 2034 4750 
Q 2819 4750 3233 4129 
Q 3647 3509 3647 2328 
Q 3647 1150 3233 529 
Q 2819 -91 2034 -91 
Q 1250 -91 836 529 
Q 422 1150 422 2328 
Q 422 3509 836 4129 
Q 1250 4750 2034 4750 
z
" transform="scale(0.015625)"/>
       </defs>
       <use xlink:href="#DejaVuSans-30"/>
      </g>
     </g>
    </g>
    <g id="xtick_2">
     <g id="line2d_9">
      <g>
       <use xlink:href="#m31b093c071" x="107.082609" y="242.124" style="stroke: #000000; stroke-width: 1.5"/>
      </g>
     </g>
     <g id="line2d_10">
      <g>
       <use xlink:href="#m143110d2f4" x="107.082609" y="10.8" style="stroke: #000000; stroke-width: 1.5"/>
      </g>
     </g>
     <g id="text_5">
      <!-- 5 -->
      <g transform="translate(103.265109 254.742125) scale(0.12 -0.12)">
       <defs>
        <path id="DejaVuSans-35" d="M 691 4666 
L 3169 4666 
L 3169 4134 
L 1269 4134 
L 1269 2991 
Q 1406 3038 1543 3061 
Q 1681 3084 1819 3084 
Q 2600 3084 3056 2656 
Q 3513 2228 3513 1497 
Q 3513 744 3044 326 
Q 2575 -91 1722 -91 
Q 1428 -91 1123 -41 
Q 819 9 494 109 
L 494 744 
Q 775 591 1075 516 
Q 1375 441 1709 441 
Q 2250 441 2565 725 
Q 2881 1009 2881 1497 
Q 2881 1984 2565 2268 
Q 2250 2553 1709 2553 
Q 1456 2553 1204 2497 
Q 953 2441 691 2322 
L 691 4666 
z
" transform="scale(0.015625)"/>
       </defs>
       <use xlink:href="#DejaVuSans-35"/>
      </g>
     </g>
    </g>
    <g id="xtick_3">
     <g id="line2d_11">
      <g>
       <use xlink:href="#m31b093c071" x="149.643791" y="242.124" style="stroke: #000000; stroke-width: 1.5"/>
      </g>
     </g>
     <g id="line2d_12">
      <g>
       <use xlink:href="#m143110d2f4" x="149.643791" y="10.8" style="stroke: #000000; stroke-width: 1.5"/>
      </g>
     </g>
     <g id="text_6">
      <!-- 10 -->
      <g transform="translate(142.008791 254.742125) scale(0.12 -0.12)">
       <defs>
        <path id="DejaVuSans-31" d="M 794 531 
L 1825 531 
L 1825 4091 
L 703 3866 
L 703 4441 
L 1819 4666 
L 2450 4666 
L 2450 531 
L 3481 531 
L 3481 0 
L 794 0 
L 794 531 
z
" transform="scale(0.015625)"/>
       </defs>
       <use xlink:href="#DejaVuSans-31"/>
       <use xlink:href="#DejaVuSans-30" x="63.623047"/>
      </g>
     </g>
    </g>
    <g id="xtick_4">
     <g id="line2d_13">
      <g>
       <use xlink:href="#m31b093c071" x="192.204974" y="242.124" style="stroke: #000000; stroke-width: 1.5"/>
      </g>
     </g>
     <g id="line2d_14">
      <g>
       <use xlink:href="#m143110d2f4" x="192.204974" y="10.8" style="stroke: #000000; stroke-width: 1.5"/>
      </g>
     </g>
     <g id="text_7">
      <!-- 15 -->
      <g transform="translate(184.569974 254.742125) scale(0.12 -0.12)">
       <use xlink:href="#DejaVuSans-31"/>
       <use xlink:href="#DejaVuSans-35" x="63.623047"/>
      </g>
     </g>
    </g>
    <g id="xtick_5">
     <g id="line2d_15">
      <g>
       <use xlink:href="#m31b093c071" x="234.766157" y="242.124" style="stroke: #000000; stroke-width: 1.5"/>
      </g>
     </g>
     <g id="line2d_16">
      <g>
       <use xlink:href="#m143110d2f4" x="234.766157" y="10.8" style="stroke: #000000; stroke-width: 1.5"/>
      </g>
     </g>
     <g id="text_8">
      <!-- 20 -->
      <g transform="translate(227.131157 254.742125) scale(0.12 -0.12)">
       <defs>
        <path id="DejaVuSans-32" d="M 1228 531 
L 3431 531 
L 3431 0 
L 469 0 
L 469 531 
Q 828 903 1448 1529 
Q 2069 2156 2228 2338 
Q 2531 2678 2651 2914 
Q 2772 3150 2772 3378 
Q 2772 3750 2511 3984 
Q 2250 4219 1831 4219 
Q 1534 4219 1204 4116 
Q 875 4013 500 3803 
L 500 4441 
Q 881 4594 1212 4672 
Q 1544 4750 1819 4750 
Q 2544 4750 2975 4387 
Q 3406 4025 3406 3419 
Q 3406 3131 3298 2873 
Q 3191 2616 2906 2266 
Q 2828 2175 2409 1742 
Q 1991 1309 1228 531 
z
" transform="scale(0.015625)"/>
       </defs>
       <use xlink:href="#DejaVuSans-32"/>
       <use xlink:href="#DejaVuSans-30" x="63.623047"/>
      </g>
     </g>
    </g>
    <g id="xtick_6">
     <g id="line2d_17">
      <g>
       <use xlink:href="#m31b093c071" x="277.327339" y="242.124" style="stroke: #000000; stroke-width: 1.5"/>
      </g>
     </g>
     <g id="line2d_18">
      <g>
       <use xlink:href="#m143110d2f4" x="277.327339" y="10.8" style="stroke: #000000; stroke-width: 1.5"/>
      </g>
     </g>
     <g id="text_9">
      <!-- 25 -->
      <g transform="translate(269.692339 254.742125) scale(0.12 -0.12)">
       <use xlink:href="#DejaVuSans-32"/>
       <use xlink:href="#DejaVuSans-35" x="63.623047"/>
      </g>
     </g>
    </g>
    <g id="xtick_7">
     <g id="line2d_19">
      <g>
       <use xlink:href="#m31b093c071" x="319.888522" y="242.124" style="stroke: #000000; stroke-width: 1.5"/>
      </g>
     </g>
     <g id="line2d_20">
      <g>
       <use xlink:href="#m143110d2f4" x="319.888522" y="10.8" style="stroke: #000000; stroke-width: 1.5"/>
      </g>
     </g>
     <g id="text_10">
      <!-- 30 -->
      <g transform="translate(312.253522 254.742125) scale(0.12 -0.12)">
       <defs>
        <path id="DejaVuSans-33" d="M 2597 2516 
Q 3050 2419 3304 2112 
Q 3559 1806 3559 1356 
Q 3559 666 3084 287 
Q 2609 -91 1734 -91 
Q 1441 -91 1130 -33 
Q 819 25 488 141 
L 488 750 
Q 750 597 1062 519 
Q 1375 441 1716 441 
Q 2309 441 2620 675 
Q 2931 909 2931 1356 
Q 2931 1769 2642 2001 
Q 2353 2234 1838 2234 
L 1294 2234 
L 1294 2753 
L 1863 2753 
Q 2328 2753 2575 2939 
Q 2822 3125 2822 3475 
Q 2822 3834 2567 4026 
Q 2313 4219 1838 4219 
Q 1578 4219 1281 4162 
Q 984 4106 628 3988 
L 628 4550 
Q 988 4650 1302 4700 
Q 1616 4750 1894 4750 
Q 2613 4750 3031 4423 
Q 3450 4097 3450 3541 
Q 3450 3153 3228 2886 
Q 3006 2619 2597 2516 
z
" transform="scale(0.015625)"/>
       </defs>
       <use xlink:href="#DejaVuSans-33"/>
       <use xlink:href="#DejaVuSans-30" x="63.623047"/>
      </g>
     </g>
    </g>
    <g id="xtick_8">
     <g id="line2d_21">
      <g>
       <use xlink:href="#m31b093c071" x="362.449705" y="242.124" style="stroke: #000000; stroke-width: 1.5"/>
      </g>
     </g>
     <g id="line2d_22">
      <g>
       <use xlink:href="#m143110d2f4" x="362.449705" y="10.8" style="stroke: #000000; stroke-width: 1.5"/>
      </g>
     </g>
     <g id="text_11">
      <!-- 35 -->
      <g transform="translate(354.814705 254.742125) scale(0.12 -0.12)">
       <use xlink:href="#DejaVuSans-33"/>
       <use xlink:href="#DejaVuSans-35" x="63.623047"/>
      </g>
     </g>
    </g>
    <g id="xtick_9">
     <g id="line2d_23">
      <g>
       <use xlink:href="#m31b093c071" x="405.010887" y="242.124" style="stroke: #000000; stroke-width: 1.5"/>
      </g>
     </g>
     <g id="line2d_24">
      <g>
       <use xlink:href="#m143110d2f4" x="405.010887" y="10.8" style="stroke: #000000; stroke-width: 1.5"/>
      </g>
     </g>
     <g id="text_12">
      <!-- 40 -->
      <g transform="translate(397.375887 254.742125) scale(0.12 -0.12)">
       <defs>
        <path id="DejaVuSans-34" d="M 2419 4116 
L 825 1625 
L 2419 1625 
L 2419 4116 
z
M 2253 4666 
L 3047 4666 
L 3047 1625 
L 3713 1625 
L 3713 1100 
L 3047 1100 
L 3047 0 
L 2419 0 
L 2419 1100 
L 313 1100 
L 313 1709 
L 2253 4666 
z
" transform="scale(0.015625)"/>
       </defs>
       <use xlink:href="#DejaVuSans-34"/>
       <use xlink:href="#DejaVuSans-30" x="63.623047"/>
      </g>
     </g>
    </g>
    <g id="xtick_10">
     <g id="line2d_25">
      <defs>
       <path id="m9f0bd8248e" d="M 0 0 
L 0 -2 
" style="stroke: #000000; stroke-width: 1.5"/>
      </defs>
      <g>
       <use xlink:href="#m9f0bd8248e" x="73.033663" y="242.124" style="stroke: #000000; stroke-width: 1.5"/>
      </g>
     </g>
     <g id="line2d_26">
      <defs>
       <path id="m9a28b89e95" d="M 0 0 
L 0 2 
" style="stroke: #000000; stroke-width: 1.5"/>
      </defs>
      <g>
       <use xlink:href="#m9a28b89e95" x="73.033663" y="10.8" style="stroke: #000000; stroke-width: 1.5"/>
      </g>
     </g>
    </g>
    <g id="xtick_11">
     <g id="line2d_27">
      <g>
       <use xlink:href="#m9f0bd8248e" x="81.545899" y="242.124" style="stroke: #000000; stroke-width: 1.5"/>
      </g>
     </g>
     <g id="line2d_28">
      <g>
       <use xlink:href="#m9a28b89e95" x="81.545899" y="10.8" style="stroke: #000000; stroke-width: 1.5"/>
      </g>
     </g>
    </g>
    <g id="xtick_12">
     <g id="line2d_29">
      <g>
       <use xlink:href="#m9f0bd8248e" x="90.058136" y="242.124" style="stroke: #000000; stroke-width: 1.5"/>
      </g>
     </g>
     <g id="line2d_30">
      <g>
       <use xlink:href="#m9a28b89e95" x="90.058136" y="10.8" style="stroke: #000000; stroke-width: 1.5"/>
      </g>
     </g>
    </g>
    <g id="xtick_13">
     <g id="line2d_31">
      <g>
       <use xlink:href="#m9f0bd8248e" x="98.570372" y="242.124" style="stroke: #000000; stroke-width: 1.5"/>
      </g>
     </g>
     <g id="line2d_32">
      <g>
       <use xlink:href="#m9a28b89e95" x="98.570372" y="10.8" style="stroke: #000000; stroke-width: 1.5"/>
      </g>
     </g>
    </g>
    <g id="xtick_14">
     <g id="line2d_33">
      <g>
       <use xlink:href="#m9f0bd8248e" x="115.594845" y="242.124" style="stroke: #000000; stroke-width: 1.5"/>
      </g>
     </g>
     <g id="line2d_34">
      <g>
       <use xlink:href="#m9a28b89e95" x="115.594845" y="10.8" style="stroke: #000000; stroke-width: 1.5"/>
      </g>
     </g>
    </g>
    <g id="xtick_15">
     <g id="line2d_35">
      <g>
       <use xlink:href="#m9f0bd8248e" x="124.107082" y="242.124" style="stroke: #000000; stroke-width: 1.5"/>
      </g>
     </g>
     <g id="line2d_36">
      <g>
       <use xlink:href="#m9a28b89e95" x="124.107082" y="10.8" style="stroke: #000000; stroke-width: 1.5"/>
      </g>
     </g>
    </g>
    <g id="xtick_16">
     <g id="line2d_37">
      <g>
       <use xlink:href="#m9f0bd8248e" x="132.619318" y="242.124" style="stroke: #000000; stroke-width: 1.5"/>
      </g>
     </g>
     <g id="line2d_38">
      <g>
       <use xlink:href="#m9a28b89e95" x="132.619318" y="10.8" style="stroke: #000000; stroke-width: 1.5"/>
      </g>
     </g>
    </g>
    <g id="xtick_17">
     <g id="line2d_39">
      <g>
       <use xlink:href="#m9f0bd8248e" x="141.131555" y="242.124" style="stroke: #000000; stroke-width: 1.5"/>
      </g>
     </g>
     <g id="line2d_40">
      <g>
       <use xlink:href="#m9a28b89e95" x="141.131555" y="10.8" style="stroke: #000000; stroke-width: 1.5"/>
      </g>
     </g>
    </g>
    <g id="xtick_18">
     <g id="line2d_41">
      <g>
       <use xlink:href="#m9f0bd8248e" x="158.156028" y="242.124" style="stroke: #000000; stroke-width: 1.5"/>
      </g>
     </g>
     <g id="line2d_42">
      <g>
       <use xlink:href="#m9a28b89e95" x="158.156028" y="10.8" style="stroke: #000000; stroke-width: 1.5"/>
      </g>
     </g>
    </g>
    <g id="xtick_19">
     <g id="line2d_43">
      <g>
       <use xlink:href="#m9f0bd8248e" x="166.668264" y="242.124" style="stroke: #000000; stroke-width: 1.5"/>
      </g>
     </g>
     <g id="line2d_44">
      <g>
       <use xlink:href="#m9a28b89e95" x="166.668264" y="10.8" style="stroke: #000000; stroke-width: 1.5"/>
      </g>
     </g>
    </g>
    <g id="xtick_20">
     <g id="line2d_45">
      <g>
       <use xlink:href="#m9f0bd8248e" x="175.180501" y="242.124" style="stroke: #000000; stroke-width: 1.5"/>
      </g>
     </g>
     <g id="line2d_46">
      <g>
       <use xlink:href="#m9a28b89e95" x="175.180501" y="10.8" style="stroke: #000000; stroke-width: 1.5"/>
      </g>
     </g>
    </g>
    <g id="xtick_21">
     <g id="line2d_47">
      <g>
       <use xlink:href="#m9f0bd8248e" x="183.692737" y="242.124" style="stroke: #000000; stroke-width: 1.5"/>
      </g>
     </g>
     <g id="line2d_48">
      <g>
       <use xlink:href="#m9a28b89e95" x="183.692737" y="10.8" style="stroke: #000000; stroke-width: 1.5"/>
      </g>
     </g>
    </g>
    <g id="xtick_22">
     <g id="line2d_49">
      <g>
       <use xlink:href="#m9f0bd8248e" x="200.71721" y="242.124" style="stroke: #000000; stroke-width: 1.5"/>
      </g>
     </g>
     <g id="line2d_50">
      <g>
       <use xlink:href="#m9a28b89e95" x="200.71721" y="10.8" style="stroke: #000000; stroke-width: 1.5"/>
      </g>
     </g>
    </g>
    <g id="xtick_23">
     <g id="line2d_51">
      <g>
       <use xlink:href="#m9f0bd8248e" x="209.229447" y="242.124" style="stroke: #000000; stroke-width: 1.5"/>
      </g>
     </g>
     <g id="line2d_52">
      <g>
       <use xlink:href="#m9a28b89e95" x="209.229447" y="10.8" style="stroke: #000000; stroke-width: 1.5"/>
      </g>
     </g>
    </g>
    <g id="xtick_24">
     <g id="line2d_53">
      <g>
       <use xlink:href="#m9f0bd8248e" x="217.741684" y="242.124" style="stroke: #000000; stroke-width: 1.5"/>
      </g>
     </g>
     <g id="line2d_54">
      <g>
       <use xlink:href="#m9a28b89e95" x="217.741684" y="10.8" style="stroke: #000000; stroke-width: 1.5"/>
      </g>
     </g>
    </g>
    <g id="xtick_25">
     <g id="line2d_55">
      <g>
       <use xlink:href="#m9f0bd8248e" x="226.25392" y="242.124" style="stroke: #000000; stroke-width: 1.5"/>
      </g>
     </g>
     <g id="line2d_56">
      <g>
       <use xlink:href="#m9a28b89e95" x="226.25392" y="10.8" style="stroke: #000000; stroke-width: 1.5"/>
      </g>
     </g>
    </g>
    <g id="xtick_26">
     <g id="line2d_57">
      <g>
       <use xlink:href="#m9f0bd8248e" x="243.278393" y="242.124" style="stroke: #000000; stroke-width: 1.5"/>
      </g>
     </g>
     <g id="line2d_58">
      <g>
       <use xlink:href="#m9a28b89e95" x="243.278393" y="10.8" style="stroke: #000000; stroke-width: 1.5"/>
      </g>
     </g>
    </g>
    <g id="xtick_27">
     <g id="line2d_59">
      <g>
       <use xlink:href="#m9f0bd8248e" x="251.79063" y="242.124" style="stroke: #000000; stroke-width: 1.5"/>
      </g>
     </g>
     <g id="line2d_60">
      <g>
       <use xlink:href="#m9a28b89e95" x="251.79063" y="10.8" style="stroke: #000000; stroke-width: 1.5"/>
      </g>
     </g>
    </g>
    <g id="xtick_28">
     <g id="line2d_61">
      <g>
       <use xlink:href="#m9f0bd8248e" x="260.302866" y="242.124" style="stroke: #000000; stroke-width: 1.5"/>
      </g>
     </g>
     <g id="line2d_62">
      <g>
       <use xlink:href="#m9a28b89e95" x="260.302866" y="10.8" style="stroke: #000000; stroke-width: 1.5"/>
      </g>
     </g>
    </g>
    <g id="xtick_29">
     <g id="line2d_63">
      <g>
       <use xlink:href="#m9f0bd8248e" x="268.815103" y="242.124" style="stroke: #000000; stroke-width: 1.5"/>
      </g>
     </g>
     <g id="line2d_64">
      <g>
       <use xlink:href="#m9a28b89e95" x="268.815103" y="10.8" style="stroke: #000000; stroke-width: 1.5"/>
      </g>
     </g>
    </g>
    <g id="xtick_30">
     <g id="line2d_65">
      <g>
       <use xlink:href="#m9f0bd8248e" x="285.839576" y="242.124" style="stroke: #000000; stroke-width: 1.5"/>
      </g>
     </g>
     <g id="line2d_66">
      <g>
       <use xlink:href="#m9a28b89e95" x="285.839576" y="10.8" style="stroke: #000000; stroke-width: 1.5"/>
      </g>
     </g>
    </g>
    <g id="xtick_31">
     <g id="line2d_67">
      <g>
       <use xlink:href="#m9f0bd8248e" x="294.351812" y="242.124" style="stroke: #000000; stroke-width: 1.5"/>
      </g>
     </g>
     <g id="line2d_68">
      <g>
       <use xlink:href="#m9a28b89e95" x="294.351812" y="10.8" style="stroke: #000000; stroke-width: 1.5"/>
      </g>
     </g>
    </g>
    <g id="xtick_32">
     <g id="line2d_69">
      <g>
       <use xlink:href="#m9f0bd8248e" x="302.864049" y="242.124" style="stroke: #000000; stroke-width: 1.5"/>
      </g>
     </g>
     <g id="line2d_70">
      <g>
       <use xlink:href="#m9a28b89e95" x="302.864049" y="10.8" style="stroke: #000000; stroke-width: 1.5"/>
      </g>
     </g>
    </g>
    <g id="xtick_33">
     <g id="line2d_71">
      <g>
       <use xlink:href="#m9f0bd8248e" x="311.376285" y="242.124" style="stroke: #000000; stroke-width: 1.5"/>
      </g>
     </g>
     <g id="line2d_72">
      <g>
       <use xlink:href="#m9a28b89e95" x="311.376285" y="10.8" style="stroke: #000000; stroke-width: 1.5"/>
      </g>
     </g>
    </g>
    <g id="xtick_34">
     <g id="line2d_73">
      <g>
       <use xlink:href="#m9f0bd8248e" x="328.400758" y="242.124" style="stroke: #000000; stroke-width: 1.5"/>
      </g>
     </g>
     <g id="line2d_74">
      <g>
       <use xlink:href="#m9a28b89e95" x="328.400758" y="10.8" style="stroke: #000000; stroke-width: 1.5"/>
      </g>
     </g>
    </g>
    <g id="xtick_35">
     <g id="line2d_75">
      <g>
       <use xlink:href="#m9f0bd8248e" x="336.912995" y="242.124" style="stroke: #000000; stroke-width: 1.5"/>
      </g>
     </g>
     <g id="line2d_76">
      <g>
       <use xlink:href="#m9a28b89e95" x="336.912995" y="10.8" style="stroke: #000000; stroke-width: 1.5"/>
      </g>
     </g>
    </g>
    <g id="xtick_36">
     <g id="line2d_77">
      <g>
       <use xlink:href="#m9f0bd8248e" x="345.425232" y="242.124" style="stroke: #000000; stroke-width: 1.5"/>
      </g>
     </g>
     <g id="line2d_78">
      <g>
       <use xlink:href="#m9a28b89e95" x="345.425232" y="10.8" style="stroke: #000000; stroke-width: 1.5"/>
      </g>
     </g>
    </g>
    <g id="xtick_37">
     <g id="line2d_79">
      <g>
       <use xlink:href="#m9f0bd8248e" x="353.937468" y="242.124" style="stroke: #000000; stroke-width: 1.5"/>
      </g>
     </g>
     <g id="line2d_80">
      <g>
       <use xlink:href="#m9a28b89e95" x="353.937468" y="10.8" style="stroke: #000000; stroke-width: 1.5"/>
      </g>
     </g>
    </g>
    <g id="xtick_38">
     <g id="line2d_81">
      <g>
       <use xlink:href="#m9f0bd8248e" x="370.961941" y="242.124" style="stroke: #000000; stroke-width: 1.5"/>
      </g>
     </g>
     <g id="line2d_82">
      <g>
       <use xlink:href="#m9a28b89e95" x="370.961941" y="10.8" style="stroke: #000000; stroke-width: 1.5"/>
      </g>
     </g>
    </g>
    <g id="xtick_39">
     <g id="line2d_83">
      <g>
       <use xlink:href="#m9f0bd8248e" x="379.474178" y="242.124" style="stroke: #000000; stroke-width: 1.5"/>
      </g>
     </g>
     <g id="line2d_84">
      <g>
       <use xlink:href="#m9a28b89e95" x="379.474178" y="10.8" style="stroke: #000000; stroke-width: 1.5"/>
      </g>
     </g>
    </g>
    <g id="xtick_40">
     <g id="line2d_85">
      <g>
       <use xlink:href="#m9f0bd8248e" x="387.986414" y="242.124" style="stroke: #000000; stroke-width: 1.5"/>
      </g>
     </g>
     <g id="line2d_86">
      <g>
       <use xlink:href="#m9a28b89e95" x="387.986414" y="10.8" style="stroke: #000000; stroke-width: 1.5"/>
      </g>
     </g>
    </g>
    <g id="xtick_41">
     <g id="line2d_87">
      <g>
       <use xlink:href="#m9f0bd8248e" x="396.498651" y="242.124" style="stroke: #000000; stroke-width: 1.5"/>
      </g>
     </g>
     <g id="line2d_88">
      <g>
       <use xlink:href="#m9a28b89e95" x="396.498651" y="10.8" style="stroke: #000000; stroke-width: 1.5"/>
      </g>
     </g>
    </g>
    <g id="xtick_42">
     <g id="line2d_89">
      <g>
       <use xlink:href="#m9f0bd8248e" x="413.523124" y="242.124" style="stroke: #000000; stroke-width: 1.5"/>
      </g>
     </g>
     <g id="line2d_90">
      <g>
       <use xlink:href="#m9a28b89e95" x="413.523124" y="10.8" style="stroke: #000000; stroke-width: 1.5"/>
      </g>
     </g>
    </g>
    <g id="text_13">
     <!-- Distance [R$_\odot$] -->
     <g transform="translate(197.784179 270.355875) scale(0.12 -0.12)">
      <defs>
       <path id="DejaVuSans-44" d="M 1259 4147 
L 1259 519 
L 2022 519 
Q 2988 519 3436 956 
Q 3884 1394 3884 2338 
Q 3884 3275 3436 3711 
Q 2988 4147 2022 4147 
L 1259 4147 
z
M 628 4666 
L 1925 4666 
Q 3281 4666 3915 4102 
Q 4550 3538 4550 2338 
Q 4550 1131 3912 565 
Q 3275 0 1925 0 
L 628 0 
L 628 4666 
z
" transform="scale(0.015625)"/>
       <path id="DejaVuSans-63" d="M 3122 3366 
L 3122 2828 
Q 2878 2963 2633 3030 
Q 2388 3097 2138 3097 
Q 1578 3097 1268 2742 
Q 959 2388 959 1747 
Q 959 1106 1268 751 
Q 1578 397 2138 397 
Q 2388 397 2633 464 
Q 2878 531 3122 666 
L 3122 134 
Q 2881 22 2623 -34 
Q 2366 -91 2075 -91 
Q 1284 -91 818 406 
Q 353 903 353 1747 
Q 353 2603 823 3093 
Q 1294 3584 2113 3584 
Q 2378 3584 2631 3529 
Q 2884 3475 3122 3366 
z
" transform="scale(0.015625)"/>
       <path id="DejaVuSans-65" d="M 3597 1894 
L 3597 1613 
L 953 1613 
Q 991 1019 1311 708 
Q 1631 397 2203 397 
Q 2534 397 2845 478 
Q 3156 559 3463 722 
L 3463 178 
Q 3153 47 2828 -22 
Q 2503 -91 2169 -91 
Q 1331 -91 842 396 
Q 353 884 353 1716 
Q 353 2575 817 3079 
Q 1281 3584 2069 3584 
Q 2775 3584 3186 3129 
Q 3597 2675 3597 1894 
z
M 3022 2063 
Q 3016 2534 2758 2815 
Q 2500 3097 2075 3097 
Q 1594 3097 1305 2825 
Q 1016 2553 972 2059 
L 3022 2063 
z
" transform="scale(0.015625)"/>
       <path id="DejaVuSans-5b" d="M 550 4863 
L 1875 4863 
L 1875 4416 
L 1125 4416 
L 1125 -397 
L 1875 -397 
L 1875 -844 
L 550 -844 
L 550 4863 
z
" transform="scale(0.015625)"/>
       <path id="DejaVuSans-52" d="M 2841 2188 
Q 3044 2119 3236 1894 
Q 3428 1669 3622 1275 
L 4263 0 
L 3584 0 
L 2988 1197 
Q 2756 1666 2539 1819 
Q 2322 1972 1947 1972 
L 1259 1972 
L 1259 0 
L 628 0 
L 628 4666 
L 2053 4666 
Q 2853 4666 3247 4331 
Q 3641 3997 3641 3322 
Q 3641 2881 3436 2590 
Q 3231 2300 2841 2188 
z
M 1259 4147 
L 1259 2491 
L 2053 2491 
Q 2509 2491 2742 2702 
Q 2975 2913 2975 3322 
Q 2975 3731 2742 3939 
Q 2509 4147 2053 4147 
L 1259 4147 
z
" transform="scale(0.015625)"/>
       <path id="DejaVuSans-2299" d="M 2350 2403 
L 3013 2403 
L 3013 1609 
L 2350 1609 
L 2350 2403 
z
M 3306 3522 
Q 3016 3644 2681 3644 
Q 2347 3644 2056 3522 
Q 1769 3400 1531 3163 
Q 1291 2922 1172 2634 
Q 1053 2347 1053 2006 
Q 1053 1675 1172 1387 
Q 1291 1100 1531 859 
Q 1769 622 2056 500 
Q 2347 378 2681 378 
Q 3016 378 3306 500 
Q 3594 622 3831 859 
Q 4072 1100 4190 1387 
Q 4309 1675 4309 2006 
Q 4309 2347 4190 2634 
Q 4072 2922 3831 3163 
Q 3594 3400 3306 3522 
z
M 1878 3956 
Q 2250 4113 2681 4113 
Q 3113 4113 3484 3956 
Q 3856 3800 4163 3494 
Q 4472 3184 4625 2813 
Q 4778 2444 4778 2006 
Q 4778 1578 4625 1206 
Q 4472 838 4163 528 
Q 3856 222 3484 65 
Q 3113 -91 2681 -91 
Q 2250 -91 1878 65 
Q 1506 222 1200 528 
Q 891 838 738 1206 
Q 584 1578 584 2006 
Q 584 2444 738 2813 
Q 891 3184 1200 3494 
Q 1506 3800 1878 3956 
z
" transform="scale(0.015625)"/>
       <path id="DejaVuSans-5d" d="M 1947 4863 
L 1947 -844 
L 622 -844 
L 622 -397 
L 1369 -397 
L 1369 4416 
L 622 4416 
L 622 4863 
L 1947 4863 
z
" transform="scale(0.015625)"/>
      </defs>
      <use xlink:href="#DejaVuSans-44" transform="translate(0 0.015625)"/>
      <use xlink:href="#DejaVuSans-69" transform="translate(77.001953 0.015625)"/>
      <use xlink:href="#DejaVuSans-73" transform="translate(104.785156 0.015625)"/>
      <use xlink:href="#DejaVuSans-74" transform="translate(156.884766 0.015625)"/>
      <use xlink:href="#DejaVuSans-61" transform="translate(196.09375 0.015625)"/>
      <use xlink:href="#DejaVuSans-6e" transform="translate(257.373047 0.015625)"/>
      <use xlink:href="#DejaVuSans-63" transform="translate(320.751953 0.015625)"/>
      <use xlink:href="#DejaVuSans-65" transform="translate(375.732422 0.015625)"/>
      <use xlink:href="#DejaVuSans-20" transform="translate(437.255859 0.015625)"/>
      <use xlink:href="#DejaVuSans-5b" transform="translate(469.042969 0.015625)"/>
      <use xlink:href="#DejaVuSans-52" transform="translate(504.931641 0.015625)"/>
      <use xlink:href="#DejaVuSans-2299" transform="translate(589.008789 -16.390625) scale(0.7)"/>
      <use xlink:href="#DejaVuSans-5d" transform="translate(664.033203 0.015625)"/>
     </g>
    </g>
   </g>
   <g id="matplotlib.axis_2">
    <g id="ytick_1">
     <g id="line2d_91">
      <defs>
       <path id="m087aa717f2" d="M 0 0 
L 3.5 0 
" style="stroke: #000000; stroke-width: 1.5"/>
      </defs>
      <g>
       <use xlink:href="#m087aa717f2" x="58.848357" y="234.362036" style="stroke: #000000; stroke-width: 1.5"/>
      </g>
     </g>
     <g id="line2d_92">
      <defs>
       <path id="m4b30a9ac56" d="M 0 0 
L -3.5 0 
" style="stroke: #000000; stroke-width: 1.5"/>
      </defs>
      <g>
       <use xlink:href="#m4b30a9ac56" x="421.2" y="234.362036" style="stroke: #000000; stroke-width: 1.5"/>
      </g>
     </g>
     <g id="text_14">
      <!-- $\mathdefault{10^{1}}$ -->
      <g transform="translate(34.228357 238.921099) scale(0.12 -0.12)">
       <use xlink:href="#DejaVuSans-31" transform="translate(0 0.684375)"/>
       <use xlink:href="#DejaVuSans-30" transform="translate(63.623047 0.684375)"/>
       <use xlink:href="#DejaVuSans-31" transform="translate(128.203125 38.965625) scale(0.7)"/>
      </g>
     </g>
    </g>
    <g id="ytick_2">
     <g id="line2d_93">
      <g>
       <use xlink:href="#m087aa717f2" x="58.848357" y="191.310019" style="stroke: #000000; stroke-width: 1.5"/>
      </g>
     </g>
     <g id="line2d_94">
      <g>
       <use xlink:href="#m4b30a9ac56" x="421.2" y="191.310019" style="stroke: #000000; stroke-width: 1.5"/>
      </g>
     </g>
     <g id="text_15">
      <!-- $\mathdefault{10^{2}}$ -->
      <g transform="translate(34.228357 195.869081) scale(0.12 -0.12)">
       <use xlink:href="#DejaVuSans-31" transform="translate(0 0.765625)"/>
       <use xlink:href="#DejaVuSans-30" transform="translate(63.623047 0.765625)"/>
       <use xlink:href="#DejaVuSans-32" transform="translate(128.203125 39.046875) scale(0.7)"/>
      </g>
     </g>
    </g>
    <g id="ytick_3">
     <g id="line2d_95">
      <g>
       <use xlink:href="#m087aa717f2" x="58.848357" y="148.258001" style="stroke: #000000; stroke-width: 1.5"/>
      </g>
     </g>
     <g id="line2d_96">
      <g>
       <use xlink:href="#m4b30a9ac56" x="421.2" y="148.258001" style="stroke: #000000; stroke-width: 1.5"/>
      </g>
     </g>
     <g id="text_16">
      <!-- $\mathdefault{10^{3}}$ -->
      <g transform="translate(34.228357 152.817064) scale(0.12 -0.12)">
       <use xlink:href="#DejaVuSans-31" transform="translate(0 0.765625)"/>
       <use xlink:href="#DejaVuSans-30" transform="translate(63.623047 0.765625)"/>
       <use xlink:href="#DejaVuSans-33" transform="translate(128.203125 39.046875) scale(0.7)"/>
      </g>
     </g>
    </g>
    <g id="ytick_4">
     <g id="line2d_97">
      <g>
       <use xlink:href="#m087aa717f2" x="58.848357" y="105.205984" style="stroke: #000000; stroke-width: 1.5"/>
      </g>
     </g>
     <g id="line2d_98">
      <g>
       <use xlink:href="#m4b30a9ac56" x="421.2" y="105.205984" style="stroke: #000000; stroke-width: 1.5"/>
      </g>
     </g>
     <g id="text_17">
      <!-- $\mathdefault{10^{4}}$ -->
      <g transform="translate(34.228357 109.765046) scale(0.12 -0.12)">
       <use xlink:href="#DejaVuSans-31" transform="translate(0 0.684375)"/>
       <use xlink:href="#DejaVuSans-30" transform="translate(63.623047 0.684375)"/>
       <use xlink:href="#DejaVuSans-34" transform="translate(128.203125 38.965625) scale(0.7)"/>
      </g>
     </g>
    </g>
    <g id="ytick_5">
     <g id="line2d_99">
      <g>
       <use xlink:href="#m087aa717f2" x="58.848357" y="62.153966" style="stroke: #000000; stroke-width: 1.5"/>
      </g>
     </g>
     <g id="line2d_100">
      <g>
       <use xlink:href="#m4b30a9ac56" x="421.2" y="62.153966" style="stroke: #000000; stroke-width: 1.5"/>
      </g>
     </g>
     <g id="text_18">
      <!-- $\mathdefault{10^{5}}$ -->
      <g transform="translate(34.228357 66.713029) scale(0.12 -0.12)">
       <use xlink:href="#DejaVuSans-31" transform="translate(0 0.684375)"/>
       <use xlink:href="#DejaVuSans-30" transform="translate(63.623047 0.684375)"/>
       <use xlink:href="#DejaVuSans-35" transform="translate(128.203125 38.965625) scale(0.7)"/>
      </g>
     </g>
    </g>
    <g id="ytick_6">
     <g id="line2d_101">
      <g>
       <use xlink:href="#m087aa717f2" x="58.848357" y="19.101949" style="stroke: #000000; stroke-width: 1.5"/>
      </g>
     </g>
     <g id="line2d_102">
      <g>
       <use xlink:href="#m4b30a9ac56" x="421.2" y="19.101949" style="stroke: #000000; stroke-width: 1.5"/>
      </g>
     </g>
     <g id="text_19">
      <!-- $\mathdefault{10^{6}}$ -->
      <g transform="translate(34.228357 23.661011) scale(0.12 -0.12)">
       <defs>
        <path id="DejaVuSans-36" d="M 2113 2584 
Q 1688 2584 1439 2293 
Q 1191 2003 1191 1497 
Q 1191 994 1439 701 
Q 1688 409 2113 409 
Q 2538 409 2786 701 
Q 3034 994 3034 1497 
Q 3034 2003 2786 2293 
Q 2538 2584 2113 2584 
z
M 3366 4563 
L 3366 3988 
Q 3128 4100 2886 4159 
Q 2644 4219 2406 4219 
Q 1781 4219 1451 3797 
Q 1122 3375 1075 2522 
Q 1259 2794 1537 2939 
Q 1816 3084 2150 3084 
Q 2853 3084 3261 2657 
Q 3669 2231 3669 1497 
Q 3669 778 3244 343 
Q 2819 -91 2113 -91 
Q 1303 -91 875 529 
Q 447 1150 447 2328 
Q 447 3434 972 4092 
Q 1497 4750 2381 4750 
Q 2619 4750 2861 4703 
Q 3103 4656 3366 4563 
z
" transform="scale(0.015625)"/>
       </defs>
       <use xlink:href="#DejaVuSans-31" transform="translate(0 0.765625)"/>
       <use xlink:href="#DejaVuSans-30" transform="translate(63.623047 0.765625)"/>
       <use xlink:href="#DejaVuSans-36" transform="translate(128.203125 39.046875) scale(0.7)"/>
      </g>
     </g>
    </g>
    <g id="ytick_7">
     <g id="line2d_103">
      <defs>
       <path id="mde1e960aec" d="M 0 0 
L 2 0 
" style="stroke: #000000; stroke-width: 1.5"/>
      </defs>
      <g>
       <use xlink:href="#mde1e960aec" x="58.848357" y="241.030878" style="stroke: #000000; stroke-width: 1.5"/>
      </g>
     </g>
     <g id="line2d_104">
      <defs>
       <path id="m9b956b3ffa" d="M 0 0 
L -2 0 
" style="stroke: #000000; stroke-width: 1.5"/>
      </defs>
      <g>
       <use xlink:href="#m9b956b3ffa" x="421.2" y="241.030878" style="stroke: #000000; stroke-width: 1.5"/>
      </g>
     </g>
    </g>
    <g id="ytick_8">
     <g id="line2d_105">
      <g>
       <use xlink:href="#mde1e960aec" x="58.848357" y="238.534208" style="stroke: #000000; stroke-width: 1.5"/>
      </g>
     </g>
     <g id="line2d_106">
      <g>
       <use xlink:href="#m9b956b3ffa" x="421.2" y="238.534208" style="stroke: #000000; stroke-width: 1.5"/>
      </g>
     </g>
    </g>
    <g id="ytick_9">
     <g id="line2d_107">
      <g>
       <use xlink:href="#mde1e960aec" x="58.848357" y="236.331989" style="stroke: #000000; stroke-width: 1.5"/>
      </g>
     </g>
     <g id="line2d_108">
      <g>
       <use xlink:href="#m9b956b3ffa" x="421.2" y="236.331989" style="stroke: #000000; stroke-width: 1.5"/>
      </g>
     </g>
    </g>
    <g id="ytick_10">
     <g id="line2d_109">
      <g>
       <use xlink:href="#mde1e960aec" x="58.848357" y="221.402088" style="stroke: #000000; stroke-width: 1.5"/>
      </g>
     </g>
     <g id="line2d_110">
      <g>
       <use xlink:href="#m9b956b3ffa" x="421.2" y="221.402088" style="stroke: #000000; stroke-width: 1.5"/>
      </g>
     </g>
    </g>
    <g id="ytick_11">
     <g id="line2d_111">
      <g>
       <use xlink:href="#mde1e960aec" x="58.848357" y="213.821004" style="stroke: #000000; stroke-width: 1.5"/>
      </g>
     </g>
     <g id="line2d_112">
      <g>
       <use xlink:href="#m9b956b3ffa" x="421.2" y="213.821004" style="stroke: #000000; stroke-width: 1.5"/>
      </g>
     </g>
    </g>
    <g id="ytick_12">
     <g id="line2d_113">
      <g>
       <use xlink:href="#mde1e960aec" x="58.848357" y="208.442139" style="stroke: #000000; stroke-width: 1.5"/>
      </g>
     </g>
     <g id="line2d_114">
      <g>
       <use xlink:href="#m9b956b3ffa" x="421.2" y="208.442139" style="stroke: #000000; stroke-width: 1.5"/>
      </g>
     </g>
    </g>
    <g id="ytick_13">
     <g id="line2d_115">
      <g>
       <use xlink:href="#mde1e960aec" x="58.848357" y="204.269967" style="stroke: #000000; stroke-width: 1.5"/>
      </g>
     </g>
     <g id="line2d_116">
      <g>
       <use xlink:href="#m9b956b3ffa" x="421.2" y="204.269967" style="stroke: #000000; stroke-width: 1.5"/>
      </g>
     </g>
    </g>
    <g id="ytick_14">
     <g id="line2d_117">
      <g>
       <use xlink:href="#mde1e960aec" x="58.848357" y="200.861055" style="stroke: #000000; stroke-width: 1.5"/>
      </g>
     </g>
     <g id="line2d_118">
      <g>
       <use xlink:href="#m9b956b3ffa" x="421.2" y="200.861055" style="stroke: #000000; stroke-width: 1.5"/>
      </g>
     </g>
    </g>
    <g id="ytick_15">
     <g id="line2d_119">
      <g>
       <use xlink:href="#mde1e960aec" x="58.848357" y="197.978861" style="stroke: #000000; stroke-width: 1.5"/>
      </g>
     </g>
     <g id="line2d_120">
      <g>
       <use xlink:href="#m9b956b3ffa" x="421.2" y="197.978861" style="stroke: #000000; stroke-width: 1.5"/>
      </g>
     </g>
    </g>
    <g id="ytick_16">
     <g id="line2d_121">
      <g>
       <use xlink:href="#mde1e960aec" x="58.848357" y="195.48219" style="stroke: #000000; stroke-width: 1.5"/>
      </g>
     </g>
     <g id="line2d_122">
      <g>
       <use xlink:href="#m9b956b3ffa" x="421.2" y="195.48219" style="stroke: #000000; stroke-width: 1.5"/>
      </g>
     </g>
    </g>
    <g id="ytick_17">
     <g id="line2d_123">
      <g>
       <use xlink:href="#mde1e960aec" x="58.848357" y="193.279971" style="stroke: #000000; stroke-width: 1.5"/>
      </g>
     </g>
     <g id="line2d_124">
      <g>
       <use xlink:href="#m9b956b3ffa" x="421.2" y="193.279971" style="stroke: #000000; stroke-width: 1.5"/>
      </g>
     </g>
    </g>
    <g id="ytick_18">
     <g id="line2d_125">
      <g>
       <use xlink:href="#mde1e960aec" x="58.848357" y="178.35007" style="stroke: #000000; stroke-width: 1.5"/>
      </g>
     </g>
     <g id="line2d_126">
      <g>
       <use xlink:href="#m9b956b3ffa" x="421.2" y="178.35007" style="stroke: #000000; stroke-width: 1.5"/>
      </g>
     </g>
    </g>
    <g id="ytick_19">
     <g id="line2d_127">
      <g>
       <use xlink:href="#mde1e960aec" x="58.848357" y="170.768986" style="stroke: #000000; stroke-width: 1.5"/>
      </g>
     </g>
     <g id="line2d_128">
      <g>
       <use xlink:href="#m9b956b3ffa" x="421.2" y="170.768986" style="stroke: #000000; stroke-width: 1.5"/>
      </g>
     </g>
    </g>
    <g id="ytick_20">
     <g id="line2d_129">
      <g>
       <use xlink:href="#mde1e960aec" x="58.848357" y="165.390122" style="stroke: #000000; stroke-width: 1.5"/>
      </g>
     </g>
     <g id="line2d_130">
      <g>
       <use xlink:href="#m9b956b3ffa" x="421.2" y="165.390122" style="stroke: #000000; stroke-width: 1.5"/>
      </g>
     </g>
    </g>
    <g id="ytick_21">
     <g id="line2d_131">
      <g>
       <use xlink:href="#mde1e960aec" x="58.848357" y="161.21795" style="stroke: #000000; stroke-width: 1.5"/>
      </g>
     </g>
     <g id="line2d_132">
      <g>
       <use xlink:href="#m9b956b3ffa" x="421.2" y="161.21795" style="stroke: #000000; stroke-width: 1.5"/>
      </g>
     </g>
    </g>
    <g id="ytick_22">
     <g id="line2d_133">
      <g>
       <use xlink:href="#mde1e960aec" x="58.848357" y="157.809038" style="stroke: #000000; stroke-width: 1.5"/>
      </g>
     </g>
     <g id="line2d_134">
      <g>
       <use xlink:href="#m9b956b3ffa" x="421.2" y="157.809038" style="stroke: #000000; stroke-width: 1.5"/>
      </g>
     </g>
    </g>
    <g id="ytick_23">
     <g id="line2d_135">
      <g>
       <use xlink:href="#mde1e960aec" x="58.848357" y="154.926843" style="stroke: #000000; stroke-width: 1.5"/>
      </g>
     </g>
     <g id="line2d_136">
      <g>
       <use xlink:href="#m9b956b3ffa" x="421.2" y="154.926843" style="stroke: #000000; stroke-width: 1.5"/>
      </g>
     </g>
    </g>
    <g id="ytick_24">
     <g id="line2d_137">
      <g>
       <use xlink:href="#mde1e960aec" x="58.848357" y="152.430173" style="stroke: #000000; stroke-width: 1.5"/>
      </g>
     </g>
     <g id="line2d_138">
      <g>
       <use xlink:href="#m9b956b3ffa" x="421.2" y="152.430173" style="stroke: #000000; stroke-width: 1.5"/>
      </g>
     </g>
    </g>
    <g id="ytick_25">
     <g id="line2d_139">
      <g>
       <use xlink:href="#mde1e960aec" x="58.848357" y="150.227954" style="stroke: #000000; stroke-width: 1.5"/>
      </g>
     </g>
     <g id="line2d_140">
      <g>
       <use xlink:href="#m9b956b3ffa" x="421.2" y="150.227954" style="stroke: #000000; stroke-width: 1.5"/>
      </g>
     </g>
    </g>
    <g id="ytick_26">
     <g id="line2d_141">
      <g>
       <use xlink:href="#mde1e960aec" x="58.848357" y="135.298053" style="stroke: #000000; stroke-width: 1.5"/>
      </g>
     </g>
     <g id="line2d_142">
      <g>
       <use xlink:href="#m9b956b3ffa" x="421.2" y="135.298053" style="stroke: #000000; stroke-width: 1.5"/>
      </g>
     </g>
    </g>
    <g id="ytick_27">
     <g id="line2d_143">
      <g>
       <use xlink:href="#mde1e960aec" x="58.848357" y="127.716969" style="stroke: #000000; stroke-width: 1.5"/>
      </g>
     </g>
     <g id="line2d_144">
      <g>
       <use xlink:href="#m9b956b3ffa" x="421.2" y="127.716969" style="stroke: #000000; stroke-width: 1.5"/>
      </g>
     </g>
    </g>
    <g id="ytick_28">
     <g id="line2d_145">
      <g>
       <use xlink:href="#mde1e960aec" x="58.848357" y="122.338104" style="stroke: #000000; stroke-width: 1.5"/>
      </g>
     </g>
     <g id="line2d_146">
      <g>
       <use xlink:href="#m9b956b3ffa" x="421.2" y="122.338104" style="stroke: #000000; stroke-width: 1.5"/>
      </g>
     </g>
    </g>
    <g id="ytick_29">
     <g id="line2d_147">
      <g>
       <use xlink:href="#mde1e960aec" x="58.848357" y="118.165932" style="stroke: #000000; stroke-width: 1.5"/>
      </g>
     </g>
     <g id="line2d_148">
      <g>
       <use xlink:href="#m9b956b3ffa" x="421.2" y="118.165932" style="stroke: #000000; stroke-width: 1.5"/>
      </g>
     </g>
    </g>
    <g id="ytick_30">
     <g id="line2d_149">
      <g>
       <use xlink:href="#mde1e960aec" x="58.848357" y="114.75702" style="stroke: #000000; stroke-width: 1.5"/>
      </g>
     </g>
     <g id="line2d_150">
      <g>
       <use xlink:href="#m9b956b3ffa" x="421.2" y="114.75702" style="stroke: #000000; stroke-width: 1.5"/>
      </g>
     </g>
    </g>
    <g id="ytick_31">
     <g id="line2d_151">
      <g>
       <use xlink:href="#mde1e960aec" x="58.848357" y="111.874826" style="stroke: #000000; stroke-width: 1.5"/>
      </g>
     </g>
     <g id="line2d_152">
      <g>
       <use xlink:href="#m9b956b3ffa" x="421.2" y="111.874826" style="stroke: #000000; stroke-width: 1.5"/>
      </g>
     </g>
    </g>
    <g id="ytick_32">
     <g id="line2d_153">
      <g>
       <use xlink:href="#mde1e960aec" x="58.848357" y="109.378155" style="stroke: #000000; stroke-width: 1.5"/>
      </g>
     </g>
     <g id="line2d_154">
      <g>
       <use xlink:href="#m9b956b3ffa" x="421.2" y="109.378155" style="stroke: #000000; stroke-width: 1.5"/>
      </g>
     </g>
    </g>
    <g id="ytick_33">
     <g id="line2d_155">
      <g>
       <use xlink:href="#mde1e960aec" x="58.848357" y="107.175936" style="stroke: #000000; stroke-width: 1.5"/>
      </g>
     </g>
     <g id="line2d_156">
      <g>
       <use xlink:href="#m9b956b3ffa" x="421.2" y="107.175936" style="stroke: #000000; stroke-width: 1.5"/>
      </g>
     </g>
    </g>
    <g id="ytick_34">
     <g id="line2d_157">
      <g>
       <use xlink:href="#mde1e960aec" x="58.848357" y="92.246035" style="stroke: #000000; stroke-width: 1.5"/>
      </g>
     </g>
     <g id="line2d_158">
      <g>
       <use xlink:href="#m9b956b3ffa" x="421.2" y="92.246035" style="stroke: #000000; stroke-width: 1.5"/>
      </g>
     </g>
    </g>
    <g id="ytick_35">
     <g id="line2d_159">
      <g>
       <use xlink:href="#mde1e960aec" x="58.848357" y="84.664951" style="stroke: #000000; stroke-width: 1.5"/>
      </g>
     </g>
     <g id="line2d_160">
      <g>
       <use xlink:href="#m9b956b3ffa" x="421.2" y="84.664951" style="stroke: #000000; stroke-width: 1.5"/>
      </g>
     </g>
    </g>
    <g id="ytick_36">
     <g id="line2d_161">
      <g>
       <use xlink:href="#mde1e960aec" x="58.848357" y="79.286087" style="stroke: #000000; stroke-width: 1.5"/>
      </g>
     </g>
     <g id="line2d_162">
      <g>
       <use xlink:href="#m9b956b3ffa" x="421.2" y="79.286087" style="stroke: #000000; stroke-width: 1.5"/>
      </g>
     </g>
    </g>
    <g id="ytick_37">
     <g id="line2d_163">
      <g>
       <use xlink:href="#mde1e960aec" x="58.848357" y="75.113915" style="stroke: #000000; stroke-width: 1.5"/>
      </g>
     </g>
     <g id="line2d_164">
      <g>
       <use xlink:href="#m9b956b3ffa" x="421.2" y="75.113915" style="stroke: #000000; stroke-width: 1.5"/>
      </g>
     </g>
    </g>
    <g id="ytick_38">
     <g id="line2d_165">
      <g>
       <use xlink:href="#mde1e960aec" x="58.848357" y="71.705003" style="stroke: #000000; stroke-width: 1.5"/>
      </g>
     </g>
     <g id="line2d_166">
      <g>
       <use xlink:href="#m9b956b3ffa" x="421.2" y="71.705003" style="stroke: #000000; stroke-width: 1.5"/>
      </g>
     </g>
    </g>
    <g id="ytick_39">
     <g id="line2d_167">
      <g>
       <use xlink:href="#mde1e960aec" x="58.848357" y="68.822808" style="stroke: #000000; stroke-width: 1.5"/>
      </g>
     </g>
     <g id="line2d_168">
      <g>
       <use xlink:href="#m9b956b3ffa" x="421.2" y="68.822808" style="stroke: #000000; stroke-width: 1.5"/>
      </g>
     </g>
    </g>
    <g id="ytick_40">
     <g id="line2d_169">
      <g>
       <use xlink:href="#mde1e960aec" x="58.848357" y="66.326138" style="stroke: #000000; stroke-width: 1.5"/>
      </g>
     </g>
     <g id="line2d_170">
      <g>
       <use xlink:href="#m9b956b3ffa" x="421.2" y="66.326138" style="stroke: #000000; stroke-width: 1.5"/>
      </g>
     </g>
    </g>
    <g id="ytick_41">
     <g id="line2d_171">
      <g>
       <use xlink:href="#mde1e960aec" x="58.848357" y="64.123919" style="stroke: #000000; stroke-width: 1.5"/>
      </g>
     </g>
     <g id="line2d_172">
      <g>
       <use xlink:href="#m9b956b3ffa" x="421.2" y="64.123919" style="stroke: #000000; stroke-width: 1.5"/>
      </g>
     </g>
    </g>
    <g id="ytick_42">
     <g id="line2d_173">
      <g>
       <use xlink:href="#mde1e960aec" x="58.848357" y="49.194018" style="stroke: #000000; stroke-width: 1.5"/>
      </g>
     </g>
     <g id="line2d_174">
      <g>
       <use xlink:href="#m9b956b3ffa" x="421.2" y="49.194018" style="stroke: #000000; stroke-width: 1.5"/>
      </g>
     </g>
    </g>
    <g id="ytick_43">
     <g id="line2d_175">
      <g>
       <use xlink:href="#mde1e960aec" x="58.848357" y="41.612934" style="stroke: #000000; stroke-width: 1.5"/>
      </g>
     </g>
     <g id="line2d_176">
      <g>
       <use xlink:href="#m9b956b3ffa" x="421.2" y="41.612934" style="stroke: #000000; stroke-width: 1.5"/>
      </g>
     </g>
    </g>
    <g id="ytick_44">
     <g id="line2d_177">
      <g>
       <use xlink:href="#mde1e960aec" x="58.848357" y="36.234069" style="stroke: #000000; stroke-width: 1.5"/>
      </g>
     </g>
     <g id="line2d_178">
      <g>
       <use xlink:href="#m9b956b3ffa" x="421.2" y="36.234069" style="stroke: #000000; stroke-width: 1.5"/>
      </g>
     </g>
    </g>
    <g id="ytick_45">
     <g id="line2d_179">
      <g>
       <use xlink:href="#mde1e960aec" x="58.848357" y="32.061898" style="stroke: #000000; stroke-width: 1.5"/>
      </g>
     </g>
     <g id="line2d_180">
      <g>
       <use xlink:href="#m9b956b3ffa" x="421.2" y="32.061898" style="stroke: #000000; stroke-width: 1.5"/>
      </g>
     </g>
    </g>
    <g id="ytick_46">
     <g id="line2d_181">
      <g>
       <use xlink:href="#mde1e960aec" x="58.848357" y="28.652985" style="stroke: #000000; stroke-width: 1.5"/>
      </g>
     </g>
     <g id="line2d_182">
      <g>
       <use xlink:href="#m9b956b3ffa" x="421.2" y="28.652985" style="stroke: #000000; stroke-width: 1.5"/>
      </g>
     </g>
    </g>
    <g id="ytick_47">
     <g id="line2d_183">
      <g>
       <use xlink:href="#mde1e960aec" x="58.848357" y="25.770791" style="stroke: #000000; stroke-width: 1.5"/>
      </g>
     </g>
     <g id="line2d_184">
      <g>
       <use xlink:href="#m9b956b3ffa" x="421.2" y="25.770791" style="stroke: #000000; stroke-width: 1.5"/>
      </g>
     </g>
    </g>
    <g id="ytick_48">
     <g id="line2d_185">
      <g>
       <use xlink:href="#mde1e960aec" x="58.848357" y="23.274121" style="stroke: #000000; stroke-width: 1.5"/>
      </g>
     </g>
     <g id="line2d_186">
      <g>
       <use xlink:href="#m9b956b3ffa" x="421.2" y="23.274121" style="stroke: #000000; stroke-width: 1.5"/>
      </g>
     </g>
    </g>
    <g id="ytick_49">
     <g id="line2d_187">
      <g>
       <use xlink:href="#mde1e960aec" x="58.848357" y="21.071901" style="stroke: #000000; stroke-width: 1.5"/>
      </g>
     </g>
     <g id="line2d_188">
      <g>
       <use xlink:href="#m9b956b3ffa" x="421.2" y="21.071901" style="stroke: #000000; stroke-width: 1.5"/>
      </g>
     </g>
    </g>
    <g id="text_20">
     <!-- $n_p$ [cm$^{-3}$] -->
     <g transform="translate(26.508357 155.262) rotate(-90) scale(0.12 -0.12)">
      <defs>
       <path id="DejaVuSans-Oblique-6e" d="M 3566 2113 
L 3156 0 
L 2578 0 
L 2988 2091 
Q 3016 2238 3031 2350 
Q 3047 2463 3047 2528 
Q 3047 2791 2881 2937 
Q 2716 3084 2419 3084 
Q 1956 3084 1622 2776 
Q 1288 2469 1184 1941 
L 800 0 
L 225 0 
L 903 3500 
L 1478 3500 
L 1363 2950 
Q 1603 3253 1940 3418 
Q 2278 3584 2650 3584 
Q 3113 3584 3367 3334 
Q 3622 3084 3622 2631 
Q 3622 2519 3608 2391 
Q 3594 2263 3566 2113 
z
" transform="scale(0.015625)"/>
       <path id="DejaVuSans-Oblique-70" d="M 3175 2156 
Q 3175 2616 2975 2859 
Q 2775 3103 2400 3103 
Q 2144 3103 1911 2972 
Q 1678 2841 1497 2591 
Q 1319 2344 1212 1994 
Q 1106 1644 1106 1300 
Q 1106 863 1306 627 
Q 1506 391 1875 391 
Q 2147 391 2380 519 
Q 2613 647 2778 891 
Q 2956 1147 3065 1494 
Q 3175 1841 3175 2156 
z
M 1394 2969 
Q 1625 3272 1939 3428 
Q 2253 3584 2638 3584 
Q 3175 3584 3472 3232 
Q 3769 2881 3769 2247 
Q 3769 1728 3584 1258 
Q 3400 788 3053 416 
Q 2822 169 2531 39 
Q 2241 -91 1919 -91 
Q 1547 -91 1294 64 
Q 1041 219 916 525 
L 556 -1331 
L -19 -1331 
L 922 3500 
L 1497 3500 
L 1394 2969 
z
" transform="scale(0.015625)"/>
       <path id="DejaVuSans-6d" d="M 3328 2828 
Q 3544 3216 3844 3400 
Q 4144 3584 4550 3584 
Q 5097 3584 5394 3201 
Q 5691 2819 5691 2113 
L 5691 0 
L 5113 0 
L 5113 2094 
Q 5113 2597 4934 2840 
Q 4756 3084 4391 3084 
Q 3944 3084 3684 2787 
Q 3425 2491 3425 1978 
L 3425 0 
L 2847 0 
L 2847 2094 
Q 2847 2600 2669 2842 
Q 2491 3084 2119 3084 
Q 1678 3084 1418 2786 
Q 1159 2488 1159 1978 
L 1159 0 
L 581 0 
L 581 3500 
L 1159 3500 
L 1159 2956 
Q 1356 3278 1631 3431 
Q 1906 3584 2284 3584 
Q 2666 3584 2933 3390 
Q 3200 3197 3328 2828 
z
" transform="scale(0.015625)"/>
       <path id="DejaVuSans-2212" d="M 678 2272 
L 4684 2272 
L 4684 1741 
L 678 1741 
L 678 2272 
z
" transform="scale(0.015625)"/>
      </defs>
      <use xlink:href="#DejaVuSans-Oblique-6e" transform="translate(0 0.765625)"/>
      <use xlink:href="#DejaVuSans-Oblique-70" transform="translate(63.378906 -15.640625) scale(0.7)"/>
      <use xlink:href="#DejaVuSans-20" transform="translate(110.546875 0.765625)"/>
      <use xlink:href="#DejaVuSans-5b" transform="translate(142.333984 0.765625)"/>
      <use xlink:href="#DejaVuSans-63" transform="translate(181.347656 0.765625)"/>
      <use xlink:href="#DejaVuSans-6d" transform="translate(236.328125 0.765625)"/>
      <use xlink:href="#DejaVuSans-2212" transform="translate(334.697266 39.046875) scale(0.7)"/>
      <use xlink:href="#DejaVuSans-33" transform="translate(393.349609 39.046875) scale(0.7)"/>
      <use xlink:href="#DejaVuSans-5d" transform="translate(440.620117 0.765625)"/>
     </g>
    </g>
   </g>
  </g>
 </g>
 <defs>
  <clipPath id="pe720eda69e">
   <rect x="58.848357" y="10.8" width="362.351643" height="231.324"/>
  </clipPath>
 </defs>
</svg>
