<?xml version="1.0" encoding="utf-8" standalone="no"?>
<!DOCTYPE svg PUBLIC "-//W3C//DTD SVG 1.1//EN"
  "http://www.w3.org/Graphics/SVG/1.1/DTD/svg11.dtd">
<svg xmlns:xlink="http://www.w3.org/1999/xlink" width="432pt" height="288pt" viewBox="0 0 432 288" xmlns="http://www.w3.org/2000/svg" version="1.1">
 <metadata>
  <rdf:RDF xmlns:dc="http://purl.org/dc/elements/1.1/" xmlns:cc="http://creativecommons.org/ns#" xmlns:rdf="http://www.w3.org/1999/02/22-rdf-syntax-ns#">
   <cc:Work>
    <dc:type rdf:resource="http://purl.org/dc/dcmitype/StillImage"/>
    <dc:date>2022-11-07T20:37:45.801184</dc:date>
    <dc:format>image/svg+xml</dc:format>
    <dc:creator>
     <cc:Agent>
      <dc:title>Matplotlib v3.6.1, https://matplotlib.org/</dc:title>
     </cc:Agent>
    </dc:creator>
   </cc:Work>
  </rdf:RDF>
 </metadata>
 <defs>
  <style type="text/css">*{stroke-linejoin: round; stroke-linecap: butt}</style>
 </defs>
 <g id="figure_1">
  <g id="patch_1">
   <path d="M 0 288 
L 432 288 
L 432 0 
L 0 0 
z
" style="fill: #ffffff"/>
  </g>
  <g id="axes_1">
   <g id="patch_2">
    <path d="M 67.327768 242.124 
L 417.760168 242.124 
L 417.760168 10.8 
L 67.327768 10.8 
z
" style="fill: #ffffff"/>
   </g>
   <g id="matplotlib.axis_1">
    <g id="xtick_1">
     <g id="line2d_1">
      <defs>
       <path id="mcfc9387d84" d="M 0 0 
L 0 -3.5 
" style="stroke: #000000; stroke-width: 1.5"/>
      </defs>
      <g>
       <use xlink:href="#mcfc9387d84" x="76.12516" y="242.124" style="stroke: #000000; stroke-width: 1.5"/>
      </g>
     </g>
     <g id="line2d_2">
      <defs>
       <path id="m692e954569" d="M 0 0 
L 0 3.5 
" style="stroke: #000000; stroke-width: 1.5"/>
      </defs>
      <g>
       <use xlink:href="#m692e954569" x="76.12516" y="10.8" style="stroke: #000000; stroke-width: 1.5"/>
      </g>
     </g>
     <g id="text_1">
      <!-- 0 -->
      <g transform="translate(72.30766 254.742125) scale(0.12 -0.12)">
       <defs>
        <path id="DejaVuSans-30" d="M 2034 4250 
Q 1547 4250 1301 3770 
Q 1056 3291 1056 2328 
Q 1056 1369 1301 889 
Q 1547 409 2034 409 
Q 2525 409 2770 889 
Q 3016 1369 3016 2328 
Q 3016 3291 2770 3770 
Q 2525 4250 2034 4250 
z
M 2034 4750 
Q 2819 4750 3233 4129 
Q 3647 3509 3647 2328 
Q 3647 1150 3233 529 
Q 2819 -91 2034 -91 
Q 1250 -91 836 529 
Q 422 1150 422 2328 
Q 422 3509 836 4129 
Q 1250 4750 2034 4750 
z
" transform="scale(0.015625)"/>
       </defs>
       <use xlink:href="#DejaVuSans-30"/>
      </g>
     </g>
    </g>
    <g id="xtick_2">
     <g id="line2d_3">
      <g>
       <use xlink:href="#mcfc9387d84" x="132.34557" y="242.124" style="stroke: #000000; stroke-width: 1.5"/>
      </g>
     </g>
     <g id="line2d_4">
      <g>
       <use xlink:href="#m692e954569" x="132.34557" y="10.8" style="stroke: #000000; stroke-width: 1.5"/>
      </g>
     </g>
     <g id="text_2">
      <!-- 10 -->
      <g transform="translate(124.71057 254.742125) scale(0.12 -0.12)">
       <defs>
        <path id="DejaVuSans-31" d="M 794 531 
L 1825 531 
L 1825 4091 
L 703 3866 
L 703 4441 
L 1819 4666 
L 2450 4666 
L 2450 531 
L 3481 531 
L 3481 0 
L 794 0 
L 794 531 
z
" transform="scale(0.015625)"/>
       </defs>
       <use xlink:href="#DejaVuSans-31"/>
       <use xlink:href="#DejaVuSans-30" x="63.623047"/>
      </g>
     </g>
    </g>
    <g id="xtick_3">
     <g id="line2d_5">
      <g>
       <use xlink:href="#mcfc9387d84" x="188.565981" y="242.124" style="stroke: #000000; stroke-width: 1.5"/>
      </g>
     </g>
     <g id="line2d_6">
      <g>
       <use xlink:href="#m692e954569" x="188.565981" y="10.8" style="stroke: #000000; stroke-width: 1.5"/>
      </g>
     </g>
     <g id="text_3">
      <!-- 20 -->
      <g transform="translate(180.930981 254.742125) scale(0.12 -0.12)">
       <defs>
        <path id="DejaVuSans-32" d="M 1228 531 
L 3431 531 
L 3431 0 
L 469 0 
L 469 531 
Q 828 903 1448 1529 
Q 2069 2156 2228 2338 
Q 2531 2678 2651 2914 
Q 2772 3150 2772 3378 
Q 2772 3750 2511 3984 
Q 2250 4219 1831 4219 
Q 1534 4219 1204 4116 
Q 875 4013 500 3803 
L 500 4441 
Q 881 4594 1212 4672 
Q 1544 4750 1819 4750 
Q 2544 4750 2975 4387 
Q 3406 4025 3406 3419 
Q 3406 3131 3298 2873 
Q 3191 2616 2906 2266 
Q 2828 2175 2409 1742 
Q 1991 1309 1228 531 
z
" transform="scale(0.015625)"/>
       </defs>
       <use xlink:href="#DejaVuSans-32"/>
       <use xlink:href="#DejaVuSans-30" x="63.623047"/>
      </g>
     </g>
    </g>
    <g id="xtick_4">
     <g id="line2d_7">
      <g>
       <use xlink:href="#mcfc9387d84" x="244.786391" y="242.124" style="stroke: #000000; stroke-width: 1.5"/>
      </g>
     </g>
     <g id="line2d_8">
      <g>
       <use xlink:href="#m692e954569" x="244.786391" y="10.8" style="stroke: #000000; stroke-width: 1.5"/>
      </g>
     </g>
     <g id="text_4">
      <!-- 30 -->
      <g transform="translate(237.151391 254.742125) scale(0.12 -0.12)">
       <defs>
        <path id="DejaVuSans-33" d="M 2597 2516 
Q 3050 2419 3304 2112 
Q 3559 1806 3559 1356 
Q 3559 666 3084 287 
Q 2609 -91 1734 -91 
Q 1441 -91 1130 -33 
Q 819 25 488 141 
L 488 750 
Q 750 597 1062 519 
Q 1375 441 1716 441 
Q 2309 441 2620 675 
Q 2931 909 2931 1356 
Q 2931 1769 2642 2001 
Q 2353 2234 1838 2234 
L 1294 2234 
L 1294 2753 
L 1863 2753 
Q 2328 2753 2575 2939 
Q 2822 3125 2822 3475 
Q 2822 3834 2567 4026 
Q 2313 4219 1838 4219 
Q 1578 4219 1281 4162 
Q 984 4106 628 3988 
L 628 4550 
Q 988 4650 1302 4700 
Q 1616 4750 1894 4750 
Q 2613 4750 3031 4423 
Q 3450 4097 3450 3541 
Q 3450 3153 3228 2886 
Q 3006 2619 2597 2516 
z
" transform="scale(0.015625)"/>
       </defs>
       <use xlink:href="#DejaVuSans-33"/>
       <use xlink:href="#DejaVuSans-30" x="63.623047"/>
      </g>
     </g>
    </g>
    <g id="xtick_5">
     <g id="line2d_9">
      <g>
       <use xlink:href="#mcfc9387d84" x="301.006801" y="242.124" style="stroke: #000000; stroke-width: 1.5"/>
      </g>
     </g>
     <g id="line2d_10">
      <g>
       <use xlink:href="#m692e954569" x="301.006801" y="10.8" style="stroke: #000000; stroke-width: 1.5"/>
      </g>
     </g>
     <g id="text_5">
      <!-- 40 -->
      <g transform="translate(293.371801 254.742125) scale(0.12 -0.12)">
       <defs>
        <path id="DejaVuSans-34" d="M 2419 4116 
L 825 1625 
L 2419 1625 
L 2419 4116 
z
M 2253 4666 
L 3047 4666 
L 3047 1625 
L 3713 1625 
L 3713 1100 
L 3047 1100 
L 3047 0 
L 2419 0 
L 2419 1100 
L 313 1100 
L 313 1709 
L 2253 4666 
z
" transform="scale(0.015625)"/>
       </defs>
       <use xlink:href="#DejaVuSans-34"/>
       <use xlink:href="#DejaVuSans-30" x="63.623047"/>
      </g>
     </g>
    </g>
    <g id="xtick_6">
     <g id="line2d_11">
      <g>
       <use xlink:href="#mcfc9387d84" x="357.227212" y="242.124" style="stroke: #000000; stroke-width: 1.5"/>
      </g>
     </g>
     <g id="line2d_12">
      <g>
       <use xlink:href="#m692e954569" x="357.227212" y="10.8" style="stroke: #000000; stroke-width: 1.5"/>
      </g>
     </g>
     <g id="text_6">
      <!-- 50 -->
      <g transform="translate(349.592212 254.742125) scale(0.12 -0.12)">
       <defs>
        <path id="DejaVuSans-35" d="M 691 4666 
L 3169 4666 
L 3169 4134 
L 1269 4134 
L 1269 2991 
Q 1406 3038 1543 3061 
Q 1681 3084 1819 3084 
Q 2600 3084 3056 2656 
Q 3513 2228 3513 1497 
Q 3513 744 3044 326 
Q 2575 -91 1722 -91 
Q 1428 -91 1123 -41 
Q 819 9 494 109 
L 494 744 
Q 775 591 1075 516 
Q 1375 441 1709 441 
Q 2250 441 2565 725 
Q 2881 1009 2881 1497 
Q 2881 1984 2565 2268 
Q 2250 2553 1709 2553 
Q 1456 2553 1204 2497 
Q 953 2441 691 2322 
L 691 4666 
z
" transform="scale(0.015625)"/>
       </defs>
       <use xlink:href="#DejaVuSans-35"/>
       <use xlink:href="#DejaVuSans-30" x="63.623047"/>
      </g>
     </g>
    </g>
    <g id="xtick_7">
     <g id="line2d_13">
      <g>
       <use xlink:href="#mcfc9387d84" x="413.447622" y="242.124" style="stroke: #000000; stroke-width: 1.5"/>
      </g>
     </g>
     <g id="line2d_14">
      <g>
       <use xlink:href="#m692e954569" x="413.447622" y="10.8" style="stroke: #000000; stroke-width: 1.5"/>
      </g>
     </g>
     <g id="text_7">
      <!-- 60 -->
      <g transform="translate(405.812622 254.742125) scale(0.12 -0.12)">
       <defs>
        <path id="DejaVuSans-36" d="M 2113 2584 
Q 1688 2584 1439 2293 
Q 1191 2003 1191 1497 
Q 1191 994 1439 701 
Q 1688 409 2113 409 
Q 2538 409 2786 701 
Q 3034 994 3034 1497 
Q 3034 2003 2786 2293 
Q 2538 2584 2113 2584 
z
M 3366 4563 
L 3366 3988 
Q 3128 4100 2886 4159 
Q 2644 4219 2406 4219 
Q 1781 4219 1451 3797 
Q 1122 3375 1075 2522 
Q 1259 2794 1537 2939 
Q 1816 3084 2150 3084 
Q 2853 3084 3261 2657 
Q 3669 2231 3669 1497 
Q 3669 778 3244 343 
Q 2819 -91 2113 -91 
Q 1303 -91 875 529 
Q 447 1150 447 2328 
Q 447 3434 972 4092 
Q 1497 4750 2381 4750 
Q 2619 4750 2861 4703 
Q 3103 4656 3366 4563 
z
" transform="scale(0.015625)"/>
       </defs>
       <use xlink:href="#DejaVuSans-36"/>
       <use xlink:href="#DejaVuSans-30" x="63.623047"/>
      </g>
     </g>
    </g>
    <g id="xtick_8">
     <g id="line2d_15">
      <defs>
       <path id="mc272991312" d="M 0 0 
L 0 -2 
" style="stroke: #000000; stroke-width: 1.5"/>
      </defs>
      <g>
       <use xlink:href="#mc272991312" x="87.369242" y="242.124" style="stroke: #000000; stroke-width: 1.5"/>
      </g>
     </g>
     <g id="line2d_16">
      <defs>
       <path id="mc32be407ef" d="M 0 0 
L 0 2 
" style="stroke: #000000; stroke-width: 1.5"/>
      </defs>
      <g>
       <use xlink:href="#mc32be407ef" x="87.369242" y="10.8" style="stroke: #000000; stroke-width: 1.5"/>
      </g>
     </g>
    </g>
    <g id="xtick_9">
     <g id="line2d_17">
      <g>
       <use xlink:href="#mc272991312" x="98.613324" y="242.124" style="stroke: #000000; stroke-width: 1.5"/>
      </g>
     </g>
     <g id="line2d_18">
      <g>
       <use xlink:href="#mc32be407ef" x="98.613324" y="10.8" style="stroke: #000000; stroke-width: 1.5"/>
      </g>
     </g>
    </g>
    <g id="xtick_10">
     <g id="line2d_19">
      <g>
       <use xlink:href="#mc272991312" x="109.857406" y="242.124" style="stroke: #000000; stroke-width: 1.5"/>
      </g>
     </g>
     <g id="line2d_20">
      <g>
       <use xlink:href="#mc32be407ef" x="109.857406" y="10.8" style="stroke: #000000; stroke-width: 1.5"/>
      </g>
     </g>
    </g>
    <g id="xtick_11">
     <g id="line2d_21">
      <g>
       <use xlink:href="#mc272991312" x="121.101488" y="242.124" style="stroke: #000000; stroke-width: 1.5"/>
      </g>
     </g>
     <g id="line2d_22">
      <g>
       <use xlink:href="#mc32be407ef" x="121.101488" y="10.8" style="stroke: #000000; stroke-width: 1.5"/>
      </g>
     </g>
    </g>
    <g id="xtick_12">
     <g id="line2d_23">
      <g>
       <use xlink:href="#mc272991312" x="143.589653" y="242.124" style="stroke: #000000; stroke-width: 1.5"/>
      </g>
     </g>
     <g id="line2d_24">
      <g>
       <use xlink:href="#mc32be407ef" x="143.589653" y="10.8" style="stroke: #000000; stroke-width: 1.5"/>
      </g>
     </g>
    </g>
    <g id="xtick_13">
     <g id="line2d_25">
      <g>
       <use xlink:href="#mc272991312" x="154.833735" y="242.124" style="stroke: #000000; stroke-width: 1.5"/>
      </g>
     </g>
     <g id="line2d_26">
      <g>
       <use xlink:href="#mc32be407ef" x="154.833735" y="10.8" style="stroke: #000000; stroke-width: 1.5"/>
      </g>
     </g>
    </g>
    <g id="xtick_14">
     <g id="line2d_27">
      <g>
       <use xlink:href="#mc272991312" x="166.077817" y="242.124" style="stroke: #000000; stroke-width: 1.5"/>
      </g>
     </g>
     <g id="line2d_28">
      <g>
       <use xlink:href="#mc32be407ef" x="166.077817" y="10.8" style="stroke: #000000; stroke-width: 1.5"/>
      </g>
     </g>
    </g>
    <g id="xtick_15">
     <g id="line2d_29">
      <g>
       <use xlink:href="#mc272991312" x="177.321899" y="242.124" style="stroke: #000000; stroke-width: 1.5"/>
      </g>
     </g>
     <g id="line2d_30">
      <g>
       <use xlink:href="#mc32be407ef" x="177.321899" y="10.8" style="stroke: #000000; stroke-width: 1.5"/>
      </g>
     </g>
    </g>
    <g id="xtick_16">
     <g id="line2d_31">
      <g>
       <use xlink:href="#mc272991312" x="199.810063" y="242.124" style="stroke: #000000; stroke-width: 1.5"/>
      </g>
     </g>
     <g id="line2d_32">
      <g>
       <use xlink:href="#mc32be407ef" x="199.810063" y="10.8" style="stroke: #000000; stroke-width: 1.5"/>
      </g>
     </g>
    </g>
    <g id="xtick_17">
     <g id="line2d_33">
      <g>
       <use xlink:href="#mc272991312" x="211.054145" y="242.124" style="stroke: #000000; stroke-width: 1.5"/>
      </g>
     </g>
     <g id="line2d_34">
      <g>
       <use xlink:href="#mc32be407ef" x="211.054145" y="10.8" style="stroke: #000000; stroke-width: 1.5"/>
      </g>
     </g>
    </g>
    <g id="xtick_18">
     <g id="line2d_35">
      <g>
       <use xlink:href="#mc272991312" x="222.298227" y="242.124" style="stroke: #000000; stroke-width: 1.5"/>
      </g>
     </g>
     <g id="line2d_36">
      <g>
       <use xlink:href="#mc32be407ef" x="222.298227" y="10.8" style="stroke: #000000; stroke-width: 1.5"/>
      </g>
     </g>
    </g>
    <g id="xtick_19">
     <g id="line2d_37">
      <g>
       <use xlink:href="#mc272991312" x="233.542309" y="242.124" style="stroke: #000000; stroke-width: 1.5"/>
      </g>
     </g>
     <g id="line2d_38">
      <g>
       <use xlink:href="#mc32be407ef" x="233.542309" y="10.8" style="stroke: #000000; stroke-width: 1.5"/>
      </g>
     </g>
    </g>
    <g id="xtick_20">
     <g id="line2d_39">
      <g>
       <use xlink:href="#mc272991312" x="256.030473" y="242.124" style="stroke: #000000; stroke-width: 1.5"/>
      </g>
     </g>
     <g id="line2d_40">
      <g>
       <use xlink:href="#mc32be407ef" x="256.030473" y="10.8" style="stroke: #000000; stroke-width: 1.5"/>
      </g>
     </g>
    </g>
    <g id="xtick_21">
     <g id="line2d_41">
      <g>
       <use xlink:href="#mc272991312" x="267.274555" y="242.124" style="stroke: #000000; stroke-width: 1.5"/>
      </g>
     </g>
     <g id="line2d_42">
      <g>
       <use xlink:href="#mc32be407ef" x="267.274555" y="10.8" style="stroke: #000000; stroke-width: 1.5"/>
      </g>
     </g>
    </g>
    <g id="xtick_22">
     <g id="line2d_43">
      <g>
       <use xlink:href="#mc272991312" x="278.518637" y="242.124" style="stroke: #000000; stroke-width: 1.5"/>
      </g>
     </g>
     <g id="line2d_44">
      <g>
       <use xlink:href="#mc32be407ef" x="278.518637" y="10.8" style="stroke: #000000; stroke-width: 1.5"/>
      </g>
     </g>
    </g>
    <g id="xtick_23">
     <g id="line2d_45">
      <g>
       <use xlink:href="#mc272991312" x="289.762719" y="242.124" style="stroke: #000000; stroke-width: 1.5"/>
      </g>
     </g>
     <g id="line2d_46">
      <g>
       <use xlink:href="#mc32be407ef" x="289.762719" y="10.8" style="stroke: #000000; stroke-width: 1.5"/>
      </g>
     </g>
    </g>
    <g id="xtick_24">
     <g id="line2d_47">
      <g>
       <use xlink:href="#mc272991312" x="312.250884" y="242.124" style="stroke: #000000; stroke-width: 1.5"/>
      </g>
     </g>
     <g id="line2d_48">
      <g>
       <use xlink:href="#mc32be407ef" x="312.250884" y="10.8" style="stroke: #000000; stroke-width: 1.5"/>
      </g>
     </g>
    </g>
    <g id="xtick_25">
     <g id="line2d_49">
      <g>
       <use xlink:href="#mc272991312" x="323.494966" y="242.124" style="stroke: #000000; stroke-width: 1.5"/>
      </g>
     </g>
     <g id="line2d_50">
      <g>
       <use xlink:href="#mc32be407ef" x="323.494966" y="10.8" style="stroke: #000000; stroke-width: 1.5"/>
      </g>
     </g>
    </g>
    <g id="xtick_26">
     <g id="line2d_51">
      <g>
       <use xlink:href="#mc272991312" x="334.739048" y="242.124" style="stroke: #000000; stroke-width: 1.5"/>
      </g>
     </g>
     <g id="line2d_52">
      <g>
       <use xlink:href="#mc32be407ef" x="334.739048" y="10.8" style="stroke: #000000; stroke-width: 1.5"/>
      </g>
     </g>
    </g>
    <g id="xtick_27">
     <g id="line2d_53">
      <g>
       <use xlink:href="#mc272991312" x="345.98313" y="242.124" style="stroke: #000000; stroke-width: 1.5"/>
      </g>
     </g>
     <g id="line2d_54">
      <g>
       <use xlink:href="#mc32be407ef" x="345.98313" y="10.8" style="stroke: #000000; stroke-width: 1.5"/>
      </g>
     </g>
    </g>
    <g id="xtick_28">
     <g id="line2d_55">
      <g>
       <use xlink:href="#mc272991312" x="368.471294" y="242.124" style="stroke: #000000; stroke-width: 1.5"/>
      </g>
     </g>
     <g id="line2d_56">
      <g>
       <use xlink:href="#mc32be407ef" x="368.471294" y="10.8" style="stroke: #000000; stroke-width: 1.5"/>
      </g>
     </g>
    </g>
    <g id="xtick_29">
     <g id="line2d_57">
      <g>
       <use xlink:href="#mc272991312" x="379.715376" y="242.124" style="stroke: #000000; stroke-width: 1.5"/>
      </g>
     </g>
     <g id="line2d_58">
      <g>
       <use xlink:href="#mc32be407ef" x="379.715376" y="10.8" style="stroke: #000000; stroke-width: 1.5"/>
      </g>
     </g>
    </g>
    <g id="xtick_30">
     <g id="line2d_59">
      <g>
       <use xlink:href="#mc272991312" x="390.959458" y="242.124" style="stroke: #000000; stroke-width: 1.5"/>
      </g>
     </g>
     <g id="line2d_60">
      <g>
       <use xlink:href="#mc32be407ef" x="390.959458" y="10.8" style="stroke: #000000; stroke-width: 1.5"/>
      </g>
     </g>
    </g>
    <g id="xtick_31">
     <g id="line2d_61">
      <g>
       <use xlink:href="#mc272991312" x="402.20354" y="242.124" style="stroke: #000000; stroke-width: 1.5"/>
      </g>
     </g>
     <g id="line2d_62">
      <g>
       <use xlink:href="#mc32be407ef" x="402.20354" y="10.8" style="stroke: #000000; stroke-width: 1.5"/>
      </g>
     </g>
    </g>
    <g id="text_8">
     <!-- Distance [R$_\odot$] -->
     <g transform="translate(200.303968 270.355875) scale(0.12 -0.12)">
      <defs>
       <path id="DejaVuSans-44" d="M 1259 4147 
L 1259 519 
L 2022 519 
Q 2988 519 3436 956 
Q 3884 1394 3884 2338 
Q 3884 3275 3436 3711 
Q 2988 4147 2022 4147 
L 1259 4147 
z
M 628 4666 
L 1925 4666 
Q 3281 4666 3915 4102 
Q 4550 3538 4550 2338 
Q 4550 1131 3912 565 
Q 3275 0 1925 0 
L 628 0 
L 628 4666 
z
" transform="scale(0.015625)"/>
       <path id="DejaVuSans-69" d="M 603 3500 
L 1178 3500 
L 1178 0 
L 603 0 
L 603 3500 
z
M 603 4863 
L 1178 4863 
L 1178 4134 
L 603 4134 
L 603 4863 
z
" transform="scale(0.015625)"/>
       <path id="DejaVuSans-73" d="M 2834 3397 
L 2834 2853 
Q 2591 2978 2328 3040 
Q 2066 3103 1784 3103 
Q 1356 3103 1142 2972 
Q 928 2841 928 2578 
Q 928 2378 1081 2264 
Q 1234 2150 1697 2047 
L 1894 2003 
Q 2506 1872 2764 1633 
Q 3022 1394 3022 966 
Q 3022 478 2636 193 
Q 2250 -91 1575 -91 
Q 1294 -91 989 -36 
Q 684 19 347 128 
L 347 722 
Q 666 556 975 473 
Q 1284 391 1588 391 
Q 1994 391 2212 530 
Q 2431 669 2431 922 
Q 2431 1156 2273 1281 
Q 2116 1406 1581 1522 
L 1381 1569 
Q 847 1681 609 1914 
Q 372 2147 372 2553 
Q 372 3047 722 3315 
Q 1072 3584 1716 3584 
Q 2034 3584 2315 3537 
Q 2597 3491 2834 3397 
z
" transform="scale(0.015625)"/>
       <path id="DejaVuSans-74" d="M 1172 4494 
L 1172 3500 
L 2356 3500 
L 2356 3053 
L 1172 3053 
L 1172 1153 
Q 1172 725 1289 603 
Q 1406 481 1766 481 
L 2356 481 
L 2356 0 
L 1766 0 
Q 1100 0 847 248 
Q 594 497 594 1153 
L 594 3053 
L 172 3053 
L 172 3500 
L 594 3500 
L 594 4494 
L 1172 4494 
z
" transform="scale(0.015625)"/>
       <path id="DejaVuSans-61" d="M 2194 1759 
Q 1497 1759 1228 1600 
Q 959 1441 959 1056 
Q 959 750 1161 570 
Q 1363 391 1709 391 
Q 2188 391 2477 730 
Q 2766 1069 2766 1631 
L 2766 1759 
L 2194 1759 
z
M 3341 1997 
L 3341 0 
L 2766 0 
L 2766 531 
Q 2569 213 2275 61 
Q 1981 -91 1556 -91 
Q 1019 -91 701 211 
Q 384 513 384 1019 
Q 384 1609 779 1909 
Q 1175 2209 1959 2209 
L 2766 2209 
L 2766 2266 
Q 2766 2663 2505 2880 
Q 2244 3097 1772 3097 
Q 1472 3097 1187 3025 
Q 903 2953 641 2809 
L 641 3341 
Q 956 3463 1253 3523 
Q 1550 3584 1831 3584 
Q 2591 3584 2966 3190 
Q 3341 2797 3341 1997 
z
" transform="scale(0.015625)"/>
       <path id="DejaVuSans-6e" d="M 3513 2113 
L 3513 0 
L 2938 0 
L 2938 2094 
Q 2938 2591 2744 2837 
Q 2550 3084 2163 3084 
Q 1697 3084 1428 2787 
Q 1159 2491 1159 1978 
L 1159 0 
L 581 0 
L 581 3500 
L 1159 3500 
L 1159 2956 
Q 1366 3272 1645 3428 
Q 1925 3584 2291 3584 
Q 2894 3584 3203 3211 
Q 3513 2838 3513 2113 
z
" transform="scale(0.015625)"/>
       <path id="DejaVuSans-63" d="M 3122 3366 
L 3122 2828 
Q 2878 2963 2633 3030 
Q 2388 3097 2138 3097 
Q 1578 3097 1268 2742 
Q 959 2388 959 1747 
Q 959 1106 1268 751 
Q 1578 397 2138 397 
Q 2388 397 2633 464 
Q 2878 531 3122 666 
L 3122 134 
Q 2881 22 2623 -34 
Q 2366 -91 2075 -91 
Q 1284 -91 818 406 
Q 353 903 353 1747 
Q 353 2603 823 3093 
Q 1294 3584 2113 3584 
Q 2378 3584 2631 3529 
Q 2884 3475 3122 3366 
z
" transform="scale(0.015625)"/>
       <path id="DejaVuSans-65" d="M 3597 1894 
L 3597 1613 
L 953 1613 
Q 991 1019 1311 708 
Q 1631 397 2203 397 
Q 2534 397 2845 478 
Q 3156 559 3463 722 
L 3463 178 
Q 3153 47 2828 -22 
Q 2503 -91 2169 -91 
Q 1331 -91 842 396 
Q 353 884 353 1716 
Q 353 2575 817 3079 
Q 1281 3584 2069 3584 
Q 2775 3584 3186 3129 
Q 3597 2675 3597 1894 
z
M 3022 2063 
Q 3016 2534 2758 2815 
Q 2500 3097 2075 3097 
Q 1594 3097 1305 2825 
Q 1016 2553 972 2059 
L 3022 2063 
z
" transform="scale(0.015625)"/>
       <path id="DejaVuSans-20" transform="scale(0.015625)"/>
       <path id="DejaVuSans-5b" d="M 550 4863 
L 1875 4863 
L 1875 4416 
L 1125 4416 
L 1125 -397 
L 1875 -397 
L 1875 -844 
L 550 -844 
L 550 4863 
z
" transform="scale(0.015625)"/>
       <path id="DejaVuSans-52" d="M 2841 2188 
Q 3044 2119 3236 1894 
Q 3428 1669 3622 1275 
L 4263 0 
L 3584 0 
L 2988 1197 
Q 2756 1666 2539 1819 
Q 2322 1972 1947 1972 
L 1259 1972 
L 1259 0 
L 628 0 
L 628 4666 
L 2053 4666 
Q 2853 4666 3247 4331 
Q 3641 3997 3641 3322 
Q 3641 2881 3436 2590 
Q 3231 2300 2841 2188 
z
M 1259 4147 
L 1259 2491 
L 2053 2491 
Q 2509 2491 2742 2702 
Q 2975 2913 2975 3322 
Q 2975 3731 2742 3939 
Q 2509 4147 2053 4147 
L 1259 4147 
z
" transform="scale(0.015625)"/>
       <path id="DejaVuSans-2299" d="M 2350 2403 
L 3013 2403 
L 3013 1609 
L 2350 1609 
L 2350 2403 
z
M 3306 3522 
Q 3016 3644 2681 3644 
Q 2347 3644 2056 3522 
Q 1769 3400 1531 3163 
Q 1291 2922 1172 2634 
Q 1053 2347 1053 2006 
Q 1053 1675 1172 1387 
Q 1291 1100 1531 859 
Q 1769 622 2056 500 
Q 2347 378 2681 378 
Q 3016 378 3306 500 
Q 3594 622 3831 859 
Q 4072 1100 4190 1387 
Q 4309 1675 4309 2006 
Q 4309 2347 4190 2634 
Q 4072 2922 3831 3163 
Q 3594 3400 3306 3522 
z
M 1878 3956 
Q 2250 4113 2681 4113 
Q 3113 4113 3484 3956 
Q 3856 3800 4163 3494 
Q 4472 3184 4625 2813 
Q 4778 2444 4778 2006 
Q 4778 1578 4625 1206 
Q 4472 838 4163 528 
Q 3856 222 3484 65 
Q 3113 -91 2681 -91 
Q 2250 -91 1878 65 
Q 1506 222 1200 528 
Q 891 838 738 1206 
Q 584 1578 584 2006 
Q 584 2444 738 2813 
Q 891 3184 1200 3494 
Q 1506 3800 1878 3956 
z
" transform="scale(0.015625)"/>
       <path id="DejaVuSans-5d" d="M 1947 4863 
L 1947 -844 
L 622 -844 
L 622 -397 
L 1369 -397 
L 1369 4416 
L 622 4416 
L 622 4863 
L 1947 4863 
z
" transform="scale(0.015625)"/>
      </defs>
      <use xlink:href="#DejaVuSans-44" transform="translate(0 0.015625)"/>
      <use xlink:href="#DejaVuSans-69" transform="translate(77.001953 0.015625)"/>
      <use xlink:href="#DejaVuSans-73" transform="translate(104.785156 0.015625)"/>
      <use xlink:href="#DejaVuSans-74" transform="translate(156.884766 0.015625)"/>
      <use xlink:href="#DejaVuSans-61" transform="translate(196.09375 0.015625)"/>
      <use xlink:href="#DejaVuSans-6e" transform="translate(257.373047 0.015625)"/>
      <use xlink:href="#DejaVuSans-63" transform="translate(320.751953 0.015625)"/>
      <use xlink:href="#DejaVuSans-65" transform="translate(375.732422 0.015625)"/>
      <use xlink:href="#DejaVuSans-20" transform="translate(437.255859 0.015625)"/>
      <use xlink:href="#DejaVuSans-5b" transform="translate(469.042969 0.015625)"/>
      <use xlink:href="#DejaVuSans-52" transform="translate(504.931641 0.015625)"/>
      <use xlink:href="#DejaVuSans-2299" transform="translate(589.008789 -16.390625) scale(0.7)"/>
      <use xlink:href="#DejaVuSans-5d" transform="translate(664.033203 0.015625)"/>
     </g>
    </g>
   </g>
   <g id="matplotlib.axis_2">
    <g id="ytick_1">
     <g id="line2d_63">
      <defs>
       <path id="md234ac4ca0" d="M 0 0 
L 3.5 0 
" style="stroke: #000000; stroke-width: 1.5"/>
      </defs>
      <g>
       <use xlink:href="#md234ac4ca0" x="67.327768" y="202.252458" style="stroke: #000000; stroke-width: 1.5"/>
      </g>
     </g>
     <g id="line2d_64">
      <defs>
       <path id="m8d6c76b4f7" d="M 0 0 
L -3.5 0 
" style="stroke: #000000; stroke-width: 1.5"/>
      </defs>
      <g>
       <use xlink:href="#m8d6c76b4f7" x="417.760168" y="202.252458" style="stroke: #000000; stroke-width: 1.5"/>
      </g>
     </g>
     <g id="text_9">
      <!-- $\mathdefault{10^{-12}}$ -->
      <g transform="translate(30.347768 206.811521) scale(0.12 -0.12)">
       <defs>
        <path id="DejaVuSans-2212" d="M 678 2272 
L 4684 2272 
L 4684 1741 
L 678 1741 
L 678 2272 
z
" transform="scale(0.015625)"/>
       </defs>
       <use xlink:href="#DejaVuSans-31" transform="translate(0 0.765625)"/>
       <use xlink:href="#DejaVuSans-30" transform="translate(63.623047 0.765625)"/>
       <use xlink:href="#DejaVuSans-2212" transform="translate(128.203125 39.046875) scale(0.7)"/>
       <use xlink:href="#DejaVuSans-31" transform="translate(186.855469 39.046875) scale(0.7)"/>
       <use xlink:href="#DejaVuSans-32" transform="translate(231.391602 39.046875) scale(0.7)"/>
      </g>
     </g>
    </g>
    <g id="ytick_2">
     <g id="line2d_65">
      <g>
       <use xlink:href="#md234ac4ca0" x="67.327768" y="153.74511" style="stroke: #000000; stroke-width: 1.5"/>
      </g>
     </g>
     <g id="line2d_66">
      <g>
       <use xlink:href="#m8d6c76b4f7" x="417.760168" y="153.74511" style="stroke: #000000; stroke-width: 1.5"/>
      </g>
     </g>
     <g id="text_10">
      <!-- $\mathdefault{10^{-10}}$ -->
      <g transform="translate(30.347768 158.304173) scale(0.12 -0.12)">
       <use xlink:href="#DejaVuSans-31" transform="translate(0 0.765625)"/>
       <use xlink:href="#DejaVuSans-30" transform="translate(63.623047 0.765625)"/>
       <use xlink:href="#DejaVuSans-2212" transform="translate(128.203125 39.046875) scale(0.7)"/>
       <use xlink:href="#DejaVuSans-31" transform="translate(186.855469 39.046875) scale(0.7)"/>
       <use xlink:href="#DejaVuSans-30" transform="translate(231.391602 39.046875) scale(0.7)"/>
      </g>
     </g>
    </g>
    <g id="ytick_3">
     <g id="line2d_67">
      <g>
       <use xlink:href="#md234ac4ca0" x="67.327768" y="105.237762" style="stroke: #000000; stroke-width: 1.5"/>
      </g>
     </g>
     <g id="line2d_68">
      <g>
       <use xlink:href="#m8d6c76b4f7" x="417.760168" y="105.237762" style="stroke: #000000; stroke-width: 1.5"/>
      </g>
     </g>
     <g id="text_11">
      <!-- $\mathdefault{10^{-8}}$ -->
      <g transform="translate(35.627768 109.796824) scale(0.12 -0.12)">
       <defs>
        <path id="DejaVuSans-38" d="M 2034 2216 
Q 1584 2216 1326 1975 
Q 1069 1734 1069 1313 
Q 1069 891 1326 650 
Q 1584 409 2034 409 
Q 2484 409 2743 651 
Q 3003 894 3003 1313 
Q 3003 1734 2745 1975 
Q 2488 2216 2034 2216 
z
M 1403 2484 
Q 997 2584 770 2862 
Q 544 3141 544 3541 
Q 544 4100 942 4425 
Q 1341 4750 2034 4750 
Q 2731 4750 3128 4425 
Q 3525 4100 3525 3541 
Q 3525 3141 3298 2862 
Q 3072 2584 2669 2484 
Q 3125 2378 3379 2068 
Q 3634 1759 3634 1313 
Q 3634 634 3220 271 
Q 2806 -91 2034 -91 
Q 1263 -91 848 271 
Q 434 634 434 1313 
Q 434 1759 690 2068 
Q 947 2378 1403 2484 
z
M 1172 3481 
Q 1172 3119 1398 2916 
Q 1625 2713 2034 2713 
Q 2441 2713 2670 2916 
Q 2900 3119 2900 3481 
Q 2900 3844 2670 4047 
Q 2441 4250 2034 4250 
Q 1625 4250 1398 4047 
Q 1172 3844 1172 3481 
z
" transform="scale(0.015625)"/>
       </defs>
       <use xlink:href="#DejaVuSans-31" transform="translate(0 0.765625)"/>
       <use xlink:href="#DejaVuSans-30" transform="translate(63.623047 0.765625)"/>
       <use xlink:href="#DejaVuSans-2212" transform="translate(128.203125 39.046875) scale(0.7)"/>
       <use xlink:href="#DejaVuSans-38" transform="translate(186.855469 39.046875) scale(0.7)"/>
      </g>
     </g>
    </g>
    <g id="ytick_4">
     <g id="line2d_69">
      <g>
       <use xlink:href="#md234ac4ca0" x="67.327768" y="56.730413" style="stroke: #000000; stroke-width: 1.5"/>
      </g>
     </g>
     <g id="line2d_70">
      <g>
       <use xlink:href="#m8d6c76b4f7" x="417.760168" y="56.730413" style="stroke: #000000; stroke-width: 1.5"/>
      </g>
     </g>
     <g id="text_12">
      <!-- $\mathdefault{10^{-6}}$ -->
      <g transform="translate(35.627768 61.289476) scale(0.12 -0.12)">
       <use xlink:href="#DejaVuSans-31" transform="translate(0 0.765625)"/>
       <use xlink:href="#DejaVuSans-30" transform="translate(63.623047 0.765625)"/>
       <use xlink:href="#DejaVuSans-2212" transform="translate(128.203125 39.046875) scale(0.7)"/>
       <use xlink:href="#DejaVuSans-36" transform="translate(186.855469 39.046875) scale(0.7)"/>
      </g>
     </g>
    </g>
    <g id="text_13">
     <!-- P$_{ram}$ [Pa] -->
     <g transform="translate(23.852143 152.622) rotate(-90) scale(0.12 -0.12)">
      <defs>
       <path id="DejaVuSans-50" d="M 1259 4147 
L 1259 2394 
L 2053 2394 
Q 2494 2394 2734 2622 
Q 2975 2850 2975 3272 
Q 2975 3691 2734 3919 
Q 2494 4147 2053 4147 
L 1259 4147 
z
M 628 4666 
L 2053 4666 
Q 2838 4666 3239 4311 
Q 3641 3956 3641 3272 
Q 3641 2581 3239 2228 
Q 2838 1875 2053 1875 
L 1259 1875 
L 1259 0 
L 628 0 
L 628 4666 
z
" transform="scale(0.015625)"/>
       <path id="DejaVuSans-Oblique-72" d="M 2853 2969 
Q 2766 3016 2653 3041 
Q 2541 3066 2413 3066 
Q 1953 3066 1609 2717 
Q 1266 2369 1153 1784 
L 800 0 
L 225 0 
L 909 3500 
L 1484 3500 
L 1375 2956 
Q 1603 3259 1920 3421 
Q 2238 3584 2597 3584 
Q 2691 3584 2781 3573 
Q 2872 3563 2963 3538 
L 2853 2969 
z
" transform="scale(0.015625)"/>
       <path id="DejaVuSans-Oblique-61" d="M 3438 1997 
L 3047 0 
L 2472 0 
L 2578 531 
Q 2325 219 2001 64 
Q 1678 -91 1281 -91 
Q 834 -91 548 182 
Q 263 456 263 884 
Q 263 1497 752 1853 
Q 1241 2209 2100 2209 
L 2900 2209 
L 2931 2363 
Q 2938 2388 2941 2417 
Q 2944 2447 2944 2509 
Q 2944 2788 2717 2942 
Q 2491 3097 2081 3097 
Q 1800 3097 1504 3025 
Q 1209 2953 897 2809 
L 997 3341 
Q 1322 3463 1633 3523 
Q 1944 3584 2234 3584 
Q 2853 3584 3176 3315 
Q 3500 3047 3500 2534 
Q 3500 2431 3484 2292 
Q 3469 2153 3438 1997 
z
M 2816 1759 
L 2241 1759 
Q 1534 1759 1195 1570 
Q 856 1381 856 984 
Q 856 709 1029 553 
Q 1203 397 1509 397 
Q 1978 397 2328 733 
Q 2678 1069 2791 1631 
L 2816 1759 
z
" transform="scale(0.015625)"/>
       <path id="DejaVuSans-Oblique-6d" d="M 5747 2113 
L 5338 0 
L 4763 0 
L 5166 2094 
Q 5191 2228 5203 2325 
Q 5216 2422 5216 2491 
Q 5216 2772 5059 2928 
Q 4903 3084 4622 3084 
Q 4203 3084 3875 2770 
Q 3547 2456 3450 1953 
L 3066 0 
L 2491 0 
L 2900 2094 
Q 2925 2209 2937 2307 
Q 2950 2406 2950 2484 
Q 2950 2769 2794 2926 
Q 2638 3084 2363 3084 
Q 1938 3084 1609 2770 
Q 1281 2456 1184 1953 
L 800 0 
L 225 0 
L 909 3500 
L 1484 3500 
L 1375 2956 
Q 1609 3263 1923 3423 
Q 2238 3584 2597 3584 
Q 2978 3584 3223 3384 
Q 3469 3184 3519 2828 
Q 3781 3197 4126 3390 
Q 4472 3584 4856 3584 
Q 5306 3584 5551 3325 
Q 5797 3066 5797 2591 
Q 5797 2488 5784 2364 
Q 5772 2241 5747 2113 
z
" transform="scale(0.015625)"/>
      </defs>
      <use xlink:href="#DejaVuSans-50" transform="translate(0 0.015625)"/>
      <use xlink:href="#DejaVuSans-Oblique-72" transform="translate(61.259766 -16.390625) scale(0.7)"/>
      <use xlink:href="#DejaVuSans-Oblique-61" transform="translate(90.039062 -16.390625) scale(0.7)"/>
      <use xlink:href="#DejaVuSans-Oblique-6d" transform="translate(132.93457 -16.390625) scale(0.7)"/>
      <use xlink:href="#DejaVuSans-20" transform="translate(203.857422 0.015625)"/>
      <use xlink:href="#DejaVuSans-5b" transform="translate(235.644531 0.015625)"/>
      <use xlink:href="#DejaVuSans-50" transform="translate(274.658203 0.015625)"/>
      <use xlink:href="#DejaVuSans-61" transform="translate(334.960938 0.015625)"/>
      <use xlink:href="#DejaVuSans-5d" transform="translate(396.240234 0.015625)"/>
     </g>
    </g>
   </g>
   <g id="patch_3">
    <path d="M 67.327768 242.124 
L 67.327768 10.8 
" style="fill: none; stroke: #000000; stroke-width: 1.5; stroke-linejoin: miter; stroke-linecap: square"/>
   </g>
   <g id="patch_4">
    <path d="M 417.760168 242.124 
L 417.760168 10.8 
" style="fill: none; stroke: #000000; stroke-width: 1.5; stroke-linejoin: miter; stroke-linecap: square"/>
   </g>
   <g id="patch_5">
    <path d="M 67.327768 242.124 
L 417.760168 242.124 
" style="fill: none; stroke: #000000; stroke-width: 1.5; stroke-linejoin: miter; stroke-linecap: square"/>
   </g>
   <g id="patch_6">
    <path d="M 67.327768 10.8 
L 417.760168 10.8 
" style="fill: none; stroke: #000000; stroke-width: 1.5; stroke-linejoin: miter; stroke-linecap: square"/>
   </g>
   <g id="PolyCollection_1">
    <path d="M 165.985238 68.680954 
L 165.985238 79.435649 
L 166.323247 81.269321 
L 166.907732 82.92135 
L 167.472275 74.612479 
L 168.039623 75.858635 
L 168.587319 74.935333 
L 169.166078 75.06373 
L 169.728902 74.245794 
L 170.291523 74.338387 
L 170.854086 74.555408 
L 171.416649 75.814025 
L 171.979052 76.04166 
L 172.54143 75.692166 
L 173.103901 76.944766 
L 173.666187 77.707808 
L 174.228479 77.142691 
L 174.790817 78.197043 
L 175.353129 78.390962 
L 175.915441 79.032006 
L 176.477689 79.225798 
L 177.039979 76.471718 
L 177.602255 77.415597 
L 178.164421 77.334907 
L 178.726643 78.324963 
L 179.289024 78.908564 
L 179.851247 79.714227 
L 180.413248 80.461467 
L 180.975576 80.347914 
L 181.537844 81.565841 
L 182.10008 81.341221 
L 182.662396 82.42581 
L 183.224758 83.519407 
L 183.786988 83.240746 
L 184.349109 84.859285 
L 184.911688 88.591659 
L 185.473452 100.821253 
L 186.035672 97.332723 
L 186.597765 91.511719 
L 187.160066 91.647879 
L 187.72235 93.826936 
L 188.284601 92.863083 
L 188.846812 94.262407 
L 189.40899 86.267703 
L 189.971156 83.743765 
L 190.61712 79.853008 
L 191.076363 81.503596 
L 191.649653 83.657123 
L 192.215603 89.120667 
L 192.778998 95.543273 
L 193.341793 98.739821 
L 193.904592 92.868664 
L 194.467333 92.54406 
L 195.029745 90.118366 
L 195.59208 90.792168 
L 196.154412 86.885033 
L 196.716668 87.86306 
L 197.279142 83.711861 
L 197.841437 82.543115 
L 198.403652 83.625077 
L 198.966029 83.296588 
L 199.52836 83.33378 
L 200.090685 83.052723 
L 200.65283 83.034021 
L 201.215142 83.518214 
L 201.777375 83.483075 
L 202.339514 84.52419 
L 202.901602 84.411806 
L 203.463827 81.066941 
L 204.026302 82.971448 
L 204.588455 81.651495 
L 205.150463 83.153411 
L 205.712902 81.58436 
L 206.275152 81.670432 
L 206.837222 83.052832 
L 207.398839 84.042045 
L 207.96333 85.217305 
L 208.523008 85.747917 
L 209.085691 85.475622 
L 209.645847 85.24233 
L 210.209535 83.789933 
L 210.773194 82.913156 
L 211.333238 83.305455 
L 211.897312 81.134527 
L 212.459627 81.659018 
L 213.023297 82.443633 
L 213.584 87.932675 
L 214.146247 84.811768 
L 214.707167 82.034676 
L 215.270648 81.283504 
L 215.832756 82.553686 
L 216.394961 83.15977 
L 216.957462 84.989752 
L 217.519374 86.169701 
L 218.081649 88.170327 
L 218.6479 87.1707 
L 219.245256 95.989372 
L 219.769912 103.896668 
L 220.33032 99.319698 
L 220.892807 98.935512 
L 221.466632 95.794409 
L 222.002425 95.266028 
L 222.57788 99.409033 
L 223.140377 98.442655 
L 223.707971 96.699305 
L 224.275188 96.518381 
L 224.824709 99.104083 
L 225.384872 97.095504 
L 225.996024 90.786051 
L 226.514451 101.62862 
L 227.070302 100.367486 
L 227.666533 102.510465 
L 228.208064 102.838135 
L 228.784757 101.470525 
L 229.326142 102.72126 
L 229.869594 100.972199 
L 230.401312 95.386415 
L 231.014761 104.820936 
L 231.601764 99.89616 
L 232.160982 99.103907 
L 232.71733 104.688031 
L 233.241374 104.54125 
L 233.793487 101.08546 
L 234.387642 101.620455 
L 234.948669 108.308515 
L 235.507485 106.783489 
L 236.066093 108.08672 
L 236.667877 133.696064 
L 237.18727 116.337221 
L 237.771806 102.067215 
L 238.322634 97.944795 
L 238.874993 99.850959 
L 239.453359 103.032321 
L 240.014766 101.908967 
L 240.553604 101.069589 
L 241.1286 99.140924 
L 241.683783 24164.882595 
L 242.252988 149.206063 
L 242.814951 104.10168 
L 243.379559 99.527567 
L 243.950778 99.084135 
L 244.498254 103.445248 
L 245.057042 107.853291 
L 245.63058 24164.882595 
L 246.186107 24164.882595 
L 246.754373 24164.882595 
L 247.311865 24164.882595 
L 247.876033 24164.882595 
L 248.419617 24164.882595 
L 248.966294 24164.882595 
L 249.609129 109.05473 
L 250.12821 24164.882595 
L 250.677656 24164.882595 
L 251.250738 24164.882595 
L 251.83502 24164.882595 
L 252.367575 116.176494 
L 252.933921 24164.882595 
L 253.502256 134.792581 
L 254.056463 110.865613 
L 254.612194 114.988335 
L 255.192717 105.84485 
L 255.745565 104.111415 
L 256.308558 103.63342 
L 256.870058 103.422099 
L 257.434171 99.085617 
L 258.010221 104.913128 
L 258.564408 102.46275 
L 259.120319 121.458505 
L 259.682389 24164.882595 
L 260.259074 24164.882595 
L 260.805556 111.457953 
L 261.364148 106.38605 
L 261.922589 103.807808 
L 262.493439 107.106117 
L 263.053613 106.851434 
L 263.629396 114.592932 
L 264.187811 116.814703 
L 264.751856 125.4308 
L 265.294403 118.408295 
L 265.863799 114.852509 
L 266.426518 119.096932 
L 266.990743 111.449539 
L 267.556799 115.52327 
L 268.118833 105.905842 
L 268.675953 104.514865 
L 269.249316 100.419553 
L 269.825574 104.272289 
L 270.367423 114.850698 
L 270.927104 103.79658 
L 271.492443 111.576597 
L 272.022667 112.658152 
L 272.629981 113.144615 
L 273.16784 120.865549 
L 273.730999 114.507201 
L 274.297075 112.980753 
L 274.873019 103.586059 
L 275.425624 96.722516 
L 275.968711 96.335266 
L 276.546141 93.703552 
L 277.113208 97.424208 
L 277.657045 99.203729 
L 278.238506 99.570295 
L 278.791933 100.615591 
L 279.363457 98.29567 
L 279.938046 97.19979 
L 280.481284 98.077135 
L 281.060581 104.22493 
L 281.597039 99.962542 
L 282.178691 109.752652 
L 282.746889 110.393104 
L 283.283926 98.610456 
L 283.838542 100.223537 
L 284.425263 102.333415 
L 284.952995 100.67533 
L 285.560219 96.195228 
L 286.107694 95.868334 
L 286.712203 96.891834 
L 287.236036 95.761523 
L 287.794393 96.185294 
L 288.354203 97.320358 
L 288.916427 97.596939 
L 289.487676 99.014747 
L 290.05214 99.494442 
L 290.613037 99.262305 
L 291.161631 98.582693 
L 291.717331 98.76618 
L 292.301644 100.896352 
L 292.856578 105.034891 
L 293.417602 110.423735 
L 293.98361 109.97263 
L 294.538651 109.012045 
L 295.095612 106.850673 
L 295.672374 110.987128 
L 296.21775 108.377503 
L 296.794111 100.163865 
L 297.355086 100.41278 
L 297.911295 111.052147 
L 298.481028 106.70896 
L 299.03725 107.965063 
L 299.591413 107.386832 
L 300.167306 98.249205 
L 300.732814 107.757903 
L 301.288646 110.48225 
L 301.853788 100.422296 
L 302.409321 97.202506 
L 302.970008 96.47039 
L 303.538256 97.399966 
L 304.100416 98.454913 
L 304.664224 96.619344 
L 305.191443 97.571639 
L 305.807244 98.551475 
L 306.319324 97.86058 
L 306.919381 97.701082 
L 307.477583 100.901844 
L 308.026002 100.684025 
L 308.588609 101.826842 
L 309.153527 103.822451 
L 309.722542 103.049766 
L 310.301988 98.549343 
L 310.842299 98.270288 
L 311.420425 97.923537 
L 311.962485 97.573121 
L 312.525329 96.388443 
L 313.099277 97.059538 
L 313.641875 100.53664 
L 314.222697 104.068998 
L 314.77379 99.402791 
L 315.349715 96.489605 
L 315.906101 96.032889 
L 316.453173 97.085561 
L 317.055365 98.308845 
L 317.588448 97.235587 
L 318.15269 98.06244 
L 318.711646 99.884689 
L 319.273715 97.47322 
L 319.839844 96.822437 
L 320.399805 97.009675 
L 320.97431 96.56984 
L 321.523682 96.852624 
L 322.088762 97.18669 
L 322.649552 97.980291 
L 323.215806 99.336953 
L 323.771538 99.346963 
L 324.343599 101.81528 
L 324.904111 102.912222 
L 325.464519 103.360038 
L 326.019371 107.012911 
L 326.582269 104.856583 
L 327.139292 102.403476 
L 327.706224 105.554009 
L 328.275531 106.071311 
L 328.836115 110.970596 
L 329.403732 112.623316 
L 329.962668 116.517336 
L 330.519581 109.231231 
L 331.094528 111.827634 
L 331.623601 109.611542 
L 332.215315 109.378998 
L 332.78597 109.139956 
L 333.325579 109.228426 
L 333.894431 106.568283 
L 334.448086 108.250234 
L 335.021757 106.798793 
L 335.589175 105.44751 
L 336.14479 100.749286 
L 336.723804 105.443541 
L 337.256712 115.79285 
L 337.832198 120.49318 
L 338.410391 107.34137 
L 338.957207 99.965382 
L 339.51465 99.581166 
L 340.073777 99.369389 
L 340.648481 100.954339 
L 341.205857 104.187362 
L 341.774894 101.058228 
L 342.330175 102.197679 
L 342.894635 102.236339 
L 343.467055 98.710783 
L 344.003286 99.302272 
L 344.589395 101.039558 
L 345.129121 99.506703 
L 345.708559 102.288757 
L 346.254329 107.344711 
L 346.828767 100.44384 
L 347.395211 99.695569 
L 347.945437 99.028616 
L 348.522765 99.684441 
L 349.067274 99.339329 
L 349.636689 100.144782 
L 350.211133 100.718062 
L 350.764596 100.245442 
L 351.3183 99.101489 
L 351.880652 99.253767 
L 352.454295 99.544995 
L 353.012002 100.741952 
L 353.572642 101.307007 
L 354.129749 99.493691 
L 354.697967 99.224281 
L 355.251779 98.508685 
L 355.827343 97.503552 
L 356.390043 98.753377 
L 356.935477 98.11575 
L 357.521515 98.549895 
L 358.057068 100.587844 
L 358.65464 100.818203 
L 359.194826 99.681209 
L 359.746722 99.364317 
L 360.320297 98.672796 
L 360.86827 99.028648 
L 361.450015 97.145949 
L 362.01647 99.721972 
L 362.571972 99.62028 
L 363.132767 102.613313 
L 363.692958 103.515905 
L 364.252816 99.634974 
L 364.816056 98.38085 
L 365.380537 96.981992 
L 365.939022 96.939462 
L 366.510172 100.462194 
L 367.065687 100.145673 
L 367.628309 99.118754 
L 368.188222 101.150617 
L 368.755057 101.747293 
L 369.31508 102.632119 
L 369.870931 104.258809 
L 370.435802 103.595815 
L 371.00009 101.672431 
L 371.566247 101.025035 
L 372.121332 100.431779 
L 372.687063 99.481691 
L 373.258343 99.287737 
L 373.812328 101.186864 
L 374.369213 101.984349 
L 374.937299 101.495753 
L 375.490119 101.332806 
L 376.061034 101.447737 
L 376.62409 100.805352 
L 377.19126 101.033423 
L 377.739578 100.902425 
L 378.328164 102.003368 
L 378.846262 102.530371 
L 379.433081 104.849495 
L 379.995988 104.268448 
L 380.560206 103.613003 
L 381.120486 103.008954 
L 381.676278 102.901245 
L 382.25006 103.676917 
L 382.806413 104.126342 
L 383.370817 101.447178 
L 383.93231 101.523173 
L 384.493063 100.572016 
L 385.054998 103.541781 
L 385.618571 104.786065 
L 386.180819 106.271157 
L 386.745392 102.954413 
L 387.308029 104.692497 
L 387.874384 105.80402 
L 388.42901 102.860684 
L 388.967244 104.627197 
L 389.554103 105.439328 
L 390.116623 105.178429 
L 390.678569 104.724261 
L 391.23722 103.222341 
L 391.7868 102.351256 
L 392.365915 102.323465 
L 392.927527 104.203512 
L 393.489587 102.839729 
L 394.051363 102.345523 
L 394.613888 102.817028 
L 395.121859 97.810999 
L 395.738408 89.715369 
L 396.300405 89.809075 
L 396.862684 89.413439 
L 397.425245 91.654935 
L 397.987098 93.717464 
L 398.548987 91.258817 
L 399.111398 90.327361 
L 399.673834 94.2483 
L 400.236056 95.251772 
L 400.798306 94.587042 
L 401.360586 95.026512 
L 401.831423 95.212312 
L 401.831423 87.458892 
L 401.831423 87.458892 
L 401.360586 87.501109 
L 400.798306 87.611603 
L 400.236056 88.039746 
L 399.673834 87.548675 
L 399.111398 84.320095 
L 398.548987 84.433476 
L 397.987098 85.172205 
L 397.425245 84.253799 
L 396.862684 83.267758 
L 396.300405 83.127868 
L 395.738408 83.35718 
L 395.121859 85.077231 
L 394.613888 85.615812 
L 394.051363 85.656063 
L 393.489587 85.522166 
L 392.927527 85.597724 
L 392.365915 85.76235 
L 391.7868 85.615636 
L 391.23722 86.292556 
L 390.678569 86.345044 
L 390.116623 86.19237 
L 389.554103 86.582425 
L 388.967244 86.290192 
L 388.42901 87.433718 
L 387.874384 88.309849 
L 387.308029 88.478234 
L 386.745392 88.884984 
L 386.180819 87.616905 
L 385.618571 88.000004 
L 385.054998 88.189182 
L 384.493063 87.835359 
L 383.93231 87.634702 
L 383.370817 87.732971 
L 382.806413 89.006425 
L 382.25006 88.828277 
L 381.676278 88.294953 
L 381.120486 88.914877 
L 380.560206 88.316343 
L 379.995988 88.719799 
L 379.433081 89.227163 
L 378.846262 91.983861 
L 378.328164 89.722368 
L 377.739578 89.610935 
L 377.19126 88.944155 
L 376.62409 87.948671 
L 376.061034 88.194413 
L 375.490119 88.768655 
L 374.937299 87.836571 
L 374.369213 88.362057 
L 373.812328 87.793723 
L 373.258343 88.039361 
L 372.687063 88.390595 
L 372.121332 87.53262 
L 371.566247 87.187261 
L 371.00009 87.361614 
L 370.435802 86.632874 
L 369.870931 86.634803 
L 369.31508 87.140124 
L 368.755057 86.772516 
L 368.188222 86.630359 
L 367.628309 87.350049 
L 367.065687 86.407794 
L 366.510172 87.546923 
L 365.939022 87.755561 
L 365.380537 85.872068 
L 364.816056 85.856736 
L 364.252816 85.807481 
L 363.692958 85.77184 
L 363.132767 85.588309 
L 362.571972 86.10106 
L 362.01647 85.816241 
L 361.450015 88.450285 
L 360.86827 86.410745 
L 360.320297 86.416869 
L 359.746722 85.526262 
L 359.194826 85.876218 
L 358.65464 86.661933 
L 358.057068 85.210582 
L 357.521515 84.243348 
L 356.935477 83.57611 
L 356.390043 84.402071 
L 355.827343 83.777264 
L 355.251779 84.000057 
L 354.697967 83.381931 
L 354.129749 83.111145 
L 353.572642 83.963535 
L 353.012002 84.379505 
L 352.454295 84.635131 
L 351.880652 84.793739 
L 351.3183 83.324203 
L 350.764596 82.757231 
L 350.211133 83.133211 
L 349.636689 81.73335 
L 349.067274 81.651323 
L 348.522765 81.813673 
L 347.945437 81.65314 
L 347.395211 80.374526 
L 346.828767 80.912304 
L 346.254329 81.232166 
L 345.708559 82.84019 
L 345.129121 83.151794 
L 344.589395 81.177757 
L 344.003286 81.866892 
L 343.467055 81.330892 
L 342.894635 81.071634 
L 342.330175 79.502594 
L 341.774894 79.761265 
L 341.205857 81.303146 
L 340.648481 80.504307 
L 340.073777 80.798227 
L 339.51465 80.826148 
L 338.957207 81.144774 
L 338.410391 80.904787 
L 337.832198 82.32389 
L 337.256712 83.395452 
L 336.723804 82.094007 
L 336.14479 85.52819 
L 335.589175 84.085408 
L 335.021757 85.93665 
L 334.448086 83.833271 
L 333.894431 83.64765 
L 333.325579 84.278333 
L 332.78597 85.061093 
L 332.215315 85.750742 
L 331.623601 84.811089 
L 331.094528 86.565627 
L 330.519581 86.144959 
L 329.962668 83.625612 
L 329.403732 85.190119 
L 328.836115 85.503256 
L 328.275531 87.459436 
L 327.706224 89.079611 
L 327.139292 90.429281 
L 326.582269 88.583557 
L 326.019371 85.665625 
L 325.464519 86.216985 
L 324.904111 86.678707 
L 324.343599 87.336478 
L 323.771538 89.083875 
L 323.215806 89.090132 
L 322.649552 88.608659 
L 322.088762 88.68965 
L 321.523682 88.494182 
L 320.97431 88.159294 
L 320.399805 87.601931 
L 319.839844 87.502506 
L 319.273715 87.085341 
L 318.711646 85.461917 
L 318.15269 87.675783 
L 317.588448 85.624078 
L 317.055365 84.339443 
L 316.453173 84.475282 
L 315.906101 85.898031 
L 315.349715 88.179009 
L 314.77379 86.601436 
L 314.222697 84.308279 
L 313.641875 84.036893 
L 313.099277 83.44548 
L 312.525329 84.055243 
L 311.962485 84.510665 
L 311.420425 83.897611 
L 310.842299 83.740655 
L 310.301988 83.425934 
L 309.722542 84.715292 
L 309.153527 85.054893 
L 308.588609 87.326486 
L 308.026002 83.711507 
L 307.477583 85.092589 
L 306.919381 85.798981 
L 306.319324 88.345166 
L 305.807244 88.09287 
L 305.191443 86.962327 
L 304.664224 87.866926 
L 304.100416 84.516408 
L 303.538256 84.222609 
L 302.970008 83.822838 
L 302.409321 82.325304 
L 301.853788 84.791336 
L 301.288646 82.371884 
L 300.732814 81.990595 
L 300.167306 86.632074 
L 299.591413 81.590519 
L 299.03725 81.360977 
L 298.481028 82.433408 
L 297.911295 82.408025 
L 297.355086 86.057847 
L 296.794111 87.159762 
L 296.21775 83.703464 
L 295.672374 83.852103 
L 295.095612 85.468924 
L 294.538651 82.405515 
L 293.98361 81.742782 
L 293.417602 82.101146 
L 292.856578 82.328213 
L 292.301644 80.814793 
L 291.717331 81.815634 
L 291.161631 79.350752 
L 290.613037 81.940877 
L 290.05214 79.673737 
L 289.487676 80.797522 
L 288.916427 82.503072 
L 288.354203 81.135784 
L 287.794393 81.521449 
L 287.236036 81.686307 
L 286.712203 82.613157 
L 286.107694 84.542406 
L 285.560219 84.934715 
L 284.952995 80.459741 
L 284.425263 79.444862 
L 283.838542 76.168106 
L 283.283926 79.730051 
L 282.746889 77.594367 
L 282.178691 82.684185 
L 281.597039 84.463093 
L 281.060581 82.275939 
L 280.481284 83.527359 
L 279.938046 83.741117 
L 279.363457 84.008226 
L 278.791933 84.407841 
L 278.238506 84.765749 
L 277.657045 84.243416 
L 277.113208 84.578586 
L 276.546141 84.772274 
L 275.968711 82.70247 
L 275.425624 81.385874 
L 274.873019 83.111463 
L 274.297075 83.302857 
L 273.730999 83.207493 
L 273.16784 83.465374 
L 272.629981 83.840328 
L 272.022667 82.927126 
L 271.492443 82.200638 
L 270.927104 82.421406 
L 270.367423 81.098462 
L 269.825574 81.734679 
L 269.249316 82.178915 
L 268.675953 81.553191 
L 268.118833 82.317333 
L 267.556799 81.953539 
L 266.990743 82.829115 
L 266.426518 81.241188 
L 265.863799 80.253273 
L 265.294403 80.287134 
L 264.751856 80.320157 
L 264.187811 80.821387 
L 263.629396 79.717896 
L 263.053613 82.253316 
L 262.493439 81.490758 
L 261.922589 80.564952 
L 261.364148 81.260228 
L 260.805556 81.555627 
L 260.259074 77.842181 
L 259.682389 79.179486 
L 259.120319 81.05002 
L 258.564408 82.12566 
L 258.010221 81.373472 
L 257.434171 78.622802 
L 256.870058 80.542751 
L 256.308558 81.097345 
L 255.745565 81.699579 
L 255.192717 80.722665 
L 254.612194 79.238111 
L 254.056463 79.253873 
L 253.502256 79.161719 
L 252.933921 76.597024 
L 252.367575 78.81284 
L 251.83502 75.874493 
L 251.250738 72.840894 
L 250.677656 76.301314 
L 250.12821 77.513029 
L 249.609129 78.202553 
L 248.966294 73.201169 
L 248.419617 72.247664 
L 247.876033 74.731064 
L 247.311865 74.153893 
L 246.754373 74.325253 
L 246.186107 74.49799 
L 245.63058 74.542419 
L 245.057042 75.129754 
L 244.498254 75.490565 
L 243.950778 76.277837 
L 243.379559 76.029392 
L 242.814951 75.898149 
L 242.252988 74.970572 
L 241.683783 75.162628 
L 241.1286 77.501137 
L 240.553604 77.021715 
L 240.014766 76.914361 
L 239.453359 76.109967 
L 238.874993 77.549562 
L 238.322634 77.98202 
L 237.771806 76.412219 
L 237.18727 76.617703 
L 236.667877 76.09828 
L 236.066093 76.28408 
L 235.507485 74.306197 
L 234.948669 74.355032 
L 234.387642 73.579175 
L 233.793487 75.946102 
L 233.241374 77.011711 
L 232.71733 77.216953 
L 232.160982 77.860924 
L 231.601764 77.210049 
L 231.014761 75.665523 
L 230.401312 73.952303 
L 229.869594 75.449633 
L 229.326142 76.439711 
L 228.784757 75.785264 
L 228.208064 74.948485 
L 227.666533 75.676556 
L 227.070302 74.691329 
L 226.514451 75.276594 
L 225.996024 74.853797 
L 225.384872 74.192989 
L 224.824709 74.693247 
L 224.275188 74.931468 
L 223.707971 74.941943 
L 223.140377 75.100039 
L 222.57788 75.215091 
L 222.002425 73.253378 
L 221.466632 74.284038 
L 220.892807 74.818034 
L 220.33032 74.885642 
L 219.769912 75.251057 
L 219.245256 74.772637 
L 218.6479 74.978145 
L 218.081649 75.132459 
L 217.519374 76.13033 
L 216.957462 75.63021 
L 216.394961 75.161784 
L 215.832756 75.165786 
L 215.270648 75.138802 
L 214.707167 76.038589 
L 214.146247 75.614359 
L 213.584 77.505225 
L 213.023297 75.99794 
L 212.459627 75.990789 
L 211.897312 75.148488 
L 211.333238 75.334235 
L 210.773194 76.409286 
L 210.209535 75.499653 
L 209.645847 74.909406 
L 209.085691 76.382903 
L 208.523008 75.192292 
L 207.96333 75.470232 
L 207.398839 75.338622 
L 206.837222 75.190002 
L 206.275152 73.980003 
L 205.712902 72.533626 
L 205.150463 72.92044 
L 204.588455 73.205848 
L 204.026302 72.369861 
L 203.463827 73.645707 
L 202.901602 73.288092 
L 202.339514 73.336581 
L 201.777375 73.709703 
L 201.215142 74.122582 
L 200.65283 74.045675 
L 200.090685 74.317061 
L 199.52836 74.909125 
L 198.966029 75.395376 
L 198.403652 75.011612 
L 197.841437 73.678981 
L 197.279142 74.065839 
L 196.716668 73.891649 
L 196.154412 72.430359 
L 195.59208 72.90087 
L 195.029745 72.51492 
L 194.467333 71.185736 
L 193.904592 70.306738 
L 193.341793 69.961826 
L 192.778998 71.0687 
L 192.215603 71.933219 
L 191.649653 71.816799 
L 191.076363 66.791153 
L 190.61712 69.849729 
L 189.971156 67.254591 
L 189.40899 65.648943 
L 188.846812 65.040046 
L 188.284601 64.45 
L 187.72235 62.395556 
L 187.160066 63.995616 
L 186.597765 64.08006 
L 186.035672 63.15625 
L 185.473452 65.046351 
L 184.911688 67.41308 
L 184.349109 64.681256 
L 183.786988 64.218577 
L 183.224758 64.751343 
L 182.662396 67.084588 
L 182.10008 65.689928 
L 181.537844 65.443877 
L 180.975576 66.551141 
L 180.413248 69.459883 
L 179.851247 70.29036 
L 179.289024 69.796639 
L 178.726643 70.928679 
L 178.164421 70.455225 
L 177.602255 70.511818 
L 177.039979 68.900525 
L 176.477689 68.928729 
L 175.915441 70.790125 
L 175.353129 71.431047 
L 174.790817 72.550768 
L 174.228479 73.512195 
L 173.666187 72.329679 
L 173.103901 71.178965 
L 172.54143 71.955987 
L 171.979052 70.526994 
L 171.416649 69.604271 
L 170.854086 68.42666 
L 170.291523 69.380789 
L 169.728902 70.14986 
L 169.166078 69.092761 
L 168.587319 68.283464 
L 168.039623 68.076972 
L 167.472275 64.39766 
L 166.907732 68.237938 
L 166.323247 71.761972 
L 165.985238 68.680954 
z
" clip-path="url(#p3dad8b7933)" style="fill: #add8e6; stroke: #add8e6"/>
   </g>
   <g id="line2d_71">
    <path d="M 165.985238 72.741481 
L 166.323247 75.477524 
L 166.907732 73.204797 
L 167.472275 68.312497 
L 168.039623 71.264965 
L 168.587319 71.092807 
L 169.166078 71.660697 
L 169.728902 71.999976 
L 170.854086 71.051433 
L 171.416649 72.258014 
L 172.54143 73.659283 
L 173.103901 73.672176 
L 173.666187 74.679158 
L 174.228479 75.171795 
L 174.790817 75.000019 
L 175.353129 74.346315 
L 175.915441 74.124706 
L 176.477689 72.866115 
L 177.039979 72.020018 
L 177.602255 73.407934 
L 178.164421 73.3431 
L 178.726643 73.99054 
L 179.289024 73.396573 
L 179.851247 73.981758 
L 180.413248 73.585232 
L 180.975576 71.33572 
L 181.537844 70.681458 
L 182.10008 70.842219 
L 182.662396 72.178968 
L 183.224758 70.413662 
L 183.786988 69.917132 
L 184.349109 70.535452 
L 184.911688 73.390502 
L 185.473452 72.000411 
L 186.035672 70.054518 
L 186.597765 70.629615 
L 187.160066 70.560215 
L 187.72235 69.176813 
L 188.284601 71.064283 
L 188.846812 71.703615 
L 189.40899 71.558685 
L 190.61712 73.705984 
L 191.076363 71.763775 
L 191.649653 76.154116 
L 192.215603 77.352647 
L 192.778998 77.38575 
L 193.341793 76.598773 
L 193.904592 76.43837 
L 195.029745 78.001289 
L 195.59208 78.432273 
L 196.154412 77.351354 
L 196.716668 78.7131 
L 197.279142 77.821213 
L 197.841437 77.20489 
L 198.403652 78.461387 
L 198.966029 78.621867 
L 199.52836 78.300718 
L 200.090685 77.804107 
L 200.65283 77.608844 
L 201.215142 77.80578 
L 201.777375 77.501319 
L 202.901602 77.445094 
L 203.463827 76.715829 
L 204.026302 76.389624 
L 205.150463 76.840265 
L 205.712902 76.115393 
L 206.275152 77.138416 
L 206.837222 78.404165 
L 207.96333 79.25439 
L 208.523008 79.199732 
L 209.085691 79.977143 
L 209.645847 78.856582 
L 210.209535 78.849396 
L 210.773194 79.167012 
L 211.333238 78.583134 
L 211.897312 77.721876 
L 212.459627 78.448138 
L 213.023297 78.735247 
L 213.584 81.478094 
L 214.146247 79.239548 
L 214.707167 78.61561 
L 215.270648 77.769292 
L 215.832756 78.224869 
L 216.394961 78.419223 
L 217.519374 79.99664 
L 218.6479 79.400763 
L 219.769912 81.879867 
L 220.33032 81.199072 
L 220.892807 81.102738 
L 221.466632 80.300101 
L 222.002425 79.325924 
L 222.57788 81.506806 
L 223.140377 81.31104 
L 223.707971 80.98608 
L 224.824709 81.004596 
L 225.384872 80.359897 
L 225.996024 80.057376 
L 226.514451 81.748148 
L 227.070302 81.110153 
L 227.666533 82.183842 
L 228.208064 81.528948 
L 229.326142 82.905912 
L 229.869594 81.856033 
L 230.401312 79.95958 
L 231.014761 82.325149 
L 231.601764 83.354662 
L 232.160982 83.845931 
L 232.71733 83.769217 
L 233.241374 83.567976 
L 233.793487 82.32077 
L 234.387642 80.169597 
L 234.948669 81.244848 
L 235.507485 81.135508 
L 236.066093 83.082918 
L 237.18727 83.678938 
L 237.771806 82.829341 
L 238.322634 83.808342 
L 238.874993 83.653511 
L 239.453359 82.623649 
L 240.014766 83.276764 
L 240.553604 83.299998 
L 241.1286 83.531983 
L 241.683783 82.617413 
L 242.252988 82.262503 
L 242.814951 82.499081 
L 243.379559 82.255585 
L 243.950778 82.434883 
L 244.498254 82.075315 
L 245.63058 81.93455 
L 247.311865 81.916313 
L 247.876033 82.344063 
L 248.419617 80.07013 
L 248.966294 80.634524 
L 249.609129 84.955177 
L 250.12821 85.622457 
L 250.677656 84.149752 
L 251.250738 81.416155 
L 251.83502 83.409302 
L 252.367575 85.814804 
L 252.933921 84.083529 
L 253.502256 86.409377 
L 254.056463 86.043744 
L 254.612194 86.191371 
L 255.745565 87.815338 
L 256.870058 86.707293 
L 257.434171 84.513122 
L 258.010221 87.603683 
L 258.564408 88.000138 
L 259.120319 88.126279 
L 260.259074 85.39908 
L 260.805556 88.25794 
L 261.364148 87.633755 
L 261.922589 86.766103 
L 262.493439 87.904684 
L 263.053613 88.581327 
L 263.629396 86.641556 
L 264.187811 87.782456 
L 264.751856 87.47682 
L 265.863799 87.167101 
L 266.990743 89.456366 
L 267.556799 88.8284 
L 268.118833 88.552256 
L 268.675953 87.726123 
L 269.825574 87.863753 
L 270.367423 87.9805 
L 271.492443 88.873166 
L 272.629981 90.508692 
L 273.16784 90.468359 
L 273.730999 89.982371 
L 274.297075 89.992642 
L 274.873019 89.003259 
L 275.425624 86.479389 
L 276.546141 88.318362 
L 277.113208 89.15372 
L 277.657045 89.264737 
L 278.238506 89.756575 
L 278.791933 89.660633 
L 279.363457 88.895185 
L 279.938046 88.452931 
L 280.481284 88.46752 
L 281.060581 88.341458 
L 281.597039 89.587198 
L 282.178691 89.208324 
L 282.746889 84.437554 
L 283.283926 85.408482 
L 283.838542 82.447088 
L 284.425263 85.610344 
L 284.952995 86.318751 
L 285.560219 89.12685 
L 286.107694 88.751221 
L 287.236036 86.529446 
L 288.354203 86.384477 
L 288.916427 87.550253 
L 289.487676 86.378677 
L 290.05214 85.481388 
L 290.613037 87.382107 
L 291.161631 85.078661 
L 291.717331 87.195941 
L 292.301644 86.656559 
L 292.856578 88.474962 
L 293.417602 88.709695 
L 293.98361 88.345405 
L 294.538651 88.89613 
L 295.095612 91.470135 
L 295.672374 90.38096 
L 296.21775 90.038152 
L 296.794111 91.770823 
L 297.355086 90.958594 
L 297.911295 89.036743 
L 298.481028 88.732553 
L 299.03725 87.851411 
L 299.591413 88.018946 
L 300.167306 90.914213 
L 300.732814 88.416713 
L 301.288646 88.9668 
L 301.853788 89.939872 
L 302.409321 87.330399 
L 302.970008 88.352479 
L 304.100416 89.330948 
L 304.664224 91.359059 
L 305.191443 90.984157 
L 305.807244 92.07417 
L 306.319324 92.063044 
L 306.919381 90.151415 
L 307.477583 90.273853 
L 308.026002 89.095473 
L 308.588609 92.256705 
L 309.153527 90.717139 
L 309.722542 90.314028 
L 310.301988 88.478799 
L 310.842299 88.676768 
L 311.420425 88.730473 
L 311.962485 89.134849 
L 312.525329 88.511322 
L 313.099277 88.190963 
L 313.641875 89.340701 
L 314.222697 90.107981 
L 314.77379 91.16646 
L 315.349715 91.535103 
L 315.906101 89.790824 
L 316.453173 88.996288 
L 317.055365 89.160472 
L 317.588448 89.904816 
L 318.15269 91.637584 
L 318.711646 90.376452 
L 319.273715 91.047475 
L 320.399805 91.288649 
L 322.649552 92.284874 
L 323.215806 93.013758 
L 323.771538 93.011961 
L 324.343599 92.262349 
L 325.464519 91.629138 
L 326.019371 91.662829 
L 326.582269 93.847855 
L 327.139292 94.799273 
L 327.706224 94.379037 
L 328.836115 91.905148 
L 329.403732 91.739779 
L 329.962668 90.472738 
L 330.519581 92.33048 
L 331.094528 92.950566 
L 331.623601 91.156799 
L 332.215315 91.989485 
L 333.325579 90.636934 
L 333.894431 89.816407 
L 334.448086 90.14517 
L 335.021757 91.876205 
L 335.589175 90.084336 
L 336.14479 90.59976 
L 336.723804 88.305688 
L 337.256712 90.221251 
L 337.832198 89.347591 
L 338.410391 87.382721 
L 338.957207 86.814647 
L 339.51465 86.486587 
L 340.648481 86.393024 
L 341.205857 87.468185 
L 341.774894 85.752597 
L 342.330175 85.64814 
L 342.894635 87.047416 
L 343.467055 86.781563 
L 344.003286 87.326483 
L 344.589395 86.990831 
L 345.129121 88.430443 
L 345.708559 88.597887 
L 346.828767 86.681271 
L 347.395211 86.114751 
L 347.945437 87.103099 
L 348.522765 87.341899 
L 349.067274 87.151029 
L 349.636689 87.343535 
L 350.211133 88.616635 
L 350.764596 88.225278 
L 351.3183 88.499632 
L 351.880652 89.715817 
L 353.572642 89.40833 
L 354.129749 88.394617 
L 354.697967 88.56922 
L 355.251779 88.931943 
L 355.827343 88.546824 
L 356.390043 89.302079 
L 356.935477 88.514234 
L 357.521515 89.134216 
L 358.65464 91.52189 
L 359.194826 90.662543 
L 359.746722 90.3196 
L 360.320297 90.854606 
L 360.86827 90.933519 
L 361.450015 91.925165 
L 362.01647 90.623881 
L 363.692958 91.280338 
L 364.252816 90.598581 
L 365.380537 90.02551 
L 365.939022 91.376769 
L 366.510172 92.137898 
L 367.065687 91.179829 
L 367.628309 91.669756 
L 368.188222 91.564586 
L 368.755057 91.79665 
L 369.31508 92.262837 
L 370.435802 92.015246 
L 371.00009 92.253356 
L 371.566247 91.98054 
L 372.121332 92.119938 
L 372.687063 92.53917 
L 373.258343 92.228393 
L 373.812328 92.491221 
L 374.369213 93.109314 
L 374.937299 92.591759 
L 375.490119 93.278943 
L 376.62409 92.526326 
L 377.19126 93.341984 
L 377.739578 93.810979 
L 378.328164 94.166068 
L 378.846262 95.988853 
L 379.433081 94.374104 
L 380.560206 93.402286 
L 381.120486 93.761939 
L 381.676278 93.246438 
L 382.25006 93.827772 
L 382.806413 94.058618 
L 383.370817 92.499949 
L 384.493063 92.385547 
L 385.054998 93.285712 
L 385.618571 93.352713 
L 386.180819 93.262749 
L 386.745392 93.726919 
L 387.874384 93.778848 
L 388.42901 92.544251 
L 388.967244 91.889305 
L 389.554103 92.257498 
L 390.116623 91.885822 
L 390.678569 91.950444 
L 391.23722 91.669399 
L 391.7868 90.95981 
L 392.927527 91.236507 
L 393.489587 90.96277 
L 394.613888 91.037492 
L 395.121859 89.626755 
L 395.738408 86.063636 
L 396.862684 85.898598 
L 397.987098 88.601045 
L 398.548987 87.302719 
L 399.111398 86.901155 
L 399.673834 90.374573 
L 400.236056 91.0402 
L 400.798306 90.532156 
L 401.831423 90.637746 
L 401.831423 90.637746 
" clip-path="url(#p3dad8b7933)" style="fill: none; stroke: #1f77b4; stroke-width: 1.5; stroke-linecap: square"/>
   </g>
   <g id="line2d_72">
    <path d="M 83.256514 99.347864 
L 83.481654 115.166784 
L 83.706875 231.609273 
L 83.932015 118.138546 
L 84.382457 95.966004 
L 85.058039 80.341505 
L 85.732814 68.721947 
L 86.63386 58.296277 
L 87.308634 52.885874 
L 87.984216 48.952821 
L 88.884454 45.264267 
L 89.784691 42.759637 
L 90.684121 41.000959 
L 91.584359 39.796733 
L 92.259941 39.128605 
L 93.384834 38.415847 
L 94.285072 38.080127 
L 95.63462 37.88615 
L 96.760322 37.897672 
L 99.010108 38.292541 
L 100.58512 38.728414 
L 108.01006 41.593447 
L 120.834003 46.886614 
L 122.18436 47.395106 
L 124.658801 48.328567 
L 127.583361 49.37784 
L 128.933718 49.867414 
L 136.357851 52.351163 
L 138.607637 53.048279 
L 140.407304 53.608852 
L 146.932007 55.501547 
L 154.35614 57.500247 
L 155.931152 57.889593 
L 158.180938 58.456358 
L 159.98303 58.89371 
L 162.229583 59.442947 
L 165.154952 60.101806 
L 166.730772 60.479191 
L 171.458232 61.498329 
L 172.581509 61.744006 
L 195.976376 66.255648 
L 197.552196 66.504365 
L 200.703836 67.052936 
L 202.279656 67.303759 
L 204.978753 67.761987 
L 206.772763 68.038413 
L 209.027398 68.41143 
L 211.04768 68.713973 
L 213.076043 69.040266 
L 215.322597 69.365838 
L 217.124689 69.645913 
L 219.597514 69.995033 
L 221.399606 70.275123 
L 224.324974 70.670806 
L 225.900794 70.904159 
L 228.826163 71.299865 
L 230.401983 71.533744 
L 234.224356 72.02257 
L 235.573905 72.209701 
L 239.396278 72.699071 
L 240.745827 72.886212 
L 245.699559 73.492257 
L 247.049107 73.67941 
L 254.023121 74.49527 
L 255.146398 74.635671 
L 264.375046 75.68595 
L 300.594664 79.400098 
L 300.594664 79.400098 
" clip-path="url(#p3dad8b7933)" style="fill: none; stroke: #000000; stroke-width: 2.5; stroke-linecap: square"/>
   </g>
   <g id="line2d_73">
    <path d="M 83.256514 26.345235 
L 83.706875 23.063149 
L 84.157236 21.674696 
L 84.607113 21.314727 
L 85.058039 21.450018 
L 85.732814 22.087845 
L 89.109109 26.312261 
L 92.71006 31.060232 
L 95.860084 34.749478 
L 98.559989 37.498716 
L 100.135001 38.976703 
L 105.084692 43.038667 
L 112.959752 48.214391 
L 114.534763 49.090696 
L 116.559086 50.19794 
L 123.083789 53.361566 
L 135.457613 58.253791 
L 138.382982 59.24945 
L 139.957993 59.783191 
L 152.331817 63.501948 
L 153.906021 63.920684 
L 155.931152 64.456336 
L 157.954666 64.968429 
L 159.756758 65.435054 
L 162.908398 66.180348 
L 164.257947 66.506847 
L 168.977326 67.579732 
L 170.108684 67.836842 
L 182.925353 70.474961 
L 184.056711 70.684942 
L 187.652813 71.362087 
L 189.002362 71.59501 
L 192.606545 72.24927 
L 194.174284 72.505138 
L 197.099652 73.019207 
L 198.675472 73.275752 
L 200.930107 73.649278 
L 202.724118 73.929099 
L 204.978753 74.302972 
L 206.999035 74.606072 
L 209.027398 74.933432 
L 211.273952 75.259811 
L 213.076043 75.540324 
L 215.322597 75.866718 
L 216.898417 76.100378 
L 219.379323 76.450712 
L 220.947062 76.684381 
L 224.098702 77.104209 
L 225.674522 77.338217 
L 229.270625 77.804606 
L 230.628254 77.991756 
L 235.347633 78.599109 
L 236.697182 78.786595 
L 241.877185 79.416601 
L 243.000462 79.556897 
L 249.069389 80.281342 
L 250.200747 80.421646 
L 295.640932 85.170744 
L 296.77229 85.263878 
L 300.820935 85.638683 
L 300.820935 85.638683 
" clip-path="url(#p3dad8b7933)" style="fill: none; stroke-dasharray: 9.25,4; stroke-dashoffset: 0; stroke: #8b0000; stroke-width: 2.5"/>
   </g>
   <g id="legend_1">
    <g id="line2d_74">
     <path d="M 330.516418 23.898438 
L 340.516418 23.898438 
L 350.516418 23.898438 
" style="fill: none; stroke: #1f77b4; stroke-width: 1.5; stroke-linecap: square"/>
    </g>
    <g id="text_14">
     <!-- PSP -->
     <g transform="translate(358.516418 27.398438) scale(0.1 -0.1)">
      <defs>
       <path id="DejaVuSans-53" d="M 3425 4513 
L 3425 3897 
Q 3066 4069 2747 4153 
Q 2428 4238 2131 4238 
Q 1616 4238 1336 4038 
Q 1056 3838 1056 3469 
Q 1056 3159 1242 3001 
Q 1428 2844 1947 2747 
L 2328 2669 
Q 3034 2534 3370 2195 
Q 3706 1856 3706 1288 
Q 3706 609 3251 259 
Q 2797 -91 1919 -91 
Q 1588 -91 1214 -16 
Q 841 59 441 206 
L 441 856 
Q 825 641 1194 531 
Q 1563 422 1919 422 
Q 2459 422 2753 634 
Q 3047 847 3047 1241 
Q 3047 1584 2836 1778 
Q 2625 1972 2144 2069 
L 1759 2144 
Q 1053 2284 737 2584 
Q 422 2884 422 3419 
Q 422 4038 858 4394 
Q 1294 4750 2059 4750 
Q 2388 4750 2728 4690 
Q 3069 4631 3425 4513 
z
" transform="scale(0.015625)"/>
      </defs>
      <use xlink:href="#DejaVuSans-50"/>
      <use xlink:href="#DejaVuSans-53" x="60.302734"/>
      <use xlink:href="#DejaVuSans-50" x="123.779297"/>
     </g>
    </g>
    <g id="line2d_75">
     <path d="M 330.516418 38.576562 
L 340.516418 38.576562 
L 350.516418 38.576562 
" style="fill: none; stroke: #000000; stroke-width: 2.5; stroke-linecap: square"/>
    </g>
    <g id="text_15">
     <!-- Slow wind -->
     <g transform="translate(358.516418 42.076562) scale(0.1 -0.1)">
      <defs>
       <path id="DejaVuSans-6c" d="M 603 4863 
L 1178 4863 
L 1178 0 
L 603 0 
L 603 4863 
z
" transform="scale(0.015625)"/>
       <path id="DejaVuSans-6f" d="M 1959 3097 
Q 1497 3097 1228 2736 
Q 959 2375 959 1747 
Q 959 1119 1226 758 
Q 1494 397 1959 397 
Q 2419 397 2687 759 
Q 2956 1122 2956 1747 
Q 2956 2369 2687 2733 
Q 2419 3097 1959 3097 
z
M 1959 3584 
Q 2709 3584 3137 3096 
Q 3566 2609 3566 1747 
Q 3566 888 3137 398 
Q 2709 -91 1959 -91 
Q 1206 -91 779 398 
Q 353 888 353 1747 
Q 353 2609 779 3096 
Q 1206 3584 1959 3584 
z
" transform="scale(0.015625)"/>
       <path id="DejaVuSans-77" d="M 269 3500 
L 844 3500 
L 1563 769 
L 2278 3500 
L 2956 3500 
L 3675 769 
L 4391 3500 
L 4966 3500 
L 4050 0 
L 3372 0 
L 2619 2869 
L 1863 0 
L 1184 0 
L 269 3500 
z
" transform="scale(0.015625)"/>
       <path id="DejaVuSans-64" d="M 2906 2969 
L 2906 4863 
L 3481 4863 
L 3481 0 
L 2906 0 
L 2906 525 
Q 2725 213 2448 61 
Q 2172 -91 1784 -91 
Q 1150 -91 751 415 
Q 353 922 353 1747 
Q 353 2572 751 3078 
Q 1150 3584 1784 3584 
Q 2172 3584 2448 3432 
Q 2725 3281 2906 2969 
z
M 947 1747 
Q 947 1113 1208 752 
Q 1469 391 1925 391 
Q 2381 391 2643 752 
Q 2906 1113 2906 1747 
Q 2906 2381 2643 2742 
Q 2381 3103 1925 3103 
Q 1469 3103 1208 2742 
Q 947 2381 947 1747 
z
" transform="scale(0.015625)"/>
      </defs>
      <use xlink:href="#DejaVuSans-53"/>
      <use xlink:href="#DejaVuSans-6c" x="63.476562"/>
      <use xlink:href="#DejaVuSans-6f" x="91.259766"/>
      <use xlink:href="#DejaVuSans-77" x="152.441406"/>
      <use xlink:href="#DejaVuSans-20" x="234.228516"/>
      <use xlink:href="#DejaVuSans-77" x="266.015625"/>
      <use xlink:href="#DejaVuSans-69" x="347.802734"/>
      <use xlink:href="#DejaVuSans-6e" x="375.585938"/>
      <use xlink:href="#DejaVuSans-64" x="438.964844"/>
     </g>
    </g>
    <g id="line2d_76">
     <path d="M 330.516418 53.254687 
L 340.516418 53.254687 
L 350.516418 53.254687 
" style="fill: none; stroke-dasharray: 9.25,4; stroke-dashoffset: 0; stroke: #8b0000; stroke-width: 2.5"/>
    </g>
    <g id="text_16">
     <!-- Fast wind -->
     <g transform="translate(358.516418 56.754687) scale(0.1 -0.1)">
      <defs>
       <path id="DejaVuSans-46" d="M 628 4666 
L 3309 4666 
L 3309 4134 
L 1259 4134 
L 1259 2759 
L 3109 2759 
L 3109 2228 
L 1259 2228 
L 1259 0 
L 628 0 
L 628 4666 
z
" transform="scale(0.015625)"/>
      </defs>
      <use xlink:href="#DejaVuSans-46"/>
      <use xlink:href="#DejaVuSans-61" x="48.394531"/>
      <use xlink:href="#DejaVuSans-73" x="109.673828"/>
      <use xlink:href="#DejaVuSans-74" x="161.773438"/>
      <use xlink:href="#DejaVuSans-20" x="200.982422"/>
      <use xlink:href="#DejaVuSans-77" x="232.769531"/>
      <use xlink:href="#DejaVuSans-69" x="314.556641"/>
      <use xlink:href="#DejaVuSans-6e" x="342.339844"/>
      <use xlink:href="#DejaVuSans-64" x="405.71875"/>
     </g>
    </g>
   </g>
  </g>
 </g>
 <defs>
  <clipPath id="p3dad8b7933">
   <rect x="67.327768" y="10.8" width="350.4324" height="231.324"/>
  </clipPath>
 </defs>
</svg>
