<?xml version="1.0" encoding="utf-8" standalone="no"?>
<!DOCTYPE svg PUBLIC "-//W3C//DTD SVG 1.1//EN"
  "http://www.w3.org/Graphics/SVG/1.1/DTD/svg11.dtd">
<svg xmlns:xlink="http://www.w3.org/1999/xlink" width="432pt" height="288pt" viewBox="0 0 432 288" xmlns="http://www.w3.org/2000/svg" version="1.1">
 <metadata>
  <rdf:RDF xmlns:dc="http://purl.org/dc/elements/1.1/" xmlns:cc="http://creativecommons.org/ns#" xmlns:rdf="http://www.w3.org/1999/02/22-rdf-syntax-ns#">
   <cc:Work>
    <dc:type rdf:resource="http://purl.org/dc/dcmitype/StillImage"/>
    <dc:date>2022-12-05T13:48:23.257450</dc:date>
    <dc:format>image/svg+xml</dc:format>
    <dc:creator>
     <cc:Agent>
      <dc:title>Matplotlib v3.6.1, https://matplotlib.org/</dc:title>
     </cc:Agent>
    </dc:creator>
   </cc:Work>
  </rdf:RDF>
 </metadata>
 <defs>
  <style type="text/css">*{stroke-linejoin: round; stroke-linecap: butt}</style>
 </defs>
 <g id="figure_1">
  <g id="patch_1">
   <path d="M 0 288 
L 432 288 
L 432 0 
L 0 0 
z
" style="fill: #ffffff"/>
  </g>
  <g id="axes_1">
   <g id="patch_2">
    <path d="M 67.327768 242.124 
L 421.2 242.124 
L 421.2 10.8 
L 67.327768 10.8 
z
" style="fill: #ffffff"/>
   </g>
   <g id="patch_3">
    <path d="M 67.327768 242.124 
L 67.327768 10.8 
" style="fill: none; stroke: #000000; stroke-width: 1.5; stroke-linejoin: miter; stroke-linecap: square"/>
   </g>
   <g id="patch_4">
    <path d="M 421.2 242.124 
L 421.2 10.8 
" style="fill: none; stroke: #000000; stroke-width: 1.5; stroke-linejoin: miter; stroke-linecap: square"/>
   </g>
   <g id="patch_5">
    <path d="M 67.327768 242.124 
L 421.2 242.124 
" style="fill: none; stroke: #000000; stroke-width: 1.5; stroke-linejoin: miter; stroke-linecap: square"/>
   </g>
   <g id="patch_6">
    <path d="M 67.327768 10.8 
L 421.2 10.8 
" style="fill: none; stroke: #000000; stroke-width: 1.5; stroke-linejoin: miter; stroke-linecap: square"/>
   </g>
   <g id="PolyCollection_1">
    <path d="M 205.739668 69.086756 
L 205.739668 79.819438 
L 206.228328 81.870869 
L 207.090739 83.565243 
L 207.934461 72.160023 
L 208.797788 74.820986 
L 209.591892 74.390997 
L 210.434308 75.432703 
L 211.254685 74.343083 
L 212.130455 73.953252 
L 212.931628 73.662425 
L 213.76365 74.681003 
L 214.642906 76.653515 
L 215.427162 75.833202 
L 216.250283 76.394987 
L 217.132189 77.284835 
L 217.915254 77.622277 
L 218.7442 77.466104 
L 219.579109 78.066448 
L 220.404758 78.417717 
L 221.276395 79.501992 
L 222.093415 77.615769 
L 222.897544 78.556302 
L 223.796387 78.080665 
L 224.55007 78.440188 
L 225.40977 78.593824 
L 226.247932 79.667777 
L 227.080659 78.458512 
L 227.909563 78.208357 
L 228.719104 77.944086 
L 229.592288 79.977379 
L 230.385742 79.74353 
L 231.237196 82.765518 
L 232.032957 75.298715 
L 232.913901 71.945864 
L 233.74338 77.283616 
L 234.524281 76.076454 
L 235.385027 71.061366 
L 236.212039 69.932866 
L 237.102601 75.191774 
L 237.884464 79.875004 
L 238.696307 79.848271 
L 239.534474 78.175172 
L 240.4046 78.338092 
L 241.178104 80.092629 
L 242.157485 79.400072 
L 242.79797 79.60796 
L 243.696078 83.184877 
L 244.533718 84.572113 
L 245.361829 90.570585 
L 246.218885 87.06498 
L 247.018803 87.120698 
L 247.858596 86.640063 
L 248.669873 84.491201 
L 249.471166 83.483146 
L 250.327412 82.715153 
L 251.152494 83.036253 
L 252.002042 82.052446 
L 252.850584 80.829765 
L 253.649168 81.735438 
L 254.506515 82.945925 
L 255.337013 82.388327 
L 256.187582 82.065688 
L 256.964156 81.763101 
L 257.891337 82.30793 
L 258.640406 82.572591 
L 259.497241 81.091252 
L 260.328966 79.703058 
L 261.142169 82.064741 
L 261.984485 81.986093 
L 262.834182 81.727349 
L 263.67386 81.519049 
L 264.482562 80.922993 
L 265.386747 83.694608 
L 266.151739 83.455473 
L 267.009278 82.987955 
L 267.729633 83.956383 
L 268.638052 81.64851 
L 269.485435 83.172016 
L 270.305027 84.40241 
L 271.138352 83.037802 
L 271.879686 82.68096 
L 272.806335 83.761201 
L 273.627719 81.95129 
L 274.485707 83.081462 
L 275.315549 84.526282 
L 276.142241 84.662879 
L 276.979935 83.707279 
L 277.780746 85.107338 
L 278.567466 84.017287 
L 279.54381 84.754288 
L 280.309039 85.787889 
L 281.101192 84.78375 
L 281.94363 86.948929 
L 282.767226 84.895524 
L 283.616384 85.459729 
L 284.56451 24164.882595 
L 285.272289 24164.882595 
L 286.112944 118.357281 
L 286.919342 139.60341 
L 287.783626 101.381815 
L 288.554393 95.660245 
L 289.419965 24164.882595 
L 290.257131 24164.882595 
L 291.106814 110.577263 
L 291.939792 109.292242 
L 292.729239 146.69536 
L 293.568407 120.984773 
L 294.574055 24164.882595 
L 295.251096 24164.882595 
L 296.048705 24164.882595 
L 296.962271 112.012637 
L 297.757851 119.861658 
L 298.610735 105.272083 
L 299.400561 102.620929 
L 300.19419 99.64687 
L 300.954341 92.730153 
L 301.900192 24164.882595 
L 302.774615 106.780929 
L 303.601866 98.082913 
L 304.426719 105.035734 
L 305.177587 100.491939 
L 305.990276 102.258114 
L 306.87491 103.272178 
L 307.707685 121.765367 
L 308.535776 120.660012 
L 309.356425 100.465474 
L 310.284712 113.399424 
L 311.017249 24164.882595 
L 311.891574 99.207704 
L 312.701621 95.408669 
L 313.517631 97.644124 
L 314.374876 107.472068 
L 315.205129 99.812244 
L 315.993453 102.214572 
L 316.850585 101.970757 
L 317.654387 24164.882595 
L 318.511332 24164.882595 
L 319.34043 132.031218 
L 320.167008 119.397372 
L 321.034455 99.887402 
L 321.831025 111.042791 
L 322.64161 115.57256 
L 323.515053 110.436229 
L 324.325249 104.888274 
L 325.159549 113.88468 
L 326.006348 24164.882595 
L 326.824805 24164.882595 
L 327.611047 24164.882595 
L 328.334101 24164.882595 
L 329.444111 24164.882595 
L 330.15927 24164.882595 
L 330.96531 24164.882595 
L 331.815346 24164.882595 
L 332.695366 24164.882595 
L 333.464401 100.387955 
L 334.299971 99.786308 
L 335.151774 100.224744 
L 335.964217 101.599554 
L 336.780836 100.535558 
L 337.647866 99.847648 
L 338.463975 98.344855 
L 339.296974 99.14708 
L 340.12333 101.332524 
L 340.955778 97.98688 
L 341.817343 105.818078 
L 342.63756 105.214461 
L 343.453721 114.492624 
L 344.280146 24164.882595 
L 345.145586 24164.882595 
L 345.940209 103.427314 
L 346.764871 102.994908 
L 347.589171 101.52931 
L 348.441336 98.480081 
L 349.260264 103.967662 
L 350.130541 24164.882595 
L 350.951431 108.965961 
L 351.791393 99.154926 
L 352.584246 97.845261 
L 353.417061 108.122556 
L 354.260537 102.375056 
L 355.089009 99.298417 
L 355.942677 103.445998 
L 356.74584 103.310401 
L 357.580652 99.681073 
L 358.434593 95.561716 
L 359.29274 100.579024 
L 360.085971 108.745367 
L 360.914304 99.902184 
L 361.74873 104.888908 
L 362.513685 97.602452 
L 363.437877 99.452755 
L 364.227248 125.197622 
L 365.046787 104.633231 
L 365.889123 105.991491 
L 366.755533 100.989778 
L 367.557557 92.843382 
L 368.352781 92.888195 
L 369.214662 92.155824 
L 370.059212 95.365293 
L 370.854177 98.638658 
L 371.722021 97.738184 
L 372.533521 98.952302 
L 373.387998 95.956621 
L 374.246005 95.593946 
L 375.036217 96.703558 
L 375.904641 107.171178 
L 376.681432 100.24759 
L 377.554549 24164.882595 
L 378.394325 105.227736 
L 379.171146 93.111357 
L 379.985703 91.503631 
L 380.877978 97.15174 
L 381.596251 97.138384 
L 382.592874 91.011 
L 383.355781 93.605719 
L 384.305857 94.891471 
L 385.032128 92.254788 
L 385.851522 92.721721 
L 386.678181 94.390606 
L 387.509769 95.258668 
L 388.359446 95.901923 
L 389.197201 97.145454 
L 390.02726 98.349006 
L 390.826265 97.489466 
L 391.648331 95.551017 
L 392.519055 98.370751 
L 393.334278 104.88875 
L 394.167521 112.553591 
L 395.006964 109.18797 
L 395.825785 107.945262 
L 396.644372 107.849728 
L 397.505076 119.533194 
L 398.301813 114.118519 
L 399.165079 98.289317 
L 399.990653 100.129859 
L 400.811947 117.746939 
L 401.655363 109.250144 
L 402.473432 106.652689 
L 403.291063 108.98164 
L 404.151648 95.675152 
L 404.987493 106.087346 
L 404.987493 80.818535 
L 404.987493 80.818535 
L 404.151648 87.062602 
L 403.291063 79.778137 
L 402.473432 79.689317 
L 401.655363 81.29916 
L 400.811947 80.723562 
L 399.990653 85.613155 
L 399.165079 87.870519 
L 398.301813 82.617251 
L 397.505076 82.820058 
L 396.644372 84.749224 
L 395.825785 81.296105 
L 395.006964 80.344542 
L 394.167521 80.904458 
L 393.334278 81.452396 
L 392.519055 79.869118 
L 391.648331 79.888361 
L 390.826265 77.04238 
L 390.02726 79.657171 
L 389.197201 77.682001 
L 388.359446 78.662946 
L 387.509769 81.241949 
L 386.678181 79.850858 
L 385.851522 80.379958 
L 385.032128 80.570155 
L 384.305857 80.608709 
L 383.355781 86.037564 
L 382.592874 86.531389 
L 381.596251 77.519038 
L 380.877978 76.737246 
L 379.985703 73.599965 
L 379.171146 77.760989 
L 378.394325 76.069071 
L 377.554549 81.405126 
L 376.681432 84.210735 
L 375.904641 81.822662 
L 375.036217 84.223359 
L 374.246005 84.493186 
L 373.387998 85.717078 
L 372.533521 86.065066 
L 371.722021 86.734096 
L 370.854177 85.387448 
L 370.059212 86.547629 
L 369.214662 86.534598 
L 368.352781 83.415192 
L 367.557557 81.399492 
L 366.755533 84.377784 
L 365.889123 86.675269 
L 365.046787 87.215669 
L 364.227248 84.941073 
L 363.437877 88.982247 
L 362.513685 88.295503 
L 361.74873 84.098695 
L 360.914304 84.025781 
L 360.085971 82.567033 
L 359.29274 84.061199 
L 358.434593 86.364424 
L 357.580652 83.820739 
L 356.74584 85.296097 
L 355.942677 86.672773 
L 355.089009 88.863225 
L 354.260537 85.863836 
L 353.417061 82.425738 
L 352.584246 85.310038 
L 351.791393 85.768009 
L 350.951431 83.429681 
L 350.130541 79.897113 
L 349.260264 84.498142 
L 348.441336 85.746283 
L 347.589171 83.0696 
L 346.764871 83.732199 
L 345.940209 84.234926 
L 345.145586 77.148389 
L 344.280146 78.978029 
L 343.453721 81.979177 
L 342.63756 82.260083 
L 341.817343 81.09153 
L 340.955778 78.179725 
L 340.12333 81.87435 
L 339.296974 82.863921 
L 338.463975 84.391431 
L 337.647866 83.91872 
L 336.780836 83.031239 
L 335.964217 81.733484 
L 335.151774 84.45606 
L 334.299971 81.036216 
L 333.464401 83.458357 
L 332.695366 77.470176 
L 331.815346 71.356849 
L 330.96531 75.826365 
L 330.15927 79.426215 
L 329.444111 79.63385 
L 328.334101 70.207794 
L 327.611047 71.964119 
L 326.824805 75.68467 
L 326.006348 74.690947 
L 325.159549 80.018433 
L 324.325249 78.000077 
L 323.515053 78.887939 
L 322.64161 77.792681 
L 321.831025 77.81863 
L 321.034455 79.11085 
L 320.167008 76.796409 
L 319.34043 78.048429 
L 318.511332 78.069532 
L 317.654387 75.800294 
L 316.850585 77.90127 
L 315.993453 77.900559 
L 315.205129 78.980595 
L 314.374876 76.390301 
L 313.517631 79.359589 
L 312.701621 79.997659 
L 311.891574 77.80672 
L 311.017249 77.460722 
L 310.284712 79.763711 
L 309.356425 81.312828 
L 308.535776 78.783191 
L 307.707685 77.842434 
L 306.87491 76.854008 
L 305.990276 78.772953 
L 305.177587 79.43535 
L 304.426719 78.882264 
L 303.601866 80.020346 
L 302.774615 77.524833 
L 301.900192 77.001875 
L 300.954341 75.94714 
L 300.19419 77.360096 
L 299.400561 77.743627 
L 298.610735 77.453768 
L 297.757851 76.033876 
L 296.962271 77.798047 
L 296.048705 74.700566 
L 295.251096 76.607018 
L 294.574055 74.815711 
L 293.568407 74.105258 
L 292.729239 74.975398 
L 291.939792 74.934964 
L 291.106814 75.183922 
L 290.257131 75.549122 
L 289.419965 75.717885 
L 288.554393 72.707833 
L 287.783626 73.92341 
L 286.919342 74.918032 
L 286.112944 74.827603 
L 285.272289 75.570384 
L 284.56451 74.828374 
L 283.616384 80.014317 
L 282.767226 83.058578 
L 281.94363 83.100552 
L 281.101192 81.737356 
L 280.309039 81.787721 
L 279.54381 82.158498 
L 278.567466 80.392526 
L 277.780746 82.464775 
L 276.979935 79.344705 
L 276.142241 77.820312 
L 275.315549 80.481782 
L 274.485707 79.80542 
L 273.627719 77.017138 
L 272.806335 77.666457 
L 271.879686 77.457606 
L 271.138352 78.845166 
L 270.305027 76.08243 
L 269.485435 78.784802 
L 268.638052 76.061276 
L 267.729633 78.391234 
L 267.009278 77.278371 
L 266.151739 77.195412 
L 265.386747 77.919865 
L 264.482562 75.861559 
L 263.67386 76.589567 
L 262.834182 76.855159 
L 261.984485 79.377834 
L 261.142169 77.970156 
L 260.328966 74.456004 
L 259.497241 76.397861 
L 258.640406 75.331764 
L 257.891337 78.143537 
L 256.964156 75.518834 
L 256.187582 77.098088 
L 255.337013 78.26436 
L 254.506515 77.880214 
L 253.649168 76.439369 
L 252.850584 75.349381 
L 252.002042 75.101199 
L 251.152494 74.11601 
L 250.327412 72.610884 
L 249.471166 73.907675 
L 248.669873 72.650576 
L 247.858596 70.818295 
L 247.018803 68.917313 
L 246.218885 69.666478 
L 245.361829 69.849947 
L 244.533718 69.164813 
L 243.696078 70.829988 
L 242.79797 68.476298 
L 242.157485 70.413734 
L 241.178104 68.796683 
L 240.4046 67.796933 
L 239.534474 72.314322 
L 238.696307 65.484253 
L 237.884464 59.826907 
L 237.102601 61.964188 
L 236.212039 63.333277 
L 235.385027 61.094986 
L 234.524281 62.532747 
L 233.74338 66.249233 
L 232.913901 62.214241 
L 232.032957 66.121217 
L 231.237196 67.728033 
L 230.385742 71.14888 
L 229.592288 67.748898 
L 228.719104 68.213733 
L 227.909563 67.689021 
L 227.080659 71.116616 
L 226.247932 71.9234 
L 225.40977 72.776992 
L 224.55007 72.76566 
L 223.796387 72.168975 
L 222.897544 72.709332 
L 222.093415 70.464858 
L 221.276395 70.658268 
L 220.404758 73.088431 
L 219.579109 72.710619 
L 218.7442 74.693034 
L 217.915254 74.371663 
L 217.132189 73.2379 
L 216.250283 71.726768 
L 215.427162 72.174716 
L 214.642906 71.175821 
L 213.76365 70.725519 
L 212.931628 69.401577 
L 212.130455 69.846314 
L 211.254685 70.74488 
L 210.434308 69.304703 
L 209.591892 68.042142 
L 208.797788 68.458641 
L 207.934461 64.208163 
L 207.090739 68.507926 
L 206.228328 72.062924 
L 205.739668 69.086756 
z
" clip-path="url(#p7d68afdc21)" style="fill: #add8e6; stroke: #add8e6"/>
   </g>
   <g id="line2d_1">
    <path d="M 205.739668 73.141449 
L 206.228328 75.864326 
L 207.090739 73.548056 
L 207.934461 67.450876 
L 208.797788 71.166566 
L 209.591892 70.745297 
L 210.434308 71.929208 
L 211.254685 72.391078 
L 212.130455 71.700875 
L 212.931628 71.318007 
L 213.76365 72.518669 
L 214.642906 73.562533 
L 215.427162 73.845915 
L 216.250283 73.804353 
L 217.132189 75.068194 
L 217.915254 75.87207 
L 218.7442 75.988574 
L 219.579109 75.051729 
L 220.404758 75.419565 
L 221.276395 74.178025 
L 222.093415 73.444785 
L 222.897544 75.232217 
L 223.796387 74.715416 
L 224.55007 75.22533 
L 225.40977 75.288876 
L 226.247932 75.099325 
L 227.080659 74.160426 
L 227.909563 71.686705 
L 228.719104 71.993142 
L 229.592288 72.180096 
L 230.385742 74.592889 
L 231.237196 72.764328 
L 232.913901 65.994011 
L 233.74338 70.383109 
L 234.524281 67.263035 
L 235.385027 64.940935 
L 236.212039 66.12444 
L 237.102601 66.625205 
L 237.884464 65.664337 
L 239.534474 74.842266 
L 240.4046 71.800487 
L 241.178104 72.997862 
L 242.157485 73.976302 
L 242.79797 72.635351 
L 243.696078 75.291196 
L 244.533718 74.271651 
L 245.361829 75.772242 
L 247.018803 74.496382 
L 247.858596 76.001838 
L 248.669873 76.987966 
L 249.471166 77.642836 
L 250.327412 76.495213 
L 251.152494 77.658788 
L 252.002042 78.013515 
L 252.850584 77.737096 
L 253.649168 78.757996 
L 254.506515 80.111431 
L 255.337013 80.125793 
L 256.187582 79.291715 
L 256.964156 78.184876 
L 257.891337 80.021257 
L 258.640406 78.341864 
L 259.497241 78.485281 
L 260.328966 76.756132 
L 261.142169 79.819728 
L 261.984485 80.601436 
L 262.834182 79.012024 
L 263.67386 78.768532 
L 264.482562 78.091141 
L 265.386747 80.416352 
L 266.151739 79.867074 
L 267.009278 79.750945 
L 267.729633 80.810468 
L 268.638052 78.488696 
L 269.485435 80.751625 
L 270.305027 79.441455 
L 271.138352 80.734243 
L 271.879686 79.748769 
L 272.806335 80.279027 
L 273.627719 79.1979 
L 274.485707 81.316587 
L 275.315549 82.31109 
L 276.142241 80.695469 
L 276.979935 81.301731 
L 277.780746 83.703403 
L 278.567466 82.049748 
L 279.54381 83.376632 
L 280.309039 83.599044 
L 281.101192 83.150801 
L 281.94363 84.849956 
L 282.767226 83.937057 
L 283.616384 82.388981 
L 284.56451 82.350801 
L 285.272289 83.3933 
L 286.112944 81.961063 
L 286.919342 82.196466 
L 288.554393 78.879825 
L 289.419965 83.834874 
L 290.257131 83.09612 
L 291.106814 82.125397 
L 291.939792 81.839961 
L 292.729239 82.264861 
L 293.568407 81.284118 
L 294.574055 82.385438 
L 295.251096 84.609197 
L 296.048705 82.504775 
L 296.962271 84.697744 
L 297.757851 83.171977 
L 298.610735 84.029499 
L 299.400561 84.095978 
L 300.19419 83.462473 
L 300.954341 81.299334 
L 301.900192 85.164016 
L 302.774615 84.190381 
L 303.601866 85.578055 
L 304.426719 85.33865 
L 305.177587 85.398292 
L 305.990276 84.997884 
L 306.87491 83.330557 
L 307.707685 84.98199 
L 308.535776 85.888435 
L 309.356425 87.0297 
L 310.284712 86.64118 
L 311.017249 84.784635 
L 311.891574 83.810162 
L 312.701621 85.105195 
L 313.517631 84.950857 
L 314.374876 83.154454 
L 315.205129 84.916447 
L 315.993453 84.203189 
L 317.654387 84.110142 
L 318.511332 86.490672 
L 320.167008 83.914552 
L 321.034455 85.03999 
L 321.831025 84.679568 
L 322.64161 84.806078 
L 323.515053 85.674796 
L 324.325249 84.511295 
L 325.159549 86.904895 
L 326.006348 83.660803 
L 326.824805 83.645214 
L 327.611047 80.354607 
L 328.334101 78.658322 
L 329.444111 87.173311 
L 330.15927 87.898905 
L 331.815346 81.067975 
L 332.695366 85.627426 
L 333.464401 88.835169 
L 334.299971 86.695943 
L 335.151774 89.629916 
L 335.964217 87.54712 
L 336.780836 88.501858 
L 337.647866 89.121698 
L 338.463975 89.209106 
L 339.296974 88.13 
L 340.12333 87.633356 
L 340.955778 83.985584 
L 341.817343 87.43081 
L 342.63756 88.432274 
L 343.453721 88.810068 
L 344.280146 86.725171 
L 345.145586 84.892379 
L 345.940209 89.957338 
L 346.764871 89.464371 
L 347.589171 88.68693 
L 348.441336 90.295814 
L 349.260264 90.258693 
L 350.130541 87.223378 
L 350.951431 89.837197 
L 351.791393 90.464143 
L 352.584246 89.813585 
L 353.417061 88.84622 
L 354.260537 91.169625 
L 355.089009 92.838191 
L 355.942677 92.023313 
L 356.74584 90.84643 
L 357.580652 89.011296 
L 358.434593 89.989579 
L 359.29274 89.368128 
L 360.085971 89.025333 
L 360.914304 89.219253 
L 361.74873 90.029502 
L 362.513685 91.952844 
L 363.437877 92.966763 
L 364.227248 92.014102 
L 365.046787 92.6724 
L 365.889123 92.414831 
L 366.755533 89.700895 
L 367.557557 85.638193 
L 368.352781 87.120823 
L 369.214662 88.974596 
L 370.059212 90.059519 
L 370.854177 90.053699 
L 371.722021 90.860096 
L 372.533521 90.649674 
L 374.246005 88.644259 
L 375.036217 88.714047 
L 375.904641 88.21478 
L 376.681432 89.433124 
L 377.554549 89.101038 
L 378.394325 82.728889 
L 379.171146 82.857097 
L 379.985703 79.13328 
L 380.877978 82.621496 
L 381.596251 83.29985 
L 382.592874 88.534829 
L 383.355781 89.156061 
L 384.305857 85.494708 
L 385.032128 84.869074 
L 386.678181 84.789004 
L 387.509769 86.072887 
L 388.359446 84.090787 
L 389.197201 83.441726 
L 390.02726 85.308473 
L 390.826265 82.930727 
L 391.648331 85.042748 
L 392.519055 85.492631 
L 393.334278 87.672576 
L 394.167521 87.696098 
L 395.006964 86.985476 
L 395.825785 87.78987 
L 396.644372 90.936174 
L 397.505076 89.803251 
L 398.301813 89.401863 
L 399.165079 91.841043 
L 399.990653 90.546666 
L 400.811947 87.715848 
L 401.655363 87.883667 
L 402.473432 86.205948 
L 403.291063 86.440598 
L 404.151648 90.512096 
L 404.987493 87.204041 
L 404.987493 87.204041 
" clip-path="url(#p7d68afdc21)" style="fill: none; stroke: #1f77b4; stroke-width: 1.5; stroke-linecap: square"/>
   </g>
   <g id="line2d_2">
    <path d="M 83.41287 99.347864 
L 83.745774 115.166784 
L 84.078797 231.609273 
L 84.411701 118.138546 
L 84.744725 104.145852 
L 85.409935 89.945152 
L 87.074455 68.721947 
L 88.073406 60.455702 
L 89.072357 54.475424 
L 90.070114 50.148926 
L 91.069065 46.936352 
L 92.066821 44.553101 
L 93.065772 42.759637 
L 94.063528 41.379356 
L 95.061284 40.337754 
L 96.392422 39.328589 
L 97.72356 38.645359 
L 99.386885 38.135944 
L 101.383593 37.892974 
L 104.044674 37.943826 
L 108.370275 38.597344 
L 114.691389 40.11925 
L 123.008015 42.453425 
L 126.002478 43.316123 
L 143.634681 48.085275 
L 147.626901 49.07261 
L 167.91899 53.608852 
L 177.234567 55.437725 
L 187.546706 57.327333 
L 189.8756 57.715558 
L 193.530852 58.347839 
L 196.195519 58.784094 
L 198.860185 59.222593 
L 202.516632 59.793304 
L 204.846721 60.169574 
L 210.498681 61.009679 
L 212.494194 61.322049 
L 228.470241 63.536751 
L 239.439584 64.960562 
L 246.095274 65.777418 
L 248.090787 66.00414 
L 254.4119 66.756416 
L 256.74199 67.006712 
L 260.733014 67.464411 
L 263.063103 67.715758 
L 266.384974 68.085674 
L 269.04964 68.364684 
L 272.048883 68.690964 
L 275.036177 68.993517 
L 277.700843 69.273069 
L 281.022714 69.598648 
L 283.68738 69.878729 
L 287.343827 70.227856 
L 289.673916 70.4612 
L 293.664941 70.833875 
L 295.99503 71.067742 
L 300.655209 71.486473 
L 302.650721 71.673081 
L 307.633527 72.115879 
L 309.640988 72.303012 
L 317.28846 72.955275 
L 319.283973 73.142934 
L 327.266022 73.795548 
L 328.926957 73.935429 
L 338.247314 74.682231 
L 339.908249 74.822632 
L 353.21963 75.849898 
L 401.446502 79.18982 
L 403.119386 79.282781 
L 404.780322 79.400098 
L 404.780322 79.400098 
" clip-path="url(#p7d68afdc21)" style="fill: none; stroke: #000000; stroke-width: 2.5; stroke-linecap: square"/>
   </g>
   <g id="line2d_3">
    <path d="M 83.41287 26.345235 
L 83.745774 24.295428 
L 84.411701 22.20478 
L 84.744725 21.674696 
L 85.077748 21.414606 
L 85.409935 21.314727 
L 86.076699 21.450018 
L 87.074455 22.087845 
L 91.401252 25.737203 
L 99.720267 32.969809 
L 105.043625 36.855741 
L 112.694682 41.468325 
L 119.349178 44.800233 
L 123.673584 46.712699 
L 132.655779 50.19794 
L 142.303543 53.361566 
L 160.60012 58.253791 
L 164.925722 59.24945 
L 166.921234 59.713822 
L 186.548949 63.688238 
L 189.210031 64.153135 
L 192.204494 64.689133 
L 195.526365 65.247731 
L 198.191031 65.715037 
L 203.520363 66.553347 
L 205.515875 66.880523 
L 236.117713 71.152095 
L 238.113225 71.384683 
L 243.765185 72.085454 
L 245.760697 72.318721 
L 249.751722 72.785597 
L 252.081811 73.042138 
L 256.072836 73.5097 
L 258.737502 73.789188 
L 262.059373 74.163057 
L 265.058615 74.466153 
L 268.057858 74.793181 
L 271.045152 75.09662 
L 273.709818 75.37713 
L 277.366266 75.726458 
L 280.030932 76.007308 
L 284.021957 76.38025 
L 286.352046 76.614247 
L 290.677647 77.010803 
L 293.007736 77.24481 
L 299.316901 77.804606 
L 301.324362 77.991756 
L 308.302681 78.599109 
L 310.298193 78.786595 
L 317.957614 79.416601 
L 319.61855 79.556897 
L 328.59238 80.281342 
L 330.265265 80.421646 
L 397.455477 85.170744 
L 399.128362 85.263878 
L 405.114899 85.638683 
L 405.114899 85.638683 
" clip-path="url(#p7d68afdc21)" style="fill: none; stroke-dasharray: 9.25,4; stroke-dashoffset: 0; stroke: #8b0000; stroke-width: 2.5"/>
   </g>
   <g id="legend_1">
    <g id="line2d_4">
     <path d="M 333.95625 23.898438 
L 343.95625 23.898438 
L 353.95625 23.898438 
" style="fill: none; stroke: #1f77b4; stroke-width: 1.5; stroke-linecap: square"/>
    </g>
    <g id="text_1">
     <!-- PSP -->
     <g transform="translate(361.95625 27.398438) scale(0.1 -0.1)">
      <defs>
       <path id="DejaVuSans-50" d="M 1259 4147 
L 1259 2394 
L 2053 2394 
Q 2494 2394 2734 2622 
Q 2975 2850 2975 3272 
Q 2975 3691 2734 3919 
Q 2494 4147 2053 4147 
L 1259 4147 
z
M 628 4666 
L 2053 4666 
Q 2838 4666 3239 4311 
Q 3641 3956 3641 3272 
Q 3641 2581 3239 2228 
Q 2838 1875 2053 1875 
L 1259 1875 
L 1259 0 
L 628 0 
L 628 4666 
z
" transform="scale(0.015625)"/>
       <path id="DejaVuSans-53" d="M 3425 4513 
L 3425 3897 
Q 3066 4069 2747 4153 
Q 2428 4238 2131 4238 
Q 1616 4238 1336 4038 
Q 1056 3838 1056 3469 
Q 1056 3159 1242 3001 
Q 1428 2844 1947 2747 
L 2328 2669 
Q 3034 2534 3370 2195 
Q 3706 1856 3706 1288 
Q 3706 609 3251 259 
Q 2797 -91 1919 -91 
Q 1588 -91 1214 -16 
Q 841 59 441 206 
L 441 856 
Q 825 641 1194 531 
Q 1563 422 1919 422 
Q 2459 422 2753 634 
Q 3047 847 3047 1241 
Q 3047 1584 2836 1778 
Q 2625 1972 2144 2069 
L 1759 2144 
Q 1053 2284 737 2584 
Q 422 2884 422 3419 
Q 422 4038 858 4394 
Q 1294 4750 2059 4750 
Q 2388 4750 2728 4690 
Q 3069 4631 3425 4513 
z
" transform="scale(0.015625)"/>
      </defs>
      <use xlink:href="#DejaVuSans-50"/>
      <use xlink:href="#DejaVuSans-53" x="60.302734"/>
      <use xlink:href="#DejaVuSans-50" x="123.779297"/>
     </g>
    </g>
    <g id="line2d_5">
     <path d="M 333.95625 38.576562 
L 343.95625 38.576562 
L 353.95625 38.576562 
" style="fill: none; stroke: #000000; stroke-width: 2.5; stroke-linecap: square"/>
    </g>
    <g id="text_2">
     <!-- Slow wind -->
     <g transform="translate(361.95625 42.076562) scale(0.1 -0.1)">
      <defs>
       <path id="DejaVuSans-6c" d="M 603 4863 
L 1178 4863 
L 1178 0 
L 603 0 
L 603 4863 
z
" transform="scale(0.015625)"/>
       <path id="DejaVuSans-6f" d="M 1959 3097 
Q 1497 3097 1228 2736 
Q 959 2375 959 1747 
Q 959 1119 1226 758 
Q 1494 397 1959 397 
Q 2419 397 2687 759 
Q 2956 1122 2956 1747 
Q 2956 2369 2687 2733 
Q 2419 3097 1959 3097 
z
M 1959 3584 
Q 2709 3584 3137 3096 
Q 3566 2609 3566 1747 
Q 3566 888 3137 398 
Q 2709 -91 1959 -91 
Q 1206 -91 779 398 
Q 353 888 353 1747 
Q 353 2609 779 3096 
Q 1206 3584 1959 3584 
z
" transform="scale(0.015625)"/>
       <path id="DejaVuSans-77" d="M 269 3500 
L 844 3500 
L 1563 769 
L 2278 3500 
L 2956 3500 
L 3675 769 
L 4391 3500 
L 4966 3500 
L 4050 0 
L 3372 0 
L 2619 2869 
L 1863 0 
L 1184 0 
L 269 3500 
z
" transform="scale(0.015625)"/>
       <path id="DejaVuSans-20" transform="scale(0.015625)"/>
       <path id="DejaVuSans-69" d="M 603 3500 
L 1178 3500 
L 1178 0 
L 603 0 
L 603 3500 
z
M 603 4863 
L 1178 4863 
L 1178 4134 
L 603 4134 
L 603 4863 
z
" transform="scale(0.015625)"/>
       <path id="DejaVuSans-6e" d="M 3513 2113 
L 3513 0 
L 2938 0 
L 2938 2094 
Q 2938 2591 2744 2837 
Q 2550 3084 2163 3084 
Q 1697 3084 1428 2787 
Q 1159 2491 1159 1978 
L 1159 0 
L 581 0 
L 581 3500 
L 1159 3500 
L 1159 2956 
Q 1366 3272 1645 3428 
Q 1925 3584 2291 3584 
Q 2894 3584 3203 3211 
Q 3513 2838 3513 2113 
z
" transform="scale(0.015625)"/>
       <path id="DejaVuSans-64" d="M 2906 2969 
L 2906 4863 
L 3481 4863 
L 3481 0 
L 2906 0 
L 2906 525 
Q 2725 213 2448 61 
Q 2172 -91 1784 -91 
Q 1150 -91 751 415 
Q 353 922 353 1747 
Q 353 2572 751 3078 
Q 1150 3584 1784 3584 
Q 2172 3584 2448 3432 
Q 2725 3281 2906 2969 
z
M 947 1747 
Q 947 1113 1208 752 
Q 1469 391 1925 391 
Q 2381 391 2643 752 
Q 2906 1113 2906 1747 
Q 2906 2381 2643 2742 
Q 2381 3103 1925 3103 
Q 1469 3103 1208 2742 
Q 947 2381 947 1747 
z
" transform="scale(0.015625)"/>
      </defs>
      <use xlink:href="#DejaVuSans-53"/>
      <use xlink:href="#DejaVuSans-6c" x="63.476562"/>
      <use xlink:href="#DejaVuSans-6f" x="91.259766"/>
      <use xlink:href="#DejaVuSans-77" x="152.441406"/>
      <use xlink:href="#DejaVuSans-20" x="234.228516"/>
      <use xlink:href="#DejaVuSans-77" x="266.015625"/>
      <use xlink:href="#DejaVuSans-69" x="347.802734"/>
      <use xlink:href="#DejaVuSans-6e" x="375.585938"/>
      <use xlink:href="#DejaVuSans-64" x="438.964844"/>
     </g>
    </g>
    <g id="line2d_6">
     <path d="M 333.95625 53.254687 
L 343.95625 53.254687 
L 353.95625 53.254687 
" style="fill: none; stroke-dasharray: 9.25,4; stroke-dashoffset: 0; stroke: #8b0000; stroke-width: 2.5"/>
    </g>
    <g id="text_3">
     <!-- Fast wind -->
     <g transform="translate(361.95625 56.754687) scale(0.1 -0.1)">
      <defs>
       <path id="DejaVuSans-46" d="M 628 4666 
L 3309 4666 
L 3309 4134 
L 1259 4134 
L 1259 2759 
L 3109 2759 
L 3109 2228 
L 1259 2228 
L 1259 0 
L 628 0 
L 628 4666 
z
" transform="scale(0.015625)"/>
       <path id="DejaVuSans-61" d="M 2194 1759 
Q 1497 1759 1228 1600 
Q 959 1441 959 1056 
Q 959 750 1161 570 
Q 1363 391 1709 391 
Q 2188 391 2477 730 
Q 2766 1069 2766 1631 
L 2766 1759 
L 2194 1759 
z
M 3341 1997 
L 3341 0 
L 2766 0 
L 2766 531 
Q 2569 213 2275 61 
Q 1981 -91 1556 -91 
Q 1019 -91 701 211 
Q 384 513 384 1019 
Q 384 1609 779 1909 
Q 1175 2209 1959 2209 
L 2766 2209 
L 2766 2266 
Q 2766 2663 2505 2880 
Q 2244 3097 1772 3097 
Q 1472 3097 1187 3025 
Q 903 2953 641 2809 
L 641 3341 
Q 956 3463 1253 3523 
Q 1550 3584 1831 3584 
Q 2591 3584 2966 3190 
Q 3341 2797 3341 1997 
z
" transform="scale(0.015625)"/>
       <path id="DejaVuSans-73" d="M 2834 3397 
L 2834 2853 
Q 2591 2978 2328 3040 
Q 2066 3103 1784 3103 
Q 1356 3103 1142 2972 
Q 928 2841 928 2578 
Q 928 2378 1081 2264 
Q 1234 2150 1697 2047 
L 1894 2003 
Q 2506 1872 2764 1633 
Q 3022 1394 3022 966 
Q 3022 478 2636 193 
Q 2250 -91 1575 -91 
Q 1294 -91 989 -36 
Q 684 19 347 128 
L 347 722 
Q 666 556 975 473 
Q 1284 391 1588 391 
Q 1994 391 2212 530 
Q 2431 669 2431 922 
Q 2431 1156 2273 1281 
Q 2116 1406 1581 1522 
L 1381 1569 
Q 847 1681 609 1914 
Q 372 2147 372 2553 
Q 372 3047 722 3315 
Q 1072 3584 1716 3584 
Q 2034 3584 2315 3537 
Q 2597 3491 2834 3397 
z
" transform="scale(0.015625)"/>
       <path id="DejaVuSans-74" d="M 1172 4494 
L 1172 3500 
L 2356 3500 
L 2356 3053 
L 1172 3053 
L 1172 1153 
Q 1172 725 1289 603 
Q 1406 481 1766 481 
L 2356 481 
L 2356 0 
L 1766 0 
Q 1100 0 847 248 
Q 594 497 594 1153 
L 594 3053 
L 172 3053 
L 172 3500 
L 594 3500 
L 594 4494 
L 1172 4494 
z
" transform="scale(0.015625)"/>
      </defs>
      <use xlink:href="#DejaVuSans-46"/>
      <use xlink:href="#DejaVuSans-61" x="48.394531"/>
      <use xlink:href="#DejaVuSans-73" x="109.673828"/>
      <use xlink:href="#DejaVuSans-74" x="161.773438"/>
      <use xlink:href="#DejaVuSans-20" x="200.982422"/>
      <use xlink:href="#DejaVuSans-77" x="232.769531"/>
      <use xlink:href="#DejaVuSans-69" x="314.556641"/>
      <use xlink:href="#DejaVuSans-6e" x="342.339844"/>
      <use xlink:href="#DejaVuSans-64" x="405.71875"/>
     </g>
    </g>
   </g>
   <g id="matplotlib.axis_1">
    <g id="xtick_1">
     <g id="line2d_7">
      <defs>
       <path id="mdc28cf0016" d="M 0 0 
L 0 -3.5 
" style="stroke: #000000; stroke-width: 1.5"/>
      </defs>
      <g>
       <use xlink:href="#mdc28cf0016" x="72.868081" y="242.124" style="stroke: #000000; stroke-width: 1.5"/>
      </g>
     </g>
     <g id="line2d_8">
      <defs>
       <path id="me777ce44cd" d="M 0 0 
L 0 3.5 
" style="stroke: #000000; stroke-width: 1.5"/>
      </defs>
      <g>
       <use xlink:href="#me777ce44cd" x="72.868081" y="10.8" style="stroke: #000000; stroke-width: 1.5"/>
      </g>
     </g>
     <g id="text_4">
      <!-- 0 -->
      <g transform="translate(69.050581 254.742125) scale(0.12 -0.12)">
       <defs>
        <path id="DejaVuSans-30" d="M 2034 4250 
Q 1547 4250 1301 3770 
Q 1056 3291 1056 2328 
Q 1056 1369 1301 889 
Q 1547 409 2034 409 
Q 2525 409 2770 889 
Q 3016 1369 3016 2328 
Q 3016 3291 2770 3770 
Q 2525 4250 2034 4250 
z
M 2034 4750 
Q 2819 4750 3233 4129 
Q 3647 3509 3647 2328 
Q 3647 1150 3233 529 
Q 2819 -91 2034 -91 
Q 1250 -91 836 529 
Q 422 1150 422 2328 
Q 422 3509 836 4129 
Q 1250 4750 2034 4750 
z
" transform="scale(0.015625)"/>
       </defs>
       <use xlink:href="#DejaVuSans-30"/>
      </g>
     </g>
    </g>
    <g id="xtick_2">
     <g id="line2d_9">
      <g>
       <use xlink:href="#mdc28cf0016" x="114.433287" y="242.124" style="stroke: #000000; stroke-width: 1.5"/>
      </g>
     </g>
     <g id="line2d_10">
      <g>
       <use xlink:href="#me777ce44cd" x="114.433287" y="10.8" style="stroke: #000000; stroke-width: 1.5"/>
      </g>
     </g>
     <g id="text_5">
      <!-- 5 -->
      <g transform="translate(110.615787 254.742125) scale(0.12 -0.12)">
       <defs>
        <path id="DejaVuSans-35" d="M 691 4666 
L 3169 4666 
L 3169 4134 
L 1269 4134 
L 1269 2991 
Q 1406 3038 1543 3061 
Q 1681 3084 1819 3084 
Q 2600 3084 3056 2656 
Q 3513 2228 3513 1497 
Q 3513 744 3044 326 
Q 2575 -91 1722 -91 
Q 1428 -91 1123 -41 
Q 819 9 494 109 
L 494 744 
Q 775 591 1075 516 
Q 1375 441 1709 441 
Q 2250 441 2565 725 
Q 2881 1009 2881 1497 
Q 2881 1984 2565 2268 
Q 2250 2553 1709 2553 
Q 1456 2553 1204 2497 
Q 953 2441 691 2322 
L 691 4666 
z
" transform="scale(0.015625)"/>
       </defs>
       <use xlink:href="#DejaVuSans-35"/>
      </g>
     </g>
    </g>
    <g id="xtick_3">
     <g id="line2d_11">
      <g>
       <use xlink:href="#mdc28cf0016" x="155.998493" y="242.124" style="stroke: #000000; stroke-width: 1.5"/>
      </g>
     </g>
     <g id="line2d_12">
      <g>
       <use xlink:href="#me777ce44cd" x="155.998493" y="10.8" style="stroke: #000000; stroke-width: 1.5"/>
      </g>
     </g>
     <g id="text_6">
      <!-- 10 -->
      <g transform="translate(148.363493 254.742125) scale(0.12 -0.12)">
       <defs>
        <path id="DejaVuSans-31" d="M 794 531 
L 1825 531 
L 1825 4091 
L 703 3866 
L 703 4441 
L 1819 4666 
L 2450 4666 
L 2450 531 
L 3481 531 
L 3481 0 
L 794 0 
L 794 531 
z
" transform="scale(0.015625)"/>
       </defs>
       <use xlink:href="#DejaVuSans-31"/>
       <use xlink:href="#DejaVuSans-30" x="63.623047"/>
      </g>
     </g>
    </g>
    <g id="xtick_4">
     <g id="line2d_13">
      <g>
       <use xlink:href="#mdc28cf0016" x="197.563699" y="242.124" style="stroke: #000000; stroke-width: 1.5"/>
      </g>
     </g>
     <g id="line2d_14">
      <g>
       <use xlink:href="#me777ce44cd" x="197.563699" y="10.8" style="stroke: #000000; stroke-width: 1.5"/>
      </g>
     </g>
     <g id="text_7">
      <!-- 15 -->
      <g transform="translate(189.928699 254.742125) scale(0.12 -0.12)">
       <use xlink:href="#DejaVuSans-31"/>
       <use xlink:href="#DejaVuSans-35" x="63.623047"/>
      </g>
     </g>
    </g>
    <g id="xtick_5">
     <g id="line2d_15">
      <g>
       <use xlink:href="#mdc28cf0016" x="239.128905" y="242.124" style="stroke: #000000; stroke-width: 1.5"/>
      </g>
     </g>
     <g id="line2d_16">
      <g>
       <use xlink:href="#me777ce44cd" x="239.128905" y="10.8" style="stroke: #000000; stroke-width: 1.5"/>
      </g>
     </g>
     <g id="text_8">
      <!-- 20 -->
      <g transform="translate(231.493905 254.742125) scale(0.12 -0.12)">
       <defs>
        <path id="DejaVuSans-32" d="M 1228 531 
L 3431 531 
L 3431 0 
L 469 0 
L 469 531 
Q 828 903 1448 1529 
Q 2069 2156 2228 2338 
Q 2531 2678 2651 2914 
Q 2772 3150 2772 3378 
Q 2772 3750 2511 3984 
Q 2250 4219 1831 4219 
Q 1534 4219 1204 4116 
Q 875 4013 500 3803 
L 500 4441 
Q 881 4594 1212 4672 
Q 1544 4750 1819 4750 
Q 2544 4750 2975 4387 
Q 3406 4025 3406 3419 
Q 3406 3131 3298 2873 
Q 3191 2616 2906 2266 
Q 2828 2175 2409 1742 
Q 1991 1309 1228 531 
z
" transform="scale(0.015625)"/>
       </defs>
       <use xlink:href="#DejaVuSans-32"/>
       <use xlink:href="#DejaVuSans-30" x="63.623047"/>
      </g>
     </g>
    </g>
    <g id="xtick_6">
     <g id="line2d_17">
      <g>
       <use xlink:href="#mdc28cf0016" x="280.694111" y="242.124" style="stroke: #000000; stroke-width: 1.5"/>
      </g>
     </g>
     <g id="line2d_18">
      <g>
       <use xlink:href="#me777ce44cd" x="280.694111" y="10.8" style="stroke: #000000; stroke-width: 1.5"/>
      </g>
     </g>
     <g id="text_9">
      <!-- 25 -->
      <g transform="translate(273.059111 254.742125) scale(0.12 -0.12)">
       <use xlink:href="#DejaVuSans-32"/>
       <use xlink:href="#DejaVuSans-35" x="63.623047"/>
      </g>
     </g>
    </g>
    <g id="xtick_7">
     <g id="line2d_19">
      <g>
       <use xlink:href="#mdc28cf0016" x="322.259317" y="242.124" style="stroke: #000000; stroke-width: 1.5"/>
      </g>
     </g>
     <g id="line2d_20">
      <g>
       <use xlink:href="#me777ce44cd" x="322.259317" y="10.8" style="stroke: #000000; stroke-width: 1.5"/>
      </g>
     </g>
     <g id="text_10">
      <!-- 30 -->
      <g transform="translate(314.624317 254.742125) scale(0.12 -0.12)">
       <defs>
        <path id="DejaVuSans-33" d="M 2597 2516 
Q 3050 2419 3304 2112 
Q 3559 1806 3559 1356 
Q 3559 666 3084 287 
Q 2609 -91 1734 -91 
Q 1441 -91 1130 -33 
Q 819 25 488 141 
L 488 750 
Q 750 597 1062 519 
Q 1375 441 1716 441 
Q 2309 441 2620 675 
Q 2931 909 2931 1356 
Q 2931 1769 2642 2001 
Q 2353 2234 1838 2234 
L 1294 2234 
L 1294 2753 
L 1863 2753 
Q 2328 2753 2575 2939 
Q 2822 3125 2822 3475 
Q 2822 3834 2567 4026 
Q 2313 4219 1838 4219 
Q 1578 4219 1281 4162 
Q 984 4106 628 3988 
L 628 4550 
Q 988 4650 1302 4700 
Q 1616 4750 1894 4750 
Q 2613 4750 3031 4423 
Q 3450 4097 3450 3541 
Q 3450 3153 3228 2886 
Q 3006 2619 2597 2516 
z
" transform="scale(0.015625)"/>
       </defs>
       <use xlink:href="#DejaVuSans-33"/>
       <use xlink:href="#DejaVuSans-30" x="63.623047"/>
      </g>
     </g>
    </g>
    <g id="xtick_8">
     <g id="line2d_21">
      <g>
       <use xlink:href="#mdc28cf0016" x="363.824523" y="242.124" style="stroke: #000000; stroke-width: 1.5"/>
      </g>
     </g>
     <g id="line2d_22">
      <g>
       <use xlink:href="#me777ce44cd" x="363.824523" y="10.8" style="stroke: #000000; stroke-width: 1.5"/>
      </g>
     </g>
     <g id="text_11">
      <!-- 35 -->
      <g transform="translate(356.189523 254.742125) scale(0.12 -0.12)">
       <use xlink:href="#DejaVuSans-33"/>
       <use xlink:href="#DejaVuSans-35" x="63.623047"/>
      </g>
     </g>
    </g>
    <g id="xtick_9">
     <g id="line2d_23">
      <g>
       <use xlink:href="#mdc28cf0016" x="405.38973" y="242.124" style="stroke: #000000; stroke-width: 1.5"/>
      </g>
     </g>
     <g id="line2d_24">
      <g>
       <use xlink:href="#me777ce44cd" x="405.38973" y="10.8" style="stroke: #000000; stroke-width: 1.5"/>
      </g>
     </g>
     <g id="text_12">
      <!-- 40 -->
      <g transform="translate(397.75473 254.742125) scale(0.12 -0.12)">
       <defs>
        <path id="DejaVuSans-34" d="M 2419 4116 
L 825 1625 
L 2419 1625 
L 2419 4116 
z
M 2253 4666 
L 3047 4666 
L 3047 1625 
L 3713 1625 
L 3713 1100 
L 3047 1100 
L 3047 0 
L 2419 0 
L 2419 1100 
L 313 1100 
L 313 1709 
L 2253 4666 
z
" transform="scale(0.015625)"/>
       </defs>
       <use xlink:href="#DejaVuSans-34"/>
       <use xlink:href="#DejaVuSans-30" x="63.623047"/>
      </g>
     </g>
    </g>
    <g id="xtick_10">
     <g id="line2d_25">
      <defs>
       <path id="m48699d6fcc" d="M 0 0 
L 0 -2 
" style="stroke: #000000; stroke-width: 1.5"/>
      </defs>
      <g>
       <use xlink:href="#m48699d6fcc" x="81.181122" y="242.124" style="stroke: #000000; stroke-width: 1.5"/>
      </g>
     </g>
     <g id="line2d_26">
      <defs>
       <path id="m866bc02869" d="M 0 0 
L 0 2 
" style="stroke: #000000; stroke-width: 1.5"/>
      </defs>
      <g>
       <use xlink:href="#m866bc02869" x="81.181122" y="10.8" style="stroke: #000000; stroke-width: 1.5"/>
      </g>
     </g>
    </g>
    <g id="xtick_11">
     <g id="line2d_27">
      <g>
       <use xlink:href="#m48699d6fcc" x="89.494163" y="242.124" style="stroke: #000000; stroke-width: 1.5"/>
      </g>
     </g>
     <g id="line2d_28">
      <g>
       <use xlink:href="#m866bc02869" x="89.494163" y="10.8" style="stroke: #000000; stroke-width: 1.5"/>
      </g>
     </g>
    </g>
    <g id="xtick_12">
     <g id="line2d_29">
      <g>
       <use xlink:href="#m48699d6fcc" x="97.807204" y="242.124" style="stroke: #000000; stroke-width: 1.5"/>
      </g>
     </g>
     <g id="line2d_30">
      <g>
       <use xlink:href="#m866bc02869" x="97.807204" y="10.8" style="stroke: #000000; stroke-width: 1.5"/>
      </g>
     </g>
    </g>
    <g id="xtick_13">
     <g id="line2d_31">
      <g>
       <use xlink:href="#m48699d6fcc" x="106.120246" y="242.124" style="stroke: #000000; stroke-width: 1.5"/>
      </g>
     </g>
     <g id="line2d_32">
      <g>
       <use xlink:href="#m866bc02869" x="106.120246" y="10.8" style="stroke: #000000; stroke-width: 1.5"/>
      </g>
     </g>
    </g>
    <g id="xtick_14">
     <g id="line2d_33">
      <g>
       <use xlink:href="#m48699d6fcc" x="122.746328" y="242.124" style="stroke: #000000; stroke-width: 1.5"/>
      </g>
     </g>
     <g id="line2d_34">
      <g>
       <use xlink:href="#m866bc02869" x="122.746328" y="10.8" style="stroke: #000000; stroke-width: 1.5"/>
      </g>
     </g>
    </g>
    <g id="xtick_15">
     <g id="line2d_35">
      <g>
       <use xlink:href="#m48699d6fcc" x="131.059369" y="242.124" style="stroke: #000000; stroke-width: 1.5"/>
      </g>
     </g>
     <g id="line2d_36">
      <g>
       <use xlink:href="#m866bc02869" x="131.059369" y="10.8" style="stroke: #000000; stroke-width: 1.5"/>
      </g>
     </g>
    </g>
    <g id="xtick_16">
     <g id="line2d_37">
      <g>
       <use xlink:href="#m48699d6fcc" x="139.372411" y="242.124" style="stroke: #000000; stroke-width: 1.5"/>
      </g>
     </g>
     <g id="line2d_38">
      <g>
       <use xlink:href="#m866bc02869" x="139.372411" y="10.8" style="stroke: #000000; stroke-width: 1.5"/>
      </g>
     </g>
    </g>
    <g id="xtick_17">
     <g id="line2d_39">
      <g>
       <use xlink:href="#m48699d6fcc" x="147.685452" y="242.124" style="stroke: #000000; stroke-width: 1.5"/>
      </g>
     </g>
     <g id="line2d_40">
      <g>
       <use xlink:href="#m866bc02869" x="147.685452" y="10.8" style="stroke: #000000; stroke-width: 1.5"/>
      </g>
     </g>
    </g>
    <g id="xtick_18">
     <g id="line2d_41">
      <g>
       <use xlink:href="#m48699d6fcc" x="164.311534" y="242.124" style="stroke: #000000; stroke-width: 1.5"/>
      </g>
     </g>
     <g id="line2d_42">
      <g>
       <use xlink:href="#m866bc02869" x="164.311534" y="10.8" style="stroke: #000000; stroke-width: 1.5"/>
      </g>
     </g>
    </g>
    <g id="xtick_19">
     <g id="line2d_43">
      <g>
       <use xlink:href="#m48699d6fcc" x="172.624575" y="242.124" style="stroke: #000000; stroke-width: 1.5"/>
      </g>
     </g>
     <g id="line2d_44">
      <g>
       <use xlink:href="#m866bc02869" x="172.624575" y="10.8" style="stroke: #000000; stroke-width: 1.5"/>
      </g>
     </g>
    </g>
    <g id="xtick_20">
     <g id="line2d_45">
      <g>
       <use xlink:href="#m48699d6fcc" x="180.937617" y="242.124" style="stroke: #000000; stroke-width: 1.5"/>
      </g>
     </g>
     <g id="line2d_46">
      <g>
       <use xlink:href="#m866bc02869" x="180.937617" y="10.8" style="stroke: #000000; stroke-width: 1.5"/>
      </g>
     </g>
    </g>
    <g id="xtick_21">
     <g id="line2d_47">
      <g>
       <use xlink:href="#m48699d6fcc" x="189.250658" y="242.124" style="stroke: #000000; stroke-width: 1.5"/>
      </g>
     </g>
     <g id="line2d_48">
      <g>
       <use xlink:href="#m866bc02869" x="189.250658" y="10.8" style="stroke: #000000; stroke-width: 1.5"/>
      </g>
     </g>
    </g>
    <g id="xtick_22">
     <g id="line2d_49">
      <g>
       <use xlink:href="#m48699d6fcc" x="205.87674" y="242.124" style="stroke: #000000; stroke-width: 1.5"/>
      </g>
     </g>
     <g id="line2d_50">
      <g>
       <use xlink:href="#m866bc02869" x="205.87674" y="10.8" style="stroke: #000000; stroke-width: 1.5"/>
      </g>
     </g>
    </g>
    <g id="xtick_23">
     <g id="line2d_51">
      <g>
       <use xlink:href="#m48699d6fcc" x="214.189782" y="242.124" style="stroke: #000000; stroke-width: 1.5"/>
      </g>
     </g>
     <g id="line2d_52">
      <g>
       <use xlink:href="#m866bc02869" x="214.189782" y="10.8" style="stroke: #000000; stroke-width: 1.5"/>
      </g>
     </g>
    </g>
    <g id="xtick_24">
     <g id="line2d_53">
      <g>
       <use xlink:href="#m48699d6fcc" x="222.502823" y="242.124" style="stroke: #000000; stroke-width: 1.5"/>
      </g>
     </g>
     <g id="line2d_54">
      <g>
       <use xlink:href="#m866bc02869" x="222.502823" y="10.8" style="stroke: #000000; stroke-width: 1.5"/>
      </g>
     </g>
    </g>
    <g id="xtick_25">
     <g id="line2d_55">
      <g>
       <use xlink:href="#m48699d6fcc" x="230.815864" y="242.124" style="stroke: #000000; stroke-width: 1.5"/>
      </g>
     </g>
     <g id="line2d_56">
      <g>
       <use xlink:href="#m866bc02869" x="230.815864" y="10.8" style="stroke: #000000; stroke-width: 1.5"/>
      </g>
     </g>
    </g>
    <g id="xtick_26">
     <g id="line2d_57">
      <g>
       <use xlink:href="#m48699d6fcc" x="247.441946" y="242.124" style="stroke: #000000; stroke-width: 1.5"/>
      </g>
     </g>
     <g id="line2d_58">
      <g>
       <use xlink:href="#m866bc02869" x="247.441946" y="10.8" style="stroke: #000000; stroke-width: 1.5"/>
      </g>
     </g>
    </g>
    <g id="xtick_27">
     <g id="line2d_59">
      <g>
       <use xlink:href="#m48699d6fcc" x="255.754988" y="242.124" style="stroke: #000000; stroke-width: 1.5"/>
      </g>
     </g>
     <g id="line2d_60">
      <g>
       <use xlink:href="#m866bc02869" x="255.754988" y="10.8" style="stroke: #000000; stroke-width: 1.5"/>
      </g>
     </g>
    </g>
    <g id="xtick_28">
     <g id="line2d_61">
      <g>
       <use xlink:href="#m48699d6fcc" x="264.068029" y="242.124" style="stroke: #000000; stroke-width: 1.5"/>
      </g>
     </g>
     <g id="line2d_62">
      <g>
       <use xlink:href="#m866bc02869" x="264.068029" y="10.8" style="stroke: #000000; stroke-width: 1.5"/>
      </g>
     </g>
    </g>
    <g id="xtick_29">
     <g id="line2d_63">
      <g>
       <use xlink:href="#m48699d6fcc" x="272.38107" y="242.124" style="stroke: #000000; stroke-width: 1.5"/>
      </g>
     </g>
     <g id="line2d_64">
      <g>
       <use xlink:href="#m866bc02869" x="272.38107" y="10.8" style="stroke: #000000; stroke-width: 1.5"/>
      </g>
     </g>
    </g>
    <g id="xtick_30">
     <g id="line2d_65">
      <g>
       <use xlink:href="#m48699d6fcc" x="289.007153" y="242.124" style="stroke: #000000; stroke-width: 1.5"/>
      </g>
     </g>
     <g id="line2d_66">
      <g>
       <use xlink:href="#m866bc02869" x="289.007153" y="10.8" style="stroke: #000000; stroke-width: 1.5"/>
      </g>
     </g>
    </g>
    <g id="xtick_31">
     <g id="line2d_67">
      <g>
       <use xlink:href="#m48699d6fcc" x="297.320194" y="242.124" style="stroke: #000000; stroke-width: 1.5"/>
      </g>
     </g>
     <g id="line2d_68">
      <g>
       <use xlink:href="#m866bc02869" x="297.320194" y="10.8" style="stroke: #000000; stroke-width: 1.5"/>
      </g>
     </g>
    </g>
    <g id="xtick_32">
     <g id="line2d_69">
      <g>
       <use xlink:href="#m48699d6fcc" x="305.633235" y="242.124" style="stroke: #000000; stroke-width: 1.5"/>
      </g>
     </g>
     <g id="line2d_70">
      <g>
       <use xlink:href="#m866bc02869" x="305.633235" y="10.8" style="stroke: #000000; stroke-width: 1.5"/>
      </g>
     </g>
    </g>
    <g id="xtick_33">
     <g id="line2d_71">
      <g>
       <use xlink:href="#m48699d6fcc" x="313.946276" y="242.124" style="stroke: #000000; stroke-width: 1.5"/>
      </g>
     </g>
     <g id="line2d_72">
      <g>
       <use xlink:href="#m866bc02869" x="313.946276" y="10.8" style="stroke: #000000; stroke-width: 1.5"/>
      </g>
     </g>
    </g>
    <g id="xtick_34">
     <g id="line2d_73">
      <g>
       <use xlink:href="#m48699d6fcc" x="330.572359" y="242.124" style="stroke: #000000; stroke-width: 1.5"/>
      </g>
     </g>
     <g id="line2d_74">
      <g>
       <use xlink:href="#m866bc02869" x="330.572359" y="10.8" style="stroke: #000000; stroke-width: 1.5"/>
      </g>
     </g>
    </g>
    <g id="xtick_35">
     <g id="line2d_75">
      <g>
       <use xlink:href="#m48699d6fcc" x="338.8854" y="242.124" style="stroke: #000000; stroke-width: 1.5"/>
      </g>
     </g>
     <g id="line2d_76">
      <g>
       <use xlink:href="#m866bc02869" x="338.8854" y="10.8" style="stroke: #000000; stroke-width: 1.5"/>
      </g>
     </g>
    </g>
    <g id="xtick_36">
     <g id="line2d_77">
      <g>
       <use xlink:href="#m48699d6fcc" x="347.198441" y="242.124" style="stroke: #000000; stroke-width: 1.5"/>
      </g>
     </g>
     <g id="line2d_78">
      <g>
       <use xlink:href="#m866bc02869" x="347.198441" y="10.8" style="stroke: #000000; stroke-width: 1.5"/>
      </g>
     </g>
    </g>
    <g id="xtick_37">
     <g id="line2d_79">
      <g>
       <use xlink:href="#m48699d6fcc" x="355.511482" y="242.124" style="stroke: #000000; stroke-width: 1.5"/>
      </g>
     </g>
     <g id="line2d_80">
      <g>
       <use xlink:href="#m866bc02869" x="355.511482" y="10.8" style="stroke: #000000; stroke-width: 1.5"/>
      </g>
     </g>
    </g>
    <g id="xtick_38">
     <g id="line2d_81">
      <g>
       <use xlink:href="#m48699d6fcc" x="372.137565" y="242.124" style="stroke: #000000; stroke-width: 1.5"/>
      </g>
     </g>
     <g id="line2d_82">
      <g>
       <use xlink:href="#m866bc02869" x="372.137565" y="10.8" style="stroke: #000000; stroke-width: 1.5"/>
      </g>
     </g>
    </g>
    <g id="xtick_39">
     <g id="line2d_83">
      <g>
       <use xlink:href="#m48699d6fcc" x="380.450606" y="242.124" style="stroke: #000000; stroke-width: 1.5"/>
      </g>
     </g>
     <g id="line2d_84">
      <g>
       <use xlink:href="#m866bc02869" x="380.450606" y="10.8" style="stroke: #000000; stroke-width: 1.5"/>
      </g>
     </g>
    </g>
    <g id="xtick_40">
     <g id="line2d_85">
      <g>
       <use xlink:href="#m48699d6fcc" x="388.763647" y="242.124" style="stroke: #000000; stroke-width: 1.5"/>
      </g>
     </g>
     <g id="line2d_86">
      <g>
       <use xlink:href="#m866bc02869" x="388.763647" y="10.8" style="stroke: #000000; stroke-width: 1.5"/>
      </g>
     </g>
    </g>
    <g id="xtick_41">
     <g id="line2d_87">
      <g>
       <use xlink:href="#m48699d6fcc" x="397.076688" y="242.124" style="stroke: #000000; stroke-width: 1.5"/>
      </g>
     </g>
     <g id="line2d_88">
      <g>
       <use xlink:href="#m866bc02869" x="397.076688" y="10.8" style="stroke: #000000; stroke-width: 1.5"/>
      </g>
     </g>
    </g>
    <g id="xtick_42">
     <g id="line2d_89">
      <g>
       <use xlink:href="#m48699d6fcc" x="413.702771" y="242.124" style="stroke: #000000; stroke-width: 1.5"/>
      </g>
     </g>
     <g id="line2d_90">
      <g>
       <use xlink:href="#m866bc02869" x="413.702771" y="10.8" style="stroke: #000000; stroke-width: 1.5"/>
      </g>
     </g>
    </g>
    <g id="text_13">
     <!-- Distance [R$_\odot$] -->
     <g transform="translate(202.023884 270.355875) scale(0.12 -0.12)">
      <defs>
       <path id="DejaVuSans-44" d="M 1259 4147 
L 1259 519 
L 2022 519 
Q 2988 519 3436 956 
Q 3884 1394 3884 2338 
Q 3884 3275 3436 3711 
Q 2988 4147 2022 4147 
L 1259 4147 
z
M 628 4666 
L 1925 4666 
Q 3281 4666 3915 4102 
Q 4550 3538 4550 2338 
Q 4550 1131 3912 565 
Q 3275 0 1925 0 
L 628 0 
L 628 4666 
z
" transform="scale(0.015625)"/>
       <path id="DejaVuSans-63" d="M 3122 3366 
L 3122 2828 
Q 2878 2963 2633 3030 
Q 2388 3097 2138 3097 
Q 1578 3097 1268 2742 
Q 959 2388 959 1747 
Q 959 1106 1268 751 
Q 1578 397 2138 397 
Q 2388 397 2633 464 
Q 2878 531 3122 666 
L 3122 134 
Q 2881 22 2623 -34 
Q 2366 -91 2075 -91 
Q 1284 -91 818 406 
Q 353 903 353 1747 
Q 353 2603 823 3093 
Q 1294 3584 2113 3584 
Q 2378 3584 2631 3529 
Q 2884 3475 3122 3366 
z
" transform="scale(0.015625)"/>
       <path id="DejaVuSans-65" d="M 3597 1894 
L 3597 1613 
L 953 1613 
Q 991 1019 1311 708 
Q 1631 397 2203 397 
Q 2534 397 2845 478 
Q 3156 559 3463 722 
L 3463 178 
Q 3153 47 2828 -22 
Q 2503 -91 2169 -91 
Q 1331 -91 842 396 
Q 353 884 353 1716 
Q 353 2575 817 3079 
Q 1281 3584 2069 3584 
Q 2775 3584 3186 3129 
Q 3597 2675 3597 1894 
z
M 3022 2063 
Q 3016 2534 2758 2815 
Q 2500 3097 2075 3097 
Q 1594 3097 1305 2825 
Q 1016 2553 972 2059 
L 3022 2063 
z
" transform="scale(0.015625)"/>
       <path id="DejaVuSans-5b" d="M 550 4863 
L 1875 4863 
L 1875 4416 
L 1125 4416 
L 1125 -397 
L 1875 -397 
L 1875 -844 
L 550 -844 
L 550 4863 
z
" transform="scale(0.015625)"/>
       <path id="DejaVuSans-52" d="M 2841 2188 
Q 3044 2119 3236 1894 
Q 3428 1669 3622 1275 
L 4263 0 
L 3584 0 
L 2988 1197 
Q 2756 1666 2539 1819 
Q 2322 1972 1947 1972 
L 1259 1972 
L 1259 0 
L 628 0 
L 628 4666 
L 2053 4666 
Q 2853 4666 3247 4331 
Q 3641 3997 3641 3322 
Q 3641 2881 3436 2590 
Q 3231 2300 2841 2188 
z
M 1259 4147 
L 1259 2491 
L 2053 2491 
Q 2509 2491 2742 2702 
Q 2975 2913 2975 3322 
Q 2975 3731 2742 3939 
Q 2509 4147 2053 4147 
L 1259 4147 
z
" transform="scale(0.015625)"/>
       <path id="DejaVuSans-2299" d="M 2350 2403 
L 3013 2403 
L 3013 1609 
L 2350 1609 
L 2350 2403 
z
M 3306 3522 
Q 3016 3644 2681 3644 
Q 2347 3644 2056 3522 
Q 1769 3400 1531 3163 
Q 1291 2922 1172 2634 
Q 1053 2347 1053 2006 
Q 1053 1675 1172 1387 
Q 1291 1100 1531 859 
Q 1769 622 2056 500 
Q 2347 378 2681 378 
Q 3016 378 3306 500 
Q 3594 622 3831 859 
Q 4072 1100 4190 1387 
Q 4309 1675 4309 2006 
Q 4309 2347 4190 2634 
Q 4072 2922 3831 3163 
Q 3594 3400 3306 3522 
z
M 1878 3956 
Q 2250 4113 2681 4113 
Q 3113 4113 3484 3956 
Q 3856 3800 4163 3494 
Q 4472 3184 4625 2813 
Q 4778 2444 4778 2006 
Q 4778 1578 4625 1206 
Q 4472 838 4163 528 
Q 3856 222 3484 65 
Q 3113 -91 2681 -91 
Q 2250 -91 1878 65 
Q 1506 222 1200 528 
Q 891 838 738 1206 
Q 584 1578 584 2006 
Q 584 2444 738 2813 
Q 891 3184 1200 3494 
Q 1506 3800 1878 3956 
z
" transform="scale(0.015625)"/>
       <path id="DejaVuSans-5d" d="M 1947 4863 
L 1947 -844 
L 622 -844 
L 622 -397 
L 1369 -397 
L 1369 4416 
L 622 4416 
L 622 4863 
L 1947 4863 
z
" transform="scale(0.015625)"/>
      </defs>
      <use xlink:href="#DejaVuSans-44" transform="translate(0 0.015625)"/>
      <use xlink:href="#DejaVuSans-69" transform="translate(77.001953 0.015625)"/>
      <use xlink:href="#DejaVuSans-73" transform="translate(104.785156 0.015625)"/>
      <use xlink:href="#DejaVuSans-74" transform="translate(156.884766 0.015625)"/>
      <use xlink:href="#DejaVuSans-61" transform="translate(196.09375 0.015625)"/>
      <use xlink:href="#DejaVuSans-6e" transform="translate(257.373047 0.015625)"/>
      <use xlink:href="#DejaVuSans-63" transform="translate(320.751953 0.015625)"/>
      <use xlink:href="#DejaVuSans-65" transform="translate(375.732422 0.015625)"/>
      <use xlink:href="#DejaVuSans-20" transform="translate(437.255859 0.015625)"/>
      <use xlink:href="#DejaVuSans-5b" transform="translate(469.042969 0.015625)"/>
      <use xlink:href="#DejaVuSans-52" transform="translate(504.931641 0.015625)"/>
      <use xlink:href="#DejaVuSans-2299" transform="translate(589.008789 -16.390625) scale(0.7)"/>
      <use xlink:href="#DejaVuSans-5d" transform="translate(664.033203 0.015625)"/>
     </g>
    </g>
   </g>
   <g id="matplotlib.axis_2">
    <g id="ytick_1">
     <g id="line2d_91">
      <defs>
       <path id="m9231abaf58" d="M 0 0 
L 3.5 0 
" style="stroke: #000000; stroke-width: 1.5"/>
      </defs>
      <g>
       <use xlink:href="#m9231abaf58" x="67.327768" y="202.252458" style="stroke: #000000; stroke-width: 1.5"/>
      </g>
     </g>
     <g id="line2d_92">
      <defs>
       <path id="mf5ceb87c49" d="M 0 0 
L -3.5 0 
" style="stroke: #000000; stroke-width: 1.5"/>
      </defs>
      <g>
       <use xlink:href="#mf5ceb87c49" x="421.2" y="202.252458" style="stroke: #000000; stroke-width: 1.5"/>
      </g>
     </g>
     <g id="text_14">
      <!-- $\mathdefault{10^{-12}}$ -->
      <g transform="translate(30.347768 206.811521) scale(0.12 -0.12)">
       <defs>
        <path id="DejaVuSans-2212" d="M 678 2272 
L 4684 2272 
L 4684 1741 
L 678 1741 
L 678 2272 
z
" transform="scale(0.015625)"/>
       </defs>
       <use xlink:href="#DejaVuSans-31" transform="translate(0 0.765625)"/>
       <use xlink:href="#DejaVuSans-30" transform="translate(63.623047 0.765625)"/>
       <use xlink:href="#DejaVuSans-2212" transform="translate(128.203125 39.046875) scale(0.7)"/>
       <use xlink:href="#DejaVuSans-31" transform="translate(186.855469 39.046875) scale(0.7)"/>
       <use xlink:href="#DejaVuSans-32" transform="translate(231.391602 39.046875) scale(0.7)"/>
      </g>
     </g>
    </g>
    <g id="ytick_2">
     <g id="line2d_93">
      <g>
       <use xlink:href="#m9231abaf58" x="67.327768" y="153.74511" style="stroke: #000000; stroke-width: 1.5"/>
      </g>
     </g>
     <g id="line2d_94">
      <g>
       <use xlink:href="#mf5ceb87c49" x="421.2" y="153.74511" style="stroke: #000000; stroke-width: 1.5"/>
      </g>
     </g>
     <g id="text_15">
      <!-- $\mathdefault{10^{-10}}$ -->
      <g transform="translate(30.347768 158.304173) scale(0.12 -0.12)">
       <use xlink:href="#DejaVuSans-31" transform="translate(0 0.765625)"/>
       <use xlink:href="#DejaVuSans-30" transform="translate(63.623047 0.765625)"/>
       <use xlink:href="#DejaVuSans-2212" transform="translate(128.203125 39.046875) scale(0.7)"/>
       <use xlink:href="#DejaVuSans-31" transform="translate(186.855469 39.046875) scale(0.7)"/>
       <use xlink:href="#DejaVuSans-30" transform="translate(231.391602 39.046875) scale(0.7)"/>
      </g>
     </g>
    </g>
    <g id="ytick_3">
     <g id="line2d_95">
      <g>
       <use xlink:href="#m9231abaf58" x="67.327768" y="105.237762" style="stroke: #000000; stroke-width: 1.5"/>
      </g>
     </g>
     <g id="line2d_96">
      <g>
       <use xlink:href="#mf5ceb87c49" x="421.2" y="105.237762" style="stroke: #000000; stroke-width: 1.5"/>
      </g>
     </g>
     <g id="text_16">
      <!-- $\mathdefault{10^{-8}}$ -->
      <g transform="translate(35.627768 109.796824) scale(0.12 -0.12)">
       <defs>
        <path id="DejaVuSans-38" d="M 2034 2216 
Q 1584 2216 1326 1975 
Q 1069 1734 1069 1313 
Q 1069 891 1326 650 
Q 1584 409 2034 409 
Q 2484 409 2743 651 
Q 3003 894 3003 1313 
Q 3003 1734 2745 1975 
Q 2488 2216 2034 2216 
z
M 1403 2484 
Q 997 2584 770 2862 
Q 544 3141 544 3541 
Q 544 4100 942 4425 
Q 1341 4750 2034 4750 
Q 2731 4750 3128 4425 
Q 3525 4100 3525 3541 
Q 3525 3141 3298 2862 
Q 3072 2584 2669 2484 
Q 3125 2378 3379 2068 
Q 3634 1759 3634 1313 
Q 3634 634 3220 271 
Q 2806 -91 2034 -91 
Q 1263 -91 848 271 
Q 434 634 434 1313 
Q 434 1759 690 2068 
Q 947 2378 1403 2484 
z
M 1172 3481 
Q 1172 3119 1398 2916 
Q 1625 2713 2034 2713 
Q 2441 2713 2670 2916 
Q 2900 3119 2900 3481 
Q 2900 3844 2670 4047 
Q 2441 4250 2034 4250 
Q 1625 4250 1398 4047 
Q 1172 3844 1172 3481 
z
" transform="scale(0.015625)"/>
       </defs>
       <use xlink:href="#DejaVuSans-31" transform="translate(0 0.765625)"/>
       <use xlink:href="#DejaVuSans-30" transform="translate(63.623047 0.765625)"/>
       <use xlink:href="#DejaVuSans-2212" transform="translate(128.203125 39.046875) scale(0.7)"/>
       <use xlink:href="#DejaVuSans-38" transform="translate(186.855469 39.046875) scale(0.7)"/>
      </g>
     </g>
    </g>
    <g id="ytick_4">
     <g id="line2d_97">
      <g>
       <use xlink:href="#m9231abaf58" x="67.327768" y="56.730413" style="stroke: #000000; stroke-width: 1.5"/>
      </g>
     </g>
     <g id="line2d_98">
      <g>
       <use xlink:href="#mf5ceb87c49" x="421.2" y="56.730413" style="stroke: #000000; stroke-width: 1.5"/>
      </g>
     </g>
     <g id="text_17">
      <!-- $\mathdefault{10^{-6}}$ -->
      <g transform="translate(35.627768 61.289476) scale(0.12 -0.12)">
       <defs>
        <path id="DejaVuSans-36" d="M 2113 2584 
Q 1688 2584 1439 2293 
Q 1191 2003 1191 1497 
Q 1191 994 1439 701 
Q 1688 409 2113 409 
Q 2538 409 2786 701 
Q 3034 994 3034 1497 
Q 3034 2003 2786 2293 
Q 2538 2584 2113 2584 
z
M 3366 4563 
L 3366 3988 
Q 3128 4100 2886 4159 
Q 2644 4219 2406 4219 
Q 1781 4219 1451 3797 
Q 1122 3375 1075 2522 
Q 1259 2794 1537 2939 
Q 1816 3084 2150 3084 
Q 2853 3084 3261 2657 
Q 3669 2231 3669 1497 
Q 3669 778 3244 343 
Q 2819 -91 2113 -91 
Q 1303 -91 875 529 
Q 447 1150 447 2328 
Q 447 3434 972 4092 
Q 1497 4750 2381 4750 
Q 2619 4750 2861 4703 
Q 3103 4656 3366 4563 
z
" transform="scale(0.015625)"/>
       </defs>
       <use xlink:href="#DejaVuSans-31" transform="translate(0 0.765625)"/>
       <use xlink:href="#DejaVuSans-30" transform="translate(63.623047 0.765625)"/>
       <use xlink:href="#DejaVuSans-2212" transform="translate(128.203125 39.046875) scale(0.7)"/>
       <use xlink:href="#DejaVuSans-36" transform="translate(186.855469 39.046875) scale(0.7)"/>
      </g>
     </g>
    </g>
    <g id="text_18">
     <!-- P$_{ram}$ [Pa] -->
     <g transform="translate(23.852143 152.622) rotate(-90) scale(0.12 -0.12)">
      <defs>
       <path id="DejaVuSans-Oblique-72" d="M 2853 2969 
Q 2766 3016 2653 3041 
Q 2541 3066 2413 3066 
Q 1953 3066 1609 2717 
Q 1266 2369 1153 1784 
L 800 0 
L 225 0 
L 909 3500 
L 1484 3500 
L 1375 2956 
Q 1603 3259 1920 3421 
Q 2238 3584 2597 3584 
Q 2691 3584 2781 3573 
Q 2872 3563 2963 3538 
L 2853 2969 
z
" transform="scale(0.015625)"/>
       <path id="DejaVuSans-Oblique-61" d="M 3438 1997 
L 3047 0 
L 2472 0 
L 2578 531 
Q 2325 219 2001 64 
Q 1678 -91 1281 -91 
Q 834 -91 548 182 
Q 263 456 263 884 
Q 263 1497 752 1853 
Q 1241 2209 2100 2209 
L 2900 2209 
L 2931 2363 
Q 2938 2388 2941 2417 
Q 2944 2447 2944 2509 
Q 2944 2788 2717 2942 
Q 2491 3097 2081 3097 
Q 1800 3097 1504 3025 
Q 1209 2953 897 2809 
L 997 3341 
Q 1322 3463 1633 3523 
Q 1944 3584 2234 3584 
Q 2853 3584 3176 3315 
Q 3500 3047 3500 2534 
Q 3500 2431 3484 2292 
Q 3469 2153 3438 1997 
z
M 2816 1759 
L 2241 1759 
Q 1534 1759 1195 1570 
Q 856 1381 856 984 
Q 856 709 1029 553 
Q 1203 397 1509 397 
Q 1978 397 2328 733 
Q 2678 1069 2791 1631 
L 2816 1759 
z
" transform="scale(0.015625)"/>
       <path id="DejaVuSans-Oblique-6d" d="M 5747 2113 
L 5338 0 
L 4763 0 
L 5166 2094 
Q 5191 2228 5203 2325 
Q 5216 2422 5216 2491 
Q 5216 2772 5059 2928 
Q 4903 3084 4622 3084 
Q 4203 3084 3875 2770 
Q 3547 2456 3450 1953 
L 3066 0 
L 2491 0 
L 2900 2094 
Q 2925 2209 2937 2307 
Q 2950 2406 2950 2484 
Q 2950 2769 2794 2926 
Q 2638 3084 2363 3084 
Q 1938 3084 1609 2770 
Q 1281 2456 1184 1953 
L 800 0 
L 225 0 
L 909 3500 
L 1484 3500 
L 1375 2956 
Q 1609 3263 1923 3423 
Q 2238 3584 2597 3584 
Q 2978 3584 3223 3384 
Q 3469 3184 3519 2828 
Q 3781 3197 4126 3390 
Q 4472 3584 4856 3584 
Q 5306 3584 5551 3325 
Q 5797 3066 5797 2591 
Q 5797 2488 5784 2364 
Q 5772 2241 5747 2113 
z
" transform="scale(0.015625)"/>
      </defs>
      <use xlink:href="#DejaVuSans-50" transform="translate(0 0.015625)"/>
      <use xlink:href="#DejaVuSans-Oblique-72" transform="translate(61.259766 -16.390625) scale(0.7)"/>
      <use xlink:href="#DejaVuSans-Oblique-61" transform="translate(90.039062 -16.390625) scale(0.7)"/>
      <use xlink:href="#DejaVuSans-Oblique-6d" transform="translate(132.93457 -16.390625) scale(0.7)"/>
      <use xlink:href="#DejaVuSans-20" transform="translate(203.857422 0.015625)"/>
      <use xlink:href="#DejaVuSans-5b" transform="translate(235.644531 0.015625)"/>
      <use xlink:href="#DejaVuSans-50" transform="translate(274.658203 0.015625)"/>
      <use xlink:href="#DejaVuSans-61" transform="translate(334.960938 0.015625)"/>
      <use xlink:href="#DejaVuSans-5d" transform="translate(396.240234 0.015625)"/>
     </g>
    </g>
   </g>
  </g>
 </g>
 <defs>
  <clipPath id="p7d68afdc21">
   <rect x="67.327768" y="10.8" width="353.872232" height="231.324"/>
  </clipPath>
 </defs>
</svg>
