<?xml version="1.0" encoding="utf-8" standalone="no"?>
<!DOCTYPE svg PUBLIC "-//W3C//DTD SVG 1.1//EN"
  "http://www.w3.org/Graphics/SVG/1.1/DTD/svg11.dtd">
<svg xmlns:xlink="http://www.w3.org/1999/xlink" width="432pt" height="288pt" viewBox="0 0 432 288" xmlns="http://www.w3.org/2000/svg" version="1.1">
 <metadata>
  <rdf:RDF xmlns:dc="http://purl.org/dc/elements/1.1/" xmlns:cc="http://creativecommons.org/ns#" xmlns:rdf="http://www.w3.org/1999/02/22-rdf-syntax-ns#">
   <cc:Work>
    <dc:type rdf:resource="http://purl.org/dc/dcmitype/StillImage"/>
    <dc:date>2022-11-08T16:00:09.533359</dc:date>
    <dc:format>image/svg+xml</dc:format>
    <dc:creator>
     <cc:Agent>
      <dc:title>Matplotlib v3.6.1, https://matplotlib.org/</dc:title>
     </cc:Agent>
    </dc:creator>
   </cc:Work>
  </rdf:RDF>
 </metadata>
 <defs>
  <style type="text/css">*{stroke-linejoin: round; stroke-linecap: butt}</style>
 </defs>
 <g id="figure_1">
  <g id="patch_1">
   <path d="M 0 288 
L 432 288 
L 432 0 
L 0 0 
z
" style="fill: #ffffff"/>
  </g>
  <g id="axes_1">
   <g id="patch_2">
    <path d="M 67.327768 242.124 
L 417.760168 242.124 
L 417.760168 10.8 
L 67.327768 10.8 
z
" style="fill: #ffffff"/>
   </g>
   <g id="matplotlib.axis_1">
    <g id="xtick_1">
     <g id="line2d_1">
      <defs>
       <path id="mf8b32e30ce" d="M 0 0 
L 0 -3.5 
" style="stroke: #000000; stroke-width: 1.5"/>
      </defs>
      <g>
       <use xlink:href="#mf8b32e30ce" x="76.12516" y="242.124" style="stroke: #000000; stroke-width: 1.5"/>
      </g>
     </g>
     <g id="line2d_2">
      <defs>
       <path id="m39c05129fa" d="M 0 0 
L 0 3.5 
" style="stroke: #000000; stroke-width: 1.5"/>
      </defs>
      <g>
       <use xlink:href="#m39c05129fa" x="76.12516" y="10.8" style="stroke: #000000; stroke-width: 1.5"/>
      </g>
     </g>
     <g id="text_1">
      <!-- 0 -->
      <g transform="translate(72.30766 254.742125) scale(0.12 -0.12)">
       <defs>
        <path id="DejaVuSans-30" d="M 2034 4250 
Q 1547 4250 1301 3770 
Q 1056 3291 1056 2328 
Q 1056 1369 1301 889 
Q 1547 409 2034 409 
Q 2525 409 2770 889 
Q 3016 1369 3016 2328 
Q 3016 3291 2770 3770 
Q 2525 4250 2034 4250 
z
M 2034 4750 
Q 2819 4750 3233 4129 
Q 3647 3509 3647 2328 
Q 3647 1150 3233 529 
Q 2819 -91 2034 -91 
Q 1250 -91 836 529 
Q 422 1150 422 2328 
Q 422 3509 836 4129 
Q 1250 4750 2034 4750 
z
" transform="scale(0.015625)"/>
       </defs>
       <use xlink:href="#DejaVuSans-30"/>
      </g>
     </g>
    </g>
    <g id="xtick_2">
     <g id="line2d_3">
      <g>
       <use xlink:href="#mf8b32e30ce" x="132.34557" y="242.124" style="stroke: #000000; stroke-width: 1.5"/>
      </g>
     </g>
     <g id="line2d_4">
      <g>
       <use xlink:href="#m39c05129fa" x="132.34557" y="10.8" style="stroke: #000000; stroke-width: 1.5"/>
      </g>
     </g>
     <g id="text_2">
      <!-- 10 -->
      <g transform="translate(124.71057 254.742125) scale(0.12 -0.12)">
       <defs>
        <path id="DejaVuSans-31" d="M 794 531 
L 1825 531 
L 1825 4091 
L 703 3866 
L 703 4441 
L 1819 4666 
L 2450 4666 
L 2450 531 
L 3481 531 
L 3481 0 
L 794 0 
L 794 531 
z
" transform="scale(0.015625)"/>
       </defs>
       <use xlink:href="#DejaVuSans-31"/>
       <use xlink:href="#DejaVuSans-30" x="63.623047"/>
      </g>
     </g>
    </g>
    <g id="xtick_3">
     <g id="line2d_5">
      <g>
       <use xlink:href="#mf8b32e30ce" x="188.565981" y="242.124" style="stroke: #000000; stroke-width: 1.5"/>
      </g>
     </g>
     <g id="line2d_6">
      <g>
       <use xlink:href="#m39c05129fa" x="188.565981" y="10.8" style="stroke: #000000; stroke-width: 1.5"/>
      </g>
     </g>
     <g id="text_3">
      <!-- 20 -->
      <g transform="translate(180.930981 254.742125) scale(0.12 -0.12)">
       <defs>
        <path id="DejaVuSans-32" d="M 1228 531 
L 3431 531 
L 3431 0 
L 469 0 
L 469 531 
Q 828 903 1448 1529 
Q 2069 2156 2228 2338 
Q 2531 2678 2651 2914 
Q 2772 3150 2772 3378 
Q 2772 3750 2511 3984 
Q 2250 4219 1831 4219 
Q 1534 4219 1204 4116 
Q 875 4013 500 3803 
L 500 4441 
Q 881 4594 1212 4672 
Q 1544 4750 1819 4750 
Q 2544 4750 2975 4387 
Q 3406 4025 3406 3419 
Q 3406 3131 3298 2873 
Q 3191 2616 2906 2266 
Q 2828 2175 2409 1742 
Q 1991 1309 1228 531 
z
" transform="scale(0.015625)"/>
       </defs>
       <use xlink:href="#DejaVuSans-32"/>
       <use xlink:href="#DejaVuSans-30" x="63.623047"/>
      </g>
     </g>
    </g>
    <g id="xtick_4">
     <g id="line2d_7">
      <g>
       <use xlink:href="#mf8b32e30ce" x="244.786391" y="242.124" style="stroke: #000000; stroke-width: 1.5"/>
      </g>
     </g>
     <g id="line2d_8">
      <g>
       <use xlink:href="#m39c05129fa" x="244.786391" y="10.8" style="stroke: #000000; stroke-width: 1.5"/>
      </g>
     </g>
     <g id="text_4">
      <!-- 30 -->
      <g transform="translate(237.151391 254.742125) scale(0.12 -0.12)">
       <defs>
        <path id="DejaVuSans-33" d="M 2597 2516 
Q 3050 2419 3304 2112 
Q 3559 1806 3559 1356 
Q 3559 666 3084 287 
Q 2609 -91 1734 -91 
Q 1441 -91 1130 -33 
Q 819 25 488 141 
L 488 750 
Q 750 597 1062 519 
Q 1375 441 1716 441 
Q 2309 441 2620 675 
Q 2931 909 2931 1356 
Q 2931 1769 2642 2001 
Q 2353 2234 1838 2234 
L 1294 2234 
L 1294 2753 
L 1863 2753 
Q 2328 2753 2575 2939 
Q 2822 3125 2822 3475 
Q 2822 3834 2567 4026 
Q 2313 4219 1838 4219 
Q 1578 4219 1281 4162 
Q 984 4106 628 3988 
L 628 4550 
Q 988 4650 1302 4700 
Q 1616 4750 1894 4750 
Q 2613 4750 3031 4423 
Q 3450 4097 3450 3541 
Q 3450 3153 3228 2886 
Q 3006 2619 2597 2516 
z
" transform="scale(0.015625)"/>
       </defs>
       <use xlink:href="#DejaVuSans-33"/>
       <use xlink:href="#DejaVuSans-30" x="63.623047"/>
      </g>
     </g>
    </g>
    <g id="xtick_5">
     <g id="line2d_9">
      <g>
       <use xlink:href="#mf8b32e30ce" x="301.006801" y="242.124" style="stroke: #000000; stroke-width: 1.5"/>
      </g>
     </g>
     <g id="line2d_10">
      <g>
       <use xlink:href="#m39c05129fa" x="301.006801" y="10.8" style="stroke: #000000; stroke-width: 1.5"/>
      </g>
     </g>
     <g id="text_5">
      <!-- 40 -->
      <g transform="translate(293.371801 254.742125) scale(0.12 -0.12)">
       <defs>
        <path id="DejaVuSans-34" d="M 2419 4116 
L 825 1625 
L 2419 1625 
L 2419 4116 
z
M 2253 4666 
L 3047 4666 
L 3047 1625 
L 3713 1625 
L 3713 1100 
L 3047 1100 
L 3047 0 
L 2419 0 
L 2419 1100 
L 313 1100 
L 313 1709 
L 2253 4666 
z
" transform="scale(0.015625)"/>
       </defs>
       <use xlink:href="#DejaVuSans-34"/>
       <use xlink:href="#DejaVuSans-30" x="63.623047"/>
      </g>
     </g>
    </g>
    <g id="xtick_6">
     <g id="line2d_11">
      <g>
       <use xlink:href="#mf8b32e30ce" x="357.227212" y="242.124" style="stroke: #000000; stroke-width: 1.5"/>
      </g>
     </g>
     <g id="line2d_12">
      <g>
       <use xlink:href="#m39c05129fa" x="357.227212" y="10.8" style="stroke: #000000; stroke-width: 1.5"/>
      </g>
     </g>
     <g id="text_6">
      <!-- 50 -->
      <g transform="translate(349.592212 254.742125) scale(0.12 -0.12)">
       <defs>
        <path id="DejaVuSans-35" d="M 691 4666 
L 3169 4666 
L 3169 4134 
L 1269 4134 
L 1269 2991 
Q 1406 3038 1543 3061 
Q 1681 3084 1819 3084 
Q 2600 3084 3056 2656 
Q 3513 2228 3513 1497 
Q 3513 744 3044 326 
Q 2575 -91 1722 -91 
Q 1428 -91 1123 -41 
Q 819 9 494 109 
L 494 744 
Q 775 591 1075 516 
Q 1375 441 1709 441 
Q 2250 441 2565 725 
Q 2881 1009 2881 1497 
Q 2881 1984 2565 2268 
Q 2250 2553 1709 2553 
Q 1456 2553 1204 2497 
Q 953 2441 691 2322 
L 691 4666 
z
" transform="scale(0.015625)"/>
       </defs>
       <use xlink:href="#DejaVuSans-35"/>
       <use xlink:href="#DejaVuSans-30" x="63.623047"/>
      </g>
     </g>
    </g>
    <g id="xtick_7">
     <g id="line2d_13">
      <g>
       <use xlink:href="#mf8b32e30ce" x="413.447622" y="242.124" style="stroke: #000000; stroke-width: 1.5"/>
      </g>
     </g>
     <g id="line2d_14">
      <g>
       <use xlink:href="#m39c05129fa" x="413.447622" y="10.8" style="stroke: #000000; stroke-width: 1.5"/>
      </g>
     </g>
     <g id="text_7">
      <!-- 60 -->
      <g transform="translate(405.812622 254.742125) scale(0.12 -0.12)">
       <defs>
        <path id="DejaVuSans-36" d="M 2113 2584 
Q 1688 2584 1439 2293 
Q 1191 2003 1191 1497 
Q 1191 994 1439 701 
Q 1688 409 2113 409 
Q 2538 409 2786 701 
Q 3034 994 3034 1497 
Q 3034 2003 2786 2293 
Q 2538 2584 2113 2584 
z
M 3366 4563 
L 3366 3988 
Q 3128 4100 2886 4159 
Q 2644 4219 2406 4219 
Q 1781 4219 1451 3797 
Q 1122 3375 1075 2522 
Q 1259 2794 1537 2939 
Q 1816 3084 2150 3084 
Q 2853 3084 3261 2657 
Q 3669 2231 3669 1497 
Q 3669 778 3244 343 
Q 2819 -91 2113 -91 
Q 1303 -91 875 529 
Q 447 1150 447 2328 
Q 447 3434 972 4092 
Q 1497 4750 2381 4750 
Q 2619 4750 2861 4703 
Q 3103 4656 3366 4563 
z
" transform="scale(0.015625)"/>
       </defs>
       <use xlink:href="#DejaVuSans-36"/>
       <use xlink:href="#DejaVuSans-30" x="63.623047"/>
      </g>
     </g>
    </g>
    <g id="xtick_8">
     <g id="line2d_15">
      <defs>
       <path id="m51f02fbe7b" d="M 0 0 
L 0 -2 
" style="stroke: #000000; stroke-width: 1.5"/>
      </defs>
      <g>
       <use xlink:href="#m51f02fbe7b" x="87.369242" y="242.124" style="stroke: #000000; stroke-width: 1.5"/>
      </g>
     </g>
     <g id="line2d_16">
      <defs>
       <path id="mca98cf6d67" d="M 0 0 
L 0 2 
" style="stroke: #000000; stroke-width: 1.5"/>
      </defs>
      <g>
       <use xlink:href="#mca98cf6d67" x="87.369242" y="10.8" style="stroke: #000000; stroke-width: 1.5"/>
      </g>
     </g>
    </g>
    <g id="xtick_9">
     <g id="line2d_17">
      <g>
       <use xlink:href="#m51f02fbe7b" x="98.613324" y="242.124" style="stroke: #000000; stroke-width: 1.5"/>
      </g>
     </g>
     <g id="line2d_18">
      <g>
       <use xlink:href="#mca98cf6d67" x="98.613324" y="10.8" style="stroke: #000000; stroke-width: 1.5"/>
      </g>
     </g>
    </g>
    <g id="xtick_10">
     <g id="line2d_19">
      <g>
       <use xlink:href="#m51f02fbe7b" x="109.857406" y="242.124" style="stroke: #000000; stroke-width: 1.5"/>
      </g>
     </g>
     <g id="line2d_20">
      <g>
       <use xlink:href="#mca98cf6d67" x="109.857406" y="10.8" style="stroke: #000000; stroke-width: 1.5"/>
      </g>
     </g>
    </g>
    <g id="xtick_11">
     <g id="line2d_21">
      <g>
       <use xlink:href="#m51f02fbe7b" x="121.101488" y="242.124" style="stroke: #000000; stroke-width: 1.5"/>
      </g>
     </g>
     <g id="line2d_22">
      <g>
       <use xlink:href="#mca98cf6d67" x="121.101488" y="10.8" style="stroke: #000000; stroke-width: 1.5"/>
      </g>
     </g>
    </g>
    <g id="xtick_12">
     <g id="line2d_23">
      <g>
       <use xlink:href="#m51f02fbe7b" x="143.589653" y="242.124" style="stroke: #000000; stroke-width: 1.5"/>
      </g>
     </g>
     <g id="line2d_24">
      <g>
       <use xlink:href="#mca98cf6d67" x="143.589653" y="10.8" style="stroke: #000000; stroke-width: 1.5"/>
      </g>
     </g>
    </g>
    <g id="xtick_13">
     <g id="line2d_25">
      <g>
       <use xlink:href="#m51f02fbe7b" x="154.833735" y="242.124" style="stroke: #000000; stroke-width: 1.5"/>
      </g>
     </g>
     <g id="line2d_26">
      <g>
       <use xlink:href="#mca98cf6d67" x="154.833735" y="10.8" style="stroke: #000000; stroke-width: 1.5"/>
      </g>
     </g>
    </g>
    <g id="xtick_14">
     <g id="line2d_27">
      <g>
       <use xlink:href="#m51f02fbe7b" x="166.077817" y="242.124" style="stroke: #000000; stroke-width: 1.5"/>
      </g>
     </g>
     <g id="line2d_28">
      <g>
       <use xlink:href="#mca98cf6d67" x="166.077817" y="10.8" style="stroke: #000000; stroke-width: 1.5"/>
      </g>
     </g>
    </g>
    <g id="xtick_15">
     <g id="line2d_29">
      <g>
       <use xlink:href="#m51f02fbe7b" x="177.321899" y="242.124" style="stroke: #000000; stroke-width: 1.5"/>
      </g>
     </g>
     <g id="line2d_30">
      <g>
       <use xlink:href="#mca98cf6d67" x="177.321899" y="10.8" style="stroke: #000000; stroke-width: 1.5"/>
      </g>
     </g>
    </g>
    <g id="xtick_16">
     <g id="line2d_31">
      <g>
       <use xlink:href="#m51f02fbe7b" x="199.810063" y="242.124" style="stroke: #000000; stroke-width: 1.5"/>
      </g>
     </g>
     <g id="line2d_32">
      <g>
       <use xlink:href="#mca98cf6d67" x="199.810063" y="10.8" style="stroke: #000000; stroke-width: 1.5"/>
      </g>
     </g>
    </g>
    <g id="xtick_17">
     <g id="line2d_33">
      <g>
       <use xlink:href="#m51f02fbe7b" x="211.054145" y="242.124" style="stroke: #000000; stroke-width: 1.5"/>
      </g>
     </g>
     <g id="line2d_34">
      <g>
       <use xlink:href="#mca98cf6d67" x="211.054145" y="10.8" style="stroke: #000000; stroke-width: 1.5"/>
      </g>
     </g>
    </g>
    <g id="xtick_18">
     <g id="line2d_35">
      <g>
       <use xlink:href="#m51f02fbe7b" x="222.298227" y="242.124" style="stroke: #000000; stroke-width: 1.5"/>
      </g>
     </g>
     <g id="line2d_36">
      <g>
       <use xlink:href="#mca98cf6d67" x="222.298227" y="10.8" style="stroke: #000000; stroke-width: 1.5"/>
      </g>
     </g>
    </g>
    <g id="xtick_19">
     <g id="line2d_37">
      <g>
       <use xlink:href="#m51f02fbe7b" x="233.542309" y="242.124" style="stroke: #000000; stroke-width: 1.5"/>
      </g>
     </g>
     <g id="line2d_38">
      <g>
       <use xlink:href="#mca98cf6d67" x="233.542309" y="10.8" style="stroke: #000000; stroke-width: 1.5"/>
      </g>
     </g>
    </g>
    <g id="xtick_20">
     <g id="line2d_39">
      <g>
       <use xlink:href="#m51f02fbe7b" x="256.030473" y="242.124" style="stroke: #000000; stroke-width: 1.5"/>
      </g>
     </g>
     <g id="line2d_40">
      <g>
       <use xlink:href="#mca98cf6d67" x="256.030473" y="10.8" style="stroke: #000000; stroke-width: 1.5"/>
      </g>
     </g>
    </g>
    <g id="xtick_21">
     <g id="line2d_41">
      <g>
       <use xlink:href="#m51f02fbe7b" x="267.274555" y="242.124" style="stroke: #000000; stroke-width: 1.5"/>
      </g>
     </g>
     <g id="line2d_42">
      <g>
       <use xlink:href="#mca98cf6d67" x="267.274555" y="10.8" style="stroke: #000000; stroke-width: 1.5"/>
      </g>
     </g>
    </g>
    <g id="xtick_22">
     <g id="line2d_43">
      <g>
       <use xlink:href="#m51f02fbe7b" x="278.518637" y="242.124" style="stroke: #000000; stroke-width: 1.5"/>
      </g>
     </g>
     <g id="line2d_44">
      <g>
       <use xlink:href="#mca98cf6d67" x="278.518637" y="10.8" style="stroke: #000000; stroke-width: 1.5"/>
      </g>
     </g>
    </g>
    <g id="xtick_23">
     <g id="line2d_45">
      <g>
       <use xlink:href="#m51f02fbe7b" x="289.762719" y="242.124" style="stroke: #000000; stroke-width: 1.5"/>
      </g>
     </g>
     <g id="line2d_46">
      <g>
       <use xlink:href="#mca98cf6d67" x="289.762719" y="10.8" style="stroke: #000000; stroke-width: 1.5"/>
      </g>
     </g>
    </g>
    <g id="xtick_24">
     <g id="line2d_47">
      <g>
       <use xlink:href="#m51f02fbe7b" x="312.250884" y="242.124" style="stroke: #000000; stroke-width: 1.5"/>
      </g>
     </g>
     <g id="line2d_48">
      <g>
       <use xlink:href="#mca98cf6d67" x="312.250884" y="10.8" style="stroke: #000000; stroke-width: 1.5"/>
      </g>
     </g>
    </g>
    <g id="xtick_25">
     <g id="line2d_49">
      <g>
       <use xlink:href="#m51f02fbe7b" x="323.494966" y="242.124" style="stroke: #000000; stroke-width: 1.5"/>
      </g>
     </g>
     <g id="line2d_50">
      <g>
       <use xlink:href="#mca98cf6d67" x="323.494966" y="10.8" style="stroke: #000000; stroke-width: 1.5"/>
      </g>
     </g>
    </g>
    <g id="xtick_26">
     <g id="line2d_51">
      <g>
       <use xlink:href="#m51f02fbe7b" x="334.739048" y="242.124" style="stroke: #000000; stroke-width: 1.5"/>
      </g>
     </g>
     <g id="line2d_52">
      <g>
       <use xlink:href="#mca98cf6d67" x="334.739048" y="10.8" style="stroke: #000000; stroke-width: 1.5"/>
      </g>
     </g>
    </g>
    <g id="xtick_27">
     <g id="line2d_53">
      <g>
       <use xlink:href="#m51f02fbe7b" x="345.98313" y="242.124" style="stroke: #000000; stroke-width: 1.5"/>
      </g>
     </g>
     <g id="line2d_54">
      <g>
       <use xlink:href="#mca98cf6d67" x="345.98313" y="10.8" style="stroke: #000000; stroke-width: 1.5"/>
      </g>
     </g>
    </g>
    <g id="xtick_28">
     <g id="line2d_55">
      <g>
       <use xlink:href="#m51f02fbe7b" x="368.471294" y="242.124" style="stroke: #000000; stroke-width: 1.5"/>
      </g>
     </g>
     <g id="line2d_56">
      <g>
       <use xlink:href="#mca98cf6d67" x="368.471294" y="10.8" style="stroke: #000000; stroke-width: 1.5"/>
      </g>
     </g>
    </g>
    <g id="xtick_29">
     <g id="line2d_57">
      <g>
       <use xlink:href="#m51f02fbe7b" x="379.715376" y="242.124" style="stroke: #000000; stroke-width: 1.5"/>
      </g>
     </g>
     <g id="line2d_58">
      <g>
       <use xlink:href="#mca98cf6d67" x="379.715376" y="10.8" style="stroke: #000000; stroke-width: 1.5"/>
      </g>
     </g>
    </g>
    <g id="xtick_30">
     <g id="line2d_59">
      <g>
       <use xlink:href="#m51f02fbe7b" x="390.959458" y="242.124" style="stroke: #000000; stroke-width: 1.5"/>
      </g>
     </g>
     <g id="line2d_60">
      <g>
       <use xlink:href="#mca98cf6d67" x="390.959458" y="10.8" style="stroke: #000000; stroke-width: 1.5"/>
      </g>
     </g>
    </g>
    <g id="xtick_31">
     <g id="line2d_61">
      <g>
       <use xlink:href="#m51f02fbe7b" x="402.20354" y="242.124" style="stroke: #000000; stroke-width: 1.5"/>
      </g>
     </g>
     <g id="line2d_62">
      <g>
       <use xlink:href="#mca98cf6d67" x="402.20354" y="10.8" style="stroke: #000000; stroke-width: 1.5"/>
      </g>
     </g>
    </g>
    <g id="text_8">
     <!-- Distance [R$_\odot$] -->
     <g transform="translate(200.303968 270.355875) scale(0.12 -0.12)">
      <defs>
       <path id="DejaVuSans-44" d="M 1259 4147 
L 1259 519 
L 2022 519 
Q 2988 519 3436 956 
Q 3884 1394 3884 2338 
Q 3884 3275 3436 3711 
Q 2988 4147 2022 4147 
L 1259 4147 
z
M 628 4666 
L 1925 4666 
Q 3281 4666 3915 4102 
Q 4550 3538 4550 2338 
Q 4550 1131 3912 565 
Q 3275 0 1925 0 
L 628 0 
L 628 4666 
z
" transform="scale(0.015625)"/>
       <path id="DejaVuSans-69" d="M 603 3500 
L 1178 3500 
L 1178 0 
L 603 0 
L 603 3500 
z
M 603 4863 
L 1178 4863 
L 1178 4134 
L 603 4134 
L 603 4863 
z
" transform="scale(0.015625)"/>
       <path id="DejaVuSans-73" d="M 2834 3397 
L 2834 2853 
Q 2591 2978 2328 3040 
Q 2066 3103 1784 3103 
Q 1356 3103 1142 2972 
Q 928 2841 928 2578 
Q 928 2378 1081 2264 
Q 1234 2150 1697 2047 
L 1894 2003 
Q 2506 1872 2764 1633 
Q 3022 1394 3022 966 
Q 3022 478 2636 193 
Q 2250 -91 1575 -91 
Q 1294 -91 989 -36 
Q 684 19 347 128 
L 347 722 
Q 666 556 975 473 
Q 1284 391 1588 391 
Q 1994 391 2212 530 
Q 2431 669 2431 922 
Q 2431 1156 2273 1281 
Q 2116 1406 1581 1522 
L 1381 1569 
Q 847 1681 609 1914 
Q 372 2147 372 2553 
Q 372 3047 722 3315 
Q 1072 3584 1716 3584 
Q 2034 3584 2315 3537 
Q 2597 3491 2834 3397 
z
" transform="scale(0.015625)"/>
       <path id="DejaVuSans-74" d="M 1172 4494 
L 1172 3500 
L 2356 3500 
L 2356 3053 
L 1172 3053 
L 1172 1153 
Q 1172 725 1289 603 
Q 1406 481 1766 481 
L 2356 481 
L 2356 0 
L 1766 0 
Q 1100 0 847 248 
Q 594 497 594 1153 
L 594 3053 
L 172 3053 
L 172 3500 
L 594 3500 
L 594 4494 
L 1172 4494 
z
" transform="scale(0.015625)"/>
       <path id="DejaVuSans-61" d="M 2194 1759 
Q 1497 1759 1228 1600 
Q 959 1441 959 1056 
Q 959 750 1161 570 
Q 1363 391 1709 391 
Q 2188 391 2477 730 
Q 2766 1069 2766 1631 
L 2766 1759 
L 2194 1759 
z
M 3341 1997 
L 3341 0 
L 2766 0 
L 2766 531 
Q 2569 213 2275 61 
Q 1981 -91 1556 -91 
Q 1019 -91 701 211 
Q 384 513 384 1019 
Q 384 1609 779 1909 
Q 1175 2209 1959 2209 
L 2766 2209 
L 2766 2266 
Q 2766 2663 2505 2880 
Q 2244 3097 1772 3097 
Q 1472 3097 1187 3025 
Q 903 2953 641 2809 
L 641 3341 
Q 956 3463 1253 3523 
Q 1550 3584 1831 3584 
Q 2591 3584 2966 3190 
Q 3341 2797 3341 1997 
z
" transform="scale(0.015625)"/>
       <path id="DejaVuSans-6e" d="M 3513 2113 
L 3513 0 
L 2938 0 
L 2938 2094 
Q 2938 2591 2744 2837 
Q 2550 3084 2163 3084 
Q 1697 3084 1428 2787 
Q 1159 2491 1159 1978 
L 1159 0 
L 581 0 
L 581 3500 
L 1159 3500 
L 1159 2956 
Q 1366 3272 1645 3428 
Q 1925 3584 2291 3584 
Q 2894 3584 3203 3211 
Q 3513 2838 3513 2113 
z
" transform="scale(0.015625)"/>
       <path id="DejaVuSans-63" d="M 3122 3366 
L 3122 2828 
Q 2878 2963 2633 3030 
Q 2388 3097 2138 3097 
Q 1578 3097 1268 2742 
Q 959 2388 959 1747 
Q 959 1106 1268 751 
Q 1578 397 2138 397 
Q 2388 397 2633 464 
Q 2878 531 3122 666 
L 3122 134 
Q 2881 22 2623 -34 
Q 2366 -91 2075 -91 
Q 1284 -91 818 406 
Q 353 903 353 1747 
Q 353 2603 823 3093 
Q 1294 3584 2113 3584 
Q 2378 3584 2631 3529 
Q 2884 3475 3122 3366 
z
" transform="scale(0.015625)"/>
       <path id="DejaVuSans-65" d="M 3597 1894 
L 3597 1613 
L 953 1613 
Q 991 1019 1311 708 
Q 1631 397 2203 397 
Q 2534 397 2845 478 
Q 3156 559 3463 722 
L 3463 178 
Q 3153 47 2828 -22 
Q 2503 -91 2169 -91 
Q 1331 -91 842 396 
Q 353 884 353 1716 
Q 353 2575 817 3079 
Q 1281 3584 2069 3584 
Q 2775 3584 3186 3129 
Q 3597 2675 3597 1894 
z
M 3022 2063 
Q 3016 2534 2758 2815 
Q 2500 3097 2075 3097 
Q 1594 3097 1305 2825 
Q 1016 2553 972 2059 
L 3022 2063 
z
" transform="scale(0.015625)"/>
       <path id="DejaVuSans-20" transform="scale(0.015625)"/>
       <path id="DejaVuSans-5b" d="M 550 4863 
L 1875 4863 
L 1875 4416 
L 1125 4416 
L 1125 -397 
L 1875 -397 
L 1875 -844 
L 550 -844 
L 550 4863 
z
" transform="scale(0.015625)"/>
       <path id="DejaVuSans-52" d="M 2841 2188 
Q 3044 2119 3236 1894 
Q 3428 1669 3622 1275 
L 4263 0 
L 3584 0 
L 2988 1197 
Q 2756 1666 2539 1819 
Q 2322 1972 1947 1972 
L 1259 1972 
L 1259 0 
L 628 0 
L 628 4666 
L 2053 4666 
Q 2853 4666 3247 4331 
Q 3641 3997 3641 3322 
Q 3641 2881 3436 2590 
Q 3231 2300 2841 2188 
z
M 1259 4147 
L 1259 2491 
L 2053 2491 
Q 2509 2491 2742 2702 
Q 2975 2913 2975 3322 
Q 2975 3731 2742 3939 
Q 2509 4147 2053 4147 
L 1259 4147 
z
" transform="scale(0.015625)"/>
       <path id="DejaVuSans-2299" d="M 2350 2403 
L 3013 2403 
L 3013 1609 
L 2350 1609 
L 2350 2403 
z
M 3306 3522 
Q 3016 3644 2681 3644 
Q 2347 3644 2056 3522 
Q 1769 3400 1531 3163 
Q 1291 2922 1172 2634 
Q 1053 2347 1053 2006 
Q 1053 1675 1172 1387 
Q 1291 1100 1531 859 
Q 1769 622 2056 500 
Q 2347 378 2681 378 
Q 3016 378 3306 500 
Q 3594 622 3831 859 
Q 4072 1100 4190 1387 
Q 4309 1675 4309 2006 
Q 4309 2347 4190 2634 
Q 4072 2922 3831 3163 
Q 3594 3400 3306 3522 
z
M 1878 3956 
Q 2250 4113 2681 4113 
Q 3113 4113 3484 3956 
Q 3856 3800 4163 3494 
Q 4472 3184 4625 2813 
Q 4778 2444 4778 2006 
Q 4778 1578 4625 1206 
Q 4472 838 4163 528 
Q 3856 222 3484 65 
Q 3113 -91 2681 -91 
Q 2250 -91 1878 65 
Q 1506 222 1200 528 
Q 891 838 738 1206 
Q 584 1578 584 2006 
Q 584 2444 738 2813 
Q 891 3184 1200 3494 
Q 1506 3800 1878 3956 
z
" transform="scale(0.015625)"/>
       <path id="DejaVuSans-5d" d="M 1947 4863 
L 1947 -844 
L 622 -844 
L 622 -397 
L 1369 -397 
L 1369 4416 
L 622 4416 
L 622 4863 
L 1947 4863 
z
" transform="scale(0.015625)"/>
      </defs>
      <use xlink:href="#DejaVuSans-44" transform="translate(0 0.015625)"/>
      <use xlink:href="#DejaVuSans-69" transform="translate(77.001953 0.015625)"/>
      <use xlink:href="#DejaVuSans-73" transform="translate(104.785156 0.015625)"/>
      <use xlink:href="#DejaVuSans-74" transform="translate(156.884766 0.015625)"/>
      <use xlink:href="#DejaVuSans-61" transform="translate(196.09375 0.015625)"/>
      <use xlink:href="#DejaVuSans-6e" transform="translate(257.373047 0.015625)"/>
      <use xlink:href="#DejaVuSans-63" transform="translate(320.751953 0.015625)"/>
      <use xlink:href="#DejaVuSans-65" transform="translate(375.732422 0.015625)"/>
      <use xlink:href="#DejaVuSans-20" transform="translate(437.255859 0.015625)"/>
      <use xlink:href="#DejaVuSans-5b" transform="translate(469.042969 0.015625)"/>
      <use xlink:href="#DejaVuSans-52" transform="translate(504.931641 0.015625)"/>
      <use xlink:href="#DejaVuSans-2299" transform="translate(589.008789 -16.390625) scale(0.7)"/>
      <use xlink:href="#DejaVuSans-5d" transform="translate(664.033203 0.015625)"/>
     </g>
    </g>
   </g>
   <g id="matplotlib.axis_2">
    <g id="ytick_1">
     <g id="line2d_63">
      <defs>
       <path id="me6295d5d67" d="M 0 0 
L 3.5 0 
" style="stroke: #000000; stroke-width: 1.5"/>
      </defs>
      <g>
       <use xlink:href="#me6295d5d67" x="67.327768" y="202.252458" style="stroke: #000000; stroke-width: 1.5"/>
      </g>
     </g>
     <g id="line2d_64">
      <defs>
       <path id="m4f7c009a95" d="M 0 0 
L -3.5 0 
" style="stroke: #000000; stroke-width: 1.5"/>
      </defs>
      <g>
       <use xlink:href="#m4f7c009a95" x="417.760168" y="202.252458" style="stroke: #000000; stroke-width: 1.5"/>
      </g>
     </g>
     <g id="text_9">
      <!-- $\mathdefault{10^{-12}}$ -->
      <g transform="translate(30.347768 206.811521) scale(0.12 -0.12)">
       <defs>
        <path id="DejaVuSans-2212" d="M 678 2272 
L 4684 2272 
L 4684 1741 
L 678 1741 
L 678 2272 
z
" transform="scale(0.015625)"/>
       </defs>
       <use xlink:href="#DejaVuSans-31" transform="translate(0 0.765625)"/>
       <use xlink:href="#DejaVuSans-30" transform="translate(63.623047 0.765625)"/>
       <use xlink:href="#DejaVuSans-2212" transform="translate(128.203125 39.046875) scale(0.7)"/>
       <use xlink:href="#DejaVuSans-31" transform="translate(186.855469 39.046875) scale(0.7)"/>
       <use xlink:href="#DejaVuSans-32" transform="translate(231.391602 39.046875) scale(0.7)"/>
      </g>
     </g>
    </g>
    <g id="ytick_2">
     <g id="line2d_65">
      <g>
       <use xlink:href="#me6295d5d67" x="67.327768" y="153.74511" style="stroke: #000000; stroke-width: 1.5"/>
      </g>
     </g>
     <g id="line2d_66">
      <g>
       <use xlink:href="#m4f7c009a95" x="417.760168" y="153.74511" style="stroke: #000000; stroke-width: 1.5"/>
      </g>
     </g>
     <g id="text_10">
      <!-- $\mathdefault{10^{-10}}$ -->
      <g transform="translate(30.347768 158.304173) scale(0.12 -0.12)">
       <use xlink:href="#DejaVuSans-31" transform="translate(0 0.765625)"/>
       <use xlink:href="#DejaVuSans-30" transform="translate(63.623047 0.765625)"/>
       <use xlink:href="#DejaVuSans-2212" transform="translate(128.203125 39.046875) scale(0.7)"/>
       <use xlink:href="#DejaVuSans-31" transform="translate(186.855469 39.046875) scale(0.7)"/>
       <use xlink:href="#DejaVuSans-30" transform="translate(231.391602 39.046875) scale(0.7)"/>
      </g>
     </g>
    </g>
    <g id="ytick_3">
     <g id="line2d_67">
      <g>
       <use xlink:href="#me6295d5d67" x="67.327768" y="105.237762" style="stroke: #000000; stroke-width: 1.5"/>
      </g>
     </g>
     <g id="line2d_68">
      <g>
       <use xlink:href="#m4f7c009a95" x="417.760168" y="105.237762" style="stroke: #000000; stroke-width: 1.5"/>
      </g>
     </g>
     <g id="text_11">
      <!-- $\mathdefault{10^{-8}}$ -->
      <g transform="translate(35.627768 109.796824) scale(0.12 -0.12)">
       <defs>
        <path id="DejaVuSans-38" d="M 2034 2216 
Q 1584 2216 1326 1975 
Q 1069 1734 1069 1313 
Q 1069 891 1326 650 
Q 1584 409 2034 409 
Q 2484 409 2743 651 
Q 3003 894 3003 1313 
Q 3003 1734 2745 1975 
Q 2488 2216 2034 2216 
z
M 1403 2484 
Q 997 2584 770 2862 
Q 544 3141 544 3541 
Q 544 4100 942 4425 
Q 1341 4750 2034 4750 
Q 2731 4750 3128 4425 
Q 3525 4100 3525 3541 
Q 3525 3141 3298 2862 
Q 3072 2584 2669 2484 
Q 3125 2378 3379 2068 
Q 3634 1759 3634 1313 
Q 3634 634 3220 271 
Q 2806 -91 2034 -91 
Q 1263 -91 848 271 
Q 434 634 434 1313 
Q 434 1759 690 2068 
Q 947 2378 1403 2484 
z
M 1172 3481 
Q 1172 3119 1398 2916 
Q 1625 2713 2034 2713 
Q 2441 2713 2670 2916 
Q 2900 3119 2900 3481 
Q 2900 3844 2670 4047 
Q 2441 4250 2034 4250 
Q 1625 4250 1398 4047 
Q 1172 3844 1172 3481 
z
" transform="scale(0.015625)"/>
       </defs>
       <use xlink:href="#DejaVuSans-31" transform="translate(0 0.765625)"/>
       <use xlink:href="#DejaVuSans-30" transform="translate(63.623047 0.765625)"/>
       <use xlink:href="#DejaVuSans-2212" transform="translate(128.203125 39.046875) scale(0.7)"/>
       <use xlink:href="#DejaVuSans-38" transform="translate(186.855469 39.046875) scale(0.7)"/>
      </g>
     </g>
    </g>
    <g id="ytick_4">
     <g id="line2d_69">
      <g>
       <use xlink:href="#me6295d5d67" x="67.327768" y="56.730413" style="stroke: #000000; stroke-width: 1.5"/>
      </g>
     </g>
     <g id="line2d_70">
      <g>
       <use xlink:href="#m4f7c009a95" x="417.760168" y="56.730413" style="stroke: #000000; stroke-width: 1.5"/>
      </g>
     </g>
     <g id="text_12">
      <!-- $\mathdefault{10^{-6}}$ -->
      <g transform="translate(35.627768 61.289476) scale(0.12 -0.12)">
       <use xlink:href="#DejaVuSans-31" transform="translate(0 0.765625)"/>
       <use xlink:href="#DejaVuSans-30" transform="translate(63.623047 0.765625)"/>
       <use xlink:href="#DejaVuSans-2212" transform="translate(128.203125 39.046875) scale(0.7)"/>
       <use xlink:href="#DejaVuSans-36" transform="translate(186.855469 39.046875) scale(0.7)"/>
      </g>
     </g>
    </g>
    <g id="text_13">
     <!-- P$_{ram}$ [Pa] -->
     <g transform="translate(23.852143 152.622) rotate(-90) scale(0.12 -0.12)">
      <defs>
       <path id="DejaVuSans-50" d="M 1259 4147 
L 1259 2394 
L 2053 2394 
Q 2494 2394 2734 2622 
Q 2975 2850 2975 3272 
Q 2975 3691 2734 3919 
Q 2494 4147 2053 4147 
L 1259 4147 
z
M 628 4666 
L 2053 4666 
Q 2838 4666 3239 4311 
Q 3641 3956 3641 3272 
Q 3641 2581 3239 2228 
Q 2838 1875 2053 1875 
L 1259 1875 
L 1259 0 
L 628 0 
L 628 4666 
z
" transform="scale(0.015625)"/>
       <path id="DejaVuSans-Oblique-72" d="M 2853 2969 
Q 2766 3016 2653 3041 
Q 2541 3066 2413 3066 
Q 1953 3066 1609 2717 
Q 1266 2369 1153 1784 
L 800 0 
L 225 0 
L 909 3500 
L 1484 3500 
L 1375 2956 
Q 1603 3259 1920 3421 
Q 2238 3584 2597 3584 
Q 2691 3584 2781 3573 
Q 2872 3563 2963 3538 
L 2853 2969 
z
" transform="scale(0.015625)"/>
       <path id="DejaVuSans-Oblique-61" d="M 3438 1997 
L 3047 0 
L 2472 0 
L 2578 531 
Q 2325 219 2001 64 
Q 1678 -91 1281 -91 
Q 834 -91 548 182 
Q 263 456 263 884 
Q 263 1497 752 1853 
Q 1241 2209 2100 2209 
L 2900 2209 
L 2931 2363 
Q 2938 2388 2941 2417 
Q 2944 2447 2944 2509 
Q 2944 2788 2717 2942 
Q 2491 3097 2081 3097 
Q 1800 3097 1504 3025 
Q 1209 2953 897 2809 
L 997 3341 
Q 1322 3463 1633 3523 
Q 1944 3584 2234 3584 
Q 2853 3584 3176 3315 
Q 3500 3047 3500 2534 
Q 3500 2431 3484 2292 
Q 3469 2153 3438 1997 
z
M 2816 1759 
L 2241 1759 
Q 1534 1759 1195 1570 
Q 856 1381 856 984 
Q 856 709 1029 553 
Q 1203 397 1509 397 
Q 1978 397 2328 733 
Q 2678 1069 2791 1631 
L 2816 1759 
z
" transform="scale(0.015625)"/>
       <path id="DejaVuSans-Oblique-6d" d="M 5747 2113 
L 5338 0 
L 4763 0 
L 5166 2094 
Q 5191 2228 5203 2325 
Q 5216 2422 5216 2491 
Q 5216 2772 5059 2928 
Q 4903 3084 4622 3084 
Q 4203 3084 3875 2770 
Q 3547 2456 3450 1953 
L 3066 0 
L 2491 0 
L 2900 2094 
Q 2925 2209 2937 2307 
Q 2950 2406 2950 2484 
Q 2950 2769 2794 2926 
Q 2638 3084 2363 3084 
Q 1938 3084 1609 2770 
Q 1281 2456 1184 1953 
L 800 0 
L 225 0 
L 909 3500 
L 1484 3500 
L 1375 2956 
Q 1609 3263 1923 3423 
Q 2238 3584 2597 3584 
Q 2978 3584 3223 3384 
Q 3469 3184 3519 2828 
Q 3781 3197 4126 3390 
Q 4472 3584 4856 3584 
Q 5306 3584 5551 3325 
Q 5797 3066 5797 2591 
Q 5797 2488 5784 2364 
Q 5772 2241 5747 2113 
z
" transform="scale(0.015625)"/>
      </defs>
      <use xlink:href="#DejaVuSans-50" transform="translate(0 0.015625)"/>
      <use xlink:href="#DejaVuSans-Oblique-72" transform="translate(61.259766 -16.390625) scale(0.7)"/>
      <use xlink:href="#DejaVuSans-Oblique-61" transform="translate(90.039062 -16.390625) scale(0.7)"/>
      <use xlink:href="#DejaVuSans-Oblique-6d" transform="translate(132.93457 -16.390625) scale(0.7)"/>
      <use xlink:href="#DejaVuSans-20" transform="translate(203.857422 0.015625)"/>
      <use xlink:href="#DejaVuSans-5b" transform="translate(235.644531 0.015625)"/>
      <use xlink:href="#DejaVuSans-50" transform="translate(274.658203 0.015625)"/>
      <use xlink:href="#DejaVuSans-61" transform="translate(334.960938 0.015625)"/>
      <use xlink:href="#DejaVuSans-5d" transform="translate(396.240234 0.015625)"/>
     </g>
    </g>
   </g>
   <g id="patch_3">
    <path d="M 67.327768 242.124 
L 67.327768 10.8 
" style="fill: none; stroke: #000000; stroke-width: 1.5; stroke-linejoin: miter; stroke-linecap: square"/>
   </g>
   <g id="patch_4">
    <path d="M 417.760168 242.124 
L 417.760168 10.8 
" style="fill: none; stroke: #000000; stroke-width: 1.5; stroke-linejoin: miter; stroke-linecap: square"/>
   </g>
   <g id="patch_5">
    <path d="M 67.327768 242.124 
L 417.760168 242.124 
" style="fill: none; stroke: #000000; stroke-width: 1.5; stroke-linejoin: miter; stroke-linecap: square"/>
   </g>
   <g id="patch_6">
    <path d="M 67.327768 10.8 
L 417.760168 10.8 
" style="fill: none; stroke: #000000; stroke-width: 1.5; stroke-linejoin: miter; stroke-linecap: square"/>
   </g>
   <g id="PolyCollection_1">
    <path d="M 165.985238 68.680919 
L 165.985238 79.435612 
L 166.323247 81.269285 
L 166.907732 82.921538 
L 167.472275 74.301227 
L 168.039623 75.425336 
L 168.587319 74.644469 
L 169.166078 75.063766 
L 169.728902 74.245823 
L 170.291523 74.338415 
L 170.854086 74.554244 
L 171.416649 75.815318 
L 171.979052 76.041685 
L 172.54143 75.690642 
L 173.103901 76.944735 
L 173.666187 77.709567 
L 174.228479 77.14273 
L 174.790817 78.195113 
L 175.353129 78.392962 
L 175.915441 79.03001 
L 176.477689 79.225833 
L 177.039979 76.469497 
L 177.602255 77.417941 
L 178.164421 77.332473 
L 178.726643 78.327567 
L 179.289024 78.908594 
L 179.851247 79.714261 
L 180.413248 80.417542 
L 180.975576 80.350691 
L 181.537844 81.563151 
L 182.10008 81.344006 
L 182.662396 82.425853 
L 183.224758 83.519446 
L 183.786988 83.240788 
L 184.349109 84.859323 
L 184.911688 88.591712 
L 185.473452 100.818716 
L 186.035672 97.335466 
L 186.597765 91.509054 
L 187.160066 91.647976 
L 187.72235 93.827055 
L 188.284601 92.863187 
L 188.846812 94.265573 
L 189.40899 86.267762 
L 189.971156 83.743814 
L 190.61712 79.85302 
L 191.076363 81.504127 
L 191.649653 83.657875 
L 192.215603 89.120688 
L 192.778998 95.54331 
L 193.341793 98.739887 
L 193.904592 92.868713 
L 194.467333 92.544105 
L 195.029745 90.11687 
L 195.59208 90.793793 
L 196.154412 86.883437 
L 196.716668 87.863084 
L 197.279142 83.713737 
L 197.841437 82.543135 
L 198.403652 83.623064 
L 198.966029 83.298823 
L 199.52836 83.331604 
L 200.090685 83.054916 
L 200.65283 83.034046 
L 201.215142 83.498642 
L 201.777375 83.4831 
L 202.339514 84.524219 
L 202.901602 84.409564 
L 203.463827 81.067948 
L 204.026302 82.972828 
L 204.588455 81.65152 
L 205.150463 83.151035 
L 205.712902 81.584373 
L 206.275152 81.667999 
L 206.837222 83.055318 
L 207.398839 84.039594 
L 207.96333 85.219815 
L 208.523008 85.747942 
L 209.085691 85.475645 
L 209.645847 85.242351 
L 210.209535 83.789956 
L 210.773194 82.910592 
L 211.333238 83.308072 
L 211.897312 81.13195 
L 212.459627 81.659878 
L 213.023297 82.48509 
L 213.584 87.935337 
L 214.146247 84.811787 
L 214.707167 82.077774 
L 215.270648 81.283517 
L 215.832756 82.551094 
L 216.394961 83.15979 
L 216.957462 84.98713 
L 217.519374 86.172416 
L 218.081649 88.170355 
L 218.6479 87.170723 
L 219.245256 95.987886 
L 219.769912 103.896986 
L 220.33032 99.320493 
L 220.892807 98.935526 
L 221.466632 95.793588 
L 222.002425 95.266813 
L 222.57788 99.409051 
L 223.140377 98.441888 
L 223.707971 96.701232 
L 224.275188 96.517336 
L 224.824709 99.10514 
L 225.384872 97.095524 
L 225.996024 90.784344 
L 226.514451 101.629646 
L 227.070302 100.366421 
L 227.666533 102.510492 
L 228.208064 102.839099 
L 228.784757 101.470548 
L 229.326142 102.721277 
L 229.869594 100.9716 
L 230.401312 95.386426 
L 231.014761 104.821933 
L 231.601764 99.896173 
L 232.160982 99.103916 
L 232.71733 104.688048 
L 233.241374 104.540736 
L 233.793487 101.0862 
L 234.387642 101.619681 
L 234.948669 108.308555 
L 235.507485 106.783526 
L 236.066093 108.086753 
L 236.667877 133.697091 
L 237.18727 116.337287 
L 237.771806 102.06675 
L 238.322634 97.944805 
L 238.874993 99.851443 
L 239.453359 103.025941 
L 240.014766 101.908489 
L 240.553604 101.070089 
L 241.1286 99.140458 
L 241.683783 24164.882595 
L 242.252988 149.2092 
L 242.814951 104.101706 
L 243.379559 99.527586 
L 243.950778 99.083382 
L 244.498254 103.445272 
L 245.057042 107.853327 
L 245.63058 24164.882595 
L 246.186107 24164.882595 
L 246.754373 24164.882595 
L 247.311865 24164.882595 
L 247.876033 24164.882595 
L 248.419617 24164.882595 
L 248.966294 24164.882595 
L 249.609129 109.054786 
L 250.12821 24164.882595 
L 250.677656 24164.882595 
L 251.250738 24164.882595 
L 251.83502 24164.882595 
L 252.367575 116.177243 
L 252.933921 24164.882595 
L 253.502256 134.793004 
L 254.056463 110.86504 
L 254.612194 114.989158 
L 255.192717 105.844883 
L 255.745565 104.11079 
L 256.308558 103.634113 
L 256.870058 103.422118 
L 257.434171 99.08563 
L 258.010221 104.912442 
L 258.564408 102.463469 
L 259.120319 121.458633 
L 259.682389 24164.882595 
L 260.259074 24164.882595 
L 260.805556 111.458724 
L 261.364148 106.386085 
L 261.922589 103.807061 
L 262.493439 107.106145 
L 263.053613 106.851467 
L 263.629396 114.59302 
L 264.187811 116.813929 
L 264.751856 125.432 
L 265.294403 118.407511 
L 265.863799 114.853551 
L 266.426518 119.097074 
L 266.990743 111.44961 
L 267.556799 115.522323 
L 268.118833 105.906965 
L 268.675953 104.514899 
L 269.249316 100.418598 
L 269.825574 104.273636 
L 270.367423 114.850753 
L 270.927104 103.796598 
L 271.492443 111.576637 
L 272.022667 112.657571 
L 272.629981 113.144664 
L 273.16784 120.866319 
L 273.730999 114.507256 
L 274.297075 112.980085 
L 274.873019 103.58675 
L 275.425624 96.722527 
L 275.968711 96.335275 
L 276.546141 93.702723 
L 277.113208 97.42499 
L 277.657045 99.202995 
L 278.238506 99.571053 
L 278.791933 100.614907 
L 279.363457 98.296352 
L 279.938046 97.199802 
L 280.481284 98.077146 
L 281.060581 104.224945 
L 281.597039 99.962554 
L 282.178691 109.752682 
L 282.746889 110.393139 
L 283.283926 98.609699 
L 283.838542 100.224354 
L 284.425263 102.332464 
L 284.952995 100.676595 
L 285.560219 96.193805 
L 286.107694 95.869792 
L 286.712203 96.891851 
L 287.236036 95.761533 
L 287.794393 96.184536 
L 288.354203 97.320371 
L 288.916427 97.596957 
L 289.487676 99.014761 
L 290.05214 99.493808 
L 290.613037 99.263131 
L 291.161631 98.582703 
L 291.717331 98.766197 
L 292.301644 100.895755 
L 292.856578 105.035492 
L 293.417602 110.423772 
L 293.98361 109.972131 
L 294.538651 109.012609 
L 295.095612 106.850696 
L 295.672374 110.986551 
L 296.21775 108.378129 
L 296.794111 100.163209 
L 297.355086 100.412789 
L 297.911295 111.052729 
L 298.481028 106.708979 
L 299.03725 107.964549 
L 299.591413 107.387429 
L 300.167306 98.249212 
L 300.732814 107.757922 
L 301.288646 110.48228 
L 301.853788 100.422305 
L 302.409321 97.201936 
L 302.970008 96.47151 
L 303.538256 97.399442 
L 304.100416 98.454393 
L 304.664224 96.61935 
L 305.191443 97.571648 
L 305.807244 98.551489 
L 306.319324 97.86059 
L 306.919381 97.701942 
L 307.477583 100.902581 
L 308.026002 100.684036 
L 308.588609 101.826854 
L 309.153527 103.822467 
L 309.722542 103.049783 
L 310.301988 98.548783 
L 310.842299 98.270789 
L 311.420425 97.923545 
L 311.962485 97.573127 
L 312.525329 96.388449 
L 313.099277 97.059545 
L 313.641875 100.537136 
L 314.222697 104.069475 
L 314.77379 99.40234 
L 315.349715 96.489611 
L 315.906101 96.033314 
L 316.453173 97.085567 
L 317.055365 98.308851 
L 317.588448 97.235591 
L 318.15269 98.061977 
L 318.711646 99.885174 
L 319.273715 97.473223 
L 319.839844 96.822399 
L 320.399805 97.009718 
L 320.97431 96.569845 
L 321.523682 96.852627 
L 322.088762 97.186694 
L 322.649552 97.980294 
L 323.215806 99.336959 
L 323.771538 99.346966 
L 324.343599 101.815284 
L 324.904111 102.912229 
L 325.464519 103.360044 
L 326.019371 107.012925 
L 326.582269 104.856591 
L 327.139292 102.403484 
L 327.706224 105.554018 
L 328.275531 106.07171 
L 328.836115 110.970245 
L 329.403732 112.623331 
L 329.962668 116.517024 
L 330.519581 109.23124 
L 331.094528 111.827647 
L 331.623601 109.61794 
L 332.215315 109.378531 
L 332.78597 109.139968 
L 333.325579 109.229318 
L 333.894431 106.567424 
L 334.448086 108.250248 
L 335.021757 106.799327 
L 335.589175 105.447526 
L 336.14479 100.749292 
L 336.723804 105.443553 
L 337.256712 115.792878 
L 337.832198 120.492781 
L 338.410391 107.34186 
L 338.957207 99.96581 
L 339.51465 99.580723 
L 340.073777 99.369394 
L 340.648481 100.954829 
L 341.205857 104.186912 
L 341.774894 101.058239 
L 342.330175 102.198142 
L 342.894635 102.236346 
L 343.467055 98.710787 
L 344.003286 99.302276 
L 344.589395 101.039564 
L 345.129121 99.506309 
L 345.708559 102.289566 
L 346.254329 107.344721 
L 346.828767 100.443846 
L 347.395211 99.695576 
L 347.945437 99.028271 
L 348.522765 99.684748 
L 349.067274 99.339334 
L 349.636689 100.144446 
L 350.211133 100.718395 
L 350.764596 100.245445 
L 351.3183 99.101494 
L 351.880652 99.253772 
L 352.454295 99.544999 
L 353.012002 100.74164 
L 353.572642 101.307319 
L 354.129749 99.493692 
L 354.697967 99.223997 
L 355.251779 98.509006 
L 355.827343 97.503555 
L 356.390043 98.753381 
L 356.935477 98.115754 
L 357.521515 98.549898 
L 358.057068 100.587848 
L 358.65464 100.817864 
L 359.194826 99.681213 
L 359.746722 99.364664 
L 360.320297 98.67243 
L 360.86827 99.029107 
L 361.450015 97.145558 
L 362.01647 99.7223 
L 362.571972 99.6206 
L 363.132767 102.613001 
L 363.692958 103.515909 
L 364.252816 99.634978 
L 364.816056 98.381202 
L 365.380537 96.981341 
L 365.939022 96.939464 
L 366.510172 100.462517 
L 367.065687 100.145678 
L 367.628309 99.118761 
L 368.188222 101.150306 
L 368.755057 101.747607 
L 369.31508 102.632127 
L 369.870931 104.25882 
L 370.435802 103.596135 
L 371.00009 101.672112 
L 371.566247 101.02504 
L 372.121332 100.431785 
L 372.687063 99.481695 
L 373.258343 99.287742 
L 373.812328 101.186868 
L 374.369213 101.984354 
L 374.937299 101.49604 
L 375.490119 101.332833 
L 376.061034 101.447413 
L 376.62409 100.805039 
L 377.19126 101.033754 
L 377.739578 100.90243 
L 378.328164 102.020386 
L 378.846262 102.704868 
L 379.433081 105.059464 
L 379.995988 104.494505 
L 380.560206 103.838103 
L 381.120486 103.234769 
L 381.676278 103.13113 
L 382.25006 103.902856 
L 382.806413 104.352816 
L 383.370817 102.04882 
L 383.93231 102.126296 
L 384.493063 101.20233 
L 385.054998 104.248084 
L 385.618571 105.4935 
L 386.180819 106.968587 
L 386.745392 103.716241 
L 387.308029 105.406825 
L 387.874384 106.453494 
L 388.42901 103.615304 
L 388.967244 105.351378 
L 389.554103 106.049712 
L 390.116623 105.769411 
L 390.678569 105.31384 
L 391.23722 103.834444 
L 391.7868 103.003517 
L 392.365915 102.890999 
L 392.927527 104.774611 
L 393.489587 103.405506 
L 394.051363 102.918459 
L 394.613888 103.391705 
L 395.121859 98.568826 
L 395.738408 90.987458 
L 396.300405 91.057393 
L 396.862684 90.660693 
L 397.425245 92.945973 
L 397.987098 95.033041 
L 398.548987 92.546248 
L 399.111398 91.57779 
L 399.673834 95.601144 
L 400.236056 96.607665 
L 400.798306 95.93165 
L 401.360586 96.366445 
L 401.831423 96.561357 
L 401.831423 88.807922 
L 401.831423 88.807922 
L 401.360586 88.841026 
L 400.798306 88.956196 
L 400.236056 89.395625 
L 399.673834 88.901508 
L 399.111398 85.570514 
L 398.548987 85.720896 
L 397.987098 86.487767 
L 397.425245 85.544824 
L 396.862684 84.514998 
L 396.300405 84.376173 
L 395.738408 84.629256 
L 395.121859 85.835042 
L 394.613888 86.190468 
L 394.051363 86.22898 
L 393.489587 86.087921 
L 392.927527 86.168811 
L 392.365915 86.329876 
L 391.7868 86.267882 
L 391.23722 86.904631 
L 390.678569 86.934598 
L 390.116623 86.783326 
L 389.554103 87.192782 
L 388.967244 87.014354 
L 388.42901 88.188325 
L 387.874384 88.959302 
L 387.308029 89.192543 
L 386.745392 89.646809 
L 386.180819 88.314317 
L 385.618571 88.707433 
L 385.054998 88.895481 
L 384.493063 88.465668 
L 383.93231 88.237819 
L 383.370817 88.334608 
L 382.806413 89.232892 
L 382.25006 89.054205 
L 381.676278 88.524831 
L 381.120486 89.140683 
L 380.560206 88.541433 
L 379.995988 88.945848 
L 379.433081 89.437124 
L 378.846262 92.15835 
L 378.328164 89.73938 
L 377.739578 89.610933 
L 377.19126 88.94448 
L 376.62409 87.948353 
L 376.061034 88.194083 
L 375.490119 88.768675 
L 374.937299 87.836852 
L 374.369213 88.362056 
L 373.812328 87.793722 
L 373.258343 88.039361 
L 372.687063 88.390593 
L 372.121332 87.532619 
L 371.566247 87.187259 
L 371.00009 87.361286 
L 370.435802 86.633184 
L 369.870931 86.634801 
L 369.31508 87.140123 
L 368.755057 86.772823 
L 368.188222 86.630038 
L 367.628309 87.350049 
L 367.065687 86.407791 
L 366.510172 87.547239 
L 365.939022 87.75556 
L 365.380537 85.871414 
L 364.816056 85.857084 
L 364.252816 85.807481 
L 363.692958 85.771838 
L 363.132767 85.58799 
L 362.571972 86.101374 
L 362.01647 85.816564 
L 361.450015 88.449889 
L 360.86827 86.411196 
L 360.320297 86.416498 
L 359.746722 85.526602 
L 359.194826 85.876218 
L 358.65464 86.661588 
L 358.057068 85.210581 
L 357.521515 84.243345 
L 356.935477 83.576109 
L 356.390043 84.40207 
L 355.827343 83.777263 
L 355.251779 84.000374 
L 354.697967 83.381643 
L 354.129749 83.111143 
L 353.572642 83.963842 
L 353.012002 84.379188 
L 352.454295 84.63513 
L 351.880652 84.793737 
L 351.3183 83.324203 
L 350.764596 82.75723 
L 350.211133 83.133539 
L 349.636689 81.733009 
L 349.067274 81.651323 
L 348.522765 81.813975 
L 347.945437 81.652789 
L 347.395211 80.374526 
L 346.828767 80.912302 
L 346.254329 81.232165 
L 345.708559 82.840989 
L 345.129121 83.151393 
L 344.589395 81.177756 
L 344.003286 81.866891 
L 343.467055 81.330891 
L 342.894635 81.071634 
L 342.330175 79.503048 
L 341.774894 79.761265 
L 341.205857 81.302684 
L 340.648481 80.504788 
L 340.073777 80.798225 
L 339.51465 80.825697 
L 338.957207 81.145195 
L 338.410391 80.905261 
L 337.832198 82.323439 
L 337.256712 83.395452 
L 336.723804 82.094005 
L 336.14479 85.528186 
L 335.589175 84.085405 
L 335.021757 85.937169 
L 334.448086 83.833269 
L 333.894431 83.646779 
L 333.325579 84.279211 
L 332.78597 85.061093 
L 332.215315 85.750262 
L 331.623601 84.817473 
L 331.094528 86.565626 
L 330.519581 86.144958 
L 329.962668 83.625275 
L 329.403732 85.190118 
L 328.836115 85.502889 
L 328.275531 87.459825 
L 327.706224 89.07961 
L 327.139292 90.42928 
L 326.582269 88.583556 
L 326.019371 85.665624 
L 325.464519 86.216984 
L 324.904111 86.678705 
L 324.343599 87.336475 
L 323.771538 89.083872 
L 323.215806 89.090132 
L 322.649552 88.608656 
L 322.088762 88.689648 
L 321.523682 88.494179 
L 320.97431 88.159292 
L 320.399805 87.601968 
L 319.839844 87.502462 
L 319.273715 87.085338 
L 318.711646 85.462394 
L 318.15269 87.675313 
L 317.588448 85.624076 
L 317.055365 84.339441 
L 316.453173 84.475279 
L 315.906101 85.898447 
L 315.349715 88.179007 
L 314.77379 86.600977 
L 314.222697 84.308742 
L 313.641875 84.037377 
L 313.099277 83.445479 
L 312.525329 84.055242 
L 311.962485 84.510662 
L 311.420425 83.897609 
L 310.842299 83.741146 
L 310.301988 83.425362 
L 309.722542 84.715288 
L 309.153527 85.054889 
L 308.588609 87.326482 
L 308.026002 83.711505 
L 307.477583 85.093315 
L 306.919381 85.799826 
L 306.319324 88.345161 
L 305.807244 88.092867 
L 305.191443 86.962326 
L 304.664224 87.866923 
L 304.100416 84.51588 
L 303.538256 84.222071 
L 302.970008 83.823949 
L 302.409321 82.324726 
L 301.853788 84.791334 
L 301.288646 82.371882 
L 300.732814 81.990592 
L 300.167306 86.632071 
L 299.591413 81.591089 
L 299.03725 81.360437 
L 298.481028 82.433404 
L 297.911295 82.408575 
L 297.355086 86.057844 
L 296.794111 87.159093 
L 296.21775 83.704064 
L 295.672374 83.851491 
L 295.095612 85.468921 
L 294.538651 82.406048 
L 293.98361 81.742246 
L 293.417602 82.101143 
L 292.856578 82.328789 
L 292.301644 80.814178 
L 291.717331 81.815629 
L 291.161631 79.350751 
L 290.613037 81.941687 
L 290.05214 79.673088 
L 289.487676 80.797519 
L 288.916427 82.503069 
L 288.354203 81.135779 
L 287.794393 81.520675 
L 287.236036 81.686302 
L 286.712203 82.613152 
L 286.107694 84.543841 
L 285.560219 84.933268 
L 284.952995 80.460972 
L 284.425263 79.443883 
L 283.838542 76.168899 
L 283.283926 79.729276 
L 282.746889 77.594365 
L 282.178691 82.684182 
L 281.597039 84.463091 
L 281.060581 82.275938 
L 280.481284 83.527354 
L 279.938046 83.741113 
L 279.363457 84.008897 
L 278.791933 84.407142 
L 278.238506 84.766491 
L 277.657045 84.242663 
L 277.113208 84.579352 
L 276.546141 84.771429 
L 275.968711 82.702468 
L 275.425624 81.385871 
L 274.873019 83.112132 
L 274.297075 83.302141 
L 273.730999 83.207491 
L 273.16784 83.466042 
L 272.629981 83.840326 
L 272.022667 82.926492 
L 271.492443 82.200635 
L 270.927104 82.421405 
L 270.367423 81.098458 
L 269.825574 81.736001 
L 269.249316 82.177929 
L 268.675953 81.553185 
L 268.118833 82.318407 
L 267.556799 81.952488 
L 266.990743 82.829109 
L 266.426518 81.241184 
L 265.863799 80.254222 
L 265.294403 80.286225 
L 264.751856 80.321106 
L 264.187811 80.820503 
L 263.629396 79.717893 
L 263.053613 82.253313 
L 262.493439 81.490754 
L 261.922589 80.564176 
L 261.364148 81.260224 
L 260.805556 81.556339 
L 260.259074 77.842083 
L 259.682389 79.178964 
L 259.120319 81.050016 
L 258.564408 82.126354 
L 258.010221 81.372754 
L 257.434171 78.622798 
L 256.870058 80.542749 
L 256.308558 81.098013 
L 255.745565 81.698926 
L 255.192717 80.722663 
L 254.612194 79.238864 
L 254.056463 79.253255 
L 253.502256 79.161718 
L 252.933921 76.597024 
L 252.367575 78.813515 
L 251.83502 75.873689 
L 251.250738 72.841674 
L 250.677656 76.300558 
L 250.12821 77.513026 
L 249.609129 78.20255 
L 248.966294 73.202611 
L 248.419617 72.245987 
L 247.876033 74.731762 
L 247.311865 74.153147 
L 246.754373 74.325251 
L 246.186107 74.498664 
L 245.63058 74.542417 
L 245.057042 75.129752 
L 244.498254 75.490563 
L 243.950778 76.277064 
L 243.379559 76.02939 
L 242.814951 75.898148 
L 242.252988 74.971465 
L 241.683783 75.162627 
L 241.1286 77.500656 
L 240.553604 77.022198 
L 240.014766 76.913865 
L 239.453359 76.103568 
L 238.874993 77.550034 
L 238.322634 77.982018 
L 237.771806 76.411736 
L 237.18727 76.617702 
L 236.667877 76.098947 
L 236.066093 76.284077 
L 235.507485 74.306195 
L 234.948669 74.355031 
L 234.387642 73.578379 
L 233.793487 75.946825 
L 233.241374 77.011176 
L 232.71733 77.216951 
L 232.160982 77.860923 
L 231.601764 77.210048 
L 231.014761 75.666486 
L 230.401312 73.952301 
L 229.869594 75.449017 
L 229.326142 76.439709 
L 228.784757 75.785262 
L 228.208064 74.949418 
L 227.666533 75.676554 
L 227.070302 74.690237 
L 226.514451 75.277597 
L 225.996024 74.852071 
L 225.384872 74.192988 
L 224.824709 74.694284 
L 224.275188 74.930404 
L 223.707971 74.94385 
L 223.140377 75.099253 
L 222.57788 75.215089 
L 222.002425 73.254147 
L 221.466632 74.283198 
L 220.892807 74.818032 
L 220.33032 74.88642 
L 219.769912 75.251343 
L 219.245256 74.771124 
L 218.6479 74.978139 
L 218.081649 75.132454 
L 217.519374 76.133016 
L 216.957462 75.62756 
L 216.394961 75.161775 
L 215.832756 75.16317 
L 215.270648 75.138797 
L 214.707167 76.081663 
L 214.146247 75.614352 
L 213.584 77.507857 
L 213.023297 76.03937 
L 212.459627 75.991621 
L 211.897312 75.14589 
L 211.333238 75.336825 
L 210.773194 76.406698 
L 210.209535 75.499646 
L 209.645847 74.9094 
L 209.085691 76.382898 
L 208.523008 75.192287 
L 207.96333 75.472706 
L 207.398839 75.336142 
L 206.837222 75.192458 
L 206.275152 73.977542 
L 205.712902 72.533616 
L 205.150463 72.918033 
L 204.588455 73.20584 
L 204.026302 72.371203 
L 203.463827 73.646684 
L 202.901602 73.285815 
L 202.339514 73.336574 
L 201.777375 73.709698 
L 201.215142 74.10298 
L 200.65283 74.04567 
L 200.090685 74.319224 
L 199.52836 74.906918 
L 198.966029 75.39758 
L 198.403652 75.009571 
L 197.841437 73.678977 
L 197.279142 74.067684 
L 196.716668 73.891639 
L 196.154412 72.42873 
L 195.59208 72.902455 
L 195.029745 72.513385 
L 194.467333 71.185733 
L 193.904592 70.306735 
L 193.341793 69.961827 
L 192.778998 71.0687 
L 192.215603 71.933221 
L 191.649653 71.817537 
L 191.076363 66.791673 
L 190.61712 69.849729 
L 189.971156 67.254589 
L 189.40899 65.648942 
L 188.846812 65.043076 
L 188.284601 64.449978 
L 187.72235 62.395538 
L 187.160066 63.995594 
L 186.597765 64.077306 
L 186.035672 63.158842 
L 185.473452 65.043625 
L 184.911688 67.413085 
L 184.349109 64.681259 
L 183.786988 64.218581 
L 183.224758 64.751348 
L 182.662396 67.084593 
L 182.10008 65.69268 
L 181.537844 65.441155 
L 180.975576 66.553892 
L 180.413248 69.415939 
L 179.851247 70.290371 
L 179.289024 69.796649 
L 178.726643 70.931257 
L 178.164421 70.452772 
L 177.602255 70.514149 
L 177.039979 68.898286 
L 176.477689 68.928741 
L 175.915441 70.788106 
L 175.353129 71.433027 
L 174.790817 72.548815 
L 174.228479 73.512204 
L 173.666187 72.331424 
L 173.103901 71.178933 
L 172.54143 71.95446 
L 171.979052 70.527015 
L 171.416649 69.605563 
L 170.854086 68.4255 
L 170.291523 69.380814 
L 169.728902 70.14989 
L 169.166078 69.092791 
L 168.587319 67.992591 
L 168.039623 67.643674 
L 167.472275 64.086409 
L 166.907732 68.238112 
L 166.323247 71.76193 
L 165.985238 68.680919 
z
" clip-path="url(#pf5ce0c5c88)" style="fill: #add8e6; stroke: #add8e6"/>
   </g>
   <g id="line2d_71">
    <path d="M 165.985238 72.741445 
L 166.323247 75.477483 
L 166.907732 73.204973 
L 167.472275 68.001246 
L 168.039623 70.831667 
L 168.587319 70.801937 
L 169.166078 71.660729 
L 169.728902 72.000006 
L 170.854086 71.050272 
L 171.416649 72.259306 
L 172.54143 73.657757 
L 173.103901 73.672144 
L 173.666187 74.680909 
L 174.228479 75.171817 
L 174.790817 74.998075 
L 175.353129 74.348302 
L 175.915441 74.122694 
L 176.477689 72.866133 
L 177.039979 72.017784 
L 177.602255 73.41027 
L 178.164421 73.340653 
L 178.726643 73.993127 
L 179.289024 73.396589 
L 179.851247 73.981775 
L 180.413248 73.541293 
L 180.975576 71.338476 
L 181.537844 70.678742 
L 182.10008 70.844977 
L 182.662396 72.17898 
L 183.224758 70.413672 
L 183.786988 69.917141 
L 184.349109 70.53546 
L 184.911688 73.390512 
L 185.473452 71.997692 
L 186.035672 70.057116 
L 186.597765 70.626867 
L 187.160066 70.560201 
L 187.72235 69.176801 
L 188.284601 71.06427 
L 188.846812 71.706653 
L 189.40899 71.558691 
L 190.61712 73.705987 
L 191.076363 71.764298 
L 191.649653 76.154857 
L 192.215603 77.352653 
L 192.778998 77.385754 
L 193.341793 76.598779 
L 193.904592 76.438372 
L 195.029745 77.99976 
L 195.59208 78.433865 
L 196.154412 77.349732 
L 196.716668 78.713096 
L 197.279142 77.823067 
L 197.841437 77.204893 
L 198.403652 78.459354 
L 198.966029 78.624082 
L 199.52836 78.29852 
L 200.090685 77.806279 
L 200.65283 77.608847 
L 201.215142 77.786187 
L 201.777375 77.501323 
L 202.901602 77.442826 
L 203.463827 76.716816 
L 204.026302 76.390975 
L 205.150463 76.837866 
L 205.712902 76.11539 
L 206.275152 77.135964 
L 206.837222 78.406631 
L 207.96333 79.256874 
L 208.523008 79.199735 
L 209.085691 79.977147 
L 209.645847 78.856583 
L 210.209535 78.849399 
L 210.773194 79.164433 
L 211.333238 78.585733 
L 211.897312 77.719286 
L 212.459627 78.448981 
L 213.023297 78.776687 
L 213.584 81.480734 
L 214.146247 79.239549 
L 214.707167 78.658692 
L 215.270648 77.769293 
L 215.832756 78.222261 
L 216.394961 78.419224 
L 217.519374 79.999334 
L 218.6479 79.400764 
L 219.769912 81.880156 
L 220.33032 81.199852 
L 220.892807 81.102737 
L 221.466632 80.299263 
L 222.002425 79.326695 
L 222.57788 81.506806 
L 223.140377 81.310256 
L 223.707971 80.987989 
L 224.824709 81.005635 
L 225.384872 80.359898 
L 225.996024 80.055654 
L 226.514451 81.749153 
L 227.070302 81.109063 
L 227.666533 82.183843 
L 228.208064 81.529882 
L 229.326142 82.905911 
L 229.869594 81.855418 
L 230.401312 79.959579 
L 231.014761 82.326114 
L 231.601764 83.354662 
L 232.160982 83.845931 
L 232.71733 83.769217 
L 233.241374 83.567443 
L 233.793487 82.321494 
L 234.387642 80.168802 
L 234.948669 81.244848 
L 235.507485 81.135508 
L 236.066093 83.082917 
L 237.18727 83.678938 
L 237.771806 82.828859 
L 238.322634 83.808341 
L 238.874993 83.653984 
L 239.453359 82.617251 
L 240.014766 83.27627 
L 240.553604 83.300483 
L 241.1286 83.531503 
L 241.683783 82.617414 
L 242.252988 82.263397 
L 242.814951 82.499082 
L 243.379559 82.255586 
L 243.950778 82.434112 
L 244.498254 82.075315 
L 245.63058 81.93455 
L 247.311865 81.915569 
L 247.876033 82.344762 
L 248.419617 80.068455 
L 248.966294 80.635969 
L 249.609129 84.955177 
L 250.12821 85.622456 
L 250.677656 84.148997 
L 251.250738 81.416937 
L 251.83502 83.408499 
L 252.367575 85.81548 
L 252.933921 84.083531 
L 253.502256 86.409377 
L 254.056463 86.043129 
L 254.612194 86.192126 
L 255.745565 87.814688 
L 256.870058 86.707292 
L 257.434171 84.51312 
L 258.010221 87.602968 
L 258.564408 88.000835 
L 259.120319 88.126279 
L 260.259074 85.398984 
L 260.805556 88.258655 
L 261.364148 87.633755 
L 261.922589 86.76533 
L 262.493439 87.904682 
L 263.053613 88.581327 
L 263.629396 86.641556 
L 264.187811 87.781575 
L 265.294403 87.308676 
L 265.863799 87.168053 
L 266.990743 89.456365 
L 267.556799 88.827353 
L 268.118833 88.553335 
L 268.675953 87.726122 
L 269.825574 87.865077 
L 270.367423 87.980499 
L 271.492443 88.873166 
L 272.629981 90.508692 
L 273.16784 90.46903 
L 273.730999 89.982372 
L 274.297075 89.991929 
L 274.873019 89.003931 
L 275.425624 86.479388 
L 276.546141 88.317522 
L 277.113208 89.154489 
L 277.657045 89.263988 
L 278.238506 89.75732 
L 278.791933 89.659936 
L 279.363457 88.895858 
L 279.938046 88.452931 
L 280.481284 88.467518 
L 281.060581 88.341459 
L 281.597039 89.587199 
L 282.178691 89.208323 
L 282.746889 84.437553 
L 283.283926 85.40771 
L 283.838542 82.447883 
L 284.425263 85.609368 
L 284.952995 86.319985 
L 285.560219 89.125409 
L 286.107694 88.752662 
L 287.236036 86.529445 
L 288.354203 86.384475 
L 288.916427 87.550254 
L 289.487676 86.378677 
L 290.05214 85.480741 
L 290.613037 87.38292 
L 291.161631 85.078661 
L 291.717331 87.19594 
L 292.301644 86.655946 
L 292.856578 88.475542 
L 293.417602 88.709694 
L 293.98361 88.344871 
L 294.538651 88.896665 
L 295.095612 91.470135 
L 295.672374 90.380351 
L 296.21775 90.038754 
L 296.794111 91.770157 
L 297.355086 90.958593 
L 297.911295 89.037296 
L 298.481028 88.732552 
L 299.03725 87.850873 
L 299.591413 88.019518 
L 300.167306 90.914212 
L 300.732814 88.416712 
L 301.288646 88.9668 
L 301.853788 89.939872 
L 302.409321 87.329822 
L 302.970008 88.353592 
L 304.100416 89.330421 
L 304.664224 91.359059 
L 305.191443 90.984158 
L 305.807244 92.074172 
L 306.319324 92.063043 
L 306.919381 90.152264 
L 307.477583 90.274581 
L 308.026002 89.095473 
L 308.588609 92.256704 
L 309.153527 90.717138 
L 309.722542 90.314026 
L 310.301988 88.47823 
L 310.842299 88.677261 
L 311.420425 88.730473 
L 311.962485 89.134849 
L 312.525329 88.511322 
L 313.099277 88.190963 
L 313.641875 89.341187 
L 314.222697 90.108446 
L 314.77379 91.166002 
L 315.349715 91.535104 
L 315.906101 89.791243 
L 316.453173 88.996288 
L 317.055365 89.160472 
L 317.588448 89.904815 
L 318.15269 91.637116 
L 318.711646 90.376931 
L 319.273715 91.047473 
L 320.399805 91.288688 
L 322.649552 92.284874 
L 323.215806 93.013759 
L 323.771538 93.011959 
L 324.343599 92.262347 
L 325.464519 91.629138 
L 326.019371 91.66283 
L 326.582269 93.847856 
L 327.139292 94.799274 
L 327.706224 94.379038 
L 328.836115 91.904782 
L 329.403732 91.73978 
L 329.962668 90.472402 
L 330.519581 92.33048 
L 331.094528 92.950566 
L 331.623601 91.163183 
L 332.215315 91.989006 
L 333.325579 90.637813 
L 333.894431 89.815537 
L 334.448086 90.145169 
L 335.021757 91.876726 
L 335.589175 90.084335 
L 336.14479 90.599758 
L 336.723804 88.305688 
L 337.256712 90.221252 
L 337.832198 89.347142 
L 338.410391 87.383197 
L 338.957207 86.81507 
L 339.51465 86.486136 
L 340.648481 86.393506 
L 341.205857 87.467725 
L 341.774894 85.752598 
L 342.330175 85.648594 
L 342.894635 87.047417 
L 343.467055 86.781563 
L 344.003286 87.326482 
L 344.589395 86.990831 
L 345.129121 88.430043 
L 345.708559 88.598688 
L 346.828767 86.681271 
L 347.395211 86.114753 
L 347.945437 87.10275 
L 348.522765 87.342201 
L 349.067274 87.15103 
L 349.636689 87.343194 
L 350.211133 88.616963 
L 350.764596 88.225278 
L 351.3183 88.499633 
L 351.880652 89.715816 
L 353.572642 89.408638 
L 354.129749 88.394615 
L 354.697967 88.568932 
L 355.251779 88.93226 
L 355.827343 88.546824 
L 356.390043 89.302078 
L 356.935477 88.514235 
L 357.521515 89.134215 
L 358.65464 91.521547 
L 359.194826 90.662543 
L 359.746722 90.319942 
L 360.320297 90.854236 
L 360.86827 90.933972 
L 361.450015 91.92477 
L 362.01647 90.624205 
L 363.692958 91.280338 
L 364.252816 90.598582 
L 365.380537 90.024856 
L 365.939022 91.376769 
L 366.510172 92.138215 
L 367.065687 91.179828 
L 367.628309 91.669757 
L 368.188222 91.564267 
L 368.755057 91.796959 
L 369.31508 92.262838 
L 370.435802 92.015558 
L 371.00009 92.253029 
L 371.566247 91.980539 
L 372.121332 92.119938 
L 372.687063 92.539169 
L 373.258343 92.228394 
L 373.812328 92.49122 
L 374.369213 93.109313 
L 374.937299 92.592041 
L 375.490119 93.278965 
L 376.62409 92.526009 
L 377.19126 93.34231 
L 378.328164 94.183081 
L 378.846262 96.163344 
L 379.433081 94.584066 
L 380.560206 93.627378 
L 381.120486 93.987747 
L 381.676278 93.476317 
L 382.25006 94.053702 
L 382.806413 94.285087 
L 383.370817 93.101587 
L 384.493063 93.015857 
L 385.054998 93.992011 
L 385.618571 94.060143 
L 386.180819 93.960164 
L 386.745392 94.488744 
L 387.874384 94.428304 
L 388.42901 93.298861 
L 388.967244 92.61347 
L 389.554103 92.867859 
L 390.116623 92.47678 
L 390.678569 92.540002 
L 391.23722 92.281479 
L 391.7868 91.612058 
L 392.365915 91.64426 
L 392.927527 91.807596 
L 393.489587 91.528529 
L 394.613888 91.612151 
L 395.121859 90.38457 
L 395.738408 87.335717 
L 396.862684 87.145844 
L 397.987098 89.916612 
L 398.548987 88.590143 
L 399.111398 88.151577 
L 399.673834 91.727409 
L 400.236056 92.396084 
L 400.798306 91.876754 
L 401.831423 91.986781 
L 401.831423 91.986781 
" clip-path="url(#pf5ce0c5c88)" style="fill: none; stroke: #1f77b4; stroke-width: 1.5; stroke-linecap: square"/>
   </g>
   <g id="line2d_72">
    <path d="M 83.256514 99.347864 
L 83.481654 115.166784 
L 83.706875 231.609273 
L 83.932015 118.138546 
L 84.382457 95.966004 
L 85.058039 80.341505 
L 85.732814 68.721947 
L 86.63386 58.296277 
L 87.308634 52.885874 
L 87.984216 48.952821 
L 88.884454 45.264267 
L 89.784691 42.759637 
L 90.684121 41.000959 
L 91.584359 39.796733 
L 92.259941 39.128605 
L 93.384834 38.415847 
L 94.285072 38.080127 
L 95.63462 37.88615 
L 96.760322 37.897672 
L 99.010108 38.292541 
L 100.58512 38.728414 
L 108.01006 41.593447 
L 120.834003 46.886614 
L 122.18436 47.395106 
L 124.658801 48.328567 
L 127.583361 49.37784 
L 128.933718 49.867414 
L 136.357851 52.351163 
L 138.607637 53.048279 
L 140.407304 53.608852 
L 146.932007 55.501547 
L 154.35614 57.500247 
L 155.931152 57.889593 
L 158.180938 58.456358 
L 159.98303 58.89371 
L 162.229583 59.442947 
L 165.154952 60.101806 
L 166.730772 60.479191 
L 171.458232 61.498329 
L 172.581509 61.744006 
L 195.976376 66.255648 
L 197.552196 66.504365 
L 200.703836 67.052936 
L 202.279656 67.303759 
L 204.978753 67.761987 
L 206.772763 68.038413 
L 209.027398 68.41143 
L 211.04768 68.713973 
L 213.076043 69.040266 
L 215.322597 69.365838 
L 217.124689 69.645913 
L 219.597514 69.995033 
L 221.399606 70.275123 
L 224.324974 70.670806 
L 225.900794 70.904159 
L 228.826163 71.299865 
L 230.401983 71.533744 
L 234.224356 72.02257 
L 235.573905 72.209701 
L 239.396278 72.699071 
L 240.745827 72.886212 
L 245.699559 73.492257 
L 247.049107 73.67941 
L 254.023121 74.49527 
L 255.146398 74.635671 
L 264.375046 75.68595 
L 300.594664 79.400098 
L 300.594664 79.400098 
" clip-path="url(#pf5ce0c5c88)" style="fill: none; stroke: #000000; stroke-width: 2.5; stroke-linecap: square"/>
   </g>
   <g id="line2d_73">
    <path d="M 83.256514 26.345235 
L 83.706875 23.063149 
L 84.157236 21.674696 
L 84.607113 21.314727 
L 85.058039 21.450018 
L 85.732814 22.087845 
L 89.109109 26.312261 
L 92.71006 31.060232 
L 95.860084 34.749478 
L 98.559989 37.498716 
L 100.135001 38.976703 
L 105.084692 43.038667 
L 112.959752 48.214391 
L 114.534763 49.090696 
L 116.559086 50.19794 
L 123.083789 53.361566 
L 135.457613 58.253791 
L 138.382982 59.24945 
L 139.957993 59.783191 
L 152.331817 63.501948 
L 153.906021 63.920684 
L 155.931152 64.456336 
L 157.954666 64.968429 
L 159.756758 65.435054 
L 162.908398 66.180348 
L 164.257947 66.506847 
L 168.977326 67.579732 
L 170.108684 67.836842 
L 182.925353 70.474961 
L 184.056711 70.684942 
L 187.652813 71.362087 
L 189.002362 71.59501 
L 192.606545 72.24927 
L 194.174284 72.505138 
L 197.099652 73.019207 
L 198.675472 73.275752 
L 200.930107 73.649278 
L 202.724118 73.929099 
L 204.978753 74.302972 
L 206.999035 74.606072 
L 209.027398 74.933432 
L 211.273952 75.259811 
L 213.076043 75.540324 
L 215.322597 75.866718 
L 216.898417 76.100378 
L 219.379323 76.450712 
L 220.947062 76.684381 
L 224.098702 77.104209 
L 225.674522 77.338217 
L 229.270625 77.804606 
L 230.628254 77.991756 
L 235.347633 78.599109 
L 236.697182 78.786595 
L 241.877185 79.416601 
L 243.000462 79.556897 
L 249.069389 80.281342 
L 250.200747 80.421646 
L 295.640932 85.170744 
L 296.77229 85.263878 
L 300.820935 85.638683 
L 300.820935 85.638683 
" clip-path="url(#pf5ce0c5c88)" style="fill: none; stroke-dasharray: 9.25,4; stroke-dashoffset: 0; stroke: #8b0000; stroke-width: 2.5"/>
   </g>
   <g id="legend_1">
    <g id="line2d_74">
     <path d="M 330.516418 23.898438 
L 340.516418 23.898438 
L 350.516418 23.898438 
" style="fill: none; stroke: #1f77b4; stroke-width: 1.5; stroke-linecap: square"/>
    </g>
    <g id="text_14">
     <!-- PSP -->
     <g transform="translate(358.516418 27.398438) scale(0.1 -0.1)">
      <defs>
       <path id="DejaVuSans-53" d="M 3425 4513 
L 3425 3897 
Q 3066 4069 2747 4153 
Q 2428 4238 2131 4238 
Q 1616 4238 1336 4038 
Q 1056 3838 1056 3469 
Q 1056 3159 1242 3001 
Q 1428 2844 1947 2747 
L 2328 2669 
Q 3034 2534 3370 2195 
Q 3706 1856 3706 1288 
Q 3706 609 3251 259 
Q 2797 -91 1919 -91 
Q 1588 -91 1214 -16 
Q 841 59 441 206 
L 441 856 
Q 825 641 1194 531 
Q 1563 422 1919 422 
Q 2459 422 2753 634 
Q 3047 847 3047 1241 
Q 3047 1584 2836 1778 
Q 2625 1972 2144 2069 
L 1759 2144 
Q 1053 2284 737 2584 
Q 422 2884 422 3419 
Q 422 4038 858 4394 
Q 1294 4750 2059 4750 
Q 2388 4750 2728 4690 
Q 3069 4631 3425 4513 
z
" transform="scale(0.015625)"/>
      </defs>
      <use xlink:href="#DejaVuSans-50"/>
      <use xlink:href="#DejaVuSans-53" x="60.302734"/>
      <use xlink:href="#DejaVuSans-50" x="123.779297"/>
     </g>
    </g>
    <g id="line2d_75">
     <path d="M 330.516418 38.576562 
L 340.516418 38.576562 
L 350.516418 38.576562 
" style="fill: none; stroke: #000000; stroke-width: 2.5; stroke-linecap: square"/>
    </g>
    <g id="text_15">
     <!-- Slow wind -->
     <g transform="translate(358.516418 42.076562) scale(0.1 -0.1)">
      <defs>
       <path id="DejaVuSans-6c" d="M 603 4863 
L 1178 4863 
L 1178 0 
L 603 0 
L 603 4863 
z
" transform="scale(0.015625)"/>
       <path id="DejaVuSans-6f" d="M 1959 3097 
Q 1497 3097 1228 2736 
Q 959 2375 959 1747 
Q 959 1119 1226 758 
Q 1494 397 1959 397 
Q 2419 397 2687 759 
Q 2956 1122 2956 1747 
Q 2956 2369 2687 2733 
Q 2419 3097 1959 3097 
z
M 1959 3584 
Q 2709 3584 3137 3096 
Q 3566 2609 3566 1747 
Q 3566 888 3137 398 
Q 2709 -91 1959 -91 
Q 1206 -91 779 398 
Q 353 888 353 1747 
Q 353 2609 779 3096 
Q 1206 3584 1959 3584 
z
" transform="scale(0.015625)"/>
       <path id="DejaVuSans-77" d="M 269 3500 
L 844 3500 
L 1563 769 
L 2278 3500 
L 2956 3500 
L 3675 769 
L 4391 3500 
L 4966 3500 
L 4050 0 
L 3372 0 
L 2619 2869 
L 1863 0 
L 1184 0 
L 269 3500 
z
" transform="scale(0.015625)"/>
       <path id="DejaVuSans-64" d="M 2906 2969 
L 2906 4863 
L 3481 4863 
L 3481 0 
L 2906 0 
L 2906 525 
Q 2725 213 2448 61 
Q 2172 -91 1784 -91 
Q 1150 -91 751 415 
Q 353 922 353 1747 
Q 353 2572 751 3078 
Q 1150 3584 1784 3584 
Q 2172 3584 2448 3432 
Q 2725 3281 2906 2969 
z
M 947 1747 
Q 947 1113 1208 752 
Q 1469 391 1925 391 
Q 2381 391 2643 752 
Q 2906 1113 2906 1747 
Q 2906 2381 2643 2742 
Q 2381 3103 1925 3103 
Q 1469 3103 1208 2742 
Q 947 2381 947 1747 
z
" transform="scale(0.015625)"/>
      </defs>
      <use xlink:href="#DejaVuSans-53"/>
      <use xlink:href="#DejaVuSans-6c" x="63.476562"/>
      <use xlink:href="#DejaVuSans-6f" x="91.259766"/>
      <use xlink:href="#DejaVuSans-77" x="152.441406"/>
      <use xlink:href="#DejaVuSans-20" x="234.228516"/>
      <use xlink:href="#DejaVuSans-77" x="266.015625"/>
      <use xlink:href="#DejaVuSans-69" x="347.802734"/>
      <use xlink:href="#DejaVuSans-6e" x="375.585938"/>
      <use xlink:href="#DejaVuSans-64" x="438.964844"/>
     </g>
    </g>
    <g id="line2d_76">
     <path d="M 330.516418 53.254687 
L 340.516418 53.254687 
L 350.516418 53.254687 
" style="fill: none; stroke-dasharray: 9.25,4; stroke-dashoffset: 0; stroke: #8b0000; stroke-width: 2.5"/>
    </g>
    <g id="text_16">
     <!-- Fast wind -->
     <g transform="translate(358.516418 56.754687) scale(0.1 -0.1)">
      <defs>
       <path id="DejaVuSans-46" d="M 628 4666 
L 3309 4666 
L 3309 4134 
L 1259 4134 
L 1259 2759 
L 3109 2759 
L 3109 2228 
L 1259 2228 
L 1259 0 
L 628 0 
L 628 4666 
z
" transform="scale(0.015625)"/>
      </defs>
      <use xlink:href="#DejaVuSans-46"/>
      <use xlink:href="#DejaVuSans-61" x="48.394531"/>
      <use xlink:href="#DejaVuSans-73" x="109.673828"/>
      <use xlink:href="#DejaVuSans-74" x="161.773438"/>
      <use xlink:href="#DejaVuSans-20" x="200.982422"/>
      <use xlink:href="#DejaVuSans-77" x="232.769531"/>
      <use xlink:href="#DejaVuSans-69" x="314.556641"/>
      <use xlink:href="#DejaVuSans-6e" x="342.339844"/>
      <use xlink:href="#DejaVuSans-64" x="405.71875"/>
     </g>
    </g>
   </g>
  </g>
 </g>
 <defs>
  <clipPath id="pf5ce0c5c88">
   <rect x="67.327768" y="10.8" width="350.4324" height="231.324"/>
  </clipPath>
 </defs>
</svg>
