<?xml version="1.0" encoding="utf-8" standalone="no"?>
<!DOCTYPE svg PUBLIC "-//W3C//DTD SVG 1.1//EN"
  "http://www.w3.org/Graphics/SVG/1.1/DTD/svg11.dtd">
<svg xmlns:xlink="http://www.w3.org/1999/xlink" width="432pt" height="288pt" viewBox="0 0 432 288" xmlns="http://www.w3.org/2000/svg" version="1.1">
 <metadata>
  <rdf:RDF xmlns:dc="http://purl.org/dc/elements/1.1/" xmlns:cc="http://creativecommons.org/ns#" xmlns:rdf="http://www.w3.org/1999/02/22-rdf-syntax-ns#">
   <cc:Work>
    <dc:type rdf:resource="http://purl.org/dc/dcmitype/StillImage"/>
    <dc:date>2022-11-22T12:39:45.502363</dc:date>
    <dc:format>image/svg+xml</dc:format>
    <dc:creator>
     <cc:Agent>
      <dc:title>Matplotlib v3.6.2, https://matplotlib.org/</dc:title>
     </cc:Agent>
    </dc:creator>
   </cc:Work>
  </rdf:RDF>
 </metadata>
 <defs>
  <style type="text/css">*{stroke-linejoin: round; stroke-linecap: butt}</style>
 </defs>
 <g id="figure_1">
  <g id="patch_1">
   <path d="M 0 288 
L 432 288 
L 432 0 
L 0 0 
z
" style="fill: #ffffff"/>
  </g>
  <g id="axes_1">
   <g id="patch_2">
    <path d="M 67.327768 242.124 
L 421.2 242.124 
L 421.2 10.8 
L 67.327768 10.8 
z
" style="fill: #ffffff"/>
   </g>
   <g id="patch_3">
    <path d="M 67.327768 242.124 
L 67.327768 10.8 
" style="fill: none; stroke: #000000; stroke-width: 1.5; stroke-linejoin: miter; stroke-linecap: square"/>
   </g>
   <g id="patch_4">
    <path d="M 421.2 242.124 
L 421.2 10.8 
" style="fill: none; stroke: #000000; stroke-width: 1.5; stroke-linejoin: miter; stroke-linecap: square"/>
   </g>
   <g id="patch_5">
    <path d="M 67.327768 242.124 
L 421.2 242.124 
" style="fill: none; stroke: #000000; stroke-width: 1.5; stroke-linejoin: miter; stroke-linecap: square"/>
   </g>
   <g id="patch_6">
    <path d="M 67.327768 10.8 
L 421.2 10.8 
" style="fill: none; stroke: #000000; stroke-width: 1.5; stroke-linejoin: miter; stroke-linecap: square"/>
   </g>
   <g id="PolyCollection_1">
    <path d="M 205.739848 68.680919 
L 205.739848 79.435612 
L 206.239647 81.269285 
L 207.103897 82.921538 
L 207.938659 74.301227 
L 208.777569 75.425336 
L 209.58742 74.644469 
L 210.443203 75.063766 
L 211.275424 74.245823 
L 212.107344 74.338415 
L 212.93918 74.554244 
L 213.771015 75.815318 
L 214.602613 76.041685 
L 215.434174 75.690642 
L 216.265873 76.944735 
L 217.097298 77.709567 
L 217.928732 77.14273 
L 218.760234 78.195113 
L 219.591698 78.392962 
L 220.423161 79.03001 
L 221.254531 79.225833 
L 222.085961 76.469497 
L 222.917372 77.417941 
L 223.748619 77.332473 
L 224.579951 78.327567 
L 225.411516 78.908594 
L 226.242848 79.714261 
L 227.073852 80.417542 
L 227.90534 80.350691 
L 228.736737 81.563151 
L 229.568089 81.344006 
L 230.399558 82.425853 
L 231.231097 83.519446 
L 232.062439 83.240788 
L 232.89362 84.859323 
L 233.725478 88.591712 
L 234.556132 100.818716 
L 235.387459 97.335466 
L 236.2186 91.509054 
L 237.050047 91.647976 
L 237.88147 93.827055 
L 238.712842 92.863187 
L 239.544156 94.265573 
L 240.375423 86.267762 
L 241.20667 83.743814 
L 242.161826 79.85302 
L 242.840886 81.504127 
L 243.688582 83.657875 
L 244.525426 89.120688 
L 245.358491 95.54331 
L 246.190668 98.739887 
L 247.022852 92.868713 
L 247.854951 92.544105 
L 248.686561 90.11687 
L 249.51806 90.793793 
L 250.349553 86.883437 
L 251.180933 87.863084 
L 252.012637 83.713737 
L 252.844075 82.543135 
L 253.675395 83.623064 
L 254.506955 83.298823 
L 255.338447 83.331604 
L 256.16993 83.054916 
L 257.001147 83.034046 
L 257.832611 83.498642 
L 258.663958 83.4831 
L 259.495165 84.524219 
L 260.326298 84.409564 
L 261.157632 81.067948 
L 261.989337 82.972828 
L 262.820566 81.65152 
L 263.65158 83.151035 
L 264.483232 81.584373 
L 265.314604 81.667999 
L 266.14571 83.055318 
L 266.976145 84.039594 
L 267.810832 85.219815 
L 268.6384 85.747942 
L 269.470412 85.475645 
L 270.298687 85.242351 
L 271.132187 83.789956 
L 271.965642 82.910592 
L 272.793752 83.308072 
L 273.627821 81.13195 
L 274.459289 81.659878 
L 275.292761 82.48509 
L 276.121845 87.935337 
L 276.953213 84.811787 
L 277.782618 82.077774 
L 278.61581 81.283517 
L 279.446971 82.551094 
L 280.278277 83.15979 
L 281.110021 84.98713 
L 281.940893 86.172416 
L 282.772302 88.170355 
L 283.609589 87.170723 
L 284.492872 95.987886 
L 285.268655 103.896986 
L 286.097303 99.320493 
L 286.929025 98.935526 
L 287.777513 95.793588 
L 288.569764 95.266813 
L 289.420663 99.409051 
L 290.252399 98.441888 
L 291.091672 96.701232 
L 291.93039 96.517336 
L 292.742939 99.10514 
L 293.571226 97.095524 
L 294.474907 90.784344 
L 295.24148 101.629646 
L 296.06339 100.366421 
L 296.945008 102.510492 
L 297.754035 93.817933 
L 298.620312 92.15904 
L 299.399207 90.164792 
L 300.189789 90.58428 
L 300.941463 87.666444 
L 301.899021 92.013859 
L 302.78594 94.190789 
L 303.603888 92.862333 
L 304.423643 92.662701 
L 305.178713 92.438865 
L 305.980853 95.327422 
L 306.885195 95.910209 
L 307.713568 97.347422 
L 308.535952 98.178253 
L 309.359895 94.543592 
L 310.278076 93.953291 
L 311.017612 93.878757 
L 311.893158 90.767605 
L 312.702418 91.264996 
L 313.514843 91.466235 
L 314.376716 91.519563 
L 315.207121 93.556423 
L 315.99289 93.230405 
L 316.849247 93.092713 
L 317.661646 99.821115 
L 318.50932 100.785916 
L 319.340622 101.909515 
L 320.177549 99.816658 
L 321.030384 96.687676 
L 321.826892 98.805273 
L 322.649868 100.250481 
L 323.508236 101.881331 
L 324.324173 96.327189 
L 325.169332 99.22879 
L 325.989334 98.631858 
L 326.825671 97.468487 
L 327.601335 98.617725 
L 328.312247 104.841162 
L 329.449125 24164.882595 
L 330.158643 24164.882595 
L 330.959739 94.089779 
L 331.816798 24164.882595 
L 332.702889 105.132534 
L 333.463668 95.876053 
L 334.303743 93.755852 
L 335.148198 97.332471 
L 335.963049 96.999952 
L 336.778664 96.702613 
L 337.650516 93.430448 
L 338.462182 94.623724 
L 339.294997 94.482781 
L 340.124833 95.077188 
L 340.959531 91.2202 
L 341.820035 94.36833 
L 342.634488 93.615339 
L 343.452958 94.333891 
L 344.283947 97.438424 
L 345.145275 24164.882595 
L 345.94389 97.060315 
L 346.767486 103.116045 
L 347.590075 101.79295 
L 348.440312 93.936713 
L 349.267225 103.216001 
L 350.130355 24164.882595 
L 350.951791 109.294189 
L 351.788236 97.860605 
L 352.572069 97.225478 
L 353.420384 110.881492 
L 354.252956 101.302505 
L 355.089111 95.376559 
L 355.930137 97.287762 
L 356.760729 96.434022 
L 357.579809 99.195129 
L 358.438292 94.61511 
L 359.296896 98.071451 
L 360.085261 101.832832 
L 360.911474 93.908374 
L 361.748784 103.579445 
L 362.513653 96.500954 
L 363.438673 98.571695 
L 364.219376 113.320739 
L 365.052073 100.191854 
L 365.891609 102.209626 
L 366.752636 95.63955 
L 367.563422 92.188393 
L 368.353106 92.689176 
L 369.217356 91.600298 
L 370.059559 94.954014 
L 370.850951 98.603916 
L 371.724159 96.68991 
L 372.536631 98.66406 
L 373.387732 95.765764 
L 374.246184 95.127342 
L 375.036055 96.586594 
L 375.903098 107.774649 
L 376.682012 100.245556 
L 377.55473 24164.882595 
L 378.395452 105.620521 
L 379.172516 92.965199 
L 379.98533 91.416764 
L 380.87595 96.973275 
L 381.596978 97.183293 
L 382.585392 91.182636 
L 383.357905 92.356045 
L 384.306812 94.934202 
L 385.02989 92.248851 
L 385.852659 92.714688 
L 386.678791 94.413536 
L 387.510163 95.270599 
L 388.361904 95.966734 
L 389.1971 97.162189 
L 390.027268 98.387299 
L 390.826886 97.923232 
L 391.638783 95.785291 
L 392.523327 99.762506 
L 393.339368 106.538129 
L 394.168202 112.713918 
L 395.006964 109.18797 
L 395.824213 108.33764 
L 396.644189 107.878388 
L 397.505865 120.912626 
L 398.302174 114.873015 
L 399.163277 98.153204 
L 399.991727 100.038613 
L 400.810671 118.299328 
L 401.65718 110.536428 
L 402.476544 106.849931 
L 403.291186 108.993507 
L 404.151029 94.99199 
L 404.988048 107.218363 
L 404.988048 80.646658 
L 404.988048 80.646658 
L 404.151029 87.58349 
L 403.291186 79.775893 
L 402.476544 79.590892 
L 401.65718 81.228127 
L 400.810671 80.711229 
L 399.991727 85.702121 
L 399.163277 87.978506 
L 398.302174 82.617246 
L 397.505865 82.819354 
L 396.644189 84.756219 
L 395.824213 81.261221 
L 395.006964 80.344542 
L 394.168202 80.892792 
L 393.339368 81.301154 
L 392.523327 79.436977 
L 391.638783 79.738175 
L 390.826886 76.892596 
L 390.027268 79.643535 
L 389.1971 77.671659 
L 388.361904 78.607447 
L 387.510163 81.224199 
L 386.678791 79.626584 
L 385.852659 80.272031 
L 385.02989 80.512663 
L 384.306812 80.764592 
L 383.357905 86.888389 
L 382.585392 86.796966 
L 381.596978 77.472775 
L 380.87595 76.621115 
L 379.98533 73.58682 
L 379.172516 77.727025 
L 378.395452 76.023095 
L 377.55473 81.410615 
L 376.682012 84.222768 
L 375.903098 81.812398 
L 375.036055 84.333559 
L 374.246184 84.732648 
L 373.387732 85.832838 
L 372.536631 86.339742 
L 371.724159 87.590664 
L 370.850951 85.633308 
L 370.059559 86.838498 
L 369.217356 86.864581 
L 368.353106 83.571912 
L 367.563422 81.84907 
L 366.752636 87.243434 
L 365.891609 87.998509 
L 365.052073 89.14153 
L 364.219376 86.520465 
L 363.438673 89.512044 
L 362.513653 89.007939 
L 361.748784 84.619699 
L 360.911474 87.208698 
L 360.085261 84.468478 
L 359.296896 85.401956 
L 358.438292 87.213896 
L 357.579809 84.123834 
L 356.760729 88.698514 
L 355.930137 89.813687 
L 355.089111 91.446318 
L 354.252956 86.686136 
L 353.420384 82.259259 
L 352.572069 86.676737 
L 351.788236 87.022589 
L 350.951791 83.475508 
L 350.130355 79.900102 
L 349.267225 84.972696 
L 348.440312 88.820094 
L 347.590075 83.434483 
L 346.767486 84.035808 
L 345.94389 86.964239 
L 345.145275 79.191095 
L 344.283947 84.881235 
L 343.452958 88.022748 
L 342.634488 87.584188 
L 341.820035 85.826163 
L 340.959531 81.549766 
L 340.124833 84.864966 
L 339.294997 85.185105 
L 338.462182 86.384882 
L 337.650516 87.538395 
L 336.778664 84.881467 
L 335.963049 83.466126 
L 335.148198 85.953147 
L 334.303743 83.694377 
L 333.463668 85.735191 
L 332.702889 81.471945 
L 331.816798 71.953461 
L 330.959739 85.817699 
L 330.158643 79.990725 
L 329.449125 79.712229 
L 328.312247 80.411463 
L 327.601335 80.197011 
L 326.825671 81.630808 
L 325.989334 82.093608 
L 325.169332 82.634091 
L 324.324173 80.557222 
L 323.508236 80.55705 
L 322.649868 80.550229 
L 321.826892 80.621722 
L 321.030384 80.31535 
L 320.177549 80.521704 
L 319.340622 81.152617 
L 318.50932 85.407918 
L 317.661646 83.494036 
L 316.849247 81.333473 
L 315.99289 81.312597 
L 315.207121 81.472427 
L 314.376716 81.50497 
L 313.514843 82.263088 
L 312.702418 82.161465 
L 311.893158 81.426378 
L 311.017612 83.397465 
L 310.278076 84.300844 
L 309.359895 83.948992 
L 308.535952 82.448529 
L 307.713568 81.914513 
L 306.885195 79.628646 
L 305.980853 81.879061 
L 305.178713 82.917645 
L 304.423643 83.277108 
L 303.603888 82.758787 
L 302.78594 82.639958 
L 301.899021 87.089145 
L 300.941463 78.49444 
L 300.189789 80.92268 
L 299.399207 83.062464 
L 298.620312 82.946131 
L 297.754035 80.741598 
L 296.945008 75.676554 
L 296.06339 74.690237 
L 295.24148 75.277597 
L 294.474907 74.852071 
L 293.571226 74.192988 
L 292.742939 74.694284 
L 291.93039 74.930404 
L 291.091672 74.94385 
L 290.252399 75.099253 
L 289.420663 75.215089 
L 288.569764 73.254147 
L 287.777513 74.283198 
L 286.929025 74.818032 
L 286.097303 74.88642 
L 285.268655 75.251343 
L 284.492872 74.771124 
L 283.609589 74.978139 
L 282.772302 75.132454 
L 281.940893 76.133016 
L 281.110021 75.62756 
L 280.278277 75.161775 
L 279.446971 75.16317 
L 278.61581 75.138797 
L 277.782618 76.081663 
L 276.953213 75.614352 
L 276.121845 77.507857 
L 275.292761 76.03937 
L 274.459289 75.991621 
L 273.627821 75.14589 
L 272.793752 75.336825 
L 271.965642 76.406698 
L 271.132187 75.499646 
L 270.298687 74.9094 
L 269.470412 76.382898 
L 268.6384 75.192287 
L 267.810832 75.472706 
L 266.976145 75.336142 
L 266.14571 75.192458 
L 265.314604 73.977542 
L 264.483232 72.533616 
L 263.65158 72.918033 
L 262.820566 73.20584 
L 261.989337 72.371203 
L 261.157632 73.646684 
L 260.326298 73.285815 
L 259.495165 73.336574 
L 258.663958 73.709698 
L 257.832611 74.10298 
L 257.001147 74.04567 
L 256.16993 74.319224 
L 255.338447 74.906918 
L 254.506955 75.39758 
L 253.675395 75.009571 
L 252.844075 73.678977 
L 252.012637 74.067684 
L 251.180933 73.891639 
L 250.349553 72.42873 
L 249.51806 72.902455 
L 248.686561 72.513385 
L 247.854951 71.185733 
L 247.022852 70.306735 
L 246.190668 69.961827 
L 245.358491 71.0687 
L 244.525426 71.933221 
L 243.688582 71.817537 
L 242.840886 66.791673 
L 242.161826 69.849729 
L 241.20667 67.254589 
L 240.375423 65.648942 
L 239.544156 65.043076 
L 238.712842 64.449978 
L 237.88147 62.395538 
L 237.050047 63.995594 
L 236.2186 64.077306 
L 235.387459 63.158842 
L 234.556132 65.043625 
L 233.725478 67.413085 
L 232.89362 64.681259 
L 232.062439 64.218581 
L 231.231097 64.751348 
L 230.399558 67.084593 
L 229.568089 65.69268 
L 228.736737 65.441155 
L 227.90534 66.553892 
L 227.073852 69.415939 
L 226.242848 70.290371 
L 225.411516 69.796649 
L 224.579951 70.931257 
L 223.748619 70.452772 
L 222.917372 70.514149 
L 222.085961 68.898286 
L 221.254531 68.928741 
L 220.423161 70.788106 
L 219.591698 71.433027 
L 218.760234 72.548815 
L 217.928732 73.512204 
L 217.097298 72.331424 
L 216.265873 71.178933 
L 215.434174 71.95446 
L 214.602613 70.527015 
L 213.771015 69.605563 
L 212.93918 68.4255 
L 212.107344 69.380814 
L 211.275424 70.14989 
L 210.443203 69.092791 
L 209.58742 67.992591 
L 208.777569 67.643674 
L 207.938659 64.086409 
L 207.103897 68.238112 
L 206.239647 71.76193 
L 205.739848 68.680919 
z
" clip-path="url(#pf2d9015dc1)" style="fill: #add8e6; stroke: #add8e6"/>
   </g>
   <g id="line2d_1">
    <path d="M 205.739848 72.741445 
L 206.239647 75.477483 
L 207.103897 73.204973 
L 207.938659 68.001246 
L 208.777569 70.831667 
L 209.58742 70.801937 
L 210.443203 71.660729 
L 211.275424 72.000006 
L 212.93918 71.050272 
L 213.771015 72.259306 
L 215.434174 73.657757 
L 216.265873 73.672144 
L 217.097298 74.680909 
L 217.928732 75.171817 
L 218.760234 74.998075 
L 219.591698 74.348302 
L 220.423161 74.122694 
L 221.254531 72.866133 
L 222.085961 72.017784 
L 222.917372 73.41027 
L 223.748619 73.340653 
L 224.579951 73.993127 
L 225.411516 73.396589 
L 226.242848 73.981775 
L 227.073852 73.541293 
L 227.90534 71.338476 
L 228.736737 70.678742 
L 229.568089 70.844977 
L 230.399558 72.17898 
L 231.231097 70.413672 
L 232.062439 69.917141 
L 232.89362 70.53546 
L 233.725478 73.390512 
L 234.556132 71.997692 
L 235.387459 70.057116 
L 236.2186 70.626867 
L 237.050047 70.560201 
L 237.88147 69.176801 
L 238.712842 71.06427 
L 239.544156 71.706653 
L 240.375423 71.558691 
L 242.161826 73.705987 
L 242.840886 71.764298 
L 243.688582 76.154857 
L 244.525426 77.352653 
L 245.358491 77.385754 
L 246.190668 76.598779 
L 247.022852 76.438372 
L 248.686561 77.99976 
L 249.51806 78.433865 
L 250.349553 77.349732 
L 251.180933 78.713096 
L 252.012637 77.823067 
L 252.844075 77.204893 
L 253.675395 78.459354 
L 254.506955 78.624082 
L 255.338447 78.29852 
L 256.16993 77.806279 
L 257.001147 77.608847 
L 257.832611 77.786187 
L 258.663958 77.501323 
L 260.326298 77.442826 
L 261.157632 76.716816 
L 261.989337 76.390975 
L 263.65158 76.837866 
L 264.483232 76.11539 
L 265.314604 77.135964 
L 266.14571 78.406631 
L 267.810832 79.256874 
L 268.6384 79.199735 
L 269.470412 79.977147 
L 270.298687 78.856583 
L 271.132187 78.849399 
L 271.965642 79.164433 
L 272.793752 78.585733 
L 273.627821 77.719286 
L 274.459289 78.448981 
L 275.292761 78.776687 
L 276.121845 81.480734 
L 276.953213 79.239549 
L 277.782618 78.658692 
L 278.61581 77.769293 
L 279.446971 78.222261 
L 280.278277 78.419224 
L 281.110021 79.300262 
L 281.940893 79.999334 
L 283.609589 79.400764 
L 285.268655 81.880156 
L 286.097303 81.199852 
L 286.929025 81.102737 
L 287.777513 80.299263 
L 288.569764 79.326695 
L 289.420663 81.506806 
L 290.252399 81.310256 
L 291.091672 80.987989 
L 292.742939 81.005635 
L 293.571226 80.359898 
L 294.474907 80.055654 
L 295.24148 81.749153 
L 296.06339 81.109063 
L 296.945008 82.183843 
L 297.754035 85.368896 
L 298.620312 86.575884 
L 299.399207 86.026018 
L 300.189789 84.682504 
L 300.941463 82.112139 
L 301.899021 89.266273 
L 302.78594 86.905536 
L 303.603888 86.642915 
L 304.423643 86.957387 
L 305.178713 86.637197 
L 305.980853 86.588627 
L 306.885195 84.894444 
L 307.713568 87.026162 
L 308.535952 87.61525 
L 309.359895 87.966884 
L 310.278076 88.058054 
L 311.017612 87.384894 
L 311.893158 85.093731 
L 312.702418 85.758912 
L 313.514843 85.889968 
L 314.376716 85.364379 
L 315.207121 85.868985 
L 315.99289 85.668864 
L 316.849247 85.650846 
L 317.661646 88.767818 
L 318.50932 90.50924 
L 319.340622 87.079354 
L 320.177549 86.258332 
L 321.030384 85.597039 
L 321.826892 86.197797 
L 323.508236 86.551573 
L 324.324173 85.731313 
L 325.169332 87.954239 
L 326.825671 86.817247 
L 327.601335 85.808572 
L 328.312247 86.724503 
L 329.449125 87.354968 
L 330.158643 88.2902 
L 330.959739 89.161746 
L 331.816798 82.430661 
L 332.702889 87.713786 
L 333.463668 89.629644 
L 334.303743 87.566833 
L 335.148198 90.175521 
L 335.963049 88.194273 
L 336.778664 89.214077 
L 337.650516 90.077698 
L 338.462182 89.718509 
L 339.294997 88.839733 
L 340.124833 88.77909 
L 340.959531 85.312112 
L 341.820035 89.254052 
L 342.634488 90.173868 
L 343.452958 90.712548 
L 344.283947 89.389902 
L 345.145275 86.666167 
L 345.94389 90.846298 
L 346.767486 89.742539 
L 347.590075 89.036795 
L 348.440312 91.07073 
L 349.267225 90.557775 
L 350.130355 87.236962 
L 350.951791 89.905712 
L 351.788236 91.105118 
L 352.572069 90.682328 
L 353.420384 88.886623 
L 354.252956 91.639635 
L 355.089111 93.229182 
L 355.930137 92.901259 
L 356.760729 91.871564 
L 357.579809 89.166663 
L 358.438292 90.277391 
L 359.296896 89.93667 
L 360.085261 89.916645 
L 360.911474 90.034613 
L 361.748784 90.309421 
L 362.513653 92.101752 
L 363.438673 93.096463 
L 364.219376 93.025307 
L 365.052073 93.279544 
L 365.891609 92.869789 
L 366.752636 90.626169 
L 367.563422 85.79799 
L 368.353106 87.173428 
L 369.217356 88.968506 
L 370.059559 90.133263 
L 370.850951 90.23681 
L 371.724159 91.18684 
L 372.536631 90.793718 
L 374.246184 88.696632 
L 375.036055 88.770608 
L 375.903098 88.253924 
L 376.682012 89.442636 
L 377.55473 89.124879 
L 378.395452 82.708327 
L 379.172516 82.801851 
L 379.98533 79.108711 
L 380.87595 82.4975 
L 381.596978 83.265794 
L 382.585392 88.763176 
L 383.357905 89.271357 
L 384.306812 85.627308 
L 385.02989 84.824345 
L 386.678791 84.613942 
L 387.510163 86.061335 
L 388.361904 84.054796 
L 389.1971 83.435066 
L 390.027268 85.30235 
L 390.826886 82.852438 
L 391.638783 84.962401 
L 392.523327 85.30999 
L 393.339368 87.684005 
L 394.168202 87.692489 
L 395.006964 86.985476 
L 395.824213 87.785926 
L 396.644189 90.945341 
L 397.505865 89.841073 
L 398.302174 89.436756 
L 399.163277 91.882298 
L 399.991727 90.599107 
L 400.810671 87.719412 
L 401.65718 87.896724 
L 402.476544 86.128468 
L 403.291186 86.439184 
L 404.151029 90.649398 
L 404.988048 87.13469 
L 404.988048 87.13469 
" clip-path="url(#pf2d9015dc1)" style="fill: none; stroke: #1f77b4; stroke-width: 1.5; stroke-linecap: square"/>
   </g>
   <g id="line2d_2">
    <path d="M 83.41287 99.347864 
L 83.745774 115.166784 
L 84.078797 231.609273 
L 84.411701 118.138546 
L 84.744725 104.145852 
L 85.409935 89.945152 
L 87.074455 68.721947 
L 88.073406 60.455702 
L 89.072357 54.475424 
L 90.070114 50.148926 
L 91.069065 46.936352 
L 92.066821 44.553101 
L 93.065772 42.759637 
L 94.063528 41.379356 
L 95.061284 40.337754 
L 96.392422 39.328589 
L 97.72356 38.645359 
L 99.386885 38.135944 
L 101.383593 37.892974 
L 104.044674 37.943826 
L 108.370275 38.597344 
L 114.691389 40.11925 
L 123.008015 42.453425 
L 126.002478 43.316123 
L 143.634681 48.085275 
L 147.626901 49.07261 
L 167.91899 53.608852 
L 177.234567 55.437725 
L 187.546706 57.327333 
L 189.8756 57.715558 
L 193.530852 58.347839 
L 196.195519 58.784094 
L 198.860185 59.222593 
L 202.516632 59.793304 
L 204.846721 60.169574 
L 210.498681 61.009679 
L 212.494194 61.322049 
L 228.470241 63.536751 
L 239.439584 64.960562 
L 246.095274 65.777418 
L 248.090787 66.00414 
L 254.4119 66.756416 
L 256.74199 67.006712 
L 260.733014 67.464411 
L 263.063103 67.715758 
L 266.384974 68.085674 
L 269.04964 68.364684 
L 272.048883 68.690964 
L 275.036177 68.993517 
L 277.700843 69.273069 
L 281.022714 69.598648 
L 283.68738 69.878729 
L 287.343827 70.227856 
L 289.673916 70.4612 
L 293.664941 70.833875 
L 295.99503 71.067742 
L 300.655209 71.486473 
L 302.650721 71.673081 
L 307.633527 72.115879 
L 309.640988 72.303012 
L 317.28846 72.955275 
L 319.283973 73.142934 
L 327.266022 73.795548 
L 328.926957 73.935429 
L 338.247314 74.682231 
L 339.908249 74.822632 
L 353.21963 75.849898 
L 401.446502 79.18982 
L 403.119386 79.282781 
L 404.780322 79.400098 
L 404.780322 79.400098 
" clip-path="url(#pf2d9015dc1)" style="fill: none; stroke: #000000; stroke-width: 2.5; stroke-linecap: square"/>
   </g>
   <g id="line2d_3">
    <path d="M 83.41287 26.345235 
L 83.745774 24.295428 
L 84.411701 22.20478 
L 84.744725 21.674696 
L 85.077748 21.414606 
L 85.409935 21.314727 
L 86.076699 21.450018 
L 87.074455 22.087845 
L 91.401252 25.737203 
L 99.720267 32.969809 
L 105.043625 36.855741 
L 112.694682 41.468325 
L 119.349178 44.800233 
L 123.673584 46.712699 
L 132.655779 50.19794 
L 142.303543 53.361566 
L 160.60012 58.253791 
L 164.925722 59.24945 
L 166.921234 59.713822 
L 186.548949 63.688238 
L 189.210031 64.153135 
L 192.204494 64.689133 
L 195.526365 65.247731 
L 198.191031 65.715037 
L 203.520363 66.553347 
L 205.515875 66.880523 
L 236.117713 71.152095 
L 238.113225 71.384683 
L 243.765185 72.085454 
L 245.760697 72.318721 
L 249.751722 72.785597 
L 252.081811 73.042138 
L 256.072836 73.5097 
L 258.737502 73.789188 
L 262.059373 74.163057 
L 265.058615 74.466153 
L 268.057858 74.793181 
L 271.045152 75.09662 
L 273.709818 75.37713 
L 277.366266 75.726458 
L 280.030932 76.007308 
L 284.021957 76.38025 
L 286.352046 76.614247 
L 290.677647 77.010803 
L 293.007736 77.24481 
L 299.316901 77.804606 
L 301.324362 77.991756 
L 308.302681 78.599109 
L 310.298193 78.786595 
L 317.957614 79.416601 
L 319.61855 79.556897 
L 328.59238 80.281342 
L 330.265265 80.421646 
L 397.455477 85.170744 
L 399.128362 85.263878 
L 405.114899 85.638683 
L 405.114899 85.638683 
" clip-path="url(#pf2d9015dc1)" style="fill: none; stroke-dasharray: 9.25,4; stroke-dashoffset: 0; stroke: #8b0000; stroke-width: 2.5"/>
   </g>
   <g id="legend_1">
    <g id="line2d_4">
     <path d="M 333.95625 23.898438 
L 343.95625 23.898438 
L 353.95625 23.898438 
" style="fill: none; stroke: #1f77b4; stroke-width: 1.5; stroke-linecap: square"/>
    </g>
    <g id="text_1">
     <!-- PSP -->
     <g transform="translate(361.95625 27.398438) scale(0.1 -0.1)">
      <defs>
       <path id="DejaVuSans-50" d="M 1259 4147 
L 1259 2394 
L 2053 2394 
Q 2494 2394 2734 2622 
Q 2975 2850 2975 3272 
Q 2975 3691 2734 3919 
Q 2494 4147 2053 4147 
L 1259 4147 
z
M 628 4666 
L 2053 4666 
Q 2838 4666 3239 4311 
Q 3641 3956 3641 3272 
Q 3641 2581 3239 2228 
Q 2838 1875 2053 1875 
L 1259 1875 
L 1259 0 
L 628 0 
L 628 4666 
z
" transform="scale(0.015625)"/>
       <path id="DejaVuSans-53" d="M 3425 4513 
L 3425 3897 
Q 3066 4069 2747 4153 
Q 2428 4238 2131 4238 
Q 1616 4238 1336 4038 
Q 1056 3838 1056 3469 
Q 1056 3159 1242 3001 
Q 1428 2844 1947 2747 
L 2328 2669 
Q 3034 2534 3370 2195 
Q 3706 1856 3706 1288 
Q 3706 609 3251 259 
Q 2797 -91 1919 -91 
Q 1588 -91 1214 -16 
Q 841 59 441 206 
L 441 856 
Q 825 641 1194 531 
Q 1563 422 1919 422 
Q 2459 422 2753 634 
Q 3047 847 3047 1241 
Q 3047 1584 2836 1778 
Q 2625 1972 2144 2069 
L 1759 2144 
Q 1053 2284 737 2584 
Q 422 2884 422 3419 
Q 422 4038 858 4394 
Q 1294 4750 2059 4750 
Q 2388 4750 2728 4690 
Q 3069 4631 3425 4513 
z
" transform="scale(0.015625)"/>
      </defs>
      <use xlink:href="#DejaVuSans-50"/>
      <use xlink:href="#DejaVuSans-53" x="60.302734"/>
      <use xlink:href="#DejaVuSans-50" x="123.779297"/>
     </g>
    </g>
    <g id="line2d_5">
     <path d="M 333.95625 38.576562 
L 343.95625 38.576562 
L 353.95625 38.576562 
" style="fill: none; stroke: #000000; stroke-width: 2.5; stroke-linecap: square"/>
    </g>
    <g id="text_2">
     <!-- Slow wind -->
     <g transform="translate(361.95625 42.076562) scale(0.1 -0.1)">
      <defs>
       <path id="DejaVuSans-6c" d="M 603 4863 
L 1178 4863 
L 1178 0 
L 603 0 
L 603 4863 
z
" transform="scale(0.015625)"/>
       <path id="DejaVuSans-6f" d="M 1959 3097 
Q 1497 3097 1228 2736 
Q 959 2375 959 1747 
Q 959 1119 1226 758 
Q 1494 397 1959 397 
Q 2419 397 2687 759 
Q 2956 1122 2956 1747 
Q 2956 2369 2687 2733 
Q 2419 3097 1959 3097 
z
M 1959 3584 
Q 2709 3584 3137 3096 
Q 3566 2609 3566 1747 
Q 3566 888 3137 398 
Q 2709 -91 1959 -91 
Q 1206 -91 779 398 
Q 353 888 353 1747 
Q 353 2609 779 3096 
Q 1206 3584 1959 3584 
z
" transform="scale(0.015625)"/>
       <path id="DejaVuSans-77" d="M 269 3500 
L 844 3500 
L 1563 769 
L 2278 3500 
L 2956 3500 
L 3675 769 
L 4391 3500 
L 4966 3500 
L 4050 0 
L 3372 0 
L 2619 2869 
L 1863 0 
L 1184 0 
L 269 3500 
z
" transform="scale(0.015625)"/>
       <path id="DejaVuSans-20" transform="scale(0.015625)"/>
       <path id="DejaVuSans-69" d="M 603 3500 
L 1178 3500 
L 1178 0 
L 603 0 
L 603 3500 
z
M 603 4863 
L 1178 4863 
L 1178 4134 
L 603 4134 
L 603 4863 
z
" transform="scale(0.015625)"/>
       <path id="DejaVuSans-6e" d="M 3513 2113 
L 3513 0 
L 2938 0 
L 2938 2094 
Q 2938 2591 2744 2837 
Q 2550 3084 2163 3084 
Q 1697 3084 1428 2787 
Q 1159 2491 1159 1978 
L 1159 0 
L 581 0 
L 581 3500 
L 1159 3500 
L 1159 2956 
Q 1366 3272 1645 3428 
Q 1925 3584 2291 3584 
Q 2894 3584 3203 3211 
Q 3513 2838 3513 2113 
z
" transform="scale(0.015625)"/>
       <path id="DejaVuSans-64" d="M 2906 2969 
L 2906 4863 
L 3481 4863 
L 3481 0 
L 2906 0 
L 2906 525 
Q 2725 213 2448 61 
Q 2172 -91 1784 -91 
Q 1150 -91 751 415 
Q 353 922 353 1747 
Q 353 2572 751 3078 
Q 1150 3584 1784 3584 
Q 2172 3584 2448 3432 
Q 2725 3281 2906 2969 
z
M 947 1747 
Q 947 1113 1208 752 
Q 1469 391 1925 391 
Q 2381 391 2643 752 
Q 2906 1113 2906 1747 
Q 2906 2381 2643 2742 
Q 2381 3103 1925 3103 
Q 1469 3103 1208 2742 
Q 947 2381 947 1747 
z
" transform="scale(0.015625)"/>
      </defs>
      <use xlink:href="#DejaVuSans-53"/>
      <use xlink:href="#DejaVuSans-6c" x="63.476562"/>
      <use xlink:href="#DejaVuSans-6f" x="91.259766"/>
      <use xlink:href="#DejaVuSans-77" x="152.441406"/>
      <use xlink:href="#DejaVuSans-20" x="234.228516"/>
      <use xlink:href="#DejaVuSans-77" x="266.015625"/>
      <use xlink:href="#DejaVuSans-69" x="347.802734"/>
      <use xlink:href="#DejaVuSans-6e" x="375.585938"/>
      <use xlink:href="#DejaVuSans-64" x="438.964844"/>
     </g>
    </g>
    <g id="line2d_6">
     <path d="M 333.95625 53.254687 
L 343.95625 53.254687 
L 353.95625 53.254687 
" style="fill: none; stroke-dasharray: 9.25,4; stroke-dashoffset: 0; stroke: #8b0000; stroke-width: 2.5"/>
    </g>
    <g id="text_3">
     <!-- Fast wind -->
     <g transform="translate(361.95625 56.754687) scale(0.1 -0.1)">
      <defs>
       <path id="DejaVuSans-46" d="M 628 4666 
L 3309 4666 
L 3309 4134 
L 1259 4134 
L 1259 2759 
L 3109 2759 
L 3109 2228 
L 1259 2228 
L 1259 0 
L 628 0 
L 628 4666 
z
" transform="scale(0.015625)"/>
       <path id="DejaVuSans-61" d="M 2194 1759 
Q 1497 1759 1228 1600 
Q 959 1441 959 1056 
Q 959 750 1161 570 
Q 1363 391 1709 391 
Q 2188 391 2477 730 
Q 2766 1069 2766 1631 
L 2766 1759 
L 2194 1759 
z
M 3341 1997 
L 3341 0 
L 2766 0 
L 2766 531 
Q 2569 213 2275 61 
Q 1981 -91 1556 -91 
Q 1019 -91 701 211 
Q 384 513 384 1019 
Q 384 1609 779 1909 
Q 1175 2209 1959 2209 
L 2766 2209 
L 2766 2266 
Q 2766 2663 2505 2880 
Q 2244 3097 1772 3097 
Q 1472 3097 1187 3025 
Q 903 2953 641 2809 
L 641 3341 
Q 956 3463 1253 3523 
Q 1550 3584 1831 3584 
Q 2591 3584 2966 3190 
Q 3341 2797 3341 1997 
z
" transform="scale(0.015625)"/>
       <path id="DejaVuSans-73" d="M 2834 3397 
L 2834 2853 
Q 2591 2978 2328 3040 
Q 2066 3103 1784 3103 
Q 1356 3103 1142 2972 
Q 928 2841 928 2578 
Q 928 2378 1081 2264 
Q 1234 2150 1697 2047 
L 1894 2003 
Q 2506 1872 2764 1633 
Q 3022 1394 3022 966 
Q 3022 478 2636 193 
Q 2250 -91 1575 -91 
Q 1294 -91 989 -36 
Q 684 19 347 128 
L 347 722 
Q 666 556 975 473 
Q 1284 391 1588 391 
Q 1994 391 2212 530 
Q 2431 669 2431 922 
Q 2431 1156 2273 1281 
Q 2116 1406 1581 1522 
L 1381 1569 
Q 847 1681 609 1914 
Q 372 2147 372 2553 
Q 372 3047 722 3315 
Q 1072 3584 1716 3584 
Q 2034 3584 2315 3537 
Q 2597 3491 2834 3397 
z
" transform="scale(0.015625)"/>
       <path id="DejaVuSans-74" d="M 1172 4494 
L 1172 3500 
L 2356 3500 
L 2356 3053 
L 1172 3053 
L 1172 1153 
Q 1172 725 1289 603 
Q 1406 481 1766 481 
L 2356 481 
L 2356 0 
L 1766 0 
Q 1100 0 847 248 
Q 594 497 594 1153 
L 594 3053 
L 172 3053 
L 172 3500 
L 594 3500 
L 594 4494 
L 1172 4494 
z
" transform="scale(0.015625)"/>
      </defs>
      <use xlink:href="#DejaVuSans-46"/>
      <use xlink:href="#DejaVuSans-61" x="48.394531"/>
      <use xlink:href="#DejaVuSans-73" x="109.673828"/>
      <use xlink:href="#DejaVuSans-74" x="161.773438"/>
      <use xlink:href="#DejaVuSans-20" x="200.982422"/>
      <use xlink:href="#DejaVuSans-77" x="232.769531"/>
      <use xlink:href="#DejaVuSans-69" x="314.556641"/>
      <use xlink:href="#DejaVuSans-6e" x="342.339844"/>
      <use xlink:href="#DejaVuSans-64" x="405.71875"/>
     </g>
    </g>
   </g>
   <g id="matplotlib.axis_1">
    <g id="xtick_1">
     <g id="line2d_7">
      <defs>
       <path id="m3c7284cdb6" d="M 0 0 
L 0 -3.5 
" style="stroke: #000000; stroke-width: 1.5"/>
      </defs>
      <g>
       <use xlink:href="#m3c7284cdb6" x="72.868081" y="242.124" style="stroke: #000000; stroke-width: 1.5"/>
      </g>
     </g>
     <g id="line2d_8">
      <defs>
       <path id="m9cfda50267" d="M 0 0 
L 0 3.5 
" style="stroke: #000000; stroke-width: 1.5"/>
      </defs>
      <g>
       <use xlink:href="#m9cfda50267" x="72.868081" y="10.8" style="stroke: #000000; stroke-width: 1.5"/>
      </g>
     </g>
     <g id="text_4">
      <!-- 0 -->
      <g transform="translate(69.050581 254.742125) scale(0.12 -0.12)">
       <defs>
        <path id="DejaVuSans-30" d="M 2034 4250 
Q 1547 4250 1301 3770 
Q 1056 3291 1056 2328 
Q 1056 1369 1301 889 
Q 1547 409 2034 409 
Q 2525 409 2770 889 
Q 3016 1369 3016 2328 
Q 3016 3291 2770 3770 
Q 2525 4250 2034 4250 
z
M 2034 4750 
Q 2819 4750 3233 4129 
Q 3647 3509 3647 2328 
Q 3647 1150 3233 529 
Q 2819 -91 2034 -91 
Q 1250 -91 836 529 
Q 422 1150 422 2328 
Q 422 3509 836 4129 
Q 1250 4750 2034 4750 
z
" transform="scale(0.015625)"/>
       </defs>
       <use xlink:href="#DejaVuSans-30"/>
      </g>
     </g>
    </g>
    <g id="xtick_2">
     <g id="line2d_9">
      <g>
       <use xlink:href="#m3c7284cdb6" x="114.433287" y="242.124" style="stroke: #000000; stroke-width: 1.5"/>
      </g>
     </g>
     <g id="line2d_10">
      <g>
       <use xlink:href="#m9cfda50267" x="114.433287" y="10.8" style="stroke: #000000; stroke-width: 1.5"/>
      </g>
     </g>
     <g id="text_5">
      <!-- 5 -->
      <g transform="translate(110.615787 254.742125) scale(0.12 -0.12)">
       <defs>
        <path id="DejaVuSans-35" d="M 691 4666 
L 3169 4666 
L 3169 4134 
L 1269 4134 
L 1269 2991 
Q 1406 3038 1543 3061 
Q 1681 3084 1819 3084 
Q 2600 3084 3056 2656 
Q 3513 2228 3513 1497 
Q 3513 744 3044 326 
Q 2575 -91 1722 -91 
Q 1428 -91 1123 -41 
Q 819 9 494 109 
L 494 744 
Q 775 591 1075 516 
Q 1375 441 1709 441 
Q 2250 441 2565 725 
Q 2881 1009 2881 1497 
Q 2881 1984 2565 2268 
Q 2250 2553 1709 2553 
Q 1456 2553 1204 2497 
Q 953 2441 691 2322 
L 691 4666 
z
" transform="scale(0.015625)"/>
       </defs>
       <use xlink:href="#DejaVuSans-35"/>
      </g>
     </g>
    </g>
    <g id="xtick_3">
     <g id="line2d_11">
      <g>
       <use xlink:href="#m3c7284cdb6" x="155.998493" y="242.124" style="stroke: #000000; stroke-width: 1.5"/>
      </g>
     </g>
     <g id="line2d_12">
      <g>
       <use xlink:href="#m9cfda50267" x="155.998493" y="10.8" style="stroke: #000000; stroke-width: 1.5"/>
      </g>
     </g>
     <g id="text_6">
      <!-- 10 -->
      <g transform="translate(148.363493 254.742125) scale(0.12 -0.12)">
       <defs>
        <path id="DejaVuSans-31" d="M 794 531 
L 1825 531 
L 1825 4091 
L 703 3866 
L 703 4441 
L 1819 4666 
L 2450 4666 
L 2450 531 
L 3481 531 
L 3481 0 
L 794 0 
L 794 531 
z
" transform="scale(0.015625)"/>
       </defs>
       <use xlink:href="#DejaVuSans-31"/>
       <use xlink:href="#DejaVuSans-30" x="63.623047"/>
      </g>
     </g>
    </g>
    <g id="xtick_4">
     <g id="line2d_13">
      <g>
       <use xlink:href="#m3c7284cdb6" x="197.563699" y="242.124" style="stroke: #000000; stroke-width: 1.5"/>
      </g>
     </g>
     <g id="line2d_14">
      <g>
       <use xlink:href="#m9cfda50267" x="197.563699" y="10.8" style="stroke: #000000; stroke-width: 1.5"/>
      </g>
     </g>
     <g id="text_7">
      <!-- 15 -->
      <g transform="translate(189.928699 254.742125) scale(0.12 -0.12)">
       <use xlink:href="#DejaVuSans-31"/>
       <use xlink:href="#DejaVuSans-35" x="63.623047"/>
      </g>
     </g>
    </g>
    <g id="xtick_5">
     <g id="line2d_15">
      <g>
       <use xlink:href="#m3c7284cdb6" x="239.128905" y="242.124" style="stroke: #000000; stroke-width: 1.5"/>
      </g>
     </g>
     <g id="line2d_16">
      <g>
       <use xlink:href="#m9cfda50267" x="239.128905" y="10.8" style="stroke: #000000; stroke-width: 1.5"/>
      </g>
     </g>
     <g id="text_8">
      <!-- 20 -->
      <g transform="translate(231.493905 254.742125) scale(0.12 -0.12)">
       <defs>
        <path id="DejaVuSans-32" d="M 1228 531 
L 3431 531 
L 3431 0 
L 469 0 
L 469 531 
Q 828 903 1448 1529 
Q 2069 2156 2228 2338 
Q 2531 2678 2651 2914 
Q 2772 3150 2772 3378 
Q 2772 3750 2511 3984 
Q 2250 4219 1831 4219 
Q 1534 4219 1204 4116 
Q 875 4013 500 3803 
L 500 4441 
Q 881 4594 1212 4672 
Q 1544 4750 1819 4750 
Q 2544 4750 2975 4387 
Q 3406 4025 3406 3419 
Q 3406 3131 3298 2873 
Q 3191 2616 2906 2266 
Q 2828 2175 2409 1742 
Q 1991 1309 1228 531 
z
" transform="scale(0.015625)"/>
       </defs>
       <use xlink:href="#DejaVuSans-32"/>
       <use xlink:href="#DejaVuSans-30" x="63.623047"/>
      </g>
     </g>
    </g>
    <g id="xtick_6">
     <g id="line2d_17">
      <g>
       <use xlink:href="#m3c7284cdb6" x="280.694111" y="242.124" style="stroke: #000000; stroke-width: 1.5"/>
      </g>
     </g>
     <g id="line2d_18">
      <g>
       <use xlink:href="#m9cfda50267" x="280.694111" y="10.8" style="stroke: #000000; stroke-width: 1.5"/>
      </g>
     </g>
     <g id="text_9">
      <!-- 25 -->
      <g transform="translate(273.059111 254.742125) scale(0.12 -0.12)">
       <use xlink:href="#DejaVuSans-32"/>
       <use xlink:href="#DejaVuSans-35" x="63.623047"/>
      </g>
     </g>
    </g>
    <g id="xtick_7">
     <g id="line2d_19">
      <g>
       <use xlink:href="#m3c7284cdb6" x="322.259317" y="242.124" style="stroke: #000000; stroke-width: 1.5"/>
      </g>
     </g>
     <g id="line2d_20">
      <g>
       <use xlink:href="#m9cfda50267" x="322.259317" y="10.8" style="stroke: #000000; stroke-width: 1.5"/>
      </g>
     </g>
     <g id="text_10">
      <!-- 30 -->
      <g transform="translate(314.624317 254.742125) scale(0.12 -0.12)">
       <defs>
        <path id="DejaVuSans-33" d="M 2597 2516 
Q 3050 2419 3304 2112 
Q 3559 1806 3559 1356 
Q 3559 666 3084 287 
Q 2609 -91 1734 -91 
Q 1441 -91 1130 -33 
Q 819 25 488 141 
L 488 750 
Q 750 597 1062 519 
Q 1375 441 1716 441 
Q 2309 441 2620 675 
Q 2931 909 2931 1356 
Q 2931 1769 2642 2001 
Q 2353 2234 1838 2234 
L 1294 2234 
L 1294 2753 
L 1863 2753 
Q 2328 2753 2575 2939 
Q 2822 3125 2822 3475 
Q 2822 3834 2567 4026 
Q 2313 4219 1838 4219 
Q 1578 4219 1281 4162 
Q 984 4106 628 3988 
L 628 4550 
Q 988 4650 1302 4700 
Q 1616 4750 1894 4750 
Q 2613 4750 3031 4423 
Q 3450 4097 3450 3541 
Q 3450 3153 3228 2886 
Q 3006 2619 2597 2516 
z
" transform="scale(0.015625)"/>
       </defs>
       <use xlink:href="#DejaVuSans-33"/>
       <use xlink:href="#DejaVuSans-30" x="63.623047"/>
      </g>
     </g>
    </g>
    <g id="xtick_8">
     <g id="line2d_21">
      <g>
       <use xlink:href="#m3c7284cdb6" x="363.824523" y="242.124" style="stroke: #000000; stroke-width: 1.5"/>
      </g>
     </g>
     <g id="line2d_22">
      <g>
       <use xlink:href="#m9cfda50267" x="363.824523" y="10.8" style="stroke: #000000; stroke-width: 1.5"/>
      </g>
     </g>
     <g id="text_11">
      <!-- 35 -->
      <g transform="translate(356.189523 254.742125) scale(0.12 -0.12)">
       <use xlink:href="#DejaVuSans-33"/>
       <use xlink:href="#DejaVuSans-35" x="63.623047"/>
      </g>
     </g>
    </g>
    <g id="xtick_9">
     <g id="line2d_23">
      <g>
       <use xlink:href="#m3c7284cdb6" x="405.38973" y="242.124" style="stroke: #000000; stroke-width: 1.5"/>
      </g>
     </g>
     <g id="line2d_24">
      <g>
       <use xlink:href="#m9cfda50267" x="405.38973" y="10.8" style="stroke: #000000; stroke-width: 1.5"/>
      </g>
     </g>
     <g id="text_12">
      <!-- 40 -->
      <g transform="translate(397.75473 254.742125) scale(0.12 -0.12)">
       <defs>
        <path id="DejaVuSans-34" d="M 2419 4116 
L 825 1625 
L 2419 1625 
L 2419 4116 
z
M 2253 4666 
L 3047 4666 
L 3047 1625 
L 3713 1625 
L 3713 1100 
L 3047 1100 
L 3047 0 
L 2419 0 
L 2419 1100 
L 313 1100 
L 313 1709 
L 2253 4666 
z
" transform="scale(0.015625)"/>
       </defs>
       <use xlink:href="#DejaVuSans-34"/>
       <use xlink:href="#DejaVuSans-30" x="63.623047"/>
      </g>
     </g>
    </g>
    <g id="xtick_10">
     <g id="line2d_25">
      <defs>
       <path id="m59ab4fedbb" d="M 0 0 
L 0 -2 
" style="stroke: #000000; stroke-width: 1.5"/>
      </defs>
      <g>
       <use xlink:href="#m59ab4fedbb" x="81.181122" y="242.124" style="stroke: #000000; stroke-width: 1.5"/>
      </g>
     </g>
     <g id="line2d_26">
      <defs>
       <path id="me6702f24bc" d="M 0 0 
L 0 2 
" style="stroke: #000000; stroke-width: 1.5"/>
      </defs>
      <g>
       <use xlink:href="#me6702f24bc" x="81.181122" y="10.8" style="stroke: #000000; stroke-width: 1.5"/>
      </g>
     </g>
    </g>
    <g id="xtick_11">
     <g id="line2d_27">
      <g>
       <use xlink:href="#m59ab4fedbb" x="89.494163" y="242.124" style="stroke: #000000; stroke-width: 1.5"/>
      </g>
     </g>
     <g id="line2d_28">
      <g>
       <use xlink:href="#me6702f24bc" x="89.494163" y="10.8" style="stroke: #000000; stroke-width: 1.5"/>
      </g>
     </g>
    </g>
    <g id="xtick_12">
     <g id="line2d_29">
      <g>
       <use xlink:href="#m59ab4fedbb" x="97.807204" y="242.124" style="stroke: #000000; stroke-width: 1.5"/>
      </g>
     </g>
     <g id="line2d_30">
      <g>
       <use xlink:href="#me6702f24bc" x="97.807204" y="10.8" style="stroke: #000000; stroke-width: 1.5"/>
      </g>
     </g>
    </g>
    <g id="xtick_13">
     <g id="line2d_31">
      <g>
       <use xlink:href="#m59ab4fedbb" x="106.120246" y="242.124" style="stroke: #000000; stroke-width: 1.5"/>
      </g>
     </g>
     <g id="line2d_32">
      <g>
       <use xlink:href="#me6702f24bc" x="106.120246" y="10.8" style="stroke: #000000; stroke-width: 1.5"/>
      </g>
     </g>
    </g>
    <g id="xtick_14">
     <g id="line2d_33">
      <g>
       <use xlink:href="#m59ab4fedbb" x="122.746328" y="242.124" style="stroke: #000000; stroke-width: 1.5"/>
      </g>
     </g>
     <g id="line2d_34">
      <g>
       <use xlink:href="#me6702f24bc" x="122.746328" y="10.8" style="stroke: #000000; stroke-width: 1.5"/>
      </g>
     </g>
    </g>
    <g id="xtick_15">
     <g id="line2d_35">
      <g>
       <use xlink:href="#m59ab4fedbb" x="131.059369" y="242.124" style="stroke: #000000; stroke-width: 1.5"/>
      </g>
     </g>
     <g id="line2d_36">
      <g>
       <use xlink:href="#me6702f24bc" x="131.059369" y="10.8" style="stroke: #000000; stroke-width: 1.5"/>
      </g>
     </g>
    </g>
    <g id="xtick_16">
     <g id="line2d_37">
      <g>
       <use xlink:href="#m59ab4fedbb" x="139.372411" y="242.124" style="stroke: #000000; stroke-width: 1.5"/>
      </g>
     </g>
     <g id="line2d_38">
      <g>
       <use xlink:href="#me6702f24bc" x="139.372411" y="10.8" style="stroke: #000000; stroke-width: 1.5"/>
      </g>
     </g>
    </g>
    <g id="xtick_17">
     <g id="line2d_39">
      <g>
       <use xlink:href="#m59ab4fedbb" x="147.685452" y="242.124" style="stroke: #000000; stroke-width: 1.5"/>
      </g>
     </g>
     <g id="line2d_40">
      <g>
       <use xlink:href="#me6702f24bc" x="147.685452" y="10.8" style="stroke: #000000; stroke-width: 1.5"/>
      </g>
     </g>
    </g>
    <g id="xtick_18">
     <g id="line2d_41">
      <g>
       <use xlink:href="#m59ab4fedbb" x="164.311534" y="242.124" style="stroke: #000000; stroke-width: 1.5"/>
      </g>
     </g>
     <g id="line2d_42">
      <g>
       <use xlink:href="#me6702f24bc" x="164.311534" y="10.8" style="stroke: #000000; stroke-width: 1.5"/>
      </g>
     </g>
    </g>
    <g id="xtick_19">
     <g id="line2d_43">
      <g>
       <use xlink:href="#m59ab4fedbb" x="172.624575" y="242.124" style="stroke: #000000; stroke-width: 1.5"/>
      </g>
     </g>
     <g id="line2d_44">
      <g>
       <use xlink:href="#me6702f24bc" x="172.624575" y="10.8" style="stroke: #000000; stroke-width: 1.5"/>
      </g>
     </g>
    </g>
    <g id="xtick_20">
     <g id="line2d_45">
      <g>
       <use xlink:href="#m59ab4fedbb" x="180.937617" y="242.124" style="stroke: #000000; stroke-width: 1.5"/>
      </g>
     </g>
     <g id="line2d_46">
      <g>
       <use xlink:href="#me6702f24bc" x="180.937617" y="10.8" style="stroke: #000000; stroke-width: 1.5"/>
      </g>
     </g>
    </g>
    <g id="xtick_21">
     <g id="line2d_47">
      <g>
       <use xlink:href="#m59ab4fedbb" x="189.250658" y="242.124" style="stroke: #000000; stroke-width: 1.5"/>
      </g>
     </g>
     <g id="line2d_48">
      <g>
       <use xlink:href="#me6702f24bc" x="189.250658" y="10.8" style="stroke: #000000; stroke-width: 1.5"/>
      </g>
     </g>
    </g>
    <g id="xtick_22">
     <g id="line2d_49">
      <g>
       <use xlink:href="#m59ab4fedbb" x="205.87674" y="242.124" style="stroke: #000000; stroke-width: 1.5"/>
      </g>
     </g>
     <g id="line2d_50">
      <g>
       <use xlink:href="#me6702f24bc" x="205.87674" y="10.8" style="stroke: #000000; stroke-width: 1.5"/>
      </g>
     </g>
    </g>
    <g id="xtick_23">
     <g id="line2d_51">
      <g>
       <use xlink:href="#m59ab4fedbb" x="214.189782" y="242.124" style="stroke: #000000; stroke-width: 1.5"/>
      </g>
     </g>
     <g id="line2d_52">
      <g>
       <use xlink:href="#me6702f24bc" x="214.189782" y="10.8" style="stroke: #000000; stroke-width: 1.5"/>
      </g>
     </g>
    </g>
    <g id="xtick_24">
     <g id="line2d_53">
      <g>
       <use xlink:href="#m59ab4fedbb" x="222.502823" y="242.124" style="stroke: #000000; stroke-width: 1.5"/>
      </g>
     </g>
     <g id="line2d_54">
      <g>
       <use xlink:href="#me6702f24bc" x="222.502823" y="10.8" style="stroke: #000000; stroke-width: 1.5"/>
      </g>
     </g>
    </g>
    <g id="xtick_25">
     <g id="line2d_55">
      <g>
       <use xlink:href="#m59ab4fedbb" x="230.815864" y="242.124" style="stroke: #000000; stroke-width: 1.5"/>
      </g>
     </g>
     <g id="line2d_56">
      <g>
       <use xlink:href="#me6702f24bc" x="230.815864" y="10.8" style="stroke: #000000; stroke-width: 1.5"/>
      </g>
     </g>
    </g>
    <g id="xtick_26">
     <g id="line2d_57">
      <g>
       <use xlink:href="#m59ab4fedbb" x="247.441946" y="242.124" style="stroke: #000000; stroke-width: 1.5"/>
      </g>
     </g>
     <g id="line2d_58">
      <g>
       <use xlink:href="#me6702f24bc" x="247.441946" y="10.8" style="stroke: #000000; stroke-width: 1.5"/>
      </g>
     </g>
    </g>
    <g id="xtick_27">
     <g id="line2d_59">
      <g>
       <use xlink:href="#m59ab4fedbb" x="255.754988" y="242.124" style="stroke: #000000; stroke-width: 1.5"/>
      </g>
     </g>
     <g id="line2d_60">
      <g>
       <use xlink:href="#me6702f24bc" x="255.754988" y="10.8" style="stroke: #000000; stroke-width: 1.5"/>
      </g>
     </g>
    </g>
    <g id="xtick_28">
     <g id="line2d_61">
      <g>
       <use xlink:href="#m59ab4fedbb" x="264.068029" y="242.124" style="stroke: #000000; stroke-width: 1.5"/>
      </g>
     </g>
     <g id="line2d_62">
      <g>
       <use xlink:href="#me6702f24bc" x="264.068029" y="10.8" style="stroke: #000000; stroke-width: 1.5"/>
      </g>
     </g>
    </g>
    <g id="xtick_29">
     <g id="line2d_63">
      <g>
       <use xlink:href="#m59ab4fedbb" x="272.38107" y="242.124" style="stroke: #000000; stroke-width: 1.5"/>
      </g>
     </g>
     <g id="line2d_64">
      <g>
       <use xlink:href="#me6702f24bc" x="272.38107" y="10.8" style="stroke: #000000; stroke-width: 1.5"/>
      </g>
     </g>
    </g>
    <g id="xtick_30">
     <g id="line2d_65">
      <g>
       <use xlink:href="#m59ab4fedbb" x="289.007153" y="242.124" style="stroke: #000000; stroke-width: 1.5"/>
      </g>
     </g>
     <g id="line2d_66">
      <g>
       <use xlink:href="#me6702f24bc" x="289.007153" y="10.8" style="stroke: #000000; stroke-width: 1.5"/>
      </g>
     </g>
    </g>
    <g id="xtick_31">
     <g id="line2d_67">
      <g>
       <use xlink:href="#m59ab4fedbb" x="297.320194" y="242.124" style="stroke: #000000; stroke-width: 1.5"/>
      </g>
     </g>
     <g id="line2d_68">
      <g>
       <use xlink:href="#me6702f24bc" x="297.320194" y="10.8" style="stroke: #000000; stroke-width: 1.5"/>
      </g>
     </g>
    </g>
    <g id="xtick_32">
     <g id="line2d_69">
      <g>
       <use xlink:href="#m59ab4fedbb" x="305.633235" y="242.124" style="stroke: #000000; stroke-width: 1.5"/>
      </g>
     </g>
     <g id="line2d_70">
      <g>
       <use xlink:href="#me6702f24bc" x="305.633235" y="10.8" style="stroke: #000000; stroke-width: 1.5"/>
      </g>
     </g>
    </g>
    <g id="xtick_33">
     <g id="line2d_71">
      <g>
       <use xlink:href="#m59ab4fedbb" x="313.946276" y="242.124" style="stroke: #000000; stroke-width: 1.5"/>
      </g>
     </g>
     <g id="line2d_72">
      <g>
       <use xlink:href="#me6702f24bc" x="313.946276" y="10.8" style="stroke: #000000; stroke-width: 1.5"/>
      </g>
     </g>
    </g>
    <g id="xtick_34">
     <g id="line2d_73">
      <g>
       <use xlink:href="#m59ab4fedbb" x="330.572359" y="242.124" style="stroke: #000000; stroke-width: 1.5"/>
      </g>
     </g>
     <g id="line2d_74">
      <g>
       <use xlink:href="#me6702f24bc" x="330.572359" y="10.8" style="stroke: #000000; stroke-width: 1.5"/>
      </g>
     </g>
    </g>
    <g id="xtick_35">
     <g id="line2d_75">
      <g>
       <use xlink:href="#m59ab4fedbb" x="338.8854" y="242.124" style="stroke: #000000; stroke-width: 1.5"/>
      </g>
     </g>
     <g id="line2d_76">
      <g>
       <use xlink:href="#me6702f24bc" x="338.8854" y="10.8" style="stroke: #000000; stroke-width: 1.5"/>
      </g>
     </g>
    </g>
    <g id="xtick_36">
     <g id="line2d_77">
      <g>
       <use xlink:href="#m59ab4fedbb" x="347.198441" y="242.124" style="stroke: #000000; stroke-width: 1.5"/>
      </g>
     </g>
     <g id="line2d_78">
      <g>
       <use xlink:href="#me6702f24bc" x="347.198441" y="10.8" style="stroke: #000000; stroke-width: 1.5"/>
      </g>
     </g>
    </g>
    <g id="xtick_37">
     <g id="line2d_79">
      <g>
       <use xlink:href="#m59ab4fedbb" x="355.511482" y="242.124" style="stroke: #000000; stroke-width: 1.5"/>
      </g>
     </g>
     <g id="line2d_80">
      <g>
       <use xlink:href="#me6702f24bc" x="355.511482" y="10.8" style="stroke: #000000; stroke-width: 1.5"/>
      </g>
     </g>
    </g>
    <g id="xtick_38">
     <g id="line2d_81">
      <g>
       <use xlink:href="#m59ab4fedbb" x="372.137565" y="242.124" style="stroke: #000000; stroke-width: 1.5"/>
      </g>
     </g>
     <g id="line2d_82">
      <g>
       <use xlink:href="#me6702f24bc" x="372.137565" y="10.8" style="stroke: #000000; stroke-width: 1.5"/>
      </g>
     </g>
    </g>
    <g id="xtick_39">
     <g id="line2d_83">
      <g>
       <use xlink:href="#m59ab4fedbb" x="380.450606" y="242.124" style="stroke: #000000; stroke-width: 1.5"/>
      </g>
     </g>
     <g id="line2d_84">
      <g>
       <use xlink:href="#me6702f24bc" x="380.450606" y="10.8" style="stroke: #000000; stroke-width: 1.5"/>
      </g>
     </g>
    </g>
    <g id="xtick_40">
     <g id="line2d_85">
      <g>
       <use xlink:href="#m59ab4fedbb" x="388.763647" y="242.124" style="stroke: #000000; stroke-width: 1.5"/>
      </g>
     </g>
     <g id="line2d_86">
      <g>
       <use xlink:href="#me6702f24bc" x="388.763647" y="10.8" style="stroke: #000000; stroke-width: 1.5"/>
      </g>
     </g>
    </g>
    <g id="xtick_41">
     <g id="line2d_87">
      <g>
       <use xlink:href="#m59ab4fedbb" x="397.076688" y="242.124" style="stroke: #000000; stroke-width: 1.5"/>
      </g>
     </g>
     <g id="line2d_88">
      <g>
       <use xlink:href="#me6702f24bc" x="397.076688" y="10.8" style="stroke: #000000; stroke-width: 1.5"/>
      </g>
     </g>
    </g>
    <g id="xtick_42">
     <g id="line2d_89">
      <g>
       <use xlink:href="#m59ab4fedbb" x="413.702771" y="242.124" style="stroke: #000000; stroke-width: 1.5"/>
      </g>
     </g>
     <g id="line2d_90">
      <g>
       <use xlink:href="#me6702f24bc" x="413.702771" y="10.8" style="stroke: #000000; stroke-width: 1.5"/>
      </g>
     </g>
    </g>
    <g id="text_13">
     <!-- Distance [R$_\odot$] -->
     <g transform="translate(202.023884 270.355875) scale(0.12 -0.12)">
      <defs>
       <path id="DejaVuSans-44" d="M 1259 4147 
L 1259 519 
L 2022 519 
Q 2988 519 3436 956 
Q 3884 1394 3884 2338 
Q 3884 3275 3436 3711 
Q 2988 4147 2022 4147 
L 1259 4147 
z
M 628 4666 
L 1925 4666 
Q 3281 4666 3915 4102 
Q 4550 3538 4550 2338 
Q 4550 1131 3912 565 
Q 3275 0 1925 0 
L 628 0 
L 628 4666 
z
" transform="scale(0.015625)"/>
       <path id="DejaVuSans-63" d="M 3122 3366 
L 3122 2828 
Q 2878 2963 2633 3030 
Q 2388 3097 2138 3097 
Q 1578 3097 1268 2742 
Q 959 2388 959 1747 
Q 959 1106 1268 751 
Q 1578 397 2138 397 
Q 2388 397 2633 464 
Q 2878 531 3122 666 
L 3122 134 
Q 2881 22 2623 -34 
Q 2366 -91 2075 -91 
Q 1284 -91 818 406 
Q 353 903 353 1747 
Q 353 2603 823 3093 
Q 1294 3584 2113 3584 
Q 2378 3584 2631 3529 
Q 2884 3475 3122 3366 
z
" transform="scale(0.015625)"/>
       <path id="DejaVuSans-65" d="M 3597 1894 
L 3597 1613 
L 953 1613 
Q 991 1019 1311 708 
Q 1631 397 2203 397 
Q 2534 397 2845 478 
Q 3156 559 3463 722 
L 3463 178 
Q 3153 47 2828 -22 
Q 2503 -91 2169 -91 
Q 1331 -91 842 396 
Q 353 884 353 1716 
Q 353 2575 817 3079 
Q 1281 3584 2069 3584 
Q 2775 3584 3186 3129 
Q 3597 2675 3597 1894 
z
M 3022 2063 
Q 3016 2534 2758 2815 
Q 2500 3097 2075 3097 
Q 1594 3097 1305 2825 
Q 1016 2553 972 2059 
L 3022 2063 
z
" transform="scale(0.015625)"/>
       <path id="DejaVuSans-5b" d="M 550 4863 
L 1875 4863 
L 1875 4416 
L 1125 4416 
L 1125 -397 
L 1875 -397 
L 1875 -844 
L 550 -844 
L 550 4863 
z
" transform="scale(0.015625)"/>
       <path id="DejaVuSans-52" d="M 2841 2188 
Q 3044 2119 3236 1894 
Q 3428 1669 3622 1275 
L 4263 0 
L 3584 0 
L 2988 1197 
Q 2756 1666 2539 1819 
Q 2322 1972 1947 1972 
L 1259 1972 
L 1259 0 
L 628 0 
L 628 4666 
L 2053 4666 
Q 2853 4666 3247 4331 
Q 3641 3997 3641 3322 
Q 3641 2881 3436 2590 
Q 3231 2300 2841 2188 
z
M 1259 4147 
L 1259 2491 
L 2053 2491 
Q 2509 2491 2742 2702 
Q 2975 2913 2975 3322 
Q 2975 3731 2742 3939 
Q 2509 4147 2053 4147 
L 1259 4147 
z
" transform="scale(0.015625)"/>
       <path id="DejaVuSans-2299" d="M 2350 2403 
L 3013 2403 
L 3013 1609 
L 2350 1609 
L 2350 2403 
z
M 3306 3522 
Q 3016 3644 2681 3644 
Q 2347 3644 2056 3522 
Q 1769 3400 1531 3163 
Q 1291 2922 1172 2634 
Q 1053 2347 1053 2006 
Q 1053 1675 1172 1387 
Q 1291 1100 1531 859 
Q 1769 622 2056 500 
Q 2347 378 2681 378 
Q 3016 378 3306 500 
Q 3594 622 3831 859 
Q 4072 1100 4190 1387 
Q 4309 1675 4309 2006 
Q 4309 2347 4190 2634 
Q 4072 2922 3831 3163 
Q 3594 3400 3306 3522 
z
M 1878 3956 
Q 2250 4113 2681 4113 
Q 3113 4113 3484 3956 
Q 3856 3800 4163 3494 
Q 4472 3184 4625 2813 
Q 4778 2444 4778 2006 
Q 4778 1578 4625 1206 
Q 4472 838 4163 528 
Q 3856 222 3484 65 
Q 3113 -91 2681 -91 
Q 2250 -91 1878 65 
Q 1506 222 1200 528 
Q 891 838 738 1206 
Q 584 1578 584 2006 
Q 584 2444 738 2813 
Q 891 3184 1200 3494 
Q 1506 3800 1878 3956 
z
" transform="scale(0.015625)"/>
       <path id="DejaVuSans-5d" d="M 1947 4863 
L 1947 -844 
L 622 -844 
L 622 -397 
L 1369 -397 
L 1369 4416 
L 622 4416 
L 622 4863 
L 1947 4863 
z
" transform="scale(0.015625)"/>
      </defs>
      <use xlink:href="#DejaVuSans-44" transform="translate(0 0.015625)"/>
      <use xlink:href="#DejaVuSans-69" transform="translate(77.001953 0.015625)"/>
      <use xlink:href="#DejaVuSans-73" transform="translate(104.785156 0.015625)"/>
      <use xlink:href="#DejaVuSans-74" transform="translate(156.884766 0.015625)"/>
      <use xlink:href="#DejaVuSans-61" transform="translate(196.09375 0.015625)"/>
      <use xlink:href="#DejaVuSans-6e" transform="translate(257.373047 0.015625)"/>
      <use xlink:href="#DejaVuSans-63" transform="translate(320.751953 0.015625)"/>
      <use xlink:href="#DejaVuSans-65" transform="translate(375.732422 0.015625)"/>
      <use xlink:href="#DejaVuSans-20" transform="translate(437.255859 0.015625)"/>
      <use xlink:href="#DejaVuSans-5b" transform="translate(469.042969 0.015625)"/>
      <use xlink:href="#DejaVuSans-52" transform="translate(504.931641 0.015625)"/>
      <use xlink:href="#DejaVuSans-2299" transform="translate(589.008789 -16.390625) scale(0.7)"/>
      <use xlink:href="#DejaVuSans-5d" transform="translate(664.033203 0.015625)"/>
     </g>
    </g>
   </g>
   <g id="matplotlib.axis_2">
    <g id="ytick_1">
     <g id="line2d_91">
      <defs>
       <path id="md991b8fc17" d="M 0 0 
L 3.5 0 
" style="stroke: #000000; stroke-width: 1.5"/>
      </defs>
      <g>
       <use xlink:href="#md991b8fc17" x="67.327768" y="202.252458" style="stroke: #000000; stroke-width: 1.5"/>
      </g>
     </g>
     <g id="line2d_92">
      <defs>
       <path id="m52856ac1c8" d="M 0 0 
L -3.5 0 
" style="stroke: #000000; stroke-width: 1.5"/>
      </defs>
      <g>
       <use xlink:href="#m52856ac1c8" x="421.2" y="202.252458" style="stroke: #000000; stroke-width: 1.5"/>
      </g>
     </g>
     <g id="text_14">
      <!-- $\mathdefault{10^{-12}}$ -->
      <g transform="translate(30.347768 206.811521) scale(0.12 -0.12)">
       <defs>
        <path id="DejaVuSans-2212" d="M 678 2272 
L 4684 2272 
L 4684 1741 
L 678 1741 
L 678 2272 
z
" transform="scale(0.015625)"/>
       </defs>
       <use xlink:href="#DejaVuSans-31" transform="translate(0 0.765625)"/>
       <use xlink:href="#DejaVuSans-30" transform="translate(63.623047 0.765625)"/>
       <use xlink:href="#DejaVuSans-2212" transform="translate(128.203125 39.046875) scale(0.7)"/>
       <use xlink:href="#DejaVuSans-31" transform="translate(186.855469 39.046875) scale(0.7)"/>
       <use xlink:href="#DejaVuSans-32" transform="translate(231.391602 39.046875) scale(0.7)"/>
      </g>
     </g>
    </g>
    <g id="ytick_2">
     <g id="line2d_93">
      <g>
       <use xlink:href="#md991b8fc17" x="67.327768" y="153.74511" style="stroke: #000000; stroke-width: 1.5"/>
      </g>
     </g>
     <g id="line2d_94">
      <g>
       <use xlink:href="#m52856ac1c8" x="421.2" y="153.74511" style="stroke: #000000; stroke-width: 1.5"/>
      </g>
     </g>
     <g id="text_15">
      <!-- $\mathdefault{10^{-10}}$ -->
      <g transform="translate(30.347768 158.304173) scale(0.12 -0.12)">
       <use xlink:href="#DejaVuSans-31" transform="translate(0 0.765625)"/>
       <use xlink:href="#DejaVuSans-30" transform="translate(63.623047 0.765625)"/>
       <use xlink:href="#DejaVuSans-2212" transform="translate(128.203125 39.046875) scale(0.7)"/>
       <use xlink:href="#DejaVuSans-31" transform="translate(186.855469 39.046875) scale(0.7)"/>
       <use xlink:href="#DejaVuSans-30" transform="translate(231.391602 39.046875) scale(0.7)"/>
      </g>
     </g>
    </g>
    <g id="ytick_3">
     <g id="line2d_95">
      <g>
       <use xlink:href="#md991b8fc17" x="67.327768" y="105.237762" style="stroke: #000000; stroke-width: 1.5"/>
      </g>
     </g>
     <g id="line2d_96">
      <g>
       <use xlink:href="#m52856ac1c8" x="421.2" y="105.237762" style="stroke: #000000; stroke-width: 1.5"/>
      </g>
     </g>
     <g id="text_16">
      <!-- $\mathdefault{10^{-8}}$ -->
      <g transform="translate(35.627768 109.796824) scale(0.12 -0.12)">
       <defs>
        <path id="DejaVuSans-38" d="M 2034 2216 
Q 1584 2216 1326 1975 
Q 1069 1734 1069 1313 
Q 1069 891 1326 650 
Q 1584 409 2034 409 
Q 2484 409 2743 651 
Q 3003 894 3003 1313 
Q 3003 1734 2745 1975 
Q 2488 2216 2034 2216 
z
M 1403 2484 
Q 997 2584 770 2862 
Q 544 3141 544 3541 
Q 544 4100 942 4425 
Q 1341 4750 2034 4750 
Q 2731 4750 3128 4425 
Q 3525 4100 3525 3541 
Q 3525 3141 3298 2862 
Q 3072 2584 2669 2484 
Q 3125 2378 3379 2068 
Q 3634 1759 3634 1313 
Q 3634 634 3220 271 
Q 2806 -91 2034 -91 
Q 1263 -91 848 271 
Q 434 634 434 1313 
Q 434 1759 690 2068 
Q 947 2378 1403 2484 
z
M 1172 3481 
Q 1172 3119 1398 2916 
Q 1625 2713 2034 2713 
Q 2441 2713 2670 2916 
Q 2900 3119 2900 3481 
Q 2900 3844 2670 4047 
Q 2441 4250 2034 4250 
Q 1625 4250 1398 4047 
Q 1172 3844 1172 3481 
z
" transform="scale(0.015625)"/>
       </defs>
       <use xlink:href="#DejaVuSans-31" transform="translate(0 0.765625)"/>
       <use xlink:href="#DejaVuSans-30" transform="translate(63.623047 0.765625)"/>
       <use xlink:href="#DejaVuSans-2212" transform="translate(128.203125 39.046875) scale(0.7)"/>
       <use xlink:href="#DejaVuSans-38" transform="translate(186.855469 39.046875) scale(0.7)"/>
      </g>
     </g>
    </g>
    <g id="ytick_4">
     <g id="line2d_97">
      <g>
       <use xlink:href="#md991b8fc17" x="67.327768" y="56.730413" style="stroke: #000000; stroke-width: 1.5"/>
      </g>
     </g>
     <g id="line2d_98">
      <g>
       <use xlink:href="#m52856ac1c8" x="421.2" y="56.730413" style="stroke: #000000; stroke-width: 1.5"/>
      </g>
     </g>
     <g id="text_17">
      <!-- $\mathdefault{10^{-6}}$ -->
      <g transform="translate(35.627768 61.289476) scale(0.12 -0.12)">
       <defs>
        <path id="DejaVuSans-36" d="M 2113 2584 
Q 1688 2584 1439 2293 
Q 1191 2003 1191 1497 
Q 1191 994 1439 701 
Q 1688 409 2113 409 
Q 2538 409 2786 701 
Q 3034 994 3034 1497 
Q 3034 2003 2786 2293 
Q 2538 2584 2113 2584 
z
M 3366 4563 
L 3366 3988 
Q 3128 4100 2886 4159 
Q 2644 4219 2406 4219 
Q 1781 4219 1451 3797 
Q 1122 3375 1075 2522 
Q 1259 2794 1537 2939 
Q 1816 3084 2150 3084 
Q 2853 3084 3261 2657 
Q 3669 2231 3669 1497 
Q 3669 778 3244 343 
Q 2819 -91 2113 -91 
Q 1303 -91 875 529 
Q 447 1150 447 2328 
Q 447 3434 972 4092 
Q 1497 4750 2381 4750 
Q 2619 4750 2861 4703 
Q 3103 4656 3366 4563 
z
" transform="scale(0.015625)"/>
       </defs>
       <use xlink:href="#DejaVuSans-31" transform="translate(0 0.765625)"/>
       <use xlink:href="#DejaVuSans-30" transform="translate(63.623047 0.765625)"/>
       <use xlink:href="#DejaVuSans-2212" transform="translate(128.203125 39.046875) scale(0.7)"/>
       <use xlink:href="#DejaVuSans-36" transform="translate(186.855469 39.046875) scale(0.7)"/>
      </g>
     </g>
    </g>
    <g id="text_18">
     <!-- P$_{ram}$ [Pa] -->
     <g transform="translate(23.852143 152.622) rotate(-90) scale(0.12 -0.12)">
      <defs>
       <path id="DejaVuSans-Oblique-72" d="M 2853 2969 
Q 2766 3016 2653 3041 
Q 2541 3066 2413 3066 
Q 1953 3066 1609 2717 
Q 1266 2369 1153 1784 
L 800 0 
L 225 0 
L 909 3500 
L 1484 3500 
L 1375 2956 
Q 1603 3259 1920 3421 
Q 2238 3584 2597 3584 
Q 2691 3584 2781 3573 
Q 2872 3563 2963 3538 
L 2853 2969 
z
" transform="scale(0.015625)"/>
       <path id="DejaVuSans-Oblique-61" d="M 3438 1997 
L 3047 0 
L 2472 0 
L 2578 531 
Q 2325 219 2001 64 
Q 1678 -91 1281 -91 
Q 834 -91 548 182 
Q 263 456 263 884 
Q 263 1497 752 1853 
Q 1241 2209 2100 2209 
L 2900 2209 
L 2931 2363 
Q 2938 2388 2941 2417 
Q 2944 2447 2944 2509 
Q 2944 2788 2717 2942 
Q 2491 3097 2081 3097 
Q 1800 3097 1504 3025 
Q 1209 2953 897 2809 
L 997 3341 
Q 1322 3463 1633 3523 
Q 1944 3584 2234 3584 
Q 2853 3584 3176 3315 
Q 3500 3047 3500 2534 
Q 3500 2431 3484 2292 
Q 3469 2153 3438 1997 
z
M 2816 1759 
L 2241 1759 
Q 1534 1759 1195 1570 
Q 856 1381 856 984 
Q 856 709 1029 553 
Q 1203 397 1509 397 
Q 1978 397 2328 733 
Q 2678 1069 2791 1631 
L 2816 1759 
z
" transform="scale(0.015625)"/>
       <path id="DejaVuSans-Oblique-6d" d="M 5747 2113 
L 5338 0 
L 4763 0 
L 5166 2094 
Q 5191 2228 5203 2325 
Q 5216 2422 5216 2491 
Q 5216 2772 5059 2928 
Q 4903 3084 4622 3084 
Q 4203 3084 3875 2770 
Q 3547 2456 3450 1953 
L 3066 0 
L 2491 0 
L 2900 2094 
Q 2925 2209 2937 2307 
Q 2950 2406 2950 2484 
Q 2950 2769 2794 2926 
Q 2638 3084 2363 3084 
Q 1938 3084 1609 2770 
Q 1281 2456 1184 1953 
L 800 0 
L 225 0 
L 909 3500 
L 1484 3500 
L 1375 2956 
Q 1609 3263 1923 3423 
Q 2238 3584 2597 3584 
Q 2978 3584 3223 3384 
Q 3469 3184 3519 2828 
Q 3781 3197 4126 3390 
Q 4472 3584 4856 3584 
Q 5306 3584 5551 3325 
Q 5797 3066 5797 2591 
Q 5797 2488 5784 2364 
Q 5772 2241 5747 2113 
z
" transform="scale(0.015625)"/>
      </defs>
      <use xlink:href="#DejaVuSans-50" transform="translate(0 0.015625)"/>
      <use xlink:href="#DejaVuSans-Oblique-72" transform="translate(61.259766 -16.390625) scale(0.7)"/>
      <use xlink:href="#DejaVuSans-Oblique-61" transform="translate(90.039062 -16.390625) scale(0.7)"/>
      <use xlink:href="#DejaVuSans-Oblique-6d" transform="translate(132.93457 -16.390625) scale(0.7)"/>
      <use xlink:href="#DejaVuSans-20" transform="translate(203.857422 0.015625)"/>
      <use xlink:href="#DejaVuSans-5b" transform="translate(235.644531 0.015625)"/>
      <use xlink:href="#DejaVuSans-50" transform="translate(274.658203 0.015625)"/>
      <use xlink:href="#DejaVuSans-61" transform="translate(334.960938 0.015625)"/>
      <use xlink:href="#DejaVuSans-5d" transform="translate(396.240234 0.015625)"/>
     </g>
    </g>
   </g>
  </g>
 </g>
 <defs>
  <clipPath id="pf2d9015dc1">
   <rect x="67.327768" y="10.8" width="353.872232" height="231.324"/>
  </clipPath>
 </defs>
</svg>
