<?xml version="1.0" encoding="utf-8" standalone="no"?>
<!DOCTYPE svg PUBLIC "-//W3C//DTD SVG 1.1//EN"
  "http://www.w3.org/Graphics/SVG/1.1/DTD/svg11.dtd">
<svg xmlns:xlink="http://www.w3.org/1999/xlink" width="432pt" height="288pt" viewBox="0 0 432 288" xmlns="http://www.w3.org/2000/svg" version="1.1">
 <metadata>
  <rdf:RDF xmlns:dc="http://purl.org/dc/elements/1.1/" xmlns:cc="http://creativecommons.org/ns#" xmlns:rdf="http://www.w3.org/1999/02/22-rdf-syntax-ns#">
   <cc:Work>
    <dc:type rdf:resource="http://purl.org/dc/dcmitype/StillImage"/>
    <dc:date>2022-12-06T13:11:30.572698</dc:date>
    <dc:format>image/svg+xml</dc:format>
    <dc:creator>
     <cc:Agent>
      <dc:title>Matplotlib v3.6.1, https://matplotlib.org/</dc:title>
     </cc:Agent>
    </dc:creator>
   </cc:Work>
  </rdf:RDF>
 </metadata>
 <defs>
  <style type="text/css">*{stroke-linejoin: round; stroke-linecap: butt}</style>
 </defs>
 <g id="figure_1">
  <g id="patch_1">
   <path d="M 0 288 
L 432 288 
L 432 0 
L 0 0 
z
" style="fill: #ffffff"/>
  </g>
  <g id="axes_1">
   <g id="patch_2">
    <path d="M 67.327768 242.124 
L 421.2 242.124 
L 421.2 10.8 
L 67.327768 10.8 
z
" style="fill: #ffffff"/>
   </g>
   <g id="patch_3">
    <path d="M 67.327768 242.124 
L 67.327768 10.8 
" style="fill: none; stroke: #000000; stroke-width: 1.5; stroke-linejoin: miter; stroke-linecap: square"/>
   </g>
   <g id="patch_4">
    <path d="M 421.2 242.124 
L 421.2 10.8 
" style="fill: none; stroke: #000000; stroke-width: 1.5; stroke-linejoin: miter; stroke-linecap: square"/>
   </g>
   <g id="patch_5">
    <path d="M 67.327768 242.124 
L 421.2 242.124 
" style="fill: none; stroke: #000000; stroke-width: 1.5; stroke-linejoin: miter; stroke-linecap: square"/>
   </g>
   <g id="patch_6">
    <path d="M 67.327768 10.8 
L 421.2 10.8 
" style="fill: none; stroke: #000000; stroke-width: 1.5; stroke-linejoin: miter; stroke-linecap: square"/>
   </g>
   <g id="PolyCollection_1">
    <path d="M 205.740944 67.708573 
L 205.740944 79.043785 
L 206.227072 79.400586 
L 207.097158 79.77551 
L 207.947 70.913124 
L 208.792055 73.957113 
L 209.612425 73.630575 
L 210.436323 75.385622 
L 211.255489 74.311145 
L 212.132237 73.910287 
L 212.930299 73.684996 
L 213.76314 74.675233 
L 214.63586 76.538623 
L 215.430345 75.755643 
L 216.24972 76.456764 
L 217.129433 77.287782 
L 217.918707 77.482637 
L 218.744602 77.449505 
L 219.579903 78.015573 
L 220.404356 78.228701 
L 221.274512 79.396092 
L 222.093439 77.437588 
L 222.902596 78.339257 
L 223.793475 77.966451 
L 224.551637 78.420909 
L 225.414051 78.532854 
L 226.246543 79.590815 
L 227.084518 78.452204 
L 227.906937 78.427072 
L 228.721525 78.133889 
L 229.59028 80.044594 
L 230.388318 79.65169 
L 231.243308 82.540168 
L 232.036074 75.53498 
L 232.90016 73.032918 
L 233.737551 77.906044 
L 234.524639 76.615465 
L 235.386441 71.853952 
L 236.212597 70.455991 
L 237.102586 76.242458 
L 237.888304 80.96794 
L 238.691279 80.255627 
L 239.537919 78.224706 
L 240.40329 78.525911 
L 241.180992 80.195429 
L 242.158198 79.4066 
L 242.797912 79.683195 
L 243.693782 83.199011 
L 244.532324 85.095104 
L 245.359267 91.172977 
L 246.220594 87.681145 
L 247.019542 87.464012 
L 247.857268 86.965416 
L 248.669195 84.961326 
L 249.471063 83.695191 
L 250.325699 82.806284 
L 251.157441 83.125975 
L 252.000772 82.054447 
L 252.847735 80.792566 
L 253.64948 81.777485 
L 254.507781 82.809797 
L 255.337637 82.315971 
L 256.189003 82.004217 
L 256.963039 81.764616 
L 257.891415 82.202273 
L 258.645864 82.464203 
L 259.496382 81.053535 
L 260.324737 79.808755 
L 261.139721 81.981483 
L 261.985602 81.866736 
L 262.833972 81.734841 
L 263.67323 81.514547 
L 264.477577 80.919877 
L 265.379915 83.587108 
L 266.153931 83.3294 
L 266.996816 82.851585 
L 267.728683 83.887206 
L 268.646543 81.718578 
L 269.475612 83.317096 
L 270.31435 83.904772 
L 271.136879 83.024531 
L 271.896038 82.580881 
L 272.808485 83.732177 
L 273.626864 81.973353 
L 274.482957 82.995768 
L 275.315576 84.368659 
L 276.137374 84.038287 
L 276.98305 83.56141 
L 277.783093 84.991142 
L 278.562597 83.812694 
L 279.534448 84.785315 
L 280.308812 85.763117 
L 281.099439 84.769051 
L 281.935635 86.86951 
L 282.764669 84.971151 
L 283.606636 85.16508 
L 284.501527 89.132601 
L 285.271798 89.974922 
L 286.136433 87.14817 
L 286.899571 87.867605 
L 287.764312 88.458582 
L 288.548744 87.114596 
L 289.420129 93.25947 
L 290.277907 91.295191 
L 291.111835 89.193158 
L 291.926237 88.261595 
L 292.71598 88.694927 
L 293.584105 87.624225 
L 294.396982 90.195189 
L 295.282504 96.393721 
L 296.051454 90.351939 
L 296.932122 98.569237 
L 297.769896 94.245035 
L 298.562795 91.81958 
L 299.404762 93.722957 
L 300.23461 96.864481 
L 301.04701 92.385171 
L 301.887968 95.355958 
L 302.733763 91.391864 
L 303.582221 95.088459 
L 304.423212 98.626756 
L 305.196473 97.45912 
L 306.016854 92.830666 
L 306.852146 92.268609 
L 307.687369 94.06807 
L 308.522321 97.007802 
L 309.333588 98.794483 
L 310.313165 120.545626 
L 311.023766 96.924321 
L 311.877705 96.513832 
L 312.697464 95.765508 
L 313.536467 96.45001 
L 314.366431 94.17294 
L 315.188533 96.625546 
L 316.010896 94.706019 
L 316.857495 96.056556 
L 317.63817 96.612191 
L 318.502592 99.989711 
L 319.34281 95.065616 
L 320.15208 93.017797 
L 321.032151 95.374733 
L 321.846382 93.777039 
L 322.626832 93.216333 
L 323.523648 95.589035 
L 324.335847 94.034752 
L 325.112632 99.827598 
L 326.054706 120.70569 
L 326.826203 97.554658 
L 327.641921 92.205717 
L 328.414891 90.359124 
L 329.407972 112.912192 
L 330.16118 24164.882595 
L 330.980288 101.510142 
L 331.826567 115.972408 
L 332.661513 107.906289 
L 333.473815 97.032839 
L 334.301904 95.521089 
L 335.154127 96.258241 
L 335.987393 95.177228 
L 336.795195 94.614746 
L 337.636945 96.582932 
L 338.478477 97.71564 
L 339.307282 94.628075 
L 340.121604 93.874209 
L 340.955966 91.994925 
L 341.788953 97.352192 
L 342.642234 98.974045 
L 343.456016 103.255515 
L 344.267756 102.868998 
L 345.141529 96.915837 
L 345.922206 103.814421 
L 346.776725 98.342156 
L 347.599183 96.157586 
L 348.432599 96.434129 
L 349.233215 100.437825 
L 350.127944 106.023809 
L 350.925403 107.485764 
L 351.819622 98.117017 
L 352.623559 96.219471 
L 353.40161 99.976057 
L 354.2782 101.510103 
L 355.074827 101.447388 
L 356.003766 103.090262 
L 356.692708 103.574562 
L 357.601893 100.659711 
L 358.406732 96.029447 
L 359.266212 99.028008 
L 360.091624 103.233528 
L 360.926714 99.363273 
L 361.746218 104.469732 
L 362.53697 97.877515 
L 363.421432 102.194868 
L 364.263897 108.982444 
L 365.032487 101.904144 
L 365.879524 103.939373 
L 366.758221 98.502298 
L 367.542907 92.692583 
L 368.366648 93.044128 
L 369.213337 90.999764 
L 370.059154 94.770952 
L 370.886938 96.171006 
L 371.70552 96.37064 
L 372.526615 97.859367 
L 373.396225 95.481898 
L 374.23609 94.345832 
L 375.0437 94.464685 
L 375.895262 102.483146 
L 376.700769 97.557087 
L 377.567291 112.324544 
L 378.388753 94.061565 
L 379.189423 93.128384 
L 380.000995 93.080063 
L 380.887667 97.426118 
L 381.619105 95.514137 
L 382.593255 91.191553 
L 383.352406 93.40016 
L 384.256673 93.165833 
L 385.032094 90.727215 
L 385.857356 91.016432 
L 386.676796 91.612368 
L 387.502917 92.291768 
L 388.332781 92.309554 
L 389.20017 92.394503 
L 390.017794 92.900837 
L 390.812362 90.870954 
L 391.692588 92.25515 
L 392.502589 93.166392 
L 393.308267 97.854506 
L 394.163258 103.589687 
L 395.002233 101.44195 
L 395.841081 100.721273 
L 396.644277 115.942162 
L 397.497798 114.42931 
L 398.299162 109.60281 
L 399.165043 100.748608 
L 399.988927 105.561449 
L 400.813757 107.559133 
L 401.663887 102.355721 
L 402.456071 100.881521 
L 403.279819 102.983772 
L 404.160894 96.577466 
L 404.985541 98.979138 
L 404.985541 80.26781 
L 404.985541 80.26781 
L 404.160894 84.748119 
L 403.279819 77.605136 
L 402.456071 77.833477 
L 401.663887 79.561082 
L 400.813757 77.45689 
L 399.988927 81.886619 
L 399.165043 84.94154 
L 398.299162 79.480705 
L 397.497798 80.154304 
L 396.644277 80.978078 
L 395.841081 78.919446 
L 395.002233 77.701535 
L 394.163258 78.353983 
L 393.308267 80.31214 
L 392.502589 80.530265 
L 391.692588 79.684881 
L 390.812362 78.231059 
L 390.017794 79.107566 
L 389.20017 77.38057 
L 388.332781 79.254857 
L 387.502917 81.347554 
L 386.676796 80.267714 
L 385.857356 80.259138 
L 385.032094 80.525633 
L 384.256673 80.346213 
L 383.352406 84.912421 
L 382.593255 83.593181 
L 381.619105 76.380698 
L 380.887667 75.858528 
L 380.000995 73.130673 
L 379.189423 77.099426 
L 378.388753 74.923029 
L 377.567291 79.086353 
L 376.700769 81.904673 
L 375.895262 79.298747 
L 375.0437 83.550165 
L 374.23609 83.445534 
L 373.396225 82.838326 
L 372.526615 83.143786 
L 371.70552 84.549054 
L 370.886938 82.074497 
L 370.059154 83.871005 
L 369.213337 85.352081 
L 368.366648 79.455752 
L 367.542907 78.738093 
L 366.758221 82.119378 
L 365.879524 82.826829 
L 365.032487 83.642351 
L 364.263897 81.934292 
L 363.421432 84.206749 
L 362.53697 84.475039 
L 361.746218 80.426406 
L 360.926714 79.762115 
L 360.091624 78.154052 
L 359.266212 81.028328 
L 358.406732 82.486354 
L 357.601893 80.785715 
L 356.692708 81.343449 
L 356.003766 82.418621 
L 355.074827 84.52866 
L 354.2782 81.734711 
L 353.40161 80.128817 
L 352.623559 81.643441 
L 351.819622 81.756822 
L 350.925403 78.447212 
L 350.127944 75.955447 
L 349.233215 81.532634 
L 348.432599 83.667203 
L 347.599183 80.505697 
L 346.776725 80.140281 
L 345.922206 79.369408 
L 345.141529 75.12961 
L 344.267756 77.165081 
L 343.456016 79.283568 
L 342.642234 78.960534 
L 341.788953 77.810051 
L 340.955966 77.364582 
L 340.121604 77.630989 
L 339.307282 77.68805 
L 338.478477 78.916268 
L 337.636945 81.126963 
L 336.795195 81.103624 
L 335.987393 77.884261 
L 335.154127 79.509031 
L 334.301904 78.264704 
L 333.473815 80.69703 
L 332.661513 74.589039 
L 331.826567 71.397746 
L 330.980288 73.047694 
L 330.16118 74.383048 
L 329.407972 77.107415 
L 328.414891 73.307052 
L 327.641921 74.840276 
L 326.826203 75.545146 
L 326.054706 71.504224 
L 325.112632 77.639952 
L 324.335847 78.164452 
L 323.523648 77.080927 
L 322.626832 77.098883 
L 321.846382 77.455539 
L 321.032151 76.630084 
L 320.15208 76.784437 
L 319.34281 77.852452 
L 318.502592 78.182176 
L 317.63817 76.681147 
L 316.857495 75.630725 
L 316.010896 76.147175 
L 315.188533 76.324179 
L 314.366431 74.819981 
L 313.536467 76.640122 
L 312.697464 77.446232 
L 311.877705 74.831416 
L 311.023766 75.418015 
L 310.313165 74.788844 
L 309.333588 77.712667 
L 308.522321 75.550165 
L 307.687369 75.563082 
L 306.852146 74.005332 
L 306.016854 75.936276 
L 305.196473 75.542563 
L 304.423212 74.802378 
L 303.582221 76.156766 
L 302.733763 75.521791 
L 301.887968 75.190656 
L 301.04701 73.306903 
L 300.23461 73.428627 
L 299.404762 75.171195 
L 298.562795 75.395159 
L 297.769896 73.81356 
L 296.932122 73.802542 
L 296.051454 74.084213 
L 295.282504 73.55975 
L 294.396982 75.229002 
L 293.584105 75.295002 
L 292.71598 76.108111 
L 291.926237 76.886405 
L 291.111835 77.112067 
L 290.277907 75.511987 
L 289.420129 74.061459 
L 288.548744 73.745786 
L 287.764312 72.846279 
L 286.899571 74.978272 
L 286.136433 75.279057 
L 285.271798 76.125676 
L 284.501527 76.411265 
L 283.606636 80.611333 
L 282.764669 82.584712 
L 281.935635 82.759931 
L 281.099439 81.535253 
L 280.308812 81.504906 
L 279.534448 82.209134 
L 278.562597 80.202462 
L 277.783093 82.175228 
L 276.98305 79.06264 
L 276.137374 78.086887 
L 275.315576 80.212596 
L 274.482957 79.539991 
L 273.626864 77.17173 
L 272.808485 77.547819 
L 271.896038 77.269303 
L 271.136879 79.31686 
L 270.31435 77.245552 
L 269.475612 78.491184 
L 268.646543 75.980802 
L 267.728683 78.207806 
L 266.996816 77.464802 
L 266.153931 76.869576 
L 265.379915 77.716546 
L 264.477577 75.663865 
L 263.67323 76.399389 
L 262.833972 76.685513 
L 261.985602 79.324778 
L 261.139721 77.710554 
L 260.324737 74.289563 
L 259.496382 76.270748 
L 258.645864 75.189963 
L 257.891415 77.715263 
L 256.963039 75.409578 
L 256.189003 76.872358 
L 255.337637 77.9908 
L 254.507781 77.570199 
L 253.64948 76.196431 
L 252.847735 75.165924 
L 252.000772 75.045888 
L 251.157441 73.808368 
L 250.325699 72.517459 
L 249.471063 73.475623 
L 248.669195 72.334792 
L 247.857268 70.755236 
L 247.019542 69.143237 
L 246.220594 69.593177 
L 245.359267 69.943084 
L 244.532324 69.515843 
L 243.693782 70.878746 
L 242.797912 68.596553 
L 242.158198 70.481057 
L 241.180992 68.642769 
L 240.40329 67.713248 
L 239.537919 72.162716 
L 238.691279 65.349052 
L 237.888304 59.695495 
L 237.102586 61.677776 
L 236.212597 62.983757 
L 235.386441 60.866188 
L 234.524639 62.43761 
L 233.737551 65.762341 
L 232.90016 61.852151 
L 232.036074 65.964536 
L 231.243308 67.046326 
L 230.388318 70.769394 
L 229.59028 67.457818 
L 228.721525 67.903588 
L 227.906937 67.521425 
L 227.084518 70.973278 
L 226.246543 71.621033 
L 225.414051 72.396041 
L 224.551637 72.652143 
L 223.793475 72.011186 
L 222.902596 72.374844 
L 222.093439 70.194038 
L 221.274512 70.489585 
L 220.404356 72.712183 
L 219.579903 72.532243 
L 218.744602 74.556289 
L 217.918707 74.199974 
L 217.129433 73.128826 
L 216.24972 71.624906 
L 215.430345 72.098255 
L 214.63586 71.102895 
L 213.76314 70.617215 
L 212.930299 69.30112 
L 212.132237 69.817473 
L 211.255489 70.725218 
L 210.436323 69.281743 
L 209.612425 67.77261 
L 208.792055 68.260246 
L 207.947 64.106857 
L 207.097158 67.214808 
L 206.227072 70.339766 
L 205.740944 67.708573 
z
" clip-path="url(#p80b2891f8a)" style="fill: #add8e6; stroke: #add8e6"/>
   </g>
   <g id="line2d_1">
    <path d="M 205.740944 71.91975 
L 206.227072 73.924533 
L 207.097158 71.724293 
L 207.947 66.969545 
L 208.792055 70.728142 
L 209.612425 70.299503 
L 210.436323 71.897594 
L 211.255489 72.366314 
L 212.132237 71.666329 
L 212.930299 71.266617 
L 213.76314 72.451998 
L 214.63586 73.47394 
L 215.430345 73.768999 
L 216.24972 73.766169 
L 217.129433 75.004357 
L 217.918707 75.71394 
L 218.744602 75.903871 
L 219.579903 74.921055 
L 220.404356 75.113353 
L 221.274512 74.028239 
L 222.093439 73.205049 
L 222.902596 74.940406 
L 223.793475 74.573435 
L 224.551637 75.14644 
L 226.246543 74.869473 
L 227.084518 74.062449 
L 227.906937 71.621718 
L 229.59028 71.973368 
L 230.388318 74.30077 
L 231.243308 72.169384 
L 232.036074 69.698253 
L 232.90016 66.023846 
L 233.737551 70.173258 
L 234.524639 67.302029 
L 235.386441 64.987938 
L 236.212597 66.070722 
L 237.102586 66.620928 
L 237.888304 65.683958 
L 239.537919 74.763507 
L 240.40329 71.789095 
L 241.180992 72.908805 
L 242.158198 74.025425 
L 242.797912 72.743975 
L 243.693782 75.331761 
L 244.532324 74.654805 
L 245.359267 75.926552 
L 246.220594 75.154757 
L 247.019542 74.739927 
L 247.857268 76.008457 
L 248.669195 76.859567 
L 249.471063 77.391766 
L 250.325699 76.45259 
L 251.157441 77.468824 
L 252.000772 77.977698 
L 252.847735 77.607924 
L 254.507781 79.867508 
L 255.337637 79.932927 
L 256.189003 79.128796 
L 256.963039 78.11492 
L 257.891415 79.721628 
L 258.645864 78.211231 
L 259.496382 78.392979 
L 260.324737 76.691728 
L 261.139721 79.631018 
L 261.985602 80.519262 
L 262.833972 78.910468 
L 263.67323 78.649468 
L 264.477577 77.967378 
L 265.379915 80.248028 
L 266.153931 79.611849 
L 266.996816 79.817527 
L 267.728683 80.669272 
L 268.646543 78.463734 
L 269.475612 80.630144 
L 270.31435 80.057446 
L 271.136879 81.008395 
L 271.896038 79.593773 
L 272.808485 80.192495 
L 273.626864 79.301273 
L 274.482957 81.126788 
L 275.315576 82.086963 
L 276.137374 80.647736 
L 276.98305 81.073649 
L 277.783093 83.489364 
L 278.562597 81.853655 
L 279.534448 83.418661 
L 280.308812 83.420281 
L 281.099439 83.028536 
L 281.935635 84.615558 
L 283.606636 82.644014 
L 284.501527 80.95793 
L 285.271798 80.921384 
L 286.136433 79.623427 
L 286.899571 79.563357 
L 287.764312 77.991364 
L 288.548744 78.43795 
L 289.420129 79.784653 
L 291.111835 81.507925 
L 292.71598 80.62367 
L 293.584105 79.75014 
L 294.396982 80.251466 
L 296.051454 79.347579 
L 296.932122 80.14532 
L 297.769896 79.699946 
L 298.562795 80.685919 
L 299.404762 80.802074 
L 300.23461 79.648759 
L 301.04701 79.013357 
L 301.887968 81.043218 
L 302.733763 80.714116 
L 303.582221 81.842505 
L 304.423212 81.059779 
L 305.196473 81.604487 
L 306.016854 81.3072 
L 306.852146 79.593412 
L 307.687369 81.187089 
L 308.522321 81.560158 
L 309.333588 83.678615 
L 310.313165 81.954044 
L 311.877705 80.867096 
L 312.697464 83.042697 
L 313.536467 82.446342 
L 314.366431 80.564596 
L 315.188533 82.194125 
L 316.010896 81.779091 
L 316.857495 81.516402 
L 317.63817 82.503317 
L 318.502592 84.231945 
L 319.34281 83.276083 
L 320.15208 82.04175 
L 321.032151 82.289026 
L 321.846382 82.728344 
L 322.626832 82.335661 
L 323.523648 82.705393 
L 324.335847 83.356817 
L 325.112632 83.731622 
L 326.054706 78.707151 
L 326.826203 81.617347 
L 327.641921 80.288618 
L 328.414891 78.704214 
L 329.407972 84.062443 
L 330.16118 82.746146 
L 330.980288 79.665087 
L 331.826567 78.546924 
L 332.661513 81.453771 
L 333.473815 85.97234 
L 334.301904 83.695379 
L 335.154127 84.855508 
L 335.987393 83.320879 
L 336.795195 85.826846 
L 337.636945 86.242936 
L 339.307282 83.066602 
L 340.121604 82.89004 
L 340.955966 82.320871 
L 342.642234 84.793471 
L 343.456016 85.554802 
L 345.141529 81.17699 
L 345.922206 85.683819 
L 347.599183 85.658098 
L 348.432599 88.224341 
L 349.233215 87.2146 
L 350.127944 82.666867 
L 350.925403 85.099897 
L 351.819622 87.036394 
L 352.623559 86.588868 
L 353.40161 85.939971 
L 354.2782 87.536361 
L 355.074827 89.903656 
L 356.003766 88.334892 
L 356.692708 87.439825 
L 357.601893 86.600395 
L 358.406732 87.216509 
L 359.266212 86.57642 
L 360.091624 84.523664 
L 361.746218 86.704268 
L 362.53697 89.17458 
L 363.421432 89.753068 
L 364.263897 88.456985 
L 365.032487 89.230208 
L 365.879524 88.796431 
L 366.758221 87.402915 
L 367.542907 83.555992 
L 368.366648 84.195697 
L 369.213337 87.801852 
L 370.059154 87.969804 
L 370.886938 86.922064 
L 371.70552 88.881773 
L 373.396225 87.367046 
L 375.0437 87.652782 
L 375.895262 85.494087 
L 376.700769 87.057171 
L 377.567291 85.947865 
L 378.388753 80.63793 
L 379.189423 82.3204 
L 380.000995 78.955245 
L 380.887667 81.881147 
L 381.619105 82.094886 
L 382.593255 86.721571 
L 383.352406 88.323533 
L 384.256673 84.915412 
L 385.032094 84.43683 
L 385.857356 84.320353 
L 386.676796 84.48129 
L 387.502917 85.457939 
L 389.20017 82.412305 
L 390.017794 83.8914 
L 390.812362 82.758928 
L 391.692588 84.196593 
L 393.308267 85.788819 
L 394.163258 84.736728 
L 395.002233 83.950987 
L 395.841081 84.968575 
L 396.644277 87.904859 
L 398.299162 86.195044 
L 399.165043 90.122405 
L 399.988927 88.129821 
L 400.813757 84.170152 
L 401.663887 85.716928 
L 402.456071 84.015149 
L 403.279819 83.999742 
L 404.160894 89.082743 
L 404.985541 85.921935 
L 404.985541 85.921935 
" clip-path="url(#p80b2891f8a)" style="fill: none; stroke: #1f77b4; stroke-width: 1.5; stroke-linecap: square"/>
   </g>
   <g id="line2d_2">
    <path d="M 83.41287 99.347864 
L 83.745774 115.166784 
L 84.078797 231.609273 
L 84.411701 118.138546 
L 84.744725 104.145852 
L 85.409935 89.945152 
L 87.074455 68.721947 
L 88.073406 60.455702 
L 89.072357 54.475424 
L 90.070114 50.148926 
L 91.069065 46.936352 
L 92.066821 44.553101 
L 93.065772 42.759637 
L 94.063528 41.379356 
L 95.061284 40.337754 
L 96.392422 39.328589 
L 97.72356 38.645359 
L 99.386885 38.135944 
L 101.383593 37.892974 
L 104.044674 37.943826 
L 108.370275 38.597344 
L 114.691389 40.11925 
L 123.008015 42.453425 
L 126.002478 43.316123 
L 143.634681 48.085275 
L 147.626901 49.07261 
L 167.91899 53.608852 
L 177.234567 55.437725 
L 187.546706 57.327333 
L 189.8756 57.715558 
L 193.530852 58.347839 
L 196.195519 58.784094 
L 198.860185 59.222593 
L 202.516632 59.793304 
L 204.846721 60.169574 
L 210.498681 61.009679 
L 212.494194 61.322049 
L 228.470241 63.536751 
L 239.439584 64.960562 
L 246.095274 65.777418 
L 248.090787 66.00414 
L 254.4119 66.756416 
L 256.74199 67.006712 
L 260.733014 67.464411 
L 263.063103 67.715758 
L 266.384974 68.085674 
L 269.04964 68.364684 
L 272.048883 68.690964 
L 275.036177 68.993517 
L 277.700843 69.273069 
L 281.022714 69.598648 
L 283.68738 69.878729 
L 287.343827 70.227856 
L 289.673916 70.4612 
L 293.664941 70.833875 
L 295.99503 71.067742 
L 300.655209 71.486473 
L 302.650721 71.673081 
L 307.633527 72.115879 
L 309.640988 72.303012 
L 317.28846 72.955275 
L 319.283973 73.142934 
L 327.266022 73.795548 
L 328.926957 73.935429 
L 338.247314 74.682231 
L 339.908249 74.822632 
L 353.21963 75.849898 
L 401.446502 79.18982 
L 403.119386 79.282781 
L 404.780322 79.400098 
L 404.780322 79.400098 
" clip-path="url(#p80b2891f8a)" style="fill: none; stroke: #000000; stroke-width: 2.5; stroke-linecap: square"/>
   </g>
   <g id="line2d_3">
    <path d="M 83.41287 26.345235 
L 83.745774 24.295428 
L 84.411701 22.20478 
L 84.744725 21.674696 
L 85.077748 21.414606 
L 85.409935 21.314727 
L 86.076699 21.450018 
L 87.074455 22.087845 
L 91.401252 25.737203 
L 99.720267 32.969809 
L 105.043625 36.855741 
L 112.694682 41.468325 
L 119.349178 44.800233 
L 123.673584 46.712699 
L 132.655779 50.19794 
L 142.303543 53.361566 
L 160.60012 58.253791 
L 164.925722 59.24945 
L 166.921234 59.713822 
L 186.548949 63.688238 
L 189.210031 64.153135 
L 192.204494 64.689133 
L 195.526365 65.247731 
L 198.191031 65.715037 
L 203.520363 66.553347 
L 205.515875 66.880523 
L 236.117713 71.152095 
L 238.113225 71.384683 
L 243.765185 72.085454 
L 245.760697 72.318721 
L 249.751722 72.785597 
L 252.081811 73.042138 
L 256.072836 73.5097 
L 258.737502 73.789188 
L 262.059373 74.163057 
L 265.058615 74.466153 
L 268.057858 74.793181 
L 271.045152 75.09662 
L 273.709818 75.37713 
L 277.366266 75.726458 
L 280.030932 76.007308 
L 284.021957 76.38025 
L 286.352046 76.614247 
L 290.677647 77.010803 
L 293.007736 77.24481 
L 299.316901 77.804606 
L 301.324362 77.991756 
L 308.302681 78.599109 
L 310.298193 78.786595 
L 317.957614 79.416601 
L 319.61855 79.556897 
L 328.59238 80.281342 
L 330.265265 80.421646 
L 397.455477 85.170744 
L 399.128362 85.263878 
L 405.114899 85.638683 
L 405.114899 85.638683 
" clip-path="url(#p80b2891f8a)" style="fill: none; stroke-dasharray: 9.25,4; stroke-dashoffset: 0; stroke: #8b0000; stroke-width: 2.5"/>
   </g>
   <g id="legend_1">
    <g id="line2d_4">
     <path d="M 333.95625 23.898438 
L 343.95625 23.898438 
L 353.95625 23.898438 
" style="fill: none; stroke: #1f77b4; stroke-width: 1.5; stroke-linecap: square"/>
    </g>
    <g id="text_1">
     <!-- PSP -->
     <g transform="translate(361.95625 27.398438) scale(0.1 -0.1)">
      <defs>
       <path id="DejaVuSans-50" d="M 1259 4147 
L 1259 2394 
L 2053 2394 
Q 2494 2394 2734 2622 
Q 2975 2850 2975 3272 
Q 2975 3691 2734 3919 
Q 2494 4147 2053 4147 
L 1259 4147 
z
M 628 4666 
L 2053 4666 
Q 2838 4666 3239 4311 
Q 3641 3956 3641 3272 
Q 3641 2581 3239 2228 
Q 2838 1875 2053 1875 
L 1259 1875 
L 1259 0 
L 628 0 
L 628 4666 
z
" transform="scale(0.015625)"/>
       <path id="DejaVuSans-53" d="M 3425 4513 
L 3425 3897 
Q 3066 4069 2747 4153 
Q 2428 4238 2131 4238 
Q 1616 4238 1336 4038 
Q 1056 3838 1056 3469 
Q 1056 3159 1242 3001 
Q 1428 2844 1947 2747 
L 2328 2669 
Q 3034 2534 3370 2195 
Q 3706 1856 3706 1288 
Q 3706 609 3251 259 
Q 2797 -91 1919 -91 
Q 1588 -91 1214 -16 
Q 841 59 441 206 
L 441 856 
Q 825 641 1194 531 
Q 1563 422 1919 422 
Q 2459 422 2753 634 
Q 3047 847 3047 1241 
Q 3047 1584 2836 1778 
Q 2625 1972 2144 2069 
L 1759 2144 
Q 1053 2284 737 2584 
Q 422 2884 422 3419 
Q 422 4038 858 4394 
Q 1294 4750 2059 4750 
Q 2388 4750 2728 4690 
Q 3069 4631 3425 4513 
z
" transform="scale(0.015625)"/>
      </defs>
      <use xlink:href="#DejaVuSans-50"/>
      <use xlink:href="#DejaVuSans-53" x="60.302734"/>
      <use xlink:href="#DejaVuSans-50" x="123.779297"/>
     </g>
    </g>
    <g id="line2d_5">
     <path d="M 333.95625 38.576562 
L 343.95625 38.576562 
L 353.95625 38.576562 
" style="fill: none; stroke: #000000; stroke-width: 2.5; stroke-linecap: square"/>
    </g>
    <g id="text_2">
     <!-- Slow wind -->
     <g transform="translate(361.95625 42.076562) scale(0.1 -0.1)">
      <defs>
       <path id="DejaVuSans-6c" d="M 603 4863 
L 1178 4863 
L 1178 0 
L 603 0 
L 603 4863 
z
" transform="scale(0.015625)"/>
       <path id="DejaVuSans-6f" d="M 1959 3097 
Q 1497 3097 1228 2736 
Q 959 2375 959 1747 
Q 959 1119 1226 758 
Q 1494 397 1959 397 
Q 2419 397 2687 759 
Q 2956 1122 2956 1747 
Q 2956 2369 2687 2733 
Q 2419 3097 1959 3097 
z
M 1959 3584 
Q 2709 3584 3137 3096 
Q 3566 2609 3566 1747 
Q 3566 888 3137 398 
Q 2709 -91 1959 -91 
Q 1206 -91 779 398 
Q 353 888 353 1747 
Q 353 2609 779 3096 
Q 1206 3584 1959 3584 
z
" transform="scale(0.015625)"/>
       <path id="DejaVuSans-77" d="M 269 3500 
L 844 3500 
L 1563 769 
L 2278 3500 
L 2956 3500 
L 3675 769 
L 4391 3500 
L 4966 3500 
L 4050 0 
L 3372 0 
L 2619 2869 
L 1863 0 
L 1184 0 
L 269 3500 
z
" transform="scale(0.015625)"/>
       <path id="DejaVuSans-20" transform="scale(0.015625)"/>
       <path id="DejaVuSans-69" d="M 603 3500 
L 1178 3500 
L 1178 0 
L 603 0 
L 603 3500 
z
M 603 4863 
L 1178 4863 
L 1178 4134 
L 603 4134 
L 603 4863 
z
" transform="scale(0.015625)"/>
       <path id="DejaVuSans-6e" d="M 3513 2113 
L 3513 0 
L 2938 0 
L 2938 2094 
Q 2938 2591 2744 2837 
Q 2550 3084 2163 3084 
Q 1697 3084 1428 2787 
Q 1159 2491 1159 1978 
L 1159 0 
L 581 0 
L 581 3500 
L 1159 3500 
L 1159 2956 
Q 1366 3272 1645 3428 
Q 1925 3584 2291 3584 
Q 2894 3584 3203 3211 
Q 3513 2838 3513 2113 
z
" transform="scale(0.015625)"/>
       <path id="DejaVuSans-64" d="M 2906 2969 
L 2906 4863 
L 3481 4863 
L 3481 0 
L 2906 0 
L 2906 525 
Q 2725 213 2448 61 
Q 2172 -91 1784 -91 
Q 1150 -91 751 415 
Q 353 922 353 1747 
Q 353 2572 751 3078 
Q 1150 3584 1784 3584 
Q 2172 3584 2448 3432 
Q 2725 3281 2906 2969 
z
M 947 1747 
Q 947 1113 1208 752 
Q 1469 391 1925 391 
Q 2381 391 2643 752 
Q 2906 1113 2906 1747 
Q 2906 2381 2643 2742 
Q 2381 3103 1925 3103 
Q 1469 3103 1208 2742 
Q 947 2381 947 1747 
z
" transform="scale(0.015625)"/>
      </defs>
      <use xlink:href="#DejaVuSans-53"/>
      <use xlink:href="#DejaVuSans-6c" x="63.476562"/>
      <use xlink:href="#DejaVuSans-6f" x="91.259766"/>
      <use xlink:href="#DejaVuSans-77" x="152.441406"/>
      <use xlink:href="#DejaVuSans-20" x="234.228516"/>
      <use xlink:href="#DejaVuSans-77" x="266.015625"/>
      <use xlink:href="#DejaVuSans-69" x="347.802734"/>
      <use xlink:href="#DejaVuSans-6e" x="375.585938"/>
      <use xlink:href="#DejaVuSans-64" x="438.964844"/>
     </g>
    </g>
    <g id="line2d_6">
     <path d="M 333.95625 53.254687 
L 343.95625 53.254687 
L 353.95625 53.254687 
" style="fill: none; stroke-dasharray: 9.25,4; stroke-dashoffset: 0; stroke: #8b0000; stroke-width: 2.5"/>
    </g>
    <g id="text_3">
     <!-- Fast wind -->
     <g transform="translate(361.95625 56.754687) scale(0.1 -0.1)">
      <defs>
       <path id="DejaVuSans-46" d="M 628 4666 
L 3309 4666 
L 3309 4134 
L 1259 4134 
L 1259 2759 
L 3109 2759 
L 3109 2228 
L 1259 2228 
L 1259 0 
L 628 0 
L 628 4666 
z
" transform="scale(0.015625)"/>
       <path id="DejaVuSans-61" d="M 2194 1759 
Q 1497 1759 1228 1600 
Q 959 1441 959 1056 
Q 959 750 1161 570 
Q 1363 391 1709 391 
Q 2188 391 2477 730 
Q 2766 1069 2766 1631 
L 2766 1759 
L 2194 1759 
z
M 3341 1997 
L 3341 0 
L 2766 0 
L 2766 531 
Q 2569 213 2275 61 
Q 1981 -91 1556 -91 
Q 1019 -91 701 211 
Q 384 513 384 1019 
Q 384 1609 779 1909 
Q 1175 2209 1959 2209 
L 2766 2209 
L 2766 2266 
Q 2766 2663 2505 2880 
Q 2244 3097 1772 3097 
Q 1472 3097 1187 3025 
Q 903 2953 641 2809 
L 641 3341 
Q 956 3463 1253 3523 
Q 1550 3584 1831 3584 
Q 2591 3584 2966 3190 
Q 3341 2797 3341 1997 
z
" transform="scale(0.015625)"/>
       <path id="DejaVuSans-73" d="M 2834 3397 
L 2834 2853 
Q 2591 2978 2328 3040 
Q 2066 3103 1784 3103 
Q 1356 3103 1142 2972 
Q 928 2841 928 2578 
Q 928 2378 1081 2264 
Q 1234 2150 1697 2047 
L 1894 2003 
Q 2506 1872 2764 1633 
Q 3022 1394 3022 966 
Q 3022 478 2636 193 
Q 2250 -91 1575 -91 
Q 1294 -91 989 -36 
Q 684 19 347 128 
L 347 722 
Q 666 556 975 473 
Q 1284 391 1588 391 
Q 1994 391 2212 530 
Q 2431 669 2431 922 
Q 2431 1156 2273 1281 
Q 2116 1406 1581 1522 
L 1381 1569 
Q 847 1681 609 1914 
Q 372 2147 372 2553 
Q 372 3047 722 3315 
Q 1072 3584 1716 3584 
Q 2034 3584 2315 3537 
Q 2597 3491 2834 3397 
z
" transform="scale(0.015625)"/>
       <path id="DejaVuSans-74" d="M 1172 4494 
L 1172 3500 
L 2356 3500 
L 2356 3053 
L 1172 3053 
L 1172 1153 
Q 1172 725 1289 603 
Q 1406 481 1766 481 
L 2356 481 
L 2356 0 
L 1766 0 
Q 1100 0 847 248 
Q 594 497 594 1153 
L 594 3053 
L 172 3053 
L 172 3500 
L 594 3500 
L 594 4494 
L 1172 4494 
z
" transform="scale(0.015625)"/>
      </defs>
      <use xlink:href="#DejaVuSans-46"/>
      <use xlink:href="#DejaVuSans-61" x="48.394531"/>
      <use xlink:href="#DejaVuSans-73" x="109.673828"/>
      <use xlink:href="#DejaVuSans-74" x="161.773438"/>
      <use xlink:href="#DejaVuSans-20" x="200.982422"/>
      <use xlink:href="#DejaVuSans-77" x="232.769531"/>
      <use xlink:href="#DejaVuSans-69" x="314.556641"/>
      <use xlink:href="#DejaVuSans-6e" x="342.339844"/>
      <use xlink:href="#DejaVuSans-64" x="405.71875"/>
     </g>
    </g>
   </g>
   <g id="matplotlib.axis_1">
    <g id="xtick_1">
     <g id="line2d_7">
      <defs>
       <path id="m6f8c033a8c" d="M 0 0 
L 0 -3.5 
" style="stroke: #000000; stroke-width: 1.5"/>
      </defs>
      <g>
       <use xlink:href="#m6f8c033a8c" x="72.868081" y="242.124" style="stroke: #000000; stroke-width: 1.5"/>
      </g>
     </g>
     <g id="line2d_8">
      <defs>
       <path id="mbd42b74244" d="M 0 0 
L 0 3.5 
" style="stroke: #000000; stroke-width: 1.5"/>
      </defs>
      <g>
       <use xlink:href="#mbd42b74244" x="72.868081" y="10.8" style="stroke: #000000; stroke-width: 1.5"/>
      </g>
     </g>
     <g id="text_4">
      <!-- 0 -->
      <g transform="translate(69.050581 254.742125) scale(0.12 -0.12)">
       <defs>
        <path id="DejaVuSans-30" d="M 2034 4250 
Q 1547 4250 1301 3770 
Q 1056 3291 1056 2328 
Q 1056 1369 1301 889 
Q 1547 409 2034 409 
Q 2525 409 2770 889 
Q 3016 1369 3016 2328 
Q 3016 3291 2770 3770 
Q 2525 4250 2034 4250 
z
M 2034 4750 
Q 2819 4750 3233 4129 
Q 3647 3509 3647 2328 
Q 3647 1150 3233 529 
Q 2819 -91 2034 -91 
Q 1250 -91 836 529 
Q 422 1150 422 2328 
Q 422 3509 836 4129 
Q 1250 4750 2034 4750 
z
" transform="scale(0.015625)"/>
       </defs>
       <use xlink:href="#DejaVuSans-30"/>
      </g>
     </g>
    </g>
    <g id="xtick_2">
     <g id="line2d_9">
      <g>
       <use xlink:href="#m6f8c033a8c" x="114.433287" y="242.124" style="stroke: #000000; stroke-width: 1.5"/>
      </g>
     </g>
     <g id="line2d_10">
      <g>
       <use xlink:href="#mbd42b74244" x="114.433287" y="10.8" style="stroke: #000000; stroke-width: 1.5"/>
      </g>
     </g>
     <g id="text_5">
      <!-- 5 -->
      <g transform="translate(110.615787 254.742125) scale(0.12 -0.12)">
       <defs>
        <path id="DejaVuSans-35" d="M 691 4666 
L 3169 4666 
L 3169 4134 
L 1269 4134 
L 1269 2991 
Q 1406 3038 1543 3061 
Q 1681 3084 1819 3084 
Q 2600 3084 3056 2656 
Q 3513 2228 3513 1497 
Q 3513 744 3044 326 
Q 2575 -91 1722 -91 
Q 1428 -91 1123 -41 
Q 819 9 494 109 
L 494 744 
Q 775 591 1075 516 
Q 1375 441 1709 441 
Q 2250 441 2565 725 
Q 2881 1009 2881 1497 
Q 2881 1984 2565 2268 
Q 2250 2553 1709 2553 
Q 1456 2553 1204 2497 
Q 953 2441 691 2322 
L 691 4666 
z
" transform="scale(0.015625)"/>
       </defs>
       <use xlink:href="#DejaVuSans-35"/>
      </g>
     </g>
    </g>
    <g id="xtick_3">
     <g id="line2d_11">
      <g>
       <use xlink:href="#m6f8c033a8c" x="155.998493" y="242.124" style="stroke: #000000; stroke-width: 1.5"/>
      </g>
     </g>
     <g id="line2d_12">
      <g>
       <use xlink:href="#mbd42b74244" x="155.998493" y="10.8" style="stroke: #000000; stroke-width: 1.5"/>
      </g>
     </g>
     <g id="text_6">
      <!-- 10 -->
      <g transform="translate(148.363493 254.742125) scale(0.12 -0.12)">
       <defs>
        <path id="DejaVuSans-31" d="M 794 531 
L 1825 531 
L 1825 4091 
L 703 3866 
L 703 4441 
L 1819 4666 
L 2450 4666 
L 2450 531 
L 3481 531 
L 3481 0 
L 794 0 
L 794 531 
z
" transform="scale(0.015625)"/>
       </defs>
       <use xlink:href="#DejaVuSans-31"/>
       <use xlink:href="#DejaVuSans-30" x="63.623047"/>
      </g>
     </g>
    </g>
    <g id="xtick_4">
     <g id="line2d_13">
      <g>
       <use xlink:href="#m6f8c033a8c" x="197.563699" y="242.124" style="stroke: #000000; stroke-width: 1.5"/>
      </g>
     </g>
     <g id="line2d_14">
      <g>
       <use xlink:href="#mbd42b74244" x="197.563699" y="10.8" style="stroke: #000000; stroke-width: 1.5"/>
      </g>
     </g>
     <g id="text_7">
      <!-- 15 -->
      <g transform="translate(189.928699 254.742125) scale(0.12 -0.12)">
       <use xlink:href="#DejaVuSans-31"/>
       <use xlink:href="#DejaVuSans-35" x="63.623047"/>
      </g>
     </g>
    </g>
    <g id="xtick_5">
     <g id="line2d_15">
      <g>
       <use xlink:href="#m6f8c033a8c" x="239.128905" y="242.124" style="stroke: #000000; stroke-width: 1.5"/>
      </g>
     </g>
     <g id="line2d_16">
      <g>
       <use xlink:href="#mbd42b74244" x="239.128905" y="10.8" style="stroke: #000000; stroke-width: 1.5"/>
      </g>
     </g>
     <g id="text_8">
      <!-- 20 -->
      <g transform="translate(231.493905 254.742125) scale(0.12 -0.12)">
       <defs>
        <path id="DejaVuSans-32" d="M 1228 531 
L 3431 531 
L 3431 0 
L 469 0 
L 469 531 
Q 828 903 1448 1529 
Q 2069 2156 2228 2338 
Q 2531 2678 2651 2914 
Q 2772 3150 2772 3378 
Q 2772 3750 2511 3984 
Q 2250 4219 1831 4219 
Q 1534 4219 1204 4116 
Q 875 4013 500 3803 
L 500 4441 
Q 881 4594 1212 4672 
Q 1544 4750 1819 4750 
Q 2544 4750 2975 4387 
Q 3406 4025 3406 3419 
Q 3406 3131 3298 2873 
Q 3191 2616 2906 2266 
Q 2828 2175 2409 1742 
Q 1991 1309 1228 531 
z
" transform="scale(0.015625)"/>
       </defs>
       <use xlink:href="#DejaVuSans-32"/>
       <use xlink:href="#DejaVuSans-30" x="63.623047"/>
      </g>
     </g>
    </g>
    <g id="xtick_6">
     <g id="line2d_17">
      <g>
       <use xlink:href="#m6f8c033a8c" x="280.694111" y="242.124" style="stroke: #000000; stroke-width: 1.5"/>
      </g>
     </g>
     <g id="line2d_18">
      <g>
       <use xlink:href="#mbd42b74244" x="280.694111" y="10.8" style="stroke: #000000; stroke-width: 1.5"/>
      </g>
     </g>
     <g id="text_9">
      <!-- 25 -->
      <g transform="translate(273.059111 254.742125) scale(0.12 -0.12)">
       <use xlink:href="#DejaVuSans-32"/>
       <use xlink:href="#DejaVuSans-35" x="63.623047"/>
      </g>
     </g>
    </g>
    <g id="xtick_7">
     <g id="line2d_19">
      <g>
       <use xlink:href="#m6f8c033a8c" x="322.259317" y="242.124" style="stroke: #000000; stroke-width: 1.5"/>
      </g>
     </g>
     <g id="line2d_20">
      <g>
       <use xlink:href="#mbd42b74244" x="322.259317" y="10.8" style="stroke: #000000; stroke-width: 1.5"/>
      </g>
     </g>
     <g id="text_10">
      <!-- 30 -->
      <g transform="translate(314.624317 254.742125) scale(0.12 -0.12)">
       <defs>
        <path id="DejaVuSans-33" d="M 2597 2516 
Q 3050 2419 3304 2112 
Q 3559 1806 3559 1356 
Q 3559 666 3084 287 
Q 2609 -91 1734 -91 
Q 1441 -91 1130 -33 
Q 819 25 488 141 
L 488 750 
Q 750 597 1062 519 
Q 1375 441 1716 441 
Q 2309 441 2620 675 
Q 2931 909 2931 1356 
Q 2931 1769 2642 2001 
Q 2353 2234 1838 2234 
L 1294 2234 
L 1294 2753 
L 1863 2753 
Q 2328 2753 2575 2939 
Q 2822 3125 2822 3475 
Q 2822 3834 2567 4026 
Q 2313 4219 1838 4219 
Q 1578 4219 1281 4162 
Q 984 4106 628 3988 
L 628 4550 
Q 988 4650 1302 4700 
Q 1616 4750 1894 4750 
Q 2613 4750 3031 4423 
Q 3450 4097 3450 3541 
Q 3450 3153 3228 2886 
Q 3006 2619 2597 2516 
z
" transform="scale(0.015625)"/>
       </defs>
       <use xlink:href="#DejaVuSans-33"/>
       <use xlink:href="#DejaVuSans-30" x="63.623047"/>
      </g>
     </g>
    </g>
    <g id="xtick_8">
     <g id="line2d_21">
      <g>
       <use xlink:href="#m6f8c033a8c" x="363.824523" y="242.124" style="stroke: #000000; stroke-width: 1.5"/>
      </g>
     </g>
     <g id="line2d_22">
      <g>
       <use xlink:href="#mbd42b74244" x="363.824523" y="10.8" style="stroke: #000000; stroke-width: 1.5"/>
      </g>
     </g>
     <g id="text_11">
      <!-- 35 -->
      <g transform="translate(356.189523 254.742125) scale(0.12 -0.12)">
       <use xlink:href="#DejaVuSans-33"/>
       <use xlink:href="#DejaVuSans-35" x="63.623047"/>
      </g>
     </g>
    </g>
    <g id="xtick_9">
     <g id="line2d_23">
      <g>
       <use xlink:href="#m6f8c033a8c" x="405.38973" y="242.124" style="stroke: #000000; stroke-width: 1.5"/>
      </g>
     </g>
     <g id="line2d_24">
      <g>
       <use xlink:href="#mbd42b74244" x="405.38973" y="10.8" style="stroke: #000000; stroke-width: 1.5"/>
      </g>
     </g>
     <g id="text_12">
      <!-- 40 -->
      <g transform="translate(397.75473 254.742125) scale(0.12 -0.12)">
       <defs>
        <path id="DejaVuSans-34" d="M 2419 4116 
L 825 1625 
L 2419 1625 
L 2419 4116 
z
M 2253 4666 
L 3047 4666 
L 3047 1625 
L 3713 1625 
L 3713 1100 
L 3047 1100 
L 3047 0 
L 2419 0 
L 2419 1100 
L 313 1100 
L 313 1709 
L 2253 4666 
z
" transform="scale(0.015625)"/>
       </defs>
       <use xlink:href="#DejaVuSans-34"/>
       <use xlink:href="#DejaVuSans-30" x="63.623047"/>
      </g>
     </g>
    </g>
    <g id="xtick_10">
     <g id="line2d_25">
      <defs>
       <path id="mb28fa1cec2" d="M 0 0 
L 0 -2 
" style="stroke: #000000; stroke-width: 1.5"/>
      </defs>
      <g>
       <use xlink:href="#mb28fa1cec2" x="81.181122" y="242.124" style="stroke: #000000; stroke-width: 1.5"/>
      </g>
     </g>
     <g id="line2d_26">
      <defs>
       <path id="m0cebf956bb" d="M 0 0 
L 0 2 
" style="stroke: #000000; stroke-width: 1.5"/>
      </defs>
      <g>
       <use xlink:href="#m0cebf956bb" x="81.181122" y="10.8" style="stroke: #000000; stroke-width: 1.5"/>
      </g>
     </g>
    </g>
    <g id="xtick_11">
     <g id="line2d_27">
      <g>
       <use xlink:href="#mb28fa1cec2" x="89.494163" y="242.124" style="stroke: #000000; stroke-width: 1.5"/>
      </g>
     </g>
     <g id="line2d_28">
      <g>
       <use xlink:href="#m0cebf956bb" x="89.494163" y="10.8" style="stroke: #000000; stroke-width: 1.5"/>
      </g>
     </g>
    </g>
    <g id="xtick_12">
     <g id="line2d_29">
      <g>
       <use xlink:href="#mb28fa1cec2" x="97.807204" y="242.124" style="stroke: #000000; stroke-width: 1.5"/>
      </g>
     </g>
     <g id="line2d_30">
      <g>
       <use xlink:href="#m0cebf956bb" x="97.807204" y="10.8" style="stroke: #000000; stroke-width: 1.5"/>
      </g>
     </g>
    </g>
    <g id="xtick_13">
     <g id="line2d_31">
      <g>
       <use xlink:href="#mb28fa1cec2" x="106.120246" y="242.124" style="stroke: #000000; stroke-width: 1.5"/>
      </g>
     </g>
     <g id="line2d_32">
      <g>
       <use xlink:href="#m0cebf956bb" x="106.120246" y="10.8" style="stroke: #000000; stroke-width: 1.5"/>
      </g>
     </g>
    </g>
    <g id="xtick_14">
     <g id="line2d_33">
      <g>
       <use xlink:href="#mb28fa1cec2" x="122.746328" y="242.124" style="stroke: #000000; stroke-width: 1.5"/>
      </g>
     </g>
     <g id="line2d_34">
      <g>
       <use xlink:href="#m0cebf956bb" x="122.746328" y="10.8" style="stroke: #000000; stroke-width: 1.5"/>
      </g>
     </g>
    </g>
    <g id="xtick_15">
     <g id="line2d_35">
      <g>
       <use xlink:href="#mb28fa1cec2" x="131.059369" y="242.124" style="stroke: #000000; stroke-width: 1.5"/>
      </g>
     </g>
     <g id="line2d_36">
      <g>
       <use xlink:href="#m0cebf956bb" x="131.059369" y="10.8" style="stroke: #000000; stroke-width: 1.5"/>
      </g>
     </g>
    </g>
    <g id="xtick_16">
     <g id="line2d_37">
      <g>
       <use xlink:href="#mb28fa1cec2" x="139.372411" y="242.124" style="stroke: #000000; stroke-width: 1.5"/>
      </g>
     </g>
     <g id="line2d_38">
      <g>
       <use xlink:href="#m0cebf956bb" x="139.372411" y="10.8" style="stroke: #000000; stroke-width: 1.5"/>
      </g>
     </g>
    </g>
    <g id="xtick_17">
     <g id="line2d_39">
      <g>
       <use xlink:href="#mb28fa1cec2" x="147.685452" y="242.124" style="stroke: #000000; stroke-width: 1.5"/>
      </g>
     </g>
     <g id="line2d_40">
      <g>
       <use xlink:href="#m0cebf956bb" x="147.685452" y="10.8" style="stroke: #000000; stroke-width: 1.5"/>
      </g>
     </g>
    </g>
    <g id="xtick_18">
     <g id="line2d_41">
      <g>
       <use xlink:href="#mb28fa1cec2" x="164.311534" y="242.124" style="stroke: #000000; stroke-width: 1.5"/>
      </g>
     </g>
     <g id="line2d_42">
      <g>
       <use xlink:href="#m0cebf956bb" x="164.311534" y="10.8" style="stroke: #000000; stroke-width: 1.5"/>
      </g>
     </g>
    </g>
    <g id="xtick_19">
     <g id="line2d_43">
      <g>
       <use xlink:href="#mb28fa1cec2" x="172.624575" y="242.124" style="stroke: #000000; stroke-width: 1.5"/>
      </g>
     </g>
     <g id="line2d_44">
      <g>
       <use xlink:href="#m0cebf956bb" x="172.624575" y="10.8" style="stroke: #000000; stroke-width: 1.5"/>
      </g>
     </g>
    </g>
    <g id="xtick_20">
     <g id="line2d_45">
      <g>
       <use xlink:href="#mb28fa1cec2" x="180.937617" y="242.124" style="stroke: #000000; stroke-width: 1.5"/>
      </g>
     </g>
     <g id="line2d_46">
      <g>
       <use xlink:href="#m0cebf956bb" x="180.937617" y="10.8" style="stroke: #000000; stroke-width: 1.5"/>
      </g>
     </g>
    </g>
    <g id="xtick_21">
     <g id="line2d_47">
      <g>
       <use xlink:href="#mb28fa1cec2" x="189.250658" y="242.124" style="stroke: #000000; stroke-width: 1.5"/>
      </g>
     </g>
     <g id="line2d_48">
      <g>
       <use xlink:href="#m0cebf956bb" x="189.250658" y="10.8" style="stroke: #000000; stroke-width: 1.5"/>
      </g>
     </g>
    </g>
    <g id="xtick_22">
     <g id="line2d_49">
      <g>
       <use xlink:href="#mb28fa1cec2" x="205.87674" y="242.124" style="stroke: #000000; stroke-width: 1.5"/>
      </g>
     </g>
     <g id="line2d_50">
      <g>
       <use xlink:href="#m0cebf956bb" x="205.87674" y="10.8" style="stroke: #000000; stroke-width: 1.5"/>
      </g>
     </g>
    </g>
    <g id="xtick_23">
     <g id="line2d_51">
      <g>
       <use xlink:href="#mb28fa1cec2" x="214.189782" y="242.124" style="stroke: #000000; stroke-width: 1.5"/>
      </g>
     </g>
     <g id="line2d_52">
      <g>
       <use xlink:href="#m0cebf956bb" x="214.189782" y="10.8" style="stroke: #000000; stroke-width: 1.5"/>
      </g>
     </g>
    </g>
    <g id="xtick_24">
     <g id="line2d_53">
      <g>
       <use xlink:href="#mb28fa1cec2" x="222.502823" y="242.124" style="stroke: #000000; stroke-width: 1.5"/>
      </g>
     </g>
     <g id="line2d_54">
      <g>
       <use xlink:href="#m0cebf956bb" x="222.502823" y="10.8" style="stroke: #000000; stroke-width: 1.5"/>
      </g>
     </g>
    </g>
    <g id="xtick_25">
     <g id="line2d_55">
      <g>
       <use xlink:href="#mb28fa1cec2" x="230.815864" y="242.124" style="stroke: #000000; stroke-width: 1.5"/>
      </g>
     </g>
     <g id="line2d_56">
      <g>
       <use xlink:href="#m0cebf956bb" x="230.815864" y="10.8" style="stroke: #000000; stroke-width: 1.5"/>
      </g>
     </g>
    </g>
    <g id="xtick_26">
     <g id="line2d_57">
      <g>
       <use xlink:href="#mb28fa1cec2" x="247.441946" y="242.124" style="stroke: #000000; stroke-width: 1.5"/>
      </g>
     </g>
     <g id="line2d_58">
      <g>
       <use xlink:href="#m0cebf956bb" x="247.441946" y="10.8" style="stroke: #000000; stroke-width: 1.5"/>
      </g>
     </g>
    </g>
    <g id="xtick_27">
     <g id="line2d_59">
      <g>
       <use xlink:href="#mb28fa1cec2" x="255.754988" y="242.124" style="stroke: #000000; stroke-width: 1.5"/>
      </g>
     </g>
     <g id="line2d_60">
      <g>
       <use xlink:href="#m0cebf956bb" x="255.754988" y="10.8" style="stroke: #000000; stroke-width: 1.5"/>
      </g>
     </g>
    </g>
    <g id="xtick_28">
     <g id="line2d_61">
      <g>
       <use xlink:href="#mb28fa1cec2" x="264.068029" y="242.124" style="stroke: #000000; stroke-width: 1.5"/>
      </g>
     </g>
     <g id="line2d_62">
      <g>
       <use xlink:href="#m0cebf956bb" x="264.068029" y="10.8" style="stroke: #000000; stroke-width: 1.5"/>
      </g>
     </g>
    </g>
    <g id="xtick_29">
     <g id="line2d_63">
      <g>
       <use xlink:href="#mb28fa1cec2" x="272.38107" y="242.124" style="stroke: #000000; stroke-width: 1.5"/>
      </g>
     </g>
     <g id="line2d_64">
      <g>
       <use xlink:href="#m0cebf956bb" x="272.38107" y="10.8" style="stroke: #000000; stroke-width: 1.5"/>
      </g>
     </g>
    </g>
    <g id="xtick_30">
     <g id="line2d_65">
      <g>
       <use xlink:href="#mb28fa1cec2" x="289.007153" y="242.124" style="stroke: #000000; stroke-width: 1.5"/>
      </g>
     </g>
     <g id="line2d_66">
      <g>
       <use xlink:href="#m0cebf956bb" x="289.007153" y="10.8" style="stroke: #000000; stroke-width: 1.5"/>
      </g>
     </g>
    </g>
    <g id="xtick_31">
     <g id="line2d_67">
      <g>
       <use xlink:href="#mb28fa1cec2" x="297.320194" y="242.124" style="stroke: #000000; stroke-width: 1.5"/>
      </g>
     </g>
     <g id="line2d_68">
      <g>
       <use xlink:href="#m0cebf956bb" x="297.320194" y="10.8" style="stroke: #000000; stroke-width: 1.5"/>
      </g>
     </g>
    </g>
    <g id="xtick_32">
     <g id="line2d_69">
      <g>
       <use xlink:href="#mb28fa1cec2" x="305.633235" y="242.124" style="stroke: #000000; stroke-width: 1.5"/>
      </g>
     </g>
     <g id="line2d_70">
      <g>
       <use xlink:href="#m0cebf956bb" x="305.633235" y="10.8" style="stroke: #000000; stroke-width: 1.5"/>
      </g>
     </g>
    </g>
    <g id="xtick_33">
     <g id="line2d_71">
      <g>
       <use xlink:href="#mb28fa1cec2" x="313.946276" y="242.124" style="stroke: #000000; stroke-width: 1.5"/>
      </g>
     </g>
     <g id="line2d_72">
      <g>
       <use xlink:href="#m0cebf956bb" x="313.946276" y="10.8" style="stroke: #000000; stroke-width: 1.5"/>
      </g>
     </g>
    </g>
    <g id="xtick_34">
     <g id="line2d_73">
      <g>
       <use xlink:href="#mb28fa1cec2" x="330.572359" y="242.124" style="stroke: #000000; stroke-width: 1.5"/>
      </g>
     </g>
     <g id="line2d_74">
      <g>
       <use xlink:href="#m0cebf956bb" x="330.572359" y="10.8" style="stroke: #000000; stroke-width: 1.5"/>
      </g>
     </g>
    </g>
    <g id="xtick_35">
     <g id="line2d_75">
      <g>
       <use xlink:href="#mb28fa1cec2" x="338.8854" y="242.124" style="stroke: #000000; stroke-width: 1.5"/>
      </g>
     </g>
     <g id="line2d_76">
      <g>
       <use xlink:href="#m0cebf956bb" x="338.8854" y="10.8" style="stroke: #000000; stroke-width: 1.5"/>
      </g>
     </g>
    </g>
    <g id="xtick_36">
     <g id="line2d_77">
      <g>
       <use xlink:href="#mb28fa1cec2" x="347.198441" y="242.124" style="stroke: #000000; stroke-width: 1.5"/>
      </g>
     </g>
     <g id="line2d_78">
      <g>
       <use xlink:href="#m0cebf956bb" x="347.198441" y="10.8" style="stroke: #000000; stroke-width: 1.5"/>
      </g>
     </g>
    </g>
    <g id="xtick_37">
     <g id="line2d_79">
      <g>
       <use xlink:href="#mb28fa1cec2" x="355.511482" y="242.124" style="stroke: #000000; stroke-width: 1.5"/>
      </g>
     </g>
     <g id="line2d_80">
      <g>
       <use xlink:href="#m0cebf956bb" x="355.511482" y="10.8" style="stroke: #000000; stroke-width: 1.5"/>
      </g>
     </g>
    </g>
    <g id="xtick_38">
     <g id="line2d_81">
      <g>
       <use xlink:href="#mb28fa1cec2" x="372.137565" y="242.124" style="stroke: #000000; stroke-width: 1.5"/>
      </g>
     </g>
     <g id="line2d_82">
      <g>
       <use xlink:href="#m0cebf956bb" x="372.137565" y="10.8" style="stroke: #000000; stroke-width: 1.5"/>
      </g>
     </g>
    </g>
    <g id="xtick_39">
     <g id="line2d_83">
      <g>
       <use xlink:href="#mb28fa1cec2" x="380.450606" y="242.124" style="stroke: #000000; stroke-width: 1.5"/>
      </g>
     </g>
     <g id="line2d_84">
      <g>
       <use xlink:href="#m0cebf956bb" x="380.450606" y="10.8" style="stroke: #000000; stroke-width: 1.5"/>
      </g>
     </g>
    </g>
    <g id="xtick_40">
     <g id="line2d_85">
      <g>
       <use xlink:href="#mb28fa1cec2" x="388.763647" y="242.124" style="stroke: #000000; stroke-width: 1.5"/>
      </g>
     </g>
     <g id="line2d_86">
      <g>
       <use xlink:href="#m0cebf956bb" x="388.763647" y="10.8" style="stroke: #000000; stroke-width: 1.5"/>
      </g>
     </g>
    </g>
    <g id="xtick_41">
     <g id="line2d_87">
      <g>
       <use xlink:href="#mb28fa1cec2" x="397.076688" y="242.124" style="stroke: #000000; stroke-width: 1.5"/>
      </g>
     </g>
     <g id="line2d_88">
      <g>
       <use xlink:href="#m0cebf956bb" x="397.076688" y="10.8" style="stroke: #000000; stroke-width: 1.5"/>
      </g>
     </g>
    </g>
    <g id="xtick_42">
     <g id="line2d_89">
      <g>
       <use xlink:href="#mb28fa1cec2" x="413.702771" y="242.124" style="stroke: #000000; stroke-width: 1.5"/>
      </g>
     </g>
     <g id="line2d_90">
      <g>
       <use xlink:href="#m0cebf956bb" x="413.702771" y="10.8" style="stroke: #000000; stroke-width: 1.5"/>
      </g>
     </g>
    </g>
    <g id="text_13">
     <!-- Distance [R$_\odot$] -->
     <g transform="translate(202.023884 270.355875) scale(0.12 -0.12)">
      <defs>
       <path id="DejaVuSans-44" d="M 1259 4147 
L 1259 519 
L 2022 519 
Q 2988 519 3436 956 
Q 3884 1394 3884 2338 
Q 3884 3275 3436 3711 
Q 2988 4147 2022 4147 
L 1259 4147 
z
M 628 4666 
L 1925 4666 
Q 3281 4666 3915 4102 
Q 4550 3538 4550 2338 
Q 4550 1131 3912 565 
Q 3275 0 1925 0 
L 628 0 
L 628 4666 
z
" transform="scale(0.015625)"/>
       <path id="DejaVuSans-63" d="M 3122 3366 
L 3122 2828 
Q 2878 2963 2633 3030 
Q 2388 3097 2138 3097 
Q 1578 3097 1268 2742 
Q 959 2388 959 1747 
Q 959 1106 1268 751 
Q 1578 397 2138 397 
Q 2388 397 2633 464 
Q 2878 531 3122 666 
L 3122 134 
Q 2881 22 2623 -34 
Q 2366 -91 2075 -91 
Q 1284 -91 818 406 
Q 353 903 353 1747 
Q 353 2603 823 3093 
Q 1294 3584 2113 3584 
Q 2378 3584 2631 3529 
Q 2884 3475 3122 3366 
z
" transform="scale(0.015625)"/>
       <path id="DejaVuSans-65" d="M 3597 1894 
L 3597 1613 
L 953 1613 
Q 991 1019 1311 708 
Q 1631 397 2203 397 
Q 2534 397 2845 478 
Q 3156 559 3463 722 
L 3463 178 
Q 3153 47 2828 -22 
Q 2503 -91 2169 -91 
Q 1331 -91 842 396 
Q 353 884 353 1716 
Q 353 2575 817 3079 
Q 1281 3584 2069 3584 
Q 2775 3584 3186 3129 
Q 3597 2675 3597 1894 
z
M 3022 2063 
Q 3016 2534 2758 2815 
Q 2500 3097 2075 3097 
Q 1594 3097 1305 2825 
Q 1016 2553 972 2059 
L 3022 2063 
z
" transform="scale(0.015625)"/>
       <path id="DejaVuSans-5b" d="M 550 4863 
L 1875 4863 
L 1875 4416 
L 1125 4416 
L 1125 -397 
L 1875 -397 
L 1875 -844 
L 550 -844 
L 550 4863 
z
" transform="scale(0.015625)"/>
       <path id="DejaVuSans-52" d="M 2841 2188 
Q 3044 2119 3236 1894 
Q 3428 1669 3622 1275 
L 4263 0 
L 3584 0 
L 2988 1197 
Q 2756 1666 2539 1819 
Q 2322 1972 1947 1972 
L 1259 1972 
L 1259 0 
L 628 0 
L 628 4666 
L 2053 4666 
Q 2853 4666 3247 4331 
Q 3641 3997 3641 3322 
Q 3641 2881 3436 2590 
Q 3231 2300 2841 2188 
z
M 1259 4147 
L 1259 2491 
L 2053 2491 
Q 2509 2491 2742 2702 
Q 2975 2913 2975 3322 
Q 2975 3731 2742 3939 
Q 2509 4147 2053 4147 
L 1259 4147 
z
" transform="scale(0.015625)"/>
       <path id="DejaVuSans-2299" d="M 2350 2403 
L 3013 2403 
L 3013 1609 
L 2350 1609 
L 2350 2403 
z
M 3306 3522 
Q 3016 3644 2681 3644 
Q 2347 3644 2056 3522 
Q 1769 3400 1531 3163 
Q 1291 2922 1172 2634 
Q 1053 2347 1053 2006 
Q 1053 1675 1172 1387 
Q 1291 1100 1531 859 
Q 1769 622 2056 500 
Q 2347 378 2681 378 
Q 3016 378 3306 500 
Q 3594 622 3831 859 
Q 4072 1100 4190 1387 
Q 4309 1675 4309 2006 
Q 4309 2347 4190 2634 
Q 4072 2922 3831 3163 
Q 3594 3400 3306 3522 
z
M 1878 3956 
Q 2250 4113 2681 4113 
Q 3113 4113 3484 3956 
Q 3856 3800 4163 3494 
Q 4472 3184 4625 2813 
Q 4778 2444 4778 2006 
Q 4778 1578 4625 1206 
Q 4472 838 4163 528 
Q 3856 222 3484 65 
Q 3113 -91 2681 -91 
Q 2250 -91 1878 65 
Q 1506 222 1200 528 
Q 891 838 738 1206 
Q 584 1578 584 2006 
Q 584 2444 738 2813 
Q 891 3184 1200 3494 
Q 1506 3800 1878 3956 
z
" transform="scale(0.015625)"/>
       <path id="DejaVuSans-5d" d="M 1947 4863 
L 1947 -844 
L 622 -844 
L 622 -397 
L 1369 -397 
L 1369 4416 
L 622 4416 
L 622 4863 
L 1947 4863 
z
" transform="scale(0.015625)"/>
      </defs>
      <use xlink:href="#DejaVuSans-44" transform="translate(0 0.015625)"/>
      <use xlink:href="#DejaVuSans-69" transform="translate(77.001953 0.015625)"/>
      <use xlink:href="#DejaVuSans-73" transform="translate(104.785156 0.015625)"/>
      <use xlink:href="#DejaVuSans-74" transform="translate(156.884766 0.015625)"/>
      <use xlink:href="#DejaVuSans-61" transform="translate(196.09375 0.015625)"/>
      <use xlink:href="#DejaVuSans-6e" transform="translate(257.373047 0.015625)"/>
      <use xlink:href="#DejaVuSans-63" transform="translate(320.751953 0.015625)"/>
      <use xlink:href="#DejaVuSans-65" transform="translate(375.732422 0.015625)"/>
      <use xlink:href="#DejaVuSans-20" transform="translate(437.255859 0.015625)"/>
      <use xlink:href="#DejaVuSans-5b" transform="translate(469.042969 0.015625)"/>
      <use xlink:href="#DejaVuSans-52" transform="translate(504.931641 0.015625)"/>
      <use xlink:href="#DejaVuSans-2299" transform="translate(589.008789 -16.390625) scale(0.7)"/>
      <use xlink:href="#DejaVuSans-5d" transform="translate(664.033203 0.015625)"/>
     </g>
    </g>
   </g>
   <g id="matplotlib.axis_2">
    <g id="ytick_1">
     <g id="line2d_91">
      <defs>
       <path id="m1c2573f6e2" d="M 0 0 
L 3.5 0 
" style="stroke: #000000; stroke-width: 1.5"/>
      </defs>
      <g>
       <use xlink:href="#m1c2573f6e2" x="67.327768" y="202.252458" style="stroke: #000000; stroke-width: 1.5"/>
      </g>
     </g>
     <g id="line2d_92">
      <defs>
       <path id="mdedc1f0473" d="M 0 0 
L -3.5 0 
" style="stroke: #000000; stroke-width: 1.5"/>
      </defs>
      <g>
       <use xlink:href="#mdedc1f0473" x="421.2" y="202.252458" style="stroke: #000000; stroke-width: 1.5"/>
      </g>
     </g>
     <g id="text_14">
      <!-- $\mathdefault{10^{-12}}$ -->
      <g transform="translate(30.347768 206.811521) scale(0.12 -0.12)">
       <defs>
        <path id="DejaVuSans-2212" d="M 678 2272 
L 4684 2272 
L 4684 1741 
L 678 1741 
L 678 2272 
z
" transform="scale(0.015625)"/>
       </defs>
       <use xlink:href="#DejaVuSans-31" transform="translate(0 0.765625)"/>
       <use xlink:href="#DejaVuSans-30" transform="translate(63.623047 0.765625)"/>
       <use xlink:href="#DejaVuSans-2212" transform="translate(128.203125 39.046875) scale(0.7)"/>
       <use xlink:href="#DejaVuSans-31" transform="translate(186.855469 39.046875) scale(0.7)"/>
       <use xlink:href="#DejaVuSans-32" transform="translate(231.391602 39.046875) scale(0.7)"/>
      </g>
     </g>
    </g>
    <g id="ytick_2">
     <g id="line2d_93">
      <g>
       <use xlink:href="#m1c2573f6e2" x="67.327768" y="153.74511" style="stroke: #000000; stroke-width: 1.5"/>
      </g>
     </g>
     <g id="line2d_94">
      <g>
       <use xlink:href="#mdedc1f0473" x="421.2" y="153.74511" style="stroke: #000000; stroke-width: 1.5"/>
      </g>
     </g>
     <g id="text_15">
      <!-- $\mathdefault{10^{-10}}$ -->
      <g transform="translate(30.347768 158.304173) scale(0.12 -0.12)">
       <use xlink:href="#DejaVuSans-31" transform="translate(0 0.765625)"/>
       <use xlink:href="#DejaVuSans-30" transform="translate(63.623047 0.765625)"/>
       <use xlink:href="#DejaVuSans-2212" transform="translate(128.203125 39.046875) scale(0.7)"/>
       <use xlink:href="#DejaVuSans-31" transform="translate(186.855469 39.046875) scale(0.7)"/>
       <use xlink:href="#DejaVuSans-30" transform="translate(231.391602 39.046875) scale(0.7)"/>
      </g>
     </g>
    </g>
    <g id="ytick_3">
     <g id="line2d_95">
      <g>
       <use xlink:href="#m1c2573f6e2" x="67.327768" y="105.237762" style="stroke: #000000; stroke-width: 1.5"/>
      </g>
     </g>
     <g id="line2d_96">
      <g>
       <use xlink:href="#mdedc1f0473" x="421.2" y="105.237762" style="stroke: #000000; stroke-width: 1.5"/>
      </g>
     </g>
     <g id="text_16">
      <!-- $\mathdefault{10^{-8}}$ -->
      <g transform="translate(35.627768 109.796824) scale(0.12 -0.12)">
       <defs>
        <path id="DejaVuSans-38" d="M 2034 2216 
Q 1584 2216 1326 1975 
Q 1069 1734 1069 1313 
Q 1069 891 1326 650 
Q 1584 409 2034 409 
Q 2484 409 2743 651 
Q 3003 894 3003 1313 
Q 3003 1734 2745 1975 
Q 2488 2216 2034 2216 
z
M 1403 2484 
Q 997 2584 770 2862 
Q 544 3141 544 3541 
Q 544 4100 942 4425 
Q 1341 4750 2034 4750 
Q 2731 4750 3128 4425 
Q 3525 4100 3525 3541 
Q 3525 3141 3298 2862 
Q 3072 2584 2669 2484 
Q 3125 2378 3379 2068 
Q 3634 1759 3634 1313 
Q 3634 634 3220 271 
Q 2806 -91 2034 -91 
Q 1263 -91 848 271 
Q 434 634 434 1313 
Q 434 1759 690 2068 
Q 947 2378 1403 2484 
z
M 1172 3481 
Q 1172 3119 1398 2916 
Q 1625 2713 2034 2713 
Q 2441 2713 2670 2916 
Q 2900 3119 2900 3481 
Q 2900 3844 2670 4047 
Q 2441 4250 2034 4250 
Q 1625 4250 1398 4047 
Q 1172 3844 1172 3481 
z
" transform="scale(0.015625)"/>
       </defs>
       <use xlink:href="#DejaVuSans-31" transform="translate(0 0.765625)"/>
       <use xlink:href="#DejaVuSans-30" transform="translate(63.623047 0.765625)"/>
       <use xlink:href="#DejaVuSans-2212" transform="translate(128.203125 39.046875) scale(0.7)"/>
       <use xlink:href="#DejaVuSans-38" transform="translate(186.855469 39.046875) scale(0.7)"/>
      </g>
     </g>
    </g>
    <g id="ytick_4">
     <g id="line2d_97">
      <g>
       <use xlink:href="#m1c2573f6e2" x="67.327768" y="56.730413" style="stroke: #000000; stroke-width: 1.5"/>
      </g>
     </g>
     <g id="line2d_98">
      <g>
       <use xlink:href="#mdedc1f0473" x="421.2" y="56.730413" style="stroke: #000000; stroke-width: 1.5"/>
      </g>
     </g>
     <g id="text_17">
      <!-- $\mathdefault{10^{-6}}$ -->
      <g transform="translate(35.627768 61.289476) scale(0.12 -0.12)">
       <defs>
        <path id="DejaVuSans-36" d="M 2113 2584 
Q 1688 2584 1439 2293 
Q 1191 2003 1191 1497 
Q 1191 994 1439 701 
Q 1688 409 2113 409 
Q 2538 409 2786 701 
Q 3034 994 3034 1497 
Q 3034 2003 2786 2293 
Q 2538 2584 2113 2584 
z
M 3366 4563 
L 3366 3988 
Q 3128 4100 2886 4159 
Q 2644 4219 2406 4219 
Q 1781 4219 1451 3797 
Q 1122 3375 1075 2522 
Q 1259 2794 1537 2939 
Q 1816 3084 2150 3084 
Q 2853 3084 3261 2657 
Q 3669 2231 3669 1497 
Q 3669 778 3244 343 
Q 2819 -91 2113 -91 
Q 1303 -91 875 529 
Q 447 1150 447 2328 
Q 447 3434 972 4092 
Q 1497 4750 2381 4750 
Q 2619 4750 2861 4703 
Q 3103 4656 3366 4563 
z
" transform="scale(0.015625)"/>
       </defs>
       <use xlink:href="#DejaVuSans-31" transform="translate(0 0.765625)"/>
       <use xlink:href="#DejaVuSans-30" transform="translate(63.623047 0.765625)"/>
       <use xlink:href="#DejaVuSans-2212" transform="translate(128.203125 39.046875) scale(0.7)"/>
       <use xlink:href="#DejaVuSans-36" transform="translate(186.855469 39.046875) scale(0.7)"/>
      </g>
     </g>
    </g>
    <g id="text_18">
     <!-- P$_{ram}$ [Pa] -->
     <g transform="translate(23.852143 152.622) rotate(-90) scale(0.12 -0.12)">
      <defs>
       <path id="DejaVuSans-Oblique-72" d="M 2853 2969 
Q 2766 3016 2653 3041 
Q 2541 3066 2413 3066 
Q 1953 3066 1609 2717 
Q 1266 2369 1153 1784 
L 800 0 
L 225 0 
L 909 3500 
L 1484 3500 
L 1375 2956 
Q 1603 3259 1920 3421 
Q 2238 3584 2597 3584 
Q 2691 3584 2781 3573 
Q 2872 3563 2963 3538 
L 2853 2969 
z
" transform="scale(0.015625)"/>
       <path id="DejaVuSans-Oblique-61" d="M 3438 1997 
L 3047 0 
L 2472 0 
L 2578 531 
Q 2325 219 2001 64 
Q 1678 -91 1281 -91 
Q 834 -91 548 182 
Q 263 456 263 884 
Q 263 1497 752 1853 
Q 1241 2209 2100 2209 
L 2900 2209 
L 2931 2363 
Q 2938 2388 2941 2417 
Q 2944 2447 2944 2509 
Q 2944 2788 2717 2942 
Q 2491 3097 2081 3097 
Q 1800 3097 1504 3025 
Q 1209 2953 897 2809 
L 997 3341 
Q 1322 3463 1633 3523 
Q 1944 3584 2234 3584 
Q 2853 3584 3176 3315 
Q 3500 3047 3500 2534 
Q 3500 2431 3484 2292 
Q 3469 2153 3438 1997 
z
M 2816 1759 
L 2241 1759 
Q 1534 1759 1195 1570 
Q 856 1381 856 984 
Q 856 709 1029 553 
Q 1203 397 1509 397 
Q 1978 397 2328 733 
Q 2678 1069 2791 1631 
L 2816 1759 
z
" transform="scale(0.015625)"/>
       <path id="DejaVuSans-Oblique-6d" d="M 5747 2113 
L 5338 0 
L 4763 0 
L 5166 2094 
Q 5191 2228 5203 2325 
Q 5216 2422 5216 2491 
Q 5216 2772 5059 2928 
Q 4903 3084 4622 3084 
Q 4203 3084 3875 2770 
Q 3547 2456 3450 1953 
L 3066 0 
L 2491 0 
L 2900 2094 
Q 2925 2209 2937 2307 
Q 2950 2406 2950 2484 
Q 2950 2769 2794 2926 
Q 2638 3084 2363 3084 
Q 1938 3084 1609 2770 
Q 1281 2456 1184 1953 
L 800 0 
L 225 0 
L 909 3500 
L 1484 3500 
L 1375 2956 
Q 1609 3263 1923 3423 
Q 2238 3584 2597 3584 
Q 2978 3584 3223 3384 
Q 3469 3184 3519 2828 
Q 3781 3197 4126 3390 
Q 4472 3584 4856 3584 
Q 5306 3584 5551 3325 
Q 5797 3066 5797 2591 
Q 5797 2488 5784 2364 
Q 5772 2241 5747 2113 
z
" transform="scale(0.015625)"/>
      </defs>
      <use xlink:href="#DejaVuSans-50" transform="translate(0 0.015625)"/>
      <use xlink:href="#DejaVuSans-Oblique-72" transform="translate(61.259766 -16.390625) scale(0.7)"/>
      <use xlink:href="#DejaVuSans-Oblique-61" transform="translate(90.039062 -16.390625) scale(0.7)"/>
      <use xlink:href="#DejaVuSans-Oblique-6d" transform="translate(132.93457 -16.390625) scale(0.7)"/>
      <use xlink:href="#DejaVuSans-20" transform="translate(203.857422 0.015625)"/>
      <use xlink:href="#DejaVuSans-5b" transform="translate(235.644531 0.015625)"/>
      <use xlink:href="#DejaVuSans-50" transform="translate(274.658203 0.015625)"/>
      <use xlink:href="#DejaVuSans-61" transform="translate(334.960938 0.015625)"/>
      <use xlink:href="#DejaVuSans-5d" transform="translate(396.240234 0.015625)"/>
     </g>
    </g>
   </g>
  </g>
 </g>
 <defs>
  <clipPath id="p80b2891f8a">
   <rect x="67.327768" y="10.8" width="353.872232" height="231.324"/>
  </clipPath>
 </defs>
</svg>
