<?xml version="1.0" encoding="utf-8" standalone="no"?>
<!DOCTYPE svg PUBLIC "-//W3C//DTD SVG 1.1//EN"
  "http://www.w3.org/Graphics/SVG/1.1/DTD/svg11.dtd">
<svg xmlns:xlink="http://www.w3.org/1999/xlink" width="432pt" height="288pt" viewBox="0 0 432 288" xmlns="http://www.w3.org/2000/svg" version="1.1">
 <metadata>
  <rdf:RDF xmlns:dc="http://purl.org/dc/elements/1.1/" xmlns:cc="http://creativecommons.org/ns#" xmlns:rdf="http://www.w3.org/1999/02/22-rdf-syntax-ns#">
   <cc:Work>
    <dc:type rdf:resource="http://purl.org/dc/dcmitype/StillImage"/>
    <dc:date>2022-08-16T15:50:05.022174</dc:date>
    <dc:format>image/svg+xml</dc:format>
    <dc:creator>
     <cc:Agent>
      <dc:title>Matplotlib v3.5.1, https://matplotlib.org/</dc:title>
     </cc:Agent>
    </dc:creator>
   </cc:Work>
  </rdf:RDF>
 </metadata>
 <defs>
  <style type="text/css">*{stroke-linejoin: round; stroke-linecap: butt}</style>
 </defs>
 <g id="figure_1">
  <g id="patch_1">
   <path d="M 0 288 
L 432 288 
L 432 0 
L 0 0 
z
" style="fill: #ffffff"/>
  </g>
  <g id="axes_1">
   <g id="patch_2">
    <path d="M 67.327768 242.124 
L 421.2 242.124 
L 421.2 10.8 
L 67.327768 10.8 
z
" style="fill: #ffffff"/>
   </g>
   <g id="matplotlib.axis_1">
    <g id="xtick_1">
     <g id="line2d_1">
      <defs>
       <path id="mf0fe79316b" d="M 0 0 
L 0 -3.5 
" style="stroke: #000000; stroke-width: 1.5"/>
      </defs>
      <g>
       <use xlink:href="#mf0fe79316b" x="72.868081" y="242.124" style="stroke: #000000; stroke-width: 1.5"/>
      </g>
     </g>
     <g id="line2d_2">
      <defs>
       <path id="m3f23619c97" d="M 0 0 
L 0 3.5 
" style="stroke: #000000; stroke-width: 1.5"/>
      </defs>
      <g>
       <use xlink:href="#m3f23619c97" x="72.868081" y="10.8" style="stroke: #000000; stroke-width: 1.5"/>
      </g>
     </g>
     <g id="text_1">
      <!-- 0 -->
      <g transform="translate(69.050581 254.742125)scale(0.12 -0.12)">
       <defs>
        <path id="DejaVuSans-30" d="M 2034 4250 
Q 1547 4250 1301 3770 
Q 1056 3291 1056 2328 
Q 1056 1369 1301 889 
Q 1547 409 2034 409 
Q 2525 409 2770 889 
Q 3016 1369 3016 2328 
Q 3016 3291 2770 3770 
Q 2525 4250 2034 4250 
z
M 2034 4750 
Q 2819 4750 3233 4129 
Q 3647 3509 3647 2328 
Q 3647 1150 3233 529 
Q 2819 -91 2034 -91 
Q 1250 -91 836 529 
Q 422 1150 422 2328 
Q 422 3509 836 4129 
Q 1250 4750 2034 4750 
z
" transform="scale(0.015625)"/>
       </defs>
       <use xlink:href="#DejaVuSans-30"/>
      </g>
     </g>
    </g>
    <g id="xtick_2">
     <g id="line2d_3">
      <g>
       <use xlink:href="#mf0fe79316b" x="114.433287" y="242.124" style="stroke: #000000; stroke-width: 1.5"/>
      </g>
     </g>
     <g id="line2d_4">
      <g>
       <use xlink:href="#m3f23619c97" x="114.433287" y="10.8" style="stroke: #000000; stroke-width: 1.5"/>
      </g>
     </g>
     <g id="text_2">
      <!-- 5 -->
      <g transform="translate(110.615787 254.742125)scale(0.12 -0.12)">
       <defs>
        <path id="DejaVuSans-35" d="M 691 4666 
L 3169 4666 
L 3169 4134 
L 1269 4134 
L 1269 2991 
Q 1406 3038 1543 3061 
Q 1681 3084 1819 3084 
Q 2600 3084 3056 2656 
Q 3513 2228 3513 1497 
Q 3513 744 3044 326 
Q 2575 -91 1722 -91 
Q 1428 -91 1123 -41 
Q 819 9 494 109 
L 494 744 
Q 775 591 1075 516 
Q 1375 441 1709 441 
Q 2250 441 2565 725 
Q 2881 1009 2881 1497 
Q 2881 1984 2565 2268 
Q 2250 2553 1709 2553 
Q 1456 2553 1204 2497 
Q 953 2441 691 2322 
L 691 4666 
z
" transform="scale(0.015625)"/>
       </defs>
       <use xlink:href="#DejaVuSans-35"/>
      </g>
     </g>
    </g>
    <g id="xtick_3">
     <g id="line2d_5">
      <g>
       <use xlink:href="#mf0fe79316b" x="155.998493" y="242.124" style="stroke: #000000; stroke-width: 1.5"/>
      </g>
     </g>
     <g id="line2d_6">
      <g>
       <use xlink:href="#m3f23619c97" x="155.998493" y="10.8" style="stroke: #000000; stroke-width: 1.5"/>
      </g>
     </g>
     <g id="text_3">
      <!-- 10 -->
      <g transform="translate(148.363493 254.742125)scale(0.12 -0.12)">
       <defs>
        <path id="DejaVuSans-31" d="M 794 531 
L 1825 531 
L 1825 4091 
L 703 3866 
L 703 4441 
L 1819 4666 
L 2450 4666 
L 2450 531 
L 3481 531 
L 3481 0 
L 794 0 
L 794 531 
z
" transform="scale(0.015625)"/>
       </defs>
       <use xlink:href="#DejaVuSans-31"/>
       <use xlink:href="#DejaVuSans-30" x="63.623047"/>
      </g>
     </g>
    </g>
    <g id="xtick_4">
     <g id="line2d_7">
      <g>
       <use xlink:href="#mf0fe79316b" x="197.563699" y="242.124" style="stroke: #000000; stroke-width: 1.5"/>
      </g>
     </g>
     <g id="line2d_8">
      <g>
       <use xlink:href="#m3f23619c97" x="197.563699" y="10.8" style="stroke: #000000; stroke-width: 1.5"/>
      </g>
     </g>
     <g id="text_4">
      <!-- 15 -->
      <g transform="translate(189.928699 254.742125)scale(0.12 -0.12)">
       <use xlink:href="#DejaVuSans-31"/>
       <use xlink:href="#DejaVuSans-35" x="63.623047"/>
      </g>
     </g>
    </g>
    <g id="xtick_5">
     <g id="line2d_9">
      <g>
       <use xlink:href="#mf0fe79316b" x="239.128905" y="242.124" style="stroke: #000000; stroke-width: 1.5"/>
      </g>
     </g>
     <g id="line2d_10">
      <g>
       <use xlink:href="#m3f23619c97" x="239.128905" y="10.8" style="stroke: #000000; stroke-width: 1.5"/>
      </g>
     </g>
     <g id="text_5">
      <!-- 20 -->
      <g transform="translate(231.493905 254.742125)scale(0.12 -0.12)">
       <defs>
        <path id="DejaVuSans-32" d="M 1228 531 
L 3431 531 
L 3431 0 
L 469 0 
L 469 531 
Q 828 903 1448 1529 
Q 2069 2156 2228 2338 
Q 2531 2678 2651 2914 
Q 2772 3150 2772 3378 
Q 2772 3750 2511 3984 
Q 2250 4219 1831 4219 
Q 1534 4219 1204 4116 
Q 875 4013 500 3803 
L 500 4441 
Q 881 4594 1212 4672 
Q 1544 4750 1819 4750 
Q 2544 4750 2975 4387 
Q 3406 4025 3406 3419 
Q 3406 3131 3298 2873 
Q 3191 2616 2906 2266 
Q 2828 2175 2409 1742 
Q 1991 1309 1228 531 
z
" transform="scale(0.015625)"/>
       </defs>
       <use xlink:href="#DejaVuSans-32"/>
       <use xlink:href="#DejaVuSans-30" x="63.623047"/>
      </g>
     </g>
    </g>
    <g id="xtick_6">
     <g id="line2d_11">
      <g>
       <use xlink:href="#mf0fe79316b" x="280.694111" y="242.124" style="stroke: #000000; stroke-width: 1.5"/>
      </g>
     </g>
     <g id="line2d_12">
      <g>
       <use xlink:href="#m3f23619c97" x="280.694111" y="10.8" style="stroke: #000000; stroke-width: 1.5"/>
      </g>
     </g>
     <g id="text_6">
      <!-- 25 -->
      <g transform="translate(273.059111 254.742125)scale(0.12 -0.12)">
       <use xlink:href="#DejaVuSans-32"/>
       <use xlink:href="#DejaVuSans-35" x="63.623047"/>
      </g>
     </g>
    </g>
    <g id="xtick_7">
     <g id="line2d_13">
      <g>
       <use xlink:href="#mf0fe79316b" x="322.259317" y="242.124" style="stroke: #000000; stroke-width: 1.5"/>
      </g>
     </g>
     <g id="line2d_14">
      <g>
       <use xlink:href="#m3f23619c97" x="322.259317" y="10.8" style="stroke: #000000; stroke-width: 1.5"/>
      </g>
     </g>
     <g id="text_7">
      <!-- 30 -->
      <g transform="translate(314.624317 254.742125)scale(0.12 -0.12)">
       <defs>
        <path id="DejaVuSans-33" d="M 2597 2516 
Q 3050 2419 3304 2112 
Q 3559 1806 3559 1356 
Q 3559 666 3084 287 
Q 2609 -91 1734 -91 
Q 1441 -91 1130 -33 
Q 819 25 488 141 
L 488 750 
Q 750 597 1062 519 
Q 1375 441 1716 441 
Q 2309 441 2620 675 
Q 2931 909 2931 1356 
Q 2931 1769 2642 2001 
Q 2353 2234 1838 2234 
L 1294 2234 
L 1294 2753 
L 1863 2753 
Q 2328 2753 2575 2939 
Q 2822 3125 2822 3475 
Q 2822 3834 2567 4026 
Q 2313 4219 1838 4219 
Q 1578 4219 1281 4162 
Q 984 4106 628 3988 
L 628 4550 
Q 988 4650 1302 4700 
Q 1616 4750 1894 4750 
Q 2613 4750 3031 4423 
Q 3450 4097 3450 3541 
Q 3450 3153 3228 2886 
Q 3006 2619 2597 2516 
z
" transform="scale(0.015625)"/>
       </defs>
       <use xlink:href="#DejaVuSans-33"/>
       <use xlink:href="#DejaVuSans-30" x="63.623047"/>
      </g>
     </g>
    </g>
    <g id="xtick_8">
     <g id="line2d_15">
      <g>
       <use xlink:href="#mf0fe79316b" x="363.824523" y="242.124" style="stroke: #000000; stroke-width: 1.5"/>
      </g>
     </g>
     <g id="line2d_16">
      <g>
       <use xlink:href="#m3f23619c97" x="363.824523" y="10.8" style="stroke: #000000; stroke-width: 1.5"/>
      </g>
     </g>
     <g id="text_8">
      <!-- 35 -->
      <g transform="translate(356.189523 254.742125)scale(0.12 -0.12)">
       <use xlink:href="#DejaVuSans-33"/>
       <use xlink:href="#DejaVuSans-35" x="63.623047"/>
      </g>
     </g>
    </g>
    <g id="xtick_9">
     <g id="line2d_17">
      <g>
       <use xlink:href="#mf0fe79316b" x="405.38973" y="242.124" style="stroke: #000000; stroke-width: 1.5"/>
      </g>
     </g>
     <g id="line2d_18">
      <g>
       <use xlink:href="#m3f23619c97" x="405.38973" y="10.8" style="stroke: #000000; stroke-width: 1.5"/>
      </g>
     </g>
     <g id="text_9">
      <!-- 40 -->
      <g transform="translate(397.75473 254.742125)scale(0.12 -0.12)">
       <defs>
        <path id="DejaVuSans-34" d="M 2419 4116 
L 825 1625 
L 2419 1625 
L 2419 4116 
z
M 2253 4666 
L 3047 4666 
L 3047 1625 
L 3713 1625 
L 3713 1100 
L 3047 1100 
L 3047 0 
L 2419 0 
L 2419 1100 
L 313 1100 
L 313 1709 
L 2253 4666 
z
" transform="scale(0.015625)"/>
       </defs>
       <use xlink:href="#DejaVuSans-34"/>
       <use xlink:href="#DejaVuSans-30" x="63.623047"/>
      </g>
     </g>
    </g>
    <g id="xtick_10">
     <g id="line2d_19">
      <defs>
       <path id="m0a6cad9177" d="M 0 0 
L 0 -2 
" style="stroke: #000000; stroke-width: 1.5"/>
      </defs>
      <g>
       <use xlink:href="#m0a6cad9177" x="81.181122" y="242.124" style="stroke: #000000; stroke-width: 1.5"/>
      </g>
     </g>
     <g id="line2d_20">
      <defs>
       <path id="mf6bf3f88a7" d="M 0 0 
L 0 2 
" style="stroke: #000000; stroke-width: 1.5"/>
      </defs>
      <g>
       <use xlink:href="#mf6bf3f88a7" x="81.181122" y="10.8" style="stroke: #000000; stroke-width: 1.5"/>
      </g>
     </g>
    </g>
    <g id="xtick_11">
     <g id="line2d_21">
      <g>
       <use xlink:href="#m0a6cad9177" x="89.494163" y="242.124" style="stroke: #000000; stroke-width: 1.5"/>
      </g>
     </g>
     <g id="line2d_22">
      <g>
       <use xlink:href="#mf6bf3f88a7" x="89.494163" y="10.8" style="stroke: #000000; stroke-width: 1.5"/>
      </g>
     </g>
    </g>
    <g id="xtick_12">
     <g id="line2d_23">
      <g>
       <use xlink:href="#m0a6cad9177" x="97.807204" y="242.124" style="stroke: #000000; stroke-width: 1.5"/>
      </g>
     </g>
     <g id="line2d_24">
      <g>
       <use xlink:href="#mf6bf3f88a7" x="97.807204" y="10.8" style="stroke: #000000; stroke-width: 1.5"/>
      </g>
     </g>
    </g>
    <g id="xtick_13">
     <g id="line2d_25">
      <g>
       <use xlink:href="#m0a6cad9177" x="106.120246" y="242.124" style="stroke: #000000; stroke-width: 1.5"/>
      </g>
     </g>
     <g id="line2d_26">
      <g>
       <use xlink:href="#mf6bf3f88a7" x="106.120246" y="10.8" style="stroke: #000000; stroke-width: 1.5"/>
      </g>
     </g>
    </g>
    <g id="xtick_14">
     <g id="line2d_27">
      <g>
       <use xlink:href="#m0a6cad9177" x="122.746328" y="242.124" style="stroke: #000000; stroke-width: 1.5"/>
      </g>
     </g>
     <g id="line2d_28">
      <g>
       <use xlink:href="#mf6bf3f88a7" x="122.746328" y="10.8" style="stroke: #000000; stroke-width: 1.5"/>
      </g>
     </g>
    </g>
    <g id="xtick_15">
     <g id="line2d_29">
      <g>
       <use xlink:href="#m0a6cad9177" x="131.059369" y="242.124" style="stroke: #000000; stroke-width: 1.5"/>
      </g>
     </g>
     <g id="line2d_30">
      <g>
       <use xlink:href="#mf6bf3f88a7" x="131.059369" y="10.8" style="stroke: #000000; stroke-width: 1.5"/>
      </g>
     </g>
    </g>
    <g id="xtick_16">
     <g id="line2d_31">
      <g>
       <use xlink:href="#m0a6cad9177" x="139.372411" y="242.124" style="stroke: #000000; stroke-width: 1.5"/>
      </g>
     </g>
     <g id="line2d_32">
      <g>
       <use xlink:href="#mf6bf3f88a7" x="139.372411" y="10.8" style="stroke: #000000; stroke-width: 1.5"/>
      </g>
     </g>
    </g>
    <g id="xtick_17">
     <g id="line2d_33">
      <g>
       <use xlink:href="#m0a6cad9177" x="147.685452" y="242.124" style="stroke: #000000; stroke-width: 1.5"/>
      </g>
     </g>
     <g id="line2d_34">
      <g>
       <use xlink:href="#mf6bf3f88a7" x="147.685452" y="10.8" style="stroke: #000000; stroke-width: 1.5"/>
      </g>
     </g>
    </g>
    <g id="xtick_18">
     <g id="line2d_35">
      <g>
       <use xlink:href="#m0a6cad9177" x="164.311534" y="242.124" style="stroke: #000000; stroke-width: 1.5"/>
      </g>
     </g>
     <g id="line2d_36">
      <g>
       <use xlink:href="#mf6bf3f88a7" x="164.311534" y="10.8" style="stroke: #000000; stroke-width: 1.5"/>
      </g>
     </g>
    </g>
    <g id="xtick_19">
     <g id="line2d_37">
      <g>
       <use xlink:href="#m0a6cad9177" x="172.624575" y="242.124" style="stroke: #000000; stroke-width: 1.5"/>
      </g>
     </g>
     <g id="line2d_38">
      <g>
       <use xlink:href="#mf6bf3f88a7" x="172.624575" y="10.8" style="stroke: #000000; stroke-width: 1.5"/>
      </g>
     </g>
    </g>
    <g id="xtick_20">
     <g id="line2d_39">
      <g>
       <use xlink:href="#m0a6cad9177" x="180.937617" y="242.124" style="stroke: #000000; stroke-width: 1.5"/>
      </g>
     </g>
     <g id="line2d_40">
      <g>
       <use xlink:href="#mf6bf3f88a7" x="180.937617" y="10.8" style="stroke: #000000; stroke-width: 1.5"/>
      </g>
     </g>
    </g>
    <g id="xtick_21">
     <g id="line2d_41">
      <g>
       <use xlink:href="#m0a6cad9177" x="189.250658" y="242.124" style="stroke: #000000; stroke-width: 1.5"/>
      </g>
     </g>
     <g id="line2d_42">
      <g>
       <use xlink:href="#mf6bf3f88a7" x="189.250658" y="10.8" style="stroke: #000000; stroke-width: 1.5"/>
      </g>
     </g>
    </g>
    <g id="xtick_22">
     <g id="line2d_43">
      <g>
       <use xlink:href="#m0a6cad9177" x="205.87674" y="242.124" style="stroke: #000000; stroke-width: 1.5"/>
      </g>
     </g>
     <g id="line2d_44">
      <g>
       <use xlink:href="#mf6bf3f88a7" x="205.87674" y="10.8" style="stroke: #000000; stroke-width: 1.5"/>
      </g>
     </g>
    </g>
    <g id="xtick_23">
     <g id="line2d_45">
      <g>
       <use xlink:href="#m0a6cad9177" x="214.189782" y="242.124" style="stroke: #000000; stroke-width: 1.5"/>
      </g>
     </g>
     <g id="line2d_46">
      <g>
       <use xlink:href="#mf6bf3f88a7" x="214.189782" y="10.8" style="stroke: #000000; stroke-width: 1.5"/>
      </g>
     </g>
    </g>
    <g id="xtick_24">
     <g id="line2d_47">
      <g>
       <use xlink:href="#m0a6cad9177" x="222.502823" y="242.124" style="stroke: #000000; stroke-width: 1.5"/>
      </g>
     </g>
     <g id="line2d_48">
      <g>
       <use xlink:href="#mf6bf3f88a7" x="222.502823" y="10.8" style="stroke: #000000; stroke-width: 1.5"/>
      </g>
     </g>
    </g>
    <g id="xtick_25">
     <g id="line2d_49">
      <g>
       <use xlink:href="#m0a6cad9177" x="230.815864" y="242.124" style="stroke: #000000; stroke-width: 1.5"/>
      </g>
     </g>
     <g id="line2d_50">
      <g>
       <use xlink:href="#mf6bf3f88a7" x="230.815864" y="10.8" style="stroke: #000000; stroke-width: 1.5"/>
      </g>
     </g>
    </g>
    <g id="xtick_26">
     <g id="line2d_51">
      <g>
       <use xlink:href="#m0a6cad9177" x="247.441946" y="242.124" style="stroke: #000000; stroke-width: 1.5"/>
      </g>
     </g>
     <g id="line2d_52">
      <g>
       <use xlink:href="#mf6bf3f88a7" x="247.441946" y="10.8" style="stroke: #000000; stroke-width: 1.5"/>
      </g>
     </g>
    </g>
    <g id="xtick_27">
     <g id="line2d_53">
      <g>
       <use xlink:href="#m0a6cad9177" x="255.754988" y="242.124" style="stroke: #000000; stroke-width: 1.5"/>
      </g>
     </g>
     <g id="line2d_54">
      <g>
       <use xlink:href="#mf6bf3f88a7" x="255.754988" y="10.8" style="stroke: #000000; stroke-width: 1.5"/>
      </g>
     </g>
    </g>
    <g id="xtick_28">
     <g id="line2d_55">
      <g>
       <use xlink:href="#m0a6cad9177" x="264.068029" y="242.124" style="stroke: #000000; stroke-width: 1.5"/>
      </g>
     </g>
     <g id="line2d_56">
      <g>
       <use xlink:href="#mf6bf3f88a7" x="264.068029" y="10.8" style="stroke: #000000; stroke-width: 1.5"/>
      </g>
     </g>
    </g>
    <g id="xtick_29">
     <g id="line2d_57">
      <g>
       <use xlink:href="#m0a6cad9177" x="272.38107" y="242.124" style="stroke: #000000; stroke-width: 1.5"/>
      </g>
     </g>
     <g id="line2d_58">
      <g>
       <use xlink:href="#mf6bf3f88a7" x="272.38107" y="10.8" style="stroke: #000000; stroke-width: 1.5"/>
      </g>
     </g>
    </g>
    <g id="xtick_30">
     <g id="line2d_59">
      <g>
       <use xlink:href="#m0a6cad9177" x="289.007153" y="242.124" style="stroke: #000000; stroke-width: 1.5"/>
      </g>
     </g>
     <g id="line2d_60">
      <g>
       <use xlink:href="#mf6bf3f88a7" x="289.007153" y="10.8" style="stroke: #000000; stroke-width: 1.5"/>
      </g>
     </g>
    </g>
    <g id="xtick_31">
     <g id="line2d_61">
      <g>
       <use xlink:href="#m0a6cad9177" x="297.320194" y="242.124" style="stroke: #000000; stroke-width: 1.5"/>
      </g>
     </g>
     <g id="line2d_62">
      <g>
       <use xlink:href="#mf6bf3f88a7" x="297.320194" y="10.8" style="stroke: #000000; stroke-width: 1.5"/>
      </g>
     </g>
    </g>
    <g id="xtick_32">
     <g id="line2d_63">
      <g>
       <use xlink:href="#m0a6cad9177" x="305.633235" y="242.124" style="stroke: #000000; stroke-width: 1.5"/>
      </g>
     </g>
     <g id="line2d_64">
      <g>
       <use xlink:href="#mf6bf3f88a7" x="305.633235" y="10.8" style="stroke: #000000; stroke-width: 1.5"/>
      </g>
     </g>
    </g>
    <g id="xtick_33">
     <g id="line2d_65">
      <g>
       <use xlink:href="#m0a6cad9177" x="313.946276" y="242.124" style="stroke: #000000; stroke-width: 1.5"/>
      </g>
     </g>
     <g id="line2d_66">
      <g>
       <use xlink:href="#mf6bf3f88a7" x="313.946276" y="10.8" style="stroke: #000000; stroke-width: 1.5"/>
      </g>
     </g>
    </g>
    <g id="xtick_34">
     <g id="line2d_67">
      <g>
       <use xlink:href="#m0a6cad9177" x="330.572359" y="242.124" style="stroke: #000000; stroke-width: 1.5"/>
      </g>
     </g>
     <g id="line2d_68">
      <g>
       <use xlink:href="#mf6bf3f88a7" x="330.572359" y="10.8" style="stroke: #000000; stroke-width: 1.5"/>
      </g>
     </g>
    </g>
    <g id="xtick_35">
     <g id="line2d_69">
      <g>
       <use xlink:href="#m0a6cad9177" x="338.8854" y="242.124" style="stroke: #000000; stroke-width: 1.5"/>
      </g>
     </g>
     <g id="line2d_70">
      <g>
       <use xlink:href="#mf6bf3f88a7" x="338.8854" y="10.8" style="stroke: #000000; stroke-width: 1.5"/>
      </g>
     </g>
    </g>
    <g id="xtick_36">
     <g id="line2d_71">
      <g>
       <use xlink:href="#m0a6cad9177" x="347.198441" y="242.124" style="stroke: #000000; stroke-width: 1.5"/>
      </g>
     </g>
     <g id="line2d_72">
      <g>
       <use xlink:href="#mf6bf3f88a7" x="347.198441" y="10.8" style="stroke: #000000; stroke-width: 1.5"/>
      </g>
     </g>
    </g>
    <g id="xtick_37">
     <g id="line2d_73">
      <g>
       <use xlink:href="#m0a6cad9177" x="355.511482" y="242.124" style="stroke: #000000; stroke-width: 1.5"/>
      </g>
     </g>
     <g id="line2d_74">
      <g>
       <use xlink:href="#mf6bf3f88a7" x="355.511482" y="10.8" style="stroke: #000000; stroke-width: 1.5"/>
      </g>
     </g>
    </g>
    <g id="xtick_38">
     <g id="line2d_75">
      <g>
       <use xlink:href="#m0a6cad9177" x="372.137565" y="242.124" style="stroke: #000000; stroke-width: 1.5"/>
      </g>
     </g>
     <g id="line2d_76">
      <g>
       <use xlink:href="#mf6bf3f88a7" x="372.137565" y="10.8" style="stroke: #000000; stroke-width: 1.5"/>
      </g>
     </g>
    </g>
    <g id="xtick_39">
     <g id="line2d_77">
      <g>
       <use xlink:href="#m0a6cad9177" x="380.450606" y="242.124" style="stroke: #000000; stroke-width: 1.5"/>
      </g>
     </g>
     <g id="line2d_78">
      <g>
       <use xlink:href="#mf6bf3f88a7" x="380.450606" y="10.8" style="stroke: #000000; stroke-width: 1.5"/>
      </g>
     </g>
    </g>
    <g id="xtick_40">
     <g id="line2d_79">
      <g>
       <use xlink:href="#m0a6cad9177" x="388.763647" y="242.124" style="stroke: #000000; stroke-width: 1.5"/>
      </g>
     </g>
     <g id="line2d_80">
      <g>
       <use xlink:href="#mf6bf3f88a7" x="388.763647" y="10.8" style="stroke: #000000; stroke-width: 1.5"/>
      </g>
     </g>
    </g>
    <g id="xtick_41">
     <g id="line2d_81">
      <g>
       <use xlink:href="#m0a6cad9177" x="397.076688" y="242.124" style="stroke: #000000; stroke-width: 1.5"/>
      </g>
     </g>
     <g id="line2d_82">
      <g>
       <use xlink:href="#mf6bf3f88a7" x="397.076688" y="10.8" style="stroke: #000000; stroke-width: 1.5"/>
      </g>
     </g>
    </g>
    <g id="xtick_42">
     <g id="line2d_83">
      <g>
       <use xlink:href="#m0a6cad9177" x="413.702771" y="242.124" style="stroke: #000000; stroke-width: 1.5"/>
      </g>
     </g>
     <g id="line2d_84">
      <g>
       <use xlink:href="#mf6bf3f88a7" x="413.702771" y="10.8" style="stroke: #000000; stroke-width: 1.5"/>
      </g>
     </g>
    </g>
    <g id="text_10">
     <!-- Distance [R$_\odot$] -->
     <g transform="translate(202.023884 270.355875)scale(0.12 -0.12)">
      <defs>
       <path id="DejaVuSans-44" d="M 1259 4147 
L 1259 519 
L 2022 519 
Q 2988 519 3436 956 
Q 3884 1394 3884 2338 
Q 3884 3275 3436 3711 
Q 2988 4147 2022 4147 
L 1259 4147 
z
M 628 4666 
L 1925 4666 
Q 3281 4666 3915 4102 
Q 4550 3538 4550 2338 
Q 4550 1131 3912 565 
Q 3275 0 1925 0 
L 628 0 
L 628 4666 
z
" transform="scale(0.015625)"/>
       <path id="DejaVuSans-69" d="M 603 3500 
L 1178 3500 
L 1178 0 
L 603 0 
L 603 3500 
z
M 603 4863 
L 1178 4863 
L 1178 4134 
L 603 4134 
L 603 4863 
z
" transform="scale(0.015625)"/>
       <path id="DejaVuSans-73" d="M 2834 3397 
L 2834 2853 
Q 2591 2978 2328 3040 
Q 2066 3103 1784 3103 
Q 1356 3103 1142 2972 
Q 928 2841 928 2578 
Q 928 2378 1081 2264 
Q 1234 2150 1697 2047 
L 1894 2003 
Q 2506 1872 2764 1633 
Q 3022 1394 3022 966 
Q 3022 478 2636 193 
Q 2250 -91 1575 -91 
Q 1294 -91 989 -36 
Q 684 19 347 128 
L 347 722 
Q 666 556 975 473 
Q 1284 391 1588 391 
Q 1994 391 2212 530 
Q 2431 669 2431 922 
Q 2431 1156 2273 1281 
Q 2116 1406 1581 1522 
L 1381 1569 
Q 847 1681 609 1914 
Q 372 2147 372 2553 
Q 372 3047 722 3315 
Q 1072 3584 1716 3584 
Q 2034 3584 2315 3537 
Q 2597 3491 2834 3397 
z
" transform="scale(0.015625)"/>
       <path id="DejaVuSans-74" d="M 1172 4494 
L 1172 3500 
L 2356 3500 
L 2356 3053 
L 1172 3053 
L 1172 1153 
Q 1172 725 1289 603 
Q 1406 481 1766 481 
L 2356 481 
L 2356 0 
L 1766 0 
Q 1100 0 847 248 
Q 594 497 594 1153 
L 594 3053 
L 172 3053 
L 172 3500 
L 594 3500 
L 594 4494 
L 1172 4494 
z
" transform="scale(0.015625)"/>
       <path id="DejaVuSans-61" d="M 2194 1759 
Q 1497 1759 1228 1600 
Q 959 1441 959 1056 
Q 959 750 1161 570 
Q 1363 391 1709 391 
Q 2188 391 2477 730 
Q 2766 1069 2766 1631 
L 2766 1759 
L 2194 1759 
z
M 3341 1997 
L 3341 0 
L 2766 0 
L 2766 531 
Q 2569 213 2275 61 
Q 1981 -91 1556 -91 
Q 1019 -91 701 211 
Q 384 513 384 1019 
Q 384 1609 779 1909 
Q 1175 2209 1959 2209 
L 2766 2209 
L 2766 2266 
Q 2766 2663 2505 2880 
Q 2244 3097 1772 3097 
Q 1472 3097 1187 3025 
Q 903 2953 641 2809 
L 641 3341 
Q 956 3463 1253 3523 
Q 1550 3584 1831 3584 
Q 2591 3584 2966 3190 
Q 3341 2797 3341 1997 
z
" transform="scale(0.015625)"/>
       <path id="DejaVuSans-6e" d="M 3513 2113 
L 3513 0 
L 2938 0 
L 2938 2094 
Q 2938 2591 2744 2837 
Q 2550 3084 2163 3084 
Q 1697 3084 1428 2787 
Q 1159 2491 1159 1978 
L 1159 0 
L 581 0 
L 581 3500 
L 1159 3500 
L 1159 2956 
Q 1366 3272 1645 3428 
Q 1925 3584 2291 3584 
Q 2894 3584 3203 3211 
Q 3513 2838 3513 2113 
z
" transform="scale(0.015625)"/>
       <path id="DejaVuSans-63" d="M 3122 3366 
L 3122 2828 
Q 2878 2963 2633 3030 
Q 2388 3097 2138 3097 
Q 1578 3097 1268 2742 
Q 959 2388 959 1747 
Q 959 1106 1268 751 
Q 1578 397 2138 397 
Q 2388 397 2633 464 
Q 2878 531 3122 666 
L 3122 134 
Q 2881 22 2623 -34 
Q 2366 -91 2075 -91 
Q 1284 -91 818 406 
Q 353 903 353 1747 
Q 353 2603 823 3093 
Q 1294 3584 2113 3584 
Q 2378 3584 2631 3529 
Q 2884 3475 3122 3366 
z
" transform="scale(0.015625)"/>
       <path id="DejaVuSans-65" d="M 3597 1894 
L 3597 1613 
L 953 1613 
Q 991 1019 1311 708 
Q 1631 397 2203 397 
Q 2534 397 2845 478 
Q 3156 559 3463 722 
L 3463 178 
Q 3153 47 2828 -22 
Q 2503 -91 2169 -91 
Q 1331 -91 842 396 
Q 353 884 353 1716 
Q 353 2575 817 3079 
Q 1281 3584 2069 3584 
Q 2775 3584 3186 3129 
Q 3597 2675 3597 1894 
z
M 3022 2063 
Q 3016 2534 2758 2815 
Q 2500 3097 2075 3097 
Q 1594 3097 1305 2825 
Q 1016 2553 972 2059 
L 3022 2063 
z
" transform="scale(0.015625)"/>
       <path id="DejaVuSans-20" transform="scale(0.015625)"/>
       <path id="DejaVuSans-5b" d="M 550 4863 
L 1875 4863 
L 1875 4416 
L 1125 4416 
L 1125 -397 
L 1875 -397 
L 1875 -844 
L 550 -844 
L 550 4863 
z
" transform="scale(0.015625)"/>
       <path id="DejaVuSans-52" d="M 2841 2188 
Q 3044 2119 3236 1894 
Q 3428 1669 3622 1275 
L 4263 0 
L 3584 0 
L 2988 1197 
Q 2756 1666 2539 1819 
Q 2322 1972 1947 1972 
L 1259 1972 
L 1259 0 
L 628 0 
L 628 4666 
L 2053 4666 
Q 2853 4666 3247 4331 
Q 3641 3997 3641 3322 
Q 3641 2881 3436 2590 
Q 3231 2300 2841 2188 
z
M 1259 4147 
L 1259 2491 
L 2053 2491 
Q 2509 2491 2742 2702 
Q 2975 2913 2975 3322 
Q 2975 3731 2742 3939 
Q 2509 4147 2053 4147 
L 1259 4147 
z
" transform="scale(0.015625)"/>
       <path id="DejaVuSans-2299" d="M 2350 2403 
L 3013 2403 
L 3013 1609 
L 2350 1609 
L 2350 2403 
z
M 3306 3522 
Q 3016 3644 2681 3644 
Q 2347 3644 2056 3522 
Q 1769 3400 1531 3163 
Q 1291 2922 1172 2634 
Q 1053 2347 1053 2006 
Q 1053 1675 1172 1387 
Q 1291 1100 1531 859 
Q 1769 622 2056 500 
Q 2347 378 2681 378 
Q 3016 378 3306 500 
Q 3594 622 3831 859 
Q 4072 1100 4190 1387 
Q 4309 1675 4309 2006 
Q 4309 2347 4190 2634 
Q 4072 2922 3831 3163 
Q 3594 3400 3306 3522 
z
M 1878 3956 
Q 2250 4113 2681 4113 
Q 3113 4113 3484 3956 
Q 3856 3800 4163 3494 
Q 4472 3184 4625 2813 
Q 4778 2444 4778 2006 
Q 4778 1578 4625 1206 
Q 4472 838 4163 528 
Q 3856 222 3484 65 
Q 3113 -91 2681 -91 
Q 2250 -91 1878 65 
Q 1506 222 1200 528 
Q 891 838 738 1206 
Q 584 1578 584 2006 
Q 584 2444 738 2813 
Q 891 3184 1200 3494 
Q 1506 3800 1878 3956 
z
" transform="scale(0.015625)"/>
       <path id="DejaVuSans-5d" d="M 1947 4863 
L 1947 -844 
L 622 -844 
L 622 -397 
L 1369 -397 
L 1369 4416 
L 622 4416 
L 622 4863 
L 1947 4863 
z
" transform="scale(0.015625)"/>
      </defs>
      <use xlink:href="#DejaVuSans-44" transform="translate(0 0.015625)"/>
      <use xlink:href="#DejaVuSans-69" transform="translate(77.001953 0.015625)"/>
      <use xlink:href="#DejaVuSans-73" transform="translate(104.785156 0.015625)"/>
      <use xlink:href="#DejaVuSans-74" transform="translate(156.884766 0.015625)"/>
      <use xlink:href="#DejaVuSans-61" transform="translate(196.09375 0.015625)"/>
      <use xlink:href="#DejaVuSans-6e" transform="translate(257.373047 0.015625)"/>
      <use xlink:href="#DejaVuSans-63" transform="translate(320.751953 0.015625)"/>
      <use xlink:href="#DejaVuSans-65" transform="translate(375.732422 0.015625)"/>
      <use xlink:href="#DejaVuSans-20" transform="translate(437.255859 0.015625)"/>
      <use xlink:href="#DejaVuSans-5b" transform="translate(469.042969 0.015625)"/>
      <use xlink:href="#DejaVuSans-52" transform="translate(504.931641 0.015625)"/>
      <use xlink:href="#DejaVuSans-2299" transform="translate(589.008789 -16.390625)scale(0.7)"/>
      <use xlink:href="#DejaVuSans-5d" transform="translate(664.033203 0.015625)"/>
     </g>
    </g>
   </g>
   <g id="matplotlib.axis_2">
    <g id="ytick_1">
     <g id="line2d_85">
      <defs>
       <path id="mb6743ca08c" d="M 0 0 
L 3.5 0 
" style="stroke: #000000; stroke-width: 1.5"/>
      </defs>
      <g>
       <use xlink:href="#mb6743ca08c" x="67.327768" y="216.388828" style="stroke: #000000; stroke-width: 1.5"/>
      </g>
     </g>
     <g id="line2d_86">
      <defs>
       <path id="m8e1db11306" d="M 0 0 
L -3.5 0 
" style="stroke: #000000; stroke-width: 1.5"/>
      </defs>
      <g>
       <use xlink:href="#m8e1db11306" x="421.2" y="216.388828" style="stroke: #000000; stroke-width: 1.5"/>
      </g>
     </g>
     <g id="text_11">
      <!-- $\mathdefault{10^{-12}}$ -->
      <g transform="translate(30.347768 220.94789)scale(0.12 -0.12)">
       <defs>
        <path id="DejaVuSans-2212" d="M 678 2272 
L 4684 2272 
L 4684 1741 
L 678 1741 
L 678 2272 
z
" transform="scale(0.015625)"/>
       </defs>
       <use xlink:href="#DejaVuSans-31" transform="translate(0 0.765625)"/>
       <use xlink:href="#DejaVuSans-30" transform="translate(63.623047 0.765625)"/>
       <use xlink:href="#DejaVuSans-2212" transform="translate(128.203125 39.046875)scale(0.7)"/>
       <use xlink:href="#DejaVuSans-31" transform="translate(186.855469 39.046875)scale(0.7)"/>
       <use xlink:href="#DejaVuSans-32" transform="translate(231.391602 39.046875)scale(0.7)"/>
      </g>
     </g>
    </g>
    <g id="ytick_2">
     <g id="line2d_87">
      <g>
       <use xlink:href="#mb6743ca08c" x="67.327768" y="189.654606" style="stroke: #000000; stroke-width: 1.5"/>
      </g>
     </g>
     <g id="line2d_88">
      <g>
       <use xlink:href="#m8e1db11306" x="421.2" y="189.654606" style="stroke: #000000; stroke-width: 1.5"/>
      </g>
     </g>
     <g id="text_12">
      <!-- $\mathdefault{10^{-11}}$ -->
      <g transform="translate(30.347768 194.213669)scale(0.12 -0.12)">
       <use xlink:href="#DejaVuSans-31" transform="translate(0 0.684375)"/>
       <use xlink:href="#DejaVuSans-30" transform="translate(63.623047 0.684375)"/>
       <use xlink:href="#DejaVuSans-2212" transform="translate(128.203125 38.965625)scale(0.7)"/>
       <use xlink:href="#DejaVuSans-31" transform="translate(186.855469 38.965625)scale(0.7)"/>
       <use xlink:href="#DejaVuSans-31" transform="translate(231.391602 38.965625)scale(0.7)"/>
      </g>
     </g>
    </g>
    <g id="ytick_3">
     <g id="line2d_89">
      <g>
       <use xlink:href="#mb6743ca08c" x="67.327768" y="162.920385" style="stroke: #000000; stroke-width: 1.5"/>
      </g>
     </g>
     <g id="line2d_90">
      <g>
       <use xlink:href="#m8e1db11306" x="421.2" y="162.920385" style="stroke: #000000; stroke-width: 1.5"/>
      </g>
     </g>
     <g id="text_13">
      <!-- $\mathdefault{10^{-10}}$ -->
      <g transform="translate(30.347768 167.479447)scale(0.12 -0.12)">
       <use xlink:href="#DejaVuSans-31" transform="translate(0 0.765625)"/>
       <use xlink:href="#DejaVuSans-30" transform="translate(63.623047 0.765625)"/>
       <use xlink:href="#DejaVuSans-2212" transform="translate(128.203125 39.046875)scale(0.7)"/>
       <use xlink:href="#DejaVuSans-31" transform="translate(186.855469 39.046875)scale(0.7)"/>
       <use xlink:href="#DejaVuSans-30" transform="translate(231.391602 39.046875)scale(0.7)"/>
      </g>
     </g>
    </g>
    <g id="ytick_4">
     <g id="line2d_91">
      <g>
       <use xlink:href="#mb6743ca08c" x="67.327768" y="136.186163" style="stroke: #000000; stroke-width: 1.5"/>
      </g>
     </g>
     <g id="line2d_92">
      <g>
       <use xlink:href="#m8e1db11306" x="421.2" y="136.186163" style="stroke: #000000; stroke-width: 1.5"/>
      </g>
     </g>
     <g id="text_14">
      <!-- $\mathdefault{10^{-9}}$ -->
      <g transform="translate(35.627768 140.745225)scale(0.12 -0.12)">
       <defs>
        <path id="DejaVuSans-39" d="M 703 97 
L 703 672 
Q 941 559 1184 500 
Q 1428 441 1663 441 
Q 2288 441 2617 861 
Q 2947 1281 2994 2138 
Q 2813 1869 2534 1725 
Q 2256 1581 1919 1581 
Q 1219 1581 811 2004 
Q 403 2428 403 3163 
Q 403 3881 828 4315 
Q 1253 4750 1959 4750 
Q 2769 4750 3195 4129 
Q 3622 3509 3622 2328 
Q 3622 1225 3098 567 
Q 2575 -91 1691 -91 
Q 1453 -91 1209 -44 
Q 966 3 703 97 
z
M 1959 2075 
Q 2384 2075 2632 2365 
Q 2881 2656 2881 3163 
Q 2881 3666 2632 3958 
Q 2384 4250 1959 4250 
Q 1534 4250 1286 3958 
Q 1038 3666 1038 3163 
Q 1038 2656 1286 2365 
Q 1534 2075 1959 2075 
z
" transform="scale(0.015625)"/>
       </defs>
       <use xlink:href="#DejaVuSans-31" transform="translate(0 0.765625)"/>
       <use xlink:href="#DejaVuSans-30" transform="translate(63.623047 0.765625)"/>
       <use xlink:href="#DejaVuSans-2212" transform="translate(128.203125 39.046875)scale(0.7)"/>
       <use xlink:href="#DejaVuSans-39" transform="translate(186.855469 39.046875)scale(0.7)"/>
      </g>
     </g>
    </g>
    <g id="ytick_5">
     <g id="line2d_93">
      <g>
       <use xlink:href="#mb6743ca08c" x="67.327768" y="109.451941" style="stroke: #000000; stroke-width: 1.5"/>
      </g>
     </g>
     <g id="line2d_94">
      <g>
       <use xlink:href="#m8e1db11306" x="421.2" y="109.451941" style="stroke: #000000; stroke-width: 1.5"/>
      </g>
     </g>
     <g id="text_15">
      <!-- $\mathdefault{10^{-8}}$ -->
      <g transform="translate(35.627768 114.011004)scale(0.12 -0.12)">
       <defs>
        <path id="DejaVuSans-38" d="M 2034 2216 
Q 1584 2216 1326 1975 
Q 1069 1734 1069 1313 
Q 1069 891 1326 650 
Q 1584 409 2034 409 
Q 2484 409 2743 651 
Q 3003 894 3003 1313 
Q 3003 1734 2745 1975 
Q 2488 2216 2034 2216 
z
M 1403 2484 
Q 997 2584 770 2862 
Q 544 3141 544 3541 
Q 544 4100 942 4425 
Q 1341 4750 2034 4750 
Q 2731 4750 3128 4425 
Q 3525 4100 3525 3541 
Q 3525 3141 3298 2862 
Q 3072 2584 2669 2484 
Q 3125 2378 3379 2068 
Q 3634 1759 3634 1313 
Q 3634 634 3220 271 
Q 2806 -91 2034 -91 
Q 1263 -91 848 271 
Q 434 634 434 1313 
Q 434 1759 690 2068 
Q 947 2378 1403 2484 
z
M 1172 3481 
Q 1172 3119 1398 2916 
Q 1625 2713 2034 2713 
Q 2441 2713 2670 2916 
Q 2900 3119 2900 3481 
Q 2900 3844 2670 4047 
Q 2441 4250 2034 4250 
Q 1625 4250 1398 4047 
Q 1172 3844 1172 3481 
z
" transform="scale(0.015625)"/>
       </defs>
       <use xlink:href="#DejaVuSans-31" transform="translate(0 0.765625)"/>
       <use xlink:href="#DejaVuSans-30" transform="translate(63.623047 0.765625)"/>
       <use xlink:href="#DejaVuSans-2212" transform="translate(128.203125 39.046875)scale(0.7)"/>
       <use xlink:href="#DejaVuSans-38" transform="translate(186.855469 39.046875)scale(0.7)"/>
      </g>
     </g>
    </g>
    <g id="ytick_6">
     <g id="line2d_95">
      <g>
       <use xlink:href="#mb6743ca08c" x="67.327768" y="82.71772" style="stroke: #000000; stroke-width: 1.5"/>
      </g>
     </g>
     <g id="line2d_96">
      <g>
       <use xlink:href="#m8e1db11306" x="421.2" y="82.71772" style="stroke: #000000; stroke-width: 1.5"/>
      </g>
     </g>
     <g id="text_16">
      <!-- $\mathdefault{10^{-7}}$ -->
      <g transform="translate(35.627768 87.276782)scale(0.12 -0.12)">
       <defs>
        <path id="DejaVuSans-37" d="M 525 4666 
L 3525 4666 
L 3525 4397 
L 1831 0 
L 1172 0 
L 2766 4134 
L 525 4134 
L 525 4666 
z
" transform="scale(0.015625)"/>
       </defs>
       <use xlink:href="#DejaVuSans-31" transform="translate(0 0.684375)"/>
       <use xlink:href="#DejaVuSans-30" transform="translate(63.623047 0.684375)"/>
       <use xlink:href="#DejaVuSans-2212" transform="translate(128.203125 38.965625)scale(0.7)"/>
       <use xlink:href="#DejaVuSans-37" transform="translate(186.855469 38.965625)scale(0.7)"/>
      </g>
     </g>
    </g>
    <g id="ytick_7">
     <g id="line2d_97">
      <g>
       <use xlink:href="#mb6743ca08c" x="67.327768" y="55.983498" style="stroke: #000000; stroke-width: 1.5"/>
      </g>
     </g>
     <g id="line2d_98">
      <g>
       <use xlink:href="#m8e1db11306" x="421.2" y="55.983498" style="stroke: #000000; stroke-width: 1.5"/>
      </g>
     </g>
     <g id="text_17">
      <!-- $\mathdefault{10^{-6}}$ -->
      <g transform="translate(35.627768 60.542561)scale(0.12 -0.12)">
       <defs>
        <path id="DejaVuSans-36" d="M 2113 2584 
Q 1688 2584 1439 2293 
Q 1191 2003 1191 1497 
Q 1191 994 1439 701 
Q 1688 409 2113 409 
Q 2538 409 2786 701 
Q 3034 994 3034 1497 
Q 3034 2003 2786 2293 
Q 2538 2584 2113 2584 
z
M 3366 4563 
L 3366 3988 
Q 3128 4100 2886 4159 
Q 2644 4219 2406 4219 
Q 1781 4219 1451 3797 
Q 1122 3375 1075 2522 
Q 1259 2794 1537 2939 
Q 1816 3084 2150 3084 
Q 2853 3084 3261 2657 
Q 3669 2231 3669 1497 
Q 3669 778 3244 343 
Q 2819 -91 2113 -91 
Q 1303 -91 875 529 
Q 447 1150 447 2328 
Q 447 3434 972 4092 
Q 1497 4750 2381 4750 
Q 2619 4750 2861 4703 
Q 3103 4656 3366 4563 
z
" transform="scale(0.015625)"/>
       </defs>
       <use xlink:href="#DejaVuSans-31" transform="translate(0 0.765625)"/>
       <use xlink:href="#DejaVuSans-30" transform="translate(63.623047 0.765625)"/>
       <use xlink:href="#DejaVuSans-2212" transform="translate(128.203125 39.046875)scale(0.7)"/>
       <use xlink:href="#DejaVuSans-36" transform="translate(186.855469 39.046875)scale(0.7)"/>
      </g>
     </g>
    </g>
    <g id="ytick_8">
     <g id="line2d_99">
      <g>
       <use xlink:href="#mb6743ca08c" x="67.327768" y="29.249276" style="stroke: #000000; stroke-width: 1.5"/>
      </g>
     </g>
     <g id="line2d_100">
      <g>
       <use xlink:href="#m8e1db11306" x="421.2" y="29.249276" style="stroke: #000000; stroke-width: 1.5"/>
      </g>
     </g>
     <g id="text_18">
      <!-- $\mathdefault{10^{-5}}$ -->
      <g transform="translate(35.627768 33.808339)scale(0.12 -0.12)">
       <use xlink:href="#DejaVuSans-31" transform="translate(0 0.684375)"/>
       <use xlink:href="#DejaVuSans-30" transform="translate(63.623047 0.684375)"/>
       <use xlink:href="#DejaVuSans-2212" transform="translate(128.203125 38.965625)scale(0.7)"/>
       <use xlink:href="#DejaVuSans-35" transform="translate(186.855469 38.965625)scale(0.7)"/>
      </g>
     </g>
    </g>
    <g id="ytick_9">
     <g id="line2d_101">
      <defs>
       <path id="mb54eb1ecf1" d="M 0 0 
L 2 0 
" style="stroke: #000000; stroke-width: 1.5"/>
      </defs>
      <g>
       <use xlink:href="#mb54eb1ecf1" x="67.327768" y="235.075247" style="stroke: #000000; stroke-width: 1.5"/>
      </g>
     </g>
     <g id="line2d_102">
      <defs>
       <path id="m8b56efa304" d="M 0 0 
L -2 0 
" style="stroke: #000000; stroke-width: 1.5"/>
      </defs>
      <g>
       <use xlink:href="#m8b56efa304" x="421.2" y="235.075247" style="stroke: #000000; stroke-width: 1.5"/>
      </g>
     </g>
    </g>
    <g id="ytick_10">
     <g id="line2d_103">
      <g>
       <use xlink:href="#mb54eb1ecf1" x="67.327768" y="230.367584" style="stroke: #000000; stroke-width: 1.5"/>
      </g>
     </g>
     <g id="line2d_104">
      <g>
       <use xlink:href="#m8b56efa304" x="421.2" y="230.367584" style="stroke: #000000; stroke-width: 1.5"/>
      </g>
     </g>
    </g>
    <g id="ytick_11">
     <g id="line2d_105">
      <g>
       <use xlink:href="#mb54eb1ecf1" x="67.327768" y="227.027444" style="stroke: #000000; stroke-width: 1.5"/>
      </g>
     </g>
     <g id="line2d_106">
      <g>
       <use xlink:href="#m8b56efa304" x="421.2" y="227.027444" style="stroke: #000000; stroke-width: 1.5"/>
      </g>
     </g>
    </g>
    <g id="ytick_12">
     <g id="line2d_107">
      <g>
       <use xlink:href="#mb54eb1ecf1" x="67.327768" y="224.43663" style="stroke: #000000; stroke-width: 1.5"/>
      </g>
     </g>
     <g id="line2d_108">
      <g>
       <use xlink:href="#m8b56efa304" x="421.2" y="224.43663" style="stroke: #000000; stroke-width: 1.5"/>
      </g>
     </g>
    </g>
    <g id="ytick_13">
     <g id="line2d_109">
      <g>
       <use xlink:href="#mb54eb1ecf1" x="67.327768" y="222.319781" style="stroke: #000000; stroke-width: 1.5"/>
      </g>
     </g>
     <g id="line2d_110">
      <g>
       <use xlink:href="#m8b56efa304" x="421.2" y="222.319781" style="stroke: #000000; stroke-width: 1.5"/>
      </g>
     </g>
    </g>
    <g id="ytick_14">
     <g id="line2d_111">
      <g>
       <use xlink:href="#mb54eb1ecf1" x="67.327768" y="220.530011" style="stroke: #000000; stroke-width: 1.5"/>
      </g>
     </g>
     <g id="line2d_112">
      <g>
       <use xlink:href="#m8b56efa304" x="421.2" y="220.530011" style="stroke: #000000; stroke-width: 1.5"/>
      </g>
     </g>
    </g>
    <g id="ytick_15">
     <g id="line2d_113">
      <g>
       <use xlink:href="#mb54eb1ecf1" x="67.327768" y="218.979642" style="stroke: #000000; stroke-width: 1.5"/>
      </g>
     </g>
     <g id="line2d_114">
      <g>
       <use xlink:href="#m8b56efa304" x="421.2" y="218.979642" style="stroke: #000000; stroke-width: 1.5"/>
      </g>
     </g>
    </g>
    <g id="ytick_16">
     <g id="line2d_115">
      <g>
       <use xlink:href="#mb54eb1ecf1" x="67.327768" y="217.612119" style="stroke: #000000; stroke-width: 1.5"/>
      </g>
     </g>
     <g id="line2d_116">
      <g>
       <use xlink:href="#m8b56efa304" x="421.2" y="217.612119" style="stroke: #000000; stroke-width: 1.5"/>
      </g>
     </g>
    </g>
    <g id="ytick_17">
     <g id="line2d_117">
      <g>
       <use xlink:href="#mb54eb1ecf1" x="67.327768" y="208.341025" style="stroke: #000000; stroke-width: 1.5"/>
      </g>
     </g>
     <g id="line2d_118">
      <g>
       <use xlink:href="#m8b56efa304" x="421.2" y="208.341025" style="stroke: #000000; stroke-width: 1.5"/>
      </g>
     </g>
    </g>
    <g id="ytick_18">
     <g id="line2d_119">
      <g>
       <use xlink:href="#mb54eb1ecf1" x="67.327768" y="203.633362" style="stroke: #000000; stroke-width: 1.5"/>
      </g>
     </g>
     <g id="line2d_120">
      <g>
       <use xlink:href="#m8b56efa304" x="421.2" y="203.633362" style="stroke: #000000; stroke-width: 1.5"/>
      </g>
     </g>
    </g>
    <g id="ytick_19">
     <g id="line2d_121">
      <g>
       <use xlink:href="#mb54eb1ecf1" x="67.327768" y="200.293223" style="stroke: #000000; stroke-width: 1.5"/>
      </g>
     </g>
     <g id="line2d_122">
      <g>
       <use xlink:href="#m8b56efa304" x="421.2" y="200.293223" style="stroke: #000000; stroke-width: 1.5"/>
      </g>
     </g>
    </g>
    <g id="ytick_20">
     <g id="line2d_123">
      <g>
       <use xlink:href="#mb54eb1ecf1" x="67.327768" y="197.702409" style="stroke: #000000; stroke-width: 1.5"/>
      </g>
     </g>
     <g id="line2d_124">
      <g>
       <use xlink:href="#m8b56efa304" x="421.2" y="197.702409" style="stroke: #000000; stroke-width: 1.5"/>
      </g>
     </g>
    </g>
    <g id="ytick_21">
     <g id="line2d_125">
      <g>
       <use xlink:href="#mb54eb1ecf1" x="67.327768" y="195.58556" style="stroke: #000000; stroke-width: 1.5"/>
      </g>
     </g>
     <g id="line2d_126">
      <g>
       <use xlink:href="#m8b56efa304" x="421.2" y="195.58556" style="stroke: #000000; stroke-width: 1.5"/>
      </g>
     </g>
    </g>
    <g id="ytick_22">
     <g id="line2d_127">
      <g>
       <use xlink:href="#mb54eb1ecf1" x="67.327768" y="193.795789" style="stroke: #000000; stroke-width: 1.5"/>
      </g>
     </g>
     <g id="line2d_128">
      <g>
       <use xlink:href="#m8b56efa304" x="421.2" y="193.795789" style="stroke: #000000; stroke-width: 1.5"/>
      </g>
     </g>
    </g>
    <g id="ytick_23">
     <g id="line2d_129">
      <g>
       <use xlink:href="#mb54eb1ecf1" x="67.327768" y="192.24542" style="stroke: #000000; stroke-width: 1.5"/>
      </g>
     </g>
     <g id="line2d_130">
      <g>
       <use xlink:href="#m8b56efa304" x="421.2" y="192.24542" style="stroke: #000000; stroke-width: 1.5"/>
      </g>
     </g>
    </g>
    <g id="ytick_24">
     <g id="line2d_131">
      <g>
       <use xlink:href="#mb54eb1ecf1" x="67.327768" y="190.877897" style="stroke: #000000; stroke-width: 1.5"/>
      </g>
     </g>
     <g id="line2d_132">
      <g>
       <use xlink:href="#m8b56efa304" x="421.2" y="190.877897" style="stroke: #000000; stroke-width: 1.5"/>
      </g>
     </g>
    </g>
    <g id="ytick_25">
     <g id="line2d_133">
      <g>
       <use xlink:href="#mb54eb1ecf1" x="67.327768" y="181.606804" style="stroke: #000000; stroke-width: 1.5"/>
      </g>
     </g>
     <g id="line2d_134">
      <g>
       <use xlink:href="#m8b56efa304" x="421.2" y="181.606804" style="stroke: #000000; stroke-width: 1.5"/>
      </g>
     </g>
    </g>
    <g id="ytick_26">
     <g id="line2d_135">
      <g>
       <use xlink:href="#mb54eb1ecf1" x="67.327768" y="176.899141" style="stroke: #000000; stroke-width: 1.5"/>
      </g>
     </g>
     <g id="line2d_136">
      <g>
       <use xlink:href="#m8b56efa304" x="421.2" y="176.899141" style="stroke: #000000; stroke-width: 1.5"/>
      </g>
     </g>
    </g>
    <g id="ytick_27">
     <g id="line2d_137">
      <g>
       <use xlink:href="#mb54eb1ecf1" x="67.327768" y="173.559001" style="stroke: #000000; stroke-width: 1.5"/>
      </g>
     </g>
     <g id="line2d_138">
      <g>
       <use xlink:href="#m8b56efa304" x="421.2" y="173.559001" style="stroke: #000000; stroke-width: 1.5"/>
      </g>
     </g>
    </g>
    <g id="ytick_28">
     <g id="line2d_139">
      <g>
       <use xlink:href="#mb54eb1ecf1" x="67.327768" y="170.968187" style="stroke: #000000; stroke-width: 1.5"/>
      </g>
     </g>
     <g id="line2d_140">
      <g>
       <use xlink:href="#m8b56efa304" x="421.2" y="170.968187" style="stroke: #000000; stroke-width: 1.5"/>
      </g>
     </g>
    </g>
    <g id="ytick_29">
     <g id="line2d_141">
      <g>
       <use xlink:href="#mb54eb1ecf1" x="67.327768" y="168.851338" style="stroke: #000000; stroke-width: 1.5"/>
      </g>
     </g>
     <g id="line2d_142">
      <g>
       <use xlink:href="#m8b56efa304" x="421.2" y="168.851338" style="stroke: #000000; stroke-width: 1.5"/>
      </g>
     </g>
    </g>
    <g id="ytick_30">
     <g id="line2d_143">
      <g>
       <use xlink:href="#mb54eb1ecf1" x="67.327768" y="167.061568" style="stroke: #000000; stroke-width: 1.5"/>
      </g>
     </g>
     <g id="line2d_144">
      <g>
       <use xlink:href="#m8b56efa304" x="421.2" y="167.061568" style="stroke: #000000; stroke-width: 1.5"/>
      </g>
     </g>
    </g>
    <g id="ytick_31">
     <g id="line2d_145">
      <g>
       <use xlink:href="#mb54eb1ecf1" x="67.327768" y="165.511198" style="stroke: #000000; stroke-width: 1.5"/>
      </g>
     </g>
     <g id="line2d_146">
      <g>
       <use xlink:href="#m8b56efa304" x="421.2" y="165.511198" style="stroke: #000000; stroke-width: 1.5"/>
      </g>
     </g>
    </g>
    <g id="ytick_32">
     <g id="line2d_147">
      <g>
       <use xlink:href="#mb54eb1ecf1" x="67.327768" y="164.143675" style="stroke: #000000; stroke-width: 1.5"/>
      </g>
     </g>
     <g id="line2d_148">
      <g>
       <use xlink:href="#m8b56efa304" x="421.2" y="164.143675" style="stroke: #000000; stroke-width: 1.5"/>
      </g>
     </g>
    </g>
    <g id="ytick_33">
     <g id="line2d_149">
      <g>
       <use xlink:href="#mb54eb1ecf1" x="67.327768" y="154.872582" style="stroke: #000000; stroke-width: 1.5"/>
      </g>
     </g>
     <g id="line2d_150">
      <g>
       <use xlink:href="#m8b56efa304" x="421.2" y="154.872582" style="stroke: #000000; stroke-width: 1.5"/>
      </g>
     </g>
    </g>
    <g id="ytick_34">
     <g id="line2d_151">
      <g>
       <use xlink:href="#mb54eb1ecf1" x="67.327768" y="150.164919" style="stroke: #000000; stroke-width: 1.5"/>
      </g>
     </g>
     <g id="line2d_152">
      <g>
       <use xlink:href="#m8b56efa304" x="421.2" y="150.164919" style="stroke: #000000; stroke-width: 1.5"/>
      </g>
     </g>
    </g>
    <g id="ytick_35">
     <g id="line2d_153">
      <g>
       <use xlink:href="#mb54eb1ecf1" x="67.327768" y="146.824779" style="stroke: #000000; stroke-width: 1.5"/>
      </g>
     </g>
     <g id="line2d_154">
      <g>
       <use xlink:href="#m8b56efa304" x="421.2" y="146.824779" style="stroke: #000000; stroke-width: 1.5"/>
      </g>
     </g>
    </g>
    <g id="ytick_36">
     <g id="line2d_155">
      <g>
       <use xlink:href="#mb54eb1ecf1" x="67.327768" y="144.233966" style="stroke: #000000; stroke-width: 1.5"/>
      </g>
     </g>
     <g id="line2d_156">
      <g>
       <use xlink:href="#m8b56efa304" x="421.2" y="144.233966" style="stroke: #000000; stroke-width: 1.5"/>
      </g>
     </g>
    </g>
    <g id="ytick_37">
     <g id="line2d_157">
      <g>
       <use xlink:href="#mb54eb1ecf1" x="67.327768" y="142.117117" style="stroke: #000000; stroke-width: 1.5"/>
      </g>
     </g>
     <g id="line2d_158">
      <g>
       <use xlink:href="#m8b56efa304" x="421.2" y="142.117117" style="stroke: #000000; stroke-width: 1.5"/>
      </g>
     </g>
    </g>
    <g id="ytick_38">
     <g id="line2d_159">
      <g>
       <use xlink:href="#mb54eb1ecf1" x="67.327768" y="140.327346" style="stroke: #000000; stroke-width: 1.5"/>
      </g>
     </g>
     <g id="line2d_160">
      <g>
       <use xlink:href="#m8b56efa304" x="421.2" y="140.327346" style="stroke: #000000; stroke-width: 1.5"/>
      </g>
     </g>
    </g>
    <g id="ytick_39">
     <g id="line2d_161">
      <g>
       <use xlink:href="#mb54eb1ecf1" x="67.327768" y="138.776977" style="stroke: #000000; stroke-width: 1.5"/>
      </g>
     </g>
     <g id="line2d_162">
      <g>
       <use xlink:href="#m8b56efa304" x="421.2" y="138.776977" style="stroke: #000000; stroke-width: 1.5"/>
      </g>
     </g>
    </g>
    <g id="ytick_40">
     <g id="line2d_163">
      <g>
       <use xlink:href="#mb54eb1ecf1" x="67.327768" y="137.409454" style="stroke: #000000; stroke-width: 1.5"/>
      </g>
     </g>
     <g id="line2d_164">
      <g>
       <use xlink:href="#m8b56efa304" x="421.2" y="137.409454" style="stroke: #000000; stroke-width: 1.5"/>
      </g>
     </g>
    </g>
    <g id="ytick_41">
     <g id="line2d_165">
      <g>
       <use xlink:href="#mb54eb1ecf1" x="67.327768" y="128.13836" style="stroke: #000000; stroke-width: 1.5"/>
      </g>
     </g>
     <g id="line2d_166">
      <g>
       <use xlink:href="#m8b56efa304" x="421.2" y="128.13836" style="stroke: #000000; stroke-width: 1.5"/>
      </g>
     </g>
    </g>
    <g id="ytick_42">
     <g id="line2d_167">
      <g>
       <use xlink:href="#mb54eb1ecf1" x="67.327768" y="123.430698" style="stroke: #000000; stroke-width: 1.5"/>
      </g>
     </g>
     <g id="line2d_168">
      <g>
       <use xlink:href="#m8b56efa304" x="421.2" y="123.430698" style="stroke: #000000; stroke-width: 1.5"/>
      </g>
     </g>
    </g>
    <g id="ytick_43">
     <g id="line2d_169">
      <g>
       <use xlink:href="#mb54eb1ecf1" x="67.327768" y="120.090558" style="stroke: #000000; stroke-width: 1.5"/>
      </g>
     </g>
     <g id="line2d_170">
      <g>
       <use xlink:href="#m8b56efa304" x="421.2" y="120.090558" style="stroke: #000000; stroke-width: 1.5"/>
      </g>
     </g>
    </g>
    <g id="ytick_44">
     <g id="line2d_171">
      <g>
       <use xlink:href="#mb54eb1ecf1" x="67.327768" y="117.499744" style="stroke: #000000; stroke-width: 1.5"/>
      </g>
     </g>
     <g id="line2d_172">
      <g>
       <use xlink:href="#m8b56efa304" x="421.2" y="117.499744" style="stroke: #000000; stroke-width: 1.5"/>
      </g>
     </g>
    </g>
    <g id="ytick_45">
     <g id="line2d_173">
      <g>
       <use xlink:href="#mb54eb1ecf1" x="67.327768" y="115.382895" style="stroke: #000000; stroke-width: 1.5"/>
      </g>
     </g>
     <g id="line2d_174">
      <g>
       <use xlink:href="#m8b56efa304" x="421.2" y="115.382895" style="stroke: #000000; stroke-width: 1.5"/>
      </g>
     </g>
    </g>
    <g id="ytick_46">
     <g id="line2d_175">
      <g>
       <use xlink:href="#mb54eb1ecf1" x="67.327768" y="113.593125" style="stroke: #000000; stroke-width: 1.5"/>
      </g>
     </g>
     <g id="line2d_176">
      <g>
       <use xlink:href="#m8b56efa304" x="421.2" y="113.593125" style="stroke: #000000; stroke-width: 1.5"/>
      </g>
     </g>
    </g>
    <g id="ytick_47">
     <g id="line2d_177">
      <g>
       <use xlink:href="#mb54eb1ecf1" x="67.327768" y="112.042755" style="stroke: #000000; stroke-width: 1.5"/>
      </g>
     </g>
     <g id="line2d_178">
      <g>
       <use xlink:href="#m8b56efa304" x="421.2" y="112.042755" style="stroke: #000000; stroke-width: 1.5"/>
      </g>
     </g>
    </g>
    <g id="ytick_48">
     <g id="line2d_179">
      <g>
       <use xlink:href="#mb54eb1ecf1" x="67.327768" y="110.675232" style="stroke: #000000; stroke-width: 1.5"/>
      </g>
     </g>
     <g id="line2d_180">
      <g>
       <use xlink:href="#m8b56efa304" x="421.2" y="110.675232" style="stroke: #000000; stroke-width: 1.5"/>
      </g>
     </g>
    </g>
    <g id="ytick_49">
     <g id="line2d_181">
      <g>
       <use xlink:href="#mb54eb1ecf1" x="67.327768" y="101.404139" style="stroke: #000000; stroke-width: 1.5"/>
      </g>
     </g>
     <g id="line2d_182">
      <g>
       <use xlink:href="#m8b56efa304" x="421.2" y="101.404139" style="stroke: #000000; stroke-width: 1.5"/>
      </g>
     </g>
    </g>
    <g id="ytick_50">
     <g id="line2d_183">
      <g>
       <use xlink:href="#mb54eb1ecf1" x="67.327768" y="96.696476" style="stroke: #000000; stroke-width: 1.5"/>
      </g>
     </g>
     <g id="line2d_184">
      <g>
       <use xlink:href="#m8b56efa304" x="421.2" y="96.696476" style="stroke: #000000; stroke-width: 1.5"/>
      </g>
     </g>
    </g>
    <g id="ytick_51">
     <g id="line2d_185">
      <g>
       <use xlink:href="#mb54eb1ecf1" x="67.327768" y="93.356336" style="stroke: #000000; stroke-width: 1.5"/>
      </g>
     </g>
     <g id="line2d_186">
      <g>
       <use xlink:href="#m8b56efa304" x="421.2" y="93.356336" style="stroke: #000000; stroke-width: 1.5"/>
      </g>
     </g>
    </g>
    <g id="ytick_52">
     <g id="line2d_187">
      <g>
       <use xlink:href="#mb54eb1ecf1" x="67.327768" y="90.765522" style="stroke: #000000; stroke-width: 1.5"/>
      </g>
     </g>
     <g id="line2d_188">
      <g>
       <use xlink:href="#m8b56efa304" x="421.2" y="90.765522" style="stroke: #000000; stroke-width: 1.5"/>
      </g>
     </g>
    </g>
    <g id="ytick_53">
     <g id="line2d_189">
      <g>
       <use xlink:href="#mb54eb1ecf1" x="67.327768" y="88.648673" style="stroke: #000000; stroke-width: 1.5"/>
      </g>
     </g>
     <g id="line2d_190">
      <g>
       <use xlink:href="#m8b56efa304" x="421.2" y="88.648673" style="stroke: #000000; stroke-width: 1.5"/>
      </g>
     </g>
    </g>
    <g id="ytick_54">
     <g id="line2d_191">
      <g>
       <use xlink:href="#mb54eb1ecf1" x="67.327768" y="86.858903" style="stroke: #000000; stroke-width: 1.5"/>
      </g>
     </g>
     <g id="line2d_192">
      <g>
       <use xlink:href="#m8b56efa304" x="421.2" y="86.858903" style="stroke: #000000; stroke-width: 1.5"/>
      </g>
     </g>
    </g>
    <g id="ytick_55">
     <g id="line2d_193">
      <g>
       <use xlink:href="#mb54eb1ecf1" x="67.327768" y="85.308533" style="stroke: #000000; stroke-width: 1.5"/>
      </g>
     </g>
     <g id="line2d_194">
      <g>
       <use xlink:href="#m8b56efa304" x="421.2" y="85.308533" style="stroke: #000000; stroke-width: 1.5"/>
      </g>
     </g>
    </g>
    <g id="ytick_56">
     <g id="line2d_195">
      <g>
       <use xlink:href="#mb54eb1ecf1" x="67.327768" y="83.941011" style="stroke: #000000; stroke-width: 1.5"/>
      </g>
     </g>
     <g id="line2d_196">
      <g>
       <use xlink:href="#m8b56efa304" x="421.2" y="83.941011" style="stroke: #000000; stroke-width: 1.5"/>
      </g>
     </g>
    </g>
    <g id="ytick_57">
     <g id="line2d_197">
      <g>
       <use xlink:href="#mb54eb1ecf1" x="67.327768" y="74.669917" style="stroke: #000000; stroke-width: 1.5"/>
      </g>
     </g>
     <g id="line2d_198">
      <g>
       <use xlink:href="#m8b56efa304" x="421.2" y="74.669917" style="stroke: #000000; stroke-width: 1.5"/>
      </g>
     </g>
    </g>
    <g id="ytick_58">
     <g id="line2d_199">
      <g>
       <use xlink:href="#mb54eb1ecf1" x="67.327768" y="69.962254" style="stroke: #000000; stroke-width: 1.5"/>
      </g>
     </g>
     <g id="line2d_200">
      <g>
       <use xlink:href="#m8b56efa304" x="421.2" y="69.962254" style="stroke: #000000; stroke-width: 1.5"/>
      </g>
     </g>
    </g>
    <g id="ytick_59">
     <g id="line2d_201">
      <g>
       <use xlink:href="#mb54eb1ecf1" x="67.327768" y="66.622114" style="stroke: #000000; stroke-width: 1.5"/>
      </g>
     </g>
     <g id="line2d_202">
      <g>
       <use xlink:href="#m8b56efa304" x="421.2" y="66.622114" style="stroke: #000000; stroke-width: 1.5"/>
      </g>
     </g>
    </g>
    <g id="ytick_60">
     <g id="line2d_203">
      <g>
       <use xlink:href="#mb54eb1ecf1" x="67.327768" y="64.031301" style="stroke: #000000; stroke-width: 1.5"/>
      </g>
     </g>
     <g id="line2d_204">
      <g>
       <use xlink:href="#m8b56efa304" x="421.2" y="64.031301" style="stroke: #000000; stroke-width: 1.5"/>
      </g>
     </g>
    </g>
    <g id="ytick_61">
     <g id="line2d_205">
      <g>
       <use xlink:href="#mb54eb1ecf1" x="67.327768" y="61.914452" style="stroke: #000000; stroke-width: 1.5"/>
      </g>
     </g>
     <g id="line2d_206">
      <g>
       <use xlink:href="#m8b56efa304" x="421.2" y="61.914452" style="stroke: #000000; stroke-width: 1.5"/>
      </g>
     </g>
    </g>
    <g id="ytick_62">
     <g id="line2d_207">
      <g>
       <use xlink:href="#mb54eb1ecf1" x="67.327768" y="60.124681" style="stroke: #000000; stroke-width: 1.5"/>
      </g>
     </g>
     <g id="line2d_208">
      <g>
       <use xlink:href="#m8b56efa304" x="421.2" y="60.124681" style="stroke: #000000; stroke-width: 1.5"/>
      </g>
     </g>
    </g>
    <g id="ytick_63">
     <g id="line2d_209">
      <g>
       <use xlink:href="#mb54eb1ecf1" x="67.327768" y="58.574312" style="stroke: #000000; stroke-width: 1.5"/>
      </g>
     </g>
     <g id="line2d_210">
      <g>
       <use xlink:href="#m8b56efa304" x="421.2" y="58.574312" style="stroke: #000000; stroke-width: 1.5"/>
      </g>
     </g>
    </g>
    <g id="ytick_64">
     <g id="line2d_211">
      <g>
       <use xlink:href="#mb54eb1ecf1" x="67.327768" y="57.206789" style="stroke: #000000; stroke-width: 1.5"/>
      </g>
     </g>
     <g id="line2d_212">
      <g>
       <use xlink:href="#m8b56efa304" x="421.2" y="57.206789" style="stroke: #000000; stroke-width: 1.5"/>
      </g>
     </g>
    </g>
    <g id="ytick_65">
     <g id="line2d_213">
      <g>
       <use xlink:href="#mb54eb1ecf1" x="67.327768" y="47.935695" style="stroke: #000000; stroke-width: 1.5"/>
      </g>
     </g>
     <g id="line2d_214">
      <g>
       <use xlink:href="#m8b56efa304" x="421.2" y="47.935695" style="stroke: #000000; stroke-width: 1.5"/>
      </g>
     </g>
    </g>
    <g id="ytick_66">
     <g id="line2d_215">
      <g>
       <use xlink:href="#mb54eb1ecf1" x="67.327768" y="43.228033" style="stroke: #000000; stroke-width: 1.5"/>
      </g>
     </g>
     <g id="line2d_216">
      <g>
       <use xlink:href="#m8b56efa304" x="421.2" y="43.228033" style="stroke: #000000; stroke-width: 1.5"/>
      </g>
     </g>
    </g>
    <g id="ytick_67">
     <g id="line2d_217">
      <g>
       <use xlink:href="#mb54eb1ecf1" x="67.327768" y="39.887893" style="stroke: #000000; stroke-width: 1.5"/>
      </g>
     </g>
     <g id="line2d_218">
      <g>
       <use xlink:href="#m8b56efa304" x="421.2" y="39.887893" style="stroke: #000000; stroke-width: 1.5"/>
      </g>
     </g>
    </g>
    <g id="ytick_68">
     <g id="line2d_219">
      <g>
       <use xlink:href="#mb54eb1ecf1" x="67.327768" y="37.297079" style="stroke: #000000; stroke-width: 1.5"/>
      </g>
     </g>
     <g id="line2d_220">
      <g>
       <use xlink:href="#m8b56efa304" x="421.2" y="37.297079" style="stroke: #000000; stroke-width: 1.5"/>
      </g>
     </g>
    </g>
    <g id="ytick_69">
     <g id="line2d_221">
      <g>
       <use xlink:href="#mb54eb1ecf1" x="67.327768" y="35.18023" style="stroke: #000000; stroke-width: 1.5"/>
      </g>
     </g>
     <g id="line2d_222">
      <g>
       <use xlink:href="#m8b56efa304" x="421.2" y="35.18023" style="stroke: #000000; stroke-width: 1.5"/>
      </g>
     </g>
    </g>
    <g id="ytick_70">
     <g id="line2d_223">
      <g>
       <use xlink:href="#mb54eb1ecf1" x="67.327768" y="33.39046" style="stroke: #000000; stroke-width: 1.5"/>
      </g>
     </g>
     <g id="line2d_224">
      <g>
       <use xlink:href="#m8b56efa304" x="421.2" y="33.39046" style="stroke: #000000; stroke-width: 1.5"/>
      </g>
     </g>
    </g>
    <g id="ytick_71">
     <g id="line2d_225">
      <g>
       <use xlink:href="#mb54eb1ecf1" x="67.327768" y="31.84009" style="stroke: #000000; stroke-width: 1.5"/>
      </g>
     </g>
     <g id="line2d_226">
      <g>
       <use xlink:href="#m8b56efa304" x="421.2" y="31.84009" style="stroke: #000000; stroke-width: 1.5"/>
      </g>
     </g>
    </g>
    <g id="ytick_72">
     <g id="line2d_227">
      <g>
       <use xlink:href="#mb54eb1ecf1" x="67.327768" y="30.472567" style="stroke: #000000; stroke-width: 1.5"/>
      </g>
     </g>
     <g id="line2d_228">
      <g>
       <use xlink:href="#m8b56efa304" x="421.2" y="30.472567" style="stroke: #000000; stroke-width: 1.5"/>
      </g>
     </g>
    </g>
    <g id="ytick_73">
     <g id="line2d_229">
      <g>
       <use xlink:href="#mb54eb1ecf1" x="67.327768" y="21.201474" style="stroke: #000000; stroke-width: 1.5"/>
      </g>
     </g>
     <g id="line2d_230">
      <g>
       <use xlink:href="#m8b56efa304" x="421.2" y="21.201474" style="stroke: #000000; stroke-width: 1.5"/>
      </g>
     </g>
    </g>
    <g id="ytick_74">
     <g id="line2d_231">
      <g>
       <use xlink:href="#mb54eb1ecf1" x="67.327768" y="16.493811" style="stroke: #000000; stroke-width: 1.5"/>
      </g>
     </g>
     <g id="line2d_232">
      <g>
       <use xlink:href="#m8b56efa304" x="421.2" y="16.493811" style="stroke: #000000; stroke-width: 1.5"/>
      </g>
     </g>
    </g>
    <g id="ytick_75">
     <g id="line2d_233">
      <g>
       <use xlink:href="#mb54eb1ecf1" x="67.327768" y="13.153671" style="stroke: #000000; stroke-width: 1.5"/>
      </g>
     </g>
     <g id="line2d_234">
      <g>
       <use xlink:href="#m8b56efa304" x="421.2" y="13.153671" style="stroke: #000000; stroke-width: 1.5"/>
      </g>
     </g>
    </g>
    <g id="text_19">
     <!-- P$_{ram}$ [Pa] -->
     <g transform="translate(23.852143 152.622)rotate(-90)scale(0.12 -0.12)">
      <defs>
       <path id="DejaVuSans-50" d="M 1259 4147 
L 1259 2394 
L 2053 2394 
Q 2494 2394 2734 2622 
Q 2975 2850 2975 3272 
Q 2975 3691 2734 3919 
Q 2494 4147 2053 4147 
L 1259 4147 
z
M 628 4666 
L 2053 4666 
Q 2838 4666 3239 4311 
Q 3641 3956 3641 3272 
Q 3641 2581 3239 2228 
Q 2838 1875 2053 1875 
L 1259 1875 
L 1259 0 
L 628 0 
L 628 4666 
z
" transform="scale(0.015625)"/>
       <path id="DejaVuSans-Oblique-72" d="M 2853 2969 
Q 2766 3016 2653 3041 
Q 2541 3066 2413 3066 
Q 1953 3066 1609 2717 
Q 1266 2369 1153 1784 
L 800 0 
L 225 0 
L 909 3500 
L 1484 3500 
L 1375 2956 
Q 1603 3259 1920 3421 
Q 2238 3584 2597 3584 
Q 2691 3584 2781 3573 
Q 2872 3563 2963 3538 
L 2853 2969 
z
" transform="scale(0.015625)"/>
       <path id="DejaVuSans-Oblique-61" d="M 3438 1997 
L 3047 0 
L 2472 0 
L 2578 531 
Q 2325 219 2001 64 
Q 1678 -91 1281 -91 
Q 834 -91 548 182 
Q 263 456 263 884 
Q 263 1497 752 1853 
Q 1241 2209 2100 2209 
L 2900 2209 
L 2931 2363 
Q 2938 2388 2941 2417 
Q 2944 2447 2944 2509 
Q 2944 2788 2717 2942 
Q 2491 3097 2081 3097 
Q 1800 3097 1504 3025 
Q 1209 2953 897 2809 
L 997 3341 
Q 1322 3463 1633 3523 
Q 1944 3584 2234 3584 
Q 2853 3584 3176 3315 
Q 3500 3047 3500 2534 
Q 3500 2431 3484 2292 
Q 3469 2153 3438 1997 
z
M 2816 1759 
L 2241 1759 
Q 1534 1759 1195 1570 
Q 856 1381 856 984 
Q 856 709 1029 553 
Q 1203 397 1509 397 
Q 1978 397 2328 733 
Q 2678 1069 2791 1631 
L 2816 1759 
z
" transform="scale(0.015625)"/>
       <path id="DejaVuSans-Oblique-6d" d="M 5747 2113 
L 5338 0 
L 4763 0 
L 5166 2094 
Q 5191 2228 5203 2325 
Q 5216 2422 5216 2491 
Q 5216 2772 5059 2928 
Q 4903 3084 4622 3084 
Q 4203 3084 3875 2770 
Q 3547 2456 3450 1953 
L 3066 0 
L 2491 0 
L 2900 2094 
Q 2925 2209 2937 2307 
Q 2950 2406 2950 2484 
Q 2950 2769 2794 2926 
Q 2638 3084 2363 3084 
Q 1938 3084 1609 2770 
Q 1281 2456 1184 1953 
L 800 0 
L 225 0 
L 909 3500 
L 1484 3500 
L 1375 2956 
Q 1609 3263 1923 3423 
Q 2238 3584 2597 3584 
Q 2978 3584 3223 3384 
Q 3469 3184 3519 2828 
Q 3781 3197 4126 3390 
Q 4472 3584 4856 3584 
Q 5306 3584 5551 3325 
Q 5797 3066 5797 2591 
Q 5797 2488 5784 2364 
Q 5772 2241 5747 2113 
z
" transform="scale(0.015625)"/>
      </defs>
      <use xlink:href="#DejaVuSans-50" transform="translate(0 0.015625)"/>
      <use xlink:href="#DejaVuSans-Oblique-72" transform="translate(61.259766 -16.390625)scale(0.7)"/>
      <use xlink:href="#DejaVuSans-Oblique-61" transform="translate(90.039062 -16.390625)scale(0.7)"/>
      <use xlink:href="#DejaVuSans-Oblique-6d" transform="translate(132.93457 -16.390625)scale(0.7)"/>
      <use xlink:href="#DejaVuSans-20" transform="translate(203.857422 0.015625)"/>
      <use xlink:href="#DejaVuSans-5b" transform="translate(235.644531 0.015625)"/>
      <use xlink:href="#DejaVuSans-50" transform="translate(274.658203 0.015625)"/>
      <use xlink:href="#DejaVuSans-61" transform="translate(334.960938 0.015625)"/>
      <use xlink:href="#DejaVuSans-5d" transform="translate(396.240234 0.015625)"/>
     </g>
    </g>
   </g>
   <g id="patch_3">
    <path d="M 67.327768 242.124 
L 67.327768 10.8 
" style="fill: none; stroke: #000000; stroke-width: 1.5; stroke-linejoin: miter; stroke-linecap: square"/>
   </g>
   <g id="patch_4">
    <path d="M 421.2 242.124 
L 421.2 10.8 
" style="fill: none; stroke: #000000; stroke-width: 1.5; stroke-linejoin: miter; stroke-linecap: square"/>
   </g>
   <g id="patch_5">
    <path d="M 67.327768 242.124 
L 421.2 242.124 
" style="fill: none; stroke: #000000; stroke-width: 1.5; stroke-linejoin: miter; stroke-linecap: square"/>
   </g>
   <g id="patch_6">
    <path d="M 67.327768 10.8 
L 421.2 10.8 
" style="fill: none; stroke: #000000; stroke-width: 1.5; stroke-linejoin: miter; stroke-linecap: square"/>
   </g>
   <g id="PolyCollection_1">
    <path d="M 233.725428 57.490802 
L 233.725428 58.575178 
L 244.532382 59.695695 
L 245.363686 60.141103 
L 266.977593 65.288571 
L 267.808897 66.101699 
L 268.640202 65.611418 
L 269.471506 65.680089 
L 270.30281 64.327496 
L 271.134114 65.478988 
L 271.965418 74.423936 
L 272.796722 72.569313 
L 281.109763 73.733033 
L 281.941067 76.791283 
L 282.772372 86.243247 
L 283.603676 91.983007 
L 284.43498 119.231897 
L 285.266284 93.767424 
L 286.097588 92.217227 
L 286.928892 97.765768 
L 287.760196 105.619782 
L 288.5915 100.976954 
L 289.422805 92.021234 
L 290.254109 91.39644 
L 291.085413 91.679288 
L 291.916717 91.905666 
L 292.748021 92.679572 
L 293.579325 112.27036 
L 294.410629 95.454896 
L 295.241933 92.619985 
L 296.073238 92.140512 
L 296.904542 94.277489 
L 297.735846 96.865044 
L 298.56715 95.034095 
L 299.398454 92.840291 
L 300.229758 93.300245 
L 301.061062 90.082178 
L 301.892366 94.874833 
L 302.723671 97.276183 
L 303.554975 95.811249 
L 304.386279 95.587895 
L 305.217583 95.341566 
L 306.048887 98.532544 
L 306.880191 99.160954 
L 307.711495 100.751092 
L 308.542799 101.672107 
L 309.374104 97.663228 
L 310.205408 97.01259 
L 311.036712 96.92894 
L 311.868016 93.497011 
L 312.69932 94.049516 
L 313.530624 94.268409 
L 314.361928 94.331702 
L 315.193232 96.571862 
L 316.024536 96.213298 
L 316.855841 96.061743 
L 317.687145 103.476879 
L 318.518449 104.540897 
L 319.349753 105.784478 
L 320.181057 103.469926 
L 321.012361 100.072158 
L 321.843665 102.380656 
L 322.674969 103.993049 
L 323.506274 105.77318 
L 324.337578 99.682015 
L 325.168882 102.826968 
L 326.000186 102.182019 
L 326.83149 100.907125 
L 327.662794 102.150377 
L 328.494098 108.979167 
L 329.325402 26629.79978 
L 330.156707 26629.79978 
L 330.988011 97.165167 
L 331.819315 26629.79978 
L 332.650619 109.341272 
L 333.481923 99.119187 
L 334.313227 96.79399 
L 335.144531 100.737949 
L 335.975835 100.375489 
L 336.80714 100.043521 
L 337.638444 96.438471 
L 338.469748 97.750141 
L 339.301052 97.593305 
L 340.132356 98.253196 
L 340.96366 94.00391 
L 341.794964 97.478643 
L 342.626268 96.647155 
L 343.457573 97.435514 
L 344.288877 100.859268 
L 345.120181 26629.79978 
L 345.951485 100.360394 
L 346.782789 107.124481 
L 347.614093 105.655709 
L 348.445397 96.994476 
L 349.276701 107.225899 
L 350.108005 26629.79978 
L 350.93931 113.809858 
L 351.770614 101.324806 
L 352.601918 100.62375 
L 353.433222 115.474286 
L 354.264526 105.104459 
L 355.09583 98.573734 
L 355.927134 100.690747 
L 356.758438 99.747908 
L 357.589743 102.779103 
L 358.421047 97.745203 
L 359.252351 101.554601 
L 360.083655 105.705143 
L 360.914959 96.963516 
L 361.746263 107.597075 
L 362.577567 99.820116 
L 363.408871 102.104768 
L 364.240176 117.854416 
L 365.07148 103.899924 
L 365.902784 106.125288 
L 366.734088 98.870929 
L 367.565392 95.068407 
L 368.396696 95.620489 
L 369.228 94.422257 
L 370.059304 98.105186 
L 370.890609 102.142663 
L 371.721913 100.036608 
L 372.553217 102.210726 
L 373.384521 99.01339 
L 374.215825 98.319293 
L 375.047129 99.912 
L 375.878433 112.265226 
L 376.709737 103.938169 
L 377.541041 26629.79978 
L 378.372346 109.869363 
L 379.20365 95.938771 
L 380.034954 94.210335 
L 380.866258 100.318017 
L 381.697562 100.576701 
L 382.528866 93.960943 
L 383.36017 95.24784 
L 384.191474 98.096244 
L 385.022779 95.134164 
L 385.854083 95.643809 
L 386.685387 97.52777 
L 387.516691 98.467816 
L 388.347995 99.260454 
L 389.179299 100.531133 
L 390.010603 101.896493 
L 390.841907 101.389925 
L 391.673212 99.028233 
L 392.504516 103.422334 
L 393.33582 110.890269 
L 394.167124 117.684919 
L 394.998428 113.817899 
L 395.829732 112.868547 
L 396.661036 112.375404 
L 397.49234 126.523421 
L 398.323645 120.032948 
L 399.154949 101.646759 
L 399.986253 103.729844 
L 400.817557 123.789674 
L 401.648861 115.277531 
L 402.480165 111.232059 
L 403.311469 113.596829 
L 404.142773 98.157593 
L 404.142773 89.991948 
L 404.142773 89.991948 
L 403.311469 81.399504 
L 402.480165 81.189004 
L 401.648861 82.989216 
L 400.817557 82.426127 
L 399.986253 87.914811 
L 399.154949 90.425198 
L 398.323645 84.524218 
L 397.49234 84.758967 
L 396.661036 86.871357 
L 395.829732 83.030241 
L 394.998428 82.019597 
L 394.167124 82.629686 
L 393.33582 83.064001 
L 392.504516 81.017536 
L 391.673212 81.355866 
L 390.841907 78.212905 
L 390.010603 81.244035 
L 389.179299 79.06586 
L 388.347995 80.112489 
L 387.516691 82.986088 
L 386.685387 81.226537 
L 385.854083 81.936881 
L 385.022779 82.201034 
L 384.191474 82.475764 
L 383.36017 89.223909 
L 382.528866 89.126755 
L 381.697562 78.847075 
L 380.866258 77.900772 
L 380.034954 74.566906 
L 379.20365 79.132643 
L 378.372346 77.251267 
L 377.541041 83.205158 
L 376.709737 86.297161 
L 375.878433 83.628162 
L 375.047129 86.407961 
L 374.215825 86.851124 
L 373.384521 88.066776 
L 372.553217 88.623123 
L 371.721913 90.003161 
L 370.890609 87.838784 
L 370.059304 89.168797 
L 369.228 89.204842 
L 368.396696 85.570302 
L 367.565392 83.667769 
L 366.734088 89.616553 
L 365.902784 90.450723 
L 365.07148 91.713046 
L 364.240176 88.883185 
L 363.408871 92.115045 
L 362.577567 91.56475 
L 361.746263 86.736569 
L 360.914959 89.578761 
L 360.083655 86.554838 
L 359.252351 87.584753 
L 358.421047 89.585275 
L 357.589743 86.175779 
L 356.758438 91.221253 
L 355.927134 92.448707 
L 355.09583 94.251728 
L 354.264526 88.996941 
L 353.433222 84.171371 
L 352.601918 88.993077 
L 351.770614 89.37227 
L 350.93931 85.505021 
L 350.108005 81.545618 
L 349.276701 87.111857 
L 348.445397 91.352966 
L 347.614093 85.416671 
L 346.782789 86.076931 
L 345.951485 89.351892 
L 345.120181 80.758769 
L 344.288877 87.017538 
L 343.457573 90.476657 
L 342.626268 89.996267 
L 341.794964 88.056757 
L 340.96366 83.342545 
L 340.132356 86.998716 
L 339.301052 87.362995 
L 338.469748 88.674988 
L 337.638444 89.949488 
L 336.80714 87.024687 
L 335.975835 85.459403 
L 335.144531 88.194541 
L 334.313227 85.715244 
L 333.481923 87.972829 
L 332.650619 83.25849 
L 331.819315 72.798517 
L 330.988011 88.046977 
L 330.156707 81.718144 
L 329.325402 81.312364 
L 328.494098 82.085718 
L 327.662794 81.844263 
L 326.83149 83.437047 
L 326.000186 83.948024 
L 325.168882 84.541165 
L 324.337578 82.266642 
L 323.506274 82.25205 
L 322.674969 82.257827 
L 321.843665 82.327088 
L 321.012361 81.990678 
L 320.181057 82.20887 
L 319.349753 82.905679 
L 318.518449 87.594938 
L 317.687145 85.484024 
L 316.855841 83.107912 
L 316.024536 83.08163 
L 315.193232 83.259314 
L 314.361928 83.292578 
L 313.530624 84.129823 
L 312.69932 84.015767 
L 311.868016 83.205842 
L 311.036712 85.37855 
L 310.205408 86.374487 
L 309.374104 85.986701 
L 308.542799 84.332837 
L 307.711495 83.744121 
L 306.880191 81.222153 
L 306.048887 83.70482 
L 305.217583 84.848349 
L 304.386279 85.245164 
L 303.554975 84.674173 
L 302.723671 84.545022 
L 301.892366 89.447651 
L 301.061062 79.974035 
L 300.229758 82.648973 
L 299.398454 85.012108 
L 298.56715 84.88102 
L 297.735846 82.450198 
L 296.904542 85.384086 
L 296.073238 87.590258 
L 295.241933 89.067208 
L 294.410629 88.182707 
L 293.579325 81.493503 
L 292.748021 89.237896 
L 291.916717 88.002603 
L 291.085413 87.924197 
L 290.254109 88.08239 
L 289.422805 90.166092 
L 288.5915 74.155369 
L 287.760196 75.939864 
L 286.928892 85.81402 
L 286.097588 89.621181 
L 285.266284 92.139644 
L 284.43498 84.574859 
L 283.603676 88.251044 
L 282.772372 83.062811 
L 281.941067 73.053976 
L 281.109763 73.098327 
L 272.796722 69.87089 
L 271.965418 72.673055 
L 271.134114 64.238384 
L 270.30281 60.464088 
L 269.471506 62.981439 
L 268.640202 64.239183 
L 267.808897 64.269608 
L 266.977593 64.763434 
L 245.363686 58.028486 
L 244.532382 57.310841 
L 233.725428 57.490802 
z
" clip-path="url(#pd901b43175)" style="fill: #add8e6; stroke: #add8e6"/>
   </g>
   <g id="line2d_235">
    <path d="M 233.725428 58.020335 
L 244.532382 58.442143 
L 245.363686 59.03681 
L 267.808897 65.149554 
L 268.640202 64.905039 
L 269.471506 64.252533 
L 270.30281 62.235834 
L 271.134114 64.842124 
L 271.965418 73.515522 
L 272.796722 71.141884 
L 281.109763 73.411343 
L 281.941067 74.772899 
L 282.772372 84.544467 
L 283.603676 89.967721 
L 284.43498 92.0502 
L 285.266284 92.925031 
L 286.097588 90.846797 
L 286.928892 90.315478 
L 287.760196 83.120027 
L 288.5915 81.104486 
L 289.422805 91.05665 
L 290.254109 89.621571 
L 291.085413 89.65059 
L 291.916717 89.790891 
L 292.748021 90.831672 
L 293.579325 88.74928 
L 294.410629 91.25851 
L 295.241933 90.708232 
L 296.073238 89.643887 
L 296.904542 88.999306 
L 297.735846 87.551006 
L 298.56715 88.881393 
L 299.398454 88.278579 
L 300.229758 86.793771 
L 301.061062 83.961165 
L 301.892366 91.84698 
L 302.723671 89.246604 
L 303.554975 88.955603 
L 304.386279 89.301036 
L 305.217583 88.947803 
L 306.048887 88.896914 
L 306.880191 87.025112 
L 307.711495 89.37775 
L 308.542799 90.028129 
L 309.374104 90.415085 
L 310.205408 90.515523 
L 311.036712 89.773017 
L 311.868016 87.246689 
L 312.69932 87.980892 
L 313.530624 88.12593 
L 314.361928 87.546789 
L 315.193232 88.103761 
L 316.024536 87.882207 
L 316.855841 87.864849 
L 317.687145 91.296468 
L 318.518449 93.217088 
L 319.349753 89.43845 
L 320.181057 88.531206 
L 321.012361 87.818594 
L 321.843665 88.47501 
L 323.506274 88.861517 
L 324.337578 87.975855 
L 325.168882 90.404382 
L 326.83149 89.156221 
L 327.662794 88.029957 
L 328.494098 89.041304 
L 329.325402 89.738878 
L 330.988011 91.733063 
L 331.819315 84.352145 
L 332.650619 90.138936 
L 333.481923 92.25683 
L 334.313227 89.980485 
L 335.144531 92.848825 
L 335.975835 90.670707 
L 337.638444 92.746433 
L 338.469748 92.347579 
L 339.301052 91.386047 
L 340.132356 91.312552 
L 340.96366 87.490223 
L 341.794964 91.8371 
L 342.626268 92.851853 
L 343.457573 93.442351 
L 344.288877 91.987389 
L 345.120181 88.994938 
L 345.951485 93.59756 
L 346.782789 92.369548 
L 347.614093 91.592401 
L 348.445397 93.834391 
L 349.276701 93.268888 
L 350.108005 89.630233 
L 350.93931 92.580543 
L 351.770614 93.873935 
L 352.601918 93.409162 
L 353.433222 91.461113 
L 354.264526 94.456312 
L 355.09583 96.212774 
L 355.927134 95.853232 
L 356.758438 94.718826 
L 357.589743 91.732551 
L 358.421047 92.96267 
L 359.252351 92.584312 
L 360.083655 92.56183 
L 360.914959 92.693652 
L 361.746263 93.002761 
L 362.577567 94.973666 
L 363.408871 96.067101 
L 364.240176 96.010849 
L 365.07148 96.275931 
L 365.902784 95.822273 
L 366.734088 93.345117 
L 367.565392 88.021618 
L 368.396696 89.540297 
L 369.228 91.522914 
L 370.059304 92.797641 
L 370.890609 92.914624 
L 371.721913 93.968197 
L 372.553217 93.533296 
L 374.215825 91.223337 
L 375.047129 91.298292 
L 375.878433 90.730024 
L 376.709737 92.047211 
L 377.541041 91.703576 
L 378.372346 84.619867 
L 379.20365 84.728301 
L 380.034954 80.651983 
L 380.866258 84.376084 
L 381.697562 85.233004 
L 382.528866 91.294048 
L 383.36017 91.849502 
L 384.191474 87.83616 
L 385.022779 86.952858 
L 386.685387 86.724361 
L 387.516691 88.317678 
L 388.347995 86.119104 
L 389.179299 85.416185 
L 390.010603 87.480402 
L 390.841907 84.78175 
L 391.673212 87.11154 
L 392.504516 87.491271 
L 393.33582 90.100342 
L 394.167124 90.123874 
L 394.998428 89.340032 
L 395.829732 90.221737 
L 396.661036 93.69518 
L 397.49234 92.492893 
L 398.323645 92.039134 
L 399.154949 94.729972 
L 399.986253 93.31514 
L 400.817557 90.149179 
L 401.648861 90.338824 
L 402.480165 88.394939 
L 403.311469 88.743783 
L 404.142773 93.371236 
L 404.142773 93.371236 
" clip-path="url(#pd901b43175)" style="fill: none; stroke: #1f77b4; stroke-width: 1.5; stroke-linecap: square"/>
   </g>
   <g id="line2d_236">
    <path d="M 83.41287 108.911225 
L 83.745774 118.160022 
L 84.078797 131.228712 
L 84.411701 231.609273 
L 84.744725 132.20112 
L 85.077748 117.625687 
L 86.076699 98.459524 
L 87.074455 82.967623 
L 88.073406 71.565235 
L 89.072357 63.307217 
L 90.070114 57.203619 
L 91.069065 52.573792 
L 92.066821 49.076259 
L 93.065772 46.409784 
L 94.063528 44.385103 
L 95.061284 42.848961 
L 96.060235 41.674201 
L 97.391373 40.566542 
L 98.721316 39.75196 
L 100.052455 39.200885 
L 101.383593 38.871192 
L 103.3803 38.68559 
L 106.373568 38.865568 
L 108.702462 39.164511 
L 115.023576 40.650449 
L 122.010259 42.650381 
L 125.336909 43.639852 
L 131.325836 45.43222 
L 133.986917 46.220863 
L 155.610145 52.069804 
L 157.606852 52.550588 
L 161.265689 53.436854 
L 163.926771 54.037805 
L 166.255665 54.582954 
L 170.913454 55.60693 
L 172.576779 55.976245 
L 192.204494 59.948814 
L 194.534583 60.378628 
L 197.521877 60.929492 
L 200.52112 61.458228 
L 202.851209 61.868569 
L 206.842234 62.544656 
L 208.837746 62.88547 
L 214.155129 63.73801 
L 215.828013 64.008225 
L 231.457535 66.253786 
L 233.787624 66.53681 
L 236.786867 66.902519 
L 240.108738 67.275249 
L 242.10425 67.491762 
L 247.421633 68.022038 
L 249.094517 68.193989 
L 259.072079 69.007533 
L 261.067591 69.146806 
L 264.724039 69.399455 
L 267.723282 69.565159 
L 271.045152 69.794102 
L 274.044395 69.965067 
L 276.374484 70.122805 
L 279.027201 70.288864 
L 282.683649 70.558483 
L 285.013738 70.720142 
L 303.319875 72.71113 
L 305.972592 73.114252 
L 308.302681 73.456116 
L 322.94042 75.979472 
L 324.601356 76.247862 
L 329.261534 76.969076 
L 333.252559 77.497476 
L 336.251802 77.97817 
L 338.581891 78.315021 
L 341.569185 78.755837 
L 344.568428 79.129127 
L 346.898517 79.408543 
L 355.53777 80.055512 
L 359.540744 80.171971 
L 361.20168 80.216022 
L 362.862615 80.26219 
L 382.49511 80.424404 
L 387.477916 80.155797 
L 399.450989 79.56506 
L 404.445745 79.468795 
L 404.780322 79.480784 
L 404.780322 79.480784 
" clip-path="url(#pd901b43175)" style="fill: none; stroke: #000000; stroke-width: 2.5; stroke-linecap: square"/>
   </g>
   <g id="line2d_237">
    <path d="M 83.41287 29.936476 
L 83.745774 26.661783 
L 84.411701 23.244009 
L 84.744725 22.302209 
L 85.077748 21.767271 
L 85.409935 21.450739 
L 85.743317 21.314727 
L 86.408886 21.435699 
L 87.074455 21.827914 
L 88.406788 22.987804 
L 93.065772 27.30048 
L 94.729097 28.782856 
L 103.3803 36.166726 
L 110.033601 40.82966 
L 115.356958 44.040597 
L 119.015796 45.984985 
L 124.67134 48.736169 
L 132.323592 51.992061 
L 142.636925 55.722418 
L 160.933502 61.147876 
L 165.257909 62.242918 
L 167.254616 62.753751 
L 184.885624 66.690346 
L 187.214518 67.1507 
L 190.541169 67.817447 
L 193.865429 68.43187 
L 196.530095 68.945206 
L 200.855697 69.714279 
L 202.851209 70.073896 
L 207.834015 70.920753 
L 209.5069 71.203235 
L 239.439584 75.702195 
L 241.435096 75.958859 
L 246.429851 76.627685 
L 248.75994 76.909733 
L 253.085542 77.476306 
L 255.738259 77.784014 
L 259.406656 78.247227 
L 262.059373 78.555498 
L 265.058615 78.915883 
L 268.057858 79.249813 
L 270.375998 79.533276 
L 273.709818 79.892596 
L 276.374484 80.20199 
L 280.030932 80.587246 
L 282.361021 80.844541 
L 286.352046 81.255735 
L 288.682135 81.513585 
L 293.330364 81.976098 
L 295.325876 82.182116 
L 300.320632 82.670573 
L 302.316144 82.87687 
L 308.302681 83.442579 
L 310.298193 83.649157 
L 318.280242 84.369092 
L 319.953127 84.523562 
L 331.9262 85.578962 
L 333.587136 85.733713 
L 347.555721 86.891562 
L 349.216657 87.046862 
L 403.119386 91.085892 
L 404.780322 91.188026 
L 405.114899 91.21396 
L 405.114899 91.21396 
" clip-path="url(#pd901b43175)" style="fill: none; stroke-dasharray: 9.25,4; stroke-dashoffset: 0; stroke: #8b0000; stroke-width: 2.5"/>
   </g>
   <g id="legend_1">
    <g id="line2d_238">
     <path d="M 333.95625 23.898438 
L 343.95625 23.898438 
L 353.95625 23.898438 
" style="fill: none; stroke: #1f77b4; stroke-width: 1.5; stroke-linecap: square"/>
    </g>
    <g id="text_20">
     <!-- PSP -->
     <g transform="translate(361.95625 27.398438)scale(0.1 -0.1)">
      <defs>
       <path id="DejaVuSans-53" d="M 3425 4513 
L 3425 3897 
Q 3066 4069 2747 4153 
Q 2428 4238 2131 4238 
Q 1616 4238 1336 4038 
Q 1056 3838 1056 3469 
Q 1056 3159 1242 3001 
Q 1428 2844 1947 2747 
L 2328 2669 
Q 3034 2534 3370 2195 
Q 3706 1856 3706 1288 
Q 3706 609 3251 259 
Q 2797 -91 1919 -91 
Q 1588 -91 1214 -16 
Q 841 59 441 206 
L 441 856 
Q 825 641 1194 531 
Q 1563 422 1919 422 
Q 2459 422 2753 634 
Q 3047 847 3047 1241 
Q 3047 1584 2836 1778 
Q 2625 1972 2144 2069 
L 1759 2144 
Q 1053 2284 737 2584 
Q 422 2884 422 3419 
Q 422 4038 858 4394 
Q 1294 4750 2059 4750 
Q 2388 4750 2728 4690 
Q 3069 4631 3425 4513 
z
" transform="scale(0.015625)"/>
      </defs>
      <use xlink:href="#DejaVuSans-50"/>
      <use xlink:href="#DejaVuSans-53" x="60.302734"/>
      <use xlink:href="#DejaVuSans-50" x="123.779297"/>
     </g>
    </g>
    <g id="line2d_239">
     <path d="M 333.95625 38.576562 
L 343.95625 38.576562 
L 353.95625 38.576562 
" style="fill: none; stroke: #000000; stroke-width: 2.5; stroke-linecap: square"/>
    </g>
    <g id="text_21">
     <!-- Slow wind -->
     <g transform="translate(361.95625 42.076562)scale(0.1 -0.1)">
      <defs>
       <path id="DejaVuSans-6c" d="M 603 4863 
L 1178 4863 
L 1178 0 
L 603 0 
L 603 4863 
z
" transform="scale(0.015625)"/>
       <path id="DejaVuSans-6f" d="M 1959 3097 
Q 1497 3097 1228 2736 
Q 959 2375 959 1747 
Q 959 1119 1226 758 
Q 1494 397 1959 397 
Q 2419 397 2687 759 
Q 2956 1122 2956 1747 
Q 2956 2369 2687 2733 
Q 2419 3097 1959 3097 
z
M 1959 3584 
Q 2709 3584 3137 3096 
Q 3566 2609 3566 1747 
Q 3566 888 3137 398 
Q 2709 -91 1959 -91 
Q 1206 -91 779 398 
Q 353 888 353 1747 
Q 353 2609 779 3096 
Q 1206 3584 1959 3584 
z
" transform="scale(0.015625)"/>
       <path id="DejaVuSans-77" d="M 269 3500 
L 844 3500 
L 1563 769 
L 2278 3500 
L 2956 3500 
L 3675 769 
L 4391 3500 
L 4966 3500 
L 4050 0 
L 3372 0 
L 2619 2869 
L 1863 0 
L 1184 0 
L 269 3500 
z
" transform="scale(0.015625)"/>
       <path id="DejaVuSans-64" d="M 2906 2969 
L 2906 4863 
L 3481 4863 
L 3481 0 
L 2906 0 
L 2906 525 
Q 2725 213 2448 61 
Q 2172 -91 1784 -91 
Q 1150 -91 751 415 
Q 353 922 353 1747 
Q 353 2572 751 3078 
Q 1150 3584 1784 3584 
Q 2172 3584 2448 3432 
Q 2725 3281 2906 2969 
z
M 947 1747 
Q 947 1113 1208 752 
Q 1469 391 1925 391 
Q 2381 391 2643 752 
Q 2906 1113 2906 1747 
Q 2906 2381 2643 2742 
Q 2381 3103 1925 3103 
Q 1469 3103 1208 2742 
Q 947 2381 947 1747 
z
" transform="scale(0.015625)"/>
      </defs>
      <use xlink:href="#DejaVuSans-53"/>
      <use xlink:href="#DejaVuSans-6c" x="63.476562"/>
      <use xlink:href="#DejaVuSans-6f" x="91.259766"/>
      <use xlink:href="#DejaVuSans-77" x="152.441406"/>
      <use xlink:href="#DejaVuSans-20" x="234.228516"/>
      <use xlink:href="#DejaVuSans-77" x="266.015625"/>
      <use xlink:href="#DejaVuSans-69" x="347.802734"/>
      <use xlink:href="#DejaVuSans-6e" x="375.585938"/>
      <use xlink:href="#DejaVuSans-64" x="438.964844"/>
     </g>
    </g>
    <g id="line2d_240">
     <path d="M 333.95625 53.254687 
L 343.95625 53.254687 
L 353.95625 53.254687 
" style="fill: none; stroke-dasharray: 9.25,4; stroke-dashoffset: 0; stroke: #8b0000; stroke-width: 2.5"/>
    </g>
    <g id="text_22">
     <!-- Fast wind -->
     <g transform="translate(361.95625 56.754687)scale(0.1 -0.1)">
      <defs>
       <path id="DejaVuSans-46" d="M 628 4666 
L 3309 4666 
L 3309 4134 
L 1259 4134 
L 1259 2759 
L 3109 2759 
L 3109 2228 
L 1259 2228 
L 1259 0 
L 628 0 
L 628 4666 
z
" transform="scale(0.015625)"/>
      </defs>
      <use xlink:href="#DejaVuSans-46"/>
      <use xlink:href="#DejaVuSans-61" x="48.394531"/>
      <use xlink:href="#DejaVuSans-73" x="109.673828"/>
      <use xlink:href="#DejaVuSans-74" x="161.773438"/>
      <use xlink:href="#DejaVuSans-20" x="200.982422"/>
      <use xlink:href="#DejaVuSans-77" x="232.769531"/>
      <use xlink:href="#DejaVuSans-69" x="314.556641"/>
      <use xlink:href="#DejaVuSans-6e" x="342.339844"/>
      <use xlink:href="#DejaVuSans-64" x="405.71875"/>
     </g>
    </g>
   </g>
  </g>
 </g>
 <defs>
  <clipPath id="pd901b43175">
   <rect x="67.327768" y="10.8" width="353.872232" height="231.324"/>
  </clipPath>
 </defs>
</svg>
