<?xml version="1.0" encoding="utf-8" standalone="no"?>
<!DOCTYPE svg PUBLIC "-//W3C//DTD SVG 1.1//EN"
  "http://www.w3.org/Graphics/SVG/1.1/DTD/svg11.dtd">
<svg xmlns:xlink="http://www.w3.org/1999/xlink" width="432pt" height="288pt" viewBox="0 0 432 288" xmlns="http://www.w3.org/2000/svg" version="1.1">
 <metadata>
  <rdf:RDF xmlns:dc="http://purl.org/dc/elements/1.1/" xmlns:cc="http://creativecommons.org/ns#" xmlns:rdf="http://www.w3.org/1999/02/22-rdf-syntax-ns#">
   <cc:Work>
    <dc:type rdf:resource="http://purl.org/dc/dcmitype/StillImage"/>
    <dc:date>2022-11-23T14:47:59.723961</dc:date>
    <dc:format>image/svg+xml</dc:format>
    <dc:creator>
     <cc:Agent>
      <dc:title>Matplotlib v3.6.2, https://matplotlib.org/</dc:title>
     </cc:Agent>
    </dc:creator>
   </cc:Work>
  </rdf:RDF>
 </metadata>
 <defs>
  <style type="text/css">*{stroke-linejoin: round; stroke-linecap: butt}</style>
 </defs>
 <g id="figure_1">
  <g id="patch_1">
   <path d="M 0 288 
L 432 288 
L 432 0 
L 0 0 
z
" style="fill: #ffffff"/>
  </g>
  <g id="axes_1">
   <g id="patch_2">
    <path d="M 67.327768 242.124 
L 421.2 242.124 
L 421.2 10.8 
L 67.327768 10.8 
z
" style="fill: #ffffff"/>
   </g>
   <g id="patch_3">
    <path d="M 67.327768 242.124 
L 67.327768 10.8 
" style="fill: none; stroke: #000000; stroke-width: 1.5; stroke-linejoin: miter; stroke-linecap: square"/>
   </g>
   <g id="patch_4">
    <path d="M 421.2 242.124 
L 421.2 10.8 
" style="fill: none; stroke: #000000; stroke-width: 1.5; stroke-linejoin: miter; stroke-linecap: square"/>
   </g>
   <g id="patch_5">
    <path d="M 67.327768 242.124 
L 421.2 242.124 
" style="fill: none; stroke: #000000; stroke-width: 1.5; stroke-linejoin: miter; stroke-linecap: square"/>
   </g>
   <g id="patch_6">
    <path d="M 67.327768 10.8 
L 421.2 10.8 
" style="fill: none; stroke: #000000; stroke-width: 1.5; stroke-linejoin: miter; stroke-linecap: square"/>
   </g>
   <g id="PolyCollection_1">
    <path d="M 233.760844 58.06029 
L 233.760844 59.123004 
L 244.632309 60.15697 
L 245.377779 60.627066 
L 266.558992 65.191684 
L 268.033396 65.943865 
L 268.08059 65.518064 
L 269.112966 65.742666 
L 269.952264 64.291099 
L 270.692994 65.348918 
L 272.127903 73.82105 
L 272.392519 71.808344 
L 281.085598 72.899751 
L 281.713779 75.80018 
L 282.581003 84.89342 
L 283.750235 89.415132 
L 284.421969 114.119751 
L 285.098646 91.008743 
L 285.924274 89.602491 
L 286.755657 94.635819 
L 287.614093 101.762163 
L 288.382963 97.498147 
L 289.243143 89.425044 
L 290.074287 88.85906 
L 290.920879 89.113438 
L 291.765872 89.32004 
L 292.559767 90.022798 
L 293.384177 107.812236 
L 294.477811 92.537397 
L 295.060242 89.967996 
L 295.871973 89.533286 
L 296.790558 91.472637 
L 297.571104 93.817932 
L 298.436632 92.15904 
L 299.214863 90.164791 
L 300.00465 90.586264 
L 300.755707 87.664315 
L 301.712544 92.013858 
L 302.598607 94.192067 
L 303.415878 92.861845 
L 304.235011 92.662701 
L 304.989435 92.438865 
L 305.790875 95.327421 
L 306.694464 95.91021 
L 307.522122 97.347422 
L 308.34381 98.178253 
L 309.16705 94.543591 
L 310.084465 93.953291 
L 310.823368 93.878757 
L 311.698137 90.767605 
L 312.506716 91.264997 
L 313.318447 91.466236 
L 314.179606 91.519562 
L 315.009293 93.556424 
L 315.794376 93.230404 
L 316.649995 93.092714 
L 317.461726 99.821115 
L 318.308653 100.785917 
L 319.139104 101.908067 
L 319.975334 99.819477 
L 320.827586 96.687676 
L 321.623414 98.805274 
L 322.445676 100.250481 
L 323.303324 101.88133 
L 324.118565 96.32719 
L 324.962985 99.22879 
L 325.782309 98.631859 
L 326.617918 97.468488 
L 327.392925 98.617725 
L 328.103222 104.841162 
L 329.239001 24164.882595 
L 329.947961 24164.882595 
L 330.748446 94.089779 
L 331.604781 24164.882595 
L 332.490128 105.132533 
L 333.250258 95.876051 
L 334.089616 93.755851 
L 334.933344 97.332472 
L 335.747486 96.999952 
L 336.562417 96.702614 
L 337.433533 93.430449 
L 338.244499 94.623723 
L 339.076598 94.482782 
L 339.905736 95.077188 
L 340.739722 91.220199 
L 341.599471 94.368331 
L 342.413256 93.615339 
L 343.231004 94.333892 
L 344.061288 97.438425 
L 344.921897 24164.882595 
L 345.719827 97.060316 
L 346.542709 103.116045 
L 347.364612 101.792952 
L 348.214094 93.936713 
L 349.040319 103.215999 
L 349.902719 24164.882595 
L 350.723452 109.294189 
L 351.55918 97.860605 
L 352.34233 97.225478 
L 353.189925 110.881492 
L 354.021785 101.302506 
L 354.857251 95.376559 
L 355.69754 97.287763 
L 356.527418 96.434022 
L 357.345811 99.195129 
L 358.203555 94.61511 
L 359.061418 98.071452 
L 359.849128 101.832831 
L 360.674637 93.908374 
L 361.511225 103.579444 
L 362.275439 96.500954 
L 363.199683 98.571696 
L 363.979704 113.320739 
L 364.811707 100.191854 
L 365.650516 102.209626 
L 366.510815 95.63955 
L 367.320898 92.188393 
L 368.109921 92.689176 
L 368.97342 91.600297 
L 369.814926 94.954014 
L 370.605621 98.603915 
L 371.477978 96.690845 
L 372.289757 98.662888 
L 373.140218 95.765764 
L 373.997962 95.127342 
L 374.787152 96.586595 
L 375.653444 107.774648 
L 376.431698 100.245555 
L 377.303697 24164.882595 
L 378.143676 105.620521 
L 378.920067 92.965198 
L 379.732228 91.416763 
L 380.622064 96.973276 
L 381.342486 97.183293 
L 382.33003 91.182635 
L 383.101909 92.356046 
L 384.050007 94.934203 
L 384.772458 92.248853 
L 385.594505 92.714687 
L 386.419965 94.413536 
L 387.250608 95.270599 
L 388.101642 95.966733 
L 388.936105 97.162189 
L 389.765577 98.387299 
L 390.56451 97.923232 
L 391.375548 95.780811 
L 392.259414 99.764907 
L 393.074847 106.538128 
L 393.902982 112.713918 
L 394.741002 109.187969 
L 395.557581 108.337639 
L 396.376857 107.878388 
L 397.237801 120.912628 
L 398.033414 114.873016 
L 398.893784 98.153204 
L 399.721537 100.038613 
L 400.539787 118.299328 
L 401.385568 110.536429 
L 402.204224 106.849932 
L 403.018175 108.993506 
L 403.87728 94.991991 
L 404.71351 107.218139 
L 404.71351 80.645786 
L 404.71351 80.645786 
L 403.87728 87.583492 
L 403.018175 79.775893 
L 402.204224 79.590892 
L 401.385568 81.228128 
L 400.539787 80.711229 
L 399.721537 85.702121 
L 398.893784 87.978507 
L 398.033414 82.617248 
L 397.237801 82.819355 
L 396.376857 84.756219 
L 395.557581 81.261221 
L 394.741002 80.344541 
L 393.902982 80.892792 
L 393.074847 81.301152 
L 392.259414 79.437638 
L 391.375548 79.737229 
L 390.56451 76.892596 
L 389.765577 79.643535 
L 388.936105 77.671659 
L 388.101642 78.607446 
L 387.250608 81.2242 
L 386.419965 79.626584 
L 385.594505 80.27203 
L 384.772458 80.512665 
L 384.050007 80.764593 
L 383.101909 86.888389 
L 382.33003 86.796965 
L 381.342486 77.472775 
L 380.622064 76.621116 
L 379.732228 73.586819 
L 378.920067 77.727025 
L 378.143676 76.023096 
L 377.303697 81.410614 
L 376.431698 84.222768 
L 375.653444 81.812398 
L 374.787152 84.33356 
L 373.997962 84.732648 
L 373.140218 85.832837 
L 372.289757 86.340096 
L 371.477978 87.590421 
L 370.605621 85.633307 
L 369.814926 86.838498 
L 368.97342 86.86458 
L 368.109921 83.571913 
L 367.320898 81.84907 
L 366.510815 87.243433 
L 365.650516 87.998509 
L 364.811707 89.141531 
L 363.979704 86.520465 
L 363.199683 89.512045 
L 362.275439 89.007939 
L 361.511225 84.619698 
L 360.674637 87.208699 
L 359.849128 84.468478 
L 359.061418 85.401957 
L 358.203555 87.213897 
L 357.345811 84.123834 
L 356.527418 88.698515 
L 355.69754 89.813689 
L 354.857251 91.446317 
L 354.021785 86.686137 
L 353.189925 82.259258 
L 352.34233 86.676738 
L 351.55918 87.022589 
L 350.723452 83.475508 
L 349.902719 79.900101 
L 349.040319 84.972694 
L 348.214094 88.820094 
L 347.364612 83.434484 
L 346.542709 84.035808 
L 345.719827 86.964241 
L 344.921897 79.191095 
L 344.061288 84.881236 
L 343.231004 88.022748 
L 342.413256 87.584188 
L 341.599471 85.826164 
L 340.739722 81.549765 
L 339.905736 84.864967 
L 339.076598 85.185106 
L 338.244499 86.384881 
L 337.433533 87.538396 
L 336.562417 84.881468 
L 335.747486 83.466126 
L 334.933344 85.953148 
L 334.089616 83.694375 
L 333.250258 85.735189 
L 332.490128 81.471945 
L 331.604781 71.953461 
L 330.748446 85.817699 
L 329.947961 79.991275 
L 329.239001 79.711122 
L 328.103222 80.411463 
L 327.392925 80.197011 
L 326.617918 81.630808 
L 325.782309 82.093609 
L 324.962985 82.634091 
L 324.118565 80.557222 
L 323.303324 80.55705 
L 322.445676 80.550229 
L 321.623414 80.621723 
L 320.827586 80.31535 
L 319.975334 80.522514 
L 319.139104 81.15172 
L 318.308653 85.407919 
L 317.461726 83.494037 
L 316.649995 81.333474 
L 315.794376 81.312597 
L 315.009293 81.472427 
L 314.179606 81.50497 
L 313.318447 82.263088 
L 312.506716 82.161466 
L 311.698137 81.426378 
L 310.823368 83.397466 
L 310.084465 84.300844 
L 309.16705 83.948992 
L 308.34381 82.448529 
L 307.522122 81.914514 
L 306.694464 79.628646 
L 305.790875 81.87906 
L 304.989435 82.917645 
L 304.235011 83.277108 
L 303.415878 82.759618 
L 302.598607 82.638974 
L 301.712544 87.089144 
L 300.755707 78.493715 
L 300.00465 80.924047 
L 299.214863 83.062463 
L 298.436632 82.946131 
L 297.571104 80.741598 
L 296.790558 83.402979 
L 295.871973 85.404082 
L 295.060242 86.744116 
L 294.477811 85.940447 
L 293.384177 79.87223 
L 292.559767 86.899804 
L 291.765872 85.77821 
L 290.920879 85.706701 
L 290.074287 85.851139 
L 289.243143 87.741663 
L 288.382963 73.210714 
L 287.614093 74.827637 
L 286.755657 83.792717 
L 285.924274 87.246777 
L 285.098646 89.531921 
L 284.421969 82.668679 
L 283.750235 85.985562 
L 282.581003 80.787046 
L 281.713779 72.079562 
L 281.085598 72.194433 
L 272.392519 69.304762 
L 272.127903 71.570398 
L 270.692994 64.148694 
L 269.952264 60.786783 
L 269.112966 62.911401 
L 268.08059 64.173143 
L 268.033396 64.218747 
L 266.558992 64.677089 
L 245.377779 58.482765 
L 244.632309 57.886995 
L 233.760844 58.06029 
z
" clip-path="url(#pc7d83564fc)" style="fill: #add8e6; stroke: #add8e6"/>
   </g>
   <g id="line2d_1">
    <path d="M 233.760844 58.57825 
L 244.632309 58.960951 
L 245.377779 59.500444 
L 266.558992 64.931244 
L 268.033396 65.046028 
L 268.08059 64.824153 
L 269.112966 64.23219 
L 269.952264 62.393876 
L 270.692994 64.73172 
L 272.127903 72.635725 
L 272.392519 70.482345 
L 281.085598 72.541189 
L 281.713779 73.77644 
L 282.581003 82.641379 
L 283.750235 87.561378 
L 284.421969 89.450884 
L 285.098646 90.244471 
L 285.924274 88.358915 
L 286.755657 87.876585 
L 287.614093 81.342196 
L 288.382963 79.510937 
L 289.243143 88.54976 
L 290.074287 87.248092 
L 291.765872 87.400952 
L 292.559767 88.345981 
L 293.384177 86.456015 
L 294.477811 88.730691 
L 295.060242 88.233194 
L 295.871973 87.267627 
L 296.790558 86.683214 
L 297.571104 85.368896 
L 298.436632 86.575885 
L 299.214863 86.026017 
L 300.00465 84.684048 
L 300.755707 82.110999 
L 301.712544 89.266272 
L 302.598607 86.905119 
L 303.415878 86.643381 
L 304.235011 86.957387 
L 304.989435 86.637197 
L 305.790875 86.588626 
L 306.694464 84.894445 
L 307.522122 87.026163 
L 308.34381 87.61525 
L 309.16705 87.966883 
L 310.084465 88.058054 
L 310.823368 87.384894 
L 311.698137 85.093731 
L 312.506716 85.758912 
L 313.318447 85.889968 
L 314.179606 85.364379 
L 315.009293 85.868986 
L 315.794376 85.668864 
L 316.649995 85.650847 
L 317.461726 88.767818 
L 318.308653 90.50924 
L 319.139104 87.078389 
L 319.975334 86.259419 
L 320.827586 85.59704 
L 321.623414 86.197798 
L 323.303324 86.551572 
L 324.118565 85.731313 
L 324.962985 87.954239 
L 326.617918 86.817248 
L 327.392925 85.808571 
L 328.103222 86.724503 
L 329.239001 87.353343 
L 329.947961 88.29088 
L 330.748446 89.161746 
L 331.604781 82.430661 
L 332.490128 87.713785 
L 333.250258 89.629642 
L 334.089616 87.566832 
L 334.933344 90.175522 
L 335.747486 88.194273 
L 336.562417 89.214078 
L 337.433533 90.077699 
L 338.244499 89.718508 
L 339.076598 88.839734 
L 339.905736 88.77909 
L 340.739722 85.312111 
L 341.599471 89.254053 
L 342.413256 90.173868 
L 343.231004 90.712549 
L 344.061288 89.389903 
L 344.921897 86.666167 
L 345.719827 90.846299 
L 346.542709 89.742539 
L 347.364612 89.036797 
L 348.214094 91.07073 
L 349.040319 90.557774 
L 349.902719 87.236962 
L 350.723452 89.905712 
L 351.55918 91.105118 
L 352.34233 90.682329 
L 353.189925 88.886622 
L 354.021785 91.639635 
L 354.857251 93.229181 
L 355.69754 92.901261 
L 356.527418 91.871564 
L 357.345811 89.166663 
L 358.203555 90.277391 
L 359.061418 89.936671 
L 359.849128 89.916644 
L 360.674637 90.034614 
L 361.511225 90.309421 
L 362.275439 92.101752 
L 363.199683 93.096465 
L 363.979704 93.025307 
L 364.811707 93.279545 
L 365.650516 92.869789 
L 366.510815 90.626169 
L 367.320898 85.79799 
L 368.109921 87.173429 
L 368.97342 88.968505 
L 369.814926 90.133263 
L 370.605621 90.23681 
L 371.477978 91.186946 
L 372.289757 90.79371 
L 373.997962 88.696632 
L 374.787152 88.770609 
L 375.653444 88.253923 
L 376.431698 89.442635 
L 377.303697 89.124878 
L 378.143676 82.708327 
L 378.920067 82.80185 
L 379.732228 79.108711 
L 380.622064 82.497501 
L 381.342486 83.265795 
L 382.33003 88.763175 
L 383.101909 89.271357 
L 384.050007 85.627308 
L 384.772458 84.824346 
L 386.419965 84.613942 
L 387.250608 86.061335 
L 388.101642 84.054795 
L 388.936105 83.435066 
L 389.765577 85.30235 
L 390.56451 82.852438 
L 391.375548 84.960822 
L 392.259414 85.310871 
L 393.074847 87.684004 
L 393.902982 87.692489 
L 394.741002 86.985476 
L 395.557581 87.785925 
L 396.376857 90.945342 
L 397.237801 89.841074 
L 398.033414 89.436757 
L 398.893784 91.882298 
L 399.721537 90.599106 
L 400.539787 87.719412 
L 401.385568 87.896725 
L 402.204224 86.128469 
L 403.018175 86.439183 
L 403.87728 90.649399 
L 404.71351 87.133866 
L 405.114899 92.943576 
L 405.114899 92.943576 
" clip-path="url(#pc7d83564fc)" style="fill: none; stroke: #1f77b4; stroke-width: 1.5; stroke-linecap: square"/>
   </g>
   <g id="line2d_2">
    <path d="M 83.41287 99.347864 
L 83.745489 115.166784 
L 84.078229 231.609273 
L 84.410849 118.138546 
L 84.743588 104.145852 
L 85.408231 89.945152 
L 87.07133 68.721947 
L 88.069429 60.455702 
L 89.067527 54.475424 
L 90.064432 50.148926 
L 91.06253 46.936352 
L 92.059435 44.553101 
L 93.057533 42.759637 
L 94.054438 41.379356 
L 95.051342 40.337754 
L 96.381344 39.328589 
L 97.711346 38.645359 
L 99.373252 38.135944 
L 101.368255 37.892974 
L 104.027065 37.943826 
L 108.348974 38.597344 
L 114.664693 40.11925 
L 122.974221 42.453425 
L 125.966128 43.316123 
L 143.583282 48.085275 
L 147.572094 49.07261 
L 167.846864 53.608852 
L 177.15449 55.437725 
L 187.457827 57.327333 
L 189.784734 57.715558 
L 193.436867 58.347839 
L 196.099259 58.784094 
L 198.76165 59.222593 
L 202.414977 59.793304 
L 204.743078 60.169574 
L 210.390214 61.009679 
L 212.384023 61.322049 
L 228.346434 63.536751 
L 239.306415 64.960562 
L 245.956425 65.777418 
L 247.950234 66.00414 
L 254.265953 66.756416 
L 256.594053 67.006712 
L 260.581671 67.464411 
L 262.909772 67.715758 
L 266.228807 68.085674 
L 268.891199 68.364684 
L 271.887882 68.690964 
L 274.872626 68.993517 
L 277.535018 69.273069 
L 280.854054 69.598648 
L 283.516445 69.878729 
L 287.169772 70.227856 
L 289.497873 70.4612 
L 293.485491 70.833875 
L 295.813591 71.067742 
L 300.469792 71.486473 
L 302.463601 71.673081 
L 307.442155 72.115879 
L 309.447903 72.303012 
L 317.088848 72.955275 
L 319.082657 73.142934 
L 327.057893 73.795548 
L 328.717411 73.935429 
L 338.029813 74.682231 
L 339.689331 74.822632 
L 352.98935 75.849898 
L 401.17506 79.18982 
L 402.846517 79.282781 
L 404.506035 79.400098 
L 404.506035 79.400098 
" clip-path="url(#pc7d83564fc)" style="fill: none; stroke: #000000; stroke-width: 2.5; stroke-linecap: square"/>
   </g>
   <g id="line2d_3">
    <path d="M 83.41287 26.345235 
L 83.745489 24.295428 
L 84.410849 22.20478 
L 84.743588 21.674696 
L 85.076327 21.414606 
L 85.408231 21.314727 
L 86.074426 21.450018 
L 87.07133 22.087845 
L 91.394434 25.737203 
L 99.706349 32.969809 
L 105.025163 36.855741 
L 112.66969 41.468325 
L 119.318506 44.800233 
L 123.639222 46.712699 
L 132.61375 50.19794 
L 142.25328 53.361566 
L 160.534241 58.253791 
L 164.856151 59.24945 
L 166.84996 59.713822 
L 186.460923 63.688238 
L 189.119733 64.153135 
L 192.11164 64.689133 
L 195.430676 65.247731 
L 198.093068 65.715037 
L 203.417851 66.553347 
L 205.41166 66.880523 
L 235.98738 71.152095 
L 237.981189 71.384683 
L 243.628325 72.085454 
L 245.622134 72.318721 
L 249.609752 72.785597 
L 251.937852 73.042138 
L 255.92547 73.5097 
L 258.587862 73.789188 
L 261.906898 74.163057 
L 264.903581 74.466153 
L 267.900264 74.793181 
L 270.885008 75.09662 
L 273.5474 75.37713 
L 277.200727 75.726458 
L 279.863119 76.007308 
L 283.850737 76.38025 
L 286.178837 76.614247 
L 290.500747 77.010803 
L 292.828847 77.24481 
L 299.132627 77.804606 
L 301.138375 77.991756 
L 308.110737 78.599109 
L 310.104546 78.786595 
L 317.75743 79.416601 
L 319.416948 79.556897 
L 328.38312 80.281342 
L 330.054576 80.421646 
L 397.187442 85.170744 
L 398.858899 85.263878 
L 404.840326 85.638683 
L 404.840326 85.638683 
" clip-path="url(#pc7d83564fc)" style="fill: none; stroke-dasharray: 9.25,4; stroke-dashoffset: 0; stroke: #8b0000; stroke-width: 2.5"/>
   </g>
   <g id="legend_1">
    <g id="line2d_4">
     <path d="M 333.95625 23.898438 
L 343.95625 23.898438 
L 353.95625 23.898438 
" style="fill: none; stroke: #1f77b4; stroke-width: 1.5; stroke-linecap: square"/>
    </g>
    <g id="text_1">
     <!-- PSP -->
     <g transform="translate(361.95625 27.398438) scale(0.1 -0.1)">
      <defs>
       <path id="DejaVuSans-50" d="M 1259 4147 
L 1259 2394 
L 2053 2394 
Q 2494 2394 2734 2622 
Q 2975 2850 2975 3272 
Q 2975 3691 2734 3919 
Q 2494 4147 2053 4147 
L 1259 4147 
z
M 628 4666 
L 2053 4666 
Q 2838 4666 3239 4311 
Q 3641 3956 3641 3272 
Q 3641 2581 3239 2228 
Q 2838 1875 2053 1875 
L 1259 1875 
L 1259 0 
L 628 0 
L 628 4666 
z
" transform="scale(0.015625)"/>
       <path id="DejaVuSans-53" d="M 3425 4513 
L 3425 3897 
Q 3066 4069 2747 4153 
Q 2428 4238 2131 4238 
Q 1616 4238 1336 4038 
Q 1056 3838 1056 3469 
Q 1056 3159 1242 3001 
Q 1428 2844 1947 2747 
L 2328 2669 
Q 3034 2534 3370 2195 
Q 3706 1856 3706 1288 
Q 3706 609 3251 259 
Q 2797 -91 1919 -91 
Q 1588 -91 1214 -16 
Q 841 59 441 206 
L 441 856 
Q 825 641 1194 531 
Q 1563 422 1919 422 
Q 2459 422 2753 634 
Q 3047 847 3047 1241 
Q 3047 1584 2836 1778 
Q 2625 1972 2144 2069 
L 1759 2144 
Q 1053 2284 737 2584 
Q 422 2884 422 3419 
Q 422 4038 858 4394 
Q 1294 4750 2059 4750 
Q 2388 4750 2728 4690 
Q 3069 4631 3425 4513 
z
" transform="scale(0.015625)"/>
      </defs>
      <use xlink:href="#DejaVuSans-50"/>
      <use xlink:href="#DejaVuSans-53" x="60.302734"/>
      <use xlink:href="#DejaVuSans-50" x="123.779297"/>
     </g>
    </g>
    <g id="line2d_5">
     <path d="M 333.95625 38.576562 
L 343.95625 38.576562 
L 353.95625 38.576562 
" style="fill: none; stroke: #000000; stroke-width: 2.5; stroke-linecap: square"/>
    </g>
    <g id="text_2">
     <!-- Slow wind -->
     <g transform="translate(361.95625 42.076562) scale(0.1 -0.1)">
      <defs>
       <path id="DejaVuSans-6c" d="M 603 4863 
L 1178 4863 
L 1178 0 
L 603 0 
L 603 4863 
z
" transform="scale(0.015625)"/>
       <path id="DejaVuSans-6f" d="M 1959 3097 
Q 1497 3097 1228 2736 
Q 959 2375 959 1747 
Q 959 1119 1226 758 
Q 1494 397 1959 397 
Q 2419 397 2687 759 
Q 2956 1122 2956 1747 
Q 2956 2369 2687 2733 
Q 2419 3097 1959 3097 
z
M 1959 3584 
Q 2709 3584 3137 3096 
Q 3566 2609 3566 1747 
Q 3566 888 3137 398 
Q 2709 -91 1959 -91 
Q 1206 -91 779 398 
Q 353 888 353 1747 
Q 353 2609 779 3096 
Q 1206 3584 1959 3584 
z
" transform="scale(0.015625)"/>
       <path id="DejaVuSans-77" d="M 269 3500 
L 844 3500 
L 1563 769 
L 2278 3500 
L 2956 3500 
L 3675 769 
L 4391 3500 
L 4966 3500 
L 4050 0 
L 3372 0 
L 2619 2869 
L 1863 0 
L 1184 0 
L 269 3500 
z
" transform="scale(0.015625)"/>
       <path id="DejaVuSans-20" transform="scale(0.015625)"/>
       <path id="DejaVuSans-69" d="M 603 3500 
L 1178 3500 
L 1178 0 
L 603 0 
L 603 3500 
z
M 603 4863 
L 1178 4863 
L 1178 4134 
L 603 4134 
L 603 4863 
z
" transform="scale(0.015625)"/>
       <path id="DejaVuSans-6e" d="M 3513 2113 
L 3513 0 
L 2938 0 
L 2938 2094 
Q 2938 2591 2744 2837 
Q 2550 3084 2163 3084 
Q 1697 3084 1428 2787 
Q 1159 2491 1159 1978 
L 1159 0 
L 581 0 
L 581 3500 
L 1159 3500 
L 1159 2956 
Q 1366 3272 1645 3428 
Q 1925 3584 2291 3584 
Q 2894 3584 3203 3211 
Q 3513 2838 3513 2113 
z
" transform="scale(0.015625)"/>
       <path id="DejaVuSans-64" d="M 2906 2969 
L 2906 4863 
L 3481 4863 
L 3481 0 
L 2906 0 
L 2906 525 
Q 2725 213 2448 61 
Q 2172 -91 1784 -91 
Q 1150 -91 751 415 
Q 353 922 353 1747 
Q 353 2572 751 3078 
Q 1150 3584 1784 3584 
Q 2172 3584 2448 3432 
Q 2725 3281 2906 2969 
z
M 947 1747 
Q 947 1113 1208 752 
Q 1469 391 1925 391 
Q 2381 391 2643 752 
Q 2906 1113 2906 1747 
Q 2906 2381 2643 2742 
Q 2381 3103 1925 3103 
Q 1469 3103 1208 2742 
Q 947 2381 947 1747 
z
" transform="scale(0.015625)"/>
      </defs>
      <use xlink:href="#DejaVuSans-53"/>
      <use xlink:href="#DejaVuSans-6c" x="63.476562"/>
      <use xlink:href="#DejaVuSans-6f" x="91.259766"/>
      <use xlink:href="#DejaVuSans-77" x="152.441406"/>
      <use xlink:href="#DejaVuSans-20" x="234.228516"/>
      <use xlink:href="#DejaVuSans-77" x="266.015625"/>
      <use xlink:href="#DejaVuSans-69" x="347.802734"/>
      <use xlink:href="#DejaVuSans-6e" x="375.585938"/>
      <use xlink:href="#DejaVuSans-64" x="438.964844"/>
     </g>
    </g>
    <g id="line2d_6">
     <path d="M 333.95625 53.254687 
L 343.95625 53.254687 
L 353.95625 53.254687 
" style="fill: none; stroke-dasharray: 9.25,4; stroke-dashoffset: 0; stroke: #8b0000; stroke-width: 2.5"/>
    </g>
    <g id="text_3">
     <!-- Fast wind -->
     <g transform="translate(361.95625 56.754687) scale(0.1 -0.1)">
      <defs>
       <path id="DejaVuSans-46" d="M 628 4666 
L 3309 4666 
L 3309 4134 
L 1259 4134 
L 1259 2759 
L 3109 2759 
L 3109 2228 
L 1259 2228 
L 1259 0 
L 628 0 
L 628 4666 
z
" transform="scale(0.015625)"/>
       <path id="DejaVuSans-61" d="M 2194 1759 
Q 1497 1759 1228 1600 
Q 959 1441 959 1056 
Q 959 750 1161 570 
Q 1363 391 1709 391 
Q 2188 391 2477 730 
Q 2766 1069 2766 1631 
L 2766 1759 
L 2194 1759 
z
M 3341 1997 
L 3341 0 
L 2766 0 
L 2766 531 
Q 2569 213 2275 61 
Q 1981 -91 1556 -91 
Q 1019 -91 701 211 
Q 384 513 384 1019 
Q 384 1609 779 1909 
Q 1175 2209 1959 2209 
L 2766 2209 
L 2766 2266 
Q 2766 2663 2505 2880 
Q 2244 3097 1772 3097 
Q 1472 3097 1187 3025 
Q 903 2953 641 2809 
L 641 3341 
Q 956 3463 1253 3523 
Q 1550 3584 1831 3584 
Q 2591 3584 2966 3190 
Q 3341 2797 3341 1997 
z
" transform="scale(0.015625)"/>
       <path id="DejaVuSans-73" d="M 2834 3397 
L 2834 2853 
Q 2591 2978 2328 3040 
Q 2066 3103 1784 3103 
Q 1356 3103 1142 2972 
Q 928 2841 928 2578 
Q 928 2378 1081 2264 
Q 1234 2150 1697 2047 
L 1894 2003 
Q 2506 1872 2764 1633 
Q 3022 1394 3022 966 
Q 3022 478 2636 193 
Q 2250 -91 1575 -91 
Q 1294 -91 989 -36 
Q 684 19 347 128 
L 347 722 
Q 666 556 975 473 
Q 1284 391 1588 391 
Q 1994 391 2212 530 
Q 2431 669 2431 922 
Q 2431 1156 2273 1281 
Q 2116 1406 1581 1522 
L 1381 1569 
Q 847 1681 609 1914 
Q 372 2147 372 2553 
Q 372 3047 722 3315 
Q 1072 3584 1716 3584 
Q 2034 3584 2315 3537 
Q 2597 3491 2834 3397 
z
" transform="scale(0.015625)"/>
       <path id="DejaVuSans-74" d="M 1172 4494 
L 1172 3500 
L 2356 3500 
L 2356 3053 
L 1172 3053 
L 1172 1153 
Q 1172 725 1289 603 
Q 1406 481 1766 481 
L 2356 481 
L 2356 0 
L 1766 0 
Q 1100 0 847 248 
Q 594 497 594 1153 
L 594 3053 
L 172 3053 
L 172 3500 
L 594 3500 
L 594 4494 
L 1172 4494 
z
" transform="scale(0.015625)"/>
      </defs>
      <use xlink:href="#DejaVuSans-46"/>
      <use xlink:href="#DejaVuSans-61" x="48.394531"/>
      <use xlink:href="#DejaVuSans-73" x="109.673828"/>
      <use xlink:href="#DejaVuSans-74" x="161.773438"/>
      <use xlink:href="#DejaVuSans-20" x="200.982422"/>
      <use xlink:href="#DejaVuSans-77" x="232.769531"/>
      <use xlink:href="#DejaVuSans-69" x="314.556641"/>
      <use xlink:href="#DejaVuSans-6e" x="342.339844"/>
      <use xlink:href="#DejaVuSans-64" x="405.71875"/>
     </g>
    </g>
   </g>
   <g id="matplotlib.axis_1">
    <g id="xtick_1">
     <g id="line2d_7">
      <defs>
       <path id="m54349e1bff" d="M 0 0 
L 0 -3.5 
" style="stroke: #000000; stroke-width: 1.5"/>
      </defs>
      <g>
       <use xlink:href="#m54349e1bff" x="72.877081" y="242.124" style="stroke: #000000; stroke-width: 1.5"/>
      </g>
     </g>
     <g id="line2d_8">
      <defs>
       <path id="m565845dbe2" d="M 0 0 
L 0 3.5 
" style="stroke: #000000; stroke-width: 1.5"/>
      </defs>
      <g>
       <use xlink:href="#m565845dbe2" x="72.877081" y="10.8" style="stroke: #000000; stroke-width: 1.5"/>
      </g>
     </g>
     <g id="text_4">
      <!-- 0 -->
      <g transform="translate(69.059581 254.742125) scale(0.12 -0.12)">
       <defs>
        <path id="DejaVuSans-30" d="M 2034 4250 
Q 1547 4250 1301 3770 
Q 1056 3291 1056 2328 
Q 1056 1369 1301 889 
Q 1547 409 2034 409 
Q 2525 409 2770 889 
Q 3016 1369 3016 2328 
Q 3016 3291 2770 3770 
Q 2525 4250 2034 4250 
z
M 2034 4750 
Q 2819 4750 3233 4129 
Q 3647 3509 3647 2328 
Q 3647 1150 3233 529 
Q 2819 -91 2034 -91 
Q 1250 -91 836 529 
Q 422 1150 422 2328 
Q 422 3509 836 4129 
Q 1250 4750 2034 4750 
z
" transform="scale(0.015625)"/>
       </defs>
       <use xlink:href="#DejaVuSans-30"/>
      </g>
     </g>
    </g>
    <g id="xtick_2">
     <g id="line2d_9">
      <g>
       <use xlink:href="#m54349e1bff" x="114.406811" y="242.124" style="stroke: #000000; stroke-width: 1.5"/>
      </g>
     </g>
     <g id="line2d_10">
      <g>
       <use xlink:href="#m565845dbe2" x="114.406811" y="10.8" style="stroke: #000000; stroke-width: 1.5"/>
      </g>
     </g>
     <g id="text_5">
      <!-- 5 -->
      <g transform="translate(110.589311 254.742125) scale(0.12 -0.12)">
       <defs>
        <path id="DejaVuSans-35" d="M 691 4666 
L 3169 4666 
L 3169 4134 
L 1269 4134 
L 1269 2991 
Q 1406 3038 1543 3061 
Q 1681 3084 1819 3084 
Q 2600 3084 3056 2656 
Q 3513 2228 3513 1497 
Q 3513 744 3044 326 
Q 2575 -91 1722 -91 
Q 1428 -91 1123 -41 
Q 819 9 494 109 
L 494 744 
Q 775 591 1075 516 
Q 1375 441 1709 441 
Q 2250 441 2565 725 
Q 2881 1009 2881 1497 
Q 2881 1984 2565 2268 
Q 2250 2553 1709 2553 
Q 1456 2553 1204 2497 
Q 953 2441 691 2322 
L 691 4666 
z
" transform="scale(0.015625)"/>
       </defs>
       <use xlink:href="#DejaVuSans-35"/>
      </g>
     </g>
    </g>
    <g id="xtick_3">
     <g id="line2d_11">
      <g>
       <use xlink:href="#m54349e1bff" x="155.936541" y="242.124" style="stroke: #000000; stroke-width: 1.5"/>
      </g>
     </g>
     <g id="line2d_12">
      <g>
       <use xlink:href="#m565845dbe2" x="155.936541" y="10.8" style="stroke: #000000; stroke-width: 1.5"/>
      </g>
     </g>
     <g id="text_6">
      <!-- 10 -->
      <g transform="translate(148.301541 254.742125) scale(0.12 -0.12)">
       <defs>
        <path id="DejaVuSans-31" d="M 794 531 
L 1825 531 
L 1825 4091 
L 703 3866 
L 703 4441 
L 1819 4666 
L 2450 4666 
L 2450 531 
L 3481 531 
L 3481 0 
L 794 0 
L 794 531 
z
" transform="scale(0.015625)"/>
       </defs>
       <use xlink:href="#DejaVuSans-31"/>
       <use xlink:href="#DejaVuSans-30" x="63.623047"/>
      </g>
     </g>
    </g>
    <g id="xtick_4">
     <g id="line2d_13">
      <g>
       <use xlink:href="#m54349e1bff" x="197.466271" y="242.124" style="stroke: #000000; stroke-width: 1.5"/>
      </g>
     </g>
     <g id="line2d_14">
      <g>
       <use xlink:href="#m565845dbe2" x="197.466271" y="10.8" style="stroke: #000000; stroke-width: 1.5"/>
      </g>
     </g>
     <g id="text_7">
      <!-- 15 -->
      <g transform="translate(189.831271 254.742125) scale(0.12 -0.12)">
       <use xlink:href="#DejaVuSans-31"/>
       <use xlink:href="#DejaVuSans-35" x="63.623047"/>
      </g>
     </g>
    </g>
    <g id="xtick_5">
     <g id="line2d_15">
      <g>
       <use xlink:href="#m54349e1bff" x="238.996002" y="242.124" style="stroke: #000000; stroke-width: 1.5"/>
      </g>
     </g>
     <g id="line2d_16">
      <g>
       <use xlink:href="#m565845dbe2" x="238.996002" y="10.8" style="stroke: #000000; stroke-width: 1.5"/>
      </g>
     </g>
     <g id="text_8">
      <!-- 20 -->
      <g transform="translate(231.361002 254.742125) scale(0.12 -0.12)">
       <defs>
        <path id="DejaVuSans-32" d="M 1228 531 
L 3431 531 
L 3431 0 
L 469 0 
L 469 531 
Q 828 903 1448 1529 
Q 2069 2156 2228 2338 
Q 2531 2678 2651 2914 
Q 2772 3150 2772 3378 
Q 2772 3750 2511 3984 
Q 2250 4219 1831 4219 
Q 1534 4219 1204 4116 
Q 875 4013 500 3803 
L 500 4441 
Q 881 4594 1212 4672 
Q 1544 4750 1819 4750 
Q 2544 4750 2975 4387 
Q 3406 4025 3406 3419 
Q 3406 3131 3298 2873 
Q 3191 2616 2906 2266 
Q 2828 2175 2409 1742 
Q 1991 1309 1228 531 
z
" transform="scale(0.015625)"/>
       </defs>
       <use xlink:href="#DejaVuSans-32"/>
       <use xlink:href="#DejaVuSans-30" x="63.623047"/>
      </g>
     </g>
    </g>
    <g id="xtick_6">
     <g id="line2d_17">
      <g>
       <use xlink:href="#m54349e1bff" x="280.525732" y="242.124" style="stroke: #000000; stroke-width: 1.5"/>
      </g>
     </g>
     <g id="line2d_18">
      <g>
       <use xlink:href="#m565845dbe2" x="280.525732" y="10.8" style="stroke: #000000; stroke-width: 1.5"/>
      </g>
     </g>
     <g id="text_9">
      <!-- 25 -->
      <g transform="translate(272.890732 254.742125) scale(0.12 -0.12)">
       <use xlink:href="#DejaVuSans-32"/>
       <use xlink:href="#DejaVuSans-35" x="63.623047"/>
      </g>
     </g>
    </g>
    <g id="xtick_7">
     <g id="line2d_19">
      <g>
       <use xlink:href="#m54349e1bff" x="322.055462" y="242.124" style="stroke: #000000; stroke-width: 1.5"/>
      </g>
     </g>
     <g id="line2d_20">
      <g>
       <use xlink:href="#m565845dbe2" x="322.055462" y="10.8" style="stroke: #000000; stroke-width: 1.5"/>
      </g>
     </g>
     <g id="text_10">
      <!-- 30 -->
      <g transform="translate(314.420462 254.742125) scale(0.12 -0.12)">
       <defs>
        <path id="DejaVuSans-33" d="M 2597 2516 
Q 3050 2419 3304 2112 
Q 3559 1806 3559 1356 
Q 3559 666 3084 287 
Q 2609 -91 1734 -91 
Q 1441 -91 1130 -33 
Q 819 25 488 141 
L 488 750 
Q 750 597 1062 519 
Q 1375 441 1716 441 
Q 2309 441 2620 675 
Q 2931 909 2931 1356 
Q 2931 1769 2642 2001 
Q 2353 2234 1838 2234 
L 1294 2234 
L 1294 2753 
L 1863 2753 
Q 2328 2753 2575 2939 
Q 2822 3125 2822 3475 
Q 2822 3834 2567 4026 
Q 2313 4219 1838 4219 
Q 1578 4219 1281 4162 
Q 984 4106 628 3988 
L 628 4550 
Q 988 4650 1302 4700 
Q 1616 4750 1894 4750 
Q 2613 4750 3031 4423 
Q 3450 4097 3450 3541 
Q 3450 3153 3228 2886 
Q 3006 2619 2597 2516 
z
" transform="scale(0.015625)"/>
       </defs>
       <use xlink:href="#DejaVuSans-33"/>
       <use xlink:href="#DejaVuSans-30" x="63.623047"/>
      </g>
     </g>
    </g>
    <g id="xtick_8">
     <g id="line2d_21">
      <g>
       <use xlink:href="#m54349e1bff" x="363.585192" y="242.124" style="stroke: #000000; stroke-width: 1.5"/>
      </g>
     </g>
     <g id="line2d_22">
      <g>
       <use xlink:href="#m565845dbe2" x="363.585192" y="10.8" style="stroke: #000000; stroke-width: 1.5"/>
      </g>
     </g>
     <g id="text_11">
      <!-- 35 -->
      <g transform="translate(355.950192 254.742125) scale(0.12 -0.12)">
       <use xlink:href="#DejaVuSans-33"/>
       <use xlink:href="#DejaVuSans-35" x="63.623047"/>
      </g>
     </g>
    </g>
    <g id="xtick_9">
     <g id="line2d_23">
      <g>
       <use xlink:href="#m54349e1bff" x="405.114922" y="242.124" style="stroke: #000000; stroke-width: 1.5"/>
      </g>
     </g>
     <g id="line2d_24">
      <g>
       <use xlink:href="#m565845dbe2" x="405.114922" y="10.8" style="stroke: #000000; stroke-width: 1.5"/>
      </g>
     </g>
     <g id="text_12">
      <!-- 40 -->
      <g transform="translate(397.479922 254.742125) scale(0.12 -0.12)">
       <defs>
        <path id="DejaVuSans-34" d="M 2419 4116 
L 825 1625 
L 2419 1625 
L 2419 4116 
z
M 2253 4666 
L 3047 4666 
L 3047 1625 
L 3713 1625 
L 3713 1100 
L 3047 1100 
L 3047 0 
L 2419 0 
L 2419 1100 
L 313 1100 
L 313 1709 
L 2253 4666 
z
" transform="scale(0.015625)"/>
       </defs>
       <use xlink:href="#DejaVuSans-34"/>
       <use xlink:href="#DejaVuSans-30" x="63.623047"/>
      </g>
     </g>
    </g>
    <g id="xtick_10">
     <g id="line2d_25">
      <defs>
       <path id="m610aef723f" d="M 0 0 
L 0 -2 
" style="stroke: #000000; stroke-width: 1.5"/>
      </defs>
      <g>
       <use xlink:href="#m610aef723f" x="81.183027" y="242.124" style="stroke: #000000; stroke-width: 1.5"/>
      </g>
     </g>
     <g id="line2d_26">
      <defs>
       <path id="mf0c1e688ff" d="M 0 0 
L 0 2 
" style="stroke: #000000; stroke-width: 1.5"/>
      </defs>
      <g>
       <use xlink:href="#mf0c1e688ff" x="81.183027" y="10.8" style="stroke: #000000; stroke-width: 1.5"/>
      </g>
     </g>
    </g>
    <g id="xtick_11">
     <g id="line2d_27">
      <g>
       <use xlink:href="#m610aef723f" x="89.488973" y="242.124" style="stroke: #000000; stroke-width: 1.5"/>
      </g>
     </g>
     <g id="line2d_28">
      <g>
       <use xlink:href="#mf0c1e688ff" x="89.488973" y="10.8" style="stroke: #000000; stroke-width: 1.5"/>
      </g>
     </g>
    </g>
    <g id="xtick_12">
     <g id="line2d_29">
      <g>
       <use xlink:href="#m610aef723f" x="97.794919" y="242.124" style="stroke: #000000; stroke-width: 1.5"/>
      </g>
     </g>
     <g id="line2d_30">
      <g>
       <use xlink:href="#mf0c1e688ff" x="97.794919" y="10.8" style="stroke: #000000; stroke-width: 1.5"/>
      </g>
     </g>
    </g>
    <g id="xtick_13">
     <g id="line2d_31">
      <g>
       <use xlink:href="#m610aef723f" x="106.100865" y="242.124" style="stroke: #000000; stroke-width: 1.5"/>
      </g>
     </g>
     <g id="line2d_32">
      <g>
       <use xlink:href="#mf0c1e688ff" x="106.100865" y="10.8" style="stroke: #000000; stroke-width: 1.5"/>
      </g>
     </g>
    </g>
    <g id="xtick_14">
     <g id="line2d_33">
      <g>
       <use xlink:href="#m610aef723f" x="122.712757" y="242.124" style="stroke: #000000; stroke-width: 1.5"/>
      </g>
     </g>
     <g id="line2d_34">
      <g>
       <use xlink:href="#mf0c1e688ff" x="122.712757" y="10.8" style="stroke: #000000; stroke-width: 1.5"/>
      </g>
     </g>
    </g>
    <g id="xtick_15">
     <g id="line2d_35">
      <g>
       <use xlink:href="#m610aef723f" x="131.018703" y="242.124" style="stroke: #000000; stroke-width: 1.5"/>
      </g>
     </g>
     <g id="line2d_36">
      <g>
       <use xlink:href="#mf0c1e688ff" x="131.018703" y="10.8" style="stroke: #000000; stroke-width: 1.5"/>
      </g>
     </g>
    </g>
    <g id="xtick_16">
     <g id="line2d_37">
      <g>
       <use xlink:href="#m610aef723f" x="139.324649" y="242.124" style="stroke: #000000; stroke-width: 1.5"/>
      </g>
     </g>
     <g id="line2d_38">
      <g>
       <use xlink:href="#mf0c1e688ff" x="139.324649" y="10.8" style="stroke: #000000; stroke-width: 1.5"/>
      </g>
     </g>
    </g>
    <g id="xtick_17">
     <g id="line2d_39">
      <g>
       <use xlink:href="#m610aef723f" x="147.630595" y="242.124" style="stroke: #000000; stroke-width: 1.5"/>
      </g>
     </g>
     <g id="line2d_40">
      <g>
       <use xlink:href="#mf0c1e688ff" x="147.630595" y="10.8" style="stroke: #000000; stroke-width: 1.5"/>
      </g>
     </g>
    </g>
    <g id="xtick_18">
     <g id="line2d_41">
      <g>
       <use xlink:href="#m610aef723f" x="164.242487" y="242.124" style="stroke: #000000; stroke-width: 1.5"/>
      </g>
     </g>
     <g id="line2d_42">
      <g>
       <use xlink:href="#mf0c1e688ff" x="164.242487" y="10.8" style="stroke: #000000; stroke-width: 1.5"/>
      </g>
     </g>
    </g>
    <g id="xtick_19">
     <g id="line2d_43">
      <g>
       <use xlink:href="#m610aef723f" x="172.548433" y="242.124" style="stroke: #000000; stroke-width: 1.5"/>
      </g>
     </g>
     <g id="line2d_44">
      <g>
       <use xlink:href="#mf0c1e688ff" x="172.548433" y="10.8" style="stroke: #000000; stroke-width: 1.5"/>
      </g>
     </g>
    </g>
    <g id="xtick_20">
     <g id="line2d_45">
      <g>
       <use xlink:href="#m610aef723f" x="180.854379" y="242.124" style="stroke: #000000; stroke-width: 1.5"/>
      </g>
     </g>
     <g id="line2d_46">
      <g>
       <use xlink:href="#mf0c1e688ff" x="180.854379" y="10.8" style="stroke: #000000; stroke-width: 1.5"/>
      </g>
     </g>
    </g>
    <g id="xtick_21">
     <g id="line2d_47">
      <g>
       <use xlink:href="#m610aef723f" x="189.160325" y="242.124" style="stroke: #000000; stroke-width: 1.5"/>
      </g>
     </g>
     <g id="line2d_48">
      <g>
       <use xlink:href="#mf0c1e688ff" x="189.160325" y="10.8" style="stroke: #000000; stroke-width: 1.5"/>
      </g>
     </g>
    </g>
    <g id="xtick_22">
     <g id="line2d_49">
      <g>
       <use xlink:href="#m610aef723f" x="205.772217" y="242.124" style="stroke: #000000; stroke-width: 1.5"/>
      </g>
     </g>
     <g id="line2d_50">
      <g>
       <use xlink:href="#mf0c1e688ff" x="205.772217" y="10.8" style="stroke: #000000; stroke-width: 1.5"/>
      </g>
     </g>
    </g>
    <g id="xtick_23">
     <g id="line2d_51">
      <g>
       <use xlink:href="#m610aef723f" x="214.078163" y="242.124" style="stroke: #000000; stroke-width: 1.5"/>
      </g>
     </g>
     <g id="line2d_52">
      <g>
       <use xlink:href="#mf0c1e688ff" x="214.078163" y="10.8" style="stroke: #000000; stroke-width: 1.5"/>
      </g>
     </g>
    </g>
    <g id="xtick_24">
     <g id="line2d_53">
      <g>
       <use xlink:href="#m610aef723f" x="222.38411" y="242.124" style="stroke: #000000; stroke-width: 1.5"/>
      </g>
     </g>
     <g id="line2d_54">
      <g>
       <use xlink:href="#mf0c1e688ff" x="222.38411" y="10.8" style="stroke: #000000; stroke-width: 1.5"/>
      </g>
     </g>
    </g>
    <g id="xtick_25">
     <g id="line2d_55">
      <g>
       <use xlink:href="#m610aef723f" x="230.690056" y="242.124" style="stroke: #000000; stroke-width: 1.5"/>
      </g>
     </g>
     <g id="line2d_56">
      <g>
       <use xlink:href="#mf0c1e688ff" x="230.690056" y="10.8" style="stroke: #000000; stroke-width: 1.5"/>
      </g>
     </g>
    </g>
    <g id="xtick_26">
     <g id="line2d_57">
      <g>
       <use xlink:href="#m610aef723f" x="247.301948" y="242.124" style="stroke: #000000; stroke-width: 1.5"/>
      </g>
     </g>
     <g id="line2d_58">
      <g>
       <use xlink:href="#mf0c1e688ff" x="247.301948" y="10.8" style="stroke: #000000; stroke-width: 1.5"/>
      </g>
     </g>
    </g>
    <g id="xtick_27">
     <g id="line2d_59">
      <g>
       <use xlink:href="#m610aef723f" x="255.607894" y="242.124" style="stroke: #000000; stroke-width: 1.5"/>
      </g>
     </g>
     <g id="line2d_60">
      <g>
       <use xlink:href="#mf0c1e688ff" x="255.607894" y="10.8" style="stroke: #000000; stroke-width: 1.5"/>
      </g>
     </g>
    </g>
    <g id="xtick_28">
     <g id="line2d_61">
      <g>
       <use xlink:href="#m610aef723f" x="263.91384" y="242.124" style="stroke: #000000; stroke-width: 1.5"/>
      </g>
     </g>
     <g id="line2d_62">
      <g>
       <use xlink:href="#mf0c1e688ff" x="263.91384" y="10.8" style="stroke: #000000; stroke-width: 1.5"/>
      </g>
     </g>
    </g>
    <g id="xtick_29">
     <g id="line2d_63">
      <g>
       <use xlink:href="#m610aef723f" x="272.219786" y="242.124" style="stroke: #000000; stroke-width: 1.5"/>
      </g>
     </g>
     <g id="line2d_64">
      <g>
       <use xlink:href="#mf0c1e688ff" x="272.219786" y="10.8" style="stroke: #000000; stroke-width: 1.5"/>
      </g>
     </g>
    </g>
    <g id="xtick_30">
     <g id="line2d_65">
      <g>
       <use xlink:href="#m610aef723f" x="288.831678" y="242.124" style="stroke: #000000; stroke-width: 1.5"/>
      </g>
     </g>
     <g id="line2d_66">
      <g>
       <use xlink:href="#mf0c1e688ff" x="288.831678" y="10.8" style="stroke: #000000; stroke-width: 1.5"/>
      </g>
     </g>
    </g>
    <g id="xtick_31">
     <g id="line2d_67">
      <g>
       <use xlink:href="#m610aef723f" x="297.137624" y="242.124" style="stroke: #000000; stroke-width: 1.5"/>
      </g>
     </g>
     <g id="line2d_68">
      <g>
       <use xlink:href="#mf0c1e688ff" x="297.137624" y="10.8" style="stroke: #000000; stroke-width: 1.5"/>
      </g>
     </g>
    </g>
    <g id="xtick_32">
     <g id="line2d_69">
      <g>
       <use xlink:href="#m610aef723f" x="305.44357" y="242.124" style="stroke: #000000; stroke-width: 1.5"/>
      </g>
     </g>
     <g id="line2d_70">
      <g>
       <use xlink:href="#mf0c1e688ff" x="305.44357" y="10.8" style="stroke: #000000; stroke-width: 1.5"/>
      </g>
     </g>
    </g>
    <g id="xtick_33">
     <g id="line2d_71">
      <g>
       <use xlink:href="#m610aef723f" x="313.749516" y="242.124" style="stroke: #000000; stroke-width: 1.5"/>
      </g>
     </g>
     <g id="line2d_72">
      <g>
       <use xlink:href="#mf0c1e688ff" x="313.749516" y="10.8" style="stroke: #000000; stroke-width: 1.5"/>
      </g>
     </g>
    </g>
    <g id="xtick_34">
     <g id="line2d_73">
      <g>
       <use xlink:href="#m610aef723f" x="330.361408" y="242.124" style="stroke: #000000; stroke-width: 1.5"/>
      </g>
     </g>
     <g id="line2d_74">
      <g>
       <use xlink:href="#mf0c1e688ff" x="330.361408" y="10.8" style="stroke: #000000; stroke-width: 1.5"/>
      </g>
     </g>
    </g>
    <g id="xtick_35">
     <g id="line2d_75">
      <g>
       <use xlink:href="#m610aef723f" x="338.667354" y="242.124" style="stroke: #000000; stroke-width: 1.5"/>
      </g>
     </g>
     <g id="line2d_76">
      <g>
       <use xlink:href="#mf0c1e688ff" x="338.667354" y="10.8" style="stroke: #000000; stroke-width: 1.5"/>
      </g>
     </g>
    </g>
    <g id="xtick_36">
     <g id="line2d_77">
      <g>
       <use xlink:href="#m610aef723f" x="346.9733" y="242.124" style="stroke: #000000; stroke-width: 1.5"/>
      </g>
     </g>
     <g id="line2d_78">
      <g>
       <use xlink:href="#mf0c1e688ff" x="346.9733" y="10.8" style="stroke: #000000; stroke-width: 1.5"/>
      </g>
     </g>
    </g>
    <g id="xtick_37">
     <g id="line2d_79">
      <g>
       <use xlink:href="#m610aef723f" x="355.279246" y="242.124" style="stroke: #000000; stroke-width: 1.5"/>
      </g>
     </g>
     <g id="line2d_80">
      <g>
       <use xlink:href="#mf0c1e688ff" x="355.279246" y="10.8" style="stroke: #000000; stroke-width: 1.5"/>
      </g>
     </g>
    </g>
    <g id="xtick_38">
     <g id="line2d_81">
      <g>
       <use xlink:href="#m610aef723f" x="371.891138" y="242.124" style="stroke: #000000; stroke-width: 1.5"/>
      </g>
     </g>
     <g id="line2d_82">
      <g>
       <use xlink:href="#mf0c1e688ff" x="371.891138" y="10.8" style="stroke: #000000; stroke-width: 1.5"/>
      </g>
     </g>
    </g>
    <g id="xtick_39">
     <g id="line2d_83">
      <g>
       <use xlink:href="#m610aef723f" x="380.197084" y="242.124" style="stroke: #000000; stroke-width: 1.5"/>
      </g>
     </g>
     <g id="line2d_84">
      <g>
       <use xlink:href="#mf0c1e688ff" x="380.197084" y="10.8" style="stroke: #000000; stroke-width: 1.5"/>
      </g>
     </g>
    </g>
    <g id="xtick_40">
     <g id="line2d_85">
      <g>
       <use xlink:href="#m610aef723f" x="388.50303" y="242.124" style="stroke: #000000; stroke-width: 1.5"/>
      </g>
     </g>
     <g id="line2d_86">
      <g>
       <use xlink:href="#mf0c1e688ff" x="388.50303" y="10.8" style="stroke: #000000; stroke-width: 1.5"/>
      </g>
     </g>
    </g>
    <g id="xtick_41">
     <g id="line2d_87">
      <g>
       <use xlink:href="#m610aef723f" x="396.808976" y="242.124" style="stroke: #000000; stroke-width: 1.5"/>
      </g>
     </g>
     <g id="line2d_88">
      <g>
       <use xlink:href="#mf0c1e688ff" x="396.808976" y="10.8" style="stroke: #000000; stroke-width: 1.5"/>
      </g>
     </g>
    </g>
    <g id="xtick_42">
     <g id="line2d_89">
      <g>
       <use xlink:href="#m610aef723f" x="413.420868" y="242.124" style="stroke: #000000; stroke-width: 1.5"/>
      </g>
     </g>
     <g id="line2d_90">
      <g>
       <use xlink:href="#mf0c1e688ff" x="413.420868" y="10.8" style="stroke: #000000; stroke-width: 1.5"/>
      </g>
     </g>
    </g>
    <g id="text_13">
     <!-- Distance [R$_\odot$] -->
     <g transform="translate(202.023884 270.355875) scale(0.12 -0.12)">
      <defs>
       <path id="DejaVuSans-44" d="M 1259 4147 
L 1259 519 
L 2022 519 
Q 2988 519 3436 956 
Q 3884 1394 3884 2338 
Q 3884 3275 3436 3711 
Q 2988 4147 2022 4147 
L 1259 4147 
z
M 628 4666 
L 1925 4666 
Q 3281 4666 3915 4102 
Q 4550 3538 4550 2338 
Q 4550 1131 3912 565 
Q 3275 0 1925 0 
L 628 0 
L 628 4666 
z
" transform="scale(0.015625)"/>
       <path id="DejaVuSans-63" d="M 3122 3366 
L 3122 2828 
Q 2878 2963 2633 3030 
Q 2388 3097 2138 3097 
Q 1578 3097 1268 2742 
Q 959 2388 959 1747 
Q 959 1106 1268 751 
Q 1578 397 2138 397 
Q 2388 397 2633 464 
Q 2878 531 3122 666 
L 3122 134 
Q 2881 22 2623 -34 
Q 2366 -91 2075 -91 
Q 1284 -91 818 406 
Q 353 903 353 1747 
Q 353 2603 823 3093 
Q 1294 3584 2113 3584 
Q 2378 3584 2631 3529 
Q 2884 3475 3122 3366 
z
" transform="scale(0.015625)"/>
       <path id="DejaVuSans-65" d="M 3597 1894 
L 3597 1613 
L 953 1613 
Q 991 1019 1311 708 
Q 1631 397 2203 397 
Q 2534 397 2845 478 
Q 3156 559 3463 722 
L 3463 178 
Q 3153 47 2828 -22 
Q 2503 -91 2169 -91 
Q 1331 -91 842 396 
Q 353 884 353 1716 
Q 353 2575 817 3079 
Q 1281 3584 2069 3584 
Q 2775 3584 3186 3129 
Q 3597 2675 3597 1894 
z
M 3022 2063 
Q 3016 2534 2758 2815 
Q 2500 3097 2075 3097 
Q 1594 3097 1305 2825 
Q 1016 2553 972 2059 
L 3022 2063 
z
" transform="scale(0.015625)"/>
       <path id="DejaVuSans-5b" d="M 550 4863 
L 1875 4863 
L 1875 4416 
L 1125 4416 
L 1125 -397 
L 1875 -397 
L 1875 -844 
L 550 -844 
L 550 4863 
z
" transform="scale(0.015625)"/>
       <path id="DejaVuSans-52" d="M 2841 2188 
Q 3044 2119 3236 1894 
Q 3428 1669 3622 1275 
L 4263 0 
L 3584 0 
L 2988 1197 
Q 2756 1666 2539 1819 
Q 2322 1972 1947 1972 
L 1259 1972 
L 1259 0 
L 628 0 
L 628 4666 
L 2053 4666 
Q 2853 4666 3247 4331 
Q 3641 3997 3641 3322 
Q 3641 2881 3436 2590 
Q 3231 2300 2841 2188 
z
M 1259 4147 
L 1259 2491 
L 2053 2491 
Q 2509 2491 2742 2702 
Q 2975 2913 2975 3322 
Q 2975 3731 2742 3939 
Q 2509 4147 2053 4147 
L 1259 4147 
z
" transform="scale(0.015625)"/>
       <path id="DejaVuSans-2299" d="M 2350 2403 
L 3013 2403 
L 3013 1609 
L 2350 1609 
L 2350 2403 
z
M 3306 3522 
Q 3016 3644 2681 3644 
Q 2347 3644 2056 3522 
Q 1769 3400 1531 3163 
Q 1291 2922 1172 2634 
Q 1053 2347 1053 2006 
Q 1053 1675 1172 1387 
Q 1291 1100 1531 859 
Q 1769 622 2056 500 
Q 2347 378 2681 378 
Q 3016 378 3306 500 
Q 3594 622 3831 859 
Q 4072 1100 4190 1387 
Q 4309 1675 4309 2006 
Q 4309 2347 4190 2634 
Q 4072 2922 3831 3163 
Q 3594 3400 3306 3522 
z
M 1878 3956 
Q 2250 4113 2681 4113 
Q 3113 4113 3484 3956 
Q 3856 3800 4163 3494 
Q 4472 3184 4625 2813 
Q 4778 2444 4778 2006 
Q 4778 1578 4625 1206 
Q 4472 838 4163 528 
Q 3856 222 3484 65 
Q 3113 -91 2681 -91 
Q 2250 -91 1878 65 
Q 1506 222 1200 528 
Q 891 838 738 1206 
Q 584 1578 584 2006 
Q 584 2444 738 2813 
Q 891 3184 1200 3494 
Q 1506 3800 1878 3956 
z
" transform="scale(0.015625)"/>
       <path id="DejaVuSans-5d" d="M 1947 4863 
L 1947 -844 
L 622 -844 
L 622 -397 
L 1369 -397 
L 1369 4416 
L 622 4416 
L 622 4863 
L 1947 4863 
z
" transform="scale(0.015625)"/>
      </defs>
      <use xlink:href="#DejaVuSans-44" transform="translate(0 0.015625)"/>
      <use xlink:href="#DejaVuSans-69" transform="translate(77.001953 0.015625)"/>
      <use xlink:href="#DejaVuSans-73" transform="translate(104.785156 0.015625)"/>
      <use xlink:href="#DejaVuSans-74" transform="translate(156.884766 0.015625)"/>
      <use xlink:href="#DejaVuSans-61" transform="translate(196.09375 0.015625)"/>
      <use xlink:href="#DejaVuSans-6e" transform="translate(257.373047 0.015625)"/>
      <use xlink:href="#DejaVuSans-63" transform="translate(320.751953 0.015625)"/>
      <use xlink:href="#DejaVuSans-65" transform="translate(375.732422 0.015625)"/>
      <use xlink:href="#DejaVuSans-20" transform="translate(437.255859 0.015625)"/>
      <use xlink:href="#DejaVuSans-5b" transform="translate(469.042969 0.015625)"/>
      <use xlink:href="#DejaVuSans-52" transform="translate(504.931641 0.015625)"/>
      <use xlink:href="#DejaVuSans-2299" transform="translate(589.008789 -16.390625) scale(0.7)"/>
      <use xlink:href="#DejaVuSans-5d" transform="translate(664.033203 0.015625)"/>
     </g>
    </g>
   </g>
   <g id="matplotlib.axis_2">
    <g id="ytick_1">
     <g id="line2d_91">
      <defs>
       <path id="mad5c474e53" d="M 0 0 
L 3.5 0 
" style="stroke: #000000; stroke-width: 1.5"/>
      </defs>
      <g>
       <use xlink:href="#mad5c474e53" x="67.327768" y="202.252458" style="stroke: #000000; stroke-width: 1.5"/>
      </g>
     </g>
     <g id="line2d_92">
      <defs>
       <path id="me4f97ae077" d="M 0 0 
L -3.5 0 
" style="stroke: #000000; stroke-width: 1.5"/>
      </defs>
      <g>
       <use xlink:href="#me4f97ae077" x="421.2" y="202.252458" style="stroke: #000000; stroke-width: 1.5"/>
      </g>
     </g>
     <g id="text_14">
      <!-- $\mathdefault{10^{-12}}$ -->
      <g transform="translate(30.347768 206.811521) scale(0.12 -0.12)">
       <defs>
        <path id="DejaVuSans-2212" d="M 678 2272 
L 4684 2272 
L 4684 1741 
L 678 1741 
L 678 2272 
z
" transform="scale(0.015625)"/>
       </defs>
       <use xlink:href="#DejaVuSans-31" transform="translate(0 0.765625)"/>
       <use xlink:href="#DejaVuSans-30" transform="translate(63.623047 0.765625)"/>
       <use xlink:href="#DejaVuSans-2212" transform="translate(128.203125 39.046875) scale(0.7)"/>
       <use xlink:href="#DejaVuSans-31" transform="translate(186.855469 39.046875) scale(0.7)"/>
       <use xlink:href="#DejaVuSans-32" transform="translate(231.391602 39.046875) scale(0.7)"/>
      </g>
     </g>
    </g>
    <g id="ytick_2">
     <g id="line2d_93">
      <g>
       <use xlink:href="#mad5c474e53" x="67.327768" y="153.74511" style="stroke: #000000; stroke-width: 1.5"/>
      </g>
     </g>
     <g id="line2d_94">
      <g>
       <use xlink:href="#me4f97ae077" x="421.2" y="153.74511" style="stroke: #000000; stroke-width: 1.5"/>
      </g>
     </g>
     <g id="text_15">
      <!-- $\mathdefault{10^{-10}}$ -->
      <g transform="translate(30.347768 158.304173) scale(0.12 -0.12)">
       <use xlink:href="#DejaVuSans-31" transform="translate(0 0.765625)"/>
       <use xlink:href="#DejaVuSans-30" transform="translate(63.623047 0.765625)"/>
       <use xlink:href="#DejaVuSans-2212" transform="translate(128.203125 39.046875) scale(0.7)"/>
       <use xlink:href="#DejaVuSans-31" transform="translate(186.855469 39.046875) scale(0.7)"/>
       <use xlink:href="#DejaVuSans-30" transform="translate(231.391602 39.046875) scale(0.7)"/>
      </g>
     </g>
    </g>
    <g id="ytick_3">
     <g id="line2d_95">
      <g>
       <use xlink:href="#mad5c474e53" x="67.327768" y="105.237762" style="stroke: #000000; stroke-width: 1.5"/>
      </g>
     </g>
     <g id="line2d_96">
      <g>
       <use xlink:href="#me4f97ae077" x="421.2" y="105.237762" style="stroke: #000000; stroke-width: 1.5"/>
      </g>
     </g>
     <g id="text_16">
      <!-- $\mathdefault{10^{-8}}$ -->
      <g transform="translate(35.627768 109.796824) scale(0.12 -0.12)">
       <defs>
        <path id="DejaVuSans-38" d="M 2034 2216 
Q 1584 2216 1326 1975 
Q 1069 1734 1069 1313 
Q 1069 891 1326 650 
Q 1584 409 2034 409 
Q 2484 409 2743 651 
Q 3003 894 3003 1313 
Q 3003 1734 2745 1975 
Q 2488 2216 2034 2216 
z
M 1403 2484 
Q 997 2584 770 2862 
Q 544 3141 544 3541 
Q 544 4100 942 4425 
Q 1341 4750 2034 4750 
Q 2731 4750 3128 4425 
Q 3525 4100 3525 3541 
Q 3525 3141 3298 2862 
Q 3072 2584 2669 2484 
Q 3125 2378 3379 2068 
Q 3634 1759 3634 1313 
Q 3634 634 3220 271 
Q 2806 -91 2034 -91 
Q 1263 -91 848 271 
Q 434 634 434 1313 
Q 434 1759 690 2068 
Q 947 2378 1403 2484 
z
M 1172 3481 
Q 1172 3119 1398 2916 
Q 1625 2713 2034 2713 
Q 2441 2713 2670 2916 
Q 2900 3119 2900 3481 
Q 2900 3844 2670 4047 
Q 2441 4250 2034 4250 
Q 1625 4250 1398 4047 
Q 1172 3844 1172 3481 
z
" transform="scale(0.015625)"/>
       </defs>
       <use xlink:href="#DejaVuSans-31" transform="translate(0 0.765625)"/>
       <use xlink:href="#DejaVuSans-30" transform="translate(63.623047 0.765625)"/>
       <use xlink:href="#DejaVuSans-2212" transform="translate(128.203125 39.046875) scale(0.7)"/>
       <use xlink:href="#DejaVuSans-38" transform="translate(186.855469 39.046875) scale(0.7)"/>
      </g>
     </g>
    </g>
    <g id="ytick_4">
     <g id="line2d_97">
      <g>
       <use xlink:href="#mad5c474e53" x="67.327768" y="56.730413" style="stroke: #000000; stroke-width: 1.5"/>
      </g>
     </g>
     <g id="line2d_98">
      <g>
       <use xlink:href="#me4f97ae077" x="421.2" y="56.730413" style="stroke: #000000; stroke-width: 1.5"/>
      </g>
     </g>
     <g id="text_17">
      <!-- $\mathdefault{10^{-6}}$ -->
      <g transform="translate(35.627768 61.289476) scale(0.12 -0.12)">
       <defs>
        <path id="DejaVuSans-36" d="M 2113 2584 
Q 1688 2584 1439 2293 
Q 1191 2003 1191 1497 
Q 1191 994 1439 701 
Q 1688 409 2113 409 
Q 2538 409 2786 701 
Q 3034 994 3034 1497 
Q 3034 2003 2786 2293 
Q 2538 2584 2113 2584 
z
M 3366 4563 
L 3366 3988 
Q 3128 4100 2886 4159 
Q 2644 4219 2406 4219 
Q 1781 4219 1451 3797 
Q 1122 3375 1075 2522 
Q 1259 2794 1537 2939 
Q 1816 3084 2150 3084 
Q 2853 3084 3261 2657 
Q 3669 2231 3669 1497 
Q 3669 778 3244 343 
Q 2819 -91 2113 -91 
Q 1303 -91 875 529 
Q 447 1150 447 2328 
Q 447 3434 972 4092 
Q 1497 4750 2381 4750 
Q 2619 4750 2861 4703 
Q 3103 4656 3366 4563 
z
" transform="scale(0.015625)"/>
       </defs>
       <use xlink:href="#DejaVuSans-31" transform="translate(0 0.765625)"/>
       <use xlink:href="#DejaVuSans-30" transform="translate(63.623047 0.765625)"/>
       <use xlink:href="#DejaVuSans-2212" transform="translate(128.203125 39.046875) scale(0.7)"/>
       <use xlink:href="#DejaVuSans-36" transform="translate(186.855469 39.046875) scale(0.7)"/>
      </g>
     </g>
    </g>
    <g id="text_18">
     <!-- P$_{ram}$ [Pa] -->
     <g transform="translate(23.852143 152.622) rotate(-90) scale(0.12 -0.12)">
      <defs>
       <path id="DejaVuSans-Oblique-72" d="M 2853 2969 
Q 2766 3016 2653 3041 
Q 2541 3066 2413 3066 
Q 1953 3066 1609 2717 
Q 1266 2369 1153 1784 
L 800 0 
L 225 0 
L 909 3500 
L 1484 3500 
L 1375 2956 
Q 1603 3259 1920 3421 
Q 2238 3584 2597 3584 
Q 2691 3584 2781 3573 
Q 2872 3563 2963 3538 
L 2853 2969 
z
" transform="scale(0.015625)"/>
       <path id="DejaVuSans-Oblique-61" d="M 3438 1997 
L 3047 0 
L 2472 0 
L 2578 531 
Q 2325 219 2001 64 
Q 1678 -91 1281 -91 
Q 834 -91 548 182 
Q 263 456 263 884 
Q 263 1497 752 1853 
Q 1241 2209 2100 2209 
L 2900 2209 
L 2931 2363 
Q 2938 2388 2941 2417 
Q 2944 2447 2944 2509 
Q 2944 2788 2717 2942 
Q 2491 3097 2081 3097 
Q 1800 3097 1504 3025 
Q 1209 2953 897 2809 
L 997 3341 
Q 1322 3463 1633 3523 
Q 1944 3584 2234 3584 
Q 2853 3584 3176 3315 
Q 3500 3047 3500 2534 
Q 3500 2431 3484 2292 
Q 3469 2153 3438 1997 
z
M 2816 1759 
L 2241 1759 
Q 1534 1759 1195 1570 
Q 856 1381 856 984 
Q 856 709 1029 553 
Q 1203 397 1509 397 
Q 1978 397 2328 733 
Q 2678 1069 2791 1631 
L 2816 1759 
z
" transform="scale(0.015625)"/>
       <path id="DejaVuSans-Oblique-6d" d="M 5747 2113 
L 5338 0 
L 4763 0 
L 5166 2094 
Q 5191 2228 5203 2325 
Q 5216 2422 5216 2491 
Q 5216 2772 5059 2928 
Q 4903 3084 4622 3084 
Q 4203 3084 3875 2770 
Q 3547 2456 3450 1953 
L 3066 0 
L 2491 0 
L 2900 2094 
Q 2925 2209 2937 2307 
Q 2950 2406 2950 2484 
Q 2950 2769 2794 2926 
Q 2638 3084 2363 3084 
Q 1938 3084 1609 2770 
Q 1281 2456 1184 1953 
L 800 0 
L 225 0 
L 909 3500 
L 1484 3500 
L 1375 2956 
Q 1609 3263 1923 3423 
Q 2238 3584 2597 3584 
Q 2978 3584 3223 3384 
Q 3469 3184 3519 2828 
Q 3781 3197 4126 3390 
Q 4472 3584 4856 3584 
Q 5306 3584 5551 3325 
Q 5797 3066 5797 2591 
Q 5797 2488 5784 2364 
Q 5772 2241 5747 2113 
z
" transform="scale(0.015625)"/>
      </defs>
      <use xlink:href="#DejaVuSans-50" transform="translate(0 0.015625)"/>
      <use xlink:href="#DejaVuSans-Oblique-72" transform="translate(61.259766 -16.390625) scale(0.7)"/>
      <use xlink:href="#DejaVuSans-Oblique-61" transform="translate(90.039062 -16.390625) scale(0.7)"/>
      <use xlink:href="#DejaVuSans-Oblique-6d" transform="translate(132.93457 -16.390625) scale(0.7)"/>
      <use xlink:href="#DejaVuSans-20" transform="translate(203.857422 0.015625)"/>
      <use xlink:href="#DejaVuSans-5b" transform="translate(235.644531 0.015625)"/>
      <use xlink:href="#DejaVuSans-50" transform="translate(274.658203 0.015625)"/>
      <use xlink:href="#DejaVuSans-61" transform="translate(334.960938 0.015625)"/>
      <use xlink:href="#DejaVuSans-5d" transform="translate(396.240234 0.015625)"/>
     </g>
    </g>
   </g>
  </g>
 </g>
 <defs>
  <clipPath id="pc7d83564fc">
   <rect x="67.327768" y="10.8" width="353.872232" height="231.324"/>
  </clipPath>
 </defs>
</svg>
