<?xml version="1.0" encoding="utf-8" standalone="no"?>
<!DOCTYPE svg PUBLIC "-//W3C//DTD SVG 1.1//EN"
  "http://www.w3.org/Graphics/SVG/1.1/DTD/svg11.dtd">
<svg xmlns:xlink="http://www.w3.org/1999/xlink" width="432pt" height="288pt" viewBox="0 0 432 288" xmlns="http://www.w3.org/2000/svg" version="1.1">
 <metadata>
  <rdf:RDF xmlns:dc="http://purl.org/dc/elements/1.1/" xmlns:cc="http://creativecommons.org/ns#" xmlns:rdf="http://www.w3.org/1999/02/22-rdf-syntax-ns#">
   <cc:Work>
    <dc:type rdf:resource="http://purl.org/dc/dcmitype/StillImage"/>
    <dc:date>2022-12-05T13:48:21.998384</dc:date>
    <dc:format>image/svg+xml</dc:format>
    <dc:creator>
     <cc:Agent>
      <dc:title>Matplotlib v3.6.1, https://matplotlib.org/</dc:title>
     </cc:Agent>
    </dc:creator>
   </cc:Work>
  </rdf:RDF>
 </metadata>
 <defs>
  <style type="text/css">*{stroke-linejoin: round; stroke-linecap: butt}</style>
 </defs>
 <g id="figure_1">
  <g id="patch_1">
   <path d="M 0 288 
L 432 288 
L 432 0 
L 0 0 
z
" style="fill: #ffffff"/>
  </g>
  <g id="axes_1">
   <g id="patch_2">
    <path d="M 52.872357 242.124 
L 421.2 242.124 
L 421.2 16.596 
L 52.872357 16.596 
z
" style="fill: #ffffff"/>
   </g>
   <g id="patch_3">
    <path d="M 52.872357 242.124 
L 52.872357 16.596 
" style="fill: none; stroke: #000000; stroke-width: 1.5; stroke-linejoin: miter; stroke-linecap: square"/>
   </g>
   <g id="patch_4">
    <path d="M 421.2 242.124 
L 421.2 16.596 
" style="fill: none; stroke: #000000; stroke-width: 1.5; stroke-linejoin: miter; stroke-linecap: square"/>
   </g>
   <g id="patch_5">
    <path d="M 52.872357 242.124 
L 421.2 242.124 
" style="fill: none; stroke: #000000; stroke-width: 1.5; stroke-linejoin: miter; stroke-linecap: square"/>
   </g>
   <g id="patch_6">
    <path d="M 52.872357 16.596 
L 421.2 16.596 
" style="fill: none; stroke: #000000; stroke-width: 1.5; stroke-linejoin: miter; stroke-linecap: square"/>
   </g>
   <g id="PolyCollection_1">
    <path d="M 196.938277 110.412801 
L 196.938277 123.627994 
L 197.4469 130.57137 
L 198.344539 122.155243 
L 199.222727 126.685962 
L 200.12132 133.603842 
L 200.947863 135.613048 
L 201.824691 135.884126 
L 202.678579 143.885664 
L 203.590124 144.127158 
L 204.424024 147.027111 
L 205.290034 142.897765 
L 206.205207 145.171501 
L 207.021499 141.469532 
L 207.878243 139.533931 
L 208.796175 147.447566 
L 209.611227 144.159475 
L 210.474035 144.957303 
L 211.343049 142.916902 
L 212.202425 146.435392 
L 213.109669 148.671286 
L 213.960063 148.953107 
L 214.79704 153.056858 
L 215.7326 153.731757 
L 216.51707 152.135802 
L 217.411889 154.223699 
L 218.284288 151.996747 
L 219.151033 153.640934 
L 220.013796 151.090797 
L 220.856406 158.888321 
L 221.765259 171.714082 
L 222.591125 175.315388 
L 223.47736 200.194521 
L 224.305628 141.811475 
L 225.222557 128.681494 
L 226.08592 132.226459 
L 226.898721 131.279553 
L 227.794627 144.438702 
L 228.655422 141.639782 
L 229.582363 139.814586 
L 230.396164 143.162713 
L 231.24117 172.797419 
L 232.113576 164.048502 
L 233.019246 192.620875 
L 233.824347 75718.828 
L 234.843735 138.084237 
L 235.510383 131.342187 
L 236.445179 136.057577 
L 237.317036 152.242331 
L 238.178974 141.833036 
L 239.07104 140.655396 
L 239.903634 136.098546 
L 240.777732 143.319956 
L 241.622149 154.799092 
L 242.456174 160.657114 
L 243.347397 152.915004 
L 244.206183 164.091776 
L 245.090435 147.652187 
L 245.973639 150.299474 
L 246.804845 163.060516 
L 247.697213 180.549782 
L 248.561636 161.690223 
L 249.446951 164.277487 
L 250.255247 170.328038 
L 251.220303 167.495708 
L 251.99997 176.536881 
L 252.891807 148.888288 
L 253.757507 154.69429 
L 254.603928 162.392032 
L 255.480653 152.183054 
L 256.365059 145.956444 
L 257.239037 154.891049 
L 258.080774 153.1623 
L 259.021895 163.912549 
L 259.818135 165.187433 
L 260.710705 150.439593 
L 261.460486 156.236801 
L 262.406013 148.036537 
L 263.288011 146.888929 
L 264.141082 149.347648 
L 265.008448 143.838013 
L 265.780065 149.477658 
L 266.744567 154.232457 
L 267.599504 148.721243 
L 268.49254 155.705089 
L 269.35628 167.625928 
L 270.216742 146.475471 
L 271.088656 158.667835 
L 271.922179 156.378208 
L 272.741036 158.026283 
L 273.757263 156.84695 
L 274.553751 164.341348 
L 275.378262 158.006193 
L 276.255114 169.386262 
L 277.112353 156.469716 
L 277.996198 151.613033 
L 278.983054 146.192548 
L 279.719746 149.508651 
L 280.594741 142.429147 
L 281.434079 147.73791 
L 282.333669 158.353293 
L 283.135921 169.657592 
L 284.036852 143.158428 
L 284.908214 143.524511 
L 285.792607 147.238113 
L 286.659611 145.770584 
L 287.481306 143.690169 
L 288.354754 142.438893 
L 289.401482 138.530435 
L 290.10618 138.439968 
L 290.93637 137.702959 
L 291.887254 148.118991 
L 292.715333 138.419136 
L 293.603058 141.401117 
L 294.425147 139.333444 
L 295.251195 140.510563 
L 296.042398 131.674648 
L 297.026886 141.796129 
L 297.937028 165.237443 
L 298.798072 165.927668 
L 299.656619 162.628251 
L 300.43816 162.852344 
L 301.284046 160.796678 
L 302.204817 144.644087 
L 303.071611 145.406647 
L 303.933529 164.970177 
L 304.7877 160.452636 
L 305.753907 160.220178 
L 306.516368 161.208826 
L 307.426408 164.998173 
L 308.269545 165.602026 
L 309.118888 169.4402 
L 310.011151 154.793634 
L 310.875319 153.603081 
L 311.695846 148.733707 
L 312.587991 150.744656 
L 313.424627 145.928989 
L 314.316578 144.668489 
L 315.179544 145.466409 
L 316.039888 147.533584 
L 316.942769 139.36579 
L 317.771878 143.238564 
L 318.615574 143.545576 
L 319.524698 140.513593 
L 320.367989 137.169115 
L 321.23637 136.988622 
L 322.11776 141.290124 
L 322.96965 146.20397 
L 323.788009 138.124994 
L 324.5406 148.688621 
L 325.695953 147.781764 
L 326.440325 152.648283 
L 327.279291 143.197555 
L 328.164052 149.959274 
L 329.08002 139.414309 
L 329.880468 148.437736 
L 330.750171 138.558316 
L 331.63677 154.734365 
L 332.4824 155.422117 
L 333.332378 169.873155 
L 334.234825 153.204781 
L 335.084271 153.652876 
L 335.951298 152.515791 
L 336.81141 168.753036 
L 337.677863 165.339418 
L 338.574622 157.358351 
L 339.428344 158.653141 
L 340.277845 150.489679 
L 341.138028 149.673062 
L 342.038822 154.664716 
L 342.865904 151.923808 
L 343.724253 150.790015 
L 344.582224 162.534773 
L 345.4692 160.782282 
L 346.321581 157.206198 
L 347.227408 157.846065 
L 348.081831 157.547463 
L 348.956104 156.409877 
L 349.781345 160.518413 
L 350.648179 154.271534 
L 351.526111 156.613942 
L 352.388425 155.178437 
L 353.276965 149.643893 
L 354.112936 158.105006 
L 354.98185 162.445847 
L 355.870674 167.938569 
L 356.763876 151.877576 
L 357.58951 143.824888 
L 358.45168 142.644235 
L 359.320191 140.087236 
L 360.116393 143.88871 
L 361.078338 143.893467 
L 361.899955 150.617333 
L 362.752971 145.292757 
L 363.629716 148.422897 
L 364.531518 145.726366 
L 365.366305 147.851661 
L 366.194012 142.722928 
L 367.091101 151.089675 
L 367.97015 146.629448 
L 368.797588 143.423773 
L 369.700883 142.796757 
L 370.545532 146.60047 
L 371.434914 143.232164 
L 372.32797 144.273618 
L 373.150462 143.267149 
L 374.054361 145.203547 
L 374.862882 147.017066 
L 375.771666 144.751025 
L 376.645746 158.625239 
L 377.454299 165.587744 
L 378.302131 185.937929 
L 379.230854 155.216596 
L 379.978468 151.717928 
L 381.015802 138.653429 
L 381.809873 135.981337 
L 382.79876 173.597767 
L 383.554698 177.470282 
L 384.407564 185.490925 
L 385.267991 177.676621 
L 386.133549 171.504185 
L 387.017935 164.777655 
L 387.889911 155.162226 
L 388.753877 149.297525 
L 389.585521 145.289102 
L 390.441168 151.084613 
L 391.34746 152.780489 
L 392.195985 153.471948 
L 393.063265 153.141185 
L 393.936998 152.296536 
L 394.789268 154.329398 
L 395.641294 146.808532 
L 396.537156 148.216276 
L 397.366439 147.855928 
L 398.264969 142.337861 
L 399.124268 142.002594 
L 399.97911 145.56311 
L 400.856979 145.496724 
L 401.708466 149.059971 
L 402.559497 145.523897 
L 403.455236 140.753018 
L 404.325225 150.593112 
L 404.325225 120.151971 
L 404.325225 120.151971 
L 403.455236 120.641971 
L 402.559497 117.88646 
L 401.708466 120.669205 
L 400.856979 120.486451 
L 399.97911 125.539128 
L 399.124268 121.292568 
L 398.264969 131.96344 
L 397.366439 130.663359 
L 396.537156 129.560957 
L 395.641294 131.780077 
L 394.789268 128.627327 
L 393.936998 125.889579 
L 393.063265 128.432988 
L 392.195985 128.375364 
L 391.34746 125.732536 
L 390.441168 126.133404 
L 389.585521 110.082885 
L 388.753877 113.502445 
L 387.889911 113.43173 
L 387.017935 119.016205 
L 386.133549 130.481826 
L 385.267991 125.113113 
L 384.407564 120.027528 
L 383.554698 118.265032 
L 382.79876 115.118328 
L 381.809873 114.947227 
L 381.015802 112.262405 
L 379.978468 117.880826 
L 379.230854 115.056871 
L 378.302131 115.778274 
L 377.454299 117.762974 
L 376.645746 118.018828 
L 375.771666 114.07021 
L 374.862882 117.655792 
L 374.054361 110.996912 
L 373.150462 120.443495 
L 372.32797 121.945222 
L 371.434914 115.316926 
L 370.545532 121.767853 
L 369.700883 125.031131 
L 368.797588 126.939233 
L 367.97015 127.04572 
L 367.091101 129.633474 
L 366.194012 121.208222 
L 365.366305 123.983234 
L 364.531518 128.44277 
L 363.629716 130.4529 
L 362.752971 131.32213 
L 361.899955 124.608306 
L 361.078338 124.073487 
L 360.116393 126.994772 
L 359.320191 126.760187 
L 358.45168 127.213136 
L 357.58951 117.448876 
L 356.763876 115.997905 
L 355.870674 137.420831 
L 354.98185 142.42087 
L 354.112936 138.848369 
L 353.276965 136.060115 
L 352.388425 140.711179 
L 351.526111 134.54264 
L 350.648179 134.984313 
L 349.781345 124.930443 
L 348.956104 133.858394 
L 348.081831 144.59621 
L 347.227408 131.58312 
L 346.321581 136.788366 
L 345.4692 126.702311 
L 344.582224 123.81967 
L 343.724253 133.478412 
L 342.865904 135.207348 
L 342.038822 130.772401 
L 341.138028 128.653747 
L 340.277845 131.483109 
L 339.428344 132.362103 
L 338.574622 135.347518 
L 337.677863 118.99499 
L 336.81141 130.842922 
L 335.951298 138.552889 
L 335.084271 134.564515 
L 334.234825 133.506999 
L 333.332378 116.779087 
L 332.4824 118.257824 
L 331.63677 118.991296 
L 330.750171 117.30863 
L 329.880468 121.97163 
L 329.08002 108.058923 
L 328.164052 110.238894 
L 327.279291 113.182898 
L 326.440325 122.343558 
L 325.695953 123.72441 
L 324.5406 109.884962 
L 323.788009 104.269984 
L 322.96965 117.278597 
L 322.11776 115.505105 
L 321.23637 115.024157 
L 320.367989 112.989487 
L 319.524698 114.237668 
L 318.615574 112.272639 
L 317.771878 109.774012 
L 316.942769 109.74445 
L 316.039888 112.144149 
L 315.179544 124.218333 
L 314.316578 126.816356 
L 313.424627 123.872214 
L 312.587991 120.795255 
L 311.695846 119.27315 
L 310.875319 114.852217 
L 310.011151 114.087357 
L 309.118888 114.68054 
L 308.269545 117.700864 
L 307.426408 112.137991 
L 306.516368 122.682911 
L 305.753907 124.605381 
L 304.7877 117.494177 
L 303.933529 105.959708 
L 303.071611 116.941067 
L 302.204817 104.480574 
L 301.284046 112.859852 
L 300.43816 122.874065 
L 299.656619 123.422594 
L 298.798072 123.411595 
L 297.937028 117.465642 
L 297.026886 124.228419 
L 296.042398 112.147513 
L 295.251195 112.072492 
L 294.425147 117.885304 
L 293.603058 112.797625 
L 292.715333 117.794202 
L 291.887254 118.862381 
L 290.93637 115.075154 
L 290.10618 116.315916 
L 289.401482 123.780869 
L 288.354754 110.379177 
L 287.481306 113.676637 
L 286.659611 118.135781 
L 285.792607 120.260352 
L 284.908214 126.814331 
L 284.036852 129.235526 
L 283.135921 124.105395 
L 282.333669 129.131125 
L 281.434079 121.879274 
L 280.594741 131.160981 
L 279.719746 131.599465 
L 278.983054 132.515874 
L 277.996198 129.63965 
L 277.112353 134.62153 
L 276.255114 125.788802 
L 275.378262 124.649271 
L 274.553751 122.453218 
L 273.757263 123.377976 
L 272.741036 110.075701 
L 271.922179 122.32814 
L 271.088656 111.672544 
L 270.216742 107.992662 
L 269.35628 115.840413 
L 268.49254 112.63585 
L 267.599504 106.695805 
L 266.744567 113.629594 
L 265.780065 115.445648 
L 265.008448 117.573063 
L 264.141082 111.340161 
L 263.288011 111.066723 
L 262.406013 108.812463 
L 261.460486 110.052034 
L 260.710705 106.386754 
L 259.818135 103.548835 
L 259.021895 113.815649 
L 258.080774 113.906473 
L 257.239037 114.183129 
L 256.365059 117.781655 
L 255.480653 118.763946 
L 254.603928 120.763475 
L 253.757507 112.16657 
L 252.891807 111.294066 
L 251.99997 100.81922 
L 251.220303 114.059159 
L 250.255247 104.84176 
L 249.446951 112.033525 
L 248.561636 115.981616 
L 247.697213 114.535767 
L 246.804845 111.279238 
L 245.973639 107.13741 
L 245.090435 104.137276 
L 244.206183 104.254404 
L 243.347397 99.540042 
L 242.456174 107.66519 
L 241.622149 100.793784 
L 240.777732 101.591666 
L 239.903634 97.760628 
L 239.07104 100.128026 
L 238.178974 101.323739 
L 237.317036 100.378075 
L 236.445179 103.65954 
L 235.510383 100.668997 
L 234.843735 106.564147 
L 233.824347 100.250311 
L 233.019246 106.643896 
L 232.113576 130.398381 
L 231.24117 99.046417 
L 230.396164 92.86757 
L 229.582363 103.840144 
L 228.655422 110.743267 
L 227.794627 104.622783 
L 226.898721 107.016225 
L 226.08592 103.746309 
L 225.222557 102.074063 
L 224.305628 114.132965 
L 223.47736 96.386935 
L 222.591125 111.360649 
L 221.765259 105.8736 
L 220.856406 113.914905 
L 220.013796 112.473191 
L 219.151033 115.085054 
L 218.284288 115.28773 
L 217.411889 111.656954 
L 216.51707 111.426776 
L 215.7326 113.212927 
L 214.79704 110.130307 
L 213.960063 112.36909 
L 213.109669 114.973704 
L 212.202425 109.074755 
L 211.343049 109.266896 
L 210.474035 111.150584 
L 209.611227 117.228411 
L 208.796175 113.633909 
L 207.878243 106.271747 
L 207.021499 105.540292 
L 206.205207 106.871487 
L 205.290034 109.121056 
L 204.424024 107.12275 
L 203.590124 109.838089 
L 202.678579 112.719647 
L 201.824691 114.347094 
L 200.947863 118.068659 
L 200.12132 111.353567 
L 199.222727 104.698659 
L 198.344539 104.100764 
L 197.4469 115.85094 
L 196.938277 110.412801 
z
" clip-path="url(#pa5a46e9bfd)" style="fill: #add8e6; stroke: #add8e6"/>
   </g>
   <g id="line2d_1">
    <path d="M 196.938277 116.356271 
L 197.4469 122.388453 
L 198.344539 111.895583 
L 199.222727 113.875335 
L 200.12132 120.618817 
L 200.947863 125.676284 
L 201.824691 123.371007 
L 202.678579 124.716976 
L 203.590124 122.673959 
L 204.424024 121.323849 
L 205.290034 121.82336 
L 206.205207 120.700539 
L 207.021499 118.793411 
L 207.878243 118.838356 
L 208.796175 126.345897 
L 209.611227 127.992416 
L 210.474035 123.860754 
L 211.343049 121.935931 
L 212.202425 122.679386 
L 213.109669 127.655242 
L 213.960063 125.784447 
L 214.79704 124.99491 
L 215.7326 127.552831 
L 216.51707 125.809235 
L 217.411889 126.445061 
L 218.284288 128.733781 
L 219.151033 128.974385 
L 220.013796 126.37701 
L 220.856406 129.202217 
L 221.765259 124.424125 
L 222.591125 129.683933 
L 223.47736 117.68634 
L 224.305628 125.122931 
L 225.222557 112.739108 
L 226.898721 116.94396 
L 227.794627 118.803737 
L 228.655422 122.665461 
L 229.582363 117.104542 
L 230.396164 109.159228 
L 231.24117 118.432766 
L 232.113576 143.067446 
L 233.019246 127.00929 
L 233.824347 123.693818 
L 234.843735 118.65951 
L 235.510383 112.528591 
L 236.445179 115.994685 
L 237.317036 116.941199 
L 239.07104 114.469845 
L 239.903634 111.598632 
L 240.777732 116.198922 
L 241.622149 117.710256 
L 242.456174 124.416828 
L 243.347397 116.354488 
L 244.206183 122.039809 
L 245.090435 119.125544 
L 245.973639 122.051726 
L 246.804845 127.828275 
L 247.697213 133.106629 
L 248.561636 131.415678 
L 249.446951 128.660731 
L 250.255247 123.350479 
L 251.220303 130.883646 
L 251.99997 120.386587 
L 252.891807 124.954961 
L 253.757507 126.94634 
L 254.603928 135.348976 
L 255.480653 131.372107 
L 256.365059 128.919666 
L 257.239037 128.565341 
L 258.080774 127.958867 
L 259.021895 130.072236 
L 259.818135 121.576815 
L 260.710705 121.486553 
L 261.460486 125.579737 
L 262.406013 122.857517 
L 263.288011 124.293088 
L 264.141082 125.099853 
L 265.008448 128.13264 
L 265.780065 128.214699 
L 266.744567 127.988323 
L 267.599504 121.367572 
L 268.49254 127.530606 
L 269.35628 132.39017 
L 270.216742 121.864815 
L 271.088656 127.357137 
L 271.922179 135.101898 
L 272.741036 125.941208 
L 273.757263 135.99931 
L 274.553751 137.095232 
L 275.378262 137.240983 
L 276.255114 140.79428 
L 277.112353 143.751156 
L 277.996198 138.811624 
L 278.983054 138.643231 
L 279.719746 139.341153 
L 280.594741 136.311327 
L 281.434079 132.312732 
L 282.333669 140.576422 
L 283.135921 139.508458 
L 284.036852 135.460359 
L 284.908214 134.111814 
L 285.792607 131.03858 
L 286.659611 129.112634 
L 287.481306 125.349515 
L 288.354754 122.622476 
L 289.401482 130.329717 
L 290.10618 125.53871 
L 290.93637 124.46674 
L 291.887254 130.317665 
L 292.715333 126.504387 
L 293.603058 124.062254 
L 294.425147 126.878893 
L 295.251195 123.288402 
L 296.042398 120.472434 
L 297.026886 131.844642 
L 297.937028 133.297617 
L 298.798072 138.188875 
L 299.656619 137.463389 
L 300.43816 137.091969 
L 302.204817 118.74046 
L 303.071611 128.165091 
L 303.933529 123.629824 
L 304.7877 132.365532 
L 305.753907 137.779715 
L 306.516368 136.565201 
L 307.426408 128.867885 
L 308.269545 133.557117 
L 309.118888 131.716955 
L 310.011151 128.469203 
L 310.875319 128.787242 
L 311.695846 130.787417 
L 312.587991 132.449837 
L 313.424627 133.072335 
L 314.316578 134.537139 
L 315.179544 133.143478 
L 316.039888 125.261668 
L 316.942769 121.305032 
L 317.771878 122.394179 
L 318.615574 124.299653 
L 319.524698 124.800637 
L 320.367989 122.89022 
L 321.23637 124.193118 
L 322.11776 125.915596 
L 322.96965 128.637525 
L 323.788009 116.992801 
L 325.695953 133.585615 
L 326.440325 134.099191 
L 327.279291 124.856097 
L 328.164052 124.398038 
L 329.08002 120.108779 
L 329.880468 132.593247 
L 330.750171 126.234327 
L 331.63677 132.197838 
L 332.4824 131.814924 
L 333.332378 133.547535 
L 334.234825 141.89236 
L 335.084271 142.733093 
L 335.951298 144.793515 
L 336.81141 144.579421 
L 337.677863 134.553847 
L 338.574622 144.532138 
L 339.428344 142.929741 
L 340.277845 139.622393 
L 341.138028 137.50029 
L 342.038822 140.580093 
L 342.865904 142.507184 
L 343.724253 140.999992 
L 344.582224 137.74633 
L 345.4692 139.483859 
L 346.321581 145.426513 
L 347.227408 142.142078 
L 348.081831 150.433804 
L 348.956104 143.224518 
L 349.781345 138.09803 
L 350.648179 143.223916 
L 351.526111 143.747659 
L 352.388425 147.149935 
L 353.276965 142.150581 
L 354.112936 147.077067 
L 354.98185 150.921547 
L 355.870674 149.236667 
L 356.763876 129.238642 
L 357.58951 128.042739 
L 358.45168 134.025372 
L 359.320191 132.748372 
L 360.116393 134.361 
L 361.078338 132.502003 
L 362.752971 137.565805 
L 363.629716 138.216844 
L 365.366305 133.783165 
L 366.194012 130.224524 
L 367.091101 138.629816 
L 367.97015 135.390708 
L 369.700883 132.720173 
L 370.545532 131.877994 
L 371.434914 126.377707 
L 372.32797 131.236695 
L 373.150462 129.900236 
L 374.054361 123.811397 
L 374.862882 129.141378 
L 375.771666 125.931946 
L 376.645746 132.378351 
L 378.302131 134.807522 
L 379.230854 129.315901 
L 379.978468 130.598955 
L 381.015802 122.860896 
L 381.809873 123.798865 
L 382.79876 132.713072 
L 383.554698 135.962532 
L 384.407564 138.533532 
L 386.133549 144.933973 
L 387.017935 134.460714 
L 387.889911 128.039467 
L 388.753877 126.722019 
L 389.585521 123.153997 
L 390.441168 136.281272 
L 391.34746 136.532116 
L 392.195985 138.569352 
L 393.063265 138.503448 
L 393.936998 136.492981 
L 394.789268 139.011897 
L 395.641294 138.437114 
L 396.537156 137.573905 
L 397.366439 138.140791 
L 398.264969 136.7403 
L 399.124268 130.032265 
L 399.97911 134.039455 
L 400.856979 130.653074 
L 401.708466 131.871151 
L 402.559497 128.864104 
L 403.455236 129.172858 
L 404.325225 131.946191 
L 404.325225 131.946191 
" clip-path="url(#pa5a46e9bfd)" style="fill: none; stroke: #1f77b4; stroke-width: 1.5; stroke-linecap: square"/>
   </g>
   <g id="line2d_2">
    <path d="M 69.614523 34.26236 
L 70.307653 29.999881 
L 70.654156 30.278032 
L 71.000783 30.962134 
L 71.347411 31.894316 
L 73.772682 41.9679 
L 74.81244 45.290679 
L 76.197954 48.620976 
L 77.236467 50.620658 
L 78.621981 52.823314 
L 80.353252 55.183841 
L 83.12428 58.499102 
L 86.933822 62.716476 
L 92.821635 68.820767 
L 97.669691 73.526785 
L 102.863503 78.232802 
L 107.711559 82.314859 
L 112.905371 86.359328 
L 117.06067 89.403956 
L 123.985753 94.087421 
L 128.486808 96.914038 
L 138.528676 102.67252 
L 144.415245 105.747218 
L 152.378842 109.618782 
L 162.074953 113.91885 
L 171.42282 117.670132 
L 184.92723 122.526502 
L 193.235339 125.285461 
L 215.050346 131.765632 
L 238.94238 137.84737 
L 253.481572 141.192702 
L 259.028603 142.282754 
L 262.48617 142.54587 
L 296.427534 144.635763 
L 305.767939 145.161995 
L 316.50132 145.748368 
L 328.627678 146.379846 
L 335.542811 146.733174 
L 342.818626 147.094018 
L 373.289986 148.514845 
L 378.82458 148.762926 
L 404.10959 149.837942 
L 404.10959 149.837942 
" clip-path="url(#pa5a46e9bfd)" style="fill: none; stroke: #000000; stroke-width: 2.5; stroke-linecap: square"/>
   </g>
   <g id="line2d_3">
    <path d="M 69.614523 74.113158 
L 70.307653 67.993831 
L 71.000783 64.528218 
L 71.347411 63.160014 
L 72.040168 61.581318 
L 73.079925 60.280774 
L 74.465439 59.22831 
L 75.158196 58.950158 
L 75.505197 58.867465 
L 75.850953 59.017817 
L 76.54371 59.626742 
L 77.929224 62.528536 
L 82.431523 72.692331 
L 84.164038 75.939934 
L 85.895309 78.781587 
L 87.626579 81.284948 
L 89.35785 83.525193 
L 91.436121 85.923307 
L 94.205906 88.712337 
L 97.322691 91.418673 
L 100.092475 93.523601 
L 103.20926 95.628529 
L 107.018802 97.891326 
L 110.135587 99.537681 
L 113.251128 101.041201 
L 116.367913 102.424439 
L 122.600239 104.890212 
L 128.141051 106.822235 
L 129.872322 107.21315 
L 136.104648 108.197956 
L 145.108002 109.257938 
L 150.647571 109.754099 
L 158.265411 110.302884 
L 186.307769 111.407971 
L 208.819264 111.783851 
L 220.597377 111.889098 
L 232.363054 112.046967 
L 239.290624 112.152214 
L 321.700107 114.039131 
L 328.279434 114.212036 
L 354.248495 114.881102 
L 360.827821 115.054007 
L 387.480934 115.738109 
L 394.06026 115.911014 
L 404.457834 116.17413 
L 404.457834 116.17413 
" clip-path="url(#pa5a46e9bfd)" style="fill: none; stroke-dasharray: 9.25,4; stroke-dashoffset: 0; stroke: #8b0000; stroke-width: 2.5"/>
   </g>
   <g id="legend_1">
    <g id="line2d_4">
     <path d="M 333.95625 29.694438 
L 343.95625 29.694438 
L 353.95625 29.694438 
" style="fill: none; stroke: #1f77b4; stroke-width: 1.5; stroke-linecap: square"/>
    </g>
    <g id="text_1">
     <!-- PSP -->
     <g transform="translate(361.95625 33.194438) scale(0.1 -0.1)">
      <defs>
       <path id="DejaVuSans-50" d="M 1259 4147 
L 1259 2394 
L 2053 2394 
Q 2494 2394 2734 2622 
Q 2975 2850 2975 3272 
Q 2975 3691 2734 3919 
Q 2494 4147 2053 4147 
L 1259 4147 
z
M 628 4666 
L 2053 4666 
Q 2838 4666 3239 4311 
Q 3641 3956 3641 3272 
Q 3641 2581 3239 2228 
Q 2838 1875 2053 1875 
L 1259 1875 
L 1259 0 
L 628 0 
L 628 4666 
z
" transform="scale(0.015625)"/>
       <path id="DejaVuSans-53" d="M 3425 4513 
L 3425 3897 
Q 3066 4069 2747 4153 
Q 2428 4238 2131 4238 
Q 1616 4238 1336 4038 
Q 1056 3838 1056 3469 
Q 1056 3159 1242 3001 
Q 1428 2844 1947 2747 
L 2328 2669 
Q 3034 2534 3370 2195 
Q 3706 1856 3706 1288 
Q 3706 609 3251 259 
Q 2797 -91 1919 -91 
Q 1588 -91 1214 -16 
Q 841 59 441 206 
L 441 856 
Q 825 641 1194 531 
Q 1563 422 1919 422 
Q 2459 422 2753 634 
Q 3047 847 3047 1241 
Q 3047 1584 2836 1778 
Q 2625 1972 2144 2069 
L 1759 2144 
Q 1053 2284 737 2584 
Q 422 2884 422 3419 
Q 422 4038 858 4394 
Q 1294 4750 2059 4750 
Q 2388 4750 2728 4690 
Q 3069 4631 3425 4513 
z
" transform="scale(0.015625)"/>
      </defs>
      <use xlink:href="#DejaVuSans-50"/>
      <use xlink:href="#DejaVuSans-53" x="60.302734"/>
      <use xlink:href="#DejaVuSans-50" x="123.779297"/>
     </g>
    </g>
    <g id="line2d_5">
     <path d="M 333.95625 44.372563 
L 343.95625 44.372563 
L 353.95625 44.372563 
" style="fill: none; stroke: #000000; stroke-width: 2.5; stroke-linecap: square"/>
    </g>
    <g id="text_2">
     <!-- Slow wind -->
     <g transform="translate(361.95625 47.872563) scale(0.1 -0.1)">
      <defs>
       <path id="DejaVuSans-6c" d="M 603 4863 
L 1178 4863 
L 1178 0 
L 603 0 
L 603 4863 
z
" transform="scale(0.015625)"/>
       <path id="DejaVuSans-6f" d="M 1959 3097 
Q 1497 3097 1228 2736 
Q 959 2375 959 1747 
Q 959 1119 1226 758 
Q 1494 397 1959 397 
Q 2419 397 2687 759 
Q 2956 1122 2956 1747 
Q 2956 2369 2687 2733 
Q 2419 3097 1959 3097 
z
M 1959 3584 
Q 2709 3584 3137 3096 
Q 3566 2609 3566 1747 
Q 3566 888 3137 398 
Q 2709 -91 1959 -91 
Q 1206 -91 779 398 
Q 353 888 353 1747 
Q 353 2609 779 3096 
Q 1206 3584 1959 3584 
z
" transform="scale(0.015625)"/>
       <path id="DejaVuSans-77" d="M 269 3500 
L 844 3500 
L 1563 769 
L 2278 3500 
L 2956 3500 
L 3675 769 
L 4391 3500 
L 4966 3500 
L 4050 0 
L 3372 0 
L 2619 2869 
L 1863 0 
L 1184 0 
L 269 3500 
z
" transform="scale(0.015625)"/>
       <path id="DejaVuSans-20" transform="scale(0.015625)"/>
       <path id="DejaVuSans-69" d="M 603 3500 
L 1178 3500 
L 1178 0 
L 603 0 
L 603 3500 
z
M 603 4863 
L 1178 4863 
L 1178 4134 
L 603 4134 
L 603 4863 
z
" transform="scale(0.015625)"/>
       <path id="DejaVuSans-6e" d="M 3513 2113 
L 3513 0 
L 2938 0 
L 2938 2094 
Q 2938 2591 2744 2837 
Q 2550 3084 2163 3084 
Q 1697 3084 1428 2787 
Q 1159 2491 1159 1978 
L 1159 0 
L 581 0 
L 581 3500 
L 1159 3500 
L 1159 2956 
Q 1366 3272 1645 3428 
Q 1925 3584 2291 3584 
Q 2894 3584 3203 3211 
Q 3513 2838 3513 2113 
z
" transform="scale(0.015625)"/>
       <path id="DejaVuSans-64" d="M 2906 2969 
L 2906 4863 
L 3481 4863 
L 3481 0 
L 2906 0 
L 2906 525 
Q 2725 213 2448 61 
Q 2172 -91 1784 -91 
Q 1150 -91 751 415 
Q 353 922 353 1747 
Q 353 2572 751 3078 
Q 1150 3584 1784 3584 
Q 2172 3584 2448 3432 
Q 2725 3281 2906 2969 
z
M 947 1747 
Q 947 1113 1208 752 
Q 1469 391 1925 391 
Q 2381 391 2643 752 
Q 2906 1113 2906 1747 
Q 2906 2381 2643 2742 
Q 2381 3103 1925 3103 
Q 1469 3103 1208 2742 
Q 947 2381 947 1747 
z
" transform="scale(0.015625)"/>
      </defs>
      <use xlink:href="#DejaVuSans-53"/>
      <use xlink:href="#DejaVuSans-6c" x="63.476562"/>
      <use xlink:href="#DejaVuSans-6f" x="91.259766"/>
      <use xlink:href="#DejaVuSans-77" x="152.441406"/>
      <use xlink:href="#DejaVuSans-20" x="234.228516"/>
      <use xlink:href="#DejaVuSans-77" x="266.015625"/>
      <use xlink:href="#DejaVuSans-69" x="347.802734"/>
      <use xlink:href="#DejaVuSans-6e" x="375.585938"/>
      <use xlink:href="#DejaVuSans-64" x="438.964844"/>
     </g>
    </g>
    <g id="line2d_6">
     <path d="M 333.95625 59.050688 
L 343.95625 59.050688 
L 353.95625 59.050688 
" style="fill: none; stroke-dasharray: 9.25,4; stroke-dashoffset: 0; stroke: #8b0000; stroke-width: 2.5"/>
    </g>
    <g id="text_3">
     <!-- Fast wind -->
     <g transform="translate(361.95625 62.550688) scale(0.1 -0.1)">
      <defs>
       <path id="DejaVuSans-46" d="M 628 4666 
L 3309 4666 
L 3309 4134 
L 1259 4134 
L 1259 2759 
L 3109 2759 
L 3109 2228 
L 1259 2228 
L 1259 0 
L 628 0 
L 628 4666 
z
" transform="scale(0.015625)"/>
       <path id="DejaVuSans-61" d="M 2194 1759 
Q 1497 1759 1228 1600 
Q 959 1441 959 1056 
Q 959 750 1161 570 
Q 1363 391 1709 391 
Q 2188 391 2477 730 
Q 2766 1069 2766 1631 
L 2766 1759 
L 2194 1759 
z
M 3341 1997 
L 3341 0 
L 2766 0 
L 2766 531 
Q 2569 213 2275 61 
Q 1981 -91 1556 -91 
Q 1019 -91 701 211 
Q 384 513 384 1019 
Q 384 1609 779 1909 
Q 1175 2209 1959 2209 
L 2766 2209 
L 2766 2266 
Q 2766 2663 2505 2880 
Q 2244 3097 1772 3097 
Q 1472 3097 1187 3025 
Q 903 2953 641 2809 
L 641 3341 
Q 956 3463 1253 3523 
Q 1550 3584 1831 3584 
Q 2591 3584 2966 3190 
Q 3341 2797 3341 1997 
z
" transform="scale(0.015625)"/>
       <path id="DejaVuSans-73" d="M 2834 3397 
L 2834 2853 
Q 2591 2978 2328 3040 
Q 2066 3103 1784 3103 
Q 1356 3103 1142 2972 
Q 928 2841 928 2578 
Q 928 2378 1081 2264 
Q 1234 2150 1697 2047 
L 1894 2003 
Q 2506 1872 2764 1633 
Q 3022 1394 3022 966 
Q 3022 478 2636 193 
Q 2250 -91 1575 -91 
Q 1294 -91 989 -36 
Q 684 19 347 128 
L 347 722 
Q 666 556 975 473 
Q 1284 391 1588 391 
Q 1994 391 2212 530 
Q 2431 669 2431 922 
Q 2431 1156 2273 1281 
Q 2116 1406 1581 1522 
L 1381 1569 
Q 847 1681 609 1914 
Q 372 2147 372 2553 
Q 372 3047 722 3315 
Q 1072 3584 1716 3584 
Q 2034 3584 2315 3537 
Q 2597 3491 2834 3397 
z
" transform="scale(0.015625)"/>
       <path id="DejaVuSans-74" d="M 1172 4494 
L 1172 3500 
L 2356 3500 
L 2356 3053 
L 1172 3053 
L 1172 1153 
Q 1172 725 1289 603 
Q 1406 481 1766 481 
L 2356 481 
L 2356 0 
L 1766 0 
Q 1100 0 847 248 
Q 594 497 594 1153 
L 594 3053 
L 172 3053 
L 172 3500 
L 594 3500 
L 594 4494 
L 1172 4494 
z
" transform="scale(0.015625)"/>
      </defs>
      <use xlink:href="#DejaVuSans-46"/>
      <use xlink:href="#DejaVuSans-61" x="48.394531"/>
      <use xlink:href="#DejaVuSans-73" x="109.673828"/>
      <use xlink:href="#DejaVuSans-74" x="161.773438"/>
      <use xlink:href="#DejaVuSans-20" x="200.982422"/>
      <use xlink:href="#DejaVuSans-77" x="232.769531"/>
      <use xlink:href="#DejaVuSans-69" x="314.556641"/>
      <use xlink:href="#DejaVuSans-6e" x="342.339844"/>
      <use xlink:href="#DejaVuSans-64" x="405.71875"/>
     </g>
    </g>
   </g>
   <g id="matplotlib.axis_1">
    <g id="xtick_1">
     <g id="line2d_7">
      <defs>
       <path id="mf0d82c21bb" d="M 0 0 
L 0 -3.5 
" style="stroke: #000000; stroke-width: 1.5"/>
      </defs>
      <g>
       <use xlink:href="#mf0d82c21bb" x="58.638988" y="242.124" style="stroke: #000000; stroke-width: 1.5"/>
      </g>
     </g>
     <g id="line2d_8">
      <defs>
       <path id="m9eedc8dbaf" d="M 0 0 
L 0 3.5 
" style="stroke: #000000; stroke-width: 1.5"/>
      </defs>
      <g>
       <use xlink:href="#m9eedc8dbaf" x="58.638988" y="16.596" style="stroke: #000000; stroke-width: 1.5"/>
      </g>
     </g>
     <g id="text_4">
      <!-- 0 -->
      <g transform="translate(54.821488 254.742125) scale(0.12 -0.12)">
       <defs>
        <path id="DejaVuSans-30" d="M 2034 4250 
Q 1547 4250 1301 3770 
Q 1056 3291 1056 2328 
Q 1056 1369 1301 889 
Q 1547 409 2034 409 
Q 2525 409 2770 889 
Q 3016 1369 3016 2328 
Q 3016 3291 2770 3770 
Q 2525 4250 2034 4250 
z
M 2034 4750 
Q 2819 4750 3233 4129 
Q 3647 3509 3647 2328 
Q 3647 1150 3233 529 
Q 2819 -91 2034 -91 
Q 1250 -91 836 529 
Q 422 1150 422 2328 
Q 422 3509 836 4129 
Q 1250 4750 2034 4750 
z
" transform="scale(0.015625)"/>
       </defs>
       <use xlink:href="#DejaVuSans-30"/>
      </g>
     </g>
    </g>
    <g id="xtick_2">
     <g id="line2d_9">
      <g>
       <use xlink:href="#mf0d82c21bb" x="101.902101" y="242.124" style="stroke: #000000; stroke-width: 1.5"/>
      </g>
     </g>
     <g id="line2d_10">
      <g>
       <use xlink:href="#m9eedc8dbaf" x="101.902101" y="16.596" style="stroke: #000000; stroke-width: 1.5"/>
      </g>
     </g>
     <g id="text_5">
      <!-- 5 -->
      <g transform="translate(98.084601 254.742125) scale(0.12 -0.12)">
       <defs>
        <path id="DejaVuSans-35" d="M 691 4666 
L 3169 4666 
L 3169 4134 
L 1269 4134 
L 1269 2991 
Q 1406 3038 1543 3061 
Q 1681 3084 1819 3084 
Q 2600 3084 3056 2656 
Q 3513 2228 3513 1497 
Q 3513 744 3044 326 
Q 2575 -91 1722 -91 
Q 1428 -91 1123 -41 
Q 819 9 494 109 
L 494 744 
Q 775 591 1075 516 
Q 1375 441 1709 441 
Q 2250 441 2565 725 
Q 2881 1009 2881 1497 
Q 2881 1984 2565 2268 
Q 2250 2553 1709 2553 
Q 1456 2553 1204 2497 
Q 953 2441 691 2322 
L 691 4666 
z
" transform="scale(0.015625)"/>
       </defs>
       <use xlink:href="#DejaVuSans-35"/>
      </g>
     </g>
    </g>
    <g id="xtick_3">
     <g id="line2d_11">
      <g>
       <use xlink:href="#mf0d82c21bb" x="145.165214" y="242.124" style="stroke: #000000; stroke-width: 1.5"/>
      </g>
     </g>
     <g id="line2d_12">
      <g>
       <use xlink:href="#m9eedc8dbaf" x="145.165214" y="16.596" style="stroke: #000000; stroke-width: 1.5"/>
      </g>
     </g>
     <g id="text_6">
      <!-- 10 -->
      <g transform="translate(137.530214 254.742125) scale(0.12 -0.12)">
       <defs>
        <path id="DejaVuSans-31" d="M 794 531 
L 1825 531 
L 1825 4091 
L 703 3866 
L 703 4441 
L 1819 4666 
L 2450 4666 
L 2450 531 
L 3481 531 
L 3481 0 
L 794 0 
L 794 531 
z
" transform="scale(0.015625)"/>
       </defs>
       <use xlink:href="#DejaVuSans-31"/>
       <use xlink:href="#DejaVuSans-30" x="63.623047"/>
      </g>
     </g>
    </g>
    <g id="xtick_4">
     <g id="line2d_13">
      <g>
       <use xlink:href="#mf0d82c21bb" x="188.428327" y="242.124" style="stroke: #000000; stroke-width: 1.5"/>
      </g>
     </g>
     <g id="line2d_14">
      <g>
       <use xlink:href="#m9eedc8dbaf" x="188.428327" y="16.596" style="stroke: #000000; stroke-width: 1.5"/>
      </g>
     </g>
     <g id="text_7">
      <!-- 15 -->
      <g transform="translate(180.793327 254.742125) scale(0.12 -0.12)">
       <use xlink:href="#DejaVuSans-31"/>
       <use xlink:href="#DejaVuSans-35" x="63.623047"/>
      </g>
     </g>
    </g>
    <g id="xtick_5">
     <g id="line2d_15">
      <g>
       <use xlink:href="#mf0d82c21bb" x="231.69144" y="242.124" style="stroke: #000000; stroke-width: 1.5"/>
      </g>
     </g>
     <g id="line2d_16">
      <g>
       <use xlink:href="#m9eedc8dbaf" x="231.69144" y="16.596" style="stroke: #000000; stroke-width: 1.5"/>
      </g>
     </g>
     <g id="text_8">
      <!-- 20 -->
      <g transform="translate(224.05644 254.742125) scale(0.12 -0.12)">
       <defs>
        <path id="DejaVuSans-32" d="M 1228 531 
L 3431 531 
L 3431 0 
L 469 0 
L 469 531 
Q 828 903 1448 1529 
Q 2069 2156 2228 2338 
Q 2531 2678 2651 2914 
Q 2772 3150 2772 3378 
Q 2772 3750 2511 3984 
Q 2250 4219 1831 4219 
Q 1534 4219 1204 4116 
Q 875 4013 500 3803 
L 500 4441 
Q 881 4594 1212 4672 
Q 1544 4750 1819 4750 
Q 2544 4750 2975 4387 
Q 3406 4025 3406 3419 
Q 3406 3131 3298 2873 
Q 3191 2616 2906 2266 
Q 2828 2175 2409 1742 
Q 1991 1309 1228 531 
z
" transform="scale(0.015625)"/>
       </defs>
       <use xlink:href="#DejaVuSans-32"/>
       <use xlink:href="#DejaVuSans-30" x="63.623047"/>
      </g>
     </g>
    </g>
    <g id="xtick_6">
     <g id="line2d_17">
      <g>
       <use xlink:href="#mf0d82c21bb" x="274.954553" y="242.124" style="stroke: #000000; stroke-width: 1.5"/>
      </g>
     </g>
     <g id="line2d_18">
      <g>
       <use xlink:href="#m9eedc8dbaf" x="274.954553" y="16.596" style="stroke: #000000; stroke-width: 1.5"/>
      </g>
     </g>
     <g id="text_9">
      <!-- 25 -->
      <g transform="translate(267.319553 254.742125) scale(0.12 -0.12)">
       <use xlink:href="#DejaVuSans-32"/>
       <use xlink:href="#DejaVuSans-35" x="63.623047"/>
      </g>
     </g>
    </g>
    <g id="xtick_7">
     <g id="line2d_19">
      <g>
       <use xlink:href="#mf0d82c21bb" x="318.217666" y="242.124" style="stroke: #000000; stroke-width: 1.5"/>
      </g>
     </g>
     <g id="line2d_20">
      <g>
       <use xlink:href="#m9eedc8dbaf" x="318.217666" y="16.596" style="stroke: #000000; stroke-width: 1.5"/>
      </g>
     </g>
     <g id="text_10">
      <!-- 30 -->
      <g transform="translate(310.582666 254.742125) scale(0.12 -0.12)">
       <defs>
        <path id="DejaVuSans-33" d="M 2597 2516 
Q 3050 2419 3304 2112 
Q 3559 1806 3559 1356 
Q 3559 666 3084 287 
Q 2609 -91 1734 -91 
Q 1441 -91 1130 -33 
Q 819 25 488 141 
L 488 750 
Q 750 597 1062 519 
Q 1375 441 1716 441 
Q 2309 441 2620 675 
Q 2931 909 2931 1356 
Q 2931 1769 2642 2001 
Q 2353 2234 1838 2234 
L 1294 2234 
L 1294 2753 
L 1863 2753 
Q 2328 2753 2575 2939 
Q 2822 3125 2822 3475 
Q 2822 3834 2567 4026 
Q 2313 4219 1838 4219 
Q 1578 4219 1281 4162 
Q 984 4106 628 3988 
L 628 4550 
Q 988 4650 1302 4700 
Q 1616 4750 1894 4750 
Q 2613 4750 3031 4423 
Q 3450 4097 3450 3541 
Q 3450 3153 3228 2886 
Q 3006 2619 2597 2516 
z
" transform="scale(0.015625)"/>
       </defs>
       <use xlink:href="#DejaVuSans-33"/>
       <use xlink:href="#DejaVuSans-30" x="63.623047"/>
      </g>
     </g>
    </g>
    <g id="xtick_8">
     <g id="line2d_21">
      <g>
       <use xlink:href="#mf0d82c21bb" x="361.480779" y="242.124" style="stroke: #000000; stroke-width: 1.5"/>
      </g>
     </g>
     <g id="line2d_22">
      <g>
       <use xlink:href="#m9eedc8dbaf" x="361.480779" y="16.596" style="stroke: #000000; stroke-width: 1.5"/>
      </g>
     </g>
     <g id="text_11">
      <!-- 35 -->
      <g transform="translate(353.845779 254.742125) scale(0.12 -0.12)">
       <use xlink:href="#DejaVuSans-33"/>
       <use xlink:href="#DejaVuSans-35" x="63.623047"/>
      </g>
     </g>
    </g>
    <g id="xtick_9">
     <g id="line2d_23">
      <g>
       <use xlink:href="#mf0d82c21bb" x="404.743892" y="242.124" style="stroke: #000000; stroke-width: 1.5"/>
      </g>
     </g>
     <g id="line2d_24">
      <g>
       <use xlink:href="#m9eedc8dbaf" x="404.743892" y="16.596" style="stroke: #000000; stroke-width: 1.5"/>
      </g>
     </g>
     <g id="text_12">
      <!-- 40 -->
      <g transform="translate(397.108892 254.742125) scale(0.12 -0.12)">
       <defs>
        <path id="DejaVuSans-34" d="M 2419 4116 
L 825 1625 
L 2419 1625 
L 2419 4116 
z
M 2253 4666 
L 3047 4666 
L 3047 1625 
L 3713 1625 
L 3713 1100 
L 3047 1100 
L 3047 0 
L 2419 0 
L 2419 1100 
L 313 1100 
L 313 1709 
L 2253 4666 
z
" transform="scale(0.015625)"/>
       </defs>
       <use xlink:href="#DejaVuSans-34"/>
       <use xlink:href="#DejaVuSans-30" x="63.623047"/>
      </g>
     </g>
    </g>
    <g id="xtick_10">
     <g id="line2d_25">
      <defs>
       <path id="mcc45230944" d="M 0 0 
L 0 -2 
" style="stroke: #000000; stroke-width: 1.5"/>
      </defs>
      <g>
       <use xlink:href="#mcc45230944" x="67.29161" y="242.124" style="stroke: #000000; stroke-width: 1.5"/>
      </g>
     </g>
     <g id="line2d_26">
      <defs>
       <path id="mca84df8a24" d="M 0 0 
L 0 2 
" style="stroke: #000000; stroke-width: 1.5"/>
      </defs>
      <g>
       <use xlink:href="#mca84df8a24" x="67.29161" y="16.596" style="stroke: #000000; stroke-width: 1.5"/>
      </g>
     </g>
    </g>
    <g id="xtick_11">
     <g id="line2d_27">
      <g>
       <use xlink:href="#mcc45230944" x="75.944233" y="242.124" style="stroke: #000000; stroke-width: 1.5"/>
      </g>
     </g>
     <g id="line2d_28">
      <g>
       <use xlink:href="#mca84df8a24" x="75.944233" y="16.596" style="stroke: #000000; stroke-width: 1.5"/>
      </g>
     </g>
    </g>
    <g id="xtick_12">
     <g id="line2d_29">
      <g>
       <use xlink:href="#mcc45230944" x="84.596856" y="242.124" style="stroke: #000000; stroke-width: 1.5"/>
      </g>
     </g>
     <g id="line2d_30">
      <g>
       <use xlink:href="#mca84df8a24" x="84.596856" y="16.596" style="stroke: #000000; stroke-width: 1.5"/>
      </g>
     </g>
    </g>
    <g id="xtick_13">
     <g id="line2d_31">
      <g>
       <use xlink:href="#mcc45230944" x="93.249478" y="242.124" style="stroke: #000000; stroke-width: 1.5"/>
      </g>
     </g>
     <g id="line2d_32">
      <g>
       <use xlink:href="#mca84df8a24" x="93.249478" y="16.596" style="stroke: #000000; stroke-width: 1.5"/>
      </g>
     </g>
    </g>
    <g id="xtick_14">
     <g id="line2d_33">
      <g>
       <use xlink:href="#mcc45230944" x="110.554723" y="242.124" style="stroke: #000000; stroke-width: 1.5"/>
      </g>
     </g>
     <g id="line2d_34">
      <g>
       <use xlink:href="#mca84df8a24" x="110.554723" y="16.596" style="stroke: #000000; stroke-width: 1.5"/>
      </g>
     </g>
    </g>
    <g id="xtick_15">
     <g id="line2d_35">
      <g>
       <use xlink:href="#mcc45230944" x="119.207346" y="242.124" style="stroke: #000000; stroke-width: 1.5"/>
      </g>
     </g>
     <g id="line2d_36">
      <g>
       <use xlink:href="#mca84df8a24" x="119.207346" y="16.596" style="stroke: #000000; stroke-width: 1.5"/>
      </g>
     </g>
    </g>
    <g id="xtick_16">
     <g id="line2d_37">
      <g>
       <use xlink:href="#mcc45230944" x="127.859969" y="242.124" style="stroke: #000000; stroke-width: 1.5"/>
      </g>
     </g>
     <g id="line2d_38">
      <g>
       <use xlink:href="#mca84df8a24" x="127.859969" y="16.596" style="stroke: #000000; stroke-width: 1.5"/>
      </g>
     </g>
    </g>
    <g id="xtick_17">
     <g id="line2d_39">
      <g>
       <use xlink:href="#mcc45230944" x="136.512591" y="242.124" style="stroke: #000000; stroke-width: 1.5"/>
      </g>
     </g>
     <g id="line2d_40">
      <g>
       <use xlink:href="#mca84df8a24" x="136.512591" y="16.596" style="stroke: #000000; stroke-width: 1.5"/>
      </g>
     </g>
    </g>
    <g id="xtick_18">
     <g id="line2d_41">
      <g>
       <use xlink:href="#mcc45230944" x="153.817836" y="242.124" style="stroke: #000000; stroke-width: 1.5"/>
      </g>
     </g>
     <g id="line2d_42">
      <g>
       <use xlink:href="#mca84df8a24" x="153.817836" y="16.596" style="stroke: #000000; stroke-width: 1.5"/>
      </g>
     </g>
    </g>
    <g id="xtick_19">
     <g id="line2d_43">
      <g>
       <use xlink:href="#mcc45230944" x="162.470459" y="242.124" style="stroke: #000000; stroke-width: 1.5"/>
      </g>
     </g>
     <g id="line2d_44">
      <g>
       <use xlink:href="#mca84df8a24" x="162.470459" y="16.596" style="stroke: #000000; stroke-width: 1.5"/>
      </g>
     </g>
    </g>
    <g id="xtick_20">
     <g id="line2d_45">
      <g>
       <use xlink:href="#mcc45230944" x="171.123082" y="242.124" style="stroke: #000000; stroke-width: 1.5"/>
      </g>
     </g>
     <g id="line2d_46">
      <g>
       <use xlink:href="#mca84df8a24" x="171.123082" y="16.596" style="stroke: #000000; stroke-width: 1.5"/>
      </g>
     </g>
    </g>
    <g id="xtick_21">
     <g id="line2d_47">
      <g>
       <use xlink:href="#mcc45230944" x="179.775704" y="242.124" style="stroke: #000000; stroke-width: 1.5"/>
      </g>
     </g>
     <g id="line2d_48">
      <g>
       <use xlink:href="#mca84df8a24" x="179.775704" y="16.596" style="stroke: #000000; stroke-width: 1.5"/>
      </g>
     </g>
    </g>
    <g id="xtick_22">
     <g id="line2d_49">
      <g>
       <use xlink:href="#mcc45230944" x="197.080949" y="242.124" style="stroke: #000000; stroke-width: 1.5"/>
      </g>
     </g>
     <g id="line2d_50">
      <g>
       <use xlink:href="#mca84df8a24" x="197.080949" y="16.596" style="stroke: #000000; stroke-width: 1.5"/>
      </g>
     </g>
    </g>
    <g id="xtick_23">
     <g id="line2d_51">
      <g>
       <use xlink:href="#mcc45230944" x="205.733572" y="242.124" style="stroke: #000000; stroke-width: 1.5"/>
      </g>
     </g>
     <g id="line2d_52">
      <g>
       <use xlink:href="#mca84df8a24" x="205.733572" y="16.596" style="stroke: #000000; stroke-width: 1.5"/>
      </g>
     </g>
    </g>
    <g id="xtick_24">
     <g id="line2d_53">
      <g>
       <use xlink:href="#mcc45230944" x="214.386195" y="242.124" style="stroke: #000000; stroke-width: 1.5"/>
      </g>
     </g>
     <g id="line2d_54">
      <g>
       <use xlink:href="#mca84df8a24" x="214.386195" y="16.596" style="stroke: #000000; stroke-width: 1.5"/>
      </g>
     </g>
    </g>
    <g id="xtick_25">
     <g id="line2d_55">
      <g>
       <use xlink:href="#mcc45230944" x="223.038817" y="242.124" style="stroke: #000000; stroke-width: 1.5"/>
      </g>
     </g>
     <g id="line2d_56">
      <g>
       <use xlink:href="#mca84df8a24" x="223.038817" y="16.596" style="stroke: #000000; stroke-width: 1.5"/>
      </g>
     </g>
    </g>
    <g id="xtick_26">
     <g id="line2d_57">
      <g>
       <use xlink:href="#mcc45230944" x="240.344063" y="242.124" style="stroke: #000000; stroke-width: 1.5"/>
      </g>
     </g>
     <g id="line2d_58">
      <g>
       <use xlink:href="#mca84df8a24" x="240.344063" y="16.596" style="stroke: #000000; stroke-width: 1.5"/>
      </g>
     </g>
    </g>
    <g id="xtick_27">
     <g id="line2d_59">
      <g>
       <use xlink:href="#mcc45230944" x="248.996685" y="242.124" style="stroke: #000000; stroke-width: 1.5"/>
      </g>
     </g>
     <g id="line2d_60">
      <g>
       <use xlink:href="#mca84df8a24" x="248.996685" y="16.596" style="stroke: #000000; stroke-width: 1.5"/>
      </g>
     </g>
    </g>
    <g id="xtick_28">
     <g id="line2d_61">
      <g>
       <use xlink:href="#mcc45230944" x="257.649308" y="242.124" style="stroke: #000000; stroke-width: 1.5"/>
      </g>
     </g>
     <g id="line2d_62">
      <g>
       <use xlink:href="#mca84df8a24" x="257.649308" y="16.596" style="stroke: #000000; stroke-width: 1.5"/>
      </g>
     </g>
    </g>
    <g id="xtick_29">
     <g id="line2d_63">
      <g>
       <use xlink:href="#mcc45230944" x="266.30193" y="242.124" style="stroke: #000000; stroke-width: 1.5"/>
      </g>
     </g>
     <g id="line2d_64">
      <g>
       <use xlink:href="#mca84df8a24" x="266.30193" y="16.596" style="stroke: #000000; stroke-width: 1.5"/>
      </g>
     </g>
    </g>
    <g id="xtick_30">
     <g id="line2d_65">
      <g>
       <use xlink:href="#mcc45230944" x="283.607176" y="242.124" style="stroke: #000000; stroke-width: 1.5"/>
      </g>
     </g>
     <g id="line2d_66">
      <g>
       <use xlink:href="#mca84df8a24" x="283.607176" y="16.596" style="stroke: #000000; stroke-width: 1.5"/>
      </g>
     </g>
    </g>
    <g id="xtick_31">
     <g id="line2d_67">
      <g>
       <use xlink:href="#mcc45230944" x="292.259798" y="242.124" style="stroke: #000000; stroke-width: 1.5"/>
      </g>
     </g>
     <g id="line2d_68">
      <g>
       <use xlink:href="#mca84df8a24" x="292.259798" y="16.596" style="stroke: #000000; stroke-width: 1.5"/>
      </g>
     </g>
    </g>
    <g id="xtick_32">
     <g id="line2d_69">
      <g>
       <use xlink:href="#mcc45230944" x="300.912421" y="242.124" style="stroke: #000000; stroke-width: 1.5"/>
      </g>
     </g>
     <g id="line2d_70">
      <g>
       <use xlink:href="#mca84df8a24" x="300.912421" y="16.596" style="stroke: #000000; stroke-width: 1.5"/>
      </g>
     </g>
    </g>
    <g id="xtick_33">
     <g id="line2d_71">
      <g>
       <use xlink:href="#mcc45230944" x="309.565043" y="242.124" style="stroke: #000000; stroke-width: 1.5"/>
      </g>
     </g>
     <g id="line2d_72">
      <g>
       <use xlink:href="#mca84df8a24" x="309.565043" y="16.596" style="stroke: #000000; stroke-width: 1.5"/>
      </g>
     </g>
    </g>
    <g id="xtick_34">
     <g id="line2d_73">
      <g>
       <use xlink:href="#mcc45230944" x="326.870289" y="242.124" style="stroke: #000000; stroke-width: 1.5"/>
      </g>
     </g>
     <g id="line2d_74">
      <g>
       <use xlink:href="#mca84df8a24" x="326.870289" y="16.596" style="stroke: #000000; stroke-width: 1.5"/>
      </g>
     </g>
    </g>
    <g id="xtick_35">
     <g id="line2d_75">
      <g>
       <use xlink:href="#mcc45230944" x="335.522911" y="242.124" style="stroke: #000000; stroke-width: 1.5"/>
      </g>
     </g>
     <g id="line2d_76">
      <g>
       <use xlink:href="#mca84df8a24" x="335.522911" y="16.596" style="stroke: #000000; stroke-width: 1.5"/>
      </g>
     </g>
    </g>
    <g id="xtick_36">
     <g id="line2d_77">
      <g>
       <use xlink:href="#mcc45230944" x="344.175534" y="242.124" style="stroke: #000000; stroke-width: 1.5"/>
      </g>
     </g>
     <g id="line2d_78">
      <g>
       <use xlink:href="#mca84df8a24" x="344.175534" y="16.596" style="stroke: #000000; stroke-width: 1.5"/>
      </g>
     </g>
    </g>
    <g id="xtick_37">
     <g id="line2d_79">
      <g>
       <use xlink:href="#mcc45230944" x="352.828156" y="242.124" style="stroke: #000000; stroke-width: 1.5"/>
      </g>
     </g>
     <g id="line2d_80">
      <g>
       <use xlink:href="#mca84df8a24" x="352.828156" y="16.596" style="stroke: #000000; stroke-width: 1.5"/>
      </g>
     </g>
    </g>
    <g id="xtick_38">
     <g id="line2d_81">
      <g>
       <use xlink:href="#mcc45230944" x="370.133402" y="242.124" style="stroke: #000000; stroke-width: 1.5"/>
      </g>
     </g>
     <g id="line2d_82">
      <g>
       <use xlink:href="#mca84df8a24" x="370.133402" y="16.596" style="stroke: #000000; stroke-width: 1.5"/>
      </g>
     </g>
    </g>
    <g id="xtick_39">
     <g id="line2d_83">
      <g>
       <use xlink:href="#mcc45230944" x="378.786024" y="242.124" style="stroke: #000000; stroke-width: 1.5"/>
      </g>
     </g>
     <g id="line2d_84">
      <g>
       <use xlink:href="#mca84df8a24" x="378.786024" y="16.596" style="stroke: #000000; stroke-width: 1.5"/>
      </g>
     </g>
    </g>
    <g id="xtick_40">
     <g id="line2d_85">
      <g>
       <use xlink:href="#mcc45230944" x="387.438647" y="242.124" style="stroke: #000000; stroke-width: 1.5"/>
      </g>
     </g>
     <g id="line2d_86">
      <g>
       <use xlink:href="#mca84df8a24" x="387.438647" y="16.596" style="stroke: #000000; stroke-width: 1.5"/>
      </g>
     </g>
    </g>
    <g id="xtick_41">
     <g id="line2d_87">
      <g>
       <use xlink:href="#mcc45230944" x="396.091269" y="242.124" style="stroke: #000000; stroke-width: 1.5"/>
      </g>
     </g>
     <g id="line2d_88">
      <g>
       <use xlink:href="#mca84df8a24" x="396.091269" y="16.596" style="stroke: #000000; stroke-width: 1.5"/>
      </g>
     </g>
    </g>
    <g id="xtick_42">
     <g id="line2d_89">
      <g>
       <use xlink:href="#mcc45230944" x="413.396515" y="242.124" style="stroke: #000000; stroke-width: 1.5"/>
      </g>
     </g>
     <g id="line2d_90">
      <g>
       <use xlink:href="#mca84df8a24" x="413.396515" y="16.596" style="stroke: #000000; stroke-width: 1.5"/>
      </g>
     </g>
    </g>
    <g id="text_13">
     <!-- Distance [R$_\odot$] -->
     <g transform="translate(194.796179 270.355875) scale(0.12 -0.12)">
      <defs>
       <path id="DejaVuSans-44" d="M 1259 4147 
L 1259 519 
L 2022 519 
Q 2988 519 3436 956 
Q 3884 1394 3884 2338 
Q 3884 3275 3436 3711 
Q 2988 4147 2022 4147 
L 1259 4147 
z
M 628 4666 
L 1925 4666 
Q 3281 4666 3915 4102 
Q 4550 3538 4550 2338 
Q 4550 1131 3912 565 
Q 3275 0 1925 0 
L 628 0 
L 628 4666 
z
" transform="scale(0.015625)"/>
       <path id="DejaVuSans-63" d="M 3122 3366 
L 3122 2828 
Q 2878 2963 2633 3030 
Q 2388 3097 2138 3097 
Q 1578 3097 1268 2742 
Q 959 2388 959 1747 
Q 959 1106 1268 751 
Q 1578 397 2138 397 
Q 2388 397 2633 464 
Q 2878 531 3122 666 
L 3122 134 
Q 2881 22 2623 -34 
Q 2366 -91 2075 -91 
Q 1284 -91 818 406 
Q 353 903 353 1747 
Q 353 2603 823 3093 
Q 1294 3584 2113 3584 
Q 2378 3584 2631 3529 
Q 2884 3475 3122 3366 
z
" transform="scale(0.015625)"/>
       <path id="DejaVuSans-65" d="M 3597 1894 
L 3597 1613 
L 953 1613 
Q 991 1019 1311 708 
Q 1631 397 2203 397 
Q 2534 397 2845 478 
Q 3156 559 3463 722 
L 3463 178 
Q 3153 47 2828 -22 
Q 2503 -91 2169 -91 
Q 1331 -91 842 396 
Q 353 884 353 1716 
Q 353 2575 817 3079 
Q 1281 3584 2069 3584 
Q 2775 3584 3186 3129 
Q 3597 2675 3597 1894 
z
M 3022 2063 
Q 3016 2534 2758 2815 
Q 2500 3097 2075 3097 
Q 1594 3097 1305 2825 
Q 1016 2553 972 2059 
L 3022 2063 
z
" transform="scale(0.015625)"/>
       <path id="DejaVuSans-5b" d="M 550 4863 
L 1875 4863 
L 1875 4416 
L 1125 4416 
L 1125 -397 
L 1875 -397 
L 1875 -844 
L 550 -844 
L 550 4863 
z
" transform="scale(0.015625)"/>
       <path id="DejaVuSans-52" d="M 2841 2188 
Q 3044 2119 3236 1894 
Q 3428 1669 3622 1275 
L 4263 0 
L 3584 0 
L 2988 1197 
Q 2756 1666 2539 1819 
Q 2322 1972 1947 1972 
L 1259 1972 
L 1259 0 
L 628 0 
L 628 4666 
L 2053 4666 
Q 2853 4666 3247 4331 
Q 3641 3997 3641 3322 
Q 3641 2881 3436 2590 
Q 3231 2300 2841 2188 
z
M 1259 4147 
L 1259 2491 
L 2053 2491 
Q 2509 2491 2742 2702 
Q 2975 2913 2975 3322 
Q 2975 3731 2742 3939 
Q 2509 4147 2053 4147 
L 1259 4147 
z
" transform="scale(0.015625)"/>
       <path id="DejaVuSans-2299" d="M 2350 2403 
L 3013 2403 
L 3013 1609 
L 2350 1609 
L 2350 2403 
z
M 3306 3522 
Q 3016 3644 2681 3644 
Q 2347 3644 2056 3522 
Q 1769 3400 1531 3163 
Q 1291 2922 1172 2634 
Q 1053 2347 1053 2006 
Q 1053 1675 1172 1387 
Q 1291 1100 1531 859 
Q 1769 622 2056 500 
Q 2347 378 2681 378 
Q 3016 378 3306 500 
Q 3594 622 3831 859 
Q 4072 1100 4190 1387 
Q 4309 1675 4309 2006 
Q 4309 2347 4190 2634 
Q 4072 2922 3831 3163 
Q 3594 3400 3306 3522 
z
M 1878 3956 
Q 2250 4113 2681 4113 
Q 3113 4113 3484 3956 
Q 3856 3800 4163 3494 
Q 4472 3184 4625 2813 
Q 4778 2444 4778 2006 
Q 4778 1578 4625 1206 
Q 4472 838 4163 528 
Q 3856 222 3484 65 
Q 3113 -91 2681 -91 
Q 2250 -91 1878 65 
Q 1506 222 1200 528 
Q 891 838 738 1206 
Q 584 1578 584 2006 
Q 584 2444 738 2813 
Q 891 3184 1200 3494 
Q 1506 3800 1878 3956 
z
" transform="scale(0.015625)"/>
       <path id="DejaVuSans-5d" d="M 1947 4863 
L 1947 -844 
L 622 -844 
L 622 -397 
L 1369 -397 
L 1369 4416 
L 622 4416 
L 622 4863 
L 1947 4863 
z
" transform="scale(0.015625)"/>
      </defs>
      <use xlink:href="#DejaVuSans-44" transform="translate(0 0.015625)"/>
      <use xlink:href="#DejaVuSans-69" transform="translate(77.001953 0.015625)"/>
      <use xlink:href="#DejaVuSans-73" transform="translate(104.785156 0.015625)"/>
      <use xlink:href="#DejaVuSans-74" transform="translate(156.884766 0.015625)"/>
      <use xlink:href="#DejaVuSans-61" transform="translate(196.09375 0.015625)"/>
      <use xlink:href="#DejaVuSans-6e" transform="translate(257.373047 0.015625)"/>
      <use xlink:href="#DejaVuSans-63" transform="translate(320.751953 0.015625)"/>
      <use xlink:href="#DejaVuSans-65" transform="translate(375.732422 0.015625)"/>
      <use xlink:href="#DejaVuSans-20" transform="translate(437.255859 0.015625)"/>
      <use xlink:href="#DejaVuSans-5b" transform="translate(469.042969 0.015625)"/>
      <use xlink:href="#DejaVuSans-52" transform="translate(504.931641 0.015625)"/>
      <use xlink:href="#DejaVuSans-2299" transform="translate(589.008789 -16.390625) scale(0.7)"/>
      <use xlink:href="#DejaVuSans-5d" transform="translate(664.033203 0.015625)"/>
     </g>
    </g>
   </g>
   <g id="matplotlib.axis_2">
    <g id="ytick_1">
     <g id="line2d_91">
      <defs>
       <path id="m635b2bc065" d="M 0 0 
L 3.5 0 
" style="stroke: #000000; stroke-width: 1.5"/>
      </defs>
      <g>
       <use xlink:href="#m635b2bc065" x="52.872357" y="242.124" style="stroke: #000000; stroke-width: 1.5"/>
      </g>
     </g>
     <g id="line2d_92">
      <defs>
       <path id="mf5631bf328" d="M 0 0 
L -3.5 0 
" style="stroke: #000000; stroke-width: 1.5"/>
      </defs>
      <g>
       <use xlink:href="#mf5631bf328" x="421.2" y="242.124" style="stroke: #000000; stroke-width: 1.5"/>
      </g>
     </g>
     <g id="text_14">
      <!-- $\mathdefault{10^{4}}$ -->
      <g transform="translate(28.252357 246.683062) scale(0.12 -0.12)">
       <use xlink:href="#DejaVuSans-31" transform="translate(0 0.684375)"/>
       <use xlink:href="#DejaVuSans-30" transform="translate(63.623047 0.684375)"/>
       <use xlink:href="#DejaVuSans-34" transform="translate(128.203125 38.965625) scale(0.7)"/>
      </g>
     </g>
    </g>
    <g id="ytick_2">
     <g id="line2d_93">
      <g>
       <use xlink:href="#m635b2bc065" x="52.872357" y="166.948" style="stroke: #000000; stroke-width: 1.5"/>
      </g>
     </g>
     <g id="line2d_94">
      <g>
       <use xlink:href="#mf5631bf328" x="421.2" y="166.948" style="stroke: #000000; stroke-width: 1.5"/>
      </g>
     </g>
     <g id="text_15">
      <!-- $\mathdefault{10^{5}}$ -->
      <g transform="translate(28.252357 171.507062) scale(0.12 -0.12)">
       <use xlink:href="#DejaVuSans-31" transform="translate(0 0.684375)"/>
       <use xlink:href="#DejaVuSans-30" transform="translate(63.623047 0.684375)"/>
       <use xlink:href="#DejaVuSans-35" transform="translate(128.203125 38.965625) scale(0.7)"/>
      </g>
     </g>
    </g>
    <g id="ytick_3">
     <g id="line2d_95">
      <g>
       <use xlink:href="#m635b2bc065" x="52.872357" y="91.772" style="stroke: #000000; stroke-width: 1.5"/>
      </g>
     </g>
     <g id="line2d_96">
      <g>
       <use xlink:href="#mf5631bf328" x="421.2" y="91.772" style="stroke: #000000; stroke-width: 1.5"/>
      </g>
     </g>
     <g id="text_16">
      <!-- $\mathdefault{10^{6}}$ -->
      <g transform="translate(28.252357 96.331063) scale(0.12 -0.12)">
       <defs>
        <path id="DejaVuSans-36" d="M 2113 2584 
Q 1688 2584 1439 2293 
Q 1191 2003 1191 1497 
Q 1191 994 1439 701 
Q 1688 409 2113 409 
Q 2538 409 2786 701 
Q 3034 994 3034 1497 
Q 3034 2003 2786 2293 
Q 2538 2584 2113 2584 
z
M 3366 4563 
L 3366 3988 
Q 3128 4100 2886 4159 
Q 2644 4219 2406 4219 
Q 1781 4219 1451 3797 
Q 1122 3375 1075 2522 
Q 1259 2794 1537 2939 
Q 1816 3084 2150 3084 
Q 2853 3084 3261 2657 
Q 3669 2231 3669 1497 
Q 3669 778 3244 343 
Q 2819 -91 2113 -91 
Q 1303 -91 875 529 
Q 447 1150 447 2328 
Q 447 3434 972 4092 
Q 1497 4750 2381 4750 
Q 2619 4750 2861 4703 
Q 3103 4656 3366 4563 
z
" transform="scale(0.015625)"/>
       </defs>
       <use xlink:href="#DejaVuSans-31" transform="translate(0 0.765625)"/>
       <use xlink:href="#DejaVuSans-30" transform="translate(63.623047 0.765625)"/>
       <use xlink:href="#DejaVuSans-36" transform="translate(128.203125 39.046875) scale(0.7)"/>
      </g>
     </g>
    </g>
    <g id="ytick_4">
     <g id="line2d_97">
      <g>
       <use xlink:href="#m635b2bc065" x="52.872357" y="16.596" style="stroke: #000000; stroke-width: 1.5"/>
      </g>
     </g>
     <g id="line2d_98">
      <g>
       <use xlink:href="#mf5631bf328" x="421.2" y="16.596" style="stroke: #000000; stroke-width: 1.5"/>
      </g>
     </g>
     <g id="text_17">
      <!-- $\mathdefault{10^{7}}$ -->
      <g transform="translate(28.252357 21.155062) scale(0.12 -0.12)">
       <defs>
        <path id="DejaVuSans-37" d="M 525 4666 
L 3525 4666 
L 3525 4397 
L 1831 0 
L 1172 0 
L 2766 4134 
L 525 4134 
L 525 4666 
z
" transform="scale(0.015625)"/>
       </defs>
       <use xlink:href="#DejaVuSans-31" transform="translate(0 0.684375)"/>
       <use xlink:href="#DejaVuSans-30" transform="translate(63.623047 0.684375)"/>
       <use xlink:href="#DejaVuSans-37" transform="translate(128.203125 38.965625) scale(0.7)"/>
      </g>
     </g>
    </g>
    <g id="ytick_5">
     <g id="line2d_99">
      <defs>
       <path id="mda0a61e66a" d="M 0 0 
L 2 0 
" style="stroke: #000000; stroke-width: 1.5"/>
      </defs>
      <g>
       <use xlink:href="#mda0a61e66a" x="52.872357" y="219.493769" style="stroke: #000000; stroke-width: 1.5"/>
      </g>
     </g>
     <g id="line2d_100">
      <defs>
       <path id="m7f0dce24e8" d="M 0 0 
L -2 0 
" style="stroke: #000000; stroke-width: 1.5"/>
      </defs>
      <g>
       <use xlink:href="#m7f0dce24e8" x="421.2" y="219.493769" style="stroke: #000000; stroke-width: 1.5"/>
      </g>
     </g>
    </g>
    <g id="ytick_6">
     <g id="line2d_101">
      <g>
       <use xlink:href="#mda0a61e66a" x="52.872357" y="206.255933" style="stroke: #000000; stroke-width: 1.5"/>
      </g>
     </g>
     <g id="line2d_102">
      <g>
       <use xlink:href="#m7f0dce24e8" x="421.2" y="206.255933" style="stroke: #000000; stroke-width: 1.5"/>
      </g>
     </g>
    </g>
    <g id="ytick_7">
     <g id="line2d_103">
      <g>
       <use xlink:href="#mda0a61e66a" x="52.872357" y="196.863538" style="stroke: #000000; stroke-width: 1.5"/>
      </g>
     </g>
     <g id="line2d_104">
      <g>
       <use xlink:href="#m7f0dce24e8" x="421.2" y="196.863538" style="stroke: #000000; stroke-width: 1.5"/>
      </g>
     </g>
    </g>
    <g id="ytick_8">
     <g id="line2d_105">
      <g>
       <use xlink:href="#mda0a61e66a" x="52.872357" y="189.578231" style="stroke: #000000; stroke-width: 1.5"/>
      </g>
     </g>
     <g id="line2d_106">
      <g>
       <use xlink:href="#m7f0dce24e8" x="421.2" y="189.578231" style="stroke: #000000; stroke-width: 1.5"/>
      </g>
     </g>
    </g>
    <g id="ytick_9">
     <g id="line2d_107">
      <g>
       <use xlink:href="#mda0a61e66a" x="52.872357" y="183.625702" style="stroke: #000000; stroke-width: 1.5"/>
      </g>
     </g>
     <g id="line2d_108">
      <g>
       <use xlink:href="#m7f0dce24e8" x="421.2" y="183.625702" style="stroke: #000000; stroke-width: 1.5"/>
      </g>
     </g>
    </g>
    <g id="ytick_10">
     <g id="line2d_109">
      <g>
       <use xlink:href="#mda0a61e66a" x="52.872357" y="178.59291" style="stroke: #000000; stroke-width: 1.5"/>
      </g>
     </g>
     <g id="line2d_110">
      <g>
       <use xlink:href="#m7f0dce24e8" x="421.2" y="178.59291" style="stroke: #000000; stroke-width: 1.5"/>
      </g>
     </g>
    </g>
    <g id="ytick_11">
     <g id="line2d_111">
      <g>
       <use xlink:href="#mda0a61e66a" x="52.872357" y="174.233307" style="stroke: #000000; stroke-width: 1.5"/>
      </g>
     </g>
     <g id="line2d_112">
      <g>
       <use xlink:href="#m7f0dce24e8" x="421.2" y="174.233307" style="stroke: #000000; stroke-width: 1.5"/>
      </g>
     </g>
    </g>
    <g id="ytick_12">
     <g id="line2d_113">
      <g>
       <use xlink:href="#mda0a61e66a" x="52.872357" y="170.387865" style="stroke: #000000; stroke-width: 1.5"/>
      </g>
     </g>
     <g id="line2d_114">
      <g>
       <use xlink:href="#m7f0dce24e8" x="421.2" y="170.387865" style="stroke: #000000; stroke-width: 1.5"/>
      </g>
     </g>
    </g>
    <g id="ytick_13">
     <g id="line2d_115">
      <g>
       <use xlink:href="#mda0a61e66a" x="52.872357" y="144.317769" style="stroke: #000000; stroke-width: 1.5"/>
      </g>
     </g>
     <g id="line2d_116">
      <g>
       <use xlink:href="#m7f0dce24e8" x="421.2" y="144.317769" style="stroke: #000000; stroke-width: 1.5"/>
      </g>
     </g>
    </g>
    <g id="ytick_14">
     <g id="line2d_117">
      <g>
       <use xlink:href="#mda0a61e66a" x="52.872357" y="131.079933" style="stroke: #000000; stroke-width: 1.5"/>
      </g>
     </g>
     <g id="line2d_118">
      <g>
       <use xlink:href="#m7f0dce24e8" x="421.2" y="131.079933" style="stroke: #000000; stroke-width: 1.5"/>
      </g>
     </g>
    </g>
    <g id="ytick_15">
     <g id="line2d_119">
      <g>
       <use xlink:href="#mda0a61e66a" x="52.872357" y="121.687538" style="stroke: #000000; stroke-width: 1.5"/>
      </g>
     </g>
     <g id="line2d_120">
      <g>
       <use xlink:href="#m7f0dce24e8" x="421.2" y="121.687538" style="stroke: #000000; stroke-width: 1.5"/>
      </g>
     </g>
    </g>
    <g id="ytick_16">
     <g id="line2d_121">
      <g>
       <use xlink:href="#mda0a61e66a" x="52.872357" y="114.402231" style="stroke: #000000; stroke-width: 1.5"/>
      </g>
     </g>
     <g id="line2d_122">
      <g>
       <use xlink:href="#m7f0dce24e8" x="421.2" y="114.402231" style="stroke: #000000; stroke-width: 1.5"/>
      </g>
     </g>
    </g>
    <g id="ytick_17">
     <g id="line2d_123">
      <g>
       <use xlink:href="#mda0a61e66a" x="52.872357" y="108.449702" style="stroke: #000000; stroke-width: 1.5"/>
      </g>
     </g>
     <g id="line2d_124">
      <g>
       <use xlink:href="#m7f0dce24e8" x="421.2" y="108.449702" style="stroke: #000000; stroke-width: 1.5"/>
      </g>
     </g>
    </g>
    <g id="ytick_18">
     <g id="line2d_125">
      <g>
       <use xlink:href="#mda0a61e66a" x="52.872357" y="103.41691" style="stroke: #000000; stroke-width: 1.5"/>
      </g>
     </g>
     <g id="line2d_126">
      <g>
       <use xlink:href="#m7f0dce24e8" x="421.2" y="103.41691" style="stroke: #000000; stroke-width: 1.5"/>
      </g>
     </g>
    </g>
    <g id="ytick_19">
     <g id="line2d_127">
      <g>
       <use xlink:href="#mda0a61e66a" x="52.872357" y="99.057307" style="stroke: #000000; stroke-width: 1.5"/>
      </g>
     </g>
     <g id="line2d_128">
      <g>
       <use xlink:href="#m7f0dce24e8" x="421.2" y="99.057307" style="stroke: #000000; stroke-width: 1.5"/>
      </g>
     </g>
    </g>
    <g id="ytick_20">
     <g id="line2d_129">
      <g>
       <use xlink:href="#mda0a61e66a" x="52.872357" y="95.211865" style="stroke: #000000; stroke-width: 1.5"/>
      </g>
     </g>
     <g id="line2d_130">
      <g>
       <use xlink:href="#m7f0dce24e8" x="421.2" y="95.211865" style="stroke: #000000; stroke-width: 1.5"/>
      </g>
     </g>
    </g>
    <g id="ytick_21">
     <g id="line2d_131">
      <g>
       <use xlink:href="#mda0a61e66a" x="52.872357" y="69.141769" style="stroke: #000000; stroke-width: 1.5"/>
      </g>
     </g>
     <g id="line2d_132">
      <g>
       <use xlink:href="#m7f0dce24e8" x="421.2" y="69.141769" style="stroke: #000000; stroke-width: 1.5"/>
      </g>
     </g>
    </g>
    <g id="ytick_22">
     <g id="line2d_133">
      <g>
       <use xlink:href="#mda0a61e66a" x="52.872357" y="55.903933" style="stroke: #000000; stroke-width: 1.5"/>
      </g>
     </g>
     <g id="line2d_134">
      <g>
       <use xlink:href="#m7f0dce24e8" x="421.2" y="55.903933" style="stroke: #000000; stroke-width: 1.5"/>
      </g>
     </g>
    </g>
    <g id="ytick_23">
     <g id="line2d_135">
      <g>
       <use xlink:href="#mda0a61e66a" x="52.872357" y="46.511538" style="stroke: #000000; stroke-width: 1.5"/>
      </g>
     </g>
     <g id="line2d_136">
      <g>
       <use xlink:href="#m7f0dce24e8" x="421.2" y="46.511538" style="stroke: #000000; stroke-width: 1.5"/>
      </g>
     </g>
    </g>
    <g id="ytick_24">
     <g id="line2d_137">
      <g>
       <use xlink:href="#mda0a61e66a" x="52.872357" y="39.226231" style="stroke: #000000; stroke-width: 1.5"/>
      </g>
     </g>
     <g id="line2d_138">
      <g>
       <use xlink:href="#m7f0dce24e8" x="421.2" y="39.226231" style="stroke: #000000; stroke-width: 1.5"/>
      </g>
     </g>
    </g>
    <g id="ytick_25">
     <g id="line2d_139">
      <g>
       <use xlink:href="#mda0a61e66a" x="52.872357" y="33.273702" style="stroke: #000000; stroke-width: 1.5"/>
      </g>
     </g>
     <g id="line2d_140">
      <g>
       <use xlink:href="#m7f0dce24e8" x="421.2" y="33.273702" style="stroke: #000000; stroke-width: 1.5"/>
      </g>
     </g>
    </g>
    <g id="ytick_26">
     <g id="line2d_141">
      <g>
       <use xlink:href="#mda0a61e66a" x="52.872357" y="28.24091" style="stroke: #000000; stroke-width: 1.5"/>
      </g>
     </g>
     <g id="line2d_142">
      <g>
       <use xlink:href="#m7f0dce24e8" x="421.2" y="28.24091" style="stroke: #000000; stroke-width: 1.5"/>
      </g>
     </g>
    </g>
    <g id="ytick_27">
     <g id="line2d_143">
      <g>
       <use xlink:href="#mda0a61e66a" x="52.872357" y="23.881307" style="stroke: #000000; stroke-width: 1.5"/>
      </g>
     </g>
     <g id="line2d_144">
      <g>
       <use xlink:href="#m7f0dce24e8" x="421.2" y="23.881307" style="stroke: #000000; stroke-width: 1.5"/>
      </g>
     </g>
    </g>
    <g id="ytick_28">
     <g id="line2d_145">
      <g>
       <use xlink:href="#mda0a61e66a" x="52.872357" y="20.035865" style="stroke: #000000; stroke-width: 1.5"/>
      </g>
     </g>
     <g id="line2d_146">
      <g>
       <use xlink:href="#m7f0dce24e8" x="421.2" y="20.035865" style="stroke: #000000; stroke-width: 1.5"/>
      </g>
     </g>
    </g>
    <g id="text_18">
     <!-- T [K] -->
     <g transform="translate(21.756732 143.548125) rotate(-90) scale(0.12 -0.12)">
      <defs>
       <path id="DejaVuSans-54" d="M -19 4666 
L 3928 4666 
L 3928 4134 
L 2272 4134 
L 2272 0 
L 1638 0 
L 1638 4134 
L -19 4134 
L -19 4666 
z
" transform="scale(0.015625)"/>
       <path id="DejaVuSans-4b" d="M 628 4666 
L 1259 4666 
L 1259 2694 
L 3353 4666 
L 4166 4666 
L 1850 2491 
L 4331 0 
L 3500 0 
L 1259 2247 
L 1259 0 
L 628 0 
L 628 4666 
z
" transform="scale(0.015625)"/>
      </defs>
      <use xlink:href="#DejaVuSans-54"/>
      <use xlink:href="#DejaVuSans-20" x="61.083984"/>
      <use xlink:href="#DejaVuSans-5b" x="92.871094"/>
      <use xlink:href="#DejaVuSans-4b" x="131.884766"/>
      <use xlink:href="#DejaVuSans-5d" x="197.460938"/>
     </g>
    </g>
   </g>
  </g>
 </g>
 <defs>
  <clipPath id="pa5a46e9bfd">
   <rect x="52.872357" y="16.596" width="368.327643" height="225.528"/>
  </clipPath>
 </defs>
</svg>
