<?xml version="1.0" encoding="utf-8" standalone="no"?>
<!DOCTYPE svg PUBLIC "-//W3C//DTD SVG 1.1//EN"
  "http://www.w3.org/Graphics/SVG/1.1/DTD/svg11.dtd">
<svg xmlns:xlink="http://www.w3.org/1999/xlink" width="432pt" height="288pt" viewBox="0 0 432 288" xmlns="http://www.w3.org/2000/svg" version="1.1">
 <metadata>
  <rdf:RDF xmlns:dc="http://purl.org/dc/elements/1.1/" xmlns:cc="http://creativecommons.org/ns#" xmlns:rdf="http://www.w3.org/1999/02/22-rdf-syntax-ns#">
   <cc:Work>
    <dc:type rdf:resource="http://purl.org/dc/dcmitype/StillImage"/>
    <dc:date>2022-08-16T15:50:03.376579</dc:date>
    <dc:format>image/svg+xml</dc:format>
    <dc:creator>
     <cc:Agent>
      <dc:title>Matplotlib v3.5.1, https://matplotlib.org/</dc:title>
     </cc:Agent>
    </dc:creator>
   </cc:Work>
  </rdf:RDF>
 </metadata>
 <defs>
  <style type="text/css">*{stroke-linejoin: round; stroke-linecap: butt}</style>
 </defs>
 <g id="figure_1">
  <g id="patch_1">
   <path d="M 0 288 
L 432 288 
L 432 0 
L 0 0 
z
" style="fill: #ffffff"/>
  </g>
  <g id="axes_1">
   <g id="patch_2">
    <path d="M 52.872357 242.124 
L 421.2 242.124 
L 421.2 16.596 
L 52.872357 16.596 
z
" style="fill: #ffffff"/>
   </g>
   <g id="matplotlib.axis_1">
    <g id="xtick_1">
     <g id="line2d_1">
      <defs>
       <path id="m30b20ed396" d="M 0 0 
L 0 -3.5 
" style="stroke: #000000; stroke-width: 1.5"/>
      </defs>
      <g>
       <use xlink:href="#m30b20ed396" x="58.638988" y="242.124" style="stroke: #000000; stroke-width: 1.5"/>
      </g>
     </g>
     <g id="line2d_2">
      <defs>
       <path id="m90d46f6b7b" d="M 0 0 
L 0 3.5 
" style="stroke: #000000; stroke-width: 1.5"/>
      </defs>
      <g>
       <use xlink:href="#m90d46f6b7b" x="58.638988" y="16.596" style="stroke: #000000; stroke-width: 1.5"/>
      </g>
     </g>
     <g id="text_1">
      <!-- 0 -->
      <g transform="translate(54.821488 254.742125)scale(0.12 -0.12)">
       <defs>
        <path id="DejaVuSans-30" d="M 2034 4250 
Q 1547 4250 1301 3770 
Q 1056 3291 1056 2328 
Q 1056 1369 1301 889 
Q 1547 409 2034 409 
Q 2525 409 2770 889 
Q 3016 1369 3016 2328 
Q 3016 3291 2770 3770 
Q 2525 4250 2034 4250 
z
M 2034 4750 
Q 2819 4750 3233 4129 
Q 3647 3509 3647 2328 
Q 3647 1150 3233 529 
Q 2819 -91 2034 -91 
Q 1250 -91 836 529 
Q 422 1150 422 2328 
Q 422 3509 836 4129 
Q 1250 4750 2034 4750 
z
" transform="scale(0.015625)"/>
       </defs>
       <use xlink:href="#DejaVuSans-30"/>
      </g>
     </g>
    </g>
    <g id="xtick_2">
     <g id="line2d_3">
      <g>
       <use xlink:href="#m30b20ed396" x="101.902101" y="242.124" style="stroke: #000000; stroke-width: 1.5"/>
      </g>
     </g>
     <g id="line2d_4">
      <g>
       <use xlink:href="#m90d46f6b7b" x="101.902101" y="16.596" style="stroke: #000000; stroke-width: 1.5"/>
      </g>
     </g>
     <g id="text_2">
      <!-- 5 -->
      <g transform="translate(98.084601 254.742125)scale(0.12 -0.12)">
       <defs>
        <path id="DejaVuSans-35" d="M 691 4666 
L 3169 4666 
L 3169 4134 
L 1269 4134 
L 1269 2991 
Q 1406 3038 1543 3061 
Q 1681 3084 1819 3084 
Q 2600 3084 3056 2656 
Q 3513 2228 3513 1497 
Q 3513 744 3044 326 
Q 2575 -91 1722 -91 
Q 1428 -91 1123 -41 
Q 819 9 494 109 
L 494 744 
Q 775 591 1075 516 
Q 1375 441 1709 441 
Q 2250 441 2565 725 
Q 2881 1009 2881 1497 
Q 2881 1984 2565 2268 
Q 2250 2553 1709 2553 
Q 1456 2553 1204 2497 
Q 953 2441 691 2322 
L 691 4666 
z
" transform="scale(0.015625)"/>
       </defs>
       <use xlink:href="#DejaVuSans-35"/>
      </g>
     </g>
    </g>
    <g id="xtick_3">
     <g id="line2d_5">
      <g>
       <use xlink:href="#m30b20ed396" x="145.165214" y="242.124" style="stroke: #000000; stroke-width: 1.5"/>
      </g>
     </g>
     <g id="line2d_6">
      <g>
       <use xlink:href="#m90d46f6b7b" x="145.165214" y="16.596" style="stroke: #000000; stroke-width: 1.5"/>
      </g>
     </g>
     <g id="text_3">
      <!-- 10 -->
      <g transform="translate(137.530214 254.742125)scale(0.12 -0.12)">
       <defs>
        <path id="DejaVuSans-31" d="M 794 531 
L 1825 531 
L 1825 4091 
L 703 3866 
L 703 4441 
L 1819 4666 
L 2450 4666 
L 2450 531 
L 3481 531 
L 3481 0 
L 794 0 
L 794 531 
z
" transform="scale(0.015625)"/>
       </defs>
       <use xlink:href="#DejaVuSans-31"/>
       <use xlink:href="#DejaVuSans-30" x="63.623047"/>
      </g>
     </g>
    </g>
    <g id="xtick_4">
     <g id="line2d_7">
      <g>
       <use xlink:href="#m30b20ed396" x="188.428327" y="242.124" style="stroke: #000000; stroke-width: 1.5"/>
      </g>
     </g>
     <g id="line2d_8">
      <g>
       <use xlink:href="#m90d46f6b7b" x="188.428327" y="16.596" style="stroke: #000000; stroke-width: 1.5"/>
      </g>
     </g>
     <g id="text_4">
      <!-- 15 -->
      <g transform="translate(180.793327 254.742125)scale(0.12 -0.12)">
       <use xlink:href="#DejaVuSans-31"/>
       <use xlink:href="#DejaVuSans-35" x="63.623047"/>
      </g>
     </g>
    </g>
    <g id="xtick_5">
     <g id="line2d_9">
      <g>
       <use xlink:href="#m30b20ed396" x="231.69144" y="242.124" style="stroke: #000000; stroke-width: 1.5"/>
      </g>
     </g>
     <g id="line2d_10">
      <g>
       <use xlink:href="#m90d46f6b7b" x="231.69144" y="16.596" style="stroke: #000000; stroke-width: 1.5"/>
      </g>
     </g>
     <g id="text_5">
      <!-- 20 -->
      <g transform="translate(224.05644 254.742125)scale(0.12 -0.12)">
       <defs>
        <path id="DejaVuSans-32" d="M 1228 531 
L 3431 531 
L 3431 0 
L 469 0 
L 469 531 
Q 828 903 1448 1529 
Q 2069 2156 2228 2338 
Q 2531 2678 2651 2914 
Q 2772 3150 2772 3378 
Q 2772 3750 2511 3984 
Q 2250 4219 1831 4219 
Q 1534 4219 1204 4116 
Q 875 4013 500 3803 
L 500 4441 
Q 881 4594 1212 4672 
Q 1544 4750 1819 4750 
Q 2544 4750 2975 4387 
Q 3406 4025 3406 3419 
Q 3406 3131 3298 2873 
Q 3191 2616 2906 2266 
Q 2828 2175 2409 1742 
Q 1991 1309 1228 531 
z
" transform="scale(0.015625)"/>
       </defs>
       <use xlink:href="#DejaVuSans-32"/>
       <use xlink:href="#DejaVuSans-30" x="63.623047"/>
      </g>
     </g>
    </g>
    <g id="xtick_6">
     <g id="line2d_11">
      <g>
       <use xlink:href="#m30b20ed396" x="274.954553" y="242.124" style="stroke: #000000; stroke-width: 1.5"/>
      </g>
     </g>
     <g id="line2d_12">
      <g>
       <use xlink:href="#m90d46f6b7b" x="274.954553" y="16.596" style="stroke: #000000; stroke-width: 1.5"/>
      </g>
     </g>
     <g id="text_6">
      <!-- 25 -->
      <g transform="translate(267.319553 254.742125)scale(0.12 -0.12)">
       <use xlink:href="#DejaVuSans-32"/>
       <use xlink:href="#DejaVuSans-35" x="63.623047"/>
      </g>
     </g>
    </g>
    <g id="xtick_7">
     <g id="line2d_13">
      <g>
       <use xlink:href="#m30b20ed396" x="318.217666" y="242.124" style="stroke: #000000; stroke-width: 1.5"/>
      </g>
     </g>
     <g id="line2d_14">
      <g>
       <use xlink:href="#m90d46f6b7b" x="318.217666" y="16.596" style="stroke: #000000; stroke-width: 1.5"/>
      </g>
     </g>
     <g id="text_7">
      <!-- 30 -->
      <g transform="translate(310.582666 254.742125)scale(0.12 -0.12)">
       <defs>
        <path id="DejaVuSans-33" d="M 2597 2516 
Q 3050 2419 3304 2112 
Q 3559 1806 3559 1356 
Q 3559 666 3084 287 
Q 2609 -91 1734 -91 
Q 1441 -91 1130 -33 
Q 819 25 488 141 
L 488 750 
Q 750 597 1062 519 
Q 1375 441 1716 441 
Q 2309 441 2620 675 
Q 2931 909 2931 1356 
Q 2931 1769 2642 2001 
Q 2353 2234 1838 2234 
L 1294 2234 
L 1294 2753 
L 1863 2753 
Q 2328 2753 2575 2939 
Q 2822 3125 2822 3475 
Q 2822 3834 2567 4026 
Q 2313 4219 1838 4219 
Q 1578 4219 1281 4162 
Q 984 4106 628 3988 
L 628 4550 
Q 988 4650 1302 4700 
Q 1616 4750 1894 4750 
Q 2613 4750 3031 4423 
Q 3450 4097 3450 3541 
Q 3450 3153 3228 2886 
Q 3006 2619 2597 2516 
z
" transform="scale(0.015625)"/>
       </defs>
       <use xlink:href="#DejaVuSans-33"/>
       <use xlink:href="#DejaVuSans-30" x="63.623047"/>
      </g>
     </g>
    </g>
    <g id="xtick_8">
     <g id="line2d_15">
      <g>
       <use xlink:href="#m30b20ed396" x="361.480779" y="242.124" style="stroke: #000000; stroke-width: 1.5"/>
      </g>
     </g>
     <g id="line2d_16">
      <g>
       <use xlink:href="#m90d46f6b7b" x="361.480779" y="16.596" style="stroke: #000000; stroke-width: 1.5"/>
      </g>
     </g>
     <g id="text_8">
      <!-- 35 -->
      <g transform="translate(353.845779 254.742125)scale(0.12 -0.12)">
       <use xlink:href="#DejaVuSans-33"/>
       <use xlink:href="#DejaVuSans-35" x="63.623047"/>
      </g>
     </g>
    </g>
    <g id="xtick_9">
     <g id="line2d_17">
      <g>
       <use xlink:href="#m30b20ed396" x="404.743892" y="242.124" style="stroke: #000000; stroke-width: 1.5"/>
      </g>
     </g>
     <g id="line2d_18">
      <g>
       <use xlink:href="#m90d46f6b7b" x="404.743892" y="16.596" style="stroke: #000000; stroke-width: 1.5"/>
      </g>
     </g>
     <g id="text_9">
      <!-- 40 -->
      <g transform="translate(397.108892 254.742125)scale(0.12 -0.12)">
       <defs>
        <path id="DejaVuSans-34" d="M 2419 4116 
L 825 1625 
L 2419 1625 
L 2419 4116 
z
M 2253 4666 
L 3047 4666 
L 3047 1625 
L 3713 1625 
L 3713 1100 
L 3047 1100 
L 3047 0 
L 2419 0 
L 2419 1100 
L 313 1100 
L 313 1709 
L 2253 4666 
z
" transform="scale(0.015625)"/>
       </defs>
       <use xlink:href="#DejaVuSans-34"/>
       <use xlink:href="#DejaVuSans-30" x="63.623047"/>
      </g>
     </g>
    </g>
    <g id="xtick_10">
     <g id="line2d_19">
      <defs>
       <path id="ma59809e5cb" d="M 0 0 
L 0 -2 
" style="stroke: #000000; stroke-width: 1.5"/>
      </defs>
      <g>
       <use xlink:href="#ma59809e5cb" x="67.29161" y="242.124" style="stroke: #000000; stroke-width: 1.5"/>
      </g>
     </g>
     <g id="line2d_20">
      <defs>
       <path id="md6e2edf63e" d="M 0 0 
L 0 2 
" style="stroke: #000000; stroke-width: 1.5"/>
      </defs>
      <g>
       <use xlink:href="#md6e2edf63e" x="67.29161" y="16.596" style="stroke: #000000; stroke-width: 1.5"/>
      </g>
     </g>
    </g>
    <g id="xtick_11">
     <g id="line2d_21">
      <g>
       <use xlink:href="#ma59809e5cb" x="75.944233" y="242.124" style="stroke: #000000; stroke-width: 1.5"/>
      </g>
     </g>
     <g id="line2d_22">
      <g>
       <use xlink:href="#md6e2edf63e" x="75.944233" y="16.596" style="stroke: #000000; stroke-width: 1.5"/>
      </g>
     </g>
    </g>
    <g id="xtick_12">
     <g id="line2d_23">
      <g>
       <use xlink:href="#ma59809e5cb" x="84.596856" y="242.124" style="stroke: #000000; stroke-width: 1.5"/>
      </g>
     </g>
     <g id="line2d_24">
      <g>
       <use xlink:href="#md6e2edf63e" x="84.596856" y="16.596" style="stroke: #000000; stroke-width: 1.5"/>
      </g>
     </g>
    </g>
    <g id="xtick_13">
     <g id="line2d_25">
      <g>
       <use xlink:href="#ma59809e5cb" x="93.249478" y="242.124" style="stroke: #000000; stroke-width: 1.5"/>
      </g>
     </g>
     <g id="line2d_26">
      <g>
       <use xlink:href="#md6e2edf63e" x="93.249478" y="16.596" style="stroke: #000000; stroke-width: 1.5"/>
      </g>
     </g>
    </g>
    <g id="xtick_14">
     <g id="line2d_27">
      <g>
       <use xlink:href="#ma59809e5cb" x="110.554723" y="242.124" style="stroke: #000000; stroke-width: 1.5"/>
      </g>
     </g>
     <g id="line2d_28">
      <g>
       <use xlink:href="#md6e2edf63e" x="110.554723" y="16.596" style="stroke: #000000; stroke-width: 1.5"/>
      </g>
     </g>
    </g>
    <g id="xtick_15">
     <g id="line2d_29">
      <g>
       <use xlink:href="#ma59809e5cb" x="119.207346" y="242.124" style="stroke: #000000; stroke-width: 1.5"/>
      </g>
     </g>
     <g id="line2d_30">
      <g>
       <use xlink:href="#md6e2edf63e" x="119.207346" y="16.596" style="stroke: #000000; stroke-width: 1.5"/>
      </g>
     </g>
    </g>
    <g id="xtick_16">
     <g id="line2d_31">
      <g>
       <use xlink:href="#ma59809e5cb" x="127.859969" y="242.124" style="stroke: #000000; stroke-width: 1.5"/>
      </g>
     </g>
     <g id="line2d_32">
      <g>
       <use xlink:href="#md6e2edf63e" x="127.859969" y="16.596" style="stroke: #000000; stroke-width: 1.5"/>
      </g>
     </g>
    </g>
    <g id="xtick_17">
     <g id="line2d_33">
      <g>
       <use xlink:href="#ma59809e5cb" x="136.512591" y="242.124" style="stroke: #000000; stroke-width: 1.5"/>
      </g>
     </g>
     <g id="line2d_34">
      <g>
       <use xlink:href="#md6e2edf63e" x="136.512591" y="16.596" style="stroke: #000000; stroke-width: 1.5"/>
      </g>
     </g>
    </g>
    <g id="xtick_18">
     <g id="line2d_35">
      <g>
       <use xlink:href="#ma59809e5cb" x="153.817836" y="242.124" style="stroke: #000000; stroke-width: 1.5"/>
      </g>
     </g>
     <g id="line2d_36">
      <g>
       <use xlink:href="#md6e2edf63e" x="153.817836" y="16.596" style="stroke: #000000; stroke-width: 1.5"/>
      </g>
     </g>
    </g>
    <g id="xtick_19">
     <g id="line2d_37">
      <g>
       <use xlink:href="#ma59809e5cb" x="162.470459" y="242.124" style="stroke: #000000; stroke-width: 1.5"/>
      </g>
     </g>
     <g id="line2d_38">
      <g>
       <use xlink:href="#md6e2edf63e" x="162.470459" y="16.596" style="stroke: #000000; stroke-width: 1.5"/>
      </g>
     </g>
    </g>
    <g id="xtick_20">
     <g id="line2d_39">
      <g>
       <use xlink:href="#ma59809e5cb" x="171.123082" y="242.124" style="stroke: #000000; stroke-width: 1.5"/>
      </g>
     </g>
     <g id="line2d_40">
      <g>
       <use xlink:href="#md6e2edf63e" x="171.123082" y="16.596" style="stroke: #000000; stroke-width: 1.5"/>
      </g>
     </g>
    </g>
    <g id="xtick_21">
     <g id="line2d_41">
      <g>
       <use xlink:href="#ma59809e5cb" x="179.775704" y="242.124" style="stroke: #000000; stroke-width: 1.5"/>
      </g>
     </g>
     <g id="line2d_42">
      <g>
       <use xlink:href="#md6e2edf63e" x="179.775704" y="16.596" style="stroke: #000000; stroke-width: 1.5"/>
      </g>
     </g>
    </g>
    <g id="xtick_22">
     <g id="line2d_43">
      <g>
       <use xlink:href="#ma59809e5cb" x="197.080949" y="242.124" style="stroke: #000000; stroke-width: 1.5"/>
      </g>
     </g>
     <g id="line2d_44">
      <g>
       <use xlink:href="#md6e2edf63e" x="197.080949" y="16.596" style="stroke: #000000; stroke-width: 1.5"/>
      </g>
     </g>
    </g>
    <g id="xtick_23">
     <g id="line2d_45">
      <g>
       <use xlink:href="#ma59809e5cb" x="205.733572" y="242.124" style="stroke: #000000; stroke-width: 1.5"/>
      </g>
     </g>
     <g id="line2d_46">
      <g>
       <use xlink:href="#md6e2edf63e" x="205.733572" y="16.596" style="stroke: #000000; stroke-width: 1.5"/>
      </g>
     </g>
    </g>
    <g id="xtick_24">
     <g id="line2d_47">
      <g>
       <use xlink:href="#ma59809e5cb" x="214.386195" y="242.124" style="stroke: #000000; stroke-width: 1.5"/>
      </g>
     </g>
     <g id="line2d_48">
      <g>
       <use xlink:href="#md6e2edf63e" x="214.386195" y="16.596" style="stroke: #000000; stroke-width: 1.5"/>
      </g>
     </g>
    </g>
    <g id="xtick_25">
     <g id="line2d_49">
      <g>
       <use xlink:href="#ma59809e5cb" x="223.038817" y="242.124" style="stroke: #000000; stroke-width: 1.5"/>
      </g>
     </g>
     <g id="line2d_50">
      <g>
       <use xlink:href="#md6e2edf63e" x="223.038817" y="16.596" style="stroke: #000000; stroke-width: 1.5"/>
      </g>
     </g>
    </g>
    <g id="xtick_26">
     <g id="line2d_51">
      <g>
       <use xlink:href="#ma59809e5cb" x="240.344063" y="242.124" style="stroke: #000000; stroke-width: 1.5"/>
      </g>
     </g>
     <g id="line2d_52">
      <g>
       <use xlink:href="#md6e2edf63e" x="240.344063" y="16.596" style="stroke: #000000; stroke-width: 1.5"/>
      </g>
     </g>
    </g>
    <g id="xtick_27">
     <g id="line2d_53">
      <g>
       <use xlink:href="#ma59809e5cb" x="248.996685" y="242.124" style="stroke: #000000; stroke-width: 1.5"/>
      </g>
     </g>
     <g id="line2d_54">
      <g>
       <use xlink:href="#md6e2edf63e" x="248.996685" y="16.596" style="stroke: #000000; stroke-width: 1.5"/>
      </g>
     </g>
    </g>
    <g id="xtick_28">
     <g id="line2d_55">
      <g>
       <use xlink:href="#ma59809e5cb" x="257.649308" y="242.124" style="stroke: #000000; stroke-width: 1.5"/>
      </g>
     </g>
     <g id="line2d_56">
      <g>
       <use xlink:href="#md6e2edf63e" x="257.649308" y="16.596" style="stroke: #000000; stroke-width: 1.5"/>
      </g>
     </g>
    </g>
    <g id="xtick_29">
     <g id="line2d_57">
      <g>
       <use xlink:href="#ma59809e5cb" x="266.30193" y="242.124" style="stroke: #000000; stroke-width: 1.5"/>
      </g>
     </g>
     <g id="line2d_58">
      <g>
       <use xlink:href="#md6e2edf63e" x="266.30193" y="16.596" style="stroke: #000000; stroke-width: 1.5"/>
      </g>
     </g>
    </g>
    <g id="xtick_30">
     <g id="line2d_59">
      <g>
       <use xlink:href="#ma59809e5cb" x="283.607176" y="242.124" style="stroke: #000000; stroke-width: 1.5"/>
      </g>
     </g>
     <g id="line2d_60">
      <g>
       <use xlink:href="#md6e2edf63e" x="283.607176" y="16.596" style="stroke: #000000; stroke-width: 1.5"/>
      </g>
     </g>
    </g>
    <g id="xtick_31">
     <g id="line2d_61">
      <g>
       <use xlink:href="#ma59809e5cb" x="292.259798" y="242.124" style="stroke: #000000; stroke-width: 1.5"/>
      </g>
     </g>
     <g id="line2d_62">
      <g>
       <use xlink:href="#md6e2edf63e" x="292.259798" y="16.596" style="stroke: #000000; stroke-width: 1.5"/>
      </g>
     </g>
    </g>
    <g id="xtick_32">
     <g id="line2d_63">
      <g>
       <use xlink:href="#ma59809e5cb" x="300.912421" y="242.124" style="stroke: #000000; stroke-width: 1.5"/>
      </g>
     </g>
     <g id="line2d_64">
      <g>
       <use xlink:href="#md6e2edf63e" x="300.912421" y="16.596" style="stroke: #000000; stroke-width: 1.5"/>
      </g>
     </g>
    </g>
    <g id="xtick_33">
     <g id="line2d_65">
      <g>
       <use xlink:href="#ma59809e5cb" x="309.565043" y="242.124" style="stroke: #000000; stroke-width: 1.5"/>
      </g>
     </g>
     <g id="line2d_66">
      <g>
       <use xlink:href="#md6e2edf63e" x="309.565043" y="16.596" style="stroke: #000000; stroke-width: 1.5"/>
      </g>
     </g>
    </g>
    <g id="xtick_34">
     <g id="line2d_67">
      <g>
       <use xlink:href="#ma59809e5cb" x="326.870289" y="242.124" style="stroke: #000000; stroke-width: 1.5"/>
      </g>
     </g>
     <g id="line2d_68">
      <g>
       <use xlink:href="#md6e2edf63e" x="326.870289" y="16.596" style="stroke: #000000; stroke-width: 1.5"/>
      </g>
     </g>
    </g>
    <g id="xtick_35">
     <g id="line2d_69">
      <g>
       <use xlink:href="#ma59809e5cb" x="335.522911" y="242.124" style="stroke: #000000; stroke-width: 1.5"/>
      </g>
     </g>
     <g id="line2d_70">
      <g>
       <use xlink:href="#md6e2edf63e" x="335.522911" y="16.596" style="stroke: #000000; stroke-width: 1.5"/>
      </g>
     </g>
    </g>
    <g id="xtick_36">
     <g id="line2d_71">
      <g>
       <use xlink:href="#ma59809e5cb" x="344.175534" y="242.124" style="stroke: #000000; stroke-width: 1.5"/>
      </g>
     </g>
     <g id="line2d_72">
      <g>
       <use xlink:href="#md6e2edf63e" x="344.175534" y="16.596" style="stroke: #000000; stroke-width: 1.5"/>
      </g>
     </g>
    </g>
    <g id="xtick_37">
     <g id="line2d_73">
      <g>
       <use xlink:href="#ma59809e5cb" x="352.828156" y="242.124" style="stroke: #000000; stroke-width: 1.5"/>
      </g>
     </g>
     <g id="line2d_74">
      <g>
       <use xlink:href="#md6e2edf63e" x="352.828156" y="16.596" style="stroke: #000000; stroke-width: 1.5"/>
      </g>
     </g>
    </g>
    <g id="xtick_38">
     <g id="line2d_75">
      <g>
       <use xlink:href="#ma59809e5cb" x="370.133402" y="242.124" style="stroke: #000000; stroke-width: 1.5"/>
      </g>
     </g>
     <g id="line2d_76">
      <g>
       <use xlink:href="#md6e2edf63e" x="370.133402" y="16.596" style="stroke: #000000; stroke-width: 1.5"/>
      </g>
     </g>
    </g>
    <g id="xtick_39">
     <g id="line2d_77">
      <g>
       <use xlink:href="#ma59809e5cb" x="378.786024" y="242.124" style="stroke: #000000; stroke-width: 1.5"/>
      </g>
     </g>
     <g id="line2d_78">
      <g>
       <use xlink:href="#md6e2edf63e" x="378.786024" y="16.596" style="stroke: #000000; stroke-width: 1.5"/>
      </g>
     </g>
    </g>
    <g id="xtick_40">
     <g id="line2d_79">
      <g>
       <use xlink:href="#ma59809e5cb" x="387.438647" y="242.124" style="stroke: #000000; stroke-width: 1.5"/>
      </g>
     </g>
     <g id="line2d_80">
      <g>
       <use xlink:href="#md6e2edf63e" x="387.438647" y="16.596" style="stroke: #000000; stroke-width: 1.5"/>
      </g>
     </g>
    </g>
    <g id="xtick_41">
     <g id="line2d_81">
      <g>
       <use xlink:href="#ma59809e5cb" x="396.091269" y="242.124" style="stroke: #000000; stroke-width: 1.5"/>
      </g>
     </g>
     <g id="line2d_82">
      <g>
       <use xlink:href="#md6e2edf63e" x="396.091269" y="16.596" style="stroke: #000000; stroke-width: 1.5"/>
      </g>
     </g>
    </g>
    <g id="xtick_42">
     <g id="line2d_83">
      <g>
       <use xlink:href="#ma59809e5cb" x="413.396515" y="242.124" style="stroke: #000000; stroke-width: 1.5"/>
      </g>
     </g>
     <g id="line2d_84">
      <g>
       <use xlink:href="#md6e2edf63e" x="413.396515" y="16.596" style="stroke: #000000; stroke-width: 1.5"/>
      </g>
     </g>
    </g>
    <g id="text_10">
     <!-- Distance [R$_\odot$] -->
     <g transform="translate(194.796179 270.355875)scale(0.12 -0.12)">
      <defs>
       <path id="DejaVuSans-44" d="M 1259 4147 
L 1259 519 
L 2022 519 
Q 2988 519 3436 956 
Q 3884 1394 3884 2338 
Q 3884 3275 3436 3711 
Q 2988 4147 2022 4147 
L 1259 4147 
z
M 628 4666 
L 1925 4666 
Q 3281 4666 3915 4102 
Q 4550 3538 4550 2338 
Q 4550 1131 3912 565 
Q 3275 0 1925 0 
L 628 0 
L 628 4666 
z
" transform="scale(0.015625)"/>
       <path id="DejaVuSans-69" d="M 603 3500 
L 1178 3500 
L 1178 0 
L 603 0 
L 603 3500 
z
M 603 4863 
L 1178 4863 
L 1178 4134 
L 603 4134 
L 603 4863 
z
" transform="scale(0.015625)"/>
       <path id="DejaVuSans-73" d="M 2834 3397 
L 2834 2853 
Q 2591 2978 2328 3040 
Q 2066 3103 1784 3103 
Q 1356 3103 1142 2972 
Q 928 2841 928 2578 
Q 928 2378 1081 2264 
Q 1234 2150 1697 2047 
L 1894 2003 
Q 2506 1872 2764 1633 
Q 3022 1394 3022 966 
Q 3022 478 2636 193 
Q 2250 -91 1575 -91 
Q 1294 -91 989 -36 
Q 684 19 347 128 
L 347 722 
Q 666 556 975 473 
Q 1284 391 1588 391 
Q 1994 391 2212 530 
Q 2431 669 2431 922 
Q 2431 1156 2273 1281 
Q 2116 1406 1581 1522 
L 1381 1569 
Q 847 1681 609 1914 
Q 372 2147 372 2553 
Q 372 3047 722 3315 
Q 1072 3584 1716 3584 
Q 2034 3584 2315 3537 
Q 2597 3491 2834 3397 
z
" transform="scale(0.015625)"/>
       <path id="DejaVuSans-74" d="M 1172 4494 
L 1172 3500 
L 2356 3500 
L 2356 3053 
L 1172 3053 
L 1172 1153 
Q 1172 725 1289 603 
Q 1406 481 1766 481 
L 2356 481 
L 2356 0 
L 1766 0 
Q 1100 0 847 248 
Q 594 497 594 1153 
L 594 3053 
L 172 3053 
L 172 3500 
L 594 3500 
L 594 4494 
L 1172 4494 
z
" transform="scale(0.015625)"/>
       <path id="DejaVuSans-61" d="M 2194 1759 
Q 1497 1759 1228 1600 
Q 959 1441 959 1056 
Q 959 750 1161 570 
Q 1363 391 1709 391 
Q 2188 391 2477 730 
Q 2766 1069 2766 1631 
L 2766 1759 
L 2194 1759 
z
M 3341 1997 
L 3341 0 
L 2766 0 
L 2766 531 
Q 2569 213 2275 61 
Q 1981 -91 1556 -91 
Q 1019 -91 701 211 
Q 384 513 384 1019 
Q 384 1609 779 1909 
Q 1175 2209 1959 2209 
L 2766 2209 
L 2766 2266 
Q 2766 2663 2505 2880 
Q 2244 3097 1772 3097 
Q 1472 3097 1187 3025 
Q 903 2953 641 2809 
L 641 3341 
Q 956 3463 1253 3523 
Q 1550 3584 1831 3584 
Q 2591 3584 2966 3190 
Q 3341 2797 3341 1997 
z
" transform="scale(0.015625)"/>
       <path id="DejaVuSans-6e" d="M 3513 2113 
L 3513 0 
L 2938 0 
L 2938 2094 
Q 2938 2591 2744 2837 
Q 2550 3084 2163 3084 
Q 1697 3084 1428 2787 
Q 1159 2491 1159 1978 
L 1159 0 
L 581 0 
L 581 3500 
L 1159 3500 
L 1159 2956 
Q 1366 3272 1645 3428 
Q 1925 3584 2291 3584 
Q 2894 3584 3203 3211 
Q 3513 2838 3513 2113 
z
" transform="scale(0.015625)"/>
       <path id="DejaVuSans-63" d="M 3122 3366 
L 3122 2828 
Q 2878 2963 2633 3030 
Q 2388 3097 2138 3097 
Q 1578 3097 1268 2742 
Q 959 2388 959 1747 
Q 959 1106 1268 751 
Q 1578 397 2138 397 
Q 2388 397 2633 464 
Q 2878 531 3122 666 
L 3122 134 
Q 2881 22 2623 -34 
Q 2366 -91 2075 -91 
Q 1284 -91 818 406 
Q 353 903 353 1747 
Q 353 2603 823 3093 
Q 1294 3584 2113 3584 
Q 2378 3584 2631 3529 
Q 2884 3475 3122 3366 
z
" transform="scale(0.015625)"/>
       <path id="DejaVuSans-65" d="M 3597 1894 
L 3597 1613 
L 953 1613 
Q 991 1019 1311 708 
Q 1631 397 2203 397 
Q 2534 397 2845 478 
Q 3156 559 3463 722 
L 3463 178 
Q 3153 47 2828 -22 
Q 2503 -91 2169 -91 
Q 1331 -91 842 396 
Q 353 884 353 1716 
Q 353 2575 817 3079 
Q 1281 3584 2069 3584 
Q 2775 3584 3186 3129 
Q 3597 2675 3597 1894 
z
M 3022 2063 
Q 3016 2534 2758 2815 
Q 2500 3097 2075 3097 
Q 1594 3097 1305 2825 
Q 1016 2553 972 2059 
L 3022 2063 
z
" transform="scale(0.015625)"/>
       <path id="DejaVuSans-20" transform="scale(0.015625)"/>
       <path id="DejaVuSans-5b" d="M 550 4863 
L 1875 4863 
L 1875 4416 
L 1125 4416 
L 1125 -397 
L 1875 -397 
L 1875 -844 
L 550 -844 
L 550 4863 
z
" transform="scale(0.015625)"/>
       <path id="DejaVuSans-52" d="M 2841 2188 
Q 3044 2119 3236 1894 
Q 3428 1669 3622 1275 
L 4263 0 
L 3584 0 
L 2988 1197 
Q 2756 1666 2539 1819 
Q 2322 1972 1947 1972 
L 1259 1972 
L 1259 0 
L 628 0 
L 628 4666 
L 2053 4666 
Q 2853 4666 3247 4331 
Q 3641 3997 3641 3322 
Q 3641 2881 3436 2590 
Q 3231 2300 2841 2188 
z
M 1259 4147 
L 1259 2491 
L 2053 2491 
Q 2509 2491 2742 2702 
Q 2975 2913 2975 3322 
Q 2975 3731 2742 3939 
Q 2509 4147 2053 4147 
L 1259 4147 
z
" transform="scale(0.015625)"/>
       <path id="DejaVuSans-2299" d="M 2350 2403 
L 3013 2403 
L 3013 1609 
L 2350 1609 
L 2350 2403 
z
M 3306 3522 
Q 3016 3644 2681 3644 
Q 2347 3644 2056 3522 
Q 1769 3400 1531 3163 
Q 1291 2922 1172 2634 
Q 1053 2347 1053 2006 
Q 1053 1675 1172 1387 
Q 1291 1100 1531 859 
Q 1769 622 2056 500 
Q 2347 378 2681 378 
Q 3016 378 3306 500 
Q 3594 622 3831 859 
Q 4072 1100 4190 1387 
Q 4309 1675 4309 2006 
Q 4309 2347 4190 2634 
Q 4072 2922 3831 3163 
Q 3594 3400 3306 3522 
z
M 1878 3956 
Q 2250 4113 2681 4113 
Q 3113 4113 3484 3956 
Q 3856 3800 4163 3494 
Q 4472 3184 4625 2813 
Q 4778 2444 4778 2006 
Q 4778 1578 4625 1206 
Q 4472 838 4163 528 
Q 3856 222 3484 65 
Q 3113 -91 2681 -91 
Q 2250 -91 1878 65 
Q 1506 222 1200 528 
Q 891 838 738 1206 
Q 584 1578 584 2006 
Q 584 2444 738 2813 
Q 891 3184 1200 3494 
Q 1506 3800 1878 3956 
z
" transform="scale(0.015625)"/>
       <path id="DejaVuSans-5d" d="M 1947 4863 
L 1947 -844 
L 622 -844 
L 622 -397 
L 1369 -397 
L 1369 4416 
L 622 4416 
L 622 4863 
L 1947 4863 
z
" transform="scale(0.015625)"/>
      </defs>
      <use xlink:href="#DejaVuSans-44" transform="translate(0 0.015625)"/>
      <use xlink:href="#DejaVuSans-69" transform="translate(77.001953 0.015625)"/>
      <use xlink:href="#DejaVuSans-73" transform="translate(104.785156 0.015625)"/>
      <use xlink:href="#DejaVuSans-74" transform="translate(156.884766 0.015625)"/>
      <use xlink:href="#DejaVuSans-61" transform="translate(196.09375 0.015625)"/>
      <use xlink:href="#DejaVuSans-6e" transform="translate(257.373047 0.015625)"/>
      <use xlink:href="#DejaVuSans-63" transform="translate(320.751953 0.015625)"/>
      <use xlink:href="#DejaVuSans-65" transform="translate(375.732422 0.015625)"/>
      <use xlink:href="#DejaVuSans-20" transform="translate(437.255859 0.015625)"/>
      <use xlink:href="#DejaVuSans-5b" transform="translate(469.042969 0.015625)"/>
      <use xlink:href="#DejaVuSans-52" transform="translate(504.931641 0.015625)"/>
      <use xlink:href="#DejaVuSans-2299" transform="translate(589.008789 -16.390625)scale(0.7)"/>
      <use xlink:href="#DejaVuSans-5d" transform="translate(664.033203 0.015625)"/>
     </g>
    </g>
   </g>
   <g id="matplotlib.axis_2">
    <g id="ytick_1">
     <g id="line2d_85">
      <defs>
       <path id="m18a915f821" d="M 0 0 
L 3.5 0 
" style="stroke: #000000; stroke-width: 1.5"/>
      </defs>
      <g>
       <use xlink:href="#m18a915f821" x="52.872357" y="242.124" style="stroke: #000000; stroke-width: 1.5"/>
      </g>
     </g>
     <g id="line2d_86">
      <defs>
       <path id="m0fc58c4367" d="M 0 0 
L -3.5 0 
" style="stroke: #000000; stroke-width: 1.5"/>
      </defs>
      <g>
       <use xlink:href="#m0fc58c4367" x="421.2" y="242.124" style="stroke: #000000; stroke-width: 1.5"/>
      </g>
     </g>
     <g id="text_11">
      <!-- $\mathdefault{10^{4}}$ -->
      <g transform="translate(28.252357 246.683062)scale(0.12 -0.12)">
       <use xlink:href="#DejaVuSans-31" transform="translate(0 0.684375)"/>
       <use xlink:href="#DejaVuSans-30" transform="translate(63.623047 0.684375)"/>
       <use xlink:href="#DejaVuSans-34" transform="translate(128.203125 38.965625)scale(0.7)"/>
      </g>
     </g>
    </g>
    <g id="ytick_2">
     <g id="line2d_87">
      <g>
       <use xlink:href="#m18a915f821" x="52.872357" y="166.948" style="stroke: #000000; stroke-width: 1.5"/>
      </g>
     </g>
     <g id="line2d_88">
      <g>
       <use xlink:href="#m0fc58c4367" x="421.2" y="166.948" style="stroke: #000000; stroke-width: 1.5"/>
      </g>
     </g>
     <g id="text_12">
      <!-- $\mathdefault{10^{5}}$ -->
      <g transform="translate(28.252357 171.507062)scale(0.12 -0.12)">
       <use xlink:href="#DejaVuSans-31" transform="translate(0 0.684375)"/>
       <use xlink:href="#DejaVuSans-30" transform="translate(63.623047 0.684375)"/>
       <use xlink:href="#DejaVuSans-35" transform="translate(128.203125 38.965625)scale(0.7)"/>
      </g>
     </g>
    </g>
    <g id="ytick_3">
     <g id="line2d_89">
      <g>
       <use xlink:href="#m18a915f821" x="52.872357" y="91.772" style="stroke: #000000; stroke-width: 1.5"/>
      </g>
     </g>
     <g id="line2d_90">
      <g>
       <use xlink:href="#m0fc58c4367" x="421.2" y="91.772" style="stroke: #000000; stroke-width: 1.5"/>
      </g>
     </g>
     <g id="text_13">
      <!-- $\mathdefault{10^{6}}$ -->
      <g transform="translate(28.252357 96.331063)scale(0.12 -0.12)">
       <defs>
        <path id="DejaVuSans-36" d="M 2113 2584 
Q 1688 2584 1439 2293 
Q 1191 2003 1191 1497 
Q 1191 994 1439 701 
Q 1688 409 2113 409 
Q 2538 409 2786 701 
Q 3034 994 3034 1497 
Q 3034 2003 2786 2293 
Q 2538 2584 2113 2584 
z
M 3366 4563 
L 3366 3988 
Q 3128 4100 2886 4159 
Q 2644 4219 2406 4219 
Q 1781 4219 1451 3797 
Q 1122 3375 1075 2522 
Q 1259 2794 1537 2939 
Q 1816 3084 2150 3084 
Q 2853 3084 3261 2657 
Q 3669 2231 3669 1497 
Q 3669 778 3244 343 
Q 2819 -91 2113 -91 
Q 1303 -91 875 529 
Q 447 1150 447 2328 
Q 447 3434 972 4092 
Q 1497 4750 2381 4750 
Q 2619 4750 2861 4703 
Q 3103 4656 3366 4563 
z
" transform="scale(0.015625)"/>
       </defs>
       <use xlink:href="#DejaVuSans-31" transform="translate(0 0.765625)"/>
       <use xlink:href="#DejaVuSans-30" transform="translate(63.623047 0.765625)"/>
       <use xlink:href="#DejaVuSans-36" transform="translate(128.203125 39.046875)scale(0.7)"/>
      </g>
     </g>
    </g>
    <g id="ytick_4">
     <g id="line2d_91">
      <g>
       <use xlink:href="#m18a915f821" x="52.872357" y="16.596" style="stroke: #000000; stroke-width: 1.5"/>
      </g>
     </g>
     <g id="line2d_92">
      <g>
       <use xlink:href="#m0fc58c4367" x="421.2" y="16.596" style="stroke: #000000; stroke-width: 1.5"/>
      </g>
     </g>
     <g id="text_14">
      <!-- $\mathdefault{10^{7}}$ -->
      <g transform="translate(28.252357 21.155062)scale(0.12 -0.12)">
       <defs>
        <path id="DejaVuSans-37" d="M 525 4666 
L 3525 4666 
L 3525 4397 
L 1831 0 
L 1172 0 
L 2766 4134 
L 525 4134 
L 525 4666 
z
" transform="scale(0.015625)"/>
       </defs>
       <use xlink:href="#DejaVuSans-31" transform="translate(0 0.684375)"/>
       <use xlink:href="#DejaVuSans-30" transform="translate(63.623047 0.684375)"/>
       <use xlink:href="#DejaVuSans-37" transform="translate(128.203125 38.965625)scale(0.7)"/>
      </g>
     </g>
    </g>
    <g id="ytick_5">
     <g id="line2d_93">
      <defs>
       <path id="m9cad19debb" d="M 0 0 
L 2 0 
" style="stroke: #000000; stroke-width: 1.5"/>
      </defs>
      <g>
       <use xlink:href="#m9cad19debb" x="52.872357" y="219.493769" style="stroke: #000000; stroke-width: 1.5"/>
      </g>
     </g>
     <g id="line2d_94">
      <defs>
       <path id="m974adad2ed" d="M 0 0 
L -2 0 
" style="stroke: #000000; stroke-width: 1.5"/>
      </defs>
      <g>
       <use xlink:href="#m974adad2ed" x="421.2" y="219.493769" style="stroke: #000000; stroke-width: 1.5"/>
      </g>
     </g>
    </g>
    <g id="ytick_6">
     <g id="line2d_95">
      <g>
       <use xlink:href="#m9cad19debb" x="52.872357" y="206.255933" style="stroke: #000000; stroke-width: 1.5"/>
      </g>
     </g>
     <g id="line2d_96">
      <g>
       <use xlink:href="#m974adad2ed" x="421.2" y="206.255933" style="stroke: #000000; stroke-width: 1.5"/>
      </g>
     </g>
    </g>
    <g id="ytick_7">
     <g id="line2d_97">
      <g>
       <use xlink:href="#m9cad19debb" x="52.872357" y="196.863538" style="stroke: #000000; stroke-width: 1.5"/>
      </g>
     </g>
     <g id="line2d_98">
      <g>
       <use xlink:href="#m974adad2ed" x="421.2" y="196.863538" style="stroke: #000000; stroke-width: 1.5"/>
      </g>
     </g>
    </g>
    <g id="ytick_8">
     <g id="line2d_99">
      <g>
       <use xlink:href="#m9cad19debb" x="52.872357" y="189.578231" style="stroke: #000000; stroke-width: 1.5"/>
      </g>
     </g>
     <g id="line2d_100">
      <g>
       <use xlink:href="#m974adad2ed" x="421.2" y="189.578231" style="stroke: #000000; stroke-width: 1.5"/>
      </g>
     </g>
    </g>
    <g id="ytick_9">
     <g id="line2d_101">
      <g>
       <use xlink:href="#m9cad19debb" x="52.872357" y="183.625702" style="stroke: #000000; stroke-width: 1.5"/>
      </g>
     </g>
     <g id="line2d_102">
      <g>
       <use xlink:href="#m974adad2ed" x="421.2" y="183.625702" style="stroke: #000000; stroke-width: 1.5"/>
      </g>
     </g>
    </g>
    <g id="ytick_10">
     <g id="line2d_103">
      <g>
       <use xlink:href="#m9cad19debb" x="52.872357" y="178.59291" style="stroke: #000000; stroke-width: 1.5"/>
      </g>
     </g>
     <g id="line2d_104">
      <g>
       <use xlink:href="#m974adad2ed" x="421.2" y="178.59291" style="stroke: #000000; stroke-width: 1.5"/>
      </g>
     </g>
    </g>
    <g id="ytick_11">
     <g id="line2d_105">
      <g>
       <use xlink:href="#m9cad19debb" x="52.872357" y="174.233307" style="stroke: #000000; stroke-width: 1.5"/>
      </g>
     </g>
     <g id="line2d_106">
      <g>
       <use xlink:href="#m974adad2ed" x="421.2" y="174.233307" style="stroke: #000000; stroke-width: 1.5"/>
      </g>
     </g>
    </g>
    <g id="ytick_12">
     <g id="line2d_107">
      <g>
       <use xlink:href="#m9cad19debb" x="52.872357" y="170.387865" style="stroke: #000000; stroke-width: 1.5"/>
      </g>
     </g>
     <g id="line2d_108">
      <g>
       <use xlink:href="#m974adad2ed" x="421.2" y="170.387865" style="stroke: #000000; stroke-width: 1.5"/>
      </g>
     </g>
    </g>
    <g id="ytick_13">
     <g id="line2d_109">
      <g>
       <use xlink:href="#m9cad19debb" x="52.872357" y="144.317769" style="stroke: #000000; stroke-width: 1.5"/>
      </g>
     </g>
     <g id="line2d_110">
      <g>
       <use xlink:href="#m974adad2ed" x="421.2" y="144.317769" style="stroke: #000000; stroke-width: 1.5"/>
      </g>
     </g>
    </g>
    <g id="ytick_14">
     <g id="line2d_111">
      <g>
       <use xlink:href="#m9cad19debb" x="52.872357" y="131.079933" style="stroke: #000000; stroke-width: 1.5"/>
      </g>
     </g>
     <g id="line2d_112">
      <g>
       <use xlink:href="#m974adad2ed" x="421.2" y="131.079933" style="stroke: #000000; stroke-width: 1.5"/>
      </g>
     </g>
    </g>
    <g id="ytick_15">
     <g id="line2d_113">
      <g>
       <use xlink:href="#m9cad19debb" x="52.872357" y="121.687538" style="stroke: #000000; stroke-width: 1.5"/>
      </g>
     </g>
     <g id="line2d_114">
      <g>
       <use xlink:href="#m974adad2ed" x="421.2" y="121.687538" style="stroke: #000000; stroke-width: 1.5"/>
      </g>
     </g>
    </g>
    <g id="ytick_16">
     <g id="line2d_115">
      <g>
       <use xlink:href="#m9cad19debb" x="52.872357" y="114.402231" style="stroke: #000000; stroke-width: 1.5"/>
      </g>
     </g>
     <g id="line2d_116">
      <g>
       <use xlink:href="#m974adad2ed" x="421.2" y="114.402231" style="stroke: #000000; stroke-width: 1.5"/>
      </g>
     </g>
    </g>
    <g id="ytick_17">
     <g id="line2d_117">
      <g>
       <use xlink:href="#m9cad19debb" x="52.872357" y="108.449702" style="stroke: #000000; stroke-width: 1.5"/>
      </g>
     </g>
     <g id="line2d_118">
      <g>
       <use xlink:href="#m974adad2ed" x="421.2" y="108.449702" style="stroke: #000000; stroke-width: 1.5"/>
      </g>
     </g>
    </g>
    <g id="ytick_18">
     <g id="line2d_119">
      <g>
       <use xlink:href="#m9cad19debb" x="52.872357" y="103.41691" style="stroke: #000000; stroke-width: 1.5"/>
      </g>
     </g>
     <g id="line2d_120">
      <g>
       <use xlink:href="#m974adad2ed" x="421.2" y="103.41691" style="stroke: #000000; stroke-width: 1.5"/>
      </g>
     </g>
    </g>
    <g id="ytick_19">
     <g id="line2d_121">
      <g>
       <use xlink:href="#m9cad19debb" x="52.872357" y="99.057307" style="stroke: #000000; stroke-width: 1.5"/>
      </g>
     </g>
     <g id="line2d_122">
      <g>
       <use xlink:href="#m974adad2ed" x="421.2" y="99.057307" style="stroke: #000000; stroke-width: 1.5"/>
      </g>
     </g>
    </g>
    <g id="ytick_20">
     <g id="line2d_123">
      <g>
       <use xlink:href="#m9cad19debb" x="52.872357" y="95.211865" style="stroke: #000000; stroke-width: 1.5"/>
      </g>
     </g>
     <g id="line2d_124">
      <g>
       <use xlink:href="#m974adad2ed" x="421.2" y="95.211865" style="stroke: #000000; stroke-width: 1.5"/>
      </g>
     </g>
    </g>
    <g id="ytick_21">
     <g id="line2d_125">
      <g>
       <use xlink:href="#m9cad19debb" x="52.872357" y="69.141769" style="stroke: #000000; stroke-width: 1.5"/>
      </g>
     </g>
     <g id="line2d_126">
      <g>
       <use xlink:href="#m974adad2ed" x="421.2" y="69.141769" style="stroke: #000000; stroke-width: 1.5"/>
      </g>
     </g>
    </g>
    <g id="ytick_22">
     <g id="line2d_127">
      <g>
       <use xlink:href="#m9cad19debb" x="52.872357" y="55.903933" style="stroke: #000000; stroke-width: 1.5"/>
      </g>
     </g>
     <g id="line2d_128">
      <g>
       <use xlink:href="#m974adad2ed" x="421.2" y="55.903933" style="stroke: #000000; stroke-width: 1.5"/>
      </g>
     </g>
    </g>
    <g id="ytick_23">
     <g id="line2d_129">
      <g>
       <use xlink:href="#m9cad19debb" x="52.872357" y="46.511538" style="stroke: #000000; stroke-width: 1.5"/>
      </g>
     </g>
     <g id="line2d_130">
      <g>
       <use xlink:href="#m974adad2ed" x="421.2" y="46.511538" style="stroke: #000000; stroke-width: 1.5"/>
      </g>
     </g>
    </g>
    <g id="ytick_24">
     <g id="line2d_131">
      <g>
       <use xlink:href="#m9cad19debb" x="52.872357" y="39.226231" style="stroke: #000000; stroke-width: 1.5"/>
      </g>
     </g>
     <g id="line2d_132">
      <g>
       <use xlink:href="#m974adad2ed" x="421.2" y="39.226231" style="stroke: #000000; stroke-width: 1.5"/>
      </g>
     </g>
    </g>
    <g id="ytick_25">
     <g id="line2d_133">
      <g>
       <use xlink:href="#m9cad19debb" x="52.872357" y="33.273702" style="stroke: #000000; stroke-width: 1.5"/>
      </g>
     </g>
     <g id="line2d_134">
      <g>
       <use xlink:href="#m974adad2ed" x="421.2" y="33.273702" style="stroke: #000000; stroke-width: 1.5"/>
      </g>
     </g>
    </g>
    <g id="ytick_26">
     <g id="line2d_135">
      <g>
       <use xlink:href="#m9cad19debb" x="52.872357" y="28.24091" style="stroke: #000000; stroke-width: 1.5"/>
      </g>
     </g>
     <g id="line2d_136">
      <g>
       <use xlink:href="#m974adad2ed" x="421.2" y="28.24091" style="stroke: #000000; stroke-width: 1.5"/>
      </g>
     </g>
    </g>
    <g id="ytick_27">
     <g id="line2d_137">
      <g>
       <use xlink:href="#m9cad19debb" x="52.872357" y="23.881307" style="stroke: #000000; stroke-width: 1.5"/>
      </g>
     </g>
     <g id="line2d_138">
      <g>
       <use xlink:href="#m974adad2ed" x="421.2" y="23.881307" style="stroke: #000000; stroke-width: 1.5"/>
      </g>
     </g>
    </g>
    <g id="ytick_28">
     <g id="line2d_139">
      <g>
       <use xlink:href="#m9cad19debb" x="52.872357" y="20.035865" style="stroke: #000000; stroke-width: 1.5"/>
      </g>
     </g>
     <g id="line2d_140">
      <g>
       <use xlink:href="#m974adad2ed" x="421.2" y="20.035865" style="stroke: #000000; stroke-width: 1.5"/>
      </g>
     </g>
    </g>
    <g id="text_15">
     <!-- T [K] -->
     <g transform="translate(21.756732 143.548125)rotate(-90)scale(0.12 -0.12)">
      <defs>
       <path id="DejaVuSans-54" d="M -19 4666 
L 3928 4666 
L 3928 4134 
L 2272 4134 
L 2272 0 
L 1638 0 
L 1638 4134 
L -19 4134 
L -19 4666 
z
" transform="scale(0.015625)"/>
       <path id="DejaVuSans-4b" d="M 628 4666 
L 1259 4666 
L 1259 2694 
L 3353 4666 
L 4166 4666 
L 1850 2491 
L 4331 0 
L 3500 0 
L 1259 2247 
L 1259 0 
L 628 0 
L 628 4666 
z
" transform="scale(0.015625)"/>
      </defs>
      <use xlink:href="#DejaVuSans-54"/>
      <use xlink:href="#DejaVuSans-20" x="61.083984"/>
      <use xlink:href="#DejaVuSans-5b" x="92.871094"/>
      <use xlink:href="#DejaVuSans-4b" x="131.884766"/>
      <use xlink:href="#DejaVuSans-5d" x="197.460938"/>
     </g>
    </g>
   </g>
   <g id="patch_3">
    <path d="M 52.872357 242.124 
L 52.872357 16.596 
" style="fill: none; stroke: #000000; stroke-width: 1.5; stroke-linejoin: miter; stroke-linecap: square"/>
   </g>
   <g id="patch_4">
    <path d="M 421.2 242.124 
L 421.2 16.596 
" style="fill: none; stroke: #000000; stroke-width: 1.5; stroke-linejoin: miter; stroke-linecap: square"/>
   </g>
   <g id="patch_5">
    <path d="M 52.872357 242.124 
L 421.2 242.124 
" style="fill: none; stroke: #000000; stroke-width: 1.5; stroke-linejoin: miter; stroke-linecap: square"/>
   </g>
   <g id="patch_6">
    <path d="M 52.872357 16.596 
L 421.2 16.596 
" style="fill: none; stroke: #000000; stroke-width: 1.5; stroke-linejoin: miter; stroke-linecap: square"/>
   </g>
   <g id="PolyCollection_1">
    <path d="M 226.067235 173.709397 
L 226.067235 179.467987 
L 237.315645 182.719682 
L 238.180907 185.539351 
L 260.677726 189.948732 
L 261.542988 190.539722 
L 262.40825 192.032291 
L 263.273512 197.813383 
L 264.138775 75718.828 
L 265.004037 190.295208 
L 265.869299 165.778212 
L 266.734561 172.396961 
L 275.387184 170.292881 
L 276.252446 163.511665 
L 277.117709 118.700766 
L 277.982971 134.44859 
L 278.848233 145.477545 
L 279.713495 146.741852 
L 280.578758 143.258331 
L 281.44402 148.875467 
L 282.309282 159.334134 
L 283.174544 173.090731 
L 284.039807 141.830262 
L 284.905069 140.503385 
L 285.770331 140.989048 
L 286.635593 139.544118 
L 287.500856 140.669073 
L 288.366118 135.716176 
L 289.23138 136.461591 
L 290.096643 138.066402 
L 290.961905 134.194484 
L 291.827167 148.581103 
L 292.692429 138.222113 
L 293.557692 141.976 
L 294.422954 139.687024 
L 295.288216 140.20466 
L 296.153478 131.072449 
L 297.018741 142.579774 
L 297.884003 169.267839 
L 298.749265 166.099743 
L 299.614527 162.666744 
L 300.47979 163.805682 
L 301.345052 160.924415 
L 302.210314 145.128606 
L 303.075576 144.862357 
L 303.940839 168.441329 
L 304.806101 161.171659 
L 305.671363 159.751794 
L 306.536625 164.651595 
L 307.401888 161.079171 
L 308.26715 163.406106 
L 309.132412 168.718668 
L 309.997675 155.035231 
L 310.862937 151.437726 
L 311.728199 147.173078 
L 312.593461 149.795736 
L 313.458724 144.144125 
L 314.323986 141.563536 
L 315.189248 143.024325 
L 316.05451 144.10297 
L 316.919773 136.575456 
L 317.785035 139.79493 
L 318.650297 141.822577 
L 319.515559 138.310807 
L 320.380822 132.948054 
L 321.246084 135.258125 
L 322.111346 138.46449 
L 322.976608 141.755708 
L 323.841871 126.994403 
L 324.707133 138.639296 
L 325.572395 143.609986 
L 326.437657 149.68018 
L 327.30292 141.024301 
L 328.168182 147.820055 
L 329.033444 137.440833 
L 329.898707 145.214576 
L 330.763969 136.035101 
L 331.629231 150.753673 
L 332.494493 154.414908 
L 333.359756 167.146142 
L 334.225018 152.12484 
L 335.09028 153.739631 
L 335.955542 152.62982 
L 336.820805 169.62591 
L 337.686067 163.165175 
L 338.551329 157.830083 
L 339.416591 159.328819 
L 340.281854 149.838408 
L 341.147116 148.675093 
L 342.012378 154.894643 
L 342.87764 151.434947 
L 343.742903 150.731728 
L 344.608165 160.228205 
L 345.473427 159.543288 
L 346.338689 156.922335 
L 347.203952 157.875344 
L 348.069214 156.64125 
L 348.934476 154.671306 
L 349.799739 156.418983 
L 350.665001 153.939662 
L 351.530263 152.550107 
L 352.395525 154.387499 
L 353.260788 147.326477 
L 354.12605 156.607005 
L 354.991312 162.502199 
L 355.856574 168.735518 
L 356.721837 152.140832 
L 357.587099 143.753821 
L 358.452361 142.663803 
L 359.317623 140.166951 
L 360.182886 143.960638 
L 361.048148 143.936424 
L 361.91341 151.330568 
L 362.778672 145.505781 
L 363.643935 148.589195 
L 364.509197 146.073349 
L 365.374459 147.99559 
L 366.239721 142.733613 
L 367.104984 151.832726 
L 367.970246 146.827867 
L 368.835508 142.658391 
L 369.700771 143.131258 
L 370.566033 146.712627 
L 371.431295 143.191624 
L 372.296557 144.077261 
L 373.16182 143.150878 
L 374.027082 145.129581 
L 374.892344 147.02478 
L 375.757606 144.709306 
L 376.622869 158.349655 
L 377.488131 165.183066 
L 378.353393 185.722403 
L 379.218655 154.007727 
L 380.083918 151.638426 
L 380.94918 132.752166 
L 381.814442 132.54039 
L 382.679704 171.767024 
L 383.544967 177.734776 
L 384.410229 186.207545 
L 385.275491 178.299592 
L 386.140753 171.562958 
L 387.006016 164.696748 
L 387.871278 155.188346 
L 388.73654 149.235581 
L 389.601803 145.088364 
L 390.467065 151.340896 
L 391.332327 153.896242 
L 392.197589 154.154785 
L 393.062852 153.120092 
L 393.928114 152.27984 
L 394.793376 154.453868 
L 395.658638 146.829454 
L 396.523901 148.265669 
L 397.389163 147.918307 
L 398.254425 142.363951 
L 399.119687 141.990522 
L 399.98495 145.593515 
L 400.850212 145.615706 
L 401.715474 149.332721 
L 402.580736 145.493533 
L 403.445999 140.5757 
L 403.445999 120.37602 
L 403.445999 120.37602 
L 402.580736 117.89113 
L 401.715474 120.997724 
L 400.850212 120.369255 
L 399.98495 125.535278 
L 399.119687 121.238354 
L 398.254425 131.96726 
L 397.389163 130.799569 
L 396.523901 129.53096 
L 395.658638 131.787349 
L 394.793376 128.666249 
L 393.928114 125.894654 
L 393.062852 128.415338 
L 392.197589 128.369051 
L 391.332327 125.554502 
L 390.467065 125.98564 
L 389.601803 109.875563 
L 388.73654 113.471107 
L 387.871278 113.443896 
L 387.006016 118.936005 
L 386.140753 130.477454 
L 385.275491 124.98026 
L 384.410229 119.983102 
L 383.544967 118.269795 
L 382.679704 118.235644 
L 381.814442 116.49132 
L 380.94918 119.614093 
L 380.083918 117.988998 
L 379.218655 116.443852 
L 378.353393 116.078061 
L 377.488131 118.320948 
L 376.622869 118.258169 
L 375.757606 114.076991 
L 374.892344 117.622201 
L 374.027082 110.83879 
L 373.16182 120.542747 
L 372.296557 121.784229 
L 371.431295 115.289424 
L 370.566033 121.717834 
L 369.700771 124.857713 
L 368.835508 128.194777 
L 367.970246 127.023554 
L 367.104984 129.990609 
L 366.239721 121.184975 
L 365.374459 123.889441 
L 364.509197 128.298295 
L 363.643935 130.494201 
L 362.778672 131.436248 
L 361.91341 124.542335 
L 361.048148 124.035382 
L 360.182886 126.989504 
L 359.317623 126.754348 
L 358.452361 127.092592 
L 357.587099 117.167662 
L 356.721837 115.690004 
L 355.856574 138.713501 
L 354.991312 142.659349 
L 354.12605 141.373681 
L 353.260788 139.632993 
L 352.395525 142.094628 
L 351.530263 139.584138 
L 350.665001 136.308776 
L 349.799739 130.690424 
L 348.934476 136.531631 
L 348.069214 145.663203 
L 347.203952 131.58672 
L 346.338689 136.924234 
L 345.473427 126.727954 
L 344.608165 125.730163 
L 343.742903 133.814165 
L 342.87764 135.645269 
L 342.012378 130.299483 
L 341.147116 127.957509 
L 340.281854 131.003902 
L 339.416591 132.183564 
L 338.551329 135.056616 
L 337.686067 117.653422 
L 336.820805 130.631389 
L 335.955542 138.640662 
L 335.09028 134.499923 
L 334.225018 133.350857 
L 333.359756 115.805369 
L 332.494493 117.847825 
L 331.629231 120.908098 
L 330.763969 117.264675 
L 329.898707 122.949015 
L 329.033444 107.591258 
L 328.168182 110.123594 
L 327.30292 112.379213 
L 326.437657 124.413753 
L 325.572395 126.863049 
L 324.707133 107.236049 
L 323.841871 102.578836 
L 322.976608 116.718606 
L 322.111346 116.374814 
L 321.246084 114.86924 
L 320.380822 112.671385 
L 319.515559 114.394455 
L 318.650297 111.752763 
L 317.785035 109.069398 
L 316.919773 110.927772 
L 316.05451 111.28747 
L 315.189248 123.705645 
L 314.323986 126.353636 
L 313.458724 122.942243 
L 312.593461 120.857267 
L 311.728199 119.443108 
L 310.862937 115.39447 
L 309.997675 113.275789 
L 309.132412 114.333858 
L 308.26715 118.036944 
L 307.401888 113.438384 
L 306.536625 123.560191 
L 305.671363 126.137456 
L 304.806101 118.140363 
L 303.940839 105.789775 
L 303.075576 120.23232 
L 302.210314 107.78013 
L 301.345052 116.441811 
L 300.47979 123.822583 
L 299.614527 124.822491 
L 298.749265 124.816088 
L 297.884003 118.240329 
L 297.018741 124.043682 
L 296.153478 112.176986 
L 295.288216 112.592647 
L 294.422954 118.302934 
L 293.557692 113.194264 
L 292.692429 117.401626 
L 291.827167 118.52399 
L 290.961905 115.39375 
L 290.096643 115.675269 
L 289.23138 123.752289 
L 288.366118 110.469009 
L 287.500856 116.11991 
L 286.635593 120.514602 
L 285.770331 125.939439 
L 284.905069 127.385919 
L 284.039807 129.320103 
L 283.174544 124.285027 
L 282.309282 129.671056 
L 281.44402 120.265788 
L 280.578758 130.593047 
L 279.713495 137.350115 
L 278.848233 135.161206 
L 277.982971 125.709871 
L 277.117709 116.404296 
L 276.252446 159.540408 
L 275.387184 169.290883 
L 266.734561 164.915112 
L 265.869299 164.278173 
L 265.004037 185.600766 
L 264.138775 156.177159 
L 263.273512 181.020445 
L 262.40825 185.984725 
L 261.542988 186.795177 
L 260.677726 188.404697 
L 238.180907 181.494244 
L 237.315645 173.05825 
L 226.067235 173.709397 
z
" clip-path="url(#pfaed351e00)" style="fill: #add8e6; stroke: #add8e6"/>
   </g>
   <g id="line2d_141">
    <path d="M 226.067235 176.461893 
L 237.315645 177.532883 
L 238.180907 183.454189 
L 260.677726 189.167587 
L 261.542988 188.613795 
L 262.40825 188.868682 
L 263.273512 188.348919 
L 264.138775 181.456298 
L 265.004037 187.863684 
L 265.869299 165.019578 
L 266.734561 168.442183 
L 275.387184 169.788038 
L 276.252446 161.465692 
L 277.117709 117.532344 
L 277.982971 129.787723 
L 278.848233 139.913587 
L 279.713495 141.709436 
L 281.44402 131.532235 
L 282.309282 141.243635 
L 283.174544 140.308869 
L 284.039807 134.979612 
L 284.905069 133.290247 
L 285.770331 132.604658 
L 286.635593 128.662109 
L 287.500856 126.1395 
L 288.366118 120.710621 
L 289.23138 129.492377 
L 290.096643 124.987769 
L 290.961905 123.459106 
L 291.827167 130.209287 
L 292.692429 126.179559 
L 293.557692 124.511193 
L 294.422954 127.274641 
L 296.153478 120.276402 
L 297.018741 132.013549 
L 297.884003 134.660033 
L 298.749265 139.325953 
L 299.614527 138.543273 
L 300.47979 138.041581 
L 301.345052 131.629674 
L 302.210314 121.381823 
L 303.075576 130.2778 
L 303.940839 123.949157 
L 304.806101 133.027111 
L 305.671363 138.797108 
L 306.536625 138.027625 
L 307.401888 129.245692 
L 308.26715 133.403579 
L 309.132412 131.310962 
L 309.997675 127.889829 
L 310.862937 128.676016 
L 312.593461 132.220017 
L 313.458724 131.851545 
L 314.323986 133.080756 
L 315.189248 131.956459 
L 316.05451 123.734993 
L 316.919773 121.295323 
L 317.785035 120.943692 
L 318.650297 123.441678 
L 319.515559 124.209952 
L 320.380822 121.260259 
L 322.111346 125.586027 
L 322.976608 126.89374 
L 323.841871 112.555562 
L 324.707133 119.299146 
L 325.572395 134.174302 
L 326.437657 134.661445 
L 327.30292 123.656065 
L 328.168182 123.809019 
L 329.033444 119.217308 
L 329.898707 132.2194 
L 330.763969 125.31912 
L 331.629231 132.533003 
L 332.494493 131.259017 
L 333.359756 132.279124 
L 334.225018 141.406583 
L 335.09028 142.722581 
L 335.955542 144.891648 
L 336.820805 144.623221 
L 337.686067 133.048449 
L 338.551329 144.496686 
L 339.416591 143.012691 
L 340.281854 139.081408 
L 341.147116 136.699825 
L 342.012378 140.333803 
L 342.87764 142.59473 
L 343.742903 141.189214 
L 344.608165 138.620066 
L 345.473427 139.175433 
L 346.338689 145.415467 
L 347.203952 142.153613 
L 348.069214 150.692964 
L 348.934476 144.357536 
L 349.799739 141.083277 
L 350.665001 143.948274 
L 351.530263 145.427648 
L 352.395525 147.665883 
L 353.260788 143.25364 
L 354.12605 148.109831 
L 354.991312 151.095929 
L 355.856574 150.388797 
L 356.721837 129.072558 
L 357.587099 127.826178 
L 358.452361 133.958558 
L 359.317623 132.776671 
L 360.182886 134.38454 
L 361.048148 132.492467 
L 362.778672 137.718918 
L 363.643935 138.303809 
L 365.374459 133.766433 
L 366.239721 130.212843 
L 367.104984 139.118179 
L 367.970246 135.446543 
L 368.835508 134.632109 
L 369.700771 132.732358 
L 370.566033 131.879544 
L 371.431295 126.346315 
L 372.296557 131.063837 
L 373.16182 129.927773 
L 374.027082 123.675106 
L 374.892344 129.119727 
L 375.757606 125.925094 
L 376.622869 132.501753 
L 377.488131 133.979979 
L 378.353393 135.053113 
L 379.218655 130.097454 
L 380.083918 130.657881 
L 380.94918 125.52668 
L 381.814442 123.53947 
L 382.679704 135.075562 
L 383.544967 136.003591 
L 384.410229 138.578497 
L 386.140753 144.943583 
L 387.006016 134.380374 
L 387.871278 128.054672 
L 388.73654 126.683015 
L 389.601803 122.948346 
L 390.467065 136.261344 
L 391.332327 136.741961 
L 392.197589 138.779765 
L 393.062852 138.484699 
L 393.928114 136.491345 
L 394.793376 139.077552 
L 395.658638 138.449666 
L 396.523901 137.572539 
L 397.389163 138.249567 
L 398.254425 136.753498 
L 399.119687 129.992648 
L 399.98495 134.047635 
L 400.850212 130.610641 
L 401.715474 132.183189 
L 402.580736 128.858253 
L 403.445999 128.937963 
L 403.445999 128.937963 
" clip-path="url(#pfaed351e00)" style="fill: none; stroke: #1f77b4; stroke-width: 1.5; stroke-linecap: square"/>
   </g>
   <g id="line2d_142">
    <path d="M 69.614523 22.572492 
L 70.307653 16.129909 
L 70.654156 15.68637 
L 71.000783 15.723958 
L 71.347411 16.182532 
L 72.387168 20.497634 
L 73.772682 26.834971 
L 74.81244 30.766676 
L 76.197954 34.705898 
L 77.236467 37.021319 
L 78.621981 39.49461 
L 80.007496 41.569467 
L 82.085767 44.230698 
L 85.202552 47.809075 
L 89.35785 52.251977 
L 94.205906 57.145934 
L 99.053961 61.739188 
L 104.594774 66.640663 
L 109.44283 70.624991 
L 115.329399 75.105481 
L 119.484698 78.05238 
L 126.755537 82.826056 
L 132.29635 86.186423 
L 138.182919 89.524238 
L 145.108002 93.170274 
L 153.417356 97.207225 
L 163.459224 101.657644 
L 175.232362 106.386214 
L 181.118932 108.573836 
L 187.352501 110.768975 
L 206.393992 116.820643 
L 214.018051 119.015782 
L 227.512511 122.534019 
L 239.290624 125.217802 
L 259.376847 129.442694 
L 265.60793 130.810897 
L 272.187256 132.344487 
L 277.373606 133.472127 
L 286.378204 134.750119 
L 302.310372 137.050505 
L 326.886457 140.177826 
L 328.963485 139.997404 
L 332.085244 139.486207 
L 337.968082 138.328497 
L 343.16687 137.418867 
L 347.320924 136.990364 
L 350.778491 136.802424 
L 357.357817 136.90767 
L 367.407148 137.230927 
L 377.095797 137.546666 
L 379.521068 137.651913 
L 380.914045 137.907511 
L 383.326879 138.606648 
L 393.724453 142.087297 
L 400.639586 144.462858 
L 404.10959 145.410076 
L 404.10959 145.410076 
" clip-path="url(#pfaed351e00)" style="fill: none; stroke: #000000; stroke-width: 2.5; stroke-linecap: square"/>
   </g>
   <g id="line2d_143">
    <path d="M 69.614523 66.866191 
L 70.307653 57.965353 
L 71.000783 52.507575 
L 71.347411 50.312436 
L 72.040168 47.613618 
L 72.732925 46.034922 
L 73.425682 44.937352 
L 74.465439 43.787159 
L 75.850953 42.599378 
L 76.54371 42.110734 
L 77.236467 41.892724 
L 77.583468 41.975418 
L 78.276225 42.464062 
L 79.661739 44.997493 
L 84.509795 54.657609 
L 86.588066 58.220951 
L 88.319336 60.822041 
L 90.397608 63.581 
L 92.474635 66.016702 
L 95.245663 68.87339 
L 98.015448 71.376751 
L 101.477989 74.098122 
L 104.249017 76.022628 
L 107.018802 77.766711 
L 111.1741 80.08965 
L 115.329399 82.149472 
L 120.868968 84.562622 
L 124.67851 86.036071 
L 126.409781 86.50968 
L 130.910836 87.486968 
L 136.451649 88.464256 
L 144.069489 89.524238 
L 155.148626 90.621807 
L 162.42071 91.140522 
L 171.769821 91.644201 
L 187.352501 92.215538 
L 217.823862 92.764323 
L 227.860755 92.86957 
L 245.173462 93.132686 
L 251.404544 93.237932 
L 336.587543 95.18499 
L 342.818626 95.34286 
L 376.411746 96.177314 
L 381.94634 96.320148 
L 404.457834 96.87645 
L 404.457834 96.87645 
" clip-path="url(#pfaed351e00)" style="fill: none; stroke-dasharray: 9.25,4; stroke-dashoffset: 0; stroke: #8b0000; stroke-width: 2.5"/>
   </g>
   <g id="legend_1">
    <g id="line2d_144">
     <path d="M 333.95625 29.694438 
L 343.95625 29.694438 
L 353.95625 29.694438 
" style="fill: none; stroke: #1f77b4; stroke-width: 1.5; stroke-linecap: square"/>
    </g>
    <g id="text_16">
     <!-- PSP -->
     <g transform="translate(361.95625 33.194438)scale(0.1 -0.1)">
      <defs>
       <path id="DejaVuSans-50" d="M 1259 4147 
L 1259 2394 
L 2053 2394 
Q 2494 2394 2734 2622 
Q 2975 2850 2975 3272 
Q 2975 3691 2734 3919 
Q 2494 4147 2053 4147 
L 1259 4147 
z
M 628 4666 
L 2053 4666 
Q 2838 4666 3239 4311 
Q 3641 3956 3641 3272 
Q 3641 2581 3239 2228 
Q 2838 1875 2053 1875 
L 1259 1875 
L 1259 0 
L 628 0 
L 628 4666 
z
" transform="scale(0.015625)"/>
       <path id="DejaVuSans-53" d="M 3425 4513 
L 3425 3897 
Q 3066 4069 2747 4153 
Q 2428 4238 2131 4238 
Q 1616 4238 1336 4038 
Q 1056 3838 1056 3469 
Q 1056 3159 1242 3001 
Q 1428 2844 1947 2747 
L 2328 2669 
Q 3034 2534 3370 2195 
Q 3706 1856 3706 1288 
Q 3706 609 3251 259 
Q 2797 -91 1919 -91 
Q 1588 -91 1214 -16 
Q 841 59 441 206 
L 441 856 
Q 825 641 1194 531 
Q 1563 422 1919 422 
Q 2459 422 2753 634 
Q 3047 847 3047 1241 
Q 3047 1584 2836 1778 
Q 2625 1972 2144 2069 
L 1759 2144 
Q 1053 2284 737 2584 
Q 422 2884 422 3419 
Q 422 4038 858 4394 
Q 1294 4750 2059 4750 
Q 2388 4750 2728 4690 
Q 3069 4631 3425 4513 
z
" transform="scale(0.015625)"/>
      </defs>
      <use xlink:href="#DejaVuSans-50"/>
      <use xlink:href="#DejaVuSans-53" x="60.302734"/>
      <use xlink:href="#DejaVuSans-50" x="123.779297"/>
     </g>
    </g>
    <g id="line2d_145">
     <path d="M 333.95625 44.372563 
L 343.95625 44.372563 
L 353.95625 44.372563 
" style="fill: none; stroke: #000000; stroke-width: 2.5; stroke-linecap: square"/>
    </g>
    <g id="text_17">
     <!-- Slow wind -->
     <g transform="translate(361.95625 47.872563)scale(0.1 -0.1)">
      <defs>
       <path id="DejaVuSans-6c" d="M 603 4863 
L 1178 4863 
L 1178 0 
L 603 0 
L 603 4863 
z
" transform="scale(0.015625)"/>
       <path id="DejaVuSans-6f" d="M 1959 3097 
Q 1497 3097 1228 2736 
Q 959 2375 959 1747 
Q 959 1119 1226 758 
Q 1494 397 1959 397 
Q 2419 397 2687 759 
Q 2956 1122 2956 1747 
Q 2956 2369 2687 2733 
Q 2419 3097 1959 3097 
z
M 1959 3584 
Q 2709 3584 3137 3096 
Q 3566 2609 3566 1747 
Q 3566 888 3137 398 
Q 2709 -91 1959 -91 
Q 1206 -91 779 398 
Q 353 888 353 1747 
Q 353 2609 779 3096 
Q 1206 3584 1959 3584 
z
" transform="scale(0.015625)"/>
       <path id="DejaVuSans-77" d="M 269 3500 
L 844 3500 
L 1563 769 
L 2278 3500 
L 2956 3500 
L 3675 769 
L 4391 3500 
L 4966 3500 
L 4050 0 
L 3372 0 
L 2619 2869 
L 1863 0 
L 1184 0 
L 269 3500 
z
" transform="scale(0.015625)"/>
       <path id="DejaVuSans-64" d="M 2906 2969 
L 2906 4863 
L 3481 4863 
L 3481 0 
L 2906 0 
L 2906 525 
Q 2725 213 2448 61 
Q 2172 -91 1784 -91 
Q 1150 -91 751 415 
Q 353 922 353 1747 
Q 353 2572 751 3078 
Q 1150 3584 1784 3584 
Q 2172 3584 2448 3432 
Q 2725 3281 2906 2969 
z
M 947 1747 
Q 947 1113 1208 752 
Q 1469 391 1925 391 
Q 2381 391 2643 752 
Q 2906 1113 2906 1747 
Q 2906 2381 2643 2742 
Q 2381 3103 1925 3103 
Q 1469 3103 1208 2742 
Q 947 2381 947 1747 
z
" transform="scale(0.015625)"/>
      </defs>
      <use xlink:href="#DejaVuSans-53"/>
      <use xlink:href="#DejaVuSans-6c" x="63.476562"/>
      <use xlink:href="#DejaVuSans-6f" x="91.259766"/>
      <use xlink:href="#DejaVuSans-77" x="152.441406"/>
      <use xlink:href="#DejaVuSans-20" x="234.228516"/>
      <use xlink:href="#DejaVuSans-77" x="266.015625"/>
      <use xlink:href="#DejaVuSans-69" x="347.802734"/>
      <use xlink:href="#DejaVuSans-6e" x="375.585938"/>
      <use xlink:href="#DejaVuSans-64" x="438.964844"/>
     </g>
    </g>
    <g id="line2d_146">
     <path d="M 333.95625 59.050688 
L 343.95625 59.050688 
L 353.95625 59.050688 
" style="fill: none; stroke-dasharray: 9.25,4; stroke-dashoffset: 0; stroke: #8b0000; stroke-width: 2.5"/>
    </g>
    <g id="text_18">
     <!-- Fast wind -->
     <g transform="translate(361.95625 62.550688)scale(0.1 -0.1)">
      <defs>
       <path id="DejaVuSans-46" d="M 628 4666 
L 3309 4666 
L 3309 4134 
L 1259 4134 
L 1259 2759 
L 3109 2759 
L 3109 2228 
L 1259 2228 
L 1259 0 
L 628 0 
L 628 4666 
z
" transform="scale(0.015625)"/>
      </defs>
      <use xlink:href="#DejaVuSans-46"/>
      <use xlink:href="#DejaVuSans-61" x="48.394531"/>
      <use xlink:href="#DejaVuSans-73" x="109.673828"/>
      <use xlink:href="#DejaVuSans-74" x="161.773438"/>
      <use xlink:href="#DejaVuSans-20" x="200.982422"/>
      <use xlink:href="#DejaVuSans-77" x="232.769531"/>
      <use xlink:href="#DejaVuSans-69" x="314.556641"/>
      <use xlink:href="#DejaVuSans-6e" x="342.339844"/>
      <use xlink:href="#DejaVuSans-64" x="405.71875"/>
     </g>
    </g>
   </g>
  </g>
 </g>
 <defs>
  <clipPath id="pfaed351e00">
   <rect x="52.872357" y="16.596" width="368.327643" height="225.528"/>
  </clipPath>
 </defs>
</svg>
