<?xml version="1.0" encoding="utf-8" standalone="no"?>
<!DOCTYPE svg PUBLIC "-//W3C//DTD SVG 1.1//EN"
  "http://www.w3.org/Graphics/SVG/1.1/DTD/svg11.dtd">
<svg xmlns:xlink="http://www.w3.org/1999/xlink" width="432pt" height="288pt" viewBox="0 0 432 288" xmlns="http://www.w3.org/2000/svg" version="1.1">
 <metadata>
  <rdf:RDF xmlns:dc="http://purl.org/dc/elements/1.1/" xmlns:cc="http://creativecommons.org/ns#" xmlns:rdf="http://www.w3.org/1999/02/22-rdf-syntax-ns#">
   <cc:Work>
    <dc:type rdf:resource="http://purl.org/dc/dcmitype/StillImage"/>
    <dc:date>2022-11-23T14:47:58.969051</dc:date>
    <dc:format>image/svg+xml</dc:format>
    <dc:creator>
     <cc:Agent>
      <dc:title>Matplotlib v3.6.2, https://matplotlib.org/</dc:title>
     </cc:Agent>
    </dc:creator>
   </cc:Work>
  </rdf:RDF>
 </metadata>
 <defs>
  <style type="text/css">*{stroke-linejoin: round; stroke-linecap: butt}</style>
 </defs>
 <g id="figure_1">
  <g id="patch_1">
   <path d="M 0 288 
L 432 288 
L 432 0 
L 0 0 
z
" style="fill: #ffffff"/>
  </g>
  <g id="axes_1">
   <g id="patch_2">
    <path d="M 52.872357 242.124 
L 421.2 242.124 
L 421.2 16.596 
L 52.872357 16.596 
z
" style="fill: #ffffff"/>
   </g>
   <g id="patch_3">
    <path d="M 52.872357 242.124 
L 52.872357 16.596 
" style="fill: none; stroke: #000000; stroke-width: 1.5; stroke-linejoin: miter; stroke-linecap: square"/>
   </g>
   <g id="patch_4">
    <path d="M 421.2 242.124 
L 421.2 16.596 
" style="fill: none; stroke: #000000; stroke-width: 1.5; stroke-linejoin: miter; stroke-linecap: square"/>
   </g>
   <g id="patch_5">
    <path d="M 52.872357 242.124 
L 421.2 242.124 
" style="fill: none; stroke: #000000; stroke-width: 1.5; stroke-linejoin: miter; stroke-linecap: square"/>
   </g>
   <g id="patch_6">
    <path d="M 52.872357 16.596 
L 421.2 16.596 
" style="fill: none; stroke: #000000; stroke-width: 1.5; stroke-linejoin: miter; stroke-linecap: square"/>
   </g>
   <g id="PolyCollection_1">
    <path d="M 226.104097 173.49858 
L 226.104097 179.721262 
L 237.419653 182.995221 
L 238.195575 185.794497 
L 260.242024 190.012137 
L 261.776657 190.614696 
L 261.825779 192.299551 
L 262.900326 199.557621 
L 263.773909 75718.828 
L 264.544897 190.210696 
L 266.038422 166.097685 
L 266.313847 172.491586 
L 275.362032 170.407423 
L 276.015874 163.713815 
L 276.918523 119.197263 
L 278.135516 134.512476 
L 278.834691 145.483996 
L 279.53901 146.744709 
L 280.398364 143.260097 
L 281.263708 148.871807 
L 282.157211 159.35934 
L 282.957489 173.152116 
L 283.852806 141.830762 
L 284.717901 140.508996 
L 285.599077 140.986664 
L 286.478587 139.547248 
L 287.304911 140.675439 
L 288.162998 135.720974 
L 289.301306 136.45617 
L 289.907529 138.070059 
L 290.752419 134.197839 
L 291.708527 148.582852 
L 292.520958 138.241704 
L 293.421842 141.980073 
L 294.231863 139.684047 
L 295.053912 140.202978 
L 295.835649 131.073142 
L 296.831573 142.582579 
L 297.753831 169.261794 
L 298.604487 166.107678 
L 299.457081 162.664053 
L 300.242322 163.813067 
L 301.0765 160.988218 
L 302.017001 145.133557 
L 302.878467 144.865746 
L 303.733721 168.408931 
L 304.59059 161.178796 
L 305.54548 159.748267 
L 306.314567 164.64979 
L 307.22507 161.068544 
L 308.066679 163.409747 
L 308.911568 168.729156 
L 309.807904 155.025015 
L 310.671484 151.430202 
L 311.488637 147.162286 
L 312.379207 149.793738 
L 313.224097 144.146719 
L 314.10562 141.565574 
L 314.969995 143.023553 
L 315.840384 144.100385 
L 316.72745 136.551008 
L 317.555787 139.800444 
L 318.411637 141.790231 
L 319.304319 138.307437 
L 320.152862 132.942178 
L 321.031776 135.259314 
L 321.884569 138.462308 
L 322.754312 141.752763 
L 323.560977 127.001975 
L 324.30029 138.651044 
L 325.482464 143.610661 
L 326.220385 149.70363 
L 327.053569 141.034988 
L 327.944885 147.883111 
L 328.866397 137.419476 
L 329.657579 145.20849 
L 330.531223 136.026552 
L 331.409417 150.754468 
L 332.256816 154.417335 
L 333.105036 167.148608 
L 334.011736 152.131187 
L 334.855831 153.748113 
L 335.72192 152.637265 
L 336.584928 169.630239 
L 337.452981 163.206784 
L 338.34785 157.830552 
L 339.194877 159.347349 
L 340.04603 149.842939 
L 340.910231 148.667721 
L 341.805995 154.89904 
L 342.63652 151.441015 
L 343.493016 150.734647 
L 344.348493 160.234762 
L 345.232676 159.553064 
L 346.092651 156.923766 
L 346.99028 157.885761 
L 347.844539 156.645742 
L 348.714406 154.674445 
L 349.529546 156.411694 
L 350.411766 153.952654 
L 351.277607 152.565071 
L 352.1472 154.392885 
L 353.021815 147.3286 
L 353.885593 156.605358 
L 354.737417 162.543965 
L 355.630199 168.746494 
L 356.523105 152.13528 
L 357.342992 143.753595 
L 358.202222 142.671153 
L 359.072984 140.17272 
L 359.868415 143.958485 
L 360.830414 143.938587 
L 361.642298 151.328883 
L 362.508288 145.501904 
L 363.381362 148.582534 
L 364.276803 146.071706 
L 365.119978 147.981076 
L 365.941232 142.725479 
L 366.840004 151.833249 
L 367.715885 146.855727 
L 368.538879 142.66402 
L 369.446871 143.122171 
L 370.291811 146.755755 
L 371.177012 143.188201 
L 372.069794 144.067668 
L 372.891223 143.1894 
L 373.792902 145.139846 
L 374.602947 147.038197 
L 375.510567 144.73398 
L 376.384858 158.36958 
L 377.192965 165.236449 
L 378.038301 185.659396 
L 378.964486 153.930267 
L 379.714337 151.654573 
L 380.742222 132.748607 
L 381.545631 132.555999 
L 382.532458 171.830794 
L 383.284421 177.736515 
L 384.140047 186.217291 
L 384.999228 178.349795 
L 385.863801 171.582571 
L 386.749599 164.802544 
L 387.618149 155.152285 
L 388.481505 149.271036 
L 389.313073 145.107362 
L 390.157242 151.374859 
L 391.077214 153.909298 
L 391.925955 154.148844 
L 392.787919 153.147735 
L 393.660173 152.296536 
L 394.510107 154.471427 
L 395.362851 146.820639 
L 396.258963 148.27717 
L 397.087077 147.924488 
L 397.982592 142.364062 
L 398.844159 141.987135 
L 399.695833 145.600224 
L 400.576164 145.614869 
L 401.428261 149.354583 
L 402.275462 145.528834 
L 403.16966 140.577454 
L 404.04005 150.778071 
L 404.04005 119.980719 
L 404.04005 119.980719 
L 403.16966 120.376621 
L 402.275462 117.889501 
L 401.428261 121.004634 
L 400.576164 120.372124 
L 399.695833 125.537139 
L 398.844159 121.235947 
L 397.982592 131.96973 
L 397.087077 130.801145 
L 396.258963 129.530746 
L 395.362851 131.786414 
L 394.510107 128.666594 
L 393.660173 125.889579 
L 392.787919 128.421723 
L 391.925955 128.361939 
L 391.077214 125.551571 
L 390.157242 125.987684 
L 389.313073 109.879074 
L 388.481505 113.476732 
L 387.618149 113.433279 
L 386.749599 118.950735 
L 385.863801 130.476727 
L 384.999228 124.98748 
L 384.140047 119.977828 
L 383.284421 118.258649 
L 382.532458 118.251966 
L 381.545631 116.494319 
L 380.742222 119.607337 
L 379.714337 117.977283 
L 378.964486 116.424623 
L 378.038301 116.046581 
L 377.192965 118.325427 
L 376.384858 118.256337 
L 375.510567 114.070348 
L 374.602947 117.634201 
L 373.792902 110.841383 
L 372.891223 120.53108 
L 372.069794 121.793647 
L 371.177012 115.286951 
L 370.291811 121.689202 
L 369.446871 124.847978 
L 368.538879 128.19959 
L 367.715885 127.030576 
L 366.840004 129.978096 
L 365.941232 121.17534 
L 365.119978 123.883561 
L 364.276803 128.287943 
L 363.381362 130.481669 
L 362.508288 131.426721 
L 361.642298 124.546138 
L 360.830414 124.041441 
L 359.868415 126.989107 
L 359.072984 126.746501 
L 358.202222 127.088353 
L 357.342992 117.173248 
L 356.523105 115.689459 
L 355.630199 138.680632 
L 354.737417 142.645743 
L 353.885593 141.371705 
L 353.021815 139.634139 
L 352.1472 142.09583 
L 351.277607 139.591326 
L 350.411766 136.320716 
L 349.529546 130.68885 
L 348.714406 136.535026 
L 347.844539 145.669817 
L 346.99028 131.593453 
L 346.092651 136.927209 
L 345.232676 126.733071 
L 344.348493 125.733781 
L 343.493016 133.812379 
L 342.63652 135.648003 
L 341.805995 130.300774 
L 340.910231 127.95168 
L 340.04603 130.99149 
L 339.194877 132.141792 
L 338.34785 135.012657 
L 337.452981 117.665064 
L 336.584928 130.644543 
L 335.72192 138.629653 
L 334.855831 134.503413 
L 334.011736 133.331934 
L 333.105036 115.799443 
L 332.256816 117.845364 
L 331.409417 120.909345 
L 330.531223 117.262007 
L 329.657579 122.948261 
L 328.866397 107.576015 
L 327.944885 110.131687 
L 327.053569 112.37081 
L 326.220385 124.415825 
L 325.482464 126.863262 
L 324.30029 107.239332 
L 323.560977 102.590174 
L 322.754312 116.719607 
L 321.884569 116.366882 
L 321.031776 114.86976 
L 320.152862 112.609497 
L 319.304319 114.370139 
L 318.411637 111.743256 
L 317.555787 109.074484 
L 316.72745 110.911056 
L 315.840384 111.295963 
L 314.969995 123.704198 
L 314.10562 126.352356 
L 313.224097 122.943128 
L 312.379207 120.856499 
L 311.488637 119.431383 
L 310.671484 115.386512 
L 309.807904 113.273407 
L 308.911568 114.316476 
L 308.066679 118.036038 
L 307.22507 113.438715 
L 306.314567 123.559524 
L 305.54548 126.134261 
L 304.59059 118.143963 
L 303.733721 105.770055 
L 302.878467 120.230726 
L 302.017001 107.782991 
L 301.0765 116.410402 
L 300.242322 123.824923 
L 299.457081 124.81431 
L 298.604487 124.818965 
L 297.753831 118.232375 
L 296.831573 124.042089 
L 295.835649 112.17732 
L 295.053912 112.593091 
L 294.231863 118.296472 
L 293.421842 113.192578 
L 292.520958 117.402439 
L 291.708527 118.522295 
L 290.752419 115.391866 
L 289.907529 115.673423 
L 289.301306 123.738526 
L 288.162998 110.466798 
L 287.304911 116.121564 
L 286.478587 120.512853 
L 285.599077 125.935271 
L 284.717901 127.388275 
L 283.852806 129.320401 
L 282.957489 124.300284 
L 282.157211 129.677997 
L 281.263708 120.263315 
L 280.398364 130.591849 
L 279.53901 137.351019 
L 278.834691 135.163059 
L 278.135516 125.661072 
L 276.918523 115.948224 
L 276.015874 159.362447 
L 275.362032 169.180183 
L 266.313847 164.840059 
L 266.038422 163.975937 
L 264.544897 185.340179 
L 263.773909 156.228229 
L 262.900326 180.02043 
L 261.825779 185.764311 
L 261.776657 186.72847 
L 260.242024 188.344336 
L 238.195575 181.270481 
L 237.419653 172.854789 
L 226.104097 173.49858 
z
" clip-path="url(#p03ce0f6d6e)" style="fill: #add8e6; stroke: #add8e6"/>
   </g>
   <g id="line2d_1">
    <path d="M 226.104097 176.461893 
L 237.419653 177.532883 
L 238.195575 183.454191 
L 260.242024 189.167588 
L 261.776657 188.613794 
L 261.825779 188.868684 
L 262.900326 188.348918 
L 263.773909 181.575338 
L 264.544897 187.684698 
L 266.038422 165.019578 
L 266.313847 168.442182 
L 275.362032 169.788037 
L 276.015874 161.465691 
L 276.918523 117.532344 
L 278.135516 129.787723 
L 278.834691 139.917379 
L 279.53901 141.711177 
L 281.263708 131.529413 
L 282.157211 141.255822 
L 282.957489 140.332571 
L 283.852806 134.979992 
L 284.717901 133.293908 
L 285.599077 132.601181 
L 286.478587 128.662108 
L 287.304911 126.142664 
L 288.162998 120.710622 
L 289.301306 129.481983 
L 289.907529 124.987767 
L 290.752419 123.459107 
L 291.708527 130.208573 
L 292.520958 126.186863 
L 293.421842 124.511193 
L 294.231863 127.269371 
L 295.835649 120.276865 
L 296.831573 132.013547 
L 297.753831 134.65241 
L 298.604487 139.329944 
L 299.457081 138.536404 
L 300.242322 138.045067 
L 301.0765 131.61765 
L 302.017001 121.385189 
L 302.878467 130.2778 
L 303.733721 123.927814 
L 304.59059 133.031458 
L 305.54548 138.793825 
L 306.314567 138.026706 
L 307.22507 129.243956 
L 308.066679 133.40358 
L 308.911568 131.29801 
L 309.807904 127.885742 
L 310.671484 128.668166 
L 312.379207 132.218891 
L 313.224097 131.853016 
L 314.10562 133.080755 
L 314.969995 131.955252 
L 315.840384 123.740517 
L 316.72745 121.276185 
L 317.555787 120.948898 
L 318.411637 123.425665 
L 319.304319 124.192435 
L 320.152862 121.217939 
L 321.884569 125.580033 
L 322.754312 126.893489 
L 323.560977 112.56569 
L 324.30029 119.304769 
L 325.482464 134.174688 
L 326.220385 134.670263 
L 327.053569 123.653267 
L 327.944885 123.830275 
L 328.866397 119.200315 
L 329.657579 132.216855 
L 330.531223 125.314334 
L 331.409417 132.534121 
L 332.256816 131.257759 
L 333.105036 132.27464 
L 334.011736 141.396757 
L 334.855831 142.727852 
L 335.72192 144.887918 
L 336.584928 144.634324 
L 337.452981 133.066046 
L 338.34785 144.467486 
L 339.194877 142.989199 
L 340.04603 139.075089 
L 340.910231 136.693461 
L 341.805995 140.336089 
L 342.63652 142.598736 
L 343.493016 141.189184 
L 344.348493 138.624442 
L 345.232676 139.181798 
L 346.092651 145.417899 
L 346.99028 142.161484 
L 347.844539 150.698694 
L 348.714406 144.360837 
L 349.529546 141.079916 
L 350.411766 143.960601 
L 351.277607 145.437962 
L 352.1472 147.668788 
L 353.021815 143.255218 
L 353.885593 148.107982 
L 354.737417 151.101835 
L 355.630199 150.368421 
L 356.523105 129.070778 
L 357.342992 127.82998 
L 358.202222 133.958757 
L 359.072984 132.774253 
L 359.868415 134.383488 
L 360.830414 132.497154 
L 361.642298 135.264875 
L 362.508288 137.711616 
L 363.381362 138.29342 
L 365.119978 133.75776 
L 365.941232 130.203719 
L 366.840004 139.110081 
L 367.715885 135.460915 
L 368.538879 134.637241 
L 369.446871 132.722859 
L 370.291811 131.873673 
L 371.177012 126.343558 
L 372.069794 131.066872 
L 372.891223 129.932835 
L 373.792902 123.679688 
L 374.602947 129.132136 
L 375.510567 125.927255 
L 376.384858 132.504848 
L 377.192965 133.993855 
L 378.038301 135.018292 
L 378.964486 130.064218 
L 379.714337 130.65349 
L 380.742222 125.521205 
L 381.545631 123.547254 
L 382.532458 135.09959 
L 383.284421 135.99424 
L 384.140047 138.574969 
L 385.863801 144.947354 
L 386.749599 134.413075 
L 387.618149 128.038512 
L 388.481505 126.696112 
L 389.313073 122.955787 
L 390.157242 136.27344 
L 391.077214 136.743756 
L 391.925955 138.773019 
L 392.787919 138.497871 
L 393.660173 136.492981 
L 394.510107 139.08327 
L 395.362851 138.445683 
L 396.258963 137.576546 
L 397.087077 138.252855 
L 397.982592 136.754975 
L 398.844159 129.989902 
L 399.695833 134.051198 
L 400.576164 130.612339 
L 401.428261 132.19452 
L 402.275462 128.867714 
L 403.16966 128.938968 
L 404.457834 133.640928 
L 404.457834 133.640928 
" clip-path="url(#p03ce0f6d6e)" style="fill: none; stroke: #1f77b4; stroke-width: 1.5; stroke-linecap: square"/>
   </g>
   <g id="line2d_2">
    <path d="M 69.614523 34.26236 
L 70.307062 29.999881 
L 70.653269 30.278032 
L 70.9996 30.962134 
L 71.345932 31.894316 
L 73.769133 41.9679 
L 74.808003 45.290679 
L 76.192335 48.620976 
L 77.229962 50.620658 
L 78.614294 52.823314 
L 80.344087 55.183841 
L 83.11275 58.499102 
L 86.91904 62.716476 
L 92.801828 68.820767 
L 97.645746 73.526785 
L 102.835125 78.232802 
L 107.679043 82.314859 
L 112.868422 86.359328 
L 117.020174 89.403956 
L 123.939347 94.087421 
L 128.783265 97.117014 
L 134.318106 100.372134 
L 141.237278 104.14597 
L 148.503155 107.807041 
L 156.806659 111.66357 
L 161.996038 113.91885 
L 171.335927 117.670132 
L 184.82881 122.526502 
L 193.129829 125.285461 
L 214.926217 131.765632 
L 238.797859 137.84737 
L 253.324641 141.192702 
L 258.866938 142.282754 
L 262.321554 142.54587 
L 296.233949 144.635763 
L 305.566382 145.161995 
L 316.290602 145.748368 
L 328.40661 146.379846 
L 335.315841 146.733174 
L 342.585446 147.094018 
L 373.030799 148.514845 
L 378.560669 148.762926 
L 403.824099 149.837942 
L 403.824099 149.837942 
" clip-path="url(#p03ce0f6d6e)" style="fill: none; stroke: #000000; stroke-width: 2.5; stroke-linecap: square"/>
   </g>
   <g id="line2d_3">
    <path d="M 69.614523 74.113158 
L 70.307062 67.993831 
L 70.9996 64.528218 
L 71.345932 63.160014 
L 72.038097 61.581318 
L 73.076967 60.280774 
L 74.461299 59.22831 
L 75.153465 58.950158 
L 75.500169 58.867465 
L 75.84563 59.017817 
L 76.537796 59.626742 
L 77.922128 62.528536 
L 82.420584 72.692331 
L 84.15162 75.939934 
L 85.881413 78.781587 
L 87.611206 81.284948 
L 89.340999 83.525193 
L 91.417497 85.923307 
L 94.184917 88.712337 
L 97.299042 91.418673 
L 100.066462 93.523601 
L 103.180587 95.628529 
L 106.986877 97.891326 
L 110.101002 99.537681 
L 113.213884 101.041201 
L 116.328009 102.424439 
L 122.555015 104.890212 
L 128.091099 106.822235 
L 129.820892 107.21315 
L 136.047899 108.197956 
L 145.043569 109.257938 
L 150.57841 109.754099 
L 158.189748 110.302884 
L 186.208171 111.407971 
L 208.700453 111.783851 
L 220.468513 111.889098 
L 232.224148 112.046967 
L 239.145806 112.152214 
L 321.484952 114.039131 
L 328.058663 114.212036 
L 354.00556 114.881102 
L 360.579271 115.054007 
L 387.209635 115.738109 
L 393.783346 115.911014 
L 404.172046 116.17413 
L 404.172046 116.17413 
" clip-path="url(#p03ce0f6d6e)" style="fill: none; stroke-dasharray: 9.25,4; stroke-dashoffset: 0; stroke: #8b0000; stroke-width: 2.5"/>
   </g>
   <g id="legend_1">
    <g id="line2d_4">
     <path d="M 333.95625 29.694438 
L 343.95625 29.694438 
L 353.95625 29.694438 
" style="fill: none; stroke: #1f77b4; stroke-width: 1.5; stroke-linecap: square"/>
    </g>
    <g id="text_1">
     <!-- PSP -->
     <g transform="translate(361.95625 33.194438) scale(0.1 -0.1)">
      <defs>
       <path id="DejaVuSans-50" d="M 1259 4147 
L 1259 2394 
L 2053 2394 
Q 2494 2394 2734 2622 
Q 2975 2850 2975 3272 
Q 2975 3691 2734 3919 
Q 2494 4147 2053 4147 
L 1259 4147 
z
M 628 4666 
L 2053 4666 
Q 2838 4666 3239 4311 
Q 3641 3956 3641 3272 
Q 3641 2581 3239 2228 
Q 2838 1875 2053 1875 
L 1259 1875 
L 1259 0 
L 628 0 
L 628 4666 
z
" transform="scale(0.015625)"/>
       <path id="DejaVuSans-53" d="M 3425 4513 
L 3425 3897 
Q 3066 4069 2747 4153 
Q 2428 4238 2131 4238 
Q 1616 4238 1336 4038 
Q 1056 3838 1056 3469 
Q 1056 3159 1242 3001 
Q 1428 2844 1947 2747 
L 2328 2669 
Q 3034 2534 3370 2195 
Q 3706 1856 3706 1288 
Q 3706 609 3251 259 
Q 2797 -91 1919 -91 
Q 1588 -91 1214 -16 
Q 841 59 441 206 
L 441 856 
Q 825 641 1194 531 
Q 1563 422 1919 422 
Q 2459 422 2753 634 
Q 3047 847 3047 1241 
Q 3047 1584 2836 1778 
Q 2625 1972 2144 2069 
L 1759 2144 
Q 1053 2284 737 2584 
Q 422 2884 422 3419 
Q 422 4038 858 4394 
Q 1294 4750 2059 4750 
Q 2388 4750 2728 4690 
Q 3069 4631 3425 4513 
z
" transform="scale(0.015625)"/>
      </defs>
      <use xlink:href="#DejaVuSans-50"/>
      <use xlink:href="#DejaVuSans-53" x="60.302734"/>
      <use xlink:href="#DejaVuSans-50" x="123.779297"/>
     </g>
    </g>
    <g id="line2d_5">
     <path d="M 333.95625 44.372563 
L 343.95625 44.372563 
L 353.95625 44.372563 
" style="fill: none; stroke: #000000; stroke-width: 2.5; stroke-linecap: square"/>
    </g>
    <g id="text_2">
     <!-- Slow wind -->
     <g transform="translate(361.95625 47.872563) scale(0.1 -0.1)">
      <defs>
       <path id="DejaVuSans-6c" d="M 603 4863 
L 1178 4863 
L 1178 0 
L 603 0 
L 603 4863 
z
" transform="scale(0.015625)"/>
       <path id="DejaVuSans-6f" d="M 1959 3097 
Q 1497 3097 1228 2736 
Q 959 2375 959 1747 
Q 959 1119 1226 758 
Q 1494 397 1959 397 
Q 2419 397 2687 759 
Q 2956 1122 2956 1747 
Q 2956 2369 2687 2733 
Q 2419 3097 1959 3097 
z
M 1959 3584 
Q 2709 3584 3137 3096 
Q 3566 2609 3566 1747 
Q 3566 888 3137 398 
Q 2709 -91 1959 -91 
Q 1206 -91 779 398 
Q 353 888 353 1747 
Q 353 2609 779 3096 
Q 1206 3584 1959 3584 
z
" transform="scale(0.015625)"/>
       <path id="DejaVuSans-77" d="M 269 3500 
L 844 3500 
L 1563 769 
L 2278 3500 
L 2956 3500 
L 3675 769 
L 4391 3500 
L 4966 3500 
L 4050 0 
L 3372 0 
L 2619 2869 
L 1863 0 
L 1184 0 
L 269 3500 
z
" transform="scale(0.015625)"/>
       <path id="DejaVuSans-20" transform="scale(0.015625)"/>
       <path id="DejaVuSans-69" d="M 603 3500 
L 1178 3500 
L 1178 0 
L 603 0 
L 603 3500 
z
M 603 4863 
L 1178 4863 
L 1178 4134 
L 603 4134 
L 603 4863 
z
" transform="scale(0.015625)"/>
       <path id="DejaVuSans-6e" d="M 3513 2113 
L 3513 0 
L 2938 0 
L 2938 2094 
Q 2938 2591 2744 2837 
Q 2550 3084 2163 3084 
Q 1697 3084 1428 2787 
Q 1159 2491 1159 1978 
L 1159 0 
L 581 0 
L 581 3500 
L 1159 3500 
L 1159 2956 
Q 1366 3272 1645 3428 
Q 1925 3584 2291 3584 
Q 2894 3584 3203 3211 
Q 3513 2838 3513 2113 
z
" transform="scale(0.015625)"/>
       <path id="DejaVuSans-64" d="M 2906 2969 
L 2906 4863 
L 3481 4863 
L 3481 0 
L 2906 0 
L 2906 525 
Q 2725 213 2448 61 
Q 2172 -91 1784 -91 
Q 1150 -91 751 415 
Q 353 922 353 1747 
Q 353 2572 751 3078 
Q 1150 3584 1784 3584 
Q 2172 3584 2448 3432 
Q 2725 3281 2906 2969 
z
M 947 1747 
Q 947 1113 1208 752 
Q 1469 391 1925 391 
Q 2381 391 2643 752 
Q 2906 1113 2906 1747 
Q 2906 2381 2643 2742 
Q 2381 3103 1925 3103 
Q 1469 3103 1208 2742 
Q 947 2381 947 1747 
z
" transform="scale(0.015625)"/>
      </defs>
      <use xlink:href="#DejaVuSans-53"/>
      <use xlink:href="#DejaVuSans-6c" x="63.476562"/>
      <use xlink:href="#DejaVuSans-6f" x="91.259766"/>
      <use xlink:href="#DejaVuSans-77" x="152.441406"/>
      <use xlink:href="#DejaVuSans-20" x="234.228516"/>
      <use xlink:href="#DejaVuSans-77" x="266.015625"/>
      <use xlink:href="#DejaVuSans-69" x="347.802734"/>
      <use xlink:href="#DejaVuSans-6e" x="375.585938"/>
      <use xlink:href="#DejaVuSans-64" x="438.964844"/>
     </g>
    </g>
    <g id="line2d_6">
     <path d="M 333.95625 59.050688 
L 343.95625 59.050688 
L 353.95625 59.050688 
" style="fill: none; stroke-dasharray: 9.25,4; stroke-dashoffset: 0; stroke: #8b0000; stroke-width: 2.5"/>
    </g>
    <g id="text_3">
     <!-- Fast wind -->
     <g transform="translate(361.95625 62.550688) scale(0.1 -0.1)">
      <defs>
       <path id="DejaVuSans-46" d="M 628 4666 
L 3309 4666 
L 3309 4134 
L 1259 4134 
L 1259 2759 
L 3109 2759 
L 3109 2228 
L 1259 2228 
L 1259 0 
L 628 0 
L 628 4666 
z
" transform="scale(0.015625)"/>
       <path id="DejaVuSans-61" d="M 2194 1759 
Q 1497 1759 1228 1600 
Q 959 1441 959 1056 
Q 959 750 1161 570 
Q 1363 391 1709 391 
Q 2188 391 2477 730 
Q 2766 1069 2766 1631 
L 2766 1759 
L 2194 1759 
z
M 3341 1997 
L 3341 0 
L 2766 0 
L 2766 531 
Q 2569 213 2275 61 
Q 1981 -91 1556 -91 
Q 1019 -91 701 211 
Q 384 513 384 1019 
Q 384 1609 779 1909 
Q 1175 2209 1959 2209 
L 2766 2209 
L 2766 2266 
Q 2766 2663 2505 2880 
Q 2244 3097 1772 3097 
Q 1472 3097 1187 3025 
Q 903 2953 641 2809 
L 641 3341 
Q 956 3463 1253 3523 
Q 1550 3584 1831 3584 
Q 2591 3584 2966 3190 
Q 3341 2797 3341 1997 
z
" transform="scale(0.015625)"/>
       <path id="DejaVuSans-73" d="M 2834 3397 
L 2834 2853 
Q 2591 2978 2328 3040 
Q 2066 3103 1784 3103 
Q 1356 3103 1142 2972 
Q 928 2841 928 2578 
Q 928 2378 1081 2264 
Q 1234 2150 1697 2047 
L 1894 2003 
Q 2506 1872 2764 1633 
Q 3022 1394 3022 966 
Q 3022 478 2636 193 
Q 2250 -91 1575 -91 
Q 1294 -91 989 -36 
Q 684 19 347 128 
L 347 722 
Q 666 556 975 473 
Q 1284 391 1588 391 
Q 1994 391 2212 530 
Q 2431 669 2431 922 
Q 2431 1156 2273 1281 
Q 2116 1406 1581 1522 
L 1381 1569 
Q 847 1681 609 1914 
Q 372 2147 372 2553 
Q 372 3047 722 3315 
Q 1072 3584 1716 3584 
Q 2034 3584 2315 3537 
Q 2597 3491 2834 3397 
z
" transform="scale(0.015625)"/>
       <path id="DejaVuSans-74" d="M 1172 4494 
L 1172 3500 
L 2356 3500 
L 2356 3053 
L 1172 3053 
L 1172 1153 
Q 1172 725 1289 603 
Q 1406 481 1766 481 
L 2356 481 
L 2356 0 
L 1766 0 
Q 1100 0 847 248 
Q 594 497 594 1153 
L 594 3053 
L 172 3053 
L 172 3500 
L 594 3500 
L 594 4494 
L 1172 4494 
z
" transform="scale(0.015625)"/>
      </defs>
      <use xlink:href="#DejaVuSans-46"/>
      <use xlink:href="#DejaVuSans-61" x="48.394531"/>
      <use xlink:href="#DejaVuSans-73" x="109.673828"/>
      <use xlink:href="#DejaVuSans-74" x="161.773438"/>
      <use xlink:href="#DejaVuSans-20" x="200.982422"/>
      <use xlink:href="#DejaVuSans-77" x="232.769531"/>
      <use xlink:href="#DejaVuSans-69" x="314.556641"/>
      <use xlink:href="#DejaVuSans-6e" x="342.339844"/>
      <use xlink:href="#DejaVuSans-64" x="405.71875"/>
     </g>
    </g>
   </g>
   <g id="matplotlib.axis_1">
    <g id="xtick_1">
     <g id="line2d_7">
      <defs>
       <path id="mb06d6b4ffc" d="M 0 0 
L 0 -3.5 
" style="stroke: #000000; stroke-width: 1.5"/>
      </defs>
      <g>
       <use xlink:href="#mb06d6b4ffc" x="58.648355" y="242.124" style="stroke: #000000; stroke-width: 1.5"/>
      </g>
     </g>
     <g id="line2d_8">
      <defs>
       <path id="mebd2b6f7f5" d="M 0 0 
L 0 3.5 
" style="stroke: #000000; stroke-width: 1.5"/>
      </defs>
      <g>
       <use xlink:href="#mebd2b6f7f5" x="58.648355" y="16.596" style="stroke: #000000; stroke-width: 1.5"/>
      </g>
     </g>
     <g id="text_4">
      <!-- 0 -->
      <g transform="translate(54.830855 254.742125) scale(0.12 -0.12)">
       <defs>
        <path id="DejaVuSans-30" d="M 2034 4250 
Q 1547 4250 1301 3770 
Q 1056 3291 1056 2328 
Q 1056 1369 1301 889 
Q 1547 409 2034 409 
Q 2525 409 2770 889 
Q 3016 1369 3016 2328 
Q 3016 3291 2770 3770 
Q 2525 4250 2034 4250 
z
M 2034 4750 
Q 2819 4750 3233 4129 
Q 3647 3509 3647 2328 
Q 3647 1150 3233 529 
Q 2819 -91 2034 -91 
Q 1250 -91 836 529 
Q 422 1150 422 2328 
Q 422 3509 836 4129 
Q 1250 4750 2034 4750 
z
" transform="scale(0.015625)"/>
       </defs>
       <use xlink:href="#DejaVuSans-30"/>
      </g>
     </g>
    </g>
    <g id="xtick_2">
     <g id="line2d_9">
      <g>
       <use xlink:href="#mb06d6b4ffc" x="101.874543" y="242.124" style="stroke: #000000; stroke-width: 1.5"/>
      </g>
     </g>
     <g id="line2d_10">
      <g>
       <use xlink:href="#mebd2b6f7f5" x="101.874543" y="16.596" style="stroke: #000000; stroke-width: 1.5"/>
      </g>
     </g>
     <g id="text_5">
      <!-- 5 -->
      <g transform="translate(98.057043 254.742125) scale(0.12 -0.12)">
       <defs>
        <path id="DejaVuSans-35" d="M 691 4666 
L 3169 4666 
L 3169 4134 
L 1269 4134 
L 1269 2991 
Q 1406 3038 1543 3061 
Q 1681 3084 1819 3084 
Q 2600 3084 3056 2656 
Q 3513 2228 3513 1497 
Q 3513 744 3044 326 
Q 2575 -91 1722 -91 
Q 1428 -91 1123 -41 
Q 819 9 494 109 
L 494 744 
Q 775 591 1075 516 
Q 1375 441 1709 441 
Q 2250 441 2565 725 
Q 2881 1009 2881 1497 
Q 2881 1984 2565 2268 
Q 2250 2553 1709 2553 
Q 1456 2553 1204 2497 
Q 953 2441 691 2322 
L 691 4666 
z
" transform="scale(0.015625)"/>
       </defs>
       <use xlink:href="#DejaVuSans-35"/>
      </g>
     </g>
    </g>
    <g id="xtick_3">
     <g id="line2d_11">
      <g>
       <use xlink:href="#mb06d6b4ffc" x="145.100731" y="242.124" style="stroke: #000000; stroke-width: 1.5"/>
      </g>
     </g>
     <g id="line2d_12">
      <g>
       <use xlink:href="#mebd2b6f7f5" x="145.100731" y="16.596" style="stroke: #000000; stroke-width: 1.5"/>
      </g>
     </g>
     <g id="text_6">
      <!-- 10 -->
      <g transform="translate(137.465731 254.742125) scale(0.12 -0.12)">
       <defs>
        <path id="DejaVuSans-31" d="M 794 531 
L 1825 531 
L 1825 4091 
L 703 3866 
L 703 4441 
L 1819 4666 
L 2450 4666 
L 2450 531 
L 3481 531 
L 3481 0 
L 794 0 
L 794 531 
z
" transform="scale(0.015625)"/>
       </defs>
       <use xlink:href="#DejaVuSans-31"/>
       <use xlink:href="#DejaVuSans-30" x="63.623047"/>
      </g>
     </g>
    </g>
    <g id="xtick_4">
     <g id="line2d_13">
      <g>
       <use xlink:href="#mb06d6b4ffc" x="188.326919" y="242.124" style="stroke: #000000; stroke-width: 1.5"/>
      </g>
     </g>
     <g id="line2d_14">
      <g>
       <use xlink:href="#mebd2b6f7f5" x="188.326919" y="16.596" style="stroke: #000000; stroke-width: 1.5"/>
      </g>
     </g>
     <g id="text_7">
      <!-- 15 -->
      <g transform="translate(180.691919 254.742125) scale(0.12 -0.12)">
       <use xlink:href="#DejaVuSans-31"/>
       <use xlink:href="#DejaVuSans-35" x="63.623047"/>
      </g>
     </g>
    </g>
    <g id="xtick_5">
     <g id="line2d_15">
      <g>
       <use xlink:href="#mb06d6b4ffc" x="231.553107" y="242.124" style="stroke: #000000; stroke-width: 1.5"/>
      </g>
     </g>
     <g id="line2d_16">
      <g>
       <use xlink:href="#mebd2b6f7f5" x="231.553107" y="16.596" style="stroke: #000000; stroke-width: 1.5"/>
      </g>
     </g>
     <g id="text_8">
      <!-- 20 -->
      <g transform="translate(223.918107 254.742125) scale(0.12 -0.12)">
       <defs>
        <path id="DejaVuSans-32" d="M 1228 531 
L 3431 531 
L 3431 0 
L 469 0 
L 469 531 
Q 828 903 1448 1529 
Q 2069 2156 2228 2338 
Q 2531 2678 2651 2914 
Q 2772 3150 2772 3378 
Q 2772 3750 2511 3984 
Q 2250 4219 1831 4219 
Q 1534 4219 1204 4116 
Q 875 4013 500 3803 
L 500 4441 
Q 881 4594 1212 4672 
Q 1544 4750 1819 4750 
Q 2544 4750 2975 4387 
Q 3406 4025 3406 3419 
Q 3406 3131 3298 2873 
Q 3191 2616 2906 2266 
Q 2828 2175 2409 1742 
Q 1991 1309 1228 531 
z
" transform="scale(0.015625)"/>
       </defs>
       <use xlink:href="#DejaVuSans-32"/>
       <use xlink:href="#DejaVuSans-30" x="63.623047"/>
      </g>
     </g>
    </g>
    <g id="xtick_6">
     <g id="line2d_17">
      <g>
       <use xlink:href="#mb06d6b4ffc" x="274.779295" y="242.124" style="stroke: #000000; stroke-width: 1.5"/>
      </g>
     </g>
     <g id="line2d_18">
      <g>
       <use xlink:href="#mebd2b6f7f5" x="274.779295" y="16.596" style="stroke: #000000; stroke-width: 1.5"/>
      </g>
     </g>
     <g id="text_9">
      <!-- 25 -->
      <g transform="translate(267.144295 254.742125) scale(0.12 -0.12)">
       <use xlink:href="#DejaVuSans-32"/>
       <use xlink:href="#DejaVuSans-35" x="63.623047"/>
      </g>
     </g>
    </g>
    <g id="xtick_7">
     <g id="line2d_19">
      <g>
       <use xlink:href="#mb06d6b4ffc" x="318.005483" y="242.124" style="stroke: #000000; stroke-width: 1.5"/>
      </g>
     </g>
     <g id="line2d_20">
      <g>
       <use xlink:href="#mebd2b6f7f5" x="318.005483" y="16.596" style="stroke: #000000; stroke-width: 1.5"/>
      </g>
     </g>
     <g id="text_10">
      <!-- 30 -->
      <g transform="translate(310.370483 254.742125) scale(0.12 -0.12)">
       <defs>
        <path id="DejaVuSans-33" d="M 2597 2516 
Q 3050 2419 3304 2112 
Q 3559 1806 3559 1356 
Q 3559 666 3084 287 
Q 2609 -91 1734 -91 
Q 1441 -91 1130 -33 
Q 819 25 488 141 
L 488 750 
Q 750 597 1062 519 
Q 1375 441 1716 441 
Q 2309 441 2620 675 
Q 2931 909 2931 1356 
Q 2931 1769 2642 2001 
Q 2353 2234 1838 2234 
L 1294 2234 
L 1294 2753 
L 1863 2753 
Q 2328 2753 2575 2939 
Q 2822 3125 2822 3475 
Q 2822 3834 2567 4026 
Q 2313 4219 1838 4219 
Q 1578 4219 1281 4162 
Q 984 4106 628 3988 
L 628 4550 
Q 988 4650 1302 4700 
Q 1616 4750 1894 4750 
Q 2613 4750 3031 4423 
Q 3450 4097 3450 3541 
Q 3450 3153 3228 2886 
Q 3006 2619 2597 2516 
z
" transform="scale(0.015625)"/>
       </defs>
       <use xlink:href="#DejaVuSans-33"/>
       <use xlink:href="#DejaVuSans-30" x="63.623047"/>
      </g>
     </g>
    </g>
    <g id="xtick_8">
     <g id="line2d_21">
      <g>
       <use xlink:href="#mb06d6b4ffc" x="361.231671" y="242.124" style="stroke: #000000; stroke-width: 1.5"/>
      </g>
     </g>
     <g id="line2d_22">
      <g>
       <use xlink:href="#mebd2b6f7f5" x="361.231671" y="16.596" style="stroke: #000000; stroke-width: 1.5"/>
      </g>
     </g>
     <g id="text_11">
      <!-- 35 -->
      <g transform="translate(353.596671 254.742125) scale(0.12 -0.12)">
       <use xlink:href="#DejaVuSans-33"/>
       <use xlink:href="#DejaVuSans-35" x="63.623047"/>
      </g>
     </g>
    </g>
    <g id="xtick_9">
     <g id="line2d_23">
      <g>
       <use xlink:href="#mb06d6b4ffc" x="404.457859" y="242.124" style="stroke: #000000; stroke-width: 1.5"/>
      </g>
     </g>
     <g id="line2d_24">
      <g>
       <use xlink:href="#mebd2b6f7f5" x="404.457859" y="16.596" style="stroke: #000000; stroke-width: 1.5"/>
      </g>
     </g>
     <g id="text_12">
      <!-- 40 -->
      <g transform="translate(396.822859 254.742125) scale(0.12 -0.12)">
       <defs>
        <path id="DejaVuSans-34" d="M 2419 4116 
L 825 1625 
L 2419 1625 
L 2419 4116 
z
M 2253 4666 
L 3047 4666 
L 3047 1625 
L 3713 1625 
L 3713 1100 
L 3047 1100 
L 3047 0 
L 2419 0 
L 2419 1100 
L 313 1100 
L 313 1709 
L 2253 4666 
z
" transform="scale(0.015625)"/>
       </defs>
       <use xlink:href="#DejaVuSans-34"/>
       <use xlink:href="#DejaVuSans-30" x="63.623047"/>
      </g>
     </g>
    </g>
    <g id="xtick_10">
     <g id="line2d_25">
      <defs>
       <path id="m85024e8d45" d="M 0 0 
L 0 -2 
" style="stroke: #000000; stroke-width: 1.5"/>
      </defs>
      <g>
       <use xlink:href="#m85024e8d45" x="67.293593" y="242.124" style="stroke: #000000; stroke-width: 1.5"/>
      </g>
     </g>
     <g id="line2d_26">
      <defs>
       <path id="m84f93741ed" d="M 0 0 
L 0 2 
" style="stroke: #000000; stroke-width: 1.5"/>
      </defs>
      <g>
       <use xlink:href="#m84f93741ed" x="67.293593" y="16.596" style="stroke: #000000; stroke-width: 1.5"/>
      </g>
     </g>
    </g>
    <g id="xtick_11">
     <g id="line2d_27">
      <g>
       <use xlink:href="#m85024e8d45" x="75.938831" y="242.124" style="stroke: #000000; stroke-width: 1.5"/>
      </g>
     </g>
     <g id="line2d_28">
      <g>
       <use xlink:href="#m84f93741ed" x="75.938831" y="16.596" style="stroke: #000000; stroke-width: 1.5"/>
      </g>
     </g>
    </g>
    <g id="xtick_12">
     <g id="line2d_29">
      <g>
       <use xlink:href="#m85024e8d45" x="84.584068" y="242.124" style="stroke: #000000; stroke-width: 1.5"/>
      </g>
     </g>
     <g id="line2d_30">
      <g>
       <use xlink:href="#m84f93741ed" x="84.584068" y="16.596" style="stroke: #000000; stroke-width: 1.5"/>
      </g>
     </g>
    </g>
    <g id="xtick_13">
     <g id="line2d_31">
      <g>
       <use xlink:href="#m85024e8d45" x="93.229306" y="242.124" style="stroke: #000000; stroke-width: 1.5"/>
      </g>
     </g>
     <g id="line2d_32">
      <g>
       <use xlink:href="#m84f93741ed" x="93.229306" y="16.596" style="stroke: #000000; stroke-width: 1.5"/>
      </g>
     </g>
    </g>
    <g id="xtick_14">
     <g id="line2d_33">
      <g>
       <use xlink:href="#m85024e8d45" x="110.519781" y="242.124" style="stroke: #000000; stroke-width: 1.5"/>
      </g>
     </g>
     <g id="line2d_34">
      <g>
       <use xlink:href="#m84f93741ed" x="110.519781" y="16.596" style="stroke: #000000; stroke-width: 1.5"/>
      </g>
     </g>
    </g>
    <g id="xtick_15">
     <g id="line2d_35">
      <g>
       <use xlink:href="#m85024e8d45" x="119.165019" y="242.124" style="stroke: #000000; stroke-width: 1.5"/>
      </g>
     </g>
     <g id="line2d_36">
      <g>
       <use xlink:href="#m84f93741ed" x="119.165019" y="16.596" style="stroke: #000000; stroke-width: 1.5"/>
      </g>
     </g>
    </g>
    <g id="xtick_16">
     <g id="line2d_37">
      <g>
       <use xlink:href="#m85024e8d45" x="127.810256" y="242.124" style="stroke: #000000; stroke-width: 1.5"/>
      </g>
     </g>
     <g id="line2d_38">
      <g>
       <use xlink:href="#m84f93741ed" x="127.810256" y="16.596" style="stroke: #000000; stroke-width: 1.5"/>
      </g>
     </g>
    </g>
    <g id="xtick_17">
     <g id="line2d_39">
      <g>
       <use xlink:href="#m85024e8d45" x="136.455494" y="242.124" style="stroke: #000000; stroke-width: 1.5"/>
      </g>
     </g>
     <g id="line2d_40">
      <g>
       <use xlink:href="#m84f93741ed" x="136.455494" y="16.596" style="stroke: #000000; stroke-width: 1.5"/>
      </g>
     </g>
    </g>
    <g id="xtick_18">
     <g id="line2d_41">
      <g>
       <use xlink:href="#m85024e8d45" x="153.745969" y="242.124" style="stroke: #000000; stroke-width: 1.5"/>
      </g>
     </g>
     <g id="line2d_42">
      <g>
       <use xlink:href="#m84f93741ed" x="153.745969" y="16.596" style="stroke: #000000; stroke-width: 1.5"/>
      </g>
     </g>
    </g>
    <g id="xtick_19">
     <g id="line2d_43">
      <g>
       <use xlink:href="#m85024e8d45" x="162.391207" y="242.124" style="stroke: #000000; stroke-width: 1.5"/>
      </g>
     </g>
     <g id="line2d_44">
      <g>
       <use xlink:href="#m84f93741ed" x="162.391207" y="16.596" style="stroke: #000000; stroke-width: 1.5"/>
      </g>
     </g>
    </g>
    <g id="xtick_20">
     <g id="line2d_45">
      <g>
       <use xlink:href="#m85024e8d45" x="171.036444" y="242.124" style="stroke: #000000; stroke-width: 1.5"/>
      </g>
     </g>
     <g id="line2d_46">
      <g>
       <use xlink:href="#m84f93741ed" x="171.036444" y="16.596" style="stroke: #000000; stroke-width: 1.5"/>
      </g>
     </g>
    </g>
    <g id="xtick_21">
     <g id="line2d_47">
      <g>
       <use xlink:href="#m85024e8d45" x="179.681682" y="242.124" style="stroke: #000000; stroke-width: 1.5"/>
      </g>
     </g>
     <g id="line2d_48">
      <g>
       <use xlink:href="#m84f93741ed" x="179.681682" y="16.596" style="stroke: #000000; stroke-width: 1.5"/>
      </g>
     </g>
    </g>
    <g id="xtick_22">
     <g id="line2d_49">
      <g>
       <use xlink:href="#m85024e8d45" x="196.972157" y="242.124" style="stroke: #000000; stroke-width: 1.5"/>
      </g>
     </g>
     <g id="line2d_50">
      <g>
       <use xlink:href="#m84f93741ed" x="196.972157" y="16.596" style="stroke: #000000; stroke-width: 1.5"/>
      </g>
     </g>
    </g>
    <g id="xtick_23">
     <g id="line2d_51">
      <g>
       <use xlink:href="#m85024e8d45" x="205.617395" y="242.124" style="stroke: #000000; stroke-width: 1.5"/>
      </g>
     </g>
     <g id="line2d_52">
      <g>
       <use xlink:href="#m84f93741ed" x="205.617395" y="16.596" style="stroke: #000000; stroke-width: 1.5"/>
      </g>
     </g>
    </g>
    <g id="xtick_24">
     <g id="line2d_53">
      <g>
       <use xlink:href="#m85024e8d45" x="214.262632" y="242.124" style="stroke: #000000; stroke-width: 1.5"/>
      </g>
     </g>
     <g id="line2d_54">
      <g>
       <use xlink:href="#m84f93741ed" x="214.262632" y="16.596" style="stroke: #000000; stroke-width: 1.5"/>
      </g>
     </g>
    </g>
    <g id="xtick_25">
     <g id="line2d_55">
      <g>
       <use xlink:href="#m85024e8d45" x="222.90787" y="242.124" style="stroke: #000000; stroke-width: 1.5"/>
      </g>
     </g>
     <g id="line2d_56">
      <g>
       <use xlink:href="#m84f93741ed" x="222.90787" y="16.596" style="stroke: #000000; stroke-width: 1.5"/>
      </g>
     </g>
    </g>
    <g id="xtick_26">
     <g id="line2d_57">
      <g>
       <use xlink:href="#m85024e8d45" x="240.198345" y="242.124" style="stroke: #000000; stroke-width: 1.5"/>
      </g>
     </g>
     <g id="line2d_58">
      <g>
       <use xlink:href="#m84f93741ed" x="240.198345" y="16.596" style="stroke: #000000; stroke-width: 1.5"/>
      </g>
     </g>
    </g>
    <g id="xtick_27">
     <g id="line2d_59">
      <g>
       <use xlink:href="#m85024e8d45" x="248.843583" y="242.124" style="stroke: #000000; stroke-width: 1.5"/>
      </g>
     </g>
     <g id="line2d_60">
      <g>
       <use xlink:href="#m84f93741ed" x="248.843583" y="16.596" style="stroke: #000000; stroke-width: 1.5"/>
      </g>
     </g>
    </g>
    <g id="xtick_28">
     <g id="line2d_61">
      <g>
       <use xlink:href="#m85024e8d45" x="257.48882" y="242.124" style="stroke: #000000; stroke-width: 1.5"/>
      </g>
     </g>
     <g id="line2d_62">
      <g>
       <use xlink:href="#m84f93741ed" x="257.48882" y="16.596" style="stroke: #000000; stroke-width: 1.5"/>
      </g>
     </g>
    </g>
    <g id="xtick_29">
     <g id="line2d_63">
      <g>
       <use xlink:href="#m85024e8d45" x="266.134058" y="242.124" style="stroke: #000000; stroke-width: 1.5"/>
      </g>
     </g>
     <g id="line2d_64">
      <g>
       <use xlink:href="#m84f93741ed" x="266.134058" y="16.596" style="stroke: #000000; stroke-width: 1.5"/>
      </g>
     </g>
    </g>
    <g id="xtick_30">
     <g id="line2d_65">
      <g>
       <use xlink:href="#m85024e8d45" x="283.424533" y="242.124" style="stroke: #000000; stroke-width: 1.5"/>
      </g>
     </g>
     <g id="line2d_66">
      <g>
       <use xlink:href="#m84f93741ed" x="283.424533" y="16.596" style="stroke: #000000; stroke-width: 1.5"/>
      </g>
     </g>
    </g>
    <g id="xtick_31">
     <g id="line2d_67">
      <g>
       <use xlink:href="#m85024e8d45" x="292.069771" y="242.124" style="stroke: #000000; stroke-width: 1.5"/>
      </g>
     </g>
     <g id="line2d_68">
      <g>
       <use xlink:href="#m84f93741ed" x="292.069771" y="16.596" style="stroke: #000000; stroke-width: 1.5"/>
      </g>
     </g>
    </g>
    <g id="xtick_32">
     <g id="line2d_69">
      <g>
       <use xlink:href="#m85024e8d45" x="300.715008" y="242.124" style="stroke: #000000; stroke-width: 1.5"/>
      </g>
     </g>
     <g id="line2d_70">
      <g>
       <use xlink:href="#m84f93741ed" x="300.715008" y="16.596" style="stroke: #000000; stroke-width: 1.5"/>
      </g>
     </g>
    </g>
    <g id="xtick_33">
     <g id="line2d_71">
      <g>
       <use xlink:href="#m85024e8d45" x="309.360246" y="242.124" style="stroke: #000000; stroke-width: 1.5"/>
      </g>
     </g>
     <g id="line2d_72">
      <g>
       <use xlink:href="#m84f93741ed" x="309.360246" y="16.596" style="stroke: #000000; stroke-width: 1.5"/>
      </g>
     </g>
    </g>
    <g id="xtick_34">
     <g id="line2d_73">
      <g>
       <use xlink:href="#m85024e8d45" x="326.650721" y="242.124" style="stroke: #000000; stroke-width: 1.5"/>
      </g>
     </g>
     <g id="line2d_74">
      <g>
       <use xlink:href="#m84f93741ed" x="326.650721" y="16.596" style="stroke: #000000; stroke-width: 1.5"/>
      </g>
     </g>
    </g>
    <g id="xtick_35">
     <g id="line2d_75">
      <g>
       <use xlink:href="#m85024e8d45" x="335.295958" y="242.124" style="stroke: #000000; stroke-width: 1.5"/>
      </g>
     </g>
     <g id="line2d_76">
      <g>
       <use xlink:href="#m84f93741ed" x="335.295958" y="16.596" style="stroke: #000000; stroke-width: 1.5"/>
      </g>
     </g>
    </g>
    <g id="xtick_36">
     <g id="line2d_77">
      <g>
       <use xlink:href="#m85024e8d45" x="343.941196" y="242.124" style="stroke: #000000; stroke-width: 1.5"/>
      </g>
     </g>
     <g id="line2d_78">
      <g>
       <use xlink:href="#m84f93741ed" x="343.941196" y="16.596" style="stroke: #000000; stroke-width: 1.5"/>
      </g>
     </g>
    </g>
    <g id="xtick_37">
     <g id="line2d_79">
      <g>
       <use xlink:href="#m85024e8d45" x="352.586434" y="242.124" style="stroke: #000000; stroke-width: 1.5"/>
      </g>
     </g>
     <g id="line2d_80">
      <g>
       <use xlink:href="#m84f93741ed" x="352.586434" y="16.596" style="stroke: #000000; stroke-width: 1.5"/>
      </g>
     </g>
    </g>
    <g id="xtick_38">
     <g id="line2d_81">
      <g>
       <use xlink:href="#m85024e8d45" x="369.876909" y="242.124" style="stroke: #000000; stroke-width: 1.5"/>
      </g>
     </g>
     <g id="line2d_82">
      <g>
       <use xlink:href="#m84f93741ed" x="369.876909" y="16.596" style="stroke: #000000; stroke-width: 1.5"/>
      </g>
     </g>
    </g>
    <g id="xtick_39">
     <g id="line2d_83">
      <g>
       <use xlink:href="#m85024e8d45" x="378.522146" y="242.124" style="stroke: #000000; stroke-width: 1.5"/>
      </g>
     </g>
     <g id="line2d_84">
      <g>
       <use xlink:href="#m84f93741ed" x="378.522146" y="16.596" style="stroke: #000000; stroke-width: 1.5"/>
      </g>
     </g>
    </g>
    <g id="xtick_40">
     <g id="line2d_85">
      <g>
       <use xlink:href="#m85024e8d45" x="387.167384" y="242.124" style="stroke: #000000; stroke-width: 1.5"/>
      </g>
     </g>
     <g id="line2d_86">
      <g>
       <use xlink:href="#m84f93741ed" x="387.167384" y="16.596" style="stroke: #000000; stroke-width: 1.5"/>
      </g>
     </g>
    </g>
    <g id="xtick_41">
     <g id="line2d_87">
      <g>
       <use xlink:href="#m85024e8d45" x="395.812622" y="242.124" style="stroke: #000000; stroke-width: 1.5"/>
      </g>
     </g>
     <g id="line2d_88">
      <g>
       <use xlink:href="#m84f93741ed" x="395.812622" y="16.596" style="stroke: #000000; stroke-width: 1.5"/>
      </g>
     </g>
    </g>
    <g id="xtick_42">
     <g id="line2d_89">
      <g>
       <use xlink:href="#m85024e8d45" x="413.103097" y="242.124" style="stroke: #000000; stroke-width: 1.5"/>
      </g>
     </g>
     <g id="line2d_90">
      <g>
       <use xlink:href="#m84f93741ed" x="413.103097" y="16.596" style="stroke: #000000; stroke-width: 1.5"/>
      </g>
     </g>
    </g>
    <g id="text_13">
     <!-- Distance [R$_\odot$] -->
     <g transform="translate(194.796179 270.355875) scale(0.12 -0.12)">
      <defs>
       <path id="DejaVuSans-44" d="M 1259 4147 
L 1259 519 
L 2022 519 
Q 2988 519 3436 956 
Q 3884 1394 3884 2338 
Q 3884 3275 3436 3711 
Q 2988 4147 2022 4147 
L 1259 4147 
z
M 628 4666 
L 1925 4666 
Q 3281 4666 3915 4102 
Q 4550 3538 4550 2338 
Q 4550 1131 3912 565 
Q 3275 0 1925 0 
L 628 0 
L 628 4666 
z
" transform="scale(0.015625)"/>
       <path id="DejaVuSans-63" d="M 3122 3366 
L 3122 2828 
Q 2878 2963 2633 3030 
Q 2388 3097 2138 3097 
Q 1578 3097 1268 2742 
Q 959 2388 959 1747 
Q 959 1106 1268 751 
Q 1578 397 2138 397 
Q 2388 397 2633 464 
Q 2878 531 3122 666 
L 3122 134 
Q 2881 22 2623 -34 
Q 2366 -91 2075 -91 
Q 1284 -91 818 406 
Q 353 903 353 1747 
Q 353 2603 823 3093 
Q 1294 3584 2113 3584 
Q 2378 3584 2631 3529 
Q 2884 3475 3122 3366 
z
" transform="scale(0.015625)"/>
       <path id="DejaVuSans-65" d="M 3597 1894 
L 3597 1613 
L 953 1613 
Q 991 1019 1311 708 
Q 1631 397 2203 397 
Q 2534 397 2845 478 
Q 3156 559 3463 722 
L 3463 178 
Q 3153 47 2828 -22 
Q 2503 -91 2169 -91 
Q 1331 -91 842 396 
Q 353 884 353 1716 
Q 353 2575 817 3079 
Q 1281 3584 2069 3584 
Q 2775 3584 3186 3129 
Q 3597 2675 3597 1894 
z
M 3022 2063 
Q 3016 2534 2758 2815 
Q 2500 3097 2075 3097 
Q 1594 3097 1305 2825 
Q 1016 2553 972 2059 
L 3022 2063 
z
" transform="scale(0.015625)"/>
       <path id="DejaVuSans-5b" d="M 550 4863 
L 1875 4863 
L 1875 4416 
L 1125 4416 
L 1125 -397 
L 1875 -397 
L 1875 -844 
L 550 -844 
L 550 4863 
z
" transform="scale(0.015625)"/>
       <path id="DejaVuSans-52" d="M 2841 2188 
Q 3044 2119 3236 1894 
Q 3428 1669 3622 1275 
L 4263 0 
L 3584 0 
L 2988 1197 
Q 2756 1666 2539 1819 
Q 2322 1972 1947 1972 
L 1259 1972 
L 1259 0 
L 628 0 
L 628 4666 
L 2053 4666 
Q 2853 4666 3247 4331 
Q 3641 3997 3641 3322 
Q 3641 2881 3436 2590 
Q 3231 2300 2841 2188 
z
M 1259 4147 
L 1259 2491 
L 2053 2491 
Q 2509 2491 2742 2702 
Q 2975 2913 2975 3322 
Q 2975 3731 2742 3939 
Q 2509 4147 2053 4147 
L 1259 4147 
z
" transform="scale(0.015625)"/>
       <path id="DejaVuSans-2299" d="M 2350 2403 
L 3013 2403 
L 3013 1609 
L 2350 1609 
L 2350 2403 
z
M 3306 3522 
Q 3016 3644 2681 3644 
Q 2347 3644 2056 3522 
Q 1769 3400 1531 3163 
Q 1291 2922 1172 2634 
Q 1053 2347 1053 2006 
Q 1053 1675 1172 1387 
Q 1291 1100 1531 859 
Q 1769 622 2056 500 
Q 2347 378 2681 378 
Q 3016 378 3306 500 
Q 3594 622 3831 859 
Q 4072 1100 4190 1387 
Q 4309 1675 4309 2006 
Q 4309 2347 4190 2634 
Q 4072 2922 3831 3163 
Q 3594 3400 3306 3522 
z
M 1878 3956 
Q 2250 4113 2681 4113 
Q 3113 4113 3484 3956 
Q 3856 3800 4163 3494 
Q 4472 3184 4625 2813 
Q 4778 2444 4778 2006 
Q 4778 1578 4625 1206 
Q 4472 838 4163 528 
Q 3856 222 3484 65 
Q 3113 -91 2681 -91 
Q 2250 -91 1878 65 
Q 1506 222 1200 528 
Q 891 838 738 1206 
Q 584 1578 584 2006 
Q 584 2444 738 2813 
Q 891 3184 1200 3494 
Q 1506 3800 1878 3956 
z
" transform="scale(0.015625)"/>
       <path id="DejaVuSans-5d" d="M 1947 4863 
L 1947 -844 
L 622 -844 
L 622 -397 
L 1369 -397 
L 1369 4416 
L 622 4416 
L 622 4863 
L 1947 4863 
z
" transform="scale(0.015625)"/>
      </defs>
      <use xlink:href="#DejaVuSans-44" transform="translate(0 0.015625)"/>
      <use xlink:href="#DejaVuSans-69" transform="translate(77.001953 0.015625)"/>
      <use xlink:href="#DejaVuSans-73" transform="translate(104.785156 0.015625)"/>
      <use xlink:href="#DejaVuSans-74" transform="translate(156.884766 0.015625)"/>
      <use xlink:href="#DejaVuSans-61" transform="translate(196.09375 0.015625)"/>
      <use xlink:href="#DejaVuSans-6e" transform="translate(257.373047 0.015625)"/>
      <use xlink:href="#DejaVuSans-63" transform="translate(320.751953 0.015625)"/>
      <use xlink:href="#DejaVuSans-65" transform="translate(375.732422 0.015625)"/>
      <use xlink:href="#DejaVuSans-20" transform="translate(437.255859 0.015625)"/>
      <use xlink:href="#DejaVuSans-5b" transform="translate(469.042969 0.015625)"/>
      <use xlink:href="#DejaVuSans-52" transform="translate(504.931641 0.015625)"/>
      <use xlink:href="#DejaVuSans-2299" transform="translate(589.008789 -16.390625) scale(0.7)"/>
      <use xlink:href="#DejaVuSans-5d" transform="translate(664.033203 0.015625)"/>
     </g>
    </g>
   </g>
   <g id="matplotlib.axis_2">
    <g id="ytick_1">
     <g id="line2d_91">
      <defs>
       <path id="md88804f551" d="M 0 0 
L 3.5 0 
" style="stroke: #000000; stroke-width: 1.5"/>
      </defs>
      <g>
       <use xlink:href="#md88804f551" x="52.872357" y="242.124" style="stroke: #000000; stroke-width: 1.5"/>
      </g>
     </g>
     <g id="line2d_92">
      <defs>
       <path id="m7aa20b4020" d="M 0 0 
L -3.5 0 
" style="stroke: #000000; stroke-width: 1.5"/>
      </defs>
      <g>
       <use xlink:href="#m7aa20b4020" x="421.2" y="242.124" style="stroke: #000000; stroke-width: 1.5"/>
      </g>
     </g>
     <g id="text_14">
      <!-- $\mathdefault{10^{4}}$ -->
      <g transform="translate(28.252357 246.683062) scale(0.12 -0.12)">
       <use xlink:href="#DejaVuSans-31" transform="translate(0 0.684375)"/>
       <use xlink:href="#DejaVuSans-30" transform="translate(63.623047 0.684375)"/>
       <use xlink:href="#DejaVuSans-34" transform="translate(128.203125 38.965625) scale(0.7)"/>
      </g>
     </g>
    </g>
    <g id="ytick_2">
     <g id="line2d_93">
      <g>
       <use xlink:href="#md88804f551" x="52.872357" y="166.948" style="stroke: #000000; stroke-width: 1.5"/>
      </g>
     </g>
     <g id="line2d_94">
      <g>
       <use xlink:href="#m7aa20b4020" x="421.2" y="166.948" style="stroke: #000000; stroke-width: 1.5"/>
      </g>
     </g>
     <g id="text_15">
      <!-- $\mathdefault{10^{5}}$ -->
      <g transform="translate(28.252357 171.507062) scale(0.12 -0.12)">
       <use xlink:href="#DejaVuSans-31" transform="translate(0 0.684375)"/>
       <use xlink:href="#DejaVuSans-30" transform="translate(63.623047 0.684375)"/>
       <use xlink:href="#DejaVuSans-35" transform="translate(128.203125 38.965625) scale(0.7)"/>
      </g>
     </g>
    </g>
    <g id="ytick_3">
     <g id="line2d_95">
      <g>
       <use xlink:href="#md88804f551" x="52.872357" y="91.772" style="stroke: #000000; stroke-width: 1.5"/>
      </g>
     </g>
     <g id="line2d_96">
      <g>
       <use xlink:href="#m7aa20b4020" x="421.2" y="91.772" style="stroke: #000000; stroke-width: 1.5"/>
      </g>
     </g>
     <g id="text_16">
      <!-- $\mathdefault{10^{6}}$ -->
      <g transform="translate(28.252357 96.331063) scale(0.12 -0.12)">
       <defs>
        <path id="DejaVuSans-36" d="M 2113 2584 
Q 1688 2584 1439 2293 
Q 1191 2003 1191 1497 
Q 1191 994 1439 701 
Q 1688 409 2113 409 
Q 2538 409 2786 701 
Q 3034 994 3034 1497 
Q 3034 2003 2786 2293 
Q 2538 2584 2113 2584 
z
M 3366 4563 
L 3366 3988 
Q 3128 4100 2886 4159 
Q 2644 4219 2406 4219 
Q 1781 4219 1451 3797 
Q 1122 3375 1075 2522 
Q 1259 2794 1537 2939 
Q 1816 3084 2150 3084 
Q 2853 3084 3261 2657 
Q 3669 2231 3669 1497 
Q 3669 778 3244 343 
Q 2819 -91 2113 -91 
Q 1303 -91 875 529 
Q 447 1150 447 2328 
Q 447 3434 972 4092 
Q 1497 4750 2381 4750 
Q 2619 4750 2861 4703 
Q 3103 4656 3366 4563 
z
" transform="scale(0.015625)"/>
       </defs>
       <use xlink:href="#DejaVuSans-31" transform="translate(0 0.765625)"/>
       <use xlink:href="#DejaVuSans-30" transform="translate(63.623047 0.765625)"/>
       <use xlink:href="#DejaVuSans-36" transform="translate(128.203125 39.046875) scale(0.7)"/>
      </g>
     </g>
    </g>
    <g id="ytick_4">
     <g id="line2d_97">
      <g>
       <use xlink:href="#md88804f551" x="52.872357" y="16.596" style="stroke: #000000; stroke-width: 1.5"/>
      </g>
     </g>
     <g id="line2d_98">
      <g>
       <use xlink:href="#m7aa20b4020" x="421.2" y="16.596" style="stroke: #000000; stroke-width: 1.5"/>
      </g>
     </g>
     <g id="text_17">
      <!-- $\mathdefault{10^{7}}$ -->
      <g transform="translate(28.252357 21.155062) scale(0.12 -0.12)">
       <defs>
        <path id="DejaVuSans-37" d="M 525 4666 
L 3525 4666 
L 3525 4397 
L 1831 0 
L 1172 0 
L 2766 4134 
L 525 4134 
L 525 4666 
z
" transform="scale(0.015625)"/>
       </defs>
       <use xlink:href="#DejaVuSans-31" transform="translate(0 0.684375)"/>
       <use xlink:href="#DejaVuSans-30" transform="translate(63.623047 0.684375)"/>
       <use xlink:href="#DejaVuSans-37" transform="translate(128.203125 38.965625) scale(0.7)"/>
      </g>
     </g>
    </g>
    <g id="ytick_5">
     <g id="line2d_99">
      <defs>
       <path id="mfd425c386c" d="M 0 0 
L 2 0 
" style="stroke: #000000; stroke-width: 1.5"/>
      </defs>
      <g>
       <use xlink:href="#mfd425c386c" x="52.872357" y="219.493769" style="stroke: #000000; stroke-width: 1.5"/>
      </g>
     </g>
     <g id="line2d_100">
      <defs>
       <path id="m66294bfa87" d="M 0 0 
L -2 0 
" style="stroke: #000000; stroke-width: 1.5"/>
      </defs>
      <g>
       <use xlink:href="#m66294bfa87" x="421.2" y="219.493769" style="stroke: #000000; stroke-width: 1.5"/>
      </g>
     </g>
    </g>
    <g id="ytick_6">
     <g id="line2d_101">
      <g>
       <use xlink:href="#mfd425c386c" x="52.872357" y="206.255933" style="stroke: #000000; stroke-width: 1.5"/>
      </g>
     </g>
     <g id="line2d_102">
      <g>
       <use xlink:href="#m66294bfa87" x="421.2" y="206.255933" style="stroke: #000000; stroke-width: 1.5"/>
      </g>
     </g>
    </g>
    <g id="ytick_7">
     <g id="line2d_103">
      <g>
       <use xlink:href="#mfd425c386c" x="52.872357" y="196.863538" style="stroke: #000000; stroke-width: 1.5"/>
      </g>
     </g>
     <g id="line2d_104">
      <g>
       <use xlink:href="#m66294bfa87" x="421.2" y="196.863538" style="stroke: #000000; stroke-width: 1.5"/>
      </g>
     </g>
    </g>
    <g id="ytick_8">
     <g id="line2d_105">
      <g>
       <use xlink:href="#mfd425c386c" x="52.872357" y="189.578231" style="stroke: #000000; stroke-width: 1.5"/>
      </g>
     </g>
     <g id="line2d_106">
      <g>
       <use xlink:href="#m66294bfa87" x="421.2" y="189.578231" style="stroke: #000000; stroke-width: 1.5"/>
      </g>
     </g>
    </g>
    <g id="ytick_9">
     <g id="line2d_107">
      <g>
       <use xlink:href="#mfd425c386c" x="52.872357" y="183.625702" style="stroke: #000000; stroke-width: 1.5"/>
      </g>
     </g>
     <g id="line2d_108">
      <g>
       <use xlink:href="#m66294bfa87" x="421.2" y="183.625702" style="stroke: #000000; stroke-width: 1.5"/>
      </g>
     </g>
    </g>
    <g id="ytick_10">
     <g id="line2d_109">
      <g>
       <use xlink:href="#mfd425c386c" x="52.872357" y="178.59291" style="stroke: #000000; stroke-width: 1.5"/>
      </g>
     </g>
     <g id="line2d_110">
      <g>
       <use xlink:href="#m66294bfa87" x="421.2" y="178.59291" style="stroke: #000000; stroke-width: 1.5"/>
      </g>
     </g>
    </g>
    <g id="ytick_11">
     <g id="line2d_111">
      <g>
       <use xlink:href="#mfd425c386c" x="52.872357" y="174.233307" style="stroke: #000000; stroke-width: 1.5"/>
      </g>
     </g>
     <g id="line2d_112">
      <g>
       <use xlink:href="#m66294bfa87" x="421.2" y="174.233307" style="stroke: #000000; stroke-width: 1.5"/>
      </g>
     </g>
    </g>
    <g id="ytick_12">
     <g id="line2d_113">
      <g>
       <use xlink:href="#mfd425c386c" x="52.872357" y="170.387865" style="stroke: #000000; stroke-width: 1.5"/>
      </g>
     </g>
     <g id="line2d_114">
      <g>
       <use xlink:href="#m66294bfa87" x="421.2" y="170.387865" style="stroke: #000000; stroke-width: 1.5"/>
      </g>
     </g>
    </g>
    <g id="ytick_13">
     <g id="line2d_115">
      <g>
       <use xlink:href="#mfd425c386c" x="52.872357" y="144.317769" style="stroke: #000000; stroke-width: 1.5"/>
      </g>
     </g>
     <g id="line2d_116">
      <g>
       <use xlink:href="#m66294bfa87" x="421.2" y="144.317769" style="stroke: #000000; stroke-width: 1.5"/>
      </g>
     </g>
    </g>
    <g id="ytick_14">
     <g id="line2d_117">
      <g>
       <use xlink:href="#mfd425c386c" x="52.872357" y="131.079933" style="stroke: #000000; stroke-width: 1.5"/>
      </g>
     </g>
     <g id="line2d_118">
      <g>
       <use xlink:href="#m66294bfa87" x="421.2" y="131.079933" style="stroke: #000000; stroke-width: 1.5"/>
      </g>
     </g>
    </g>
    <g id="ytick_15">
     <g id="line2d_119">
      <g>
       <use xlink:href="#mfd425c386c" x="52.872357" y="121.687538" style="stroke: #000000; stroke-width: 1.5"/>
      </g>
     </g>
     <g id="line2d_120">
      <g>
       <use xlink:href="#m66294bfa87" x="421.2" y="121.687538" style="stroke: #000000; stroke-width: 1.5"/>
      </g>
     </g>
    </g>
    <g id="ytick_16">
     <g id="line2d_121">
      <g>
       <use xlink:href="#mfd425c386c" x="52.872357" y="114.402231" style="stroke: #000000; stroke-width: 1.5"/>
      </g>
     </g>
     <g id="line2d_122">
      <g>
       <use xlink:href="#m66294bfa87" x="421.2" y="114.402231" style="stroke: #000000; stroke-width: 1.5"/>
      </g>
     </g>
    </g>
    <g id="ytick_17">
     <g id="line2d_123">
      <g>
       <use xlink:href="#mfd425c386c" x="52.872357" y="108.449702" style="stroke: #000000; stroke-width: 1.5"/>
      </g>
     </g>
     <g id="line2d_124">
      <g>
       <use xlink:href="#m66294bfa87" x="421.2" y="108.449702" style="stroke: #000000; stroke-width: 1.5"/>
      </g>
     </g>
    </g>
    <g id="ytick_18">
     <g id="line2d_125">
      <g>
       <use xlink:href="#mfd425c386c" x="52.872357" y="103.41691" style="stroke: #000000; stroke-width: 1.5"/>
      </g>
     </g>
     <g id="line2d_126">
      <g>
       <use xlink:href="#m66294bfa87" x="421.2" y="103.41691" style="stroke: #000000; stroke-width: 1.5"/>
      </g>
     </g>
    </g>
    <g id="ytick_19">
     <g id="line2d_127">
      <g>
       <use xlink:href="#mfd425c386c" x="52.872357" y="99.057307" style="stroke: #000000; stroke-width: 1.5"/>
      </g>
     </g>
     <g id="line2d_128">
      <g>
       <use xlink:href="#m66294bfa87" x="421.2" y="99.057307" style="stroke: #000000; stroke-width: 1.5"/>
      </g>
     </g>
    </g>
    <g id="ytick_20">
     <g id="line2d_129">
      <g>
       <use xlink:href="#mfd425c386c" x="52.872357" y="95.211865" style="stroke: #000000; stroke-width: 1.5"/>
      </g>
     </g>
     <g id="line2d_130">
      <g>
       <use xlink:href="#m66294bfa87" x="421.2" y="95.211865" style="stroke: #000000; stroke-width: 1.5"/>
      </g>
     </g>
    </g>
    <g id="ytick_21">
     <g id="line2d_131">
      <g>
       <use xlink:href="#mfd425c386c" x="52.872357" y="69.141769" style="stroke: #000000; stroke-width: 1.5"/>
      </g>
     </g>
     <g id="line2d_132">
      <g>
       <use xlink:href="#m66294bfa87" x="421.2" y="69.141769" style="stroke: #000000; stroke-width: 1.5"/>
      </g>
     </g>
    </g>
    <g id="ytick_22">
     <g id="line2d_133">
      <g>
       <use xlink:href="#mfd425c386c" x="52.872357" y="55.903933" style="stroke: #000000; stroke-width: 1.5"/>
      </g>
     </g>
     <g id="line2d_134">
      <g>
       <use xlink:href="#m66294bfa87" x="421.2" y="55.903933" style="stroke: #000000; stroke-width: 1.5"/>
      </g>
     </g>
    </g>
    <g id="ytick_23">
     <g id="line2d_135">
      <g>
       <use xlink:href="#mfd425c386c" x="52.872357" y="46.511538" style="stroke: #000000; stroke-width: 1.5"/>
      </g>
     </g>
     <g id="line2d_136">
      <g>
       <use xlink:href="#m66294bfa87" x="421.2" y="46.511538" style="stroke: #000000; stroke-width: 1.5"/>
      </g>
     </g>
    </g>
    <g id="ytick_24">
     <g id="line2d_137">
      <g>
       <use xlink:href="#mfd425c386c" x="52.872357" y="39.226231" style="stroke: #000000; stroke-width: 1.5"/>
      </g>
     </g>
     <g id="line2d_138">
      <g>
       <use xlink:href="#m66294bfa87" x="421.2" y="39.226231" style="stroke: #000000; stroke-width: 1.5"/>
      </g>
     </g>
    </g>
    <g id="ytick_25">
     <g id="line2d_139">
      <g>
       <use xlink:href="#mfd425c386c" x="52.872357" y="33.273702" style="stroke: #000000; stroke-width: 1.5"/>
      </g>
     </g>
     <g id="line2d_140">
      <g>
       <use xlink:href="#m66294bfa87" x="421.2" y="33.273702" style="stroke: #000000; stroke-width: 1.5"/>
      </g>
     </g>
    </g>
    <g id="ytick_26">
     <g id="line2d_141">
      <g>
       <use xlink:href="#mfd425c386c" x="52.872357" y="28.24091" style="stroke: #000000; stroke-width: 1.5"/>
      </g>
     </g>
     <g id="line2d_142">
      <g>
       <use xlink:href="#m66294bfa87" x="421.2" y="28.24091" style="stroke: #000000; stroke-width: 1.5"/>
      </g>
     </g>
    </g>
    <g id="ytick_27">
     <g id="line2d_143">
      <g>
       <use xlink:href="#mfd425c386c" x="52.872357" y="23.881307" style="stroke: #000000; stroke-width: 1.5"/>
      </g>
     </g>
     <g id="line2d_144">
      <g>
       <use xlink:href="#m66294bfa87" x="421.2" y="23.881307" style="stroke: #000000; stroke-width: 1.5"/>
      </g>
     </g>
    </g>
    <g id="ytick_28">
     <g id="line2d_145">
      <g>
       <use xlink:href="#mfd425c386c" x="52.872357" y="20.035865" style="stroke: #000000; stroke-width: 1.5"/>
      </g>
     </g>
     <g id="line2d_146">
      <g>
       <use xlink:href="#m66294bfa87" x="421.2" y="20.035865" style="stroke: #000000; stroke-width: 1.5"/>
      </g>
     </g>
    </g>
    <g id="text_18">
     <!-- T [K] -->
     <g transform="translate(21.756732 143.548125) rotate(-90) scale(0.12 -0.12)">
      <defs>
       <path id="DejaVuSans-54" d="M -19 4666 
L 3928 4666 
L 3928 4134 
L 2272 4134 
L 2272 0 
L 1638 0 
L 1638 4134 
L -19 4134 
L -19 4666 
z
" transform="scale(0.015625)"/>
       <path id="DejaVuSans-4b" d="M 628 4666 
L 1259 4666 
L 1259 2694 
L 3353 4666 
L 4166 4666 
L 1850 2491 
L 4331 0 
L 3500 0 
L 1259 2247 
L 1259 0 
L 628 0 
L 628 4666 
z
" transform="scale(0.015625)"/>
      </defs>
      <use xlink:href="#DejaVuSans-54"/>
      <use xlink:href="#DejaVuSans-20" x="61.083984"/>
      <use xlink:href="#DejaVuSans-5b" x="92.871094"/>
      <use xlink:href="#DejaVuSans-4b" x="131.884766"/>
      <use xlink:href="#DejaVuSans-5d" x="197.460938"/>
     </g>
    </g>
   </g>
  </g>
 </g>
 <defs>
  <clipPath id="p03ce0f6d6e">
   <rect x="52.872357" y="16.596" width="368.327643" height="225.528"/>
  </clipPath>
 </defs>
</svg>
