<?xml version="1.0" encoding="utf-8" standalone="no"?>
<!DOCTYPE svg PUBLIC "-//W3C//DTD SVG 1.1//EN"
  "http://www.w3.org/Graphics/SVG/1.1/DTD/svg11.dtd">
<svg xmlns:xlink="http://www.w3.org/1999/xlink" width="432pt" height="288pt" viewBox="0 0 432 288" xmlns="http://www.w3.org/2000/svg" version="1.1">
 <metadata>
  <rdf:RDF xmlns:dc="http://purl.org/dc/elements/1.1/" xmlns:cc="http://creativecommons.org/ns#" xmlns:rdf="http://www.w3.org/1999/02/22-rdf-syntax-ns#">
   <cc:Work>
    <dc:type rdf:resource="http://purl.org/dc/dcmitype/StillImage"/>
    <dc:date>2022-11-07T20:37:44.991585</dc:date>
    <dc:format>image/svg+xml</dc:format>
    <dc:creator>
     <cc:Agent>
      <dc:title>Matplotlib v3.6.1, https://matplotlib.org/</dc:title>
     </cc:Agent>
    </dc:creator>
   </cc:Work>
  </rdf:RDF>
 </metadata>
 <defs>
  <style type="text/css">*{stroke-linejoin: round; stroke-linecap: butt}</style>
 </defs>
 <g id="figure_1">
  <g id="patch_1">
   <path d="M 0 288 
L 432 288 
L 432 0 
L 0 0 
z
" style="fill: #ffffff"/>
  </g>
  <g id="axes_1">
   <g id="patch_2">
    <path d="M 52.872357 242.124 
L 417.760168 242.124 
L 417.760168 16.596 
L 52.872357 16.596 
z
" style="fill: #ffffff"/>
   </g>
   <g id="matplotlib.axis_1">
    <g id="xtick_1">
     <g id="line2d_1">
      <defs>
       <path id="m29e9b37210" d="M 0 0 
L 0 -3.5 
" style="stroke: #000000; stroke-width: 1.5"/>
      </defs>
      <g>
       <use xlink:href="#m29e9b37210" x="62.032644" y="242.124" style="stroke: #000000; stroke-width: 1.5"/>
      </g>
     </g>
     <g id="line2d_2">
      <defs>
       <path id="mddfcb2fabe" d="M 0 0 
L 0 3.5 
" style="stroke: #000000; stroke-width: 1.5"/>
      </defs>
      <g>
       <use xlink:href="#mddfcb2fabe" x="62.032644" y="16.596" style="stroke: #000000; stroke-width: 1.5"/>
      </g>
     </g>
     <g id="text_1">
      <!-- 0 -->
      <g transform="translate(58.215144 254.742125) scale(0.12 -0.12)">
       <defs>
        <path id="DejaVuSans-30" d="M 2034 4250 
Q 1547 4250 1301 3770 
Q 1056 3291 1056 2328 
Q 1056 1369 1301 889 
Q 1547 409 2034 409 
Q 2525 409 2770 889 
Q 3016 1369 3016 2328 
Q 3016 3291 2770 3770 
Q 2525 4250 2034 4250 
z
M 2034 4750 
Q 2819 4750 3233 4129 
Q 3647 3509 3647 2328 
Q 3647 1150 3233 529 
Q 2819 -91 2034 -91 
Q 1250 -91 836 529 
Q 422 1150 422 2328 
Q 422 3509 836 4129 
Q 1250 4750 2034 4750 
z
" transform="scale(0.015625)"/>
       </defs>
       <use xlink:href="#DejaVuSans-30"/>
      </g>
     </g>
    </g>
    <g id="xtick_2">
     <g id="line2d_3">
      <g>
       <use xlink:href="#m29e9b37210" x="120.572158" y="242.124" style="stroke: #000000; stroke-width: 1.5"/>
      </g>
     </g>
     <g id="line2d_4">
      <g>
       <use xlink:href="#mddfcb2fabe" x="120.572158" y="16.596" style="stroke: #000000; stroke-width: 1.5"/>
      </g>
     </g>
     <g id="text_2">
      <!-- 10 -->
      <g transform="translate(112.937158 254.742125) scale(0.12 -0.12)">
       <defs>
        <path id="DejaVuSans-31" d="M 794 531 
L 1825 531 
L 1825 4091 
L 703 3866 
L 703 4441 
L 1819 4666 
L 2450 4666 
L 2450 531 
L 3481 531 
L 3481 0 
L 794 0 
L 794 531 
z
" transform="scale(0.015625)"/>
       </defs>
       <use xlink:href="#DejaVuSans-31"/>
       <use xlink:href="#DejaVuSans-30" x="63.623047"/>
      </g>
     </g>
    </g>
    <g id="xtick_3">
     <g id="line2d_5">
      <g>
       <use xlink:href="#m29e9b37210" x="179.111672" y="242.124" style="stroke: #000000; stroke-width: 1.5"/>
      </g>
     </g>
     <g id="line2d_6">
      <g>
       <use xlink:href="#mddfcb2fabe" x="179.111672" y="16.596" style="stroke: #000000; stroke-width: 1.5"/>
      </g>
     </g>
     <g id="text_3">
      <!-- 20 -->
      <g transform="translate(171.476672 254.742125) scale(0.12 -0.12)">
       <defs>
        <path id="DejaVuSans-32" d="M 1228 531 
L 3431 531 
L 3431 0 
L 469 0 
L 469 531 
Q 828 903 1448 1529 
Q 2069 2156 2228 2338 
Q 2531 2678 2651 2914 
Q 2772 3150 2772 3378 
Q 2772 3750 2511 3984 
Q 2250 4219 1831 4219 
Q 1534 4219 1204 4116 
Q 875 4013 500 3803 
L 500 4441 
Q 881 4594 1212 4672 
Q 1544 4750 1819 4750 
Q 2544 4750 2975 4387 
Q 3406 4025 3406 3419 
Q 3406 3131 3298 2873 
Q 3191 2616 2906 2266 
Q 2828 2175 2409 1742 
Q 1991 1309 1228 531 
z
" transform="scale(0.015625)"/>
       </defs>
       <use xlink:href="#DejaVuSans-32"/>
       <use xlink:href="#DejaVuSans-30" x="63.623047"/>
      </g>
     </g>
    </g>
    <g id="xtick_4">
     <g id="line2d_7">
      <g>
       <use xlink:href="#m29e9b37210" x="237.651186" y="242.124" style="stroke: #000000; stroke-width: 1.5"/>
      </g>
     </g>
     <g id="line2d_8">
      <g>
       <use xlink:href="#mddfcb2fabe" x="237.651186" y="16.596" style="stroke: #000000; stroke-width: 1.5"/>
      </g>
     </g>
     <g id="text_4">
      <!-- 30 -->
      <g transform="translate(230.016186 254.742125) scale(0.12 -0.12)">
       <defs>
        <path id="DejaVuSans-33" d="M 2597 2516 
Q 3050 2419 3304 2112 
Q 3559 1806 3559 1356 
Q 3559 666 3084 287 
Q 2609 -91 1734 -91 
Q 1441 -91 1130 -33 
Q 819 25 488 141 
L 488 750 
Q 750 597 1062 519 
Q 1375 441 1716 441 
Q 2309 441 2620 675 
Q 2931 909 2931 1356 
Q 2931 1769 2642 2001 
Q 2353 2234 1838 2234 
L 1294 2234 
L 1294 2753 
L 1863 2753 
Q 2328 2753 2575 2939 
Q 2822 3125 2822 3475 
Q 2822 3834 2567 4026 
Q 2313 4219 1838 4219 
Q 1578 4219 1281 4162 
Q 984 4106 628 3988 
L 628 4550 
Q 988 4650 1302 4700 
Q 1616 4750 1894 4750 
Q 2613 4750 3031 4423 
Q 3450 4097 3450 3541 
Q 3450 3153 3228 2886 
Q 3006 2619 2597 2516 
z
" transform="scale(0.015625)"/>
       </defs>
       <use xlink:href="#DejaVuSans-33"/>
       <use xlink:href="#DejaVuSans-30" x="63.623047"/>
      </g>
     </g>
    </g>
    <g id="xtick_5">
     <g id="line2d_9">
      <g>
       <use xlink:href="#m29e9b37210" x="296.1907" y="242.124" style="stroke: #000000; stroke-width: 1.5"/>
      </g>
     </g>
     <g id="line2d_10">
      <g>
       <use xlink:href="#mddfcb2fabe" x="296.1907" y="16.596" style="stroke: #000000; stroke-width: 1.5"/>
      </g>
     </g>
     <g id="text_5">
      <!-- 40 -->
      <g transform="translate(288.5557 254.742125) scale(0.12 -0.12)">
       <defs>
        <path id="DejaVuSans-34" d="M 2419 4116 
L 825 1625 
L 2419 1625 
L 2419 4116 
z
M 2253 4666 
L 3047 4666 
L 3047 1625 
L 3713 1625 
L 3713 1100 
L 3047 1100 
L 3047 0 
L 2419 0 
L 2419 1100 
L 313 1100 
L 313 1709 
L 2253 4666 
z
" transform="scale(0.015625)"/>
       </defs>
       <use xlink:href="#DejaVuSans-34"/>
       <use xlink:href="#DejaVuSans-30" x="63.623047"/>
      </g>
     </g>
    </g>
    <g id="xtick_6">
     <g id="line2d_11">
      <g>
       <use xlink:href="#m29e9b37210" x="354.730215" y="242.124" style="stroke: #000000; stroke-width: 1.5"/>
      </g>
     </g>
     <g id="line2d_12">
      <g>
       <use xlink:href="#mddfcb2fabe" x="354.730215" y="16.596" style="stroke: #000000; stroke-width: 1.5"/>
      </g>
     </g>
     <g id="text_6">
      <!-- 50 -->
      <g transform="translate(347.095215 254.742125) scale(0.12 -0.12)">
       <defs>
        <path id="DejaVuSans-35" d="M 691 4666 
L 3169 4666 
L 3169 4134 
L 1269 4134 
L 1269 2991 
Q 1406 3038 1543 3061 
Q 1681 3084 1819 3084 
Q 2600 3084 3056 2656 
Q 3513 2228 3513 1497 
Q 3513 744 3044 326 
Q 2575 -91 1722 -91 
Q 1428 -91 1123 -41 
Q 819 9 494 109 
L 494 744 
Q 775 591 1075 516 
Q 1375 441 1709 441 
Q 2250 441 2565 725 
Q 2881 1009 2881 1497 
Q 2881 1984 2565 2268 
Q 2250 2553 1709 2553 
Q 1456 2553 1204 2497 
Q 953 2441 691 2322 
L 691 4666 
z
" transform="scale(0.015625)"/>
       </defs>
       <use xlink:href="#DejaVuSans-35"/>
       <use xlink:href="#DejaVuSans-30" x="63.623047"/>
      </g>
     </g>
    </g>
    <g id="xtick_7">
     <g id="line2d_13">
      <g>
       <use xlink:href="#m29e9b37210" x="413.269729" y="242.124" style="stroke: #000000; stroke-width: 1.5"/>
      </g>
     </g>
     <g id="line2d_14">
      <g>
       <use xlink:href="#mddfcb2fabe" x="413.269729" y="16.596" style="stroke: #000000; stroke-width: 1.5"/>
      </g>
     </g>
     <g id="text_7">
      <!-- 60 -->
      <g transform="translate(405.634729 254.742125) scale(0.12 -0.12)">
       <defs>
        <path id="DejaVuSans-36" d="M 2113 2584 
Q 1688 2584 1439 2293 
Q 1191 2003 1191 1497 
Q 1191 994 1439 701 
Q 1688 409 2113 409 
Q 2538 409 2786 701 
Q 3034 994 3034 1497 
Q 3034 2003 2786 2293 
Q 2538 2584 2113 2584 
z
M 3366 4563 
L 3366 3988 
Q 3128 4100 2886 4159 
Q 2644 4219 2406 4219 
Q 1781 4219 1451 3797 
Q 1122 3375 1075 2522 
Q 1259 2794 1537 2939 
Q 1816 3084 2150 3084 
Q 2853 3084 3261 2657 
Q 3669 2231 3669 1497 
Q 3669 778 3244 343 
Q 2819 -91 2113 -91 
Q 1303 -91 875 529 
Q 447 1150 447 2328 
Q 447 3434 972 4092 
Q 1497 4750 2381 4750 
Q 2619 4750 2861 4703 
Q 3103 4656 3366 4563 
z
" transform="scale(0.015625)"/>
       </defs>
       <use xlink:href="#DejaVuSans-36"/>
       <use xlink:href="#DejaVuSans-30" x="63.623047"/>
      </g>
     </g>
    </g>
    <g id="xtick_8">
     <g id="line2d_15">
      <defs>
       <path id="m3c8b3b750c" d="M 0 0 
L 0 -2 
" style="stroke: #000000; stroke-width: 1.5"/>
      </defs>
      <g>
       <use xlink:href="#m3c8b3b750c" x="73.740547" y="242.124" style="stroke: #000000; stroke-width: 1.5"/>
      </g>
     </g>
     <g id="line2d_16">
      <defs>
       <path id="m8b5b710491" d="M 0 0 
L 0 2 
" style="stroke: #000000; stroke-width: 1.5"/>
      </defs>
      <g>
       <use xlink:href="#m8b5b710491" x="73.740547" y="16.596" style="stroke: #000000; stroke-width: 1.5"/>
      </g>
     </g>
    </g>
    <g id="xtick_9">
     <g id="line2d_17">
      <g>
       <use xlink:href="#m3c8b3b750c" x="85.448449" y="242.124" style="stroke: #000000; stroke-width: 1.5"/>
      </g>
     </g>
     <g id="line2d_18">
      <g>
       <use xlink:href="#m8b5b710491" x="85.448449" y="16.596" style="stroke: #000000; stroke-width: 1.5"/>
      </g>
     </g>
    </g>
    <g id="xtick_10">
     <g id="line2d_19">
      <g>
       <use xlink:href="#m3c8b3b750c" x="97.156352" y="242.124" style="stroke: #000000; stroke-width: 1.5"/>
      </g>
     </g>
     <g id="line2d_20">
      <g>
       <use xlink:href="#m8b5b710491" x="97.156352" y="16.596" style="stroke: #000000; stroke-width: 1.5"/>
      </g>
     </g>
    </g>
    <g id="xtick_11">
     <g id="line2d_21">
      <g>
       <use xlink:href="#m3c8b3b750c" x="108.864255" y="242.124" style="stroke: #000000; stroke-width: 1.5"/>
      </g>
     </g>
     <g id="line2d_22">
      <g>
       <use xlink:href="#m8b5b710491" x="108.864255" y="16.596" style="stroke: #000000; stroke-width: 1.5"/>
      </g>
     </g>
    </g>
    <g id="xtick_12">
     <g id="line2d_23">
      <g>
       <use xlink:href="#m3c8b3b750c" x="132.280061" y="242.124" style="stroke: #000000; stroke-width: 1.5"/>
      </g>
     </g>
     <g id="line2d_24">
      <g>
       <use xlink:href="#m8b5b710491" x="132.280061" y="16.596" style="stroke: #000000; stroke-width: 1.5"/>
      </g>
     </g>
    </g>
    <g id="xtick_13">
     <g id="line2d_25">
      <g>
       <use xlink:href="#m3c8b3b750c" x="143.987964" y="242.124" style="stroke: #000000; stroke-width: 1.5"/>
      </g>
     </g>
     <g id="line2d_26">
      <g>
       <use xlink:href="#m8b5b710491" x="143.987964" y="16.596" style="stroke: #000000; stroke-width: 1.5"/>
      </g>
     </g>
    </g>
    <g id="xtick_14">
     <g id="line2d_27">
      <g>
       <use xlink:href="#m3c8b3b750c" x="155.695866" y="242.124" style="stroke: #000000; stroke-width: 1.5"/>
      </g>
     </g>
     <g id="line2d_28">
      <g>
       <use xlink:href="#m8b5b710491" x="155.695866" y="16.596" style="stroke: #000000; stroke-width: 1.5"/>
      </g>
     </g>
    </g>
    <g id="xtick_15">
     <g id="line2d_29">
      <g>
       <use xlink:href="#m3c8b3b750c" x="167.403769" y="242.124" style="stroke: #000000; stroke-width: 1.5"/>
      </g>
     </g>
     <g id="line2d_30">
      <g>
       <use xlink:href="#m8b5b710491" x="167.403769" y="16.596" style="stroke: #000000; stroke-width: 1.5"/>
      </g>
     </g>
    </g>
    <g id="xtick_16">
     <g id="line2d_31">
      <g>
       <use xlink:href="#m3c8b3b750c" x="190.819575" y="242.124" style="stroke: #000000; stroke-width: 1.5"/>
      </g>
     </g>
     <g id="line2d_32">
      <g>
       <use xlink:href="#m8b5b710491" x="190.819575" y="16.596" style="stroke: #000000; stroke-width: 1.5"/>
      </g>
     </g>
    </g>
    <g id="xtick_17">
     <g id="line2d_33">
      <g>
       <use xlink:href="#m3c8b3b750c" x="202.527478" y="242.124" style="stroke: #000000; stroke-width: 1.5"/>
      </g>
     </g>
     <g id="line2d_34">
      <g>
       <use xlink:href="#m8b5b710491" x="202.527478" y="16.596" style="stroke: #000000; stroke-width: 1.5"/>
      </g>
     </g>
    </g>
    <g id="xtick_18">
     <g id="line2d_35">
      <g>
       <use xlink:href="#m3c8b3b750c" x="214.235381" y="242.124" style="stroke: #000000; stroke-width: 1.5"/>
      </g>
     </g>
     <g id="line2d_36">
      <g>
       <use xlink:href="#m8b5b710491" x="214.235381" y="16.596" style="stroke: #000000; stroke-width: 1.5"/>
      </g>
     </g>
    </g>
    <g id="xtick_19">
     <g id="line2d_37">
      <g>
       <use xlink:href="#m3c8b3b750c" x="225.943283" y="242.124" style="stroke: #000000; stroke-width: 1.5"/>
      </g>
     </g>
     <g id="line2d_38">
      <g>
       <use xlink:href="#m8b5b710491" x="225.943283" y="16.596" style="stroke: #000000; stroke-width: 1.5"/>
      </g>
     </g>
    </g>
    <g id="xtick_20">
     <g id="line2d_39">
      <g>
       <use xlink:href="#m3c8b3b750c" x="249.359089" y="242.124" style="stroke: #000000; stroke-width: 1.5"/>
      </g>
     </g>
     <g id="line2d_40">
      <g>
       <use xlink:href="#m8b5b710491" x="249.359089" y="16.596" style="stroke: #000000; stroke-width: 1.5"/>
      </g>
     </g>
    </g>
    <g id="xtick_21">
     <g id="line2d_41">
      <g>
       <use xlink:href="#m3c8b3b750c" x="261.066992" y="242.124" style="stroke: #000000; stroke-width: 1.5"/>
      </g>
     </g>
     <g id="line2d_42">
      <g>
       <use xlink:href="#m8b5b710491" x="261.066992" y="16.596" style="stroke: #000000; stroke-width: 1.5"/>
      </g>
     </g>
    </g>
    <g id="xtick_22">
     <g id="line2d_43">
      <g>
       <use xlink:href="#m3c8b3b750c" x="272.774895" y="242.124" style="stroke: #000000; stroke-width: 1.5"/>
      </g>
     </g>
     <g id="line2d_44">
      <g>
       <use xlink:href="#m8b5b710491" x="272.774895" y="16.596" style="stroke: #000000; stroke-width: 1.5"/>
      </g>
     </g>
    </g>
    <g id="xtick_23">
     <g id="line2d_45">
      <g>
       <use xlink:href="#m3c8b3b750c" x="284.482798" y="242.124" style="stroke: #000000; stroke-width: 1.5"/>
      </g>
     </g>
     <g id="line2d_46">
      <g>
       <use xlink:href="#m8b5b710491" x="284.482798" y="16.596" style="stroke: #000000; stroke-width: 1.5"/>
      </g>
     </g>
    </g>
    <g id="xtick_24">
     <g id="line2d_47">
      <g>
       <use xlink:href="#m3c8b3b750c" x="307.898603" y="242.124" style="stroke: #000000; stroke-width: 1.5"/>
      </g>
     </g>
     <g id="line2d_48">
      <g>
       <use xlink:href="#m8b5b710491" x="307.898603" y="16.596" style="stroke: #000000; stroke-width: 1.5"/>
      </g>
     </g>
    </g>
    <g id="xtick_25">
     <g id="line2d_49">
      <g>
       <use xlink:href="#m3c8b3b750c" x="319.606506" y="242.124" style="stroke: #000000; stroke-width: 1.5"/>
      </g>
     </g>
     <g id="line2d_50">
      <g>
       <use xlink:href="#m8b5b710491" x="319.606506" y="16.596" style="stroke: #000000; stroke-width: 1.5"/>
      </g>
     </g>
    </g>
    <g id="xtick_26">
     <g id="line2d_51">
      <g>
       <use xlink:href="#m3c8b3b750c" x="331.314409" y="242.124" style="stroke: #000000; stroke-width: 1.5"/>
      </g>
     </g>
     <g id="line2d_52">
      <g>
       <use xlink:href="#m8b5b710491" x="331.314409" y="16.596" style="stroke: #000000; stroke-width: 1.5"/>
      </g>
     </g>
    </g>
    <g id="xtick_27">
     <g id="line2d_53">
      <g>
       <use xlink:href="#m3c8b3b750c" x="343.022312" y="242.124" style="stroke: #000000; stroke-width: 1.5"/>
      </g>
     </g>
     <g id="line2d_54">
      <g>
       <use xlink:href="#m8b5b710491" x="343.022312" y="16.596" style="stroke: #000000; stroke-width: 1.5"/>
      </g>
     </g>
    </g>
    <g id="xtick_28">
     <g id="line2d_55">
      <g>
       <use xlink:href="#m3c8b3b750c" x="366.438117" y="242.124" style="stroke: #000000; stroke-width: 1.5"/>
      </g>
     </g>
     <g id="line2d_56">
      <g>
       <use xlink:href="#m8b5b710491" x="366.438117" y="16.596" style="stroke: #000000; stroke-width: 1.5"/>
      </g>
     </g>
    </g>
    <g id="xtick_29">
     <g id="line2d_57">
      <g>
       <use xlink:href="#m3c8b3b750c" x="378.14602" y="242.124" style="stroke: #000000; stroke-width: 1.5"/>
      </g>
     </g>
     <g id="line2d_58">
      <g>
       <use xlink:href="#m8b5b710491" x="378.14602" y="16.596" style="stroke: #000000; stroke-width: 1.5"/>
      </g>
     </g>
    </g>
    <g id="xtick_30">
     <g id="line2d_59">
      <g>
       <use xlink:href="#m3c8b3b750c" x="389.853923" y="242.124" style="stroke: #000000; stroke-width: 1.5"/>
      </g>
     </g>
     <g id="line2d_60">
      <g>
       <use xlink:href="#m8b5b710491" x="389.853923" y="16.596" style="stroke: #000000; stroke-width: 1.5"/>
      </g>
     </g>
    </g>
    <g id="xtick_31">
     <g id="line2d_61">
      <g>
       <use xlink:href="#m3c8b3b750c" x="401.561826" y="242.124" style="stroke: #000000; stroke-width: 1.5"/>
      </g>
     </g>
     <g id="line2d_62">
      <g>
       <use xlink:href="#m8b5b710491" x="401.561826" y="16.596" style="stroke: #000000; stroke-width: 1.5"/>
      </g>
     </g>
    </g>
    <g id="text_8">
     <!-- Distance [R$_\odot$] -->
     <g transform="translate(193.076263 270.355875) scale(0.12 -0.12)">
      <defs>
       <path id="DejaVuSans-44" d="M 1259 4147 
L 1259 519 
L 2022 519 
Q 2988 519 3436 956 
Q 3884 1394 3884 2338 
Q 3884 3275 3436 3711 
Q 2988 4147 2022 4147 
L 1259 4147 
z
M 628 4666 
L 1925 4666 
Q 3281 4666 3915 4102 
Q 4550 3538 4550 2338 
Q 4550 1131 3912 565 
Q 3275 0 1925 0 
L 628 0 
L 628 4666 
z
" transform="scale(0.015625)"/>
       <path id="DejaVuSans-69" d="M 603 3500 
L 1178 3500 
L 1178 0 
L 603 0 
L 603 3500 
z
M 603 4863 
L 1178 4863 
L 1178 4134 
L 603 4134 
L 603 4863 
z
" transform="scale(0.015625)"/>
       <path id="DejaVuSans-73" d="M 2834 3397 
L 2834 2853 
Q 2591 2978 2328 3040 
Q 2066 3103 1784 3103 
Q 1356 3103 1142 2972 
Q 928 2841 928 2578 
Q 928 2378 1081 2264 
Q 1234 2150 1697 2047 
L 1894 2003 
Q 2506 1872 2764 1633 
Q 3022 1394 3022 966 
Q 3022 478 2636 193 
Q 2250 -91 1575 -91 
Q 1294 -91 989 -36 
Q 684 19 347 128 
L 347 722 
Q 666 556 975 473 
Q 1284 391 1588 391 
Q 1994 391 2212 530 
Q 2431 669 2431 922 
Q 2431 1156 2273 1281 
Q 2116 1406 1581 1522 
L 1381 1569 
Q 847 1681 609 1914 
Q 372 2147 372 2553 
Q 372 3047 722 3315 
Q 1072 3584 1716 3584 
Q 2034 3584 2315 3537 
Q 2597 3491 2834 3397 
z
" transform="scale(0.015625)"/>
       <path id="DejaVuSans-74" d="M 1172 4494 
L 1172 3500 
L 2356 3500 
L 2356 3053 
L 1172 3053 
L 1172 1153 
Q 1172 725 1289 603 
Q 1406 481 1766 481 
L 2356 481 
L 2356 0 
L 1766 0 
Q 1100 0 847 248 
Q 594 497 594 1153 
L 594 3053 
L 172 3053 
L 172 3500 
L 594 3500 
L 594 4494 
L 1172 4494 
z
" transform="scale(0.015625)"/>
       <path id="DejaVuSans-61" d="M 2194 1759 
Q 1497 1759 1228 1600 
Q 959 1441 959 1056 
Q 959 750 1161 570 
Q 1363 391 1709 391 
Q 2188 391 2477 730 
Q 2766 1069 2766 1631 
L 2766 1759 
L 2194 1759 
z
M 3341 1997 
L 3341 0 
L 2766 0 
L 2766 531 
Q 2569 213 2275 61 
Q 1981 -91 1556 -91 
Q 1019 -91 701 211 
Q 384 513 384 1019 
Q 384 1609 779 1909 
Q 1175 2209 1959 2209 
L 2766 2209 
L 2766 2266 
Q 2766 2663 2505 2880 
Q 2244 3097 1772 3097 
Q 1472 3097 1187 3025 
Q 903 2953 641 2809 
L 641 3341 
Q 956 3463 1253 3523 
Q 1550 3584 1831 3584 
Q 2591 3584 2966 3190 
Q 3341 2797 3341 1997 
z
" transform="scale(0.015625)"/>
       <path id="DejaVuSans-6e" d="M 3513 2113 
L 3513 0 
L 2938 0 
L 2938 2094 
Q 2938 2591 2744 2837 
Q 2550 3084 2163 3084 
Q 1697 3084 1428 2787 
Q 1159 2491 1159 1978 
L 1159 0 
L 581 0 
L 581 3500 
L 1159 3500 
L 1159 2956 
Q 1366 3272 1645 3428 
Q 1925 3584 2291 3584 
Q 2894 3584 3203 3211 
Q 3513 2838 3513 2113 
z
" transform="scale(0.015625)"/>
       <path id="DejaVuSans-63" d="M 3122 3366 
L 3122 2828 
Q 2878 2963 2633 3030 
Q 2388 3097 2138 3097 
Q 1578 3097 1268 2742 
Q 959 2388 959 1747 
Q 959 1106 1268 751 
Q 1578 397 2138 397 
Q 2388 397 2633 464 
Q 2878 531 3122 666 
L 3122 134 
Q 2881 22 2623 -34 
Q 2366 -91 2075 -91 
Q 1284 -91 818 406 
Q 353 903 353 1747 
Q 353 2603 823 3093 
Q 1294 3584 2113 3584 
Q 2378 3584 2631 3529 
Q 2884 3475 3122 3366 
z
" transform="scale(0.015625)"/>
       <path id="DejaVuSans-65" d="M 3597 1894 
L 3597 1613 
L 953 1613 
Q 991 1019 1311 708 
Q 1631 397 2203 397 
Q 2534 397 2845 478 
Q 3156 559 3463 722 
L 3463 178 
Q 3153 47 2828 -22 
Q 2503 -91 2169 -91 
Q 1331 -91 842 396 
Q 353 884 353 1716 
Q 353 2575 817 3079 
Q 1281 3584 2069 3584 
Q 2775 3584 3186 3129 
Q 3597 2675 3597 1894 
z
M 3022 2063 
Q 3016 2534 2758 2815 
Q 2500 3097 2075 3097 
Q 1594 3097 1305 2825 
Q 1016 2553 972 2059 
L 3022 2063 
z
" transform="scale(0.015625)"/>
       <path id="DejaVuSans-20" transform="scale(0.015625)"/>
       <path id="DejaVuSans-5b" d="M 550 4863 
L 1875 4863 
L 1875 4416 
L 1125 4416 
L 1125 -397 
L 1875 -397 
L 1875 -844 
L 550 -844 
L 550 4863 
z
" transform="scale(0.015625)"/>
       <path id="DejaVuSans-52" d="M 2841 2188 
Q 3044 2119 3236 1894 
Q 3428 1669 3622 1275 
L 4263 0 
L 3584 0 
L 2988 1197 
Q 2756 1666 2539 1819 
Q 2322 1972 1947 1972 
L 1259 1972 
L 1259 0 
L 628 0 
L 628 4666 
L 2053 4666 
Q 2853 4666 3247 4331 
Q 3641 3997 3641 3322 
Q 3641 2881 3436 2590 
Q 3231 2300 2841 2188 
z
M 1259 4147 
L 1259 2491 
L 2053 2491 
Q 2509 2491 2742 2702 
Q 2975 2913 2975 3322 
Q 2975 3731 2742 3939 
Q 2509 4147 2053 4147 
L 1259 4147 
z
" transform="scale(0.015625)"/>
       <path id="DejaVuSans-2299" d="M 2350 2403 
L 3013 2403 
L 3013 1609 
L 2350 1609 
L 2350 2403 
z
M 3306 3522 
Q 3016 3644 2681 3644 
Q 2347 3644 2056 3522 
Q 1769 3400 1531 3163 
Q 1291 2922 1172 2634 
Q 1053 2347 1053 2006 
Q 1053 1675 1172 1387 
Q 1291 1100 1531 859 
Q 1769 622 2056 500 
Q 2347 378 2681 378 
Q 3016 378 3306 500 
Q 3594 622 3831 859 
Q 4072 1100 4190 1387 
Q 4309 1675 4309 2006 
Q 4309 2347 4190 2634 
Q 4072 2922 3831 3163 
Q 3594 3400 3306 3522 
z
M 1878 3956 
Q 2250 4113 2681 4113 
Q 3113 4113 3484 3956 
Q 3856 3800 4163 3494 
Q 4472 3184 4625 2813 
Q 4778 2444 4778 2006 
Q 4778 1578 4625 1206 
Q 4472 838 4163 528 
Q 3856 222 3484 65 
Q 3113 -91 2681 -91 
Q 2250 -91 1878 65 
Q 1506 222 1200 528 
Q 891 838 738 1206 
Q 584 1578 584 2006 
Q 584 2444 738 2813 
Q 891 3184 1200 3494 
Q 1506 3800 1878 3956 
z
" transform="scale(0.015625)"/>
       <path id="DejaVuSans-5d" d="M 1947 4863 
L 1947 -844 
L 622 -844 
L 622 -397 
L 1369 -397 
L 1369 4416 
L 622 4416 
L 622 4863 
L 1947 4863 
z
" transform="scale(0.015625)"/>
      </defs>
      <use xlink:href="#DejaVuSans-44" transform="translate(0 0.015625)"/>
      <use xlink:href="#DejaVuSans-69" transform="translate(77.001953 0.015625)"/>
      <use xlink:href="#DejaVuSans-73" transform="translate(104.785156 0.015625)"/>
      <use xlink:href="#DejaVuSans-74" transform="translate(156.884766 0.015625)"/>
      <use xlink:href="#DejaVuSans-61" transform="translate(196.09375 0.015625)"/>
      <use xlink:href="#DejaVuSans-6e" transform="translate(257.373047 0.015625)"/>
      <use xlink:href="#DejaVuSans-63" transform="translate(320.751953 0.015625)"/>
      <use xlink:href="#DejaVuSans-65" transform="translate(375.732422 0.015625)"/>
      <use xlink:href="#DejaVuSans-20" transform="translate(437.255859 0.015625)"/>
      <use xlink:href="#DejaVuSans-5b" transform="translate(469.042969 0.015625)"/>
      <use xlink:href="#DejaVuSans-52" transform="translate(504.931641 0.015625)"/>
      <use xlink:href="#DejaVuSans-2299" transform="translate(589.008789 -16.390625) scale(0.7)"/>
      <use xlink:href="#DejaVuSans-5d" transform="translate(664.033203 0.015625)"/>
     </g>
    </g>
   </g>
   <g id="matplotlib.axis_2">
    <g id="ytick_1">
     <g id="line2d_63">
      <defs>
       <path id="m3cb8515b9f" d="M 0 0 
L 3.5 0 
" style="stroke: #000000; stroke-width: 1.5"/>
      </defs>
      <g>
       <use xlink:href="#m3cb8515b9f" x="52.872357" y="242.124" style="stroke: #000000; stroke-width: 1.5"/>
      </g>
     </g>
     <g id="line2d_64">
      <defs>
       <path id="mee9f69e235" d="M 0 0 
L -3.5 0 
" style="stroke: #000000; stroke-width: 1.5"/>
      </defs>
      <g>
       <use xlink:href="#mee9f69e235" x="417.760168" y="242.124" style="stroke: #000000; stroke-width: 1.5"/>
      </g>
     </g>
     <g id="text_9">
      <!-- $\mathdefault{10^{4}}$ -->
      <g transform="translate(28.252357 246.683062) scale(0.12 -0.12)">
       <use xlink:href="#DejaVuSans-31" transform="translate(0 0.684375)"/>
       <use xlink:href="#DejaVuSans-30" transform="translate(63.623047 0.684375)"/>
       <use xlink:href="#DejaVuSans-34" transform="translate(128.203125 38.965625) scale(0.7)"/>
      </g>
     </g>
    </g>
    <g id="ytick_2">
     <g id="line2d_65">
      <g>
       <use xlink:href="#m3cb8515b9f" x="52.872357" y="166.948" style="stroke: #000000; stroke-width: 1.5"/>
      </g>
     </g>
     <g id="line2d_66">
      <g>
       <use xlink:href="#mee9f69e235" x="417.760168" y="166.948" style="stroke: #000000; stroke-width: 1.5"/>
      </g>
     </g>
     <g id="text_10">
      <!-- $\mathdefault{10^{5}}$ -->
      <g transform="translate(28.252357 171.507062) scale(0.12 -0.12)">
       <use xlink:href="#DejaVuSans-31" transform="translate(0 0.684375)"/>
       <use xlink:href="#DejaVuSans-30" transform="translate(63.623047 0.684375)"/>
       <use xlink:href="#DejaVuSans-35" transform="translate(128.203125 38.965625) scale(0.7)"/>
      </g>
     </g>
    </g>
    <g id="ytick_3">
     <g id="line2d_67">
      <g>
       <use xlink:href="#m3cb8515b9f" x="52.872357" y="91.772" style="stroke: #000000; stroke-width: 1.5"/>
      </g>
     </g>
     <g id="line2d_68">
      <g>
       <use xlink:href="#mee9f69e235" x="417.760168" y="91.772" style="stroke: #000000; stroke-width: 1.5"/>
      </g>
     </g>
     <g id="text_11">
      <!-- $\mathdefault{10^{6}}$ -->
      <g transform="translate(28.252357 96.331063) scale(0.12 -0.12)">
       <use xlink:href="#DejaVuSans-31" transform="translate(0 0.765625)"/>
       <use xlink:href="#DejaVuSans-30" transform="translate(63.623047 0.765625)"/>
       <use xlink:href="#DejaVuSans-36" transform="translate(128.203125 39.046875) scale(0.7)"/>
      </g>
     </g>
    </g>
    <g id="ytick_4">
     <g id="line2d_69">
      <g>
       <use xlink:href="#m3cb8515b9f" x="52.872357" y="16.596" style="stroke: #000000; stroke-width: 1.5"/>
      </g>
     </g>
     <g id="line2d_70">
      <g>
       <use xlink:href="#mee9f69e235" x="417.760168" y="16.596" style="stroke: #000000; stroke-width: 1.5"/>
      </g>
     </g>
     <g id="text_12">
      <!-- $\mathdefault{10^{7}}$ -->
      <g transform="translate(28.252357 21.155062) scale(0.12 -0.12)">
       <defs>
        <path id="DejaVuSans-37" d="M 525 4666 
L 3525 4666 
L 3525 4397 
L 1831 0 
L 1172 0 
L 2766 4134 
L 525 4134 
L 525 4666 
z
" transform="scale(0.015625)"/>
       </defs>
       <use xlink:href="#DejaVuSans-31" transform="translate(0 0.684375)"/>
       <use xlink:href="#DejaVuSans-30" transform="translate(63.623047 0.684375)"/>
       <use xlink:href="#DejaVuSans-37" transform="translate(128.203125 38.965625) scale(0.7)"/>
      </g>
     </g>
    </g>
    <g id="ytick_5">
     <g id="line2d_71">
      <defs>
       <path id="m5da4fd0420" d="M 0 0 
L 2 0 
" style="stroke: #000000; stroke-width: 1.5"/>
      </defs>
      <g>
       <use xlink:href="#m5da4fd0420" x="52.872357" y="219.493769" style="stroke: #000000; stroke-width: 1.5"/>
      </g>
     </g>
     <g id="line2d_72">
      <defs>
       <path id="mfe24a25e6b" d="M 0 0 
L -2 0 
" style="stroke: #000000; stroke-width: 1.5"/>
      </defs>
      <g>
       <use xlink:href="#mfe24a25e6b" x="417.760168" y="219.493769" style="stroke: #000000; stroke-width: 1.5"/>
      </g>
     </g>
    </g>
    <g id="ytick_6">
     <g id="line2d_73">
      <g>
       <use xlink:href="#m5da4fd0420" x="52.872357" y="206.255933" style="stroke: #000000; stroke-width: 1.5"/>
      </g>
     </g>
     <g id="line2d_74">
      <g>
       <use xlink:href="#mfe24a25e6b" x="417.760168" y="206.255933" style="stroke: #000000; stroke-width: 1.5"/>
      </g>
     </g>
    </g>
    <g id="ytick_7">
     <g id="line2d_75">
      <g>
       <use xlink:href="#m5da4fd0420" x="52.872357" y="196.863538" style="stroke: #000000; stroke-width: 1.5"/>
      </g>
     </g>
     <g id="line2d_76">
      <g>
       <use xlink:href="#mfe24a25e6b" x="417.760168" y="196.863538" style="stroke: #000000; stroke-width: 1.5"/>
      </g>
     </g>
    </g>
    <g id="ytick_8">
     <g id="line2d_77">
      <g>
       <use xlink:href="#m5da4fd0420" x="52.872357" y="189.578231" style="stroke: #000000; stroke-width: 1.5"/>
      </g>
     </g>
     <g id="line2d_78">
      <g>
       <use xlink:href="#mfe24a25e6b" x="417.760168" y="189.578231" style="stroke: #000000; stroke-width: 1.5"/>
      </g>
     </g>
    </g>
    <g id="ytick_9">
     <g id="line2d_79">
      <g>
       <use xlink:href="#m5da4fd0420" x="52.872357" y="183.625702" style="stroke: #000000; stroke-width: 1.5"/>
      </g>
     </g>
     <g id="line2d_80">
      <g>
       <use xlink:href="#mfe24a25e6b" x="417.760168" y="183.625702" style="stroke: #000000; stroke-width: 1.5"/>
      </g>
     </g>
    </g>
    <g id="ytick_10">
     <g id="line2d_81">
      <g>
       <use xlink:href="#m5da4fd0420" x="52.872357" y="178.59291" style="stroke: #000000; stroke-width: 1.5"/>
      </g>
     </g>
     <g id="line2d_82">
      <g>
       <use xlink:href="#mfe24a25e6b" x="417.760168" y="178.59291" style="stroke: #000000; stroke-width: 1.5"/>
      </g>
     </g>
    </g>
    <g id="ytick_11">
     <g id="line2d_83">
      <g>
       <use xlink:href="#m5da4fd0420" x="52.872357" y="174.233307" style="stroke: #000000; stroke-width: 1.5"/>
      </g>
     </g>
     <g id="line2d_84">
      <g>
       <use xlink:href="#mfe24a25e6b" x="417.760168" y="174.233307" style="stroke: #000000; stroke-width: 1.5"/>
      </g>
     </g>
    </g>
    <g id="ytick_12">
     <g id="line2d_85">
      <g>
       <use xlink:href="#m5da4fd0420" x="52.872357" y="170.387865" style="stroke: #000000; stroke-width: 1.5"/>
      </g>
     </g>
     <g id="line2d_86">
      <g>
       <use xlink:href="#mfe24a25e6b" x="417.760168" y="170.387865" style="stroke: #000000; stroke-width: 1.5"/>
      </g>
     </g>
    </g>
    <g id="ytick_13">
     <g id="line2d_87">
      <g>
       <use xlink:href="#m5da4fd0420" x="52.872357" y="144.317769" style="stroke: #000000; stroke-width: 1.5"/>
      </g>
     </g>
     <g id="line2d_88">
      <g>
       <use xlink:href="#mfe24a25e6b" x="417.760168" y="144.317769" style="stroke: #000000; stroke-width: 1.5"/>
      </g>
     </g>
    </g>
    <g id="ytick_14">
     <g id="line2d_89">
      <g>
       <use xlink:href="#m5da4fd0420" x="52.872357" y="131.079933" style="stroke: #000000; stroke-width: 1.5"/>
      </g>
     </g>
     <g id="line2d_90">
      <g>
       <use xlink:href="#mfe24a25e6b" x="417.760168" y="131.079933" style="stroke: #000000; stroke-width: 1.5"/>
      </g>
     </g>
    </g>
    <g id="ytick_15">
     <g id="line2d_91">
      <g>
       <use xlink:href="#m5da4fd0420" x="52.872357" y="121.687538" style="stroke: #000000; stroke-width: 1.5"/>
      </g>
     </g>
     <g id="line2d_92">
      <g>
       <use xlink:href="#mfe24a25e6b" x="417.760168" y="121.687538" style="stroke: #000000; stroke-width: 1.5"/>
      </g>
     </g>
    </g>
    <g id="ytick_16">
     <g id="line2d_93">
      <g>
       <use xlink:href="#m5da4fd0420" x="52.872357" y="114.402231" style="stroke: #000000; stroke-width: 1.5"/>
      </g>
     </g>
     <g id="line2d_94">
      <g>
       <use xlink:href="#mfe24a25e6b" x="417.760168" y="114.402231" style="stroke: #000000; stroke-width: 1.5"/>
      </g>
     </g>
    </g>
    <g id="ytick_17">
     <g id="line2d_95">
      <g>
       <use xlink:href="#m5da4fd0420" x="52.872357" y="108.449702" style="stroke: #000000; stroke-width: 1.5"/>
      </g>
     </g>
     <g id="line2d_96">
      <g>
       <use xlink:href="#mfe24a25e6b" x="417.760168" y="108.449702" style="stroke: #000000; stroke-width: 1.5"/>
      </g>
     </g>
    </g>
    <g id="ytick_18">
     <g id="line2d_97">
      <g>
       <use xlink:href="#m5da4fd0420" x="52.872357" y="103.41691" style="stroke: #000000; stroke-width: 1.5"/>
      </g>
     </g>
     <g id="line2d_98">
      <g>
       <use xlink:href="#mfe24a25e6b" x="417.760168" y="103.41691" style="stroke: #000000; stroke-width: 1.5"/>
      </g>
     </g>
    </g>
    <g id="ytick_19">
     <g id="line2d_99">
      <g>
       <use xlink:href="#m5da4fd0420" x="52.872357" y="99.057307" style="stroke: #000000; stroke-width: 1.5"/>
      </g>
     </g>
     <g id="line2d_100">
      <g>
       <use xlink:href="#mfe24a25e6b" x="417.760168" y="99.057307" style="stroke: #000000; stroke-width: 1.5"/>
      </g>
     </g>
    </g>
    <g id="ytick_20">
     <g id="line2d_101">
      <g>
       <use xlink:href="#m5da4fd0420" x="52.872357" y="95.211865" style="stroke: #000000; stroke-width: 1.5"/>
      </g>
     </g>
     <g id="line2d_102">
      <g>
       <use xlink:href="#mfe24a25e6b" x="417.760168" y="95.211865" style="stroke: #000000; stroke-width: 1.5"/>
      </g>
     </g>
    </g>
    <g id="ytick_21">
     <g id="line2d_103">
      <g>
       <use xlink:href="#m5da4fd0420" x="52.872357" y="69.141769" style="stroke: #000000; stroke-width: 1.5"/>
      </g>
     </g>
     <g id="line2d_104">
      <g>
       <use xlink:href="#mfe24a25e6b" x="417.760168" y="69.141769" style="stroke: #000000; stroke-width: 1.5"/>
      </g>
     </g>
    </g>
    <g id="ytick_22">
     <g id="line2d_105">
      <g>
       <use xlink:href="#m5da4fd0420" x="52.872357" y="55.903933" style="stroke: #000000; stroke-width: 1.5"/>
      </g>
     </g>
     <g id="line2d_106">
      <g>
       <use xlink:href="#mfe24a25e6b" x="417.760168" y="55.903933" style="stroke: #000000; stroke-width: 1.5"/>
      </g>
     </g>
    </g>
    <g id="ytick_23">
     <g id="line2d_107">
      <g>
       <use xlink:href="#m5da4fd0420" x="52.872357" y="46.511538" style="stroke: #000000; stroke-width: 1.5"/>
      </g>
     </g>
     <g id="line2d_108">
      <g>
       <use xlink:href="#mfe24a25e6b" x="417.760168" y="46.511538" style="stroke: #000000; stroke-width: 1.5"/>
      </g>
     </g>
    </g>
    <g id="ytick_24">
     <g id="line2d_109">
      <g>
       <use xlink:href="#m5da4fd0420" x="52.872357" y="39.226231" style="stroke: #000000; stroke-width: 1.5"/>
      </g>
     </g>
     <g id="line2d_110">
      <g>
       <use xlink:href="#mfe24a25e6b" x="417.760168" y="39.226231" style="stroke: #000000; stroke-width: 1.5"/>
      </g>
     </g>
    </g>
    <g id="ytick_25">
     <g id="line2d_111">
      <g>
       <use xlink:href="#m5da4fd0420" x="52.872357" y="33.273702" style="stroke: #000000; stroke-width: 1.5"/>
      </g>
     </g>
     <g id="line2d_112">
      <g>
       <use xlink:href="#mfe24a25e6b" x="417.760168" y="33.273702" style="stroke: #000000; stroke-width: 1.5"/>
      </g>
     </g>
    </g>
    <g id="ytick_26">
     <g id="line2d_113">
      <g>
       <use xlink:href="#m5da4fd0420" x="52.872357" y="28.24091" style="stroke: #000000; stroke-width: 1.5"/>
      </g>
     </g>
     <g id="line2d_114">
      <g>
       <use xlink:href="#mfe24a25e6b" x="417.760168" y="28.24091" style="stroke: #000000; stroke-width: 1.5"/>
      </g>
     </g>
    </g>
    <g id="ytick_27">
     <g id="line2d_115">
      <g>
       <use xlink:href="#m5da4fd0420" x="52.872357" y="23.881307" style="stroke: #000000; stroke-width: 1.5"/>
      </g>
     </g>
     <g id="line2d_116">
      <g>
       <use xlink:href="#mfe24a25e6b" x="417.760168" y="23.881307" style="stroke: #000000; stroke-width: 1.5"/>
      </g>
     </g>
    </g>
    <g id="ytick_28">
     <g id="line2d_117">
      <g>
       <use xlink:href="#m5da4fd0420" x="52.872357" y="20.035865" style="stroke: #000000; stroke-width: 1.5"/>
      </g>
     </g>
     <g id="line2d_118">
      <g>
       <use xlink:href="#mfe24a25e6b" x="417.760168" y="20.035865" style="stroke: #000000; stroke-width: 1.5"/>
      </g>
     </g>
    </g>
    <g id="text_13">
     <!-- T [K] -->
     <g transform="translate(21.756732 143.548125) rotate(-90) scale(0.12 -0.12)">
      <defs>
       <path id="DejaVuSans-54" d="M -19 4666 
L 3928 4666 
L 3928 4134 
L 2272 4134 
L 2272 0 
L 1638 0 
L 1638 4134 
L -19 4134 
L -19 4666 
z
" transform="scale(0.015625)"/>
       <path id="DejaVuSans-4b" d="M 628 4666 
L 1259 4666 
L 1259 2694 
L 3353 4666 
L 4166 4666 
L 1850 2491 
L 4331 0 
L 3500 0 
L 1259 2247 
L 1259 0 
L 628 0 
L 628 4666 
z
" transform="scale(0.015625)"/>
      </defs>
      <use xlink:href="#DejaVuSans-54"/>
      <use xlink:href="#DejaVuSans-20" x="61.083984"/>
      <use xlink:href="#DejaVuSans-5b" x="92.871094"/>
      <use xlink:href="#DejaVuSans-4b" x="131.884766"/>
      <use xlink:href="#DejaVuSans-5d" x="197.460938"/>
     </g>
    </g>
   </g>
   <g id="patch_3">
    <path d="M 52.872357 242.124 
L 52.872357 16.596 
" style="fill: none; stroke: #000000; stroke-width: 1.5; stroke-linejoin: miter; stroke-linecap: square"/>
   </g>
   <g id="patch_4">
    <path d="M 417.760168 242.124 
L 417.760168 16.596 
" style="fill: none; stroke: #000000; stroke-width: 1.5; stroke-linejoin: miter; stroke-linecap: square"/>
   </g>
   <g id="patch_5">
    <path d="M 52.872357 242.124 
L 417.760168 242.124 
" style="fill: none; stroke: #000000; stroke-width: 1.5; stroke-linejoin: miter; stroke-linecap: square"/>
   </g>
   <g id="patch_6">
    <path d="M 52.872357 16.596 
L 417.760168 16.596 
" style="fill: none; stroke: #000000; stroke-width: 1.5; stroke-linejoin: miter; stroke-linecap: square"/>
   </g>
   <g id="PolyCollection_1">
    <path d="M 155.599469 109.382541 
L 155.599469 123.755757 
L 155.951421 130.404013 
L 156.560016 120.961133 
L 157.147847 124.688125 
L 157.738598 132.652803 
L 158.308886 135.484198 
L 158.911519 135.846852 
L 159.49756 141.344403 
L 160.083389 141.157086 
L 160.669158 139.623716 
L 161.254927 136.906832 
L 161.840529 140.29913 
L 162.426105 140.157554 
L 163.011778 135.670057 
L 163.597259 142.682618 
L 164.182746 142.170624 
L 164.76828 141.415908 
L 165.353787 138.414761 
L 165.939294 137.734498 
L 166.524736 141.88103 
L 167.11022 143.020229 
L 167.69569 147.862184 
L 168.281045 146.784279 
L 168.86646 146.950603 
L 169.452039 147.068237 
L 170.037454 148.899419 
L 170.622638 148.771638 
L 171.208162 146.090733 
L 171.793623 149.593656 
L 172.379052 160.867911 
L 172.964563 162.99119 
L 173.550123 162.379017 
L 174.135545 142.041254 
L 174.720853 144.582677 
L 175.306639 146.11379 
L 175.891576 144.397208 
L 176.476987 143.655488 
L 177.062267 140.094435 
L 177.647763 143.333355 
L 178.233242 145.361624 
L 178.818685 148.074658 
L 179.404087 149.478021 
L 179.989456 173.191685 
L 180.574811 172.418164 
L 181.247421 134.246754 
L 181.725608 129.296229 
L 182.322546 129.442592 
L 182.911842 133.118427 
L 183.498477 133.871241 
L 184.084487 127.414395 
L 184.670502 127.684315 
L 185.256457 129.632322 
L 185.842068 130.594863 
L 186.427599 131.895756 
L 187.013128 137.170816 
L 187.598577 144.263411 
L 188.184253 140.654531 
L 188.769742 145.725958 
L 189.355149 154.949951 
L 189.940724 165.960789 
L 190.526252 170.007053 
L 191.111773 162.64921 
L 191.697107 162.537029 
L 192.282614 154.685982 
L 192.86804 161.254277 
L 193.453366 148.111044 
L 194.038641 146.376931 
L 194.624057 148.436496 
L 195.209735 145.478868 
L 195.795077 151.168306 
L 196.380268 149.241302 
L 196.965908 149.985325 
L 197.551351 149.65034 
L 198.136606 148.810301 
L 198.72139 149.511736 
L 199.309166 147.817914 
L 199.891931 151.140739 
L 200.477825 148.937151 
L 201.061087 147.672201 
L 201.648028 148.76919 
L 202.234938 144.054325 
L 202.818083 151.507659 
L 203.405426 153.551889 
L 203.990936 154.338731 
L 204.577858 157.486104 
L 205.16169 145.743827 
L 205.74713 148.290013 
L 206.331188 148.766923 
L 206.917912 153.34147 
L 207.503207 151.783421 
L 208.088604 157.93998 
L 208.674308 151.651915 
L 209.259399 155.496211 
L 209.844868 163.735122 
L 210.434476 157.328853 
L 211.056474 152.948265 
L 211.602772 149.94409 
L 212.186297 146.053266 
L 212.771986 145.055472 
L 213.369482 156.122408 
L 213.927376 161.51364 
L 214.52657 144.67519 
L 215.11227 144.644148 
L 215.703276 144.584193 
L 216.293892 142.278532 
L 216.86608 142.73936 
L 217.44935 141.219753 
L 218.085713 142.159769 
L 218.625525 140.893263 
L 219.204305 143.862977 
L 219.82513 150.039071 
L 220.389 140.361698 
L 220.989482 142.54705 
L 221.553198 143.903951 
L 222.119068 140.837045 
L 222.67272 136.827659 
L 223.311473 142.197551 
L 223.922691 158.952929 
L 224.504976 162.274359 
L 225.084274 160.31446 
L 225.629935 163.060426 
L 226.204822 154.454654 
L 226.823487 143.731092 
L 227.407656 145.036695 
L 227.989523 150.438994 
L 228.571174 151.54876 
L 229.197781 156.718 
L 229.7386 162.347823 
L 230.347248 161.165918 
L 230.920798 162.579301 
L 231.495942 165.847587 
L 232.098166 152.192129 
L 232.68273 151.024319 
L 233.243795 149.715141 
L 233.84251 152.657777 
L 234.420595 148.936052 
L 235.013279 147.076741 
L 235.598424 147.078367 
L 236.186322 147.383002 
L 236.781104 140.300989 
L 237.351163 140.383159 
L 237.933002 141.88304 
L 238.530198 142.674374 
L 239.108641 137.847327 
L 239.700348 139.750397 
L 240.280836 143.876115 
L 240.868276 145.448731 
L 241.434283 135.893836 
L 242.003511 144.415285 
L 242.672863 151.383269 
L 243.213356 156.055918 
L 243.785467 143.7962 
L 244.382189 149.492608 
L 244.990572 140.037432 
L 245.545095 149.603075 
L 246.134803 141.580617 
L 246.726583 156.323267 
L 247.30365 158.140192 
L 247.882306 164.588624 
L 248.486776 156.216782 
L 249.062428 156.70784 
L 249.648645 157.938838 
L 250.233307 167.632832 
L 250.82069 159.623004 
L 251.420501 160.589238 
L 251.99755 161.097378 
L 252.576392 156.149742 
L 253.161647 153.943991 
L 253.762121 160.406725 
L 254.331145 160.76847 
L 254.912779 157.918874 
L 255.494256 163.264941 
L 256.088654 163.265661 
L 256.671935 163.762357 
L 257.271469 161.699398 
L 257.852918 171.638788 
L 258.440231 157.464112 
L 259.005158 158.325677 
L 259.598042 158.027761 
L 260.183973 158.591933 
L 260.771473 158.332797 
L 261.360878 152.578704 
L 261.946096 157.662398 
L 262.526197 165.13625 
L 263.123212 170.73163 
L 263.723241 148.633195 
L 264.287441 143.498537 
L 264.870209 147.745994 
L 265.458868 144.717697 
L 266.010964 148.249133 
L 266.64333 147.1693 
L 267.203376 152.316819 
L 267.789765 152.271159 
L 268.379192 153.949357 
L 268.978894 150.06093 
L 269.554294 150.444565 
L 270.119783 143.673283 
L 270.721033 152.454076 
L 271.311491 148.651295 
L 271.877761 145.860776 
L 272.483208 145.41142 
L 273.059464 148.466613 
L 273.654564 144.557529 
L 274.252854 146.418662 
L 274.818501 145.398133 
L 275.421694 144.514827 
L 275.980281 147.380923 
L 276.585927 145.952837 
L 277.177563 158.393173 
L 277.736752 161.166539 
L 278.314247 171.590234 
L 278.92517 153.901196 
L 279.474671 152.732562 
L 280.106943 146.794081 
L 280.677002 144.596601 
L 281.306447 160.014139 
L 281.851888 165.445572 
L 282.433277 169.888273 
L 283.01618 170.307466 
L 283.601595 168.48921 
L 284.196409 158.48638 
L 284.784157 152.307814 
L 285.368191 148.675632 
L 285.939415 145.591026 
L 286.518038 151.103818 
L 287.126453 153.77287 
L 287.704278 154.669921 
L 288.288445 153.642648 
L 288.877801 150.846104 
L 289.455737 154.173425 
L 290.035673 149.760281 
L 290.636226 148.754993 
L 291.2041 149.455929 
L 291.804236 148.099001 
L 292.388351 143.11102 
L 292.967503 146.118507 
L 293.560738 145.661709 
L 294.139904 148.39416 
L 294.716927 145.081004 
L 295.316576 146.279189 
L 295.905411 152.653736 
L 296.484171 146.40464 
L 297.072625 145.628039 
L 297.651074 160.792606 
L 298.23489 182.673082 
L 298.826578 179.387269 
L 299.411927 172.034447 
L 299.998992 171.654917 
L 300.547959 165.433566 
L 301.189162 164.502408 
L 301.722366 158.086459 
L 302.347175 153.22545 
L 302.928403 154.928536 
L 303.499444 168.344764 
L 304.085259 153.500697 
L 304.67348 160.020469 
L 305.265967 167.833539 
L 305.869315 170.234134 
L 306.431915 175.176464 
L 307.033889 172.017441 
L 307.598309 167.112441 
L 308.18437 172.470494 
L 308.781994 168.195252 
L 309.346973 165.603398 
L 309.951755 162.882778 
L 310.52558 163.532075 
L 311.125262 164.49389 
L 311.704599 163.383613 
L 312.274239 163.965996 
L 312.901271 175.140751 
L 313.456343 177.934887 
L 314.043861 173.409499 
L 314.625873 167.04857 
L 315.211128 168.233937 
L 315.80061 168.560631 
L 316.38367 169.194974 
L 316.981872 167.679747 
L 317.553907 176.148699 
L 318.142296 177.352595 
L 318.726218 181.151964 
L 319.315831 177.503427 
L 319.894487 182.055451 
L 320.490145 207.602579 
L 321.07378 203.298988 
L 321.657304 202.897036 
L 322.235044 219.667115 
L 322.821162 209.965211 
L 323.401162 216.593995 
L 323.99148 195.76068 
L 324.58427 198.130552 
L 325.167979 195.659296 
L 325.759011 191.50949 
L 326.341002 202.908356 
L 326.920888 198.544555 
L 327.519552 192.584532 
L 328.070449 185.342806 
L 328.686572 177.658297 
L 329.280766 182.963204 
L 329.842634 75718.828 
L 330.434951 75718.828 
L 331.011445 75718.828 
L 331.60878 205.570057 
L 332.199604 231.28928 
L 332.778139 179.825403 
L 333.381037 182.83764 
L 333.935927 174.978207 
L 334.535152 179.611763 
L 335.137196 169.438831 
L 335.706568 175.618231 
L 336.287006 189.697453 
L 336.869197 201.336342 
L 337.467608 201.626724 
L 338.047975 212.761154 
L 338.640485 211.924487 
L 339.218671 191.723452 
L 339.806416 206.725166 
L 340.402448 217.64953 
L 340.960799 191.060804 
L 341.571085 191.832067 
L 342.133074 196.406237 
L 342.736415 196.187685 
L 343.304698 183.683573 
L 343.902832 196.097163 
L 344.492642 195.532724 
L 345.065564 232.555242 
L 345.666707 201.714385 
L 346.233677 193.779246 
L 346.826582 241.501936 
L 347.424721 222.181127 
L 348.001015 239.330459 
L 348.577558 254.571128 
L 349.163108 75718.828 
L 349.760414 75718.828 
L 350.341127 75718.828 
L 350.924893 330.460338 
L 351.504981 241.218058 
L 352.096638 214.800527 
L 352.673295 198.854033 
L 353.2726 191.7382 
L 353.858512 190.625913 
L 354.426445 186.742478 
L 355.036657 184.063387 
L 355.594302 180.417423 
L 356.216525 178.851404 
L 356.778993 182.409536 
L 357.353655 184.592493 
L 357.95089 176.726695 
L 358.521467 177.739439 
L 359.127209 188.345743 
L 359.71703 184.166208 
L 360.295447 192.236484 
L 360.879376 191.31876 
L 361.462674 193.095288 
L 362.045626 192.314939 
L 362.6321 187.099614 
L 363.219866 187.164358 
L 363.801388 182.070232 
L 364.396099 182.022778 
L 364.974529 188.276172 
L 365.56036 184.854592 
L 366.143369 184.238241 
L 366.733585 182.338302 
L 367.31671 182.169363 
L 367.895489 183.886722 
L 368.483662 183.715521 
L 369.071227 184.554406 
L 369.660738 183.624038 
L 370.23872 180.916787 
L 370.827788 182.063095 
L 371.422633 179.470237 
L 371.99947 184.770373 
L 372.579327 180.75774 
L 373.170846 183.860223 
L 373.746471 181.562285 
L 374.340936 182.546674 
L 374.927218 189.029056 
L 375.517784 183.55328 
L 376.08872 182.67433 
L 376.701585 181.787969 
L 377.241055 182.856996 
L 377.852081 185.149178 
L 378.438207 186.794567 
L 379.0257 184.490682 
L 379.609091 184.668808 
L 380.18781 184.082253 
L 380.78526 183.231585 
L 381.364563 185.783109 
L 381.952249 191.118816 
L 382.536903 188.191988 
L 383.120787 185.006697 
L 383.705903 181.547402 
L 384.292723 179.651777 
L 384.878164 180.335942 
L 385.466026 183.125817 
L 386.051872 185.515182 
L 386.641589 181.879506 
L 387.219093 187.111267 
L 387.779529 190.79887 
L 388.390596 179.191772 
L 388.976321 185.416036 
L 389.561447 202.624874 
L 390.143142 184.869407 
L 390.715393 182.807396 
L 391.318397 204.796817 
L 391.903175 206.313369 
L 392.48842 207.600481 
L 393.07337 203.438107 
L 393.659099 205.965609 
L 394.188024 199.736147 
L 394.830006 182.47342 
L 395.415186 184.733345 
L 396.000659 184.493137 
L 396.586425 186.040812 
L 397.171455 190.866557 
L 397.756521 183.559959 
L 398.342133 181.564693 
L 398.927769 187.434212 
L 399.513182 195.949563 
L 400.098625 196.759013 
L 400.6841 198.491341 
L 401.174359 198.611994 
L 401.174359 165.14639 
L 401.174359 165.14639 
L 400.6841 165.598585 
L 400.098625 165.524922 
L 399.513182 163.677249 
L 398.927769 161.093558 
L 398.342133 160.823978 
L 397.756521 161.631809 
L 397.171455 166.181779 
L 396.586425 164.095718 
L 396.000659 162.853458 
L 395.415186 163.518569 
L 394.830006 162.745543 
L 394.188024 146.715128 
L 393.659099 145.927982 
L 393.07337 147.107072 
L 392.48842 143.791923 
L 391.903175 144.363987 
L 391.318397 142.282049 
L 390.715393 144.116953 
L 390.143142 145.580116 
L 389.561447 148.969747 
L 388.976321 145.792328 
L 388.390596 141.344418 
L 387.779529 134.274208 
L 387.219093 143.75368 
L 386.641589 151.548655 
L 386.051872 146.598164 
L 385.466026 147.403122 
L 384.878164 148.493546 
L 384.292723 150.045338 
L 383.705903 146.875435 
L 383.120787 148.413231 
L 382.536903 149.355701 
L 381.952249 147.227609 
L 381.364563 141.006435 
L 380.78526 143.865991 
L 380.18781 145.036044 
L 379.609091 142.404498 
L 379.0257 143.40578 
L 378.438207 143.795355 
L 377.852081 142.683666 
L 377.241055 143.571586 
L 376.701585 144.926827 
L 376.08872 145.609348 
L 375.517784 146.053511 
L 374.927218 147.144475 
L 374.340936 145.113727 
L 373.746471 145.261495 
L 373.170846 143.187185 
L 372.579327 142.544836 
L 371.99947 145.268837 
L 371.422633 145.827452 
L 370.827788 145.715934 
L 370.23872 147.113861 
L 369.660738 146.532662 
L 369.071227 146.790745 
L 368.483662 145.602142 
L 367.895489 145.88995 
L 367.31671 148.673926 
L 366.733585 147.838151 
L 366.143369 146.870552 
L 365.56036 144.825501 
L 364.974529 143.065687 
L 364.396099 141.734077 
L 363.801388 141.961083 
L 363.219866 141.391212 
L 362.6321 141.688309 
L 362.045626 141.34398 
L 361.462674 140.783624 
L 360.879376 140.382748 
L 360.295447 140.093098 
L 359.71703 138.254192 
L 359.127209 136.691492 
L 358.521467 131.684097 
L 357.95089 131.216567 
L 357.353655 133.305423 
L 356.778993 136.066488 
L 356.216525 139.135009 
L 355.594302 129.523569 
L 355.036657 127.662979 
L 354.426445 126.977086 
L 353.858512 124.564847 
L 353.2726 123.047176 
L 352.673295 119.786783 
L 352.096638 119.465969 
L 351.504981 119.449735 
L 350.924893 118.043447 
L 350.341127 114.297872 
L 349.760414 116.263398 
L 349.163108 121.631097 
L 348.577558 123.557273 
L 348.001015 124.840384 
L 347.424721 127.776816 
L 346.826582 125.530622 
L 346.233677 135.515656 
L 345.666707 133.447171 
L 345.065564 127.830219 
L 344.492642 132.190984 
L 343.902832 130.264956 
L 343.304698 133.570462 
L 342.736415 136.500391 
L 342.133074 135.686011 
L 341.571085 135.513486 
L 340.960799 135.656367 
L 340.402448 124.249344 
L 339.806416 126.002752 
L 339.218671 126.671351 
L 338.640485 118.543176 
L 338.047975 120.183786 
L 337.467608 121.22058 
L 336.869197 122.053764 
L 336.287006 120.716393 
L 335.706568 122.159562 
L 335.137196 118.985351 
L 334.535152 121.884975 
L 333.935927 124.708153 
L 333.381037 130.853416 
L 332.778139 132.345797 
L 332.199604 129.779232 
L 331.60878 130.296109 
L 331.011445 114.766029 
L 330.434951 114.537324 
L 329.842634 118.426836 
L 329.280766 134.061418 
L 328.686572 135.692744 
L 328.070449 137.0306 
L 327.519552 137.731975 
L 326.920888 138.21232 
L 326.341002 137.241101 
L 325.759011 137.541681 
L 325.167979 135.408788 
L 324.58427 136.136623 
L 323.99148 134.096914 
L 323.401162 129.476802 
L 322.821162 123.835009 
L 322.235044 126.688447 
L 321.657304 120.994696 
L 321.07378 120.500637 
L 320.490145 119.022837 
L 319.894487 122.654139 
L 319.315831 122.956002 
L 318.726218 123.329841 
L 318.142296 123.579987 
L 317.553907 122.398792 
L 316.981872 120.866256 
L 316.38367 122.950987 
L 315.80061 120.772643 
L 315.211128 123.81009 
L 314.625873 124.317936 
L 314.043861 123.637815 
L 313.456343 122.762805 
L 312.901271 118.036101 
L 312.274239 118.417956 
L 311.704599 121.755031 
L 311.125262 120.420923 
L 310.52558 119.750453 
L 309.951755 122.529112 
L 309.346973 123.232028 
L 308.781994 126.641123 
L 308.18437 127.172253 
L 307.598309 125.483776 
L 307.033889 125.319853 
L 306.431915 127.166577 
L 305.869315 126.843681 
L 305.265967 123.47228 
L 304.67348 121.214576 
L 304.085259 119.207574 
L 303.499444 121.540224 
L 302.928403 120.717504 
L 302.347175 125.913603 
L 301.722366 129.527278 
L 301.189162 129.074863 
L 300.547959 119.41523 
L 299.998992 115.731373 
L 299.411927 113.274401 
L 298.826578 108.577691 
L 298.23489 108.139962 
L 297.651074 113.20797 
L 297.072625 118.621813 
L 296.484171 119.9629 
L 295.905411 115.448155 
L 295.316576 114.295514 
L 294.716927 114.763046 
L 294.139904 116.634325 
L 293.560738 116.49513 
L 292.967503 120.01523 
L 292.388351 116.680719 
L 291.804236 119.900678 
L 291.2041 121.697871 
L 290.636226 121.710191 
L 290.035673 120.796128 
L 289.455737 120.720971 
L 288.877801 120.962432 
L 288.288445 120.962222 
L 287.704278 120.376108 
L 287.126453 118.057153 
L 286.518038 116.039684 
L 285.939415 107.874009 
L 285.368191 109.775435 
L 284.784157 110.641622 
L 284.196409 114.426367 
L 283.601595 120.019583 
L 283.01618 117.309877 
L 282.433277 113.516169 
L 281.851888 113.42186 
L 281.306447 111.947071 
L 280.677002 108.754074 
L 280.106943 106.324554 
L 279.474671 108.535569 
L 278.92517 108.602866 
L 278.314247 110.473065 
L 277.736752 111.102083 
L 277.177563 112.704882 
L 276.585927 109.001088 
L 275.980281 112.312271 
L 275.421694 107.845529 
L 274.818501 113.497939 
L 274.252854 114.415314 
L 273.654564 109.986258 
L 273.059464 113.431782 
L 272.483208 115.738519 
L 271.877761 116.831368 
L 271.311491 115.764658 
L 270.721033 117.23899 
L 270.119783 113.288067 
L 269.554294 113.777997 
L 268.978894 115.654589 
L 268.379192 114.750087 
L 267.789765 115.032455 
L 267.203376 114.368531 
L 266.64333 114.026788 
L 266.010964 115.216744 
L 265.458868 117.232732 
L 264.870209 116.125646 
L 264.287441 112.066615 
L 263.723241 111.300503 
L 263.123212 117.99871 
L 262.526197 122.646774 
L 261.946096 121.533681 
L 261.360878 118.029618 
L 260.771473 119.96202 
L 260.183973 118.603865 
L 259.598042 120.210152 
L 259.005158 118.592649 
L 258.440231 121.189493 
L 257.852918 120.802868 
L 257.271469 115.869149 
L 256.671935 121.156737 
L 256.088654 116.195331 
L 255.494256 115.724266 
L 254.912779 121.117872 
L 254.331145 121.716973 
L 253.762121 119.028516 
L 253.161647 118.697675 
L 252.576392 120.079629 
L 251.99755 122.84142 
L 251.420501 124.998862 
L 250.82069 114.430234 
L 250.233307 124.265444 
L 249.648645 126.601834 
L 249.062428 124.426346 
L 248.486776 120.481269 
L 247.882306 108.780839 
L 247.30365 110.127524 
L 246.726583 111.199378 
L 246.134803 109.567466 
L 245.545095 113.481641 
L 244.990572 104.41747 
L 244.382189 104.595426 
L 243.785467 106.422166 
L 243.213356 112.987772 
L 242.672863 109.186225 
L 242.003511 102.19136 
L 241.434283 99.841332 
L 240.868276 109.017603 
L 240.280836 107.384821 
L 239.700348 107.831313 
L 239.108641 107.244196 
L 238.530198 107.399014 
L 237.933002 106.32457 
L 237.351163 104.854136 
L 236.781104 105.182871 
L 236.186322 104.568398 
L 235.598424 112.279062 
L 235.013279 111.901747 
L 234.420595 110.980191 
L 233.84251 113.493886 
L 233.243795 112.363217 
L 232.68273 110.414207 
L 232.098166 109.605765 
L 231.495942 109.943824 
L 230.920798 113.030096 
L 230.347248 108.664145 
L 229.7386 114.881499 
L 229.197781 116.050677 
L 228.571174 113.150841 
L 227.989523 105.295406 
L 227.407656 109.785787 
L 226.823487 103.847461 
L 226.204822 108.580679 
L 225.629935 114.660485 
L 225.084274 115.680838 
L 224.504976 115.915635 
L 223.922691 111.872073 
L 223.311473 113.715948 
L 222.67272 104.424736 
L 222.119068 106.57514 
L 221.553198 109.434544 
L 220.989482 107.265263 
L 220.389 110.862193 
L 219.82513 109.705391 
L 219.204305 106.608066 
L 218.625525 110.247917 
L 218.085713 107.751467 
L 217.44935 106.161127 
L 216.86608 109.171375 
L 216.293892 111.0911 
L 215.703276 112.572473 
L 215.11227 113.916316 
L 214.52657 115.970222 
L 213.927376 116.605184 
L 213.369482 116.565238 
L 212.771986 115.113014 
L 212.186297 118.87626 
L 211.602772 121.890883 
L 211.056474 117.899136 
L 210.434476 111.848134 
L 209.844868 110.526334 
L 209.259399 116.369746 
L 208.674308 119.502546 
L 208.088604 115.949481 
L 207.503207 118.46749 
L 206.917912 114.988033 
L 206.331188 116.364907 
L 205.74713 114.382221 
L 205.16169 112.681323 
L 204.577858 114.864819 
L 203.990936 114.812921 
L 203.405426 111.442944 
L 202.818083 114.71548 
L 202.234938 113.896245 
L 201.648028 113.161353 
L 201.061087 111.087147 
L 200.477825 109.770908 
L 199.891931 105.098999 
L 199.309166 107.80253 
L 198.72139 105.516893 
L 198.136606 104.447013 
L 197.551351 106.335615 
L 196.965908 105.524111 
L 196.380268 107.780352 
L 195.795077 105.773392 
L 195.209735 107.03991 
L 194.624057 109.627217 
L 194.038641 110.455178 
L 193.453366 110.162676 
L 192.86804 103.24908 
L 192.282614 105.761632 
L 191.697107 103.393148 
L 191.111773 104.990866 
L 190.526252 103.51249 
L 189.940724 105.718726 
L 189.355149 104.636926 
L 188.769742 100.640641 
L 188.184253 102.034081 
L 187.598577 100.268656 
L 187.013128 96.678855 
L 186.427599 99.450647 
L 185.842068 97.942585 
L 185.256457 98.38011 
L 184.670502 96.528219 
L 184.084487 97.056376 
L 183.498477 100.162373 
L 182.911842 101.825361 
L 182.322546 101.580421 
L 181.725608 98.821603 
L 181.247421 107.127109 
L 180.574811 97.67445 
L 179.989456 93.954448 
L 179.404087 95.824735 
L 178.818685 94.888312 
L 178.233242 96.270313 
L 177.647763 103.732501 
L 177.062267 103.214811 
L 176.476987 100.904465 
L 175.891576 103.437358 
L 175.306639 101.598354 
L 174.720853 101.382795 
L 174.135545 102.846654 
L 173.550123 93.683613 
L 172.964563 99.328434 
L 172.379052 101.953697 
L 171.793623 107.666101 
L 171.208162 112.481814 
L 170.622638 116.162732 
L 170.037454 116.762362 
L 169.452039 113.884037 
L 168.86646 112.218337 
L 168.281045 111.323188 
L 167.69569 109.843973 
L 167.11022 112.35245 
L 166.524736 113.2254 
L 165.939294 108.191536 
L 165.353787 109.506579 
L 164.76828 112.788412 
L 164.182746 116.452659 
L 163.597259 109.506527 
L 163.011778 104.301167 
L 162.426105 105.309723 
L 161.840529 106.287256 
L 161.254927 105.969026 
L 160.669158 104.283692 
L 160.083389 109.317735 
L 159.49756 111.471815 
L 158.911519 114.317647 
L 158.308886 117.918398 
L 157.738598 110.085557 
L 157.147847 104.21976 
L 156.560016 103.811466 
L 155.951421 115.627827 
L 155.599469 109.382541 
z
" clip-path="url(#pfa9aff6226)" style="fill: #add8e6; stroke: #add8e6"/>
   </g>
   <g id="line2d_119">
    <path d="M 155.599469 115.784495 
L 155.951421 122.187026 
L 156.560016 111.272962 
L 157.147847 112.875512 
L 158.308886 125.533918 
L 158.911519 123.338892 
L 159.49756 123.104447 
L 160.083389 121.500836 
L 160.669158 117.388714 
L 161.254927 117.902761 
L 161.840529 119.051057 
L 162.426105 118.289496 
L 163.011778 116.354761 
L 164.182746 126.8422 
L 165.353787 120.860487 
L 165.939294 119.729561 
L 166.524736 124.505348 
L 167.11022 124.210523 
L 167.69569 123.606217 
L 168.86646 125.168498 
L 169.452039 126.429941 
L 170.037454 129.026718 
L 170.622638 128.554772 
L 171.793623 122.316668 
L 172.379052 119.610229 
L 172.964563 117.615492 
L 173.550123 112.556841 
L 174.135545 116.884891 
L 174.720853 116.305067 
L 175.306639 116.792906 
L 175.891576 117.875644 
L 176.476987 115.731833 
L 177.647763 117.864291 
L 178.233242 112.346289 
L 178.818685 111.671908 
L 179.989456 113.821965 
L 180.574811 117.153408 
L 181.247421 117.948465 
L 181.725608 110.625278 
L 182.322546 112.625359 
L 182.911842 113.857955 
L 183.498477 112.846876 
L 184.084487 108.827098 
L 184.670502 108.52279 
L 185.256457 110.401375 
L 185.842068 110.346295 
L 186.427599 111.798516 
L 187.013128 111.012731 
L 187.598577 115.356482 
L 188.184253 115.938567 
L 188.769742 115.950461 
L 189.355149 120.931739 
L 189.940724 123.559645 
L 190.526252 122.139172 
L 191.111773 122.46698 
L 191.697107 121.082036 
L 192.282614 121.807177 
L 192.86804 120.775619 
L 193.453366 123.908293 
L 194.624057 123.575891 
L 195.209735 120.90174 
L 195.795077 121.145162 
L 196.380268 122.329175 
L 196.965908 120.707612 
L 197.551351 121.282004 
L 198.136606 119.610519 
L 198.72139 120.604737 
L 199.309166 122.028858 
L 199.891931 120.59869 
L 200.477825 123.802582 
L 201.061087 124.502759 
L 201.648028 126.333937 
L 202.234938 125.610269 
L 202.818083 128.181904 
L 203.405426 126.132757 
L 203.990936 128.927497 
L 204.577858 129.664564 
L 205.16169 125.194844 
L 206.331188 128.701128 
L 206.917912 128.8297 
L 207.503207 131.048347 
L 208.088604 130.613686 
L 208.674308 131.770251 
L 209.259399 130.392205 
L 209.844868 127.313608 
L 210.434476 127.236991 
L 211.056474 130.930304 
L 211.602772 132.992771 
L 212.771986 126.765613 
L 213.369482 130.687011 
L 213.927376 131.879402 
L 214.52657 127.26465 
L 215.11227 125.791255 
L 215.703276 124.802686 
L 216.293892 123.09438 
L 216.86608 121.818822 
L 217.44935 119.194714 
L 218.085713 120.618198 
L 218.625525 122.099684 
L 219.204305 120.18713 
L 219.82513 124.003683 
L 220.989482 120.35554 
L 221.553198 122.317058 
L 222.67272 116.761202 
L 223.311473 124.944695 
L 223.922691 127.573046 
L 224.504976 131.477276 
L 225.084274 130.899427 
L 225.629935 130.609617 
L 226.823487 118.043842 
L 227.407656 122.868236 
L 227.989523 120.616921 
L 228.571174 127.003001 
L 229.197781 130.423822 
L 229.7386 130.655833 
L 230.347248 125.33451 
L 230.920798 129.188879 
L 231.495942 127.157751 
L 232.098166 124.39806 
L 232.68273 124.774559 
L 233.243795 125.965743 
L 233.84251 127.525015 
L 234.420595 124.727593 
L 235.598424 125.24641 
L 236.186322 119.409272 
L 236.781104 118.231599 
L 237.351163 118.006881 
L 237.933002 119.484732 
L 238.530198 120.487662 
L 239.108641 119.084088 
L 240.280836 120.777352 
L 240.868276 122.395297 
L 241.434283 113.12518 
L 242.003511 116.905962 
L 242.672863 123.895038 
L 243.213356 127.882298 
L 243.785467 120.030032 
L 244.382189 119.86737 
L 244.990572 117.593103 
L 245.545095 126.782635 
L 246.134803 121.798069 
L 246.726583 126.516941 
L 247.30365 126.004641 
L 247.882306 125.980076 
L 248.486776 133.685916 
L 249.062428 136.729931 
L 249.648645 138.646601 
L 250.233307 139.22287 
L 250.82069 129.761608 
L 251.420501 138.167054 
L 251.99755 136.660056 
L 252.576392 133.367859 
L 253.161647 131.77896 
L 253.762121 133.559179 
L 254.331145 135.722042 
L 254.912779 134.586455 
L 255.494256 131.51267 
L 256.088654 131.894291 
L 256.671935 135.953141 
L 257.271469 131.327237 
L 257.852918 137.189304 
L 258.440231 134.528494 
L 259.005158 132.754683 
L 259.598042 133.924569 
L 260.183973 132.823992 
L 260.771473 133.807779 
L 261.360878 130.93268 
L 261.946096 134.836485 
L 262.526197 137.418366 
L 263.123212 134.707529 
L 263.723241 124.898382 
L 264.287441 124.137639 
L 264.870209 128.248628 
L 265.458868 128.164534 
L 266.010964 127.722239 
L 266.64333 126.561609 
L 267.203376 128.114129 
L 267.789765 128.607594 
L 268.379192 128.789404 
L 268.978894 128.520813 
L 269.554294 127.213635 
L 270.119783 125.066482 
L 270.721033 130.312352 
L 271.311491 128.231226 
L 271.877761 128.220634 
L 273.059464 126.459307 
L 273.654564 122.895035 
L 274.252854 126.643243 
L 274.818501 125.69769 
L 275.421694 121.281838 
L 275.980281 125.348411 
L 276.585927 122.506492 
L 277.177563 128.134924 
L 277.736752 127.352914 
L 278.314247 128.432011 
L 278.92517 123.95536 
L 279.474671 123.66501 
L 280.106943 120.653395 
L 280.677002 121.985524 
L 281.306447 127.834346 
L 281.851888 130.01197 
L 282.433277 130.801256 
L 283.01618 134.062449 
L 283.601595 135.981599 
L 284.196409 129.527644 
L 284.784157 125.235339 
L 285.368191 123.745314 
L 285.939415 121.564359 
L 286.518038 129.074673 
L 287.704278 133.213207 
L 288.288445 133.373499 
L 288.877801 132.598234 
L 289.455737 133.337943 
L 290.035673 132.166373 
L 291.2041 132.711674 
L 291.804236 131.04567 
L 292.388351 127.291312 
L 292.967503 130.524754 
L 293.560738 127.924292 
L 294.139904 128.795632 
L 294.716927 126.522428 
L 295.316576 126.518074 
L 295.905411 129.015268 
L 296.484171 130.577015 
L 297.072625 129.408704 
L 297.651074 129.00468 
L 298.23489 127.599487 
L 298.826578 127.674209 
L 299.411927 130.909105 
L 300.547959 134.910328 
L 301.189162 142.202011 
L 301.722366 140.778873 
L 302.928403 133.53313 
L 303.499444 137.188176 
L 304.085259 132.044495 
L 305.869315 141.805936 
L 306.431915 143.043175 
L 307.033889 140.947186 
L 307.598309 140.069301 
L 308.18437 142.524729 
L 308.781994 141.210355 
L 309.346973 137.978318 
L 309.951755 136.831905 
L 310.52558 134.794201 
L 311.704599 136.340537 
L 312.274239 133.820193 
L 312.901271 135.430768 
L 313.456343 139.863815 
L 314.043861 139.836489 
L 314.625873 139.140968 
L 315.211128 138.985967 
L 315.80061 136.60766 
L 316.38367 138.490259 
L 316.981872 136.515932 
L 317.553907 139.274125 
L 318.142296 140.458987 
L 318.726218 140.829822 
L 319.315831 139.958906 
L 319.894487 140.379061 
L 320.490145 139.556325 
L 321.07378 140.643051 
L 321.657304 141.070528 
L 322.235044 147.478937 
L 322.821162 144.210649 
L 323.401162 149.917379 
L 324.58427 154.211102 
L 325.167979 153.250858 
L 326.341002 155.771231 
L 326.920888 156.065527 
L 327.519552 154.783 
L 328.070449 152.963478 
L 328.686572 150.351546 
L 329.280766 150.10284 
L 329.842634 143.542331 
L 330.434951 138.841246 
L 331.011445 139.580343 
L 331.60878 149.823496 
L 332.199604 150.983699 
L 332.778139 148.122647 
L 333.381037 147.436854 
L 333.935927 140.995382 
L 334.535152 139.371076 
L 335.137196 135.304893 
L 335.706568 138.987652 
L 336.287006 139.620551 
L 336.869197 141.924958 
L 337.467608 141.181395 
L 338.047975 140.95216 
L 338.640485 139.355599 
L 339.218671 145.128276 
L 339.806416 145.988287 
L 340.402448 145.062789 
L 340.960799 152.793467 
L 341.571085 152.790485 
L 342.736415 154.265058 
L 343.304698 149.829924 
L 343.902832 148.814509 
L 344.492642 150.437883 
L 345.065564 149.165779 
L 345.666707 152.273582 
L 346.233677 153.079462 
L 346.826582 147.238179 
L 347.424721 148.643828 
L 348.001015 146.505743 
L 348.577558 145.602438 
L 349.163108 146.910685 
L 349.760414 141.86715 
L 350.341127 138.395966 
L 350.924893 140.624932 
L 351.504981 141.305635 
L 352.673295 139.640475 
L 353.2726 141.919928 
L 353.858512 143.141206 
L 354.426445 144.752556 
L 355.036657 144.952339 
L 355.594302 145.920082 
L 356.216525 153.293242 
L 357.353655 149.769943 
L 357.95089 146.611272 
L 358.521467 147.186456 
L 359.127209 153.218906 
L 359.71703 153.728391 
L 360.295447 156.703391 
L 360.879376 156.786585 
L 361.462674 157.422192 
L 362.045626 157.753882 
L 362.6321 157.063346 
L 363.219866 156.83803 
L 363.801388 156.208667 
L 364.396099 156.022233 
L 364.974529 158.40061 
L 365.56036 159.054939 
L 366.143369 160.476886 
L 366.733585 160.728598 
L 367.31671 161.302245 
L 367.895489 159.647093 
L 368.483662 159.386997 
L 369.071227 160.492262 
L 369.660738 160.072055 
L 370.23872 159.823037 
L 371.422633 158.494588 
L 371.99947 159.377838 
L 372.579327 156.353283 
L 373.746471 158.606976 
L 374.340936 158.735808 
L 374.927218 161.785719 
L 375.517784 159.691692 
L 376.701585 158.410115 
L 377.241055 157.630813 
L 377.852081 157.45013 
L 378.438207 158.675326 
L 379.609091 157.127791 
L 380.18781 159.039885 
L 380.78526 157.943714 
L 381.364563 156.254026 
L 381.952249 162.294049 
L 382.536903 163.310679 
L 383.120787 161.830912 
L 383.705903 159.810113 
L 384.292723 161.601634 
L 384.878164 160.677481 
L 386.051872 160.571962 
L 386.641589 163.311687 
L 387.219093 158.709053 
L 387.779529 151.582289 
L 388.390596 155.065941 
L 388.976321 159.929354 
L 389.561447 165.829744 
L 390.143142 159.640238 
L 390.715393 158.037841 
L 391.903175 162.43266 
L 392.48842 162.097106 
L 393.07337 164.385954 
L 393.659099 163.740931 
L 394.188024 163.471559 
L 394.830006 171.141542 
L 395.415186 172.432294 
L 396.000659 171.912318 
L 396.586425 173.258132 
L 397.171455 176.244759 
L 397.756521 170.788495 
L 398.342133 169.574306 
L 398.927769 171.676514 
L 399.513182 175.978344 
L 400.098625 177.541159 
L 400.6841 178.06679 
L 401.174359 177.766834 
L 401.174359 177.766834 
" clip-path="url(#pfa9aff6226)" style="fill: none; stroke: #1f77b4; stroke-width: 1.5; stroke-linecap: square"/>
   </g>
   <g id="line2d_120">
    <path d="M 69.458167 34.26236 
L 69.927106 29.999881 
L 70.161533 30.278032 
L 70.630556 31.894316 
L 72.505301 43.133128 
L 73.443516 47.079868 
L 74.380888 49.989179 
L 75.318261 52.327153 
L 77.192165 56.048365 
L 79.769519 60.446161 
L 83.51901 66.362512 
L 87.735504 72.541979 
L 91.250231 77.315655 
L 94.529353 81.46537 
L 98.04408 85.577498 
L 102.026651 89.8926 
L 106.477068 94.312949 
L 111.865699 99.176836 
L 115.613507 102.29664 
L 120.533451 106.100546 
L 125.687318 109.776652 
L 132.01248 113.91885 
L 138.571565 117.797931 
L 142.554137 119.978035 
L 153.09411 125.285461 
L 167.853102 131.765632 
L 184.252917 137.930064 
L 194.325046 141.350572 
L 197.606692 142.282754 
L 199.945916 142.54587 
L 222.909023 144.635763 
L 229.228295 145.161995 
L 236.489988 145.748368 
L 244.694103 146.379846 
L 249.372552 146.733174 
L 254.295021 147.094018 
L 274.910489 148.514845 
L 278.654931 148.762926 
L 295.761562 149.837942 
L 295.761562 149.837942 
" clip-path="url(#pfa9aff6226)" style="fill: none; stroke: #000000; stroke-width: 2.5; stroke-linecap: square"/>
   </g>
   <g id="line2d_121">
    <path d="M 69.458167 74.113158 
L 70.161533 66.152019 
L 70.630556 63.160014 
L 71.334006 61.085157 
L 72.036615 59.995105 
L 72.740065 59.22831 
L 73.208752 58.950158 
L 73.443516 58.867465 
L 73.677438 59.017817 
L 74.146124 59.626742 
L 75.083497 62.528536 
L 78.364302 73.38395 
L 80.004283 77.691535 
L 81.644265 81.284948 
L 83.050324 83.953696 
L 85.158991 87.359169 
L 86.798973 89.652037 
L 88.672877 91.967458 
L 90.781545 94.252808 
L 92.890213 96.275042 
L 95.466725 98.462664 
L 98.980611 101.041201 
L 101.323201 102.567274 
L 104.134478 104.236181 
L 107.414441 106.002817 
L 109.523109 107.002658 
L 111.630935 107.566478 
L 114.910898 108.295685 
L 120.064765 109.190279 
L 129.66989 110.317919 
L 135.526366 110.776493 
L 145.13065 111.28769 
L 164.10866 111.791369 
L 172.068755 111.896615 
L 182.140884 112.107108 
L 186.592142 112.212354 
L 237.43241 113.941402 
L 241.176852 114.084237 
L 258.510674 114.745786 
L 262.961932 114.91869 
L 280.531359 115.587757 
L 284.982617 115.760662 
L 295.997167 116.17413 
L 295.997167 116.17413 
" clip-path="url(#pfa9aff6226)" style="fill: none; stroke-dasharray: 9.25,4; stroke-dashoffset: 0; stroke: #8b0000; stroke-width: 2.5"/>
   </g>
   <g id="legend_1">
    <g id="line2d_122">
     <path d="M 330.516418 29.694438 
L 340.516418 29.694438 
L 350.516418 29.694438 
" style="fill: none; stroke: #1f77b4; stroke-width: 1.5; stroke-linecap: square"/>
    </g>
    <g id="text_14">
     <!-- PSP -->
     <g transform="translate(358.516418 33.194438) scale(0.1 -0.1)">
      <defs>
       <path id="DejaVuSans-50" d="M 1259 4147 
L 1259 2394 
L 2053 2394 
Q 2494 2394 2734 2622 
Q 2975 2850 2975 3272 
Q 2975 3691 2734 3919 
Q 2494 4147 2053 4147 
L 1259 4147 
z
M 628 4666 
L 2053 4666 
Q 2838 4666 3239 4311 
Q 3641 3956 3641 3272 
Q 3641 2581 3239 2228 
Q 2838 1875 2053 1875 
L 1259 1875 
L 1259 0 
L 628 0 
L 628 4666 
z
" transform="scale(0.015625)"/>
       <path id="DejaVuSans-53" d="M 3425 4513 
L 3425 3897 
Q 3066 4069 2747 4153 
Q 2428 4238 2131 4238 
Q 1616 4238 1336 4038 
Q 1056 3838 1056 3469 
Q 1056 3159 1242 3001 
Q 1428 2844 1947 2747 
L 2328 2669 
Q 3034 2534 3370 2195 
Q 3706 1856 3706 1288 
Q 3706 609 3251 259 
Q 2797 -91 1919 -91 
Q 1588 -91 1214 -16 
Q 841 59 441 206 
L 441 856 
Q 825 641 1194 531 
Q 1563 422 1919 422 
Q 2459 422 2753 634 
Q 3047 847 3047 1241 
Q 3047 1584 2836 1778 
Q 2625 1972 2144 2069 
L 1759 2144 
Q 1053 2284 737 2584 
Q 422 2884 422 3419 
Q 422 4038 858 4394 
Q 1294 4750 2059 4750 
Q 2388 4750 2728 4690 
Q 3069 4631 3425 4513 
z
" transform="scale(0.015625)"/>
      </defs>
      <use xlink:href="#DejaVuSans-50"/>
      <use xlink:href="#DejaVuSans-53" x="60.302734"/>
      <use xlink:href="#DejaVuSans-50" x="123.779297"/>
     </g>
    </g>
    <g id="line2d_123">
     <path d="M 330.516418 44.372563 
L 340.516418 44.372563 
L 350.516418 44.372563 
" style="fill: none; stroke: #000000; stroke-width: 2.5; stroke-linecap: square"/>
    </g>
    <g id="text_15">
     <!-- Slow wind -->
     <g transform="translate(358.516418 47.872563) scale(0.1 -0.1)">
      <defs>
       <path id="DejaVuSans-6c" d="M 603 4863 
L 1178 4863 
L 1178 0 
L 603 0 
L 603 4863 
z
" transform="scale(0.015625)"/>
       <path id="DejaVuSans-6f" d="M 1959 3097 
Q 1497 3097 1228 2736 
Q 959 2375 959 1747 
Q 959 1119 1226 758 
Q 1494 397 1959 397 
Q 2419 397 2687 759 
Q 2956 1122 2956 1747 
Q 2956 2369 2687 2733 
Q 2419 3097 1959 3097 
z
M 1959 3584 
Q 2709 3584 3137 3096 
Q 3566 2609 3566 1747 
Q 3566 888 3137 398 
Q 2709 -91 1959 -91 
Q 1206 -91 779 398 
Q 353 888 353 1747 
Q 353 2609 779 3096 
Q 1206 3584 1959 3584 
z
" transform="scale(0.015625)"/>
       <path id="DejaVuSans-77" d="M 269 3500 
L 844 3500 
L 1563 769 
L 2278 3500 
L 2956 3500 
L 3675 769 
L 4391 3500 
L 4966 3500 
L 4050 0 
L 3372 0 
L 2619 2869 
L 1863 0 
L 1184 0 
L 269 3500 
z
" transform="scale(0.015625)"/>
       <path id="DejaVuSans-64" d="M 2906 2969 
L 2906 4863 
L 3481 4863 
L 3481 0 
L 2906 0 
L 2906 525 
Q 2725 213 2448 61 
Q 2172 -91 1784 -91 
Q 1150 -91 751 415 
Q 353 922 353 1747 
Q 353 2572 751 3078 
Q 1150 3584 1784 3584 
Q 2172 3584 2448 3432 
Q 2725 3281 2906 2969 
z
M 947 1747 
Q 947 1113 1208 752 
Q 1469 391 1925 391 
Q 2381 391 2643 752 
Q 2906 1113 2906 1747 
Q 2906 2381 2643 2742 
Q 2381 3103 1925 3103 
Q 1469 3103 1208 2742 
Q 947 2381 947 1747 
z
" transform="scale(0.015625)"/>
      </defs>
      <use xlink:href="#DejaVuSans-53"/>
      <use xlink:href="#DejaVuSans-6c" x="63.476562"/>
      <use xlink:href="#DejaVuSans-6f" x="91.259766"/>
      <use xlink:href="#DejaVuSans-77" x="152.441406"/>
      <use xlink:href="#DejaVuSans-20" x="234.228516"/>
      <use xlink:href="#DejaVuSans-77" x="266.015625"/>
      <use xlink:href="#DejaVuSans-69" x="347.802734"/>
      <use xlink:href="#DejaVuSans-6e" x="375.585938"/>
      <use xlink:href="#DejaVuSans-64" x="438.964844"/>
     </g>
    </g>
    <g id="line2d_124">
     <path d="M 330.516418 59.050688 
L 340.516418 59.050688 
L 350.516418 59.050688 
" style="fill: none; stroke-dasharray: 9.25,4; stroke-dashoffset: 0; stroke: #8b0000; stroke-width: 2.5"/>
    </g>
    <g id="text_16">
     <!-- Fast wind -->
     <g transform="translate(358.516418 62.550688) scale(0.1 -0.1)">
      <defs>
       <path id="DejaVuSans-46" d="M 628 4666 
L 3309 4666 
L 3309 4134 
L 1259 4134 
L 1259 2759 
L 3109 2759 
L 3109 2228 
L 1259 2228 
L 1259 0 
L 628 0 
L 628 4666 
z
" transform="scale(0.015625)"/>
      </defs>
      <use xlink:href="#DejaVuSans-46"/>
      <use xlink:href="#DejaVuSans-61" x="48.394531"/>
      <use xlink:href="#DejaVuSans-73" x="109.673828"/>
      <use xlink:href="#DejaVuSans-74" x="161.773438"/>
      <use xlink:href="#DejaVuSans-20" x="200.982422"/>
      <use xlink:href="#DejaVuSans-77" x="232.769531"/>
      <use xlink:href="#DejaVuSans-69" x="314.556641"/>
      <use xlink:href="#DejaVuSans-6e" x="342.339844"/>
      <use xlink:href="#DejaVuSans-64" x="405.71875"/>
     </g>
    </g>
   </g>
  </g>
 </g>
 <defs>
  <clipPath id="pfa9aff6226">
   <rect x="52.872357" y="16.596" width="364.887811" height="225.528"/>
  </clipPath>
 </defs>
</svg>
