<?xml version="1.0" encoding="utf-8" standalone="no"?>
<!DOCTYPE svg PUBLIC "-//W3C//DTD SVG 1.1//EN"
  "http://www.w3.org/Graphics/SVG/1.1/DTD/svg11.dtd">
<svg xmlns:xlink="http://www.w3.org/1999/xlink" width="432pt" height="288pt" viewBox="0 0 432 288" xmlns="http://www.w3.org/2000/svg" version="1.1">
 <metadata>
  <rdf:RDF xmlns:dc="http://purl.org/dc/elements/1.1/" xmlns:cc="http://creativecommons.org/ns#" xmlns:rdf="http://www.w3.org/1999/02/22-rdf-syntax-ns#">
   <cc:Work>
    <dc:type rdf:resource="http://purl.org/dc/dcmitype/StillImage"/>
    <dc:date>2022-12-12T11:52:26.119524</dc:date>
    <dc:format>image/svg+xml</dc:format>
    <dc:creator>
     <cc:Agent>
      <dc:title>Matplotlib v3.6.1, https://matplotlib.org/</dc:title>
     </cc:Agent>
    </dc:creator>
   </cc:Work>
  </rdf:RDF>
 </metadata>
 <defs>
  <style type="text/css">*{stroke-linejoin: round; stroke-linecap: butt}</style>
 </defs>
 <g id="figure_1">
  <g id="patch_1">
   <path d="M 0 288 
L 432 288 
L 432 0 
L 0 0 
z
" style="fill: #ffffff"/>
  </g>
  <g id="axes_1">
   <g id="patch_2">
    <path d="M 52.872357 242.124 
L 421.2 242.124 
L 421.2 16.596 
L 52.872357 16.596 
z
" style="fill: #ffffff"/>
   </g>
   <g id="patch_3">
    <path d="M 52.872357 242.124 
L 52.872357 16.596 
" style="fill: none; stroke: #000000; stroke-width: 1.5; stroke-linejoin: miter; stroke-linecap: square"/>
   </g>
   <g id="patch_4">
    <path d="M 421.2 242.124 
L 421.2 16.596 
" style="fill: none; stroke: #000000; stroke-width: 1.5; stroke-linejoin: miter; stroke-linecap: square"/>
   </g>
   <g id="patch_5">
    <path d="M 52.872357 242.124 
L 421.2 242.124 
" style="fill: none; stroke: #000000; stroke-width: 1.5; stroke-linejoin: miter; stroke-linecap: square"/>
   </g>
   <g id="patch_6">
    <path d="M 52.872357 16.596 
L 421.2 16.596 
" style="fill: none; stroke: #000000; stroke-width: 1.5; stroke-linejoin: miter; stroke-linecap: square"/>
   </g>
   <g id="PolyCollection_1">
    <path d="M 196.939606 109.595282 
L 196.939606 124.184092 
L 197.445592 129.453679 
L 198.35122 122.47718 
L 199.235778 128.315569 
L 200.115353 134.966254 
L 200.969234 135.742436 
L 201.826788 135.816884 
L 202.679416 143.5857 
L 203.591978 143.815131 
L 204.42264 146.02049 
L 205.289502 141.920374 
L 206.197873 144.270183 
L 207.024811 140.942092 
L 207.877658 138.681294 
L 208.793306 146.768063 
L 209.614821 143.690285 
L 210.474454 144.442836 
L 211.343876 142.11184 
L 212.202007 144.682123 
L 213.107708 147.881304 
L 213.960088 147.88363 
L 214.802299 151.794427 
L 215.729569 152.981859 
L 216.518702 151.48446 
L 217.416344 153.164878 
L 218.282843 151.221279 
L 219.155049 152.96779 
L 220.011063 150.327557 
L 220.858926 158.640874 
L 221.763169 170.715922 
L 222.593807 176.48715 
L 223.483722 189.151401 
L 224.308872 142.887423 
L 225.208255 128.415611 
L 226.079853 132.054619 
L 226.899093 130.940985 
L 227.796099 143.363852 
L 228.656003 141.815321 
L 229.582347 137.937378 
L 230.400161 141.450362 
L 231.235937 171.361789 
L 232.117162 168.168378 
L 233.017882 190.044022 
L 233.827353 75718.828 
L 234.844477 137.177793 
L 235.510323 130.212687 
L 236.442789 134.9432 
L 237.315585 147.667079 
L 238.176307 139.908954 
L 239.072818 138.807229 
L 239.904403 135.010059 
L 240.776349 141.448894 
L 241.621443 149.671134 
L 242.456067 156.440345 
L 243.345614 150.188003 
L 244.211333 163.494117 
L 245.089113 146.3909 
L 245.970673 149.277509 
L 246.805169 163.467801 
L 247.698532 178.813819 
L 248.562286 162.009656 
L 249.448429 164.5611 
L 250.254084 169.177551 
L 251.220384 167.435605 
L 252.005651 173.065125 
L 252.890913 148.667833 
L 253.753106 153.39242 
L 254.601381 162.271521 
L 255.481816 151.109504 
L 256.36484 147.83849 
L 257.238382 155.346096 
L 258.075585 153.709759 
L 259.014783 162.9845 
L 259.820417 162.687786 
L 260.697734 150.827516 
L 261.459497 155.285864 
L 262.414851 149.003618 
L 263.277787 147.390099 
L 264.150786 147.300047 
L 265.006915 144.296471 
L 265.797085 148.425032 
L 266.746805 152.55556 
L 267.598613 149.256562 
L 268.489678 154.942457 
L 269.356309 166.328271 
L 270.211677 146.401148 
L 271.091898 156.880586 
L 271.924622 156.321762 
L 272.735968 157.035901 
L 273.747518 156.932628 
L 274.553515 163.865608 
L 275.376438 157.003697 
L 276.246792 168.311487 
L 277.109691 156.870302 
L 277.986053 153.788146 
L 278.917499 144.008871 
L 279.719235 143.967285 
L 280.61919 139.690855 
L 281.413501 143.139085 
L 282.313566 156.272353 
L 283.130042 162.106102 
L 284.037021 144.081834 
L 284.92984 148.363005 
L 285.797833 146.610505 
L 286.645502 150.534095 
L 287.467506 142.418251 
L 288.371093 152.45988 
L 289.217176 140.650172 
L 290.13887 137.318487 
L 290.939232 144.892583 
L 291.855874 142.606899 
L 292.72787 140.519841 
L 293.553159 136.119428 
L 294.42952 130.899997 
L 295.293266 131.78299 
L 296.138852 128.136856 
L 297.014163 137.290533 
L 297.894508 144.891992 
L 298.777624 144.686968 
L 299.652969 144.79514 
L 300.457817 143.864938 
L 301.31171 137.643261 
L 302.181124 128.404177 
L 303.050465 131.807016 
L 303.919524 146.222054 
L 304.76393 141.883925 
L 305.783523 145.376146 
L 306.523151 141.612618 
L 307.411973 162.931715 
L 308.265218 159.373918 
L 309.138494 157.781202 
L 310.002361 146.371504 
L 310.858046 150.435236 
L 311.714001 149.214061 
L 312.595184 148.33804 
L 313.407748 148.861539 
L 314.307481 150.553924 
L 315.182021 151.964048 
L 316.02435 151.729475 
L 316.940371 132.838002 
L 317.787862 143.314075 
L 318.600193 139.293185 
L 319.533644 137.459551 
L 320.37902 144.255927 
L 321.187536 138.998197 
L 322.168093 139.456854 
L 322.971105 155.376781 
L 323.820145 164.409551 
L 324.62469 174.682519 
L 325.658337 142.073387 
L 326.442313 143.738988 
L 327.294882 145.886751 
L 328.175731 156.064494 
L 329.044783 140.230558 
L 329.890267 148.515133 
L 330.752183 141.837161 
L 331.639218 149.157469 
L 332.506523 156.387258 
L 333.347323 171.275805 
L 334.223458 148.592707 
L 335.099366 144.650815 
L 335.962027 144.113681 
L 336.809613 156.810935 
L 337.678058 165.69001 
L 338.545073 149.152846 
L 339.433209 148.23814 
L 340.280233 147.299332 
L 341.125133 152.410945 
L 342.034598 153.090188 
L 342.847165 143.724518 
L 343.736591 143.847352 
L 344.592646 148.491296 
L 345.460106 154.732127 
L 346.293426 148.645664 
L 347.224705 146.472451 
L 348.05474 149.124502 
L 348.985487 144.498653 
L 349.822264 146.066502 
L 350.632098 143.916065 
L 351.544496 142.794586 
L 352.373664 142.763403 
L 353.34055 134.713334 
L 354.057635 146.013244 
L 355.003959 147.39014 
L 355.841675 149.648644 
L 356.736264 141.917315 
L 357.595393 137.486863 
L 358.464596 137.490925 
L 359.317576 132.812618 
L 360.14063 131.874566 
L 361.061221 129.039104 
L 361.9381 142.744404 
L 362.738087 137.400858 
L 363.619724 134.13099 
L 364.534315 137.918092 
L 365.351056 144.86896 
L 366.208446 134.946825 
L 367.089721 134.263926 
L 367.970089 131.493258 
L 368.831688 129.495144 
L 369.683708 135.130249 
L 370.538345 130.496749 
L 371.443477 130.010084 
L 372.317651 134.866091 
L 373.158251 132.855529 
L 374.044598 135.859879 
L 374.88301 131.10882 
L 375.784928 132.509885 
L 376.639946 159.924131 
L 377.473323 159.927418 
L 378.318047 170.019177 
L 379.240939 147.519498 
L 380.002256 138.094858 
L 381.016199 116.259336 
L 381.80636 130.141872 
L 382.747566 157.274821 
L 383.554662 167.122878 
L 384.413636 166.432197 
L 385.266549 173.017428 
L 386.126417 160.212696 
L 386.990181 153.45918 
L 387.893002 147.464036 
L 388.744024 146.38653 
L 389.57105 143.710156 
L 390.487232 149.709441 
L 391.330322 150.516762 
L 392.168911 152.871362 
L 393.058828 150.70056 
L 393.932074 150.603989 
L 394.805189 150.527976 
L 395.641194 146.220851 
L 396.529581 146.690265 
L 397.363681 143.199928 
L 398.264932 134.311522 
L 399.122471 139.575779 
L 399.980995 142.701723 
L 400.865851 143.69535 
L 401.690396 147.691743 
L 402.547793 147.516681 
L 403.464859 145.748313 
L 404.323192 157.992827 
L 404.323192 112.985328 
L 404.323192 112.985328 
L 403.464859 111.353017 
L 402.547793 106.751911 
L 401.690396 113.881263 
L 400.865851 116.143886 
L 399.980995 119.250594 
L 399.122471 112.909384 
L 398.264932 124.499603 
L 397.363681 125.434952 
L 396.529581 126.305949 
L 395.641194 128.01196 
L 394.805189 128.2754 
L 393.932074 124.943181 
L 393.058828 126.567239 
L 392.168911 121.172485 
L 391.330322 124.216062 
L 390.487232 119.246909 
L 389.57105 106.796871 
L 388.744024 103.419854 
L 387.893002 103.234168 
L 386.990181 106.915278 
L 386.126417 112.426905 
L 385.266549 106.611435 
L 384.413636 104.256681 
L 383.554662 101.848909 
L 382.747566 101.693015 
L 381.80636 99.008727 
L 381.016199 96.48497 
L 380.002256 100.046993 
L 379.240939 102.821742 
L 378.318047 108.724407 
L 377.473323 107.832723 
L 376.639946 109.144022 
L 375.784928 105.418366 
L 374.88301 102.427797 
L 374.044598 100.335618 
L 373.158251 107.050635 
L 372.317651 109.603465 
L 371.443477 108.745433 
L 370.538345 115.96235 
L 369.683708 111.806004 
L 368.831688 107.429459 
L 367.970089 107.567365 
L 367.089721 112.463204 
L 366.208446 105.965127 
L 365.351056 107.950076 
L 364.534315 114.089226 
L 363.619724 115.144816 
L 362.738087 113.636346 
L 361.9381 113.694818 
L 361.061221 111.618785 
L 360.14063 113.16792 
L 359.317576 115.26484 
L 358.464596 111.448932 
L 357.595393 106.269488 
L 356.736264 104.670752 
L 355.841675 122.889418 
L 355.003959 127.68039 
L 354.057635 124.666957 
L 353.34055 122.180245 
L 352.373664 124.784198 
L 351.544496 121.44262 
L 350.632098 126.493895 
L 349.822264 114.02465 
L 348.985487 122.678771 
L 348.05474 126.25222 
L 347.224705 115.898105 
L 346.293426 121.82643 
L 345.460106 113.734964 
L 344.592646 106.913189 
L 343.736591 113.866629 
L 342.847165 116.9233 
L 342.034598 117.931508 
L 341.125133 116.991692 
L 340.280233 117.525691 
L 339.433209 118.60325 
L 338.545073 121.639223 
L 337.678058 113.965503 
L 336.809613 120.25515 
L 335.962027 123.644611 
L 335.099366 121.595822 
L 334.223458 116.848289 
L 333.347323 104.453737 
L 332.506523 104.57104 
L 331.639218 103.492378 
L 330.752183 107.342698 
L 329.890267 108.062319 
L 329.044783 99.456205 
L 328.175731 103.218323 
L 327.294882 104.546045 
L 326.442313 108.052003 
L 325.658337 109.162747 
L 324.62469 108.384834 
L 323.820145 104.313883 
L 322.971105 112.957904 
L 322.168093 105.026245 
L 321.187536 105.740529 
L 320.37902 104.474855 
L 319.533644 103.162903 
L 318.600193 104.259524 
L 317.787862 104.329283 
L 316.940371 99.988675 
L 316.02435 108.438014 
L 315.182021 117.279723 
L 314.307481 119.109777 
L 313.407748 119.938224 
L 312.595184 115.052826 
L 311.714001 110.427256 
L 310.858046 107.650246 
L 310.002361 113.230048 
L 309.138494 111.703795 
L 308.265218 111.451621 
L 307.411973 104.643692 
L 306.523151 118.093778 
L 305.783523 115.244213 
L 304.76393 113.357159 
L 303.919524 105.526666 
L 303.050465 107.64815 
L 302.181124 96.862523 
L 301.31171 103.294153 
L 300.457817 114.166577 
L 299.652969 115.028164 
L 298.777624 114.72308 
L 297.894508 111.261475 
L 297.014163 117.079855 
L 296.138852 104.932647 
L 295.293266 103.763258 
L 294.42952 111.180806 
L 293.553159 105.419041 
L 292.72787 110.504629 
L 291.855874 109.218053 
L 290.939232 105.399616 
L 290.13887 108.932807 
L 289.217176 115.771752 
L 288.371093 105.105569 
L 287.467506 107.095223 
L 286.645502 110.010187 
L 285.797833 111.672254 
L 284.92984 119.323939 
L 284.037021 121.802141 
L 283.130042 119.407592 
L 282.313566 122.273011 
L 281.413501 122.27512 
L 280.61919 129.251156 
L 279.719235 124.667742 
L 278.917499 126.320071 
L 277.986053 126.75935 
L 277.109691 133.334848 
L 276.246792 124.756942 
L 275.376438 123.504845 
L 274.553515 121.253758 
L 273.747518 123.505045 
L 272.735968 109.880076 
L 271.924622 121.433304 
L 271.091898 111.48565 
L 270.211677 107.986996 
L 269.356309 115.048629 
L 268.489678 112.147441 
L 267.598613 107.082325 
L 266.746805 113.090191 
L 265.797085 114.516631 
L 265.006915 117.853078 
L 264.150786 110.492259 
L 263.277787 110.862143 
L 262.414851 107.806429 
L 261.459497 109.326733 
L 260.697734 106.51913 
L 259.820417 103.652816 
L 259.014783 113.09835 
L 258.075585 112.758465 
L 257.238382 113.552734 
L 256.36484 116.33842 
L 255.481816 118.820129 
L 254.601381 119.733397 
L 253.753106 111.389317 
L 252.890913 110.956764 
L 252.005651 100.789449 
L 251.220384 112.671182 
L 250.254084 104.493778 
L 249.448429 111.290008 
L 248.562286 115.120768 
L 247.698532 113.541052 
L 246.805169 110.031578 
L 245.970673 106.54578 
L 245.089113 104.061882 
L 244.211333 102.404121 
L 243.345614 98.953995 
L 242.456067 105.913997 
L 241.621443 99.118873 
L 240.776349 100.965331 
L 239.904403 97.481458 
L 239.072818 99.265008 
L 238.176307 100.7347 
L 237.315585 99.804196 
L 236.442789 103.188199 
L 235.510323 100.674556 
L 234.844477 106.519384 
L 233.827353 99.720363 
L 233.017882 106.311456 
L 232.117162 128.265158 
L 231.235937 98.61666 
L 230.400161 92.392012 
L 229.582347 103.071491 
L 228.656003 109.220076 
L 227.796099 103.263297 
L 226.899093 106.322061 
L 226.079853 102.597478 
L 225.208255 100.818719 
L 224.308872 112.791532 
L 223.483722 95.52594 
L 222.593807 110.085223 
L 221.763169 105.153463 
L 220.858926 112.928231 
L 220.011063 112.412982 
L 219.155049 115.071175 
L 218.282843 115.470288 
L 217.416344 111.730977 
L 216.518702 111.308855 
L 215.729569 112.802927 
L 214.802299 109.957921 
L 213.960088 112.291228 
L 213.107708 114.777305 
L 212.202007 108.879038 
L 211.343876 109.26502 
L 210.474454 111.108745 
L 209.614821 117.072305 
L 208.793306 112.893762 
L 207.877658 105.849072 
L 207.024811 105.387723 
L 206.197873 106.881779 
L 205.289502 108.569228 
L 204.42264 106.346338 
L 203.591978 109.795518 
L 202.679416 112.606577 
L 201.826788 114.334692 
L 200.969234 117.690345 
L 200.115353 110.730564 
L 199.235778 105.368728 
L 198.35122 105.383682 
L 197.445592 114.330537 
L 196.939606 109.595282 
z
" clip-path="url(#p82eda1668f)" style="fill: #add8e6; stroke: #add8e6"/>
   </g>
   <g id="line2d_1">
    <path d="M 196.939606 116.081512 
L 197.445592 121.024176 
L 198.35122 112.824293 
L 199.235778 114.866318 
L 200.115353 120.649388 
L 200.969234 125.484292 
L 201.826788 123.339904 
L 202.679416 124.551849 
L 204.42264 120.494912 
L 205.289502 121.159411 
L 206.197873 120.493114 
L 207.024811 118.546852 
L 207.877658 118.301075 
L 208.793306 125.621626 
L 209.614821 127.740586 
L 210.474454 123.694412 
L 211.343876 121.720932 
L 212.202007 122.100617 
L 213.107708 127.301878 
L 213.960088 125.459929 
L 214.802299 124.588724 
L 215.729569 127.0663 
L 216.518702 125.571475 
L 217.416344 126.273867 
L 218.282843 128.678816 
L 219.155049 128.804455 
L 220.011063 126.150545 
L 220.858926 128.363091 
L 221.763169 123.671207 
L 222.593807 128.701201 
L 223.483722 116.351539 
L 224.308872 124.48787 
L 225.208255 111.784186 
L 226.899093 116.363986 
L 227.796099 117.508935 
L 228.656003 121.608439 
L 229.582347 116.055884 
L 230.400161 108.46199 
L 231.235937 117.906533 
L 232.117162 142.465997 
L 233.017882 126.521511 
L 234.844477 118.374824 
L 235.510323 112.211189 
L 236.442789 115.34818 
L 237.315585 115.653273 
L 238.176307 114.768228 
L 239.072818 113.383351 
L 239.904403 111.126577 
L 240.776349 115.297323 
L 241.621443 115.455755 
L 242.456067 122.246334 
L 243.345614 115.409377 
L 244.211333 120.359443 
L 245.089113 118.799082 
L 245.970673 121.369046 
L 247.698532 132.024377 
L 248.562286 130.784944 
L 249.448429 128.087483 
L 250.254084 122.906285 
L 251.220384 129.708347 
L 252.005651 120.03337 
L 252.890913 124.645689 
L 253.753106 126.05625 
L 254.601381 134.515391 
L 255.481816 131.12585 
L 256.36484 128.428261 
L 257.238382 128.174157 
L 258.075585 127.194852 
L 259.014783 129.317462 
L 259.820417 121.326384 
L 260.697734 121.671404 
L 261.459497 124.810199 
L 262.414851 122.297234 
L 263.277787 124.263705 
L 264.150786 123.962502 
L 265.006915 128.467703 
L 265.797085 127.253413 
L 266.746805 127.19088 
L 267.598613 121.786223 
L 269.356309 131.51187 
L 270.211677 121.842982 
L 271.091898 126.857424 
L 271.924622 134.423469 
L 272.735968 125.595372 
L 273.747518 136.115446 
L 274.553515 136.05149 
L 275.376438 136.134065 
L 277.109691 143.026203 
L 277.986053 137.553106 
L 278.917499 133.98088 
L 279.719235 132.911736 
L 280.61919 134.055496 
L 281.413501 131.068079 
L 282.313566 135.033543 
L 283.130042 134.22379 
L 284.037021 131.07727 
L 284.92984 130.716018 
L 285.797833 124.675142 
L 286.645502 124.35123 
L 287.467506 120.195945 
L 288.371093 120.858658 
L 289.217176 125.896475 
L 290.13887 120.133251 
L 290.939232 119.506649 
L 291.855874 121.818212 
L 292.72787 122.177986 
L 293.553159 117.286275 
L 294.42952 119.573735 
L 295.293266 114.855183 
L 296.138852 114.515248 
L 297.014163 125.645648 
L 297.894508 123.925384 
L 298.777624 126.381797 
L 299.652969 126.630558 
L 300.457817 125.749288 
L 301.31171 116.145574 
L 302.181124 108.963832 
L 303.050465 117.542179 
L 303.919524 119.90608 
L 304.76393 124.599212 
L 305.783523 126.950804 
L 306.523151 127.779696 
L 307.411973 122.211009 
L 308.265218 127.311833 
L 309.138494 127.210481 
L 310.002361 125.764588 
L 310.858046 122.484832 
L 311.714001 124.370681 
L 312.595184 127.625541 
L 313.407748 131.296551 
L 314.307481 131.184178 
L 315.182021 130.217576 
L 316.02435 123.379523 
L 316.940371 112.445258 
L 317.787862 118.318853 
L 319.533644 116.000737 
L 320.37902 118.647859 
L 322.168093 117.89874 
L 322.971105 127.714381 
L 323.820145 122.134788 
L 324.62469 126.988735 
L 325.658337 121.635735 
L 326.442313 121.244475 
L 327.294882 119.068464 
L 328.175731 119.9459 
L 329.044783 113.853236 
L 329.890267 122.387407 
L 330.752183 120.231678 
L 331.639218 118.917828 
L 333.347323 123.118048 
L 334.223458 129.005366 
L 335.099366 131.12919 
L 335.962027 132.300608 
L 336.809613 133.663563 
L 337.678058 130.504885 
L 338.545073 132.579653 
L 339.433209 130.167728 
L 340.280233 129.129996 
L 341.125133 130.116746 
L 342.034598 130.990547 
L 342.847165 127.647682 
L 343.736591 125.53015 
L 344.592646 121.487666 
L 345.460106 128.181527 
L 346.293426 132.556317 
L 347.224705 127.729893 
L 348.05474 135.725099 
L 348.985487 131.798808 
L 349.822264 126.263079 
L 350.632098 134.056392 
L 351.544496 130.403341 
L 352.373664 132.551509 
L 353.34055 127.849047 
L 354.057635 133.625736 
L 355.003959 136.069982 
L 355.841675 133.600963 
L 356.736264 118.247795 
L 357.595393 118.281085 
L 358.464596 121.939438 
L 359.317576 122.873715 
L 361.061221 119.180598 
L 361.9381 125.08996 
L 362.738087 123.402473 
L 363.619724 123.276788 
L 364.534315 123.876296 
L 365.351056 121.447463 
L 366.208446 117.340489 
L 367.089721 121.576747 
L 367.970089 117.385959 
L 368.831688 116.632584 
L 369.683708 121.428101 
L 370.538345 122.427342 
L 371.443477 117.676258 
L 372.317651 119.849957 
L 373.158251 117.46733 
L 374.044598 113.487163 
L 374.88301 113.715199 
L 375.784928 116.231184 
L 376.639946 125.520736 
L 377.473323 124.434811 
L 378.318047 126.706974 
L 379.240939 118.053346 
L 380.002256 113.816287 
L 381.016199 104.897389 
L 382.747566 118.85752 
L 383.554662 120.332376 
L 384.413636 122.354753 
L 386.126417 128.261509 
L 386.990181 122.512885 
L 387.893002 118.370354 
L 388.744024 118.292947 
L 389.57105 120.292891 
L 390.487232 131.04717 
L 391.330322 134.786685 
L 392.168911 133.317059 
L 393.058828 136.453014 
L 393.932074 135.314841 
L 394.805189 137.541423 
L 395.641194 135.863081 
L 396.529581 134.93241 
L 397.363681 133.123755 
L 398.264932 129.038342 
L 399.122471 123.592509 
L 399.980995 128.914335 
L 400.865851 127.0957 
L 401.690396 126.592418 
L 402.547793 121.146806 
L 403.464859 124.216385 
L 404.323192 128.279502 
L 404.323192 128.279502 
" clip-path="url(#p82eda1668f)" style="fill: none; stroke: #1f77b4; stroke-width: 1.5; stroke-linecap: square"/>
   </g>
   <g id="line2d_2">
    <path d="M 69.614523 34.26236 
L 70.307653 29.999881 
L 70.654156 30.278032 
L 71.000783 30.962134 
L 71.347411 31.894316 
L 73.772682 41.9679 
L 74.81244 45.290679 
L 76.197954 48.620976 
L 77.236467 50.620658 
L 78.621981 52.823314 
L 80.353252 55.183841 
L 83.12428 58.499102 
L 86.933822 62.716476 
L 92.821635 68.820767 
L 97.669691 73.526785 
L 102.863503 78.232802 
L 107.711559 82.314859 
L 112.905371 86.359328 
L 117.06067 89.403956 
L 123.985753 94.087421 
L 128.486808 96.914038 
L 138.528676 102.67252 
L 144.415245 105.747218 
L 152.378842 109.618782 
L 162.074953 113.91885 
L 171.42282 117.670132 
L 184.92723 122.526502 
L 193.235339 125.285461 
L 215.050346 131.765632 
L 238.94238 137.84737 
L 253.481572 141.192702 
L 259.028603 142.282754 
L 262.48617 142.54587 
L 296.427534 144.635763 
L 305.767939 145.161995 
L 316.50132 145.748368 
L 328.627678 146.379846 
L 335.542811 146.733174 
L 342.818626 147.094018 
L 373.289986 148.514845 
L 378.82458 148.762926 
L 404.10959 149.837942 
L 404.10959 149.837942 
" clip-path="url(#p82eda1668f)" style="fill: none; stroke: #000000; stroke-width: 2.5; stroke-linecap: square"/>
   </g>
   <g id="line2d_3">
    <path d="M 69.614523 74.113158 
L 70.307653 67.993831 
L 71.000783 64.528218 
L 71.347411 63.160014 
L 72.040168 61.581318 
L 73.079925 60.280774 
L 74.465439 59.22831 
L 75.158196 58.950158 
L 75.505197 58.867465 
L 75.850953 59.017817 
L 76.54371 59.626742 
L 77.929224 62.528536 
L 82.431523 72.692331 
L 84.164038 75.939934 
L 85.895309 78.781587 
L 87.626579 81.284948 
L 89.35785 83.525193 
L 91.436121 85.923307 
L 94.205906 88.712337 
L 97.322691 91.418673 
L 100.092475 93.523601 
L 103.20926 95.628529 
L 107.018802 97.891326 
L 110.135587 99.537681 
L 113.251128 101.041201 
L 116.367913 102.424439 
L 122.600239 104.890212 
L 128.141051 106.822235 
L 129.872322 107.21315 
L 136.104648 108.197956 
L 145.108002 109.257938 
L 150.647571 109.754099 
L 158.265411 110.302884 
L 186.307769 111.407971 
L 208.819264 111.783851 
L 220.597377 111.889098 
L 232.363054 112.046967 
L 239.290624 112.152214 
L 321.700107 114.039131 
L 328.279434 114.212036 
L 354.248495 114.881102 
L 360.827821 115.054007 
L 387.480934 115.738109 
L 394.06026 115.911014 
L 404.457834 116.17413 
L 404.457834 116.17413 
" clip-path="url(#p82eda1668f)" style="fill: none; stroke-dasharray: 9.25,4; stroke-dashoffset: 0; stroke: #8b0000; stroke-width: 2.5"/>
   </g>
   <g id="legend_1">
    <g id="line2d_4">
     <path d="M 333.95625 29.694438 
L 343.95625 29.694438 
L 353.95625 29.694438 
" style="fill: none; stroke: #1f77b4; stroke-width: 1.5; stroke-linecap: square"/>
    </g>
    <g id="text_1">
     <!-- PSP -->
     <g transform="translate(361.95625 33.194438) scale(0.1 -0.1)">
      <defs>
       <path id="DejaVuSans-50" d="M 1259 4147 
L 1259 2394 
L 2053 2394 
Q 2494 2394 2734 2622 
Q 2975 2850 2975 3272 
Q 2975 3691 2734 3919 
Q 2494 4147 2053 4147 
L 1259 4147 
z
M 628 4666 
L 2053 4666 
Q 2838 4666 3239 4311 
Q 3641 3956 3641 3272 
Q 3641 2581 3239 2228 
Q 2838 1875 2053 1875 
L 1259 1875 
L 1259 0 
L 628 0 
L 628 4666 
z
" transform="scale(0.015625)"/>
       <path id="DejaVuSans-53" d="M 3425 4513 
L 3425 3897 
Q 3066 4069 2747 4153 
Q 2428 4238 2131 4238 
Q 1616 4238 1336 4038 
Q 1056 3838 1056 3469 
Q 1056 3159 1242 3001 
Q 1428 2844 1947 2747 
L 2328 2669 
Q 3034 2534 3370 2195 
Q 3706 1856 3706 1288 
Q 3706 609 3251 259 
Q 2797 -91 1919 -91 
Q 1588 -91 1214 -16 
Q 841 59 441 206 
L 441 856 
Q 825 641 1194 531 
Q 1563 422 1919 422 
Q 2459 422 2753 634 
Q 3047 847 3047 1241 
Q 3047 1584 2836 1778 
Q 2625 1972 2144 2069 
L 1759 2144 
Q 1053 2284 737 2584 
Q 422 2884 422 3419 
Q 422 4038 858 4394 
Q 1294 4750 2059 4750 
Q 2388 4750 2728 4690 
Q 3069 4631 3425 4513 
z
" transform="scale(0.015625)"/>
      </defs>
      <use xlink:href="#DejaVuSans-50"/>
      <use xlink:href="#DejaVuSans-53" x="60.302734"/>
      <use xlink:href="#DejaVuSans-50" x="123.779297"/>
     </g>
    </g>
    <g id="line2d_5">
     <path d="M 333.95625 44.372563 
L 343.95625 44.372563 
L 353.95625 44.372563 
" style="fill: none; stroke: #000000; stroke-width: 2.5; stroke-linecap: square"/>
    </g>
    <g id="text_2">
     <!-- Slow wind -->
     <g transform="translate(361.95625 47.872563) scale(0.1 -0.1)">
      <defs>
       <path id="DejaVuSans-6c" d="M 603 4863 
L 1178 4863 
L 1178 0 
L 603 0 
L 603 4863 
z
" transform="scale(0.015625)"/>
       <path id="DejaVuSans-6f" d="M 1959 3097 
Q 1497 3097 1228 2736 
Q 959 2375 959 1747 
Q 959 1119 1226 758 
Q 1494 397 1959 397 
Q 2419 397 2687 759 
Q 2956 1122 2956 1747 
Q 2956 2369 2687 2733 
Q 2419 3097 1959 3097 
z
M 1959 3584 
Q 2709 3584 3137 3096 
Q 3566 2609 3566 1747 
Q 3566 888 3137 398 
Q 2709 -91 1959 -91 
Q 1206 -91 779 398 
Q 353 888 353 1747 
Q 353 2609 779 3096 
Q 1206 3584 1959 3584 
z
" transform="scale(0.015625)"/>
       <path id="DejaVuSans-77" d="M 269 3500 
L 844 3500 
L 1563 769 
L 2278 3500 
L 2956 3500 
L 3675 769 
L 4391 3500 
L 4966 3500 
L 4050 0 
L 3372 0 
L 2619 2869 
L 1863 0 
L 1184 0 
L 269 3500 
z
" transform="scale(0.015625)"/>
       <path id="DejaVuSans-20" transform="scale(0.015625)"/>
       <path id="DejaVuSans-69" d="M 603 3500 
L 1178 3500 
L 1178 0 
L 603 0 
L 603 3500 
z
M 603 4863 
L 1178 4863 
L 1178 4134 
L 603 4134 
L 603 4863 
z
" transform="scale(0.015625)"/>
       <path id="DejaVuSans-6e" d="M 3513 2113 
L 3513 0 
L 2938 0 
L 2938 2094 
Q 2938 2591 2744 2837 
Q 2550 3084 2163 3084 
Q 1697 3084 1428 2787 
Q 1159 2491 1159 1978 
L 1159 0 
L 581 0 
L 581 3500 
L 1159 3500 
L 1159 2956 
Q 1366 3272 1645 3428 
Q 1925 3584 2291 3584 
Q 2894 3584 3203 3211 
Q 3513 2838 3513 2113 
z
" transform="scale(0.015625)"/>
       <path id="DejaVuSans-64" d="M 2906 2969 
L 2906 4863 
L 3481 4863 
L 3481 0 
L 2906 0 
L 2906 525 
Q 2725 213 2448 61 
Q 2172 -91 1784 -91 
Q 1150 -91 751 415 
Q 353 922 353 1747 
Q 353 2572 751 3078 
Q 1150 3584 1784 3584 
Q 2172 3584 2448 3432 
Q 2725 3281 2906 2969 
z
M 947 1747 
Q 947 1113 1208 752 
Q 1469 391 1925 391 
Q 2381 391 2643 752 
Q 2906 1113 2906 1747 
Q 2906 2381 2643 2742 
Q 2381 3103 1925 3103 
Q 1469 3103 1208 2742 
Q 947 2381 947 1747 
z
" transform="scale(0.015625)"/>
      </defs>
      <use xlink:href="#DejaVuSans-53"/>
      <use xlink:href="#DejaVuSans-6c" x="63.476562"/>
      <use xlink:href="#DejaVuSans-6f" x="91.259766"/>
      <use xlink:href="#DejaVuSans-77" x="152.441406"/>
      <use xlink:href="#DejaVuSans-20" x="234.228516"/>
      <use xlink:href="#DejaVuSans-77" x="266.015625"/>
      <use xlink:href="#DejaVuSans-69" x="347.802734"/>
      <use xlink:href="#DejaVuSans-6e" x="375.585938"/>
      <use xlink:href="#DejaVuSans-64" x="438.964844"/>
     </g>
    </g>
    <g id="line2d_6">
     <path d="M 333.95625 59.050688 
L 343.95625 59.050688 
L 353.95625 59.050688 
" style="fill: none; stroke-dasharray: 9.25,4; stroke-dashoffset: 0; stroke: #8b0000; stroke-width: 2.5"/>
    </g>
    <g id="text_3">
     <!-- Fast wind -->
     <g transform="translate(361.95625 62.550688) scale(0.1 -0.1)">
      <defs>
       <path id="DejaVuSans-46" d="M 628 4666 
L 3309 4666 
L 3309 4134 
L 1259 4134 
L 1259 2759 
L 3109 2759 
L 3109 2228 
L 1259 2228 
L 1259 0 
L 628 0 
L 628 4666 
z
" transform="scale(0.015625)"/>
       <path id="DejaVuSans-61" d="M 2194 1759 
Q 1497 1759 1228 1600 
Q 959 1441 959 1056 
Q 959 750 1161 570 
Q 1363 391 1709 391 
Q 2188 391 2477 730 
Q 2766 1069 2766 1631 
L 2766 1759 
L 2194 1759 
z
M 3341 1997 
L 3341 0 
L 2766 0 
L 2766 531 
Q 2569 213 2275 61 
Q 1981 -91 1556 -91 
Q 1019 -91 701 211 
Q 384 513 384 1019 
Q 384 1609 779 1909 
Q 1175 2209 1959 2209 
L 2766 2209 
L 2766 2266 
Q 2766 2663 2505 2880 
Q 2244 3097 1772 3097 
Q 1472 3097 1187 3025 
Q 903 2953 641 2809 
L 641 3341 
Q 956 3463 1253 3523 
Q 1550 3584 1831 3584 
Q 2591 3584 2966 3190 
Q 3341 2797 3341 1997 
z
" transform="scale(0.015625)"/>
       <path id="DejaVuSans-73" d="M 2834 3397 
L 2834 2853 
Q 2591 2978 2328 3040 
Q 2066 3103 1784 3103 
Q 1356 3103 1142 2972 
Q 928 2841 928 2578 
Q 928 2378 1081 2264 
Q 1234 2150 1697 2047 
L 1894 2003 
Q 2506 1872 2764 1633 
Q 3022 1394 3022 966 
Q 3022 478 2636 193 
Q 2250 -91 1575 -91 
Q 1294 -91 989 -36 
Q 684 19 347 128 
L 347 722 
Q 666 556 975 473 
Q 1284 391 1588 391 
Q 1994 391 2212 530 
Q 2431 669 2431 922 
Q 2431 1156 2273 1281 
Q 2116 1406 1581 1522 
L 1381 1569 
Q 847 1681 609 1914 
Q 372 2147 372 2553 
Q 372 3047 722 3315 
Q 1072 3584 1716 3584 
Q 2034 3584 2315 3537 
Q 2597 3491 2834 3397 
z
" transform="scale(0.015625)"/>
       <path id="DejaVuSans-74" d="M 1172 4494 
L 1172 3500 
L 2356 3500 
L 2356 3053 
L 1172 3053 
L 1172 1153 
Q 1172 725 1289 603 
Q 1406 481 1766 481 
L 2356 481 
L 2356 0 
L 1766 0 
Q 1100 0 847 248 
Q 594 497 594 1153 
L 594 3053 
L 172 3053 
L 172 3500 
L 594 3500 
L 594 4494 
L 1172 4494 
z
" transform="scale(0.015625)"/>
      </defs>
      <use xlink:href="#DejaVuSans-46"/>
      <use xlink:href="#DejaVuSans-61" x="48.394531"/>
      <use xlink:href="#DejaVuSans-73" x="109.673828"/>
      <use xlink:href="#DejaVuSans-74" x="161.773438"/>
      <use xlink:href="#DejaVuSans-20" x="200.982422"/>
      <use xlink:href="#DejaVuSans-77" x="232.769531"/>
      <use xlink:href="#DejaVuSans-69" x="314.556641"/>
      <use xlink:href="#DejaVuSans-6e" x="342.339844"/>
      <use xlink:href="#DejaVuSans-64" x="405.71875"/>
     </g>
    </g>
   </g>
   <g id="matplotlib.axis_1">
    <g id="xtick_1">
     <g id="line2d_7">
      <defs>
       <path id="m8e5158f7d0" d="M 0 0 
L 0 -3.5 
" style="stroke: #000000; stroke-width: 1.5"/>
      </defs>
      <g>
       <use xlink:href="#m8e5158f7d0" x="58.638988" y="242.124" style="stroke: #000000; stroke-width: 1.5"/>
      </g>
     </g>
     <g id="line2d_8">
      <defs>
       <path id="m1a99292c57" d="M 0 0 
L 0 3.5 
" style="stroke: #000000; stroke-width: 1.5"/>
      </defs>
      <g>
       <use xlink:href="#m1a99292c57" x="58.638988" y="16.596" style="stroke: #000000; stroke-width: 1.5"/>
      </g>
     </g>
     <g id="text_4">
      <!-- 0 -->
      <g transform="translate(54.821488 254.742125) scale(0.12 -0.12)">
       <defs>
        <path id="DejaVuSans-30" d="M 2034 4250 
Q 1547 4250 1301 3770 
Q 1056 3291 1056 2328 
Q 1056 1369 1301 889 
Q 1547 409 2034 409 
Q 2525 409 2770 889 
Q 3016 1369 3016 2328 
Q 3016 3291 2770 3770 
Q 2525 4250 2034 4250 
z
M 2034 4750 
Q 2819 4750 3233 4129 
Q 3647 3509 3647 2328 
Q 3647 1150 3233 529 
Q 2819 -91 2034 -91 
Q 1250 -91 836 529 
Q 422 1150 422 2328 
Q 422 3509 836 4129 
Q 1250 4750 2034 4750 
z
" transform="scale(0.015625)"/>
       </defs>
       <use xlink:href="#DejaVuSans-30"/>
      </g>
     </g>
    </g>
    <g id="xtick_2">
     <g id="line2d_9">
      <g>
       <use xlink:href="#m8e5158f7d0" x="101.902101" y="242.124" style="stroke: #000000; stroke-width: 1.5"/>
      </g>
     </g>
     <g id="line2d_10">
      <g>
       <use xlink:href="#m1a99292c57" x="101.902101" y="16.596" style="stroke: #000000; stroke-width: 1.5"/>
      </g>
     </g>
     <g id="text_5">
      <!-- 5 -->
      <g transform="translate(98.084601 254.742125) scale(0.12 -0.12)">
       <defs>
        <path id="DejaVuSans-35" d="M 691 4666 
L 3169 4666 
L 3169 4134 
L 1269 4134 
L 1269 2991 
Q 1406 3038 1543 3061 
Q 1681 3084 1819 3084 
Q 2600 3084 3056 2656 
Q 3513 2228 3513 1497 
Q 3513 744 3044 326 
Q 2575 -91 1722 -91 
Q 1428 -91 1123 -41 
Q 819 9 494 109 
L 494 744 
Q 775 591 1075 516 
Q 1375 441 1709 441 
Q 2250 441 2565 725 
Q 2881 1009 2881 1497 
Q 2881 1984 2565 2268 
Q 2250 2553 1709 2553 
Q 1456 2553 1204 2497 
Q 953 2441 691 2322 
L 691 4666 
z
" transform="scale(0.015625)"/>
       </defs>
       <use xlink:href="#DejaVuSans-35"/>
      </g>
     </g>
    </g>
    <g id="xtick_3">
     <g id="line2d_11">
      <g>
       <use xlink:href="#m8e5158f7d0" x="145.165214" y="242.124" style="stroke: #000000; stroke-width: 1.5"/>
      </g>
     </g>
     <g id="line2d_12">
      <g>
       <use xlink:href="#m1a99292c57" x="145.165214" y="16.596" style="stroke: #000000; stroke-width: 1.5"/>
      </g>
     </g>
     <g id="text_6">
      <!-- 10 -->
      <g transform="translate(137.530214 254.742125) scale(0.12 -0.12)">
       <defs>
        <path id="DejaVuSans-31" d="M 794 531 
L 1825 531 
L 1825 4091 
L 703 3866 
L 703 4441 
L 1819 4666 
L 2450 4666 
L 2450 531 
L 3481 531 
L 3481 0 
L 794 0 
L 794 531 
z
" transform="scale(0.015625)"/>
       </defs>
       <use xlink:href="#DejaVuSans-31"/>
       <use xlink:href="#DejaVuSans-30" x="63.623047"/>
      </g>
     </g>
    </g>
    <g id="xtick_4">
     <g id="line2d_13">
      <g>
       <use xlink:href="#m8e5158f7d0" x="188.428327" y="242.124" style="stroke: #000000; stroke-width: 1.5"/>
      </g>
     </g>
     <g id="line2d_14">
      <g>
       <use xlink:href="#m1a99292c57" x="188.428327" y="16.596" style="stroke: #000000; stroke-width: 1.5"/>
      </g>
     </g>
     <g id="text_7">
      <!-- 15 -->
      <g transform="translate(180.793327 254.742125) scale(0.12 -0.12)">
       <use xlink:href="#DejaVuSans-31"/>
       <use xlink:href="#DejaVuSans-35" x="63.623047"/>
      </g>
     </g>
    </g>
    <g id="xtick_5">
     <g id="line2d_15">
      <g>
       <use xlink:href="#m8e5158f7d0" x="231.69144" y="242.124" style="stroke: #000000; stroke-width: 1.5"/>
      </g>
     </g>
     <g id="line2d_16">
      <g>
       <use xlink:href="#m1a99292c57" x="231.69144" y="16.596" style="stroke: #000000; stroke-width: 1.5"/>
      </g>
     </g>
     <g id="text_8">
      <!-- 20 -->
      <g transform="translate(224.05644 254.742125) scale(0.12 -0.12)">
       <defs>
        <path id="DejaVuSans-32" d="M 1228 531 
L 3431 531 
L 3431 0 
L 469 0 
L 469 531 
Q 828 903 1448 1529 
Q 2069 2156 2228 2338 
Q 2531 2678 2651 2914 
Q 2772 3150 2772 3378 
Q 2772 3750 2511 3984 
Q 2250 4219 1831 4219 
Q 1534 4219 1204 4116 
Q 875 4013 500 3803 
L 500 4441 
Q 881 4594 1212 4672 
Q 1544 4750 1819 4750 
Q 2544 4750 2975 4387 
Q 3406 4025 3406 3419 
Q 3406 3131 3298 2873 
Q 3191 2616 2906 2266 
Q 2828 2175 2409 1742 
Q 1991 1309 1228 531 
z
" transform="scale(0.015625)"/>
       </defs>
       <use xlink:href="#DejaVuSans-32"/>
       <use xlink:href="#DejaVuSans-30" x="63.623047"/>
      </g>
     </g>
    </g>
    <g id="xtick_6">
     <g id="line2d_17">
      <g>
       <use xlink:href="#m8e5158f7d0" x="274.954553" y="242.124" style="stroke: #000000; stroke-width: 1.5"/>
      </g>
     </g>
     <g id="line2d_18">
      <g>
       <use xlink:href="#m1a99292c57" x="274.954553" y="16.596" style="stroke: #000000; stroke-width: 1.5"/>
      </g>
     </g>
     <g id="text_9">
      <!-- 25 -->
      <g transform="translate(267.319553 254.742125) scale(0.12 -0.12)">
       <use xlink:href="#DejaVuSans-32"/>
       <use xlink:href="#DejaVuSans-35" x="63.623047"/>
      </g>
     </g>
    </g>
    <g id="xtick_7">
     <g id="line2d_19">
      <g>
       <use xlink:href="#m8e5158f7d0" x="318.217666" y="242.124" style="stroke: #000000; stroke-width: 1.5"/>
      </g>
     </g>
     <g id="line2d_20">
      <g>
       <use xlink:href="#m1a99292c57" x="318.217666" y="16.596" style="stroke: #000000; stroke-width: 1.5"/>
      </g>
     </g>
     <g id="text_10">
      <!-- 30 -->
      <g transform="translate(310.582666 254.742125) scale(0.12 -0.12)">
       <defs>
        <path id="DejaVuSans-33" d="M 2597 2516 
Q 3050 2419 3304 2112 
Q 3559 1806 3559 1356 
Q 3559 666 3084 287 
Q 2609 -91 1734 -91 
Q 1441 -91 1130 -33 
Q 819 25 488 141 
L 488 750 
Q 750 597 1062 519 
Q 1375 441 1716 441 
Q 2309 441 2620 675 
Q 2931 909 2931 1356 
Q 2931 1769 2642 2001 
Q 2353 2234 1838 2234 
L 1294 2234 
L 1294 2753 
L 1863 2753 
Q 2328 2753 2575 2939 
Q 2822 3125 2822 3475 
Q 2822 3834 2567 4026 
Q 2313 4219 1838 4219 
Q 1578 4219 1281 4162 
Q 984 4106 628 3988 
L 628 4550 
Q 988 4650 1302 4700 
Q 1616 4750 1894 4750 
Q 2613 4750 3031 4423 
Q 3450 4097 3450 3541 
Q 3450 3153 3228 2886 
Q 3006 2619 2597 2516 
z
" transform="scale(0.015625)"/>
       </defs>
       <use xlink:href="#DejaVuSans-33"/>
       <use xlink:href="#DejaVuSans-30" x="63.623047"/>
      </g>
     </g>
    </g>
    <g id="xtick_8">
     <g id="line2d_21">
      <g>
       <use xlink:href="#m8e5158f7d0" x="361.480779" y="242.124" style="stroke: #000000; stroke-width: 1.5"/>
      </g>
     </g>
     <g id="line2d_22">
      <g>
       <use xlink:href="#m1a99292c57" x="361.480779" y="16.596" style="stroke: #000000; stroke-width: 1.5"/>
      </g>
     </g>
     <g id="text_11">
      <!-- 35 -->
      <g transform="translate(353.845779 254.742125) scale(0.12 -0.12)">
       <use xlink:href="#DejaVuSans-33"/>
       <use xlink:href="#DejaVuSans-35" x="63.623047"/>
      </g>
     </g>
    </g>
    <g id="xtick_9">
     <g id="line2d_23">
      <g>
       <use xlink:href="#m8e5158f7d0" x="404.743892" y="242.124" style="stroke: #000000; stroke-width: 1.5"/>
      </g>
     </g>
     <g id="line2d_24">
      <g>
       <use xlink:href="#m1a99292c57" x="404.743892" y="16.596" style="stroke: #000000; stroke-width: 1.5"/>
      </g>
     </g>
     <g id="text_12">
      <!-- 40 -->
      <g transform="translate(397.108892 254.742125) scale(0.12 -0.12)">
       <defs>
        <path id="DejaVuSans-34" d="M 2419 4116 
L 825 1625 
L 2419 1625 
L 2419 4116 
z
M 2253 4666 
L 3047 4666 
L 3047 1625 
L 3713 1625 
L 3713 1100 
L 3047 1100 
L 3047 0 
L 2419 0 
L 2419 1100 
L 313 1100 
L 313 1709 
L 2253 4666 
z
" transform="scale(0.015625)"/>
       </defs>
       <use xlink:href="#DejaVuSans-34"/>
       <use xlink:href="#DejaVuSans-30" x="63.623047"/>
      </g>
     </g>
    </g>
    <g id="xtick_10">
     <g id="line2d_25">
      <defs>
       <path id="m09d3244951" d="M 0 0 
L 0 -2 
" style="stroke: #000000; stroke-width: 1.5"/>
      </defs>
      <g>
       <use xlink:href="#m09d3244951" x="67.29161" y="242.124" style="stroke: #000000; stroke-width: 1.5"/>
      </g>
     </g>
     <g id="line2d_26">
      <defs>
       <path id="mf39bf19a57" d="M 0 0 
L 0 2 
" style="stroke: #000000; stroke-width: 1.5"/>
      </defs>
      <g>
       <use xlink:href="#mf39bf19a57" x="67.29161" y="16.596" style="stroke: #000000; stroke-width: 1.5"/>
      </g>
     </g>
    </g>
    <g id="xtick_11">
     <g id="line2d_27">
      <g>
       <use xlink:href="#m09d3244951" x="75.944233" y="242.124" style="stroke: #000000; stroke-width: 1.5"/>
      </g>
     </g>
     <g id="line2d_28">
      <g>
       <use xlink:href="#mf39bf19a57" x="75.944233" y="16.596" style="stroke: #000000; stroke-width: 1.5"/>
      </g>
     </g>
    </g>
    <g id="xtick_12">
     <g id="line2d_29">
      <g>
       <use xlink:href="#m09d3244951" x="84.596856" y="242.124" style="stroke: #000000; stroke-width: 1.5"/>
      </g>
     </g>
     <g id="line2d_30">
      <g>
       <use xlink:href="#mf39bf19a57" x="84.596856" y="16.596" style="stroke: #000000; stroke-width: 1.5"/>
      </g>
     </g>
    </g>
    <g id="xtick_13">
     <g id="line2d_31">
      <g>
       <use xlink:href="#m09d3244951" x="93.249478" y="242.124" style="stroke: #000000; stroke-width: 1.5"/>
      </g>
     </g>
     <g id="line2d_32">
      <g>
       <use xlink:href="#mf39bf19a57" x="93.249478" y="16.596" style="stroke: #000000; stroke-width: 1.5"/>
      </g>
     </g>
    </g>
    <g id="xtick_14">
     <g id="line2d_33">
      <g>
       <use xlink:href="#m09d3244951" x="110.554723" y="242.124" style="stroke: #000000; stroke-width: 1.5"/>
      </g>
     </g>
     <g id="line2d_34">
      <g>
       <use xlink:href="#mf39bf19a57" x="110.554723" y="16.596" style="stroke: #000000; stroke-width: 1.5"/>
      </g>
     </g>
    </g>
    <g id="xtick_15">
     <g id="line2d_35">
      <g>
       <use xlink:href="#m09d3244951" x="119.207346" y="242.124" style="stroke: #000000; stroke-width: 1.5"/>
      </g>
     </g>
     <g id="line2d_36">
      <g>
       <use xlink:href="#mf39bf19a57" x="119.207346" y="16.596" style="stroke: #000000; stroke-width: 1.5"/>
      </g>
     </g>
    </g>
    <g id="xtick_16">
     <g id="line2d_37">
      <g>
       <use xlink:href="#m09d3244951" x="127.859969" y="242.124" style="stroke: #000000; stroke-width: 1.5"/>
      </g>
     </g>
     <g id="line2d_38">
      <g>
       <use xlink:href="#mf39bf19a57" x="127.859969" y="16.596" style="stroke: #000000; stroke-width: 1.5"/>
      </g>
     </g>
    </g>
    <g id="xtick_17">
     <g id="line2d_39">
      <g>
       <use xlink:href="#m09d3244951" x="136.512591" y="242.124" style="stroke: #000000; stroke-width: 1.5"/>
      </g>
     </g>
     <g id="line2d_40">
      <g>
       <use xlink:href="#mf39bf19a57" x="136.512591" y="16.596" style="stroke: #000000; stroke-width: 1.5"/>
      </g>
     </g>
    </g>
    <g id="xtick_18">
     <g id="line2d_41">
      <g>
       <use xlink:href="#m09d3244951" x="153.817836" y="242.124" style="stroke: #000000; stroke-width: 1.5"/>
      </g>
     </g>
     <g id="line2d_42">
      <g>
       <use xlink:href="#mf39bf19a57" x="153.817836" y="16.596" style="stroke: #000000; stroke-width: 1.5"/>
      </g>
     </g>
    </g>
    <g id="xtick_19">
     <g id="line2d_43">
      <g>
       <use xlink:href="#m09d3244951" x="162.470459" y="242.124" style="stroke: #000000; stroke-width: 1.5"/>
      </g>
     </g>
     <g id="line2d_44">
      <g>
       <use xlink:href="#mf39bf19a57" x="162.470459" y="16.596" style="stroke: #000000; stroke-width: 1.5"/>
      </g>
     </g>
    </g>
    <g id="xtick_20">
     <g id="line2d_45">
      <g>
       <use xlink:href="#m09d3244951" x="171.123082" y="242.124" style="stroke: #000000; stroke-width: 1.5"/>
      </g>
     </g>
     <g id="line2d_46">
      <g>
       <use xlink:href="#mf39bf19a57" x="171.123082" y="16.596" style="stroke: #000000; stroke-width: 1.5"/>
      </g>
     </g>
    </g>
    <g id="xtick_21">
     <g id="line2d_47">
      <g>
       <use xlink:href="#m09d3244951" x="179.775704" y="242.124" style="stroke: #000000; stroke-width: 1.5"/>
      </g>
     </g>
     <g id="line2d_48">
      <g>
       <use xlink:href="#mf39bf19a57" x="179.775704" y="16.596" style="stroke: #000000; stroke-width: 1.5"/>
      </g>
     </g>
    </g>
    <g id="xtick_22">
     <g id="line2d_49">
      <g>
       <use xlink:href="#m09d3244951" x="197.080949" y="242.124" style="stroke: #000000; stroke-width: 1.5"/>
      </g>
     </g>
     <g id="line2d_50">
      <g>
       <use xlink:href="#mf39bf19a57" x="197.080949" y="16.596" style="stroke: #000000; stroke-width: 1.5"/>
      </g>
     </g>
    </g>
    <g id="xtick_23">
     <g id="line2d_51">
      <g>
       <use xlink:href="#m09d3244951" x="205.733572" y="242.124" style="stroke: #000000; stroke-width: 1.5"/>
      </g>
     </g>
     <g id="line2d_52">
      <g>
       <use xlink:href="#mf39bf19a57" x="205.733572" y="16.596" style="stroke: #000000; stroke-width: 1.5"/>
      </g>
     </g>
    </g>
    <g id="xtick_24">
     <g id="line2d_53">
      <g>
       <use xlink:href="#m09d3244951" x="214.386195" y="242.124" style="stroke: #000000; stroke-width: 1.5"/>
      </g>
     </g>
     <g id="line2d_54">
      <g>
       <use xlink:href="#mf39bf19a57" x="214.386195" y="16.596" style="stroke: #000000; stroke-width: 1.5"/>
      </g>
     </g>
    </g>
    <g id="xtick_25">
     <g id="line2d_55">
      <g>
       <use xlink:href="#m09d3244951" x="223.038817" y="242.124" style="stroke: #000000; stroke-width: 1.5"/>
      </g>
     </g>
     <g id="line2d_56">
      <g>
       <use xlink:href="#mf39bf19a57" x="223.038817" y="16.596" style="stroke: #000000; stroke-width: 1.5"/>
      </g>
     </g>
    </g>
    <g id="xtick_26">
     <g id="line2d_57">
      <g>
       <use xlink:href="#m09d3244951" x="240.344063" y="242.124" style="stroke: #000000; stroke-width: 1.5"/>
      </g>
     </g>
     <g id="line2d_58">
      <g>
       <use xlink:href="#mf39bf19a57" x="240.344063" y="16.596" style="stroke: #000000; stroke-width: 1.5"/>
      </g>
     </g>
    </g>
    <g id="xtick_27">
     <g id="line2d_59">
      <g>
       <use xlink:href="#m09d3244951" x="248.996685" y="242.124" style="stroke: #000000; stroke-width: 1.5"/>
      </g>
     </g>
     <g id="line2d_60">
      <g>
       <use xlink:href="#mf39bf19a57" x="248.996685" y="16.596" style="stroke: #000000; stroke-width: 1.5"/>
      </g>
     </g>
    </g>
    <g id="xtick_28">
     <g id="line2d_61">
      <g>
       <use xlink:href="#m09d3244951" x="257.649308" y="242.124" style="stroke: #000000; stroke-width: 1.5"/>
      </g>
     </g>
     <g id="line2d_62">
      <g>
       <use xlink:href="#mf39bf19a57" x="257.649308" y="16.596" style="stroke: #000000; stroke-width: 1.5"/>
      </g>
     </g>
    </g>
    <g id="xtick_29">
     <g id="line2d_63">
      <g>
       <use xlink:href="#m09d3244951" x="266.30193" y="242.124" style="stroke: #000000; stroke-width: 1.5"/>
      </g>
     </g>
     <g id="line2d_64">
      <g>
       <use xlink:href="#mf39bf19a57" x="266.30193" y="16.596" style="stroke: #000000; stroke-width: 1.5"/>
      </g>
     </g>
    </g>
    <g id="xtick_30">
     <g id="line2d_65">
      <g>
       <use xlink:href="#m09d3244951" x="283.607176" y="242.124" style="stroke: #000000; stroke-width: 1.5"/>
      </g>
     </g>
     <g id="line2d_66">
      <g>
       <use xlink:href="#mf39bf19a57" x="283.607176" y="16.596" style="stroke: #000000; stroke-width: 1.5"/>
      </g>
     </g>
    </g>
    <g id="xtick_31">
     <g id="line2d_67">
      <g>
       <use xlink:href="#m09d3244951" x="292.259798" y="242.124" style="stroke: #000000; stroke-width: 1.5"/>
      </g>
     </g>
     <g id="line2d_68">
      <g>
       <use xlink:href="#mf39bf19a57" x="292.259798" y="16.596" style="stroke: #000000; stroke-width: 1.5"/>
      </g>
     </g>
    </g>
    <g id="xtick_32">
     <g id="line2d_69">
      <g>
       <use xlink:href="#m09d3244951" x="300.912421" y="242.124" style="stroke: #000000; stroke-width: 1.5"/>
      </g>
     </g>
     <g id="line2d_70">
      <g>
       <use xlink:href="#mf39bf19a57" x="300.912421" y="16.596" style="stroke: #000000; stroke-width: 1.5"/>
      </g>
     </g>
    </g>
    <g id="xtick_33">
     <g id="line2d_71">
      <g>
       <use xlink:href="#m09d3244951" x="309.565043" y="242.124" style="stroke: #000000; stroke-width: 1.5"/>
      </g>
     </g>
     <g id="line2d_72">
      <g>
       <use xlink:href="#mf39bf19a57" x="309.565043" y="16.596" style="stroke: #000000; stroke-width: 1.5"/>
      </g>
     </g>
    </g>
    <g id="xtick_34">
     <g id="line2d_73">
      <g>
       <use xlink:href="#m09d3244951" x="326.870289" y="242.124" style="stroke: #000000; stroke-width: 1.5"/>
      </g>
     </g>
     <g id="line2d_74">
      <g>
       <use xlink:href="#mf39bf19a57" x="326.870289" y="16.596" style="stroke: #000000; stroke-width: 1.5"/>
      </g>
     </g>
    </g>
    <g id="xtick_35">
     <g id="line2d_75">
      <g>
       <use xlink:href="#m09d3244951" x="335.522911" y="242.124" style="stroke: #000000; stroke-width: 1.5"/>
      </g>
     </g>
     <g id="line2d_76">
      <g>
       <use xlink:href="#mf39bf19a57" x="335.522911" y="16.596" style="stroke: #000000; stroke-width: 1.5"/>
      </g>
     </g>
    </g>
    <g id="xtick_36">
     <g id="line2d_77">
      <g>
       <use xlink:href="#m09d3244951" x="344.175534" y="242.124" style="stroke: #000000; stroke-width: 1.5"/>
      </g>
     </g>
     <g id="line2d_78">
      <g>
       <use xlink:href="#mf39bf19a57" x="344.175534" y="16.596" style="stroke: #000000; stroke-width: 1.5"/>
      </g>
     </g>
    </g>
    <g id="xtick_37">
     <g id="line2d_79">
      <g>
       <use xlink:href="#m09d3244951" x="352.828156" y="242.124" style="stroke: #000000; stroke-width: 1.5"/>
      </g>
     </g>
     <g id="line2d_80">
      <g>
       <use xlink:href="#mf39bf19a57" x="352.828156" y="16.596" style="stroke: #000000; stroke-width: 1.5"/>
      </g>
     </g>
    </g>
    <g id="xtick_38">
     <g id="line2d_81">
      <g>
       <use xlink:href="#m09d3244951" x="370.133402" y="242.124" style="stroke: #000000; stroke-width: 1.5"/>
      </g>
     </g>
     <g id="line2d_82">
      <g>
       <use xlink:href="#mf39bf19a57" x="370.133402" y="16.596" style="stroke: #000000; stroke-width: 1.5"/>
      </g>
     </g>
    </g>
    <g id="xtick_39">
     <g id="line2d_83">
      <g>
       <use xlink:href="#m09d3244951" x="378.786024" y="242.124" style="stroke: #000000; stroke-width: 1.5"/>
      </g>
     </g>
     <g id="line2d_84">
      <g>
       <use xlink:href="#mf39bf19a57" x="378.786024" y="16.596" style="stroke: #000000; stroke-width: 1.5"/>
      </g>
     </g>
    </g>
    <g id="xtick_40">
     <g id="line2d_85">
      <g>
       <use xlink:href="#m09d3244951" x="387.438647" y="242.124" style="stroke: #000000; stroke-width: 1.5"/>
      </g>
     </g>
     <g id="line2d_86">
      <g>
       <use xlink:href="#mf39bf19a57" x="387.438647" y="16.596" style="stroke: #000000; stroke-width: 1.5"/>
      </g>
     </g>
    </g>
    <g id="xtick_41">
     <g id="line2d_87">
      <g>
       <use xlink:href="#m09d3244951" x="396.091269" y="242.124" style="stroke: #000000; stroke-width: 1.5"/>
      </g>
     </g>
     <g id="line2d_88">
      <g>
       <use xlink:href="#mf39bf19a57" x="396.091269" y="16.596" style="stroke: #000000; stroke-width: 1.5"/>
      </g>
     </g>
    </g>
    <g id="xtick_42">
     <g id="line2d_89">
      <g>
       <use xlink:href="#m09d3244951" x="413.396515" y="242.124" style="stroke: #000000; stroke-width: 1.5"/>
      </g>
     </g>
     <g id="line2d_90">
      <g>
       <use xlink:href="#mf39bf19a57" x="413.396515" y="16.596" style="stroke: #000000; stroke-width: 1.5"/>
      </g>
     </g>
    </g>
    <g id="text_13">
     <!-- Distance [R$_\odot$] -->
     <g transform="translate(194.796179 270.355875) scale(0.12 -0.12)">
      <defs>
       <path id="DejaVuSans-44" d="M 1259 4147 
L 1259 519 
L 2022 519 
Q 2988 519 3436 956 
Q 3884 1394 3884 2338 
Q 3884 3275 3436 3711 
Q 2988 4147 2022 4147 
L 1259 4147 
z
M 628 4666 
L 1925 4666 
Q 3281 4666 3915 4102 
Q 4550 3538 4550 2338 
Q 4550 1131 3912 565 
Q 3275 0 1925 0 
L 628 0 
L 628 4666 
z
" transform="scale(0.015625)"/>
       <path id="DejaVuSans-63" d="M 3122 3366 
L 3122 2828 
Q 2878 2963 2633 3030 
Q 2388 3097 2138 3097 
Q 1578 3097 1268 2742 
Q 959 2388 959 1747 
Q 959 1106 1268 751 
Q 1578 397 2138 397 
Q 2388 397 2633 464 
Q 2878 531 3122 666 
L 3122 134 
Q 2881 22 2623 -34 
Q 2366 -91 2075 -91 
Q 1284 -91 818 406 
Q 353 903 353 1747 
Q 353 2603 823 3093 
Q 1294 3584 2113 3584 
Q 2378 3584 2631 3529 
Q 2884 3475 3122 3366 
z
" transform="scale(0.015625)"/>
       <path id="DejaVuSans-65" d="M 3597 1894 
L 3597 1613 
L 953 1613 
Q 991 1019 1311 708 
Q 1631 397 2203 397 
Q 2534 397 2845 478 
Q 3156 559 3463 722 
L 3463 178 
Q 3153 47 2828 -22 
Q 2503 -91 2169 -91 
Q 1331 -91 842 396 
Q 353 884 353 1716 
Q 353 2575 817 3079 
Q 1281 3584 2069 3584 
Q 2775 3584 3186 3129 
Q 3597 2675 3597 1894 
z
M 3022 2063 
Q 3016 2534 2758 2815 
Q 2500 3097 2075 3097 
Q 1594 3097 1305 2825 
Q 1016 2553 972 2059 
L 3022 2063 
z
" transform="scale(0.015625)"/>
       <path id="DejaVuSans-5b" d="M 550 4863 
L 1875 4863 
L 1875 4416 
L 1125 4416 
L 1125 -397 
L 1875 -397 
L 1875 -844 
L 550 -844 
L 550 4863 
z
" transform="scale(0.015625)"/>
       <path id="DejaVuSans-52" d="M 2841 2188 
Q 3044 2119 3236 1894 
Q 3428 1669 3622 1275 
L 4263 0 
L 3584 0 
L 2988 1197 
Q 2756 1666 2539 1819 
Q 2322 1972 1947 1972 
L 1259 1972 
L 1259 0 
L 628 0 
L 628 4666 
L 2053 4666 
Q 2853 4666 3247 4331 
Q 3641 3997 3641 3322 
Q 3641 2881 3436 2590 
Q 3231 2300 2841 2188 
z
M 1259 4147 
L 1259 2491 
L 2053 2491 
Q 2509 2491 2742 2702 
Q 2975 2913 2975 3322 
Q 2975 3731 2742 3939 
Q 2509 4147 2053 4147 
L 1259 4147 
z
" transform="scale(0.015625)"/>
       <path id="DejaVuSans-2299" d="M 2350 2403 
L 3013 2403 
L 3013 1609 
L 2350 1609 
L 2350 2403 
z
M 3306 3522 
Q 3016 3644 2681 3644 
Q 2347 3644 2056 3522 
Q 1769 3400 1531 3163 
Q 1291 2922 1172 2634 
Q 1053 2347 1053 2006 
Q 1053 1675 1172 1387 
Q 1291 1100 1531 859 
Q 1769 622 2056 500 
Q 2347 378 2681 378 
Q 3016 378 3306 500 
Q 3594 622 3831 859 
Q 4072 1100 4190 1387 
Q 4309 1675 4309 2006 
Q 4309 2347 4190 2634 
Q 4072 2922 3831 3163 
Q 3594 3400 3306 3522 
z
M 1878 3956 
Q 2250 4113 2681 4113 
Q 3113 4113 3484 3956 
Q 3856 3800 4163 3494 
Q 4472 3184 4625 2813 
Q 4778 2444 4778 2006 
Q 4778 1578 4625 1206 
Q 4472 838 4163 528 
Q 3856 222 3484 65 
Q 3113 -91 2681 -91 
Q 2250 -91 1878 65 
Q 1506 222 1200 528 
Q 891 838 738 1206 
Q 584 1578 584 2006 
Q 584 2444 738 2813 
Q 891 3184 1200 3494 
Q 1506 3800 1878 3956 
z
" transform="scale(0.015625)"/>
       <path id="DejaVuSans-5d" d="M 1947 4863 
L 1947 -844 
L 622 -844 
L 622 -397 
L 1369 -397 
L 1369 4416 
L 622 4416 
L 622 4863 
L 1947 4863 
z
" transform="scale(0.015625)"/>
      </defs>
      <use xlink:href="#DejaVuSans-44" transform="translate(0 0.015625)"/>
      <use xlink:href="#DejaVuSans-69" transform="translate(77.001953 0.015625)"/>
      <use xlink:href="#DejaVuSans-73" transform="translate(104.785156 0.015625)"/>
      <use xlink:href="#DejaVuSans-74" transform="translate(156.884766 0.015625)"/>
      <use xlink:href="#DejaVuSans-61" transform="translate(196.09375 0.015625)"/>
      <use xlink:href="#DejaVuSans-6e" transform="translate(257.373047 0.015625)"/>
      <use xlink:href="#DejaVuSans-63" transform="translate(320.751953 0.015625)"/>
      <use xlink:href="#DejaVuSans-65" transform="translate(375.732422 0.015625)"/>
      <use xlink:href="#DejaVuSans-20" transform="translate(437.255859 0.015625)"/>
      <use xlink:href="#DejaVuSans-5b" transform="translate(469.042969 0.015625)"/>
      <use xlink:href="#DejaVuSans-52" transform="translate(504.931641 0.015625)"/>
      <use xlink:href="#DejaVuSans-2299" transform="translate(589.008789 -16.390625) scale(0.7)"/>
      <use xlink:href="#DejaVuSans-5d" transform="translate(664.033203 0.015625)"/>
     </g>
    </g>
   </g>
   <g id="matplotlib.axis_2">
    <g id="ytick_1">
     <g id="line2d_91">
      <defs>
       <path id="m012fa7aa07" d="M 0 0 
L 3.5 0 
" style="stroke: #000000; stroke-width: 1.5"/>
      </defs>
      <g>
       <use xlink:href="#m012fa7aa07" x="52.872357" y="242.124" style="stroke: #000000; stroke-width: 1.5"/>
      </g>
     </g>
     <g id="line2d_92">
      <defs>
       <path id="m0ea3be7523" d="M 0 0 
L -3.5 0 
" style="stroke: #000000; stroke-width: 1.5"/>
      </defs>
      <g>
       <use xlink:href="#m0ea3be7523" x="421.2" y="242.124" style="stroke: #000000; stroke-width: 1.5"/>
      </g>
     </g>
     <g id="text_14">
      <!-- $\mathdefault{10^{4}}$ -->
      <g transform="translate(28.252357 246.683062) scale(0.12 -0.12)">
       <use xlink:href="#DejaVuSans-31" transform="translate(0 0.684375)"/>
       <use xlink:href="#DejaVuSans-30" transform="translate(63.623047 0.684375)"/>
       <use xlink:href="#DejaVuSans-34" transform="translate(128.203125 38.965625) scale(0.7)"/>
      </g>
     </g>
    </g>
    <g id="ytick_2">
     <g id="line2d_93">
      <g>
       <use xlink:href="#m012fa7aa07" x="52.872357" y="166.948" style="stroke: #000000; stroke-width: 1.5"/>
      </g>
     </g>
     <g id="line2d_94">
      <g>
       <use xlink:href="#m0ea3be7523" x="421.2" y="166.948" style="stroke: #000000; stroke-width: 1.5"/>
      </g>
     </g>
     <g id="text_15">
      <!-- $\mathdefault{10^{5}}$ -->
      <g transform="translate(28.252357 171.507062) scale(0.12 -0.12)">
       <use xlink:href="#DejaVuSans-31" transform="translate(0 0.684375)"/>
       <use xlink:href="#DejaVuSans-30" transform="translate(63.623047 0.684375)"/>
       <use xlink:href="#DejaVuSans-35" transform="translate(128.203125 38.965625) scale(0.7)"/>
      </g>
     </g>
    </g>
    <g id="ytick_3">
     <g id="line2d_95">
      <g>
       <use xlink:href="#m012fa7aa07" x="52.872357" y="91.772" style="stroke: #000000; stroke-width: 1.5"/>
      </g>
     </g>
     <g id="line2d_96">
      <g>
       <use xlink:href="#m0ea3be7523" x="421.2" y="91.772" style="stroke: #000000; stroke-width: 1.5"/>
      </g>
     </g>
     <g id="text_16">
      <!-- $\mathdefault{10^{6}}$ -->
      <g transform="translate(28.252357 96.331063) scale(0.12 -0.12)">
       <defs>
        <path id="DejaVuSans-36" d="M 2113 2584 
Q 1688 2584 1439 2293 
Q 1191 2003 1191 1497 
Q 1191 994 1439 701 
Q 1688 409 2113 409 
Q 2538 409 2786 701 
Q 3034 994 3034 1497 
Q 3034 2003 2786 2293 
Q 2538 2584 2113 2584 
z
M 3366 4563 
L 3366 3988 
Q 3128 4100 2886 4159 
Q 2644 4219 2406 4219 
Q 1781 4219 1451 3797 
Q 1122 3375 1075 2522 
Q 1259 2794 1537 2939 
Q 1816 3084 2150 3084 
Q 2853 3084 3261 2657 
Q 3669 2231 3669 1497 
Q 3669 778 3244 343 
Q 2819 -91 2113 -91 
Q 1303 -91 875 529 
Q 447 1150 447 2328 
Q 447 3434 972 4092 
Q 1497 4750 2381 4750 
Q 2619 4750 2861 4703 
Q 3103 4656 3366 4563 
z
" transform="scale(0.015625)"/>
       </defs>
       <use xlink:href="#DejaVuSans-31" transform="translate(0 0.765625)"/>
       <use xlink:href="#DejaVuSans-30" transform="translate(63.623047 0.765625)"/>
       <use xlink:href="#DejaVuSans-36" transform="translate(128.203125 39.046875) scale(0.7)"/>
      </g>
     </g>
    </g>
    <g id="ytick_4">
     <g id="line2d_97">
      <g>
       <use xlink:href="#m012fa7aa07" x="52.872357" y="16.596" style="stroke: #000000; stroke-width: 1.5"/>
      </g>
     </g>
     <g id="line2d_98">
      <g>
       <use xlink:href="#m0ea3be7523" x="421.2" y="16.596" style="stroke: #000000; stroke-width: 1.5"/>
      </g>
     </g>
     <g id="text_17">
      <!-- $\mathdefault{10^{7}}$ -->
      <g transform="translate(28.252357 21.155062) scale(0.12 -0.12)">
       <defs>
        <path id="DejaVuSans-37" d="M 525 4666 
L 3525 4666 
L 3525 4397 
L 1831 0 
L 1172 0 
L 2766 4134 
L 525 4134 
L 525 4666 
z
" transform="scale(0.015625)"/>
       </defs>
       <use xlink:href="#DejaVuSans-31" transform="translate(0 0.684375)"/>
       <use xlink:href="#DejaVuSans-30" transform="translate(63.623047 0.684375)"/>
       <use xlink:href="#DejaVuSans-37" transform="translate(128.203125 38.965625) scale(0.7)"/>
      </g>
     </g>
    </g>
    <g id="ytick_5">
     <g id="line2d_99">
      <defs>
       <path id="m4fc214d8af" d="M 0 0 
L 2 0 
" style="stroke: #000000; stroke-width: 1.5"/>
      </defs>
      <g>
       <use xlink:href="#m4fc214d8af" x="52.872357" y="219.493769" style="stroke: #000000; stroke-width: 1.5"/>
      </g>
     </g>
     <g id="line2d_100">
      <defs>
       <path id="m23238d86a9" d="M 0 0 
L -2 0 
" style="stroke: #000000; stroke-width: 1.5"/>
      </defs>
      <g>
       <use xlink:href="#m23238d86a9" x="421.2" y="219.493769" style="stroke: #000000; stroke-width: 1.5"/>
      </g>
     </g>
    </g>
    <g id="ytick_6">
     <g id="line2d_101">
      <g>
       <use xlink:href="#m4fc214d8af" x="52.872357" y="206.255933" style="stroke: #000000; stroke-width: 1.5"/>
      </g>
     </g>
     <g id="line2d_102">
      <g>
       <use xlink:href="#m23238d86a9" x="421.2" y="206.255933" style="stroke: #000000; stroke-width: 1.5"/>
      </g>
     </g>
    </g>
    <g id="ytick_7">
     <g id="line2d_103">
      <g>
       <use xlink:href="#m4fc214d8af" x="52.872357" y="196.863538" style="stroke: #000000; stroke-width: 1.5"/>
      </g>
     </g>
     <g id="line2d_104">
      <g>
       <use xlink:href="#m23238d86a9" x="421.2" y="196.863538" style="stroke: #000000; stroke-width: 1.5"/>
      </g>
     </g>
    </g>
    <g id="ytick_8">
     <g id="line2d_105">
      <g>
       <use xlink:href="#m4fc214d8af" x="52.872357" y="189.578231" style="stroke: #000000; stroke-width: 1.5"/>
      </g>
     </g>
     <g id="line2d_106">
      <g>
       <use xlink:href="#m23238d86a9" x="421.2" y="189.578231" style="stroke: #000000; stroke-width: 1.5"/>
      </g>
     </g>
    </g>
    <g id="ytick_9">
     <g id="line2d_107">
      <g>
       <use xlink:href="#m4fc214d8af" x="52.872357" y="183.625702" style="stroke: #000000; stroke-width: 1.5"/>
      </g>
     </g>
     <g id="line2d_108">
      <g>
       <use xlink:href="#m23238d86a9" x="421.2" y="183.625702" style="stroke: #000000; stroke-width: 1.5"/>
      </g>
     </g>
    </g>
    <g id="ytick_10">
     <g id="line2d_109">
      <g>
       <use xlink:href="#m4fc214d8af" x="52.872357" y="178.59291" style="stroke: #000000; stroke-width: 1.5"/>
      </g>
     </g>
     <g id="line2d_110">
      <g>
       <use xlink:href="#m23238d86a9" x="421.2" y="178.59291" style="stroke: #000000; stroke-width: 1.5"/>
      </g>
     </g>
    </g>
    <g id="ytick_11">
     <g id="line2d_111">
      <g>
       <use xlink:href="#m4fc214d8af" x="52.872357" y="174.233307" style="stroke: #000000; stroke-width: 1.5"/>
      </g>
     </g>
     <g id="line2d_112">
      <g>
       <use xlink:href="#m23238d86a9" x="421.2" y="174.233307" style="stroke: #000000; stroke-width: 1.5"/>
      </g>
     </g>
    </g>
    <g id="ytick_12">
     <g id="line2d_113">
      <g>
       <use xlink:href="#m4fc214d8af" x="52.872357" y="170.387865" style="stroke: #000000; stroke-width: 1.5"/>
      </g>
     </g>
     <g id="line2d_114">
      <g>
       <use xlink:href="#m23238d86a9" x="421.2" y="170.387865" style="stroke: #000000; stroke-width: 1.5"/>
      </g>
     </g>
    </g>
    <g id="ytick_13">
     <g id="line2d_115">
      <g>
       <use xlink:href="#m4fc214d8af" x="52.872357" y="144.317769" style="stroke: #000000; stroke-width: 1.5"/>
      </g>
     </g>
     <g id="line2d_116">
      <g>
       <use xlink:href="#m23238d86a9" x="421.2" y="144.317769" style="stroke: #000000; stroke-width: 1.5"/>
      </g>
     </g>
    </g>
    <g id="ytick_14">
     <g id="line2d_117">
      <g>
       <use xlink:href="#m4fc214d8af" x="52.872357" y="131.079933" style="stroke: #000000; stroke-width: 1.5"/>
      </g>
     </g>
     <g id="line2d_118">
      <g>
       <use xlink:href="#m23238d86a9" x="421.2" y="131.079933" style="stroke: #000000; stroke-width: 1.5"/>
      </g>
     </g>
    </g>
    <g id="ytick_15">
     <g id="line2d_119">
      <g>
       <use xlink:href="#m4fc214d8af" x="52.872357" y="121.687538" style="stroke: #000000; stroke-width: 1.5"/>
      </g>
     </g>
     <g id="line2d_120">
      <g>
       <use xlink:href="#m23238d86a9" x="421.2" y="121.687538" style="stroke: #000000; stroke-width: 1.5"/>
      </g>
     </g>
    </g>
    <g id="ytick_16">
     <g id="line2d_121">
      <g>
       <use xlink:href="#m4fc214d8af" x="52.872357" y="114.402231" style="stroke: #000000; stroke-width: 1.5"/>
      </g>
     </g>
     <g id="line2d_122">
      <g>
       <use xlink:href="#m23238d86a9" x="421.2" y="114.402231" style="stroke: #000000; stroke-width: 1.5"/>
      </g>
     </g>
    </g>
    <g id="ytick_17">
     <g id="line2d_123">
      <g>
       <use xlink:href="#m4fc214d8af" x="52.872357" y="108.449702" style="stroke: #000000; stroke-width: 1.5"/>
      </g>
     </g>
     <g id="line2d_124">
      <g>
       <use xlink:href="#m23238d86a9" x="421.2" y="108.449702" style="stroke: #000000; stroke-width: 1.5"/>
      </g>
     </g>
    </g>
    <g id="ytick_18">
     <g id="line2d_125">
      <g>
       <use xlink:href="#m4fc214d8af" x="52.872357" y="103.41691" style="stroke: #000000; stroke-width: 1.5"/>
      </g>
     </g>
     <g id="line2d_126">
      <g>
       <use xlink:href="#m23238d86a9" x="421.2" y="103.41691" style="stroke: #000000; stroke-width: 1.5"/>
      </g>
     </g>
    </g>
    <g id="ytick_19">
     <g id="line2d_127">
      <g>
       <use xlink:href="#m4fc214d8af" x="52.872357" y="99.057307" style="stroke: #000000; stroke-width: 1.5"/>
      </g>
     </g>
     <g id="line2d_128">
      <g>
       <use xlink:href="#m23238d86a9" x="421.2" y="99.057307" style="stroke: #000000; stroke-width: 1.5"/>
      </g>
     </g>
    </g>
    <g id="ytick_20">
     <g id="line2d_129">
      <g>
       <use xlink:href="#m4fc214d8af" x="52.872357" y="95.211865" style="stroke: #000000; stroke-width: 1.5"/>
      </g>
     </g>
     <g id="line2d_130">
      <g>
       <use xlink:href="#m23238d86a9" x="421.2" y="95.211865" style="stroke: #000000; stroke-width: 1.5"/>
      </g>
     </g>
    </g>
    <g id="ytick_21">
     <g id="line2d_131">
      <g>
       <use xlink:href="#m4fc214d8af" x="52.872357" y="69.141769" style="stroke: #000000; stroke-width: 1.5"/>
      </g>
     </g>
     <g id="line2d_132">
      <g>
       <use xlink:href="#m23238d86a9" x="421.2" y="69.141769" style="stroke: #000000; stroke-width: 1.5"/>
      </g>
     </g>
    </g>
    <g id="ytick_22">
     <g id="line2d_133">
      <g>
       <use xlink:href="#m4fc214d8af" x="52.872357" y="55.903933" style="stroke: #000000; stroke-width: 1.5"/>
      </g>
     </g>
     <g id="line2d_134">
      <g>
       <use xlink:href="#m23238d86a9" x="421.2" y="55.903933" style="stroke: #000000; stroke-width: 1.5"/>
      </g>
     </g>
    </g>
    <g id="ytick_23">
     <g id="line2d_135">
      <g>
       <use xlink:href="#m4fc214d8af" x="52.872357" y="46.511538" style="stroke: #000000; stroke-width: 1.5"/>
      </g>
     </g>
     <g id="line2d_136">
      <g>
       <use xlink:href="#m23238d86a9" x="421.2" y="46.511538" style="stroke: #000000; stroke-width: 1.5"/>
      </g>
     </g>
    </g>
    <g id="ytick_24">
     <g id="line2d_137">
      <g>
       <use xlink:href="#m4fc214d8af" x="52.872357" y="39.226231" style="stroke: #000000; stroke-width: 1.5"/>
      </g>
     </g>
     <g id="line2d_138">
      <g>
       <use xlink:href="#m23238d86a9" x="421.2" y="39.226231" style="stroke: #000000; stroke-width: 1.5"/>
      </g>
     </g>
    </g>
    <g id="ytick_25">
     <g id="line2d_139">
      <g>
       <use xlink:href="#m4fc214d8af" x="52.872357" y="33.273702" style="stroke: #000000; stroke-width: 1.5"/>
      </g>
     </g>
     <g id="line2d_140">
      <g>
       <use xlink:href="#m23238d86a9" x="421.2" y="33.273702" style="stroke: #000000; stroke-width: 1.5"/>
      </g>
     </g>
    </g>
    <g id="ytick_26">
     <g id="line2d_141">
      <g>
       <use xlink:href="#m4fc214d8af" x="52.872357" y="28.24091" style="stroke: #000000; stroke-width: 1.5"/>
      </g>
     </g>
     <g id="line2d_142">
      <g>
       <use xlink:href="#m23238d86a9" x="421.2" y="28.24091" style="stroke: #000000; stroke-width: 1.5"/>
      </g>
     </g>
    </g>
    <g id="ytick_27">
     <g id="line2d_143">
      <g>
       <use xlink:href="#m4fc214d8af" x="52.872357" y="23.881307" style="stroke: #000000; stroke-width: 1.5"/>
      </g>
     </g>
     <g id="line2d_144">
      <g>
       <use xlink:href="#m23238d86a9" x="421.2" y="23.881307" style="stroke: #000000; stroke-width: 1.5"/>
      </g>
     </g>
    </g>
    <g id="ytick_28">
     <g id="line2d_145">
      <g>
       <use xlink:href="#m4fc214d8af" x="52.872357" y="20.035865" style="stroke: #000000; stroke-width: 1.5"/>
      </g>
     </g>
     <g id="line2d_146">
      <g>
       <use xlink:href="#m23238d86a9" x="421.2" y="20.035865" style="stroke: #000000; stroke-width: 1.5"/>
      </g>
     </g>
    </g>
    <g id="text_18">
     <!-- T [K] -->
     <g transform="translate(21.756732 143.548125) rotate(-90) scale(0.12 -0.12)">
      <defs>
       <path id="DejaVuSans-54" d="M -19 4666 
L 3928 4666 
L 3928 4134 
L 2272 4134 
L 2272 0 
L 1638 0 
L 1638 4134 
L -19 4134 
L -19 4666 
z
" transform="scale(0.015625)"/>
       <path id="DejaVuSans-4b" d="M 628 4666 
L 1259 4666 
L 1259 2694 
L 3353 4666 
L 4166 4666 
L 1850 2491 
L 4331 0 
L 3500 0 
L 1259 2247 
L 1259 0 
L 628 0 
L 628 4666 
z
" transform="scale(0.015625)"/>
      </defs>
      <use xlink:href="#DejaVuSans-54"/>
      <use xlink:href="#DejaVuSans-20" x="61.083984"/>
      <use xlink:href="#DejaVuSans-5b" x="92.871094"/>
      <use xlink:href="#DejaVuSans-4b" x="131.884766"/>
      <use xlink:href="#DejaVuSans-5d" x="197.460938"/>
     </g>
    </g>
   </g>
  </g>
 </g>
 <defs>
  <clipPath id="p82eda1668f">
   <rect x="52.872357" y="16.596" width="368.327643" height="225.528"/>
  </clipPath>
 </defs>
</svg>
