<?xml version="1.0" encoding="utf-8" standalone="no"?>
<!DOCTYPE svg PUBLIC "-//W3C//DTD SVG 1.1//EN"
  "http://www.w3.org/Graphics/SVG/1.1/DTD/svg11.dtd">
<svg xmlns:xlink="http://www.w3.org/1999/xlink" width="432pt" height="288pt" viewBox="0 0 432 288" xmlns="http://www.w3.org/2000/svg" version="1.1">
 <metadata>
  <rdf:RDF xmlns:dc="http://purl.org/dc/elements/1.1/" xmlns:cc="http://creativecommons.org/ns#" xmlns:rdf="http://www.w3.org/1999/02/22-rdf-syntax-ns#">
   <cc:Work>
    <dc:type rdf:resource="http://purl.org/dc/dcmitype/StillImage"/>
    <dc:date>2022-11-22T12:39:44.731816</dc:date>
    <dc:format>image/svg+xml</dc:format>
    <dc:creator>
     <cc:Agent>
      <dc:title>Matplotlib v3.6.2, https://matplotlib.org/</dc:title>
     </cc:Agent>
    </dc:creator>
   </cc:Work>
  </rdf:RDF>
 </metadata>
 <defs>
  <style type="text/css">*{stroke-linejoin: round; stroke-linecap: butt}</style>
 </defs>
 <g id="figure_1">
  <g id="patch_1">
   <path d="M 0 288 
L 432 288 
L 432 0 
L 0 0 
z
" style="fill: #ffffff"/>
  </g>
  <g id="axes_1">
   <g id="patch_2">
    <path d="M 52.872357 242.124 
L 421.2 242.124 
L 421.2 16.596 
L 52.872357 16.596 
z
" style="fill: #ffffff"/>
   </g>
   <g id="patch_3">
    <path d="M 52.872357 242.124 
L 52.872357 16.596 
" style="fill: none; stroke: #000000; stroke-width: 1.5; stroke-linejoin: miter; stroke-linecap: square"/>
   </g>
   <g id="patch_4">
    <path d="M 421.2 242.124 
L 421.2 16.596 
" style="fill: none; stroke: #000000; stroke-width: 1.5; stroke-linejoin: miter; stroke-linecap: square"/>
   </g>
   <g id="patch_5">
    <path d="M 52.872357 242.124 
L 421.2 242.124 
" style="fill: none; stroke: #000000; stroke-width: 1.5; stroke-linejoin: miter; stroke-linecap: square"/>
   </g>
   <g id="patch_6">
    <path d="M 52.872357 16.596 
L 421.2 16.596 
" style="fill: none; stroke: #000000; stroke-width: 1.5; stroke-linejoin: miter; stroke-linecap: square"/>
   </g>
   <g id="PolyCollection_1">
    <defs>
     <path id="mcddf688ac6" d="M 196.938466 -178.617459 
L 196.938466 -164.244243 
L 197.458681 -157.595987 
L 198.358234 -167.038867 
L 199.227096 -163.311875 
L 200.100274 -155.347197 
L 200.943208 -152.515802 
L 201.833949 -152.153148 
L 202.700165 -146.655597 
L 203.566069 -146.842914 
L 204.431884 -148.376284 
L 205.297699 -151.093168 
L 206.163267 -147.70087 
L 207.028797 -147.842446 
L 207.89447 -152.329943 
L 208.759858 -145.317382 
L 209.625256 -145.829376 
L 210.490724 -146.584092 
L 211.356152 -149.585239 
L 212.22158 -150.265502 
L 213.086911 -146.11897 
L 213.952305 -144.979771 
L 214.817677 -140.137816 
L 215.682881 -141.215721 
L 216.548172 -141.049397 
L 217.413706 -140.931763 
L 218.278997 -139.100581 
L 219.143947 -139.228362 
L 220.0094 -141.909267 
L 220.87476 -138.406344 
L 221.740072 -127.132089 
L 222.605506 -125.00881 
L 223.471012 -125.620983 
L 224.336314 -145.958746 
L 225.201448 -143.417323 
L 226.067287 -141.88621 
L 226.931872 -143.602792 
L 227.797158 -144.344512 
L 228.662251 -147.905565 
L 229.527661 -144.666645 
L 230.393047 -142.638376 
L 231.258381 -139.925342 
L 232.123653 -138.521979 
L 232.988877 -114.808315 
L 233.85408 -115.581836 
L 234.848253 -153.753246 
L 235.555053 -158.703771 
L 236.437376 -158.557408 
L 237.308405 -154.881573 
L 238.1755 -154.128759 
L 239.041671 -160.585605 
L 239.907848 -160.315685 
L 240.773938 -158.367678 
L 241.639519 -157.405137 
L 242.504984 -156.104244 
L 243.370443 -150.829184 
L 244.235784 -143.736589 
L 245.101463 -147.345469 
L 245.966864 -142.274042 
L 246.832143 -133.050049 
L 247.697672 -122.039211 
L 248.563129 -117.992947 
L 249.428578 -125.35079 
L 250.293749 -125.462971 
L 251.159177 -133.314018 
L 252.024485 -126.745723 
L 252.889646 -139.888956 
L 253.75473 -141.623069 
L 254.620024 -139.563504 
L 255.485703 -142.521132 
L 256.350887 -136.831694 
L 257.215848 -138.758698 
L 258.081472 -138.014675 
L 258.946804 -138.34966 
L 259.811861 -139.189699 
L 260.676218 -138.488264 
L 261.545001 -140.182086 
L 262.406375 -136.859261 
L 263.272374 -139.062849 
L 264.134484 -140.327799 
L 265.002031 -139.23081 
L 265.869532 -143.945675 
L 266.73147 -136.492341 
L 267.59961 -134.448111 
L 268.465042 -133.661269 
L 269.332562 -130.513896 
L 270.195513 -142.256173 
L 271.060842 -139.709987 
L 271.924127 -139.233077 
L 272.791354 -134.65853 
L 273.656468 -136.216579 
L 274.521733 -130.06002 
L 275.387453 -136.348085 
L 276.252265 -132.503789 
L 277.117637 -124.264878 
L 277.989126 -130.671147 
L 278.90849 -135.051735 
L 279.715963 -138.05591 
L 280.578461 -141.946734 
L 281.444158 -142.944528 
L 282.327307 -131.877592 
L 283.15192 -126.48636 
L 284.037577 -143.32481 
L 284.90329 -143.355852 
L 285.776846 -143.415807 
L 286.649825 -145.721468 
L 287.495566 -145.26064 
L 288.357688 -146.780247 
L 289.298284 -145.840231 
L 290.096171 -147.106737 
L 290.951655 -144.137023 
L 291.869287 -137.960929 
L 292.711362 -149.758296 
L 293.613025 -146.019927 
L 294.423737 -148.315953 
L 295.246614 -147.800355 
L 296.028994 -156.925404 
L 297.025667 -145.417421 
L 297.948816 -118.729272 
L 298.800176 -121.896113 
L 299.653418 -125.335947 
L 300.439332 -124.186933 
L 301.274239 -127.011782 
L 302.215523 -142.866443 
L 303.077734 -143.134254 
L 303.933712 -119.591069 
L 304.791312 -126.821204 
L 305.747 -128.251733 
L 306.516746 -123.35021 
L 307.428057 -126.931456 
L 308.270374 -124.590253 
L 309.115986 -119.270844 
L 310.013067 -132.974985 
L 310.877393 -136.569798 
L 311.69526 -140.837714 
L 312.586598 -138.206262 
L 313.432183 -143.853281 
L 314.314484 -146.434426 
L 315.179744 -144.98088 
L 316.050859 -143.895895 
L 316.938532 -151.448992 
L 317.767577 -148.199556 
L 318.62417 -146.209769 
L 319.517602 -149.692563 
L 320.366869 -155.057822 
L 321.246552 -152.740686 
L 322.100051 -149.537692 
L 322.970552 -146.247237 
L 323.777901 -160.998025 
L 324.517853 -149.348956 
L 325.701171 -144.391631 
L 326.439673 -138.294292 
L 327.273494 -146.965012 
L 328.165562 -140.116889 
L 329.087849 -150.580524 
L 329.879706 -142.79151 
L 330.754098 -151.973448 
L 331.633047 -137.245532 
L 332.481184 -133.582665 
L 333.330117 -120.851392 
L 334.237583 -135.868813 
L 335.082405 -134.251887 
L 335.94924 -135.362735 
L 336.812974 -118.369761 
L 337.681769 -124.793216 
L 338.577424 -130.169448 
L 339.425147 -128.652651 
L 340.27705 -138.157061 
L 341.141985 -139.332279 
L 342.038497 -133.10096 
L 342.869736 -136.558985 
L 343.726975 -137.265353 
L 344.583165 -127.765238 
L 345.468135 -128.446936 
L 346.328826 -131.076234 
L 347.227214 -130.114239 
L 348.082205 -131.354258 
L 348.952818 -133.325555 
L 349.76867 -131.588306 
L 350.651638 -134.047346 
L 351.51822 -135.434929 
L 352.388531 -133.607115 
L 353.263913 -140.6714 
L 354.128433 -131.394642 
L 354.980973 -125.456035 
L 355.874524 -119.253506 
L 356.768202 -135.86472 
L 357.588771 -144.246405 
L 358.448733 -145.328847 
L 359.320247 -147.82728 
L 360.116361 -144.041515 
L 361.079166 -144.061413 
L 361.891761 -136.671117 
L 362.758473 -142.498096 
L 363.632304 -139.417466 
L 364.528503 -141.928294 
L 365.372409 -140.018924 
L 366.194351 -145.274521 
L 367.093905 -136.166751 
L 367.970511 -141.144273 
L 368.794231 -145.33598 
L 369.703108 -144.880693 
L 370.54877 -141.240697 
L 371.434637 -144.811799 
L 372.328156 -143.932332 
L 373.150293 -144.8106 
L 374.052754 -142.860154 
L 374.863487 -140.961803 
L 375.771854 -143.26602 
L 376.646919 -129.63042 
L 377.455725 -122.763551 
L 378.301742 -102.340604 
L 379.228744 -134.069733 
L 379.979225 -136.345427 
L 381.008015 -155.251393 
L 381.812084 -155.444001 
L 382.799753 -116.169206 
L 383.552369 -110.263485 
L 384.408747 -101.782709 
L 385.268626 -109.650205 
L 386.133959 -116.417429 
L 387.020493 -123.197456 
L 387.889806 -132.847715 
L 388.753886 -138.728964 
L 389.586168 -142.892638 
L 390.43123 -136.631906 
L 391.351907 -134.086388 
L 392.201282 -133.851156 
L 393.063973 -134.852265 
L 393.936998 -135.703464 
L 394.787631 -133.528573 
L 395.641102 -141.179361 
L 396.537978 -139.72283 
L 397.366815 -140.075512 
L 398.263094 -145.635938 
L 399.125385 -146.012865 
L 399.977782 -142.399776 
L 400.858871 -142.385131 
L 401.711705 -138.645417 
L 402.559624 -142.471166 
L 403.454592 -147.422546 
L 404.325802 -137.223535 
L 404.325802 -168.018254 
L 404.325802 -168.018254 
L 403.454592 -167.623379 
L 402.559624 -170.110499 
L 401.711705 -166.995366 
L 400.858871 -167.627876 
L 399.977782 -162.462861 
L 399.125385 -166.764053 
L 398.263094 -156.03027 
L 397.366815 -157.198855 
L 396.537978 -158.469254 
L 395.641102 -156.213586 
L 394.787631 -159.333406 
L 393.936998 -162.110421 
L 393.063973 -159.578277 
L 392.201282 -159.638061 
L 391.351907 -162.448068 
L 390.43123 -162.012981 
L 389.586168 -178.120926 
L 388.753886 -174.523268 
L 387.889806 -174.566721 
L 387.020493 -169.049265 
L 386.133959 -157.523273 
L 385.268626 -163.01252 
L 384.408747 -168.022172 
L 383.552369 -169.741351 
L 382.799753 -169.748034 
L 381.812084 -171.505681 
L 381.008015 -168.392663 
L 379.979225 -170.022717 
L 379.228744 -171.575377 
L 378.301742 -171.953419 
L 377.455725 -169.674573 
L 376.646919 -169.743663 
L 375.771854 -173.929652 
L 374.863487 -170.365799 
L 374.052754 -177.158617 
L 373.150293 -167.46892 
L 372.328156 -166.206353 
L 371.434637 -172.713049 
L 370.54877 -166.310859 
L 369.703108 -163.152616 
L 368.794231 -159.80041 
L 367.970511 -160.969424 
L 367.093905 -158.021904 
L 366.194351 -166.82466 
L 365.372409 -164.116439 
L 364.528503 -159.712057 
L 363.632304 -157.518331 
L 362.758473 -156.573279 
L 361.891761 -163.453862 
L 361.079166 -163.958559 
L 360.116361 -161.010893 
L 359.320247 -161.253499 
L 358.448733 -160.911647 
L 357.588771 -170.826752 
L 356.768202 -172.310541 
L 355.874524 -149.319368 
L 354.980973 -145.354257 
L 354.128433 -146.628295 
L 353.263913 -148.365861 
L 352.388531 -145.90417 
L 351.51822 -148.408674 
L 350.651638 -151.679284 
L 349.76867 -157.31115 
L 348.952818 -151.464974 
L 348.082205 -142.330183 
L 347.227214 -156.406547 
L 346.328826 -151.072791 
L 345.468135 -161.266929 
L 344.583165 -162.266219 
L 343.726975 -154.187621 
L 342.869736 -152.351997 
L 342.038497 -157.699226 
L 341.141985 -160.04832 
L 340.27705 -157.00851 
L 339.425147 -155.858208 
L 338.577424 -152.987343 
L 337.681769 -170.334936 
L 336.812974 -157.355457 
L 335.94924 -149.370347 
L 335.082405 -153.496587 
L 334.237583 -154.668066 
L 333.330117 -172.200557 
L 332.481184 -170.154636 
L 331.633047 -167.090655 
L 330.754098 -170.737993 
L 329.879706 -165.051739 
L 329.087849 -180.423985 
L 328.165562 -177.868313 
L 327.273494 -175.62919 
L 326.439673 -163.585111 
L 325.701171 -161.135042 
L 324.517853 -180.760668 
L 323.777901 -185.409826 
L 322.970552 -171.280393 
L 322.100051 -171.633118 
L 321.246552 -173.13024 
L 320.366869 -175.390503 
L 319.517602 -173.629861 
L 318.62417 -176.256744 
L 317.767577 -178.925516 
L 316.938532 -177.088944 
L 316.050859 -176.706327 
L 315.179744 -164.297088 
L 314.314484 -161.647644 
L 313.432183 -165.056872 
L 312.586598 -167.143501 
L 311.69526 -168.568617 
L 310.877393 -172.613488 
L 310.013067 -174.726593 
L 309.115986 -173.683524 
L 308.270374 -169.963962 
L 307.428057 -174.561285 
L 306.516746 -164.440476 
L 305.747 -161.865739 
L 304.791312 -169.856037 
L 303.933712 -182.229945 
L 303.077734 -167.769274 
L 302.215523 -180.217009 
L 301.274239 -171.589598 
L 300.439332 -164.175077 
L 299.653418 -163.18569 
L 298.800176 -163.18316 
L 297.948816 -169.764113 
L 297.025667 -163.957911 
L 296.028994 -175.82422 
L 295.246614 -175.406147 
L 294.423737 -169.703528 
L 293.613025 -174.807422 
L 292.711362 -170.597561 
L 291.869287 -178.294609 
L 290.951655 -181.391934 
L 290.096171 -177.752083 
L 289.298284 -180.248533 
L 288.357688 -181.838873 
L 287.495566 -178.828625 
L 286.649825 -176.9089 
L 285.776846 -175.427527 
L 284.90329 -174.083684 
L 284.037577 -172.029778 
L 283.15192 -171.394816 
L 282.327307 -171.434762 
L 281.444158 -172.886986 
L 280.578461 -169.12374 
L 279.715963 -166.109117 
L 278.90849 -170.100864 
L 277.989126 -176.151866 
L 277.117637 -177.473666 
L 276.252265 -171.630254 
L 275.387453 -168.497454 
L 274.521733 -172.050519 
L 273.656468 -169.53251 
L 272.791354 -173.011967 
L 271.924127 -171.635093 
L 271.060842 -173.617779 
L 270.195513 -175.318677 
L 269.332562 -173.135181 
L 268.465042 -173.187079 
L 267.59961 -176.557056 
L 266.73147 -173.28452 
L 265.869532 -174.103755 
L 265.002031 -174.838647 
L 264.134484 -176.912853 
L 263.272374 -178.229092 
L 262.406375 -182.901001 
L 261.545001 -180.19747 
L 260.676218 -182.483107 
L 259.811861 -183.552987 
L 258.946804 -181.664385 
L 258.081472 -182.475889 
L 257.215848 -180.219648 
L 256.350887 -182.226608 
L 255.485703 -180.96009 
L 254.620024 -178.372783 
L 253.75473 -177.544822 
L 252.889646 -177.837324 
L 252.024485 -184.75092 
L 251.159177 -182.238368 
L 250.293749 -184.606852 
L 249.428578 -183.009134 
L 248.563129 -184.48751 
L 247.697672 -182.281274 
L 246.832143 -183.363074 
L 245.966864 -187.359359 
L 245.101463 -185.965919 
L 244.235784 -187.731344 
L 243.370443 -191.321145 
L 242.504984 -188.549353 
L 241.639519 -190.057415 
L 240.773938 -189.61989 
L 239.907848 -191.471781 
L 239.041671 -190.943624 
L 238.1755 -187.837627 
L 237.308405 -186.174639 
L 236.437376 -186.419579 
L 235.555053 -189.178397 
L 234.848253 -180.872891 
L 233.85408 -190.32555 
L 232.988877 -194.045552 
L 232.123653 -192.175265 
L 231.258381 -193.111688 
L 230.393047 -191.729687 
L 229.527661 -184.267499 
L 228.662251 -184.785189 
L 227.797158 -187.095535 
L 226.931872 -184.562642 
L 226.067287 -186.401646 
L 225.201448 -186.617205 
L 224.336314 -185.153346 
L 223.471012 -194.316387 
L 222.605506 -188.671566 
L 221.740072 -186.046303 
L 220.87476 -180.333899 
L 220.0094 -175.518186 
L 219.143947 -171.837268 
L 218.278997 -171.237638 
L 217.413706 -174.115963 
L 216.548172 -175.781663 
L 215.682881 -176.676812 
L 214.817677 -178.156027 
L 213.952305 -175.64755 
L 213.086911 -174.7746 
L 212.22158 -179.808464 
L 211.356152 -178.493421 
L 210.490724 -175.211588 
L 209.625256 -171.547341 
L 208.759858 -178.493473 
L 207.89447 -183.698833 
L 207.028797 -182.690277 
L 206.163267 -181.712744 
L 205.297699 -182.030974 
L 204.431884 -183.716308 
L 203.566069 -178.682265 
L 202.700165 -176.528185 
L 201.833949 -173.682353 
L 200.943208 -170.081602 
L 200.100274 -177.914443 
L 199.227096 -183.78024 
L 198.358234 -184.188534 
L 197.458681 -172.372173 
L 196.938466 -178.617459 
z
" style="stroke: #add8e6"/>
    </defs>
    <g clip-path="url(#pb16436707e)">
     <use xlink:href="#mcddf688ac6" x="0" y="288" style="fill: #add8e6; stroke: #add8e6"/>
    </g>
   </g>
   <g id="line2d_1">
    <path d="M 196.938466 115.784495 
L 197.458681 122.187026 
L 198.358234 111.272962 
L 199.227096 112.875512 
L 200.943208 125.533918 
L 201.833949 123.338892 
L 202.700165 123.104447 
L 203.566069 121.500836 
L 204.431884 117.388714 
L 205.297699 117.902761 
L 206.163267 119.051057 
L 207.028797 118.289496 
L 207.89447 116.354761 
L 208.759858 122.050276 
L 209.625256 126.8422 
L 210.490724 124.060095 
L 211.356152 120.860487 
L 212.22158 119.729561 
L 213.086911 124.505348 
L 213.952305 124.210523 
L 214.817677 123.606217 
L 216.548172 125.168498 
L 217.413706 126.429941 
L 218.278997 129.026718 
L 219.143947 128.554772 
L 220.0094 125.14004 
L 221.740072 119.610229 
L 222.605506 117.615492 
L 223.471012 112.556841 
L 224.336314 116.884891 
L 225.201448 116.305067 
L 226.067287 116.792906 
L 226.931872 117.875644 
L 227.797158 115.731833 
L 228.662251 116.702614 
L 229.527661 117.864291 
L 230.393047 112.346289 
L 231.258381 111.671908 
L 232.988877 113.821965 
L 233.85408 117.153408 
L 234.848253 117.948465 
L 235.555053 110.625278 
L 236.437376 112.625359 
L 237.308405 113.857955 
L 238.1755 112.846876 
L 239.041671 108.827098 
L 239.907848 108.52279 
L 240.773938 110.401375 
L 241.639519 110.346295 
L 242.504984 111.798516 
L 243.370443 111.012731 
L 244.235784 115.356482 
L 245.101463 115.938567 
L 245.966864 115.950461 
L 246.832143 120.931739 
L 247.697672 123.559645 
L 248.563129 122.139172 
L 249.428578 122.46698 
L 250.293749 121.082036 
L 251.159177 121.807177 
L 252.024485 120.775619 
L 252.889646 123.908293 
L 254.620024 123.575891 
L 255.485703 120.90174 
L 256.350887 121.145162 
L 257.215848 122.329175 
L 258.081472 120.707612 
L 258.946804 121.282004 
L 259.811861 119.610519 
L 260.676218 120.604737 
L 261.545001 122.028858 
L 262.406375 120.59869 
L 263.272374 123.802582 
L 264.134484 124.502759 
L 265.002031 126.333937 
L 265.869532 125.610269 
L 266.73147 128.181904 
L 267.59961 126.132757 
L 268.465042 128.927497 
L 269.332562 129.664564 
L 270.195513 125.194844 
L 271.060842 127.118845 
L 271.924127 128.701128 
L 272.791354 128.8297 
L 273.656468 131.048347 
L 274.521733 130.613686 
L 275.387453 131.770251 
L 276.252265 130.392205 
L 277.117637 127.313608 
L 277.989126 127.236991 
L 278.90849 130.930304 
L 279.715963 132.992771 
L 281.444158 126.765613 
L 282.327307 130.687011 
L 283.15192 131.879402 
L 284.037577 127.26465 
L 284.90329 125.791255 
L 285.776846 124.802686 
L 286.649825 123.09438 
L 287.495566 121.818822 
L 288.357688 119.194714 
L 289.298284 120.618198 
L 290.096171 122.099684 
L 290.951655 120.18713 
L 291.869287 124.003683 
L 292.711362 126.186863 
L 293.613025 124.511193 
L 294.423737 127.269371 
L 296.028994 120.276401 
L 297.025667 132.013547 
L 297.948816 134.656861 
L 298.800176 139.327452 
L 299.653418 138.536404 
L 300.439332 138.045067 
L 301.274239 131.61765 
L 302.215523 121.385189 
L 303.077734 130.2778 
L 303.933712 123.927814 
L 304.791312 133.031458 
L 305.747 138.793825 
L 306.516746 138.026706 
L 307.428057 129.243956 
L 308.270374 133.40358 
L 309.115986 131.29801 
L 310.013067 127.885742 
L 310.877393 128.668166 
L 312.586598 132.218891 
L 313.432183 131.853016 
L 314.314484 133.080755 
L 315.179744 131.952845 
L 316.050859 123.739838 
L 316.938532 121.276185 
L 317.767577 120.948898 
L 318.62417 123.425665 
L 319.517602 124.192435 
L 320.366869 121.217939 
L 322.100051 125.580033 
L 322.970552 126.893489 
L 323.777901 112.56569 
L 324.517853 119.304769 
L 325.701171 134.17489 
L 326.439673 134.670278 
L 327.273494 123.653267 
L 328.165562 123.830275 
L 329.087849 119.200315 
L 329.879706 132.216855 
L 330.754098 125.314334 
L 331.633047 132.534121 
L 332.481184 131.257759 
L 333.330117 132.27464 
L 334.237583 141.396757 
L 335.082405 142.727852 
L 335.94924 144.887918 
L 336.812974 144.634324 
L 337.681769 133.066046 
L 338.577424 144.467486 
L 339.425147 142.989199 
L 340.27705 139.075089 
L 341.141985 136.693461 
L 342.038497 140.336089 
L 342.869736 142.598736 
L 343.726975 141.189184 
L 344.583165 138.624442 
L 345.468135 139.181798 
L 346.328826 145.417899 
L 347.227214 142.161484 
L 348.082205 150.698694 
L 348.952818 144.360837 
L 349.76867 141.079916 
L 350.651638 143.960601 
L 351.51822 145.437962 
L 352.388531 147.668788 
L 353.263913 143.255218 
L 354.128433 148.107982 
L 354.980973 151.101835 
L 355.874524 150.368421 
L 356.768202 129.070778 
L 357.588771 127.82998 
L 358.448733 133.958757 
L 359.320247 132.774253 
L 360.116361 134.383488 
L 361.079166 132.497154 
L 361.891761 135.264875 
L 362.758473 137.711616 
L 363.632304 138.29342 
L 365.372409 133.75776 
L 366.194351 130.203719 
L 367.093905 139.110081 
L 367.970511 135.460915 
L 368.794231 134.637241 
L 369.703108 132.721439 
L 370.54877 131.874757 
L 371.434637 126.343558 
L 372.328156 131.066872 
L 373.150293 129.932835 
L 374.052754 123.679688 
L 374.863487 129.132136 
L 375.771854 125.927255 
L 376.646919 132.504848 
L 377.455725 133.993855 
L 378.301742 135.018292 
L 379.228744 130.064218 
L 379.979225 130.65349 
L 381.008015 125.521205 
L 381.812084 123.547254 
L 382.799753 135.09959 
L 383.552369 135.99424 
L 384.408747 138.574969 
L 386.133959 144.947354 
L 387.020493 134.413075 
L 387.889806 128.038512 
L 388.753886 126.696112 
L 389.586168 122.955787 
L 390.43123 136.270854 
L 391.351907 136.745285 
L 392.201282 138.773019 
L 393.063973 138.497871 
L 393.936998 136.492981 
L 394.787631 139.08327 
L 395.641102 138.445683 
L 396.537978 137.576546 
L 397.366815 138.252855 
L 398.263094 136.754975 
L 399.125385 129.989902 
L 399.977782 134.051198 
L 400.858871 130.612339 
L 401.711705 132.19452 
L 402.559624 128.867714 
L 403.454592 128.938968 
L 404.325802 131.875444 
L 404.325802 131.875444 
" clip-path="url(#pb16436707e)" style="fill: none; stroke: #1f77b4; stroke-width: 1.5; stroke-linecap: square"/>
   </g>
   <g id="line2d_2">
    <path d="M 69.614523 34.26236 
L 70.307653 29.999881 
L 70.654156 30.278032 
L 71.000783 30.962134 
L 71.347411 31.894316 
L 73.772682 41.9679 
L 74.81244 45.290679 
L 76.197954 48.620976 
L 77.236467 50.620658 
L 78.621981 52.823314 
L 80.353252 55.183841 
L 83.12428 58.499102 
L 86.933822 62.716476 
L 92.821635 68.820767 
L 97.669691 73.526785 
L 102.863503 78.232802 
L 107.711559 82.314859 
L 112.905371 86.359328 
L 117.06067 89.403956 
L 123.985753 94.087421 
L 128.486808 96.914038 
L 138.528676 102.67252 
L 144.415245 105.747218 
L 152.378842 109.618782 
L 162.074953 113.91885 
L 171.42282 117.670132 
L 184.92723 122.526502 
L 193.235339 125.285461 
L 215.050346 131.765632 
L 238.94238 137.84737 
L 253.481572 141.192702 
L 259.028603 142.282754 
L 262.48617 142.54587 
L 296.427534 144.635763 
L 305.767939 145.161995 
L 316.50132 145.748368 
L 328.627678 146.379846 
L 335.542811 146.733174 
L 342.818626 147.094018 
L 373.289986 148.514845 
L 378.82458 148.762926 
L 404.10959 149.837942 
L 404.10959 149.837942 
" clip-path="url(#pb16436707e)" style="fill: none; stroke: #000000; stroke-width: 2.5; stroke-linecap: square"/>
   </g>
   <g id="line2d_3">
    <path d="M 69.614523 74.113158 
L 70.307653 67.993831 
L 71.000783 64.528218 
L 71.347411 63.160014 
L 72.040168 61.581318 
L 73.079925 60.280774 
L 74.465439 59.22831 
L 75.158196 58.950158 
L 75.505197 58.867465 
L 75.850953 59.017817 
L 76.54371 59.626742 
L 77.929224 62.528536 
L 82.431523 72.692331 
L 84.164038 75.939934 
L 85.895309 78.781587 
L 87.626579 81.284948 
L 89.35785 83.525193 
L 91.436121 85.923307 
L 94.205906 88.712337 
L 97.322691 91.418673 
L 100.092475 93.523601 
L 103.20926 95.628529 
L 107.018802 97.891326 
L 110.135587 99.537681 
L 113.251128 101.041201 
L 116.367913 102.424439 
L 122.600239 104.890212 
L 128.141051 106.822235 
L 129.872322 107.21315 
L 136.104648 108.197956 
L 145.108002 109.257938 
L 150.647571 109.754099 
L 158.265411 110.302884 
L 186.307769 111.407971 
L 208.819264 111.783851 
L 220.597377 111.889098 
L 232.363054 112.046967 
L 239.290624 112.152214 
L 321.700107 114.039131 
L 328.279434 114.212036 
L 354.248495 114.881102 
L 360.827821 115.054007 
L 387.480934 115.738109 
L 394.06026 115.911014 
L 404.457834 116.17413 
L 404.457834 116.17413 
" clip-path="url(#pb16436707e)" style="fill: none; stroke-dasharray: 9.25,4; stroke-dashoffset: 0; stroke: #8b0000; stroke-width: 2.5"/>
   </g>
   <g id="legend_1">
    <g id="line2d_4">
     <path d="M 333.95625 29.694438 
L 343.95625 29.694438 
L 353.95625 29.694438 
" style="fill: none; stroke: #1f77b4; stroke-width: 1.5; stroke-linecap: square"/>
    </g>
    <g id="text_1">
     <!-- PSP -->
     <g transform="translate(361.95625 33.194438) scale(0.1 -0.1)">
      <defs>
       <path id="DejaVuSans-50" d="M 1259 4147 
L 1259 2394 
L 2053 2394 
Q 2494 2394 2734 2622 
Q 2975 2850 2975 3272 
Q 2975 3691 2734 3919 
Q 2494 4147 2053 4147 
L 1259 4147 
z
M 628 4666 
L 2053 4666 
Q 2838 4666 3239 4311 
Q 3641 3956 3641 3272 
Q 3641 2581 3239 2228 
Q 2838 1875 2053 1875 
L 1259 1875 
L 1259 0 
L 628 0 
L 628 4666 
z
" transform="scale(0.015625)"/>
       <path id="DejaVuSans-53" d="M 3425 4513 
L 3425 3897 
Q 3066 4069 2747 4153 
Q 2428 4238 2131 4238 
Q 1616 4238 1336 4038 
Q 1056 3838 1056 3469 
Q 1056 3159 1242 3001 
Q 1428 2844 1947 2747 
L 2328 2669 
Q 3034 2534 3370 2195 
Q 3706 1856 3706 1288 
Q 3706 609 3251 259 
Q 2797 -91 1919 -91 
Q 1588 -91 1214 -16 
Q 841 59 441 206 
L 441 856 
Q 825 641 1194 531 
Q 1563 422 1919 422 
Q 2459 422 2753 634 
Q 3047 847 3047 1241 
Q 3047 1584 2836 1778 
Q 2625 1972 2144 2069 
L 1759 2144 
Q 1053 2284 737 2584 
Q 422 2884 422 3419 
Q 422 4038 858 4394 
Q 1294 4750 2059 4750 
Q 2388 4750 2728 4690 
Q 3069 4631 3425 4513 
z
" transform="scale(0.015625)"/>
      </defs>
      <use xlink:href="#DejaVuSans-50"/>
      <use xlink:href="#DejaVuSans-53" x="60.302734"/>
      <use xlink:href="#DejaVuSans-50" x="123.779297"/>
     </g>
    </g>
    <g id="line2d_5">
     <path d="M 333.95625 44.372563 
L 343.95625 44.372563 
L 353.95625 44.372563 
" style="fill: none; stroke: #000000; stroke-width: 2.5; stroke-linecap: square"/>
    </g>
    <g id="text_2">
     <!-- Slow wind -->
     <g transform="translate(361.95625 47.872563) scale(0.1 -0.1)">
      <defs>
       <path id="DejaVuSans-6c" d="M 603 4863 
L 1178 4863 
L 1178 0 
L 603 0 
L 603 4863 
z
" transform="scale(0.015625)"/>
       <path id="DejaVuSans-6f" d="M 1959 3097 
Q 1497 3097 1228 2736 
Q 959 2375 959 1747 
Q 959 1119 1226 758 
Q 1494 397 1959 397 
Q 2419 397 2687 759 
Q 2956 1122 2956 1747 
Q 2956 2369 2687 2733 
Q 2419 3097 1959 3097 
z
M 1959 3584 
Q 2709 3584 3137 3096 
Q 3566 2609 3566 1747 
Q 3566 888 3137 398 
Q 2709 -91 1959 -91 
Q 1206 -91 779 398 
Q 353 888 353 1747 
Q 353 2609 779 3096 
Q 1206 3584 1959 3584 
z
" transform="scale(0.015625)"/>
       <path id="DejaVuSans-77" d="M 269 3500 
L 844 3500 
L 1563 769 
L 2278 3500 
L 2956 3500 
L 3675 769 
L 4391 3500 
L 4966 3500 
L 4050 0 
L 3372 0 
L 2619 2869 
L 1863 0 
L 1184 0 
L 269 3500 
z
" transform="scale(0.015625)"/>
       <path id="DejaVuSans-20" transform="scale(0.015625)"/>
       <path id="DejaVuSans-69" d="M 603 3500 
L 1178 3500 
L 1178 0 
L 603 0 
L 603 3500 
z
M 603 4863 
L 1178 4863 
L 1178 4134 
L 603 4134 
L 603 4863 
z
" transform="scale(0.015625)"/>
       <path id="DejaVuSans-6e" d="M 3513 2113 
L 3513 0 
L 2938 0 
L 2938 2094 
Q 2938 2591 2744 2837 
Q 2550 3084 2163 3084 
Q 1697 3084 1428 2787 
Q 1159 2491 1159 1978 
L 1159 0 
L 581 0 
L 581 3500 
L 1159 3500 
L 1159 2956 
Q 1366 3272 1645 3428 
Q 1925 3584 2291 3584 
Q 2894 3584 3203 3211 
Q 3513 2838 3513 2113 
z
" transform="scale(0.015625)"/>
       <path id="DejaVuSans-64" d="M 2906 2969 
L 2906 4863 
L 3481 4863 
L 3481 0 
L 2906 0 
L 2906 525 
Q 2725 213 2448 61 
Q 2172 -91 1784 -91 
Q 1150 -91 751 415 
Q 353 922 353 1747 
Q 353 2572 751 3078 
Q 1150 3584 1784 3584 
Q 2172 3584 2448 3432 
Q 2725 3281 2906 2969 
z
M 947 1747 
Q 947 1113 1208 752 
Q 1469 391 1925 391 
Q 2381 391 2643 752 
Q 2906 1113 2906 1747 
Q 2906 2381 2643 2742 
Q 2381 3103 1925 3103 
Q 1469 3103 1208 2742 
Q 947 2381 947 1747 
z
" transform="scale(0.015625)"/>
      </defs>
      <use xlink:href="#DejaVuSans-53"/>
      <use xlink:href="#DejaVuSans-6c" x="63.476562"/>
      <use xlink:href="#DejaVuSans-6f" x="91.259766"/>
      <use xlink:href="#DejaVuSans-77" x="152.441406"/>
      <use xlink:href="#DejaVuSans-20" x="234.228516"/>
      <use xlink:href="#DejaVuSans-77" x="266.015625"/>
      <use xlink:href="#DejaVuSans-69" x="347.802734"/>
      <use xlink:href="#DejaVuSans-6e" x="375.585938"/>
      <use xlink:href="#DejaVuSans-64" x="438.964844"/>
     </g>
    </g>
    <g id="line2d_6">
     <path d="M 333.95625 59.050688 
L 343.95625 59.050688 
L 353.95625 59.050688 
" style="fill: none; stroke-dasharray: 9.25,4; stroke-dashoffset: 0; stroke: #8b0000; stroke-width: 2.5"/>
    </g>
    <g id="text_3">
     <!-- Fast wind -->
     <g transform="translate(361.95625 62.550688) scale(0.1 -0.1)">
      <defs>
       <path id="DejaVuSans-46" d="M 628 4666 
L 3309 4666 
L 3309 4134 
L 1259 4134 
L 1259 2759 
L 3109 2759 
L 3109 2228 
L 1259 2228 
L 1259 0 
L 628 0 
L 628 4666 
z
" transform="scale(0.015625)"/>
       <path id="DejaVuSans-61" d="M 2194 1759 
Q 1497 1759 1228 1600 
Q 959 1441 959 1056 
Q 959 750 1161 570 
Q 1363 391 1709 391 
Q 2188 391 2477 730 
Q 2766 1069 2766 1631 
L 2766 1759 
L 2194 1759 
z
M 3341 1997 
L 3341 0 
L 2766 0 
L 2766 531 
Q 2569 213 2275 61 
Q 1981 -91 1556 -91 
Q 1019 -91 701 211 
Q 384 513 384 1019 
Q 384 1609 779 1909 
Q 1175 2209 1959 2209 
L 2766 2209 
L 2766 2266 
Q 2766 2663 2505 2880 
Q 2244 3097 1772 3097 
Q 1472 3097 1187 3025 
Q 903 2953 641 2809 
L 641 3341 
Q 956 3463 1253 3523 
Q 1550 3584 1831 3584 
Q 2591 3584 2966 3190 
Q 3341 2797 3341 1997 
z
" transform="scale(0.015625)"/>
       <path id="DejaVuSans-73" d="M 2834 3397 
L 2834 2853 
Q 2591 2978 2328 3040 
Q 2066 3103 1784 3103 
Q 1356 3103 1142 2972 
Q 928 2841 928 2578 
Q 928 2378 1081 2264 
Q 1234 2150 1697 2047 
L 1894 2003 
Q 2506 1872 2764 1633 
Q 3022 1394 3022 966 
Q 3022 478 2636 193 
Q 2250 -91 1575 -91 
Q 1294 -91 989 -36 
Q 684 19 347 128 
L 347 722 
Q 666 556 975 473 
Q 1284 391 1588 391 
Q 1994 391 2212 530 
Q 2431 669 2431 922 
Q 2431 1156 2273 1281 
Q 2116 1406 1581 1522 
L 1381 1569 
Q 847 1681 609 1914 
Q 372 2147 372 2553 
Q 372 3047 722 3315 
Q 1072 3584 1716 3584 
Q 2034 3584 2315 3537 
Q 2597 3491 2834 3397 
z
" transform="scale(0.015625)"/>
       <path id="DejaVuSans-74" d="M 1172 4494 
L 1172 3500 
L 2356 3500 
L 2356 3053 
L 1172 3053 
L 1172 1153 
Q 1172 725 1289 603 
Q 1406 481 1766 481 
L 2356 481 
L 2356 0 
L 1766 0 
Q 1100 0 847 248 
Q 594 497 594 1153 
L 594 3053 
L 172 3053 
L 172 3500 
L 594 3500 
L 594 4494 
L 1172 4494 
z
" transform="scale(0.015625)"/>
      </defs>
      <use xlink:href="#DejaVuSans-46"/>
      <use xlink:href="#DejaVuSans-61" x="48.394531"/>
      <use xlink:href="#DejaVuSans-73" x="109.673828"/>
      <use xlink:href="#DejaVuSans-74" x="161.773438"/>
      <use xlink:href="#DejaVuSans-20" x="200.982422"/>
      <use xlink:href="#DejaVuSans-77" x="232.769531"/>
      <use xlink:href="#DejaVuSans-69" x="314.556641"/>
      <use xlink:href="#DejaVuSans-6e" x="342.339844"/>
      <use xlink:href="#DejaVuSans-64" x="405.71875"/>
     </g>
    </g>
   </g>
   <g id="matplotlib.axis_1">
    <g id="xtick_1">
     <g id="line2d_7">
      <defs>
       <path id="m5e5e4ff678" d="M 0 0 
L 0 -3.5 
" style="stroke: #000000; stroke-width: 1.5"/>
      </defs>
      <g>
       <use xlink:href="#m5e5e4ff678" x="58.638988" y="242.124" style="stroke: #000000; stroke-width: 1.5"/>
      </g>
     </g>
     <g id="line2d_8">
      <defs>
       <path id="me296220a1a" d="M 0 0 
L 0 3.5 
" style="stroke: #000000; stroke-width: 1.5"/>
      </defs>
      <g>
       <use xlink:href="#me296220a1a" x="58.638988" y="16.596" style="stroke: #000000; stroke-width: 1.5"/>
      </g>
     </g>
     <g id="text_4">
      <!-- 0 -->
      <g transform="translate(54.821488 254.742125) scale(0.12 -0.12)">
       <defs>
        <path id="DejaVuSans-30" d="M 2034 4250 
Q 1547 4250 1301 3770 
Q 1056 3291 1056 2328 
Q 1056 1369 1301 889 
Q 1547 409 2034 409 
Q 2525 409 2770 889 
Q 3016 1369 3016 2328 
Q 3016 3291 2770 3770 
Q 2525 4250 2034 4250 
z
M 2034 4750 
Q 2819 4750 3233 4129 
Q 3647 3509 3647 2328 
Q 3647 1150 3233 529 
Q 2819 -91 2034 -91 
Q 1250 -91 836 529 
Q 422 1150 422 2328 
Q 422 3509 836 4129 
Q 1250 4750 2034 4750 
z
" transform="scale(0.015625)"/>
       </defs>
       <use xlink:href="#DejaVuSans-30"/>
      </g>
     </g>
    </g>
    <g id="xtick_2">
     <g id="line2d_9">
      <g>
       <use xlink:href="#m5e5e4ff678" x="101.902101" y="242.124" style="stroke: #000000; stroke-width: 1.5"/>
      </g>
     </g>
     <g id="line2d_10">
      <g>
       <use xlink:href="#me296220a1a" x="101.902101" y="16.596" style="stroke: #000000; stroke-width: 1.5"/>
      </g>
     </g>
     <g id="text_5">
      <!-- 5 -->
      <g transform="translate(98.084601 254.742125) scale(0.12 -0.12)">
       <defs>
        <path id="DejaVuSans-35" d="M 691 4666 
L 3169 4666 
L 3169 4134 
L 1269 4134 
L 1269 2991 
Q 1406 3038 1543 3061 
Q 1681 3084 1819 3084 
Q 2600 3084 3056 2656 
Q 3513 2228 3513 1497 
Q 3513 744 3044 326 
Q 2575 -91 1722 -91 
Q 1428 -91 1123 -41 
Q 819 9 494 109 
L 494 744 
Q 775 591 1075 516 
Q 1375 441 1709 441 
Q 2250 441 2565 725 
Q 2881 1009 2881 1497 
Q 2881 1984 2565 2268 
Q 2250 2553 1709 2553 
Q 1456 2553 1204 2497 
Q 953 2441 691 2322 
L 691 4666 
z
" transform="scale(0.015625)"/>
       </defs>
       <use xlink:href="#DejaVuSans-35"/>
      </g>
     </g>
    </g>
    <g id="xtick_3">
     <g id="line2d_11">
      <g>
       <use xlink:href="#m5e5e4ff678" x="145.165214" y="242.124" style="stroke: #000000; stroke-width: 1.5"/>
      </g>
     </g>
     <g id="line2d_12">
      <g>
       <use xlink:href="#me296220a1a" x="145.165214" y="16.596" style="stroke: #000000; stroke-width: 1.5"/>
      </g>
     </g>
     <g id="text_6">
      <!-- 10 -->
      <g transform="translate(137.530214 254.742125) scale(0.12 -0.12)">
       <defs>
        <path id="DejaVuSans-31" d="M 794 531 
L 1825 531 
L 1825 4091 
L 703 3866 
L 703 4441 
L 1819 4666 
L 2450 4666 
L 2450 531 
L 3481 531 
L 3481 0 
L 794 0 
L 794 531 
z
" transform="scale(0.015625)"/>
       </defs>
       <use xlink:href="#DejaVuSans-31"/>
       <use xlink:href="#DejaVuSans-30" x="63.623047"/>
      </g>
     </g>
    </g>
    <g id="xtick_4">
     <g id="line2d_13">
      <g>
       <use xlink:href="#m5e5e4ff678" x="188.428327" y="242.124" style="stroke: #000000; stroke-width: 1.5"/>
      </g>
     </g>
     <g id="line2d_14">
      <g>
       <use xlink:href="#me296220a1a" x="188.428327" y="16.596" style="stroke: #000000; stroke-width: 1.5"/>
      </g>
     </g>
     <g id="text_7">
      <!-- 15 -->
      <g transform="translate(180.793327 254.742125) scale(0.12 -0.12)">
       <use xlink:href="#DejaVuSans-31"/>
       <use xlink:href="#DejaVuSans-35" x="63.623047"/>
      </g>
     </g>
    </g>
    <g id="xtick_5">
     <g id="line2d_15">
      <g>
       <use xlink:href="#m5e5e4ff678" x="231.69144" y="242.124" style="stroke: #000000; stroke-width: 1.5"/>
      </g>
     </g>
     <g id="line2d_16">
      <g>
       <use xlink:href="#me296220a1a" x="231.69144" y="16.596" style="stroke: #000000; stroke-width: 1.5"/>
      </g>
     </g>
     <g id="text_8">
      <!-- 20 -->
      <g transform="translate(224.05644 254.742125) scale(0.12 -0.12)">
       <defs>
        <path id="DejaVuSans-32" d="M 1228 531 
L 3431 531 
L 3431 0 
L 469 0 
L 469 531 
Q 828 903 1448 1529 
Q 2069 2156 2228 2338 
Q 2531 2678 2651 2914 
Q 2772 3150 2772 3378 
Q 2772 3750 2511 3984 
Q 2250 4219 1831 4219 
Q 1534 4219 1204 4116 
Q 875 4013 500 3803 
L 500 4441 
Q 881 4594 1212 4672 
Q 1544 4750 1819 4750 
Q 2544 4750 2975 4387 
Q 3406 4025 3406 3419 
Q 3406 3131 3298 2873 
Q 3191 2616 2906 2266 
Q 2828 2175 2409 1742 
Q 1991 1309 1228 531 
z
" transform="scale(0.015625)"/>
       </defs>
       <use xlink:href="#DejaVuSans-32"/>
       <use xlink:href="#DejaVuSans-30" x="63.623047"/>
      </g>
     </g>
    </g>
    <g id="xtick_6">
     <g id="line2d_17">
      <g>
       <use xlink:href="#m5e5e4ff678" x="274.954553" y="242.124" style="stroke: #000000; stroke-width: 1.5"/>
      </g>
     </g>
     <g id="line2d_18">
      <g>
       <use xlink:href="#me296220a1a" x="274.954553" y="16.596" style="stroke: #000000; stroke-width: 1.5"/>
      </g>
     </g>
     <g id="text_9">
      <!-- 25 -->
      <g transform="translate(267.319553 254.742125) scale(0.12 -0.12)">
       <use xlink:href="#DejaVuSans-32"/>
       <use xlink:href="#DejaVuSans-35" x="63.623047"/>
      </g>
     </g>
    </g>
    <g id="xtick_7">
     <g id="line2d_19">
      <g>
       <use xlink:href="#m5e5e4ff678" x="318.217666" y="242.124" style="stroke: #000000; stroke-width: 1.5"/>
      </g>
     </g>
     <g id="line2d_20">
      <g>
       <use xlink:href="#me296220a1a" x="318.217666" y="16.596" style="stroke: #000000; stroke-width: 1.5"/>
      </g>
     </g>
     <g id="text_10">
      <!-- 30 -->
      <g transform="translate(310.582666 254.742125) scale(0.12 -0.12)">
       <defs>
        <path id="DejaVuSans-33" d="M 2597 2516 
Q 3050 2419 3304 2112 
Q 3559 1806 3559 1356 
Q 3559 666 3084 287 
Q 2609 -91 1734 -91 
Q 1441 -91 1130 -33 
Q 819 25 488 141 
L 488 750 
Q 750 597 1062 519 
Q 1375 441 1716 441 
Q 2309 441 2620 675 
Q 2931 909 2931 1356 
Q 2931 1769 2642 2001 
Q 2353 2234 1838 2234 
L 1294 2234 
L 1294 2753 
L 1863 2753 
Q 2328 2753 2575 2939 
Q 2822 3125 2822 3475 
Q 2822 3834 2567 4026 
Q 2313 4219 1838 4219 
Q 1578 4219 1281 4162 
Q 984 4106 628 3988 
L 628 4550 
Q 988 4650 1302 4700 
Q 1616 4750 1894 4750 
Q 2613 4750 3031 4423 
Q 3450 4097 3450 3541 
Q 3450 3153 3228 2886 
Q 3006 2619 2597 2516 
z
" transform="scale(0.015625)"/>
       </defs>
       <use xlink:href="#DejaVuSans-33"/>
       <use xlink:href="#DejaVuSans-30" x="63.623047"/>
      </g>
     </g>
    </g>
    <g id="xtick_8">
     <g id="line2d_21">
      <g>
       <use xlink:href="#m5e5e4ff678" x="361.480779" y="242.124" style="stroke: #000000; stroke-width: 1.5"/>
      </g>
     </g>
     <g id="line2d_22">
      <g>
       <use xlink:href="#me296220a1a" x="361.480779" y="16.596" style="stroke: #000000; stroke-width: 1.5"/>
      </g>
     </g>
     <g id="text_11">
      <!-- 35 -->
      <g transform="translate(353.845779 254.742125) scale(0.12 -0.12)">
       <use xlink:href="#DejaVuSans-33"/>
       <use xlink:href="#DejaVuSans-35" x="63.623047"/>
      </g>
     </g>
    </g>
    <g id="xtick_9">
     <g id="line2d_23">
      <g>
       <use xlink:href="#m5e5e4ff678" x="404.743892" y="242.124" style="stroke: #000000; stroke-width: 1.5"/>
      </g>
     </g>
     <g id="line2d_24">
      <g>
       <use xlink:href="#me296220a1a" x="404.743892" y="16.596" style="stroke: #000000; stroke-width: 1.5"/>
      </g>
     </g>
     <g id="text_12">
      <!-- 40 -->
      <g transform="translate(397.108892 254.742125) scale(0.12 -0.12)">
       <defs>
        <path id="DejaVuSans-34" d="M 2419 4116 
L 825 1625 
L 2419 1625 
L 2419 4116 
z
M 2253 4666 
L 3047 4666 
L 3047 1625 
L 3713 1625 
L 3713 1100 
L 3047 1100 
L 3047 0 
L 2419 0 
L 2419 1100 
L 313 1100 
L 313 1709 
L 2253 4666 
z
" transform="scale(0.015625)"/>
       </defs>
       <use xlink:href="#DejaVuSans-34"/>
       <use xlink:href="#DejaVuSans-30" x="63.623047"/>
      </g>
     </g>
    </g>
    <g id="xtick_10">
     <g id="line2d_25">
      <defs>
       <path id="m9e5fd163b4" d="M 0 0 
L 0 -2 
" style="stroke: #000000; stroke-width: 1.5"/>
      </defs>
      <g>
       <use xlink:href="#m9e5fd163b4" x="67.29161" y="242.124" style="stroke: #000000; stroke-width: 1.5"/>
      </g>
     </g>
     <g id="line2d_26">
      <defs>
       <path id="m256a52e9f1" d="M 0 0 
L 0 2 
" style="stroke: #000000; stroke-width: 1.5"/>
      </defs>
      <g>
       <use xlink:href="#m256a52e9f1" x="67.29161" y="16.596" style="stroke: #000000; stroke-width: 1.5"/>
      </g>
     </g>
    </g>
    <g id="xtick_11">
     <g id="line2d_27">
      <g>
       <use xlink:href="#m9e5fd163b4" x="75.944233" y="242.124" style="stroke: #000000; stroke-width: 1.5"/>
      </g>
     </g>
     <g id="line2d_28">
      <g>
       <use xlink:href="#m256a52e9f1" x="75.944233" y="16.596" style="stroke: #000000; stroke-width: 1.5"/>
      </g>
     </g>
    </g>
    <g id="xtick_12">
     <g id="line2d_29">
      <g>
       <use xlink:href="#m9e5fd163b4" x="84.596856" y="242.124" style="stroke: #000000; stroke-width: 1.5"/>
      </g>
     </g>
     <g id="line2d_30">
      <g>
       <use xlink:href="#m256a52e9f1" x="84.596856" y="16.596" style="stroke: #000000; stroke-width: 1.5"/>
      </g>
     </g>
    </g>
    <g id="xtick_13">
     <g id="line2d_31">
      <g>
       <use xlink:href="#m9e5fd163b4" x="93.249478" y="242.124" style="stroke: #000000; stroke-width: 1.5"/>
      </g>
     </g>
     <g id="line2d_32">
      <g>
       <use xlink:href="#m256a52e9f1" x="93.249478" y="16.596" style="stroke: #000000; stroke-width: 1.5"/>
      </g>
     </g>
    </g>
    <g id="xtick_14">
     <g id="line2d_33">
      <g>
       <use xlink:href="#m9e5fd163b4" x="110.554723" y="242.124" style="stroke: #000000; stroke-width: 1.5"/>
      </g>
     </g>
     <g id="line2d_34">
      <g>
       <use xlink:href="#m256a52e9f1" x="110.554723" y="16.596" style="stroke: #000000; stroke-width: 1.5"/>
      </g>
     </g>
    </g>
    <g id="xtick_15">
     <g id="line2d_35">
      <g>
       <use xlink:href="#m9e5fd163b4" x="119.207346" y="242.124" style="stroke: #000000; stroke-width: 1.5"/>
      </g>
     </g>
     <g id="line2d_36">
      <g>
       <use xlink:href="#m256a52e9f1" x="119.207346" y="16.596" style="stroke: #000000; stroke-width: 1.5"/>
      </g>
     </g>
    </g>
    <g id="xtick_16">
     <g id="line2d_37">
      <g>
       <use xlink:href="#m9e5fd163b4" x="127.859969" y="242.124" style="stroke: #000000; stroke-width: 1.5"/>
      </g>
     </g>
     <g id="line2d_38">
      <g>
       <use xlink:href="#m256a52e9f1" x="127.859969" y="16.596" style="stroke: #000000; stroke-width: 1.5"/>
      </g>
     </g>
    </g>
    <g id="xtick_17">
     <g id="line2d_39">
      <g>
       <use xlink:href="#m9e5fd163b4" x="136.512591" y="242.124" style="stroke: #000000; stroke-width: 1.5"/>
      </g>
     </g>
     <g id="line2d_40">
      <g>
       <use xlink:href="#m256a52e9f1" x="136.512591" y="16.596" style="stroke: #000000; stroke-width: 1.5"/>
      </g>
     </g>
    </g>
    <g id="xtick_18">
     <g id="line2d_41">
      <g>
       <use xlink:href="#m9e5fd163b4" x="153.817836" y="242.124" style="stroke: #000000; stroke-width: 1.5"/>
      </g>
     </g>
     <g id="line2d_42">
      <g>
       <use xlink:href="#m256a52e9f1" x="153.817836" y="16.596" style="stroke: #000000; stroke-width: 1.5"/>
      </g>
     </g>
    </g>
    <g id="xtick_19">
     <g id="line2d_43">
      <g>
       <use xlink:href="#m9e5fd163b4" x="162.470459" y="242.124" style="stroke: #000000; stroke-width: 1.5"/>
      </g>
     </g>
     <g id="line2d_44">
      <g>
       <use xlink:href="#m256a52e9f1" x="162.470459" y="16.596" style="stroke: #000000; stroke-width: 1.5"/>
      </g>
     </g>
    </g>
    <g id="xtick_20">
     <g id="line2d_45">
      <g>
       <use xlink:href="#m9e5fd163b4" x="171.123082" y="242.124" style="stroke: #000000; stroke-width: 1.5"/>
      </g>
     </g>
     <g id="line2d_46">
      <g>
       <use xlink:href="#m256a52e9f1" x="171.123082" y="16.596" style="stroke: #000000; stroke-width: 1.5"/>
      </g>
     </g>
    </g>
    <g id="xtick_21">
     <g id="line2d_47">
      <g>
       <use xlink:href="#m9e5fd163b4" x="179.775704" y="242.124" style="stroke: #000000; stroke-width: 1.5"/>
      </g>
     </g>
     <g id="line2d_48">
      <g>
       <use xlink:href="#m256a52e9f1" x="179.775704" y="16.596" style="stroke: #000000; stroke-width: 1.5"/>
      </g>
     </g>
    </g>
    <g id="xtick_22">
     <g id="line2d_49">
      <g>
       <use xlink:href="#m9e5fd163b4" x="197.080949" y="242.124" style="stroke: #000000; stroke-width: 1.5"/>
      </g>
     </g>
     <g id="line2d_50">
      <g>
       <use xlink:href="#m256a52e9f1" x="197.080949" y="16.596" style="stroke: #000000; stroke-width: 1.5"/>
      </g>
     </g>
    </g>
    <g id="xtick_23">
     <g id="line2d_51">
      <g>
       <use xlink:href="#m9e5fd163b4" x="205.733572" y="242.124" style="stroke: #000000; stroke-width: 1.5"/>
      </g>
     </g>
     <g id="line2d_52">
      <g>
       <use xlink:href="#m256a52e9f1" x="205.733572" y="16.596" style="stroke: #000000; stroke-width: 1.5"/>
      </g>
     </g>
    </g>
    <g id="xtick_24">
     <g id="line2d_53">
      <g>
       <use xlink:href="#m9e5fd163b4" x="214.386195" y="242.124" style="stroke: #000000; stroke-width: 1.5"/>
      </g>
     </g>
     <g id="line2d_54">
      <g>
       <use xlink:href="#m256a52e9f1" x="214.386195" y="16.596" style="stroke: #000000; stroke-width: 1.5"/>
      </g>
     </g>
    </g>
    <g id="xtick_25">
     <g id="line2d_55">
      <g>
       <use xlink:href="#m9e5fd163b4" x="223.038817" y="242.124" style="stroke: #000000; stroke-width: 1.5"/>
      </g>
     </g>
     <g id="line2d_56">
      <g>
       <use xlink:href="#m256a52e9f1" x="223.038817" y="16.596" style="stroke: #000000; stroke-width: 1.5"/>
      </g>
     </g>
    </g>
    <g id="xtick_26">
     <g id="line2d_57">
      <g>
       <use xlink:href="#m9e5fd163b4" x="240.344063" y="242.124" style="stroke: #000000; stroke-width: 1.5"/>
      </g>
     </g>
     <g id="line2d_58">
      <g>
       <use xlink:href="#m256a52e9f1" x="240.344063" y="16.596" style="stroke: #000000; stroke-width: 1.5"/>
      </g>
     </g>
    </g>
    <g id="xtick_27">
     <g id="line2d_59">
      <g>
       <use xlink:href="#m9e5fd163b4" x="248.996685" y="242.124" style="stroke: #000000; stroke-width: 1.5"/>
      </g>
     </g>
     <g id="line2d_60">
      <g>
       <use xlink:href="#m256a52e9f1" x="248.996685" y="16.596" style="stroke: #000000; stroke-width: 1.5"/>
      </g>
     </g>
    </g>
    <g id="xtick_28">
     <g id="line2d_61">
      <g>
       <use xlink:href="#m9e5fd163b4" x="257.649308" y="242.124" style="stroke: #000000; stroke-width: 1.5"/>
      </g>
     </g>
     <g id="line2d_62">
      <g>
       <use xlink:href="#m256a52e9f1" x="257.649308" y="16.596" style="stroke: #000000; stroke-width: 1.5"/>
      </g>
     </g>
    </g>
    <g id="xtick_29">
     <g id="line2d_63">
      <g>
       <use xlink:href="#m9e5fd163b4" x="266.30193" y="242.124" style="stroke: #000000; stroke-width: 1.5"/>
      </g>
     </g>
     <g id="line2d_64">
      <g>
       <use xlink:href="#m256a52e9f1" x="266.30193" y="16.596" style="stroke: #000000; stroke-width: 1.5"/>
      </g>
     </g>
    </g>
    <g id="xtick_30">
     <g id="line2d_65">
      <g>
       <use xlink:href="#m9e5fd163b4" x="283.607176" y="242.124" style="stroke: #000000; stroke-width: 1.5"/>
      </g>
     </g>
     <g id="line2d_66">
      <g>
       <use xlink:href="#m256a52e9f1" x="283.607176" y="16.596" style="stroke: #000000; stroke-width: 1.5"/>
      </g>
     </g>
    </g>
    <g id="xtick_31">
     <g id="line2d_67">
      <g>
       <use xlink:href="#m9e5fd163b4" x="292.259798" y="242.124" style="stroke: #000000; stroke-width: 1.5"/>
      </g>
     </g>
     <g id="line2d_68">
      <g>
       <use xlink:href="#m256a52e9f1" x="292.259798" y="16.596" style="stroke: #000000; stroke-width: 1.5"/>
      </g>
     </g>
    </g>
    <g id="xtick_32">
     <g id="line2d_69">
      <g>
       <use xlink:href="#m9e5fd163b4" x="300.912421" y="242.124" style="stroke: #000000; stroke-width: 1.5"/>
      </g>
     </g>
     <g id="line2d_70">
      <g>
       <use xlink:href="#m256a52e9f1" x="300.912421" y="16.596" style="stroke: #000000; stroke-width: 1.5"/>
      </g>
     </g>
    </g>
    <g id="xtick_33">
     <g id="line2d_71">
      <g>
       <use xlink:href="#m9e5fd163b4" x="309.565043" y="242.124" style="stroke: #000000; stroke-width: 1.5"/>
      </g>
     </g>
     <g id="line2d_72">
      <g>
       <use xlink:href="#m256a52e9f1" x="309.565043" y="16.596" style="stroke: #000000; stroke-width: 1.5"/>
      </g>
     </g>
    </g>
    <g id="xtick_34">
     <g id="line2d_73">
      <g>
       <use xlink:href="#m9e5fd163b4" x="326.870289" y="242.124" style="stroke: #000000; stroke-width: 1.5"/>
      </g>
     </g>
     <g id="line2d_74">
      <g>
       <use xlink:href="#m256a52e9f1" x="326.870289" y="16.596" style="stroke: #000000; stroke-width: 1.5"/>
      </g>
     </g>
    </g>
    <g id="xtick_35">
     <g id="line2d_75">
      <g>
       <use xlink:href="#m9e5fd163b4" x="335.522911" y="242.124" style="stroke: #000000; stroke-width: 1.5"/>
      </g>
     </g>
     <g id="line2d_76">
      <g>
       <use xlink:href="#m256a52e9f1" x="335.522911" y="16.596" style="stroke: #000000; stroke-width: 1.5"/>
      </g>
     </g>
    </g>
    <g id="xtick_36">
     <g id="line2d_77">
      <g>
       <use xlink:href="#m9e5fd163b4" x="344.175534" y="242.124" style="stroke: #000000; stroke-width: 1.5"/>
      </g>
     </g>
     <g id="line2d_78">
      <g>
       <use xlink:href="#m256a52e9f1" x="344.175534" y="16.596" style="stroke: #000000; stroke-width: 1.5"/>
      </g>
     </g>
    </g>
    <g id="xtick_37">
     <g id="line2d_79">
      <g>
       <use xlink:href="#m9e5fd163b4" x="352.828156" y="242.124" style="stroke: #000000; stroke-width: 1.5"/>
      </g>
     </g>
     <g id="line2d_80">
      <g>
       <use xlink:href="#m256a52e9f1" x="352.828156" y="16.596" style="stroke: #000000; stroke-width: 1.5"/>
      </g>
     </g>
    </g>
    <g id="xtick_38">
     <g id="line2d_81">
      <g>
       <use xlink:href="#m9e5fd163b4" x="370.133402" y="242.124" style="stroke: #000000; stroke-width: 1.5"/>
      </g>
     </g>
     <g id="line2d_82">
      <g>
       <use xlink:href="#m256a52e9f1" x="370.133402" y="16.596" style="stroke: #000000; stroke-width: 1.5"/>
      </g>
     </g>
    </g>
    <g id="xtick_39">
     <g id="line2d_83">
      <g>
       <use xlink:href="#m9e5fd163b4" x="378.786024" y="242.124" style="stroke: #000000; stroke-width: 1.5"/>
      </g>
     </g>
     <g id="line2d_84">
      <g>
       <use xlink:href="#m256a52e9f1" x="378.786024" y="16.596" style="stroke: #000000; stroke-width: 1.5"/>
      </g>
     </g>
    </g>
    <g id="xtick_40">
     <g id="line2d_85">
      <g>
       <use xlink:href="#m9e5fd163b4" x="387.438647" y="242.124" style="stroke: #000000; stroke-width: 1.5"/>
      </g>
     </g>
     <g id="line2d_86">
      <g>
       <use xlink:href="#m256a52e9f1" x="387.438647" y="16.596" style="stroke: #000000; stroke-width: 1.5"/>
      </g>
     </g>
    </g>
    <g id="xtick_41">
     <g id="line2d_87">
      <g>
       <use xlink:href="#m9e5fd163b4" x="396.091269" y="242.124" style="stroke: #000000; stroke-width: 1.5"/>
      </g>
     </g>
     <g id="line2d_88">
      <g>
       <use xlink:href="#m256a52e9f1" x="396.091269" y="16.596" style="stroke: #000000; stroke-width: 1.5"/>
      </g>
     </g>
    </g>
    <g id="xtick_42">
     <g id="line2d_89">
      <g>
       <use xlink:href="#m9e5fd163b4" x="413.396515" y="242.124" style="stroke: #000000; stroke-width: 1.5"/>
      </g>
     </g>
     <g id="line2d_90">
      <g>
       <use xlink:href="#m256a52e9f1" x="413.396515" y="16.596" style="stroke: #000000; stroke-width: 1.5"/>
      </g>
     </g>
    </g>
    <g id="text_13">
     <!-- Distance [R$_\odot$] -->
     <g transform="translate(194.796179 270.355875) scale(0.12 -0.12)">
      <defs>
       <path id="DejaVuSans-44" d="M 1259 4147 
L 1259 519 
L 2022 519 
Q 2988 519 3436 956 
Q 3884 1394 3884 2338 
Q 3884 3275 3436 3711 
Q 2988 4147 2022 4147 
L 1259 4147 
z
M 628 4666 
L 1925 4666 
Q 3281 4666 3915 4102 
Q 4550 3538 4550 2338 
Q 4550 1131 3912 565 
Q 3275 0 1925 0 
L 628 0 
L 628 4666 
z
" transform="scale(0.015625)"/>
       <path id="DejaVuSans-63" d="M 3122 3366 
L 3122 2828 
Q 2878 2963 2633 3030 
Q 2388 3097 2138 3097 
Q 1578 3097 1268 2742 
Q 959 2388 959 1747 
Q 959 1106 1268 751 
Q 1578 397 2138 397 
Q 2388 397 2633 464 
Q 2878 531 3122 666 
L 3122 134 
Q 2881 22 2623 -34 
Q 2366 -91 2075 -91 
Q 1284 -91 818 406 
Q 353 903 353 1747 
Q 353 2603 823 3093 
Q 1294 3584 2113 3584 
Q 2378 3584 2631 3529 
Q 2884 3475 3122 3366 
z
" transform="scale(0.015625)"/>
       <path id="DejaVuSans-65" d="M 3597 1894 
L 3597 1613 
L 953 1613 
Q 991 1019 1311 708 
Q 1631 397 2203 397 
Q 2534 397 2845 478 
Q 3156 559 3463 722 
L 3463 178 
Q 3153 47 2828 -22 
Q 2503 -91 2169 -91 
Q 1331 -91 842 396 
Q 353 884 353 1716 
Q 353 2575 817 3079 
Q 1281 3584 2069 3584 
Q 2775 3584 3186 3129 
Q 3597 2675 3597 1894 
z
M 3022 2063 
Q 3016 2534 2758 2815 
Q 2500 3097 2075 3097 
Q 1594 3097 1305 2825 
Q 1016 2553 972 2059 
L 3022 2063 
z
" transform="scale(0.015625)"/>
       <path id="DejaVuSans-5b" d="M 550 4863 
L 1875 4863 
L 1875 4416 
L 1125 4416 
L 1125 -397 
L 1875 -397 
L 1875 -844 
L 550 -844 
L 550 4863 
z
" transform="scale(0.015625)"/>
       <path id="DejaVuSans-52" d="M 2841 2188 
Q 3044 2119 3236 1894 
Q 3428 1669 3622 1275 
L 4263 0 
L 3584 0 
L 2988 1197 
Q 2756 1666 2539 1819 
Q 2322 1972 1947 1972 
L 1259 1972 
L 1259 0 
L 628 0 
L 628 4666 
L 2053 4666 
Q 2853 4666 3247 4331 
Q 3641 3997 3641 3322 
Q 3641 2881 3436 2590 
Q 3231 2300 2841 2188 
z
M 1259 4147 
L 1259 2491 
L 2053 2491 
Q 2509 2491 2742 2702 
Q 2975 2913 2975 3322 
Q 2975 3731 2742 3939 
Q 2509 4147 2053 4147 
L 1259 4147 
z
" transform="scale(0.015625)"/>
       <path id="DejaVuSans-2299" d="M 2350 2403 
L 3013 2403 
L 3013 1609 
L 2350 1609 
L 2350 2403 
z
M 3306 3522 
Q 3016 3644 2681 3644 
Q 2347 3644 2056 3522 
Q 1769 3400 1531 3163 
Q 1291 2922 1172 2634 
Q 1053 2347 1053 2006 
Q 1053 1675 1172 1387 
Q 1291 1100 1531 859 
Q 1769 622 2056 500 
Q 2347 378 2681 378 
Q 3016 378 3306 500 
Q 3594 622 3831 859 
Q 4072 1100 4190 1387 
Q 4309 1675 4309 2006 
Q 4309 2347 4190 2634 
Q 4072 2922 3831 3163 
Q 3594 3400 3306 3522 
z
M 1878 3956 
Q 2250 4113 2681 4113 
Q 3113 4113 3484 3956 
Q 3856 3800 4163 3494 
Q 4472 3184 4625 2813 
Q 4778 2444 4778 2006 
Q 4778 1578 4625 1206 
Q 4472 838 4163 528 
Q 3856 222 3484 65 
Q 3113 -91 2681 -91 
Q 2250 -91 1878 65 
Q 1506 222 1200 528 
Q 891 838 738 1206 
Q 584 1578 584 2006 
Q 584 2444 738 2813 
Q 891 3184 1200 3494 
Q 1506 3800 1878 3956 
z
" transform="scale(0.015625)"/>
       <path id="DejaVuSans-5d" d="M 1947 4863 
L 1947 -844 
L 622 -844 
L 622 -397 
L 1369 -397 
L 1369 4416 
L 622 4416 
L 622 4863 
L 1947 4863 
z
" transform="scale(0.015625)"/>
      </defs>
      <use xlink:href="#DejaVuSans-44" transform="translate(0 0.015625)"/>
      <use xlink:href="#DejaVuSans-69" transform="translate(77.001953 0.015625)"/>
      <use xlink:href="#DejaVuSans-73" transform="translate(104.785156 0.015625)"/>
      <use xlink:href="#DejaVuSans-74" transform="translate(156.884766 0.015625)"/>
      <use xlink:href="#DejaVuSans-61" transform="translate(196.09375 0.015625)"/>
      <use xlink:href="#DejaVuSans-6e" transform="translate(257.373047 0.015625)"/>
      <use xlink:href="#DejaVuSans-63" transform="translate(320.751953 0.015625)"/>
      <use xlink:href="#DejaVuSans-65" transform="translate(375.732422 0.015625)"/>
      <use xlink:href="#DejaVuSans-20" transform="translate(437.255859 0.015625)"/>
      <use xlink:href="#DejaVuSans-5b" transform="translate(469.042969 0.015625)"/>
      <use xlink:href="#DejaVuSans-52" transform="translate(504.931641 0.015625)"/>
      <use xlink:href="#DejaVuSans-2299" transform="translate(589.008789 -16.390625) scale(0.7)"/>
      <use xlink:href="#DejaVuSans-5d" transform="translate(664.033203 0.015625)"/>
     </g>
    </g>
   </g>
   <g id="matplotlib.axis_2">
    <g id="ytick_1">
     <g id="line2d_91">
      <defs>
       <path id="m8792737327" d="M 0 0 
L 3.5 0 
" style="stroke: #000000; stroke-width: 1.5"/>
      </defs>
      <g>
       <use xlink:href="#m8792737327" x="52.872357" y="242.124" style="stroke: #000000; stroke-width: 1.5"/>
      </g>
     </g>
     <g id="line2d_92">
      <defs>
       <path id="m5c4307e415" d="M 0 0 
L -3.5 0 
" style="stroke: #000000; stroke-width: 1.5"/>
      </defs>
      <g>
       <use xlink:href="#m5c4307e415" x="421.2" y="242.124" style="stroke: #000000; stroke-width: 1.5"/>
      </g>
     </g>
     <g id="text_14">
      <!-- $\mathdefault{10^{4}}$ -->
      <g transform="translate(28.252357 246.683062) scale(0.12 -0.12)">
       <use xlink:href="#DejaVuSans-31" transform="translate(0 0.684375)"/>
       <use xlink:href="#DejaVuSans-30" transform="translate(63.623047 0.684375)"/>
       <use xlink:href="#DejaVuSans-34" transform="translate(128.203125 38.965625) scale(0.7)"/>
      </g>
     </g>
    </g>
    <g id="ytick_2">
     <g id="line2d_93">
      <g>
       <use xlink:href="#m8792737327" x="52.872357" y="166.948" style="stroke: #000000; stroke-width: 1.5"/>
      </g>
     </g>
     <g id="line2d_94">
      <g>
       <use xlink:href="#m5c4307e415" x="421.2" y="166.948" style="stroke: #000000; stroke-width: 1.5"/>
      </g>
     </g>
     <g id="text_15">
      <!-- $\mathdefault{10^{5}}$ -->
      <g transform="translate(28.252357 171.507062) scale(0.12 -0.12)">
       <use xlink:href="#DejaVuSans-31" transform="translate(0 0.684375)"/>
       <use xlink:href="#DejaVuSans-30" transform="translate(63.623047 0.684375)"/>
       <use xlink:href="#DejaVuSans-35" transform="translate(128.203125 38.965625) scale(0.7)"/>
      </g>
     </g>
    </g>
    <g id="ytick_3">
     <g id="line2d_95">
      <g>
       <use xlink:href="#m8792737327" x="52.872357" y="91.772" style="stroke: #000000; stroke-width: 1.5"/>
      </g>
     </g>
     <g id="line2d_96">
      <g>
       <use xlink:href="#m5c4307e415" x="421.2" y="91.772" style="stroke: #000000; stroke-width: 1.5"/>
      </g>
     </g>
     <g id="text_16">
      <!-- $\mathdefault{10^{6}}$ -->
      <g transform="translate(28.252357 96.331063) scale(0.12 -0.12)">
       <defs>
        <path id="DejaVuSans-36" d="M 2113 2584 
Q 1688 2584 1439 2293 
Q 1191 2003 1191 1497 
Q 1191 994 1439 701 
Q 1688 409 2113 409 
Q 2538 409 2786 701 
Q 3034 994 3034 1497 
Q 3034 2003 2786 2293 
Q 2538 2584 2113 2584 
z
M 3366 4563 
L 3366 3988 
Q 3128 4100 2886 4159 
Q 2644 4219 2406 4219 
Q 1781 4219 1451 3797 
Q 1122 3375 1075 2522 
Q 1259 2794 1537 2939 
Q 1816 3084 2150 3084 
Q 2853 3084 3261 2657 
Q 3669 2231 3669 1497 
Q 3669 778 3244 343 
Q 2819 -91 2113 -91 
Q 1303 -91 875 529 
Q 447 1150 447 2328 
Q 447 3434 972 4092 
Q 1497 4750 2381 4750 
Q 2619 4750 2861 4703 
Q 3103 4656 3366 4563 
z
" transform="scale(0.015625)"/>
       </defs>
       <use xlink:href="#DejaVuSans-31" transform="translate(0 0.765625)"/>
       <use xlink:href="#DejaVuSans-30" transform="translate(63.623047 0.765625)"/>
       <use xlink:href="#DejaVuSans-36" transform="translate(128.203125 39.046875) scale(0.7)"/>
      </g>
     </g>
    </g>
    <g id="ytick_4">
     <g id="line2d_97">
      <g>
       <use xlink:href="#m8792737327" x="52.872357" y="16.596" style="stroke: #000000; stroke-width: 1.5"/>
      </g>
     </g>
     <g id="line2d_98">
      <g>
       <use xlink:href="#m5c4307e415" x="421.2" y="16.596" style="stroke: #000000; stroke-width: 1.5"/>
      </g>
     </g>
     <g id="text_17">
      <!-- $\mathdefault{10^{7}}$ -->
      <g transform="translate(28.252357 21.155062) scale(0.12 -0.12)">
       <defs>
        <path id="DejaVuSans-37" d="M 525 4666 
L 3525 4666 
L 3525 4397 
L 1831 0 
L 1172 0 
L 2766 4134 
L 525 4134 
L 525 4666 
z
" transform="scale(0.015625)"/>
       </defs>
       <use xlink:href="#DejaVuSans-31" transform="translate(0 0.684375)"/>
       <use xlink:href="#DejaVuSans-30" transform="translate(63.623047 0.684375)"/>
       <use xlink:href="#DejaVuSans-37" transform="translate(128.203125 38.965625) scale(0.7)"/>
      </g>
     </g>
    </g>
    <g id="ytick_5">
     <g id="line2d_99">
      <defs>
       <path id="me3110f1b63" d="M 0 0 
L 2 0 
" style="stroke: #000000; stroke-width: 1.5"/>
      </defs>
      <g>
       <use xlink:href="#me3110f1b63" x="52.872357" y="219.493769" style="stroke: #000000; stroke-width: 1.5"/>
      </g>
     </g>
     <g id="line2d_100">
      <defs>
       <path id="m10d4eba63e" d="M 0 0 
L -2 0 
" style="stroke: #000000; stroke-width: 1.5"/>
      </defs>
      <g>
       <use xlink:href="#m10d4eba63e" x="421.2" y="219.493769" style="stroke: #000000; stroke-width: 1.5"/>
      </g>
     </g>
    </g>
    <g id="ytick_6">
     <g id="line2d_101">
      <g>
       <use xlink:href="#me3110f1b63" x="52.872357" y="206.255933" style="stroke: #000000; stroke-width: 1.5"/>
      </g>
     </g>
     <g id="line2d_102">
      <g>
       <use xlink:href="#m10d4eba63e" x="421.2" y="206.255933" style="stroke: #000000; stroke-width: 1.5"/>
      </g>
     </g>
    </g>
    <g id="ytick_7">
     <g id="line2d_103">
      <g>
       <use xlink:href="#me3110f1b63" x="52.872357" y="196.863538" style="stroke: #000000; stroke-width: 1.5"/>
      </g>
     </g>
     <g id="line2d_104">
      <g>
       <use xlink:href="#m10d4eba63e" x="421.2" y="196.863538" style="stroke: #000000; stroke-width: 1.5"/>
      </g>
     </g>
    </g>
    <g id="ytick_8">
     <g id="line2d_105">
      <g>
       <use xlink:href="#me3110f1b63" x="52.872357" y="189.578231" style="stroke: #000000; stroke-width: 1.5"/>
      </g>
     </g>
     <g id="line2d_106">
      <g>
       <use xlink:href="#m10d4eba63e" x="421.2" y="189.578231" style="stroke: #000000; stroke-width: 1.5"/>
      </g>
     </g>
    </g>
    <g id="ytick_9">
     <g id="line2d_107">
      <g>
       <use xlink:href="#me3110f1b63" x="52.872357" y="183.625702" style="stroke: #000000; stroke-width: 1.5"/>
      </g>
     </g>
     <g id="line2d_108">
      <g>
       <use xlink:href="#m10d4eba63e" x="421.2" y="183.625702" style="stroke: #000000; stroke-width: 1.5"/>
      </g>
     </g>
    </g>
    <g id="ytick_10">
     <g id="line2d_109">
      <g>
       <use xlink:href="#me3110f1b63" x="52.872357" y="178.59291" style="stroke: #000000; stroke-width: 1.5"/>
      </g>
     </g>
     <g id="line2d_110">
      <g>
       <use xlink:href="#m10d4eba63e" x="421.2" y="178.59291" style="stroke: #000000; stroke-width: 1.5"/>
      </g>
     </g>
    </g>
    <g id="ytick_11">
     <g id="line2d_111">
      <g>
       <use xlink:href="#me3110f1b63" x="52.872357" y="174.233307" style="stroke: #000000; stroke-width: 1.5"/>
      </g>
     </g>
     <g id="line2d_112">
      <g>
       <use xlink:href="#m10d4eba63e" x="421.2" y="174.233307" style="stroke: #000000; stroke-width: 1.5"/>
      </g>
     </g>
    </g>
    <g id="ytick_12">
     <g id="line2d_113">
      <g>
       <use xlink:href="#me3110f1b63" x="52.872357" y="170.387865" style="stroke: #000000; stroke-width: 1.5"/>
      </g>
     </g>
     <g id="line2d_114">
      <g>
       <use xlink:href="#m10d4eba63e" x="421.2" y="170.387865" style="stroke: #000000; stroke-width: 1.5"/>
      </g>
     </g>
    </g>
    <g id="ytick_13">
     <g id="line2d_115">
      <g>
       <use xlink:href="#me3110f1b63" x="52.872357" y="144.317769" style="stroke: #000000; stroke-width: 1.5"/>
      </g>
     </g>
     <g id="line2d_116">
      <g>
       <use xlink:href="#m10d4eba63e" x="421.2" y="144.317769" style="stroke: #000000; stroke-width: 1.5"/>
      </g>
     </g>
    </g>
    <g id="ytick_14">
     <g id="line2d_117">
      <g>
       <use xlink:href="#me3110f1b63" x="52.872357" y="131.079933" style="stroke: #000000; stroke-width: 1.5"/>
      </g>
     </g>
     <g id="line2d_118">
      <g>
       <use xlink:href="#m10d4eba63e" x="421.2" y="131.079933" style="stroke: #000000; stroke-width: 1.5"/>
      </g>
     </g>
    </g>
    <g id="ytick_15">
     <g id="line2d_119">
      <g>
       <use xlink:href="#me3110f1b63" x="52.872357" y="121.687538" style="stroke: #000000; stroke-width: 1.5"/>
      </g>
     </g>
     <g id="line2d_120">
      <g>
       <use xlink:href="#m10d4eba63e" x="421.2" y="121.687538" style="stroke: #000000; stroke-width: 1.5"/>
      </g>
     </g>
    </g>
    <g id="ytick_16">
     <g id="line2d_121">
      <g>
       <use xlink:href="#me3110f1b63" x="52.872357" y="114.402231" style="stroke: #000000; stroke-width: 1.5"/>
      </g>
     </g>
     <g id="line2d_122">
      <g>
       <use xlink:href="#m10d4eba63e" x="421.2" y="114.402231" style="stroke: #000000; stroke-width: 1.5"/>
      </g>
     </g>
    </g>
    <g id="ytick_17">
     <g id="line2d_123">
      <g>
       <use xlink:href="#me3110f1b63" x="52.872357" y="108.449702" style="stroke: #000000; stroke-width: 1.5"/>
      </g>
     </g>
     <g id="line2d_124">
      <g>
       <use xlink:href="#m10d4eba63e" x="421.2" y="108.449702" style="stroke: #000000; stroke-width: 1.5"/>
      </g>
     </g>
    </g>
    <g id="ytick_18">
     <g id="line2d_125">
      <g>
       <use xlink:href="#me3110f1b63" x="52.872357" y="103.41691" style="stroke: #000000; stroke-width: 1.5"/>
      </g>
     </g>
     <g id="line2d_126">
      <g>
       <use xlink:href="#m10d4eba63e" x="421.2" y="103.41691" style="stroke: #000000; stroke-width: 1.5"/>
      </g>
     </g>
    </g>
    <g id="ytick_19">
     <g id="line2d_127">
      <g>
       <use xlink:href="#me3110f1b63" x="52.872357" y="99.057307" style="stroke: #000000; stroke-width: 1.5"/>
      </g>
     </g>
     <g id="line2d_128">
      <g>
       <use xlink:href="#m10d4eba63e" x="421.2" y="99.057307" style="stroke: #000000; stroke-width: 1.5"/>
      </g>
     </g>
    </g>
    <g id="ytick_20">
     <g id="line2d_129">
      <g>
       <use xlink:href="#me3110f1b63" x="52.872357" y="95.211865" style="stroke: #000000; stroke-width: 1.5"/>
      </g>
     </g>
     <g id="line2d_130">
      <g>
       <use xlink:href="#m10d4eba63e" x="421.2" y="95.211865" style="stroke: #000000; stroke-width: 1.5"/>
      </g>
     </g>
    </g>
    <g id="ytick_21">
     <g id="line2d_131">
      <g>
       <use xlink:href="#me3110f1b63" x="52.872357" y="69.141769" style="stroke: #000000; stroke-width: 1.5"/>
      </g>
     </g>
     <g id="line2d_132">
      <g>
       <use xlink:href="#m10d4eba63e" x="421.2" y="69.141769" style="stroke: #000000; stroke-width: 1.5"/>
      </g>
     </g>
    </g>
    <g id="ytick_22">
     <g id="line2d_133">
      <g>
       <use xlink:href="#me3110f1b63" x="52.872357" y="55.903933" style="stroke: #000000; stroke-width: 1.5"/>
      </g>
     </g>
     <g id="line2d_134">
      <g>
       <use xlink:href="#m10d4eba63e" x="421.2" y="55.903933" style="stroke: #000000; stroke-width: 1.5"/>
      </g>
     </g>
    </g>
    <g id="ytick_23">
     <g id="line2d_135">
      <g>
       <use xlink:href="#me3110f1b63" x="52.872357" y="46.511538" style="stroke: #000000; stroke-width: 1.5"/>
      </g>
     </g>
     <g id="line2d_136">
      <g>
       <use xlink:href="#m10d4eba63e" x="421.2" y="46.511538" style="stroke: #000000; stroke-width: 1.5"/>
      </g>
     </g>
    </g>
    <g id="ytick_24">
     <g id="line2d_137">
      <g>
       <use xlink:href="#me3110f1b63" x="52.872357" y="39.226231" style="stroke: #000000; stroke-width: 1.5"/>
      </g>
     </g>
     <g id="line2d_138">
      <g>
       <use xlink:href="#m10d4eba63e" x="421.2" y="39.226231" style="stroke: #000000; stroke-width: 1.5"/>
      </g>
     </g>
    </g>
    <g id="ytick_25">
     <g id="line2d_139">
      <g>
       <use xlink:href="#me3110f1b63" x="52.872357" y="33.273702" style="stroke: #000000; stroke-width: 1.5"/>
      </g>
     </g>
     <g id="line2d_140">
      <g>
       <use xlink:href="#m10d4eba63e" x="421.2" y="33.273702" style="stroke: #000000; stroke-width: 1.5"/>
      </g>
     </g>
    </g>
    <g id="ytick_26">
     <g id="line2d_141">
      <g>
       <use xlink:href="#me3110f1b63" x="52.872357" y="28.24091" style="stroke: #000000; stroke-width: 1.5"/>
      </g>
     </g>
     <g id="line2d_142">
      <g>
       <use xlink:href="#m10d4eba63e" x="421.2" y="28.24091" style="stroke: #000000; stroke-width: 1.5"/>
      </g>
     </g>
    </g>
    <g id="ytick_27">
     <g id="line2d_143">
      <g>
       <use xlink:href="#me3110f1b63" x="52.872357" y="23.881307" style="stroke: #000000; stroke-width: 1.5"/>
      </g>
     </g>
     <g id="line2d_144">
      <g>
       <use xlink:href="#m10d4eba63e" x="421.2" y="23.881307" style="stroke: #000000; stroke-width: 1.5"/>
      </g>
     </g>
    </g>
    <g id="ytick_28">
     <g id="line2d_145">
      <g>
       <use xlink:href="#me3110f1b63" x="52.872357" y="20.035865" style="stroke: #000000; stroke-width: 1.5"/>
      </g>
     </g>
     <g id="line2d_146">
      <g>
       <use xlink:href="#m10d4eba63e" x="421.2" y="20.035865" style="stroke: #000000; stroke-width: 1.5"/>
      </g>
     </g>
    </g>
    <g id="text_18">
     <!-- T [K] -->
     <g transform="translate(21.756732 143.548125) rotate(-90) scale(0.12 -0.12)">
      <defs>
       <path id="DejaVuSans-54" d="M -19 4666 
L 3928 4666 
L 3928 4134 
L 2272 4134 
L 2272 0 
L 1638 0 
L 1638 4134 
L -19 4134 
L -19 4666 
z
" transform="scale(0.015625)"/>
       <path id="DejaVuSans-4b" d="M 628 4666 
L 1259 4666 
L 1259 2694 
L 3353 4666 
L 4166 4666 
L 1850 2491 
L 4331 0 
L 3500 0 
L 1259 2247 
L 1259 0 
L 628 0 
L 628 4666 
z
" transform="scale(0.015625)"/>
      </defs>
      <use xlink:href="#DejaVuSans-54"/>
      <use xlink:href="#DejaVuSans-20" x="61.083984"/>
      <use xlink:href="#DejaVuSans-5b" x="92.871094"/>
      <use xlink:href="#DejaVuSans-4b" x="131.884766"/>
      <use xlink:href="#DejaVuSans-5d" x="197.460938"/>
     </g>
    </g>
   </g>
  </g>
 </g>
 <defs>
  <clipPath id="pb16436707e">
   <rect x="52.872357" y="16.596" width="368.327643" height="225.528"/>
  </clipPath>
 </defs>
</svg>
