<?xml version="1.0" encoding="utf-8" standalone="no"?>
<!DOCTYPE svg PUBLIC "-//W3C//DTD SVG 1.1//EN"
  "http://www.w3.org/Graphics/SVG/1.1/DTD/svg11.dtd">
<svg xmlns:xlink="http://www.w3.org/1999/xlink" width="432pt" height="288pt" viewBox="0 0 432 288" xmlns="http://www.w3.org/2000/svg" version="1.1">
 <metadata>
  <rdf:RDF xmlns:dc="http://purl.org/dc/elements/1.1/" xmlns:cc="http://creativecommons.org/ns#" xmlns:rdf="http://www.w3.org/1999/02/22-rdf-syntax-ns#">
   <cc:Work>
    <dc:type rdf:resource="http://purl.org/dc/dcmitype/StillImage"/>
    <dc:date>2022-12-12T10:37:35.208092</dc:date>
    <dc:format>image/svg+xml</dc:format>
    <dc:creator>
     <cc:Agent>
      <dc:title>Matplotlib v3.6.1, https://matplotlib.org/</dc:title>
     </cc:Agent>
    </dc:creator>
   </cc:Work>
  </rdf:RDF>
 </metadata>
 <defs>
  <style type="text/css">*{stroke-linejoin: round; stroke-linecap: butt}</style>
 </defs>
 <g id="figure_1">
  <g id="patch_1">
   <path d="M 0 288 
L 432 288 
L 432 0 
L 0 0 
z
" style="fill: #ffffff"/>
  </g>
  <g id="axes_1">
   <g id="patch_2">
    <path d="M 57.702 242.124 
L 421.2 242.124 
L 421.2 10.8 
L 57.702 10.8 
z
" style="fill: #ffffff"/>
   </g>
   <g id="patch_3">
    <path d="M 57.702 242.124 
L 57.702 10.8 
" style="fill: none; stroke: #000000; stroke-width: 1.5; stroke-linejoin: miter; stroke-linecap: square"/>
   </g>
   <g id="patch_4">
    <path d="M 421.2 242.124 
L 421.2 10.8 
" style="fill: none; stroke: #000000; stroke-width: 1.5; stroke-linejoin: miter; stroke-linecap: square"/>
   </g>
   <g id="patch_5">
    <path d="M 57.702 242.124 
L 421.2 242.124 
" style="fill: none; stroke: #000000; stroke-width: 1.5; stroke-linejoin: miter; stroke-linecap: square"/>
   </g>
   <g id="patch_6">
    <path d="M 57.702 10.8 
L 421.2 10.8 
" style="fill: none; stroke: #000000; stroke-width: 1.5; stroke-linejoin: miter; stroke-linecap: square"/>
   </g>
   <g id="PolyCollection_1">
    <defs>
     <path id="madfc94d046" d="M 199.880188 -131.963978 
L 199.880188 -111.880631 
L 200.379539 -107.905533 
L 201.273292 -107.88699 
L 202.146251 -114.910274 
L 203.014293 -107.215152 
L 203.856977 -105.85497 
L 204.703287 -110.071405 
L 205.544735 -107.611595 
L 206.445332 -107.827421 
L 207.265102 -112.061091 
L 208.120597 -109.849077 
L 209.017057 -109.343543 
L 209.833152 -108.884077 
L 210.674816 -107.830525 
L 211.578458 -105.04521 
L 212.389201 -103.127541 
L 213.237562 -100.367524 
L 214.095584 -101.590675 
L 214.942463 -97.70477 
L 215.836288 -97.9964 
L 216.677491 -100.184685 
L 217.508658 -99.174377 
L 218.42377 -100.926153 
L 219.202556 -100.776415 
L 220.088427 -98.384118 
L 220.943564 -101.75067 
L 221.804334 -102.814694 
L 222.649124 -103.579752 
L 223.485869 -98.3227 
L 224.378256 -95.61718 
L 225.198001 -94.968522 
L 226.076248 -96.2 
L 226.890579 -110.874349 
L 227.778168 -125.660365 
L 228.638338 -117.91473 
L 229.446835 -121.836689 
L 230.33208 -123.419236 
L 231.180708 -117.826416 
L 232.094905 -112.471748 
L 232.901996 -109.032486 
L 233.726813 -95.535608 
L 234.596483 -103.59109 
L 235.485393 -101.571033 
L 236.284249 -97.571788 
L 237.288037 -121.815039 
L 237.945152 -127.167731 
L 238.865391 -125.146819 
L 239.726742 -115.383242 
L 240.576179 -116.368555 
L 241.460935 -112.620387 
L 242.281615 -113.758753 
L 243.142128 -108.50962 
L 243.976141 -107.873672 
L 244.79982 -105.058992 
L 245.677704 -106.349073 
L 246.532071 -102.940683 
L 247.398341 -107.46012 
L 248.268342 -107.64575 
L 249.091896 -105.483905 
L 249.973544 -100.171227 
L 250.825973 -102.106413 
L 251.700497 -101.598698 
L 252.495588 -97.240438 
L 253.449217 -98.530293 
L 254.224188 -94.049827 
L 255.097841 -99.382926 
L 255.948729 -100.467666 
L 256.785881 -100.092962 
L 257.654771 -102.098243 
L 258.526217 -104.531733 
L 259.388304 -101.270404 
L 260.21453 -105.05739 
L 261.141413 -100.469999 
L 261.936483 -98.707246 
L 262.802296 -99.361832 
L 263.554071 -98.025637 
L 264.496898 -104.441625 
L 265.348519 -103.257628 
L 266.210071 -104.660573 
L 267.054974 -109.254243 
L 267.834783 -108.317298 
L 268.77205 -102.937393 
L 269.612689 -102.263125 
L 270.49207 -104.637406 
L 271.347337 -98.89423 
L 272.191489 -104.76443 
L 273.060168 -102.517516 
L 273.881974 -104.716361 
L 274.682681 -105.478243 
L 275.680968 -105.887701 
L 276.476395 -98.302832 
L 277.288528 -104.202855 
L 278.14747 -98.736092 
L 278.999054 -99.06279 
L 279.863925 -102.349423 
L 280.783157 -105.062775 
L 281.574381 -108.00669 
L 282.462535 -115.162088 
L 283.246431 -115.749516 
L 284.134694 -129.5491 
L 284.940464 -115.21316 
L 285.835551 -114.257164 
L 286.716662 -106.876726 
L 287.573274 -106.938037 
L 288.409828 -104.867651 
L 289.221054 -109.122754 
L 290.112793 -108.715286 
L 290.947781 -112.549974 
L 291.85739 -121.96735 
L 292.647257 -112.310945 
L 293.55188 -129.31229 
L 294.412442 -126.75423 
L 295.226909 -125.112051 
L 296.091779 -124.509635 
L 296.9442 -140.699812 
L 297.778698 -141.832667 
L 298.642531 -115.845417 
L 299.511333 -114.062203 
L 300.38287 -124.99523 
L 301.246737 -127.083737 
L 302.041032 -128.929143 
L 302.883728 -129.733819 
L 303.741742 -138.306372 
L 304.599683 -136.691518 
L 305.457347 -134.398832 
L 306.290681 -131.399759 
L 307.296905 -127.479671 
L 308.026835 -116.314115 
L 308.904002 -117.426493 
L 309.746059 -119.182432 
L 310.607884 -116.869584 
L 311.460424 -115.08701 
L 312.304889 -123.722525 
L 313.14962 -116.186981 
L 314.019248 -121.098391 
L 314.821158 -106.28936 
L 315.709094 -105.015839 
L 316.572167 -114.016765 
L 317.40345 -113.397658 
L 318.30746 -136.940299 
L 319.143839 -114.929913 
L 319.945518 -120.388159 
L 320.866729 -127.627922 
L 321.70102 -113.711036 
L 322.498935 -133.125962 
L 323.466635 -135.103933 
L 324.259117 -107.383333 
L 325.097024 -97.783037 
L 325.891019 -103.399823 
L 326.911113 -139.647356 
L 327.68481 -144.918562 
L 328.526199 -121.374599 
L 329.395498 -128.47934 
L 330.253155 -129.987352 
L 331.087552 -118.818727 
L 331.938167 -120.547045 
L 332.813571 -130.198644 
L 333.669504 -128.590764 
L 334.499279 -114.699058 
L 335.363925 -114.038243 
L 336.228348 -137.288392 
L 337.079698 -135.741494 
L 337.91617 -124.364017 
L 338.773227 -110.027412 
L 339.628873 -118.695579 
L 340.505365 -115.968286 
L 341.341282 -115.609188 
L 342.175103 -113.41373 
L 343.072643 -121.174808 
L 343.874555 -131.405739 
L 344.752319 -137.580618 
L 345.597149 -130.983862 
L 346.453235 -118.175247 
L 347.275628 -126.807403 
L 348.194695 -144.48007 
L 349.013846 -143.734624 
L 349.932389 -137.001797 
L 350.758194 -136.202661 
L 351.557409 -127.987511 
L 352.457843 -131.009975 
L 353.27614 -132.755608 
L 354.230347 -126.309344 
L 354.938029 -120.837557 
L 355.871945 -137.833025 
L 356.698677 -129.132128 
L 357.581536 -134.141901 
L 358.429399 -135.175019 
L 359.287205 -133.363115 
L 360.129001 -138.343039 
L 360.941262 -147.241267 
L 361.849782 -147.995922 
L 362.715164 -127.458178 
L 363.50466 -134.63833 
L 364.374737 -139.662786 
L 365.277336 -127.155159 
L 366.083367 -143.697094 
L 366.929515 -140.367189 
L 367.799234 -123.626132 
L 368.668058 -131.418899 
L 369.51836 -135.467099 
L 370.359208 -127.648984 
L 371.202638 -136.481557 
L 372.095902 -140.045513 
L 372.958613 -125.925403 
L 373.788191 -124.129496 
L 374.662916 -136.430257 
L 375.490334 -144.872278 
L 376.380426 -153.867492 
L 377.224234 -146.749658 
L 378.046683 -148.382081 
L 378.88033 -152.660902 
L 379.791121 -148.469527 
L 380.542455 -147.460575 
L 381.543104 -149.667154 
L 382.322904 -129.049286 
L 383.251768 -136.014996 
L 384.048281 -137.153718 
L 384.895992 -135.438777 
L 385.737722 -133.300822 
L 386.586314 -140.257739 
L 387.438752 -141.554687 
L 388.329735 -148.197678 
L 389.169599 -139.055953 
L 389.98578 -132.689363 
L 390.889949 -134.038476 
L 391.721984 -124.966124 
L 392.549577 -135.068011 
L 393.427825 -152.66087 
L 394.289621 -153.420993 
L 395.151287 -148.296754 
L 395.97633 -155.184909 
L 396.853068 -146.659379 
L 397.676231 -151.639981 
L 398.565664 -153.39875 
L 399.41196 -152.536414 
L 400.259226 -153.149958 
L 401.13248 -139.228242 
L 401.946213 -151.914302 
L 402.792368 -155.839258 
L 403.697409 -134.600164 
L 404.544487 -134.29306 
L 404.544487 -175.934786 
L 404.544487 -175.934786 
L 403.697409 -178.363726 
L 402.792368 -176.131314 
L 401.946213 -174.319095 
L 401.13248 -178.517228 
L 400.259226 -177.139853 
L 399.41196 -183.113804 
L 398.565664 -175.348686 
L 397.676231 -173.80103 
L 396.853068 -176.220112 
L 395.97633 -171.249535 
L 395.151287 -174.257945 
L 394.289621 -168.852426 
L 393.427825 -171.174249 
L 392.549577 -179.61957 
L 391.721984 -178.297571 
L 390.889949 -175.888119 
L 389.98578 -192.202867 
L 389.169599 -176.434734 
L 388.329735 -180.461491 
L 387.438752 -170.308705 
L 386.586314 -158.984644 
L 385.737722 -166.202032 
L 384.895992 -170.739037 
L 384.048281 -170.947822 
L 383.251768 -175.43673 
L 382.322904 -176.814217 
L 381.543104 -181.693198 
L 380.542455 -175.039601 
L 379.791121 -182.002744 
L 378.88033 -180.409324 
L 378.046683 -177.461904 
L 377.224234 -180.035942 
L 376.380426 -191.01963 
L 375.490334 -174.830366 
L 374.662916 -184.175949 
L 373.788191 -170.797733 
L 372.958613 -169.53736 
L 372.095902 -187.26515 
L 371.202638 -173.871591 
L 370.359208 -167.514239 
L 369.51836 -166.153494 
L 368.668058 -166.50297 
L 367.799234 -155.527835 
L 366.929515 -171.422824 
L 366.083367 -177.055446 
L 365.277336 -174.303645 
L 364.374737 -176.211916 
L 363.50466 -173.982956 
L 362.715164 -169.759385 
L 361.849782 -176.057938 
L 360.941262 -176.635023 
L 360.129001 -174.867417 
L 359.287205 -177.921149 
L 358.429399 -186.05426 
L 357.581536 -173.83541 
L 356.698677 -157.973307 
L 355.871945 -161.492741 
L 354.938029 -159.092511 
L 354.230347 -161.512934 
L 353.27614 -159.34498 
L 352.457843 -165.442631 
L 351.557409 -165.78425 
L 350.758194 -172.494989 
L 349.932389 -164.566895 
L 349.013846 -161.456372 
L 348.194695 -165.940492 
L 347.275628 -165.756236 
L 346.453235 -170.663267 
L 345.597149 -172.888264 
L 344.752319 -162.395439 
L 343.874555 -162.044221 
L 343.072643 -173.349281 
L 342.175103 -177.648157 
L 341.341282 -168.265791 
L 340.505365 -163.637815 
L 339.628873 -165.467244 
L 338.773227 -175.49028 
L 337.91617 -166.222261 
L 337.079698 -166.099835 
L 336.228348 -163.40581 
L 335.363925 -166.82478 
L 334.499279 -179.457469 
L 333.669504 -179.021036 
L 332.813571 -184.42361 
L 331.938167 -198.830526 
L 331.087552 -183.489566 
L 330.253155 -198.741954 
L 329.395498 -191.276328 
L 328.526199 -191.786948 
L 327.68481 -189.938118 
L 326.911113 -189.212933 
L 325.891019 -190.332516 
L 325.097024 -195.728516 
L 324.259117 -188.751946 
L 323.466635 -201.193362 
L 322.498935 -211.071103 
L 321.70102 -199.645419 
L 320.866729 -200.944781 
L 319.945518 -195.323381 
L 319.143839 -196.713222 
L 318.30746 -202.366656 
L 317.40345 -187.110027 
L 316.572167 -190.01884 
L 315.709094 -190.113915 
L 314.821158 -183.434378 
L 314.019248 -186.245186 
L 313.14962 -189.592221 
L 312.304889 -198.77156 
L 311.460424 -186.973285 
L 310.607884 -196.764298 
L 309.746059 -196.934331 
L 308.904002 -200.500345 
L 308.026835 -181.044332 
L 307.296905 -194.022099 
L 306.290681 -196.347685 
L 305.457347 -199.622229 
L 304.599683 -188.172779 
L 303.741742 -202.482132 
L 302.883728 -189.394105 
L 302.041032 -180.499339 
L 301.246737 -179.867652 
L 300.38287 -180.140491 
L 299.511333 -180.188586 
L 298.642531 -187.112933 
L 297.778698 -213.754881 
L 296.9442 -199.787475 
L 296.091779 -186.887123 
L 295.226909 -185.682457 
L 294.412442 -187.286503 
L 293.55188 -181.592055 
L 292.647257 -180.312002 
L 291.85739 -184.981854 
L 290.947781 -173.687134 
L 290.112793 -175.897521 
L 289.221054 -168.850998 
L 288.409828 -167.07225 
L 287.573274 -162.537647 
L 286.716662 -172.44287 
L 285.835551 -173.210556 
L 284.940464 -168.676628 
L 284.134694 -171.228877 
L 283.246431 -164.740513 
L 282.462535 -161.745109 
L 281.574381 -156.86875 
L 280.783157 -152.304249 
L 279.863925 -126.321195 
L 278.999054 -122.232489 
L 278.14747 -123.506679 
L 277.288528 -129.26827 
L 276.476395 -131.584054 
L 275.680968 -122.656259 
L 274.682681 -136.659494 
L 273.881974 -127.322245 
L 273.060168 -144.90235 
L 272.191489 -157.020011 
L 271.347337 -140.59355 
L 270.49207 -142.499762 
L 269.612689 -158.127961 
L 268.77205 -143.377728 
L 267.834783 -149.186086 
L 267.054974 -129.584508 
L 266.210071 -141.272618 
L 265.348519 -139.339089 
L 264.496898 -154.223023 
L 263.554071 -142.326689 
L 262.802296 -147.951183 
L 261.936483 -156.863879 
L 261.141413 -142.559184 
L 260.21453 -147.568325 
L 259.388304 -137.669368 
L 258.526217 -134.325488 
L 257.654771 -123.03991 
L 256.785881 -136.945009 
L 255.948729 -154.745215 
L 255.097841 -139.150983 
L 254.224188 -156.182813 
L 253.449217 -137.445418 
L 252.495588 -154.13298 
L 251.700497 -144.320074 
L 250.825973 -138.579667 
L 249.973544 -142.027156 
L 249.091896 -148.705679 
L 248.268342 -154.572572 
L 247.398341 -154.047959 
L 246.532071 -157.600876 
L 245.677704 -166.925094 
L 244.79982 -149.946491 
L 243.976141 -160.300577 
L 243.142128 -164.414056 
L 242.281615 -169.420469 
L 241.460935 -159.903718 
L 240.576179 -160.143342 
L 239.726742 -165.306046 
L 238.865391 -161.08589 
L 237.945152 -166.05322 
L 237.288037 -155.664399 
L 236.284249 -165.265719 
L 235.485393 -156.472333 
L 234.596483 -123.470915 
L 233.726813 -165.456982 
L 232.901996 -183.469821 
L 232.094905 -162.236282 
L 231.180708 -151.617739 
L 230.33208 -164.831165 
L 229.446835 -162.248633 
L 228.638338 -165.996026 
L 227.778168 -168.563301 
L 226.890579 -153.591924 
L 226.076248 -173.187809 
L 225.198001 -145.429459 
L 224.378256 -158.078988 
L 223.485869 -147.754776 
L 222.649124 -148.240039 
L 221.804334 -144.271674 
L 220.943564 -144.727156 
L 220.088427 -144.301358 
L 219.202556 -141.239676 
L 218.42377 -145.79264 
L 217.508658 -148.203851 
L 216.677491 -149.742391 
L 215.836288 -146.347869 
L 214.942463 -147.604994 
L 214.095584 -145.820857 
L 213.237562 -139.101502 
L 212.389201 -139.75491 
L 211.578458 -141.672191 
L 210.674816 -143.649253 
L 209.833152 -144.35604 
L 209.017057 -138.094866 
L 208.120597 -136.928032 
L 207.265102 -136.812228 
L 206.445332 -134.76569 
L 205.544735 -128.2124 
L 204.703287 -127.598318 
L 203.856977 -131.470859 
L 203.014293 -132.566591 
L 202.146251 -138.077037 
L 201.273292 -138.520337 
L 200.379539 -128.817138 
L 199.880188 -131.963978 
z
" style="stroke: #add8e6"/>
    </defs>
    <g clip-path="url(#pdbc0e4e197)">
     <use xlink:href="#madfc94d046" x="0" y="288" style="fill: #add8e6; stroke: #add8e6"/>
    </g>
   </g>
   <g id="line2d_1">
    <path d="M 199.880188 166.077696 
L 200.379539 169.638664 
L 201.273292 164.796337 
L 202.146251 161.506345 
L 203.014293 168.109128 
L 203.856977 169.337086 
L 204.703287 169.165138 
L 205.544735 170.088003 
L 207.265102 163.56334 
L 208.120597 164.611445 
L 209.017057 164.280795 
L 209.833152 161.379941 
L 210.674816 162.260111 
L 212.389201 166.558775 
L 213.237562 168.265487 
L 214.095584 164.294234 
L 214.942463 165.345118 
L 215.836288 165.827866 
L 216.677491 163.036462 
L 217.508658 164.310886 
L 218.42377 164.640603 
L 219.202556 166.991954 
L 220.088427 166.657262 
L 220.943564 164.761087 
L 221.804334 164.456816 
L 222.649124 162.090105 
L 223.485869 164.961262 
L 224.378256 161.151916 
L 225.198001 167.801009 
L 226.076248 153.306095 
L 226.890579 155.766864 
L 227.778168 140.888167 
L 228.638338 146.044622 
L 229.446835 145.957339 
L 230.33208 143.8748 
L 231.180708 153.277923 
L 232.094905 150.645985 
L 232.901996 141.748847 
L 234.596483 174.468997 
L 235.485393 158.978317 
L 236.284249 156.581246 
L 237.288037 149.260281 
L 237.945152 141.389525 
L 238.865391 144.883646 
L 239.726742 147.655356 
L 241.460935 151.737947 
L 242.281615 146.410389 
L 243.142128 151.538162 
L 243.976141 153.912875 
L 244.79982 160.497258 
L 245.677704 151.362917 
L 246.532071 157.729221 
L 247.398341 157.245961 
L 248.268342 156.890839 
L 249.091896 160.905208 
L 249.973544 166.900808 
L 250.825973 167.65696 
L 252.495588 162.313291 
L 253.449217 170.012144 
L 254.224188 162.88368 
L 255.097841 168.733045 
L 255.948729 160.39356 
L 256.785881 169.481014 
L 257.654771 175.430923 
L 258.526217 168.571389 
L 259.388304 168.530114 
L 260.21453 161.687143 
L 261.141413 166.485409 
L 261.936483 160.214438 
L 263.554071 167.823837 
L 264.496898 158.667676 
L 265.348519 166.701642 
L 266.210071 165.033405 
L 267.054974 168.580624 
L 267.834783 159.248308 
L 268.77205 164.84244 
L 269.612689 157.804457 
L 270.49207 164.431416 
L 271.347337 168.25611 
L 272.191489 157.107779 
L 273.881974 171.980697 
L 274.682681 166.931132 
L 275.680968 173.72802 
L 276.476395 173.056557 
L 277.288528 171.264437 
L 278.14747 176.878615 
L 278.999054 177.35236 
L 279.863925 173.664691 
L 280.783157 159.316488 
L 281.574381 155.56228 
L 282.462535 149.546401 
L 283.246431 147.754986 
L 284.134694 137.611011 
L 284.940464 146.055106 
L 285.835551 144.26614 
L 286.716662 148.340202 
L 287.573274 153.262158 
L 288.409828 152.030049 
L 290.112793 145.693596 
L 290.947781 144.881446 
L 291.85739 134.525398 
L 292.647257 141.688527 
L 293.55188 132.547827 
L 294.412442 130.979634 
L 295.226909 132.602746 
L 296.091779 132.301621 
L 296.9442 117.756356 
L 297.778698 110.206226 
L 298.642531 136.520825 
L 299.511333 140.874606 
L 300.38287 135.43214 
L 301.246737 134.524305 
L 302.041032 133.285759 
L 302.883728 128.436038 
L 303.741742 117.605748 
L 304.599683 125.567851 
L 305.457347 120.989469 
L 306.290681 124.126278 
L 307.296905 127.249115 
L 308.026835 139.320777 
L 308.904002 129.036581 
L 309.746059 129.941618 
L 310.607884 131.183059 
L 311.460424 136.969852 
L 312.304889 126.752957 
L 313.14962 135.110399 
L 314.019248 134.328211 
L 314.821158 143.138131 
L 315.709094 140.435123 
L 316.572167 135.982197 
L 317.40345 137.746158 
L 318.30746 118.346523 
L 319.143839 132.178432 
L 319.945518 130.14423 
L 320.866729 123.713648 
L 321.70102 131.321773 
L 322.498935 115.901467 
L 323.466635 119.851353 
L 324.259117 139.932361 
L 325.097024 141.244224 
L 325.891019 141.133831 
L 326.911113 123.569856 
L 327.68481 120.57166 
L 328.526199 131.419226 
L 329.395498 128.122166 
L 330.253155 123.635347 
L 331.087552 136.845853 
L 331.938167 128.311214 
L 332.813571 130.688873 
L 333.669504 134.1941 
L 335.363925 147.568488 
L 336.228348 137.652899 
L 337.079698 137.079335 
L 337.91617 142.706861 
L 338.773227 145.241154 
L 339.628873 145.918588 
L 340.505365 148.196949 
L 341.341282 146.062511 
L 342.175103 142.469057 
L 343.072643 140.737956 
L 343.874555 141.27502 
L 344.752319 138.011971 
L 345.597149 136.063937 
L 346.453235 143.580743 
L 347.275628 141.71818 
L 348.194695 132.789719 
L 349.013846 135.404502 
L 349.932389 137.215654 
L 350.758194 133.651175 
L 351.557409 141.11412 
L 352.457843 139.773697 
L 353.27614 141.949706 
L 354.230347 144.088861 
L 354.938029 148.034966 
L 355.871945 138.337117 
L 356.698677 144.447283 
L 357.581536 134.011344 
L 358.429399 127.385361 
L 359.287205 132.357868 
L 360.129001 131.394772 
L 360.941262 126.061855 
L 361.849782 125.97307 
L 362.715164 139.391218 
L 363.50466 133.689357 
L 364.374737 130.062649 
L 365.277336 137.270598 
L 366.083367 127.62373 
L 366.929515 132.104993 
L 367.799234 148.423016 
L 368.668058 139.039065 
L 369.51836 137.189704 
L 370.359208 140.418388 
L 372.095902 124.344668 
L 372.958613 140.268619 
L 373.788191 140.536386 
L 374.662916 127.696897 
L 375.490334 128.148678 
L 376.380426 115.556439 
L 377.224234 124.6072 
L 378.046683 125.078007 
L 378.88033 121.464887 
L 379.791121 122.763864 
L 380.542455 126.749912 
L 381.543104 122.319824 
L 382.322904 135.068249 
L 383.251768 132.274137 
L 384.048281 133.94923 
L 384.895992 134.911093 
L 385.737722 138.248573 
L 386.586314 138.378808 
L 387.438752 132.068304 
L 388.329735 123.670416 
L 389.169599 130.254656 
L 389.98578 125.553885 
L 390.889949 133.036702 
L 391.721984 136.368153 
L 392.549577 130.656209 
L 393.427825 126.08244 
L 394.289621 126.86329 
L 395.151287 126.722651 
L 395.97633 124.782778 
L 396.853068 126.560255 
L 397.676231 125.279495 
L 398.565664 123.626282 
L 399.41196 120.174891 
L 400.259226 122.855095 
L 401.13248 129.127265 
L 401.946213 124.883301 
L 402.792368 122.014714 
L 403.697409 131.518055 
L 404.544487 132.886077 
L 404.544487 132.886077 
" clip-path="url(#pdbc0e4e197)" style="fill: none; stroke: #1f77b4; stroke-width: 1.5; stroke-linecap: square"/>
   </g>
   <g id="line2d_2">
    <path d="M 74.224636 231.609273 
L 76.618475 227.799978 
L 77.644599 225.19715 
L 79.011946 220.375676 
L 80.379292 214.612906 
L 87.216026 184.236862 
L 89.608269 175.228081 
L 91.659289 168.407068 
L 93.709082 162.355561 
L 95.417652 157.847535 
L 97.468672 152.991925 
L 99.860915 148.032387 
L 101.911935 144.266855 
L 104.302951 140.381375 
L 106.695194 136.941558 
L 108.746214 134.304433 
L 111.47968 131.196374 
L 114.214374 128.486112 
L 117.289063 125.845196 
L 120.706202 123.254273 
L 123.782119 121.209724 
L 126.858035 119.405565 
L 130.275174 117.641686 
L 134.033537 115.940589 
L 137.793127 114.447914 
L 142.235162 112.910914 
L 147.019649 111.475227 
L 152.829031 109.981087 
L 158.637186 108.701785 
L 166.155139 107.300534 
L 176.065334 105.797318 
L 185.633079 104.613121 
L 194.862056 103.651493 
L 213.997546 102.081378 
L 230.05221 101.080463 
L 243.038321 100.411818 
L 258.761582 99.729402 
L 267.991786 99.459401 
L 343.84639 97.796899 
L 369.474936 97.34903 
L 387.247989 97.059733 
L 404.333686 96.799521 
L 404.333686 96.799521 
" clip-path="url(#pdbc0e4e197)" style="fill: none; stroke: #000000; stroke-width: 2.5; stroke-linecap: square"/>
   </g>
   <g id="line2d_3">
    <path d="M 74.224636 194.457721 
L 75.934802 153.407861 
L 76.960926 135.376344 
L 77.985822 121.821419 
L 79.011946 111.003793 
L 80.379292 98.482175 
L 81.746639 87.385363 
L 82.772763 80.585436 
L 84.14011 73.788719 
L 85.165006 69.710047 
L 86.189902 66.292435 
L 87.557249 62.573174 
L 88.924596 59.482882 
L 90.633166 56.334827 
L 92.341735 53.748352 
L 94.392755 51.197177 
L 96.101325 49.400122 
L 98.152345 47.551724 
L 100.202138 45.963256 
L 102.936831 44.16941 
L 106.012748 42.475044 
L 109.087437 41.043819 
L 112.504576 39.686401 
L 116.264166 38.412418 
L 121.048652 37.042163 
L 125.833139 35.883705 
L 132.667418 34.513451 
L 140.526593 33.367829 
L 150.094338 32.215789 
L 166.497589 30.63053 
L 181.191043 29.494535 
L 206.817134 27.915694 
L 226.296302 26.933732 
L 258.417904 25.544224 
L 307.968881 23.801723 
L 386.216955 21.719065 
L 404.677364 21.314727 
L 404.677364 21.314727 
" clip-path="url(#pdbc0e4e197)" style="fill: none; stroke-dasharray: 9.25,4; stroke-dashoffset: 0; stroke: #8b0000; stroke-width: 2.5"/>
   </g>
   <g id="legend_1">
    <g id="line2d_4">
     <path d="M 333.95625 198.188062 
L 343.95625 198.188062 
L 353.95625 198.188062 
" style="fill: none; stroke: #1f77b4; stroke-width: 1.5; stroke-linecap: square"/>
    </g>
    <g id="text_1">
     <!-- PSP -->
     <g transform="translate(361.95625 201.688062) scale(0.1 -0.1)">
      <defs>
       <path id="DejaVuSans-50" d="M 1259 4147 
L 1259 2394 
L 2053 2394 
Q 2494 2394 2734 2622 
Q 2975 2850 2975 3272 
Q 2975 3691 2734 3919 
Q 2494 4147 2053 4147 
L 1259 4147 
z
M 628 4666 
L 2053 4666 
Q 2838 4666 3239 4311 
Q 3641 3956 3641 3272 
Q 3641 2581 3239 2228 
Q 2838 1875 2053 1875 
L 1259 1875 
L 1259 0 
L 628 0 
L 628 4666 
z
" transform="scale(0.015625)"/>
       <path id="DejaVuSans-53" d="M 3425 4513 
L 3425 3897 
Q 3066 4069 2747 4153 
Q 2428 4238 2131 4238 
Q 1616 4238 1336 4038 
Q 1056 3838 1056 3469 
Q 1056 3159 1242 3001 
Q 1428 2844 1947 2747 
L 2328 2669 
Q 3034 2534 3370 2195 
Q 3706 1856 3706 1288 
Q 3706 609 3251 259 
Q 2797 -91 1919 -91 
Q 1588 -91 1214 -16 
Q 841 59 441 206 
L 441 856 
Q 825 641 1194 531 
Q 1563 422 1919 422 
Q 2459 422 2753 634 
Q 3047 847 3047 1241 
Q 3047 1584 2836 1778 
Q 2625 1972 2144 2069 
L 1759 2144 
Q 1053 2284 737 2584 
Q 422 2884 422 3419 
Q 422 4038 858 4394 
Q 1294 4750 2059 4750 
Q 2388 4750 2728 4690 
Q 3069 4631 3425 4513 
z
" transform="scale(0.015625)"/>
      </defs>
      <use xlink:href="#DejaVuSans-50"/>
      <use xlink:href="#DejaVuSans-53" x="60.302734"/>
      <use xlink:href="#DejaVuSans-50" x="123.779297"/>
     </g>
    </g>
    <g id="line2d_5">
     <path d="M 333.95625 212.866187 
L 343.95625 212.866187 
L 353.95625 212.866187 
" style="fill: none; stroke: #000000; stroke-width: 2.5; stroke-linecap: square"/>
    </g>
    <g id="text_2">
     <!-- Slow wind -->
     <g transform="translate(361.95625 216.366187) scale(0.1 -0.1)">
      <defs>
       <path id="DejaVuSans-6c" d="M 603 4863 
L 1178 4863 
L 1178 0 
L 603 0 
L 603 4863 
z
" transform="scale(0.015625)"/>
       <path id="DejaVuSans-6f" d="M 1959 3097 
Q 1497 3097 1228 2736 
Q 959 2375 959 1747 
Q 959 1119 1226 758 
Q 1494 397 1959 397 
Q 2419 397 2687 759 
Q 2956 1122 2956 1747 
Q 2956 2369 2687 2733 
Q 2419 3097 1959 3097 
z
M 1959 3584 
Q 2709 3584 3137 3096 
Q 3566 2609 3566 1747 
Q 3566 888 3137 398 
Q 2709 -91 1959 -91 
Q 1206 -91 779 398 
Q 353 888 353 1747 
Q 353 2609 779 3096 
Q 1206 3584 1959 3584 
z
" transform="scale(0.015625)"/>
       <path id="DejaVuSans-77" d="M 269 3500 
L 844 3500 
L 1563 769 
L 2278 3500 
L 2956 3500 
L 3675 769 
L 4391 3500 
L 4966 3500 
L 4050 0 
L 3372 0 
L 2619 2869 
L 1863 0 
L 1184 0 
L 269 3500 
z
" transform="scale(0.015625)"/>
       <path id="DejaVuSans-20" transform="scale(0.015625)"/>
       <path id="DejaVuSans-69" d="M 603 3500 
L 1178 3500 
L 1178 0 
L 603 0 
L 603 3500 
z
M 603 4863 
L 1178 4863 
L 1178 4134 
L 603 4134 
L 603 4863 
z
" transform="scale(0.015625)"/>
       <path id="DejaVuSans-6e" d="M 3513 2113 
L 3513 0 
L 2938 0 
L 2938 2094 
Q 2938 2591 2744 2837 
Q 2550 3084 2163 3084 
Q 1697 3084 1428 2787 
Q 1159 2491 1159 1978 
L 1159 0 
L 581 0 
L 581 3500 
L 1159 3500 
L 1159 2956 
Q 1366 3272 1645 3428 
Q 1925 3584 2291 3584 
Q 2894 3584 3203 3211 
Q 3513 2838 3513 2113 
z
" transform="scale(0.015625)"/>
       <path id="DejaVuSans-64" d="M 2906 2969 
L 2906 4863 
L 3481 4863 
L 3481 0 
L 2906 0 
L 2906 525 
Q 2725 213 2448 61 
Q 2172 -91 1784 -91 
Q 1150 -91 751 415 
Q 353 922 353 1747 
Q 353 2572 751 3078 
Q 1150 3584 1784 3584 
Q 2172 3584 2448 3432 
Q 2725 3281 2906 2969 
z
M 947 1747 
Q 947 1113 1208 752 
Q 1469 391 1925 391 
Q 2381 391 2643 752 
Q 2906 1113 2906 1747 
Q 2906 2381 2643 2742 
Q 2381 3103 1925 3103 
Q 1469 3103 1208 2742 
Q 947 2381 947 1747 
z
" transform="scale(0.015625)"/>
      </defs>
      <use xlink:href="#DejaVuSans-53"/>
      <use xlink:href="#DejaVuSans-6c" x="63.476562"/>
      <use xlink:href="#DejaVuSans-6f" x="91.259766"/>
      <use xlink:href="#DejaVuSans-77" x="152.441406"/>
      <use xlink:href="#DejaVuSans-20" x="234.228516"/>
      <use xlink:href="#DejaVuSans-77" x="266.015625"/>
      <use xlink:href="#DejaVuSans-69" x="347.802734"/>
      <use xlink:href="#DejaVuSans-6e" x="375.585938"/>
      <use xlink:href="#DejaVuSans-64" x="438.964844"/>
     </g>
    </g>
    <g id="line2d_6">
     <path d="M 333.95625 227.544312 
L 343.95625 227.544312 
L 353.95625 227.544312 
" style="fill: none; stroke-dasharray: 9.25,4; stroke-dashoffset: 0; stroke: #8b0000; stroke-width: 2.5"/>
    </g>
    <g id="text_3">
     <!-- Fast wind -->
     <g transform="translate(361.95625 231.044312) scale(0.1 -0.1)">
      <defs>
       <path id="DejaVuSans-46" d="M 628 4666 
L 3309 4666 
L 3309 4134 
L 1259 4134 
L 1259 2759 
L 3109 2759 
L 3109 2228 
L 1259 2228 
L 1259 0 
L 628 0 
L 628 4666 
z
" transform="scale(0.015625)"/>
       <path id="DejaVuSans-61" d="M 2194 1759 
Q 1497 1759 1228 1600 
Q 959 1441 959 1056 
Q 959 750 1161 570 
Q 1363 391 1709 391 
Q 2188 391 2477 730 
Q 2766 1069 2766 1631 
L 2766 1759 
L 2194 1759 
z
M 3341 1997 
L 3341 0 
L 2766 0 
L 2766 531 
Q 2569 213 2275 61 
Q 1981 -91 1556 -91 
Q 1019 -91 701 211 
Q 384 513 384 1019 
Q 384 1609 779 1909 
Q 1175 2209 1959 2209 
L 2766 2209 
L 2766 2266 
Q 2766 2663 2505 2880 
Q 2244 3097 1772 3097 
Q 1472 3097 1187 3025 
Q 903 2953 641 2809 
L 641 3341 
Q 956 3463 1253 3523 
Q 1550 3584 1831 3584 
Q 2591 3584 2966 3190 
Q 3341 2797 3341 1997 
z
" transform="scale(0.015625)"/>
       <path id="DejaVuSans-73" d="M 2834 3397 
L 2834 2853 
Q 2591 2978 2328 3040 
Q 2066 3103 1784 3103 
Q 1356 3103 1142 2972 
Q 928 2841 928 2578 
Q 928 2378 1081 2264 
Q 1234 2150 1697 2047 
L 1894 2003 
Q 2506 1872 2764 1633 
Q 3022 1394 3022 966 
Q 3022 478 2636 193 
Q 2250 -91 1575 -91 
Q 1294 -91 989 -36 
Q 684 19 347 128 
L 347 722 
Q 666 556 975 473 
Q 1284 391 1588 391 
Q 1994 391 2212 530 
Q 2431 669 2431 922 
Q 2431 1156 2273 1281 
Q 2116 1406 1581 1522 
L 1381 1569 
Q 847 1681 609 1914 
Q 372 2147 372 2553 
Q 372 3047 722 3315 
Q 1072 3584 1716 3584 
Q 2034 3584 2315 3537 
Q 2597 3491 2834 3397 
z
" transform="scale(0.015625)"/>
       <path id="DejaVuSans-74" d="M 1172 4494 
L 1172 3500 
L 2356 3500 
L 2356 3053 
L 1172 3053 
L 1172 1153 
Q 1172 725 1289 603 
Q 1406 481 1766 481 
L 2356 481 
L 2356 0 
L 1766 0 
Q 1100 0 847 248 
Q 594 497 594 1153 
L 594 3053 
L 172 3053 
L 172 3500 
L 594 3500 
L 594 4494 
L 1172 4494 
z
" transform="scale(0.015625)"/>
      </defs>
      <use xlink:href="#DejaVuSans-46"/>
      <use xlink:href="#DejaVuSans-61" x="48.394531"/>
      <use xlink:href="#DejaVuSans-73" x="109.673828"/>
      <use xlink:href="#DejaVuSans-74" x="161.773438"/>
      <use xlink:href="#DejaVuSans-20" x="200.982422"/>
      <use xlink:href="#DejaVuSans-77" x="232.769531"/>
      <use xlink:href="#DejaVuSans-69" x="314.556641"/>
      <use xlink:href="#DejaVuSans-6e" x="342.339844"/>
      <use xlink:href="#DejaVuSans-64" x="405.71875"/>
     </g>
    </g>
   </g>
   <g id="matplotlib.axis_1">
    <g id="xtick_1">
     <g id="line2d_7">
      <defs>
       <path id="ma45bb7783a" d="M 0 0 
L 0 -3.5 
" style="stroke: #000000; stroke-width: 1.5"/>
      </defs>
      <g>
       <use xlink:href="#ma45bb7783a" x="63.393016" y="242.124" style="stroke: #000000; stroke-width: 1.5"/>
      </g>
     </g>
     <g id="line2d_8">
      <defs>
       <path id="ma235953ed2" d="M 0 0 
L 0 3.5 
" style="stroke: #000000; stroke-width: 1.5"/>
      </defs>
      <g>
       <use xlink:href="#ma235953ed2" x="63.393016" y="10.8" style="stroke: #000000; stroke-width: 1.5"/>
      </g>
     </g>
     <g id="text_4">
      <!-- 0 -->
      <g transform="translate(59.575516 254.742125) scale(0.12 -0.12)">
       <defs>
        <path id="DejaVuSans-30" d="M 2034 4250 
Q 1547 4250 1301 3770 
Q 1056 3291 1056 2328 
Q 1056 1369 1301 889 
Q 1547 409 2034 409 
Q 2525 409 2770 889 
Q 3016 1369 3016 2328 
Q 3016 3291 2770 3770 
Q 2525 4250 2034 4250 
z
M 2034 4750 
Q 2819 4750 3233 4129 
Q 3647 3509 3647 2328 
Q 3647 1150 3233 529 
Q 2819 -91 2034 -91 
Q 1250 -91 836 529 
Q 422 1150 422 2328 
Q 422 3509 836 4129 
Q 1250 4750 2034 4750 
z
" transform="scale(0.015625)"/>
       </defs>
       <use xlink:href="#DejaVuSans-30"/>
      </g>
     </g>
    </g>
    <g id="xtick_2">
     <g id="line2d_9">
      <g>
       <use xlink:href="#ma45bb7783a" x="106.088848" y="242.124" style="stroke: #000000; stroke-width: 1.5"/>
      </g>
     </g>
     <g id="line2d_10">
      <g>
       <use xlink:href="#ma235953ed2" x="106.088848" y="10.8" style="stroke: #000000; stroke-width: 1.5"/>
      </g>
     </g>
     <g id="text_5">
      <!-- 5 -->
      <g transform="translate(102.271348 254.742125) scale(0.12 -0.12)">
       <defs>
        <path id="DejaVuSans-35" d="M 691 4666 
L 3169 4666 
L 3169 4134 
L 1269 4134 
L 1269 2991 
Q 1406 3038 1543 3061 
Q 1681 3084 1819 3084 
Q 2600 3084 3056 2656 
Q 3513 2228 3513 1497 
Q 3513 744 3044 326 
Q 2575 -91 1722 -91 
Q 1428 -91 1123 -41 
Q 819 9 494 109 
L 494 744 
Q 775 591 1075 516 
Q 1375 441 1709 441 
Q 2250 441 2565 725 
Q 2881 1009 2881 1497 
Q 2881 1984 2565 2268 
Q 2250 2553 1709 2553 
Q 1456 2553 1204 2497 
Q 953 2441 691 2322 
L 691 4666 
z
" transform="scale(0.015625)"/>
       </defs>
       <use xlink:href="#DejaVuSans-35"/>
      </g>
     </g>
    </g>
    <g id="xtick_3">
     <g id="line2d_11">
      <g>
       <use xlink:href="#ma45bb7783a" x="148.78468" y="242.124" style="stroke: #000000; stroke-width: 1.5"/>
      </g>
     </g>
     <g id="line2d_12">
      <g>
       <use xlink:href="#ma235953ed2" x="148.78468" y="10.8" style="stroke: #000000; stroke-width: 1.5"/>
      </g>
     </g>
     <g id="text_6">
      <!-- 10 -->
      <g transform="translate(141.14968 254.742125) scale(0.12 -0.12)">
       <defs>
        <path id="DejaVuSans-31" d="M 794 531 
L 1825 531 
L 1825 4091 
L 703 3866 
L 703 4441 
L 1819 4666 
L 2450 4666 
L 2450 531 
L 3481 531 
L 3481 0 
L 794 0 
L 794 531 
z
" transform="scale(0.015625)"/>
       </defs>
       <use xlink:href="#DejaVuSans-31"/>
       <use xlink:href="#DejaVuSans-30" x="63.623047"/>
      </g>
     </g>
    </g>
    <g id="xtick_4">
     <g id="line2d_13">
      <g>
       <use xlink:href="#ma45bb7783a" x="191.480512" y="242.124" style="stroke: #000000; stroke-width: 1.5"/>
      </g>
     </g>
     <g id="line2d_14">
      <g>
       <use xlink:href="#ma235953ed2" x="191.480512" y="10.8" style="stroke: #000000; stroke-width: 1.5"/>
      </g>
     </g>
     <g id="text_7">
      <!-- 15 -->
      <g transform="translate(183.845512 254.742125) scale(0.12 -0.12)">
       <use xlink:href="#DejaVuSans-31"/>
       <use xlink:href="#DejaVuSans-35" x="63.623047"/>
      </g>
     </g>
    </g>
    <g id="xtick_5">
     <g id="line2d_15">
      <g>
       <use xlink:href="#ma45bb7783a" x="234.176343" y="242.124" style="stroke: #000000; stroke-width: 1.5"/>
      </g>
     </g>
     <g id="line2d_16">
      <g>
       <use xlink:href="#ma235953ed2" x="234.176343" y="10.8" style="stroke: #000000; stroke-width: 1.5"/>
      </g>
     </g>
     <g id="text_8">
      <!-- 20 -->
      <g transform="translate(226.541343 254.742125) scale(0.12 -0.12)">
       <defs>
        <path id="DejaVuSans-32" d="M 1228 531 
L 3431 531 
L 3431 0 
L 469 0 
L 469 531 
Q 828 903 1448 1529 
Q 2069 2156 2228 2338 
Q 2531 2678 2651 2914 
Q 2772 3150 2772 3378 
Q 2772 3750 2511 3984 
Q 2250 4219 1831 4219 
Q 1534 4219 1204 4116 
Q 875 4013 500 3803 
L 500 4441 
Q 881 4594 1212 4672 
Q 1544 4750 1819 4750 
Q 2544 4750 2975 4387 
Q 3406 4025 3406 3419 
Q 3406 3131 3298 2873 
Q 3191 2616 2906 2266 
Q 2828 2175 2409 1742 
Q 1991 1309 1228 531 
z
" transform="scale(0.015625)"/>
       </defs>
       <use xlink:href="#DejaVuSans-32"/>
       <use xlink:href="#DejaVuSans-30" x="63.623047"/>
      </g>
     </g>
    </g>
    <g id="xtick_6">
     <g id="line2d_17">
      <g>
       <use xlink:href="#ma45bb7783a" x="276.872175" y="242.124" style="stroke: #000000; stroke-width: 1.5"/>
      </g>
     </g>
     <g id="line2d_18">
      <g>
       <use xlink:href="#ma235953ed2" x="276.872175" y="10.8" style="stroke: #000000; stroke-width: 1.5"/>
      </g>
     </g>
     <g id="text_9">
      <!-- 25 -->
      <g transform="translate(269.237175 254.742125) scale(0.12 -0.12)">
       <use xlink:href="#DejaVuSans-32"/>
       <use xlink:href="#DejaVuSans-35" x="63.623047"/>
      </g>
     </g>
    </g>
    <g id="xtick_7">
     <g id="line2d_19">
      <g>
       <use xlink:href="#ma45bb7783a" x="319.568007" y="242.124" style="stroke: #000000; stroke-width: 1.5"/>
      </g>
     </g>
     <g id="line2d_20">
      <g>
       <use xlink:href="#ma235953ed2" x="319.568007" y="10.8" style="stroke: #000000; stroke-width: 1.5"/>
      </g>
     </g>
     <g id="text_10">
      <!-- 30 -->
      <g transform="translate(311.933007 254.742125) scale(0.12 -0.12)">
       <defs>
        <path id="DejaVuSans-33" d="M 2597 2516 
Q 3050 2419 3304 2112 
Q 3559 1806 3559 1356 
Q 3559 666 3084 287 
Q 2609 -91 1734 -91 
Q 1441 -91 1130 -33 
Q 819 25 488 141 
L 488 750 
Q 750 597 1062 519 
Q 1375 441 1716 441 
Q 2309 441 2620 675 
Q 2931 909 2931 1356 
Q 2931 1769 2642 2001 
Q 2353 2234 1838 2234 
L 1294 2234 
L 1294 2753 
L 1863 2753 
Q 2328 2753 2575 2939 
Q 2822 3125 2822 3475 
Q 2822 3834 2567 4026 
Q 2313 4219 1838 4219 
Q 1578 4219 1281 4162 
Q 984 4106 628 3988 
L 628 4550 
Q 988 4650 1302 4700 
Q 1616 4750 1894 4750 
Q 2613 4750 3031 4423 
Q 3450 4097 3450 3541 
Q 3450 3153 3228 2886 
Q 3006 2619 2597 2516 
z
" transform="scale(0.015625)"/>
       </defs>
       <use xlink:href="#DejaVuSans-33"/>
       <use xlink:href="#DejaVuSans-30" x="63.623047"/>
      </g>
     </g>
    </g>
    <g id="xtick_8">
     <g id="line2d_21">
      <g>
       <use xlink:href="#ma45bb7783a" x="362.263839" y="242.124" style="stroke: #000000; stroke-width: 1.5"/>
      </g>
     </g>
     <g id="line2d_22">
      <g>
       <use xlink:href="#ma235953ed2" x="362.263839" y="10.8" style="stroke: #000000; stroke-width: 1.5"/>
      </g>
     </g>
     <g id="text_11">
      <!-- 35 -->
      <g transform="translate(354.628839 254.742125) scale(0.12 -0.12)">
       <use xlink:href="#DejaVuSans-33"/>
       <use xlink:href="#DejaVuSans-35" x="63.623047"/>
      </g>
     </g>
    </g>
    <g id="xtick_9">
     <g id="line2d_23">
      <g>
       <use xlink:href="#ma45bb7783a" x="404.95967" y="242.124" style="stroke: #000000; stroke-width: 1.5"/>
      </g>
     </g>
     <g id="line2d_24">
      <g>
       <use xlink:href="#ma235953ed2" x="404.95967" y="10.8" style="stroke: #000000; stroke-width: 1.5"/>
      </g>
     </g>
     <g id="text_12">
      <!-- 40 -->
      <g transform="translate(397.32467 254.742125) scale(0.12 -0.12)">
       <defs>
        <path id="DejaVuSans-34" d="M 2419 4116 
L 825 1625 
L 2419 1625 
L 2419 4116 
z
M 2253 4666 
L 3047 4666 
L 3047 1625 
L 3713 1625 
L 3713 1100 
L 3047 1100 
L 3047 0 
L 2419 0 
L 2419 1100 
L 313 1100 
L 313 1709 
L 2253 4666 
z
" transform="scale(0.015625)"/>
       </defs>
       <use xlink:href="#DejaVuSans-34"/>
       <use xlink:href="#DejaVuSans-30" x="63.623047"/>
      </g>
     </g>
    </g>
    <g id="xtick_10">
     <g id="line2d_25">
      <defs>
       <path id="m64f2ecdd6f" d="M 0 0 
L 0 -2 
" style="stroke: #000000; stroke-width: 1.5"/>
      </defs>
      <g>
       <use xlink:href="#m64f2ecdd6f" x="71.932183" y="242.124" style="stroke: #000000; stroke-width: 1.5"/>
      </g>
     </g>
     <g id="line2d_26">
      <defs>
       <path id="m7d4ca32c07" d="M 0 0 
L 0 2 
" style="stroke: #000000; stroke-width: 1.5"/>
      </defs>
      <g>
       <use xlink:href="#m7d4ca32c07" x="71.932183" y="10.8" style="stroke: #000000; stroke-width: 1.5"/>
      </g>
     </g>
    </g>
    <g id="xtick_11">
     <g id="line2d_27">
      <g>
       <use xlink:href="#m64f2ecdd6f" x="80.471349" y="242.124" style="stroke: #000000; stroke-width: 1.5"/>
      </g>
     </g>
     <g id="line2d_28">
      <g>
       <use xlink:href="#m7d4ca32c07" x="80.471349" y="10.8" style="stroke: #000000; stroke-width: 1.5"/>
      </g>
     </g>
    </g>
    <g id="xtick_12">
     <g id="line2d_29">
      <g>
       <use xlink:href="#m64f2ecdd6f" x="89.010515" y="242.124" style="stroke: #000000; stroke-width: 1.5"/>
      </g>
     </g>
     <g id="line2d_30">
      <g>
       <use xlink:href="#m7d4ca32c07" x="89.010515" y="10.8" style="stroke: #000000; stroke-width: 1.5"/>
      </g>
     </g>
    </g>
    <g id="xtick_13">
     <g id="line2d_31">
      <g>
       <use xlink:href="#m64f2ecdd6f" x="97.549682" y="242.124" style="stroke: #000000; stroke-width: 1.5"/>
      </g>
     </g>
     <g id="line2d_32">
      <g>
       <use xlink:href="#m7d4ca32c07" x="97.549682" y="10.8" style="stroke: #000000; stroke-width: 1.5"/>
      </g>
     </g>
    </g>
    <g id="xtick_14">
     <g id="line2d_33">
      <g>
       <use xlink:href="#m64f2ecdd6f" x="114.628014" y="242.124" style="stroke: #000000; stroke-width: 1.5"/>
      </g>
     </g>
     <g id="line2d_34">
      <g>
       <use xlink:href="#m7d4ca32c07" x="114.628014" y="10.8" style="stroke: #000000; stroke-width: 1.5"/>
      </g>
     </g>
    </g>
    <g id="xtick_15">
     <g id="line2d_35">
      <g>
       <use xlink:href="#m64f2ecdd6f" x="123.167181" y="242.124" style="stroke: #000000; stroke-width: 1.5"/>
      </g>
     </g>
     <g id="line2d_36">
      <g>
       <use xlink:href="#m7d4ca32c07" x="123.167181" y="10.8" style="stroke: #000000; stroke-width: 1.5"/>
      </g>
     </g>
    </g>
    <g id="xtick_16">
     <g id="line2d_37">
      <g>
       <use xlink:href="#m64f2ecdd6f" x="131.706347" y="242.124" style="stroke: #000000; stroke-width: 1.5"/>
      </g>
     </g>
     <g id="line2d_38">
      <g>
       <use xlink:href="#m7d4ca32c07" x="131.706347" y="10.8" style="stroke: #000000; stroke-width: 1.5"/>
      </g>
     </g>
    </g>
    <g id="xtick_17">
     <g id="line2d_39">
      <g>
       <use xlink:href="#m64f2ecdd6f" x="140.245513" y="242.124" style="stroke: #000000; stroke-width: 1.5"/>
      </g>
     </g>
     <g id="line2d_40">
      <g>
       <use xlink:href="#m7d4ca32c07" x="140.245513" y="10.8" style="stroke: #000000; stroke-width: 1.5"/>
      </g>
     </g>
    </g>
    <g id="xtick_18">
     <g id="line2d_41">
      <g>
       <use xlink:href="#m64f2ecdd6f" x="157.323846" y="242.124" style="stroke: #000000; stroke-width: 1.5"/>
      </g>
     </g>
     <g id="line2d_42">
      <g>
       <use xlink:href="#m7d4ca32c07" x="157.323846" y="10.8" style="stroke: #000000; stroke-width: 1.5"/>
      </g>
     </g>
    </g>
    <g id="xtick_19">
     <g id="line2d_43">
      <g>
       <use xlink:href="#m64f2ecdd6f" x="165.863012" y="242.124" style="stroke: #000000; stroke-width: 1.5"/>
      </g>
     </g>
     <g id="line2d_44">
      <g>
       <use xlink:href="#m7d4ca32c07" x="165.863012" y="10.8" style="stroke: #000000; stroke-width: 1.5"/>
      </g>
     </g>
    </g>
    <g id="xtick_20">
     <g id="line2d_45">
      <g>
       <use xlink:href="#m64f2ecdd6f" x="174.402179" y="242.124" style="stroke: #000000; stroke-width: 1.5"/>
      </g>
     </g>
     <g id="line2d_46">
      <g>
       <use xlink:href="#m7d4ca32c07" x="174.402179" y="10.8" style="stroke: #000000; stroke-width: 1.5"/>
      </g>
     </g>
    </g>
    <g id="xtick_21">
     <g id="line2d_47">
      <g>
       <use xlink:href="#m64f2ecdd6f" x="182.941345" y="242.124" style="stroke: #000000; stroke-width: 1.5"/>
      </g>
     </g>
     <g id="line2d_48">
      <g>
       <use xlink:href="#m7d4ca32c07" x="182.941345" y="10.8" style="stroke: #000000; stroke-width: 1.5"/>
      </g>
     </g>
    </g>
    <g id="xtick_22">
     <g id="line2d_49">
      <g>
       <use xlink:href="#m64f2ecdd6f" x="200.019678" y="242.124" style="stroke: #000000; stroke-width: 1.5"/>
      </g>
     </g>
     <g id="line2d_50">
      <g>
       <use xlink:href="#m7d4ca32c07" x="200.019678" y="10.8" style="stroke: #000000; stroke-width: 1.5"/>
      </g>
     </g>
    </g>
    <g id="xtick_23">
     <g id="line2d_51">
      <g>
       <use xlink:href="#m64f2ecdd6f" x="208.558844" y="242.124" style="stroke: #000000; stroke-width: 1.5"/>
      </g>
     </g>
     <g id="line2d_52">
      <g>
       <use xlink:href="#m7d4ca32c07" x="208.558844" y="10.8" style="stroke: #000000; stroke-width: 1.5"/>
      </g>
     </g>
    </g>
    <g id="xtick_24">
     <g id="line2d_53">
      <g>
       <use xlink:href="#m64f2ecdd6f" x="217.098011" y="242.124" style="stroke: #000000; stroke-width: 1.5"/>
      </g>
     </g>
     <g id="line2d_54">
      <g>
       <use xlink:href="#m7d4ca32c07" x="217.098011" y="10.8" style="stroke: #000000; stroke-width: 1.5"/>
      </g>
     </g>
    </g>
    <g id="xtick_25">
     <g id="line2d_55">
      <g>
       <use xlink:href="#m64f2ecdd6f" x="225.637177" y="242.124" style="stroke: #000000; stroke-width: 1.5"/>
      </g>
     </g>
     <g id="line2d_56">
      <g>
       <use xlink:href="#m7d4ca32c07" x="225.637177" y="10.8" style="stroke: #000000; stroke-width: 1.5"/>
      </g>
     </g>
    </g>
    <g id="xtick_26">
     <g id="line2d_57">
      <g>
       <use xlink:href="#m64f2ecdd6f" x="242.71551" y="242.124" style="stroke: #000000; stroke-width: 1.5"/>
      </g>
     </g>
     <g id="line2d_58">
      <g>
       <use xlink:href="#m7d4ca32c07" x="242.71551" y="10.8" style="stroke: #000000; stroke-width: 1.5"/>
      </g>
     </g>
    </g>
    <g id="xtick_27">
     <g id="line2d_59">
      <g>
       <use xlink:href="#m64f2ecdd6f" x="251.254676" y="242.124" style="stroke: #000000; stroke-width: 1.5"/>
      </g>
     </g>
     <g id="line2d_60">
      <g>
       <use xlink:href="#m7d4ca32c07" x="251.254676" y="10.8" style="stroke: #000000; stroke-width: 1.5"/>
      </g>
     </g>
    </g>
    <g id="xtick_28">
     <g id="line2d_61">
      <g>
       <use xlink:href="#m64f2ecdd6f" x="259.793842" y="242.124" style="stroke: #000000; stroke-width: 1.5"/>
      </g>
     </g>
     <g id="line2d_62">
      <g>
       <use xlink:href="#m7d4ca32c07" x="259.793842" y="10.8" style="stroke: #000000; stroke-width: 1.5"/>
      </g>
     </g>
    </g>
    <g id="xtick_29">
     <g id="line2d_63">
      <g>
       <use xlink:href="#m64f2ecdd6f" x="268.333009" y="242.124" style="stroke: #000000; stroke-width: 1.5"/>
      </g>
     </g>
     <g id="line2d_64">
      <g>
       <use xlink:href="#m7d4ca32c07" x="268.333009" y="10.8" style="stroke: #000000; stroke-width: 1.5"/>
      </g>
     </g>
    </g>
    <g id="xtick_30">
     <g id="line2d_65">
      <g>
       <use xlink:href="#m64f2ecdd6f" x="285.411341" y="242.124" style="stroke: #000000; stroke-width: 1.5"/>
      </g>
     </g>
     <g id="line2d_66">
      <g>
       <use xlink:href="#m7d4ca32c07" x="285.411341" y="10.8" style="stroke: #000000; stroke-width: 1.5"/>
      </g>
     </g>
    </g>
    <g id="xtick_31">
     <g id="line2d_67">
      <g>
       <use xlink:href="#m64f2ecdd6f" x="293.950508" y="242.124" style="stroke: #000000; stroke-width: 1.5"/>
      </g>
     </g>
     <g id="line2d_68">
      <g>
       <use xlink:href="#m7d4ca32c07" x="293.950508" y="10.8" style="stroke: #000000; stroke-width: 1.5"/>
      </g>
     </g>
    </g>
    <g id="xtick_32">
     <g id="line2d_69">
      <g>
       <use xlink:href="#m64f2ecdd6f" x="302.489674" y="242.124" style="stroke: #000000; stroke-width: 1.5"/>
      </g>
     </g>
     <g id="line2d_70">
      <g>
       <use xlink:href="#m7d4ca32c07" x="302.489674" y="10.8" style="stroke: #000000; stroke-width: 1.5"/>
      </g>
     </g>
    </g>
    <g id="xtick_33">
     <g id="line2d_71">
      <g>
       <use xlink:href="#m64f2ecdd6f" x="311.028841" y="242.124" style="stroke: #000000; stroke-width: 1.5"/>
      </g>
     </g>
     <g id="line2d_72">
      <g>
       <use xlink:href="#m7d4ca32c07" x="311.028841" y="10.8" style="stroke: #000000; stroke-width: 1.5"/>
      </g>
     </g>
    </g>
    <g id="xtick_34">
     <g id="line2d_73">
      <g>
       <use xlink:href="#m64f2ecdd6f" x="328.107173" y="242.124" style="stroke: #000000; stroke-width: 1.5"/>
      </g>
     </g>
     <g id="line2d_74">
      <g>
       <use xlink:href="#m7d4ca32c07" x="328.107173" y="10.8" style="stroke: #000000; stroke-width: 1.5"/>
      </g>
     </g>
    </g>
    <g id="xtick_35">
     <g id="line2d_75">
      <g>
       <use xlink:href="#m64f2ecdd6f" x="336.64634" y="242.124" style="stroke: #000000; stroke-width: 1.5"/>
      </g>
     </g>
     <g id="line2d_76">
      <g>
       <use xlink:href="#m7d4ca32c07" x="336.64634" y="10.8" style="stroke: #000000; stroke-width: 1.5"/>
      </g>
     </g>
    </g>
    <g id="xtick_36">
     <g id="line2d_77">
      <g>
       <use xlink:href="#m64f2ecdd6f" x="345.185506" y="242.124" style="stroke: #000000; stroke-width: 1.5"/>
      </g>
     </g>
     <g id="line2d_78">
      <g>
       <use xlink:href="#m7d4ca32c07" x="345.185506" y="10.8" style="stroke: #000000; stroke-width: 1.5"/>
      </g>
     </g>
    </g>
    <g id="xtick_37">
     <g id="line2d_79">
      <g>
       <use xlink:href="#m64f2ecdd6f" x="353.724672" y="242.124" style="stroke: #000000; stroke-width: 1.5"/>
      </g>
     </g>
     <g id="line2d_80">
      <g>
       <use xlink:href="#m7d4ca32c07" x="353.724672" y="10.8" style="stroke: #000000; stroke-width: 1.5"/>
      </g>
     </g>
    </g>
    <g id="xtick_38">
     <g id="line2d_81">
      <g>
       <use xlink:href="#m64f2ecdd6f" x="370.803005" y="242.124" style="stroke: #000000; stroke-width: 1.5"/>
      </g>
     </g>
     <g id="line2d_82">
      <g>
       <use xlink:href="#m7d4ca32c07" x="370.803005" y="10.8" style="stroke: #000000; stroke-width: 1.5"/>
      </g>
     </g>
    </g>
    <g id="xtick_39">
     <g id="line2d_83">
      <g>
       <use xlink:href="#m64f2ecdd6f" x="379.342171" y="242.124" style="stroke: #000000; stroke-width: 1.5"/>
      </g>
     </g>
     <g id="line2d_84">
      <g>
       <use xlink:href="#m7d4ca32c07" x="379.342171" y="10.8" style="stroke: #000000; stroke-width: 1.5"/>
      </g>
     </g>
    </g>
    <g id="xtick_40">
     <g id="line2d_85">
      <g>
       <use xlink:href="#m64f2ecdd6f" x="387.881338" y="242.124" style="stroke: #000000; stroke-width: 1.5"/>
      </g>
     </g>
     <g id="line2d_86">
      <g>
       <use xlink:href="#m7d4ca32c07" x="387.881338" y="10.8" style="stroke: #000000; stroke-width: 1.5"/>
      </g>
     </g>
    </g>
    <g id="xtick_41">
     <g id="line2d_87">
      <g>
       <use xlink:href="#m64f2ecdd6f" x="396.420504" y="242.124" style="stroke: #000000; stroke-width: 1.5"/>
      </g>
     </g>
     <g id="line2d_88">
      <g>
       <use xlink:href="#m7d4ca32c07" x="396.420504" y="10.8" style="stroke: #000000; stroke-width: 1.5"/>
      </g>
     </g>
    </g>
    <g id="xtick_42">
     <g id="line2d_89">
      <g>
       <use xlink:href="#m64f2ecdd6f" x="413.498837" y="242.124" style="stroke: #000000; stroke-width: 1.5"/>
      </g>
     </g>
     <g id="line2d_90">
      <g>
       <use xlink:href="#m7d4ca32c07" x="413.498837" y="10.8" style="stroke: #000000; stroke-width: 1.5"/>
      </g>
     </g>
    </g>
    <g id="text_13">
     <!-- Distance [R$_\odot$] -->
     <g transform="translate(197.211 270.355875) scale(0.12 -0.12)">
      <defs>
       <path id="DejaVuSans-44" d="M 1259 4147 
L 1259 519 
L 2022 519 
Q 2988 519 3436 956 
Q 3884 1394 3884 2338 
Q 3884 3275 3436 3711 
Q 2988 4147 2022 4147 
L 1259 4147 
z
M 628 4666 
L 1925 4666 
Q 3281 4666 3915 4102 
Q 4550 3538 4550 2338 
Q 4550 1131 3912 565 
Q 3275 0 1925 0 
L 628 0 
L 628 4666 
z
" transform="scale(0.015625)"/>
       <path id="DejaVuSans-63" d="M 3122 3366 
L 3122 2828 
Q 2878 2963 2633 3030 
Q 2388 3097 2138 3097 
Q 1578 3097 1268 2742 
Q 959 2388 959 1747 
Q 959 1106 1268 751 
Q 1578 397 2138 397 
Q 2388 397 2633 464 
Q 2878 531 3122 666 
L 3122 134 
Q 2881 22 2623 -34 
Q 2366 -91 2075 -91 
Q 1284 -91 818 406 
Q 353 903 353 1747 
Q 353 2603 823 3093 
Q 1294 3584 2113 3584 
Q 2378 3584 2631 3529 
Q 2884 3475 3122 3366 
z
" transform="scale(0.015625)"/>
       <path id="DejaVuSans-65" d="M 3597 1894 
L 3597 1613 
L 953 1613 
Q 991 1019 1311 708 
Q 1631 397 2203 397 
Q 2534 397 2845 478 
Q 3156 559 3463 722 
L 3463 178 
Q 3153 47 2828 -22 
Q 2503 -91 2169 -91 
Q 1331 -91 842 396 
Q 353 884 353 1716 
Q 353 2575 817 3079 
Q 1281 3584 2069 3584 
Q 2775 3584 3186 3129 
Q 3597 2675 3597 1894 
z
M 3022 2063 
Q 3016 2534 2758 2815 
Q 2500 3097 2075 3097 
Q 1594 3097 1305 2825 
Q 1016 2553 972 2059 
L 3022 2063 
z
" transform="scale(0.015625)"/>
       <path id="DejaVuSans-5b" d="M 550 4863 
L 1875 4863 
L 1875 4416 
L 1125 4416 
L 1125 -397 
L 1875 -397 
L 1875 -844 
L 550 -844 
L 550 4863 
z
" transform="scale(0.015625)"/>
       <path id="DejaVuSans-52" d="M 2841 2188 
Q 3044 2119 3236 1894 
Q 3428 1669 3622 1275 
L 4263 0 
L 3584 0 
L 2988 1197 
Q 2756 1666 2539 1819 
Q 2322 1972 1947 1972 
L 1259 1972 
L 1259 0 
L 628 0 
L 628 4666 
L 2053 4666 
Q 2853 4666 3247 4331 
Q 3641 3997 3641 3322 
Q 3641 2881 3436 2590 
Q 3231 2300 2841 2188 
z
M 1259 4147 
L 1259 2491 
L 2053 2491 
Q 2509 2491 2742 2702 
Q 2975 2913 2975 3322 
Q 2975 3731 2742 3939 
Q 2509 4147 2053 4147 
L 1259 4147 
z
" transform="scale(0.015625)"/>
       <path id="DejaVuSans-2299" d="M 2350 2403 
L 3013 2403 
L 3013 1609 
L 2350 1609 
L 2350 2403 
z
M 3306 3522 
Q 3016 3644 2681 3644 
Q 2347 3644 2056 3522 
Q 1769 3400 1531 3163 
Q 1291 2922 1172 2634 
Q 1053 2347 1053 2006 
Q 1053 1675 1172 1387 
Q 1291 1100 1531 859 
Q 1769 622 2056 500 
Q 2347 378 2681 378 
Q 3016 378 3306 500 
Q 3594 622 3831 859 
Q 4072 1100 4190 1387 
Q 4309 1675 4309 2006 
Q 4309 2347 4190 2634 
Q 4072 2922 3831 3163 
Q 3594 3400 3306 3522 
z
M 1878 3956 
Q 2250 4113 2681 4113 
Q 3113 4113 3484 3956 
Q 3856 3800 4163 3494 
Q 4472 3184 4625 2813 
Q 4778 2444 4778 2006 
Q 4778 1578 4625 1206 
Q 4472 838 4163 528 
Q 3856 222 3484 65 
Q 3113 -91 2681 -91 
Q 2250 -91 1878 65 
Q 1506 222 1200 528 
Q 891 838 738 1206 
Q 584 1578 584 2006 
Q 584 2444 738 2813 
Q 891 3184 1200 3494 
Q 1506 3800 1878 3956 
z
" transform="scale(0.015625)"/>
       <path id="DejaVuSans-5d" d="M 1947 4863 
L 1947 -844 
L 622 -844 
L 622 -397 
L 1369 -397 
L 1369 4416 
L 622 4416 
L 622 4863 
L 1947 4863 
z
" transform="scale(0.015625)"/>
      </defs>
      <use xlink:href="#DejaVuSans-44" transform="translate(0 0.015625)"/>
      <use xlink:href="#DejaVuSans-69" transform="translate(77.001953 0.015625)"/>
      <use xlink:href="#DejaVuSans-73" transform="translate(104.785156 0.015625)"/>
      <use xlink:href="#DejaVuSans-74" transform="translate(156.884766 0.015625)"/>
      <use xlink:href="#DejaVuSans-61" transform="translate(196.09375 0.015625)"/>
      <use xlink:href="#DejaVuSans-6e" transform="translate(257.373047 0.015625)"/>
      <use xlink:href="#DejaVuSans-63" transform="translate(320.751953 0.015625)"/>
      <use xlink:href="#DejaVuSans-65" transform="translate(375.732422 0.015625)"/>
      <use xlink:href="#DejaVuSans-20" transform="translate(437.255859 0.015625)"/>
      <use xlink:href="#DejaVuSans-5b" transform="translate(469.042969 0.015625)"/>
      <use xlink:href="#DejaVuSans-52" transform="translate(504.931641 0.015625)"/>
      <use xlink:href="#DejaVuSans-2299" transform="translate(589.008789 -16.390625) scale(0.7)"/>
      <use xlink:href="#DejaVuSans-5d" transform="translate(664.033203 0.015625)"/>
     </g>
    </g>
   </g>
   <g id="matplotlib.axis_2">
    <g id="ytick_1">
     <g id="line2d_91">
      <defs>
       <path id="m17d37bfb64" d="M 0 0 
L 3.5 0 
" style="stroke: #000000; stroke-width: 1.5"/>
      </defs>
      <g>
       <use xlink:href="#m17d37bfb64" x="57.702" y="230.507919" style="stroke: #000000; stroke-width: 1.5"/>
      </g>
     </g>
     <g id="line2d_92">
      <defs>
       <path id="macc9b40ac2" d="M 0 0 
L -3.5 0 
" style="stroke: #000000; stroke-width: 1.5"/>
      </defs>
      <g>
       <use xlink:href="#macc9b40ac2" x="421.2" y="230.507919" style="stroke: #000000; stroke-width: 1.5"/>
      </g>
     </g>
     <g id="text_14">
      <!-- 0 -->
      <g transform="translate(46.567 235.066981) scale(0.12 -0.12)">
       <use xlink:href="#DejaVuSans-30"/>
      </g>
     </g>
    </g>
    <g id="ytick_2">
     <g id="line2d_93">
      <g>
       <use xlink:href="#m17d37bfb64" x="57.702" y="198.407991" style="stroke: #000000; stroke-width: 1.5"/>
      </g>
     </g>
     <g id="line2d_94">
      <g>
       <use xlink:href="#macc9b40ac2" x="421.2" y="198.407991" style="stroke: #000000; stroke-width: 1.5"/>
      </g>
     </g>
     <g id="text_15">
      <!-- 100 -->
      <g transform="translate(31.297 202.967054) scale(0.12 -0.12)">
       <use xlink:href="#DejaVuSans-31"/>
       <use xlink:href="#DejaVuSans-30" x="63.623047"/>
       <use xlink:href="#DejaVuSans-30" x="127.246094"/>
      </g>
     </g>
    </g>
    <g id="ytick_3">
     <g id="line2d_95">
      <g>
       <use xlink:href="#m17d37bfb64" x="57.702" y="166.308064" style="stroke: #000000; stroke-width: 1.5"/>
      </g>
     </g>
     <g id="line2d_96">
      <g>
       <use xlink:href="#macc9b40ac2" x="421.2" y="166.308064" style="stroke: #000000; stroke-width: 1.5"/>
      </g>
     </g>
     <g id="text_16">
      <!-- 200 -->
      <g transform="translate(31.297 170.867127) scale(0.12 -0.12)">
       <use xlink:href="#DejaVuSans-32"/>
       <use xlink:href="#DejaVuSans-30" x="63.623047"/>
       <use xlink:href="#DejaVuSans-30" x="127.246094"/>
      </g>
     </g>
    </g>
    <g id="ytick_4">
     <g id="line2d_97">
      <g>
       <use xlink:href="#m17d37bfb64" x="57.702" y="134.208137" style="stroke: #000000; stroke-width: 1.5"/>
      </g>
     </g>
     <g id="line2d_98">
      <g>
       <use xlink:href="#macc9b40ac2" x="421.2" y="134.208137" style="stroke: #000000; stroke-width: 1.5"/>
      </g>
     </g>
     <g id="text_17">
      <!-- 300 -->
      <g transform="translate(31.297 138.767199) scale(0.12 -0.12)">
       <use xlink:href="#DejaVuSans-33"/>
       <use xlink:href="#DejaVuSans-30" x="63.623047"/>
       <use xlink:href="#DejaVuSans-30" x="127.246094"/>
      </g>
     </g>
    </g>
    <g id="ytick_5">
     <g id="line2d_99">
      <g>
       <use xlink:href="#m17d37bfb64" x="57.702" y="102.108209" style="stroke: #000000; stroke-width: 1.5"/>
      </g>
     </g>
     <g id="line2d_100">
      <g>
       <use xlink:href="#macc9b40ac2" x="421.2" y="102.108209" style="stroke: #000000; stroke-width: 1.5"/>
      </g>
     </g>
     <g id="text_18">
      <!-- 400 -->
      <g transform="translate(31.297 106.667272) scale(0.12 -0.12)">
       <use xlink:href="#DejaVuSans-34"/>
       <use xlink:href="#DejaVuSans-30" x="63.623047"/>
       <use xlink:href="#DejaVuSans-30" x="127.246094"/>
      </g>
     </g>
    </g>
    <g id="ytick_6">
     <g id="line2d_101">
      <g>
       <use xlink:href="#m17d37bfb64" x="57.702" y="70.008282" style="stroke: #000000; stroke-width: 1.5"/>
      </g>
     </g>
     <g id="line2d_102">
      <g>
       <use xlink:href="#macc9b40ac2" x="421.2" y="70.008282" style="stroke: #000000; stroke-width: 1.5"/>
      </g>
     </g>
     <g id="text_19">
      <!-- 500 -->
      <g transform="translate(31.297 74.567344) scale(0.12 -0.12)">
       <use xlink:href="#DejaVuSans-35"/>
       <use xlink:href="#DejaVuSans-30" x="63.623047"/>
       <use xlink:href="#DejaVuSans-30" x="127.246094"/>
      </g>
     </g>
    </g>
    <g id="ytick_7">
     <g id="line2d_103">
      <g>
       <use xlink:href="#m17d37bfb64" x="57.702" y="37.908354" style="stroke: #000000; stroke-width: 1.5"/>
      </g>
     </g>
     <g id="line2d_104">
      <g>
       <use xlink:href="#macc9b40ac2" x="421.2" y="37.908354" style="stroke: #000000; stroke-width: 1.5"/>
      </g>
     </g>
     <g id="text_20">
      <!-- 600 -->
      <g transform="translate(31.297 42.467417) scale(0.12 -0.12)">
       <defs>
        <path id="DejaVuSans-36" d="M 2113 2584 
Q 1688 2584 1439 2293 
Q 1191 2003 1191 1497 
Q 1191 994 1439 701 
Q 1688 409 2113 409 
Q 2538 409 2786 701 
Q 3034 994 3034 1497 
Q 3034 2003 2786 2293 
Q 2538 2584 2113 2584 
z
M 3366 4563 
L 3366 3988 
Q 3128 4100 2886 4159 
Q 2644 4219 2406 4219 
Q 1781 4219 1451 3797 
Q 1122 3375 1075 2522 
Q 1259 2794 1537 2939 
Q 1816 3084 2150 3084 
Q 2853 3084 3261 2657 
Q 3669 2231 3669 1497 
Q 3669 778 3244 343 
Q 2819 -91 2113 -91 
Q 1303 -91 875 529 
Q 447 1150 447 2328 
Q 447 3434 972 4092 
Q 1497 4750 2381 4750 
Q 2619 4750 2861 4703 
Q 3103 4656 3366 4563 
z
" transform="scale(0.015625)"/>
       </defs>
       <use xlink:href="#DejaVuSans-36"/>
       <use xlink:href="#DejaVuSans-30" x="63.623047"/>
       <use xlink:href="#DejaVuSans-30" x="127.246094"/>
      </g>
     </g>
    </g>
    <g id="ytick_8">
     <g id="line2d_105">
      <defs>
       <path id="m2e4a8b8aae" d="M 0 0 
L 2 0 
" style="stroke: #000000; stroke-width: 1.5"/>
      </defs>
      <g>
       <use xlink:href="#m2e4a8b8aae" x="57.702" y="236.927904" style="stroke: #000000; stroke-width: 1.5"/>
      </g>
     </g>
     <g id="line2d_106">
      <defs>
       <path id="m7f6ac14d7e" d="M 0 0 
L -2 0 
" style="stroke: #000000; stroke-width: 1.5"/>
      </defs>
      <g>
       <use xlink:href="#m7f6ac14d7e" x="421.2" y="236.927904" style="stroke: #000000; stroke-width: 1.5"/>
      </g>
     </g>
    </g>
    <g id="ytick_9">
     <g id="line2d_107">
      <g>
       <use xlink:href="#m2e4a8b8aae" x="57.702" y="224.087933" style="stroke: #000000; stroke-width: 1.5"/>
      </g>
     </g>
     <g id="line2d_108">
      <g>
       <use xlink:href="#m7f6ac14d7e" x="421.2" y="224.087933" style="stroke: #000000; stroke-width: 1.5"/>
      </g>
     </g>
    </g>
    <g id="ytick_10">
     <g id="line2d_109">
      <g>
       <use xlink:href="#m2e4a8b8aae" x="57.702" y="217.667948" style="stroke: #000000; stroke-width: 1.5"/>
      </g>
     </g>
     <g id="line2d_110">
      <g>
       <use xlink:href="#m7f6ac14d7e" x="421.2" y="217.667948" style="stroke: #000000; stroke-width: 1.5"/>
      </g>
     </g>
    </g>
    <g id="ytick_11">
     <g id="line2d_111">
      <g>
       <use xlink:href="#m2e4a8b8aae" x="57.702" y="211.247962" style="stroke: #000000; stroke-width: 1.5"/>
      </g>
     </g>
     <g id="line2d_112">
      <g>
       <use xlink:href="#m7f6ac14d7e" x="421.2" y="211.247962" style="stroke: #000000; stroke-width: 1.5"/>
      </g>
     </g>
    </g>
    <g id="ytick_12">
     <g id="line2d_113">
      <g>
       <use xlink:href="#m2e4a8b8aae" x="57.702" y="204.827977" style="stroke: #000000; stroke-width: 1.5"/>
      </g>
     </g>
     <g id="line2d_114">
      <g>
       <use xlink:href="#m7f6ac14d7e" x="421.2" y="204.827977" style="stroke: #000000; stroke-width: 1.5"/>
      </g>
     </g>
    </g>
    <g id="ytick_13">
     <g id="line2d_115">
      <g>
       <use xlink:href="#m2e4a8b8aae" x="57.702" y="191.988006" style="stroke: #000000; stroke-width: 1.5"/>
      </g>
     </g>
     <g id="line2d_116">
      <g>
       <use xlink:href="#m7f6ac14d7e" x="421.2" y="191.988006" style="stroke: #000000; stroke-width: 1.5"/>
      </g>
     </g>
    </g>
    <g id="ytick_14">
     <g id="line2d_117">
      <g>
       <use xlink:href="#m2e4a8b8aae" x="57.702" y="185.568021" style="stroke: #000000; stroke-width: 1.5"/>
      </g>
     </g>
     <g id="line2d_118">
      <g>
       <use xlink:href="#m7f6ac14d7e" x="421.2" y="185.568021" style="stroke: #000000; stroke-width: 1.5"/>
      </g>
     </g>
    </g>
    <g id="ytick_15">
     <g id="line2d_119">
      <g>
       <use xlink:href="#m2e4a8b8aae" x="57.702" y="179.148035" style="stroke: #000000; stroke-width: 1.5"/>
      </g>
     </g>
     <g id="line2d_120">
      <g>
       <use xlink:href="#m7f6ac14d7e" x="421.2" y="179.148035" style="stroke: #000000; stroke-width: 1.5"/>
      </g>
     </g>
    </g>
    <g id="ytick_16">
     <g id="line2d_121">
      <g>
       <use xlink:href="#m2e4a8b8aae" x="57.702" y="172.72805" style="stroke: #000000; stroke-width: 1.5"/>
      </g>
     </g>
     <g id="line2d_122">
      <g>
       <use xlink:href="#m7f6ac14d7e" x="421.2" y="172.72805" style="stroke: #000000; stroke-width: 1.5"/>
      </g>
     </g>
    </g>
    <g id="ytick_17">
     <g id="line2d_123">
      <g>
       <use xlink:href="#m2e4a8b8aae" x="57.702" y="159.888079" style="stroke: #000000; stroke-width: 1.5"/>
      </g>
     </g>
     <g id="line2d_124">
      <g>
       <use xlink:href="#m7f6ac14d7e" x="421.2" y="159.888079" style="stroke: #000000; stroke-width: 1.5"/>
      </g>
     </g>
    </g>
    <g id="ytick_18">
     <g id="line2d_125">
      <g>
       <use xlink:href="#m2e4a8b8aae" x="57.702" y="153.468093" style="stroke: #000000; stroke-width: 1.5"/>
      </g>
     </g>
     <g id="line2d_126">
      <g>
       <use xlink:href="#m7f6ac14d7e" x="421.2" y="153.468093" style="stroke: #000000; stroke-width: 1.5"/>
      </g>
     </g>
    </g>
    <g id="ytick_19">
     <g id="line2d_127">
      <g>
       <use xlink:href="#m2e4a8b8aae" x="57.702" y="147.048108" style="stroke: #000000; stroke-width: 1.5"/>
      </g>
     </g>
     <g id="line2d_128">
      <g>
       <use xlink:href="#m7f6ac14d7e" x="421.2" y="147.048108" style="stroke: #000000; stroke-width: 1.5"/>
      </g>
     </g>
    </g>
    <g id="ytick_20">
     <g id="line2d_129">
      <g>
       <use xlink:href="#m2e4a8b8aae" x="57.702" y="140.628122" style="stroke: #000000; stroke-width: 1.5"/>
      </g>
     </g>
     <g id="line2d_130">
      <g>
       <use xlink:href="#m7f6ac14d7e" x="421.2" y="140.628122" style="stroke: #000000; stroke-width: 1.5"/>
      </g>
     </g>
    </g>
    <g id="ytick_21">
     <g id="line2d_131">
      <g>
       <use xlink:href="#m2e4a8b8aae" x="57.702" y="127.788151" style="stroke: #000000; stroke-width: 1.5"/>
      </g>
     </g>
     <g id="line2d_132">
      <g>
       <use xlink:href="#m7f6ac14d7e" x="421.2" y="127.788151" style="stroke: #000000; stroke-width: 1.5"/>
      </g>
     </g>
    </g>
    <g id="ytick_22">
     <g id="line2d_133">
      <g>
       <use xlink:href="#m2e4a8b8aae" x="57.702" y="121.368166" style="stroke: #000000; stroke-width: 1.5"/>
      </g>
     </g>
     <g id="line2d_134">
      <g>
       <use xlink:href="#m7f6ac14d7e" x="421.2" y="121.368166" style="stroke: #000000; stroke-width: 1.5"/>
      </g>
     </g>
    </g>
    <g id="ytick_23">
     <g id="line2d_135">
      <g>
       <use xlink:href="#m2e4a8b8aae" x="57.702" y="114.94818" style="stroke: #000000; stroke-width: 1.5"/>
      </g>
     </g>
     <g id="line2d_136">
      <g>
       <use xlink:href="#m7f6ac14d7e" x="421.2" y="114.94818" style="stroke: #000000; stroke-width: 1.5"/>
      </g>
     </g>
    </g>
    <g id="ytick_24">
     <g id="line2d_137">
      <g>
       <use xlink:href="#m2e4a8b8aae" x="57.702" y="108.528195" style="stroke: #000000; stroke-width: 1.5"/>
      </g>
     </g>
     <g id="line2d_138">
      <g>
       <use xlink:href="#m7f6ac14d7e" x="421.2" y="108.528195" style="stroke: #000000; stroke-width: 1.5"/>
      </g>
     </g>
    </g>
    <g id="ytick_25">
     <g id="line2d_139">
      <g>
       <use xlink:href="#m2e4a8b8aae" x="57.702" y="95.688224" style="stroke: #000000; stroke-width: 1.5"/>
      </g>
     </g>
     <g id="line2d_140">
      <g>
       <use xlink:href="#m7f6ac14d7e" x="421.2" y="95.688224" style="stroke: #000000; stroke-width: 1.5"/>
      </g>
     </g>
    </g>
    <g id="ytick_26">
     <g id="line2d_141">
      <g>
       <use xlink:href="#m2e4a8b8aae" x="57.702" y="89.268238" style="stroke: #000000; stroke-width: 1.5"/>
      </g>
     </g>
     <g id="line2d_142">
      <g>
       <use xlink:href="#m7f6ac14d7e" x="421.2" y="89.268238" style="stroke: #000000; stroke-width: 1.5"/>
      </g>
     </g>
    </g>
    <g id="ytick_27">
     <g id="line2d_143">
      <g>
       <use xlink:href="#m2e4a8b8aae" x="57.702" y="82.848253" style="stroke: #000000; stroke-width: 1.5"/>
      </g>
     </g>
     <g id="line2d_144">
      <g>
       <use xlink:href="#m7f6ac14d7e" x="421.2" y="82.848253" style="stroke: #000000; stroke-width: 1.5"/>
      </g>
     </g>
    </g>
    <g id="ytick_28">
     <g id="line2d_145">
      <g>
       <use xlink:href="#m2e4a8b8aae" x="57.702" y="76.428267" style="stroke: #000000; stroke-width: 1.5"/>
      </g>
     </g>
     <g id="line2d_146">
      <g>
       <use xlink:href="#m7f6ac14d7e" x="421.2" y="76.428267" style="stroke: #000000; stroke-width: 1.5"/>
      </g>
     </g>
    </g>
    <g id="ytick_29">
     <g id="line2d_147">
      <g>
       <use xlink:href="#m2e4a8b8aae" x="57.702" y="63.588296" style="stroke: #000000; stroke-width: 1.5"/>
      </g>
     </g>
     <g id="line2d_148">
      <g>
       <use xlink:href="#m7f6ac14d7e" x="421.2" y="63.588296" style="stroke: #000000; stroke-width: 1.5"/>
      </g>
     </g>
    </g>
    <g id="ytick_30">
     <g id="line2d_149">
      <g>
       <use xlink:href="#m2e4a8b8aae" x="57.702" y="57.168311" style="stroke: #000000; stroke-width: 1.5"/>
      </g>
     </g>
     <g id="line2d_150">
      <g>
       <use xlink:href="#m7f6ac14d7e" x="421.2" y="57.168311" style="stroke: #000000; stroke-width: 1.5"/>
      </g>
     </g>
    </g>
    <g id="ytick_31">
     <g id="line2d_151">
      <g>
       <use xlink:href="#m2e4a8b8aae" x="57.702" y="50.748325" style="stroke: #000000; stroke-width: 1.5"/>
      </g>
     </g>
     <g id="line2d_152">
      <g>
       <use xlink:href="#m7f6ac14d7e" x="421.2" y="50.748325" style="stroke: #000000; stroke-width: 1.5"/>
      </g>
     </g>
    </g>
    <g id="ytick_32">
     <g id="line2d_153">
      <g>
       <use xlink:href="#m2e4a8b8aae" x="57.702" y="44.32834" style="stroke: #000000; stroke-width: 1.5"/>
      </g>
     </g>
     <g id="line2d_154">
      <g>
       <use xlink:href="#m7f6ac14d7e" x="421.2" y="44.32834" style="stroke: #000000; stroke-width: 1.5"/>
      </g>
     </g>
    </g>
    <g id="ytick_33">
     <g id="line2d_155">
      <g>
       <use xlink:href="#m2e4a8b8aae" x="57.702" y="31.488369" style="stroke: #000000; stroke-width: 1.5"/>
      </g>
     </g>
     <g id="line2d_156">
      <g>
       <use xlink:href="#m7f6ac14d7e" x="421.2" y="31.488369" style="stroke: #000000; stroke-width: 1.5"/>
      </g>
     </g>
    </g>
    <g id="ytick_34">
     <g id="line2d_157">
      <g>
       <use xlink:href="#m2e4a8b8aae" x="57.702" y="25.068383" style="stroke: #000000; stroke-width: 1.5"/>
      </g>
     </g>
     <g id="line2d_158">
      <g>
       <use xlink:href="#m7f6ac14d7e" x="421.2" y="25.068383" style="stroke: #000000; stroke-width: 1.5"/>
      </g>
     </g>
    </g>
    <g id="ytick_35">
     <g id="line2d_159">
      <g>
       <use xlink:href="#m2e4a8b8aae" x="57.702" y="18.648398" style="stroke: #000000; stroke-width: 1.5"/>
      </g>
     </g>
     <g id="line2d_160">
      <g>
       <use xlink:href="#m7f6ac14d7e" x="421.2" y="18.648398" style="stroke: #000000; stroke-width: 1.5"/>
      </g>
     </g>
    </g>
    <g id="ytick_36">
     <g id="line2d_161">
      <g>
       <use xlink:href="#m2e4a8b8aae" x="57.702" y="12.228412" style="stroke: #000000; stroke-width: 1.5"/>
      </g>
     </g>
     <g id="line2d_162">
      <g>
       <use xlink:href="#m7f6ac14d7e" x="421.2" y="12.228412" style="stroke: #000000; stroke-width: 1.5"/>
      </g>
     </g>
    </g>
    <g id="text_21">
     <!-- $v_r$ [km s$^{-1}$] -->
     <g transform="translate(24.801375 159.282) rotate(-90) scale(0.12 -0.12)">
      <defs>
       <path id="DejaVuSans-Oblique-76" d="M 459 3500 
L 1069 3500 
L 1581 525 
L 3256 3500 
L 3866 3500 
L 1875 0 
L 1100 0 
L 459 3500 
z
" transform="scale(0.015625)"/>
       <path id="DejaVuSans-Oblique-72" d="M 2853 2969 
Q 2766 3016 2653 3041 
Q 2541 3066 2413 3066 
Q 1953 3066 1609 2717 
Q 1266 2369 1153 1784 
L 800 0 
L 225 0 
L 909 3500 
L 1484 3500 
L 1375 2956 
Q 1603 3259 1920 3421 
Q 2238 3584 2597 3584 
Q 2691 3584 2781 3573 
Q 2872 3563 2963 3538 
L 2853 2969 
z
" transform="scale(0.015625)"/>
       <path id="DejaVuSans-6b" d="M 581 4863 
L 1159 4863 
L 1159 1991 
L 2875 3500 
L 3609 3500 
L 1753 1863 
L 3688 0 
L 2938 0 
L 1159 1709 
L 1159 0 
L 581 0 
L 581 4863 
z
" transform="scale(0.015625)"/>
       <path id="DejaVuSans-6d" d="M 3328 2828 
Q 3544 3216 3844 3400 
Q 4144 3584 4550 3584 
Q 5097 3584 5394 3201 
Q 5691 2819 5691 2113 
L 5691 0 
L 5113 0 
L 5113 2094 
Q 5113 2597 4934 2840 
Q 4756 3084 4391 3084 
Q 3944 3084 3684 2787 
Q 3425 2491 3425 1978 
L 3425 0 
L 2847 0 
L 2847 2094 
Q 2847 2600 2669 2842 
Q 2491 3084 2119 3084 
Q 1678 3084 1418 2786 
Q 1159 2488 1159 1978 
L 1159 0 
L 581 0 
L 581 3500 
L 1159 3500 
L 1159 2956 
Q 1356 3278 1631 3431 
Q 1906 3584 2284 3584 
Q 2666 3584 2933 3390 
Q 3200 3197 3328 2828 
z
" transform="scale(0.015625)"/>
       <path id="DejaVuSans-2212" d="M 678 2272 
L 4684 2272 
L 4684 1741 
L 678 1741 
L 678 2272 
z
" transform="scale(0.015625)"/>
      </defs>
      <use xlink:href="#DejaVuSans-Oblique-76" transform="translate(0 0.684375)"/>
      <use xlink:href="#DejaVuSans-Oblique-72" transform="translate(59.179688 -15.721875) scale(0.7)"/>
      <use xlink:href="#DejaVuSans-20" transform="translate(90.693359 0.684375)"/>
      <use xlink:href="#DejaVuSans-5b" transform="translate(122.480469 0.684375)"/>
      <use xlink:href="#DejaVuSans-6b" transform="translate(161.494141 0.684375)"/>
      <use xlink:href="#DejaVuSans-6d" transform="translate(219.404297 0.684375)"/>
      <use xlink:href="#DejaVuSans-20" transform="translate(316.816406 0.684375)"/>
      <use xlink:href="#DejaVuSans-73" transform="translate(348.603516 0.684375)"/>
      <use xlink:href="#DejaVuSans-2212" transform="translate(401.660156 38.965625) scale(0.7)"/>
      <use xlink:href="#DejaVuSans-31" transform="translate(460.3125 38.965625) scale(0.7)"/>
      <use xlink:href="#DejaVuSans-5d" transform="translate(507.583008 0.684375)"/>
     </g>
    </g>
   </g>
  </g>
 </g>
 <defs>
  <clipPath id="pdbc0e4e197">
   <rect x="57.702" y="10.8" width="363.498" height="231.324"/>
  </clipPath>
 </defs>
</svg>
