<?xml version="1.0" encoding="utf-8" standalone="no"?>
<!DOCTYPE svg PUBLIC "-//W3C//DTD SVG 1.1//EN"
  "http://www.w3.org/Graphics/SVG/1.1/DTD/svg11.dtd">
<svg xmlns:xlink="http://www.w3.org/1999/xlink" width="432pt" height="288pt" viewBox="0 0 432 288" xmlns="http://www.w3.org/2000/svg" version="1.1">
 <metadata>
  <rdf:RDF xmlns:dc="http://purl.org/dc/elements/1.1/" xmlns:cc="http://creativecommons.org/ns#" xmlns:rdf="http://www.w3.org/1999/02/22-rdf-syntax-ns#">
   <cc:Work>
    <dc:type rdf:resource="http://purl.org/dc/dcmitype/StillImage"/>
    <dc:date>2022-11-08T16:00:07.685971</dc:date>
    <dc:format>image/svg+xml</dc:format>
    <dc:creator>
     <cc:Agent>
      <dc:title>Matplotlib v3.6.1, https://matplotlib.org/</dc:title>
     </cc:Agent>
    </dc:creator>
   </cc:Work>
  </rdf:RDF>
 </metadata>
 <defs>
  <style type="text/css">*{stroke-linejoin: round; stroke-linecap: butt}</style>
 </defs>
 <g id="figure_1">
  <g id="patch_1">
   <path d="M 0 288 
L 432 288 
L 432 0 
L 0 0 
z
" style="fill: #ffffff"/>
  </g>
  <g id="axes_1">
   <g id="patch_2">
    <path d="M 57.702 242.124 
L 417.760168 242.124 
L 417.760168 10.8 
L 57.702 10.8 
z
" style="fill: #ffffff"/>
   </g>
   <g id="matplotlib.axis_1">
    <g id="xtick_1">
     <g id="line2d_1">
      <defs>
       <path id="m9b31984d24" d="M 0 0 
L 0 -3.5 
" style="stroke: #000000; stroke-width: 1.5"/>
      </defs>
      <g>
       <use xlink:href="#m9b31984d24" x="66.741041" y="242.124" style="stroke: #000000; stroke-width: 1.5"/>
      </g>
     </g>
     <g id="line2d_2">
      <defs>
       <path id="m4f90741968" d="M 0 0 
L 0 3.5 
" style="stroke: #000000; stroke-width: 1.5"/>
      </defs>
      <g>
       <use xlink:href="#m4f90741968" x="66.741041" y="10.8" style="stroke: #000000; stroke-width: 1.5"/>
      </g>
     </g>
     <g id="text_1">
      <!-- 0 -->
      <g transform="translate(62.923541 254.742125) scale(0.12 -0.12)">
       <defs>
        <path id="DejaVuSans-30" d="M 2034 4250 
Q 1547 4250 1301 3770 
Q 1056 3291 1056 2328 
Q 1056 1369 1301 889 
Q 1547 409 2034 409 
Q 2525 409 2770 889 
Q 3016 1369 3016 2328 
Q 3016 3291 2770 3770 
Q 2525 4250 2034 4250 
z
M 2034 4750 
Q 2819 4750 3233 4129 
Q 3647 3509 3647 2328 
Q 3647 1150 3233 529 
Q 2819 -91 2034 -91 
Q 1250 -91 836 529 
Q 422 1150 422 2328 
Q 422 3509 836 4129 
Q 1250 4750 2034 4750 
z
" transform="scale(0.015625)"/>
       </defs>
       <use xlink:href="#DejaVuSans-30"/>
      </g>
     </g>
    </g>
    <g id="xtick_2">
     <g id="line2d_3">
      <g>
       <use xlink:href="#m9b31984d24" x="124.505728" y="242.124" style="stroke: #000000; stroke-width: 1.5"/>
      </g>
     </g>
     <g id="line2d_4">
      <g>
       <use xlink:href="#m4f90741968" x="124.505728" y="10.8" style="stroke: #000000; stroke-width: 1.5"/>
      </g>
     </g>
     <g id="text_2">
      <!-- 10 -->
      <g transform="translate(116.870728 254.742125) scale(0.12 -0.12)">
       <defs>
        <path id="DejaVuSans-31" d="M 794 531 
L 1825 531 
L 1825 4091 
L 703 3866 
L 703 4441 
L 1819 4666 
L 2450 4666 
L 2450 531 
L 3481 531 
L 3481 0 
L 794 0 
L 794 531 
z
" transform="scale(0.015625)"/>
       </defs>
       <use xlink:href="#DejaVuSans-31"/>
       <use xlink:href="#DejaVuSans-30" x="63.623047"/>
      </g>
     </g>
    </g>
    <g id="xtick_3">
     <g id="line2d_5">
      <g>
       <use xlink:href="#m9b31984d24" x="182.270415" y="242.124" style="stroke: #000000; stroke-width: 1.5"/>
      </g>
     </g>
     <g id="line2d_6">
      <g>
       <use xlink:href="#m4f90741968" x="182.270415" y="10.8" style="stroke: #000000; stroke-width: 1.5"/>
      </g>
     </g>
     <g id="text_3">
      <!-- 20 -->
      <g transform="translate(174.635415 254.742125) scale(0.12 -0.12)">
       <defs>
        <path id="DejaVuSans-32" d="M 1228 531 
L 3431 531 
L 3431 0 
L 469 0 
L 469 531 
Q 828 903 1448 1529 
Q 2069 2156 2228 2338 
Q 2531 2678 2651 2914 
Q 2772 3150 2772 3378 
Q 2772 3750 2511 3984 
Q 2250 4219 1831 4219 
Q 1534 4219 1204 4116 
Q 875 4013 500 3803 
L 500 4441 
Q 881 4594 1212 4672 
Q 1544 4750 1819 4750 
Q 2544 4750 2975 4387 
Q 3406 4025 3406 3419 
Q 3406 3131 3298 2873 
Q 3191 2616 2906 2266 
Q 2828 2175 2409 1742 
Q 1991 1309 1228 531 
z
" transform="scale(0.015625)"/>
       </defs>
       <use xlink:href="#DejaVuSans-32"/>
       <use xlink:href="#DejaVuSans-30" x="63.623047"/>
      </g>
     </g>
    </g>
    <g id="xtick_4">
     <g id="line2d_7">
      <g>
       <use xlink:href="#m9b31984d24" x="240.035103" y="242.124" style="stroke: #000000; stroke-width: 1.5"/>
      </g>
     </g>
     <g id="line2d_8">
      <g>
       <use xlink:href="#m4f90741968" x="240.035103" y="10.8" style="stroke: #000000; stroke-width: 1.5"/>
      </g>
     </g>
     <g id="text_4">
      <!-- 30 -->
      <g transform="translate(232.400103 254.742125) scale(0.12 -0.12)">
       <defs>
        <path id="DejaVuSans-33" d="M 2597 2516 
Q 3050 2419 3304 2112 
Q 3559 1806 3559 1356 
Q 3559 666 3084 287 
Q 2609 -91 1734 -91 
Q 1441 -91 1130 -33 
Q 819 25 488 141 
L 488 750 
Q 750 597 1062 519 
Q 1375 441 1716 441 
Q 2309 441 2620 675 
Q 2931 909 2931 1356 
Q 2931 1769 2642 2001 
Q 2353 2234 1838 2234 
L 1294 2234 
L 1294 2753 
L 1863 2753 
Q 2328 2753 2575 2939 
Q 2822 3125 2822 3475 
Q 2822 3834 2567 4026 
Q 2313 4219 1838 4219 
Q 1578 4219 1281 4162 
Q 984 4106 628 3988 
L 628 4550 
Q 988 4650 1302 4700 
Q 1616 4750 1894 4750 
Q 2613 4750 3031 4423 
Q 3450 4097 3450 3541 
Q 3450 3153 3228 2886 
Q 3006 2619 2597 2516 
z
" transform="scale(0.015625)"/>
       </defs>
       <use xlink:href="#DejaVuSans-33"/>
       <use xlink:href="#DejaVuSans-30" x="63.623047"/>
      </g>
     </g>
    </g>
    <g id="xtick_5">
     <g id="line2d_9">
      <g>
       <use xlink:href="#m9b31984d24" x="297.79979" y="242.124" style="stroke: #000000; stroke-width: 1.5"/>
      </g>
     </g>
     <g id="line2d_10">
      <g>
       <use xlink:href="#m4f90741968" x="297.79979" y="10.8" style="stroke: #000000; stroke-width: 1.5"/>
      </g>
     </g>
     <g id="text_5">
      <!-- 40 -->
      <g transform="translate(290.16479 254.742125) scale(0.12 -0.12)">
       <defs>
        <path id="DejaVuSans-34" d="M 2419 4116 
L 825 1625 
L 2419 1625 
L 2419 4116 
z
M 2253 4666 
L 3047 4666 
L 3047 1625 
L 3713 1625 
L 3713 1100 
L 3047 1100 
L 3047 0 
L 2419 0 
L 2419 1100 
L 313 1100 
L 313 1709 
L 2253 4666 
z
" transform="scale(0.015625)"/>
       </defs>
       <use xlink:href="#DejaVuSans-34"/>
       <use xlink:href="#DejaVuSans-30" x="63.623047"/>
      </g>
     </g>
    </g>
    <g id="xtick_6">
     <g id="line2d_11">
      <g>
       <use xlink:href="#m9b31984d24" x="355.564477" y="242.124" style="stroke: #000000; stroke-width: 1.5"/>
      </g>
     </g>
     <g id="line2d_12">
      <g>
       <use xlink:href="#m4f90741968" x="355.564477" y="10.8" style="stroke: #000000; stroke-width: 1.5"/>
      </g>
     </g>
     <g id="text_6">
      <!-- 50 -->
      <g transform="translate(347.929477 254.742125) scale(0.12 -0.12)">
       <defs>
        <path id="DejaVuSans-35" d="M 691 4666 
L 3169 4666 
L 3169 4134 
L 1269 4134 
L 1269 2991 
Q 1406 3038 1543 3061 
Q 1681 3084 1819 3084 
Q 2600 3084 3056 2656 
Q 3513 2228 3513 1497 
Q 3513 744 3044 326 
Q 2575 -91 1722 -91 
Q 1428 -91 1123 -41 
Q 819 9 494 109 
L 494 744 
Q 775 591 1075 516 
Q 1375 441 1709 441 
Q 2250 441 2565 725 
Q 2881 1009 2881 1497 
Q 2881 1984 2565 2268 
Q 2250 2553 1709 2553 
Q 1456 2553 1204 2497 
Q 953 2441 691 2322 
L 691 4666 
z
" transform="scale(0.015625)"/>
       </defs>
       <use xlink:href="#DejaVuSans-35"/>
       <use xlink:href="#DejaVuSans-30" x="63.623047"/>
      </g>
     </g>
    </g>
    <g id="xtick_7">
     <g id="line2d_13">
      <g>
       <use xlink:href="#m9b31984d24" x="413.329164" y="242.124" style="stroke: #000000; stroke-width: 1.5"/>
      </g>
     </g>
     <g id="line2d_14">
      <g>
       <use xlink:href="#m4f90741968" x="413.329164" y="10.8" style="stroke: #000000; stroke-width: 1.5"/>
      </g>
     </g>
     <g id="text_7">
      <!-- 60 -->
      <g transform="translate(405.694164 254.742125) scale(0.12 -0.12)">
       <defs>
        <path id="DejaVuSans-36" d="M 2113 2584 
Q 1688 2584 1439 2293 
Q 1191 2003 1191 1497 
Q 1191 994 1439 701 
Q 1688 409 2113 409 
Q 2538 409 2786 701 
Q 3034 994 3034 1497 
Q 3034 2003 2786 2293 
Q 2538 2584 2113 2584 
z
M 3366 4563 
L 3366 3988 
Q 3128 4100 2886 4159 
Q 2644 4219 2406 4219 
Q 1781 4219 1451 3797 
Q 1122 3375 1075 2522 
Q 1259 2794 1537 2939 
Q 1816 3084 2150 3084 
Q 2853 3084 3261 2657 
Q 3669 2231 3669 1497 
Q 3669 778 3244 343 
Q 2819 -91 2113 -91 
Q 1303 -91 875 529 
Q 447 1150 447 2328 
Q 447 3434 972 4092 
Q 1497 4750 2381 4750 
Q 2619 4750 2861 4703 
Q 3103 4656 3366 4563 
z
" transform="scale(0.015625)"/>
       </defs>
       <use xlink:href="#DejaVuSans-36"/>
       <use xlink:href="#DejaVuSans-30" x="63.623047"/>
      </g>
     </g>
    </g>
    <g id="xtick_8">
     <g id="line2d_15">
      <defs>
       <path id="m484b2b9a51" d="M 0 0 
L 0 -2 
" style="stroke: #000000; stroke-width: 1.5"/>
      </defs>
      <g>
       <use xlink:href="#m484b2b9a51" x="78.293979" y="242.124" style="stroke: #000000; stroke-width: 1.5"/>
      </g>
     </g>
     <g id="line2d_16">
      <defs>
       <path id="m9ed31bc196" d="M 0 0 
L 0 2 
" style="stroke: #000000; stroke-width: 1.5"/>
      </defs>
      <g>
       <use xlink:href="#m9ed31bc196" x="78.293979" y="10.8" style="stroke: #000000; stroke-width: 1.5"/>
      </g>
     </g>
    </g>
    <g id="xtick_9">
     <g id="line2d_17">
      <g>
       <use xlink:href="#m484b2b9a51" x="89.846916" y="242.124" style="stroke: #000000; stroke-width: 1.5"/>
      </g>
     </g>
     <g id="line2d_18">
      <g>
       <use xlink:href="#m9ed31bc196" x="89.846916" y="10.8" style="stroke: #000000; stroke-width: 1.5"/>
      </g>
     </g>
    </g>
    <g id="xtick_10">
     <g id="line2d_19">
      <g>
       <use xlink:href="#m484b2b9a51" x="101.399853" y="242.124" style="stroke: #000000; stroke-width: 1.5"/>
      </g>
     </g>
     <g id="line2d_20">
      <g>
       <use xlink:href="#m9ed31bc196" x="101.399853" y="10.8" style="stroke: #000000; stroke-width: 1.5"/>
      </g>
     </g>
    </g>
    <g id="xtick_11">
     <g id="line2d_21">
      <g>
       <use xlink:href="#m484b2b9a51" x="112.952791" y="242.124" style="stroke: #000000; stroke-width: 1.5"/>
      </g>
     </g>
     <g id="line2d_22">
      <g>
       <use xlink:href="#m9ed31bc196" x="112.952791" y="10.8" style="stroke: #000000; stroke-width: 1.5"/>
      </g>
     </g>
    </g>
    <g id="xtick_12">
     <g id="line2d_23">
      <g>
       <use xlink:href="#m484b2b9a51" x="136.058666" y="242.124" style="stroke: #000000; stroke-width: 1.5"/>
      </g>
     </g>
     <g id="line2d_24">
      <g>
       <use xlink:href="#m9ed31bc196" x="136.058666" y="10.8" style="stroke: #000000; stroke-width: 1.5"/>
      </g>
     </g>
    </g>
    <g id="xtick_13">
     <g id="line2d_25">
      <g>
       <use xlink:href="#m484b2b9a51" x="147.611603" y="242.124" style="stroke: #000000; stroke-width: 1.5"/>
      </g>
     </g>
     <g id="line2d_26">
      <g>
       <use xlink:href="#m9ed31bc196" x="147.611603" y="10.8" style="stroke: #000000; stroke-width: 1.5"/>
      </g>
     </g>
    </g>
    <g id="xtick_14">
     <g id="line2d_27">
      <g>
       <use xlink:href="#m484b2b9a51" x="159.164541" y="242.124" style="stroke: #000000; stroke-width: 1.5"/>
      </g>
     </g>
     <g id="line2d_28">
      <g>
       <use xlink:href="#m9ed31bc196" x="159.164541" y="10.8" style="stroke: #000000; stroke-width: 1.5"/>
      </g>
     </g>
    </g>
    <g id="xtick_15">
     <g id="line2d_29">
      <g>
       <use xlink:href="#m484b2b9a51" x="170.717478" y="242.124" style="stroke: #000000; stroke-width: 1.5"/>
      </g>
     </g>
     <g id="line2d_30">
      <g>
       <use xlink:href="#m9ed31bc196" x="170.717478" y="10.8" style="stroke: #000000; stroke-width: 1.5"/>
      </g>
     </g>
    </g>
    <g id="xtick_16">
     <g id="line2d_31">
      <g>
       <use xlink:href="#m484b2b9a51" x="193.823353" y="242.124" style="stroke: #000000; stroke-width: 1.5"/>
      </g>
     </g>
     <g id="line2d_32">
      <g>
       <use xlink:href="#m9ed31bc196" x="193.823353" y="10.8" style="stroke: #000000; stroke-width: 1.5"/>
      </g>
     </g>
    </g>
    <g id="xtick_17">
     <g id="line2d_33">
      <g>
       <use xlink:href="#m484b2b9a51" x="205.37629" y="242.124" style="stroke: #000000; stroke-width: 1.5"/>
      </g>
     </g>
     <g id="line2d_34">
      <g>
       <use xlink:href="#m9ed31bc196" x="205.37629" y="10.8" style="stroke: #000000; stroke-width: 1.5"/>
      </g>
     </g>
    </g>
    <g id="xtick_18">
     <g id="line2d_35">
      <g>
       <use xlink:href="#m484b2b9a51" x="216.929228" y="242.124" style="stroke: #000000; stroke-width: 1.5"/>
      </g>
     </g>
     <g id="line2d_36">
      <g>
       <use xlink:href="#m9ed31bc196" x="216.929228" y="10.8" style="stroke: #000000; stroke-width: 1.5"/>
      </g>
     </g>
    </g>
    <g id="xtick_19">
     <g id="line2d_37">
      <g>
       <use xlink:href="#m484b2b9a51" x="228.482165" y="242.124" style="stroke: #000000; stroke-width: 1.5"/>
      </g>
     </g>
     <g id="line2d_38">
      <g>
       <use xlink:href="#m9ed31bc196" x="228.482165" y="10.8" style="stroke: #000000; stroke-width: 1.5"/>
      </g>
     </g>
    </g>
    <g id="xtick_20">
     <g id="line2d_39">
      <g>
       <use xlink:href="#m484b2b9a51" x="251.58804" y="242.124" style="stroke: #000000; stroke-width: 1.5"/>
      </g>
     </g>
     <g id="line2d_40">
      <g>
       <use xlink:href="#m9ed31bc196" x="251.58804" y="10.8" style="stroke: #000000; stroke-width: 1.5"/>
      </g>
     </g>
    </g>
    <g id="xtick_21">
     <g id="line2d_41">
      <g>
       <use xlink:href="#m484b2b9a51" x="263.140977" y="242.124" style="stroke: #000000; stroke-width: 1.5"/>
      </g>
     </g>
     <g id="line2d_42">
      <g>
       <use xlink:href="#m9ed31bc196" x="263.140977" y="10.8" style="stroke: #000000; stroke-width: 1.5"/>
      </g>
     </g>
    </g>
    <g id="xtick_22">
     <g id="line2d_43">
      <g>
       <use xlink:href="#m484b2b9a51" x="274.693915" y="242.124" style="stroke: #000000; stroke-width: 1.5"/>
      </g>
     </g>
     <g id="line2d_44">
      <g>
       <use xlink:href="#m9ed31bc196" x="274.693915" y="10.8" style="stroke: #000000; stroke-width: 1.5"/>
      </g>
     </g>
    </g>
    <g id="xtick_23">
     <g id="line2d_45">
      <g>
       <use xlink:href="#m484b2b9a51" x="286.246852" y="242.124" style="stroke: #000000; stroke-width: 1.5"/>
      </g>
     </g>
     <g id="line2d_46">
      <g>
       <use xlink:href="#m9ed31bc196" x="286.246852" y="10.8" style="stroke: #000000; stroke-width: 1.5"/>
      </g>
     </g>
    </g>
    <g id="xtick_24">
     <g id="line2d_47">
      <g>
       <use xlink:href="#m484b2b9a51" x="309.352727" y="242.124" style="stroke: #000000; stroke-width: 1.5"/>
      </g>
     </g>
     <g id="line2d_48">
      <g>
       <use xlink:href="#m9ed31bc196" x="309.352727" y="10.8" style="stroke: #000000; stroke-width: 1.5"/>
      </g>
     </g>
    </g>
    <g id="xtick_25">
     <g id="line2d_49">
      <g>
       <use xlink:href="#m484b2b9a51" x="320.905665" y="242.124" style="stroke: #000000; stroke-width: 1.5"/>
      </g>
     </g>
     <g id="line2d_50">
      <g>
       <use xlink:href="#m9ed31bc196" x="320.905665" y="10.8" style="stroke: #000000; stroke-width: 1.5"/>
      </g>
     </g>
    </g>
    <g id="xtick_26">
     <g id="line2d_51">
      <g>
       <use xlink:href="#m484b2b9a51" x="332.458602" y="242.124" style="stroke: #000000; stroke-width: 1.5"/>
      </g>
     </g>
     <g id="line2d_52">
      <g>
       <use xlink:href="#m9ed31bc196" x="332.458602" y="10.8" style="stroke: #000000; stroke-width: 1.5"/>
      </g>
     </g>
    </g>
    <g id="xtick_27">
     <g id="line2d_53">
      <g>
       <use xlink:href="#m484b2b9a51" x="344.011539" y="242.124" style="stroke: #000000; stroke-width: 1.5"/>
      </g>
     </g>
     <g id="line2d_54">
      <g>
       <use xlink:href="#m9ed31bc196" x="344.011539" y="10.8" style="stroke: #000000; stroke-width: 1.5"/>
      </g>
     </g>
    </g>
    <g id="xtick_28">
     <g id="line2d_55">
      <g>
       <use xlink:href="#m484b2b9a51" x="367.117414" y="242.124" style="stroke: #000000; stroke-width: 1.5"/>
      </g>
     </g>
     <g id="line2d_56">
      <g>
       <use xlink:href="#m9ed31bc196" x="367.117414" y="10.8" style="stroke: #000000; stroke-width: 1.5"/>
      </g>
     </g>
    </g>
    <g id="xtick_29">
     <g id="line2d_57">
      <g>
       <use xlink:href="#m484b2b9a51" x="378.670352" y="242.124" style="stroke: #000000; stroke-width: 1.5"/>
      </g>
     </g>
     <g id="line2d_58">
      <g>
       <use xlink:href="#m9ed31bc196" x="378.670352" y="10.8" style="stroke: #000000; stroke-width: 1.5"/>
      </g>
     </g>
    </g>
    <g id="xtick_30">
     <g id="line2d_59">
      <g>
       <use xlink:href="#m484b2b9a51" x="390.223289" y="242.124" style="stroke: #000000; stroke-width: 1.5"/>
      </g>
     </g>
     <g id="line2d_60">
      <g>
       <use xlink:href="#m9ed31bc196" x="390.223289" y="10.8" style="stroke: #000000; stroke-width: 1.5"/>
      </g>
     </g>
    </g>
    <g id="xtick_31">
     <g id="line2d_61">
      <g>
       <use xlink:href="#m484b2b9a51" x="401.776227" y="242.124" style="stroke: #000000; stroke-width: 1.5"/>
      </g>
     </g>
     <g id="line2d_62">
      <g>
       <use xlink:href="#m9ed31bc196" x="401.776227" y="10.8" style="stroke: #000000; stroke-width: 1.5"/>
      </g>
     </g>
    </g>
    <g id="text_8">
     <!-- Distance [R$_\odot$] -->
     <g transform="translate(195.491084 270.355875) scale(0.12 -0.12)">
      <defs>
       <path id="DejaVuSans-44" d="M 1259 4147 
L 1259 519 
L 2022 519 
Q 2988 519 3436 956 
Q 3884 1394 3884 2338 
Q 3884 3275 3436 3711 
Q 2988 4147 2022 4147 
L 1259 4147 
z
M 628 4666 
L 1925 4666 
Q 3281 4666 3915 4102 
Q 4550 3538 4550 2338 
Q 4550 1131 3912 565 
Q 3275 0 1925 0 
L 628 0 
L 628 4666 
z
" transform="scale(0.015625)"/>
       <path id="DejaVuSans-69" d="M 603 3500 
L 1178 3500 
L 1178 0 
L 603 0 
L 603 3500 
z
M 603 4863 
L 1178 4863 
L 1178 4134 
L 603 4134 
L 603 4863 
z
" transform="scale(0.015625)"/>
       <path id="DejaVuSans-73" d="M 2834 3397 
L 2834 2853 
Q 2591 2978 2328 3040 
Q 2066 3103 1784 3103 
Q 1356 3103 1142 2972 
Q 928 2841 928 2578 
Q 928 2378 1081 2264 
Q 1234 2150 1697 2047 
L 1894 2003 
Q 2506 1872 2764 1633 
Q 3022 1394 3022 966 
Q 3022 478 2636 193 
Q 2250 -91 1575 -91 
Q 1294 -91 989 -36 
Q 684 19 347 128 
L 347 722 
Q 666 556 975 473 
Q 1284 391 1588 391 
Q 1994 391 2212 530 
Q 2431 669 2431 922 
Q 2431 1156 2273 1281 
Q 2116 1406 1581 1522 
L 1381 1569 
Q 847 1681 609 1914 
Q 372 2147 372 2553 
Q 372 3047 722 3315 
Q 1072 3584 1716 3584 
Q 2034 3584 2315 3537 
Q 2597 3491 2834 3397 
z
" transform="scale(0.015625)"/>
       <path id="DejaVuSans-74" d="M 1172 4494 
L 1172 3500 
L 2356 3500 
L 2356 3053 
L 1172 3053 
L 1172 1153 
Q 1172 725 1289 603 
Q 1406 481 1766 481 
L 2356 481 
L 2356 0 
L 1766 0 
Q 1100 0 847 248 
Q 594 497 594 1153 
L 594 3053 
L 172 3053 
L 172 3500 
L 594 3500 
L 594 4494 
L 1172 4494 
z
" transform="scale(0.015625)"/>
       <path id="DejaVuSans-61" d="M 2194 1759 
Q 1497 1759 1228 1600 
Q 959 1441 959 1056 
Q 959 750 1161 570 
Q 1363 391 1709 391 
Q 2188 391 2477 730 
Q 2766 1069 2766 1631 
L 2766 1759 
L 2194 1759 
z
M 3341 1997 
L 3341 0 
L 2766 0 
L 2766 531 
Q 2569 213 2275 61 
Q 1981 -91 1556 -91 
Q 1019 -91 701 211 
Q 384 513 384 1019 
Q 384 1609 779 1909 
Q 1175 2209 1959 2209 
L 2766 2209 
L 2766 2266 
Q 2766 2663 2505 2880 
Q 2244 3097 1772 3097 
Q 1472 3097 1187 3025 
Q 903 2953 641 2809 
L 641 3341 
Q 956 3463 1253 3523 
Q 1550 3584 1831 3584 
Q 2591 3584 2966 3190 
Q 3341 2797 3341 1997 
z
" transform="scale(0.015625)"/>
       <path id="DejaVuSans-6e" d="M 3513 2113 
L 3513 0 
L 2938 0 
L 2938 2094 
Q 2938 2591 2744 2837 
Q 2550 3084 2163 3084 
Q 1697 3084 1428 2787 
Q 1159 2491 1159 1978 
L 1159 0 
L 581 0 
L 581 3500 
L 1159 3500 
L 1159 2956 
Q 1366 3272 1645 3428 
Q 1925 3584 2291 3584 
Q 2894 3584 3203 3211 
Q 3513 2838 3513 2113 
z
" transform="scale(0.015625)"/>
       <path id="DejaVuSans-63" d="M 3122 3366 
L 3122 2828 
Q 2878 2963 2633 3030 
Q 2388 3097 2138 3097 
Q 1578 3097 1268 2742 
Q 959 2388 959 1747 
Q 959 1106 1268 751 
Q 1578 397 2138 397 
Q 2388 397 2633 464 
Q 2878 531 3122 666 
L 3122 134 
Q 2881 22 2623 -34 
Q 2366 -91 2075 -91 
Q 1284 -91 818 406 
Q 353 903 353 1747 
Q 353 2603 823 3093 
Q 1294 3584 2113 3584 
Q 2378 3584 2631 3529 
Q 2884 3475 3122 3366 
z
" transform="scale(0.015625)"/>
       <path id="DejaVuSans-65" d="M 3597 1894 
L 3597 1613 
L 953 1613 
Q 991 1019 1311 708 
Q 1631 397 2203 397 
Q 2534 397 2845 478 
Q 3156 559 3463 722 
L 3463 178 
Q 3153 47 2828 -22 
Q 2503 -91 2169 -91 
Q 1331 -91 842 396 
Q 353 884 353 1716 
Q 353 2575 817 3079 
Q 1281 3584 2069 3584 
Q 2775 3584 3186 3129 
Q 3597 2675 3597 1894 
z
M 3022 2063 
Q 3016 2534 2758 2815 
Q 2500 3097 2075 3097 
Q 1594 3097 1305 2825 
Q 1016 2553 972 2059 
L 3022 2063 
z
" transform="scale(0.015625)"/>
       <path id="DejaVuSans-20" transform="scale(0.015625)"/>
       <path id="DejaVuSans-5b" d="M 550 4863 
L 1875 4863 
L 1875 4416 
L 1125 4416 
L 1125 -397 
L 1875 -397 
L 1875 -844 
L 550 -844 
L 550 4863 
z
" transform="scale(0.015625)"/>
       <path id="DejaVuSans-52" d="M 2841 2188 
Q 3044 2119 3236 1894 
Q 3428 1669 3622 1275 
L 4263 0 
L 3584 0 
L 2988 1197 
Q 2756 1666 2539 1819 
Q 2322 1972 1947 1972 
L 1259 1972 
L 1259 0 
L 628 0 
L 628 4666 
L 2053 4666 
Q 2853 4666 3247 4331 
Q 3641 3997 3641 3322 
Q 3641 2881 3436 2590 
Q 3231 2300 2841 2188 
z
M 1259 4147 
L 1259 2491 
L 2053 2491 
Q 2509 2491 2742 2702 
Q 2975 2913 2975 3322 
Q 2975 3731 2742 3939 
Q 2509 4147 2053 4147 
L 1259 4147 
z
" transform="scale(0.015625)"/>
       <path id="DejaVuSans-2299" d="M 2350 2403 
L 3013 2403 
L 3013 1609 
L 2350 1609 
L 2350 2403 
z
M 3306 3522 
Q 3016 3644 2681 3644 
Q 2347 3644 2056 3522 
Q 1769 3400 1531 3163 
Q 1291 2922 1172 2634 
Q 1053 2347 1053 2006 
Q 1053 1675 1172 1387 
Q 1291 1100 1531 859 
Q 1769 622 2056 500 
Q 2347 378 2681 378 
Q 3016 378 3306 500 
Q 3594 622 3831 859 
Q 4072 1100 4190 1387 
Q 4309 1675 4309 2006 
Q 4309 2347 4190 2634 
Q 4072 2922 3831 3163 
Q 3594 3400 3306 3522 
z
M 1878 3956 
Q 2250 4113 2681 4113 
Q 3113 4113 3484 3956 
Q 3856 3800 4163 3494 
Q 4472 3184 4625 2813 
Q 4778 2444 4778 2006 
Q 4778 1578 4625 1206 
Q 4472 838 4163 528 
Q 3856 222 3484 65 
Q 3113 -91 2681 -91 
Q 2250 -91 1878 65 
Q 1506 222 1200 528 
Q 891 838 738 1206 
Q 584 1578 584 2006 
Q 584 2444 738 2813 
Q 891 3184 1200 3494 
Q 1506 3800 1878 3956 
z
" transform="scale(0.015625)"/>
       <path id="DejaVuSans-5d" d="M 1947 4863 
L 1947 -844 
L 622 -844 
L 622 -397 
L 1369 -397 
L 1369 4416 
L 622 4416 
L 622 4863 
L 1947 4863 
z
" transform="scale(0.015625)"/>
      </defs>
      <use xlink:href="#DejaVuSans-44" transform="translate(0 0.015625)"/>
      <use xlink:href="#DejaVuSans-69" transform="translate(77.001953 0.015625)"/>
      <use xlink:href="#DejaVuSans-73" transform="translate(104.785156 0.015625)"/>
      <use xlink:href="#DejaVuSans-74" transform="translate(156.884766 0.015625)"/>
      <use xlink:href="#DejaVuSans-61" transform="translate(196.09375 0.015625)"/>
      <use xlink:href="#DejaVuSans-6e" transform="translate(257.373047 0.015625)"/>
      <use xlink:href="#DejaVuSans-63" transform="translate(320.751953 0.015625)"/>
      <use xlink:href="#DejaVuSans-65" transform="translate(375.732422 0.015625)"/>
      <use xlink:href="#DejaVuSans-20" transform="translate(437.255859 0.015625)"/>
      <use xlink:href="#DejaVuSans-5b" transform="translate(469.042969 0.015625)"/>
      <use xlink:href="#DejaVuSans-52" transform="translate(504.931641 0.015625)"/>
      <use xlink:href="#DejaVuSans-2299" transform="translate(589.008789 -16.390625) scale(0.7)"/>
      <use xlink:href="#DejaVuSans-5d" transform="translate(664.033203 0.015625)"/>
     </g>
    </g>
   </g>
   <g id="matplotlib.axis_2">
    <g id="ytick_1">
     <g id="line2d_63">
      <defs>
       <path id="m0a1dad28d3" d="M 0 0 
L 3.5 0 
" style="stroke: #000000; stroke-width: 1.5"/>
      </defs>
      <g>
       <use xlink:href="#m0a1dad28d3" x="57.702" y="230.507919" style="stroke: #000000; stroke-width: 1.5"/>
      </g>
     </g>
     <g id="line2d_64">
      <defs>
       <path id="m71ff772c30" d="M 0 0 
L -3.5 0 
" style="stroke: #000000; stroke-width: 1.5"/>
      </defs>
      <g>
       <use xlink:href="#m71ff772c30" x="417.760168" y="230.507919" style="stroke: #000000; stroke-width: 1.5"/>
      </g>
     </g>
     <g id="text_9">
      <!-- 0 -->
      <g transform="translate(46.567 235.066981) scale(0.12 -0.12)">
       <use xlink:href="#DejaVuSans-30"/>
      </g>
     </g>
    </g>
    <g id="ytick_2">
     <g id="line2d_65">
      <g>
       <use xlink:href="#m0a1dad28d3" x="57.702" y="198.407991" style="stroke: #000000; stroke-width: 1.5"/>
      </g>
     </g>
     <g id="line2d_66">
      <g>
       <use xlink:href="#m71ff772c30" x="417.760168" y="198.407991" style="stroke: #000000; stroke-width: 1.5"/>
      </g>
     </g>
     <g id="text_10">
      <!-- 100 -->
      <g transform="translate(31.297 202.967054) scale(0.12 -0.12)">
       <use xlink:href="#DejaVuSans-31"/>
       <use xlink:href="#DejaVuSans-30" x="63.623047"/>
       <use xlink:href="#DejaVuSans-30" x="127.246094"/>
      </g>
     </g>
    </g>
    <g id="ytick_3">
     <g id="line2d_67">
      <g>
       <use xlink:href="#m0a1dad28d3" x="57.702" y="166.308064" style="stroke: #000000; stroke-width: 1.5"/>
      </g>
     </g>
     <g id="line2d_68">
      <g>
       <use xlink:href="#m71ff772c30" x="417.760168" y="166.308064" style="stroke: #000000; stroke-width: 1.5"/>
      </g>
     </g>
     <g id="text_11">
      <!-- 200 -->
      <g transform="translate(31.297 170.867127) scale(0.12 -0.12)">
       <use xlink:href="#DejaVuSans-32"/>
       <use xlink:href="#DejaVuSans-30" x="63.623047"/>
       <use xlink:href="#DejaVuSans-30" x="127.246094"/>
      </g>
     </g>
    </g>
    <g id="ytick_4">
     <g id="line2d_69">
      <g>
       <use xlink:href="#m0a1dad28d3" x="57.702" y="134.208137" style="stroke: #000000; stroke-width: 1.5"/>
      </g>
     </g>
     <g id="line2d_70">
      <g>
       <use xlink:href="#m71ff772c30" x="417.760168" y="134.208137" style="stroke: #000000; stroke-width: 1.5"/>
      </g>
     </g>
     <g id="text_12">
      <!-- 300 -->
      <g transform="translate(31.297 138.767199) scale(0.12 -0.12)">
       <use xlink:href="#DejaVuSans-33"/>
       <use xlink:href="#DejaVuSans-30" x="63.623047"/>
       <use xlink:href="#DejaVuSans-30" x="127.246094"/>
      </g>
     </g>
    </g>
    <g id="ytick_5">
     <g id="line2d_71">
      <g>
       <use xlink:href="#m0a1dad28d3" x="57.702" y="102.108209" style="stroke: #000000; stroke-width: 1.5"/>
      </g>
     </g>
     <g id="line2d_72">
      <g>
       <use xlink:href="#m71ff772c30" x="417.760168" y="102.108209" style="stroke: #000000; stroke-width: 1.5"/>
      </g>
     </g>
     <g id="text_13">
      <!-- 400 -->
      <g transform="translate(31.297 106.667272) scale(0.12 -0.12)">
       <use xlink:href="#DejaVuSans-34"/>
       <use xlink:href="#DejaVuSans-30" x="63.623047"/>
       <use xlink:href="#DejaVuSans-30" x="127.246094"/>
      </g>
     </g>
    </g>
    <g id="ytick_6">
     <g id="line2d_73">
      <g>
       <use xlink:href="#m0a1dad28d3" x="57.702" y="70.008282" style="stroke: #000000; stroke-width: 1.5"/>
      </g>
     </g>
     <g id="line2d_74">
      <g>
       <use xlink:href="#m71ff772c30" x="417.760168" y="70.008282" style="stroke: #000000; stroke-width: 1.5"/>
      </g>
     </g>
     <g id="text_14">
      <!-- 500 -->
      <g transform="translate(31.297 74.567344) scale(0.12 -0.12)">
       <use xlink:href="#DejaVuSans-35"/>
       <use xlink:href="#DejaVuSans-30" x="63.623047"/>
       <use xlink:href="#DejaVuSans-30" x="127.246094"/>
      </g>
     </g>
    </g>
    <g id="ytick_7">
     <g id="line2d_75">
      <g>
       <use xlink:href="#m0a1dad28d3" x="57.702" y="37.908354" style="stroke: #000000; stroke-width: 1.5"/>
      </g>
     </g>
     <g id="line2d_76">
      <g>
       <use xlink:href="#m71ff772c30" x="417.760168" y="37.908354" style="stroke: #000000; stroke-width: 1.5"/>
      </g>
     </g>
     <g id="text_15">
      <!-- 600 -->
      <g transform="translate(31.297 42.467417) scale(0.12 -0.12)">
       <use xlink:href="#DejaVuSans-36"/>
       <use xlink:href="#DejaVuSans-30" x="63.623047"/>
       <use xlink:href="#DejaVuSans-30" x="127.246094"/>
      </g>
     </g>
    </g>
    <g id="ytick_8">
     <g id="line2d_77">
      <defs>
       <path id="m00e85cdb37" d="M 0 0 
L 2 0 
" style="stroke: #000000; stroke-width: 1.5"/>
      </defs>
      <g>
       <use xlink:href="#m00e85cdb37" x="57.702" y="236.927904" style="stroke: #000000; stroke-width: 1.5"/>
      </g>
     </g>
     <g id="line2d_78">
      <defs>
       <path id="m208cb7e9f9" d="M 0 0 
L -2 0 
" style="stroke: #000000; stroke-width: 1.5"/>
      </defs>
      <g>
       <use xlink:href="#m208cb7e9f9" x="417.760168" y="236.927904" style="stroke: #000000; stroke-width: 1.5"/>
      </g>
     </g>
    </g>
    <g id="ytick_9">
     <g id="line2d_79">
      <g>
       <use xlink:href="#m00e85cdb37" x="57.702" y="224.087933" style="stroke: #000000; stroke-width: 1.5"/>
      </g>
     </g>
     <g id="line2d_80">
      <g>
       <use xlink:href="#m208cb7e9f9" x="417.760168" y="224.087933" style="stroke: #000000; stroke-width: 1.5"/>
      </g>
     </g>
    </g>
    <g id="ytick_10">
     <g id="line2d_81">
      <g>
       <use xlink:href="#m00e85cdb37" x="57.702" y="217.667948" style="stroke: #000000; stroke-width: 1.5"/>
      </g>
     </g>
     <g id="line2d_82">
      <g>
       <use xlink:href="#m208cb7e9f9" x="417.760168" y="217.667948" style="stroke: #000000; stroke-width: 1.5"/>
      </g>
     </g>
    </g>
    <g id="ytick_11">
     <g id="line2d_83">
      <g>
       <use xlink:href="#m00e85cdb37" x="57.702" y="211.247962" style="stroke: #000000; stroke-width: 1.5"/>
      </g>
     </g>
     <g id="line2d_84">
      <g>
       <use xlink:href="#m208cb7e9f9" x="417.760168" y="211.247962" style="stroke: #000000; stroke-width: 1.5"/>
      </g>
     </g>
    </g>
    <g id="ytick_12">
     <g id="line2d_85">
      <g>
       <use xlink:href="#m00e85cdb37" x="57.702" y="204.827977" style="stroke: #000000; stroke-width: 1.5"/>
      </g>
     </g>
     <g id="line2d_86">
      <g>
       <use xlink:href="#m208cb7e9f9" x="417.760168" y="204.827977" style="stroke: #000000; stroke-width: 1.5"/>
      </g>
     </g>
    </g>
    <g id="ytick_13">
     <g id="line2d_87">
      <g>
       <use xlink:href="#m00e85cdb37" x="57.702" y="191.988006" style="stroke: #000000; stroke-width: 1.5"/>
      </g>
     </g>
     <g id="line2d_88">
      <g>
       <use xlink:href="#m208cb7e9f9" x="417.760168" y="191.988006" style="stroke: #000000; stroke-width: 1.5"/>
      </g>
     </g>
    </g>
    <g id="ytick_14">
     <g id="line2d_89">
      <g>
       <use xlink:href="#m00e85cdb37" x="57.702" y="185.568021" style="stroke: #000000; stroke-width: 1.5"/>
      </g>
     </g>
     <g id="line2d_90">
      <g>
       <use xlink:href="#m208cb7e9f9" x="417.760168" y="185.568021" style="stroke: #000000; stroke-width: 1.5"/>
      </g>
     </g>
    </g>
    <g id="ytick_15">
     <g id="line2d_91">
      <g>
       <use xlink:href="#m00e85cdb37" x="57.702" y="179.148035" style="stroke: #000000; stroke-width: 1.5"/>
      </g>
     </g>
     <g id="line2d_92">
      <g>
       <use xlink:href="#m208cb7e9f9" x="417.760168" y="179.148035" style="stroke: #000000; stroke-width: 1.5"/>
      </g>
     </g>
    </g>
    <g id="ytick_16">
     <g id="line2d_93">
      <g>
       <use xlink:href="#m00e85cdb37" x="57.702" y="172.72805" style="stroke: #000000; stroke-width: 1.5"/>
      </g>
     </g>
     <g id="line2d_94">
      <g>
       <use xlink:href="#m208cb7e9f9" x="417.760168" y="172.72805" style="stroke: #000000; stroke-width: 1.5"/>
      </g>
     </g>
    </g>
    <g id="ytick_17">
     <g id="line2d_95">
      <g>
       <use xlink:href="#m00e85cdb37" x="57.702" y="159.888079" style="stroke: #000000; stroke-width: 1.5"/>
      </g>
     </g>
     <g id="line2d_96">
      <g>
       <use xlink:href="#m208cb7e9f9" x="417.760168" y="159.888079" style="stroke: #000000; stroke-width: 1.5"/>
      </g>
     </g>
    </g>
    <g id="ytick_18">
     <g id="line2d_97">
      <g>
       <use xlink:href="#m00e85cdb37" x="57.702" y="153.468093" style="stroke: #000000; stroke-width: 1.5"/>
      </g>
     </g>
     <g id="line2d_98">
      <g>
       <use xlink:href="#m208cb7e9f9" x="417.760168" y="153.468093" style="stroke: #000000; stroke-width: 1.5"/>
      </g>
     </g>
    </g>
    <g id="ytick_19">
     <g id="line2d_99">
      <g>
       <use xlink:href="#m00e85cdb37" x="57.702" y="147.048108" style="stroke: #000000; stroke-width: 1.5"/>
      </g>
     </g>
     <g id="line2d_100">
      <g>
       <use xlink:href="#m208cb7e9f9" x="417.760168" y="147.048108" style="stroke: #000000; stroke-width: 1.5"/>
      </g>
     </g>
    </g>
    <g id="ytick_20">
     <g id="line2d_101">
      <g>
       <use xlink:href="#m00e85cdb37" x="57.702" y="140.628122" style="stroke: #000000; stroke-width: 1.5"/>
      </g>
     </g>
     <g id="line2d_102">
      <g>
       <use xlink:href="#m208cb7e9f9" x="417.760168" y="140.628122" style="stroke: #000000; stroke-width: 1.5"/>
      </g>
     </g>
    </g>
    <g id="ytick_21">
     <g id="line2d_103">
      <g>
       <use xlink:href="#m00e85cdb37" x="57.702" y="127.788151" style="stroke: #000000; stroke-width: 1.5"/>
      </g>
     </g>
     <g id="line2d_104">
      <g>
       <use xlink:href="#m208cb7e9f9" x="417.760168" y="127.788151" style="stroke: #000000; stroke-width: 1.5"/>
      </g>
     </g>
    </g>
    <g id="ytick_22">
     <g id="line2d_105">
      <g>
       <use xlink:href="#m00e85cdb37" x="57.702" y="121.368166" style="stroke: #000000; stroke-width: 1.5"/>
      </g>
     </g>
     <g id="line2d_106">
      <g>
       <use xlink:href="#m208cb7e9f9" x="417.760168" y="121.368166" style="stroke: #000000; stroke-width: 1.5"/>
      </g>
     </g>
    </g>
    <g id="ytick_23">
     <g id="line2d_107">
      <g>
       <use xlink:href="#m00e85cdb37" x="57.702" y="114.94818" style="stroke: #000000; stroke-width: 1.5"/>
      </g>
     </g>
     <g id="line2d_108">
      <g>
       <use xlink:href="#m208cb7e9f9" x="417.760168" y="114.94818" style="stroke: #000000; stroke-width: 1.5"/>
      </g>
     </g>
    </g>
    <g id="ytick_24">
     <g id="line2d_109">
      <g>
       <use xlink:href="#m00e85cdb37" x="57.702" y="108.528195" style="stroke: #000000; stroke-width: 1.5"/>
      </g>
     </g>
     <g id="line2d_110">
      <g>
       <use xlink:href="#m208cb7e9f9" x="417.760168" y="108.528195" style="stroke: #000000; stroke-width: 1.5"/>
      </g>
     </g>
    </g>
    <g id="ytick_25">
     <g id="line2d_111">
      <g>
       <use xlink:href="#m00e85cdb37" x="57.702" y="95.688224" style="stroke: #000000; stroke-width: 1.5"/>
      </g>
     </g>
     <g id="line2d_112">
      <g>
       <use xlink:href="#m208cb7e9f9" x="417.760168" y="95.688224" style="stroke: #000000; stroke-width: 1.5"/>
      </g>
     </g>
    </g>
    <g id="ytick_26">
     <g id="line2d_113">
      <g>
       <use xlink:href="#m00e85cdb37" x="57.702" y="89.268238" style="stroke: #000000; stroke-width: 1.5"/>
      </g>
     </g>
     <g id="line2d_114">
      <g>
       <use xlink:href="#m208cb7e9f9" x="417.760168" y="89.268238" style="stroke: #000000; stroke-width: 1.5"/>
      </g>
     </g>
    </g>
    <g id="ytick_27">
     <g id="line2d_115">
      <g>
       <use xlink:href="#m00e85cdb37" x="57.702" y="82.848253" style="stroke: #000000; stroke-width: 1.5"/>
      </g>
     </g>
     <g id="line2d_116">
      <g>
       <use xlink:href="#m208cb7e9f9" x="417.760168" y="82.848253" style="stroke: #000000; stroke-width: 1.5"/>
      </g>
     </g>
    </g>
    <g id="ytick_28">
     <g id="line2d_117">
      <g>
       <use xlink:href="#m00e85cdb37" x="57.702" y="76.428267" style="stroke: #000000; stroke-width: 1.5"/>
      </g>
     </g>
     <g id="line2d_118">
      <g>
       <use xlink:href="#m208cb7e9f9" x="417.760168" y="76.428267" style="stroke: #000000; stroke-width: 1.5"/>
      </g>
     </g>
    </g>
    <g id="ytick_29">
     <g id="line2d_119">
      <g>
       <use xlink:href="#m00e85cdb37" x="57.702" y="63.588296" style="stroke: #000000; stroke-width: 1.5"/>
      </g>
     </g>
     <g id="line2d_120">
      <g>
       <use xlink:href="#m208cb7e9f9" x="417.760168" y="63.588296" style="stroke: #000000; stroke-width: 1.5"/>
      </g>
     </g>
    </g>
    <g id="ytick_30">
     <g id="line2d_121">
      <g>
       <use xlink:href="#m00e85cdb37" x="57.702" y="57.168311" style="stroke: #000000; stroke-width: 1.5"/>
      </g>
     </g>
     <g id="line2d_122">
      <g>
       <use xlink:href="#m208cb7e9f9" x="417.760168" y="57.168311" style="stroke: #000000; stroke-width: 1.5"/>
      </g>
     </g>
    </g>
    <g id="ytick_31">
     <g id="line2d_123">
      <g>
       <use xlink:href="#m00e85cdb37" x="57.702" y="50.748325" style="stroke: #000000; stroke-width: 1.5"/>
      </g>
     </g>
     <g id="line2d_124">
      <g>
       <use xlink:href="#m208cb7e9f9" x="417.760168" y="50.748325" style="stroke: #000000; stroke-width: 1.5"/>
      </g>
     </g>
    </g>
    <g id="ytick_32">
     <g id="line2d_125">
      <g>
       <use xlink:href="#m00e85cdb37" x="57.702" y="44.32834" style="stroke: #000000; stroke-width: 1.5"/>
      </g>
     </g>
     <g id="line2d_126">
      <g>
       <use xlink:href="#m208cb7e9f9" x="417.760168" y="44.32834" style="stroke: #000000; stroke-width: 1.5"/>
      </g>
     </g>
    </g>
    <g id="ytick_33">
     <g id="line2d_127">
      <g>
       <use xlink:href="#m00e85cdb37" x="57.702" y="31.488369" style="stroke: #000000; stroke-width: 1.5"/>
      </g>
     </g>
     <g id="line2d_128">
      <g>
       <use xlink:href="#m208cb7e9f9" x="417.760168" y="31.488369" style="stroke: #000000; stroke-width: 1.5"/>
      </g>
     </g>
    </g>
    <g id="ytick_34">
     <g id="line2d_129">
      <g>
       <use xlink:href="#m00e85cdb37" x="57.702" y="25.068383" style="stroke: #000000; stroke-width: 1.5"/>
      </g>
     </g>
     <g id="line2d_130">
      <g>
       <use xlink:href="#m208cb7e9f9" x="417.760168" y="25.068383" style="stroke: #000000; stroke-width: 1.5"/>
      </g>
     </g>
    </g>
    <g id="ytick_35">
     <g id="line2d_131">
      <g>
       <use xlink:href="#m00e85cdb37" x="57.702" y="18.648398" style="stroke: #000000; stroke-width: 1.5"/>
      </g>
     </g>
     <g id="line2d_132">
      <g>
       <use xlink:href="#m208cb7e9f9" x="417.760168" y="18.648398" style="stroke: #000000; stroke-width: 1.5"/>
      </g>
     </g>
    </g>
    <g id="ytick_36">
     <g id="line2d_133">
      <g>
       <use xlink:href="#m00e85cdb37" x="57.702" y="12.228412" style="stroke: #000000; stroke-width: 1.5"/>
      </g>
     </g>
     <g id="line2d_134">
      <g>
       <use xlink:href="#m208cb7e9f9" x="417.760168" y="12.228412" style="stroke: #000000; stroke-width: 1.5"/>
      </g>
     </g>
    </g>
    <g id="text_16">
     <!-- $v_r$ [km s$^{-1}$] -->
     <g transform="translate(24.801375 159.282) rotate(-90) scale(0.12 -0.12)">
      <defs>
       <path id="DejaVuSans-Oblique-76" d="M 459 3500 
L 1069 3500 
L 1581 525 
L 3256 3500 
L 3866 3500 
L 1875 0 
L 1100 0 
L 459 3500 
z
" transform="scale(0.015625)"/>
       <path id="DejaVuSans-Oblique-72" d="M 2853 2969 
Q 2766 3016 2653 3041 
Q 2541 3066 2413 3066 
Q 1953 3066 1609 2717 
Q 1266 2369 1153 1784 
L 800 0 
L 225 0 
L 909 3500 
L 1484 3500 
L 1375 2956 
Q 1603 3259 1920 3421 
Q 2238 3584 2597 3584 
Q 2691 3584 2781 3573 
Q 2872 3563 2963 3538 
L 2853 2969 
z
" transform="scale(0.015625)"/>
       <path id="DejaVuSans-6b" d="M 581 4863 
L 1159 4863 
L 1159 1991 
L 2875 3500 
L 3609 3500 
L 1753 1863 
L 3688 0 
L 2938 0 
L 1159 1709 
L 1159 0 
L 581 0 
L 581 4863 
z
" transform="scale(0.015625)"/>
       <path id="DejaVuSans-6d" d="M 3328 2828 
Q 3544 3216 3844 3400 
Q 4144 3584 4550 3584 
Q 5097 3584 5394 3201 
Q 5691 2819 5691 2113 
L 5691 0 
L 5113 0 
L 5113 2094 
Q 5113 2597 4934 2840 
Q 4756 3084 4391 3084 
Q 3944 3084 3684 2787 
Q 3425 2491 3425 1978 
L 3425 0 
L 2847 0 
L 2847 2094 
Q 2847 2600 2669 2842 
Q 2491 3084 2119 3084 
Q 1678 3084 1418 2786 
Q 1159 2488 1159 1978 
L 1159 0 
L 581 0 
L 581 3500 
L 1159 3500 
L 1159 2956 
Q 1356 3278 1631 3431 
Q 1906 3584 2284 3584 
Q 2666 3584 2933 3390 
Q 3200 3197 3328 2828 
z
" transform="scale(0.015625)"/>
       <path id="DejaVuSans-2212" d="M 678 2272 
L 4684 2272 
L 4684 1741 
L 678 1741 
L 678 2272 
z
" transform="scale(0.015625)"/>
      </defs>
      <use xlink:href="#DejaVuSans-Oblique-76" transform="translate(0 0.684375)"/>
      <use xlink:href="#DejaVuSans-Oblique-72" transform="translate(59.179688 -15.721875) scale(0.7)"/>
      <use xlink:href="#DejaVuSans-20" transform="translate(90.693359 0.684375)"/>
      <use xlink:href="#DejaVuSans-5b" transform="translate(122.480469 0.684375)"/>
      <use xlink:href="#DejaVuSans-6b" transform="translate(161.494141 0.684375)"/>
      <use xlink:href="#DejaVuSans-6d" transform="translate(219.404297 0.684375)"/>
      <use xlink:href="#DejaVuSans-20" transform="translate(316.816406 0.684375)"/>
      <use xlink:href="#DejaVuSans-73" transform="translate(348.603516 0.684375)"/>
      <use xlink:href="#DejaVuSans-2212" transform="translate(401.660156 38.965625) scale(0.7)"/>
      <use xlink:href="#DejaVuSans-31" transform="translate(460.3125 38.965625) scale(0.7)"/>
      <use xlink:href="#DejaVuSans-5d" transform="translate(507.583008 0.684375)"/>
     </g>
    </g>
   </g>
   <g id="patch_3">
    <path d="M 57.702 242.124 
L 57.702 10.8 
" style="fill: none; stroke: #000000; stroke-width: 1.5; stroke-linejoin: miter; stroke-linecap: square"/>
   </g>
   <g id="patch_4">
    <path d="M 417.760168 242.124 
L 417.760168 10.8 
" style="fill: none; stroke: #000000; stroke-width: 1.5; stroke-linejoin: miter; stroke-linecap: square"/>
   </g>
   <g id="patch_5">
    <path d="M 57.702 242.124 
L 417.760168 242.124 
" style="fill: none; stroke: #000000; stroke-width: 1.5; stroke-linejoin: miter; stroke-linecap: square"/>
   </g>
   <g id="patch_6">
    <path d="M 57.702 10.8 
L 417.760168 10.8 
" style="fill: none; stroke: #000000; stroke-width: 1.5; stroke-linejoin: miter; stroke-linecap: square"/>
   </g>
   <g id="PolyCollection_1">
    <defs>
     <path id="mc58dce886b" d="M 159.069419 -134.524588 
L 159.069419 -111.500827 
L 159.416713 -106.40396 
L 160.017253 -107.636568 
L 160.597303 -117.480982 
L 161.180234 -109.429717 
L 161.742974 -106.762179 
L 162.337631 -110.30341 
L 162.915915 -108.264969 
L 163.49399 -109.30078 
L 164.072006 -114.51323 
L 164.650021 -112.116728 
L 165.227872 -111.544875 
L 165.805698 -109.479611 
L 166.383619 -110.498711 
L 166.96135 -108.094772 
L 167.539088 -105.130677 
L 168.116872 -107.87112 
L 168.69463 -107.18019 
L 169.272387 -105.629509 
L 169.85008 -104.33549 
L 170.427814 -105.446024 
L 171.005535 -106.056011 
L 171.583142 -108.402089 
L 172.160808 -106.076397 
L 172.738637 -106.938199 
L 173.316303 -106.320941 
L 173.893742 -108.404426 
L 174.471516 -108.120547 
L 175.049228 -105.579626 
L 175.626908 -101.242487 
L 176.204669 -100.329034 
L 176.782479 -108.503777 
L 177.360152 -115.126981 
L 177.937713 -125.969385 
L 178.515746 -121.893367 
L 179.09294 -123.493214 
L 179.670603 -128.760112 
L 180.248137 -125.570398 
L 180.825882 -119.136732 
L 181.403612 -116.827143 
L 181.981306 -110.793696 
L 182.55896 -111.475803 
L 183.136581 -111.895672 
L 183.714189 -108.131704 
L 184.377896 -126.484339 
L 184.849753 -132.318601 
L 185.43879 -129.114696 
L 186.020287 -124.922095 
L 186.599157 -123.067835 
L 187.177411 -123.384827 
L 187.755669 -118.896259 
L 188.333868 -117.783221 
L 188.911728 -119.996651 
L 189.489509 -120.571023 
L 190.067288 -115.622249 
L 190.644987 -114.800474 
L 191.222912 -113.862749 
L 191.800652 -112.591391 
L 192.37831 -109.607061 
L 192.956135 -104.58763 
L 193.533912 -104.953165 
L 194.111683 -107.845494 
L 194.68927 -106.424998 
L 195.267027 -109.574096 
L 195.844704 -108.335564 
L 196.422284 -110.522703 
L 196.999812 -112.57518 
L 197.577479 -108.974117 
L 198.155404 -110.60117 
L 198.732999 -106.703033 
L 199.310445 -109.571406 
L 199.888333 -112.034836 
L 200.466027 -109.032549 
L 201.043536 -108.616341 
L 201.620579 -109.91917 
L 202.200576 -109.676513 
L 202.775627 -110.920793 
L 203.353766 -112.028864 
L 203.929309 -112.953945 
L 204.508481 -112.083322 
L 205.087622 -115.266202 
L 205.663049 -112.475865 
L 206.242618 -112.650952 
L 206.820378 -113.813799 
L 207.399532 -110.778357 
L 207.975636 -115.319511 
L 208.553327 -116.226497 
L 209.129655 -115.250005 
L 209.708613 -115.695685 
L 210.286161 -114.268033 
L 210.863809 -110.355735 
L 211.441762 -113.662533 
L 212.019108 -110.832319 
L 212.596828 -109.290892 
L 213.178632 -112.861248 
L 213.792397 -124.299842 
L 214.331464 -131.221381 
L 214.907266 -133.159498 
L 215.485203 -133.936077 
L 216.07479 -137.544857 
L 216.6253 -134.670074 
L 217.216563 -136.362694 
L 217.79451 -135.377511 
L 218.377694 -133.184084 
L 218.960492 -134.235862 
L 219.525107 -134.42098 
L 220.100658 -133.81694 
L 220.728597 -125.152631 
L 221.261264 -136.385106 
L 221.832383 -134.224981 
L 222.444992 -139.193732 
L 223.001398 -139.588592 
L 223.593932 -137.14594 
L 224.150187 -149.575124 
L 224.708567 -149.200794 
L 225.25489 -146.974596 
L 225.885189 -139.081372 
L 226.488317 -132.350523 
L 227.062895 -135.373845 
L 227.634526 -139.150573 
L 228.172964 -138.954194 
L 228.740242 -142.152206 
L 229.350718 -146.370064 
L 229.927155 -146.802515 
L 230.501321 -143.567556 
L 231.075273 -140.669107 
L 231.693587 -139.044242 
L 232.227247 -138.890168 
L 232.827839 -141.983502 
L 233.393797 -140.523026 
L 233.961329 -140.31051 
L 234.555582 -143.948655 
L 235.132409 -144.450123 
L 235.686048 -145.576414 
L 236.276838 -145.633678 
L 236.847271 -142.357608 
L 237.432111 -142.469423 
L 238.00951 -141.065605 
L 238.589627 -139.472838 
L 239.176537 -143.75408 
L 239.73905 -145.403502 
L 240.313188 -146.869672 
L 240.90248 -146.489452 
L 241.473266 -147.904243 
L 242.057142 -147.298655 
L 242.629946 -148.202438 
L 243.209611 -145.50043 
L 243.768127 -141.338964 
L 244.32982 -127.99904 
L 244.990313 -135.721822 
L 245.523652 -143.649277 
L 246.08819 -145.997749 
L 246.677014 -145.445044 
L 247.277345 -145.104827 
L 247.824528 -141.804073 
L 248.406431 -145.090543 
L 248.990377 -142.942944 
L 249.559807 -142.778748 
L 250.130803 -138.114385 
L 250.727272 -135.780042 
L 251.295306 -138.118721 
L 251.873763 -137.37523 
L 252.450687 -132.420951 
L 253.030295 -131.3751 
L 253.622168 -132.46041 
L 254.191578 -129.407731 
L 254.762759 -137.977682 
L 255.340267 -138.751493 
L 255.932793 -135.354998 
L 256.494286 -132.010215 
L 257.068222 -134.295881 
L 257.642002 -131.745581 
L 258.228533 -134.794111 
L 258.804094 -136.327433 
L 259.395692 -135.245188 
L 259.969445 -133.801178 
L 260.548984 -134.063855 
L 261.106434 -133.35749 
L 261.69147 -133.28668 
L 262.269646 -132.348622 
L 262.84937 -132.059924 
L 263.430974 -133.650332 
L 264.008446 -128.888209 
L 264.580869 -130.690389 
L 265.169981 -128.588949 
L 265.762068 -140.685556 
L 266.318801 -146.761106 
L 266.893855 -145.34455 
L 267.474723 -146.562638 
L 268.019512 -143.245123 
L 268.643507 -142.487609 
L 269.196141 -140.365914 
L 269.774768 -141.360958 
L 270.356394 -140.915134 
L 270.948158 -140.388754 
L 271.515942 -145.505266 
L 272.073946 -139.4749 
L 272.667237 -130.105955 
L 273.249881 -134.145199 
L 273.808656 -136.951595 
L 274.406088 -137.946466 
L 274.974718 -136.598935 
L 275.561941 -136.236857 
L 276.152312 -136.038669 
L 276.710472 -134.232402 
L 277.305681 -141.120879 
L 277.856875 -140.09562 
L 278.454504 -141.309043 
L 279.038309 -146.523886 
L 279.590098 -140.751078 
L 280.159948 -140.757054 
L 280.762785 -138.994677 
L 281.305014 -131.660174 
L 281.928916 -126.627073 
L 282.49143 -124.82835 
L 283.112543 -128.188955 
L 283.650765 -133.211265 
L 284.22446 -133.093982 
L 284.799647 -135.50623 
L 285.377313 -133.808505 
L 285.964254 -137.958354 
L 286.544223 -141.182597 
L 287.120526 -136.300509 
L 287.68419 -140.404026 
L 288.255154 -134.818635 
L 288.855517 -141.573328 
L 289.425693 -142.761236 
L 290.002128 -143.414439 
L 290.583684 -143.244784 
L 291.15397 -146.020912 
L 291.72623 -142.901027 
L 292.318834 -143.399817 
L 292.879192 -144.600935 
L 293.471384 -142.065564 
L 294.047768 -144.662741 
L 294.619255 -145.1739 
L 295.204637 -143.99409 
L 295.776138 -144.584355 
L 296.345523 -144.615682 
L 296.937235 -141.077219 
L 297.518276 -141.70884 
L 298.089376 -143.745176 
L 298.670041 -137.753359 
L 299.240834 -135.424959 
L 299.816922 -133.477749 
L 300.400779 -139.044347 
L 300.97838 -130.980593 
L 301.557675 -127.740937 
L 302.099376 -127.885756 
L 302.732092 -129.763844 
L 303.258238 -129.743593 
L 303.874777 -131.068475 
L 304.448312 -130.150346 
L 305.011795 -129.541135 
L 305.589856 -131.305396 
L 306.170291 -132.378858 
L 306.754937 -132.661511 
L 307.350298 -131.881474 
L 307.905451 -131.969252 
L 308.499458 -132.459564 
L 309.056407 -131.939537 
L 309.634712 -129.863669 
L 310.224425 -131.188596 
L 310.781926 -135.358727 
L 311.378703 -140.20414 
L 311.944933 -137.566017 
L 312.536678 -135.331947 
L 313.108347 -141.170478 
L 313.670447 -138.266321 
L 314.28918 -137.511619 
L 314.836905 -135.612387 
L 315.416646 -133.682496 
L 315.990955 -135.592036 
L 316.568464 -133.012197 
L 317.150143 -134.072055 
L 317.725486 -134.031962 
L 318.31577 -136.268815 
L 318.880234 -135.913092 
L 319.460835 -135.725567 
L 320.037028 -134.921948 
L 320.618837 -136.012858 
L 321.189834 -135.580053 
L 321.777608 -135.457694 
L 322.353517 -137.506069 
L 322.929318 -137.070842 
L 323.499411 -135.161237 
L 324.077771 -137.391817 
L 324.650095 -136.139138 
L 325.232599 -139.783787 
L 325.817543 -140.620483 
L 326.393526 -140.625552 
L 326.976735 -139.661796 
L 327.551023 -140.017253 
L 328.123234 -140.573501 
L 328.713974 -138.639829 
L 329.257579 -141.982061 
L 329.865547 -140.801693 
L 330.451877 -139.766259 
L 331.006308 -141.340422 
L 331.590785 -142.366721 
L 332.159648 -143.306152 
L 332.749077 -149.027143 
L 333.332081 -145.866848 
L 333.902958 -148.672545 
L 334.497876 -149.683318 
L 335.045422 -140.680215 
L 335.636716 -140.271361 
L 336.230791 -142.543035 
L 336.792626 -138.283936 
L 337.365382 -135.677272 
L 337.939867 -133.570026 
L 338.530357 -130.514699 
L 339.103043 -131.622973 
L 339.687711 -126.808873 
L 340.258244 -129.152257 
L 340.838209 -127.778226 
L 341.426352 -129.311999 
L 341.977312 -132.167661 
L 342.579521 -130.217493 
L 343.134072 -127.771973 
L 343.729427 -126.22704 
L 344.290188 -130.239348 
L 344.880405 -129.021679 
L 345.462408 -129.585267 
L 346.027747 -126.243055 
L 346.620934 -128.638258 
L 347.1804 -129.490142 
L 347.765456 -128.685915 
L 348.355679 -128.664294 
L 348.924345 -129.908189 
L 349.493257 -130.211756 
L 350.071056 -126.522588 
L 350.660456 -128.436103 
L 351.233483 -130.011222 
L 351.809523 -131.619307 
L 352.381932 -132.415274 
L 352.965758 -133.803342 
L 353.534782 -132.634747 
L 354.126156 -134.074286 
L 354.704312 -137.739078 
L 355.264728 -139.11562 
L 355.866864 -139.462276 
L 356.417128 -141.800099 
L 357.031114 -139.945585 
L 357.586138 -140.307791 
L 358.153193 -139.964719 
L 358.742523 -137.513159 
L 359.305549 -136.431849 
L 359.903273 -138.855756 
L 360.485287 -140.401513 
L 361.056048 -140.809052 
L 361.632248 -142.446733 
L 362.207826 -140.704706 
L 362.783062 -136.123397 
L 363.361774 -134.064108 
L 363.941759 -135.111067 
L 364.515585 -137.661204 
L 365.102424 -137.798291 
L 365.673198 -138.68048 
L 366.251275 -138.852955 
L 366.826567 -137.950336 
L 367.408971 -137.429839 
L 367.984378 -135.20822 
L 368.555497 -137.828285 
L 369.135884 -137.635672 
L 369.715672 -136.484946 
L 370.29738 -137.58927 
L 370.867713 -132.909662 
L 371.448984 -131.323796 
L 372.035955 -131.647013 
L 372.605157 -132.614343 
L 373.177339 -131.707132 
L 373.761029 -134.269324 
L 374.329035 -130.208839 
L 374.915631 -131.811114 
L 375.494153 -133.525451 
L 376.076903 -133.387144 
L 376.640282 -132.763356 
L 377.245035 -131.752014 
L 377.777365 -131.540513 
L 378.380303 -132.611667 
L 378.958671 -132.551016 
L 379.538388 -132.683201 
L 380.114058 -132.369508 
L 380.685116 -133.101068 
L 381.274659 -133.343597 
L 381.846294 -135.419981 
L 382.426201 -135.52042 
L 383.003117 -134.989332 
L 383.579273 -134.599348 
L 384.156644 -134.524288 
L 384.735697 -134.665604 
L 385.313389 -136.014922 
L 385.89347 -131.081903 
L 386.471562 -130.774799 
L 387.053474 -132.848018 
L 387.623334 -134.402925 
L 388.176352 -133.526292 
L 388.779331 -132.094504 
L 389.357303 -133.518192 
L 389.934684 -133.490689 
L 390.50868 -131.556845 
L 391.073357 -134.422685 
L 391.668379 -138.310228 
L 392.245417 -139.868856 
L 392.822916 -138.185458 
L 393.400124 -136.662998 
L 393.9781 -136.357158 
L 394.500024 -133.832991 
L 395.133509 -138.580694 
L 395.710943 -140.531512 
L 396.288667 -140.497873 
L 396.86668 -137.353539 
L 397.443966 -135.173924 
L 398.021289 -136.7605 
L 398.599149 -140.447797 
L 399.177034 -133.587646 
L 399.754699 -133.598516 
L 400.332393 -134.103085 
L 400.910118 -134.474058 
L 401.393888 -134.666221 
L 401.393888 -149.476248 
L 401.393888 -149.476248 
L 400.910118 -149.25118 
L 400.332393 -148.726324 
L 399.754699 -148.214039 
L 399.177034 -148.749317 
L 398.599149 -156.347695 
L 398.021289 -154.499827 
L 397.443966 -152.348031 
L 396.86668 -153.991924 
L 396.288667 -156.911132 
L 395.710943 -157.343491 
L 395.133509 -155.459415 
L 394.500024 -157.259977 
L 393.9781 -157.919026 
L 393.400124 -158.686742 
L 392.822916 -158.48975 
L 392.245417 -156.711729 
L 391.668379 -155.387067 
L 391.073357 -155.569373 
L 390.50868 -155.695733 
L 389.934684 -157.642312 
L 389.357303 -157.635213 
L 388.779331 -153.987405 
L 388.176352 -155.448512 
L 387.623334 -154.637727 
L 387.053474 -155.319645 
L 386.471562 -152.595668 
L 385.89347 -148.859015 
L 385.313389 -154.929487 
L 384.735697 -153.595907 
L 384.156644 -153.505521 
L 383.579273 -155.496108 
L 383.003117 -157.587466 
L 382.426201 -157.325352 
L 381.846294 -159.508791 
L 381.274659 -160.948015 
L 380.685116 -163.692644 
L 380.114058 -158.396339 
L 379.538388 -159.95028 
L 378.958671 -158.672406 
L 378.380303 -157.663315 
L 377.777365 -154.191229 
L 377.245035 -156.989637 
L 376.640282 -159.856603 
L 376.076903 -160.188168 
L 375.494153 -159.793477 
L 374.915631 -156.922789 
L 374.329035 -154.61239 
L 373.761029 -157.007981 
L 373.177339 -156.752903 
L 372.605157 -157.355788 
L 372.035955 -154.334516 
L 371.448984 -153.55478 
L 370.867713 -153.042407 
L 370.29738 -157.060841 
L 369.715672 -155.881785 
L 369.135884 -156.731666 
L 368.555497 -154.61103 
L 367.984378 -152.960236 
L 367.408971 -154.883976 
L 366.826567 -154.558853 
L 366.251275 -154.667864 
L 365.673198 -155.137567 
L 365.102424 -156.434857 
L 364.515585 -156.760433 
L 363.941759 -157.254188 
L 363.361774 -154.030381 
L 362.783062 -155.369176 
L 362.207826 -159.467598 
L 361.632248 -159.539709 
L 361.056048 -158.763839 
L 360.485287 -163.142078 
L 359.903273 -163.230954 
L 359.305549 -166.696554 
L 358.742523 -172.512717 
L 358.153193 -166.122647 
L 357.586138 -164.7694 
L 357.031114 -161.652875 
L 356.417128 -169.216974 
L 355.866864 -171.415015 
L 355.264728 -176.485232 
L 354.704312 -179.857934 
L 354.126156 -187.066686 
L 353.534782 -194.405878 
L 352.965758 -191.134939 
L 352.381932 -191.501521 
L 351.809523 -182.857836 
L 351.233483 -193.156849 
L 350.660456 -184.713605 
L 350.071056 -175.72324 
L 349.493257 -180.239676 
L 348.924345 -188.455037 
L 348.355679 -190.984043 
L 347.765456 -199.826481 
L 347.1804 -189.00777 
L 346.620934 -188.251606 
L 346.027747 -188.038826 
L 345.462408 -194.386691 
L 344.880405 -188.389718 
L 344.290188 -192.779188 
L 343.729427 -174.726384 
L 343.134072 -170.695986 
L 342.579521 -186.935278 
L 341.977312 -186.597776 
L 341.426352 -190.99403 
L 340.838209 -193.818349 
L 340.258244 -195.165289 
L 339.687711 -195.105688 
L 339.103043 -190.838741 
L 338.530357 -192.030442 
L 337.939867 -194.869883 
L 337.365382 -191.831955 
L 336.792626 -196.777633 
L 336.230791 -201.69934 
L 335.636716 -194.408047 
L 335.045422 -192.845683 
L 334.497876 -198.213251 
L 333.902958 -198.725591 
L 333.332081 -200.077555 
L 332.749077 -204.105731 
L 332.159648 -207.435414 
L 331.590785 -211.139862 
L 331.006308 -206.672301 
L 330.451877 -191.786293 
L 329.865547 -193.086502 
L 329.257579 -190.69666 
L 328.713974 -189.969839 
L 328.123234 -187.436551 
L 327.551023 -185.078701 
L 326.976735 -182.470828 
L 326.393526 -182.207577 
L 325.817543 -181.79511 
L 325.232599 -180.922872 
L 324.650095 -181.014842 
L 324.077771 -184.48954 
L 323.499411 -177.583412 
L 322.929318 -184.379722 
L 322.353517 -185.798142 
L 321.777608 -186.615708 
L 321.189834 -182.753423 
L 320.618837 -181.583647 
L 320.037028 -179.33318 
L 319.460835 -182.745802 
L 318.880234 -183.342756 
L 318.31577 -181.196763 
L 317.725486 -177.852272 
L 317.150143 -183.503823 
L 316.568464 -179.745362 
L 315.990955 -177.28258 
L 315.416646 -180.308906 
L 314.836905 -183.166375 
L 314.28918 -186.124012 
L 313.670447 -183.951151 
L 313.108347 -178.127327 
L 312.536678 -181.325174 
L 311.944933 -184.757695 
L 311.378703 -180.55661 
L 310.781926 -176.344685 
L 310.224425 -171.411603 
L 309.634712 -170.184646 
L 309.056407 -176.820278 
L 308.499458 -173.853525 
L 307.905451 -172.282288 
L 307.350298 -171.865471 
L 306.754937 -176.573443 
L 306.170291 -179.560253 
L 305.589856 -179.371035 
L 305.011795 -178.28955 
L 304.448312 -182.215375 
L 303.874777 -170.046528 
L 303.258238 -167.418772 
L 302.732092 -164.3389 
L 302.099376 -173.393625 
L 301.557675 -173.377862 
L 300.97838 -179.077226 
L 300.400779 -180.141137 
L 299.816922 -181.579194 
L 299.240834 -188.105151 
L 298.670041 -183.745248 
L 298.089376 -181.229096 
L 297.518276 -186.264775 
L 296.937235 -187.770719 
L 296.345523 -186.733002 
L 295.776138 -182.897156 
L 295.204637 -184.225258 
L 294.619255 -184.176552 
L 294.047768 -189.506448 
L 293.471384 -183.594903 
L 292.879192 -181.282145 
L 292.318834 -181.699418 
L 291.72623 -181.159953 
L 291.15397 -179.67294 
L 290.583684 -177.71489 
L 290.002128 -180.272903 
L 289.425693 -184.679069 
L 288.855517 -187.074805 
L 288.255154 -184.928554 
L 287.68419 -205.110669 
L 287.120526 -188.541016 
L 286.544223 -189.728641 
L 285.964254 -181.161796 
L 285.377313 -171.32203 
L 284.799647 -174.743878 
L 284.22446 -177.948386 
L 283.650765 -179.457269 
L 283.112543 -178.390497 
L 282.49143 -184.130063 
L 281.928916 -186.149877 
L 281.305014 -183.374451 
L 280.762785 -187.389155 
L 280.159948 -186.579468 
L 279.590098 -185.061102 
L 279.038309 -186.189304 
L 278.454504 -193.81135 
L 277.856875 -182.077524 
L 277.305681 -188.858297 
L 276.710472 -178.26427 
L 276.152312 -177.571962 
L 275.561941 -189.269785 
L 274.974718 -180.20611 
L 274.406088 -177.042695 
L 273.808656 -174.240031 
L 273.249881 -175.919868 
L 272.667237 -167.937834 
L 272.073946 -181.614225 
L 271.515942 -186.457192 
L 270.948158 -187.103533 
L 270.356394 -188.377171 
L 269.774768 -186.329825 
L 269.196141 -181.743529 
L 268.643507 -183.967985 
L 268.019512 -185.471557 
L 267.474723 -183.545134 
L 266.893855 -188.577543 
L 266.318801 -191.190197 
L 265.762068 -184.825018 
L 265.169981 -172.68102 
L 264.580869 -171.544006 
L 264.008446 -171.413034 
L 263.430974 -177.723848 
L 262.84937 -170.700695 
L 262.269646 -176.204602 
L 261.69147 -178.068708 
L 261.106434 -178.365176 
L 260.548984 -175.315173 
L 259.969445 -169.815617 
L 259.395692 -176.523087 
L 258.804094 -173.081936 
L 258.228533 -181.236687 
L 257.642002 -180.45136 
L 257.068222 -172.041721 
L 256.494286 -172.326738 
L 255.932793 -188.167754 
L 255.340267 -195.243128 
L 254.762759 -180.855679 
L 254.191578 -174.413582 
L 253.622168 -173.856334 
L 253.030295 -191.169239 
L 252.450687 -174.365785 
L 251.873763 -172.771885 
L 251.295306 -171.113557 
L 250.727272 -176.21511 
L 250.130803 -188.516376 
L 249.559807 -186.453829 
L 248.990377 -186.459869 
L 248.406431 -206.72596 
L 247.824528 -189.370915 
L 247.277345 -208.132001 
L 246.677014 -205.007249 
L 246.08819 -206.954906 
L 245.523652 -192.520603 
L 244.990313 -194.472274 
L 244.32982 -217.325977 
L 243.768127 -228.250779 
L 243.209611 -209.482929 
L 242.629946 -211.769589 
L 242.057142 -216.740056 
L 241.473266 -213.419605 
L 240.90248 -210.711806 
L 240.313188 -208.843829 
L 239.73905 -209.344432 
L 239.176537 -203.635614 
L 238.589627 -204.676369 
L 238.00951 -205.000254 
L 237.432111 -207.691992 
L 236.847271 -209.520935 
L 236.276838 -196.612668 
L 235.686048 -201.71985 
L 235.132409 -204.8685 
L 234.555582 -204.562606 
L 233.961329 -203.828506 
L 233.393797 -199.774063 
L 232.827839 -204.447075 
L 232.227247 -199.431924 
L 231.693587 -200.841011 
L 231.075273 -203.181674 
L 230.501321 -209.053368 
L 229.927155 -202.531 
L 229.350718 -205.582391 
L 228.740242 -197.888231 
L 228.172964 -190.843694 
L 227.634526 -189.162769 
L 227.062895 -187.245047 
L 226.488317 -193.36841 
L 225.885189 -199.210166 
L 225.25489 -215.619177 
L 224.708567 -204.893267 
L 224.150187 -198.679005 
L 223.593932 -196.122102 
L 223.001398 -197.98831 
L 222.444992 -189.847945 
L 221.832383 -193.832373 
L 221.261264 -192.301552 
L 220.728597 -184.036062 
L 220.100658 -192.923248 
L 219.525107 -189.376119 
L 218.960492 -188.763055 
L 218.377694 -187.168045 
L 217.79451 -187.580877 
L 217.216563 -184.488468 
L 216.6253 -183.660182 
L 216.07479 -181.321623 
L 215.485203 -183.501729 
L 214.907266 -180.650965 
L 214.331464 -177.168112 
L 213.792397 -173.974442 
L 213.178632 -165.188306 
L 212.596828 -168.749092 
L 212.019108 -163.454 
L 211.441762 -163.492657 
L 210.863809 -164.134938 
L 210.286161 -163.683778 
L 209.708613 -162.158072 
L 209.129655 -157.143454 
L 208.553327 -158.387664 
L 207.975636 -157.296385 
L 207.399532 -154.86131 
L 206.820378 -155.365936 
L 206.242618 -160.045235 
L 205.663049 -157.196121 
L 205.087622 -156.139611 
L 204.508481 -157.415369 
L 203.929309 -157.098825 
L 203.353766 -156.947457 
L 202.775627 -163.459924 
L 202.200576 -160.549867 
L 201.620579 -160.630959 
L 201.043536 -161.272852 
L 200.466027 -160.445215 
L 199.888333 -164.040076 
L 199.310445 -160.043969 
L 198.732999 -159.102371 
L 198.155404 -162.264673 
L 197.577479 -155.658973 
L 196.999812 -158.808916 
L 196.422284 -155.772904 
L 195.844704 -162.064297 
L 195.267027 -158.014509 
L 194.68927 -160.986191 
L 194.111683 -158.724695 
L 193.533912 -157.186567 
L 192.956135 -153.696388 
L 192.37831 -158.4439 
L 191.800652 -164.638829 
L 191.222912 -161.216425 
L 190.644987 -164.511969 
L 190.067288 -172.678286 
L 189.489509 -165.39938 
L 188.911728 -166.71484 
L 188.333868 -168.577718 
L 187.755669 -170.156811 
L 187.177411 -168.221677 
L 186.599157 -163.991653 
L 186.020287 -162.907357 
L 185.43879 -161.794582 
L 184.849753 -171.149134 
L 184.377896 -157.497922 
L 183.714189 -175.025752 
L 183.136581 -175.708974 
L 182.55896 -177.33737 
L 181.981306 -178.221555 
L 181.403612 -178.768861 
L 180.825882 -166.305467 
L 180.248137 -170.614374 
L 179.670603 -174.432115 
L 179.09294 -168.353047 
L 178.515746 -173.706657 
L 177.937713 -175.584153 
L 177.360152 -176.821466 
L 176.782479 -183.310988 
L 176.204669 -168.175577 
L 175.626908 -167.726089 
L 175.049228 -162.37087 
L 174.471516 -153.500432 
L 173.893742 -151.652188 
L 173.316303 -148.253925 
L 172.738637 -153.971841 
L 172.160808 -147.905284 
L 171.583142 -149.331035 
L 171.005535 -152.786235 
L 170.427814 -154.876759 
L 169.85008 -153.065803 
L 169.272387 -156.320878 
L 168.69463 -150.790845 
L 168.116872 -146.935119 
L 167.539088 -142.627417 
L 166.96135 -145.020274 
L 166.383619 -145.288861 
L 165.805698 -144.957901 
L 165.227872 -141.408617 
L 164.650021 -141.88904 
L 164.072006 -142.265682 
L 163.49399 -136.760217 
L 162.915915 -131.485697 
L 162.337631 -128.566253 
L 161.742974 -131.176515 
L 161.180234 -137.71202 
L 160.597303 -142.160805 
L 160.017253 -143.056441 
L 159.416713 -129.303296 
L 159.069419 -134.524588 
z
" style="stroke: #add8e6"/>
    </defs>
    <g clip-path="url(#p6f0897fc79)">
     <use xlink:href="#mc58dce886b" x="0" y="288" style="fill: #add8e6; stroke: #add8e6"/>
    </g>
   </g>
   <g id="line2d_135">
    <path d="M 159.069419 164.987292 
L 159.416713 170.146372 
L 160.017253 162.653495 
L 160.597303 158.179106 
L 161.180234 164.429131 
L 161.742974 169.030653 
L 162.915915 168.124667 
L 163.49399 164.969501 
L 164.072006 159.610544 
L 164.650021 160.997116 
L 165.227872 161.523254 
L 166.383619 160.106214 
L 166.96135 161.442477 
L 167.539088 164.120953 
L 168.116872 160.59688 
L 168.69463 159.014483 
L 169.272387 157.024806 
L 169.85008 159.299354 
L 170.427814 157.838608 
L 171.005535 158.578877 
L 171.583142 159.133438 
L 172.160808 161.00916 
L 172.738637 157.54498 
L 173.316303 160.712567 
L 173.893742 157.971693 
L 174.471516 157.18951 
L 175.049228 154.024752 
L 175.626908 153.515712 
L 176.204669 153.747694 
L 176.782479 142.092617 
L 177.360152 142.025776 
L 177.937713 137.223231 
L 178.515746 140.199988 
L 179.09294 142.076869 
L 179.670603 136.403886 
L 180.248137 139.907614 
L 180.825882 145.2789 
L 181.403612 140.201998 
L 181.981306 143.492375 
L 182.55896 143.593413 
L 183.136581 144.197677 
L 183.714189 146.421272 
L 184.377896 146.00887 
L 184.849753 136.266132 
L 185.43879 142.545361 
L 186.020287 144.085274 
L 186.599157 144.470256 
L 187.177411 142.196748 
L 188.333868 144.81953 
L 188.911728 144.644254 
L 189.489509 145.014799 
L 190.067288 143.849732 
L 190.644987 148.343779 
L 191.222912 150.460413 
L 191.800652 149.38489 
L 192.956135 158.857991 
L 194.111683 154.714906 
L 194.68927 154.294405 
L 195.267027 154.205697 
L 195.844704 152.80007 
L 196.422284 154.852196 
L 196.999812 152.307952 
L 197.577479 155.683455 
L 198.155404 151.567078 
L 198.732999 155.097298 
L 199.310445 153.192313 
L 199.888333 149.962544 
L 200.466027 153.261118 
L 201.043536 153.055403 
L 201.620579 152.724936 
L 202.200576 152.88681 
L 202.775627 150.809641 
L 203.353766 153.511839 
L 203.929309 152.973615 
L 204.508481 153.250654 
L 205.087622 152.297093 
L 205.663049 153.164007 
L 206.242618 151.651906 
L 207.399532 155.180166 
L 207.975636 151.692052 
L 208.553327 150.69292 
L 209.129655 151.80327 
L 209.708613 149.073122 
L 210.286161 149.024095 
L 210.863809 150.754663 
L 211.441762 149.422405 
L 212.019108 150.85684 
L 212.596828 148.980008 
L 213.178632 148.975223 
L 213.792397 138.862858 
L 214.331464 133.805253 
L 214.907266 131.094768 
L 215.485203 129.281097 
L 216.07479 128.56676 
L 216.6253 128.834872 
L 217.79451 126.520806 
L 218.377694 127.823935 
L 218.960492 126.500541 
L 219.525107 126.10145 
L 220.100658 124.629906 
L 220.728597 133.405654 
L 221.261264 123.656671 
L 221.832383 123.971323 
L 222.444992 123.479161 
L 223.001398 119.211549 
L 223.593932 121.365979 
L 224.150187 113.872935 
L 224.708567 110.95297 
L 225.25489 106.703114 
L 225.885189 118.854231 
L 226.488317 125.140534 
L 227.062895 126.690554 
L 227.634526 123.843329 
L 228.172964 123.101056 
L 229.350718 112.023773 
L 229.927155 113.333243 
L 230.501321 111.689538 
L 231.075273 116.07461 
L 231.693587 118.057374 
L 232.227247 118.838954 
L 232.827839 114.784711 
L 233.393797 117.851455 
L 234.555582 113.74437 
L 235.132409 113.340689 
L 235.686048 114.351868 
L 236.276838 116.876827 
L 236.847271 112.060729 
L 237.432111 112.919292 
L 238.00951 114.967071 
L 238.589627 115.925396 
L 239.176537 114.305153 
L 239.73905 110.626033 
L 240.313188 110.143249 
L 240.90248 109.399371 
L 241.473266 107.338076 
L 242.057142 105.980644 
L 242.629946 108.013987 
L 243.209611 110.50832 
L 243.768127 103.205129 
L 244.32982 115.337491 
L 244.990313 122.902952 
L 245.523652 119.91506 
L 246.08819 111.523673 
L 246.677014 112.773854 
L 247.277345 111.381586 
L 247.824528 122.412506 
L 248.406431 112.091748 
L 248.990377 123.298594 
L 249.559807 123.383711 
L 250.130803 124.684619 
L 250.727272 132.002424 
L 251.295306 133.383861 
L 251.873763 132.926442 
L 252.450687 134.606632 
L 253.030295 126.72783 
L 253.622168 134.841628 
L 254.191578 136.089343 
L 255.340267 121.002689 
L 255.932793 126.238624 
L 256.494286 135.831524 
L 257.068222 134.831199 
L 257.642002 131.90153 
L 258.228533 129.984601 
L 258.804094 133.295316 
L 259.395692 132.115862 
L 259.969445 136.191603 
L 260.548984 133.310486 
L 261.106434 132.138667 
L 261.69147 132.322306 
L 262.269646 133.723388 
L 262.84937 136.619691 
L 263.430974 132.31291 
L 264.008446 137.849378 
L 264.580869 136.882802 
L 265.169981 137.365016 
L 265.762068 125.244713 
L 266.318801 119.024348 
L 267.474723 122.946114 
L 268.019512 123.64166 
L 268.643507 124.772203 
L 269.196141 126.945279 
L 269.774768 124.154608 
L 270.356394 123.353847 
L 270.948158 124.253857 
L 271.515942 122.018771 
L 272.073946 127.455438 
L 272.667237 138.978106 
L 273.249881 132.967466 
L 273.808656 132.404187 
L 274.406088 130.50542 
L 274.974718 129.597477 
L 275.561941 125.246679 
L 276.152312 131.194684 
L 276.710472 131.751664 
L 277.305681 123.010412 
L 277.856875 126.913428 
L 278.454504 120.439804 
L 279.038309 121.643405 
L 279.590098 125.09391 
L 280.159948 124.331739 
L 280.762785 124.808084 
L 281.305014 130.482687 
L 281.928916 131.611525 
L 282.49143 133.520793 
L 283.112543 134.710274 
L 283.650765 131.665733 
L 284.22446 132.478816 
L 284.799647 132.874946 
L 285.377313 135.434732 
L 286.544223 122.544381 
L 287.120526 125.579237 
L 287.68419 115.242652 
L 288.255154 128.126406 
L 288.855517 123.675934 
L 289.425693 124.279848 
L 290.002128 126.156329 
L 290.583684 127.520163 
L 291.15397 125.153074 
L 291.72623 125.96951 
L 292.879192 125.05846 
L 293.471384 125.169766 
L 294.047768 120.915405 
L 294.619255 123.324774 
L 295.204637 123.890326 
L 295.776138 124.259245 
L 296.345523 122.325658 
L 296.937235 123.576031 
L 297.518276 124.013192 
L 298.670041 127.250696 
L 299.240834 126.234945 
L 299.816922 130.471528 
L 300.400779 128.407258 
L 301.557675 137.4406 
L 302.099376 137.36031 
L 302.732092 140.948628 
L 303.874777 137.442499 
L 304.448312 131.817139 
L 305.011795 134.084657 
L 305.589856 132.661784 
L 306.170291 132.030444 
L 306.754937 133.382523 
L 307.350298 136.126528 
L 307.905451 135.87423 
L 308.499458 134.843456 
L 309.056407 133.620092 
L 309.634712 137.975843 
L 310.224425 136.6999 
L 311.378703 127.619625 
L 311.944933 126.838144 
L 312.536678 129.671439 
L 313.670447 126.891264 
L 314.28918 126.182185 
L 315.416646 131.004299 
L 315.990955 131.562692 
L 316.568464 131.62122 
L 317.150143 129.212061 
L 317.725486 132.057883 
L 318.31577 129.267211 
L 318.880234 128.372076 
L 319.460835 128.764316 
L 320.037028 130.872436 
L 320.618837 129.201747 
L 321.189834 128.833262 
L 321.777608 126.963299 
L 322.353517 126.347894 
L 322.929318 127.274718 
L 323.499411 131.627675 
L 324.077771 127.059321 
L 324.650095 129.42301 
L 325.232599 127.646671 
L 325.817543 126.792204 
L 326.393526 126.583435 
L 326.976735 126.933688 
L 328.123234 123.994974 
L 328.713974 123.695166 
L 329.257579 121.660639 
L 329.865547 121.055902 
L 330.451877 122.223724 
L 331.006308 113.993638 
L 331.590785 111.246709 
L 332.159648 112.629217 
L 332.749077 111.433563 
L 333.332081 115.027799 
L 333.902958 114.300932 
L 334.497876 114.051715 
L 335.045422 121.237051 
L 335.636716 120.660296 
L 336.230791 115.878812 
L 337.365382 124.245386 
L 337.939867 123.780045 
L 338.530357 126.72743 
L 339.103043 126.769143 
L 339.687711 127.042719 
L 340.258244 125.841227 
L 340.838209 127.201712 
L 341.426352 127.846985 
L 342.579521 129.423614 
L 343.134072 138.766021 
L 343.729427 137.523288 
L 344.290188 126.490732 
L 344.880405 129.294302 
L 345.462408 126.014021 
L 346.027747 130.85906 
L 346.620934 129.555068 
L 347.1804 128.751044 
L 347.765456 123.743802 
L 348.355679 128.175832 
L 348.924345 128.818387 
L 350.071056 136.877086 
L 351.233483 126.415965 
L 351.809523 130.761428 
L 352.381932 126.041602 
L 352.965758 125.53086 
L 353.534782 124.479688 
L 354.126156 127.429514 
L 354.704312 129.201494 
L 355.264728 130.199574 
L 355.866864 132.561355 
L 356.417128 132.491464 
L 357.031114 137.20077 
L 357.586138 135.461404 
L 358.153193 134.956317 
L 358.742523 132.987062 
L 359.305549 136.435799 
L 359.903273 136.956645 
L 360.485287 136.228205 
L 361.056048 138.213555 
L 361.632248 137.006779 
L 362.207826 137.913848 
L 362.783062 142.253713 
L 363.361774 143.952756 
L 363.941759 141.817372 
L 364.515585 140.789181 
L 365.102424 140.883426 
L 366.251275 141.239591 
L 366.826567 141.745406 
L 367.408971 141.843092 
L 367.984378 143.915772 
L 368.555497 141.780343 
L 369.135884 140.816331 
L 369.715672 141.816635 
L 370.29738 140.674945 
L 370.867713 145.023966 
L 371.448984 145.560712 
L 372.035955 145.009236 
L 372.605157 143.014935 
L 373.177339 143.769982 
L 373.761029 142.361347 
L 374.329035 145.589385 
L 375.494153 141.340536 
L 376.076903 141.212344 
L 376.640282 141.690021 
L 377.777365 145.134129 
L 378.380303 142.862509 
L 378.958671 142.388289 
L 379.538388 141.683259 
L 380.114058 142.617076 
L 380.685116 139.603144 
L 381.274659 140.854194 
L 381.846294 140.535614 
L 382.426201 141.577114 
L 383.003117 141.711601 
L 384.156644 143.985096 
L 384.735697 143.869245 
L 385.313389 142.527796 
L 385.89347 148.029541 
L 386.471562 146.314767 
L 387.053474 143.916168 
L 387.623334 143.479674 
L 388.176352 143.512598 
L 388.779331 144.959046 
L 389.357303 142.423297 
L 389.934684 142.433499 
L 390.50868 144.373711 
L 391.073357 143.003971 
L 392.245417 139.709708 
L 392.822916 139.662396 
L 393.9781 140.861908 
L 394.500024 142.453516 
L 395.133509 140.979945 
L 395.710943 139.062499 
L 396.288667 139.295497 
L 396.86668 142.327268 
L 397.443966 144.239022 
L 398.021289 142.369837 
L 398.599149 139.602254 
L 399.177034 146.831518 
L 399.754699 147.093723 
L 400.910118 146.137381 
L 401.393888 145.928765 
L 401.393888 145.928765 
" clip-path="url(#p6f0897fc79)" style="fill: none; stroke: #1f77b4; stroke-width: 1.5; stroke-linecap: square"/>
   </g>
   <g id="line2d_136">
    <path d="M 74.06828 231.609273 
L 75.919291 226.998371 
L 76.6126 224.076699 
L 77.30674 220.375676 
L 78.463362 213.074464 
L 83.08736 182.892216 
L 84.705635 174.043684 
L 86.323909 166.297986 
L 88.173841 158.704896 
L 90.022942 152.246779 
L 91.872873 146.731256 
L 93.491148 142.544396 
L 95.340249 138.369048 
L 97.19018 134.729006 
L 98.807625 131.939704 
L 100.657556 129.13 
L 102.506657 126.685967 
L 104.587415 124.250244 
L 107.129825 121.641995 
L 109.441409 119.596047 
L 111.984649 117.641686 
L 114.758716 115.794988 
L 117.532782 114.198378 
L 120.768502 112.586322 
L 124.235877 111.101206 
L 128.397393 109.583306 
L 133.713869 107.969094 
L 139.262003 106.584504 
L 144.57848 105.480407 
L 152.20488 104.167922 
L 159.370458 103.152991 
L 167.69847 102.179559 
L 177.861468 101.214676 
L 188.032769 100.425965 
L 206.756266 99.395579 
L 264.554166 97.581016 
L 292.98399 96.897349 
L 297.376331 96.799521 
L 297.376331 96.799521 
" clip-path="url(#p6f0897fc79)" style="fill: none; stroke: #000000; stroke-width: 2.5; stroke-linecap: square"/>
   </g>
   <g id="line2d_137">
    <path d="M 74.06828 194.457721 
L 75.225152 153.407861 
L 76.150117 130.444071 
L 76.844257 117.893572 
L 78.000879 101.479405 
L 79.156671 87.385363 
L 80.081637 78.772337 
L 81.006602 72.286895 
L 82.162394 66.292435 
L 83.319016 61.729201 
L 84.474808 58.147927 
L 85.6306 55.246967 
L 87.018049 52.413398 
L 88.404667 50.086854 
L 89.792116 48.129348 
L 91.641217 45.963256 
L 93.721974 43.967242 
L 95.571905 42.475044 
L 97.883489 40.896204 
L 100.657556 39.317363 
L 103.662449 37.895764 
L 106.436516 36.779023 
L 109.903891 35.585266 
L 114.296233 34.349791 
L 118.919401 33.367829 
L 125.391669 32.215789 
L 136.718762 30.601649 
L 146.658407 29.472071 
L 154.745629 28.68586 
L 178.791415 26.805371 
L 198.669044 25.544224 
L 232.18867 23.801723 
L 285.120952 21.719065 
L 297.608818 21.314727 
L 297.608818 21.314727 
" clip-path="url(#p6f0897fc79)" style="fill: none; stroke-dasharray: 9.25,4; stroke-dashoffset: 0; stroke: #8b0000; stroke-width: 2.5"/>
   </g>
   <g id="legend_1">
    <g id="line2d_138">
     <path d="M 330.516418 23.898438 
L 340.516418 23.898438 
L 350.516418 23.898438 
" style="fill: none; stroke: #1f77b4; stroke-width: 1.5; stroke-linecap: square"/>
    </g>
    <g id="text_17">
     <!-- PSP -->
     <g transform="translate(358.516418 27.398438) scale(0.1 -0.1)">
      <defs>
       <path id="DejaVuSans-50" d="M 1259 4147 
L 1259 2394 
L 2053 2394 
Q 2494 2394 2734 2622 
Q 2975 2850 2975 3272 
Q 2975 3691 2734 3919 
Q 2494 4147 2053 4147 
L 1259 4147 
z
M 628 4666 
L 2053 4666 
Q 2838 4666 3239 4311 
Q 3641 3956 3641 3272 
Q 3641 2581 3239 2228 
Q 2838 1875 2053 1875 
L 1259 1875 
L 1259 0 
L 628 0 
L 628 4666 
z
" transform="scale(0.015625)"/>
       <path id="DejaVuSans-53" d="M 3425 4513 
L 3425 3897 
Q 3066 4069 2747 4153 
Q 2428 4238 2131 4238 
Q 1616 4238 1336 4038 
Q 1056 3838 1056 3469 
Q 1056 3159 1242 3001 
Q 1428 2844 1947 2747 
L 2328 2669 
Q 3034 2534 3370 2195 
Q 3706 1856 3706 1288 
Q 3706 609 3251 259 
Q 2797 -91 1919 -91 
Q 1588 -91 1214 -16 
Q 841 59 441 206 
L 441 856 
Q 825 641 1194 531 
Q 1563 422 1919 422 
Q 2459 422 2753 634 
Q 3047 847 3047 1241 
Q 3047 1584 2836 1778 
Q 2625 1972 2144 2069 
L 1759 2144 
Q 1053 2284 737 2584 
Q 422 2884 422 3419 
Q 422 4038 858 4394 
Q 1294 4750 2059 4750 
Q 2388 4750 2728 4690 
Q 3069 4631 3425 4513 
z
" transform="scale(0.015625)"/>
      </defs>
      <use xlink:href="#DejaVuSans-50"/>
      <use xlink:href="#DejaVuSans-53" x="60.302734"/>
      <use xlink:href="#DejaVuSans-50" x="123.779297"/>
     </g>
    </g>
    <g id="line2d_139">
     <path d="M 330.516418 38.576562 
L 340.516418 38.576562 
L 350.516418 38.576562 
" style="fill: none; stroke: #000000; stroke-width: 2.5; stroke-linecap: square"/>
    </g>
    <g id="text_18">
     <!-- Slow wind -->
     <g transform="translate(358.516418 42.076562) scale(0.1 -0.1)">
      <defs>
       <path id="DejaVuSans-6c" d="M 603 4863 
L 1178 4863 
L 1178 0 
L 603 0 
L 603 4863 
z
" transform="scale(0.015625)"/>
       <path id="DejaVuSans-6f" d="M 1959 3097 
Q 1497 3097 1228 2736 
Q 959 2375 959 1747 
Q 959 1119 1226 758 
Q 1494 397 1959 397 
Q 2419 397 2687 759 
Q 2956 1122 2956 1747 
Q 2956 2369 2687 2733 
Q 2419 3097 1959 3097 
z
M 1959 3584 
Q 2709 3584 3137 3096 
Q 3566 2609 3566 1747 
Q 3566 888 3137 398 
Q 2709 -91 1959 -91 
Q 1206 -91 779 398 
Q 353 888 353 1747 
Q 353 2609 779 3096 
Q 1206 3584 1959 3584 
z
" transform="scale(0.015625)"/>
       <path id="DejaVuSans-77" d="M 269 3500 
L 844 3500 
L 1563 769 
L 2278 3500 
L 2956 3500 
L 3675 769 
L 4391 3500 
L 4966 3500 
L 4050 0 
L 3372 0 
L 2619 2869 
L 1863 0 
L 1184 0 
L 269 3500 
z
" transform="scale(0.015625)"/>
       <path id="DejaVuSans-64" d="M 2906 2969 
L 2906 4863 
L 3481 4863 
L 3481 0 
L 2906 0 
L 2906 525 
Q 2725 213 2448 61 
Q 2172 -91 1784 -91 
Q 1150 -91 751 415 
Q 353 922 353 1747 
Q 353 2572 751 3078 
Q 1150 3584 1784 3584 
Q 2172 3584 2448 3432 
Q 2725 3281 2906 2969 
z
M 947 1747 
Q 947 1113 1208 752 
Q 1469 391 1925 391 
Q 2381 391 2643 752 
Q 2906 1113 2906 1747 
Q 2906 2381 2643 2742 
Q 2381 3103 1925 3103 
Q 1469 3103 1208 2742 
Q 947 2381 947 1747 
z
" transform="scale(0.015625)"/>
      </defs>
      <use xlink:href="#DejaVuSans-53"/>
      <use xlink:href="#DejaVuSans-6c" x="63.476562"/>
      <use xlink:href="#DejaVuSans-6f" x="91.259766"/>
      <use xlink:href="#DejaVuSans-77" x="152.441406"/>
      <use xlink:href="#DejaVuSans-20" x="234.228516"/>
      <use xlink:href="#DejaVuSans-77" x="266.015625"/>
      <use xlink:href="#DejaVuSans-69" x="347.802734"/>
      <use xlink:href="#DejaVuSans-6e" x="375.585938"/>
      <use xlink:href="#DejaVuSans-64" x="438.964844"/>
     </g>
    </g>
    <g id="line2d_140">
     <path d="M 330.516418 53.254687 
L 340.516418 53.254687 
L 350.516418 53.254687 
" style="fill: none; stroke-dasharray: 9.25,4; stroke-dashoffset: 0; stroke: #8b0000; stroke-width: 2.5"/>
    </g>
    <g id="text_19">
     <!-- Fast wind -->
     <g transform="translate(358.516418 56.754687) scale(0.1 -0.1)">
      <defs>
       <path id="DejaVuSans-46" d="M 628 4666 
L 3309 4666 
L 3309 4134 
L 1259 4134 
L 1259 2759 
L 3109 2759 
L 3109 2228 
L 1259 2228 
L 1259 0 
L 628 0 
L 628 4666 
z
" transform="scale(0.015625)"/>
      </defs>
      <use xlink:href="#DejaVuSans-46"/>
      <use xlink:href="#DejaVuSans-61" x="48.394531"/>
      <use xlink:href="#DejaVuSans-73" x="109.673828"/>
      <use xlink:href="#DejaVuSans-74" x="161.773438"/>
      <use xlink:href="#DejaVuSans-20" x="200.982422"/>
      <use xlink:href="#DejaVuSans-77" x="232.769531"/>
      <use xlink:href="#DejaVuSans-69" x="314.556641"/>
      <use xlink:href="#DejaVuSans-6e" x="342.339844"/>
      <use xlink:href="#DejaVuSans-64" x="405.71875"/>
     </g>
    </g>
   </g>
  </g>
 </g>
 <defs>
  <clipPath id="p6f0897fc79">
   <rect x="57.702" y="10.8" width="360.058168" height="231.324"/>
  </clipPath>
 </defs>
</svg>
