<?xml version="1.0" encoding="utf-8" standalone="no"?>
<!DOCTYPE svg PUBLIC "-//W3C//DTD SVG 1.1//EN"
  "http://www.w3.org/Graphics/SVG/1.1/DTD/svg11.dtd">
<svg xmlns:xlink="http://www.w3.org/1999/xlink" width="432pt" height="288pt" viewBox="0 0 432 288" xmlns="http://www.w3.org/2000/svg" version="1.1">
 <metadata>
  <rdf:RDF xmlns:dc="http://purl.org/dc/elements/1.1/" xmlns:cc="http://creativecommons.org/ns#" xmlns:rdf="http://www.w3.org/1999/02/22-rdf-syntax-ns#">
   <cc:Work>
    <dc:type rdf:resource="http://purl.org/dc/dcmitype/StillImage"/>
    <dc:date>2022-11-22T12:39:43.880768</dc:date>
    <dc:format>image/svg+xml</dc:format>
    <dc:creator>
     <cc:Agent>
      <dc:title>Matplotlib v3.6.2, https://matplotlib.org/</dc:title>
     </cc:Agent>
    </dc:creator>
   </cc:Work>
  </rdf:RDF>
 </metadata>
 <defs>
  <style type="text/css">*{stroke-linejoin: round; stroke-linecap: butt}</style>
 </defs>
 <g id="figure_1">
  <g id="patch_1">
   <path d="M 0 288 
L 432 288 
L 432 0 
L 0 0 
z
" style="fill: #ffffff"/>
  </g>
  <g id="axes_1">
   <g id="patch_2">
    <path d="M 57.702 242.124 
L 421.2 242.124 
L 421.2 10.8 
L 57.702 10.8 
z
" style="fill: #ffffff"/>
   </g>
   <g id="patch_3">
    <path d="M 57.702 242.124 
L 57.702 10.8 
" style="fill: none; stroke: #000000; stroke-width: 1.5; stroke-linejoin: miter; stroke-linecap: square"/>
   </g>
   <g id="patch_4">
    <path d="M 421.2 242.124 
L 421.2 10.8 
" style="fill: none; stroke: #000000; stroke-width: 1.5; stroke-linejoin: miter; stroke-linecap: square"/>
   </g>
   <g id="patch_5">
    <path d="M 57.702 242.124 
L 421.2 242.124 
" style="fill: none; stroke: #000000; stroke-width: 1.5; stroke-linejoin: miter; stroke-linecap: square"/>
   </g>
   <g id="patch_6">
    <path d="M 57.702 10.8 
L 421.2 10.8 
" style="fill: none; stroke: #000000; stroke-width: 1.5; stroke-linejoin: miter; stroke-linecap: square"/>
   </g>
   <g id="PolyCollection_1">
    <defs>
     <path id="m8baf412785" d="M 199.879062 -134.524588 
L 199.879062 -111.500827 
L 200.392456 -106.40396 
L 201.280215 -107.636568 
L 202.137684 -117.480982 
L 202.999412 -109.429717 
L 203.831293 -106.762179 
L 204.710354 -110.30341 
L 205.565213 -108.264969 
L 206.419762 -109.30078 
L 207.274225 -114.51323 
L 208.128686 -112.116728 
L 208.982905 -111.544875 
L 209.837085 -109.479611 
L 210.691407 -110.498711 
L 211.545449 -108.094772 
L 212.399499 -105.130677 
L 213.253618 -107.87112 
L 214.107699 -107.18019 
L 214.961779 -105.629509 
L 215.815764 -104.33549 
L 216.66981 -105.446024 
L 217.523836 -106.056011 
L 218.377694 -108.402089 
L 219.231639 -106.076397 
L 220.085824 -106.938199 
L 220.939769 -106.320941 
L 221.793378 -108.404426 
L 222.647483 -108.120547 
L 223.501496 -105.579626 
L 224.355461 -101.242487 
L 225.209547 -100.329034 
L 226.063705 -108.503777 
L 226.91766 -115.126981 
L 227.77145 -125.969385 
L 228.625937 -121.893367 
L 229.479185 -123.493214 
L 230.333125 -128.760112 
L 231.186874 -125.570398 
L 232.040937 -119.136732 
L 232.894976 -116.827143 
L 233.748963 -110.793696 
L 234.602889 -111.475803 
L 235.456768 -111.895672 
L 236.310626 -108.131704 
L 237.291763 -126.484339 
L 237.989295 -132.318601 
L 238.860049 -129.114696 
L 239.719656 -124.922095 
L 240.575382 -123.067835 
L 241.430195 -123.384827 
L 242.285015 -118.896259 
L 243.139748 -117.783221 
L 243.99398 -119.996651 
L 244.848096 -120.571023 
L 245.702207 -115.622249 
L 246.556202 -114.800474 
L 247.410529 -113.862749 
L 248.264583 -112.591391 
L 249.118516 -109.607061 
L 249.972696 -104.58763 
L 250.826805 -104.953165 
L 251.680905 -107.845494 
L 252.534733 -106.424998 
L 253.388813 -109.574096 
L 254.242774 -108.335564 
L 255.096591 -110.522703 
L 255.950332 -112.57518 
L 256.80428 -108.974117 
L 257.658607 -110.60117 
L 258.512447 -106.703033 
L 259.366066 -109.571406 
L 260.22034 -112.034836 
L 261.074326 -109.032549 
L 261.928039 -108.616341 
L 262.781063 -109.91917 
L 263.638454 -109.676513 
L 264.488533 -110.920793 
L 265.343177 -112.028864 
L 266.193983 -112.953945 
L 267.050154 -112.083322 
L 267.90628 -115.266202 
L 268.756916 -112.475865 
L 269.613673 -112.650952 
L 270.467757 -113.813799 
L 271.323901 -110.778357 
L 272.175538 -115.319511 
L 273.02952 -116.226497 
L 273.881486 -115.250005 
L 274.737341 -115.695685 
L 275.591111 -114.268033 
L 276.44503 -110.355735 
L 277.299398 -113.662533 
L 278.152871 -110.832319 
L 279.006896 -109.290892 
L 279.866958 -112.861248 
L 280.774267 -124.299842 
L 281.571152 -131.221381 
L 282.422341 -133.159498 
L 283.276686 -133.936077 
L 284.148254 -137.544857 
L 284.962055 -134.670074 
L 285.8361 -136.362694 
L 286.690461 -135.377511 
L 287.552563 -133.184084 
L 288.414094 -134.235862 
L 289.248746 -134.42098 
L 290.099563 -133.81694 
L 291.027826 -125.152631 
L 291.815251 -136.385106 
L 292.659517 -134.224981 
L 293.565117 -139.193732 
L 294.39615 -169.385429 
L 295.285991 -160.294973 
L 296.086073 -171.744637 
L 296.898159 -175.270345 
L 297.67028 -185.195479 
L 298.653885 -180.591257 
L 299.564929 -141.878231 
L 300.405126 -139.430982 
L 301.24718 -145.492204 
L 302.022788 -146.21091 
L 302.846748 -154.406386 
L 303.775689 -171.11113 
L 304.626595 -174.192825 
L 305.471349 -176.650936 
L 306.317704 -154.722922 
L 307.260861 -151.591255 
L 308.020513 -149.872777 
L 308.919875 -154.208265 
L 309.751148 -151.453993 
L 310.585672 -150.374462 
L 311.470989 -155.763879 
L 312.323982 -158.622981 
L 313.131125 -159.523288 
L 314.010776 -158.426501 
L 314.845273 -171.832983 
L 315.716005 -180.797577 
L 316.569919 -168.042526 
L 317.429612 -165.812557 
L 318.305645 -170.411521 
L 319.123819 -170.403829 
L 319.969181 -171.481425 
L 320.850898 -169.217728 
L 321.689029 -174.391823 
L 322.557177 -180.612554 
L 323.399485 -175.338643 
L 324.258571 -170.045375 
L 325.055334 -189.088298 
L 325.785583 -180.686512 
L 326.953386 -155.437497 
L 327.682204 -157.493983 
L 328.505091 -168.639138 
L 329.385463 -164.793939 
L 330.295657 -168.084574 
L 331.07713 -156.939291 
L 331.940056 -161.530919 
L 332.807481 -158.924758 
L 333.644497 -157.911711 
L 334.482298 -153.540015 
L 335.377865 -150.630948 
L 336.21161 -150.446132 
L 337.067079 -148.035233 
L 337.919487 -140.149347 
L 338.77689 -142.424737 
L 339.6608 -145.240761 
L 340.497407 -139.715792 
L 341.338141 -154.902727 
L 342.191734 -153.644109 
L 343.076491 -146.625686 
L 343.89683 -144.188344 
L 344.742828 -145.640603 
L 345.587792 -141.566446 
L 346.461158 -145.737828 
L 347.310564 -147.678497 
L 348.197172 -146.19541 
L 349.040952 -145.046154 
L 349.900149 -146.391724 
L 350.705303 -145.002657 
L 351.576694 -146.721403 
L 352.431912 -146.957515 
L 353.290812 -146.608616 
L 354.154715 -151.028042 
L 355.0079 -141.020035 
L 355.84926 -140.716379 
L 356.731095 -140.88482 
L 357.613054 -151.694189 
L 358.422864 -162.037142 
L 359.27155 -157.524447 
L 360.131636 -159.92536 
L 360.917311 -161.364613 
L 361.867492 -159.063141 
L 362.669431 -154.620001 
L 363.524779 -157.450547 
L 364.387152 -156.447899 
L 365.271599 -154.834775 
L 366.10444 -159.097288 
L 366.915604 -147.415399 
L 367.803363 -137.743707 
L 368.668475 -144.693138 
L 369.481394 -148.907513 
L 370.378354 -151.126001 
L 371.212927 -148.572518 
L 372.087178 -148.281888 
L 372.968981 -150.164856 
L 373.780338 -146.471131 
L 374.670966 -151.943 
L 375.471067 -151.15286 
L 376.367524 -163.033911 
L 377.231114 -156.286805 
L 378.029316 -153.880315 
L 378.864239 -153.928103 
L 379.779086 -156.20873 
L 380.519726 -152.115707 
L 381.535027 -157.714051 
L 382.328553 -157.553447 
L 383.303271 -142.200526 
L 384.046018 -143.101473 
L 384.891167 -142.085999 
L 385.739771 -146.436107 
L 386.593758 -146.369976 
L 387.468667 -150.154183 
L 388.326581 -153.753277 
L 389.179331 -150.549008 
L 390.0007 -157.542586 
L 390.834681 -155.472419 
L 391.743286 -156.764784 
L 392.581524 -157.736384 
L 393.432903 -157.587402 
L 394.29448 -156.057707 
L 395.133959 -160.186967 
L 395.97624 -160.3671 
L 396.861355 -161.467162 
L 397.679324 -160.215257 
L 398.563851 -160.880788 
L 399.414835 -163.291514 
L 400.256056 -161.342306 
L 401.125591 -160.806944 
L 401.967242 -158.944754 
L 402.804043 -159.120607 
L 403.687276 -158.966355 
L 404.547063 -151.515436 
L 404.547063 -182.996137 
L 404.547063 -182.996137 
L 403.687276 -182.342375 
L 402.804043 -180.99407 
L 401.967242 -176.319288 
L 401.125591 -177.033956 
L 400.256056 -177.397586 
L 399.414835 -183.503045 
L 398.563851 -175.566348 
L 397.679324 -173.829175 
L 396.861355 -172.037796 
L 395.97624 -170.41608 
L 395.133959 -170.135175 
L 394.29448 -169.827516 
L 393.432903 -170.765217 
L 392.581524 -177.522506 
L 391.743286 -181.574557 
L 390.834681 -178.138901 
L 390.0007 -207.581184 
L 389.179331 -187.509665 
L 388.326581 -187.05975 
L 387.468667 -177.243265 
L 386.593758 -160.745245 
L 385.739771 -167.067497 
L 384.891167 -171.390555 
L 384.046018 -173.711645 
L 383.303271 -170.500938 
L 382.328553 -171.672581 
L 381.535027 -172.253453 
L 380.519726 -173.27941 
L 379.779086 -180.078187 
L 378.864239 -181.272761 
L 378.029316 -178.838784 
L 377.231114 -181.97565 
L 376.367524 -187.493043 
L 375.471067 -175.758803 
L 374.670966 -185.705778 
L 373.780338 -172.079715 
L 372.968981 -171.240159 
L 372.087178 -186.407094 
L 371.212927 -173.906188 
L 370.378354 -170.107398 
L 369.481394 -165.771795 
L 368.668475 -167.373411 
L 367.803363 -158.335369 
L 366.915604 -178.725045 
L 366.10444 -179.782885 
L 365.271599 -179.746508 
L 364.387152 -181.351805 
L 363.524779 -177.735776 
L 362.669431 -171.982793 
L 361.867492 -171.870297 
L 360.917311 -173.076416 
L 360.131636 -173.435108 
L 359.27155 -182.650349 
L 358.422864 -182.337792 
L 357.613054 -178.206891 
L 356.731095 -154.149337 
L 355.84926 -160.095584 
L 355.0079 -159.634077 
L 354.154715 -163.958371 
L 353.290812 -155.958847 
L 352.431912 -163.610959 
L 351.576694 -168.966198 
L 350.705303 -169.63087 
L 349.900149 -166.857706 
L 349.040952 -157.864213 
L 348.197172 -167.775757 
L 347.310564 -164.829216 
L 346.461158 -175.988971 
L 345.587792 -175.251492 
L 344.742828 -163.623296 
L 343.89683 -163.408522 
L 343.076491 -184.683212 
L 342.191734 -191.127209 
L 341.338141 -170.381298 
L 340.497407 -166.328397 
L 339.6608 -164.143209 
L 338.77689 -187.938781 
L 337.919487 -168.853372 
L 337.067079 -164.855455 
L 336.21161 -160.198402 
L 335.377865 -164.222428 
L 334.482298 -182.151041 
L 333.644497 -178.236666 
L 332.807481 -177.15106 
L 331.940056 -205.065818 
L 331.07713 -183.102555 
L 330.295657 -207.799129 
L 329.385463 -204.343809 
L 328.505091 -204.622992 
L 327.682204 -187.142435 
L 326.953386 -186.953523 
L 325.785583 -228.457579 
L 325.055334 -229.488424 
L 324.258571 -205.049517 
L 323.399485 -206.570318 
L 322.557177 -214.991061 
L 321.689029 -209.387786 
L 320.850898 -208.541894 
L 319.969181 -206.404454 
L 319.123819 -205.380616 
L 318.305645 -196.933367 
L 317.429612 -199.944179 
L 316.569919 -202.499247 
L 315.716005 -199.235226 
L 314.845273 -203.967896 
L 314.010776 -190.920564 
L 313.131125 -197.157959 
L 312.323982 -201.136159 
L 311.470989 -201.68776 
L 310.585672 -201.476173 
L 309.751148 -196.679823 
L 308.919875 -200.572151 
L 308.020513 -197.055308 
L 307.260861 -200.656016 
L 306.317704 -203.608505 
L 305.471349 -207.532394 
L 304.626595 -199.156084 
L 303.775689 -204.43082 
L 302.846748 -197.879516 
L 302.022788 -188.512504 
L 301.24718 -188.001871 
L 300.405126 -186.664263 
L 299.564929 -195.696521 
L 298.653885 -192.318871 
L 297.67028 -209.546061 
L 296.898159 -198.748628 
L 296.086073 -190.755429 
L 295.285991 -194.576238 
L 294.39615 -196.49193 
L 293.565117 -189.847945 
L 292.659517 -193.832373 
L 291.815251 -192.301552 
L 291.027826 -184.036062 
L 290.099563 -192.923248 
L 289.248746 -189.376119 
L 288.414094 -188.763055 
L 287.552563 -187.168045 
L 286.690461 -187.580877 
L 285.8361 -184.488468 
L 284.962055 -183.660182 
L 284.148254 -181.321623 
L 283.276686 -183.501729 
L 282.422341 -180.650965 
L 281.571152 -177.168112 
L 280.774267 -173.974442 
L 279.866958 -165.188306 
L 279.006896 -168.749092 
L 278.152871 -163.454 
L 277.299398 -163.492657 
L 276.44503 -164.134938 
L 275.591111 -163.683778 
L 274.737341 -162.158072 
L 273.881486 -157.143454 
L 273.02952 -158.387664 
L 272.175538 -157.296385 
L 271.323901 -154.86131 
L 270.467757 -155.365936 
L 269.613673 -160.045235 
L 268.756916 -157.196121 
L 267.90628 -156.139611 
L 267.050154 -157.415369 
L 266.193983 -157.098825 
L 265.343177 -156.947457 
L 264.488533 -163.459924 
L 263.638454 -160.549867 
L 262.781063 -160.630959 
L 261.928039 -161.272852 
L 261.074326 -160.445215 
L 260.22034 -164.040076 
L 259.366066 -160.043969 
L 258.512447 -159.102371 
L 257.658607 -162.264673 
L 256.80428 -155.658973 
L 255.950332 -158.808916 
L 255.096591 -155.772904 
L 254.242774 -162.064297 
L 253.388813 -158.014509 
L 252.534733 -160.986191 
L 251.680905 -158.724695 
L 250.826805 -157.186567 
L 249.972696 -153.696388 
L 249.118516 -158.4439 
L 248.264583 -164.638829 
L 247.410529 -161.216425 
L 246.556202 -164.511969 
L 245.702207 -172.678286 
L 244.848096 -165.39938 
L 243.99398 -166.71484 
L 243.139748 -168.577718 
L 242.285015 -170.156811 
L 241.430195 -168.221677 
L 240.575382 -163.991653 
L 239.719656 -162.907357 
L 238.860049 -161.794582 
L 237.989295 -171.149134 
L 237.291763 -157.497922 
L 236.310626 -175.025752 
L 235.456768 -175.708974 
L 234.602889 -177.33737 
L 233.748963 -178.221555 
L 232.894976 -178.768861 
L 232.040937 -166.305467 
L 231.186874 -170.614374 
L 230.333125 -174.432115 
L 229.479185 -168.353047 
L 228.625937 -173.706657 
L 227.77145 -175.584153 
L 226.91766 -176.821466 
L 226.063705 -183.310988 
L 225.209547 -168.175577 
L 224.355461 -167.726089 
L 223.501496 -162.37087 
L 222.647483 -153.500432 
L 221.793378 -151.652188 
L 220.939769 -148.253925 
L 220.085824 -153.971841 
L 219.231639 -147.905284 
L 218.377694 -149.331035 
L 217.523836 -152.786235 
L 216.66981 -154.876759 
L 215.815764 -153.065803 
L 214.961779 -156.320878 
L 214.107699 -150.790845 
L 213.253618 -146.935119 
L 212.399499 -142.627417 
L 211.545449 -145.020274 
L 210.691407 -145.288861 
L 209.837085 -144.957901 
L 208.982905 -141.408617 
L 208.128686 -141.88904 
L 207.274225 -142.265682 
L 206.419762 -136.760217 
L 205.565213 -131.485697 
L 204.710354 -128.566253 
L 203.831293 -131.176515 
L 202.999412 -137.71202 
L 202.137684 -142.160805 
L 201.280215 -143.056441 
L 200.392456 -129.303296 
L 199.879062 -134.524588 
z
" style="stroke: #add8e6"/>
    </defs>
    <g clip-path="url(#p6dcd5c0bb5)">
     <use xlink:href="#m8baf412785" x="0" y="288" style="fill: #add8e6; stroke: #add8e6"/>
    </g>
   </g>
   <g id="line2d_1">
    <path d="M 199.879062 164.987292 
L 200.392456 170.146372 
L 201.280215 162.653495 
L 202.137684 158.179106 
L 202.999412 164.429131 
L 203.831293 169.030653 
L 205.565213 168.124667 
L 206.419762 164.969501 
L 207.274225 159.610544 
L 208.128686 160.997116 
L 208.982905 161.523254 
L 210.691407 160.106214 
L 211.545449 161.442477 
L 212.399499 164.120953 
L 213.253618 160.59688 
L 214.107699 159.014483 
L 214.961779 157.024806 
L 215.815764 159.299354 
L 216.66981 157.838608 
L 217.523836 158.578877 
L 218.377694 159.133438 
L 219.231639 161.00916 
L 220.085824 157.54498 
L 220.939769 160.712567 
L 221.793378 157.971693 
L 222.647483 157.18951 
L 223.501496 154.024752 
L 224.355461 153.515712 
L 225.209547 153.747694 
L 226.063705 142.092617 
L 226.91766 142.025776 
L 227.77145 137.223231 
L 228.625937 140.199988 
L 229.479185 142.076869 
L 230.333125 136.403886 
L 231.186874 139.907614 
L 232.040937 145.2789 
L 232.894976 140.201998 
L 233.748963 143.492375 
L 234.602889 143.593413 
L 235.456768 144.197677 
L 236.310626 146.421272 
L 237.291763 146.00887 
L 237.989295 136.266132 
L 238.860049 142.545361 
L 239.719656 144.085274 
L 240.575382 144.470256 
L 241.430195 142.196748 
L 243.139748 144.81953 
L 243.99398 144.644254 
L 244.848096 145.014799 
L 245.702207 143.849732 
L 246.556202 148.343779 
L 247.410529 150.460413 
L 248.264583 149.38489 
L 249.972696 158.857991 
L 250.826805 156.930134 
L 251.680905 154.714906 
L 252.534733 154.294405 
L 253.388813 154.205697 
L 254.242774 152.80007 
L 255.096591 154.852196 
L 255.950332 152.307952 
L 256.80428 155.683455 
L 257.658607 151.567078 
L 258.512447 155.097298 
L 259.366066 153.192313 
L 260.22034 149.962544 
L 261.074326 153.261118 
L 261.928039 153.055403 
L 262.781063 152.724936 
L 263.638454 152.88681 
L 264.488533 150.809641 
L 265.343177 153.511839 
L 266.193983 152.973615 
L 267.050154 153.250654 
L 267.90628 152.297093 
L 268.756916 153.164007 
L 269.613673 151.651906 
L 271.323901 155.180166 
L 272.175538 151.692052 
L 273.02952 150.69292 
L 273.881486 151.80327 
L 274.737341 149.073122 
L 275.591111 149.024095 
L 276.44503 150.754663 
L 277.299398 149.422405 
L 278.152871 150.85684 
L 279.006896 148.980008 
L 279.866958 148.975223 
L 280.774267 138.862858 
L 281.571152 133.805253 
L 282.422341 131.094768 
L 283.276686 129.281097 
L 284.148254 128.56676 
L 284.962055 128.834872 
L 286.690461 126.520806 
L 287.552563 127.823935 
L 288.414094 126.500541 
L 289.248746 126.10145 
L 290.099563 124.629906 
L 291.027826 133.405654 
L 291.815251 123.656671 
L 292.659517 123.971323 
L 293.565117 123.479161 
L 294.39615 105.06132 
L 295.285991 110.564395 
L 296.086073 106.749967 
L 296.898159 100.990514 
L 297.67028 90.62923 
L 298.653885 101.544936 
L 299.564929 119.212624 
L 300.405126 124.952378 
L 301.24718 121.252963 
L 302.022788 120.638293 
L 302.846748 111.857049 
L 303.775689 100.229025 
L 304.626595 101.325545 
L 305.471349 95.908335 
L 306.317704 108.834287 
L 308.020513 114.535958 
L 308.919875 110.609792 
L 309.751148 113.933092 
L 310.585672 112.074682 
L 311.470989 109.27418 
L 312.323982 108.12043 
L 313.131125 109.659376 
L 314.010776 113.326468 
L 314.845273 100.09956 
L 315.716005 97.983598 
L 316.569919 102.729113 
L 317.429612 105.121632 
L 318.305645 104.327556 
L 319.123819 100.107777 
L 319.969181 99.05706 
L 320.850898 99.120189 
L 321.689029 96.110196 
L 322.557177 90.198193 
L 323.399485 97.04552 
L 324.258571 100.452554 
L 325.055334 78.711639 
L 325.785583 83.427955 
L 326.953386 116.80449 
L 327.682204 115.681791 
L 328.505091 101.368935 
L 329.385463 103.431126 
L 330.295657 100.058148 
L 331.07713 117.979077 
L 331.940056 104.701631 
L 332.807481 119.962091 
L 333.644497 119.925811 
L 334.482298 120.154472 
L 335.377865 130.573312 
L 336.21161 132.677733 
L 337.067079 131.554656 
L 337.919487 133.498641 
L 338.77689 122.818241 
L 339.6608 133.308015 
L 340.497407 134.977906 
L 342.191734 115.614341 
L 343.076491 122.345551 
L 343.89683 134.201567 
L 344.742828 133.36805 
L 345.587792 129.591031 
L 346.461158 127.1366 
L 347.310564 131.746144 
L 348.197172 131.014417 
L 349.040952 136.544816 
L 349.900149 131.375285 
L 350.705303 130.683236 
L 351.576694 130.156199 
L 352.431912 132.715763 
L 353.290812 136.716268 
L 354.154715 130.506793 
L 355.0079 137.672944 
L 355.84926 137.594018 
L 356.731095 140.482922 
L 357.613054 123.04946 
L 358.422864 115.812533 
L 359.27155 117.912602 
L 360.131636 121.319766 
L 360.917311 120.779486 
L 361.867492 122.533281 
L 362.669431 124.698603 
L 363.524779 120.406838 
L 364.387152 119.100148 
L 365.271599 120.709358 
L 366.10444 118.559914 
L 366.915604 124.929778 
L 367.803363 139.960462 
L 368.668475 131.966726 
L 369.481394 130.660346 
L 370.378354 127.383301 
L 371.212927 126.760647 
L 372.087178 120.655509 
L 372.968981 127.297492 
L 373.780338 128.724577 
L 374.670966 119.175611 
L 375.471067 124.544168 
L 376.367524 112.736523 
L 377.231114 118.868773 
L 378.029316 121.640451 
L 378.864239 120.399568 
L 379.779086 119.856541 
L 380.519726 125.302441 
L 381.535027 123.016248 
L 382.328553 123.386986 
L 383.303271 131.649268 
L 384.046018 129.593441 
L 384.891167 131.261723 
L 385.739771 131.248198 
L 386.593758 134.442389 
L 387.468667 124.301276 
L 388.326581 117.593487 
L 389.179331 118.970663 
L 390.0007 105.438115 
L 390.834681 121.19434 
L 391.743286 118.83033 
L 392.581524 120.370555 
L 393.432903 123.823691 
L 394.29448 125.057388 
L 395.133959 122.838929 
L 395.97624 122.60841 
L 396.861355 121.247521 
L 397.679324 120.977784 
L 398.563851 119.776432 
L 399.414835 114.602721 
L 400.256056 118.630054 
L 401.125591 119.07955 
L 401.967242 120.367979 
L 402.804043 117.942662 
L 403.687276 117.345635 
L 404.547063 120.744214 
L 404.547063 120.744214 
" clip-path="url(#p6dcd5c0bb5)" style="fill: none; stroke: #1f77b4; stroke-width: 1.5; stroke-linecap: square"/>
   </g>
   <g id="line2d_2">
    <path d="M 74.224636 231.609273 
L 76.618475 227.799978 
L 77.644599 225.19715 
L 79.011946 220.375676 
L 80.379292 214.612906 
L 87.216026 184.236862 
L 89.608269 175.228081 
L 91.659289 168.407068 
L 93.709082 162.355561 
L 95.417652 157.847535 
L 97.468672 152.991925 
L 99.860915 148.032387 
L 101.911935 144.266855 
L 104.302951 140.381375 
L 106.695194 136.941558 
L 108.746214 134.304433 
L 111.47968 131.196374 
L 114.214374 128.486112 
L 117.289063 125.845196 
L 120.706202 123.254273 
L 123.782119 121.209724 
L 126.858035 119.405565 
L 130.275174 117.641686 
L 134.033537 115.940589 
L 137.793127 114.447914 
L 142.235162 112.910914 
L 147.019649 111.475227 
L 152.829031 109.981087 
L 158.637186 108.701785 
L 166.155139 107.300534 
L 176.065334 105.797318 
L 185.633079 104.613121 
L 194.862056 103.651493 
L 213.997546 102.081378 
L 230.05221 101.080463 
L 243.038321 100.411818 
L 258.761582 99.729402 
L 267.991786 99.459401 
L 343.84639 97.796899 
L 369.474936 97.34903 
L 387.247989 97.059733 
L 404.333686 96.799521 
L 404.333686 96.799521 
" clip-path="url(#p6dcd5c0bb5)" style="fill: none; stroke: #000000; stroke-width: 2.5; stroke-linecap: square"/>
   </g>
   <g id="line2d_3">
    <path d="M 74.224636 194.457721 
L 75.934802 153.407861 
L 76.960926 135.376344 
L 77.985822 121.821419 
L 79.011946 111.003793 
L 80.379292 98.482175 
L 81.746639 87.385363 
L 82.772763 80.585436 
L 84.14011 73.788719 
L 85.165006 69.710047 
L 86.189902 66.292435 
L 87.557249 62.573174 
L 88.924596 59.482882 
L 90.633166 56.334827 
L 92.341735 53.748352 
L 94.392755 51.197177 
L 96.101325 49.400122 
L 98.152345 47.551724 
L 100.202138 45.963256 
L 102.936831 44.16941 
L 106.012748 42.475044 
L 109.087437 41.043819 
L 112.504576 39.686401 
L 116.264166 38.412418 
L 121.048652 37.042163 
L 125.833139 35.883705 
L 132.667418 34.513451 
L 140.526593 33.367829 
L 150.094338 32.215789 
L 166.497589 30.63053 
L 181.191043 29.494535 
L 206.817134 27.915694 
L 226.296302 26.933732 
L 258.417904 25.544224 
L 307.968881 23.801723 
L 386.216955 21.719065 
L 404.677364 21.314727 
L 404.677364 21.314727 
" clip-path="url(#p6dcd5c0bb5)" style="fill: none; stroke-dasharray: 9.25,4; stroke-dashoffset: 0; stroke: #8b0000; stroke-width: 2.5"/>
   </g>
   <g id="legend_1">
    <g id="line2d_4">
     <path d="M 333.95625 198.188062 
L 343.95625 198.188062 
L 353.95625 198.188062 
" style="fill: none; stroke: #1f77b4; stroke-width: 1.5; stroke-linecap: square"/>
    </g>
    <g id="text_1">
     <!-- PSP -->
     <g transform="translate(361.95625 201.688062) scale(0.1 -0.1)">
      <defs>
       <path id="DejaVuSans-50" d="M 1259 4147 
L 1259 2394 
L 2053 2394 
Q 2494 2394 2734 2622 
Q 2975 2850 2975 3272 
Q 2975 3691 2734 3919 
Q 2494 4147 2053 4147 
L 1259 4147 
z
M 628 4666 
L 2053 4666 
Q 2838 4666 3239 4311 
Q 3641 3956 3641 3272 
Q 3641 2581 3239 2228 
Q 2838 1875 2053 1875 
L 1259 1875 
L 1259 0 
L 628 0 
L 628 4666 
z
" transform="scale(0.015625)"/>
       <path id="DejaVuSans-53" d="M 3425 4513 
L 3425 3897 
Q 3066 4069 2747 4153 
Q 2428 4238 2131 4238 
Q 1616 4238 1336 4038 
Q 1056 3838 1056 3469 
Q 1056 3159 1242 3001 
Q 1428 2844 1947 2747 
L 2328 2669 
Q 3034 2534 3370 2195 
Q 3706 1856 3706 1288 
Q 3706 609 3251 259 
Q 2797 -91 1919 -91 
Q 1588 -91 1214 -16 
Q 841 59 441 206 
L 441 856 
Q 825 641 1194 531 
Q 1563 422 1919 422 
Q 2459 422 2753 634 
Q 3047 847 3047 1241 
Q 3047 1584 2836 1778 
Q 2625 1972 2144 2069 
L 1759 2144 
Q 1053 2284 737 2584 
Q 422 2884 422 3419 
Q 422 4038 858 4394 
Q 1294 4750 2059 4750 
Q 2388 4750 2728 4690 
Q 3069 4631 3425 4513 
z
" transform="scale(0.015625)"/>
      </defs>
      <use xlink:href="#DejaVuSans-50"/>
      <use xlink:href="#DejaVuSans-53" x="60.302734"/>
      <use xlink:href="#DejaVuSans-50" x="123.779297"/>
     </g>
    </g>
    <g id="line2d_5">
     <path d="M 333.95625 212.866187 
L 343.95625 212.866187 
L 353.95625 212.866187 
" style="fill: none; stroke: #000000; stroke-width: 2.5; stroke-linecap: square"/>
    </g>
    <g id="text_2">
     <!-- Slow wind -->
     <g transform="translate(361.95625 216.366187) scale(0.1 -0.1)">
      <defs>
       <path id="DejaVuSans-6c" d="M 603 4863 
L 1178 4863 
L 1178 0 
L 603 0 
L 603 4863 
z
" transform="scale(0.015625)"/>
       <path id="DejaVuSans-6f" d="M 1959 3097 
Q 1497 3097 1228 2736 
Q 959 2375 959 1747 
Q 959 1119 1226 758 
Q 1494 397 1959 397 
Q 2419 397 2687 759 
Q 2956 1122 2956 1747 
Q 2956 2369 2687 2733 
Q 2419 3097 1959 3097 
z
M 1959 3584 
Q 2709 3584 3137 3096 
Q 3566 2609 3566 1747 
Q 3566 888 3137 398 
Q 2709 -91 1959 -91 
Q 1206 -91 779 398 
Q 353 888 353 1747 
Q 353 2609 779 3096 
Q 1206 3584 1959 3584 
z
" transform="scale(0.015625)"/>
       <path id="DejaVuSans-77" d="M 269 3500 
L 844 3500 
L 1563 769 
L 2278 3500 
L 2956 3500 
L 3675 769 
L 4391 3500 
L 4966 3500 
L 4050 0 
L 3372 0 
L 2619 2869 
L 1863 0 
L 1184 0 
L 269 3500 
z
" transform="scale(0.015625)"/>
       <path id="DejaVuSans-20" transform="scale(0.015625)"/>
       <path id="DejaVuSans-69" d="M 603 3500 
L 1178 3500 
L 1178 0 
L 603 0 
L 603 3500 
z
M 603 4863 
L 1178 4863 
L 1178 4134 
L 603 4134 
L 603 4863 
z
" transform="scale(0.015625)"/>
       <path id="DejaVuSans-6e" d="M 3513 2113 
L 3513 0 
L 2938 0 
L 2938 2094 
Q 2938 2591 2744 2837 
Q 2550 3084 2163 3084 
Q 1697 3084 1428 2787 
Q 1159 2491 1159 1978 
L 1159 0 
L 581 0 
L 581 3500 
L 1159 3500 
L 1159 2956 
Q 1366 3272 1645 3428 
Q 1925 3584 2291 3584 
Q 2894 3584 3203 3211 
Q 3513 2838 3513 2113 
z
" transform="scale(0.015625)"/>
       <path id="DejaVuSans-64" d="M 2906 2969 
L 2906 4863 
L 3481 4863 
L 3481 0 
L 2906 0 
L 2906 525 
Q 2725 213 2448 61 
Q 2172 -91 1784 -91 
Q 1150 -91 751 415 
Q 353 922 353 1747 
Q 353 2572 751 3078 
Q 1150 3584 1784 3584 
Q 2172 3584 2448 3432 
Q 2725 3281 2906 2969 
z
M 947 1747 
Q 947 1113 1208 752 
Q 1469 391 1925 391 
Q 2381 391 2643 752 
Q 2906 1113 2906 1747 
Q 2906 2381 2643 2742 
Q 2381 3103 1925 3103 
Q 1469 3103 1208 2742 
Q 947 2381 947 1747 
z
" transform="scale(0.015625)"/>
      </defs>
      <use xlink:href="#DejaVuSans-53"/>
      <use xlink:href="#DejaVuSans-6c" x="63.476562"/>
      <use xlink:href="#DejaVuSans-6f" x="91.259766"/>
      <use xlink:href="#DejaVuSans-77" x="152.441406"/>
      <use xlink:href="#DejaVuSans-20" x="234.228516"/>
      <use xlink:href="#DejaVuSans-77" x="266.015625"/>
      <use xlink:href="#DejaVuSans-69" x="347.802734"/>
      <use xlink:href="#DejaVuSans-6e" x="375.585938"/>
      <use xlink:href="#DejaVuSans-64" x="438.964844"/>
     </g>
    </g>
    <g id="line2d_6">
     <path d="M 333.95625 227.544312 
L 343.95625 227.544312 
L 353.95625 227.544312 
" style="fill: none; stroke-dasharray: 9.25,4; stroke-dashoffset: 0; stroke: #8b0000; stroke-width: 2.5"/>
    </g>
    <g id="text_3">
     <!-- Fast wind -->
     <g transform="translate(361.95625 231.044312) scale(0.1 -0.1)">
      <defs>
       <path id="DejaVuSans-46" d="M 628 4666 
L 3309 4666 
L 3309 4134 
L 1259 4134 
L 1259 2759 
L 3109 2759 
L 3109 2228 
L 1259 2228 
L 1259 0 
L 628 0 
L 628 4666 
z
" transform="scale(0.015625)"/>
       <path id="DejaVuSans-61" d="M 2194 1759 
Q 1497 1759 1228 1600 
Q 959 1441 959 1056 
Q 959 750 1161 570 
Q 1363 391 1709 391 
Q 2188 391 2477 730 
Q 2766 1069 2766 1631 
L 2766 1759 
L 2194 1759 
z
M 3341 1997 
L 3341 0 
L 2766 0 
L 2766 531 
Q 2569 213 2275 61 
Q 1981 -91 1556 -91 
Q 1019 -91 701 211 
Q 384 513 384 1019 
Q 384 1609 779 1909 
Q 1175 2209 1959 2209 
L 2766 2209 
L 2766 2266 
Q 2766 2663 2505 2880 
Q 2244 3097 1772 3097 
Q 1472 3097 1187 3025 
Q 903 2953 641 2809 
L 641 3341 
Q 956 3463 1253 3523 
Q 1550 3584 1831 3584 
Q 2591 3584 2966 3190 
Q 3341 2797 3341 1997 
z
" transform="scale(0.015625)"/>
       <path id="DejaVuSans-73" d="M 2834 3397 
L 2834 2853 
Q 2591 2978 2328 3040 
Q 2066 3103 1784 3103 
Q 1356 3103 1142 2972 
Q 928 2841 928 2578 
Q 928 2378 1081 2264 
Q 1234 2150 1697 2047 
L 1894 2003 
Q 2506 1872 2764 1633 
Q 3022 1394 3022 966 
Q 3022 478 2636 193 
Q 2250 -91 1575 -91 
Q 1294 -91 989 -36 
Q 684 19 347 128 
L 347 722 
Q 666 556 975 473 
Q 1284 391 1588 391 
Q 1994 391 2212 530 
Q 2431 669 2431 922 
Q 2431 1156 2273 1281 
Q 2116 1406 1581 1522 
L 1381 1569 
Q 847 1681 609 1914 
Q 372 2147 372 2553 
Q 372 3047 722 3315 
Q 1072 3584 1716 3584 
Q 2034 3584 2315 3537 
Q 2597 3491 2834 3397 
z
" transform="scale(0.015625)"/>
       <path id="DejaVuSans-74" d="M 1172 4494 
L 1172 3500 
L 2356 3500 
L 2356 3053 
L 1172 3053 
L 1172 1153 
Q 1172 725 1289 603 
Q 1406 481 1766 481 
L 2356 481 
L 2356 0 
L 1766 0 
Q 1100 0 847 248 
Q 594 497 594 1153 
L 594 3053 
L 172 3053 
L 172 3500 
L 594 3500 
L 594 4494 
L 1172 4494 
z
" transform="scale(0.015625)"/>
      </defs>
      <use xlink:href="#DejaVuSans-46"/>
      <use xlink:href="#DejaVuSans-61" x="48.394531"/>
      <use xlink:href="#DejaVuSans-73" x="109.673828"/>
      <use xlink:href="#DejaVuSans-74" x="161.773438"/>
      <use xlink:href="#DejaVuSans-20" x="200.982422"/>
      <use xlink:href="#DejaVuSans-77" x="232.769531"/>
      <use xlink:href="#DejaVuSans-69" x="314.556641"/>
      <use xlink:href="#DejaVuSans-6e" x="342.339844"/>
      <use xlink:href="#DejaVuSans-64" x="405.71875"/>
     </g>
    </g>
   </g>
   <g id="matplotlib.axis_1">
    <g id="xtick_1">
     <g id="line2d_7">
      <defs>
       <path id="m187a437d93" d="M 0 0 
L 0 -3.5 
" style="stroke: #000000; stroke-width: 1.5"/>
      </defs>
      <g>
       <use xlink:href="#m187a437d93" x="63.393016" y="242.124" style="stroke: #000000; stroke-width: 1.5"/>
      </g>
     </g>
     <g id="line2d_8">
      <defs>
       <path id="m8b79a51b33" d="M 0 0 
L 0 3.5 
" style="stroke: #000000; stroke-width: 1.5"/>
      </defs>
      <g>
       <use xlink:href="#m8b79a51b33" x="63.393016" y="10.8" style="stroke: #000000; stroke-width: 1.5"/>
      </g>
     </g>
     <g id="text_4">
      <!-- 0 -->
      <g transform="translate(59.575516 254.742125) scale(0.12 -0.12)">
       <defs>
        <path id="DejaVuSans-30" d="M 2034 4250 
Q 1547 4250 1301 3770 
Q 1056 3291 1056 2328 
Q 1056 1369 1301 889 
Q 1547 409 2034 409 
Q 2525 409 2770 889 
Q 3016 1369 3016 2328 
Q 3016 3291 2770 3770 
Q 2525 4250 2034 4250 
z
M 2034 4750 
Q 2819 4750 3233 4129 
Q 3647 3509 3647 2328 
Q 3647 1150 3233 529 
Q 2819 -91 2034 -91 
Q 1250 -91 836 529 
Q 422 1150 422 2328 
Q 422 3509 836 4129 
Q 1250 4750 2034 4750 
z
" transform="scale(0.015625)"/>
       </defs>
       <use xlink:href="#DejaVuSans-30"/>
      </g>
     </g>
    </g>
    <g id="xtick_2">
     <g id="line2d_9">
      <g>
       <use xlink:href="#m187a437d93" x="106.088848" y="242.124" style="stroke: #000000; stroke-width: 1.5"/>
      </g>
     </g>
     <g id="line2d_10">
      <g>
       <use xlink:href="#m8b79a51b33" x="106.088848" y="10.8" style="stroke: #000000; stroke-width: 1.5"/>
      </g>
     </g>
     <g id="text_5">
      <!-- 5 -->
      <g transform="translate(102.271348 254.742125) scale(0.12 -0.12)">
       <defs>
        <path id="DejaVuSans-35" d="M 691 4666 
L 3169 4666 
L 3169 4134 
L 1269 4134 
L 1269 2991 
Q 1406 3038 1543 3061 
Q 1681 3084 1819 3084 
Q 2600 3084 3056 2656 
Q 3513 2228 3513 1497 
Q 3513 744 3044 326 
Q 2575 -91 1722 -91 
Q 1428 -91 1123 -41 
Q 819 9 494 109 
L 494 744 
Q 775 591 1075 516 
Q 1375 441 1709 441 
Q 2250 441 2565 725 
Q 2881 1009 2881 1497 
Q 2881 1984 2565 2268 
Q 2250 2553 1709 2553 
Q 1456 2553 1204 2497 
Q 953 2441 691 2322 
L 691 4666 
z
" transform="scale(0.015625)"/>
       </defs>
       <use xlink:href="#DejaVuSans-35"/>
      </g>
     </g>
    </g>
    <g id="xtick_3">
     <g id="line2d_11">
      <g>
       <use xlink:href="#m187a437d93" x="148.78468" y="242.124" style="stroke: #000000; stroke-width: 1.5"/>
      </g>
     </g>
     <g id="line2d_12">
      <g>
       <use xlink:href="#m8b79a51b33" x="148.78468" y="10.8" style="stroke: #000000; stroke-width: 1.5"/>
      </g>
     </g>
     <g id="text_6">
      <!-- 10 -->
      <g transform="translate(141.14968 254.742125) scale(0.12 -0.12)">
       <defs>
        <path id="DejaVuSans-31" d="M 794 531 
L 1825 531 
L 1825 4091 
L 703 3866 
L 703 4441 
L 1819 4666 
L 2450 4666 
L 2450 531 
L 3481 531 
L 3481 0 
L 794 0 
L 794 531 
z
" transform="scale(0.015625)"/>
       </defs>
       <use xlink:href="#DejaVuSans-31"/>
       <use xlink:href="#DejaVuSans-30" x="63.623047"/>
      </g>
     </g>
    </g>
    <g id="xtick_4">
     <g id="line2d_13">
      <g>
       <use xlink:href="#m187a437d93" x="191.480512" y="242.124" style="stroke: #000000; stroke-width: 1.5"/>
      </g>
     </g>
     <g id="line2d_14">
      <g>
       <use xlink:href="#m8b79a51b33" x="191.480512" y="10.8" style="stroke: #000000; stroke-width: 1.5"/>
      </g>
     </g>
     <g id="text_7">
      <!-- 15 -->
      <g transform="translate(183.845512 254.742125) scale(0.12 -0.12)">
       <use xlink:href="#DejaVuSans-31"/>
       <use xlink:href="#DejaVuSans-35" x="63.623047"/>
      </g>
     </g>
    </g>
    <g id="xtick_5">
     <g id="line2d_15">
      <g>
       <use xlink:href="#m187a437d93" x="234.176343" y="242.124" style="stroke: #000000; stroke-width: 1.5"/>
      </g>
     </g>
     <g id="line2d_16">
      <g>
       <use xlink:href="#m8b79a51b33" x="234.176343" y="10.8" style="stroke: #000000; stroke-width: 1.5"/>
      </g>
     </g>
     <g id="text_8">
      <!-- 20 -->
      <g transform="translate(226.541343 254.742125) scale(0.12 -0.12)">
       <defs>
        <path id="DejaVuSans-32" d="M 1228 531 
L 3431 531 
L 3431 0 
L 469 0 
L 469 531 
Q 828 903 1448 1529 
Q 2069 2156 2228 2338 
Q 2531 2678 2651 2914 
Q 2772 3150 2772 3378 
Q 2772 3750 2511 3984 
Q 2250 4219 1831 4219 
Q 1534 4219 1204 4116 
Q 875 4013 500 3803 
L 500 4441 
Q 881 4594 1212 4672 
Q 1544 4750 1819 4750 
Q 2544 4750 2975 4387 
Q 3406 4025 3406 3419 
Q 3406 3131 3298 2873 
Q 3191 2616 2906 2266 
Q 2828 2175 2409 1742 
Q 1991 1309 1228 531 
z
" transform="scale(0.015625)"/>
       </defs>
       <use xlink:href="#DejaVuSans-32"/>
       <use xlink:href="#DejaVuSans-30" x="63.623047"/>
      </g>
     </g>
    </g>
    <g id="xtick_6">
     <g id="line2d_17">
      <g>
       <use xlink:href="#m187a437d93" x="276.872175" y="242.124" style="stroke: #000000; stroke-width: 1.5"/>
      </g>
     </g>
     <g id="line2d_18">
      <g>
       <use xlink:href="#m8b79a51b33" x="276.872175" y="10.8" style="stroke: #000000; stroke-width: 1.5"/>
      </g>
     </g>
     <g id="text_9">
      <!-- 25 -->
      <g transform="translate(269.237175 254.742125) scale(0.12 -0.12)">
       <use xlink:href="#DejaVuSans-32"/>
       <use xlink:href="#DejaVuSans-35" x="63.623047"/>
      </g>
     </g>
    </g>
    <g id="xtick_7">
     <g id="line2d_19">
      <g>
       <use xlink:href="#m187a437d93" x="319.568007" y="242.124" style="stroke: #000000; stroke-width: 1.5"/>
      </g>
     </g>
     <g id="line2d_20">
      <g>
       <use xlink:href="#m8b79a51b33" x="319.568007" y="10.8" style="stroke: #000000; stroke-width: 1.5"/>
      </g>
     </g>
     <g id="text_10">
      <!-- 30 -->
      <g transform="translate(311.933007 254.742125) scale(0.12 -0.12)">
       <defs>
        <path id="DejaVuSans-33" d="M 2597 2516 
Q 3050 2419 3304 2112 
Q 3559 1806 3559 1356 
Q 3559 666 3084 287 
Q 2609 -91 1734 -91 
Q 1441 -91 1130 -33 
Q 819 25 488 141 
L 488 750 
Q 750 597 1062 519 
Q 1375 441 1716 441 
Q 2309 441 2620 675 
Q 2931 909 2931 1356 
Q 2931 1769 2642 2001 
Q 2353 2234 1838 2234 
L 1294 2234 
L 1294 2753 
L 1863 2753 
Q 2328 2753 2575 2939 
Q 2822 3125 2822 3475 
Q 2822 3834 2567 4026 
Q 2313 4219 1838 4219 
Q 1578 4219 1281 4162 
Q 984 4106 628 3988 
L 628 4550 
Q 988 4650 1302 4700 
Q 1616 4750 1894 4750 
Q 2613 4750 3031 4423 
Q 3450 4097 3450 3541 
Q 3450 3153 3228 2886 
Q 3006 2619 2597 2516 
z
" transform="scale(0.015625)"/>
       </defs>
       <use xlink:href="#DejaVuSans-33"/>
       <use xlink:href="#DejaVuSans-30" x="63.623047"/>
      </g>
     </g>
    </g>
    <g id="xtick_8">
     <g id="line2d_21">
      <g>
       <use xlink:href="#m187a437d93" x="362.263839" y="242.124" style="stroke: #000000; stroke-width: 1.5"/>
      </g>
     </g>
     <g id="line2d_22">
      <g>
       <use xlink:href="#m8b79a51b33" x="362.263839" y="10.8" style="stroke: #000000; stroke-width: 1.5"/>
      </g>
     </g>
     <g id="text_11">
      <!-- 35 -->
      <g transform="translate(354.628839 254.742125) scale(0.12 -0.12)">
       <use xlink:href="#DejaVuSans-33"/>
       <use xlink:href="#DejaVuSans-35" x="63.623047"/>
      </g>
     </g>
    </g>
    <g id="xtick_9">
     <g id="line2d_23">
      <g>
       <use xlink:href="#m187a437d93" x="404.95967" y="242.124" style="stroke: #000000; stroke-width: 1.5"/>
      </g>
     </g>
     <g id="line2d_24">
      <g>
       <use xlink:href="#m8b79a51b33" x="404.95967" y="10.8" style="stroke: #000000; stroke-width: 1.5"/>
      </g>
     </g>
     <g id="text_12">
      <!-- 40 -->
      <g transform="translate(397.32467 254.742125) scale(0.12 -0.12)">
       <defs>
        <path id="DejaVuSans-34" d="M 2419 4116 
L 825 1625 
L 2419 1625 
L 2419 4116 
z
M 2253 4666 
L 3047 4666 
L 3047 1625 
L 3713 1625 
L 3713 1100 
L 3047 1100 
L 3047 0 
L 2419 0 
L 2419 1100 
L 313 1100 
L 313 1709 
L 2253 4666 
z
" transform="scale(0.015625)"/>
       </defs>
       <use xlink:href="#DejaVuSans-34"/>
       <use xlink:href="#DejaVuSans-30" x="63.623047"/>
      </g>
     </g>
    </g>
    <g id="xtick_10">
     <g id="line2d_25">
      <defs>
       <path id="m61cadad6c3" d="M 0 0 
L 0 -2 
" style="stroke: #000000; stroke-width: 1.5"/>
      </defs>
      <g>
       <use xlink:href="#m61cadad6c3" x="71.932183" y="242.124" style="stroke: #000000; stroke-width: 1.5"/>
      </g>
     </g>
     <g id="line2d_26">
      <defs>
       <path id="m94b41b77e3" d="M 0 0 
L 0 2 
" style="stroke: #000000; stroke-width: 1.5"/>
      </defs>
      <g>
       <use xlink:href="#m94b41b77e3" x="71.932183" y="10.8" style="stroke: #000000; stroke-width: 1.5"/>
      </g>
     </g>
    </g>
    <g id="xtick_11">
     <g id="line2d_27">
      <g>
       <use xlink:href="#m61cadad6c3" x="80.471349" y="242.124" style="stroke: #000000; stroke-width: 1.5"/>
      </g>
     </g>
     <g id="line2d_28">
      <g>
       <use xlink:href="#m94b41b77e3" x="80.471349" y="10.8" style="stroke: #000000; stroke-width: 1.5"/>
      </g>
     </g>
    </g>
    <g id="xtick_12">
     <g id="line2d_29">
      <g>
       <use xlink:href="#m61cadad6c3" x="89.010515" y="242.124" style="stroke: #000000; stroke-width: 1.5"/>
      </g>
     </g>
     <g id="line2d_30">
      <g>
       <use xlink:href="#m94b41b77e3" x="89.010515" y="10.8" style="stroke: #000000; stroke-width: 1.5"/>
      </g>
     </g>
    </g>
    <g id="xtick_13">
     <g id="line2d_31">
      <g>
       <use xlink:href="#m61cadad6c3" x="97.549682" y="242.124" style="stroke: #000000; stroke-width: 1.5"/>
      </g>
     </g>
     <g id="line2d_32">
      <g>
       <use xlink:href="#m94b41b77e3" x="97.549682" y="10.8" style="stroke: #000000; stroke-width: 1.5"/>
      </g>
     </g>
    </g>
    <g id="xtick_14">
     <g id="line2d_33">
      <g>
       <use xlink:href="#m61cadad6c3" x="114.628014" y="242.124" style="stroke: #000000; stroke-width: 1.5"/>
      </g>
     </g>
     <g id="line2d_34">
      <g>
       <use xlink:href="#m94b41b77e3" x="114.628014" y="10.8" style="stroke: #000000; stroke-width: 1.5"/>
      </g>
     </g>
    </g>
    <g id="xtick_15">
     <g id="line2d_35">
      <g>
       <use xlink:href="#m61cadad6c3" x="123.167181" y="242.124" style="stroke: #000000; stroke-width: 1.5"/>
      </g>
     </g>
     <g id="line2d_36">
      <g>
       <use xlink:href="#m94b41b77e3" x="123.167181" y="10.8" style="stroke: #000000; stroke-width: 1.5"/>
      </g>
     </g>
    </g>
    <g id="xtick_16">
     <g id="line2d_37">
      <g>
       <use xlink:href="#m61cadad6c3" x="131.706347" y="242.124" style="stroke: #000000; stroke-width: 1.5"/>
      </g>
     </g>
     <g id="line2d_38">
      <g>
       <use xlink:href="#m94b41b77e3" x="131.706347" y="10.8" style="stroke: #000000; stroke-width: 1.5"/>
      </g>
     </g>
    </g>
    <g id="xtick_17">
     <g id="line2d_39">
      <g>
       <use xlink:href="#m61cadad6c3" x="140.245513" y="242.124" style="stroke: #000000; stroke-width: 1.5"/>
      </g>
     </g>
     <g id="line2d_40">
      <g>
       <use xlink:href="#m94b41b77e3" x="140.245513" y="10.8" style="stroke: #000000; stroke-width: 1.5"/>
      </g>
     </g>
    </g>
    <g id="xtick_18">
     <g id="line2d_41">
      <g>
       <use xlink:href="#m61cadad6c3" x="157.323846" y="242.124" style="stroke: #000000; stroke-width: 1.5"/>
      </g>
     </g>
     <g id="line2d_42">
      <g>
       <use xlink:href="#m94b41b77e3" x="157.323846" y="10.8" style="stroke: #000000; stroke-width: 1.5"/>
      </g>
     </g>
    </g>
    <g id="xtick_19">
     <g id="line2d_43">
      <g>
       <use xlink:href="#m61cadad6c3" x="165.863012" y="242.124" style="stroke: #000000; stroke-width: 1.5"/>
      </g>
     </g>
     <g id="line2d_44">
      <g>
       <use xlink:href="#m94b41b77e3" x="165.863012" y="10.8" style="stroke: #000000; stroke-width: 1.5"/>
      </g>
     </g>
    </g>
    <g id="xtick_20">
     <g id="line2d_45">
      <g>
       <use xlink:href="#m61cadad6c3" x="174.402179" y="242.124" style="stroke: #000000; stroke-width: 1.5"/>
      </g>
     </g>
     <g id="line2d_46">
      <g>
       <use xlink:href="#m94b41b77e3" x="174.402179" y="10.8" style="stroke: #000000; stroke-width: 1.5"/>
      </g>
     </g>
    </g>
    <g id="xtick_21">
     <g id="line2d_47">
      <g>
       <use xlink:href="#m61cadad6c3" x="182.941345" y="242.124" style="stroke: #000000; stroke-width: 1.5"/>
      </g>
     </g>
     <g id="line2d_48">
      <g>
       <use xlink:href="#m94b41b77e3" x="182.941345" y="10.8" style="stroke: #000000; stroke-width: 1.5"/>
      </g>
     </g>
    </g>
    <g id="xtick_22">
     <g id="line2d_49">
      <g>
       <use xlink:href="#m61cadad6c3" x="200.019678" y="242.124" style="stroke: #000000; stroke-width: 1.5"/>
      </g>
     </g>
     <g id="line2d_50">
      <g>
       <use xlink:href="#m94b41b77e3" x="200.019678" y="10.8" style="stroke: #000000; stroke-width: 1.5"/>
      </g>
     </g>
    </g>
    <g id="xtick_23">
     <g id="line2d_51">
      <g>
       <use xlink:href="#m61cadad6c3" x="208.558844" y="242.124" style="stroke: #000000; stroke-width: 1.5"/>
      </g>
     </g>
     <g id="line2d_52">
      <g>
       <use xlink:href="#m94b41b77e3" x="208.558844" y="10.8" style="stroke: #000000; stroke-width: 1.5"/>
      </g>
     </g>
    </g>
    <g id="xtick_24">
     <g id="line2d_53">
      <g>
       <use xlink:href="#m61cadad6c3" x="217.098011" y="242.124" style="stroke: #000000; stroke-width: 1.5"/>
      </g>
     </g>
     <g id="line2d_54">
      <g>
       <use xlink:href="#m94b41b77e3" x="217.098011" y="10.8" style="stroke: #000000; stroke-width: 1.5"/>
      </g>
     </g>
    </g>
    <g id="xtick_25">
     <g id="line2d_55">
      <g>
       <use xlink:href="#m61cadad6c3" x="225.637177" y="242.124" style="stroke: #000000; stroke-width: 1.5"/>
      </g>
     </g>
     <g id="line2d_56">
      <g>
       <use xlink:href="#m94b41b77e3" x="225.637177" y="10.8" style="stroke: #000000; stroke-width: 1.5"/>
      </g>
     </g>
    </g>
    <g id="xtick_26">
     <g id="line2d_57">
      <g>
       <use xlink:href="#m61cadad6c3" x="242.71551" y="242.124" style="stroke: #000000; stroke-width: 1.5"/>
      </g>
     </g>
     <g id="line2d_58">
      <g>
       <use xlink:href="#m94b41b77e3" x="242.71551" y="10.8" style="stroke: #000000; stroke-width: 1.5"/>
      </g>
     </g>
    </g>
    <g id="xtick_27">
     <g id="line2d_59">
      <g>
       <use xlink:href="#m61cadad6c3" x="251.254676" y="242.124" style="stroke: #000000; stroke-width: 1.5"/>
      </g>
     </g>
     <g id="line2d_60">
      <g>
       <use xlink:href="#m94b41b77e3" x="251.254676" y="10.8" style="stroke: #000000; stroke-width: 1.5"/>
      </g>
     </g>
    </g>
    <g id="xtick_28">
     <g id="line2d_61">
      <g>
       <use xlink:href="#m61cadad6c3" x="259.793842" y="242.124" style="stroke: #000000; stroke-width: 1.5"/>
      </g>
     </g>
     <g id="line2d_62">
      <g>
       <use xlink:href="#m94b41b77e3" x="259.793842" y="10.8" style="stroke: #000000; stroke-width: 1.5"/>
      </g>
     </g>
    </g>
    <g id="xtick_29">
     <g id="line2d_63">
      <g>
       <use xlink:href="#m61cadad6c3" x="268.333009" y="242.124" style="stroke: #000000; stroke-width: 1.5"/>
      </g>
     </g>
     <g id="line2d_64">
      <g>
       <use xlink:href="#m94b41b77e3" x="268.333009" y="10.8" style="stroke: #000000; stroke-width: 1.5"/>
      </g>
     </g>
    </g>
    <g id="xtick_30">
     <g id="line2d_65">
      <g>
       <use xlink:href="#m61cadad6c3" x="285.411341" y="242.124" style="stroke: #000000; stroke-width: 1.5"/>
      </g>
     </g>
     <g id="line2d_66">
      <g>
       <use xlink:href="#m94b41b77e3" x="285.411341" y="10.8" style="stroke: #000000; stroke-width: 1.5"/>
      </g>
     </g>
    </g>
    <g id="xtick_31">
     <g id="line2d_67">
      <g>
       <use xlink:href="#m61cadad6c3" x="293.950508" y="242.124" style="stroke: #000000; stroke-width: 1.5"/>
      </g>
     </g>
     <g id="line2d_68">
      <g>
       <use xlink:href="#m94b41b77e3" x="293.950508" y="10.8" style="stroke: #000000; stroke-width: 1.5"/>
      </g>
     </g>
    </g>
    <g id="xtick_32">
     <g id="line2d_69">
      <g>
       <use xlink:href="#m61cadad6c3" x="302.489674" y="242.124" style="stroke: #000000; stroke-width: 1.5"/>
      </g>
     </g>
     <g id="line2d_70">
      <g>
       <use xlink:href="#m94b41b77e3" x="302.489674" y="10.8" style="stroke: #000000; stroke-width: 1.5"/>
      </g>
     </g>
    </g>
    <g id="xtick_33">
     <g id="line2d_71">
      <g>
       <use xlink:href="#m61cadad6c3" x="311.028841" y="242.124" style="stroke: #000000; stroke-width: 1.5"/>
      </g>
     </g>
     <g id="line2d_72">
      <g>
       <use xlink:href="#m94b41b77e3" x="311.028841" y="10.8" style="stroke: #000000; stroke-width: 1.5"/>
      </g>
     </g>
    </g>
    <g id="xtick_34">
     <g id="line2d_73">
      <g>
       <use xlink:href="#m61cadad6c3" x="328.107173" y="242.124" style="stroke: #000000; stroke-width: 1.5"/>
      </g>
     </g>
     <g id="line2d_74">
      <g>
       <use xlink:href="#m94b41b77e3" x="328.107173" y="10.8" style="stroke: #000000; stroke-width: 1.5"/>
      </g>
     </g>
    </g>
    <g id="xtick_35">
     <g id="line2d_75">
      <g>
       <use xlink:href="#m61cadad6c3" x="336.64634" y="242.124" style="stroke: #000000; stroke-width: 1.5"/>
      </g>
     </g>
     <g id="line2d_76">
      <g>
       <use xlink:href="#m94b41b77e3" x="336.64634" y="10.8" style="stroke: #000000; stroke-width: 1.5"/>
      </g>
     </g>
    </g>
    <g id="xtick_36">
     <g id="line2d_77">
      <g>
       <use xlink:href="#m61cadad6c3" x="345.185506" y="242.124" style="stroke: #000000; stroke-width: 1.5"/>
      </g>
     </g>
     <g id="line2d_78">
      <g>
       <use xlink:href="#m94b41b77e3" x="345.185506" y="10.8" style="stroke: #000000; stroke-width: 1.5"/>
      </g>
     </g>
    </g>
    <g id="xtick_37">
     <g id="line2d_79">
      <g>
       <use xlink:href="#m61cadad6c3" x="353.724672" y="242.124" style="stroke: #000000; stroke-width: 1.5"/>
      </g>
     </g>
     <g id="line2d_80">
      <g>
       <use xlink:href="#m94b41b77e3" x="353.724672" y="10.8" style="stroke: #000000; stroke-width: 1.5"/>
      </g>
     </g>
    </g>
    <g id="xtick_38">
     <g id="line2d_81">
      <g>
       <use xlink:href="#m61cadad6c3" x="370.803005" y="242.124" style="stroke: #000000; stroke-width: 1.5"/>
      </g>
     </g>
     <g id="line2d_82">
      <g>
       <use xlink:href="#m94b41b77e3" x="370.803005" y="10.8" style="stroke: #000000; stroke-width: 1.5"/>
      </g>
     </g>
    </g>
    <g id="xtick_39">
     <g id="line2d_83">
      <g>
       <use xlink:href="#m61cadad6c3" x="379.342171" y="242.124" style="stroke: #000000; stroke-width: 1.5"/>
      </g>
     </g>
     <g id="line2d_84">
      <g>
       <use xlink:href="#m94b41b77e3" x="379.342171" y="10.8" style="stroke: #000000; stroke-width: 1.5"/>
      </g>
     </g>
    </g>
    <g id="xtick_40">
     <g id="line2d_85">
      <g>
       <use xlink:href="#m61cadad6c3" x="387.881338" y="242.124" style="stroke: #000000; stroke-width: 1.5"/>
      </g>
     </g>
     <g id="line2d_86">
      <g>
       <use xlink:href="#m94b41b77e3" x="387.881338" y="10.8" style="stroke: #000000; stroke-width: 1.5"/>
      </g>
     </g>
    </g>
    <g id="xtick_41">
     <g id="line2d_87">
      <g>
       <use xlink:href="#m61cadad6c3" x="396.420504" y="242.124" style="stroke: #000000; stroke-width: 1.5"/>
      </g>
     </g>
     <g id="line2d_88">
      <g>
       <use xlink:href="#m94b41b77e3" x="396.420504" y="10.8" style="stroke: #000000; stroke-width: 1.5"/>
      </g>
     </g>
    </g>
    <g id="xtick_42">
     <g id="line2d_89">
      <g>
       <use xlink:href="#m61cadad6c3" x="413.498837" y="242.124" style="stroke: #000000; stroke-width: 1.5"/>
      </g>
     </g>
     <g id="line2d_90">
      <g>
       <use xlink:href="#m94b41b77e3" x="413.498837" y="10.8" style="stroke: #000000; stroke-width: 1.5"/>
      </g>
     </g>
    </g>
    <g id="text_13">
     <!-- Distance [R$_\odot$] -->
     <g transform="translate(197.211 270.355875) scale(0.12 -0.12)">
      <defs>
       <path id="DejaVuSans-44" d="M 1259 4147 
L 1259 519 
L 2022 519 
Q 2988 519 3436 956 
Q 3884 1394 3884 2338 
Q 3884 3275 3436 3711 
Q 2988 4147 2022 4147 
L 1259 4147 
z
M 628 4666 
L 1925 4666 
Q 3281 4666 3915 4102 
Q 4550 3538 4550 2338 
Q 4550 1131 3912 565 
Q 3275 0 1925 0 
L 628 0 
L 628 4666 
z
" transform="scale(0.015625)"/>
       <path id="DejaVuSans-63" d="M 3122 3366 
L 3122 2828 
Q 2878 2963 2633 3030 
Q 2388 3097 2138 3097 
Q 1578 3097 1268 2742 
Q 959 2388 959 1747 
Q 959 1106 1268 751 
Q 1578 397 2138 397 
Q 2388 397 2633 464 
Q 2878 531 3122 666 
L 3122 134 
Q 2881 22 2623 -34 
Q 2366 -91 2075 -91 
Q 1284 -91 818 406 
Q 353 903 353 1747 
Q 353 2603 823 3093 
Q 1294 3584 2113 3584 
Q 2378 3584 2631 3529 
Q 2884 3475 3122 3366 
z
" transform="scale(0.015625)"/>
       <path id="DejaVuSans-65" d="M 3597 1894 
L 3597 1613 
L 953 1613 
Q 991 1019 1311 708 
Q 1631 397 2203 397 
Q 2534 397 2845 478 
Q 3156 559 3463 722 
L 3463 178 
Q 3153 47 2828 -22 
Q 2503 -91 2169 -91 
Q 1331 -91 842 396 
Q 353 884 353 1716 
Q 353 2575 817 3079 
Q 1281 3584 2069 3584 
Q 2775 3584 3186 3129 
Q 3597 2675 3597 1894 
z
M 3022 2063 
Q 3016 2534 2758 2815 
Q 2500 3097 2075 3097 
Q 1594 3097 1305 2825 
Q 1016 2553 972 2059 
L 3022 2063 
z
" transform="scale(0.015625)"/>
       <path id="DejaVuSans-5b" d="M 550 4863 
L 1875 4863 
L 1875 4416 
L 1125 4416 
L 1125 -397 
L 1875 -397 
L 1875 -844 
L 550 -844 
L 550 4863 
z
" transform="scale(0.015625)"/>
       <path id="DejaVuSans-52" d="M 2841 2188 
Q 3044 2119 3236 1894 
Q 3428 1669 3622 1275 
L 4263 0 
L 3584 0 
L 2988 1197 
Q 2756 1666 2539 1819 
Q 2322 1972 1947 1972 
L 1259 1972 
L 1259 0 
L 628 0 
L 628 4666 
L 2053 4666 
Q 2853 4666 3247 4331 
Q 3641 3997 3641 3322 
Q 3641 2881 3436 2590 
Q 3231 2300 2841 2188 
z
M 1259 4147 
L 1259 2491 
L 2053 2491 
Q 2509 2491 2742 2702 
Q 2975 2913 2975 3322 
Q 2975 3731 2742 3939 
Q 2509 4147 2053 4147 
L 1259 4147 
z
" transform="scale(0.015625)"/>
       <path id="DejaVuSans-2299" d="M 2350 2403 
L 3013 2403 
L 3013 1609 
L 2350 1609 
L 2350 2403 
z
M 3306 3522 
Q 3016 3644 2681 3644 
Q 2347 3644 2056 3522 
Q 1769 3400 1531 3163 
Q 1291 2922 1172 2634 
Q 1053 2347 1053 2006 
Q 1053 1675 1172 1387 
Q 1291 1100 1531 859 
Q 1769 622 2056 500 
Q 2347 378 2681 378 
Q 3016 378 3306 500 
Q 3594 622 3831 859 
Q 4072 1100 4190 1387 
Q 4309 1675 4309 2006 
Q 4309 2347 4190 2634 
Q 4072 2922 3831 3163 
Q 3594 3400 3306 3522 
z
M 1878 3956 
Q 2250 4113 2681 4113 
Q 3113 4113 3484 3956 
Q 3856 3800 4163 3494 
Q 4472 3184 4625 2813 
Q 4778 2444 4778 2006 
Q 4778 1578 4625 1206 
Q 4472 838 4163 528 
Q 3856 222 3484 65 
Q 3113 -91 2681 -91 
Q 2250 -91 1878 65 
Q 1506 222 1200 528 
Q 891 838 738 1206 
Q 584 1578 584 2006 
Q 584 2444 738 2813 
Q 891 3184 1200 3494 
Q 1506 3800 1878 3956 
z
" transform="scale(0.015625)"/>
       <path id="DejaVuSans-5d" d="M 1947 4863 
L 1947 -844 
L 622 -844 
L 622 -397 
L 1369 -397 
L 1369 4416 
L 622 4416 
L 622 4863 
L 1947 4863 
z
" transform="scale(0.015625)"/>
      </defs>
      <use xlink:href="#DejaVuSans-44" transform="translate(0 0.015625)"/>
      <use xlink:href="#DejaVuSans-69" transform="translate(77.001953 0.015625)"/>
      <use xlink:href="#DejaVuSans-73" transform="translate(104.785156 0.015625)"/>
      <use xlink:href="#DejaVuSans-74" transform="translate(156.884766 0.015625)"/>
      <use xlink:href="#DejaVuSans-61" transform="translate(196.09375 0.015625)"/>
      <use xlink:href="#DejaVuSans-6e" transform="translate(257.373047 0.015625)"/>
      <use xlink:href="#DejaVuSans-63" transform="translate(320.751953 0.015625)"/>
      <use xlink:href="#DejaVuSans-65" transform="translate(375.732422 0.015625)"/>
      <use xlink:href="#DejaVuSans-20" transform="translate(437.255859 0.015625)"/>
      <use xlink:href="#DejaVuSans-5b" transform="translate(469.042969 0.015625)"/>
      <use xlink:href="#DejaVuSans-52" transform="translate(504.931641 0.015625)"/>
      <use xlink:href="#DejaVuSans-2299" transform="translate(589.008789 -16.390625) scale(0.7)"/>
      <use xlink:href="#DejaVuSans-5d" transform="translate(664.033203 0.015625)"/>
     </g>
    </g>
   </g>
   <g id="matplotlib.axis_2">
    <g id="ytick_1">
     <g id="line2d_91">
      <defs>
       <path id="mc2abed3d34" d="M 0 0 
L 3.5 0 
" style="stroke: #000000; stroke-width: 1.5"/>
      </defs>
      <g>
       <use xlink:href="#mc2abed3d34" x="57.702" y="230.507919" style="stroke: #000000; stroke-width: 1.5"/>
      </g>
     </g>
     <g id="line2d_92">
      <defs>
       <path id="m74b85eb125" d="M 0 0 
L -3.5 0 
" style="stroke: #000000; stroke-width: 1.5"/>
      </defs>
      <g>
       <use xlink:href="#m74b85eb125" x="421.2" y="230.507919" style="stroke: #000000; stroke-width: 1.5"/>
      </g>
     </g>
     <g id="text_14">
      <!-- 0 -->
      <g transform="translate(46.567 235.066981) scale(0.12 -0.12)">
       <use xlink:href="#DejaVuSans-30"/>
      </g>
     </g>
    </g>
    <g id="ytick_2">
     <g id="line2d_93">
      <g>
       <use xlink:href="#mc2abed3d34" x="57.702" y="198.407991" style="stroke: #000000; stroke-width: 1.5"/>
      </g>
     </g>
     <g id="line2d_94">
      <g>
       <use xlink:href="#m74b85eb125" x="421.2" y="198.407991" style="stroke: #000000; stroke-width: 1.5"/>
      </g>
     </g>
     <g id="text_15">
      <!-- 100 -->
      <g transform="translate(31.297 202.967054) scale(0.12 -0.12)">
       <use xlink:href="#DejaVuSans-31"/>
       <use xlink:href="#DejaVuSans-30" x="63.623047"/>
       <use xlink:href="#DejaVuSans-30" x="127.246094"/>
      </g>
     </g>
    </g>
    <g id="ytick_3">
     <g id="line2d_95">
      <g>
       <use xlink:href="#mc2abed3d34" x="57.702" y="166.308064" style="stroke: #000000; stroke-width: 1.5"/>
      </g>
     </g>
     <g id="line2d_96">
      <g>
       <use xlink:href="#m74b85eb125" x="421.2" y="166.308064" style="stroke: #000000; stroke-width: 1.5"/>
      </g>
     </g>
     <g id="text_16">
      <!-- 200 -->
      <g transform="translate(31.297 170.867127) scale(0.12 -0.12)">
       <use xlink:href="#DejaVuSans-32"/>
       <use xlink:href="#DejaVuSans-30" x="63.623047"/>
       <use xlink:href="#DejaVuSans-30" x="127.246094"/>
      </g>
     </g>
    </g>
    <g id="ytick_4">
     <g id="line2d_97">
      <g>
       <use xlink:href="#mc2abed3d34" x="57.702" y="134.208137" style="stroke: #000000; stroke-width: 1.5"/>
      </g>
     </g>
     <g id="line2d_98">
      <g>
       <use xlink:href="#m74b85eb125" x="421.2" y="134.208137" style="stroke: #000000; stroke-width: 1.5"/>
      </g>
     </g>
     <g id="text_17">
      <!-- 300 -->
      <g transform="translate(31.297 138.767199) scale(0.12 -0.12)">
       <use xlink:href="#DejaVuSans-33"/>
       <use xlink:href="#DejaVuSans-30" x="63.623047"/>
       <use xlink:href="#DejaVuSans-30" x="127.246094"/>
      </g>
     </g>
    </g>
    <g id="ytick_5">
     <g id="line2d_99">
      <g>
       <use xlink:href="#mc2abed3d34" x="57.702" y="102.108209" style="stroke: #000000; stroke-width: 1.5"/>
      </g>
     </g>
     <g id="line2d_100">
      <g>
       <use xlink:href="#m74b85eb125" x="421.2" y="102.108209" style="stroke: #000000; stroke-width: 1.5"/>
      </g>
     </g>
     <g id="text_18">
      <!-- 400 -->
      <g transform="translate(31.297 106.667272) scale(0.12 -0.12)">
       <use xlink:href="#DejaVuSans-34"/>
       <use xlink:href="#DejaVuSans-30" x="63.623047"/>
       <use xlink:href="#DejaVuSans-30" x="127.246094"/>
      </g>
     </g>
    </g>
    <g id="ytick_6">
     <g id="line2d_101">
      <g>
       <use xlink:href="#mc2abed3d34" x="57.702" y="70.008282" style="stroke: #000000; stroke-width: 1.5"/>
      </g>
     </g>
     <g id="line2d_102">
      <g>
       <use xlink:href="#m74b85eb125" x="421.2" y="70.008282" style="stroke: #000000; stroke-width: 1.5"/>
      </g>
     </g>
     <g id="text_19">
      <!-- 500 -->
      <g transform="translate(31.297 74.567344) scale(0.12 -0.12)">
       <use xlink:href="#DejaVuSans-35"/>
       <use xlink:href="#DejaVuSans-30" x="63.623047"/>
       <use xlink:href="#DejaVuSans-30" x="127.246094"/>
      </g>
     </g>
    </g>
    <g id="ytick_7">
     <g id="line2d_103">
      <g>
       <use xlink:href="#mc2abed3d34" x="57.702" y="37.908354" style="stroke: #000000; stroke-width: 1.5"/>
      </g>
     </g>
     <g id="line2d_104">
      <g>
       <use xlink:href="#m74b85eb125" x="421.2" y="37.908354" style="stroke: #000000; stroke-width: 1.5"/>
      </g>
     </g>
     <g id="text_20">
      <!-- 600 -->
      <g transform="translate(31.297 42.467417) scale(0.12 -0.12)">
       <defs>
        <path id="DejaVuSans-36" d="M 2113 2584 
Q 1688 2584 1439 2293 
Q 1191 2003 1191 1497 
Q 1191 994 1439 701 
Q 1688 409 2113 409 
Q 2538 409 2786 701 
Q 3034 994 3034 1497 
Q 3034 2003 2786 2293 
Q 2538 2584 2113 2584 
z
M 3366 4563 
L 3366 3988 
Q 3128 4100 2886 4159 
Q 2644 4219 2406 4219 
Q 1781 4219 1451 3797 
Q 1122 3375 1075 2522 
Q 1259 2794 1537 2939 
Q 1816 3084 2150 3084 
Q 2853 3084 3261 2657 
Q 3669 2231 3669 1497 
Q 3669 778 3244 343 
Q 2819 -91 2113 -91 
Q 1303 -91 875 529 
Q 447 1150 447 2328 
Q 447 3434 972 4092 
Q 1497 4750 2381 4750 
Q 2619 4750 2861 4703 
Q 3103 4656 3366 4563 
z
" transform="scale(0.015625)"/>
       </defs>
       <use xlink:href="#DejaVuSans-36"/>
       <use xlink:href="#DejaVuSans-30" x="63.623047"/>
       <use xlink:href="#DejaVuSans-30" x="127.246094"/>
      </g>
     </g>
    </g>
    <g id="ytick_8">
     <g id="line2d_105">
      <defs>
       <path id="m8d60110e5b" d="M 0 0 
L 2 0 
" style="stroke: #000000; stroke-width: 1.5"/>
      </defs>
      <g>
       <use xlink:href="#m8d60110e5b" x="57.702" y="236.927904" style="stroke: #000000; stroke-width: 1.5"/>
      </g>
     </g>
     <g id="line2d_106">
      <defs>
       <path id="m0471747a51" d="M 0 0 
L -2 0 
" style="stroke: #000000; stroke-width: 1.5"/>
      </defs>
      <g>
       <use xlink:href="#m0471747a51" x="421.2" y="236.927904" style="stroke: #000000; stroke-width: 1.5"/>
      </g>
     </g>
    </g>
    <g id="ytick_9">
     <g id="line2d_107">
      <g>
       <use xlink:href="#m8d60110e5b" x="57.702" y="224.087933" style="stroke: #000000; stroke-width: 1.5"/>
      </g>
     </g>
     <g id="line2d_108">
      <g>
       <use xlink:href="#m0471747a51" x="421.2" y="224.087933" style="stroke: #000000; stroke-width: 1.5"/>
      </g>
     </g>
    </g>
    <g id="ytick_10">
     <g id="line2d_109">
      <g>
       <use xlink:href="#m8d60110e5b" x="57.702" y="217.667948" style="stroke: #000000; stroke-width: 1.5"/>
      </g>
     </g>
     <g id="line2d_110">
      <g>
       <use xlink:href="#m0471747a51" x="421.2" y="217.667948" style="stroke: #000000; stroke-width: 1.5"/>
      </g>
     </g>
    </g>
    <g id="ytick_11">
     <g id="line2d_111">
      <g>
       <use xlink:href="#m8d60110e5b" x="57.702" y="211.247962" style="stroke: #000000; stroke-width: 1.5"/>
      </g>
     </g>
     <g id="line2d_112">
      <g>
       <use xlink:href="#m0471747a51" x="421.2" y="211.247962" style="stroke: #000000; stroke-width: 1.5"/>
      </g>
     </g>
    </g>
    <g id="ytick_12">
     <g id="line2d_113">
      <g>
       <use xlink:href="#m8d60110e5b" x="57.702" y="204.827977" style="stroke: #000000; stroke-width: 1.5"/>
      </g>
     </g>
     <g id="line2d_114">
      <g>
       <use xlink:href="#m0471747a51" x="421.2" y="204.827977" style="stroke: #000000; stroke-width: 1.5"/>
      </g>
     </g>
    </g>
    <g id="ytick_13">
     <g id="line2d_115">
      <g>
       <use xlink:href="#m8d60110e5b" x="57.702" y="191.988006" style="stroke: #000000; stroke-width: 1.5"/>
      </g>
     </g>
     <g id="line2d_116">
      <g>
       <use xlink:href="#m0471747a51" x="421.2" y="191.988006" style="stroke: #000000; stroke-width: 1.5"/>
      </g>
     </g>
    </g>
    <g id="ytick_14">
     <g id="line2d_117">
      <g>
       <use xlink:href="#m8d60110e5b" x="57.702" y="185.568021" style="stroke: #000000; stroke-width: 1.5"/>
      </g>
     </g>
     <g id="line2d_118">
      <g>
       <use xlink:href="#m0471747a51" x="421.2" y="185.568021" style="stroke: #000000; stroke-width: 1.5"/>
      </g>
     </g>
    </g>
    <g id="ytick_15">
     <g id="line2d_119">
      <g>
       <use xlink:href="#m8d60110e5b" x="57.702" y="179.148035" style="stroke: #000000; stroke-width: 1.5"/>
      </g>
     </g>
     <g id="line2d_120">
      <g>
       <use xlink:href="#m0471747a51" x="421.2" y="179.148035" style="stroke: #000000; stroke-width: 1.5"/>
      </g>
     </g>
    </g>
    <g id="ytick_16">
     <g id="line2d_121">
      <g>
       <use xlink:href="#m8d60110e5b" x="57.702" y="172.72805" style="stroke: #000000; stroke-width: 1.5"/>
      </g>
     </g>
     <g id="line2d_122">
      <g>
       <use xlink:href="#m0471747a51" x="421.2" y="172.72805" style="stroke: #000000; stroke-width: 1.5"/>
      </g>
     </g>
    </g>
    <g id="ytick_17">
     <g id="line2d_123">
      <g>
       <use xlink:href="#m8d60110e5b" x="57.702" y="159.888079" style="stroke: #000000; stroke-width: 1.5"/>
      </g>
     </g>
     <g id="line2d_124">
      <g>
       <use xlink:href="#m0471747a51" x="421.2" y="159.888079" style="stroke: #000000; stroke-width: 1.5"/>
      </g>
     </g>
    </g>
    <g id="ytick_18">
     <g id="line2d_125">
      <g>
       <use xlink:href="#m8d60110e5b" x="57.702" y="153.468093" style="stroke: #000000; stroke-width: 1.5"/>
      </g>
     </g>
     <g id="line2d_126">
      <g>
       <use xlink:href="#m0471747a51" x="421.2" y="153.468093" style="stroke: #000000; stroke-width: 1.5"/>
      </g>
     </g>
    </g>
    <g id="ytick_19">
     <g id="line2d_127">
      <g>
       <use xlink:href="#m8d60110e5b" x="57.702" y="147.048108" style="stroke: #000000; stroke-width: 1.5"/>
      </g>
     </g>
     <g id="line2d_128">
      <g>
       <use xlink:href="#m0471747a51" x="421.2" y="147.048108" style="stroke: #000000; stroke-width: 1.5"/>
      </g>
     </g>
    </g>
    <g id="ytick_20">
     <g id="line2d_129">
      <g>
       <use xlink:href="#m8d60110e5b" x="57.702" y="140.628122" style="stroke: #000000; stroke-width: 1.5"/>
      </g>
     </g>
     <g id="line2d_130">
      <g>
       <use xlink:href="#m0471747a51" x="421.2" y="140.628122" style="stroke: #000000; stroke-width: 1.5"/>
      </g>
     </g>
    </g>
    <g id="ytick_21">
     <g id="line2d_131">
      <g>
       <use xlink:href="#m8d60110e5b" x="57.702" y="127.788151" style="stroke: #000000; stroke-width: 1.5"/>
      </g>
     </g>
     <g id="line2d_132">
      <g>
       <use xlink:href="#m0471747a51" x="421.2" y="127.788151" style="stroke: #000000; stroke-width: 1.5"/>
      </g>
     </g>
    </g>
    <g id="ytick_22">
     <g id="line2d_133">
      <g>
       <use xlink:href="#m8d60110e5b" x="57.702" y="121.368166" style="stroke: #000000; stroke-width: 1.5"/>
      </g>
     </g>
     <g id="line2d_134">
      <g>
       <use xlink:href="#m0471747a51" x="421.2" y="121.368166" style="stroke: #000000; stroke-width: 1.5"/>
      </g>
     </g>
    </g>
    <g id="ytick_23">
     <g id="line2d_135">
      <g>
       <use xlink:href="#m8d60110e5b" x="57.702" y="114.94818" style="stroke: #000000; stroke-width: 1.5"/>
      </g>
     </g>
     <g id="line2d_136">
      <g>
       <use xlink:href="#m0471747a51" x="421.2" y="114.94818" style="stroke: #000000; stroke-width: 1.5"/>
      </g>
     </g>
    </g>
    <g id="ytick_24">
     <g id="line2d_137">
      <g>
       <use xlink:href="#m8d60110e5b" x="57.702" y="108.528195" style="stroke: #000000; stroke-width: 1.5"/>
      </g>
     </g>
     <g id="line2d_138">
      <g>
       <use xlink:href="#m0471747a51" x="421.2" y="108.528195" style="stroke: #000000; stroke-width: 1.5"/>
      </g>
     </g>
    </g>
    <g id="ytick_25">
     <g id="line2d_139">
      <g>
       <use xlink:href="#m8d60110e5b" x="57.702" y="95.688224" style="stroke: #000000; stroke-width: 1.5"/>
      </g>
     </g>
     <g id="line2d_140">
      <g>
       <use xlink:href="#m0471747a51" x="421.2" y="95.688224" style="stroke: #000000; stroke-width: 1.5"/>
      </g>
     </g>
    </g>
    <g id="ytick_26">
     <g id="line2d_141">
      <g>
       <use xlink:href="#m8d60110e5b" x="57.702" y="89.268238" style="stroke: #000000; stroke-width: 1.5"/>
      </g>
     </g>
     <g id="line2d_142">
      <g>
       <use xlink:href="#m0471747a51" x="421.2" y="89.268238" style="stroke: #000000; stroke-width: 1.5"/>
      </g>
     </g>
    </g>
    <g id="ytick_27">
     <g id="line2d_143">
      <g>
       <use xlink:href="#m8d60110e5b" x="57.702" y="82.848253" style="stroke: #000000; stroke-width: 1.5"/>
      </g>
     </g>
     <g id="line2d_144">
      <g>
       <use xlink:href="#m0471747a51" x="421.2" y="82.848253" style="stroke: #000000; stroke-width: 1.5"/>
      </g>
     </g>
    </g>
    <g id="ytick_28">
     <g id="line2d_145">
      <g>
       <use xlink:href="#m8d60110e5b" x="57.702" y="76.428267" style="stroke: #000000; stroke-width: 1.5"/>
      </g>
     </g>
     <g id="line2d_146">
      <g>
       <use xlink:href="#m0471747a51" x="421.2" y="76.428267" style="stroke: #000000; stroke-width: 1.5"/>
      </g>
     </g>
    </g>
    <g id="ytick_29">
     <g id="line2d_147">
      <g>
       <use xlink:href="#m8d60110e5b" x="57.702" y="63.588296" style="stroke: #000000; stroke-width: 1.5"/>
      </g>
     </g>
     <g id="line2d_148">
      <g>
       <use xlink:href="#m0471747a51" x="421.2" y="63.588296" style="stroke: #000000; stroke-width: 1.5"/>
      </g>
     </g>
    </g>
    <g id="ytick_30">
     <g id="line2d_149">
      <g>
       <use xlink:href="#m8d60110e5b" x="57.702" y="57.168311" style="stroke: #000000; stroke-width: 1.5"/>
      </g>
     </g>
     <g id="line2d_150">
      <g>
       <use xlink:href="#m0471747a51" x="421.2" y="57.168311" style="stroke: #000000; stroke-width: 1.5"/>
      </g>
     </g>
    </g>
    <g id="ytick_31">
     <g id="line2d_151">
      <g>
       <use xlink:href="#m8d60110e5b" x="57.702" y="50.748325" style="stroke: #000000; stroke-width: 1.5"/>
      </g>
     </g>
     <g id="line2d_152">
      <g>
       <use xlink:href="#m0471747a51" x="421.2" y="50.748325" style="stroke: #000000; stroke-width: 1.5"/>
      </g>
     </g>
    </g>
    <g id="ytick_32">
     <g id="line2d_153">
      <g>
       <use xlink:href="#m8d60110e5b" x="57.702" y="44.32834" style="stroke: #000000; stroke-width: 1.5"/>
      </g>
     </g>
     <g id="line2d_154">
      <g>
       <use xlink:href="#m0471747a51" x="421.2" y="44.32834" style="stroke: #000000; stroke-width: 1.5"/>
      </g>
     </g>
    </g>
    <g id="ytick_33">
     <g id="line2d_155">
      <g>
       <use xlink:href="#m8d60110e5b" x="57.702" y="31.488369" style="stroke: #000000; stroke-width: 1.5"/>
      </g>
     </g>
     <g id="line2d_156">
      <g>
       <use xlink:href="#m0471747a51" x="421.2" y="31.488369" style="stroke: #000000; stroke-width: 1.5"/>
      </g>
     </g>
    </g>
    <g id="ytick_34">
     <g id="line2d_157">
      <g>
       <use xlink:href="#m8d60110e5b" x="57.702" y="25.068383" style="stroke: #000000; stroke-width: 1.5"/>
      </g>
     </g>
     <g id="line2d_158">
      <g>
       <use xlink:href="#m0471747a51" x="421.2" y="25.068383" style="stroke: #000000; stroke-width: 1.5"/>
      </g>
     </g>
    </g>
    <g id="ytick_35">
     <g id="line2d_159">
      <g>
       <use xlink:href="#m8d60110e5b" x="57.702" y="18.648398" style="stroke: #000000; stroke-width: 1.5"/>
      </g>
     </g>
     <g id="line2d_160">
      <g>
       <use xlink:href="#m0471747a51" x="421.2" y="18.648398" style="stroke: #000000; stroke-width: 1.5"/>
      </g>
     </g>
    </g>
    <g id="ytick_36">
     <g id="line2d_161">
      <g>
       <use xlink:href="#m8d60110e5b" x="57.702" y="12.228412" style="stroke: #000000; stroke-width: 1.5"/>
      </g>
     </g>
     <g id="line2d_162">
      <g>
       <use xlink:href="#m0471747a51" x="421.2" y="12.228412" style="stroke: #000000; stroke-width: 1.5"/>
      </g>
     </g>
    </g>
    <g id="text_21">
     <!-- $v_r$ [km s$^{-1}$] -->
     <g transform="translate(24.801375 159.282) rotate(-90) scale(0.12 -0.12)">
      <defs>
       <path id="DejaVuSans-Oblique-76" d="M 459 3500 
L 1069 3500 
L 1581 525 
L 3256 3500 
L 3866 3500 
L 1875 0 
L 1100 0 
L 459 3500 
z
" transform="scale(0.015625)"/>
       <path id="DejaVuSans-Oblique-72" d="M 2853 2969 
Q 2766 3016 2653 3041 
Q 2541 3066 2413 3066 
Q 1953 3066 1609 2717 
Q 1266 2369 1153 1784 
L 800 0 
L 225 0 
L 909 3500 
L 1484 3500 
L 1375 2956 
Q 1603 3259 1920 3421 
Q 2238 3584 2597 3584 
Q 2691 3584 2781 3573 
Q 2872 3563 2963 3538 
L 2853 2969 
z
" transform="scale(0.015625)"/>
       <path id="DejaVuSans-6b" d="M 581 4863 
L 1159 4863 
L 1159 1991 
L 2875 3500 
L 3609 3500 
L 1753 1863 
L 3688 0 
L 2938 0 
L 1159 1709 
L 1159 0 
L 581 0 
L 581 4863 
z
" transform="scale(0.015625)"/>
       <path id="DejaVuSans-6d" d="M 3328 2828 
Q 3544 3216 3844 3400 
Q 4144 3584 4550 3584 
Q 5097 3584 5394 3201 
Q 5691 2819 5691 2113 
L 5691 0 
L 5113 0 
L 5113 2094 
Q 5113 2597 4934 2840 
Q 4756 3084 4391 3084 
Q 3944 3084 3684 2787 
Q 3425 2491 3425 1978 
L 3425 0 
L 2847 0 
L 2847 2094 
Q 2847 2600 2669 2842 
Q 2491 3084 2119 3084 
Q 1678 3084 1418 2786 
Q 1159 2488 1159 1978 
L 1159 0 
L 581 0 
L 581 3500 
L 1159 3500 
L 1159 2956 
Q 1356 3278 1631 3431 
Q 1906 3584 2284 3584 
Q 2666 3584 2933 3390 
Q 3200 3197 3328 2828 
z
" transform="scale(0.015625)"/>
       <path id="DejaVuSans-2212" d="M 678 2272 
L 4684 2272 
L 4684 1741 
L 678 1741 
L 678 2272 
z
" transform="scale(0.015625)"/>
      </defs>
      <use xlink:href="#DejaVuSans-Oblique-76" transform="translate(0 0.684375)"/>
      <use xlink:href="#DejaVuSans-Oblique-72" transform="translate(59.179688 -15.721875) scale(0.7)"/>
      <use xlink:href="#DejaVuSans-20" transform="translate(90.693359 0.684375)"/>
      <use xlink:href="#DejaVuSans-5b" transform="translate(122.480469 0.684375)"/>
      <use xlink:href="#DejaVuSans-6b" transform="translate(161.494141 0.684375)"/>
      <use xlink:href="#DejaVuSans-6d" transform="translate(219.404297 0.684375)"/>
      <use xlink:href="#DejaVuSans-20" transform="translate(316.816406 0.684375)"/>
      <use xlink:href="#DejaVuSans-73" transform="translate(348.603516 0.684375)"/>
      <use xlink:href="#DejaVuSans-2212" transform="translate(401.660156 38.965625) scale(0.7)"/>
      <use xlink:href="#DejaVuSans-31" transform="translate(460.3125 38.965625) scale(0.7)"/>
      <use xlink:href="#DejaVuSans-5d" transform="translate(507.583008 0.684375)"/>
     </g>
    </g>
   </g>
  </g>
 </g>
 <defs>
  <clipPath id="p6dcd5c0bb5">
   <rect x="57.702" y="10.8" width="363.498" height="231.324"/>
  </clipPath>
 </defs>
</svg>
