<?xml version="1.0" encoding="utf-8" standalone="no"?>
<!DOCTYPE svg PUBLIC "-//W3C//DTD SVG 1.1//EN"
  "http://www.w3.org/Graphics/SVG/1.1/DTD/svg11.dtd">
<svg xmlns:xlink="http://www.w3.org/1999/xlink" width="432pt" height="288pt" viewBox="0 0 432 288" xmlns="http://www.w3.org/2000/svg" version="1.1">
 <metadata>
  <rdf:RDF xmlns:dc="http://purl.org/dc/elements/1.1/" xmlns:cc="http://creativecommons.org/ns#" xmlns:rdf="http://www.w3.org/1999/02/22-rdf-syntax-ns#">
   <cc:Work>
    <dc:type rdf:resource="http://purl.org/dc/dcmitype/StillImage"/>
    <dc:date>2022-12-05T13:48:20.579577</dc:date>
    <dc:format>image/svg+xml</dc:format>
    <dc:creator>
     <cc:Agent>
      <dc:title>Matplotlib v3.6.1, https://matplotlib.org/</dc:title>
     </cc:Agent>
    </dc:creator>
   </cc:Work>
  </rdf:RDF>
 </metadata>
 <defs>
  <style type="text/css">*{stroke-linejoin: round; stroke-linecap: butt}</style>
 </defs>
 <g id="figure_1">
  <g id="patch_1">
   <path d="M 0 288 
L 432 288 
L 432 0 
L 0 0 
z
" style="fill: #ffffff"/>
  </g>
  <g id="axes_1">
   <g id="patch_2">
    <path d="M 57.702 242.124 
L 421.2 242.124 
L 421.2 10.8 
L 57.702 10.8 
z
" style="fill: #ffffff"/>
   </g>
   <g id="patch_3">
    <path d="M 57.702 242.124 
L 57.702 10.8 
" style="fill: none; stroke: #000000; stroke-width: 1.5; stroke-linejoin: miter; stroke-linecap: square"/>
   </g>
   <g id="patch_4">
    <path d="M 421.2 242.124 
L 421.2 10.8 
" style="fill: none; stroke: #000000; stroke-width: 1.5; stroke-linejoin: miter; stroke-linecap: square"/>
   </g>
   <g id="patch_5">
    <path d="M 57.702 242.124 
L 421.2 242.124 
" style="fill: none; stroke: #000000; stroke-width: 1.5; stroke-linejoin: miter; stroke-linecap: square"/>
   </g>
   <g id="patch_6">
    <path d="M 57.702 10.8 
L 421.2 10.8 
" style="fill: none; stroke: #000000; stroke-width: 1.5; stroke-linejoin: miter; stroke-linecap: square"/>
   </g>
   <g id="PolyCollection_1">
    <defs>
     <path id="ma23e4f6c68" d="M 199.878877 -130.152016 
L 199.878877 -112.167894 
L 200.38083 -105.165 
L 201.266699 -105.449986 
L 202.133371 -115.837593 
L 203.020182 -108.566624 
L 203.835887 -106.426886 
L 204.701218 -109.978225 
L 205.543909 -107.461258 
L 206.443501 -107.653457 
L 207.266467 -111.603669 
L 208.121122 -109.333353 
L 209.024295 -108.722419 
L 209.829883 -108.526022 
L 210.675394 -107.13974 
L 211.581289 -104.488214 
L 212.385654 -102.593347 
L 213.237149 -99.910887 
L 214.094768 -100.766322 
L 214.942875 -96.334146 
L 215.838223 -97.36833 
L 216.677467 -99.208919 
L 217.503468 -98.010764 
L 218.426761 -100.334464 
L 219.200945 -100.348234 
L 220.084031 -97.528608 
L 220.944991 -100.922056 
L 221.80037 -102.340991 
L 222.651821 -102.984111 
L 223.483383 -97.919862 
L 224.380318 -94.974165 
L 225.195355 -94.690815 
L 226.069969 -93.945558 
L 226.887377 -110.661331 
L 227.792283 -124.774447 
L 228.644325 -116.69427 
L 229.446468 -120.963096 
L 230.330627 -122.7174 
L 231.180135 -117.743774 
L 232.094921 -111.01773 
L 232.898052 -107.796477 
L 233.731978 -94.709563 
L 234.592944 -104.520534 
L 235.486739 -101.070221 
L 236.281283 -97.110686 
L 237.287304 -121.116952 
L 237.945211 -126.44024 
L 238.867749 -124.375756 
L 239.728174 -113.929094 
L 240.57881 -115.294439 
L 241.45918 -111.297111 
L 242.280857 -113.056861 
L 243.143493 -107.210294 
L 243.976838 -105.884442 
L 244.799926 -103.730848 
L 245.679463 -104.906576 
L 246.526989 -101.818182 
L 247.399646 -106.814796 
L 248.271269 -106.830485 
L 249.091576 -105.309644 
L 249.972243 -99.620713 
L 250.825332 -102.000566 
L 251.699037 -101.385198 
L 252.496736 -96.931191 
L 253.449137 -98.530069 
L 254.218581 -93.355485 
L 255.098724 -99.227446 
L 255.953072 -99.903817 
L 256.788395 -99.824934 
L 257.653623 -101.53223 
L 258.526433 -105.178442 
L 259.388951 -101.243042 
L 260.219652 -104.794169 
L 261.148432 -100.26077 
L 261.934232 -97.363549 
L 262.815097 -99.289551 
L 263.555047 -97.895526 
L 264.488176 -104.773757 
L 265.358609 -103.497604 
L 266.200494 -105.163973 
L 267.056487 -109.909857 
L 267.817987 -107.512418 
L 268.769841 -102.67424 
L 269.613568 -102.180484 
L 270.494895 -104.714612 
L 271.347309 -98.698541 
L 272.196488 -104.633823 
L 273.056969 -102.362716 
L 273.879563 -105.131089 
L 274.687682 -105.257524 
L 275.690585 -105.974128 
L 276.476628 -98.252739 
L 277.290328 -103.454339 
L 278.155682 -98.28086 
L 279.001681 -100.062411 
L 279.873937 -100.670397 
L 280.847853 -127.06194 
L 281.574885 -133.562965 
L 282.438407 -137.860521 
L 283.266739 -140.46702 
L 284.154533 -147.925383 
L 284.946266 -138.412552 
L 285.835383 -146.582889 
L 286.69532 -143.896954 
L 287.568116 -133.730757 
L 288.423752 -132.557376 
L 289.234673 -137.580573 
L 290.096668 -137.385478 
L 291.12967 -139.651941 
L 291.825128 -157.046994 
L 292.644433 -148.669025 
L 293.582849 -153.957443 
L 294.40007 -157.429767 
L 295.276154 -149.688293 
L 296.087464 -157.058235 
L 296.902681 -167.566718 
L 297.683509 -173.027533 
L 298.655088 -156.174172 
L 299.553296 -133.253838 
L 300.40305 -136.834479 
L 301.250339 -141.328452 
L 302.021632 -142.70816 
L 302.856427 -147.724777 
L 303.765124 -161.884215 
L 304.620552 -162.33383 
L 305.471168 -165.806462 
L 306.314139 -150.697565 
L 307.267677 -147.189948 
L 308.02014 -138.7808 
L 308.918248 -144.693793 
L 309.750329 -144.155421 
L 310.588536 -142.465822 
L 311.469099 -143.642822 
L 312.321936 -150.472064 
L 313.131703 -147.132385 
L 314.01215 -148.122471 
L 314.837816 -144.045933 
L 315.718072 -149.626838 
L 316.569722 -149.778669 
L 317.418784 -145.245542 
L 318.309827 -161.699049 
L 319.128064 -151.341362 
L 319.960698 -155.311715 
L 320.8579 -158.686237 
L 321.690134 -153.828597 
L 322.547128 -169.329227 
L 323.416961 -162.38628 
L 324.257682 -146.076554 
L 325.06531 -143.844419 
L 325.808032 -137.864039 
L 326.948236 -152.729299 
L 327.682848 -156.346989 
L 328.510813 -154.207749 
L 329.383972 -154.871868 
L 330.287929 -157.772426 
L 331.077882 -146.431417 
L 331.936181 -151.051938 
L 332.811155 -151.419036 
L 333.645697 -149.87934 
L 334.484529 -139.365428 
L 335.375143 -137.85024 
L 336.213451 -148.033375 
L 337.069109 -145.343562 
L 337.917943 -136.125202 
L 338.773035 -130.00642 
L 339.658035 -136.246343 
L 340.500563 -132.32932 
L 341.338925 -141.089933 
L 342.187829 -140.844399 
L 343.076811 -138.975991 
L 343.893048 -141.572385 
L 344.740142 -144.310632 
L 345.586864 -139.285409 
L 346.46221 -137.637609 
L 347.303413 -142.372371 
L 348.197363 -146.080417 
L 349.040582 -144.790552 
L 349.903392 -144.36265 
L 350.717812 -141.976217 
L 351.57328 -141.430865 
L 352.4397 -143.182718 
L 353.290707 -142.990407 
L 354.167596 -144.683555 
L 354.992606 -135.508859 
L 355.850126 -140.005971 
L 356.727295 -137.629646 
L 357.608785 -147.743656 
L 358.423593 -155.657456 
L 359.274458 -153.642919 
L 360.131581 -156.066199 
L 360.917343 -158.952924 
L 361.866674 -156.825058 
L 362.677518 -146.562025 
L 363.519349 -152.827173 
L 364.384598 -154.304966 
L 365.274575 -147.222812 
L 366.098416 -156.078625 
L 366.91527 -146.98102 
L 367.800596 -134.405834 
L 368.668118 -142.121803 
L 369.484707 -147.142289 
L 370.376158 -144.808211 
L 371.209732 -147.020264 
L 372.087452 -147.84851 
L 372.968798 -144.904195 
L 373.780504 -140.203874 
L 374.672551 -149.55949 
L 375.470471 -150.642347 
L 376.367338 -162.229266 
L 377.229957 -155.244863 
L 378.027908 -153.467128 
L 378.864623 -153.820994 
L 379.781169 -154.662858 
L 380.518979 -151.359318 
L 381.542711 -156.333194 
L 382.326371 -145.989597 
L 383.30229 -141.768698 
L 384.048317 -142.352496 
L 384.889999 -140.845013 
L 385.739144 -143.432291 
L 386.593353 -146.060579 
L 387.466142 -149.513319 
L 388.326685 -153.597732 
L 389.179322 -150.233251 
L 390.000061 -154.61825 
L 390.844489 -150.162236 
L 391.738897 -146.207154 
L 392.576295 -151.577464 
L 393.432203 -157.192675 
L 394.29448 -156.057707 
L 395.135575 -157.957337 
L 395.976429 -159.97152 
L 396.860544 -158.60952 
L 397.678953 -159.083317 
L 398.565701 -159.951703 
L 399.413732 -161.832877 
L 400.257366 -160.511232 
L 401.123724 -156.628996 
L 401.964046 -158.163254 
L 402.803918 -159.102771 
L 403.687912 -154.427864 
L 404.546493 -149.035097 
L 404.546493 -183.217226 
L 404.546493 -183.217226 
L 403.687912 -183.420767 
L 402.803918 -180.996612 
L 401.964046 -176.609818 
L 401.123724 -178.977061 
L 400.257366 -177.844181 
L 399.413732 -184.074755 
L 398.565701 -176.007795 
L 397.678953 -174.330119 
L 396.860544 -173.813552 
L 395.976429 -170.668205 
L 395.135575 -171.555644 
L 394.29448 -169.827516 
L 393.432203 -170.986017 
L 392.576295 -179.416392 
L 391.738897 -183.721196 
L 390.844489 -179.864988 
L 390.000061 -207.722034 
L 389.179322 -187.550192 
L 388.326685 -187.10053 
L 387.466142 -177.333142 
L 386.593353 -160.874893 
L 385.739144 -168.111979 
L 384.889999 -171.613093 
L 384.048317 -173.855846 
L 383.30229 -173.601939 
L 382.326371 -177.382477 
L 381.542711 -176.637454 
L 380.518979 -173.621235 
L 379.781169 -181.132815 
L 378.864623 -181.405066 
L 378.027908 -179.154105 
L 377.229957 -182.415528 
L 376.367338 -187.849614 
L 375.470471 -175.927114 
L 374.672551 -186.158771 
L 373.780504 -173.722386 
L 372.968798 -172.999984 
L 372.087452 -186.468184 
L 371.209732 -174.130297 
L 370.376158 -171.72255 
L 369.484707 -166.694667 
L 368.668118 -168.025963 
L 367.800596 -158.524714 
L 366.91527 -178.743807 
L 366.098416 -180.845912 
L 365.274575 -181.632823 
L 364.384598 -181.994406 
L 363.519349 -179.549734 
L 362.677518 -174.910442 
L 361.866674 -173.200695 
L 360.917343 -174.531434 
L 360.131581 -175.403846 
L 359.274458 -183.619699 
L 358.423593 -184.59519 
L 357.608785 -178.699822 
L 356.727295 -155.053575 
L 355.850126 -160.171516 
L 354.992606 -160.936156 
L 354.167596 -166.282543 
L 353.290707 -157.827522 
L 352.4397 -165.374519 
L 351.57328 -170.269542 
L 350.717812 -171.592095 
L 349.903392 -167.262259 
L 349.040582 -157.944543 
L 348.197363 -167.779807 
L 347.303413 -167.035834 
L 346.46221 -177.379393 
L 345.586864 -175.656573 
L 344.740142 -163.778592 
L 343.893048 -164.012753 
L 343.076811 -184.475146 
L 342.187829 -192.117732 
L 341.338925 -175.130482 
L 340.500563 -166.954378 
L 339.658035 -166.342973 
L 338.773035 -186.891339 
L 337.917943 -169.021588 
L 337.069109 -165.729784 
L 336.213451 -161.439513 
L 335.375143 -169.401129 
L 334.484529 -185.736304 
L 333.645697 -181.462028 
L 332.811155 -181.432743 
L 331.936181 -207.117596 
L 331.077882 -186.774193 
L 330.287929 -209.827839 
L 329.383972 -205.771959 
L 328.510813 -206.84218 
L 327.682848 -188.100123 
L 326.948236 -188.332572 
L 325.808032 -227.103337 
L 325.06531 -234.140636 
L 324.257682 -209.380837 
L 323.416961 -209.968499 
L 322.547128 -219.308176 
L 321.690134 -215.043442 
L 320.8579 -211.743119 
L 319.960698 -210.490854 
L 319.128064 -210.180333 
L 318.309827 -201.058956 
L 317.418784 -203.181008 
L 316.569722 -206.912496 
L 315.718072 -209.92052 
L 314.837816 -208.575046 
L 314.01215 -192.871253 
L 313.131703 -199.16699 
L 312.321936 -203.002335 
L 311.469099 -201.717435 
L 310.588536 -201.980105 
L 309.750329 -198.074042 
L 308.918248 -202.413386 
L 308.02014 -195.932553 
L 307.267677 -200.601405 
L 306.314139 -203.559691 
L 305.471168 -210.068065 
L 304.620552 -201.567445 
L 303.765124 -206.942975 
L 302.856427 -197.612717 
L 302.021632 -188.044197 
L 301.250339 -187.465663 
L 300.40305 -186.147042 
L 299.553296 -193.285545 
L 298.655088 -201.618422 
L 297.683509 -214.480628 
L 296.902681 -201.67337 
L 296.087464 -195.438913 
L 295.276154 -195.903229 
L 294.40007 -199.341465 
L 293.582849 -188.403259 
L 292.644433 -197.063627 
L 291.825128 -194.849915 
L 291.12967 -191.366557 
L 290.096668 -195.055084 
L 289.234673 -190.770079 
L 288.423752 -190.277687 
L 287.568116 -187.792527 
L 286.69532 -191.331295 
L 285.835383 -186.936388 
L 284.946266 -181.687467 
L 284.154533 -177.563306 
L 283.266739 -183.597312 
L 282.438407 -181.065344 
L 281.574885 -177.413671 
L 280.847853 -174.211335 
L 279.873937 -130.365644 
L 279.001681 -119.754387 
L 278.155682 -122.521343 
L 277.290328 -128.771098 
L 276.476628 -130.024197 
L 275.690585 -122.813979 
L 274.687682 -135.596088 
L 273.879563 -125.444361 
L 273.056969 -143.030868 
L 272.196488 -156.665697 
L 271.347309 -139.010378 
L 270.494895 -140.76397 
L 269.613568 -159.295001 
L 268.769841 -142.313797 
L 267.817987 -147.491106 
L 267.056487 -130.233147 
L 266.200494 -141.411971 
L 265.358609 -138.425798 
L 264.488176 -153.121935 
L 263.555047 -140.806359 
L 262.815097 -147.705899 
L 261.934232 -156.237714 
L 261.148432 -141.801944 
L 260.219652 -146.438096 
L 259.388951 -136.536935 
L 258.526433 -132.658496 
L 257.653623 -123.239332 
L 256.788395 -135.959502 
L 255.953072 -154.539999 
L 255.098724 -138.588735 
L 254.218581 -156.028596 
L 253.449137 -135.307682 
L 252.496736 -153.63295 
L 251.699037 -143.145549 
L 250.825332 -137.009601 
L 249.972243 -140.458136 
L 249.091576 -147.046517 
L 248.271269 -153.507349 
L 247.399646 -153.875433 
L 246.526989 -155.034361 
L 245.679463 -166.042515 
L 244.799926 -146.514407 
L 243.976838 -157.417116 
L 243.143493 -163.467688 
L 242.280857 -169.554166 
L 241.45918 -158.363192 
L 240.57881 -159.208483 
L 239.728174 -164.718915 
L 238.867749 -160.537526 
L 237.945211 -166.53666 
L 237.287304 -155.732494 
L 236.281283 -164.254552 
L 235.486739 -155.765105 
L 234.592944 -121.682271 
L 233.731978 -164.354911 
L 232.898052 -182.170465 
L 232.094921 -159.887712 
L 231.180135 -149.255934 
L 230.330627 -162.396764 
L 229.446468 -160.877467 
L 228.644325 -162.857583 
L 227.792283 -164.869599 
L 226.887377 -151.956245 
L 226.069969 -170.755909 
L 225.195355 -143.473957 
L 224.380318 -156.478067 
L 223.483383 -145.971287 
L 222.651821 -147.427476 
L 221.80037 -143.889265 
L 220.944991 -144.16266 
L 220.084031 -143.338045 
L 219.200945 -140.922975 
L 218.426761 -145.573829 
L 217.503468 -147.656369 
L 216.677467 -148.911001 
L 215.838223 -145.650243 
L 214.942875 -146.108433 
L 214.094768 -145.08302 
L 213.237149 -138.585908 
L 212.385654 -139.091529 
L 211.581289 -141.323331 
L 210.675394 -143.376373 
L 209.829883 -144.054377 
L 209.024295 -137.861045 
L 208.121122 -136.527618 
L 207.266467 -136.388789 
L 206.443501 -134.651349 
L 205.543909 -128.135529 
L 204.701218 -127.584827 
L 203.835887 -130.74551 
L 203.020182 -132.028531 
L 202.133371 -138.61135 
L 201.266699 -140.526057 
L 200.38083 -128.040627 
L 199.878877 -130.152016 
z
" style="stroke: #add8e6"/>
    </defs>
    <g clip-path="url(#p37ebeaaaca)">
     <use xlink:href="#ma23e4f6c68" x="0" y="288" style="fill: #add8e6; stroke: #add8e6"/>
    </g>
   </g>
   <g id="line2d_1">
    <path d="M 199.878877 166.840045 
L 200.38083 171.397187 
L 201.266699 165.011979 
L 202.133371 160.775529 
L 203.020182 167.702423 
L 203.835887 169.413802 
L 204.701218 169.218474 
L 205.543909 170.201606 
L 207.266467 164.003771 
L 208.121122 165.069515 
L 209.024295 164.708268 
L 209.829883 161.709801 
L 210.675394 162.741943 
L 212.385654 167.157562 
L 213.237149 168.751602 
L 214.094768 165.075329 
L 214.942875 166.778711 
L 215.838223 166.490714 
L 216.677467 163.94004 
L 217.503468 165.166433 
L 218.426761 165.045854 
L 219.200945 167.364396 
L 220.084031 167.566674 
L 220.944991 165.457642 
L 221.80037 164.884872 
L 222.651821 162.794206 
L 223.483383 166.054426 
L 224.380318 162.273884 
L 225.195355 168.917614 
L 226.069969 155.649267 
L 226.887377 156.691212 
L 227.792283 143.177977 
L 228.644325 148.224074 
L 229.446468 147.079719 
L 230.330627 145.442918 
L 231.180135 154.500146 
L 232.094921 152.547279 
L 232.898052 143.016529 
L 234.592944 174.898598 
L 235.486739 159.582337 
L 236.281283 157.317381 
L 237.287304 149.575277 
L 237.945211 141.51155 
L 238.867749 145.543359 
L 239.728174 148.675995 
L 241.45918 153.169848 
L 242.280857 146.694486 
L 243.143493 152.661009 
L 243.976838 156.349221 
L 244.799926 162.877373 
L 245.679463 152.525455 
L 246.526989 159.573728 
L 247.399646 157.654885 
L 248.271269 157.831083 
L 249.091576 161.82192 
L 249.972243 167.960576 
L 250.825332 168.494916 
L 251.699037 165.734627 
L 252.496736 162.71793 
L 253.449137 171.081124 
L 254.218581 163.307959 
L 255.098724 169.09191 
L 255.953072 160.778092 
L 256.788395 170.107782 
L 257.653623 175.614219 
L 258.526433 169.081531 
L 259.388951 169.110012 
L 260.219652 162.383868 
L 261.148432 166.968643 
L 261.934232 161.199368 
L 262.815097 164.502275 
L 263.555047 168.649057 
L 264.488176 159.052154 
L 265.358609 167.038299 
L 266.200494 164.712028 
L 267.056487 167.928498 
L 267.817987 160.498238 
L 268.769841 165.505981 
L 269.613568 157.262258 
L 270.494895 165.260709 
L 271.347309 169.14554 
L 272.196488 157.35024 
L 273.879563 172.712275 
L 274.687682 167.573194 
L 275.690585 173.605947 
L 276.476628 173.861532 
L 277.290328 171.887281 
L 278.155682 177.598898 
L 279.001681 178.091601 
L 279.873937 172.48198 
L 280.847853 137.363363 
L 281.574885 132.511682 
L 282.438407 128.537067 
L 283.266739 125.967834 
L 284.154533 125.255655 
L 284.946266 127.94999 
L 285.835383 121.240362 
L 286.69532 120.385875 
L 287.568116 127.238358 
L 288.423752 126.582469 
L 289.234673 123.824674 
L 290.096668 121.779719 
L 291.12967 122.490751 
L 291.825128 112.051545 
L 292.644433 115.133674 
L 293.582849 116.819649 
L 294.40007 109.614384 
L 295.276154 115.204239 
L 296.087464 111.751426 
L 297.683509 94.24592 
L 298.655088 109.103703 
L 299.553296 124.730308 
L 300.40305 126.509239 
L 301.250339 123.602942 
L 302.021632 122.623822 
L 302.856427 115.331253 
L 303.765124 103.586405 
L 304.620552 106.049362 
L 305.471168 100.062736 
L 306.314139 110.871372 
L 307.267677 114.104324 
L 308.02014 120.643323 
L 308.918248 114.44641 
L 309.750329 116.885268 
L 310.588536 115.777037 
L 311.469099 115.319871 
L 312.321936 111.262801 
L 313.131703 114.850313 
L 314.01215 117.503138 
L 314.837816 111.68951 
L 315.718072 108.226321 
L 316.569722 109.654417 
L 317.418784 113.786725 
L 318.309827 106.620997 
L 319.128064 107.239153 
L 320.8579 102.785322 
L 321.690134 103.56398 
L 322.547128 93.681298 
L 324.257682 110.271305 
L 325.06531 99.007472 
L 325.808032 105.516312 
L 326.948236 117.469065 
L 327.682848 115.776444 
L 328.510813 107.475035 
L 329.383972 107.678086 
L 330.287929 104.199868 
L 331.077882 121.397195 
L 331.936181 108.915233 
L 332.811155 121.57411 
L 333.645697 122.329316 
L 334.484529 125.449134 
L 335.375143 134.374315 
L 336.213451 133.263556 
L 337.069109 132.463327 
L 337.917943 135.426605 
L 338.773035 129.55112 
L 339.658035 136.705342 
L 340.500563 138.358151 
L 342.187829 121.518935 
L 343.076811 126.274432 
L 343.893048 135.207431 
L 344.740142 133.955388 
L 345.586864 130.529009 
L 346.46221 130.491499 
L 347.303413 133.295897 
L 348.197363 131.069888 
L 349.040582 136.632453 
L 349.903392 132.187545 
L 350.717812 131.215844 
L 351.57328 132.149796 
L 352.4397 133.721381 
L 353.290707 137.591035 
L 354.167596 132.516951 
L 354.992606 139.777492 
L 355.850126 137.911257 
L 356.727295 141.65839 
L 357.608785 124.778261 
L 358.423593 117.873677 
L 359.274458 119.368691 
L 360.131581 122.264977 
L 360.917343 121.257821 
L 361.866674 122.987124 
L 362.677518 127.263766 
L 363.519349 121.811546 
L 364.384598 119.850314 
L 365.274575 123.572182 
L 366.098416 119.537732 
L 366.91527 125.137586 
L 367.800596 141.534726 
L 368.668118 132.926117 
L 369.484707 131.081522 
L 370.376158 129.73462 
L 371.209732 127.42472 
L 372.087452 120.841653 
L 372.968798 129.047911 
L 373.780504 131.03687 
L 374.672551 120.140869 
L 375.470471 124.715269 
L 376.367338 112.96056 
L 377.229957 119.169804 
L 378.027908 121.689383 
L 378.864623 120.38697 
L 379.781169 120.102163 
L 380.518979 125.509724 
L 381.542711 121.514676 
L 382.326371 126.313963 
L 383.30229 130.314682 
L 384.048317 129.895829 
L 384.889999 131.770947 
L 385.739144 132.227865 
L 386.593353 134.532264 
L 387.466142 124.57677 
L 388.326685 117.650869 
L 389.179322 119.108279 
L 390.000061 106.829858 
L 390.844489 122.986388 
L 391.738897 123.035825 
L 392.576295 122.503072 
L 393.432203 123.910654 
L 394.29448 125.057388 
L 395.135575 123.243509 
L 395.976429 122.680137 
L 396.860544 121.788464 
L 397.678953 121.293282 
L 398.565701 120.020251 
L 399.413732 115.046184 
L 400.257366 118.822293 
L 401.123724 120.196972 
L 401.964046 120.613464 
L 402.803918 117.950308 
L 403.687912 119.075685 
L 404.546493 121.873838 
L 404.546493 121.873838 
" clip-path="url(#p37ebeaaaca)" style="fill: none; stroke: #1f77b4; stroke-width: 1.5; stroke-linecap: square"/>
   </g>
   <g id="line2d_2">
    <path d="M 74.224636 231.609273 
L 76.618475 227.799978 
L 77.644599 225.19715 
L 79.011946 220.375676 
L 80.379292 214.612906 
L 87.216026 184.236862 
L 89.608269 175.228081 
L 91.659289 168.407068 
L 93.709082 162.355561 
L 95.417652 157.847535 
L 97.468672 152.991925 
L 99.860915 148.032387 
L 101.911935 144.266855 
L 104.302951 140.381375 
L 106.695194 136.941558 
L 108.746214 134.304433 
L 111.47968 131.196374 
L 114.214374 128.486112 
L 117.289063 125.845196 
L 120.706202 123.254273 
L 123.782119 121.209724 
L 126.858035 119.405565 
L 130.275174 117.641686 
L 134.033537 115.940589 
L 137.793127 114.447914 
L 142.235162 112.910914 
L 147.019649 111.475227 
L 152.829031 109.981087 
L 158.637186 108.701785 
L 166.155139 107.300534 
L 176.065334 105.797318 
L 185.633079 104.613121 
L 194.862056 103.651493 
L 213.997546 102.081378 
L 230.05221 101.080463 
L 243.038321 100.411818 
L 258.761582 99.729402 
L 267.991786 99.459401 
L 343.84639 97.796899 
L 369.474936 97.34903 
L 387.247989 97.059733 
L 404.333686 96.799521 
L 404.333686 96.799521 
" clip-path="url(#p37ebeaaaca)" style="fill: none; stroke: #000000; stroke-width: 2.5; stroke-linecap: square"/>
   </g>
   <g id="line2d_3">
    <path d="M 74.224636 194.457721 
L 75.934802 153.407861 
L 76.960926 135.376344 
L 77.985822 121.821419 
L 79.011946 111.003793 
L 80.379292 98.482175 
L 81.746639 87.385363 
L 82.772763 80.585436 
L 84.14011 73.788719 
L 85.165006 69.710047 
L 86.189902 66.292435 
L 87.557249 62.573174 
L 88.924596 59.482882 
L 90.633166 56.334827 
L 92.341735 53.748352 
L 94.392755 51.197177 
L 96.101325 49.400122 
L 98.152345 47.551724 
L 100.202138 45.963256 
L 102.936831 44.16941 
L 106.012748 42.475044 
L 109.087437 41.043819 
L 112.504576 39.686401 
L 116.264166 38.412418 
L 121.048652 37.042163 
L 125.833139 35.883705 
L 132.667418 34.513451 
L 140.526593 33.367829 
L 150.094338 32.215789 
L 166.497589 30.63053 
L 181.191043 29.494535 
L 206.817134 27.915694 
L 226.296302 26.933732 
L 258.417904 25.544224 
L 307.968881 23.801723 
L 386.216955 21.719065 
L 404.677364 21.314727 
L 404.677364 21.314727 
" clip-path="url(#p37ebeaaaca)" style="fill: none; stroke-dasharray: 9.25,4; stroke-dashoffset: 0; stroke: #8b0000; stroke-width: 2.5"/>
   </g>
   <g id="legend_1">
    <g id="line2d_4">
     <path d="M 333.95625 198.188062 
L 343.95625 198.188062 
L 353.95625 198.188062 
" style="fill: none; stroke: #1f77b4; stroke-width: 1.5; stroke-linecap: square"/>
    </g>
    <g id="text_1">
     <!-- PSP -->
     <g transform="translate(361.95625 201.688062) scale(0.1 -0.1)">
      <defs>
       <path id="DejaVuSans-50" d="M 1259 4147 
L 1259 2394 
L 2053 2394 
Q 2494 2394 2734 2622 
Q 2975 2850 2975 3272 
Q 2975 3691 2734 3919 
Q 2494 4147 2053 4147 
L 1259 4147 
z
M 628 4666 
L 2053 4666 
Q 2838 4666 3239 4311 
Q 3641 3956 3641 3272 
Q 3641 2581 3239 2228 
Q 2838 1875 2053 1875 
L 1259 1875 
L 1259 0 
L 628 0 
L 628 4666 
z
" transform="scale(0.015625)"/>
       <path id="DejaVuSans-53" d="M 3425 4513 
L 3425 3897 
Q 3066 4069 2747 4153 
Q 2428 4238 2131 4238 
Q 1616 4238 1336 4038 
Q 1056 3838 1056 3469 
Q 1056 3159 1242 3001 
Q 1428 2844 1947 2747 
L 2328 2669 
Q 3034 2534 3370 2195 
Q 3706 1856 3706 1288 
Q 3706 609 3251 259 
Q 2797 -91 1919 -91 
Q 1588 -91 1214 -16 
Q 841 59 441 206 
L 441 856 
Q 825 641 1194 531 
Q 1563 422 1919 422 
Q 2459 422 2753 634 
Q 3047 847 3047 1241 
Q 3047 1584 2836 1778 
Q 2625 1972 2144 2069 
L 1759 2144 
Q 1053 2284 737 2584 
Q 422 2884 422 3419 
Q 422 4038 858 4394 
Q 1294 4750 2059 4750 
Q 2388 4750 2728 4690 
Q 3069 4631 3425 4513 
z
" transform="scale(0.015625)"/>
      </defs>
      <use xlink:href="#DejaVuSans-50"/>
      <use xlink:href="#DejaVuSans-53" x="60.302734"/>
      <use xlink:href="#DejaVuSans-50" x="123.779297"/>
     </g>
    </g>
    <g id="line2d_5">
     <path d="M 333.95625 212.866187 
L 343.95625 212.866187 
L 353.95625 212.866187 
" style="fill: none; stroke: #000000; stroke-width: 2.5; stroke-linecap: square"/>
    </g>
    <g id="text_2">
     <!-- Slow wind -->
     <g transform="translate(361.95625 216.366187) scale(0.1 -0.1)">
      <defs>
       <path id="DejaVuSans-6c" d="M 603 4863 
L 1178 4863 
L 1178 0 
L 603 0 
L 603 4863 
z
" transform="scale(0.015625)"/>
       <path id="DejaVuSans-6f" d="M 1959 3097 
Q 1497 3097 1228 2736 
Q 959 2375 959 1747 
Q 959 1119 1226 758 
Q 1494 397 1959 397 
Q 2419 397 2687 759 
Q 2956 1122 2956 1747 
Q 2956 2369 2687 2733 
Q 2419 3097 1959 3097 
z
M 1959 3584 
Q 2709 3584 3137 3096 
Q 3566 2609 3566 1747 
Q 3566 888 3137 398 
Q 2709 -91 1959 -91 
Q 1206 -91 779 398 
Q 353 888 353 1747 
Q 353 2609 779 3096 
Q 1206 3584 1959 3584 
z
" transform="scale(0.015625)"/>
       <path id="DejaVuSans-77" d="M 269 3500 
L 844 3500 
L 1563 769 
L 2278 3500 
L 2956 3500 
L 3675 769 
L 4391 3500 
L 4966 3500 
L 4050 0 
L 3372 0 
L 2619 2869 
L 1863 0 
L 1184 0 
L 269 3500 
z
" transform="scale(0.015625)"/>
       <path id="DejaVuSans-20" transform="scale(0.015625)"/>
       <path id="DejaVuSans-69" d="M 603 3500 
L 1178 3500 
L 1178 0 
L 603 0 
L 603 3500 
z
M 603 4863 
L 1178 4863 
L 1178 4134 
L 603 4134 
L 603 4863 
z
" transform="scale(0.015625)"/>
       <path id="DejaVuSans-6e" d="M 3513 2113 
L 3513 0 
L 2938 0 
L 2938 2094 
Q 2938 2591 2744 2837 
Q 2550 3084 2163 3084 
Q 1697 3084 1428 2787 
Q 1159 2491 1159 1978 
L 1159 0 
L 581 0 
L 581 3500 
L 1159 3500 
L 1159 2956 
Q 1366 3272 1645 3428 
Q 1925 3584 2291 3584 
Q 2894 3584 3203 3211 
Q 3513 2838 3513 2113 
z
" transform="scale(0.015625)"/>
       <path id="DejaVuSans-64" d="M 2906 2969 
L 2906 4863 
L 3481 4863 
L 3481 0 
L 2906 0 
L 2906 525 
Q 2725 213 2448 61 
Q 2172 -91 1784 -91 
Q 1150 -91 751 415 
Q 353 922 353 1747 
Q 353 2572 751 3078 
Q 1150 3584 1784 3584 
Q 2172 3584 2448 3432 
Q 2725 3281 2906 2969 
z
M 947 1747 
Q 947 1113 1208 752 
Q 1469 391 1925 391 
Q 2381 391 2643 752 
Q 2906 1113 2906 1747 
Q 2906 2381 2643 2742 
Q 2381 3103 1925 3103 
Q 1469 3103 1208 2742 
Q 947 2381 947 1747 
z
" transform="scale(0.015625)"/>
      </defs>
      <use xlink:href="#DejaVuSans-53"/>
      <use xlink:href="#DejaVuSans-6c" x="63.476562"/>
      <use xlink:href="#DejaVuSans-6f" x="91.259766"/>
      <use xlink:href="#DejaVuSans-77" x="152.441406"/>
      <use xlink:href="#DejaVuSans-20" x="234.228516"/>
      <use xlink:href="#DejaVuSans-77" x="266.015625"/>
      <use xlink:href="#DejaVuSans-69" x="347.802734"/>
      <use xlink:href="#DejaVuSans-6e" x="375.585938"/>
      <use xlink:href="#DejaVuSans-64" x="438.964844"/>
     </g>
    </g>
    <g id="line2d_6">
     <path d="M 333.95625 227.544312 
L 343.95625 227.544312 
L 353.95625 227.544312 
" style="fill: none; stroke-dasharray: 9.25,4; stroke-dashoffset: 0; stroke: #8b0000; stroke-width: 2.5"/>
    </g>
    <g id="text_3">
     <!-- Fast wind -->
     <g transform="translate(361.95625 231.044312) scale(0.1 -0.1)">
      <defs>
       <path id="DejaVuSans-46" d="M 628 4666 
L 3309 4666 
L 3309 4134 
L 1259 4134 
L 1259 2759 
L 3109 2759 
L 3109 2228 
L 1259 2228 
L 1259 0 
L 628 0 
L 628 4666 
z
" transform="scale(0.015625)"/>
       <path id="DejaVuSans-61" d="M 2194 1759 
Q 1497 1759 1228 1600 
Q 959 1441 959 1056 
Q 959 750 1161 570 
Q 1363 391 1709 391 
Q 2188 391 2477 730 
Q 2766 1069 2766 1631 
L 2766 1759 
L 2194 1759 
z
M 3341 1997 
L 3341 0 
L 2766 0 
L 2766 531 
Q 2569 213 2275 61 
Q 1981 -91 1556 -91 
Q 1019 -91 701 211 
Q 384 513 384 1019 
Q 384 1609 779 1909 
Q 1175 2209 1959 2209 
L 2766 2209 
L 2766 2266 
Q 2766 2663 2505 2880 
Q 2244 3097 1772 3097 
Q 1472 3097 1187 3025 
Q 903 2953 641 2809 
L 641 3341 
Q 956 3463 1253 3523 
Q 1550 3584 1831 3584 
Q 2591 3584 2966 3190 
Q 3341 2797 3341 1997 
z
" transform="scale(0.015625)"/>
       <path id="DejaVuSans-73" d="M 2834 3397 
L 2834 2853 
Q 2591 2978 2328 3040 
Q 2066 3103 1784 3103 
Q 1356 3103 1142 2972 
Q 928 2841 928 2578 
Q 928 2378 1081 2264 
Q 1234 2150 1697 2047 
L 1894 2003 
Q 2506 1872 2764 1633 
Q 3022 1394 3022 966 
Q 3022 478 2636 193 
Q 2250 -91 1575 -91 
Q 1294 -91 989 -36 
Q 684 19 347 128 
L 347 722 
Q 666 556 975 473 
Q 1284 391 1588 391 
Q 1994 391 2212 530 
Q 2431 669 2431 922 
Q 2431 1156 2273 1281 
Q 2116 1406 1581 1522 
L 1381 1569 
Q 847 1681 609 1914 
Q 372 2147 372 2553 
Q 372 3047 722 3315 
Q 1072 3584 1716 3584 
Q 2034 3584 2315 3537 
Q 2597 3491 2834 3397 
z
" transform="scale(0.015625)"/>
       <path id="DejaVuSans-74" d="M 1172 4494 
L 1172 3500 
L 2356 3500 
L 2356 3053 
L 1172 3053 
L 1172 1153 
Q 1172 725 1289 603 
Q 1406 481 1766 481 
L 2356 481 
L 2356 0 
L 1766 0 
Q 1100 0 847 248 
Q 594 497 594 1153 
L 594 3053 
L 172 3053 
L 172 3500 
L 594 3500 
L 594 4494 
L 1172 4494 
z
" transform="scale(0.015625)"/>
      </defs>
      <use xlink:href="#DejaVuSans-46"/>
      <use xlink:href="#DejaVuSans-61" x="48.394531"/>
      <use xlink:href="#DejaVuSans-73" x="109.673828"/>
      <use xlink:href="#DejaVuSans-74" x="161.773438"/>
      <use xlink:href="#DejaVuSans-20" x="200.982422"/>
      <use xlink:href="#DejaVuSans-77" x="232.769531"/>
      <use xlink:href="#DejaVuSans-69" x="314.556641"/>
      <use xlink:href="#DejaVuSans-6e" x="342.339844"/>
      <use xlink:href="#DejaVuSans-64" x="405.71875"/>
     </g>
    </g>
   </g>
   <g id="matplotlib.axis_1">
    <g id="xtick_1">
     <g id="line2d_7">
      <defs>
       <path id="m8302ef27fc" d="M 0 0 
L 0 -3.5 
" style="stroke: #000000; stroke-width: 1.5"/>
      </defs>
      <g>
       <use xlink:href="#m8302ef27fc" x="63.393016" y="242.124" style="stroke: #000000; stroke-width: 1.5"/>
      </g>
     </g>
     <g id="line2d_8">
      <defs>
       <path id="mc9550da476" d="M 0 0 
L 0 3.5 
" style="stroke: #000000; stroke-width: 1.5"/>
      </defs>
      <g>
       <use xlink:href="#mc9550da476" x="63.393016" y="10.8" style="stroke: #000000; stroke-width: 1.5"/>
      </g>
     </g>
     <g id="text_4">
      <!-- 0 -->
      <g transform="translate(59.575516 254.742125) scale(0.12 -0.12)">
       <defs>
        <path id="DejaVuSans-30" d="M 2034 4250 
Q 1547 4250 1301 3770 
Q 1056 3291 1056 2328 
Q 1056 1369 1301 889 
Q 1547 409 2034 409 
Q 2525 409 2770 889 
Q 3016 1369 3016 2328 
Q 3016 3291 2770 3770 
Q 2525 4250 2034 4250 
z
M 2034 4750 
Q 2819 4750 3233 4129 
Q 3647 3509 3647 2328 
Q 3647 1150 3233 529 
Q 2819 -91 2034 -91 
Q 1250 -91 836 529 
Q 422 1150 422 2328 
Q 422 3509 836 4129 
Q 1250 4750 2034 4750 
z
" transform="scale(0.015625)"/>
       </defs>
       <use xlink:href="#DejaVuSans-30"/>
      </g>
     </g>
    </g>
    <g id="xtick_2">
     <g id="line2d_9">
      <g>
       <use xlink:href="#m8302ef27fc" x="106.088848" y="242.124" style="stroke: #000000; stroke-width: 1.5"/>
      </g>
     </g>
     <g id="line2d_10">
      <g>
       <use xlink:href="#mc9550da476" x="106.088848" y="10.8" style="stroke: #000000; stroke-width: 1.5"/>
      </g>
     </g>
     <g id="text_5">
      <!-- 5 -->
      <g transform="translate(102.271348 254.742125) scale(0.12 -0.12)">
       <defs>
        <path id="DejaVuSans-35" d="M 691 4666 
L 3169 4666 
L 3169 4134 
L 1269 4134 
L 1269 2991 
Q 1406 3038 1543 3061 
Q 1681 3084 1819 3084 
Q 2600 3084 3056 2656 
Q 3513 2228 3513 1497 
Q 3513 744 3044 326 
Q 2575 -91 1722 -91 
Q 1428 -91 1123 -41 
Q 819 9 494 109 
L 494 744 
Q 775 591 1075 516 
Q 1375 441 1709 441 
Q 2250 441 2565 725 
Q 2881 1009 2881 1497 
Q 2881 1984 2565 2268 
Q 2250 2553 1709 2553 
Q 1456 2553 1204 2497 
Q 953 2441 691 2322 
L 691 4666 
z
" transform="scale(0.015625)"/>
       </defs>
       <use xlink:href="#DejaVuSans-35"/>
      </g>
     </g>
    </g>
    <g id="xtick_3">
     <g id="line2d_11">
      <g>
       <use xlink:href="#m8302ef27fc" x="148.78468" y="242.124" style="stroke: #000000; stroke-width: 1.5"/>
      </g>
     </g>
     <g id="line2d_12">
      <g>
       <use xlink:href="#mc9550da476" x="148.78468" y="10.8" style="stroke: #000000; stroke-width: 1.5"/>
      </g>
     </g>
     <g id="text_6">
      <!-- 10 -->
      <g transform="translate(141.14968 254.742125) scale(0.12 -0.12)">
       <defs>
        <path id="DejaVuSans-31" d="M 794 531 
L 1825 531 
L 1825 4091 
L 703 3866 
L 703 4441 
L 1819 4666 
L 2450 4666 
L 2450 531 
L 3481 531 
L 3481 0 
L 794 0 
L 794 531 
z
" transform="scale(0.015625)"/>
       </defs>
       <use xlink:href="#DejaVuSans-31"/>
       <use xlink:href="#DejaVuSans-30" x="63.623047"/>
      </g>
     </g>
    </g>
    <g id="xtick_4">
     <g id="line2d_13">
      <g>
       <use xlink:href="#m8302ef27fc" x="191.480512" y="242.124" style="stroke: #000000; stroke-width: 1.5"/>
      </g>
     </g>
     <g id="line2d_14">
      <g>
       <use xlink:href="#mc9550da476" x="191.480512" y="10.8" style="stroke: #000000; stroke-width: 1.5"/>
      </g>
     </g>
     <g id="text_7">
      <!-- 15 -->
      <g transform="translate(183.845512 254.742125) scale(0.12 -0.12)">
       <use xlink:href="#DejaVuSans-31"/>
       <use xlink:href="#DejaVuSans-35" x="63.623047"/>
      </g>
     </g>
    </g>
    <g id="xtick_5">
     <g id="line2d_15">
      <g>
       <use xlink:href="#m8302ef27fc" x="234.176343" y="242.124" style="stroke: #000000; stroke-width: 1.5"/>
      </g>
     </g>
     <g id="line2d_16">
      <g>
       <use xlink:href="#mc9550da476" x="234.176343" y="10.8" style="stroke: #000000; stroke-width: 1.5"/>
      </g>
     </g>
     <g id="text_8">
      <!-- 20 -->
      <g transform="translate(226.541343 254.742125) scale(0.12 -0.12)">
       <defs>
        <path id="DejaVuSans-32" d="M 1228 531 
L 3431 531 
L 3431 0 
L 469 0 
L 469 531 
Q 828 903 1448 1529 
Q 2069 2156 2228 2338 
Q 2531 2678 2651 2914 
Q 2772 3150 2772 3378 
Q 2772 3750 2511 3984 
Q 2250 4219 1831 4219 
Q 1534 4219 1204 4116 
Q 875 4013 500 3803 
L 500 4441 
Q 881 4594 1212 4672 
Q 1544 4750 1819 4750 
Q 2544 4750 2975 4387 
Q 3406 4025 3406 3419 
Q 3406 3131 3298 2873 
Q 3191 2616 2906 2266 
Q 2828 2175 2409 1742 
Q 1991 1309 1228 531 
z
" transform="scale(0.015625)"/>
       </defs>
       <use xlink:href="#DejaVuSans-32"/>
       <use xlink:href="#DejaVuSans-30" x="63.623047"/>
      </g>
     </g>
    </g>
    <g id="xtick_6">
     <g id="line2d_17">
      <g>
       <use xlink:href="#m8302ef27fc" x="276.872175" y="242.124" style="stroke: #000000; stroke-width: 1.5"/>
      </g>
     </g>
     <g id="line2d_18">
      <g>
       <use xlink:href="#mc9550da476" x="276.872175" y="10.8" style="stroke: #000000; stroke-width: 1.5"/>
      </g>
     </g>
     <g id="text_9">
      <!-- 25 -->
      <g transform="translate(269.237175 254.742125) scale(0.12 -0.12)">
       <use xlink:href="#DejaVuSans-32"/>
       <use xlink:href="#DejaVuSans-35" x="63.623047"/>
      </g>
     </g>
    </g>
    <g id="xtick_7">
     <g id="line2d_19">
      <g>
       <use xlink:href="#m8302ef27fc" x="319.568007" y="242.124" style="stroke: #000000; stroke-width: 1.5"/>
      </g>
     </g>
     <g id="line2d_20">
      <g>
       <use xlink:href="#mc9550da476" x="319.568007" y="10.8" style="stroke: #000000; stroke-width: 1.5"/>
      </g>
     </g>
     <g id="text_10">
      <!-- 30 -->
      <g transform="translate(311.933007 254.742125) scale(0.12 -0.12)">
       <defs>
        <path id="DejaVuSans-33" d="M 2597 2516 
Q 3050 2419 3304 2112 
Q 3559 1806 3559 1356 
Q 3559 666 3084 287 
Q 2609 -91 1734 -91 
Q 1441 -91 1130 -33 
Q 819 25 488 141 
L 488 750 
Q 750 597 1062 519 
Q 1375 441 1716 441 
Q 2309 441 2620 675 
Q 2931 909 2931 1356 
Q 2931 1769 2642 2001 
Q 2353 2234 1838 2234 
L 1294 2234 
L 1294 2753 
L 1863 2753 
Q 2328 2753 2575 2939 
Q 2822 3125 2822 3475 
Q 2822 3834 2567 4026 
Q 2313 4219 1838 4219 
Q 1578 4219 1281 4162 
Q 984 4106 628 3988 
L 628 4550 
Q 988 4650 1302 4700 
Q 1616 4750 1894 4750 
Q 2613 4750 3031 4423 
Q 3450 4097 3450 3541 
Q 3450 3153 3228 2886 
Q 3006 2619 2597 2516 
z
" transform="scale(0.015625)"/>
       </defs>
       <use xlink:href="#DejaVuSans-33"/>
       <use xlink:href="#DejaVuSans-30" x="63.623047"/>
      </g>
     </g>
    </g>
    <g id="xtick_8">
     <g id="line2d_21">
      <g>
       <use xlink:href="#m8302ef27fc" x="362.263839" y="242.124" style="stroke: #000000; stroke-width: 1.5"/>
      </g>
     </g>
     <g id="line2d_22">
      <g>
       <use xlink:href="#mc9550da476" x="362.263839" y="10.8" style="stroke: #000000; stroke-width: 1.5"/>
      </g>
     </g>
     <g id="text_11">
      <!-- 35 -->
      <g transform="translate(354.628839 254.742125) scale(0.12 -0.12)">
       <use xlink:href="#DejaVuSans-33"/>
       <use xlink:href="#DejaVuSans-35" x="63.623047"/>
      </g>
     </g>
    </g>
    <g id="xtick_9">
     <g id="line2d_23">
      <g>
       <use xlink:href="#m8302ef27fc" x="404.95967" y="242.124" style="stroke: #000000; stroke-width: 1.5"/>
      </g>
     </g>
     <g id="line2d_24">
      <g>
       <use xlink:href="#mc9550da476" x="404.95967" y="10.8" style="stroke: #000000; stroke-width: 1.5"/>
      </g>
     </g>
     <g id="text_12">
      <!-- 40 -->
      <g transform="translate(397.32467 254.742125) scale(0.12 -0.12)">
       <defs>
        <path id="DejaVuSans-34" d="M 2419 4116 
L 825 1625 
L 2419 1625 
L 2419 4116 
z
M 2253 4666 
L 3047 4666 
L 3047 1625 
L 3713 1625 
L 3713 1100 
L 3047 1100 
L 3047 0 
L 2419 0 
L 2419 1100 
L 313 1100 
L 313 1709 
L 2253 4666 
z
" transform="scale(0.015625)"/>
       </defs>
       <use xlink:href="#DejaVuSans-34"/>
       <use xlink:href="#DejaVuSans-30" x="63.623047"/>
      </g>
     </g>
    </g>
    <g id="xtick_10">
     <g id="line2d_25">
      <defs>
       <path id="m88459560a3" d="M 0 0 
L 0 -2 
" style="stroke: #000000; stroke-width: 1.5"/>
      </defs>
      <g>
       <use xlink:href="#m88459560a3" x="71.932183" y="242.124" style="stroke: #000000; stroke-width: 1.5"/>
      </g>
     </g>
     <g id="line2d_26">
      <defs>
       <path id="m5210e1684b" d="M 0 0 
L 0 2 
" style="stroke: #000000; stroke-width: 1.5"/>
      </defs>
      <g>
       <use xlink:href="#m5210e1684b" x="71.932183" y="10.8" style="stroke: #000000; stroke-width: 1.5"/>
      </g>
     </g>
    </g>
    <g id="xtick_11">
     <g id="line2d_27">
      <g>
       <use xlink:href="#m88459560a3" x="80.471349" y="242.124" style="stroke: #000000; stroke-width: 1.5"/>
      </g>
     </g>
     <g id="line2d_28">
      <g>
       <use xlink:href="#m5210e1684b" x="80.471349" y="10.8" style="stroke: #000000; stroke-width: 1.5"/>
      </g>
     </g>
    </g>
    <g id="xtick_12">
     <g id="line2d_29">
      <g>
       <use xlink:href="#m88459560a3" x="89.010515" y="242.124" style="stroke: #000000; stroke-width: 1.5"/>
      </g>
     </g>
     <g id="line2d_30">
      <g>
       <use xlink:href="#m5210e1684b" x="89.010515" y="10.8" style="stroke: #000000; stroke-width: 1.5"/>
      </g>
     </g>
    </g>
    <g id="xtick_13">
     <g id="line2d_31">
      <g>
       <use xlink:href="#m88459560a3" x="97.549682" y="242.124" style="stroke: #000000; stroke-width: 1.5"/>
      </g>
     </g>
     <g id="line2d_32">
      <g>
       <use xlink:href="#m5210e1684b" x="97.549682" y="10.8" style="stroke: #000000; stroke-width: 1.5"/>
      </g>
     </g>
    </g>
    <g id="xtick_14">
     <g id="line2d_33">
      <g>
       <use xlink:href="#m88459560a3" x="114.628014" y="242.124" style="stroke: #000000; stroke-width: 1.5"/>
      </g>
     </g>
     <g id="line2d_34">
      <g>
       <use xlink:href="#m5210e1684b" x="114.628014" y="10.8" style="stroke: #000000; stroke-width: 1.5"/>
      </g>
     </g>
    </g>
    <g id="xtick_15">
     <g id="line2d_35">
      <g>
       <use xlink:href="#m88459560a3" x="123.167181" y="242.124" style="stroke: #000000; stroke-width: 1.5"/>
      </g>
     </g>
     <g id="line2d_36">
      <g>
       <use xlink:href="#m5210e1684b" x="123.167181" y="10.8" style="stroke: #000000; stroke-width: 1.5"/>
      </g>
     </g>
    </g>
    <g id="xtick_16">
     <g id="line2d_37">
      <g>
       <use xlink:href="#m88459560a3" x="131.706347" y="242.124" style="stroke: #000000; stroke-width: 1.5"/>
      </g>
     </g>
     <g id="line2d_38">
      <g>
       <use xlink:href="#m5210e1684b" x="131.706347" y="10.8" style="stroke: #000000; stroke-width: 1.5"/>
      </g>
     </g>
    </g>
    <g id="xtick_17">
     <g id="line2d_39">
      <g>
       <use xlink:href="#m88459560a3" x="140.245513" y="242.124" style="stroke: #000000; stroke-width: 1.5"/>
      </g>
     </g>
     <g id="line2d_40">
      <g>
       <use xlink:href="#m5210e1684b" x="140.245513" y="10.8" style="stroke: #000000; stroke-width: 1.5"/>
      </g>
     </g>
    </g>
    <g id="xtick_18">
     <g id="line2d_41">
      <g>
       <use xlink:href="#m88459560a3" x="157.323846" y="242.124" style="stroke: #000000; stroke-width: 1.5"/>
      </g>
     </g>
     <g id="line2d_42">
      <g>
       <use xlink:href="#m5210e1684b" x="157.323846" y="10.8" style="stroke: #000000; stroke-width: 1.5"/>
      </g>
     </g>
    </g>
    <g id="xtick_19">
     <g id="line2d_43">
      <g>
       <use xlink:href="#m88459560a3" x="165.863012" y="242.124" style="stroke: #000000; stroke-width: 1.5"/>
      </g>
     </g>
     <g id="line2d_44">
      <g>
       <use xlink:href="#m5210e1684b" x="165.863012" y="10.8" style="stroke: #000000; stroke-width: 1.5"/>
      </g>
     </g>
    </g>
    <g id="xtick_20">
     <g id="line2d_45">
      <g>
       <use xlink:href="#m88459560a3" x="174.402179" y="242.124" style="stroke: #000000; stroke-width: 1.5"/>
      </g>
     </g>
     <g id="line2d_46">
      <g>
       <use xlink:href="#m5210e1684b" x="174.402179" y="10.8" style="stroke: #000000; stroke-width: 1.5"/>
      </g>
     </g>
    </g>
    <g id="xtick_21">
     <g id="line2d_47">
      <g>
       <use xlink:href="#m88459560a3" x="182.941345" y="242.124" style="stroke: #000000; stroke-width: 1.5"/>
      </g>
     </g>
     <g id="line2d_48">
      <g>
       <use xlink:href="#m5210e1684b" x="182.941345" y="10.8" style="stroke: #000000; stroke-width: 1.5"/>
      </g>
     </g>
    </g>
    <g id="xtick_22">
     <g id="line2d_49">
      <g>
       <use xlink:href="#m88459560a3" x="200.019678" y="242.124" style="stroke: #000000; stroke-width: 1.5"/>
      </g>
     </g>
     <g id="line2d_50">
      <g>
       <use xlink:href="#m5210e1684b" x="200.019678" y="10.8" style="stroke: #000000; stroke-width: 1.5"/>
      </g>
     </g>
    </g>
    <g id="xtick_23">
     <g id="line2d_51">
      <g>
       <use xlink:href="#m88459560a3" x="208.558844" y="242.124" style="stroke: #000000; stroke-width: 1.5"/>
      </g>
     </g>
     <g id="line2d_52">
      <g>
       <use xlink:href="#m5210e1684b" x="208.558844" y="10.8" style="stroke: #000000; stroke-width: 1.5"/>
      </g>
     </g>
    </g>
    <g id="xtick_24">
     <g id="line2d_53">
      <g>
       <use xlink:href="#m88459560a3" x="217.098011" y="242.124" style="stroke: #000000; stroke-width: 1.5"/>
      </g>
     </g>
     <g id="line2d_54">
      <g>
       <use xlink:href="#m5210e1684b" x="217.098011" y="10.8" style="stroke: #000000; stroke-width: 1.5"/>
      </g>
     </g>
    </g>
    <g id="xtick_25">
     <g id="line2d_55">
      <g>
       <use xlink:href="#m88459560a3" x="225.637177" y="242.124" style="stroke: #000000; stroke-width: 1.5"/>
      </g>
     </g>
     <g id="line2d_56">
      <g>
       <use xlink:href="#m5210e1684b" x="225.637177" y="10.8" style="stroke: #000000; stroke-width: 1.5"/>
      </g>
     </g>
    </g>
    <g id="xtick_26">
     <g id="line2d_57">
      <g>
       <use xlink:href="#m88459560a3" x="242.71551" y="242.124" style="stroke: #000000; stroke-width: 1.5"/>
      </g>
     </g>
     <g id="line2d_58">
      <g>
       <use xlink:href="#m5210e1684b" x="242.71551" y="10.8" style="stroke: #000000; stroke-width: 1.5"/>
      </g>
     </g>
    </g>
    <g id="xtick_27">
     <g id="line2d_59">
      <g>
       <use xlink:href="#m88459560a3" x="251.254676" y="242.124" style="stroke: #000000; stroke-width: 1.5"/>
      </g>
     </g>
     <g id="line2d_60">
      <g>
       <use xlink:href="#m5210e1684b" x="251.254676" y="10.8" style="stroke: #000000; stroke-width: 1.5"/>
      </g>
     </g>
    </g>
    <g id="xtick_28">
     <g id="line2d_61">
      <g>
       <use xlink:href="#m88459560a3" x="259.793842" y="242.124" style="stroke: #000000; stroke-width: 1.5"/>
      </g>
     </g>
     <g id="line2d_62">
      <g>
       <use xlink:href="#m5210e1684b" x="259.793842" y="10.8" style="stroke: #000000; stroke-width: 1.5"/>
      </g>
     </g>
    </g>
    <g id="xtick_29">
     <g id="line2d_63">
      <g>
       <use xlink:href="#m88459560a3" x="268.333009" y="242.124" style="stroke: #000000; stroke-width: 1.5"/>
      </g>
     </g>
     <g id="line2d_64">
      <g>
       <use xlink:href="#m5210e1684b" x="268.333009" y="10.8" style="stroke: #000000; stroke-width: 1.5"/>
      </g>
     </g>
    </g>
    <g id="xtick_30">
     <g id="line2d_65">
      <g>
       <use xlink:href="#m88459560a3" x="285.411341" y="242.124" style="stroke: #000000; stroke-width: 1.5"/>
      </g>
     </g>
     <g id="line2d_66">
      <g>
       <use xlink:href="#m5210e1684b" x="285.411341" y="10.8" style="stroke: #000000; stroke-width: 1.5"/>
      </g>
     </g>
    </g>
    <g id="xtick_31">
     <g id="line2d_67">
      <g>
       <use xlink:href="#m88459560a3" x="293.950508" y="242.124" style="stroke: #000000; stroke-width: 1.5"/>
      </g>
     </g>
     <g id="line2d_68">
      <g>
       <use xlink:href="#m5210e1684b" x="293.950508" y="10.8" style="stroke: #000000; stroke-width: 1.5"/>
      </g>
     </g>
    </g>
    <g id="xtick_32">
     <g id="line2d_69">
      <g>
       <use xlink:href="#m88459560a3" x="302.489674" y="242.124" style="stroke: #000000; stroke-width: 1.5"/>
      </g>
     </g>
     <g id="line2d_70">
      <g>
       <use xlink:href="#m5210e1684b" x="302.489674" y="10.8" style="stroke: #000000; stroke-width: 1.5"/>
      </g>
     </g>
    </g>
    <g id="xtick_33">
     <g id="line2d_71">
      <g>
       <use xlink:href="#m88459560a3" x="311.028841" y="242.124" style="stroke: #000000; stroke-width: 1.5"/>
      </g>
     </g>
     <g id="line2d_72">
      <g>
       <use xlink:href="#m5210e1684b" x="311.028841" y="10.8" style="stroke: #000000; stroke-width: 1.5"/>
      </g>
     </g>
    </g>
    <g id="xtick_34">
     <g id="line2d_73">
      <g>
       <use xlink:href="#m88459560a3" x="328.107173" y="242.124" style="stroke: #000000; stroke-width: 1.5"/>
      </g>
     </g>
     <g id="line2d_74">
      <g>
       <use xlink:href="#m5210e1684b" x="328.107173" y="10.8" style="stroke: #000000; stroke-width: 1.5"/>
      </g>
     </g>
    </g>
    <g id="xtick_35">
     <g id="line2d_75">
      <g>
       <use xlink:href="#m88459560a3" x="336.64634" y="242.124" style="stroke: #000000; stroke-width: 1.5"/>
      </g>
     </g>
     <g id="line2d_76">
      <g>
       <use xlink:href="#m5210e1684b" x="336.64634" y="10.8" style="stroke: #000000; stroke-width: 1.5"/>
      </g>
     </g>
    </g>
    <g id="xtick_36">
     <g id="line2d_77">
      <g>
       <use xlink:href="#m88459560a3" x="345.185506" y="242.124" style="stroke: #000000; stroke-width: 1.5"/>
      </g>
     </g>
     <g id="line2d_78">
      <g>
       <use xlink:href="#m5210e1684b" x="345.185506" y="10.8" style="stroke: #000000; stroke-width: 1.5"/>
      </g>
     </g>
    </g>
    <g id="xtick_37">
     <g id="line2d_79">
      <g>
       <use xlink:href="#m88459560a3" x="353.724672" y="242.124" style="stroke: #000000; stroke-width: 1.5"/>
      </g>
     </g>
     <g id="line2d_80">
      <g>
       <use xlink:href="#m5210e1684b" x="353.724672" y="10.8" style="stroke: #000000; stroke-width: 1.5"/>
      </g>
     </g>
    </g>
    <g id="xtick_38">
     <g id="line2d_81">
      <g>
       <use xlink:href="#m88459560a3" x="370.803005" y="242.124" style="stroke: #000000; stroke-width: 1.5"/>
      </g>
     </g>
     <g id="line2d_82">
      <g>
       <use xlink:href="#m5210e1684b" x="370.803005" y="10.8" style="stroke: #000000; stroke-width: 1.5"/>
      </g>
     </g>
    </g>
    <g id="xtick_39">
     <g id="line2d_83">
      <g>
       <use xlink:href="#m88459560a3" x="379.342171" y="242.124" style="stroke: #000000; stroke-width: 1.5"/>
      </g>
     </g>
     <g id="line2d_84">
      <g>
       <use xlink:href="#m5210e1684b" x="379.342171" y="10.8" style="stroke: #000000; stroke-width: 1.5"/>
      </g>
     </g>
    </g>
    <g id="xtick_40">
     <g id="line2d_85">
      <g>
       <use xlink:href="#m88459560a3" x="387.881338" y="242.124" style="stroke: #000000; stroke-width: 1.5"/>
      </g>
     </g>
     <g id="line2d_86">
      <g>
       <use xlink:href="#m5210e1684b" x="387.881338" y="10.8" style="stroke: #000000; stroke-width: 1.5"/>
      </g>
     </g>
    </g>
    <g id="xtick_41">
     <g id="line2d_87">
      <g>
       <use xlink:href="#m88459560a3" x="396.420504" y="242.124" style="stroke: #000000; stroke-width: 1.5"/>
      </g>
     </g>
     <g id="line2d_88">
      <g>
       <use xlink:href="#m5210e1684b" x="396.420504" y="10.8" style="stroke: #000000; stroke-width: 1.5"/>
      </g>
     </g>
    </g>
    <g id="xtick_42">
     <g id="line2d_89">
      <g>
       <use xlink:href="#m88459560a3" x="413.498837" y="242.124" style="stroke: #000000; stroke-width: 1.5"/>
      </g>
     </g>
     <g id="line2d_90">
      <g>
       <use xlink:href="#m5210e1684b" x="413.498837" y="10.8" style="stroke: #000000; stroke-width: 1.5"/>
      </g>
     </g>
    </g>
    <g id="text_13">
     <!-- Distance [R$_\odot$] -->
     <g transform="translate(197.211 270.355875) scale(0.12 -0.12)">
      <defs>
       <path id="DejaVuSans-44" d="M 1259 4147 
L 1259 519 
L 2022 519 
Q 2988 519 3436 956 
Q 3884 1394 3884 2338 
Q 3884 3275 3436 3711 
Q 2988 4147 2022 4147 
L 1259 4147 
z
M 628 4666 
L 1925 4666 
Q 3281 4666 3915 4102 
Q 4550 3538 4550 2338 
Q 4550 1131 3912 565 
Q 3275 0 1925 0 
L 628 0 
L 628 4666 
z
" transform="scale(0.015625)"/>
       <path id="DejaVuSans-63" d="M 3122 3366 
L 3122 2828 
Q 2878 2963 2633 3030 
Q 2388 3097 2138 3097 
Q 1578 3097 1268 2742 
Q 959 2388 959 1747 
Q 959 1106 1268 751 
Q 1578 397 2138 397 
Q 2388 397 2633 464 
Q 2878 531 3122 666 
L 3122 134 
Q 2881 22 2623 -34 
Q 2366 -91 2075 -91 
Q 1284 -91 818 406 
Q 353 903 353 1747 
Q 353 2603 823 3093 
Q 1294 3584 2113 3584 
Q 2378 3584 2631 3529 
Q 2884 3475 3122 3366 
z
" transform="scale(0.015625)"/>
       <path id="DejaVuSans-65" d="M 3597 1894 
L 3597 1613 
L 953 1613 
Q 991 1019 1311 708 
Q 1631 397 2203 397 
Q 2534 397 2845 478 
Q 3156 559 3463 722 
L 3463 178 
Q 3153 47 2828 -22 
Q 2503 -91 2169 -91 
Q 1331 -91 842 396 
Q 353 884 353 1716 
Q 353 2575 817 3079 
Q 1281 3584 2069 3584 
Q 2775 3584 3186 3129 
Q 3597 2675 3597 1894 
z
M 3022 2063 
Q 3016 2534 2758 2815 
Q 2500 3097 2075 3097 
Q 1594 3097 1305 2825 
Q 1016 2553 972 2059 
L 3022 2063 
z
" transform="scale(0.015625)"/>
       <path id="DejaVuSans-5b" d="M 550 4863 
L 1875 4863 
L 1875 4416 
L 1125 4416 
L 1125 -397 
L 1875 -397 
L 1875 -844 
L 550 -844 
L 550 4863 
z
" transform="scale(0.015625)"/>
       <path id="DejaVuSans-52" d="M 2841 2188 
Q 3044 2119 3236 1894 
Q 3428 1669 3622 1275 
L 4263 0 
L 3584 0 
L 2988 1197 
Q 2756 1666 2539 1819 
Q 2322 1972 1947 1972 
L 1259 1972 
L 1259 0 
L 628 0 
L 628 4666 
L 2053 4666 
Q 2853 4666 3247 4331 
Q 3641 3997 3641 3322 
Q 3641 2881 3436 2590 
Q 3231 2300 2841 2188 
z
M 1259 4147 
L 1259 2491 
L 2053 2491 
Q 2509 2491 2742 2702 
Q 2975 2913 2975 3322 
Q 2975 3731 2742 3939 
Q 2509 4147 2053 4147 
L 1259 4147 
z
" transform="scale(0.015625)"/>
       <path id="DejaVuSans-2299" d="M 2350 2403 
L 3013 2403 
L 3013 1609 
L 2350 1609 
L 2350 2403 
z
M 3306 3522 
Q 3016 3644 2681 3644 
Q 2347 3644 2056 3522 
Q 1769 3400 1531 3163 
Q 1291 2922 1172 2634 
Q 1053 2347 1053 2006 
Q 1053 1675 1172 1387 
Q 1291 1100 1531 859 
Q 1769 622 2056 500 
Q 2347 378 2681 378 
Q 3016 378 3306 500 
Q 3594 622 3831 859 
Q 4072 1100 4190 1387 
Q 4309 1675 4309 2006 
Q 4309 2347 4190 2634 
Q 4072 2922 3831 3163 
Q 3594 3400 3306 3522 
z
M 1878 3956 
Q 2250 4113 2681 4113 
Q 3113 4113 3484 3956 
Q 3856 3800 4163 3494 
Q 4472 3184 4625 2813 
Q 4778 2444 4778 2006 
Q 4778 1578 4625 1206 
Q 4472 838 4163 528 
Q 3856 222 3484 65 
Q 3113 -91 2681 -91 
Q 2250 -91 1878 65 
Q 1506 222 1200 528 
Q 891 838 738 1206 
Q 584 1578 584 2006 
Q 584 2444 738 2813 
Q 891 3184 1200 3494 
Q 1506 3800 1878 3956 
z
" transform="scale(0.015625)"/>
       <path id="DejaVuSans-5d" d="M 1947 4863 
L 1947 -844 
L 622 -844 
L 622 -397 
L 1369 -397 
L 1369 4416 
L 622 4416 
L 622 4863 
L 1947 4863 
z
" transform="scale(0.015625)"/>
      </defs>
      <use xlink:href="#DejaVuSans-44" transform="translate(0 0.015625)"/>
      <use xlink:href="#DejaVuSans-69" transform="translate(77.001953 0.015625)"/>
      <use xlink:href="#DejaVuSans-73" transform="translate(104.785156 0.015625)"/>
      <use xlink:href="#DejaVuSans-74" transform="translate(156.884766 0.015625)"/>
      <use xlink:href="#DejaVuSans-61" transform="translate(196.09375 0.015625)"/>
      <use xlink:href="#DejaVuSans-6e" transform="translate(257.373047 0.015625)"/>
      <use xlink:href="#DejaVuSans-63" transform="translate(320.751953 0.015625)"/>
      <use xlink:href="#DejaVuSans-65" transform="translate(375.732422 0.015625)"/>
      <use xlink:href="#DejaVuSans-20" transform="translate(437.255859 0.015625)"/>
      <use xlink:href="#DejaVuSans-5b" transform="translate(469.042969 0.015625)"/>
      <use xlink:href="#DejaVuSans-52" transform="translate(504.931641 0.015625)"/>
      <use xlink:href="#DejaVuSans-2299" transform="translate(589.008789 -16.390625) scale(0.7)"/>
      <use xlink:href="#DejaVuSans-5d" transform="translate(664.033203 0.015625)"/>
     </g>
    </g>
   </g>
   <g id="matplotlib.axis_2">
    <g id="ytick_1">
     <g id="line2d_91">
      <defs>
       <path id="me7415bb7c2" d="M 0 0 
L 3.5 0 
" style="stroke: #000000; stroke-width: 1.5"/>
      </defs>
      <g>
       <use xlink:href="#me7415bb7c2" x="57.702" y="230.507919" style="stroke: #000000; stroke-width: 1.5"/>
      </g>
     </g>
     <g id="line2d_92">
      <defs>
       <path id="m2c5be83370" d="M 0 0 
L -3.5 0 
" style="stroke: #000000; stroke-width: 1.5"/>
      </defs>
      <g>
       <use xlink:href="#m2c5be83370" x="421.2" y="230.507919" style="stroke: #000000; stroke-width: 1.5"/>
      </g>
     </g>
     <g id="text_14">
      <!-- 0 -->
      <g transform="translate(46.567 235.066981) scale(0.12 -0.12)">
       <use xlink:href="#DejaVuSans-30"/>
      </g>
     </g>
    </g>
    <g id="ytick_2">
     <g id="line2d_93">
      <g>
       <use xlink:href="#me7415bb7c2" x="57.702" y="198.407991" style="stroke: #000000; stroke-width: 1.5"/>
      </g>
     </g>
     <g id="line2d_94">
      <g>
       <use xlink:href="#m2c5be83370" x="421.2" y="198.407991" style="stroke: #000000; stroke-width: 1.5"/>
      </g>
     </g>
     <g id="text_15">
      <!-- 100 -->
      <g transform="translate(31.297 202.967054) scale(0.12 -0.12)">
       <use xlink:href="#DejaVuSans-31"/>
       <use xlink:href="#DejaVuSans-30" x="63.623047"/>
       <use xlink:href="#DejaVuSans-30" x="127.246094"/>
      </g>
     </g>
    </g>
    <g id="ytick_3">
     <g id="line2d_95">
      <g>
       <use xlink:href="#me7415bb7c2" x="57.702" y="166.308064" style="stroke: #000000; stroke-width: 1.5"/>
      </g>
     </g>
     <g id="line2d_96">
      <g>
       <use xlink:href="#m2c5be83370" x="421.2" y="166.308064" style="stroke: #000000; stroke-width: 1.5"/>
      </g>
     </g>
     <g id="text_16">
      <!-- 200 -->
      <g transform="translate(31.297 170.867127) scale(0.12 -0.12)">
       <use xlink:href="#DejaVuSans-32"/>
       <use xlink:href="#DejaVuSans-30" x="63.623047"/>
       <use xlink:href="#DejaVuSans-30" x="127.246094"/>
      </g>
     </g>
    </g>
    <g id="ytick_4">
     <g id="line2d_97">
      <g>
       <use xlink:href="#me7415bb7c2" x="57.702" y="134.208137" style="stroke: #000000; stroke-width: 1.5"/>
      </g>
     </g>
     <g id="line2d_98">
      <g>
       <use xlink:href="#m2c5be83370" x="421.2" y="134.208137" style="stroke: #000000; stroke-width: 1.5"/>
      </g>
     </g>
     <g id="text_17">
      <!-- 300 -->
      <g transform="translate(31.297 138.767199) scale(0.12 -0.12)">
       <use xlink:href="#DejaVuSans-33"/>
       <use xlink:href="#DejaVuSans-30" x="63.623047"/>
       <use xlink:href="#DejaVuSans-30" x="127.246094"/>
      </g>
     </g>
    </g>
    <g id="ytick_5">
     <g id="line2d_99">
      <g>
       <use xlink:href="#me7415bb7c2" x="57.702" y="102.108209" style="stroke: #000000; stroke-width: 1.5"/>
      </g>
     </g>
     <g id="line2d_100">
      <g>
       <use xlink:href="#m2c5be83370" x="421.2" y="102.108209" style="stroke: #000000; stroke-width: 1.5"/>
      </g>
     </g>
     <g id="text_18">
      <!-- 400 -->
      <g transform="translate(31.297 106.667272) scale(0.12 -0.12)">
       <use xlink:href="#DejaVuSans-34"/>
       <use xlink:href="#DejaVuSans-30" x="63.623047"/>
       <use xlink:href="#DejaVuSans-30" x="127.246094"/>
      </g>
     </g>
    </g>
    <g id="ytick_6">
     <g id="line2d_101">
      <g>
       <use xlink:href="#me7415bb7c2" x="57.702" y="70.008282" style="stroke: #000000; stroke-width: 1.5"/>
      </g>
     </g>
     <g id="line2d_102">
      <g>
       <use xlink:href="#m2c5be83370" x="421.2" y="70.008282" style="stroke: #000000; stroke-width: 1.5"/>
      </g>
     </g>
     <g id="text_19">
      <!-- 500 -->
      <g transform="translate(31.297 74.567344) scale(0.12 -0.12)">
       <use xlink:href="#DejaVuSans-35"/>
       <use xlink:href="#DejaVuSans-30" x="63.623047"/>
       <use xlink:href="#DejaVuSans-30" x="127.246094"/>
      </g>
     </g>
    </g>
    <g id="ytick_7">
     <g id="line2d_103">
      <g>
       <use xlink:href="#me7415bb7c2" x="57.702" y="37.908354" style="stroke: #000000; stroke-width: 1.5"/>
      </g>
     </g>
     <g id="line2d_104">
      <g>
       <use xlink:href="#m2c5be83370" x="421.2" y="37.908354" style="stroke: #000000; stroke-width: 1.5"/>
      </g>
     </g>
     <g id="text_20">
      <!-- 600 -->
      <g transform="translate(31.297 42.467417) scale(0.12 -0.12)">
       <defs>
        <path id="DejaVuSans-36" d="M 2113 2584 
Q 1688 2584 1439 2293 
Q 1191 2003 1191 1497 
Q 1191 994 1439 701 
Q 1688 409 2113 409 
Q 2538 409 2786 701 
Q 3034 994 3034 1497 
Q 3034 2003 2786 2293 
Q 2538 2584 2113 2584 
z
M 3366 4563 
L 3366 3988 
Q 3128 4100 2886 4159 
Q 2644 4219 2406 4219 
Q 1781 4219 1451 3797 
Q 1122 3375 1075 2522 
Q 1259 2794 1537 2939 
Q 1816 3084 2150 3084 
Q 2853 3084 3261 2657 
Q 3669 2231 3669 1497 
Q 3669 778 3244 343 
Q 2819 -91 2113 -91 
Q 1303 -91 875 529 
Q 447 1150 447 2328 
Q 447 3434 972 4092 
Q 1497 4750 2381 4750 
Q 2619 4750 2861 4703 
Q 3103 4656 3366 4563 
z
" transform="scale(0.015625)"/>
       </defs>
       <use xlink:href="#DejaVuSans-36"/>
       <use xlink:href="#DejaVuSans-30" x="63.623047"/>
       <use xlink:href="#DejaVuSans-30" x="127.246094"/>
      </g>
     </g>
    </g>
    <g id="ytick_8">
     <g id="line2d_105">
      <defs>
       <path id="mc9f38e3a23" d="M 0 0 
L 2 0 
" style="stroke: #000000; stroke-width: 1.5"/>
      </defs>
      <g>
       <use xlink:href="#mc9f38e3a23" x="57.702" y="236.927904" style="stroke: #000000; stroke-width: 1.5"/>
      </g>
     </g>
     <g id="line2d_106">
      <defs>
       <path id="m6b2db6d137" d="M 0 0 
L -2 0 
" style="stroke: #000000; stroke-width: 1.5"/>
      </defs>
      <g>
       <use xlink:href="#m6b2db6d137" x="421.2" y="236.927904" style="stroke: #000000; stroke-width: 1.5"/>
      </g>
     </g>
    </g>
    <g id="ytick_9">
     <g id="line2d_107">
      <g>
       <use xlink:href="#mc9f38e3a23" x="57.702" y="224.087933" style="stroke: #000000; stroke-width: 1.5"/>
      </g>
     </g>
     <g id="line2d_108">
      <g>
       <use xlink:href="#m6b2db6d137" x="421.2" y="224.087933" style="stroke: #000000; stroke-width: 1.5"/>
      </g>
     </g>
    </g>
    <g id="ytick_10">
     <g id="line2d_109">
      <g>
       <use xlink:href="#mc9f38e3a23" x="57.702" y="217.667948" style="stroke: #000000; stroke-width: 1.5"/>
      </g>
     </g>
     <g id="line2d_110">
      <g>
       <use xlink:href="#m6b2db6d137" x="421.2" y="217.667948" style="stroke: #000000; stroke-width: 1.5"/>
      </g>
     </g>
    </g>
    <g id="ytick_11">
     <g id="line2d_111">
      <g>
       <use xlink:href="#mc9f38e3a23" x="57.702" y="211.247962" style="stroke: #000000; stroke-width: 1.5"/>
      </g>
     </g>
     <g id="line2d_112">
      <g>
       <use xlink:href="#m6b2db6d137" x="421.2" y="211.247962" style="stroke: #000000; stroke-width: 1.5"/>
      </g>
     </g>
    </g>
    <g id="ytick_12">
     <g id="line2d_113">
      <g>
       <use xlink:href="#mc9f38e3a23" x="57.702" y="204.827977" style="stroke: #000000; stroke-width: 1.5"/>
      </g>
     </g>
     <g id="line2d_114">
      <g>
       <use xlink:href="#m6b2db6d137" x="421.2" y="204.827977" style="stroke: #000000; stroke-width: 1.5"/>
      </g>
     </g>
    </g>
    <g id="ytick_13">
     <g id="line2d_115">
      <g>
       <use xlink:href="#mc9f38e3a23" x="57.702" y="191.988006" style="stroke: #000000; stroke-width: 1.5"/>
      </g>
     </g>
     <g id="line2d_116">
      <g>
       <use xlink:href="#m6b2db6d137" x="421.2" y="191.988006" style="stroke: #000000; stroke-width: 1.5"/>
      </g>
     </g>
    </g>
    <g id="ytick_14">
     <g id="line2d_117">
      <g>
       <use xlink:href="#mc9f38e3a23" x="57.702" y="185.568021" style="stroke: #000000; stroke-width: 1.5"/>
      </g>
     </g>
     <g id="line2d_118">
      <g>
       <use xlink:href="#m6b2db6d137" x="421.2" y="185.568021" style="stroke: #000000; stroke-width: 1.5"/>
      </g>
     </g>
    </g>
    <g id="ytick_15">
     <g id="line2d_119">
      <g>
       <use xlink:href="#mc9f38e3a23" x="57.702" y="179.148035" style="stroke: #000000; stroke-width: 1.5"/>
      </g>
     </g>
     <g id="line2d_120">
      <g>
       <use xlink:href="#m6b2db6d137" x="421.2" y="179.148035" style="stroke: #000000; stroke-width: 1.5"/>
      </g>
     </g>
    </g>
    <g id="ytick_16">
     <g id="line2d_121">
      <g>
       <use xlink:href="#mc9f38e3a23" x="57.702" y="172.72805" style="stroke: #000000; stroke-width: 1.5"/>
      </g>
     </g>
     <g id="line2d_122">
      <g>
       <use xlink:href="#m6b2db6d137" x="421.2" y="172.72805" style="stroke: #000000; stroke-width: 1.5"/>
      </g>
     </g>
    </g>
    <g id="ytick_17">
     <g id="line2d_123">
      <g>
       <use xlink:href="#mc9f38e3a23" x="57.702" y="159.888079" style="stroke: #000000; stroke-width: 1.5"/>
      </g>
     </g>
     <g id="line2d_124">
      <g>
       <use xlink:href="#m6b2db6d137" x="421.2" y="159.888079" style="stroke: #000000; stroke-width: 1.5"/>
      </g>
     </g>
    </g>
    <g id="ytick_18">
     <g id="line2d_125">
      <g>
       <use xlink:href="#mc9f38e3a23" x="57.702" y="153.468093" style="stroke: #000000; stroke-width: 1.5"/>
      </g>
     </g>
     <g id="line2d_126">
      <g>
       <use xlink:href="#m6b2db6d137" x="421.2" y="153.468093" style="stroke: #000000; stroke-width: 1.5"/>
      </g>
     </g>
    </g>
    <g id="ytick_19">
     <g id="line2d_127">
      <g>
       <use xlink:href="#mc9f38e3a23" x="57.702" y="147.048108" style="stroke: #000000; stroke-width: 1.5"/>
      </g>
     </g>
     <g id="line2d_128">
      <g>
       <use xlink:href="#m6b2db6d137" x="421.2" y="147.048108" style="stroke: #000000; stroke-width: 1.5"/>
      </g>
     </g>
    </g>
    <g id="ytick_20">
     <g id="line2d_129">
      <g>
       <use xlink:href="#mc9f38e3a23" x="57.702" y="140.628122" style="stroke: #000000; stroke-width: 1.5"/>
      </g>
     </g>
     <g id="line2d_130">
      <g>
       <use xlink:href="#m6b2db6d137" x="421.2" y="140.628122" style="stroke: #000000; stroke-width: 1.5"/>
      </g>
     </g>
    </g>
    <g id="ytick_21">
     <g id="line2d_131">
      <g>
       <use xlink:href="#mc9f38e3a23" x="57.702" y="127.788151" style="stroke: #000000; stroke-width: 1.5"/>
      </g>
     </g>
     <g id="line2d_132">
      <g>
       <use xlink:href="#m6b2db6d137" x="421.2" y="127.788151" style="stroke: #000000; stroke-width: 1.5"/>
      </g>
     </g>
    </g>
    <g id="ytick_22">
     <g id="line2d_133">
      <g>
       <use xlink:href="#mc9f38e3a23" x="57.702" y="121.368166" style="stroke: #000000; stroke-width: 1.5"/>
      </g>
     </g>
     <g id="line2d_134">
      <g>
       <use xlink:href="#m6b2db6d137" x="421.2" y="121.368166" style="stroke: #000000; stroke-width: 1.5"/>
      </g>
     </g>
    </g>
    <g id="ytick_23">
     <g id="line2d_135">
      <g>
       <use xlink:href="#mc9f38e3a23" x="57.702" y="114.94818" style="stroke: #000000; stroke-width: 1.5"/>
      </g>
     </g>
     <g id="line2d_136">
      <g>
       <use xlink:href="#m6b2db6d137" x="421.2" y="114.94818" style="stroke: #000000; stroke-width: 1.5"/>
      </g>
     </g>
    </g>
    <g id="ytick_24">
     <g id="line2d_137">
      <g>
       <use xlink:href="#mc9f38e3a23" x="57.702" y="108.528195" style="stroke: #000000; stroke-width: 1.5"/>
      </g>
     </g>
     <g id="line2d_138">
      <g>
       <use xlink:href="#m6b2db6d137" x="421.2" y="108.528195" style="stroke: #000000; stroke-width: 1.5"/>
      </g>
     </g>
    </g>
    <g id="ytick_25">
     <g id="line2d_139">
      <g>
       <use xlink:href="#mc9f38e3a23" x="57.702" y="95.688224" style="stroke: #000000; stroke-width: 1.5"/>
      </g>
     </g>
     <g id="line2d_140">
      <g>
       <use xlink:href="#m6b2db6d137" x="421.2" y="95.688224" style="stroke: #000000; stroke-width: 1.5"/>
      </g>
     </g>
    </g>
    <g id="ytick_26">
     <g id="line2d_141">
      <g>
       <use xlink:href="#mc9f38e3a23" x="57.702" y="89.268238" style="stroke: #000000; stroke-width: 1.5"/>
      </g>
     </g>
     <g id="line2d_142">
      <g>
       <use xlink:href="#m6b2db6d137" x="421.2" y="89.268238" style="stroke: #000000; stroke-width: 1.5"/>
      </g>
     </g>
    </g>
    <g id="ytick_27">
     <g id="line2d_143">
      <g>
       <use xlink:href="#mc9f38e3a23" x="57.702" y="82.848253" style="stroke: #000000; stroke-width: 1.5"/>
      </g>
     </g>
     <g id="line2d_144">
      <g>
       <use xlink:href="#m6b2db6d137" x="421.2" y="82.848253" style="stroke: #000000; stroke-width: 1.5"/>
      </g>
     </g>
    </g>
    <g id="ytick_28">
     <g id="line2d_145">
      <g>
       <use xlink:href="#mc9f38e3a23" x="57.702" y="76.428267" style="stroke: #000000; stroke-width: 1.5"/>
      </g>
     </g>
     <g id="line2d_146">
      <g>
       <use xlink:href="#m6b2db6d137" x="421.2" y="76.428267" style="stroke: #000000; stroke-width: 1.5"/>
      </g>
     </g>
    </g>
    <g id="ytick_29">
     <g id="line2d_147">
      <g>
       <use xlink:href="#mc9f38e3a23" x="57.702" y="63.588296" style="stroke: #000000; stroke-width: 1.5"/>
      </g>
     </g>
     <g id="line2d_148">
      <g>
       <use xlink:href="#m6b2db6d137" x="421.2" y="63.588296" style="stroke: #000000; stroke-width: 1.5"/>
      </g>
     </g>
    </g>
    <g id="ytick_30">
     <g id="line2d_149">
      <g>
       <use xlink:href="#mc9f38e3a23" x="57.702" y="57.168311" style="stroke: #000000; stroke-width: 1.5"/>
      </g>
     </g>
     <g id="line2d_150">
      <g>
       <use xlink:href="#m6b2db6d137" x="421.2" y="57.168311" style="stroke: #000000; stroke-width: 1.5"/>
      </g>
     </g>
    </g>
    <g id="ytick_31">
     <g id="line2d_151">
      <g>
       <use xlink:href="#mc9f38e3a23" x="57.702" y="50.748325" style="stroke: #000000; stroke-width: 1.5"/>
      </g>
     </g>
     <g id="line2d_152">
      <g>
       <use xlink:href="#m6b2db6d137" x="421.2" y="50.748325" style="stroke: #000000; stroke-width: 1.5"/>
      </g>
     </g>
    </g>
    <g id="ytick_32">
     <g id="line2d_153">
      <g>
       <use xlink:href="#mc9f38e3a23" x="57.702" y="44.32834" style="stroke: #000000; stroke-width: 1.5"/>
      </g>
     </g>
     <g id="line2d_154">
      <g>
       <use xlink:href="#m6b2db6d137" x="421.2" y="44.32834" style="stroke: #000000; stroke-width: 1.5"/>
      </g>
     </g>
    </g>
    <g id="ytick_33">
     <g id="line2d_155">
      <g>
       <use xlink:href="#mc9f38e3a23" x="57.702" y="31.488369" style="stroke: #000000; stroke-width: 1.5"/>
      </g>
     </g>
     <g id="line2d_156">
      <g>
       <use xlink:href="#m6b2db6d137" x="421.2" y="31.488369" style="stroke: #000000; stroke-width: 1.5"/>
      </g>
     </g>
    </g>
    <g id="ytick_34">
     <g id="line2d_157">
      <g>
       <use xlink:href="#mc9f38e3a23" x="57.702" y="25.068383" style="stroke: #000000; stroke-width: 1.5"/>
      </g>
     </g>
     <g id="line2d_158">
      <g>
       <use xlink:href="#m6b2db6d137" x="421.2" y="25.068383" style="stroke: #000000; stroke-width: 1.5"/>
      </g>
     </g>
    </g>
    <g id="ytick_35">
     <g id="line2d_159">
      <g>
       <use xlink:href="#mc9f38e3a23" x="57.702" y="18.648398" style="stroke: #000000; stroke-width: 1.5"/>
      </g>
     </g>
     <g id="line2d_160">
      <g>
       <use xlink:href="#m6b2db6d137" x="421.2" y="18.648398" style="stroke: #000000; stroke-width: 1.5"/>
      </g>
     </g>
    </g>
    <g id="ytick_36">
     <g id="line2d_161">
      <g>
       <use xlink:href="#mc9f38e3a23" x="57.702" y="12.228412" style="stroke: #000000; stroke-width: 1.5"/>
      </g>
     </g>
     <g id="line2d_162">
      <g>
       <use xlink:href="#m6b2db6d137" x="421.2" y="12.228412" style="stroke: #000000; stroke-width: 1.5"/>
      </g>
     </g>
    </g>
    <g id="text_21">
     <!-- $v_r$ [km s$^{-1}$] -->
     <g transform="translate(24.801375 159.282) rotate(-90) scale(0.12 -0.12)">
      <defs>
       <path id="DejaVuSans-Oblique-76" d="M 459 3500 
L 1069 3500 
L 1581 525 
L 3256 3500 
L 3866 3500 
L 1875 0 
L 1100 0 
L 459 3500 
z
" transform="scale(0.015625)"/>
       <path id="DejaVuSans-Oblique-72" d="M 2853 2969 
Q 2766 3016 2653 3041 
Q 2541 3066 2413 3066 
Q 1953 3066 1609 2717 
Q 1266 2369 1153 1784 
L 800 0 
L 225 0 
L 909 3500 
L 1484 3500 
L 1375 2956 
Q 1603 3259 1920 3421 
Q 2238 3584 2597 3584 
Q 2691 3584 2781 3573 
Q 2872 3563 2963 3538 
L 2853 2969 
z
" transform="scale(0.015625)"/>
       <path id="DejaVuSans-6b" d="M 581 4863 
L 1159 4863 
L 1159 1991 
L 2875 3500 
L 3609 3500 
L 1753 1863 
L 3688 0 
L 2938 0 
L 1159 1709 
L 1159 0 
L 581 0 
L 581 4863 
z
" transform="scale(0.015625)"/>
       <path id="DejaVuSans-6d" d="M 3328 2828 
Q 3544 3216 3844 3400 
Q 4144 3584 4550 3584 
Q 5097 3584 5394 3201 
Q 5691 2819 5691 2113 
L 5691 0 
L 5113 0 
L 5113 2094 
Q 5113 2597 4934 2840 
Q 4756 3084 4391 3084 
Q 3944 3084 3684 2787 
Q 3425 2491 3425 1978 
L 3425 0 
L 2847 0 
L 2847 2094 
Q 2847 2600 2669 2842 
Q 2491 3084 2119 3084 
Q 1678 3084 1418 2786 
Q 1159 2488 1159 1978 
L 1159 0 
L 581 0 
L 581 3500 
L 1159 3500 
L 1159 2956 
Q 1356 3278 1631 3431 
Q 1906 3584 2284 3584 
Q 2666 3584 2933 3390 
Q 3200 3197 3328 2828 
z
" transform="scale(0.015625)"/>
       <path id="DejaVuSans-2212" d="M 678 2272 
L 4684 2272 
L 4684 1741 
L 678 1741 
L 678 2272 
z
" transform="scale(0.015625)"/>
      </defs>
      <use xlink:href="#DejaVuSans-Oblique-76" transform="translate(0 0.684375)"/>
      <use xlink:href="#DejaVuSans-Oblique-72" transform="translate(59.179688 -15.721875) scale(0.7)"/>
      <use xlink:href="#DejaVuSans-20" transform="translate(90.693359 0.684375)"/>
      <use xlink:href="#DejaVuSans-5b" transform="translate(122.480469 0.684375)"/>
      <use xlink:href="#DejaVuSans-6b" transform="translate(161.494141 0.684375)"/>
      <use xlink:href="#DejaVuSans-6d" transform="translate(219.404297 0.684375)"/>
      <use xlink:href="#DejaVuSans-20" transform="translate(316.816406 0.684375)"/>
      <use xlink:href="#DejaVuSans-73" transform="translate(348.603516 0.684375)"/>
      <use xlink:href="#DejaVuSans-2212" transform="translate(401.660156 38.965625) scale(0.7)"/>
      <use xlink:href="#DejaVuSans-31" transform="translate(460.3125 38.965625) scale(0.7)"/>
      <use xlink:href="#DejaVuSans-5d" transform="translate(507.583008 0.684375)"/>
     </g>
    </g>
   </g>
  </g>
 </g>
 <defs>
  <clipPath id="p37ebeaaaca">
   <rect x="57.702" y="10.8" width="363.498" height="231.324"/>
  </clipPath>
 </defs>
</svg>
