<?xml version="1.0" encoding="utf-8" standalone="no"?>
<!DOCTYPE svg PUBLIC "-//W3C//DTD SVG 1.1//EN"
  "http://www.w3.org/Graphics/SVG/1.1/DTD/svg11.dtd">
<svg xmlns:xlink="http://www.w3.org/1999/xlink" width="432pt" height="288pt" viewBox="0 0 432 288" xmlns="http://www.w3.org/2000/svg" version="1.1">
 <metadata>
  <rdf:RDF xmlns:dc="http://purl.org/dc/elements/1.1/" xmlns:cc="http://creativecommons.org/ns#" xmlns:rdf="http://www.w3.org/1999/02/22-rdf-syntax-ns#">
   <cc:Work>
    <dc:type rdf:resource="http://purl.org/dc/dcmitype/StillImage"/>
    <dc:date>2022-11-07T20:37:44.085159</dc:date>
    <dc:format>image/svg+xml</dc:format>
    <dc:creator>
     <cc:Agent>
      <dc:title>Matplotlib v3.6.1, https://matplotlib.org/</dc:title>
     </cc:Agent>
    </dc:creator>
   </cc:Work>
  </rdf:RDF>
 </metadata>
 <defs>
  <style type="text/css">*{stroke-linejoin: round; stroke-linecap: butt}</style>
 </defs>
 <g id="figure_1">
  <g id="patch_1">
   <path d="M 0 288 
L 432 288 
L 432 0 
L 0 0 
z
" style="fill: #ffffff"/>
  </g>
  <g id="axes_1">
   <g id="patch_2">
    <path d="M 57.702 242.124 
L 417.760168 242.124 
L 417.760168 10.8 
L 57.702 10.8 
z
" style="fill: #ffffff"/>
   </g>
   <g id="matplotlib.axis_1">
    <g id="xtick_1">
     <g id="line2d_1">
      <defs>
       <path id="m7d817731b9" d="M 0 0 
L 0 -3.5 
" style="stroke: #000000; stroke-width: 1.5"/>
      </defs>
      <g>
       <use xlink:href="#m7d817731b9" x="66.741041" y="242.124" style="stroke: #000000; stroke-width: 1.5"/>
      </g>
     </g>
     <g id="line2d_2">
      <defs>
       <path id="m4e0276e14c" d="M 0 0 
L 0 3.5 
" style="stroke: #000000; stroke-width: 1.5"/>
      </defs>
      <g>
       <use xlink:href="#m4e0276e14c" x="66.741041" y="10.8" style="stroke: #000000; stroke-width: 1.5"/>
      </g>
     </g>
     <g id="text_1">
      <!-- 0 -->
      <g transform="translate(62.923541 254.742125) scale(0.12 -0.12)">
       <defs>
        <path id="DejaVuSans-30" d="M 2034 4250 
Q 1547 4250 1301 3770 
Q 1056 3291 1056 2328 
Q 1056 1369 1301 889 
Q 1547 409 2034 409 
Q 2525 409 2770 889 
Q 3016 1369 3016 2328 
Q 3016 3291 2770 3770 
Q 2525 4250 2034 4250 
z
M 2034 4750 
Q 2819 4750 3233 4129 
Q 3647 3509 3647 2328 
Q 3647 1150 3233 529 
Q 2819 -91 2034 -91 
Q 1250 -91 836 529 
Q 422 1150 422 2328 
Q 422 3509 836 4129 
Q 1250 4750 2034 4750 
z
" transform="scale(0.015625)"/>
       </defs>
       <use xlink:href="#DejaVuSans-30"/>
      </g>
     </g>
    </g>
    <g id="xtick_2">
     <g id="line2d_3">
      <g>
       <use xlink:href="#m7d817731b9" x="124.505728" y="242.124" style="stroke: #000000; stroke-width: 1.5"/>
      </g>
     </g>
     <g id="line2d_4">
      <g>
       <use xlink:href="#m4e0276e14c" x="124.505728" y="10.8" style="stroke: #000000; stroke-width: 1.5"/>
      </g>
     </g>
     <g id="text_2">
      <!-- 10 -->
      <g transform="translate(116.870728 254.742125) scale(0.12 -0.12)">
       <defs>
        <path id="DejaVuSans-31" d="M 794 531 
L 1825 531 
L 1825 4091 
L 703 3866 
L 703 4441 
L 1819 4666 
L 2450 4666 
L 2450 531 
L 3481 531 
L 3481 0 
L 794 0 
L 794 531 
z
" transform="scale(0.015625)"/>
       </defs>
       <use xlink:href="#DejaVuSans-31"/>
       <use xlink:href="#DejaVuSans-30" x="63.623047"/>
      </g>
     </g>
    </g>
    <g id="xtick_3">
     <g id="line2d_5">
      <g>
       <use xlink:href="#m7d817731b9" x="182.270415" y="242.124" style="stroke: #000000; stroke-width: 1.5"/>
      </g>
     </g>
     <g id="line2d_6">
      <g>
       <use xlink:href="#m4e0276e14c" x="182.270415" y="10.8" style="stroke: #000000; stroke-width: 1.5"/>
      </g>
     </g>
     <g id="text_3">
      <!-- 20 -->
      <g transform="translate(174.635415 254.742125) scale(0.12 -0.12)">
       <defs>
        <path id="DejaVuSans-32" d="M 1228 531 
L 3431 531 
L 3431 0 
L 469 0 
L 469 531 
Q 828 903 1448 1529 
Q 2069 2156 2228 2338 
Q 2531 2678 2651 2914 
Q 2772 3150 2772 3378 
Q 2772 3750 2511 3984 
Q 2250 4219 1831 4219 
Q 1534 4219 1204 4116 
Q 875 4013 500 3803 
L 500 4441 
Q 881 4594 1212 4672 
Q 1544 4750 1819 4750 
Q 2544 4750 2975 4387 
Q 3406 4025 3406 3419 
Q 3406 3131 3298 2873 
Q 3191 2616 2906 2266 
Q 2828 2175 2409 1742 
Q 1991 1309 1228 531 
z
" transform="scale(0.015625)"/>
       </defs>
       <use xlink:href="#DejaVuSans-32"/>
       <use xlink:href="#DejaVuSans-30" x="63.623047"/>
      </g>
     </g>
    </g>
    <g id="xtick_4">
     <g id="line2d_7">
      <g>
       <use xlink:href="#m7d817731b9" x="240.035103" y="242.124" style="stroke: #000000; stroke-width: 1.5"/>
      </g>
     </g>
     <g id="line2d_8">
      <g>
       <use xlink:href="#m4e0276e14c" x="240.035103" y="10.8" style="stroke: #000000; stroke-width: 1.5"/>
      </g>
     </g>
     <g id="text_4">
      <!-- 30 -->
      <g transform="translate(232.400103 254.742125) scale(0.12 -0.12)">
       <defs>
        <path id="DejaVuSans-33" d="M 2597 2516 
Q 3050 2419 3304 2112 
Q 3559 1806 3559 1356 
Q 3559 666 3084 287 
Q 2609 -91 1734 -91 
Q 1441 -91 1130 -33 
Q 819 25 488 141 
L 488 750 
Q 750 597 1062 519 
Q 1375 441 1716 441 
Q 2309 441 2620 675 
Q 2931 909 2931 1356 
Q 2931 1769 2642 2001 
Q 2353 2234 1838 2234 
L 1294 2234 
L 1294 2753 
L 1863 2753 
Q 2328 2753 2575 2939 
Q 2822 3125 2822 3475 
Q 2822 3834 2567 4026 
Q 2313 4219 1838 4219 
Q 1578 4219 1281 4162 
Q 984 4106 628 3988 
L 628 4550 
Q 988 4650 1302 4700 
Q 1616 4750 1894 4750 
Q 2613 4750 3031 4423 
Q 3450 4097 3450 3541 
Q 3450 3153 3228 2886 
Q 3006 2619 2597 2516 
z
" transform="scale(0.015625)"/>
       </defs>
       <use xlink:href="#DejaVuSans-33"/>
       <use xlink:href="#DejaVuSans-30" x="63.623047"/>
      </g>
     </g>
    </g>
    <g id="xtick_5">
     <g id="line2d_9">
      <g>
       <use xlink:href="#m7d817731b9" x="297.79979" y="242.124" style="stroke: #000000; stroke-width: 1.5"/>
      </g>
     </g>
     <g id="line2d_10">
      <g>
       <use xlink:href="#m4e0276e14c" x="297.79979" y="10.8" style="stroke: #000000; stroke-width: 1.5"/>
      </g>
     </g>
     <g id="text_5">
      <!-- 40 -->
      <g transform="translate(290.16479 254.742125) scale(0.12 -0.12)">
       <defs>
        <path id="DejaVuSans-34" d="M 2419 4116 
L 825 1625 
L 2419 1625 
L 2419 4116 
z
M 2253 4666 
L 3047 4666 
L 3047 1625 
L 3713 1625 
L 3713 1100 
L 3047 1100 
L 3047 0 
L 2419 0 
L 2419 1100 
L 313 1100 
L 313 1709 
L 2253 4666 
z
" transform="scale(0.015625)"/>
       </defs>
       <use xlink:href="#DejaVuSans-34"/>
       <use xlink:href="#DejaVuSans-30" x="63.623047"/>
      </g>
     </g>
    </g>
    <g id="xtick_6">
     <g id="line2d_11">
      <g>
       <use xlink:href="#m7d817731b9" x="355.564477" y="242.124" style="stroke: #000000; stroke-width: 1.5"/>
      </g>
     </g>
     <g id="line2d_12">
      <g>
       <use xlink:href="#m4e0276e14c" x="355.564477" y="10.8" style="stroke: #000000; stroke-width: 1.5"/>
      </g>
     </g>
     <g id="text_6">
      <!-- 50 -->
      <g transform="translate(347.929477 254.742125) scale(0.12 -0.12)">
       <defs>
        <path id="DejaVuSans-35" d="M 691 4666 
L 3169 4666 
L 3169 4134 
L 1269 4134 
L 1269 2991 
Q 1406 3038 1543 3061 
Q 1681 3084 1819 3084 
Q 2600 3084 3056 2656 
Q 3513 2228 3513 1497 
Q 3513 744 3044 326 
Q 2575 -91 1722 -91 
Q 1428 -91 1123 -41 
Q 819 9 494 109 
L 494 744 
Q 775 591 1075 516 
Q 1375 441 1709 441 
Q 2250 441 2565 725 
Q 2881 1009 2881 1497 
Q 2881 1984 2565 2268 
Q 2250 2553 1709 2553 
Q 1456 2553 1204 2497 
Q 953 2441 691 2322 
L 691 4666 
z
" transform="scale(0.015625)"/>
       </defs>
       <use xlink:href="#DejaVuSans-35"/>
       <use xlink:href="#DejaVuSans-30" x="63.623047"/>
      </g>
     </g>
    </g>
    <g id="xtick_7">
     <g id="line2d_13">
      <g>
       <use xlink:href="#m7d817731b9" x="413.329164" y="242.124" style="stroke: #000000; stroke-width: 1.5"/>
      </g>
     </g>
     <g id="line2d_14">
      <g>
       <use xlink:href="#m4e0276e14c" x="413.329164" y="10.8" style="stroke: #000000; stroke-width: 1.5"/>
      </g>
     </g>
     <g id="text_7">
      <!-- 60 -->
      <g transform="translate(405.694164 254.742125) scale(0.12 -0.12)">
       <defs>
        <path id="DejaVuSans-36" d="M 2113 2584 
Q 1688 2584 1439 2293 
Q 1191 2003 1191 1497 
Q 1191 994 1439 701 
Q 1688 409 2113 409 
Q 2538 409 2786 701 
Q 3034 994 3034 1497 
Q 3034 2003 2786 2293 
Q 2538 2584 2113 2584 
z
M 3366 4563 
L 3366 3988 
Q 3128 4100 2886 4159 
Q 2644 4219 2406 4219 
Q 1781 4219 1451 3797 
Q 1122 3375 1075 2522 
Q 1259 2794 1537 2939 
Q 1816 3084 2150 3084 
Q 2853 3084 3261 2657 
Q 3669 2231 3669 1497 
Q 3669 778 3244 343 
Q 2819 -91 2113 -91 
Q 1303 -91 875 529 
Q 447 1150 447 2328 
Q 447 3434 972 4092 
Q 1497 4750 2381 4750 
Q 2619 4750 2861 4703 
Q 3103 4656 3366 4563 
z
" transform="scale(0.015625)"/>
       </defs>
       <use xlink:href="#DejaVuSans-36"/>
       <use xlink:href="#DejaVuSans-30" x="63.623047"/>
      </g>
     </g>
    </g>
    <g id="xtick_8">
     <g id="line2d_15">
      <defs>
       <path id="m102ff74471" d="M 0 0 
L 0 -2 
" style="stroke: #000000; stroke-width: 1.5"/>
      </defs>
      <g>
       <use xlink:href="#m102ff74471" x="78.293979" y="242.124" style="stroke: #000000; stroke-width: 1.5"/>
      </g>
     </g>
     <g id="line2d_16">
      <defs>
       <path id="m326108e63a" d="M 0 0 
L 0 2 
" style="stroke: #000000; stroke-width: 1.5"/>
      </defs>
      <g>
       <use xlink:href="#m326108e63a" x="78.293979" y="10.8" style="stroke: #000000; stroke-width: 1.5"/>
      </g>
     </g>
    </g>
    <g id="xtick_9">
     <g id="line2d_17">
      <g>
       <use xlink:href="#m102ff74471" x="89.846916" y="242.124" style="stroke: #000000; stroke-width: 1.5"/>
      </g>
     </g>
     <g id="line2d_18">
      <g>
       <use xlink:href="#m326108e63a" x="89.846916" y="10.8" style="stroke: #000000; stroke-width: 1.5"/>
      </g>
     </g>
    </g>
    <g id="xtick_10">
     <g id="line2d_19">
      <g>
       <use xlink:href="#m102ff74471" x="101.399853" y="242.124" style="stroke: #000000; stroke-width: 1.5"/>
      </g>
     </g>
     <g id="line2d_20">
      <g>
       <use xlink:href="#m326108e63a" x="101.399853" y="10.8" style="stroke: #000000; stroke-width: 1.5"/>
      </g>
     </g>
    </g>
    <g id="xtick_11">
     <g id="line2d_21">
      <g>
       <use xlink:href="#m102ff74471" x="112.952791" y="242.124" style="stroke: #000000; stroke-width: 1.5"/>
      </g>
     </g>
     <g id="line2d_22">
      <g>
       <use xlink:href="#m326108e63a" x="112.952791" y="10.8" style="stroke: #000000; stroke-width: 1.5"/>
      </g>
     </g>
    </g>
    <g id="xtick_12">
     <g id="line2d_23">
      <g>
       <use xlink:href="#m102ff74471" x="136.058666" y="242.124" style="stroke: #000000; stroke-width: 1.5"/>
      </g>
     </g>
     <g id="line2d_24">
      <g>
       <use xlink:href="#m326108e63a" x="136.058666" y="10.8" style="stroke: #000000; stroke-width: 1.5"/>
      </g>
     </g>
    </g>
    <g id="xtick_13">
     <g id="line2d_25">
      <g>
       <use xlink:href="#m102ff74471" x="147.611603" y="242.124" style="stroke: #000000; stroke-width: 1.5"/>
      </g>
     </g>
     <g id="line2d_26">
      <g>
       <use xlink:href="#m326108e63a" x="147.611603" y="10.8" style="stroke: #000000; stroke-width: 1.5"/>
      </g>
     </g>
    </g>
    <g id="xtick_14">
     <g id="line2d_27">
      <g>
       <use xlink:href="#m102ff74471" x="159.164541" y="242.124" style="stroke: #000000; stroke-width: 1.5"/>
      </g>
     </g>
     <g id="line2d_28">
      <g>
       <use xlink:href="#m326108e63a" x="159.164541" y="10.8" style="stroke: #000000; stroke-width: 1.5"/>
      </g>
     </g>
    </g>
    <g id="xtick_15">
     <g id="line2d_29">
      <g>
       <use xlink:href="#m102ff74471" x="170.717478" y="242.124" style="stroke: #000000; stroke-width: 1.5"/>
      </g>
     </g>
     <g id="line2d_30">
      <g>
       <use xlink:href="#m326108e63a" x="170.717478" y="10.8" style="stroke: #000000; stroke-width: 1.5"/>
      </g>
     </g>
    </g>
    <g id="xtick_16">
     <g id="line2d_31">
      <g>
       <use xlink:href="#m102ff74471" x="193.823353" y="242.124" style="stroke: #000000; stroke-width: 1.5"/>
      </g>
     </g>
     <g id="line2d_32">
      <g>
       <use xlink:href="#m326108e63a" x="193.823353" y="10.8" style="stroke: #000000; stroke-width: 1.5"/>
      </g>
     </g>
    </g>
    <g id="xtick_17">
     <g id="line2d_33">
      <g>
       <use xlink:href="#m102ff74471" x="205.37629" y="242.124" style="stroke: #000000; stroke-width: 1.5"/>
      </g>
     </g>
     <g id="line2d_34">
      <g>
       <use xlink:href="#m326108e63a" x="205.37629" y="10.8" style="stroke: #000000; stroke-width: 1.5"/>
      </g>
     </g>
    </g>
    <g id="xtick_18">
     <g id="line2d_35">
      <g>
       <use xlink:href="#m102ff74471" x="216.929228" y="242.124" style="stroke: #000000; stroke-width: 1.5"/>
      </g>
     </g>
     <g id="line2d_36">
      <g>
       <use xlink:href="#m326108e63a" x="216.929228" y="10.8" style="stroke: #000000; stroke-width: 1.5"/>
      </g>
     </g>
    </g>
    <g id="xtick_19">
     <g id="line2d_37">
      <g>
       <use xlink:href="#m102ff74471" x="228.482165" y="242.124" style="stroke: #000000; stroke-width: 1.5"/>
      </g>
     </g>
     <g id="line2d_38">
      <g>
       <use xlink:href="#m326108e63a" x="228.482165" y="10.8" style="stroke: #000000; stroke-width: 1.5"/>
      </g>
     </g>
    </g>
    <g id="xtick_20">
     <g id="line2d_39">
      <g>
       <use xlink:href="#m102ff74471" x="251.58804" y="242.124" style="stroke: #000000; stroke-width: 1.5"/>
      </g>
     </g>
     <g id="line2d_40">
      <g>
       <use xlink:href="#m326108e63a" x="251.58804" y="10.8" style="stroke: #000000; stroke-width: 1.5"/>
      </g>
     </g>
    </g>
    <g id="xtick_21">
     <g id="line2d_41">
      <g>
       <use xlink:href="#m102ff74471" x="263.140977" y="242.124" style="stroke: #000000; stroke-width: 1.5"/>
      </g>
     </g>
     <g id="line2d_42">
      <g>
       <use xlink:href="#m326108e63a" x="263.140977" y="10.8" style="stroke: #000000; stroke-width: 1.5"/>
      </g>
     </g>
    </g>
    <g id="xtick_22">
     <g id="line2d_43">
      <g>
       <use xlink:href="#m102ff74471" x="274.693915" y="242.124" style="stroke: #000000; stroke-width: 1.5"/>
      </g>
     </g>
     <g id="line2d_44">
      <g>
       <use xlink:href="#m326108e63a" x="274.693915" y="10.8" style="stroke: #000000; stroke-width: 1.5"/>
      </g>
     </g>
    </g>
    <g id="xtick_23">
     <g id="line2d_45">
      <g>
       <use xlink:href="#m102ff74471" x="286.246852" y="242.124" style="stroke: #000000; stroke-width: 1.5"/>
      </g>
     </g>
     <g id="line2d_46">
      <g>
       <use xlink:href="#m326108e63a" x="286.246852" y="10.8" style="stroke: #000000; stroke-width: 1.5"/>
      </g>
     </g>
    </g>
    <g id="xtick_24">
     <g id="line2d_47">
      <g>
       <use xlink:href="#m102ff74471" x="309.352727" y="242.124" style="stroke: #000000; stroke-width: 1.5"/>
      </g>
     </g>
     <g id="line2d_48">
      <g>
       <use xlink:href="#m326108e63a" x="309.352727" y="10.8" style="stroke: #000000; stroke-width: 1.5"/>
      </g>
     </g>
    </g>
    <g id="xtick_25">
     <g id="line2d_49">
      <g>
       <use xlink:href="#m102ff74471" x="320.905665" y="242.124" style="stroke: #000000; stroke-width: 1.5"/>
      </g>
     </g>
     <g id="line2d_50">
      <g>
       <use xlink:href="#m326108e63a" x="320.905665" y="10.8" style="stroke: #000000; stroke-width: 1.5"/>
      </g>
     </g>
    </g>
    <g id="xtick_26">
     <g id="line2d_51">
      <g>
       <use xlink:href="#m102ff74471" x="332.458602" y="242.124" style="stroke: #000000; stroke-width: 1.5"/>
      </g>
     </g>
     <g id="line2d_52">
      <g>
       <use xlink:href="#m326108e63a" x="332.458602" y="10.8" style="stroke: #000000; stroke-width: 1.5"/>
      </g>
     </g>
    </g>
    <g id="xtick_27">
     <g id="line2d_53">
      <g>
       <use xlink:href="#m102ff74471" x="344.011539" y="242.124" style="stroke: #000000; stroke-width: 1.5"/>
      </g>
     </g>
     <g id="line2d_54">
      <g>
       <use xlink:href="#m326108e63a" x="344.011539" y="10.8" style="stroke: #000000; stroke-width: 1.5"/>
      </g>
     </g>
    </g>
    <g id="xtick_28">
     <g id="line2d_55">
      <g>
       <use xlink:href="#m102ff74471" x="367.117414" y="242.124" style="stroke: #000000; stroke-width: 1.5"/>
      </g>
     </g>
     <g id="line2d_56">
      <g>
       <use xlink:href="#m326108e63a" x="367.117414" y="10.8" style="stroke: #000000; stroke-width: 1.5"/>
      </g>
     </g>
    </g>
    <g id="xtick_29">
     <g id="line2d_57">
      <g>
       <use xlink:href="#m102ff74471" x="378.670352" y="242.124" style="stroke: #000000; stroke-width: 1.5"/>
      </g>
     </g>
     <g id="line2d_58">
      <g>
       <use xlink:href="#m326108e63a" x="378.670352" y="10.8" style="stroke: #000000; stroke-width: 1.5"/>
      </g>
     </g>
    </g>
    <g id="xtick_30">
     <g id="line2d_59">
      <g>
       <use xlink:href="#m102ff74471" x="390.223289" y="242.124" style="stroke: #000000; stroke-width: 1.5"/>
      </g>
     </g>
     <g id="line2d_60">
      <g>
       <use xlink:href="#m326108e63a" x="390.223289" y="10.8" style="stroke: #000000; stroke-width: 1.5"/>
      </g>
     </g>
    </g>
    <g id="xtick_31">
     <g id="line2d_61">
      <g>
       <use xlink:href="#m102ff74471" x="401.776227" y="242.124" style="stroke: #000000; stroke-width: 1.5"/>
      </g>
     </g>
     <g id="line2d_62">
      <g>
       <use xlink:href="#m326108e63a" x="401.776227" y="10.8" style="stroke: #000000; stroke-width: 1.5"/>
      </g>
     </g>
    </g>
    <g id="text_8">
     <!-- Distance [R$_\odot$] -->
     <g transform="translate(195.491084 270.355875) scale(0.12 -0.12)">
      <defs>
       <path id="DejaVuSans-44" d="M 1259 4147 
L 1259 519 
L 2022 519 
Q 2988 519 3436 956 
Q 3884 1394 3884 2338 
Q 3884 3275 3436 3711 
Q 2988 4147 2022 4147 
L 1259 4147 
z
M 628 4666 
L 1925 4666 
Q 3281 4666 3915 4102 
Q 4550 3538 4550 2338 
Q 4550 1131 3912 565 
Q 3275 0 1925 0 
L 628 0 
L 628 4666 
z
" transform="scale(0.015625)"/>
       <path id="DejaVuSans-69" d="M 603 3500 
L 1178 3500 
L 1178 0 
L 603 0 
L 603 3500 
z
M 603 4863 
L 1178 4863 
L 1178 4134 
L 603 4134 
L 603 4863 
z
" transform="scale(0.015625)"/>
       <path id="DejaVuSans-73" d="M 2834 3397 
L 2834 2853 
Q 2591 2978 2328 3040 
Q 2066 3103 1784 3103 
Q 1356 3103 1142 2972 
Q 928 2841 928 2578 
Q 928 2378 1081 2264 
Q 1234 2150 1697 2047 
L 1894 2003 
Q 2506 1872 2764 1633 
Q 3022 1394 3022 966 
Q 3022 478 2636 193 
Q 2250 -91 1575 -91 
Q 1294 -91 989 -36 
Q 684 19 347 128 
L 347 722 
Q 666 556 975 473 
Q 1284 391 1588 391 
Q 1994 391 2212 530 
Q 2431 669 2431 922 
Q 2431 1156 2273 1281 
Q 2116 1406 1581 1522 
L 1381 1569 
Q 847 1681 609 1914 
Q 372 2147 372 2553 
Q 372 3047 722 3315 
Q 1072 3584 1716 3584 
Q 2034 3584 2315 3537 
Q 2597 3491 2834 3397 
z
" transform="scale(0.015625)"/>
       <path id="DejaVuSans-74" d="M 1172 4494 
L 1172 3500 
L 2356 3500 
L 2356 3053 
L 1172 3053 
L 1172 1153 
Q 1172 725 1289 603 
Q 1406 481 1766 481 
L 2356 481 
L 2356 0 
L 1766 0 
Q 1100 0 847 248 
Q 594 497 594 1153 
L 594 3053 
L 172 3053 
L 172 3500 
L 594 3500 
L 594 4494 
L 1172 4494 
z
" transform="scale(0.015625)"/>
       <path id="DejaVuSans-61" d="M 2194 1759 
Q 1497 1759 1228 1600 
Q 959 1441 959 1056 
Q 959 750 1161 570 
Q 1363 391 1709 391 
Q 2188 391 2477 730 
Q 2766 1069 2766 1631 
L 2766 1759 
L 2194 1759 
z
M 3341 1997 
L 3341 0 
L 2766 0 
L 2766 531 
Q 2569 213 2275 61 
Q 1981 -91 1556 -91 
Q 1019 -91 701 211 
Q 384 513 384 1019 
Q 384 1609 779 1909 
Q 1175 2209 1959 2209 
L 2766 2209 
L 2766 2266 
Q 2766 2663 2505 2880 
Q 2244 3097 1772 3097 
Q 1472 3097 1187 3025 
Q 903 2953 641 2809 
L 641 3341 
Q 956 3463 1253 3523 
Q 1550 3584 1831 3584 
Q 2591 3584 2966 3190 
Q 3341 2797 3341 1997 
z
" transform="scale(0.015625)"/>
       <path id="DejaVuSans-6e" d="M 3513 2113 
L 3513 0 
L 2938 0 
L 2938 2094 
Q 2938 2591 2744 2837 
Q 2550 3084 2163 3084 
Q 1697 3084 1428 2787 
Q 1159 2491 1159 1978 
L 1159 0 
L 581 0 
L 581 3500 
L 1159 3500 
L 1159 2956 
Q 1366 3272 1645 3428 
Q 1925 3584 2291 3584 
Q 2894 3584 3203 3211 
Q 3513 2838 3513 2113 
z
" transform="scale(0.015625)"/>
       <path id="DejaVuSans-63" d="M 3122 3366 
L 3122 2828 
Q 2878 2963 2633 3030 
Q 2388 3097 2138 3097 
Q 1578 3097 1268 2742 
Q 959 2388 959 1747 
Q 959 1106 1268 751 
Q 1578 397 2138 397 
Q 2388 397 2633 464 
Q 2878 531 3122 666 
L 3122 134 
Q 2881 22 2623 -34 
Q 2366 -91 2075 -91 
Q 1284 -91 818 406 
Q 353 903 353 1747 
Q 353 2603 823 3093 
Q 1294 3584 2113 3584 
Q 2378 3584 2631 3529 
Q 2884 3475 3122 3366 
z
" transform="scale(0.015625)"/>
       <path id="DejaVuSans-65" d="M 3597 1894 
L 3597 1613 
L 953 1613 
Q 991 1019 1311 708 
Q 1631 397 2203 397 
Q 2534 397 2845 478 
Q 3156 559 3463 722 
L 3463 178 
Q 3153 47 2828 -22 
Q 2503 -91 2169 -91 
Q 1331 -91 842 396 
Q 353 884 353 1716 
Q 353 2575 817 3079 
Q 1281 3584 2069 3584 
Q 2775 3584 3186 3129 
Q 3597 2675 3597 1894 
z
M 3022 2063 
Q 3016 2534 2758 2815 
Q 2500 3097 2075 3097 
Q 1594 3097 1305 2825 
Q 1016 2553 972 2059 
L 3022 2063 
z
" transform="scale(0.015625)"/>
       <path id="DejaVuSans-20" transform="scale(0.015625)"/>
       <path id="DejaVuSans-5b" d="M 550 4863 
L 1875 4863 
L 1875 4416 
L 1125 4416 
L 1125 -397 
L 1875 -397 
L 1875 -844 
L 550 -844 
L 550 4863 
z
" transform="scale(0.015625)"/>
       <path id="DejaVuSans-52" d="M 2841 2188 
Q 3044 2119 3236 1894 
Q 3428 1669 3622 1275 
L 4263 0 
L 3584 0 
L 2988 1197 
Q 2756 1666 2539 1819 
Q 2322 1972 1947 1972 
L 1259 1972 
L 1259 0 
L 628 0 
L 628 4666 
L 2053 4666 
Q 2853 4666 3247 4331 
Q 3641 3997 3641 3322 
Q 3641 2881 3436 2590 
Q 3231 2300 2841 2188 
z
M 1259 4147 
L 1259 2491 
L 2053 2491 
Q 2509 2491 2742 2702 
Q 2975 2913 2975 3322 
Q 2975 3731 2742 3939 
Q 2509 4147 2053 4147 
L 1259 4147 
z
" transform="scale(0.015625)"/>
       <path id="DejaVuSans-2299" d="M 2350 2403 
L 3013 2403 
L 3013 1609 
L 2350 1609 
L 2350 2403 
z
M 3306 3522 
Q 3016 3644 2681 3644 
Q 2347 3644 2056 3522 
Q 1769 3400 1531 3163 
Q 1291 2922 1172 2634 
Q 1053 2347 1053 2006 
Q 1053 1675 1172 1387 
Q 1291 1100 1531 859 
Q 1769 622 2056 500 
Q 2347 378 2681 378 
Q 3016 378 3306 500 
Q 3594 622 3831 859 
Q 4072 1100 4190 1387 
Q 4309 1675 4309 2006 
Q 4309 2347 4190 2634 
Q 4072 2922 3831 3163 
Q 3594 3400 3306 3522 
z
M 1878 3956 
Q 2250 4113 2681 4113 
Q 3113 4113 3484 3956 
Q 3856 3800 4163 3494 
Q 4472 3184 4625 2813 
Q 4778 2444 4778 2006 
Q 4778 1578 4625 1206 
Q 4472 838 4163 528 
Q 3856 222 3484 65 
Q 3113 -91 2681 -91 
Q 2250 -91 1878 65 
Q 1506 222 1200 528 
Q 891 838 738 1206 
Q 584 1578 584 2006 
Q 584 2444 738 2813 
Q 891 3184 1200 3494 
Q 1506 3800 1878 3956 
z
" transform="scale(0.015625)"/>
       <path id="DejaVuSans-5d" d="M 1947 4863 
L 1947 -844 
L 622 -844 
L 622 -397 
L 1369 -397 
L 1369 4416 
L 622 4416 
L 622 4863 
L 1947 4863 
z
" transform="scale(0.015625)"/>
      </defs>
      <use xlink:href="#DejaVuSans-44" transform="translate(0 0.015625)"/>
      <use xlink:href="#DejaVuSans-69" transform="translate(77.001953 0.015625)"/>
      <use xlink:href="#DejaVuSans-73" transform="translate(104.785156 0.015625)"/>
      <use xlink:href="#DejaVuSans-74" transform="translate(156.884766 0.015625)"/>
      <use xlink:href="#DejaVuSans-61" transform="translate(196.09375 0.015625)"/>
      <use xlink:href="#DejaVuSans-6e" transform="translate(257.373047 0.015625)"/>
      <use xlink:href="#DejaVuSans-63" transform="translate(320.751953 0.015625)"/>
      <use xlink:href="#DejaVuSans-65" transform="translate(375.732422 0.015625)"/>
      <use xlink:href="#DejaVuSans-20" transform="translate(437.255859 0.015625)"/>
      <use xlink:href="#DejaVuSans-5b" transform="translate(469.042969 0.015625)"/>
      <use xlink:href="#DejaVuSans-52" transform="translate(504.931641 0.015625)"/>
      <use xlink:href="#DejaVuSans-2299" transform="translate(589.008789 -16.390625) scale(0.7)"/>
      <use xlink:href="#DejaVuSans-5d" transform="translate(664.033203 0.015625)"/>
     </g>
    </g>
   </g>
   <g id="matplotlib.axis_2">
    <g id="ytick_1">
     <g id="line2d_63">
      <defs>
       <path id="mef054be7f4" d="M 0 0 
L 3.5 0 
" style="stroke: #000000; stroke-width: 1.5"/>
      </defs>
      <g>
       <use xlink:href="#mef054be7f4" x="57.702" y="230.507919" style="stroke: #000000; stroke-width: 1.5"/>
      </g>
     </g>
     <g id="line2d_64">
      <defs>
       <path id="m49f0d3bc33" d="M 0 0 
L -3.5 0 
" style="stroke: #000000; stroke-width: 1.5"/>
      </defs>
      <g>
       <use xlink:href="#m49f0d3bc33" x="417.760168" y="230.507919" style="stroke: #000000; stroke-width: 1.5"/>
      </g>
     </g>
     <g id="text_9">
      <!-- 0 -->
      <g transform="translate(46.567 235.066981) scale(0.12 -0.12)">
       <use xlink:href="#DejaVuSans-30"/>
      </g>
     </g>
    </g>
    <g id="ytick_2">
     <g id="line2d_65">
      <g>
       <use xlink:href="#mef054be7f4" x="57.702" y="198.407991" style="stroke: #000000; stroke-width: 1.5"/>
      </g>
     </g>
     <g id="line2d_66">
      <g>
       <use xlink:href="#m49f0d3bc33" x="417.760168" y="198.407991" style="stroke: #000000; stroke-width: 1.5"/>
      </g>
     </g>
     <g id="text_10">
      <!-- 100 -->
      <g transform="translate(31.297 202.967054) scale(0.12 -0.12)">
       <use xlink:href="#DejaVuSans-31"/>
       <use xlink:href="#DejaVuSans-30" x="63.623047"/>
       <use xlink:href="#DejaVuSans-30" x="127.246094"/>
      </g>
     </g>
    </g>
    <g id="ytick_3">
     <g id="line2d_67">
      <g>
       <use xlink:href="#mef054be7f4" x="57.702" y="166.308064" style="stroke: #000000; stroke-width: 1.5"/>
      </g>
     </g>
     <g id="line2d_68">
      <g>
       <use xlink:href="#m49f0d3bc33" x="417.760168" y="166.308064" style="stroke: #000000; stroke-width: 1.5"/>
      </g>
     </g>
     <g id="text_11">
      <!-- 200 -->
      <g transform="translate(31.297 170.867127) scale(0.12 -0.12)">
       <use xlink:href="#DejaVuSans-32"/>
       <use xlink:href="#DejaVuSans-30" x="63.623047"/>
       <use xlink:href="#DejaVuSans-30" x="127.246094"/>
      </g>
     </g>
    </g>
    <g id="ytick_4">
     <g id="line2d_69">
      <g>
       <use xlink:href="#mef054be7f4" x="57.702" y="134.208137" style="stroke: #000000; stroke-width: 1.5"/>
      </g>
     </g>
     <g id="line2d_70">
      <g>
       <use xlink:href="#m49f0d3bc33" x="417.760168" y="134.208137" style="stroke: #000000; stroke-width: 1.5"/>
      </g>
     </g>
     <g id="text_12">
      <!-- 300 -->
      <g transform="translate(31.297 138.767199) scale(0.12 -0.12)">
       <use xlink:href="#DejaVuSans-33"/>
       <use xlink:href="#DejaVuSans-30" x="63.623047"/>
       <use xlink:href="#DejaVuSans-30" x="127.246094"/>
      </g>
     </g>
    </g>
    <g id="ytick_5">
     <g id="line2d_71">
      <g>
       <use xlink:href="#mef054be7f4" x="57.702" y="102.108209" style="stroke: #000000; stroke-width: 1.5"/>
      </g>
     </g>
     <g id="line2d_72">
      <g>
       <use xlink:href="#m49f0d3bc33" x="417.760168" y="102.108209" style="stroke: #000000; stroke-width: 1.5"/>
      </g>
     </g>
     <g id="text_13">
      <!-- 400 -->
      <g transform="translate(31.297 106.667272) scale(0.12 -0.12)">
       <use xlink:href="#DejaVuSans-34"/>
       <use xlink:href="#DejaVuSans-30" x="63.623047"/>
       <use xlink:href="#DejaVuSans-30" x="127.246094"/>
      </g>
     </g>
    </g>
    <g id="ytick_6">
     <g id="line2d_73">
      <g>
       <use xlink:href="#mef054be7f4" x="57.702" y="70.008282" style="stroke: #000000; stroke-width: 1.5"/>
      </g>
     </g>
     <g id="line2d_74">
      <g>
       <use xlink:href="#m49f0d3bc33" x="417.760168" y="70.008282" style="stroke: #000000; stroke-width: 1.5"/>
      </g>
     </g>
     <g id="text_14">
      <!-- 500 -->
      <g transform="translate(31.297 74.567344) scale(0.12 -0.12)">
       <use xlink:href="#DejaVuSans-35"/>
       <use xlink:href="#DejaVuSans-30" x="63.623047"/>
       <use xlink:href="#DejaVuSans-30" x="127.246094"/>
      </g>
     </g>
    </g>
    <g id="ytick_7">
     <g id="line2d_75">
      <g>
       <use xlink:href="#mef054be7f4" x="57.702" y="37.908354" style="stroke: #000000; stroke-width: 1.5"/>
      </g>
     </g>
     <g id="line2d_76">
      <g>
       <use xlink:href="#m49f0d3bc33" x="417.760168" y="37.908354" style="stroke: #000000; stroke-width: 1.5"/>
      </g>
     </g>
     <g id="text_15">
      <!-- 600 -->
      <g transform="translate(31.297 42.467417) scale(0.12 -0.12)">
       <use xlink:href="#DejaVuSans-36"/>
       <use xlink:href="#DejaVuSans-30" x="63.623047"/>
       <use xlink:href="#DejaVuSans-30" x="127.246094"/>
      </g>
     </g>
    </g>
    <g id="ytick_8">
     <g id="line2d_77">
      <defs>
       <path id="mb5b582aeb2" d="M 0 0 
L 2 0 
" style="stroke: #000000; stroke-width: 1.5"/>
      </defs>
      <g>
       <use xlink:href="#mb5b582aeb2" x="57.702" y="236.927904" style="stroke: #000000; stroke-width: 1.5"/>
      </g>
     </g>
     <g id="line2d_78">
      <defs>
       <path id="mf221a024ba" d="M 0 0 
L -2 0 
" style="stroke: #000000; stroke-width: 1.5"/>
      </defs>
      <g>
       <use xlink:href="#mf221a024ba" x="417.760168" y="236.927904" style="stroke: #000000; stroke-width: 1.5"/>
      </g>
     </g>
    </g>
    <g id="ytick_9">
     <g id="line2d_79">
      <g>
       <use xlink:href="#mb5b582aeb2" x="57.702" y="224.087933" style="stroke: #000000; stroke-width: 1.5"/>
      </g>
     </g>
     <g id="line2d_80">
      <g>
       <use xlink:href="#mf221a024ba" x="417.760168" y="224.087933" style="stroke: #000000; stroke-width: 1.5"/>
      </g>
     </g>
    </g>
    <g id="ytick_10">
     <g id="line2d_81">
      <g>
       <use xlink:href="#mb5b582aeb2" x="57.702" y="217.667948" style="stroke: #000000; stroke-width: 1.5"/>
      </g>
     </g>
     <g id="line2d_82">
      <g>
       <use xlink:href="#mf221a024ba" x="417.760168" y="217.667948" style="stroke: #000000; stroke-width: 1.5"/>
      </g>
     </g>
    </g>
    <g id="ytick_11">
     <g id="line2d_83">
      <g>
       <use xlink:href="#mb5b582aeb2" x="57.702" y="211.247962" style="stroke: #000000; stroke-width: 1.5"/>
      </g>
     </g>
     <g id="line2d_84">
      <g>
       <use xlink:href="#mf221a024ba" x="417.760168" y="211.247962" style="stroke: #000000; stroke-width: 1.5"/>
      </g>
     </g>
    </g>
    <g id="ytick_12">
     <g id="line2d_85">
      <g>
       <use xlink:href="#mb5b582aeb2" x="57.702" y="204.827977" style="stroke: #000000; stroke-width: 1.5"/>
      </g>
     </g>
     <g id="line2d_86">
      <g>
       <use xlink:href="#mf221a024ba" x="417.760168" y="204.827977" style="stroke: #000000; stroke-width: 1.5"/>
      </g>
     </g>
    </g>
    <g id="ytick_13">
     <g id="line2d_87">
      <g>
       <use xlink:href="#mb5b582aeb2" x="57.702" y="191.988006" style="stroke: #000000; stroke-width: 1.5"/>
      </g>
     </g>
     <g id="line2d_88">
      <g>
       <use xlink:href="#mf221a024ba" x="417.760168" y="191.988006" style="stroke: #000000; stroke-width: 1.5"/>
      </g>
     </g>
    </g>
    <g id="ytick_14">
     <g id="line2d_89">
      <g>
       <use xlink:href="#mb5b582aeb2" x="57.702" y="185.568021" style="stroke: #000000; stroke-width: 1.5"/>
      </g>
     </g>
     <g id="line2d_90">
      <g>
       <use xlink:href="#mf221a024ba" x="417.760168" y="185.568021" style="stroke: #000000; stroke-width: 1.5"/>
      </g>
     </g>
    </g>
    <g id="ytick_15">
     <g id="line2d_91">
      <g>
       <use xlink:href="#mb5b582aeb2" x="57.702" y="179.148035" style="stroke: #000000; stroke-width: 1.5"/>
      </g>
     </g>
     <g id="line2d_92">
      <g>
       <use xlink:href="#mf221a024ba" x="417.760168" y="179.148035" style="stroke: #000000; stroke-width: 1.5"/>
      </g>
     </g>
    </g>
    <g id="ytick_16">
     <g id="line2d_93">
      <g>
       <use xlink:href="#mb5b582aeb2" x="57.702" y="172.72805" style="stroke: #000000; stroke-width: 1.5"/>
      </g>
     </g>
     <g id="line2d_94">
      <g>
       <use xlink:href="#mf221a024ba" x="417.760168" y="172.72805" style="stroke: #000000; stroke-width: 1.5"/>
      </g>
     </g>
    </g>
    <g id="ytick_17">
     <g id="line2d_95">
      <g>
       <use xlink:href="#mb5b582aeb2" x="57.702" y="159.888079" style="stroke: #000000; stroke-width: 1.5"/>
      </g>
     </g>
     <g id="line2d_96">
      <g>
       <use xlink:href="#mf221a024ba" x="417.760168" y="159.888079" style="stroke: #000000; stroke-width: 1.5"/>
      </g>
     </g>
    </g>
    <g id="ytick_18">
     <g id="line2d_97">
      <g>
       <use xlink:href="#mb5b582aeb2" x="57.702" y="153.468093" style="stroke: #000000; stroke-width: 1.5"/>
      </g>
     </g>
     <g id="line2d_98">
      <g>
       <use xlink:href="#mf221a024ba" x="417.760168" y="153.468093" style="stroke: #000000; stroke-width: 1.5"/>
      </g>
     </g>
    </g>
    <g id="ytick_19">
     <g id="line2d_99">
      <g>
       <use xlink:href="#mb5b582aeb2" x="57.702" y="147.048108" style="stroke: #000000; stroke-width: 1.5"/>
      </g>
     </g>
     <g id="line2d_100">
      <g>
       <use xlink:href="#mf221a024ba" x="417.760168" y="147.048108" style="stroke: #000000; stroke-width: 1.5"/>
      </g>
     </g>
    </g>
    <g id="ytick_20">
     <g id="line2d_101">
      <g>
       <use xlink:href="#mb5b582aeb2" x="57.702" y="140.628122" style="stroke: #000000; stroke-width: 1.5"/>
      </g>
     </g>
     <g id="line2d_102">
      <g>
       <use xlink:href="#mf221a024ba" x="417.760168" y="140.628122" style="stroke: #000000; stroke-width: 1.5"/>
      </g>
     </g>
    </g>
    <g id="ytick_21">
     <g id="line2d_103">
      <g>
       <use xlink:href="#mb5b582aeb2" x="57.702" y="127.788151" style="stroke: #000000; stroke-width: 1.5"/>
      </g>
     </g>
     <g id="line2d_104">
      <g>
       <use xlink:href="#mf221a024ba" x="417.760168" y="127.788151" style="stroke: #000000; stroke-width: 1.5"/>
      </g>
     </g>
    </g>
    <g id="ytick_22">
     <g id="line2d_105">
      <g>
       <use xlink:href="#mb5b582aeb2" x="57.702" y="121.368166" style="stroke: #000000; stroke-width: 1.5"/>
      </g>
     </g>
     <g id="line2d_106">
      <g>
       <use xlink:href="#mf221a024ba" x="417.760168" y="121.368166" style="stroke: #000000; stroke-width: 1.5"/>
      </g>
     </g>
    </g>
    <g id="ytick_23">
     <g id="line2d_107">
      <g>
       <use xlink:href="#mb5b582aeb2" x="57.702" y="114.94818" style="stroke: #000000; stroke-width: 1.5"/>
      </g>
     </g>
     <g id="line2d_108">
      <g>
       <use xlink:href="#mf221a024ba" x="417.760168" y="114.94818" style="stroke: #000000; stroke-width: 1.5"/>
      </g>
     </g>
    </g>
    <g id="ytick_24">
     <g id="line2d_109">
      <g>
       <use xlink:href="#mb5b582aeb2" x="57.702" y="108.528195" style="stroke: #000000; stroke-width: 1.5"/>
      </g>
     </g>
     <g id="line2d_110">
      <g>
       <use xlink:href="#mf221a024ba" x="417.760168" y="108.528195" style="stroke: #000000; stroke-width: 1.5"/>
      </g>
     </g>
    </g>
    <g id="ytick_25">
     <g id="line2d_111">
      <g>
       <use xlink:href="#mb5b582aeb2" x="57.702" y="95.688224" style="stroke: #000000; stroke-width: 1.5"/>
      </g>
     </g>
     <g id="line2d_112">
      <g>
       <use xlink:href="#mf221a024ba" x="417.760168" y="95.688224" style="stroke: #000000; stroke-width: 1.5"/>
      </g>
     </g>
    </g>
    <g id="ytick_26">
     <g id="line2d_113">
      <g>
       <use xlink:href="#mb5b582aeb2" x="57.702" y="89.268238" style="stroke: #000000; stroke-width: 1.5"/>
      </g>
     </g>
     <g id="line2d_114">
      <g>
       <use xlink:href="#mf221a024ba" x="417.760168" y="89.268238" style="stroke: #000000; stroke-width: 1.5"/>
      </g>
     </g>
    </g>
    <g id="ytick_27">
     <g id="line2d_115">
      <g>
       <use xlink:href="#mb5b582aeb2" x="57.702" y="82.848253" style="stroke: #000000; stroke-width: 1.5"/>
      </g>
     </g>
     <g id="line2d_116">
      <g>
       <use xlink:href="#mf221a024ba" x="417.760168" y="82.848253" style="stroke: #000000; stroke-width: 1.5"/>
      </g>
     </g>
    </g>
    <g id="ytick_28">
     <g id="line2d_117">
      <g>
       <use xlink:href="#mb5b582aeb2" x="57.702" y="76.428267" style="stroke: #000000; stroke-width: 1.5"/>
      </g>
     </g>
     <g id="line2d_118">
      <g>
       <use xlink:href="#mf221a024ba" x="417.760168" y="76.428267" style="stroke: #000000; stroke-width: 1.5"/>
      </g>
     </g>
    </g>
    <g id="ytick_29">
     <g id="line2d_119">
      <g>
       <use xlink:href="#mb5b582aeb2" x="57.702" y="63.588296" style="stroke: #000000; stroke-width: 1.5"/>
      </g>
     </g>
     <g id="line2d_120">
      <g>
       <use xlink:href="#mf221a024ba" x="417.760168" y="63.588296" style="stroke: #000000; stroke-width: 1.5"/>
      </g>
     </g>
    </g>
    <g id="ytick_30">
     <g id="line2d_121">
      <g>
       <use xlink:href="#mb5b582aeb2" x="57.702" y="57.168311" style="stroke: #000000; stroke-width: 1.5"/>
      </g>
     </g>
     <g id="line2d_122">
      <g>
       <use xlink:href="#mf221a024ba" x="417.760168" y="57.168311" style="stroke: #000000; stroke-width: 1.5"/>
      </g>
     </g>
    </g>
    <g id="ytick_31">
     <g id="line2d_123">
      <g>
       <use xlink:href="#mb5b582aeb2" x="57.702" y="50.748325" style="stroke: #000000; stroke-width: 1.5"/>
      </g>
     </g>
     <g id="line2d_124">
      <g>
       <use xlink:href="#mf221a024ba" x="417.760168" y="50.748325" style="stroke: #000000; stroke-width: 1.5"/>
      </g>
     </g>
    </g>
    <g id="ytick_32">
     <g id="line2d_125">
      <g>
       <use xlink:href="#mb5b582aeb2" x="57.702" y="44.32834" style="stroke: #000000; stroke-width: 1.5"/>
      </g>
     </g>
     <g id="line2d_126">
      <g>
       <use xlink:href="#mf221a024ba" x="417.760168" y="44.32834" style="stroke: #000000; stroke-width: 1.5"/>
      </g>
     </g>
    </g>
    <g id="ytick_33">
     <g id="line2d_127">
      <g>
       <use xlink:href="#mb5b582aeb2" x="57.702" y="31.488369" style="stroke: #000000; stroke-width: 1.5"/>
      </g>
     </g>
     <g id="line2d_128">
      <g>
       <use xlink:href="#mf221a024ba" x="417.760168" y="31.488369" style="stroke: #000000; stroke-width: 1.5"/>
      </g>
     </g>
    </g>
    <g id="ytick_34">
     <g id="line2d_129">
      <g>
       <use xlink:href="#mb5b582aeb2" x="57.702" y="25.068383" style="stroke: #000000; stroke-width: 1.5"/>
      </g>
     </g>
     <g id="line2d_130">
      <g>
       <use xlink:href="#mf221a024ba" x="417.760168" y="25.068383" style="stroke: #000000; stroke-width: 1.5"/>
      </g>
     </g>
    </g>
    <g id="ytick_35">
     <g id="line2d_131">
      <g>
       <use xlink:href="#mb5b582aeb2" x="57.702" y="18.648398" style="stroke: #000000; stroke-width: 1.5"/>
      </g>
     </g>
     <g id="line2d_132">
      <g>
       <use xlink:href="#mf221a024ba" x="417.760168" y="18.648398" style="stroke: #000000; stroke-width: 1.5"/>
      </g>
     </g>
    </g>
    <g id="ytick_36">
     <g id="line2d_133">
      <g>
       <use xlink:href="#mb5b582aeb2" x="57.702" y="12.228412" style="stroke: #000000; stroke-width: 1.5"/>
      </g>
     </g>
     <g id="line2d_134">
      <g>
       <use xlink:href="#mf221a024ba" x="417.760168" y="12.228412" style="stroke: #000000; stroke-width: 1.5"/>
      </g>
     </g>
    </g>
    <g id="text_16">
     <!-- $v_r$ [km s$^{-1}$] -->
     <g transform="translate(24.801375 159.282) rotate(-90) scale(0.12 -0.12)">
      <defs>
       <path id="DejaVuSans-Oblique-76" d="M 459 3500 
L 1069 3500 
L 1581 525 
L 3256 3500 
L 3866 3500 
L 1875 0 
L 1100 0 
L 459 3500 
z
" transform="scale(0.015625)"/>
       <path id="DejaVuSans-Oblique-72" d="M 2853 2969 
Q 2766 3016 2653 3041 
Q 2541 3066 2413 3066 
Q 1953 3066 1609 2717 
Q 1266 2369 1153 1784 
L 800 0 
L 225 0 
L 909 3500 
L 1484 3500 
L 1375 2956 
Q 1603 3259 1920 3421 
Q 2238 3584 2597 3584 
Q 2691 3584 2781 3573 
Q 2872 3563 2963 3538 
L 2853 2969 
z
" transform="scale(0.015625)"/>
       <path id="DejaVuSans-6b" d="M 581 4863 
L 1159 4863 
L 1159 1991 
L 2875 3500 
L 3609 3500 
L 1753 1863 
L 3688 0 
L 2938 0 
L 1159 1709 
L 1159 0 
L 581 0 
L 581 4863 
z
" transform="scale(0.015625)"/>
       <path id="DejaVuSans-6d" d="M 3328 2828 
Q 3544 3216 3844 3400 
Q 4144 3584 4550 3584 
Q 5097 3584 5394 3201 
Q 5691 2819 5691 2113 
L 5691 0 
L 5113 0 
L 5113 2094 
Q 5113 2597 4934 2840 
Q 4756 3084 4391 3084 
Q 3944 3084 3684 2787 
Q 3425 2491 3425 1978 
L 3425 0 
L 2847 0 
L 2847 2094 
Q 2847 2600 2669 2842 
Q 2491 3084 2119 3084 
Q 1678 3084 1418 2786 
Q 1159 2488 1159 1978 
L 1159 0 
L 581 0 
L 581 3500 
L 1159 3500 
L 1159 2956 
Q 1356 3278 1631 3431 
Q 1906 3584 2284 3584 
Q 2666 3584 2933 3390 
Q 3200 3197 3328 2828 
z
" transform="scale(0.015625)"/>
       <path id="DejaVuSans-2212" d="M 678 2272 
L 4684 2272 
L 4684 1741 
L 678 1741 
L 678 2272 
z
" transform="scale(0.015625)"/>
      </defs>
      <use xlink:href="#DejaVuSans-Oblique-76" transform="translate(0 0.684375)"/>
      <use xlink:href="#DejaVuSans-Oblique-72" transform="translate(59.179688 -15.721875) scale(0.7)"/>
      <use xlink:href="#DejaVuSans-20" transform="translate(90.693359 0.684375)"/>
      <use xlink:href="#DejaVuSans-5b" transform="translate(122.480469 0.684375)"/>
      <use xlink:href="#DejaVuSans-6b" transform="translate(161.494141 0.684375)"/>
      <use xlink:href="#DejaVuSans-6d" transform="translate(219.404297 0.684375)"/>
      <use xlink:href="#DejaVuSans-20" transform="translate(316.816406 0.684375)"/>
      <use xlink:href="#DejaVuSans-73" transform="translate(348.603516 0.684375)"/>
      <use xlink:href="#DejaVuSans-2212" transform="translate(401.660156 38.965625) scale(0.7)"/>
      <use xlink:href="#DejaVuSans-31" transform="translate(460.3125 38.965625) scale(0.7)"/>
      <use xlink:href="#DejaVuSans-5d" transform="translate(507.583008 0.684375)"/>
     </g>
    </g>
   </g>
   <g id="patch_3">
    <path d="M 57.702 242.124 
L 57.702 10.8 
" style="fill: none; stroke: #000000; stroke-width: 1.5; stroke-linejoin: miter; stroke-linecap: square"/>
   </g>
   <g id="patch_4">
    <path d="M 417.760168 242.124 
L 417.760168 10.8 
" style="fill: none; stroke: #000000; stroke-width: 1.5; stroke-linejoin: miter; stroke-linecap: square"/>
   </g>
   <g id="patch_5">
    <path d="M 57.702 242.124 
L 417.760168 242.124 
" style="fill: none; stroke: #000000; stroke-width: 1.5; stroke-linejoin: miter; stroke-linecap: square"/>
   </g>
   <g id="patch_6">
    <path d="M 57.702 10.8 
L 417.760168 10.8 
" style="fill: none; stroke: #000000; stroke-width: 1.5; stroke-linejoin: miter; stroke-linecap: square"/>
   </g>
   <g id="PolyCollection_1">
    <defs>
     <path id="mbf412ea023" d="M 159.069419 -134.872325 
L 159.069419 -111.152865 
L 159.416713 -107.817976 
L 160.017253 -110.763709 
L 160.597303 -116.410993 
L 161.180234 -108.339254 
L 161.742974 -108.448067 
L 162.337631 -112.0504 
L 162.915915 -108.022712 
L 163.49399 -110.068783 
L 164.072006 -113.326303 
L 164.650021 -112.155877 
L 165.227872 -112.875229 
L 165.805698 -110.437203 
L 166.383619 -111.060465 
L 166.96135 -112.640104 
L 167.539088 -114.660543 
L 168.116872 -115.577632 
L 168.69463 -113.936904 
L 169.272387 -113.554361 
L 169.85008 -111.426441 
L 170.427814 -111.735995 
L 171.005535 -110.893508 
L 171.583142 -114.637885 
L 172.160808 -114.340363 
L 172.738637 -113.531201 
L 173.316303 -113.311681 
L 173.893742 -114.101098 
L 174.471516 -114.940117 
L 175.049228 -113.37743 
L 175.626908 -109.934464 
L 176.204669 -110.518427 
L 176.782479 -118.204623 
L 177.360152 -125.785899 
L 177.937713 -136.231832 
L 178.515746 -134.11993 
L 179.09294 -137.085048 
L 179.670603 -142.990477 
L 180.248137 -139.429058 
L 180.825882 -135.177069 
L 181.403612 -132.096636 
L 181.981306 -127.478049 
L 182.55896 -128.228206 
L 183.136581 -126.373396 
L 183.714189 -123.438837 
L 184.377896 -131.545785 
L 184.849753 -136.619023 
L 185.43879 -135.011396 
L 186.020287 -130.339582 
L 186.599157 -129.587766 
L 187.177411 -132.009395 
L 187.755669 -129.686836 
L 188.333868 -128.471103 
L 188.911728 -131.334135 
L 189.489509 -131.543862 
L 190.067288 -127.284245 
L 190.644987 -126.30402 
L 191.222912 -125.821869 
L 191.800652 -123.01351 
L 192.37831 -119.87989 
L 192.956135 -114.971312 
L 193.533912 -115.66969 
L 194.111683 -118.610722 
L 194.68927 -117.229188 
L 195.267027 -120.106259 
L 195.844704 -119.077671 
L 196.422284 -122.031848 
L 196.999812 -124.435646 
L 197.577479 -119.823592 
L 198.155404 -124.191195 
L 198.732999 -118.415423 
L 199.310445 -120.576609 
L 199.888333 -121.483249 
L 200.466027 -120.128961 
L 201.043536 -119.901763 
L 201.620579 -120.865589 
L 202.200576 -122.724416 
L 202.775627 -122.39398 
L 203.353766 -122.555979 
L 203.929309 -122.332945 
L 204.508481 -123.213692 
L 205.087622 -124.778356 
L 205.663049 -123.026284 
L 206.242618 -121.472292 
L 206.820378 -125.023945 
L 207.399532 -121.278204 
L 207.975636 -126.109581 
L 208.553327 -126.580915 
L 209.129655 -125.447389 
L 209.708613 -123.879137 
L 210.286161 -125.058105 
L 210.863809 -122.173785 
L 211.441762 -124.858755 
L 212.019108 -121.792054 
L 212.596828 -120.66598 
L 213.178632 -123.113034 
L 213.792397 -131.184733 
L 214.331464 -136.175889 
L 214.907266 -137.197132 
L 215.485203 -138.191705 
L 216.07479 -143.477715 
L 216.6253 -139.729891 
L 217.216563 -141.60204 
L 217.79451 -140.737493 
L 218.377694 -139.336464 
L 218.960492 -140.216004 
L 219.525107 -139.760461 
L 220.100658 -140.006175 
L 220.728597 -132.944127 
L 221.261264 -141.810664 
L 221.832383 -140.801548 
L 222.444992 -145.683454 
L 223.001398 -146.700252 
L 223.593932 -143.713351 
L 224.150187 -155.035249 
L 224.708567 -154.756528 
L 225.25489 -153.314793 
L 225.885189 -145.901427 
L 226.488317 -136.854884 
L 227.062895 -139.072397 
L 227.634526 -143.237792 
L 228.172964 -143.500133 
L 228.740242 -147.122809 
L 229.350718 -151.666183 
L 229.927155 -153.057775 
L 230.501321 -150.417994 
L 231.075273 -146.880428 
L 231.693587 -144.677014 
L 232.227247 -144.401426 
L 232.827839 -147.252937 
L 233.393797 -145.453363 
L 233.961329 -145.005489 
L 234.555582 -149.079794 
L 235.132409 -150.138448 
L 235.686048 -151.343051 
L 236.276838 -151.531406 
L 236.847271 -150.552093 
L 237.432111 -150.437567 
L 238.00951 -147.451073 
L 238.589627 -146.511528 
L 239.176537 -151.097673 
L 239.73905 -152.231059 
L 240.313188 -153.553483 
L 240.90248 -153.258187 
L 241.473266 -154.627198 
L 242.057142 -154.201063 
L 242.629946 -155.450449 
L 243.209611 -151.999406 
L 243.768127 -148.941504 
L 244.32982 -138.805627 
L 244.990313 -145.451333 
L 245.523652 -150.554378 
L 246.08819 -153.247273 
L 246.677014 -152.39896 
L 247.277345 -152.216904 
L 247.824528 -148.821254 
L 248.406431 -150.821446 
L 248.990377 -150.212864 
L 249.559807 -149.624426 
L 250.130803 -145.314314 
L 250.727272 -143.814921 
L 251.295306 -145.391906 
L 251.873763 -143.919802 
L 252.450687 -137.771382 
L 253.030295 -137.20634 
L 253.622168 -140.026155 
L 254.191578 -136.772244 
L 254.762759 -146.354823 
L 255.340267 -145.444774 
L 255.932793 -141.71769 
L 256.494286 -140.101689 
L 257.068222 -142.409075 
L 257.642002 -139.015149 
L 258.228533 -141.952963 
L 258.804094 -144.459957 
L 259.395692 -144.187883 
L 259.969445 -142.714645 
L 260.548984 -143.484982 
L 261.106434 -142.487727 
L 261.69147 -142.589384 
L 262.269646 -142.874324 
L 262.84937 -143.688329 
L 263.430974 -144.913091 
L 264.008446 -139.74073 
L 264.580869 -140.208567 
L 265.169981 -138.733322 
L 265.762068 -148.359071 
L 266.318801 -154.78653 
L 266.893855 -152.322466 
L 267.474723 -154.484659 
L 268.019512 -152.748783 
L 268.643507 -151.83972 
L 269.196141 -149.176705 
L 269.774768 -150.102761 
L 270.356394 -149.439099 
L 270.948158 -148.543863 
L 271.515942 -153.223261 
L 272.073946 -145.67868 
L 272.667237 -138.151878 
L 273.249881 -142.51332 
L 273.808656 -145.443404 
L 274.406088 -145.34753 
L 274.974718 -143.4888 
L 275.561941 -142.28878 
L 276.152312 -143.460826 
L 276.710472 -141.764825 
L 277.305681 -146.637819 
L 277.856875 -147.085912 
L 278.454504 -149.102899 
L 279.038309 -151.819997 
L 279.590098 -147.83365 
L 280.159948 -147.519823 
L 280.762785 -147.664913 
L 281.305014 -142.738037 
L 281.928916 -138.92864 
L 282.49143 -137.483848 
L 283.112543 -137.938251 
L 283.650765 -140.202567 
L 284.22446 -140.252362 
L 284.799647 -142.869989 
L 285.377313 -142.612123 
L 285.964254 -144.501721 
L 286.544223 -146.967692 
L 287.120526 -143.295577 
L 287.68419 -145.735615 
L 288.255154 -144.160482 
L 288.855517 -148.44532 
L 289.425693 -150.100821 
L 290.002128 -151.129218 
L 290.583684 -150.303154 
L 291.15397 -153.120089 
L 291.72623 -151.512429 
L 292.318834 -150.953056 
L 292.879192 -151.452321 
L 293.471384 -149.939112 
L 294.047768 -151.254468 
L 294.619255 -151.296199 
L 295.204637 -150.235798 
L 295.776138 -150.588021 
L 296.345523 -151.360106 
L 296.937235 -147.58969 
L 297.518276 -146.903936 
L 298.089376 -150.229948 
L 298.670041 -143.344334 
L 299.240834 -139.795137 
L 299.816922 -138.548523 
L 300.400779 -146.431258 
L 300.97838 -134.880359 
L 301.557675 -132.491249 
L 302.099376 -132.609932 
L 302.732092 -137.989701 
L 303.258238 -137.431469 
L 303.874777 -138.697199 
L 304.448312 -134.89277 
L 305.011795 -134.276151 
L 305.589856 -139.043246 
L 306.170291 -139.509953 
L 306.754937 -140.19635 
L 307.350298 -136.634067 
L 307.905451 -136.345914 
L 308.499458 -136.735446 
L 309.056407 -135.849241 
L 309.634712 -133.186461 
L 310.224425 -134.530187 
L 310.781926 -139.952033 
L 311.378703 -145.586167 
L 311.944933 -141.902803 
L 312.536678 -139.786803 
L 313.108347 -146.573261 
L 313.670447 -143.154705 
L 314.28918 -141.576636 
L 314.836905 -139.408804 
L 315.416646 -137.17682 
L 315.990955 -139.226105 
L 316.568464 -136.286334 
L 317.150143 -137.679448 
L 317.725486 -137.709772 
L 318.31577 -140.296658 
L 318.880234 -139.67829 
L 319.460835 -139.543571 
L 320.037028 -138.421276 
L 320.618837 -139.678407 
L 321.189834 -139.279354 
L 321.777608 -139.444404 
L 322.353517 -141.345625 
L 322.929318 -140.175625 
L 323.499411 -139.334398 
L 324.077771 -141.642062 
L 324.650095 -141.051017 
L 325.232599 -144.310474 
L 325.817543 -144.384817 
L 326.393526 -144.262824 
L 326.976735 -142.812681 
L 327.551023 -143.175336 
L 328.123234 -143.842101 
L 328.713974 -142.262039 
L 329.257579 -145.81933 
L 329.865547 -145.032769 
L 330.451877 -143.606708 
L 331.006308 -145.849284 
L 331.590785 -146.949313 
L 332.159648 -148.85844 
L 332.749077 -155.88058 
L 333.332081 -153.497558 
L 333.902958 -154.803762 
L 334.497876 -154.437265 
L 335.045422 -144.786868 
L 335.636716 -144.999281 
L 336.230791 -146.618838 
L 336.792626 -141.529258 
L 337.365382 -139.127392 
L 337.939867 -136.797543 
L 338.530357 -134.206863 
L 339.103043 -135.046565 
L 339.687711 -130.562838 
L 340.258244 -132.099301 
L 340.838209 -130.236086 
L 341.426352 -131.82233 
L 341.977312 -134.38626 
L 342.579521 -132.409416 
L 343.134072 -130.342491 
L 343.729427 -129.082619 
L 344.290188 -132.949086 
L 344.880405 -131.757605 
L 345.462408 -132.199525 
L 346.027747 -128.6083 
L 346.620934 -130.606913 
L 347.1804 -131.759172 
L 347.765456 -130.896237 
L 348.355679 -130.808064 
L 348.924345 -131.815734 
L 349.493257 -132.424722 
L 350.071056 -129.235316 
L 350.660456 -130.804036 
L 351.233483 -132.081726 
L 351.809523 -133.842097 
L 352.381932 -134.367669 
L 352.965758 -135.892031 
L 353.534782 -134.880221 
L 354.126156 -136.576261 
L 354.704312 -140.31796 
L 355.264728 -141.689398 
L 355.866864 -142.124496 
L 356.417128 -144.071966 
L 357.031114 -142.490227 
L 357.586138 -142.707504 
L 358.153193 -142.808466 
L 358.742523 -140.4707 
L 359.305549 -139.896789 
L 359.903273 -141.890733 
L 360.485287 -142.89183 
L 361.056048 -143.098193 
L 361.632248 -145.142479 
L 362.207826 -142.852796 
L 362.783062 -137.445699 
L 363.361774 -135.593177 
L 363.941759 -136.608851 
L 364.515585 -139.497227 
L 365.102424 -141.111608 
L 365.673198 -141.706928 
L 366.251275 -141.971098 
L 366.826567 -141.509538 
L 367.408971 -139.99828 
L 367.984378 -138.021091 
L 368.555497 -141.800337 
L 369.135884 -140.956432 
L 369.715672 -139.996332 
L 370.29738 -140.570855 
L 370.867713 -135.701038 
L 371.448984 -133.797334 
L 372.035955 -134.067465 
L 372.605157 -134.954248 
L 373.177339 -134.543387 
L 373.761029 -136.548806 
L 374.329035 -132.732266 
L 374.915631 -134.262409 
L 375.494153 -135.792718 
L 376.076903 -136.096267 
L 376.640282 -135.770982 
L 377.245035 -134.793311 
L 377.777365 -135.22175 
L 378.380303 -136.182555 
L 378.958671 -136.019372 
L 379.538388 -137.078433 
L 380.114058 -136.269344 
L 380.685116 -137.063862 
L 381.274659 -137.940119 
L 381.846294 -138.585764 
L 382.426201 -139.590321 
L 383.003117 -139.417658 
L 383.579273 -138.856556 
L 384.156644 -138.849573 
L 384.735697 -139.104391 
L 385.313389 -143.784346 
L 385.89347 -134.752265 
L 386.471562 -139.05076 
L 387.053474 -141.36183 
L 387.623334 -141.313854 
L 388.176352 -141.376089 
L 388.779331 -141.726132 
L 389.357303 -143.060293 
L 389.934684 -142.905603 
L 390.50868 -142.481843 
L 391.073357 -141.614303 
L 391.668379 -143.264844 
L 392.245417 -145.963139 
L 392.822916 -147.921804 
L 393.400124 -145.497417 
L 393.9781 -145.5968 
L 394.500024 -143.400276 
L 395.133509 -151.150014 
L 395.710943 -153.756411 
L 396.288667 -153.48003 
L 396.86668 -149.810834 
L 397.443966 -148.091408 
L 398.021289 -147.914864 
L 398.599149 -151.584261 
L 399.177034 -144.277103 
L 399.754699 -145.47004 
L 400.332393 -146.367288 
L 400.910118 -146.835377 
L 401.393888 -147.190229 
L 401.393888 -148.139002 
L 401.393888 -148.139002 
L 400.910118 -147.971231 
L 400.332393 -147.524362 
L 399.754699 -147.433025 
L 399.177034 -149.159419 
L 398.599149 -156.329536 
L 398.021289 -154.454113 
L 397.443966 -150.548794 
L 396.86668 -152.680732 
L 396.288667 -155.055605 
L 395.710943 -155.28345 
L 395.133509 -154.035348 
L 394.500024 -154.143093 
L 393.9781 -153.637498 
L 393.400124 -154.824818 
L 392.822916 -153.698986 
L 392.245417 -155.607651 
L 391.668379 -155.312388 
L 391.073357 -153.881011 
L 390.50868 -149.849364 
L 389.934684 -153.226655 
L 389.357303 -153.104997 
L 388.779331 -149.385516 
L 388.176352 -153.68367 
L 387.623334 -154.074585 
L 387.053474 -152.228041 
L 386.471562 -150.127173 
L 385.89347 -151.263148 
L 385.313389 -153.082798 
L 384.735697 -155.074717 
L 384.156644 -155.080321 
L 383.579273 -156.557411 
L 383.003117 -158.316971 
L 382.426201 -158.408235 
L 381.846294 -158.287884 
L 381.274659 -158.28485 
L 380.685116 -161.724634 
L 380.114058 -156.390816 
L 379.538388 -157.463386 
L 378.958671 -157.105339 
L 378.380303 -155.848224 
L 377.777365 -151.930149 
L 377.245035 -154.088721 
L 376.640282 -156.848975 
L 376.076903 -157.48181 
L 375.494153 -157.523528 
L 374.915631 -154.468782 
L 374.329035 -152.089136 
L 373.761029 -154.730865 
L 373.177339 -153.916648 
L 372.605157 -155.015878 
L 372.035955 -151.914073 
L 371.448984 -151.081238 
L 370.867713 -150.251033 
L 370.29738 -154.07925 
L 369.715672 -152.367652 
L 369.135884 -153.413562 
L 368.555497 -150.63898 
L 367.984378 -150.147371 
L 367.408971 -152.318134 
L 366.826567 -150.99696 
L 366.251275 -151.54973 
L 365.673198 -152.111114 
L 365.102424 -153.124239 
L 364.515585 -154.924413 
L 363.941759 -155.750901 
L 363.361774 -152.504186 
L 362.783062 -154.046881 
L 362.207826 -157.3195 
L 361.632248 -156.841139 
L 361.056048 -156.47746 
L 360.485287 -160.654661 
L 359.903273 -160.192473 
L 359.305549 -163.235659 
L 358.742523 -169.551751 
L 358.153193 -163.281999 
L 357.586138 -162.369689 
L 357.031114 -159.10519 
L 356.417128 -166.945105 
L 355.866864 -168.752784 
L 355.264728 -173.911455 
L 354.704312 -177.279048 
L 354.126156 -184.564709 
L 353.534782 -192.163597 
L 352.965758 -189.043388 
L 352.381932 -189.54911 
L 351.809523 -180.637961 
L 351.233483 -191.08322 
L 350.660456 -182.345671 
L 350.071056 -173.010505 
L 349.493257 -178.026721 
L 348.924345 -186.547487 
L 348.355679 -188.843464 
L 347.765456 -197.612708 
L 347.1804 -186.738746 
L 346.620934 -186.285852 
L 346.027747 -185.670271 
L 345.462408 -191.772445 
L 344.880405 -185.653786 
L 344.290188 -190.069447 
L 343.729427 -171.877872 
L 343.134072 -168.121988 
L 342.579521 -184.743357 
L 341.977312 -184.37917 
L 341.426352 -188.483696 
L 340.838209 -191.360501 
L 340.258244 -192.222762 
L 339.687711 -191.351732 
L 339.103043 -187.410611 
L 338.530357 -188.343024 
L 337.939867 -191.64236 
L 337.365382 -188.377294 
L 336.792626 -193.53672 
L 336.230791 -197.628711 
L 335.636716 -189.675441 
L 335.045422 -188.739043 
L 334.497876 -193.4593 
L 333.902958 -192.594357 
L 333.332081 -192.446836 
L 332.749077 -197.258183 
L 332.159648 -201.883114 
L 331.590785 -206.54742 
L 331.006308 -202.173161 
L 330.451877 -187.945853 
L 329.865547 -188.850446 
L 329.257579 -186.925379 
L 328.713974 -186.34763 
L 328.123234 -184.167948 
L 327.551023 -181.917271 
L 326.976735 -179.31995 
L 326.393526 -178.566703 
L 325.817543 -178.034625 
L 325.232599 -176.396195 
L 324.650095 -176.102971 
L 324.077771 -180.239298 
L 323.499411 -173.410259 
L 322.929318 -181.274941 
L 322.353517 -181.958583 
L 321.777608 -182.62898 
L 321.189834 -179.054106 
L 320.618837 -177.918111 
L 320.037028 -175.833844 
L 319.460835 -178.927799 
L 318.880234 -179.577553 
L 318.31577 -177.168925 
L 317.725486 -174.174824 
L 317.150143 -179.896028 
L 316.568464 -176.471214 
L 315.990955 -173.653013 
L 315.416646 -176.81016 
L 314.836905 -179.369949 
L 314.28918 -182.058995 
L 313.670447 -179.06276 
L 313.108347 -172.728605 
L 312.536678 -176.870326 
L 311.944933 -180.416405 
L 311.378703 -175.179121 
L 310.781926 -171.755919 
L 310.224425 -168.070018 
L 309.634712 -166.861855 
L 309.056407 -172.910569 
L 308.499458 -169.577645 
L 307.905451 -167.910051 
L 307.350298 -167.107778 
L 306.754937 -169.038591 
L 306.170291 -172.429149 
L 305.589856 -171.633174 
L 305.011795 -173.554537 
L 304.448312 -177.479771 
L 303.874777 -162.425301 
L 303.258238 -159.73089 
L 302.732092 -156.113056 
L 302.099376 -168.669463 
L 301.557675 -168.627547 
L 300.97838 -175.172578 
L 300.400779 -172.749038 
L 299.816922 -176.518989 
L 299.240834 -183.729268 
L 298.670041 -178.154272 
L 298.089376 -174.744322 
L 297.518276 -181.069671 
L 296.937235 -181.25824 
L 296.345523 -179.994455 
L 295.776138 -176.888061 
L 295.204637 -177.983535 
L 294.619255 -178.059875 
L 294.047768 -182.914715 
L 293.471384 -175.714695 
L 292.879192 -174.436789 
L 292.318834 -174.1401 
L 291.72623 -172.548549 
L 291.15397 -172.579114 
L 290.583684 -170.651297 
L 290.002128 -172.558116 
L 289.425693 -177.345324 
L 288.855517 -180.196598 
L 288.255154 -175.586696 
L 287.68419 -199.779082 
L 287.120526 -181.554047 
L 286.544223 -183.936914 
L 285.964254 -174.618427 
L 285.377313 -162.51842 
L 284.799647 -167.380104 
L 284.22446 -170.782832 
L 283.650765 -172.465954 
L 283.112543 -168.641197 
L 282.49143 -171.487832 
L 281.928916 -173.834785 
L 281.305014 -172.308316 
L 280.762785 -178.709124 
L 280.159948 -179.824716 
L 279.590098 -177.970802 
L 279.038309 -180.893189 
L 278.454504 -186.017487 
L 277.856875 -175.087235 
L 277.305681 -183.341367 
L 276.710472 -170.731833 
L 276.152312 -170.149807 
L 275.561941 -183.224591 
L 274.974718 -173.309569 
L 274.406088 -169.648705 
L 273.808656 -165.74124 
L 273.249881 -167.558876 
L 272.667237 -159.884608 
L 272.073946 -175.410449 
L 271.515942 -178.739189 
L 270.948158 -178.9552 
L 270.356394 -179.845954 
L 269.774768 -177.588032 
L 269.196141 -172.939332 
L 268.643507 -174.61588 
L 268.019512 -175.961492 
L 267.474723 -175.623111 
L 266.893855 -181.599639 
L 266.318801 -183.164759 
L 265.762068 -177.164742 
L 265.169981 -162.527969 
L 264.580869 -162.025812 
L 264.008446 -160.570005 
L 263.430974 -166.451331 
L 262.84937 -159.072278 
L 262.269646 -165.678906 
L 261.69147 -168.774881 
L 261.106434 -169.226475 
L 260.548984 -165.902837 
L 259.969445 -160.894267 
L 259.395692 -167.580394 
L 258.804094 -164.949414 
L 258.228533 -174.077821 
L 257.642002 -173.174557 
L 257.068222 -163.928526 
L 256.494286 -164.241697 
L 255.932793 -181.804109 
L 255.340267 -188.544435 
L 254.762759 -172.478534 
L 254.191578 -167.055317 
L 253.622168 -166.284096 
L 253.030295 -185.337982 
L 252.450687 -169.015352 
L 251.873763 -166.233525 
L 251.295306 -163.834376 
L 250.727272 -168.180234 
L 250.130803 -181.324043 
L 249.559807 -179.60189 
L 248.990377 -179.189958 
L 248.406431 -200.995076 
L 247.824528 -182.36068 
L 247.277345 -201.010847 
L 246.677014 -198.062072 
L 246.08819 -199.69686 
L 245.523652 -185.615486 
L 244.990313 -184.742761 
L 244.32982 -206.535189 
L 243.768127 -220.627998 
L 243.209611 -202.99192 
L 242.629946 -204.512918 
L 242.057142 -209.837647 
L 241.473266 -206.704551 
L 240.90248 -203.943066 
L 240.313188 -202.160014 
L 239.73905 -202.516874 
L 239.176537 -196.283518 
L 238.589627 -197.637688 
L 238.00951 -198.614793 
L 237.432111 -199.733834 
L 236.847271 -201.326458 
L 236.276838 -190.70976 
L 235.686048 -195.958557 
L 235.132409 -199.174675 
L 234.555582 -199.360554 
L 233.961329 -199.138672 
L 233.393797 -194.843725 
L 232.827839 -199.172349 
L 232.227247 -193.920665 
L 231.693587 -195.215376 
L 231.075273 -196.970339 
L 230.501321 -202.202927 
L 229.927155 -196.275744 
L 229.350718 -200.277336 
L 228.740242 -192.925359 
L 228.172964 -186.29232 
L 227.634526 -185.075544 
L 227.062895 -183.546494 
L 226.488317 -188.864048 
L 225.885189 -192.400347 
L 225.25489 -209.27897 
L 224.708567 -199.330558 
L 224.150187 -193.218874 
L 223.593932 -189.554687 
L 223.001398 -190.886523 
L 222.444992 -183.358224 
L 221.832383 -187.244785 
L 221.261264 -186.886191 
L 220.728597 -176.228688 
L 220.100658 -186.734022 
L 219.525107 -184.046934 
L 218.960492 -182.772436 
L 218.377694 -181.034276 
L 217.79451 -182.213154 
L 217.216563 -179.249122 
L 216.6253 -178.607801 
L 216.07479 -175.38066 
L 215.485203 -179.246096 
L 214.907266 -176.620689 
L 214.331464 -172.216252 
L 213.792397 -167.076418 
L 213.178632 -154.936526 
L 212.596828 -157.374019 
L 212.019108 -152.514644 
L 211.441762 -152.276103 
L 210.863809 -152.316893 
L 210.286161 -152.873529 
L 209.708613 -153.974628 
L 209.129655 -147.268311 
L 208.553327 -148.033253 
L 207.975636 -146.526075 
L 207.399532 -144.65811 
L 206.820378 -144.161958 
L 206.242618 -151.204507 
L 205.663049 -146.664785 
L 205.087622 -146.608304 
L 204.508481 -146.285021 
L 203.929309 -147.719836 
L 203.353766 -146.420365 
L 202.775627 -151.986756 
L 202.200576 -147.520271 
L 201.620579 -149.666291 
L 201.043536 -150.005565 
L 200.466027 -149.330822 
L 199.888333 -154.591639 
L 199.310445 -149.021162 
L 198.732999 -147.389995 
L 198.155404 -148.684779 
L 197.577479 -144.81651 
L 196.999812 -146.931618 
L 196.422284 -144.263779 
L 195.844704 -151.322216 
L 195.267027 -147.34048 
L 194.68927 -150.18203 
L 194.111683 -147.975094 
L 193.533912 -146.454689 
L 192.956135 -143.32777 
L 192.37831 -148.156301 
L 191.800652 -154.216732 
L 191.222912 -149.271398 
L 190.644987 -153.008397 
L 190.067288 -161.002947 
L 189.489509 -154.439459 
L 188.911728 -155.36489 
L 188.333868 -157.889858 
L 187.755669 -159.366255 
L 187.177411 -159.597153 
L 186.599157 -157.471757 
L 186.020287 -157.489915 
L 185.43879 -155.904075 
L 184.849753 -166.85339 
L 184.377896 -152.436502 
L 183.714189 -159.718675 
L 183.136581 -161.2313 
L 182.55896 -160.610037 
L 181.981306 -161.537092 
L 181.403612 -163.499265 
L 180.825882 -150.265016 
L 180.248137 -156.732079 
L 179.670603 -160.224964 
L 179.09294 -154.738387 
L 178.515746 -161.480183 
L 177.937713 -165.321775 
L 177.360152 -166.162632 
L 176.782479 -173.61023 
L 176.204669 -157.986273 
L 175.626908 -159.054273 
L 175.049228 -154.553345 
L 174.471516 -146.700049 
L 173.893742 -145.653247 
L 173.316303 -141.263299 
L 172.738637 -147.378949 
L 172.160808 -139.658389 
L 171.583142 -143.078662 
L 171.005535 -147.964688 
L 170.427814 -148.57138 
L 169.85008 -145.974974 
L 169.272387 -148.381992 
L 168.69463 -144.047615 
L 168.116872 -139.215703 
L 167.539088 -133.097689 
L 166.96135 -140.486421 
L 166.383619 -144.726892 
L 165.805698 -143.990208 
L 165.227872 -140.078414 
L 164.650021 -141.858422 
L 164.072006 -143.44479 
L 163.49399 -135.992379 
L 162.915915 -131.728131 
L 162.337631 -126.819449 
L 161.742974 -127.80463 
L 161.180234 -136.112013 
L 160.597303 -141.109229 
L 160.017253 -139.93044 
L 159.416713 -127.889048 
L 159.069419 -134.872325 
z
" style="stroke: #add8e6"/>
    </defs>
    <g clip-path="url(#pc2f389ceae)">
     <use xlink:href="#mbf412ea023" x="0" y="288" style="fill: #add8e6; stroke: #add8e6"/>
    </g>
   </g>
   <g id="line2d_135">
    <path d="M 159.069419 164.987405 
L 159.416713 170.146488 
L 160.017253 162.652926 
L 160.597303 159.239889 
L 161.180234 165.774367 
L 161.742974 169.873651 
L 162.337631 168.565075 
L 162.915915 168.124578 
L 163.49399 164.969419 
L 164.072006 159.614453 
L 164.650021 160.992851 
L 165.227872 161.523178 
L 166.383619 160.106321 
L 166.96135 161.436737 
L 167.539088 164.120884 
L 168.116872 160.603332 
L 168.69463 159.00774 
L 169.272387 157.031824 
L 169.85008 159.299293 
L 170.427814 157.846312 
L 171.583142 159.141727 
L 172.160808 161.000624 
L 172.738637 157.544925 
L 173.316303 160.71251 
L 173.893742 158.122827 
L 174.471516 157.179917 
L 175.049228 154.034612 
L 175.626908 153.505632 
L 176.204669 153.74765 
L 176.782479 142.092574 
L 177.360152 142.025735 
L 177.937713 137.223196 
L 178.515746 140.199943 
L 179.09294 142.088283 
L 179.670603 136.39228 
L 180.248137 139.919432 
L 180.825882 145.278958 
L 181.403612 140.20205 
L 181.981306 143.492429 
L 182.55896 143.580878 
L 183.136581 144.197652 
L 183.714189 146.421244 
L 184.377896 146.008857 
L 184.849753 136.263794 
L 185.43879 142.542264 
L 186.020287 144.085251 
L 186.599157 144.470239 
L 187.177411 142.196726 
L 188.333868 144.81952 
L 188.911728 144.650487 
L 189.489509 145.00834 
L 190.067288 143.856404 
L 190.644987 148.343791 
L 191.222912 150.453366 
L 191.800652 149.384879 
L 192.956135 158.850459 
L 194.111683 154.707092 
L 194.68927 154.294391 
L 195.267027 154.276631 
L 195.844704 152.800056 
L 196.422284 154.852187 
L 196.999812 152.316368 
L 197.577479 155.679949 
L 198.155404 151.562013 
L 198.732999 155.097291 
L 199.310445 153.201114 
L 199.888333 149.962556 
L 200.466027 153.270109 
L 201.620579 152.73406 
L 202.200576 152.877656 
L 202.775627 150.809632 
L 203.353766 153.511828 
L 203.929309 152.973609 
L 204.508481 153.250644 
L 205.087622 152.30667 
L 205.663049 153.154465 
L 206.242618 151.6616 
L 207.399532 155.031843 
L 207.975636 151.682172 
L 208.553327 150.692916 
L 209.129655 151.64215 
L 209.708613 149.073117 
L 210.286161 149.034183 
L 210.863809 150.754661 
L 211.441762 149.432571 
L 212.019108 150.846651 
L 212.596828 148.98 
L 213.178632 148.97522 
L 213.792397 138.869425 
L 214.331464 133.803929 
L 214.907266 131.091089 
L 215.485203 129.281099 
L 216.07479 128.570812 
L 216.6253 128.831154 
L 217.79451 126.524677 
L 218.377694 127.81463 
L 218.960492 126.50578 
L 219.525107 126.096302 
L 220.100658 124.629901 
L 220.728597 133.413593 
L 221.261264 123.651573 
L 221.832383 123.976833 
L 222.444992 123.479161 
L 223.001398 119.206612 
L 223.593932 121.365981 
L 224.150187 113.872938 
L 224.708567 110.956457 
L 225.25489 106.703119 
L 225.885189 118.849113 
L 226.488317 125.140534 
L 227.062895 126.690555 
L 227.634526 123.843332 
L 228.172964 123.103774 
L 229.350718 112.028241 
L 229.927155 113.333241 
L 230.501321 111.68954 
L 231.075273 116.074616 
L 231.693587 118.053805 
L 232.227247 118.838954 
L 232.827839 114.787357 
L 233.393797 117.851456 
L 234.555582 113.779826 
L 235.132409 113.343438 
L 235.686048 114.349196 
L 236.276838 116.879417 
L 236.847271 112.060725 
L 237.432111 112.9143 
L 238.00951 114.967067 
L 238.589627 115.925392 
L 239.176537 114.309404 
L 239.73905 110.626034 
L 240.313188 110.143252 
L 240.90248 109.399373 
L 241.473266 107.334126 
L 242.057142 105.980645 
L 242.629946 108.018316 
L 243.209611 110.504337 
L 243.768127 103.215249 
L 244.32982 115.329592 
L 244.990313 122.902953 
L 245.523652 119.915068 
L 246.08819 111.527933 
L 246.677014 112.769484 
L 247.277345 111.386125 
L 247.824528 122.409033 
L 248.406431 112.091739 
L 248.990377 123.298589 
L 249.559807 123.386842 
L 250.130803 124.680822 
L 250.727272 132.002423 
L 251.295306 133.386859 
L 251.873763 132.923336 
L 252.450687 134.606633 
L 253.030295 126.727839 
L 253.622168 134.844875 
L 254.191578 136.086219 
L 255.340267 121.005396 
L 255.932793 126.2391 
L 256.494286 135.828307 
L 257.068222 134.831199 
L 257.642002 131.905147 
L 258.228533 129.984608 
L 258.804094 133.295314 
L 259.395692 132.115862 
L 259.969445 136.195544 
L 260.548984 133.30609 
L 261.106434 132.142899 
L 261.69147 132.317867 
L 262.269646 133.723385 
L 262.84937 136.619697 
L 263.430974 132.317789 
L 264.008446 137.844633 
L 264.580869 136.882811 
L 265.169981 137.369354 
L 265.762068 125.238094 
L 266.318801 119.024356 
L 267.474723 122.946115 
L 268.019512 123.644862 
L 268.643507 124.7722 
L 269.196141 126.941982 
L 269.774768 124.154603 
L 270.356394 123.357474 
L 270.948158 124.250468 
L 271.515942 122.018775 
L 272.073946 127.455436 
L 272.667237 138.981757 
L 273.249881 132.963902 
L 273.808656 132.407678 
L 274.406088 130.501882 
L 274.974718 129.600815 
L 275.561941 125.243315 
L 276.152312 131.194683 
L 276.710472 131.751671 
L 277.305681 123.010407 
L 277.856875 126.913426 
L 278.454504 120.439807 
L 279.038309 121.643407 
L 279.590098 125.097774 
L 280.159948 124.32773 
L 280.762785 124.812981 
L 281.305014 130.476824 
L 281.928916 131.618287 
L 282.49143 133.51416 
L 283.112543 134.710276 
L 283.650765 131.66574 
L 284.22446 132.482403 
L 284.799647 132.874953 
L 285.377313 135.434728 
L 286.544223 122.547697 
L 287.120526 125.575188 
L 287.68419 115.242651 
L 288.255154 128.126411 
L 288.855517 123.679041 
L 289.425693 124.276928 
L 290.002128 126.156333 
L 290.583684 127.522774 
L 291.15397 125.150399 
L 291.72623 125.969511 
L 292.879192 125.055445 
L 293.471384 125.173096 
L 294.047768 120.915409 
L 294.619255 123.321963 
L 295.204637 123.890334 
L 295.776138 124.261959 
L 296.345523 122.322719 
L 296.937235 123.576035 
L 297.518276 124.013196 
L 298.670041 127.250697 
L 299.240834 126.237797 
L 299.816922 130.466244 
L 300.400779 128.409852 
L 301.557675 137.440602 
L 302.099376 137.360303 
L 302.732092 140.948622 
L 303.874777 137.43875 
L 304.448312 131.81373 
L 305.011795 134.084656 
L 305.589856 132.66179 
L 306.170291 132.030449 
L 306.754937 133.382529 
L 307.350298 136.129077 
L 307.905451 135.872017 
L 308.499458 134.843454 
L 309.056407 133.620095 
L 309.634712 137.975842 
L 310.224425 136.699897 
L 311.378703 127.617356 
L 311.944933 126.840396 
L 312.536678 129.671436 
L 313.670447 126.891267 
L 314.28918 126.182185 
L 315.416646 131.00651 
L 315.990955 131.560441 
L 316.568464 131.621226 
L 317.150143 129.212262 
L 317.725486 132.057702 
L 318.31577 129.267209 
L 318.880234 128.372078 
L 319.460835 128.764315 
L 320.037028 130.87244 
L 320.618837 129.201741 
L 321.189834 128.83327 
L 321.777608 126.963308 
L 322.353517 126.347896 
L 322.929318 127.274717 
L 323.499411 131.627672 
L 324.077771 127.05932 
L 324.650095 129.423006 
L 325.232599 127.646666 
L 325.817543 126.790279 
L 326.393526 126.585236 
L 326.976735 126.933684 
L 328.123234 123.994976 
L 328.713974 123.695165 
L 329.257579 121.627645 
L 329.865547 121.058393 
L 330.451877 122.22372 
L 331.006308 113.988777 
L 331.590785 111.251634 
L 332.159648 112.629223 
L 332.749077 111.430619 
L 333.332081 115.027803 
L 333.902958 114.300941 
L 334.497876 114.051718 
L 335.045422 121.237045 
L 335.636716 120.662639 
L 336.230791 115.876225 
L 337.365382 124.247657 
L 337.939867 123.780049 
L 338.530357 126.725057 
L 339.103043 126.771412 
L 339.687711 127.042715 
L 340.258244 125.838968 
L 340.838209 127.201706 
L 341.426352 127.846987 
L 342.579521 129.423613 
L 343.134072 138.76776 
L 343.729427 137.519754 
L 344.290188 126.490733 
L 344.880405 129.294305 
L 345.462408 126.014015 
L 346.027747 130.860714 
L 346.620934 129.553618 
L 347.1804 128.751041 
L 347.765456 123.745527 
L 348.355679 128.174236 
L 348.924345 128.818389 
L 350.071056 136.87709 
L 351.233483 126.417527 
L 351.809523 130.759971 
L 352.381932 126.041611 
L 352.965758 125.532291 
L 353.534782 124.478091 
L 354.126156 127.429515 
L 354.704312 129.201496 
L 355.264728 130.199574 
L 355.866864 132.56136 
L 356.417128 132.491464 
L 357.031114 137.202291 
L 357.586138 135.461403 
L 358.153193 134.954767 
L 358.742523 132.988774 
L 359.305549 136.433776 
L 359.903273 136.958397 
L 360.485287 136.226755 
L 361.056048 138.212173 
L 361.632248 137.008191 
L 362.207826 137.913852 
L 362.783062 142.25371 
L 363.361774 143.951319 
L 363.941759 141.820124 
L 364.515585 140.78918 
L 365.102424 140.882077 
L 366.251275 141.239586 
L 366.826567 141.746751 
L 367.408971 141.841793 
L 367.984378 143.915769 
L 368.555497 141.780342 
L 369.135884 140.815003 
L 369.715672 141.818008 
L 370.29738 140.674948 
L 370.867713 145.023965 
L 371.448984 145.560714 
L 372.035955 145.009231 
L 372.605157 143.014937 
L 373.177339 143.769983 
L 373.761029 142.360164 
L 374.329035 145.589299 
L 375.494153 141.341877 
L 376.076903 141.210962 
L 376.640282 141.690022 
L 377.245035 143.558984 
L 377.777365 144.42405 
L 378.380303 141.98461 
L 378.958671 141.437644 
L 379.538388 140.729091 
L 380.114058 141.66992 
L 380.685116 138.605752 
L 381.274659 139.887516 
L 381.846294 139.563176 
L 382.426201 139.000722 
L 383.003117 139.132686 
L 383.579273 140.293016 
L 384.156644 141.035053 
L 384.735697 140.910446 
L 385.313389 139.566428 
L 385.89347 144.992294 
L 386.471562 143.411033 
L 387.053474 141.205065 
L 387.623334 140.305781 
L 388.176352 140.47012 
L 388.779331 142.444176 
L 389.357303 139.917355 
L 389.934684 139.933871 
L 390.50868 141.834397 
L 392.245417 137.214605 
L 392.822916 137.189605 
L 394.500024 139.228315 
L 395.133509 135.407319 
L 395.710943 133.480069 
L 396.288667 133.732182 
L 396.86668 136.754217 
L 397.443966 138.679899 
L 398.021289 136.815511 
L 398.599149 134.043101 
L 399.177034 141.281739 
L 399.754699 141.548468 
L 400.910118 140.596696 
L 401.393888 140.335385 
L 401.393888 140.335385 
" clip-path="url(#pc2f389ceae)" style="fill: none; stroke: #1f77b4; stroke-width: 1.5; stroke-linecap: square"/>
   </g>
   <g id="line2d_136">
    <path d="M 74.06828 231.609273 
L 75.919291 226.998371 
L 76.6126 224.076699 
L 77.30674 220.375676 
L 78.463362 213.074464 
L 83.08736 182.892216 
L 84.705635 174.043684 
L 86.323909 166.297986 
L 88.173841 158.704896 
L 90.022942 152.246779 
L 91.872873 146.731256 
L 93.491148 142.544396 
L 95.340249 138.369048 
L 97.19018 134.729006 
L 98.807625 131.939704 
L 100.657556 129.13 
L 102.506657 126.685967 
L 104.587415 124.250244 
L 107.129825 121.641995 
L 109.441409 119.596047 
L 111.984649 117.641686 
L 114.758716 115.794988 
L 117.532782 114.198378 
L 120.768502 112.586322 
L 124.235877 111.101206 
L 128.397393 109.583306 
L 133.713869 107.969094 
L 139.262003 106.584504 
L 144.57848 105.480407 
L 152.20488 104.167922 
L 159.370458 103.152991 
L 167.69847 102.179559 
L 177.861468 101.214676 
L 188.032769 100.425965 
L 206.756266 99.395579 
L 264.554166 97.581016 
L 292.98399 96.897349 
L 297.376331 96.799521 
L 297.376331 96.799521 
" clip-path="url(#pc2f389ceae)" style="fill: none; stroke: #000000; stroke-width: 2.5; stroke-linecap: square"/>
   </g>
   <g id="line2d_137">
    <path d="M 74.06828 194.457721 
L 75.225152 153.407861 
L 76.150117 130.444071 
L 76.844257 117.893572 
L 78.000879 101.479405 
L 79.156671 87.385363 
L 80.081637 78.772337 
L 81.006602 72.286895 
L 82.162394 66.292435 
L 83.319016 61.729201 
L 84.474808 58.147927 
L 85.6306 55.246967 
L 87.018049 52.413398 
L 88.404667 50.086854 
L 89.792116 48.129348 
L 91.641217 45.963256 
L 93.721974 43.967242 
L 95.571905 42.475044 
L 97.883489 40.896204 
L 100.657556 39.317363 
L 103.662449 37.895764 
L 106.436516 36.779023 
L 109.903891 35.585266 
L 114.296233 34.349791 
L 118.919401 33.367829 
L 125.391669 32.215789 
L 136.718762 30.601649 
L 146.658407 29.472071 
L 154.745629 28.68586 
L 178.791415 26.805371 
L 198.669044 25.544224 
L 232.18867 23.801723 
L 285.120952 21.719065 
L 297.608818 21.314727 
L 297.608818 21.314727 
" clip-path="url(#pc2f389ceae)" style="fill: none; stroke-dasharray: 9.25,4; stroke-dashoffset: 0; stroke: #8b0000; stroke-width: 2.5"/>
   </g>
   <g id="legend_1">
    <g id="line2d_138">
     <path d="M 330.516418 23.898438 
L 340.516418 23.898438 
L 350.516418 23.898438 
" style="fill: none; stroke: #1f77b4; stroke-width: 1.5; stroke-linecap: square"/>
    </g>
    <g id="text_17">
     <!-- PSP -->
     <g transform="translate(358.516418 27.398438) scale(0.1 -0.1)">
      <defs>
       <path id="DejaVuSans-50" d="M 1259 4147 
L 1259 2394 
L 2053 2394 
Q 2494 2394 2734 2622 
Q 2975 2850 2975 3272 
Q 2975 3691 2734 3919 
Q 2494 4147 2053 4147 
L 1259 4147 
z
M 628 4666 
L 2053 4666 
Q 2838 4666 3239 4311 
Q 3641 3956 3641 3272 
Q 3641 2581 3239 2228 
Q 2838 1875 2053 1875 
L 1259 1875 
L 1259 0 
L 628 0 
L 628 4666 
z
" transform="scale(0.015625)"/>
       <path id="DejaVuSans-53" d="M 3425 4513 
L 3425 3897 
Q 3066 4069 2747 4153 
Q 2428 4238 2131 4238 
Q 1616 4238 1336 4038 
Q 1056 3838 1056 3469 
Q 1056 3159 1242 3001 
Q 1428 2844 1947 2747 
L 2328 2669 
Q 3034 2534 3370 2195 
Q 3706 1856 3706 1288 
Q 3706 609 3251 259 
Q 2797 -91 1919 -91 
Q 1588 -91 1214 -16 
Q 841 59 441 206 
L 441 856 
Q 825 641 1194 531 
Q 1563 422 1919 422 
Q 2459 422 2753 634 
Q 3047 847 3047 1241 
Q 3047 1584 2836 1778 
Q 2625 1972 2144 2069 
L 1759 2144 
Q 1053 2284 737 2584 
Q 422 2884 422 3419 
Q 422 4038 858 4394 
Q 1294 4750 2059 4750 
Q 2388 4750 2728 4690 
Q 3069 4631 3425 4513 
z
" transform="scale(0.015625)"/>
      </defs>
      <use xlink:href="#DejaVuSans-50"/>
      <use xlink:href="#DejaVuSans-53" x="60.302734"/>
      <use xlink:href="#DejaVuSans-50" x="123.779297"/>
     </g>
    </g>
    <g id="line2d_139">
     <path d="M 330.516418 38.576562 
L 340.516418 38.576562 
L 350.516418 38.576562 
" style="fill: none; stroke: #000000; stroke-width: 2.5; stroke-linecap: square"/>
    </g>
    <g id="text_18">
     <!-- Slow wind -->
     <g transform="translate(358.516418 42.076562) scale(0.1 -0.1)">
      <defs>
       <path id="DejaVuSans-6c" d="M 603 4863 
L 1178 4863 
L 1178 0 
L 603 0 
L 603 4863 
z
" transform="scale(0.015625)"/>
       <path id="DejaVuSans-6f" d="M 1959 3097 
Q 1497 3097 1228 2736 
Q 959 2375 959 1747 
Q 959 1119 1226 758 
Q 1494 397 1959 397 
Q 2419 397 2687 759 
Q 2956 1122 2956 1747 
Q 2956 2369 2687 2733 
Q 2419 3097 1959 3097 
z
M 1959 3584 
Q 2709 3584 3137 3096 
Q 3566 2609 3566 1747 
Q 3566 888 3137 398 
Q 2709 -91 1959 -91 
Q 1206 -91 779 398 
Q 353 888 353 1747 
Q 353 2609 779 3096 
Q 1206 3584 1959 3584 
z
" transform="scale(0.015625)"/>
       <path id="DejaVuSans-77" d="M 269 3500 
L 844 3500 
L 1563 769 
L 2278 3500 
L 2956 3500 
L 3675 769 
L 4391 3500 
L 4966 3500 
L 4050 0 
L 3372 0 
L 2619 2869 
L 1863 0 
L 1184 0 
L 269 3500 
z
" transform="scale(0.015625)"/>
       <path id="DejaVuSans-64" d="M 2906 2969 
L 2906 4863 
L 3481 4863 
L 3481 0 
L 2906 0 
L 2906 525 
Q 2725 213 2448 61 
Q 2172 -91 1784 -91 
Q 1150 -91 751 415 
Q 353 922 353 1747 
Q 353 2572 751 3078 
Q 1150 3584 1784 3584 
Q 2172 3584 2448 3432 
Q 2725 3281 2906 2969 
z
M 947 1747 
Q 947 1113 1208 752 
Q 1469 391 1925 391 
Q 2381 391 2643 752 
Q 2906 1113 2906 1747 
Q 2906 2381 2643 2742 
Q 2381 3103 1925 3103 
Q 1469 3103 1208 2742 
Q 947 2381 947 1747 
z
" transform="scale(0.015625)"/>
      </defs>
      <use xlink:href="#DejaVuSans-53"/>
      <use xlink:href="#DejaVuSans-6c" x="63.476562"/>
      <use xlink:href="#DejaVuSans-6f" x="91.259766"/>
      <use xlink:href="#DejaVuSans-77" x="152.441406"/>
      <use xlink:href="#DejaVuSans-20" x="234.228516"/>
      <use xlink:href="#DejaVuSans-77" x="266.015625"/>
      <use xlink:href="#DejaVuSans-69" x="347.802734"/>
      <use xlink:href="#DejaVuSans-6e" x="375.585938"/>
      <use xlink:href="#DejaVuSans-64" x="438.964844"/>
     </g>
    </g>
    <g id="line2d_140">
     <path d="M 330.516418 53.254687 
L 340.516418 53.254687 
L 350.516418 53.254687 
" style="fill: none; stroke-dasharray: 9.25,4; stroke-dashoffset: 0; stroke: #8b0000; stroke-width: 2.5"/>
    </g>
    <g id="text_19">
     <!-- Fast wind -->
     <g transform="translate(358.516418 56.754687) scale(0.1 -0.1)">
      <defs>
       <path id="DejaVuSans-46" d="M 628 4666 
L 3309 4666 
L 3309 4134 
L 1259 4134 
L 1259 2759 
L 3109 2759 
L 3109 2228 
L 1259 2228 
L 1259 0 
L 628 0 
L 628 4666 
z
" transform="scale(0.015625)"/>
      </defs>
      <use xlink:href="#DejaVuSans-46"/>
      <use xlink:href="#DejaVuSans-61" x="48.394531"/>
      <use xlink:href="#DejaVuSans-73" x="109.673828"/>
      <use xlink:href="#DejaVuSans-74" x="161.773438"/>
      <use xlink:href="#DejaVuSans-20" x="200.982422"/>
      <use xlink:href="#DejaVuSans-77" x="232.769531"/>
      <use xlink:href="#DejaVuSans-69" x="314.556641"/>
      <use xlink:href="#DejaVuSans-6e" x="342.339844"/>
      <use xlink:href="#DejaVuSans-64" x="405.71875"/>
     </g>
    </g>
   </g>
  </g>
 </g>
 <defs>
  <clipPath id="pc2f389ceae">
   <rect x="57.702" y="10.8" width="360.058168" height="231.324"/>
  </clipPath>
 </defs>
</svg>
