<?xml version="1.0" encoding="utf-8" standalone="no"?>
<!DOCTYPE svg PUBLIC "-//W3C//DTD SVG 1.1//EN"
  "http://www.w3.org/Graphics/SVG/1.1/DTD/svg11.dtd">
<svg xmlns:xlink="http://www.w3.org/1999/xlink" width="432pt" height="288pt" viewBox="0 0 432 288" xmlns="http://www.w3.org/2000/svg" version="1.1">
 <metadata>
  <rdf:RDF xmlns:dc="http://purl.org/dc/elements/1.1/" xmlns:cc="http://creativecommons.org/ns#" xmlns:rdf="http://www.w3.org/1999/02/22-rdf-syntax-ns#">
   <cc:Work>
    <dc:type rdf:resource="http://purl.org/dc/dcmitype/StillImage"/>
    <dc:date>2022-11-14T15:53:19.135703</dc:date>
    <dc:format>image/svg+xml</dc:format>
    <dc:creator>
     <cc:Agent>
      <dc:title>Matplotlib v3.6.1, https://matplotlib.org/</dc:title>
     </cc:Agent>
    </dc:creator>
   </cc:Work>
  </rdf:RDF>
 </metadata>
 <defs>
  <style type="text/css">*{stroke-linejoin: round; stroke-linecap: butt}</style>
 </defs>
 <g id="figure_1">
  <g id="patch_1">
   <path d="M 0 288 
L 432 288 
L 432 0 
L 0 0 
z
" style="fill: #ffffff"/>
  </g>
  <g id="axes_1">
   <g id="patch_2">
    <path d="M 57.702 242.124 
L 421.2 242.124 
L 421.2 10.8 
L 57.702 10.8 
z
" style="fill: #ffffff"/>
   </g>
   <g id="patch_3">
    <path d="M 57.702 242.124 
L 57.702 10.8 
" style="fill: none; stroke: #000000; stroke-width: 1.5; stroke-linejoin: miter; stroke-linecap: square"/>
   </g>
   <g id="patch_4">
    <path d="M 421.2 242.124 
L 421.2 10.8 
" style="fill: none; stroke: #000000; stroke-width: 1.5; stroke-linejoin: miter; stroke-linecap: square"/>
   </g>
   <g id="patch_5">
    <path d="M 57.702 242.124 
L 421.2 242.124 
" style="fill: none; stroke: #000000; stroke-width: 1.5; stroke-linejoin: miter; stroke-linecap: square"/>
   </g>
   <g id="patch_6">
    <path d="M 57.702 10.8 
L 421.2 10.8 
" style="fill: none; stroke: #000000; stroke-width: 1.5; stroke-linejoin: miter; stroke-linecap: square"/>
   </g>
   <g id="PolyCollection_1">
    <defs>
     <path id="m5e55726450" d="M 199.879062 -134.524588 
L 199.879062 -111.500827 
L 200.392456 -106.40396 
L 201.280215 -107.636568 
L 202.137684 -117.480982 
L 202.999412 -109.429717 
L 203.831293 -106.762179 
L 204.710354 -110.30341 
L 205.565213 -108.264969 
L 206.419762 -109.30078 
L 207.274225 -114.51323 
L 208.128686 -112.116728 
L 208.982905 -111.544875 
L 209.837085 -109.479611 
L 210.691407 -110.498711 
L 211.545449 -108.094772 
L 212.399499 -105.130677 
L 213.253618 -107.87112 
L 214.107699 -107.18019 
L 214.961779 -105.629509 
L 215.815764 -104.33549 
L 216.66981 -105.446024 
L 217.523836 -106.056011 
L 218.377694 -108.402089 
L 219.231639 -106.076397 
L 220.085824 -106.938199 
L 220.939769 -106.320941 
L 221.793378 -108.404426 
L 222.647483 -108.120547 
L 223.501496 -105.579626 
L 224.355461 -101.242487 
L 225.209547 -100.329034 
L 226.063705 -108.503777 
L 226.91766 -115.126981 
L 227.77145 -125.969385 
L 228.625937 -121.893367 
L 229.479185 -123.493214 
L 230.333125 -128.760112 
L 231.186874 -125.570398 
L 232.040937 -119.136732 
L 232.894976 -116.827143 
L 233.748963 -110.793696 
L 234.602889 -111.475803 
L 235.456768 -111.895672 
L 236.310626 -108.131704 
L 237.291763 -126.484339 
L 237.989295 -132.318601 
L 238.860049 -129.114696 
L 239.719656 -124.922095 
L 240.575382 -123.067835 
L 241.430195 -123.384827 
L 242.285015 -118.896259 
L 243.139748 -117.783221 
L 243.99398 -119.996651 
L 244.848096 -120.571023 
L 245.702207 -115.622249 
L 246.556202 -114.800474 
L 247.410529 -113.862749 
L 248.264583 -112.591391 
L 249.118516 -109.607061 
L 249.972696 -104.58763 
L 250.826805 -104.953165 
L 251.680905 -107.845494 
L 252.534733 -106.424998 
L 253.388813 -109.574096 
L 254.242774 -108.335564 
L 255.096591 -110.522703 
L 255.950332 -112.57518 
L 256.80428 -108.974117 
L 257.658607 -110.60117 
L 258.512447 -106.703033 
L 259.366066 -109.571406 
L 260.22034 -112.034836 
L 261.074326 -109.032549 
L 261.928039 -108.616341 
L 262.781063 -109.91917 
L 263.638454 -109.676513 
L 264.488533 -110.920793 
L 265.343177 -112.028864 
L 266.193983 -112.953945 
L 267.050154 -112.083322 
L 267.90628 -115.266202 
L 268.756916 -112.475865 
L 269.613673 -112.650952 
L 270.467757 -113.813799 
L 271.323901 -110.778357 
L 272.175538 -115.319511 
L 273.02952 -116.226497 
L 273.881486 -115.250005 
L 274.737341 -115.695685 
L 275.591111 -114.268033 
L 276.44503 -110.355735 
L 277.299398 -113.662533 
L 278.152871 -110.832319 
L 279.006896 -109.290892 
L 279.866958 -112.861248 
L 280.774267 -124.299842 
L 281.571152 -131.221381 
L 282.422341 -133.159498 
L 283.276686 -133.936077 
L 284.148254 -137.544857 
L 284.962055 -134.670074 
L 285.8361 -136.362694 
L 286.690461 -135.377511 
L 287.552563 -133.184084 
L 288.414094 -134.235862 
L 289.248746 -134.42098 
L 290.099563 -133.81694 
L 291.027826 -125.152631 
L 291.815251 -136.385106 
L 292.659517 -134.224981 
L 293.565117 -139.193732 
L 294.387634 -139.588592 
L 295.263557 -137.14594 
L 296.085851 -149.575124 
L 296.911287 -149.200794 
L 297.718899 -146.974596 
L 298.650649 -139.081372 
L 299.542233 -132.350523 
L 300.391613 -135.373845 
L 301.236636 -139.150573 
L 302.032593 -138.954194 
L 302.871181 -142.152206 
L 303.773628 -146.370064 
L 304.625757 -146.802515 
L 305.474527 -143.567556 
L 306.322982 -140.669107 
L 307.237014 -139.044242 
L 308.025907 -138.890168 
L 308.913743 -141.983502 
L 309.750381 -140.523026 
L 310.589344 -140.31051 
L 311.467809 -143.948655 
L 312.320514 -144.450123 
L 313.13894 -145.576414 
L 314.012286 -145.633678 
L 314.85554 -142.357608 
L 315.720089 -142.469423 
L 316.57364 -141.065605 
L 317.431207 -139.472838 
L 318.298817 -143.75408 
L 319.130363 -145.403502 
L 319.979091 -146.869672 
L 320.850222 -146.489452 
L 321.693998 -147.904243 
L 322.557122 -147.298655 
L 323.40388 -148.202438 
L 324.26078 -145.50043 
L 325.086416 -141.338964 
L 325.916748 -127.99904 
L 326.893134 -135.721822 
L 327.681551 -143.649277 
L 328.516089 -145.997749 
L 329.386529 -145.445044 
L 330.273979 -145.104827 
L 331.082862 -141.804073 
L 331.94307 -145.090543 
L 332.806299 -142.942944 
L 333.648068 -142.778748 
L 334.492154 -138.114385 
L 335.373895 -135.780042 
L 336.2136 -138.118721 
L 337.068715 -137.37523 
L 337.921562 -132.420951 
L 338.778378 -131.3751 
L 339.653324 -132.46041 
L 340.495065 -129.407731 
L 341.339424 -137.977682 
L 342.193135 -138.751493 
L 343.069047 -135.354998 
L 343.899083 -132.010215 
L 344.747515 -134.295881 
L 345.595715 -131.745581 
L 346.462764 -134.794111 
L 347.313598 -136.327433 
L 348.188138 -135.245188 
L 349.036299 -133.801178 
L 349.893012 -134.063855 
L 350.717073 -133.35749 
L 351.581913 -133.28668 
L 352.436611 -132.348622 
L 353.293598 -132.059924 
L 354.153365 -133.650332 
L 355.007023 -128.888209 
L 355.853217 -130.690389 
L 356.724083 -128.588949 
L 357.599346 -140.685556 
L 358.422346 -146.761106 
L 359.27243 -145.34455 
L 360.131107 -146.562638 
L 360.936451 -143.245123 
L 361.858884 -142.487609 
L 362.675824 -140.365914 
L 363.53119 -141.360958 
L 364.390988 -140.915134 
L 365.265774 -140.388754 
L 366.10511 -145.505266 
L 366.929991 -139.4749 
L 367.807034 -130.105955 
L 368.668336 -134.145199 
L 369.494355 -136.951595 
L 370.377521 -137.946466 
L 371.218107 -136.598935 
L 372.086179 -136.236857 
L 372.958907 -136.038669 
L 373.784016 -134.232402 
L 374.663895 -141.120879 
L 375.478706 -140.09562 
L 376.362162 -141.309043 
L 377.225182 -146.523886 
L 378.040873 -140.751078 
L 378.883265 -140.757054 
L 379.774419 -138.994677 
L 380.575978 -131.660174 
L 381.498273 -126.627073 
L 382.329818 -124.82835 
L 383.247991 -128.188955 
L 384.043627 -133.211265 
L 384.8917 -133.093982 
L 385.74198 -135.50623 
L 386.595927 -133.808505 
L 387.463582 -137.958354 
L 388.320931 -141.182597 
L 389.172862 -136.300509 
L 390.006107 -140.404026 
L 390.850145 -134.818635 
L 391.737642 -141.573328 
L 392.580515 -142.761236 
L 393.43264 -143.414439 
L 394.292335 -143.244784 
L 395.135371 -146.020912 
L 395.981324 -142.901027 
L 396.857352 -143.399817 
L 397.68571 -144.600935 
L 398.561129 -142.065564 
L 399.413178 -144.662741 
L 400.257989 -145.1739 
L 401.123341 -143.99409 
L 401.968172 -144.584355 
L 402.809875 -144.615682 
L 403.684584 -141.077219 
L 404.543518 -141.70884 
L 404.543518 -186.264775 
L 404.543518 -186.264775 
L 403.684584 -187.770719 
L 402.809875 -186.733002 
L 401.968172 -182.897156 
L 401.123341 -184.225258 
L 400.257989 -184.176552 
L 399.413178 -189.506448 
L 398.561129 -183.594903 
L 397.68571 -181.282145 
L 396.857352 -181.699418 
L 395.981324 -181.159953 
L 395.135371 -179.67294 
L 394.292335 -177.71489 
L 393.43264 -180.272903 
L 392.580515 -184.679069 
L 391.737642 -187.074805 
L 390.850145 -184.928554 
L 390.006107 -205.110669 
L 389.172862 -188.541016 
L 388.320931 -189.728641 
L 387.463582 -181.161796 
L 386.595927 -171.32203 
L 385.74198 -174.743878 
L 384.8917 -177.948386 
L 384.043627 -179.457269 
L 383.247991 -178.390497 
L 382.329818 -184.130063 
L 381.498273 -186.149877 
L 380.575978 -183.374451 
L 379.774419 -187.389155 
L 378.883265 -186.579468 
L 378.040873 -185.061102 
L 377.225182 -186.189304 
L 376.362162 -193.81135 
L 375.478706 -182.077524 
L 374.663895 -188.858297 
L 373.784016 -178.26427 
L 372.958907 -177.571962 
L 372.086179 -189.269785 
L 371.218107 -180.20611 
L 370.377521 -177.042695 
L 369.494355 -174.240031 
L 368.668336 -175.919868 
L 367.807034 -167.937834 
L 366.929991 -181.614225 
L 366.10511 -186.457192 
L 365.265774 -187.103533 
L 364.390988 -188.377171 
L 363.53119 -186.329825 
L 362.675824 -181.743529 
L 361.858884 -183.967985 
L 360.936451 -185.471557 
L 360.131107 -183.545134 
L 359.27243 -188.577543 
L 358.422346 -191.190197 
L 357.599346 -184.825018 
L 356.724083 -172.68102 
L 355.853217 -171.544006 
L 355.007023 -171.413034 
L 354.153365 -177.723848 
L 353.293598 -170.700695 
L 352.436611 -176.204602 
L 351.581913 -178.068708 
L 350.717073 -178.365176 
L 349.893012 -175.315173 
L 349.036299 -169.815617 
L 348.188138 -176.523087 
L 347.313598 -173.081936 
L 346.462764 -181.236687 
L 345.595715 -180.45136 
L 344.747515 -172.041721 
L 343.899083 -172.326738 
L 343.069047 -188.167754 
L 342.193135 -195.243128 
L 341.339424 -180.855679 
L 340.495065 -174.413582 
L 339.653324 -173.856334 
L 338.778378 -191.169239 
L 337.921562 -174.365785 
L 337.068715 -172.771885 
L 336.2136 -171.113557 
L 335.373895 -176.21511 
L 334.492154 -188.516376 
L 333.648068 -186.453829 
L 332.806299 -186.459869 
L 331.94307 -206.72596 
L 331.082862 -189.370915 
L 330.273979 -208.132001 
L 329.386529 -205.007249 
L 328.516089 -206.954906 
L 327.681551 -192.520603 
L 326.893134 -194.472274 
L 325.916748 -217.325977 
L 325.086416 -228.250779 
L 324.26078 -209.482929 
L 323.40388 -211.769589 
L 322.557122 -216.740056 
L 321.693998 -213.419605 
L 320.850222 -210.711806 
L 319.979091 -208.843829 
L 319.130363 -209.344432 
L 318.298817 -203.635614 
L 317.431207 -204.676369 
L 316.57364 -205.000254 
L 315.720089 -207.691992 
L 314.85554 -209.520935 
L 314.012286 -196.612668 
L 313.13894 -201.71985 
L 312.320514 -204.8685 
L 311.467809 -204.562606 
L 310.589344 -203.828506 
L 309.750381 -199.774063 
L 308.913743 -204.447075 
L 308.025907 -199.431924 
L 307.237014 -200.841011 
L 306.322982 -203.181674 
L 305.474527 -209.053368 
L 304.625757 -202.531 
L 303.773628 -205.582391 
L 302.871181 -197.888231 
L 302.032593 -190.843694 
L 301.236636 -189.162769 
L 300.391613 -187.245047 
L 299.542233 -193.36841 
L 298.650649 -199.210166 
L 297.718899 -215.619177 
L 296.911287 -204.893267 
L 296.085851 -198.679005 
L 295.263557 -196.122102 
L 294.387634 -197.98831 
L 293.565117 -189.847945 
L 292.659517 -193.832373 
L 291.815251 -192.301552 
L 291.027826 -184.036062 
L 290.099563 -192.923248 
L 289.248746 -189.376119 
L 288.414094 -188.763055 
L 287.552563 -187.168045 
L 286.690461 -187.580877 
L 285.8361 -184.488468 
L 284.962055 -183.660182 
L 284.148254 -181.321623 
L 283.276686 -183.501729 
L 282.422341 -180.650965 
L 281.571152 -177.168112 
L 280.774267 -173.974442 
L 279.866958 -165.188306 
L 279.006896 -168.749092 
L 278.152871 -163.454 
L 277.299398 -163.492657 
L 276.44503 -164.134938 
L 275.591111 -163.683778 
L 274.737341 -162.158072 
L 273.881486 -157.143454 
L 273.02952 -158.387664 
L 272.175538 -157.296385 
L 271.323901 -154.86131 
L 270.467757 -155.365936 
L 269.613673 -160.045235 
L 268.756916 -157.196121 
L 267.90628 -156.139611 
L 267.050154 -157.415369 
L 266.193983 -157.098825 
L 265.343177 -156.947457 
L 264.488533 -163.459924 
L 263.638454 -160.549867 
L 262.781063 -160.630959 
L 261.928039 -161.272852 
L 261.074326 -160.445215 
L 260.22034 -164.040076 
L 259.366066 -160.043969 
L 258.512447 -159.102371 
L 257.658607 -162.264673 
L 256.80428 -155.658973 
L 255.950332 -158.808916 
L 255.096591 -155.772904 
L 254.242774 -162.064297 
L 253.388813 -158.014509 
L 252.534733 -160.986191 
L 251.680905 -158.724695 
L 250.826805 -157.186567 
L 249.972696 -153.696388 
L 249.118516 -158.4439 
L 248.264583 -164.638829 
L 247.410529 -161.216425 
L 246.556202 -164.511969 
L 245.702207 -172.678286 
L 244.848096 -165.39938 
L 243.99398 -166.71484 
L 243.139748 -168.577718 
L 242.285015 -170.156811 
L 241.430195 -168.221677 
L 240.575382 -163.991653 
L 239.719656 -162.907357 
L 238.860049 -161.794582 
L 237.989295 -171.149134 
L 237.291763 -157.497922 
L 236.310626 -175.025752 
L 235.456768 -175.708974 
L 234.602889 -177.33737 
L 233.748963 -178.221555 
L 232.894976 -178.768861 
L 232.040937 -166.305467 
L 231.186874 -170.614374 
L 230.333125 -174.432115 
L 229.479185 -168.353047 
L 228.625937 -173.706657 
L 227.77145 -175.584153 
L 226.91766 -176.821466 
L 226.063705 -183.310988 
L 225.209547 -168.175577 
L 224.355461 -167.726089 
L 223.501496 -162.37087 
L 222.647483 -153.500432 
L 221.793378 -151.652188 
L 220.939769 -148.253925 
L 220.085824 -153.971841 
L 219.231639 -147.905284 
L 218.377694 -149.331035 
L 217.523836 -152.786235 
L 216.66981 -154.876759 
L 215.815764 -153.065803 
L 214.961779 -156.320878 
L 214.107699 -150.790845 
L 213.253618 -146.935119 
L 212.399499 -142.627417 
L 211.545449 -145.020274 
L 210.691407 -145.288861 
L 209.837085 -144.957901 
L 208.982905 -141.408617 
L 208.128686 -141.88904 
L 207.274225 -142.265682 
L 206.419762 -136.760217 
L 205.565213 -131.485697 
L 204.710354 -128.566253 
L 203.831293 -131.176515 
L 202.999412 -137.71202 
L 202.137684 -142.160805 
L 201.280215 -143.056441 
L 200.392456 -129.303296 
L 199.879062 -134.524588 
z
" style="stroke: #add8e6"/>
    </defs>
    <g clip-path="url(#p9eb5cf836e)">
     <use xlink:href="#m5e55726450" x="0" y="288" style="fill: #add8e6; stroke: #add8e6"/>
    </g>
   </g>
   <g id="line2d_1">
    <path d="M 199.879062 164.987292 
L 200.392456 170.146372 
L 201.280215 162.653495 
L 202.137684 158.179106 
L 202.999412 164.429131 
L 203.831293 169.030653 
L 205.565213 168.124667 
L 206.419762 164.969501 
L 207.274225 159.610544 
L 208.128686 160.997116 
L 208.982905 161.523254 
L 210.691407 160.106214 
L 211.545449 161.442477 
L 212.399499 164.120953 
L 213.253618 160.59688 
L 214.107699 159.014483 
L 214.961779 157.024806 
L 215.815764 159.299354 
L 216.66981 157.838608 
L 217.523836 158.578877 
L 218.377694 159.133438 
L 219.231639 161.00916 
L 220.085824 157.54498 
L 220.939769 160.712567 
L 221.793378 157.971693 
L 222.647483 157.18951 
L 223.501496 154.024752 
L 224.355461 153.515712 
L 225.209547 153.747694 
L 226.063705 142.092617 
L 226.91766 142.025776 
L 227.77145 137.223231 
L 228.625937 140.199988 
L 229.479185 142.076869 
L 230.333125 136.403886 
L 231.186874 139.907614 
L 232.040937 145.2789 
L 232.894976 140.201998 
L 233.748963 143.492375 
L 234.602889 143.593413 
L 235.456768 144.197677 
L 236.310626 146.421272 
L 237.291763 146.00887 
L 237.989295 136.266132 
L 238.860049 142.545361 
L 239.719656 144.085274 
L 240.575382 144.470256 
L 241.430195 142.196748 
L 243.139748 144.81953 
L 243.99398 144.644254 
L 244.848096 145.014799 
L 245.702207 143.849732 
L 246.556202 148.343779 
L 247.410529 150.460413 
L 248.264583 149.38489 
L 249.972696 158.857991 
L 250.826805 156.930134 
L 251.680905 154.714906 
L 252.534733 154.294405 
L 253.388813 154.205697 
L 254.242774 152.80007 
L 255.096591 154.852196 
L 255.950332 152.307952 
L 256.80428 155.683455 
L 257.658607 151.567078 
L 258.512447 155.097298 
L 259.366066 153.192313 
L 260.22034 149.962544 
L 261.074326 153.261118 
L 261.928039 153.055403 
L 262.781063 152.724936 
L 263.638454 152.88681 
L 264.488533 150.809641 
L 265.343177 153.511839 
L 266.193983 152.973615 
L 267.050154 153.250654 
L 267.90628 152.297093 
L 268.756916 153.164007 
L 269.613673 151.651906 
L 271.323901 155.180166 
L 272.175538 151.692052 
L 273.02952 150.69292 
L 273.881486 151.80327 
L 274.737341 149.073122 
L 275.591111 149.024095 
L 276.44503 150.754663 
L 277.299398 149.422405 
L 278.152871 150.85684 
L 279.006896 148.980008 
L 279.866958 148.975223 
L 280.774267 138.862858 
L 281.571152 133.805253 
L 282.422341 131.094768 
L 283.276686 129.281097 
L 284.148254 128.56676 
L 284.962055 128.834872 
L 286.690461 126.520806 
L 287.552563 127.823935 
L 288.414094 126.500541 
L 289.248746 126.10145 
L 290.099563 124.629906 
L 291.027826 133.405654 
L 291.815251 123.656671 
L 292.659517 123.971323 
L 293.565117 123.479161 
L 294.387634 119.211549 
L 295.263557 121.365979 
L 296.085851 113.872935 
L 296.911287 110.95297 
L 297.718899 106.703114 
L 298.650649 118.854231 
L 299.542233 125.140534 
L 300.391613 126.690554 
L 301.236636 123.843329 
L 302.032593 123.101056 
L 303.773628 112.023773 
L 304.625757 113.333243 
L 305.474527 111.689538 
L 306.322982 116.07461 
L 307.237014 118.057374 
L 308.025907 118.838954 
L 308.913743 114.784711 
L 309.750381 117.851455 
L 311.467809 113.74437 
L 312.320514 113.340689 
L 313.13894 114.351868 
L 314.012286 116.876827 
L 314.85554 112.060729 
L 315.720089 112.919292 
L 316.57364 114.967071 
L 317.431207 115.925396 
L 318.298817 114.305153 
L 319.130363 110.626033 
L 319.979091 110.143249 
L 320.850222 109.399371 
L 321.693998 107.338076 
L 322.557122 105.980644 
L 323.40388 108.013987 
L 324.26078 110.50832 
L 325.086416 103.205129 
L 325.916748 115.337491 
L 326.893134 122.902952 
L 327.681551 119.91506 
L 328.516089 111.523673 
L 329.386529 112.773854 
L 330.273979 111.381586 
L 331.082862 122.412506 
L 331.94307 112.091748 
L 332.806299 123.298594 
L 333.648068 123.383711 
L 334.492154 124.684619 
L 335.373895 132.002424 
L 336.2136 133.383861 
L 337.068715 132.926442 
L 337.921562 134.606632 
L 338.778378 126.72783 
L 339.653324 134.841628 
L 340.495065 136.089343 
L 342.193135 121.002689 
L 343.069047 126.238624 
L 343.899083 135.831524 
L 344.747515 134.831199 
L 345.595715 131.90153 
L 346.462764 129.984601 
L 347.313598 133.295316 
L 348.188138 132.115862 
L 349.036299 136.191603 
L 349.893012 133.310486 
L 350.717073 132.138667 
L 351.581913 132.322306 
L 352.436611 133.723388 
L 353.293598 136.619691 
L 354.153365 132.31291 
L 355.007023 137.849378 
L 355.853217 136.882802 
L 356.724083 137.365016 
L 357.599346 125.244713 
L 358.422346 119.024348 
L 360.131107 122.946114 
L 360.936451 123.64166 
L 361.858884 124.772203 
L 362.675824 126.945279 
L 363.53119 124.154608 
L 364.390988 123.353847 
L 365.265774 124.253857 
L 366.10511 122.018771 
L 366.929991 127.455438 
L 367.807034 138.978106 
L 368.668336 132.967466 
L 369.494355 132.404187 
L 370.377521 130.50542 
L 371.218107 129.597477 
L 372.086179 125.246679 
L 372.958907 131.194684 
L 373.784016 131.751664 
L 374.663895 123.010412 
L 375.478706 126.913428 
L 376.362162 120.439804 
L 377.225182 121.643405 
L 378.040873 125.09391 
L 378.883265 124.331739 
L 379.774419 124.808084 
L 380.575978 130.482687 
L 381.498273 131.611525 
L 382.329818 133.520793 
L 383.247991 134.710274 
L 384.043627 131.665733 
L 384.8917 132.478816 
L 385.74198 132.874946 
L 386.595927 135.434732 
L 387.463582 128.439925 
L 388.320931 122.544381 
L 389.172862 125.579237 
L 390.006107 115.242652 
L 390.850145 128.126406 
L 391.737642 123.675934 
L 392.580515 124.279848 
L 393.43264 126.156329 
L 394.292335 127.520163 
L 395.135371 125.153074 
L 395.981324 125.96951 
L 397.68571 125.05846 
L 398.561129 125.169766 
L 399.413178 120.915405 
L 400.257989 123.324774 
L 401.123341 123.890326 
L 401.968172 124.259245 
L 402.809875 122.325658 
L 403.684584 123.576031 
L 404.543518 124.013192 
L 404.543518 124.013192 
" clip-path="url(#p9eb5cf836e)" style="fill: none; stroke: #1f77b4; stroke-width: 1.5; stroke-linecap: square"/>
   </g>
   <g id="line2d_2">
    <path d="M 74.224636 231.609273 
L 76.618475 227.799978 
L 77.644599 225.19715 
L 79.011946 220.375676 
L 80.379292 214.612906 
L 87.216026 184.236862 
L 89.608269 175.228081 
L 91.659289 168.407068 
L 93.709082 162.355561 
L 95.417652 157.847535 
L 97.468672 152.991925 
L 99.860915 148.032387 
L 101.911935 144.266855 
L 104.302951 140.381375 
L 106.695194 136.941558 
L 108.746214 134.304433 
L 111.47968 131.196374 
L 114.214374 128.486112 
L 117.289063 125.845196 
L 120.706202 123.254273 
L 123.782119 121.209724 
L 126.858035 119.405565 
L 130.275174 117.641686 
L 134.033537 115.940589 
L 137.793127 114.447914 
L 142.235162 112.910914 
L 147.019649 111.475227 
L 152.829031 109.981087 
L 158.637186 108.701785 
L 166.155139 107.300534 
L 176.065334 105.797318 
L 185.633079 104.613121 
L 194.862056 103.651493 
L 213.997546 102.081378 
L 230.05221 101.080463 
L 243.038321 100.411818 
L 258.761582 99.729402 
L 267.991786 99.459401 
L 343.84639 97.796899 
L 369.474936 97.34903 
L 387.247989 97.059733 
L 404.333686 96.799521 
L 404.333686 96.799521 
" clip-path="url(#p9eb5cf836e)" style="fill: none; stroke: #000000; stroke-width: 2.5; stroke-linecap: square"/>
   </g>
   <g id="line2d_3">
    <path d="M 74.224636 194.457721 
L 75.934802 153.407861 
L 76.960926 135.376344 
L 77.985822 121.821419 
L 79.011946 111.003793 
L 80.379292 98.482175 
L 81.746639 87.385363 
L 82.772763 80.585436 
L 84.14011 73.788719 
L 85.165006 69.710047 
L 86.189902 66.292435 
L 87.557249 62.573174 
L 88.924596 59.482882 
L 90.633166 56.334827 
L 92.341735 53.748352 
L 94.392755 51.197177 
L 96.101325 49.400122 
L 98.152345 47.551724 
L 100.202138 45.963256 
L 102.936831 44.16941 
L 106.012748 42.475044 
L 109.087437 41.043819 
L 112.504576 39.686401 
L 116.264166 38.412418 
L 121.048652 37.042163 
L 125.833139 35.883705 
L 132.667418 34.513451 
L 140.526593 33.367829 
L 150.094338 32.215789 
L 166.497589 30.63053 
L 181.191043 29.494535 
L 206.817134 27.915694 
L 226.296302 26.933732 
L 258.417904 25.544224 
L 307.968881 23.801723 
L 386.216955 21.719065 
L 404.677364 21.314727 
L 404.677364 21.314727 
" clip-path="url(#p9eb5cf836e)" style="fill: none; stroke-dasharray: 9.25,4; stroke-dashoffset: 0; stroke: #8b0000; stroke-width: 2.5"/>
   </g>
   <g id="legend_1">
    <g id="line2d_4">
     <path d="M 333.95625 198.188062 
L 343.95625 198.188062 
L 353.95625 198.188062 
" style="fill: none; stroke: #1f77b4; stroke-width: 1.5; stroke-linecap: square"/>
    </g>
    <g id="text_1">
     <!-- PSP -->
     <g transform="translate(361.95625 201.688062) scale(0.1 -0.1)">
      <defs>
       <path id="DejaVuSans-50" d="M 1259 4147 
L 1259 2394 
L 2053 2394 
Q 2494 2394 2734 2622 
Q 2975 2850 2975 3272 
Q 2975 3691 2734 3919 
Q 2494 4147 2053 4147 
L 1259 4147 
z
M 628 4666 
L 2053 4666 
Q 2838 4666 3239 4311 
Q 3641 3956 3641 3272 
Q 3641 2581 3239 2228 
Q 2838 1875 2053 1875 
L 1259 1875 
L 1259 0 
L 628 0 
L 628 4666 
z
" transform="scale(0.015625)"/>
       <path id="DejaVuSans-53" d="M 3425 4513 
L 3425 3897 
Q 3066 4069 2747 4153 
Q 2428 4238 2131 4238 
Q 1616 4238 1336 4038 
Q 1056 3838 1056 3469 
Q 1056 3159 1242 3001 
Q 1428 2844 1947 2747 
L 2328 2669 
Q 3034 2534 3370 2195 
Q 3706 1856 3706 1288 
Q 3706 609 3251 259 
Q 2797 -91 1919 -91 
Q 1588 -91 1214 -16 
Q 841 59 441 206 
L 441 856 
Q 825 641 1194 531 
Q 1563 422 1919 422 
Q 2459 422 2753 634 
Q 3047 847 3047 1241 
Q 3047 1584 2836 1778 
Q 2625 1972 2144 2069 
L 1759 2144 
Q 1053 2284 737 2584 
Q 422 2884 422 3419 
Q 422 4038 858 4394 
Q 1294 4750 2059 4750 
Q 2388 4750 2728 4690 
Q 3069 4631 3425 4513 
z
" transform="scale(0.015625)"/>
      </defs>
      <use xlink:href="#DejaVuSans-50"/>
      <use xlink:href="#DejaVuSans-53" x="60.302734"/>
      <use xlink:href="#DejaVuSans-50" x="123.779297"/>
     </g>
    </g>
    <g id="line2d_5">
     <path d="M 333.95625 212.866187 
L 343.95625 212.866187 
L 353.95625 212.866187 
" style="fill: none; stroke: #000000; stroke-width: 2.5; stroke-linecap: square"/>
    </g>
    <g id="text_2">
     <!-- Slow wind -->
     <g transform="translate(361.95625 216.366187) scale(0.1 -0.1)">
      <defs>
       <path id="DejaVuSans-6c" d="M 603 4863 
L 1178 4863 
L 1178 0 
L 603 0 
L 603 4863 
z
" transform="scale(0.015625)"/>
       <path id="DejaVuSans-6f" d="M 1959 3097 
Q 1497 3097 1228 2736 
Q 959 2375 959 1747 
Q 959 1119 1226 758 
Q 1494 397 1959 397 
Q 2419 397 2687 759 
Q 2956 1122 2956 1747 
Q 2956 2369 2687 2733 
Q 2419 3097 1959 3097 
z
M 1959 3584 
Q 2709 3584 3137 3096 
Q 3566 2609 3566 1747 
Q 3566 888 3137 398 
Q 2709 -91 1959 -91 
Q 1206 -91 779 398 
Q 353 888 353 1747 
Q 353 2609 779 3096 
Q 1206 3584 1959 3584 
z
" transform="scale(0.015625)"/>
       <path id="DejaVuSans-77" d="M 269 3500 
L 844 3500 
L 1563 769 
L 2278 3500 
L 2956 3500 
L 3675 769 
L 4391 3500 
L 4966 3500 
L 4050 0 
L 3372 0 
L 2619 2869 
L 1863 0 
L 1184 0 
L 269 3500 
z
" transform="scale(0.015625)"/>
       <path id="DejaVuSans-20" transform="scale(0.015625)"/>
       <path id="DejaVuSans-69" d="M 603 3500 
L 1178 3500 
L 1178 0 
L 603 0 
L 603 3500 
z
M 603 4863 
L 1178 4863 
L 1178 4134 
L 603 4134 
L 603 4863 
z
" transform="scale(0.015625)"/>
       <path id="DejaVuSans-6e" d="M 3513 2113 
L 3513 0 
L 2938 0 
L 2938 2094 
Q 2938 2591 2744 2837 
Q 2550 3084 2163 3084 
Q 1697 3084 1428 2787 
Q 1159 2491 1159 1978 
L 1159 0 
L 581 0 
L 581 3500 
L 1159 3500 
L 1159 2956 
Q 1366 3272 1645 3428 
Q 1925 3584 2291 3584 
Q 2894 3584 3203 3211 
Q 3513 2838 3513 2113 
z
" transform="scale(0.015625)"/>
       <path id="DejaVuSans-64" d="M 2906 2969 
L 2906 4863 
L 3481 4863 
L 3481 0 
L 2906 0 
L 2906 525 
Q 2725 213 2448 61 
Q 2172 -91 1784 -91 
Q 1150 -91 751 415 
Q 353 922 353 1747 
Q 353 2572 751 3078 
Q 1150 3584 1784 3584 
Q 2172 3584 2448 3432 
Q 2725 3281 2906 2969 
z
M 947 1747 
Q 947 1113 1208 752 
Q 1469 391 1925 391 
Q 2381 391 2643 752 
Q 2906 1113 2906 1747 
Q 2906 2381 2643 2742 
Q 2381 3103 1925 3103 
Q 1469 3103 1208 2742 
Q 947 2381 947 1747 
z
" transform="scale(0.015625)"/>
      </defs>
      <use xlink:href="#DejaVuSans-53"/>
      <use xlink:href="#DejaVuSans-6c" x="63.476562"/>
      <use xlink:href="#DejaVuSans-6f" x="91.259766"/>
      <use xlink:href="#DejaVuSans-77" x="152.441406"/>
      <use xlink:href="#DejaVuSans-20" x="234.228516"/>
      <use xlink:href="#DejaVuSans-77" x="266.015625"/>
      <use xlink:href="#DejaVuSans-69" x="347.802734"/>
      <use xlink:href="#DejaVuSans-6e" x="375.585938"/>
      <use xlink:href="#DejaVuSans-64" x="438.964844"/>
     </g>
    </g>
    <g id="line2d_6">
     <path d="M 333.95625 227.544312 
L 343.95625 227.544312 
L 353.95625 227.544312 
" style="fill: none; stroke-dasharray: 9.25,4; stroke-dashoffset: 0; stroke: #8b0000; stroke-width: 2.5"/>
    </g>
    <g id="text_3">
     <!-- Fast wind -->
     <g transform="translate(361.95625 231.044312) scale(0.1 -0.1)">
      <defs>
       <path id="DejaVuSans-46" d="M 628 4666 
L 3309 4666 
L 3309 4134 
L 1259 4134 
L 1259 2759 
L 3109 2759 
L 3109 2228 
L 1259 2228 
L 1259 0 
L 628 0 
L 628 4666 
z
" transform="scale(0.015625)"/>
       <path id="DejaVuSans-61" d="M 2194 1759 
Q 1497 1759 1228 1600 
Q 959 1441 959 1056 
Q 959 750 1161 570 
Q 1363 391 1709 391 
Q 2188 391 2477 730 
Q 2766 1069 2766 1631 
L 2766 1759 
L 2194 1759 
z
M 3341 1997 
L 3341 0 
L 2766 0 
L 2766 531 
Q 2569 213 2275 61 
Q 1981 -91 1556 -91 
Q 1019 -91 701 211 
Q 384 513 384 1019 
Q 384 1609 779 1909 
Q 1175 2209 1959 2209 
L 2766 2209 
L 2766 2266 
Q 2766 2663 2505 2880 
Q 2244 3097 1772 3097 
Q 1472 3097 1187 3025 
Q 903 2953 641 2809 
L 641 3341 
Q 956 3463 1253 3523 
Q 1550 3584 1831 3584 
Q 2591 3584 2966 3190 
Q 3341 2797 3341 1997 
z
" transform="scale(0.015625)"/>
       <path id="DejaVuSans-73" d="M 2834 3397 
L 2834 2853 
Q 2591 2978 2328 3040 
Q 2066 3103 1784 3103 
Q 1356 3103 1142 2972 
Q 928 2841 928 2578 
Q 928 2378 1081 2264 
Q 1234 2150 1697 2047 
L 1894 2003 
Q 2506 1872 2764 1633 
Q 3022 1394 3022 966 
Q 3022 478 2636 193 
Q 2250 -91 1575 -91 
Q 1294 -91 989 -36 
Q 684 19 347 128 
L 347 722 
Q 666 556 975 473 
Q 1284 391 1588 391 
Q 1994 391 2212 530 
Q 2431 669 2431 922 
Q 2431 1156 2273 1281 
Q 2116 1406 1581 1522 
L 1381 1569 
Q 847 1681 609 1914 
Q 372 2147 372 2553 
Q 372 3047 722 3315 
Q 1072 3584 1716 3584 
Q 2034 3584 2315 3537 
Q 2597 3491 2834 3397 
z
" transform="scale(0.015625)"/>
       <path id="DejaVuSans-74" d="M 1172 4494 
L 1172 3500 
L 2356 3500 
L 2356 3053 
L 1172 3053 
L 1172 1153 
Q 1172 725 1289 603 
Q 1406 481 1766 481 
L 2356 481 
L 2356 0 
L 1766 0 
Q 1100 0 847 248 
Q 594 497 594 1153 
L 594 3053 
L 172 3053 
L 172 3500 
L 594 3500 
L 594 4494 
L 1172 4494 
z
" transform="scale(0.015625)"/>
      </defs>
      <use xlink:href="#DejaVuSans-46"/>
      <use xlink:href="#DejaVuSans-61" x="48.394531"/>
      <use xlink:href="#DejaVuSans-73" x="109.673828"/>
      <use xlink:href="#DejaVuSans-74" x="161.773438"/>
      <use xlink:href="#DejaVuSans-20" x="200.982422"/>
      <use xlink:href="#DejaVuSans-77" x="232.769531"/>
      <use xlink:href="#DejaVuSans-69" x="314.556641"/>
      <use xlink:href="#DejaVuSans-6e" x="342.339844"/>
      <use xlink:href="#DejaVuSans-64" x="405.71875"/>
     </g>
    </g>
   </g>
   <g id="matplotlib.axis_1">
    <g id="xtick_1">
     <g id="line2d_7">
      <defs>
       <path id="m3bc68945b7" d="M 0 0 
L 0 -3.5 
" style="stroke: #000000; stroke-width: 1.5"/>
      </defs>
      <g>
       <use xlink:href="#m3bc68945b7" x="63.393016" y="242.124" style="stroke: #000000; stroke-width: 1.5"/>
      </g>
     </g>
     <g id="line2d_8">
      <defs>
       <path id="m01d81ac363" d="M 0 0 
L 0 3.5 
" style="stroke: #000000; stroke-width: 1.5"/>
      </defs>
      <g>
       <use xlink:href="#m01d81ac363" x="63.393016" y="10.8" style="stroke: #000000; stroke-width: 1.5"/>
      </g>
     </g>
     <g id="text_4">
      <!-- 0 -->
      <g transform="translate(59.575516 254.742125) scale(0.12 -0.12)">
       <defs>
        <path id="DejaVuSans-30" d="M 2034 4250 
Q 1547 4250 1301 3770 
Q 1056 3291 1056 2328 
Q 1056 1369 1301 889 
Q 1547 409 2034 409 
Q 2525 409 2770 889 
Q 3016 1369 3016 2328 
Q 3016 3291 2770 3770 
Q 2525 4250 2034 4250 
z
M 2034 4750 
Q 2819 4750 3233 4129 
Q 3647 3509 3647 2328 
Q 3647 1150 3233 529 
Q 2819 -91 2034 -91 
Q 1250 -91 836 529 
Q 422 1150 422 2328 
Q 422 3509 836 4129 
Q 1250 4750 2034 4750 
z
" transform="scale(0.015625)"/>
       </defs>
       <use xlink:href="#DejaVuSans-30"/>
      </g>
     </g>
    </g>
    <g id="xtick_2">
     <g id="line2d_9">
      <g>
       <use xlink:href="#m3bc68945b7" x="106.088848" y="242.124" style="stroke: #000000; stroke-width: 1.5"/>
      </g>
     </g>
     <g id="line2d_10">
      <g>
       <use xlink:href="#m01d81ac363" x="106.088848" y="10.8" style="stroke: #000000; stroke-width: 1.5"/>
      </g>
     </g>
     <g id="text_5">
      <!-- 5 -->
      <g transform="translate(102.271348 254.742125) scale(0.12 -0.12)">
       <defs>
        <path id="DejaVuSans-35" d="M 691 4666 
L 3169 4666 
L 3169 4134 
L 1269 4134 
L 1269 2991 
Q 1406 3038 1543 3061 
Q 1681 3084 1819 3084 
Q 2600 3084 3056 2656 
Q 3513 2228 3513 1497 
Q 3513 744 3044 326 
Q 2575 -91 1722 -91 
Q 1428 -91 1123 -41 
Q 819 9 494 109 
L 494 744 
Q 775 591 1075 516 
Q 1375 441 1709 441 
Q 2250 441 2565 725 
Q 2881 1009 2881 1497 
Q 2881 1984 2565 2268 
Q 2250 2553 1709 2553 
Q 1456 2553 1204 2497 
Q 953 2441 691 2322 
L 691 4666 
z
" transform="scale(0.015625)"/>
       </defs>
       <use xlink:href="#DejaVuSans-35"/>
      </g>
     </g>
    </g>
    <g id="xtick_3">
     <g id="line2d_11">
      <g>
       <use xlink:href="#m3bc68945b7" x="148.78468" y="242.124" style="stroke: #000000; stroke-width: 1.5"/>
      </g>
     </g>
     <g id="line2d_12">
      <g>
       <use xlink:href="#m01d81ac363" x="148.78468" y="10.8" style="stroke: #000000; stroke-width: 1.5"/>
      </g>
     </g>
     <g id="text_6">
      <!-- 10 -->
      <g transform="translate(141.14968 254.742125) scale(0.12 -0.12)">
       <defs>
        <path id="DejaVuSans-31" d="M 794 531 
L 1825 531 
L 1825 4091 
L 703 3866 
L 703 4441 
L 1819 4666 
L 2450 4666 
L 2450 531 
L 3481 531 
L 3481 0 
L 794 0 
L 794 531 
z
" transform="scale(0.015625)"/>
       </defs>
       <use xlink:href="#DejaVuSans-31"/>
       <use xlink:href="#DejaVuSans-30" x="63.623047"/>
      </g>
     </g>
    </g>
    <g id="xtick_4">
     <g id="line2d_13">
      <g>
       <use xlink:href="#m3bc68945b7" x="191.480512" y="242.124" style="stroke: #000000; stroke-width: 1.5"/>
      </g>
     </g>
     <g id="line2d_14">
      <g>
       <use xlink:href="#m01d81ac363" x="191.480512" y="10.8" style="stroke: #000000; stroke-width: 1.5"/>
      </g>
     </g>
     <g id="text_7">
      <!-- 15 -->
      <g transform="translate(183.845512 254.742125) scale(0.12 -0.12)">
       <use xlink:href="#DejaVuSans-31"/>
       <use xlink:href="#DejaVuSans-35" x="63.623047"/>
      </g>
     </g>
    </g>
    <g id="xtick_5">
     <g id="line2d_15">
      <g>
       <use xlink:href="#m3bc68945b7" x="234.176343" y="242.124" style="stroke: #000000; stroke-width: 1.5"/>
      </g>
     </g>
     <g id="line2d_16">
      <g>
       <use xlink:href="#m01d81ac363" x="234.176343" y="10.8" style="stroke: #000000; stroke-width: 1.5"/>
      </g>
     </g>
     <g id="text_8">
      <!-- 20 -->
      <g transform="translate(226.541343 254.742125) scale(0.12 -0.12)">
       <defs>
        <path id="DejaVuSans-32" d="M 1228 531 
L 3431 531 
L 3431 0 
L 469 0 
L 469 531 
Q 828 903 1448 1529 
Q 2069 2156 2228 2338 
Q 2531 2678 2651 2914 
Q 2772 3150 2772 3378 
Q 2772 3750 2511 3984 
Q 2250 4219 1831 4219 
Q 1534 4219 1204 4116 
Q 875 4013 500 3803 
L 500 4441 
Q 881 4594 1212 4672 
Q 1544 4750 1819 4750 
Q 2544 4750 2975 4387 
Q 3406 4025 3406 3419 
Q 3406 3131 3298 2873 
Q 3191 2616 2906 2266 
Q 2828 2175 2409 1742 
Q 1991 1309 1228 531 
z
" transform="scale(0.015625)"/>
       </defs>
       <use xlink:href="#DejaVuSans-32"/>
       <use xlink:href="#DejaVuSans-30" x="63.623047"/>
      </g>
     </g>
    </g>
    <g id="xtick_6">
     <g id="line2d_17">
      <g>
       <use xlink:href="#m3bc68945b7" x="276.872175" y="242.124" style="stroke: #000000; stroke-width: 1.5"/>
      </g>
     </g>
     <g id="line2d_18">
      <g>
       <use xlink:href="#m01d81ac363" x="276.872175" y="10.8" style="stroke: #000000; stroke-width: 1.5"/>
      </g>
     </g>
     <g id="text_9">
      <!-- 25 -->
      <g transform="translate(269.237175 254.742125) scale(0.12 -0.12)">
       <use xlink:href="#DejaVuSans-32"/>
       <use xlink:href="#DejaVuSans-35" x="63.623047"/>
      </g>
     </g>
    </g>
    <g id="xtick_7">
     <g id="line2d_19">
      <g>
       <use xlink:href="#m3bc68945b7" x="319.568007" y="242.124" style="stroke: #000000; stroke-width: 1.5"/>
      </g>
     </g>
     <g id="line2d_20">
      <g>
       <use xlink:href="#m01d81ac363" x="319.568007" y="10.8" style="stroke: #000000; stroke-width: 1.5"/>
      </g>
     </g>
     <g id="text_10">
      <!-- 30 -->
      <g transform="translate(311.933007 254.742125) scale(0.12 -0.12)">
       <defs>
        <path id="DejaVuSans-33" d="M 2597 2516 
Q 3050 2419 3304 2112 
Q 3559 1806 3559 1356 
Q 3559 666 3084 287 
Q 2609 -91 1734 -91 
Q 1441 -91 1130 -33 
Q 819 25 488 141 
L 488 750 
Q 750 597 1062 519 
Q 1375 441 1716 441 
Q 2309 441 2620 675 
Q 2931 909 2931 1356 
Q 2931 1769 2642 2001 
Q 2353 2234 1838 2234 
L 1294 2234 
L 1294 2753 
L 1863 2753 
Q 2328 2753 2575 2939 
Q 2822 3125 2822 3475 
Q 2822 3834 2567 4026 
Q 2313 4219 1838 4219 
Q 1578 4219 1281 4162 
Q 984 4106 628 3988 
L 628 4550 
Q 988 4650 1302 4700 
Q 1616 4750 1894 4750 
Q 2613 4750 3031 4423 
Q 3450 4097 3450 3541 
Q 3450 3153 3228 2886 
Q 3006 2619 2597 2516 
z
" transform="scale(0.015625)"/>
       </defs>
       <use xlink:href="#DejaVuSans-33"/>
       <use xlink:href="#DejaVuSans-30" x="63.623047"/>
      </g>
     </g>
    </g>
    <g id="xtick_8">
     <g id="line2d_21">
      <g>
       <use xlink:href="#m3bc68945b7" x="362.263839" y="242.124" style="stroke: #000000; stroke-width: 1.5"/>
      </g>
     </g>
     <g id="line2d_22">
      <g>
       <use xlink:href="#m01d81ac363" x="362.263839" y="10.8" style="stroke: #000000; stroke-width: 1.5"/>
      </g>
     </g>
     <g id="text_11">
      <!-- 35 -->
      <g transform="translate(354.628839 254.742125) scale(0.12 -0.12)">
       <use xlink:href="#DejaVuSans-33"/>
       <use xlink:href="#DejaVuSans-35" x="63.623047"/>
      </g>
     </g>
    </g>
    <g id="xtick_9">
     <g id="line2d_23">
      <g>
       <use xlink:href="#m3bc68945b7" x="404.95967" y="242.124" style="stroke: #000000; stroke-width: 1.5"/>
      </g>
     </g>
     <g id="line2d_24">
      <g>
       <use xlink:href="#m01d81ac363" x="404.95967" y="10.8" style="stroke: #000000; stroke-width: 1.5"/>
      </g>
     </g>
     <g id="text_12">
      <!-- 40 -->
      <g transform="translate(397.32467 254.742125) scale(0.12 -0.12)">
       <defs>
        <path id="DejaVuSans-34" d="M 2419 4116 
L 825 1625 
L 2419 1625 
L 2419 4116 
z
M 2253 4666 
L 3047 4666 
L 3047 1625 
L 3713 1625 
L 3713 1100 
L 3047 1100 
L 3047 0 
L 2419 0 
L 2419 1100 
L 313 1100 
L 313 1709 
L 2253 4666 
z
" transform="scale(0.015625)"/>
       </defs>
       <use xlink:href="#DejaVuSans-34"/>
       <use xlink:href="#DejaVuSans-30" x="63.623047"/>
      </g>
     </g>
    </g>
    <g id="xtick_10">
     <g id="line2d_25">
      <defs>
       <path id="m08ad478b34" d="M 0 0 
L 0 -2 
" style="stroke: #000000; stroke-width: 1.5"/>
      </defs>
      <g>
       <use xlink:href="#m08ad478b34" x="71.932183" y="242.124" style="stroke: #000000; stroke-width: 1.5"/>
      </g>
     </g>
     <g id="line2d_26">
      <defs>
       <path id="mc6791316ea" d="M 0 0 
L 0 2 
" style="stroke: #000000; stroke-width: 1.5"/>
      </defs>
      <g>
       <use xlink:href="#mc6791316ea" x="71.932183" y="10.8" style="stroke: #000000; stroke-width: 1.5"/>
      </g>
     </g>
    </g>
    <g id="xtick_11">
     <g id="line2d_27">
      <g>
       <use xlink:href="#m08ad478b34" x="80.471349" y="242.124" style="stroke: #000000; stroke-width: 1.5"/>
      </g>
     </g>
     <g id="line2d_28">
      <g>
       <use xlink:href="#mc6791316ea" x="80.471349" y="10.8" style="stroke: #000000; stroke-width: 1.5"/>
      </g>
     </g>
    </g>
    <g id="xtick_12">
     <g id="line2d_29">
      <g>
       <use xlink:href="#m08ad478b34" x="89.010515" y="242.124" style="stroke: #000000; stroke-width: 1.5"/>
      </g>
     </g>
     <g id="line2d_30">
      <g>
       <use xlink:href="#mc6791316ea" x="89.010515" y="10.8" style="stroke: #000000; stroke-width: 1.5"/>
      </g>
     </g>
    </g>
    <g id="xtick_13">
     <g id="line2d_31">
      <g>
       <use xlink:href="#m08ad478b34" x="97.549682" y="242.124" style="stroke: #000000; stroke-width: 1.5"/>
      </g>
     </g>
     <g id="line2d_32">
      <g>
       <use xlink:href="#mc6791316ea" x="97.549682" y="10.8" style="stroke: #000000; stroke-width: 1.5"/>
      </g>
     </g>
    </g>
    <g id="xtick_14">
     <g id="line2d_33">
      <g>
       <use xlink:href="#m08ad478b34" x="114.628014" y="242.124" style="stroke: #000000; stroke-width: 1.5"/>
      </g>
     </g>
     <g id="line2d_34">
      <g>
       <use xlink:href="#mc6791316ea" x="114.628014" y="10.8" style="stroke: #000000; stroke-width: 1.5"/>
      </g>
     </g>
    </g>
    <g id="xtick_15">
     <g id="line2d_35">
      <g>
       <use xlink:href="#m08ad478b34" x="123.167181" y="242.124" style="stroke: #000000; stroke-width: 1.5"/>
      </g>
     </g>
     <g id="line2d_36">
      <g>
       <use xlink:href="#mc6791316ea" x="123.167181" y="10.8" style="stroke: #000000; stroke-width: 1.5"/>
      </g>
     </g>
    </g>
    <g id="xtick_16">
     <g id="line2d_37">
      <g>
       <use xlink:href="#m08ad478b34" x="131.706347" y="242.124" style="stroke: #000000; stroke-width: 1.5"/>
      </g>
     </g>
     <g id="line2d_38">
      <g>
       <use xlink:href="#mc6791316ea" x="131.706347" y="10.8" style="stroke: #000000; stroke-width: 1.5"/>
      </g>
     </g>
    </g>
    <g id="xtick_17">
     <g id="line2d_39">
      <g>
       <use xlink:href="#m08ad478b34" x="140.245513" y="242.124" style="stroke: #000000; stroke-width: 1.5"/>
      </g>
     </g>
     <g id="line2d_40">
      <g>
       <use xlink:href="#mc6791316ea" x="140.245513" y="10.8" style="stroke: #000000; stroke-width: 1.5"/>
      </g>
     </g>
    </g>
    <g id="xtick_18">
     <g id="line2d_41">
      <g>
       <use xlink:href="#m08ad478b34" x="157.323846" y="242.124" style="stroke: #000000; stroke-width: 1.5"/>
      </g>
     </g>
     <g id="line2d_42">
      <g>
       <use xlink:href="#mc6791316ea" x="157.323846" y="10.8" style="stroke: #000000; stroke-width: 1.5"/>
      </g>
     </g>
    </g>
    <g id="xtick_19">
     <g id="line2d_43">
      <g>
       <use xlink:href="#m08ad478b34" x="165.863012" y="242.124" style="stroke: #000000; stroke-width: 1.5"/>
      </g>
     </g>
     <g id="line2d_44">
      <g>
       <use xlink:href="#mc6791316ea" x="165.863012" y="10.8" style="stroke: #000000; stroke-width: 1.5"/>
      </g>
     </g>
    </g>
    <g id="xtick_20">
     <g id="line2d_45">
      <g>
       <use xlink:href="#m08ad478b34" x="174.402179" y="242.124" style="stroke: #000000; stroke-width: 1.5"/>
      </g>
     </g>
     <g id="line2d_46">
      <g>
       <use xlink:href="#mc6791316ea" x="174.402179" y="10.8" style="stroke: #000000; stroke-width: 1.5"/>
      </g>
     </g>
    </g>
    <g id="xtick_21">
     <g id="line2d_47">
      <g>
       <use xlink:href="#m08ad478b34" x="182.941345" y="242.124" style="stroke: #000000; stroke-width: 1.5"/>
      </g>
     </g>
     <g id="line2d_48">
      <g>
       <use xlink:href="#mc6791316ea" x="182.941345" y="10.8" style="stroke: #000000; stroke-width: 1.5"/>
      </g>
     </g>
    </g>
    <g id="xtick_22">
     <g id="line2d_49">
      <g>
       <use xlink:href="#m08ad478b34" x="200.019678" y="242.124" style="stroke: #000000; stroke-width: 1.5"/>
      </g>
     </g>
     <g id="line2d_50">
      <g>
       <use xlink:href="#mc6791316ea" x="200.019678" y="10.8" style="stroke: #000000; stroke-width: 1.5"/>
      </g>
     </g>
    </g>
    <g id="xtick_23">
     <g id="line2d_51">
      <g>
       <use xlink:href="#m08ad478b34" x="208.558844" y="242.124" style="stroke: #000000; stroke-width: 1.5"/>
      </g>
     </g>
     <g id="line2d_52">
      <g>
       <use xlink:href="#mc6791316ea" x="208.558844" y="10.8" style="stroke: #000000; stroke-width: 1.5"/>
      </g>
     </g>
    </g>
    <g id="xtick_24">
     <g id="line2d_53">
      <g>
       <use xlink:href="#m08ad478b34" x="217.098011" y="242.124" style="stroke: #000000; stroke-width: 1.5"/>
      </g>
     </g>
     <g id="line2d_54">
      <g>
       <use xlink:href="#mc6791316ea" x="217.098011" y="10.8" style="stroke: #000000; stroke-width: 1.5"/>
      </g>
     </g>
    </g>
    <g id="xtick_25">
     <g id="line2d_55">
      <g>
       <use xlink:href="#m08ad478b34" x="225.637177" y="242.124" style="stroke: #000000; stroke-width: 1.5"/>
      </g>
     </g>
     <g id="line2d_56">
      <g>
       <use xlink:href="#mc6791316ea" x="225.637177" y="10.8" style="stroke: #000000; stroke-width: 1.5"/>
      </g>
     </g>
    </g>
    <g id="xtick_26">
     <g id="line2d_57">
      <g>
       <use xlink:href="#m08ad478b34" x="242.71551" y="242.124" style="stroke: #000000; stroke-width: 1.5"/>
      </g>
     </g>
     <g id="line2d_58">
      <g>
       <use xlink:href="#mc6791316ea" x="242.71551" y="10.8" style="stroke: #000000; stroke-width: 1.5"/>
      </g>
     </g>
    </g>
    <g id="xtick_27">
     <g id="line2d_59">
      <g>
       <use xlink:href="#m08ad478b34" x="251.254676" y="242.124" style="stroke: #000000; stroke-width: 1.5"/>
      </g>
     </g>
     <g id="line2d_60">
      <g>
       <use xlink:href="#mc6791316ea" x="251.254676" y="10.8" style="stroke: #000000; stroke-width: 1.5"/>
      </g>
     </g>
    </g>
    <g id="xtick_28">
     <g id="line2d_61">
      <g>
       <use xlink:href="#m08ad478b34" x="259.793842" y="242.124" style="stroke: #000000; stroke-width: 1.5"/>
      </g>
     </g>
     <g id="line2d_62">
      <g>
       <use xlink:href="#mc6791316ea" x="259.793842" y="10.8" style="stroke: #000000; stroke-width: 1.5"/>
      </g>
     </g>
    </g>
    <g id="xtick_29">
     <g id="line2d_63">
      <g>
       <use xlink:href="#m08ad478b34" x="268.333009" y="242.124" style="stroke: #000000; stroke-width: 1.5"/>
      </g>
     </g>
     <g id="line2d_64">
      <g>
       <use xlink:href="#mc6791316ea" x="268.333009" y="10.8" style="stroke: #000000; stroke-width: 1.5"/>
      </g>
     </g>
    </g>
    <g id="xtick_30">
     <g id="line2d_65">
      <g>
       <use xlink:href="#m08ad478b34" x="285.411341" y="242.124" style="stroke: #000000; stroke-width: 1.5"/>
      </g>
     </g>
     <g id="line2d_66">
      <g>
       <use xlink:href="#mc6791316ea" x="285.411341" y="10.8" style="stroke: #000000; stroke-width: 1.5"/>
      </g>
     </g>
    </g>
    <g id="xtick_31">
     <g id="line2d_67">
      <g>
       <use xlink:href="#m08ad478b34" x="293.950508" y="242.124" style="stroke: #000000; stroke-width: 1.5"/>
      </g>
     </g>
     <g id="line2d_68">
      <g>
       <use xlink:href="#mc6791316ea" x="293.950508" y="10.8" style="stroke: #000000; stroke-width: 1.5"/>
      </g>
     </g>
    </g>
    <g id="xtick_32">
     <g id="line2d_69">
      <g>
       <use xlink:href="#m08ad478b34" x="302.489674" y="242.124" style="stroke: #000000; stroke-width: 1.5"/>
      </g>
     </g>
     <g id="line2d_70">
      <g>
       <use xlink:href="#mc6791316ea" x="302.489674" y="10.8" style="stroke: #000000; stroke-width: 1.5"/>
      </g>
     </g>
    </g>
    <g id="xtick_33">
     <g id="line2d_71">
      <g>
       <use xlink:href="#m08ad478b34" x="311.028841" y="242.124" style="stroke: #000000; stroke-width: 1.5"/>
      </g>
     </g>
     <g id="line2d_72">
      <g>
       <use xlink:href="#mc6791316ea" x="311.028841" y="10.8" style="stroke: #000000; stroke-width: 1.5"/>
      </g>
     </g>
    </g>
    <g id="xtick_34">
     <g id="line2d_73">
      <g>
       <use xlink:href="#m08ad478b34" x="328.107173" y="242.124" style="stroke: #000000; stroke-width: 1.5"/>
      </g>
     </g>
     <g id="line2d_74">
      <g>
       <use xlink:href="#mc6791316ea" x="328.107173" y="10.8" style="stroke: #000000; stroke-width: 1.5"/>
      </g>
     </g>
    </g>
    <g id="xtick_35">
     <g id="line2d_75">
      <g>
       <use xlink:href="#m08ad478b34" x="336.64634" y="242.124" style="stroke: #000000; stroke-width: 1.5"/>
      </g>
     </g>
     <g id="line2d_76">
      <g>
       <use xlink:href="#mc6791316ea" x="336.64634" y="10.8" style="stroke: #000000; stroke-width: 1.5"/>
      </g>
     </g>
    </g>
    <g id="xtick_36">
     <g id="line2d_77">
      <g>
       <use xlink:href="#m08ad478b34" x="345.185506" y="242.124" style="stroke: #000000; stroke-width: 1.5"/>
      </g>
     </g>
     <g id="line2d_78">
      <g>
       <use xlink:href="#mc6791316ea" x="345.185506" y="10.8" style="stroke: #000000; stroke-width: 1.5"/>
      </g>
     </g>
    </g>
    <g id="xtick_37">
     <g id="line2d_79">
      <g>
       <use xlink:href="#m08ad478b34" x="353.724672" y="242.124" style="stroke: #000000; stroke-width: 1.5"/>
      </g>
     </g>
     <g id="line2d_80">
      <g>
       <use xlink:href="#mc6791316ea" x="353.724672" y="10.8" style="stroke: #000000; stroke-width: 1.5"/>
      </g>
     </g>
    </g>
    <g id="xtick_38">
     <g id="line2d_81">
      <g>
       <use xlink:href="#m08ad478b34" x="370.803005" y="242.124" style="stroke: #000000; stroke-width: 1.5"/>
      </g>
     </g>
     <g id="line2d_82">
      <g>
       <use xlink:href="#mc6791316ea" x="370.803005" y="10.8" style="stroke: #000000; stroke-width: 1.5"/>
      </g>
     </g>
    </g>
    <g id="xtick_39">
     <g id="line2d_83">
      <g>
       <use xlink:href="#m08ad478b34" x="379.342171" y="242.124" style="stroke: #000000; stroke-width: 1.5"/>
      </g>
     </g>
     <g id="line2d_84">
      <g>
       <use xlink:href="#mc6791316ea" x="379.342171" y="10.8" style="stroke: #000000; stroke-width: 1.5"/>
      </g>
     </g>
    </g>
    <g id="xtick_40">
     <g id="line2d_85">
      <g>
       <use xlink:href="#m08ad478b34" x="387.881338" y="242.124" style="stroke: #000000; stroke-width: 1.5"/>
      </g>
     </g>
     <g id="line2d_86">
      <g>
       <use xlink:href="#mc6791316ea" x="387.881338" y="10.8" style="stroke: #000000; stroke-width: 1.5"/>
      </g>
     </g>
    </g>
    <g id="xtick_41">
     <g id="line2d_87">
      <g>
       <use xlink:href="#m08ad478b34" x="396.420504" y="242.124" style="stroke: #000000; stroke-width: 1.5"/>
      </g>
     </g>
     <g id="line2d_88">
      <g>
       <use xlink:href="#mc6791316ea" x="396.420504" y="10.8" style="stroke: #000000; stroke-width: 1.5"/>
      </g>
     </g>
    </g>
    <g id="xtick_42">
     <g id="line2d_89">
      <g>
       <use xlink:href="#m08ad478b34" x="413.498837" y="242.124" style="stroke: #000000; stroke-width: 1.5"/>
      </g>
     </g>
     <g id="line2d_90">
      <g>
       <use xlink:href="#mc6791316ea" x="413.498837" y="10.8" style="stroke: #000000; stroke-width: 1.5"/>
      </g>
     </g>
    </g>
    <g id="text_13">
     <!-- Distance [R$_\odot$] -->
     <g transform="translate(197.211 270.355875) scale(0.12 -0.12)">
      <defs>
       <path id="DejaVuSans-44" d="M 1259 4147 
L 1259 519 
L 2022 519 
Q 2988 519 3436 956 
Q 3884 1394 3884 2338 
Q 3884 3275 3436 3711 
Q 2988 4147 2022 4147 
L 1259 4147 
z
M 628 4666 
L 1925 4666 
Q 3281 4666 3915 4102 
Q 4550 3538 4550 2338 
Q 4550 1131 3912 565 
Q 3275 0 1925 0 
L 628 0 
L 628 4666 
z
" transform="scale(0.015625)"/>
       <path id="DejaVuSans-63" d="M 3122 3366 
L 3122 2828 
Q 2878 2963 2633 3030 
Q 2388 3097 2138 3097 
Q 1578 3097 1268 2742 
Q 959 2388 959 1747 
Q 959 1106 1268 751 
Q 1578 397 2138 397 
Q 2388 397 2633 464 
Q 2878 531 3122 666 
L 3122 134 
Q 2881 22 2623 -34 
Q 2366 -91 2075 -91 
Q 1284 -91 818 406 
Q 353 903 353 1747 
Q 353 2603 823 3093 
Q 1294 3584 2113 3584 
Q 2378 3584 2631 3529 
Q 2884 3475 3122 3366 
z
" transform="scale(0.015625)"/>
       <path id="DejaVuSans-65" d="M 3597 1894 
L 3597 1613 
L 953 1613 
Q 991 1019 1311 708 
Q 1631 397 2203 397 
Q 2534 397 2845 478 
Q 3156 559 3463 722 
L 3463 178 
Q 3153 47 2828 -22 
Q 2503 -91 2169 -91 
Q 1331 -91 842 396 
Q 353 884 353 1716 
Q 353 2575 817 3079 
Q 1281 3584 2069 3584 
Q 2775 3584 3186 3129 
Q 3597 2675 3597 1894 
z
M 3022 2063 
Q 3016 2534 2758 2815 
Q 2500 3097 2075 3097 
Q 1594 3097 1305 2825 
Q 1016 2553 972 2059 
L 3022 2063 
z
" transform="scale(0.015625)"/>
       <path id="DejaVuSans-5b" d="M 550 4863 
L 1875 4863 
L 1875 4416 
L 1125 4416 
L 1125 -397 
L 1875 -397 
L 1875 -844 
L 550 -844 
L 550 4863 
z
" transform="scale(0.015625)"/>
       <path id="DejaVuSans-52" d="M 2841 2188 
Q 3044 2119 3236 1894 
Q 3428 1669 3622 1275 
L 4263 0 
L 3584 0 
L 2988 1197 
Q 2756 1666 2539 1819 
Q 2322 1972 1947 1972 
L 1259 1972 
L 1259 0 
L 628 0 
L 628 4666 
L 2053 4666 
Q 2853 4666 3247 4331 
Q 3641 3997 3641 3322 
Q 3641 2881 3436 2590 
Q 3231 2300 2841 2188 
z
M 1259 4147 
L 1259 2491 
L 2053 2491 
Q 2509 2491 2742 2702 
Q 2975 2913 2975 3322 
Q 2975 3731 2742 3939 
Q 2509 4147 2053 4147 
L 1259 4147 
z
" transform="scale(0.015625)"/>
       <path id="DejaVuSans-2299" d="M 2350 2403 
L 3013 2403 
L 3013 1609 
L 2350 1609 
L 2350 2403 
z
M 3306 3522 
Q 3016 3644 2681 3644 
Q 2347 3644 2056 3522 
Q 1769 3400 1531 3163 
Q 1291 2922 1172 2634 
Q 1053 2347 1053 2006 
Q 1053 1675 1172 1387 
Q 1291 1100 1531 859 
Q 1769 622 2056 500 
Q 2347 378 2681 378 
Q 3016 378 3306 500 
Q 3594 622 3831 859 
Q 4072 1100 4190 1387 
Q 4309 1675 4309 2006 
Q 4309 2347 4190 2634 
Q 4072 2922 3831 3163 
Q 3594 3400 3306 3522 
z
M 1878 3956 
Q 2250 4113 2681 4113 
Q 3113 4113 3484 3956 
Q 3856 3800 4163 3494 
Q 4472 3184 4625 2813 
Q 4778 2444 4778 2006 
Q 4778 1578 4625 1206 
Q 4472 838 4163 528 
Q 3856 222 3484 65 
Q 3113 -91 2681 -91 
Q 2250 -91 1878 65 
Q 1506 222 1200 528 
Q 891 838 738 1206 
Q 584 1578 584 2006 
Q 584 2444 738 2813 
Q 891 3184 1200 3494 
Q 1506 3800 1878 3956 
z
" transform="scale(0.015625)"/>
       <path id="DejaVuSans-5d" d="M 1947 4863 
L 1947 -844 
L 622 -844 
L 622 -397 
L 1369 -397 
L 1369 4416 
L 622 4416 
L 622 4863 
L 1947 4863 
z
" transform="scale(0.015625)"/>
      </defs>
      <use xlink:href="#DejaVuSans-44" transform="translate(0 0.015625)"/>
      <use xlink:href="#DejaVuSans-69" transform="translate(77.001953 0.015625)"/>
      <use xlink:href="#DejaVuSans-73" transform="translate(104.785156 0.015625)"/>
      <use xlink:href="#DejaVuSans-74" transform="translate(156.884766 0.015625)"/>
      <use xlink:href="#DejaVuSans-61" transform="translate(196.09375 0.015625)"/>
      <use xlink:href="#DejaVuSans-6e" transform="translate(257.373047 0.015625)"/>
      <use xlink:href="#DejaVuSans-63" transform="translate(320.751953 0.015625)"/>
      <use xlink:href="#DejaVuSans-65" transform="translate(375.732422 0.015625)"/>
      <use xlink:href="#DejaVuSans-20" transform="translate(437.255859 0.015625)"/>
      <use xlink:href="#DejaVuSans-5b" transform="translate(469.042969 0.015625)"/>
      <use xlink:href="#DejaVuSans-52" transform="translate(504.931641 0.015625)"/>
      <use xlink:href="#DejaVuSans-2299" transform="translate(589.008789 -16.390625) scale(0.7)"/>
      <use xlink:href="#DejaVuSans-5d" transform="translate(664.033203 0.015625)"/>
     </g>
    </g>
   </g>
   <g id="matplotlib.axis_2">
    <g id="ytick_1">
     <g id="line2d_91">
      <defs>
       <path id="mddbbbc1c40" d="M 0 0 
L 3.5 0 
" style="stroke: #000000; stroke-width: 1.5"/>
      </defs>
      <g>
       <use xlink:href="#mddbbbc1c40" x="57.702" y="230.507919" style="stroke: #000000; stroke-width: 1.5"/>
      </g>
     </g>
     <g id="line2d_92">
      <defs>
       <path id="mec32a51819" d="M 0 0 
L -3.5 0 
" style="stroke: #000000; stroke-width: 1.5"/>
      </defs>
      <g>
       <use xlink:href="#mec32a51819" x="421.2" y="230.507919" style="stroke: #000000; stroke-width: 1.5"/>
      </g>
     </g>
     <g id="text_14">
      <!-- 0 -->
      <g transform="translate(46.567 235.066981) scale(0.12 -0.12)">
       <use xlink:href="#DejaVuSans-30"/>
      </g>
     </g>
    </g>
    <g id="ytick_2">
     <g id="line2d_93">
      <g>
       <use xlink:href="#mddbbbc1c40" x="57.702" y="198.407991" style="stroke: #000000; stroke-width: 1.5"/>
      </g>
     </g>
     <g id="line2d_94">
      <g>
       <use xlink:href="#mec32a51819" x="421.2" y="198.407991" style="stroke: #000000; stroke-width: 1.5"/>
      </g>
     </g>
     <g id="text_15">
      <!-- 100 -->
      <g transform="translate(31.297 202.967054) scale(0.12 -0.12)">
       <use xlink:href="#DejaVuSans-31"/>
       <use xlink:href="#DejaVuSans-30" x="63.623047"/>
       <use xlink:href="#DejaVuSans-30" x="127.246094"/>
      </g>
     </g>
    </g>
    <g id="ytick_3">
     <g id="line2d_95">
      <g>
       <use xlink:href="#mddbbbc1c40" x="57.702" y="166.308064" style="stroke: #000000; stroke-width: 1.5"/>
      </g>
     </g>
     <g id="line2d_96">
      <g>
       <use xlink:href="#mec32a51819" x="421.2" y="166.308064" style="stroke: #000000; stroke-width: 1.5"/>
      </g>
     </g>
     <g id="text_16">
      <!-- 200 -->
      <g transform="translate(31.297 170.867127) scale(0.12 -0.12)">
       <use xlink:href="#DejaVuSans-32"/>
       <use xlink:href="#DejaVuSans-30" x="63.623047"/>
       <use xlink:href="#DejaVuSans-30" x="127.246094"/>
      </g>
     </g>
    </g>
    <g id="ytick_4">
     <g id="line2d_97">
      <g>
       <use xlink:href="#mddbbbc1c40" x="57.702" y="134.208137" style="stroke: #000000; stroke-width: 1.5"/>
      </g>
     </g>
     <g id="line2d_98">
      <g>
       <use xlink:href="#mec32a51819" x="421.2" y="134.208137" style="stroke: #000000; stroke-width: 1.5"/>
      </g>
     </g>
     <g id="text_17">
      <!-- 300 -->
      <g transform="translate(31.297 138.767199) scale(0.12 -0.12)">
       <use xlink:href="#DejaVuSans-33"/>
       <use xlink:href="#DejaVuSans-30" x="63.623047"/>
       <use xlink:href="#DejaVuSans-30" x="127.246094"/>
      </g>
     </g>
    </g>
    <g id="ytick_5">
     <g id="line2d_99">
      <g>
       <use xlink:href="#mddbbbc1c40" x="57.702" y="102.108209" style="stroke: #000000; stroke-width: 1.5"/>
      </g>
     </g>
     <g id="line2d_100">
      <g>
       <use xlink:href="#mec32a51819" x="421.2" y="102.108209" style="stroke: #000000; stroke-width: 1.5"/>
      </g>
     </g>
     <g id="text_18">
      <!-- 400 -->
      <g transform="translate(31.297 106.667272) scale(0.12 -0.12)">
       <use xlink:href="#DejaVuSans-34"/>
       <use xlink:href="#DejaVuSans-30" x="63.623047"/>
       <use xlink:href="#DejaVuSans-30" x="127.246094"/>
      </g>
     </g>
    </g>
    <g id="ytick_6">
     <g id="line2d_101">
      <g>
       <use xlink:href="#mddbbbc1c40" x="57.702" y="70.008282" style="stroke: #000000; stroke-width: 1.5"/>
      </g>
     </g>
     <g id="line2d_102">
      <g>
       <use xlink:href="#mec32a51819" x="421.2" y="70.008282" style="stroke: #000000; stroke-width: 1.5"/>
      </g>
     </g>
     <g id="text_19">
      <!-- 500 -->
      <g transform="translate(31.297 74.567344) scale(0.12 -0.12)">
       <use xlink:href="#DejaVuSans-35"/>
       <use xlink:href="#DejaVuSans-30" x="63.623047"/>
       <use xlink:href="#DejaVuSans-30" x="127.246094"/>
      </g>
     </g>
    </g>
    <g id="ytick_7">
     <g id="line2d_103">
      <g>
       <use xlink:href="#mddbbbc1c40" x="57.702" y="37.908354" style="stroke: #000000; stroke-width: 1.5"/>
      </g>
     </g>
     <g id="line2d_104">
      <g>
       <use xlink:href="#mec32a51819" x="421.2" y="37.908354" style="stroke: #000000; stroke-width: 1.5"/>
      </g>
     </g>
     <g id="text_20">
      <!-- 600 -->
      <g transform="translate(31.297 42.467417) scale(0.12 -0.12)">
       <defs>
        <path id="DejaVuSans-36" d="M 2113 2584 
Q 1688 2584 1439 2293 
Q 1191 2003 1191 1497 
Q 1191 994 1439 701 
Q 1688 409 2113 409 
Q 2538 409 2786 701 
Q 3034 994 3034 1497 
Q 3034 2003 2786 2293 
Q 2538 2584 2113 2584 
z
M 3366 4563 
L 3366 3988 
Q 3128 4100 2886 4159 
Q 2644 4219 2406 4219 
Q 1781 4219 1451 3797 
Q 1122 3375 1075 2522 
Q 1259 2794 1537 2939 
Q 1816 3084 2150 3084 
Q 2853 3084 3261 2657 
Q 3669 2231 3669 1497 
Q 3669 778 3244 343 
Q 2819 -91 2113 -91 
Q 1303 -91 875 529 
Q 447 1150 447 2328 
Q 447 3434 972 4092 
Q 1497 4750 2381 4750 
Q 2619 4750 2861 4703 
Q 3103 4656 3366 4563 
z
" transform="scale(0.015625)"/>
       </defs>
       <use xlink:href="#DejaVuSans-36"/>
       <use xlink:href="#DejaVuSans-30" x="63.623047"/>
       <use xlink:href="#DejaVuSans-30" x="127.246094"/>
      </g>
     </g>
    </g>
    <g id="ytick_8">
     <g id="line2d_105">
      <defs>
       <path id="m26fad73c9d" d="M 0 0 
L 2 0 
" style="stroke: #000000; stroke-width: 1.5"/>
      </defs>
      <g>
       <use xlink:href="#m26fad73c9d" x="57.702" y="236.927904" style="stroke: #000000; stroke-width: 1.5"/>
      </g>
     </g>
     <g id="line2d_106">
      <defs>
       <path id="m3c218ccbab" d="M 0 0 
L -2 0 
" style="stroke: #000000; stroke-width: 1.5"/>
      </defs>
      <g>
       <use xlink:href="#m3c218ccbab" x="421.2" y="236.927904" style="stroke: #000000; stroke-width: 1.5"/>
      </g>
     </g>
    </g>
    <g id="ytick_9">
     <g id="line2d_107">
      <g>
       <use xlink:href="#m26fad73c9d" x="57.702" y="224.087933" style="stroke: #000000; stroke-width: 1.5"/>
      </g>
     </g>
     <g id="line2d_108">
      <g>
       <use xlink:href="#m3c218ccbab" x="421.2" y="224.087933" style="stroke: #000000; stroke-width: 1.5"/>
      </g>
     </g>
    </g>
    <g id="ytick_10">
     <g id="line2d_109">
      <g>
       <use xlink:href="#m26fad73c9d" x="57.702" y="217.667948" style="stroke: #000000; stroke-width: 1.5"/>
      </g>
     </g>
     <g id="line2d_110">
      <g>
       <use xlink:href="#m3c218ccbab" x="421.2" y="217.667948" style="stroke: #000000; stroke-width: 1.5"/>
      </g>
     </g>
    </g>
    <g id="ytick_11">
     <g id="line2d_111">
      <g>
       <use xlink:href="#m26fad73c9d" x="57.702" y="211.247962" style="stroke: #000000; stroke-width: 1.5"/>
      </g>
     </g>
     <g id="line2d_112">
      <g>
       <use xlink:href="#m3c218ccbab" x="421.2" y="211.247962" style="stroke: #000000; stroke-width: 1.5"/>
      </g>
     </g>
    </g>
    <g id="ytick_12">
     <g id="line2d_113">
      <g>
       <use xlink:href="#m26fad73c9d" x="57.702" y="204.827977" style="stroke: #000000; stroke-width: 1.5"/>
      </g>
     </g>
     <g id="line2d_114">
      <g>
       <use xlink:href="#m3c218ccbab" x="421.2" y="204.827977" style="stroke: #000000; stroke-width: 1.5"/>
      </g>
     </g>
    </g>
    <g id="ytick_13">
     <g id="line2d_115">
      <g>
       <use xlink:href="#m26fad73c9d" x="57.702" y="191.988006" style="stroke: #000000; stroke-width: 1.5"/>
      </g>
     </g>
     <g id="line2d_116">
      <g>
       <use xlink:href="#m3c218ccbab" x="421.2" y="191.988006" style="stroke: #000000; stroke-width: 1.5"/>
      </g>
     </g>
    </g>
    <g id="ytick_14">
     <g id="line2d_117">
      <g>
       <use xlink:href="#m26fad73c9d" x="57.702" y="185.568021" style="stroke: #000000; stroke-width: 1.5"/>
      </g>
     </g>
     <g id="line2d_118">
      <g>
       <use xlink:href="#m3c218ccbab" x="421.2" y="185.568021" style="stroke: #000000; stroke-width: 1.5"/>
      </g>
     </g>
    </g>
    <g id="ytick_15">
     <g id="line2d_119">
      <g>
       <use xlink:href="#m26fad73c9d" x="57.702" y="179.148035" style="stroke: #000000; stroke-width: 1.5"/>
      </g>
     </g>
     <g id="line2d_120">
      <g>
       <use xlink:href="#m3c218ccbab" x="421.2" y="179.148035" style="stroke: #000000; stroke-width: 1.5"/>
      </g>
     </g>
    </g>
    <g id="ytick_16">
     <g id="line2d_121">
      <g>
       <use xlink:href="#m26fad73c9d" x="57.702" y="172.72805" style="stroke: #000000; stroke-width: 1.5"/>
      </g>
     </g>
     <g id="line2d_122">
      <g>
       <use xlink:href="#m3c218ccbab" x="421.2" y="172.72805" style="stroke: #000000; stroke-width: 1.5"/>
      </g>
     </g>
    </g>
    <g id="ytick_17">
     <g id="line2d_123">
      <g>
       <use xlink:href="#m26fad73c9d" x="57.702" y="159.888079" style="stroke: #000000; stroke-width: 1.5"/>
      </g>
     </g>
     <g id="line2d_124">
      <g>
       <use xlink:href="#m3c218ccbab" x="421.2" y="159.888079" style="stroke: #000000; stroke-width: 1.5"/>
      </g>
     </g>
    </g>
    <g id="ytick_18">
     <g id="line2d_125">
      <g>
       <use xlink:href="#m26fad73c9d" x="57.702" y="153.468093" style="stroke: #000000; stroke-width: 1.5"/>
      </g>
     </g>
     <g id="line2d_126">
      <g>
       <use xlink:href="#m3c218ccbab" x="421.2" y="153.468093" style="stroke: #000000; stroke-width: 1.5"/>
      </g>
     </g>
    </g>
    <g id="ytick_19">
     <g id="line2d_127">
      <g>
       <use xlink:href="#m26fad73c9d" x="57.702" y="147.048108" style="stroke: #000000; stroke-width: 1.5"/>
      </g>
     </g>
     <g id="line2d_128">
      <g>
       <use xlink:href="#m3c218ccbab" x="421.2" y="147.048108" style="stroke: #000000; stroke-width: 1.5"/>
      </g>
     </g>
    </g>
    <g id="ytick_20">
     <g id="line2d_129">
      <g>
       <use xlink:href="#m26fad73c9d" x="57.702" y="140.628122" style="stroke: #000000; stroke-width: 1.5"/>
      </g>
     </g>
     <g id="line2d_130">
      <g>
       <use xlink:href="#m3c218ccbab" x="421.2" y="140.628122" style="stroke: #000000; stroke-width: 1.5"/>
      </g>
     </g>
    </g>
    <g id="ytick_21">
     <g id="line2d_131">
      <g>
       <use xlink:href="#m26fad73c9d" x="57.702" y="127.788151" style="stroke: #000000; stroke-width: 1.5"/>
      </g>
     </g>
     <g id="line2d_132">
      <g>
       <use xlink:href="#m3c218ccbab" x="421.2" y="127.788151" style="stroke: #000000; stroke-width: 1.5"/>
      </g>
     </g>
    </g>
    <g id="ytick_22">
     <g id="line2d_133">
      <g>
       <use xlink:href="#m26fad73c9d" x="57.702" y="121.368166" style="stroke: #000000; stroke-width: 1.5"/>
      </g>
     </g>
     <g id="line2d_134">
      <g>
       <use xlink:href="#m3c218ccbab" x="421.2" y="121.368166" style="stroke: #000000; stroke-width: 1.5"/>
      </g>
     </g>
    </g>
    <g id="ytick_23">
     <g id="line2d_135">
      <g>
       <use xlink:href="#m26fad73c9d" x="57.702" y="114.94818" style="stroke: #000000; stroke-width: 1.5"/>
      </g>
     </g>
     <g id="line2d_136">
      <g>
       <use xlink:href="#m3c218ccbab" x="421.2" y="114.94818" style="stroke: #000000; stroke-width: 1.5"/>
      </g>
     </g>
    </g>
    <g id="ytick_24">
     <g id="line2d_137">
      <g>
       <use xlink:href="#m26fad73c9d" x="57.702" y="108.528195" style="stroke: #000000; stroke-width: 1.5"/>
      </g>
     </g>
     <g id="line2d_138">
      <g>
       <use xlink:href="#m3c218ccbab" x="421.2" y="108.528195" style="stroke: #000000; stroke-width: 1.5"/>
      </g>
     </g>
    </g>
    <g id="ytick_25">
     <g id="line2d_139">
      <g>
       <use xlink:href="#m26fad73c9d" x="57.702" y="95.688224" style="stroke: #000000; stroke-width: 1.5"/>
      </g>
     </g>
     <g id="line2d_140">
      <g>
       <use xlink:href="#m3c218ccbab" x="421.2" y="95.688224" style="stroke: #000000; stroke-width: 1.5"/>
      </g>
     </g>
    </g>
    <g id="ytick_26">
     <g id="line2d_141">
      <g>
       <use xlink:href="#m26fad73c9d" x="57.702" y="89.268238" style="stroke: #000000; stroke-width: 1.5"/>
      </g>
     </g>
     <g id="line2d_142">
      <g>
       <use xlink:href="#m3c218ccbab" x="421.2" y="89.268238" style="stroke: #000000; stroke-width: 1.5"/>
      </g>
     </g>
    </g>
    <g id="ytick_27">
     <g id="line2d_143">
      <g>
       <use xlink:href="#m26fad73c9d" x="57.702" y="82.848253" style="stroke: #000000; stroke-width: 1.5"/>
      </g>
     </g>
     <g id="line2d_144">
      <g>
       <use xlink:href="#m3c218ccbab" x="421.2" y="82.848253" style="stroke: #000000; stroke-width: 1.5"/>
      </g>
     </g>
    </g>
    <g id="ytick_28">
     <g id="line2d_145">
      <g>
       <use xlink:href="#m26fad73c9d" x="57.702" y="76.428267" style="stroke: #000000; stroke-width: 1.5"/>
      </g>
     </g>
     <g id="line2d_146">
      <g>
       <use xlink:href="#m3c218ccbab" x="421.2" y="76.428267" style="stroke: #000000; stroke-width: 1.5"/>
      </g>
     </g>
    </g>
    <g id="ytick_29">
     <g id="line2d_147">
      <g>
       <use xlink:href="#m26fad73c9d" x="57.702" y="63.588296" style="stroke: #000000; stroke-width: 1.5"/>
      </g>
     </g>
     <g id="line2d_148">
      <g>
       <use xlink:href="#m3c218ccbab" x="421.2" y="63.588296" style="stroke: #000000; stroke-width: 1.5"/>
      </g>
     </g>
    </g>
    <g id="ytick_30">
     <g id="line2d_149">
      <g>
       <use xlink:href="#m26fad73c9d" x="57.702" y="57.168311" style="stroke: #000000; stroke-width: 1.5"/>
      </g>
     </g>
     <g id="line2d_150">
      <g>
       <use xlink:href="#m3c218ccbab" x="421.2" y="57.168311" style="stroke: #000000; stroke-width: 1.5"/>
      </g>
     </g>
    </g>
    <g id="ytick_31">
     <g id="line2d_151">
      <g>
       <use xlink:href="#m26fad73c9d" x="57.702" y="50.748325" style="stroke: #000000; stroke-width: 1.5"/>
      </g>
     </g>
     <g id="line2d_152">
      <g>
       <use xlink:href="#m3c218ccbab" x="421.2" y="50.748325" style="stroke: #000000; stroke-width: 1.5"/>
      </g>
     </g>
    </g>
    <g id="ytick_32">
     <g id="line2d_153">
      <g>
       <use xlink:href="#m26fad73c9d" x="57.702" y="44.32834" style="stroke: #000000; stroke-width: 1.5"/>
      </g>
     </g>
     <g id="line2d_154">
      <g>
       <use xlink:href="#m3c218ccbab" x="421.2" y="44.32834" style="stroke: #000000; stroke-width: 1.5"/>
      </g>
     </g>
    </g>
    <g id="ytick_33">
     <g id="line2d_155">
      <g>
       <use xlink:href="#m26fad73c9d" x="57.702" y="31.488369" style="stroke: #000000; stroke-width: 1.5"/>
      </g>
     </g>
     <g id="line2d_156">
      <g>
       <use xlink:href="#m3c218ccbab" x="421.2" y="31.488369" style="stroke: #000000; stroke-width: 1.5"/>
      </g>
     </g>
    </g>
    <g id="ytick_34">
     <g id="line2d_157">
      <g>
       <use xlink:href="#m26fad73c9d" x="57.702" y="25.068383" style="stroke: #000000; stroke-width: 1.5"/>
      </g>
     </g>
     <g id="line2d_158">
      <g>
       <use xlink:href="#m3c218ccbab" x="421.2" y="25.068383" style="stroke: #000000; stroke-width: 1.5"/>
      </g>
     </g>
    </g>
    <g id="ytick_35">
     <g id="line2d_159">
      <g>
       <use xlink:href="#m26fad73c9d" x="57.702" y="18.648398" style="stroke: #000000; stroke-width: 1.5"/>
      </g>
     </g>
     <g id="line2d_160">
      <g>
       <use xlink:href="#m3c218ccbab" x="421.2" y="18.648398" style="stroke: #000000; stroke-width: 1.5"/>
      </g>
     </g>
    </g>
    <g id="ytick_36">
     <g id="line2d_161">
      <g>
       <use xlink:href="#m26fad73c9d" x="57.702" y="12.228412" style="stroke: #000000; stroke-width: 1.5"/>
      </g>
     </g>
     <g id="line2d_162">
      <g>
       <use xlink:href="#m3c218ccbab" x="421.2" y="12.228412" style="stroke: #000000; stroke-width: 1.5"/>
      </g>
     </g>
    </g>
    <g id="text_21">
     <!-- $v_r$ [km s$^{-1}$] -->
     <g transform="translate(24.801375 159.282) rotate(-90) scale(0.12 -0.12)">
      <defs>
       <path id="DejaVuSans-Oblique-76" d="M 459 3500 
L 1069 3500 
L 1581 525 
L 3256 3500 
L 3866 3500 
L 1875 0 
L 1100 0 
L 459 3500 
z
" transform="scale(0.015625)"/>
       <path id="DejaVuSans-Oblique-72" d="M 2853 2969 
Q 2766 3016 2653 3041 
Q 2541 3066 2413 3066 
Q 1953 3066 1609 2717 
Q 1266 2369 1153 1784 
L 800 0 
L 225 0 
L 909 3500 
L 1484 3500 
L 1375 2956 
Q 1603 3259 1920 3421 
Q 2238 3584 2597 3584 
Q 2691 3584 2781 3573 
Q 2872 3563 2963 3538 
L 2853 2969 
z
" transform="scale(0.015625)"/>
       <path id="DejaVuSans-6b" d="M 581 4863 
L 1159 4863 
L 1159 1991 
L 2875 3500 
L 3609 3500 
L 1753 1863 
L 3688 0 
L 2938 0 
L 1159 1709 
L 1159 0 
L 581 0 
L 581 4863 
z
" transform="scale(0.015625)"/>
       <path id="DejaVuSans-6d" d="M 3328 2828 
Q 3544 3216 3844 3400 
Q 4144 3584 4550 3584 
Q 5097 3584 5394 3201 
Q 5691 2819 5691 2113 
L 5691 0 
L 5113 0 
L 5113 2094 
Q 5113 2597 4934 2840 
Q 4756 3084 4391 3084 
Q 3944 3084 3684 2787 
Q 3425 2491 3425 1978 
L 3425 0 
L 2847 0 
L 2847 2094 
Q 2847 2600 2669 2842 
Q 2491 3084 2119 3084 
Q 1678 3084 1418 2786 
Q 1159 2488 1159 1978 
L 1159 0 
L 581 0 
L 581 3500 
L 1159 3500 
L 1159 2956 
Q 1356 3278 1631 3431 
Q 1906 3584 2284 3584 
Q 2666 3584 2933 3390 
Q 3200 3197 3328 2828 
z
" transform="scale(0.015625)"/>
       <path id="DejaVuSans-2212" d="M 678 2272 
L 4684 2272 
L 4684 1741 
L 678 1741 
L 678 2272 
z
" transform="scale(0.015625)"/>
      </defs>
      <use xlink:href="#DejaVuSans-Oblique-76" transform="translate(0 0.684375)"/>
      <use xlink:href="#DejaVuSans-Oblique-72" transform="translate(59.179688 -15.721875) scale(0.7)"/>
      <use xlink:href="#DejaVuSans-20" transform="translate(90.693359 0.684375)"/>
      <use xlink:href="#DejaVuSans-5b" transform="translate(122.480469 0.684375)"/>
      <use xlink:href="#DejaVuSans-6b" transform="translate(161.494141 0.684375)"/>
      <use xlink:href="#DejaVuSans-6d" transform="translate(219.404297 0.684375)"/>
      <use xlink:href="#DejaVuSans-20" transform="translate(316.816406 0.684375)"/>
      <use xlink:href="#DejaVuSans-73" transform="translate(348.603516 0.684375)"/>
      <use xlink:href="#DejaVuSans-2212" transform="translate(401.660156 38.965625) scale(0.7)"/>
      <use xlink:href="#DejaVuSans-31" transform="translate(460.3125 38.965625) scale(0.7)"/>
      <use xlink:href="#DejaVuSans-5d" transform="translate(507.583008 0.684375)"/>
     </g>
    </g>
   </g>
  </g>
 </g>
 <defs>
  <clipPath id="p9eb5cf836e">
   <rect x="57.702" y="10.8" width="363.498" height="231.324"/>
  </clipPath>
 </defs>
</svg>
