<?xml version="1.0" encoding="utf-8" standalone="no"?>
<!DOCTYPE svg PUBLIC "-//W3C//DTD SVG 1.1//EN"
  "http://www.w3.org/Graphics/SVG/1.1/DTD/svg11.dtd">
<svg xmlns:xlink="http://www.w3.org/1999/xlink" width="432pt" height="288pt" viewBox="0 0 432 288" xmlns="http://www.w3.org/2000/svg" version="1.1">
 <metadata>
  <rdf:RDF xmlns:dc="http://purl.org/dc/elements/1.1/" xmlns:cc="http://creativecommons.org/ns#" xmlns:rdf="http://www.w3.org/1999/02/22-rdf-syntax-ns#">
   <cc:Work>
    <dc:type rdf:resource="http://purl.org/dc/dcmitype/StillImage"/>
    <dc:date>2022-11-23T14:47:58.143391</dc:date>
    <dc:format>image/svg+xml</dc:format>
    <dc:creator>
     <cc:Agent>
      <dc:title>Matplotlib v3.6.2, https://matplotlib.org/</dc:title>
     </cc:Agent>
    </dc:creator>
   </cc:Work>
  </rdf:RDF>
 </metadata>
 <defs>
  <style type="text/css">*{stroke-linejoin: round; stroke-linecap: butt}</style>
 </defs>
 <g id="figure_1">
  <g id="patch_1">
   <path d="M 0 288 
L 432 288 
L 432 0 
L 0 0 
z
" style="fill: #ffffff"/>
  </g>
  <g id="axes_1">
   <g id="patch_2">
    <path d="M 57.702 242.124 
L 421.2 242.124 
L 421.2 10.8 
L 57.702 10.8 
z
" style="fill: #ffffff"/>
   </g>
   <g id="patch_3">
    <path d="M 57.702 242.124 
L 57.702 10.8 
" style="fill: none; stroke: #000000; stroke-width: 1.5; stroke-linejoin: miter; stroke-linecap: square"/>
   </g>
   <g id="patch_4">
    <path d="M 421.2 242.124 
L 421.2 10.8 
" style="fill: none; stroke: #000000; stroke-width: 1.5; stroke-linejoin: miter; stroke-linecap: square"/>
   </g>
   <g id="patch_5">
    <path d="M 57.702 242.124 
L 421.2 242.124 
" style="fill: none; stroke: #000000; stroke-width: 1.5; stroke-linejoin: miter; stroke-linecap: square"/>
   </g>
   <g id="patch_6">
    <path d="M 57.702 10.8 
L 421.2 10.8 
" style="fill: none; stroke: #000000; stroke-width: 1.5; stroke-linejoin: miter; stroke-linecap: square"/>
   </g>
   <g id="PolyCollection_1">
    <defs>
     <path id="m77c1b54bd9" d="M 228.662264 -150.881015 
L 228.662264 -147.680799 
L 239.829446 -149.812859 
L 240.595194 -148.844878 
L 262.352562 -144.70991 
L 263.867072 -144.979326 
L 263.915551 -145.180461 
L 264.976008 -142.87171 
L 265.838136 -141.600604 
L 266.599014 -147.401806 
L 268.072956 -128.303768 
L 268.344769 -129.30032 
L 277.274311 -137.01941 
L 277.919579 -129.417816 
L 278.810392 -156.503863 
L 280.011429 -165.372273 
L 280.701435 -161.659105 
L 281.396519 -164.363154 
L 282.244605 -167.466136 
L 283.098602 -167.291453 
L 283.980389 -154.626604 
L 284.770174 -149.685163 
L 285.653751 -170.846508 
L 286.507503 -173.245943 
L 287.377124 -171.6372 
L 288.245102 -172.016511 
L 289.060591 -172.85173 
L 289.907426 -172.190941 
L 291.030809 -175.764177 
L 291.629083 -175.827653 
L 292.462894 -176.920409 
L 293.406465 -161.812745 
L 294.208243 -169.385431 
L 295.097315 -160.294971 
L 295.896714 -171.744641 
L 296.707984 -175.268142 
L 297.479471 -185.194785 
L 298.462336 -180.591261 
L 299.372501 -141.887957 
L 300.212002 -139.426059 
L 301.053417 -145.492203 
L 301.828362 -146.210907 
L 302.651602 -154.406392 
L 303.57977 -171.111126 
L 304.429941 -174.192822 
L 305.27398 -176.650938 
L 306.119614 -154.722924 
L 307.061983 -151.591258 
L 307.820986 -149.872775 
L 308.719549 -154.208265 
L 309.550123 -151.453989 
L 310.383934 -150.37446 
L 311.268517 -155.763881 
L 312.120773 -158.62298 
L 312.927211 -159.523292 
L 313.806104 -158.426497 
L 314.639915 -171.83298 
L 315.509879 -180.797574 
L 316.36292 -168.037215 
L 317.221896 -165.818312 
L 318.097331 -170.411518 
L 318.914806 -170.403824 
L 319.759434 -171.481425 
L 320.640412 -169.217731 
L 321.477828 -174.391817 
L 322.345217 -180.612553 
L 323.186828 -175.338637 
L 324.045167 -170.045372 
L 324.841255 -189.088302 
L 325.570873 -180.686509 
L 326.737547 -155.430185 
L 327.465792 -157.497129 
L 328.28805 -168.639138 
L 329.167679 -164.793939 
L 330.077108 -168.084577 
L 330.857915 -156.939297 
L 331.720105 -161.530926 
L 332.586783 -158.92475 
L 333.423071 -157.911708 
L 334.260169 -153.540012 
L 335.15498 -150.630944 
L 335.988006 -150.446137 
L 336.842739 -148.035228 
L 337.694431 -140.149345 
L 338.551101 -142.424742 
L 339.434237 -145.240756 
L 340.270158 -139.715792 
L 341.11015 -154.902726 
L 341.963019 -153.644104 
L 342.847037 -146.625683 
L 343.666672 -144.188338 
L 344.511937 -145.640603 
L 345.356197 -141.566438 
L 346.228786 -145.737827 
L 347.077485 -147.678504 
L 347.963344 -146.195412 
L 348.806402 -145.046156 
L 349.664863 -146.391724 
L 350.469315 -145.002655 
L 351.339966 -146.721406 
L 352.194454 -146.957512 
L 353.052645 -146.608618 
L 353.915791 -151.028036 
L 354.768243 -141.020033 
L 355.608897 -140.716379 
L 356.489973 -140.884818 
L 357.371171 -151.694185 
L 358.180308 -162.037144 
L 359.028271 -157.524445 
L 359.887615 -159.925363 
L 360.672617 -161.364611 
L 361.622001 -159.063136 
L 362.42324 -154.620002 
L 363.277875 -157.450543 
L 364.1395 -156.447899 
L 365.0232 -154.834776 
L 365.855319 -159.09729 
L 366.665804 -147.415397 
L 367.552791 -137.743711 
L 368.417188 -144.693138 
L 369.22939 -148.907515 
L 370.125477 -151.124017 
L 370.959337 -148.57465 
L 371.832932 -148.281889 
L 372.714007 -150.164856 
L 373.524664 -146.471127 
L 374.414521 -151.943003 
L 375.213944 -151.152863 
L 376.109663 -163.033914 
L 376.97249 -156.286804 
L 377.77 -153.880317 
L 378.604253 -153.928107 
L 379.518293 -156.208726 
L 380.258312 -152.115704 
L 381.272718 -157.714054 
L 382.065593 -157.553444 
L 383.039481 -142.200522 
L 383.781584 -143.101465 
L 384.625991 -142.086004 
L 385.473905 -146.436106 
L 386.327142 -146.369975 
L 387.201325 -150.154188 
L 388.058486 -153.753278 
L 388.910521 -150.549008 
L 389.731186 -157.542585 
L 390.564286 -155.46809 
L 391.472194 -156.767116 
L 392.309807 -157.736391 
L 393.160469 -157.587402 
L 394.021284 -156.057711 
L 394.860075 -160.186971 
L 395.701636 -160.367097 
L 396.585999 -161.467157 
L 397.403254 -160.215251 
L 398.287027 -160.880787 
L 399.137296 -163.291514 
L 399.977804 -161.342308 
L 400.846591 -160.806937 
L 401.687515 -158.944751 
L 402.523607 -159.12061 
L 403.406081 -158.966346 
L 404.265057 -151.515331 
L 404.265057 -182.998283 
L 404.265057 -182.998283 
L 403.406081 -182.342367 
L 402.523607 -180.994073 
L 401.687515 -176.319285 
L 400.846591 -177.033949 
L 399.977804 -177.397588 
L 399.137296 -183.503046 
L 398.287027 -175.566347 
L 397.403254 -173.829169 
L 396.585999 -172.03779 
L 395.701636 -170.416077 
L 394.860075 -170.135178 
L 394.021284 -169.82752 
L 393.160469 -170.765217 
L 392.309807 -177.522513 
L 391.472194 -181.574901 
L 390.564286 -178.136464 
L 389.731186 -207.581183 
L 388.910521 -187.509665 
L 388.058486 -187.059751 
L 387.201325 -177.24327 
L 386.327142 -160.745243 
L 385.473905 -167.067495 
L 384.625991 -171.39056 
L 383.781584 -173.711637 
L 383.039481 -170.500933 
L 382.065593 -171.672578 
L 381.272718 -172.253456 
L 380.258312 -173.279407 
L 379.518293 -180.078183 
L 378.604253 -181.272765 
L 377.77 -178.838786 
L 376.97249 -181.975649 
L 376.109663 -187.493046 
L 375.213944 -175.758806 
L 374.414521 -185.705782 
L 373.524664 -172.07971 
L 372.714007 -171.240159 
L 371.832932 -186.407095 
L 370.959337 -173.905606 
L 370.125477 -170.107371 
L 369.22939 -165.771797 
L 368.417188 -167.373411 
L 367.552791 -158.335373 
L 366.665804 -178.725043 
L 365.855319 -179.782887 
L 365.0232 -179.74651 
L 364.1395 -181.351805 
L 363.277875 -177.735771 
L 362.42324 -171.982794 
L 361.622001 -171.870291 
L 360.672617 -173.076414 
L 359.887615 -173.435111 
L 359.028271 -182.650348 
L 358.180308 -182.337794 
L 357.371171 -178.206887 
L 356.489973 -154.149334 
L 355.608897 -160.095584 
L 354.768243 -159.634075 
L 353.915791 -163.958365 
L 353.052645 -155.958849 
L 352.194454 -163.610956 
L 351.339966 -168.966201 
L 350.469315 -169.630869 
L 349.664863 -166.857706 
L 348.806402 -157.864214 
L 347.963344 -167.775758 
L 347.077485 -164.829223 
L 346.228786 -175.988971 
L 345.356197 -175.251484 
L 344.511937 -163.623296 
L 343.666672 -163.408516 
L 342.847037 -184.683209 
L 341.963019 -191.127204 
L 341.11015 -170.381297 
L 340.270158 -166.328397 
L 339.434237 -164.143204 
L 338.551101 -187.938786 
L 337.694431 -168.85337 
L 336.842739 -164.855449 
L 335.988006 -160.198407 
L 335.15498 -164.222425 
L 334.260169 -182.151037 
L 333.423071 -178.236664 
L 332.586783 -177.151052 
L 331.720105 -205.065825 
L 330.857915 -183.102562 
L 330.077108 -207.799132 
L 329.167679 -204.343809 
L 328.28805 -204.622992 
L 327.465792 -187.144558 
L 326.737547 -186.948303 
L 325.570873 -228.457576 
L 324.841255 -229.488428 
L 324.045167 -205.049514 
L 323.186828 -206.570313 
L 322.345217 -214.99106 
L 321.477828 -209.38778 
L 320.640412 -208.541896 
L 319.759434 -206.404454 
L 318.914806 -205.380611 
L 318.097331 -196.933364 
L 317.221896 -199.946474 
L 316.36292 -202.498361 
L 315.509879 -199.235223 
L 314.639915 -203.967893 
L 313.806104 -190.92056 
L 312.927211 -197.157963 
L 312.120773 -201.136158 
L 311.268517 -201.687761 
L 310.383934 -201.476171 
L 309.550123 -196.679819 
L 308.719549 -200.572151 
L 307.820986 -197.055306 
L 307.061983 -200.656019 
L 306.119614 -203.608507 
L 305.27398 -207.532396 
L 304.429941 -199.156082 
L 303.57977 -204.430816 
L 302.651602 -197.879521 
L 301.828362 -188.512501 
L 301.053417 -188.00187 
L 300.212002 -186.659816 
L 299.372501 -195.70403 
L 298.462336 -192.318875 
L 297.479471 -209.54242 
L 296.707984 -198.748935 
L 295.896714 -190.755432 
L 295.097315 -194.576236 
L 294.208243 -196.491932 
L 293.406465 -186.621078 
L 292.462894 -188.056456 
L 291.629083 -187.400232 
L 291.030809 -182.322842 
L 289.907426 -189.836214 
L 289.060591 -184.319626 
L 288.245102 -184.259655 
L 287.377124 -181.603972 
L 286.507503 -181.154796 
L 285.653751 -177.789429 
L 284.770174 -181.358078 
L 283.980389 -176.42702 
L 283.098602 -178.869239 
L 282.244605 -175.745924 
L 281.396519 -169.974581 
L 280.701435 -168.764453 
L 280.011429 -169.615963 
L 278.810392 -227.921025 
L 277.919579 -138.123103 
L 277.274311 -138.784262 
L 268.344769 -131.868047 
L 268.072956 -128.946591 
L 266.599014 -151.26847 
L 265.838136 -164.086908 
L 264.976008 -155.735068 
L 263.915551 -149.526794 
L 263.867072 -146.627966 
L 262.352562 -145.900373 
L 240.595194 -154.299247 
L 239.829446 -155.019725 
L 228.662264 -150.881015 
z
" style="stroke: #add8e6"/>
    </defs>
    <g clip-path="url(#pa7c0b49567)">
     <use xlink:href="#m77c1b54bd9" x="0" y="288" style="fill: #add8e6; stroke: #add8e6"/>
    </g>
   </g>
   <g id="line2d_1">
    <path d="M 228.662264 138.719093 
L 239.829446 135.583708 
L 240.595194 136.427937 
L 262.352562 142.694859 
L 263.867072 142.196354 
L 263.915551 140.646372 
L 264.976008 138.696611 
L 265.838136 135.156244 
L 266.599014 138.664862 
L 268.072956 159.374821 
L 268.344769 157.415817 
L 277.274311 150.098164 
L 277.919579 154.229541 
L 278.810392 95.787556 
L 280.011429 120.505882 
L 280.701435 122.788221 
L 281.396519 120.831132 
L 282.244605 116.39397 
L 283.098602 114.919654 
L 283.980389 122.473188 
L 284.770174 122.47838 
L 285.653751 113.682032 
L 286.507503 110.799631 
L 287.377124 111.379414 
L 288.245102 109.861917 
L 289.060591 109.414322 
L 289.907426 106.986422 
L 291.030809 108.956491 
L 291.629083 106.386057 
L 292.462894 105.511567 
L 293.406465 113.783088 
L 294.208243 105.061318 
L 295.097315 110.564397 
L 295.896714 106.749964 
L 296.707984 100.991461 
L 297.479471 90.631398 
L 298.462336 101.544932 
L 299.372501 119.204007 
L 300.212002 124.957062 
L 301.053417 121.252963 
L 301.828362 120.638296 
L 302.651602 111.857044 
L 303.57977 100.229029 
L 304.429941 101.325548 
L 305.27398 95.908333 
L 306.119614 108.834284 
L 307.820986 114.535959 
L 308.719549 110.609792 
L 309.550123 113.933096 
L 310.383934 112.074684 
L 311.268517 109.274179 
L 312.120773 108.120431 
L 312.927211 109.659372 
L 313.806104 113.326472 
L 314.639915 100.099564 
L 315.509879 97.983602 
L 316.36292 102.732212 
L 317.221896 105.117607 
L 318.097331 104.327559 
L 318.914806 100.107783 
L 319.759434 99.05706 
L 320.640412 99.120187 
L 321.477828 96.110201 
L 322.345217 90.198194 
L 323.186828 97.045525 
L 324.045167 100.452557 
L 324.841255 78.711635 
L 325.570873 83.427958 
L 326.737547 116.810756 
L 327.465792 115.679157 
L 328.28805 101.368935 
L 329.167679 103.431126 
L 330.077108 100.058146 
L 330.857915 117.97907 
L 331.720105 104.701624 
L 332.586783 119.962099 
L 333.423071 119.925814 
L 334.260169 120.154475 
L 335.15498 130.573315 
L 335.988006 132.677728 
L 336.842739 131.554661 
L 337.694431 133.498643 
L 338.551101 122.818236 
L 339.434237 133.30802 
L 340.270158 134.977906 
L 341.963019 115.614346 
L 342.847037 122.345554 
L 343.666672 134.201573 
L 344.511937 133.368051 
L 345.356197 129.591039 
L 346.228786 127.136601 
L 347.077485 131.746136 
L 347.963344 131.014415 
L 348.806402 136.544815 
L 349.664863 131.375285 
L 350.469315 130.683238 
L 351.339966 130.156197 
L 352.194454 132.715766 
L 353.052645 136.716267 
L 353.915791 130.5068 
L 354.768243 137.672946 
L 355.608897 137.594019 
L 356.489973 140.482924 
L 357.371171 123.049464 
L 358.180308 115.812531 
L 359.028271 117.912604 
L 359.887615 121.319763 
L 360.672617 120.779487 
L 361.622001 122.533287 
L 362.42324 124.698602 
L 363.277875 120.406843 
L 364.1395 119.100148 
L 365.0232 120.709357 
L 365.855319 118.559912 
L 366.665804 124.92978 
L 367.552791 139.960458 
L 368.417188 131.966725 
L 369.22939 130.660344 
L 370.125477 127.384306 
L 370.959337 126.759872 
L 371.832932 120.655508 
L 372.714007 127.297493 
L 373.524664 128.724582 
L 374.414521 119.175608 
L 375.213944 124.544166 
L 376.109663 112.73652 
L 376.97249 118.868774 
L 377.77 121.640449 
L 378.604253 120.399564 
L 379.518293 119.856546 
L 380.258312 125.302444 
L 381.272718 123.016245 
L 382.065593 123.386989 
L 383.039481 131.649272 
L 383.781584 129.593449 
L 384.625991 131.261718 
L 385.473905 131.2482 
L 386.327142 134.442391 
L 387.201325 124.301271 
L 388.058486 117.593485 
L 388.910521 118.970663 
L 389.731186 105.438116 
L 390.564286 121.197723 
L 391.472194 118.828992 
L 392.309807 120.370548 
L 393.160469 123.823691 
L 394.021284 125.057385 
L 394.860075 122.838926 
L 395.701636 122.608413 
L 396.585999 121.247526 
L 397.403254 120.97779 
L 398.287027 119.776433 
L 399.137296 114.60272 
L 399.977804 118.630052 
L 400.846591 119.079557 
L 401.687515 120.367982 
L 402.523607 117.942658 
L 403.406081 117.345643 
L 404.265057 120.743193 
L 404.677364 126.832775 
L 404.677364 126.832775 
" clip-path="url(#pa7c0b49567)" style="fill: none; stroke: #1f77b4; stroke-width: 1.5; stroke-linecap: square"/>
   </g>
   <g id="line2d_2">
    <path d="M 74.224636 231.609273 
L 76.616432 227.799978 
L 77.64168 225.19715 
L 79.00786 220.375676 
L 80.374039 214.612906 
L 87.204938 184.236862 
L 89.595139 175.228081 
L 91.644409 168.407068 
L 93.692452 162.355561 
L 95.399564 157.847535 
L 97.448833 152.991925 
L 99.839034 148.032387 
L 101.888304 144.266855 
L 104.277279 140.381375 
L 106.66748 136.941558 
L 108.71675 134.304433 
L 111.447883 131.196374 
L 114.180242 128.486112 
L 117.252307 125.845196 
L 120.66653 123.254273 
L 123.739821 121.209724 
L 126.813112 119.405565 
L 130.227335 117.641686 
L 133.98249 115.940589 
L 137.738871 114.447914 
L 142.177116 112.910914 
L 146.957518 111.475227 
L 152.761942 109.981087 
L 158.56514 108.701785 
L 166.076676 107.300534 
L 175.978413 105.797318 
L 185.537992 104.613121 
L 194.759092 103.651493 
L 213.87825 102.081378 
L 229.919211 101.080463 
L 242.894239 100.411818 
L 258.604079 99.729402 
L 267.826406 99.459401 
L 343.616268 97.796899 
L 369.22294 97.34903 
L 386.980823 97.059733 
L 404.051938 96.799521 
L 404.051938 96.799521 
" clip-path="url(#pa7c0b49567)" style="fill: none; stroke: #000000; stroke-width: 2.5; stroke-linecap: square"/>
   </g>
   <g id="line2d_3">
    <path d="M 74.224636 194.457721 
L 75.933342 153.407861 
L 76.95859 135.376344 
L 77.982612 121.821419 
L 79.00786 111.003793 
L 80.374039 98.482175 
L 81.740219 87.385363 
L 82.765467 80.585436 
L 84.131647 73.788719 
L 85.155668 69.710047 
L 86.17969 66.292435 
L 87.54587 62.573174 
L 88.912049 59.482882 
L 90.619161 56.334827 
L 92.326272 53.748352 
L 94.375542 51.197177 
L 96.082653 49.400122 
L 98.131923 47.551724 
L 100.179966 45.963256 
L 102.912326 44.16941 
L 105.985617 42.475044 
L 109.057682 41.043819 
L 112.471904 39.686401 
L 116.228286 38.412418 
L 121.008688 37.042163 
L 125.789091 35.883705 
L 132.617537 34.513451 
L 140.470004 33.367829 
L 150.029583 32.215789 
L 166.418834 30.63053 
L 181.099747 29.494535 
L 206.703967 27.915694 
L 226.166509 26.933732 
L 258.260695 25.544224 
L 307.76938 23.801723 
L 385.95067 21.719065 
L 404.395322 21.314727 
L 404.395322 21.314727 
" clip-path="url(#pa7c0b49567)" style="fill: none; stroke-dasharray: 9.25,4; stroke-dashoffset: 0; stroke: #8b0000; stroke-width: 2.5"/>
   </g>
   <g id="legend_1">
    <g id="line2d_4">
     <path d="M 333.95625 198.188062 
L 343.95625 198.188062 
L 353.95625 198.188062 
" style="fill: none; stroke: #1f77b4; stroke-width: 1.5; stroke-linecap: square"/>
    </g>
    <g id="text_1">
     <!-- PSP -->
     <g transform="translate(361.95625 201.688062) scale(0.1 -0.1)">
      <defs>
       <path id="DejaVuSans-50" d="M 1259 4147 
L 1259 2394 
L 2053 2394 
Q 2494 2394 2734 2622 
Q 2975 2850 2975 3272 
Q 2975 3691 2734 3919 
Q 2494 4147 2053 4147 
L 1259 4147 
z
M 628 4666 
L 2053 4666 
Q 2838 4666 3239 4311 
Q 3641 3956 3641 3272 
Q 3641 2581 3239 2228 
Q 2838 1875 2053 1875 
L 1259 1875 
L 1259 0 
L 628 0 
L 628 4666 
z
" transform="scale(0.015625)"/>
       <path id="DejaVuSans-53" d="M 3425 4513 
L 3425 3897 
Q 3066 4069 2747 4153 
Q 2428 4238 2131 4238 
Q 1616 4238 1336 4038 
Q 1056 3838 1056 3469 
Q 1056 3159 1242 3001 
Q 1428 2844 1947 2747 
L 2328 2669 
Q 3034 2534 3370 2195 
Q 3706 1856 3706 1288 
Q 3706 609 3251 259 
Q 2797 -91 1919 -91 
Q 1588 -91 1214 -16 
Q 841 59 441 206 
L 441 856 
Q 825 641 1194 531 
Q 1563 422 1919 422 
Q 2459 422 2753 634 
Q 3047 847 3047 1241 
Q 3047 1584 2836 1778 
Q 2625 1972 2144 2069 
L 1759 2144 
Q 1053 2284 737 2584 
Q 422 2884 422 3419 
Q 422 4038 858 4394 
Q 1294 4750 2059 4750 
Q 2388 4750 2728 4690 
Q 3069 4631 3425 4513 
z
" transform="scale(0.015625)"/>
      </defs>
      <use xlink:href="#DejaVuSans-50"/>
      <use xlink:href="#DejaVuSans-53" x="60.302734"/>
      <use xlink:href="#DejaVuSans-50" x="123.779297"/>
     </g>
    </g>
    <g id="line2d_5">
     <path d="M 333.95625 212.866187 
L 343.95625 212.866187 
L 353.95625 212.866187 
" style="fill: none; stroke: #000000; stroke-width: 2.5; stroke-linecap: square"/>
    </g>
    <g id="text_2">
     <!-- Slow wind -->
     <g transform="translate(361.95625 216.366187) scale(0.1 -0.1)">
      <defs>
       <path id="DejaVuSans-6c" d="M 603 4863 
L 1178 4863 
L 1178 0 
L 603 0 
L 603 4863 
z
" transform="scale(0.015625)"/>
       <path id="DejaVuSans-6f" d="M 1959 3097 
Q 1497 3097 1228 2736 
Q 959 2375 959 1747 
Q 959 1119 1226 758 
Q 1494 397 1959 397 
Q 2419 397 2687 759 
Q 2956 1122 2956 1747 
Q 2956 2369 2687 2733 
Q 2419 3097 1959 3097 
z
M 1959 3584 
Q 2709 3584 3137 3096 
Q 3566 2609 3566 1747 
Q 3566 888 3137 398 
Q 2709 -91 1959 -91 
Q 1206 -91 779 398 
Q 353 888 353 1747 
Q 353 2609 779 3096 
Q 1206 3584 1959 3584 
z
" transform="scale(0.015625)"/>
       <path id="DejaVuSans-77" d="M 269 3500 
L 844 3500 
L 1563 769 
L 2278 3500 
L 2956 3500 
L 3675 769 
L 4391 3500 
L 4966 3500 
L 4050 0 
L 3372 0 
L 2619 2869 
L 1863 0 
L 1184 0 
L 269 3500 
z
" transform="scale(0.015625)"/>
       <path id="DejaVuSans-20" transform="scale(0.015625)"/>
       <path id="DejaVuSans-69" d="M 603 3500 
L 1178 3500 
L 1178 0 
L 603 0 
L 603 3500 
z
M 603 4863 
L 1178 4863 
L 1178 4134 
L 603 4134 
L 603 4863 
z
" transform="scale(0.015625)"/>
       <path id="DejaVuSans-6e" d="M 3513 2113 
L 3513 0 
L 2938 0 
L 2938 2094 
Q 2938 2591 2744 2837 
Q 2550 3084 2163 3084 
Q 1697 3084 1428 2787 
Q 1159 2491 1159 1978 
L 1159 0 
L 581 0 
L 581 3500 
L 1159 3500 
L 1159 2956 
Q 1366 3272 1645 3428 
Q 1925 3584 2291 3584 
Q 2894 3584 3203 3211 
Q 3513 2838 3513 2113 
z
" transform="scale(0.015625)"/>
       <path id="DejaVuSans-64" d="M 2906 2969 
L 2906 4863 
L 3481 4863 
L 3481 0 
L 2906 0 
L 2906 525 
Q 2725 213 2448 61 
Q 2172 -91 1784 -91 
Q 1150 -91 751 415 
Q 353 922 353 1747 
Q 353 2572 751 3078 
Q 1150 3584 1784 3584 
Q 2172 3584 2448 3432 
Q 2725 3281 2906 2969 
z
M 947 1747 
Q 947 1113 1208 752 
Q 1469 391 1925 391 
Q 2381 391 2643 752 
Q 2906 1113 2906 1747 
Q 2906 2381 2643 2742 
Q 2381 3103 1925 3103 
Q 1469 3103 1208 2742 
Q 947 2381 947 1747 
z
" transform="scale(0.015625)"/>
      </defs>
      <use xlink:href="#DejaVuSans-53"/>
      <use xlink:href="#DejaVuSans-6c" x="63.476562"/>
      <use xlink:href="#DejaVuSans-6f" x="91.259766"/>
      <use xlink:href="#DejaVuSans-77" x="152.441406"/>
      <use xlink:href="#DejaVuSans-20" x="234.228516"/>
      <use xlink:href="#DejaVuSans-77" x="266.015625"/>
      <use xlink:href="#DejaVuSans-69" x="347.802734"/>
      <use xlink:href="#DejaVuSans-6e" x="375.585938"/>
      <use xlink:href="#DejaVuSans-64" x="438.964844"/>
     </g>
    </g>
    <g id="line2d_6">
     <path d="M 333.95625 227.544312 
L 343.95625 227.544312 
L 353.95625 227.544312 
" style="fill: none; stroke-dasharray: 9.25,4; stroke-dashoffset: 0; stroke: #8b0000; stroke-width: 2.5"/>
    </g>
    <g id="text_3">
     <!-- Fast wind -->
     <g transform="translate(361.95625 231.044312) scale(0.1 -0.1)">
      <defs>
       <path id="DejaVuSans-46" d="M 628 4666 
L 3309 4666 
L 3309 4134 
L 1259 4134 
L 1259 2759 
L 3109 2759 
L 3109 2228 
L 1259 2228 
L 1259 0 
L 628 0 
L 628 4666 
z
" transform="scale(0.015625)"/>
       <path id="DejaVuSans-61" d="M 2194 1759 
Q 1497 1759 1228 1600 
Q 959 1441 959 1056 
Q 959 750 1161 570 
Q 1363 391 1709 391 
Q 2188 391 2477 730 
Q 2766 1069 2766 1631 
L 2766 1759 
L 2194 1759 
z
M 3341 1997 
L 3341 0 
L 2766 0 
L 2766 531 
Q 2569 213 2275 61 
Q 1981 -91 1556 -91 
Q 1019 -91 701 211 
Q 384 513 384 1019 
Q 384 1609 779 1909 
Q 1175 2209 1959 2209 
L 2766 2209 
L 2766 2266 
Q 2766 2663 2505 2880 
Q 2244 3097 1772 3097 
Q 1472 3097 1187 3025 
Q 903 2953 641 2809 
L 641 3341 
Q 956 3463 1253 3523 
Q 1550 3584 1831 3584 
Q 2591 3584 2966 3190 
Q 3341 2797 3341 1997 
z
" transform="scale(0.015625)"/>
       <path id="DejaVuSans-73" d="M 2834 3397 
L 2834 2853 
Q 2591 2978 2328 3040 
Q 2066 3103 1784 3103 
Q 1356 3103 1142 2972 
Q 928 2841 928 2578 
Q 928 2378 1081 2264 
Q 1234 2150 1697 2047 
L 1894 2003 
Q 2506 1872 2764 1633 
Q 3022 1394 3022 966 
Q 3022 478 2636 193 
Q 2250 -91 1575 -91 
Q 1294 -91 989 -36 
Q 684 19 347 128 
L 347 722 
Q 666 556 975 473 
Q 1284 391 1588 391 
Q 1994 391 2212 530 
Q 2431 669 2431 922 
Q 2431 1156 2273 1281 
Q 2116 1406 1581 1522 
L 1381 1569 
Q 847 1681 609 1914 
Q 372 2147 372 2553 
Q 372 3047 722 3315 
Q 1072 3584 1716 3584 
Q 2034 3584 2315 3537 
Q 2597 3491 2834 3397 
z
" transform="scale(0.015625)"/>
       <path id="DejaVuSans-74" d="M 1172 4494 
L 1172 3500 
L 2356 3500 
L 2356 3053 
L 1172 3053 
L 1172 1153 
Q 1172 725 1289 603 
Q 1406 481 1766 481 
L 2356 481 
L 2356 0 
L 1766 0 
Q 1100 0 847 248 
Q 594 497 594 1153 
L 594 3053 
L 172 3053 
L 172 3500 
L 594 3500 
L 594 4494 
L 1172 4494 
z
" transform="scale(0.015625)"/>
      </defs>
      <use xlink:href="#DejaVuSans-46"/>
      <use xlink:href="#DejaVuSans-61" x="48.394531"/>
      <use xlink:href="#DejaVuSans-73" x="109.673828"/>
      <use xlink:href="#DejaVuSans-74" x="161.773438"/>
      <use xlink:href="#DejaVuSans-20" x="200.982422"/>
      <use xlink:href="#DejaVuSans-77" x="232.769531"/>
      <use xlink:href="#DejaVuSans-69" x="314.556641"/>
      <use xlink:href="#DejaVuSans-6e" x="342.339844"/>
      <use xlink:href="#DejaVuSans-64" x="405.71875"/>
     </g>
    </g>
   </g>
   <g id="matplotlib.axis_1">
    <g id="xtick_1">
     <g id="line2d_7">
      <defs>
       <path id="m8dc432eb43" d="M 0 0 
L 0 -3.5 
" style="stroke: #000000; stroke-width: 1.5"/>
      </defs>
      <g>
       <use xlink:href="#m8dc432eb43" x="63.402261" y="242.124" style="stroke: #000000; stroke-width: 1.5"/>
      </g>
     </g>
     <g id="line2d_8">
      <defs>
       <path id="m224c8f7e2a" d="M 0 0 
L 0 3.5 
" style="stroke: #000000; stroke-width: 1.5"/>
      </defs>
      <g>
       <use xlink:href="#m224c8f7e2a" x="63.402261" y="10.8" style="stroke: #000000; stroke-width: 1.5"/>
      </g>
     </g>
     <g id="text_4">
      <!-- 0 -->
      <g transform="translate(59.584761 254.742125) scale(0.12 -0.12)">
       <defs>
        <path id="DejaVuSans-30" d="M 2034 4250 
Q 1547 4250 1301 3770 
Q 1056 3291 1056 2328 
Q 1056 1369 1301 889 
Q 1547 409 2034 409 
Q 2525 409 2770 889 
Q 3016 1369 3016 2328 
Q 3016 3291 2770 3770 
Q 2525 4250 2034 4250 
z
M 2034 4750 
Q 2819 4750 3233 4129 
Q 3647 3509 3647 2328 
Q 3647 1150 3233 529 
Q 2819 -91 2034 -91 
Q 1250 -91 836 529 
Q 422 1150 422 2328 
Q 422 3509 836 4129 
Q 1250 4750 2034 4750 
z
" transform="scale(0.015625)"/>
       </defs>
       <use xlink:href="#DejaVuSans-30"/>
      </g>
     </g>
    </g>
    <g id="xtick_2">
     <g id="line2d_9">
      <g>
       <use xlink:href="#m8dc432eb43" x="106.061652" y="242.124" style="stroke: #000000; stroke-width: 1.5"/>
      </g>
     </g>
     <g id="line2d_10">
      <g>
       <use xlink:href="#m224c8f7e2a" x="106.061652" y="10.8" style="stroke: #000000; stroke-width: 1.5"/>
      </g>
     </g>
     <g id="text_5">
      <!-- 5 -->
      <g transform="translate(102.244152 254.742125) scale(0.12 -0.12)">
       <defs>
        <path id="DejaVuSans-35" d="M 691 4666 
L 3169 4666 
L 3169 4134 
L 1269 4134 
L 1269 2991 
Q 1406 3038 1543 3061 
Q 1681 3084 1819 3084 
Q 2600 3084 3056 2656 
Q 3513 2228 3513 1497 
Q 3513 744 3044 326 
Q 2575 -91 1722 -91 
Q 1428 -91 1123 -41 
Q 819 9 494 109 
L 494 744 
Q 775 591 1075 516 
Q 1375 441 1709 441 
Q 2250 441 2565 725 
Q 2881 1009 2881 1497 
Q 2881 1984 2565 2268 
Q 2250 2553 1709 2553 
Q 1456 2553 1204 2497 
Q 953 2441 691 2322 
L 691 4666 
z
" transform="scale(0.015625)"/>
       </defs>
       <use xlink:href="#DejaVuSans-35"/>
      </g>
     </g>
    </g>
    <g id="xtick_3">
     <g id="line2d_11">
      <g>
       <use xlink:href="#m8dc432eb43" x="148.721043" y="242.124" style="stroke: #000000; stroke-width: 1.5"/>
      </g>
     </g>
     <g id="line2d_12">
      <g>
       <use xlink:href="#m224c8f7e2a" x="148.721043" y="10.8" style="stroke: #000000; stroke-width: 1.5"/>
      </g>
     </g>
     <g id="text_6">
      <!-- 10 -->
      <g transform="translate(141.086043 254.742125) scale(0.12 -0.12)">
       <defs>
        <path id="DejaVuSans-31" d="M 794 531 
L 1825 531 
L 1825 4091 
L 703 3866 
L 703 4441 
L 1819 4666 
L 2450 4666 
L 2450 531 
L 3481 531 
L 3481 0 
L 794 0 
L 794 531 
z
" transform="scale(0.015625)"/>
       </defs>
       <use xlink:href="#DejaVuSans-31"/>
       <use xlink:href="#DejaVuSans-30" x="63.623047"/>
      </g>
     </g>
    </g>
    <g id="xtick_4">
     <g id="line2d_13">
      <g>
       <use xlink:href="#m8dc432eb43" x="191.380434" y="242.124" style="stroke: #000000; stroke-width: 1.5"/>
      </g>
     </g>
     <g id="line2d_14">
      <g>
       <use xlink:href="#m224c8f7e2a" x="191.380434" y="10.8" style="stroke: #000000; stroke-width: 1.5"/>
      </g>
     </g>
     <g id="text_7">
      <!-- 15 -->
      <g transform="translate(183.745434 254.742125) scale(0.12 -0.12)">
       <use xlink:href="#DejaVuSans-31"/>
       <use xlink:href="#DejaVuSans-35" x="63.623047"/>
      </g>
     </g>
    </g>
    <g id="xtick_5">
     <g id="line2d_15">
      <g>
       <use xlink:href="#m8dc432eb43" x="234.039825" y="242.124" style="stroke: #000000; stroke-width: 1.5"/>
      </g>
     </g>
     <g id="line2d_16">
      <g>
       <use xlink:href="#m224c8f7e2a" x="234.039825" y="10.8" style="stroke: #000000; stroke-width: 1.5"/>
      </g>
     </g>
     <g id="text_8">
      <!-- 20 -->
      <g transform="translate(226.404825 254.742125) scale(0.12 -0.12)">
       <defs>
        <path id="DejaVuSans-32" d="M 1228 531 
L 3431 531 
L 3431 0 
L 469 0 
L 469 531 
Q 828 903 1448 1529 
Q 2069 2156 2228 2338 
Q 2531 2678 2651 2914 
Q 2772 3150 2772 3378 
Q 2772 3750 2511 3984 
Q 2250 4219 1831 4219 
Q 1534 4219 1204 4116 
Q 875 4013 500 3803 
L 500 4441 
Q 881 4594 1212 4672 
Q 1544 4750 1819 4750 
Q 2544 4750 2975 4387 
Q 3406 4025 3406 3419 
Q 3406 3131 3298 2873 
Q 3191 2616 2906 2266 
Q 2828 2175 2409 1742 
Q 1991 1309 1228 531 
z
" transform="scale(0.015625)"/>
       </defs>
       <use xlink:href="#DejaVuSans-32"/>
       <use xlink:href="#DejaVuSans-30" x="63.623047"/>
      </g>
     </g>
    </g>
    <g id="xtick_6">
     <g id="line2d_17">
      <g>
       <use xlink:href="#m8dc432eb43" x="276.699215" y="242.124" style="stroke: #000000; stroke-width: 1.5"/>
      </g>
     </g>
     <g id="line2d_18">
      <g>
       <use xlink:href="#m224c8f7e2a" x="276.699215" y="10.8" style="stroke: #000000; stroke-width: 1.5"/>
      </g>
     </g>
     <g id="text_9">
      <!-- 25 -->
      <g transform="translate(269.064215 254.742125) scale(0.12 -0.12)">
       <use xlink:href="#DejaVuSans-32"/>
       <use xlink:href="#DejaVuSans-35" x="63.623047"/>
      </g>
     </g>
    </g>
    <g id="xtick_7">
     <g id="line2d_19">
      <g>
       <use xlink:href="#m8dc432eb43" x="319.358606" y="242.124" style="stroke: #000000; stroke-width: 1.5"/>
      </g>
     </g>
     <g id="line2d_20">
      <g>
       <use xlink:href="#m224c8f7e2a" x="319.358606" y="10.8" style="stroke: #000000; stroke-width: 1.5"/>
      </g>
     </g>
     <g id="text_10">
      <!-- 30 -->
      <g transform="translate(311.723606 254.742125) scale(0.12 -0.12)">
       <defs>
        <path id="DejaVuSans-33" d="M 2597 2516 
Q 3050 2419 3304 2112 
Q 3559 1806 3559 1356 
Q 3559 666 3084 287 
Q 2609 -91 1734 -91 
Q 1441 -91 1130 -33 
Q 819 25 488 141 
L 488 750 
Q 750 597 1062 519 
Q 1375 441 1716 441 
Q 2309 441 2620 675 
Q 2931 909 2931 1356 
Q 2931 1769 2642 2001 
Q 2353 2234 1838 2234 
L 1294 2234 
L 1294 2753 
L 1863 2753 
Q 2328 2753 2575 2939 
Q 2822 3125 2822 3475 
Q 2822 3834 2567 4026 
Q 2313 4219 1838 4219 
Q 1578 4219 1281 4162 
Q 984 4106 628 3988 
L 628 4550 
Q 988 4650 1302 4700 
Q 1616 4750 1894 4750 
Q 2613 4750 3031 4423 
Q 3450 4097 3450 3541 
Q 3450 3153 3228 2886 
Q 3006 2619 2597 2516 
z
" transform="scale(0.015625)"/>
       </defs>
       <use xlink:href="#DejaVuSans-33"/>
       <use xlink:href="#DejaVuSans-30" x="63.623047"/>
      </g>
     </g>
    </g>
    <g id="xtick_8">
     <g id="line2d_21">
      <g>
       <use xlink:href="#m8dc432eb43" x="362.017997" y="242.124" style="stroke: #000000; stroke-width: 1.5"/>
      </g>
     </g>
     <g id="line2d_22">
      <g>
       <use xlink:href="#m224c8f7e2a" x="362.017997" y="10.8" style="stroke: #000000; stroke-width: 1.5"/>
      </g>
     </g>
     <g id="text_11">
      <!-- 35 -->
      <g transform="translate(354.382997 254.742125) scale(0.12 -0.12)">
       <use xlink:href="#DejaVuSans-33"/>
       <use xlink:href="#DejaVuSans-35" x="63.623047"/>
      </g>
     </g>
    </g>
    <g id="xtick_9">
     <g id="line2d_23">
      <g>
       <use xlink:href="#m8dc432eb43" x="404.677388" y="242.124" style="stroke: #000000; stroke-width: 1.5"/>
      </g>
     </g>
     <g id="line2d_24">
      <g>
       <use xlink:href="#m224c8f7e2a" x="404.677388" y="10.8" style="stroke: #000000; stroke-width: 1.5"/>
      </g>
     </g>
     <g id="text_12">
      <!-- 40 -->
      <g transform="translate(397.042388 254.742125) scale(0.12 -0.12)">
       <defs>
        <path id="DejaVuSans-34" d="M 2419 4116 
L 825 1625 
L 2419 1625 
L 2419 4116 
z
M 2253 4666 
L 3047 4666 
L 3047 1625 
L 3713 1625 
L 3713 1100 
L 3047 1100 
L 3047 0 
L 2419 0 
L 2419 1100 
L 313 1100 
L 313 1709 
L 2253 4666 
z
" transform="scale(0.015625)"/>
       </defs>
       <use xlink:href="#DejaVuSans-34"/>
       <use xlink:href="#DejaVuSans-30" x="63.623047"/>
      </g>
     </g>
    </g>
    <g id="xtick_10">
     <g id="line2d_25">
      <defs>
       <path id="mf4f63eab8a" d="M 0 0 
L 0 -2 
" style="stroke: #000000; stroke-width: 1.5"/>
      </defs>
      <g>
       <use xlink:href="#mf4f63eab8a" x="71.934139" y="242.124" style="stroke: #000000; stroke-width: 1.5"/>
      </g>
     </g>
     <g id="line2d_26">
      <defs>
       <path id="m1f0361b73c" d="M 0 0 
L 0 2 
" style="stroke: #000000; stroke-width: 1.5"/>
      </defs>
      <g>
       <use xlink:href="#m1f0361b73c" x="71.934139" y="10.8" style="stroke: #000000; stroke-width: 1.5"/>
      </g>
     </g>
    </g>
    <g id="xtick_11">
     <g id="line2d_27">
      <g>
       <use xlink:href="#mf4f63eab8a" x="80.466017" y="242.124" style="stroke: #000000; stroke-width: 1.5"/>
      </g>
     </g>
     <g id="line2d_28">
      <g>
       <use xlink:href="#m1f0361b73c" x="80.466017" y="10.8" style="stroke: #000000; stroke-width: 1.5"/>
      </g>
     </g>
    </g>
    <g id="xtick_12">
     <g id="line2d_29">
      <g>
       <use xlink:href="#mf4f63eab8a" x="88.997896" y="242.124" style="stroke: #000000; stroke-width: 1.5"/>
      </g>
     </g>
     <g id="line2d_30">
      <g>
       <use xlink:href="#m1f0361b73c" x="88.997896" y="10.8" style="stroke: #000000; stroke-width: 1.5"/>
      </g>
     </g>
    </g>
    <g id="xtick_13">
     <g id="line2d_31">
      <g>
       <use xlink:href="#mf4f63eab8a" x="97.529774" y="242.124" style="stroke: #000000; stroke-width: 1.5"/>
      </g>
     </g>
     <g id="line2d_32">
      <g>
       <use xlink:href="#m1f0361b73c" x="97.529774" y="10.8" style="stroke: #000000; stroke-width: 1.5"/>
      </g>
     </g>
    </g>
    <g id="xtick_14">
     <g id="line2d_33">
      <g>
       <use xlink:href="#mf4f63eab8a" x="114.59353" y="242.124" style="stroke: #000000; stroke-width: 1.5"/>
      </g>
     </g>
     <g id="line2d_34">
      <g>
       <use xlink:href="#m1f0361b73c" x="114.59353" y="10.8" style="stroke: #000000; stroke-width: 1.5"/>
      </g>
     </g>
    </g>
    <g id="xtick_15">
     <g id="line2d_35">
      <g>
       <use xlink:href="#mf4f63eab8a" x="123.125408" y="242.124" style="stroke: #000000; stroke-width: 1.5"/>
      </g>
     </g>
     <g id="line2d_36">
      <g>
       <use xlink:href="#m1f0361b73c" x="123.125408" y="10.8" style="stroke: #000000; stroke-width: 1.5"/>
      </g>
     </g>
    </g>
    <g id="xtick_16">
     <g id="line2d_37">
      <g>
       <use xlink:href="#mf4f63eab8a" x="131.657286" y="242.124" style="stroke: #000000; stroke-width: 1.5"/>
      </g>
     </g>
     <g id="line2d_38">
      <g>
       <use xlink:href="#m1f0361b73c" x="131.657286" y="10.8" style="stroke: #000000; stroke-width: 1.5"/>
      </g>
     </g>
    </g>
    <g id="xtick_17">
     <g id="line2d_39">
      <g>
       <use xlink:href="#mf4f63eab8a" x="140.189165" y="242.124" style="stroke: #000000; stroke-width: 1.5"/>
      </g>
     </g>
     <g id="line2d_40">
      <g>
       <use xlink:href="#m1f0361b73c" x="140.189165" y="10.8" style="stroke: #000000; stroke-width: 1.5"/>
      </g>
     </g>
    </g>
    <g id="xtick_18">
     <g id="line2d_41">
      <g>
       <use xlink:href="#mf4f63eab8a" x="157.252921" y="242.124" style="stroke: #000000; stroke-width: 1.5"/>
      </g>
     </g>
     <g id="line2d_42">
      <g>
       <use xlink:href="#m1f0361b73c" x="157.252921" y="10.8" style="stroke: #000000; stroke-width: 1.5"/>
      </g>
     </g>
    </g>
    <g id="xtick_19">
     <g id="line2d_43">
      <g>
       <use xlink:href="#mf4f63eab8a" x="165.784799" y="242.124" style="stroke: #000000; stroke-width: 1.5"/>
      </g>
     </g>
     <g id="line2d_44">
      <g>
       <use xlink:href="#m1f0361b73c" x="165.784799" y="10.8" style="stroke: #000000; stroke-width: 1.5"/>
      </g>
     </g>
    </g>
    <g id="xtick_20">
     <g id="line2d_45">
      <g>
       <use xlink:href="#mf4f63eab8a" x="174.316677" y="242.124" style="stroke: #000000; stroke-width: 1.5"/>
      </g>
     </g>
     <g id="line2d_46">
      <g>
       <use xlink:href="#m1f0361b73c" x="174.316677" y="10.8" style="stroke: #000000; stroke-width: 1.5"/>
      </g>
     </g>
    </g>
    <g id="xtick_21">
     <g id="line2d_47">
      <g>
       <use xlink:href="#mf4f63eab8a" x="182.848556" y="242.124" style="stroke: #000000; stroke-width: 1.5"/>
      </g>
     </g>
     <g id="line2d_48">
      <g>
       <use xlink:href="#m1f0361b73c" x="182.848556" y="10.8" style="stroke: #000000; stroke-width: 1.5"/>
      </g>
     </g>
    </g>
    <g id="xtick_22">
     <g id="line2d_49">
      <g>
       <use xlink:href="#mf4f63eab8a" x="199.912312" y="242.124" style="stroke: #000000; stroke-width: 1.5"/>
      </g>
     </g>
     <g id="line2d_50">
      <g>
       <use xlink:href="#m1f0361b73c" x="199.912312" y="10.8" style="stroke: #000000; stroke-width: 1.5"/>
      </g>
     </g>
    </g>
    <g id="xtick_23">
     <g id="line2d_51">
      <g>
       <use xlink:href="#mf4f63eab8a" x="208.44419" y="242.124" style="stroke: #000000; stroke-width: 1.5"/>
      </g>
     </g>
     <g id="line2d_52">
      <g>
       <use xlink:href="#m1f0361b73c" x="208.44419" y="10.8" style="stroke: #000000; stroke-width: 1.5"/>
      </g>
     </g>
    </g>
    <g id="xtick_24">
     <g id="line2d_53">
      <g>
       <use xlink:href="#mf4f63eab8a" x="216.976068" y="242.124" style="stroke: #000000; stroke-width: 1.5"/>
      </g>
     </g>
     <g id="line2d_54">
      <g>
       <use xlink:href="#m1f0361b73c" x="216.976068" y="10.8" style="stroke: #000000; stroke-width: 1.5"/>
      </g>
     </g>
    </g>
    <g id="xtick_25">
     <g id="line2d_55">
      <g>
       <use xlink:href="#mf4f63eab8a" x="225.507946" y="242.124" style="stroke: #000000; stroke-width: 1.5"/>
      </g>
     </g>
     <g id="line2d_56">
      <g>
       <use xlink:href="#m1f0361b73c" x="225.507946" y="10.8" style="stroke: #000000; stroke-width: 1.5"/>
      </g>
     </g>
    </g>
    <g id="xtick_26">
     <g id="line2d_57">
      <g>
       <use xlink:href="#mf4f63eab8a" x="242.571703" y="242.124" style="stroke: #000000; stroke-width: 1.5"/>
      </g>
     </g>
     <g id="line2d_58">
      <g>
       <use xlink:href="#m1f0361b73c" x="242.571703" y="10.8" style="stroke: #000000; stroke-width: 1.5"/>
      </g>
     </g>
    </g>
    <g id="xtick_27">
     <g id="line2d_59">
      <g>
       <use xlink:href="#mf4f63eab8a" x="251.103581" y="242.124" style="stroke: #000000; stroke-width: 1.5"/>
      </g>
     </g>
     <g id="line2d_60">
      <g>
       <use xlink:href="#m1f0361b73c" x="251.103581" y="10.8" style="stroke: #000000; stroke-width: 1.5"/>
      </g>
     </g>
    </g>
    <g id="xtick_28">
     <g id="line2d_61">
      <g>
       <use xlink:href="#mf4f63eab8a" x="259.635459" y="242.124" style="stroke: #000000; stroke-width: 1.5"/>
      </g>
     </g>
     <g id="line2d_62">
      <g>
       <use xlink:href="#m1f0361b73c" x="259.635459" y="10.8" style="stroke: #000000; stroke-width: 1.5"/>
      </g>
     </g>
    </g>
    <g id="xtick_29">
     <g id="line2d_63">
      <g>
       <use xlink:href="#mf4f63eab8a" x="268.167337" y="242.124" style="stroke: #000000; stroke-width: 1.5"/>
      </g>
     </g>
     <g id="line2d_64">
      <g>
       <use xlink:href="#m1f0361b73c" x="268.167337" y="10.8" style="stroke: #000000; stroke-width: 1.5"/>
      </g>
     </g>
    </g>
    <g id="xtick_30">
     <g id="line2d_65">
      <g>
       <use xlink:href="#mf4f63eab8a" x="285.231094" y="242.124" style="stroke: #000000; stroke-width: 1.5"/>
      </g>
     </g>
     <g id="line2d_66">
      <g>
       <use xlink:href="#m1f0361b73c" x="285.231094" y="10.8" style="stroke: #000000; stroke-width: 1.5"/>
      </g>
     </g>
    </g>
    <g id="xtick_31">
     <g id="line2d_67">
      <g>
       <use xlink:href="#mf4f63eab8a" x="293.762972" y="242.124" style="stroke: #000000; stroke-width: 1.5"/>
      </g>
     </g>
     <g id="line2d_68">
      <g>
       <use xlink:href="#m1f0361b73c" x="293.762972" y="10.8" style="stroke: #000000; stroke-width: 1.5"/>
      </g>
     </g>
    </g>
    <g id="xtick_32">
     <g id="line2d_69">
      <g>
       <use xlink:href="#mf4f63eab8a" x="302.29485" y="242.124" style="stroke: #000000; stroke-width: 1.5"/>
      </g>
     </g>
     <g id="line2d_70">
      <g>
       <use xlink:href="#m1f0361b73c" x="302.29485" y="10.8" style="stroke: #000000; stroke-width: 1.5"/>
      </g>
     </g>
    </g>
    <g id="xtick_33">
     <g id="line2d_71">
      <g>
       <use xlink:href="#mf4f63eab8a" x="310.826728" y="242.124" style="stroke: #000000; stroke-width: 1.5"/>
      </g>
     </g>
     <g id="line2d_72">
      <g>
       <use xlink:href="#m1f0361b73c" x="310.826728" y="10.8" style="stroke: #000000; stroke-width: 1.5"/>
      </g>
     </g>
    </g>
    <g id="xtick_34">
     <g id="line2d_73">
      <g>
       <use xlink:href="#mf4f63eab8a" x="327.890485" y="242.124" style="stroke: #000000; stroke-width: 1.5"/>
      </g>
     </g>
     <g id="line2d_74">
      <g>
       <use xlink:href="#m1f0361b73c" x="327.890485" y="10.8" style="stroke: #000000; stroke-width: 1.5"/>
      </g>
     </g>
    </g>
    <g id="xtick_35">
     <g id="line2d_75">
      <g>
       <use xlink:href="#mf4f63eab8a" x="336.422363" y="242.124" style="stroke: #000000; stroke-width: 1.5"/>
      </g>
     </g>
     <g id="line2d_76">
      <g>
       <use xlink:href="#m1f0361b73c" x="336.422363" y="10.8" style="stroke: #000000; stroke-width: 1.5"/>
      </g>
     </g>
    </g>
    <g id="xtick_36">
     <g id="line2d_77">
      <g>
       <use xlink:href="#mf4f63eab8a" x="344.954241" y="242.124" style="stroke: #000000; stroke-width: 1.5"/>
      </g>
     </g>
     <g id="line2d_78">
      <g>
       <use xlink:href="#m1f0361b73c" x="344.954241" y="10.8" style="stroke: #000000; stroke-width: 1.5"/>
      </g>
     </g>
    </g>
    <g id="xtick_37">
     <g id="line2d_79">
      <g>
       <use xlink:href="#mf4f63eab8a" x="353.486119" y="242.124" style="stroke: #000000; stroke-width: 1.5"/>
      </g>
     </g>
     <g id="line2d_80">
      <g>
       <use xlink:href="#m1f0361b73c" x="353.486119" y="10.8" style="stroke: #000000; stroke-width: 1.5"/>
      </g>
     </g>
    </g>
    <g id="xtick_38">
     <g id="line2d_81">
      <g>
       <use xlink:href="#mf4f63eab8a" x="370.549875" y="242.124" style="stroke: #000000; stroke-width: 1.5"/>
      </g>
     </g>
     <g id="line2d_82">
      <g>
       <use xlink:href="#m1f0361b73c" x="370.549875" y="10.8" style="stroke: #000000; stroke-width: 1.5"/>
      </g>
     </g>
    </g>
    <g id="xtick_39">
     <g id="line2d_83">
      <g>
       <use xlink:href="#mf4f63eab8a" x="379.081754" y="242.124" style="stroke: #000000; stroke-width: 1.5"/>
      </g>
     </g>
     <g id="line2d_84">
      <g>
       <use xlink:href="#m1f0361b73c" x="379.081754" y="10.8" style="stroke: #000000; stroke-width: 1.5"/>
      </g>
     </g>
    </g>
    <g id="xtick_40">
     <g id="line2d_85">
      <g>
       <use xlink:href="#mf4f63eab8a" x="387.613632" y="242.124" style="stroke: #000000; stroke-width: 1.5"/>
      </g>
     </g>
     <g id="line2d_86">
      <g>
       <use xlink:href="#m1f0361b73c" x="387.613632" y="10.8" style="stroke: #000000; stroke-width: 1.5"/>
      </g>
     </g>
    </g>
    <g id="xtick_41">
     <g id="line2d_87">
      <g>
       <use xlink:href="#mf4f63eab8a" x="396.14551" y="242.124" style="stroke: #000000; stroke-width: 1.5"/>
      </g>
     </g>
     <g id="line2d_88">
      <g>
       <use xlink:href="#m1f0361b73c" x="396.14551" y="10.8" style="stroke: #000000; stroke-width: 1.5"/>
      </g>
     </g>
    </g>
    <g id="xtick_42">
     <g id="line2d_89">
      <g>
       <use xlink:href="#mf4f63eab8a" x="413.209266" y="242.124" style="stroke: #000000; stroke-width: 1.5"/>
      </g>
     </g>
     <g id="line2d_90">
      <g>
       <use xlink:href="#m1f0361b73c" x="413.209266" y="10.8" style="stroke: #000000; stroke-width: 1.5"/>
      </g>
     </g>
    </g>
    <g id="text_13">
     <!-- Distance [R$_\odot$] -->
     <g transform="translate(197.211 270.355875) scale(0.12 -0.12)">
      <defs>
       <path id="DejaVuSans-44" d="M 1259 4147 
L 1259 519 
L 2022 519 
Q 2988 519 3436 956 
Q 3884 1394 3884 2338 
Q 3884 3275 3436 3711 
Q 2988 4147 2022 4147 
L 1259 4147 
z
M 628 4666 
L 1925 4666 
Q 3281 4666 3915 4102 
Q 4550 3538 4550 2338 
Q 4550 1131 3912 565 
Q 3275 0 1925 0 
L 628 0 
L 628 4666 
z
" transform="scale(0.015625)"/>
       <path id="DejaVuSans-63" d="M 3122 3366 
L 3122 2828 
Q 2878 2963 2633 3030 
Q 2388 3097 2138 3097 
Q 1578 3097 1268 2742 
Q 959 2388 959 1747 
Q 959 1106 1268 751 
Q 1578 397 2138 397 
Q 2388 397 2633 464 
Q 2878 531 3122 666 
L 3122 134 
Q 2881 22 2623 -34 
Q 2366 -91 2075 -91 
Q 1284 -91 818 406 
Q 353 903 353 1747 
Q 353 2603 823 3093 
Q 1294 3584 2113 3584 
Q 2378 3584 2631 3529 
Q 2884 3475 3122 3366 
z
" transform="scale(0.015625)"/>
       <path id="DejaVuSans-65" d="M 3597 1894 
L 3597 1613 
L 953 1613 
Q 991 1019 1311 708 
Q 1631 397 2203 397 
Q 2534 397 2845 478 
Q 3156 559 3463 722 
L 3463 178 
Q 3153 47 2828 -22 
Q 2503 -91 2169 -91 
Q 1331 -91 842 396 
Q 353 884 353 1716 
Q 353 2575 817 3079 
Q 1281 3584 2069 3584 
Q 2775 3584 3186 3129 
Q 3597 2675 3597 1894 
z
M 3022 2063 
Q 3016 2534 2758 2815 
Q 2500 3097 2075 3097 
Q 1594 3097 1305 2825 
Q 1016 2553 972 2059 
L 3022 2063 
z
" transform="scale(0.015625)"/>
       <path id="DejaVuSans-5b" d="M 550 4863 
L 1875 4863 
L 1875 4416 
L 1125 4416 
L 1125 -397 
L 1875 -397 
L 1875 -844 
L 550 -844 
L 550 4863 
z
" transform="scale(0.015625)"/>
       <path id="DejaVuSans-52" d="M 2841 2188 
Q 3044 2119 3236 1894 
Q 3428 1669 3622 1275 
L 4263 0 
L 3584 0 
L 2988 1197 
Q 2756 1666 2539 1819 
Q 2322 1972 1947 1972 
L 1259 1972 
L 1259 0 
L 628 0 
L 628 4666 
L 2053 4666 
Q 2853 4666 3247 4331 
Q 3641 3997 3641 3322 
Q 3641 2881 3436 2590 
Q 3231 2300 2841 2188 
z
M 1259 4147 
L 1259 2491 
L 2053 2491 
Q 2509 2491 2742 2702 
Q 2975 2913 2975 3322 
Q 2975 3731 2742 3939 
Q 2509 4147 2053 4147 
L 1259 4147 
z
" transform="scale(0.015625)"/>
       <path id="DejaVuSans-2299" d="M 2350 2403 
L 3013 2403 
L 3013 1609 
L 2350 1609 
L 2350 2403 
z
M 3306 3522 
Q 3016 3644 2681 3644 
Q 2347 3644 2056 3522 
Q 1769 3400 1531 3163 
Q 1291 2922 1172 2634 
Q 1053 2347 1053 2006 
Q 1053 1675 1172 1387 
Q 1291 1100 1531 859 
Q 1769 622 2056 500 
Q 2347 378 2681 378 
Q 3016 378 3306 500 
Q 3594 622 3831 859 
Q 4072 1100 4190 1387 
Q 4309 1675 4309 2006 
Q 4309 2347 4190 2634 
Q 4072 2922 3831 3163 
Q 3594 3400 3306 3522 
z
M 1878 3956 
Q 2250 4113 2681 4113 
Q 3113 4113 3484 3956 
Q 3856 3800 4163 3494 
Q 4472 3184 4625 2813 
Q 4778 2444 4778 2006 
Q 4778 1578 4625 1206 
Q 4472 838 4163 528 
Q 3856 222 3484 65 
Q 3113 -91 2681 -91 
Q 2250 -91 1878 65 
Q 1506 222 1200 528 
Q 891 838 738 1206 
Q 584 1578 584 2006 
Q 584 2444 738 2813 
Q 891 3184 1200 3494 
Q 1506 3800 1878 3956 
z
" transform="scale(0.015625)"/>
       <path id="DejaVuSans-5d" d="M 1947 4863 
L 1947 -844 
L 622 -844 
L 622 -397 
L 1369 -397 
L 1369 4416 
L 622 4416 
L 622 4863 
L 1947 4863 
z
" transform="scale(0.015625)"/>
      </defs>
      <use xlink:href="#DejaVuSans-44" transform="translate(0 0.015625)"/>
      <use xlink:href="#DejaVuSans-69" transform="translate(77.001953 0.015625)"/>
      <use xlink:href="#DejaVuSans-73" transform="translate(104.785156 0.015625)"/>
      <use xlink:href="#DejaVuSans-74" transform="translate(156.884766 0.015625)"/>
      <use xlink:href="#DejaVuSans-61" transform="translate(196.09375 0.015625)"/>
      <use xlink:href="#DejaVuSans-6e" transform="translate(257.373047 0.015625)"/>
      <use xlink:href="#DejaVuSans-63" transform="translate(320.751953 0.015625)"/>
      <use xlink:href="#DejaVuSans-65" transform="translate(375.732422 0.015625)"/>
      <use xlink:href="#DejaVuSans-20" transform="translate(437.255859 0.015625)"/>
      <use xlink:href="#DejaVuSans-5b" transform="translate(469.042969 0.015625)"/>
      <use xlink:href="#DejaVuSans-52" transform="translate(504.931641 0.015625)"/>
      <use xlink:href="#DejaVuSans-2299" transform="translate(589.008789 -16.390625) scale(0.7)"/>
      <use xlink:href="#DejaVuSans-5d" transform="translate(664.033203 0.015625)"/>
     </g>
    </g>
   </g>
   <g id="matplotlib.axis_2">
    <g id="ytick_1">
     <g id="line2d_91">
      <defs>
       <path id="md7ab80b554" d="M 0 0 
L 3.5 0 
" style="stroke: #000000; stroke-width: 1.5"/>
      </defs>
      <g>
       <use xlink:href="#md7ab80b554" x="57.702" y="230.507919" style="stroke: #000000; stroke-width: 1.5"/>
      </g>
     </g>
     <g id="line2d_92">
      <defs>
       <path id="m0734b3bca4" d="M 0 0 
L -3.5 0 
" style="stroke: #000000; stroke-width: 1.5"/>
      </defs>
      <g>
       <use xlink:href="#m0734b3bca4" x="421.2" y="230.507919" style="stroke: #000000; stroke-width: 1.5"/>
      </g>
     </g>
     <g id="text_14">
      <!-- 0 -->
      <g transform="translate(46.567 235.066981) scale(0.12 -0.12)">
       <use xlink:href="#DejaVuSans-30"/>
      </g>
     </g>
    </g>
    <g id="ytick_2">
     <g id="line2d_93">
      <g>
       <use xlink:href="#md7ab80b554" x="57.702" y="198.407991" style="stroke: #000000; stroke-width: 1.5"/>
      </g>
     </g>
     <g id="line2d_94">
      <g>
       <use xlink:href="#m0734b3bca4" x="421.2" y="198.407991" style="stroke: #000000; stroke-width: 1.5"/>
      </g>
     </g>
     <g id="text_15">
      <!-- 100 -->
      <g transform="translate(31.297 202.967054) scale(0.12 -0.12)">
       <use xlink:href="#DejaVuSans-31"/>
       <use xlink:href="#DejaVuSans-30" x="63.623047"/>
       <use xlink:href="#DejaVuSans-30" x="127.246094"/>
      </g>
     </g>
    </g>
    <g id="ytick_3">
     <g id="line2d_95">
      <g>
       <use xlink:href="#md7ab80b554" x="57.702" y="166.308064" style="stroke: #000000; stroke-width: 1.5"/>
      </g>
     </g>
     <g id="line2d_96">
      <g>
       <use xlink:href="#m0734b3bca4" x="421.2" y="166.308064" style="stroke: #000000; stroke-width: 1.5"/>
      </g>
     </g>
     <g id="text_16">
      <!-- 200 -->
      <g transform="translate(31.297 170.867127) scale(0.12 -0.12)">
       <use xlink:href="#DejaVuSans-32"/>
       <use xlink:href="#DejaVuSans-30" x="63.623047"/>
       <use xlink:href="#DejaVuSans-30" x="127.246094"/>
      </g>
     </g>
    </g>
    <g id="ytick_4">
     <g id="line2d_97">
      <g>
       <use xlink:href="#md7ab80b554" x="57.702" y="134.208137" style="stroke: #000000; stroke-width: 1.5"/>
      </g>
     </g>
     <g id="line2d_98">
      <g>
       <use xlink:href="#m0734b3bca4" x="421.2" y="134.208137" style="stroke: #000000; stroke-width: 1.5"/>
      </g>
     </g>
     <g id="text_17">
      <!-- 300 -->
      <g transform="translate(31.297 138.767199) scale(0.12 -0.12)">
       <use xlink:href="#DejaVuSans-33"/>
       <use xlink:href="#DejaVuSans-30" x="63.623047"/>
       <use xlink:href="#DejaVuSans-30" x="127.246094"/>
      </g>
     </g>
    </g>
    <g id="ytick_5">
     <g id="line2d_99">
      <g>
       <use xlink:href="#md7ab80b554" x="57.702" y="102.108209" style="stroke: #000000; stroke-width: 1.5"/>
      </g>
     </g>
     <g id="line2d_100">
      <g>
       <use xlink:href="#m0734b3bca4" x="421.2" y="102.108209" style="stroke: #000000; stroke-width: 1.5"/>
      </g>
     </g>
     <g id="text_18">
      <!-- 400 -->
      <g transform="translate(31.297 106.667272) scale(0.12 -0.12)">
       <use xlink:href="#DejaVuSans-34"/>
       <use xlink:href="#DejaVuSans-30" x="63.623047"/>
       <use xlink:href="#DejaVuSans-30" x="127.246094"/>
      </g>
     </g>
    </g>
    <g id="ytick_6">
     <g id="line2d_101">
      <g>
       <use xlink:href="#md7ab80b554" x="57.702" y="70.008282" style="stroke: #000000; stroke-width: 1.5"/>
      </g>
     </g>
     <g id="line2d_102">
      <g>
       <use xlink:href="#m0734b3bca4" x="421.2" y="70.008282" style="stroke: #000000; stroke-width: 1.5"/>
      </g>
     </g>
     <g id="text_19">
      <!-- 500 -->
      <g transform="translate(31.297 74.567344) scale(0.12 -0.12)">
       <use xlink:href="#DejaVuSans-35"/>
       <use xlink:href="#DejaVuSans-30" x="63.623047"/>
       <use xlink:href="#DejaVuSans-30" x="127.246094"/>
      </g>
     </g>
    </g>
    <g id="ytick_7">
     <g id="line2d_103">
      <g>
       <use xlink:href="#md7ab80b554" x="57.702" y="37.908354" style="stroke: #000000; stroke-width: 1.5"/>
      </g>
     </g>
     <g id="line2d_104">
      <g>
       <use xlink:href="#m0734b3bca4" x="421.2" y="37.908354" style="stroke: #000000; stroke-width: 1.5"/>
      </g>
     </g>
     <g id="text_20">
      <!-- 600 -->
      <g transform="translate(31.297 42.467417) scale(0.12 -0.12)">
       <defs>
        <path id="DejaVuSans-36" d="M 2113 2584 
Q 1688 2584 1439 2293 
Q 1191 2003 1191 1497 
Q 1191 994 1439 701 
Q 1688 409 2113 409 
Q 2538 409 2786 701 
Q 3034 994 3034 1497 
Q 3034 2003 2786 2293 
Q 2538 2584 2113 2584 
z
M 3366 4563 
L 3366 3988 
Q 3128 4100 2886 4159 
Q 2644 4219 2406 4219 
Q 1781 4219 1451 3797 
Q 1122 3375 1075 2522 
Q 1259 2794 1537 2939 
Q 1816 3084 2150 3084 
Q 2853 3084 3261 2657 
Q 3669 2231 3669 1497 
Q 3669 778 3244 343 
Q 2819 -91 2113 -91 
Q 1303 -91 875 529 
Q 447 1150 447 2328 
Q 447 3434 972 4092 
Q 1497 4750 2381 4750 
Q 2619 4750 2861 4703 
Q 3103 4656 3366 4563 
z
" transform="scale(0.015625)"/>
       </defs>
       <use xlink:href="#DejaVuSans-36"/>
       <use xlink:href="#DejaVuSans-30" x="63.623047"/>
       <use xlink:href="#DejaVuSans-30" x="127.246094"/>
      </g>
     </g>
    </g>
    <g id="ytick_8">
     <g id="line2d_105">
      <defs>
       <path id="m487abb83ca" d="M 0 0 
L 2 0 
" style="stroke: #000000; stroke-width: 1.5"/>
      </defs>
      <g>
       <use xlink:href="#m487abb83ca" x="57.702" y="236.927904" style="stroke: #000000; stroke-width: 1.5"/>
      </g>
     </g>
     <g id="line2d_106">
      <defs>
       <path id="m0ac2b00a43" d="M 0 0 
L -2 0 
" style="stroke: #000000; stroke-width: 1.5"/>
      </defs>
      <g>
       <use xlink:href="#m0ac2b00a43" x="421.2" y="236.927904" style="stroke: #000000; stroke-width: 1.5"/>
      </g>
     </g>
    </g>
    <g id="ytick_9">
     <g id="line2d_107">
      <g>
       <use xlink:href="#m487abb83ca" x="57.702" y="224.087933" style="stroke: #000000; stroke-width: 1.5"/>
      </g>
     </g>
     <g id="line2d_108">
      <g>
       <use xlink:href="#m0ac2b00a43" x="421.2" y="224.087933" style="stroke: #000000; stroke-width: 1.5"/>
      </g>
     </g>
    </g>
    <g id="ytick_10">
     <g id="line2d_109">
      <g>
       <use xlink:href="#m487abb83ca" x="57.702" y="217.667948" style="stroke: #000000; stroke-width: 1.5"/>
      </g>
     </g>
     <g id="line2d_110">
      <g>
       <use xlink:href="#m0ac2b00a43" x="421.2" y="217.667948" style="stroke: #000000; stroke-width: 1.5"/>
      </g>
     </g>
    </g>
    <g id="ytick_11">
     <g id="line2d_111">
      <g>
       <use xlink:href="#m487abb83ca" x="57.702" y="211.247962" style="stroke: #000000; stroke-width: 1.5"/>
      </g>
     </g>
     <g id="line2d_112">
      <g>
       <use xlink:href="#m0ac2b00a43" x="421.2" y="211.247962" style="stroke: #000000; stroke-width: 1.5"/>
      </g>
     </g>
    </g>
    <g id="ytick_12">
     <g id="line2d_113">
      <g>
       <use xlink:href="#m487abb83ca" x="57.702" y="204.827977" style="stroke: #000000; stroke-width: 1.5"/>
      </g>
     </g>
     <g id="line2d_114">
      <g>
       <use xlink:href="#m0ac2b00a43" x="421.2" y="204.827977" style="stroke: #000000; stroke-width: 1.5"/>
      </g>
     </g>
    </g>
    <g id="ytick_13">
     <g id="line2d_115">
      <g>
       <use xlink:href="#m487abb83ca" x="57.702" y="191.988006" style="stroke: #000000; stroke-width: 1.5"/>
      </g>
     </g>
     <g id="line2d_116">
      <g>
       <use xlink:href="#m0ac2b00a43" x="421.2" y="191.988006" style="stroke: #000000; stroke-width: 1.5"/>
      </g>
     </g>
    </g>
    <g id="ytick_14">
     <g id="line2d_117">
      <g>
       <use xlink:href="#m487abb83ca" x="57.702" y="185.568021" style="stroke: #000000; stroke-width: 1.5"/>
      </g>
     </g>
     <g id="line2d_118">
      <g>
       <use xlink:href="#m0ac2b00a43" x="421.2" y="185.568021" style="stroke: #000000; stroke-width: 1.5"/>
      </g>
     </g>
    </g>
    <g id="ytick_15">
     <g id="line2d_119">
      <g>
       <use xlink:href="#m487abb83ca" x="57.702" y="179.148035" style="stroke: #000000; stroke-width: 1.5"/>
      </g>
     </g>
     <g id="line2d_120">
      <g>
       <use xlink:href="#m0ac2b00a43" x="421.2" y="179.148035" style="stroke: #000000; stroke-width: 1.5"/>
      </g>
     </g>
    </g>
    <g id="ytick_16">
     <g id="line2d_121">
      <g>
       <use xlink:href="#m487abb83ca" x="57.702" y="172.72805" style="stroke: #000000; stroke-width: 1.5"/>
      </g>
     </g>
     <g id="line2d_122">
      <g>
       <use xlink:href="#m0ac2b00a43" x="421.2" y="172.72805" style="stroke: #000000; stroke-width: 1.5"/>
      </g>
     </g>
    </g>
    <g id="ytick_17">
     <g id="line2d_123">
      <g>
       <use xlink:href="#m487abb83ca" x="57.702" y="159.888079" style="stroke: #000000; stroke-width: 1.5"/>
      </g>
     </g>
     <g id="line2d_124">
      <g>
       <use xlink:href="#m0ac2b00a43" x="421.2" y="159.888079" style="stroke: #000000; stroke-width: 1.5"/>
      </g>
     </g>
    </g>
    <g id="ytick_18">
     <g id="line2d_125">
      <g>
       <use xlink:href="#m487abb83ca" x="57.702" y="153.468093" style="stroke: #000000; stroke-width: 1.5"/>
      </g>
     </g>
     <g id="line2d_126">
      <g>
       <use xlink:href="#m0ac2b00a43" x="421.2" y="153.468093" style="stroke: #000000; stroke-width: 1.5"/>
      </g>
     </g>
    </g>
    <g id="ytick_19">
     <g id="line2d_127">
      <g>
       <use xlink:href="#m487abb83ca" x="57.702" y="147.048108" style="stroke: #000000; stroke-width: 1.5"/>
      </g>
     </g>
     <g id="line2d_128">
      <g>
       <use xlink:href="#m0ac2b00a43" x="421.2" y="147.048108" style="stroke: #000000; stroke-width: 1.5"/>
      </g>
     </g>
    </g>
    <g id="ytick_20">
     <g id="line2d_129">
      <g>
       <use xlink:href="#m487abb83ca" x="57.702" y="140.628122" style="stroke: #000000; stroke-width: 1.5"/>
      </g>
     </g>
     <g id="line2d_130">
      <g>
       <use xlink:href="#m0ac2b00a43" x="421.2" y="140.628122" style="stroke: #000000; stroke-width: 1.5"/>
      </g>
     </g>
    </g>
    <g id="ytick_21">
     <g id="line2d_131">
      <g>
       <use xlink:href="#m487abb83ca" x="57.702" y="127.788151" style="stroke: #000000; stroke-width: 1.5"/>
      </g>
     </g>
     <g id="line2d_132">
      <g>
       <use xlink:href="#m0ac2b00a43" x="421.2" y="127.788151" style="stroke: #000000; stroke-width: 1.5"/>
      </g>
     </g>
    </g>
    <g id="ytick_22">
     <g id="line2d_133">
      <g>
       <use xlink:href="#m487abb83ca" x="57.702" y="121.368166" style="stroke: #000000; stroke-width: 1.5"/>
      </g>
     </g>
     <g id="line2d_134">
      <g>
       <use xlink:href="#m0ac2b00a43" x="421.2" y="121.368166" style="stroke: #000000; stroke-width: 1.5"/>
      </g>
     </g>
    </g>
    <g id="ytick_23">
     <g id="line2d_135">
      <g>
       <use xlink:href="#m487abb83ca" x="57.702" y="114.94818" style="stroke: #000000; stroke-width: 1.5"/>
      </g>
     </g>
     <g id="line2d_136">
      <g>
       <use xlink:href="#m0ac2b00a43" x="421.2" y="114.94818" style="stroke: #000000; stroke-width: 1.5"/>
      </g>
     </g>
    </g>
    <g id="ytick_24">
     <g id="line2d_137">
      <g>
       <use xlink:href="#m487abb83ca" x="57.702" y="108.528195" style="stroke: #000000; stroke-width: 1.5"/>
      </g>
     </g>
     <g id="line2d_138">
      <g>
       <use xlink:href="#m0ac2b00a43" x="421.2" y="108.528195" style="stroke: #000000; stroke-width: 1.5"/>
      </g>
     </g>
    </g>
    <g id="ytick_25">
     <g id="line2d_139">
      <g>
       <use xlink:href="#m487abb83ca" x="57.702" y="95.688224" style="stroke: #000000; stroke-width: 1.5"/>
      </g>
     </g>
     <g id="line2d_140">
      <g>
       <use xlink:href="#m0ac2b00a43" x="421.2" y="95.688224" style="stroke: #000000; stroke-width: 1.5"/>
      </g>
     </g>
    </g>
    <g id="ytick_26">
     <g id="line2d_141">
      <g>
       <use xlink:href="#m487abb83ca" x="57.702" y="89.268238" style="stroke: #000000; stroke-width: 1.5"/>
      </g>
     </g>
     <g id="line2d_142">
      <g>
       <use xlink:href="#m0ac2b00a43" x="421.2" y="89.268238" style="stroke: #000000; stroke-width: 1.5"/>
      </g>
     </g>
    </g>
    <g id="ytick_27">
     <g id="line2d_143">
      <g>
       <use xlink:href="#m487abb83ca" x="57.702" y="82.848253" style="stroke: #000000; stroke-width: 1.5"/>
      </g>
     </g>
     <g id="line2d_144">
      <g>
       <use xlink:href="#m0ac2b00a43" x="421.2" y="82.848253" style="stroke: #000000; stroke-width: 1.5"/>
      </g>
     </g>
    </g>
    <g id="ytick_28">
     <g id="line2d_145">
      <g>
       <use xlink:href="#m487abb83ca" x="57.702" y="76.428267" style="stroke: #000000; stroke-width: 1.5"/>
      </g>
     </g>
     <g id="line2d_146">
      <g>
       <use xlink:href="#m0ac2b00a43" x="421.2" y="76.428267" style="stroke: #000000; stroke-width: 1.5"/>
      </g>
     </g>
    </g>
    <g id="ytick_29">
     <g id="line2d_147">
      <g>
       <use xlink:href="#m487abb83ca" x="57.702" y="63.588296" style="stroke: #000000; stroke-width: 1.5"/>
      </g>
     </g>
     <g id="line2d_148">
      <g>
       <use xlink:href="#m0ac2b00a43" x="421.2" y="63.588296" style="stroke: #000000; stroke-width: 1.5"/>
      </g>
     </g>
    </g>
    <g id="ytick_30">
     <g id="line2d_149">
      <g>
       <use xlink:href="#m487abb83ca" x="57.702" y="57.168311" style="stroke: #000000; stroke-width: 1.5"/>
      </g>
     </g>
     <g id="line2d_150">
      <g>
       <use xlink:href="#m0ac2b00a43" x="421.2" y="57.168311" style="stroke: #000000; stroke-width: 1.5"/>
      </g>
     </g>
    </g>
    <g id="ytick_31">
     <g id="line2d_151">
      <g>
       <use xlink:href="#m487abb83ca" x="57.702" y="50.748325" style="stroke: #000000; stroke-width: 1.5"/>
      </g>
     </g>
     <g id="line2d_152">
      <g>
       <use xlink:href="#m0ac2b00a43" x="421.2" y="50.748325" style="stroke: #000000; stroke-width: 1.5"/>
      </g>
     </g>
    </g>
    <g id="ytick_32">
     <g id="line2d_153">
      <g>
       <use xlink:href="#m487abb83ca" x="57.702" y="44.32834" style="stroke: #000000; stroke-width: 1.5"/>
      </g>
     </g>
     <g id="line2d_154">
      <g>
       <use xlink:href="#m0ac2b00a43" x="421.2" y="44.32834" style="stroke: #000000; stroke-width: 1.5"/>
      </g>
     </g>
    </g>
    <g id="ytick_33">
     <g id="line2d_155">
      <g>
       <use xlink:href="#m487abb83ca" x="57.702" y="31.488369" style="stroke: #000000; stroke-width: 1.5"/>
      </g>
     </g>
     <g id="line2d_156">
      <g>
       <use xlink:href="#m0ac2b00a43" x="421.2" y="31.488369" style="stroke: #000000; stroke-width: 1.5"/>
      </g>
     </g>
    </g>
    <g id="ytick_34">
     <g id="line2d_157">
      <g>
       <use xlink:href="#m487abb83ca" x="57.702" y="25.068383" style="stroke: #000000; stroke-width: 1.5"/>
      </g>
     </g>
     <g id="line2d_158">
      <g>
       <use xlink:href="#m0ac2b00a43" x="421.2" y="25.068383" style="stroke: #000000; stroke-width: 1.5"/>
      </g>
     </g>
    </g>
    <g id="ytick_35">
     <g id="line2d_159">
      <g>
       <use xlink:href="#m487abb83ca" x="57.702" y="18.648398" style="stroke: #000000; stroke-width: 1.5"/>
      </g>
     </g>
     <g id="line2d_160">
      <g>
       <use xlink:href="#m0ac2b00a43" x="421.2" y="18.648398" style="stroke: #000000; stroke-width: 1.5"/>
      </g>
     </g>
    </g>
    <g id="ytick_36">
     <g id="line2d_161">
      <g>
       <use xlink:href="#m487abb83ca" x="57.702" y="12.228412" style="stroke: #000000; stroke-width: 1.5"/>
      </g>
     </g>
     <g id="line2d_162">
      <g>
       <use xlink:href="#m0ac2b00a43" x="421.2" y="12.228412" style="stroke: #000000; stroke-width: 1.5"/>
      </g>
     </g>
    </g>
    <g id="text_21">
     <!-- $v_r$ [km s$^{-1}$] -->
     <g transform="translate(24.801375 159.282) rotate(-90) scale(0.12 -0.12)">
      <defs>
       <path id="DejaVuSans-Oblique-76" d="M 459 3500 
L 1069 3500 
L 1581 525 
L 3256 3500 
L 3866 3500 
L 1875 0 
L 1100 0 
L 459 3500 
z
" transform="scale(0.015625)"/>
       <path id="DejaVuSans-Oblique-72" d="M 2853 2969 
Q 2766 3016 2653 3041 
Q 2541 3066 2413 3066 
Q 1953 3066 1609 2717 
Q 1266 2369 1153 1784 
L 800 0 
L 225 0 
L 909 3500 
L 1484 3500 
L 1375 2956 
Q 1603 3259 1920 3421 
Q 2238 3584 2597 3584 
Q 2691 3584 2781 3573 
Q 2872 3563 2963 3538 
L 2853 2969 
z
" transform="scale(0.015625)"/>
       <path id="DejaVuSans-6b" d="M 581 4863 
L 1159 4863 
L 1159 1991 
L 2875 3500 
L 3609 3500 
L 1753 1863 
L 3688 0 
L 2938 0 
L 1159 1709 
L 1159 0 
L 581 0 
L 581 4863 
z
" transform="scale(0.015625)"/>
       <path id="DejaVuSans-6d" d="M 3328 2828 
Q 3544 3216 3844 3400 
Q 4144 3584 4550 3584 
Q 5097 3584 5394 3201 
Q 5691 2819 5691 2113 
L 5691 0 
L 5113 0 
L 5113 2094 
Q 5113 2597 4934 2840 
Q 4756 3084 4391 3084 
Q 3944 3084 3684 2787 
Q 3425 2491 3425 1978 
L 3425 0 
L 2847 0 
L 2847 2094 
Q 2847 2600 2669 2842 
Q 2491 3084 2119 3084 
Q 1678 3084 1418 2786 
Q 1159 2488 1159 1978 
L 1159 0 
L 581 0 
L 581 3500 
L 1159 3500 
L 1159 2956 
Q 1356 3278 1631 3431 
Q 1906 3584 2284 3584 
Q 2666 3584 2933 3390 
Q 3200 3197 3328 2828 
z
" transform="scale(0.015625)"/>
       <path id="DejaVuSans-2212" d="M 678 2272 
L 4684 2272 
L 4684 1741 
L 678 1741 
L 678 2272 
z
" transform="scale(0.015625)"/>
      </defs>
      <use xlink:href="#DejaVuSans-Oblique-76" transform="translate(0 0.684375)"/>
      <use xlink:href="#DejaVuSans-Oblique-72" transform="translate(59.179688 -15.721875) scale(0.7)"/>
      <use xlink:href="#DejaVuSans-20" transform="translate(90.693359 0.684375)"/>
      <use xlink:href="#DejaVuSans-5b" transform="translate(122.480469 0.684375)"/>
      <use xlink:href="#DejaVuSans-6b" transform="translate(161.494141 0.684375)"/>
      <use xlink:href="#DejaVuSans-6d" transform="translate(219.404297 0.684375)"/>
      <use xlink:href="#DejaVuSans-20" transform="translate(316.816406 0.684375)"/>
      <use xlink:href="#DejaVuSans-73" transform="translate(348.603516 0.684375)"/>
      <use xlink:href="#DejaVuSans-2212" transform="translate(401.660156 38.965625) scale(0.7)"/>
      <use xlink:href="#DejaVuSans-31" transform="translate(460.3125 38.965625) scale(0.7)"/>
      <use xlink:href="#DejaVuSans-5d" transform="translate(507.583008 0.684375)"/>
     </g>
    </g>
   </g>
  </g>
 </g>
 <defs>
  <clipPath id="pa7c0b49567">
   <rect x="57.702" y="10.8" width="363.498" height="231.324"/>
  </clipPath>
 </defs>
</svg>
